<?xml version="1.0" encoding="utf-8"?>
<!-- Generator: Adobe Illustrator 27.5.0, SVG Export Plug-In . SVG Version: 6.00 Build 0)  -->
<svg version="1.1" xmlns="http://www.w3.org/2000/svg" xmlns:xlink="http://www.w3.org/1999/xlink" x="0px" y="0px"
	 viewBox="-125 0 750 500" style="enable-background:new -125 0 750 500;" xml:space="preserve">
<g id="BACKGROUND">
	<rect x="-125" style="fill:#FFFFFF;" width="750" height="500"/>
</g>
<g id="OBJECTS" xmlns:serif="http://www.serif.com/">
	<g>
		<g>
			<rect x="-125" style="fill:#FBE7C8;" width="750" height="500"/>
			<rect x="-125" y="295.437" style="fill:#F8D6A8;" width="750" height="204.563"/>
		</g>
		<g>
			<g>
				<path style="fill:#FED4C8;" d="M581.007,181.178H445.39c-3.219,0-5.829,3.199-5.829,7.144v100.263
					c0,5.072,1.569,9.712,4.141,13.233c3.525,4.826,10.082,1.591,10.082-4.886l0,0c0-3.946,2.61-7.144,5.829-7.144h107.171
					c3.219,0,5.829,3.199,5.829,7.144l0,0c0,6.477,6.557,9.712,10.082,4.886c2.572-3.521,4.141-8.161,4.141-13.233V188.322
					C586.836,184.376,584.226,181.178,581.007,181.178z"/>
				<path style="fill:#E7C5BB;" d="M581.007,181.178H445.39c-3.219,0-5.829,3.199-5.829,7.144v3.933
					c0.069,0.002,0.134,0.017,0.204,0.017h146.867c0.07,0,0.135-0.015,0.204-0.017v-3.933
					C586.836,184.376,584.226,181.178,581.007,181.178z"/>
				<path style="fill:#FED4C8;" d="M590.549,188.48H435.848c-2.761,0-5-2.238-5-5v-1.377c0-2.761,2.239-5,5-5h154.701
					c2.761,0,5,2.239,5,5v1.377C595.549,186.241,593.31,188.48,590.549,188.48z"/>
				<g>
					<path style="fill:#FEDCD0;" d="M568.542,233.465H457.855c-1.657,0-3-1.343-3-3v-28.538c0-1.657,1.343-3,3-3h110.688
						c1.657,0,3,1.343,3,3v28.538C571.542,232.122,570.199,233.465,568.542,233.465z"/>
					<path style="fill:#E7C5BB;" d="M517.179,206.83c0,1.845-1.782,3.341-3.981,3.341c-2.198,0-3.981-1.496-3.981-3.341
						c0-1.845,1.782-3.34,3.981-3.34C515.397,203.49,517.179,204.986,517.179,206.83z"/>
				</g>
				<g>
					<path style="fill:#FEDCD0;" d="M568.542,277.078H457.855c-1.657,0-3-1.343-3-3V245.54c0-1.657,1.343-3,3-3h110.688
						c1.657,0,3,1.343,3,3v28.538C571.542,275.735,570.199,277.078,568.542,277.078z"/>
					<path style="fill:#E7C5BB;" d="M517.179,249.496c0,1.845-1.782,3.34-3.981,3.34c-2.198,0-3.981-1.496-3.981-3.34
						c0-1.845,1.782-3.341,3.981-3.341C515.397,246.155,517.179,247.651,517.179,249.496z"/>
				</g>
			</g>
			<g>
				<g>
					<g>
						<path style="fill:#727365;" d="M-51.592,308.539h-2.685c-2.527,0-4.575-2.048-4.575-4.575v-7.857
							c0-2.527,2.049-4.576,4.575-4.576h2.685c2.527,0,4.576,2.048,4.576,4.576v7.857
							C-47.016,306.491-49.065,308.539-51.592,308.539z"/>
						<path style="fill:#727365;" d="M151.691,308.539h-2.685c-2.527,0-4.576-2.048-4.576-4.575v-7.857
							c0-2.527,2.048-4.576,4.576-4.576h2.685c2.527,0,4.576,2.048,4.576,4.576v7.857
							C156.267,306.491,154.218,308.539,151.691,308.539z"/>
					</g>
					<path style="fill:#FED4C8;" d="M156.919,151.593H-59.792c-6.742,0-12.208,5.465-12.208,12.208v123.122
						c0,6.742,5.465,12.208,12.208,12.208h17.928v-2.982c0-3.371,2.733-6.104,6.104-6.104h168.648c3.371,0,6.104,2.733,6.104,6.104
						v2.982h17.928c6.742,0,12.208-5.465,12.208-12.208V163.801C169.127,157.059,163.661,151.593,156.919,151.593z"/>
					<g>
						<path style="fill:#E7C5BB;" d="M145.528,210.84h-193.93c-3.866,0-7-3.134-7-7v-29.743c0-3.866,3.134-7,7-7h193.93
							c3.866,0,7,3.134,7,7v29.743C152.528,207.706,149.394,210.84,145.528,210.84z"/>
						<path style="fill:#FEDCD0;" d="M145.528,207.352h-193.93c-3.866,0-7-3.134-7-7v-29.743c0-3.866,3.134-7,7-7h193.93
							c3.866,0,7,3.134,7,7v29.743C152.528,204.218,149.394,207.352,145.528,207.352z"/>
						<rect x="35.695" y="168.256" style="fill:#E7C5BB;" width="25.737" height="3.357"/>
					</g>
					<g>
						<path style="fill:#E7C5BB;" d="M145.528,279.529h-193.93c-3.866,0-7-3.134-7-7v-44.063c0-3.866,3.134-7,7-7h193.93
							c3.866,0,7,3.134,7,7v44.063C152.528,276.395,149.394,279.529,145.528,279.529z"/>
						<path style="fill:#FEDCD0;" d="M145.528,276.041h-193.93c-3.866,0-7-3.134-7-7v-44.064c0-3.866,3.134-7,7-7h193.93
							c3.866,0,7,3.134,7,7v44.064C152.528,272.907,149.394,276.041,145.528,276.041z"/>
						<rect x="35.695" y="224.062" style="fill:#E7C5BB;" width="25.737" height="3.357"/>
					</g>
				</g>
				<g>
					<g>
						<g>
							<path style="fill:#BDC6BB;" d="M-2.75,86.517c7.25,18.625,7.125,27.25,0.727,32.038c-5.949,4.452-9.452-17.216-12.352-23.538
								c-3.002-6.544-17.618-23.853-10.867-26.957C-18.491,64.956-8.317,72.215-2.75,86.517z"/>
							<path style="fill:none;stroke:#8DA090;stroke-linecap:round;stroke-linejoin:round;stroke-miterlimit:10;" d="
								M-17.463,75.986c0,0,19.969,30.565,14.875,55.22"/>
						</g>
						<g>
							<path style="fill:#BDC6BB;" d="M-22.537,100.4c11.075,6.799,16.096,18.846,12.975,23.93
								c-3.121,5.083-13.819-10.043-18.835-13.129c-5.192-3.194-24.391-6.411-21.27-11.495C-46.545,94.623-33.611,93.6-22.537,100.4
								z"/>
							<path style="fill:none;stroke:#8DA090;stroke-linecap:round;stroke-linejoin:round;stroke-miterlimit:10;" d="
								M-40.45,100.124c0,0,36.894,11.581,31.8,36.236"/>
						</g>
						<g>
							<path style="fill:#BDC6BB;" d="M13.062,99.649C3.23,108.147-0.36,119.478,3.54,123.991c3.9,4.513,12.847-11.25,17.299-15.104
								c4.609-3.99,22.208-11.154,18.307-15.667C35.246,88.706,22.895,91.152,13.062,99.649z"/>
							<path style="fill:none;stroke:#8DA090;stroke-linecap:round;stroke-linejoin:round;stroke-miterlimit:10;" d="M32.023,95.596
								c0,0-33.369,14.461-28.275,39.117"/>
						</g>
					</g>
					<path style="fill:#F29A8C;" d="M5.657,132.678c4.699-0.27,7.576-2.024,7.578-2.554l0.007-2.318l-34.535-0.018l-0.007,2.318
						c-0.002,0.532,2.79,2.732,7.515,3.007c-6.847,1.428-11.228,2.623-11.228,5.987v13.167h41.968v-13.167
						C16.955,135.741,12.485,134.109,5.657,132.678z"/>
				</g>
			</g>
			<g>
				<g>
					<path style="fill:#FEF6E9;" d="M533.591,154.287H479.69c-3.314,0-6-2.686-6-6v-42.895c0-3.314,2.686-6,6-6h53.901
						c3.314,0,6,2.686,6,6v42.895C539.591,151.601,536.904,154.287,533.591,154.287z"/>
					<path style="fill:#FBE7C8;" d="M528.436,149.993h-43.591c-3.314,0-6-2.686-6-6v-34.307c0-3.314,2.686-6,6-6h43.591
						c3.314,0,6,2.686,6,6v34.307C534.436,147.307,531.75,149.993,528.436,149.993z"/>
				</g>
				<g>
					<path style="fill:#FEF6E9;" d="M249.068,118.72h-84.646c-3.314,0-6-2.686-6-6V44.214c0-3.314,2.686-6,6-6h84.646
						c3.314,0,6,2.686,6,6v68.506C255.068,116.033,252.382,118.72,249.068,118.72z"/>
					<path style="fill:#FBE7C8;" d="M241.496,112.413h-69.503c-3.314,0-6-2.686-6-6V50.521c0-3.314,2.686-6,6-6h69.503
						c3.314,0,6,2.686,6,6v55.892C247.496,109.726,244.81,112.413,241.496,112.413z"/>
				</g>
			</g>
		</g>
		<g>
			<ellipse style="fill:#F7BF90;" cx="255.864" cy="406.389" rx="350.76" ry="54.573"/>
			<g>
				<g>
					<path style="fill:#FA6B59;" d="M101.564,205.482c18.374-3.034,39.196,65.16,103.58,65.957
						c24.658,0.304,16.085,24.811,4.632,23.978c-61.268-4.451-65.529-6.418-95.574-33.218
						C97.502,247.299,86.545,207.962,101.564,205.482z"/>
					<path style="fill:#CC544E;" d="M101.745,205.466c1.914-0.135,4.062,0.483,6.475,1.679c7.885,4.77,16.959,18.501,29.927,32.05
						c-0.072,0.415,6.122,16.685,6.351,17.121c12.889,24.606,43.825,36.374,46.378,36.939c-0.878,0.15-1.793,0.301-2.74,0.45
						c-41.22-3.705-47.89-8.277-73.933-31.508c-4.229-3.773-8.088-9.111-11.25-15.02c-2.55-13.496-4.437-27.354-6.058-32.43
						c0.453-3.053,1.365-5.978,2.724-8.682c0.593-0.272,1.24-0.469,1.945-0.585L101.745,205.466z"/>
					<path style="fill:none;stroke:#000000;stroke-width:2;stroke-linecap:round;stroke-linejoin:round;stroke-miterlimit:1.5;" d="
						M101.564,205.482c18.374-3.034,39.196,65.16,103.58,65.957c24.658,0.304,16.085,24.811,4.632,23.978
						c-61.268-4.451-65.529-6.418-95.574-33.218C97.502,247.299,86.545,207.962,101.564,205.482z"/>
				</g>
				<g>
					<g>
						
							<path style="fill:#FFFFFF;stroke:#000000;stroke-width:2;stroke-linecap:round;stroke-linejoin:round;stroke-miterlimit:1.5;" d="
							M379.512,290.599l-50.682-2.677c0.213,0.837,19.282,81.343,31.109,81.135c5.197-0.091,34.978-1.124,32.971-11.913
							C389.095,336.633,383.832,309.961,379.512,290.599z"/>
						<g>
							<g>
								<path style="fill:#5D8584;" d="M368.414,198.709c-66.174-23.925-54.703,30.406-39.421,90.599
									c20.059,4.711,50.518,1.291,50.518,1.291c-3.415-15.314-4.904-25.163-7.95-38.505"/>
								<path style="fill:#4E7C7C;" d="M330.142,289.56c20.052,4.326,49.37,1.039,49.37,1.039
									c-3.415-15.314-4.904-25.163-7.95-38.505l-2.027-34.373l-11.257-3.649C358.279,214.073,350.92,276.032,330.142,289.56z"/>
								<g>
									<defs>
										<path id="SVGID_1_" d="M368.414,198.709c-66.174-23.925-54.703,30.406-39.421,90.599
											c20.059,4.711,50.518,1.291,50.518,1.291c-3.415-15.314-4.904-25.163-7.95-38.505"/>
									</defs>
									<clipPath id="SVGID_00000105398639024241925200000010065455287340342459_">
										<use xlink:href="#SVGID_1_"  style="overflow:visible;"/>
									</clipPath>
									<path style="clip-path:url(#SVGID_00000105398639024241925200000010065455287340342459_);fill:#80ABB0;" d="
										M327.448,283.178c-13.554-54.181-21.896-101.5,30.13-87.879c-2.794,0.348-5.572,0.826-8.293,1.549
										c-18.211,4.832-23.605,18.208-23.954,35.565c-0.323,15.973,0.614,31.833,1.887,47.75
										C327.298,281.168,327.375,282.174,327.448,283.178L327.448,283.178z"/>
								</g>
							</g>
							
								<path style="fill:none;stroke:#000000;stroke-width:2;stroke-linecap:round;stroke-linejoin:round;stroke-miterlimit:1.5;" d="
								M368.414,198.709c-66.174-23.925-54.703,30.406-39.421,90.599c20.059,4.711,50.518,1.291,50.518,1.291
								c-3.415-15.314-4.904-25.163-7.95-38.505"/>
						</g>
					</g>
					<g>
						<g>
							<path style="fill:#5D8584;" d="M359.796,195.823c7.578,2.312,12.516,3.853,18.241,7.204
								c3.894,2.279,8.674,7.696,11.889,5.678c18.729-11.76,40.784-33.654,51.316-24.936c21.993,18.202,36.964,61.838,43.082,97.57
								c7.205,42.087-2.117,62.291-14.198,69.411c-21.293,12.55-51.579,16.272-59.866,15.267
								c-17.033-2.065-36.08-7.101-50.465-56.65c-5.556-19.132-10.114-38.031-12.983-54.684"/>
							<path style="fill:#4E7C7C;" d="M454.016,198.097c15.054,21.65,25.461,54.927,30.308,83.241
								c7.205,42.087-2.117,62.291-14.198,69.411c-21.293,12.55-51.579,16.272-59.866,15.267
								c-17.033-2.065-36.08-7.101-50.465-56.65c-0.305-1.05-0.607-2.1-0.905-3.148c29.679,26.144,77.874,15.961,83.973-27.074
								c3.796-26.789,13.167-50.658,11.458-76.939C454.233,200.834,454.131,199.465,454.016,198.097L454.016,198.097z"/>
						</g>
						
							<path style="fill:none;stroke:#000000;stroke-width:2;stroke-linecap:round;stroke-linejoin:round;stroke-miterlimit:1.5;" d="
							M359.796,195.823c7.578,2.312,12.516,3.853,18.241,7.204c3.894,2.279,8.674,7.696,11.889,5.678
							c18.729-11.76,40.784-33.654,51.316-24.936c21.993,18.202,36.964,61.838,43.082,97.57
							c7.205,42.087-2.117,62.291-14.198,69.411c-21.293,12.55-51.579,16.272-59.866,15.267c-17.033-2.065-36.08-7.101-50.465-56.65
							c-5.556-19.132-10.114-38.031-12.983-54.684"/>
					</g>
					<g>
						<g>
							
								<path style="fill:#FFFFFF;stroke:#000000;stroke-width:2;stroke-linecap:round;stroke-linejoin:round;stroke-miterlimit:1.5;" d="
								M547.779,373.736c0,0,24.299,11.769,27.12,5.658c1.972-4.273-6.313-10.071-26.932-17.654
								c-4.367-1.605-13.008-3.423-13.921-5.553c-6.772-15.808-22.245-79.511-28.176-103.088l-51.425,27.74
								c15.429,38.212,36.845,94.079,39.091,98.475c9.783,19.156,38.571,25.476,42.728,23.679c9.845-4.256-5.957-8.782-6.807-12.473
								c-0.456-1.98,1.742-1.047,10.417,1.243L547.779,373.736L547.779,373.736z"/>
							
								<path style="fill:#FFFFFF;stroke:#000000;stroke-width:2;stroke-linecap:round;stroke-linejoin:round;stroke-miterlimit:1.5;" d="
								M546.839,367.766c3.549,1.128,12.84,4.911,18.74,8.12c5.608,3.049,13.575,7.037,8.318,10.718
								c-3.327,2.332-22.305-3.944-29.057-5.619"/>
							
								<path style="fill:#FFFFFF;stroke:#000000;stroke-width:2;stroke-linecap:round;stroke-linejoin:round;stroke-miterlimit:1.5;" d="
								M543.995,373.254c3.549,1.13,16.08,6.3,21.979,9.509c5.608,3.049,13.575,7.037,8.32,10.718
								c-3.031,2.125-31.619-7.4-32.22-7.548"/>
							
								<path style="fill:#FFFFFF;stroke:#000000;stroke-width:2;stroke-linecap:round;stroke-linejoin:round;stroke-miterlimit:1.5;" d="
								M542.221,379.258c3.549,1.13,13.71,5.444,19.61,8.652c5.608,3.05,13.575,7.038,8.32,10.72
								c-3.329,2.331-28.003-6.38-34.754-8.055"/>
						</g>
						
							<path style="fill:#5D8584;stroke:#000000;stroke-width:2;stroke-linecap:round;stroke-linejoin:round;stroke-miterlimit:1.5;" d="
							M420.382,187.555c63.3-42.004,75.527,26.193,85.487,65.791c-16.246,21.276-51.425,27.492-51.425,27.492
							c-4.629-11.461-8.878-21.285-12.235-27.492"/>
					</g>
					<g>
						<g>
							<path style="fill:#755C6C;" d="M365.396,323.485c-25.527-20.632-92.148-42.997-96.921,13.546
								c-4.226,50.06,112.462,66.391,117.331,66.799c19.974,1.676,61.388-9.058,62.384-19.332
								C448.808,378.111,387.835,341.619,365.396,323.485z"/>
							<path style="fill:#54444E;" d="M271.424,322.976c1.18,3.031,2.458,6.025,3.867,8.951
								c8.05,16.699,20.313,27.349,39.103,29.657c24.653,3.028,53.465-8.393,73.996-21.469c26.509,18.141,60.261,39.622,59.8,44.383
								c-0.996,10.274-42.41,21.008-62.384,19.332c-4.87-0.408-121.557-16.738-117.331-66.799
								C268.929,331.653,269.943,326.99,271.424,322.976L271.424,322.976z"/>
							<path style="fill:#9C7585;" d="M270.615,325.389c5.749-18.934,21.085-24.951,38.299-24.085
								c15.038,0.757,31.511,6.764,44.276,14c-16.777-4.238-37.044-7.363-52.87-4.803
								C289.991,312.17,279.707,318.379,270.615,325.389L270.615,325.389z"/>
						</g>
						
							<path style="fill:none;stroke:#000000;stroke-width:2;stroke-linecap:round;stroke-linejoin:round;stroke-miterlimit:1.5;" d="
							M365.396,323.485c-25.527-20.632-92.148-42.997-96.921,13.546c-4.226,50.06,112.462,66.391,117.331,66.799
							c19.974,1.676,61.388-9.058,62.384-19.332C448.808,378.111,387.835,341.619,365.396,323.485z"/>
					</g>
					<g>
						<g>
							<path style="fill:#FFFFFF;" d="M306.444,420.91c-10.857,0.277-43.713,4.593-44.571-6.305
								c-1.02-12.933,20.034-17.056,31.142-20.641c9.769-3.152,28.158-21.018,38.985-12.621c6.47,5.019,23.3,30.919,21.927,33.262
								C350.162,421.039,324.067,420.459,306.444,420.91L306.444,420.91z"/>
							<path style="fill:#D6E6EE;" d="M335.47,384.808c7.592,8.718,19.628,27.799,18.459,29.797
								c-3.766,6.434-29.861,5.855-47.484,6.305c-9.298,0.238-34.731,3.436-42.382-2.495c8.65-0.417,17.297-0.844,25.857-2.281
								c16.348-2.743,35.334-8.453,42.863-24.63C333.795,389.331,334.694,387.092,335.47,384.808L335.47,384.808z"/>
							
								<path style="fill:none;stroke:#000000;stroke-width:2;stroke-linecap:round;stroke-linejoin:round;stroke-miterlimit:1.5;" d="
								M306.444,420.91c-10.857,0.277-43.713,4.593-44.571-6.305c-1.02-12.933,20.034-17.056,31.142-20.641
								c9.769-3.152,28.158-21.018,38.985-12.621c6.47,5.019,23.3,30.919,21.927,33.262
								C350.162,421.039,324.067,420.459,306.444,420.91L306.444,420.91z"/>
						</g>
						<g>
							<g>
								<path style="fill:#755C6C;" d="M423.755,345.045c30.787-10.081,93.824-30.335,93.824,19.034
									c0,54.255-54.588,53.802-95.328,56.542c-27.522,1.851-72.529,1.267-75.375-2.706c-5.48-7.652-11.738-22.675-12.734-32.949
									C333.523,378.58,394.69,354.563,423.755,345.045z"/>
								<path style="fill:#54444E;" d="M515.756,351.196c1.182,3.639,1.822,7.907,1.822,12.884
									c0,54.255-54.588,53.802-95.328,56.542c-27.522,1.851-72.529,1.267-75.375-2.706c-2.265-3.162-4.662-7.583-6.766-12.409
									c10.531,0.326,21.063,0.249,31.597-0.156c32.438-1.248,65.924-1.195,97.453-9.914c20.287-5.609,37.979-15.243,44.476-36.401
									C514.423,356.478,515.138,353.854,515.756,351.196L515.756,351.196z"/>
								<path style="fill:#9C7585;" d="M356.018,371.365c20.313-9.306,50.002-20.512,67.737-26.32
									c26.968-8.831,78.686-25.469,91.098,3.728c-9.305-2.855-19.507-3.423-29.071-3.423c-35.667,0-71.007,8.137-104.95,18.333
									C372.541,366.173,364.248,368.671,356.018,371.365L356.018,371.365z"/>
							</g>
							
								<path style="fill:none;stroke:#000000;stroke-width:2;stroke-linecap:round;stroke-linejoin:round;stroke-miterlimit:1.5;" d="
								M423.755,345.045c30.787-10.081,93.824-30.335,93.824,19.034c0,54.255-54.588,53.802-95.328,56.542
								c-27.522,1.851-72.529,1.267-75.375-2.706c-5.48-7.652-11.738-22.675-12.734-32.949
								C333.523,378.58,394.69,354.563,423.755,345.045z"/>
						</g>
					</g>
					<g>
						
							<path style="fill:#FFFFFF;stroke:#000000;stroke-width:2;stroke-linecap:round;stroke-linejoin:round;stroke-miterlimit:1.5;" d="
							M347.236,150.818c-6.264-4.583-16.276-3.724-16.118,7.12c0.194,13.269,12.781,12.132,16.321,8.305"/>
						<g>
							<path style="fill:#FFFFFF;" d="M402.357,171.492c0.578,6.829,7.098,18.311,8.06,22.108
								c1.395,5.516-6.278,15.301-16.571,22.741c-7.931,5.73-19.164,6.516-22.612,3.096c-4.374-4.339-0.316-9.084,0.82-21.076
								c0.345-3.636-0.46-8.664-0.46-8.664c-4.78,0.447-10.185,0.061-12.906-0.648c-7.525-1.964-16.209-12.709-17.061-36.179
								c-1.341-37.019,10.347-50.095,28.536-50.095c18.189,0,37.875,19.234,36.662,42.979
								C406.238,157.244,401.779,164.653,402.357,171.492L402.357,171.492z"/>
							<g>
								<path style="fill:#D6E6EE;" d="M344.284,123.785c4.369-15.105,13.656-21.01,25.879-21.01
									c18.189,0,37.875,19.234,36.662,42.979c-0.113,2.222-0.331,4.342-0.642,6.366c-1.38,1.006-2.188,1.593-2.188,1.593
									s-17.646-9.783-20.966-29.476C383.029,124.238,365.805,116.494,344.284,123.785L344.284,123.785z"/>
								<path style="fill:#D6E6EE;" d="M371.082,189.743c1.132-0.134,7.818-1.177,16.05-7.762c0,0,19.584,15.462-16.006,22.688
									c0.365-1.856,0.702-3.939,0.927-6.306c0.345-3.636-0.46-8.664-0.46-8.664C371.424,189.713,371.252,189.729,371.082,189.743
									L371.082,189.743z"/>
							</g>
							<g>
								<defs>
									<path id="SVGID_00000088092408885951608530000014009950666313761670_" d="M371.082,189.743
										c1.132-0.134,7.818-1.177,16.05-7.762c0,0,19.584,15.462-16.006,22.688c0.365-1.856,0.702-3.939,0.927-6.306
										c0.345-3.636-0.46-8.664-0.46-8.664C371.424,189.713,371.252,189.729,371.082,189.743L371.082,189.743z"/>
								</defs>
								<clipPath id="SVGID_00000127012264788825878600000009207179478637947047_">
									<use xlink:href="#SVGID_00000088092408885951608530000014009950666313761670_"  style="overflow:visible;"/>
								</clipPath>
								<path style="clip-path:url(#SVGID_00000127012264788825878600000009207179478637947047_);fill:#D6E6EE;" d="
									M344.284,123.785c4.369-15.105,13.656-21.01,25.879-21.01c18.189,0,37.875,19.234,36.662,42.979
									c-0.113,2.222-0.331,4.342-0.642,6.366c-1.38,1.006-2.188,1.593-2.188,1.593s-17.646-9.783-20.966-29.476
									C383.029,124.238,365.805,116.494,344.284,123.785L344.284,123.785z"/>
							</g>
							
								<path style="fill:none;stroke:#000000;stroke-width:2;stroke-linecap:round;stroke-linejoin:round;stroke-miterlimit:1.5;" d="
								M402.357,171.492c0.578,6.829,7.098,18.311,8.06,22.108c1.395,5.516-6.278,15.301-16.571,22.741
								c-7.931,5.73-19.164,6.516-22.612,3.096c-4.374-4.339-0.316-9.084,0.82-21.076c0.345-3.636-0.46-8.664-0.46-8.664
								c-4.78,0.447-10.185,0.061-12.906-0.648c-7.525-1.964-16.209-12.709-17.061-36.179
								c-1.341-37.019,10.347-50.095,28.536-50.095c18.189,0,37.875,19.234,36.662,42.979
								C406.238,157.244,401.779,164.653,402.357,171.492L402.357,171.492z"/>
						</g>
						<g>
							<path style="fill:#362B39;" d="M352.69,86.471c22.129-1.991,39.511,4.475,42.314,17.531
								c0.445,2.076,10.414-0.721,15.861,7.489c4.634,6.98,2.668,27.675-2.687,34.446c-2.547,3.22-6.799,18.027-8.316,6.099
								c-0.842-6.617-9.015-10.255-10.869-28.078c-0.76-7.312-30.595-12.769-38.559-9.075c-7.964,3.694-8.836,23.238-9.221,31.24
								c-0.123,2.529-15.265-14.233-5.814-26.485c0.976-1.264-8.258,7.338-11.563,4.841c-1.918-1.45,1.034-9.028,6.629-15.504
								c6.418-7.426,15.254-12.514,13.145-12.253C314.592,100.32,336.921,87.891,352.69,86.471L352.69,86.471z"/>
							<path style="fill:#5D4D60;" d="M353.14,89.863c5.487-2.103,21.343-1.042,32.986,2.274
								c-7.725-4.866-19.659-6.906-33.436-5.666v0c-15.769,1.42-38.097,13.849-9.08,10.251c2.109-0.261-6.727,4.827-13.145,12.253
								c-5.595,6.477-8.548,14.055-6.629,15.504c3.305,2.496,12.539-6.105,11.563-4.841c-3.883,5.034-3.612,10.827-1.939,15.733
								c0.147-13.387,9.089-20.593,9.089-20.593c-27.953,7.813,14.237-21.182,14.237-21.182S343.851,93.422,353.14,89.863z"/>
							<path style="fill:#201B22;" d="M402.791,105.833c2.803,0.754,5.825,2.268,8.074,5.658c4.634,6.98,2.668,27.675-2.687,34.446
								c-2.547,3.22-6.799,18.027-8.316,6.099c-0.842-6.617-9.015-10.255-10.869-28.078c-0.065-0.623-0.34-1.232-0.796-1.824
								C394.3,117.931,399.332,112.492,402.791,105.833L402.791,105.833z M341.728,138.034c-0.282,3.154-0.414,6.011-0.515,8.088
								c-0.06,1.24-3.733-2.159-6.346-7.394C337.146,138.559,339.436,138.327,341.728,138.034L341.728,138.034z"/>
							
								<path style="fill:none;stroke:#000000;stroke-width:2;stroke-linecap:round;stroke-linejoin:round;stroke-miterlimit:1.5;" d="
								M352.69,86.471c22.129-1.991,39.511,4.475,42.314,17.531c0.445,2.076,10.414-0.721,15.861,7.489
								c4.634,6.98,2.668,27.675-2.687,34.446c-2.547,3.22-6.799,18.027-8.316,6.099c-0.842-6.617-9.015-10.255-10.869-28.078
								c-0.76-7.312-30.595-12.769-38.559-9.075c-7.964,3.694-8.836,23.238-9.221,31.24c-0.123,2.529-15.265-14.233-5.814-26.485
								c0.976-1.264-8.258,7.338-11.563,4.841c-1.918-1.45,1.034-9.028,6.629-15.504c6.418-7.426,15.254-12.514,13.145-12.253
								C314.592,100.32,336.921,87.891,352.69,86.471L352.69,86.471z"/>
						</g>
						<g>
							<path style="stroke:#000000;stroke-width:2;stroke-linecap:round;stroke-linejoin:round;stroke-miterlimit:1.5;" d="
								M358.025,168.34c1.756-2.496,18.164-9.783,20.398-6.333c1.391,2.15,1.1,8.885-7.807,11.859
								C362.767,176.486,356.201,170.932,358.025,168.34z"/>
							
								<path style="fill:none;stroke:#000000;stroke-width:2;stroke-linecap:round;stroke-linejoin:round;stroke-miterlimit:1.5;" d="
								M353.181,145.232c0,0-2.899,15.268,3.355,14.085"/>
							
								<path style="fill:none;stroke:#000000;stroke-width:2;stroke-linecap:round;stroke-linejoin:round;stroke-miterlimit:1.5;" d="
								M363.013,132.346c0,0,4.747-5.088,11.47-1.541"/>
							
								<path style="fill:none;stroke:#000000;stroke-width:2;stroke-linecap:round;stroke-linejoin:round;stroke-miterlimit:1.5;" d="
								M343.069,136.708c0,0,2.383-3.4,7.621-1.253"/>
							<path style="stroke:#000000;stroke-width:2;stroke-linecap:round;stroke-linejoin:round;stroke-miterlimit:1.5;" d="
								M368.693,147.402c0.633-0.027,1.184,0.823,1.228,1.896c0.044,1.072-0.433,1.964-1.065,1.991
								c-0.633,0.025-1.182-0.823-1.228-1.897C367.583,148.321,368.06,147.429,368.693,147.402z"/>
							<path style="stroke:#000000;stroke-width:2;stroke-linecap:round;stroke-linejoin:round;stroke-miterlimit:1.5;" d="
								M347.079,150.827c0.633-0.027,1.182,0.823,1.228,1.895c0.044,1.073-0.433,1.966-1.065,1.992
								c-0.633,0.025-1.184-0.823-1.228-1.896C345.968,151.746,346.446,150.854,347.079,150.827z"/>
						</g>
						
							<path style="fill:#FFFFFF;stroke:#000000;stroke-width:2;stroke-linecap:round;stroke-linejoin:round;stroke-miterlimit:1.5;" d="
							M397.15,152.172c2.614-7.33,15.097-12.171,18.605-3.348c4.903,12.324-8.228,17.292-13.837,16.441"/>
					</g>
				</g>
				<g>
					
						<path style="fill:#75413B;stroke:#000000;stroke-width:2;stroke-linecap:round;stroke-linejoin:round;stroke-miterlimit:1.5;" d="
						M35.432,177.64c0,0-38.264,15.97-14.399,24.305c0,0-26.418,10.868-3.241,16.186c0,0-22.25,16.017,0.888,16.118
						c0,0-7.884,28.66,13.007,7.161c0,0-4.508,30.333,6.185,8.859c0,0,7.572,45.737,12.64,8.527c0,0,14.664,18.035,7.984-9.385
						c0,0,16.527-6.261,1.517-13.809c0,0,13.724-6.898,2.309-10.564c0,0,9.539-5.35,3.87-20.431
						c-5.669-15.079-10.469-14.48-10.469-14.48L35.432,177.64L35.432,177.64z"/>
					<g>
						<g>
							<path style="fill:#FA6B59;" d="M56.643,330.287C68.25,306.58,32.03,239.359,32.03,239.359s16.279-25.292,33.086-31.024
								c16.808-5.734,35.205-4.231,40.804-2.229c8.966,3.209,26.739,30.4,30.469,43.844c3.73,13.443,1.278,40.332,1.437,55.43
								c0.049,4.663-0.379,12.766-0.998,21.735C109.415,341.024,82.775,340.388,56.643,330.287L56.643,330.287z"/>
							<path style="fill:#CC544E;" d="M45.714,268.504l10.04-22.336c0,0,20.135,71.889,82.264,43.046
								c-0.003,0.691-0.197,15.518-0.19,16.167c0.049,4.663-0.379,12.766-0.998,21.735c-27.414,13.908-54.053,13.272-80.186,3.171
								C63.19,316.914,54.52,289.695,45.714,268.504L45.714,268.504z"/>
							<path style="fill:#F89864;" d="M55.928,213.252c2.978-2.122,6.074-3.854,9.188-4.917c16.807-5.734,35.204-4.231,40.804-2.229
								c8.966,3.209,26.739,30.399,30.469,43.844c2.174,7.835,2.247,20.235,1.963,32.209c-10.13-37.789-14.856-53.133-34.062-66.665
								c-12.105-8.529-29.427-0.885-44.026-2.023C58.819,213.359,57.373,213.288,55.928,213.252L55.928,213.252z"/>
						</g>
						
							<path style="fill:none;stroke:#000000;stroke-width:2;stroke-linecap:round;stroke-linejoin:round;stroke-miterlimit:1.5;" d="
							M56.643,330.287C68.25,306.58,32.03,239.359,32.03,239.359s16.279-25.292,33.086-31.024
							c16.808-5.734,35.205-4.231,40.804-2.229c8.966,3.209,26.739,30.4,30.469,43.844c3.73,13.443,1.278,40.332,1.437,55.43
							c0.049,4.663-0.379,12.766-0.998,21.735C109.415,341.024,82.775,340.388,56.643,330.287L56.643,330.287z"/>
					</g>
					
						<path style="fill:#607796;stroke:#000000;stroke-width:2;stroke-linecap:round;stroke-linejoin:round;stroke-miterlimit:1.5;" d="
						M136.829,327.116c-1.38,20.07-3.7,44.49-3.7,44.49l-94.507,27.057c0,0-4.028-19.027-0.055-30.957s12.917-26.88,18.076-37.419
						C83.492,334.527,110.222,333.616,136.829,327.116z"/>
					<g>
						
							<path style="fill:#FFFFFF;stroke:#000000;stroke-width:2;stroke-linecap:round;stroke-linejoin:round;stroke-miterlimit:10;" d="
							M124.785,323.944c-0.038,0.225-0.027,0.455,0.033,0.675c0.905,3.341,2.258,5.287,3.85,6.442
							c1.632,1.185,3.563,1.571,5.743,1.588c3.525,0.027,7.811-1.023,12.352,0.433c4.882,1.566,8.866,4.915,12.988,7.468
							c0.658,0.408,1.301,1.555,2.032,2.849c1.383,2.452,2.819,5.468,4.078,7.01c0.957,1.176,2.008,1.626,2.833,1.547
							c0.697-0.068,1.454-0.434,2.051-1.478c6.494-11.363-0.792-23.622-13.765-32.726c-2.622-1.84-8.209-4.994-14.036-6.469
							c-4.09-1.034-8.072,1.294-13.002,2.113c-1.432,0.609-1.445,0.183-2.403,1.99C125.64,318.966,124.785,323.944,124.785,323.944
							L124.785,323.944z"/>
						<g>
							<path style="fill:#FA6B59;" d="M36.096,233.822c-5.438,6.541-14.067,18.292-1.505,55.682
								c12.755,37.964,23.41,57.494,48.175,54.667c25.623-2.924,50.795-12.198,52.231-12.981c1.435-0.782,2.372-13.55-4.506-17.876
								c0,0-43.2,6.772-51.735-3.396s-9.154-39.687-19.639-59.428C48.868,231.196,40.07,229.041,36.096,233.822L36.096,233.822z"/>
							<path style="fill:#CC544E;" d="M38.205,299.881c28.66,39.722,55.613,39.733,97.78,27.481
								c-0.112,2.068-0.524,3.574-0.988,3.828c-1.435,0.784-26.608,10.057-52.231,12.981
								C60.368,346.728,49.512,330.997,38.205,299.881L38.205,299.881z"/>
						</g>
						
							<path style="fill:none;stroke:#000000;stroke-width:2;stroke-linecap:round;stroke-linejoin:round;stroke-miterlimit:1.5;" d="
							M36.096,233.822c-5.438,6.541-14.067,18.292-1.505,55.682c12.755,37.964,23.41,57.494,48.175,54.667
							c25.623-2.924,50.795-12.198,52.231-12.981c1.435-0.782,2.372-13.55-4.506-17.876c0,0-43.2,6.772-51.735-3.396
							s-9.154-39.687-19.639-59.428C48.868,231.196,40.07,229.041,36.096,233.822L36.096,233.822z"/>
					</g>
					<g>
						<g>
							
								<path style="fill:#FFFFFF;stroke:#000000;stroke-width:2;stroke-linecap:round;stroke-linejoin:round;stroke-miterlimit:1.5;" d="
								M35.107,419.802c0,0-18.318,29.916-26.616,34.775c-8.296,4.857-27.98,4.276-30.787-8.944
								c-2.805-13.222,52.763-50.506,52.763-50.506s13.675,0.655,12.481,8.453C41.755,411.378,35.107,419.802,35.107,419.802z"/>
							<g>
								<g>
									<path style="fill:#6F96BD;" d="M30.658,394.245c0,0,0.381,25.324,4.695,25.61c4.314,0.285,126.499,3.928,141.352-2.364
										c20.043-8.49,21.266-24.315,19.5-32.993c-4.045-19.883-34.229-22.206-42.411-16.892
										C145.611,372.919,30.658,394.245,30.658,394.245L30.658,394.245z"/>
									<path style="fill:#698AB0;" d="M196.178,396.13c-1.598,7.605-6.735,15.965-19.474,21.361
										c-14.853,6.292-137.038,2.649-141.352,2.364c-4.314-0.286-4.695-25.61-4.695-25.61s8.294-1.539,20.577-3.892
										c2.273,1.783,4.709,3.862,7.319,6.272C89.251,424.947,168.289,404.543,196.178,396.13z"/>
								</g>
								
									<path style="fill:none;stroke:#000000;stroke-width:2;stroke-linecap:round;stroke-linejoin:round;stroke-miterlimit:1.5;" d="
									M30.658,394.245c0,0,0.381,25.324,4.695,25.61c4.314,0.285,126.499,3.928,141.352-2.364
									c20.043-8.49,21.266-24.315,19.5-32.993c-4.045-19.883-34.229-22.206-42.411-16.892
									C145.611,372.919,30.658,394.245,30.658,394.245L30.658,394.245z"/>
							</g>
						</g>
						<g>
							
								<path style="fill:#FFFFFF;stroke:#000000;stroke-width:2;stroke-linecap:round;stroke-linejoin:round;stroke-miterlimit:1.5;" d="
								M-5.045,395.488c0,0-47.242,23.726-48.985,37.23c-1.746,13.505,10.507,32.85,22.876,27.253
								c12.371-5.598,35.685-34.345,39.394-46.23C11.949,401.858-5.045,395.488-5.045,395.488L-5.045,395.488z"/>
							<g>
								<g>
									<path style="fill:#6F96BD;" d="M-5.126,395.949c0,0,117.977-75.414,146.72-69.118c11.398,2.496,19.541,9.177,23.476,17.122
										c5.502,11.109,2.779,24.688-10.772,32.765c-19.334,11.524-134.54,40.304-146.393,38.793
										C-1.249,412.293-5.519,405.722-5.126,395.949L-5.126,395.949z"/>
									<path style="fill:#9ABFD2;" d="M142.424,327.021c10.964,2.633,18.808,9.181,22.647,16.932
										c5.502,11.109,2.779,24.688-10.772,32.765c-3.82,2.277-11.384,5.228-21.159,8.488
										C151.987,372.831,171.783,354.473,142.424,327.021L142.424,327.021z"/>
								</g>
								
									<path style="fill:none;stroke:#000000;stroke-width:2;stroke-linecap:round;stroke-linejoin:round;stroke-miterlimit:1.5;" d="
									M-5.126,395.949c0,0,117.977-75.414,146.72-69.118c11.398,2.496,19.541,9.177,23.476,17.122
									c5.502,11.109,2.779,24.688-10.772,32.765c-19.334,11.524-134.54,40.304-146.393,38.793
									C-1.249,412.293-5.519,405.722-5.126,395.949L-5.126,395.949z"/>
							</g>
						</g>
					</g>
					<g>
						
							<path style="fill:#FFFFFF;stroke:#000000;stroke-width:2;stroke-linecap:round;stroke-linejoin:round;stroke-miterlimit:1.5;" d="
							M95.472,162.664c0,0,10.054-10.471,14.969,1.618c4.915,12.087-6.429,12.418-12.102,12.583"/>
						<g>
							<g>
								<path style="fill:#955450;" d="M49.535,128.303c0,0,23.626-28.763,40.123-11.854c19.23,19.708,8.126,42.289,8.126,42.289
									L49.535,128.303z"/>
								<path style="fill:#75413B;" d="M58.783,119.359c9.099-3.212,24.592-6.256,30.807,7.035
									c5.195,11.112,8.598,19.332,10.123,26.742c-0.892,3.493-1.93,5.602-1.93,5.602l-34.005-21.449
									c-4.645-5.641-8.474-10.488-10.471-13.041C54.792,122.777,56.654,121.06,58.783,119.359z"/>
							</g>
							
								<path style="fill:none;stroke:#000000;stroke-width:2;stroke-linecap:round;stroke-linejoin:round;stroke-miterlimit:1.5;" d="
								M49.535,128.303c0,0,23.626-28.763,40.123-11.854c19.23,19.708,8.126,42.289,8.126,42.289L49.535,128.303z"/>
						</g>
						<g>
							<g>
								<path style="fill:#FFFFFF;" d="M84.348,131.388c11.798,12.822,20.171,40.619,13.671,54.428
									c-8.634,18.344-18.476,4.081-7.795,31.973c0,0-11.549,7.205-27.323-3.96c0,0,0.176-11.436-5.255-16.184
									c-5.433-4.75-22.149-14.875-26.843-29.274c-3.099-9.511-7.588-31.78,16.625-42.902
									C62.032,118.761,77.311,123.739,84.348,131.388L84.348,131.388z"/>
								<g>
									<path style="fill:#D6E6EE;" d="M85.657,200.546c-0.471,2.602,0.711,7.177,4.566,17.243c0,0-2.753,1.717-7.407,2.175
										c-3.859-1.365-7.457-3.87-10.203-7.405c-0.529-0.682-1.003-1.402-1.448-2.14c-3.807-6.327,5.732-6.511,10.126-8.08
										C82.766,201.81,84.225,201.21,85.657,200.546L85.657,200.546z"/>
									<path style="fill:#D6E6EE;" d="M39.681,182.448c-3.812-4.081-7.155-8.792-8.878-14.077
										c-3.099-9.511-7.588-31.78,16.625-42.902c14.604-6.708,29.883-1.73,36.92,5.919c1.388,1.508,2.728,3.223,4.002,5.101
										l-0.064,0.019c-7.924,2.443-13.783,8.655-19.186,14.65c-7.466,8.286-15.038,16.471-22.827,24.457
										c-2.087,2.14-4.163,4.292-6.253,6.431C39.974,182.091,39.848,182.243,39.681,182.448L39.681,182.448z"/>
								</g>
							</g>
							
								<path style="fill:none;stroke:#000000;stroke-width:2;stroke-linecap:round;stroke-linejoin:round;stroke-miterlimit:1.5;" d="
								M84.348,131.388c11.798,12.822,20.171,40.619,13.671,54.428c-8.634,18.344-18.476,4.081-7.795,31.973
								c0,0-11.549,7.205-27.323-3.96c0,0,0.176-11.436-5.255-16.184c-5.433-4.75-22.149-14.875-26.843-29.274
								c-3.099-9.511-7.588-31.78,16.625-42.902C62.032,118.761,77.311,123.739,84.348,131.388L84.348,131.388z"/>
						</g>
						<g>
							
								<path style="fill:none;stroke:#000000;stroke-width:2;stroke-linecap:round;stroke-linejoin:round;stroke-miterlimit:1.5;" d="
								M82.694,161.418c0,0,0.799,8.135,6.33,9.5c0,0-1.662,4.311-2.125,4.63"/>
							<path style="stroke:#000000;stroke-width:2;stroke-linecap:round;stroke-linejoin:round;stroke-miterlimit:1.5;" d="
								M72.44,179.687c0,0,6.585,18.668,14.614,0.079L72.44,179.687z"/>
							
								<path style="fill:none;stroke:#000000;stroke-width:2;stroke-linecap:round;stroke-linejoin:round;stroke-miterlimit:1.5;" d="
								M88.292,162.156c0,0,1.642-3.442,5.276-1.221"/>
							
								<path style="fill:none;stroke:#000000;stroke-width:2;stroke-linecap:round;stroke-linejoin:round;stroke-miterlimit:1.5;" d="
								M72.172,167.891c0,0-4.794-2.224-6.68,2.416"/>
							
								<path style="fill:none;stroke:#000000;stroke-width:2;stroke-linecap:round;stroke-linejoin:round;stroke-miterlimit:1.5;" d="
								M84.06,152.881c0,0,2.811-2.813,6.495-1.331"/>
							
								<path style="fill:none;stroke:#000000;stroke-width:2;stroke-linecap:round;stroke-linejoin:round;stroke-miterlimit:1.5;" d="
								M70.257,156.172c0,0-5.822-1.494-8.483,3.93"/>
						</g>
						<g>
							<g>
								<path style="fill:#955450;" d="M41.03,182.012c0,0,20.611-28.597,26.424-38.716c3.913-6.812,12.572-16.683,8.45-22
									c-7.787-10.045-33.933-9.44-45.806,10.693c-8.414,14.269-8.356,28.86-1.15,38.593
									C37.306,181.873,41.03,182.012,41.03,182.012z"/>
								<path style="fill:#75413B;" d="M28.958,134.021c0.493,11.867,5.573,27.439,27.71,25.783
									c-7.493,10.907-15.638,22.207-15.638,22.207s-3.724-0.139-12.083-11.43C22.083,161.311,21.704,147.63,28.958,134.021
									L28.958,134.021z"/>
							</g>
							
								<path style="fill:none;stroke:#000000;stroke-width:2;stroke-linecap:round;stroke-linejoin:round;stroke-miterlimit:1.5;" d="
								M41.03,182.012c0,0,20.611-28.597,26.424-38.716c3.913-6.812,12.572-16.683,8.45-22c-7.787-10.045-33.933-9.44-45.806,10.693
								c-8.414,14.269-8.356,28.86-1.15,38.593C37.306,181.873,41.03,182.012,41.03,182.012z"/>
						</g>
						
							<path style="fill:#FFFFFF;stroke:#000000;stroke-width:2;stroke-linecap:round;stroke-linejoin:round;stroke-miterlimit:1.5;" d="
							M45.962,177.84c0,0-16.205-3.12-13.232,9.586c2.973,12.706,12.424,6.428,17.151,3.288"/>
					</g>
				</g>
				<g>
					<g>
						<g>
							<path style="fill:#FFFFFF;" d="M275.432,351.938c0,0,4.907,52.689,5.945,57.424c0.64,2.924,16.068,2.982,14.722,9.378
								c-0.988,4.696-30.003,12.642-32.019,8.451c-10.127-21.047-20.754-71.501-21.757-74.819
								C241.318,349.052,275.432,351.938,275.432,351.938L275.432,351.938z"/>
							<path style="fill:#D6E6EE;" d="M249.401,381.667c6.992-6.822,18.015-11.581,27.857-10.537
								c1.51,15.581,3.501,35.413,4.119,38.232c0.129,0.588,0.856,1.061,1.923,1.491c-4.914,1.693-9.947,3.061-15.034,3.698
								c-2.974,0.371-6.176,0.416-9.273-0.061C255.508,404.481,252.169,392.463,249.401,381.667z"/>
							
								<path style="fill:none;stroke:#000000;stroke-width:2;stroke-linecap:round;stroke-linejoin:round;stroke-miterlimit:1.5;" d="
								M275.432,351.938c0,0,4.907,52.689,5.945,57.424c0.64,2.924,16.068,2.982,14.722,9.378
								c-0.988,4.696-30.003,12.642-32.019,8.451c-10.127-21.047-20.754-71.501-21.757-74.819
								C241.318,349.052,275.432,351.938,275.432,351.938L275.432,351.938z"/>
						</g>
						
							<path style="fill:#FFFFFF;stroke:#000000;stroke-width:2;stroke-linecap:round;stroke-linejoin:round;stroke-miterlimit:1.5;" d="
							M229.955,349.177c0,0,2.797,51.872-47.615,26.799c-4.427-2.202-13.027,13.153-15.32,8.096
							c-3.716-8.204,4.116-27.705,8.981-32.276c4.864-4.57,12.869,2.71,20.203,4.852c7.335,2.141,3.34-9.813,4.877-21.359
							C201.721,330.484,229.955,349.177,229.955,349.177L229.955,349.177z"/>
						<g>
							<path style="fill:#FBEDEE;" d="M264.697,305.93c12.344,1.274,10.379,1.383,15.599,37.017
								c3.342,22.824,5.481,59.143,3.737,60.336c-2.924,1.997-27.592,6.663-32.253,3.829c-2.142-1.303-13.229-62.62-15.276-69.7
								c-0.893-3.089-1.083,41.697-20.865,47.989c-12.573,4-32.069-3.78-32.879-5.492c-4.021-8.517-3.387-17.836,2.292-29.582
								c1.63-3.372,11.81,4.506,11.947,0.419c0.229-6.819-1.96-44.787,5.296-47.544C206.189,301.719,258.403,305.282,264.697,305.93
								z"/>
							<g>
								<path style="fill:#DDCDD0;" d="M197.608,316.471c0.725-6.879,2.11-12.292,4.686-13.271
									c3.895-1.482,56.109,2.081,62.402,2.729c9.234,0.953,10.461,1.254,12.677,16.264c-0.161,0.052-0.324,0.102-0.485,0.151
									c-6.539,2.043-13.15,3.692-19.971,4.449c-20.177,2.238-40.43-1.967-58.869-10.127L197.608,316.471L197.608,316.471z"/>
								<path style="fill:#DDCDD0;" d="M210.531,386.393c-12.144,1.117-27.067-4.993-27.771-6.486
									c-4.021-8.517-3.387-17.836,2.292-29.582c1.006-2.08,5.263,0.121,8.412,1.153c0.464,7.811,2.057,15.786,5.944,22.484
									C202.138,378.666,206.173,382.849,210.531,386.393L210.531,386.393z"/>
								<path style="fill:#DDCDD0;" d="M245.02,378.946c3.206,5.444,7.514,9.932,13.572,12.824
									c7.948,3.793,17.296,4.117,26.048,3.105c0.071,4.894-0.111,8.068-0.608,8.407c-2.924,1.997-27.592,6.663-32.253,3.829
									C250.807,406.519,247.994,393.574,245.02,378.946L245.02,378.946z"/>
							</g>
							
								<path style="fill:none;stroke:#000000;stroke-width:2;stroke-linecap:round;stroke-linejoin:round;stroke-miterlimit:1.5;" d="
								M264.697,305.93c12.344,1.274,10.379,1.383,15.599,37.017c3.342,22.824,5.481,59.143,3.737,60.336
								c-2.924,1.997-27.592,6.663-32.253,3.829c-2.142-1.303-13.229-62.62-15.276-69.7c-0.893-3.089-1.083,41.697-20.865,47.989
								c-12.573,4-32.069-3.78-32.879-5.492c-4.021-8.517-3.387-17.836,2.292-29.582c1.63-3.372,11.81,4.506,11.947,0.419
								c0.229-6.819-1.96-44.787,5.296-47.544C206.189,301.719,258.403,305.282,264.697,305.93z"/>
						</g>
					</g>
					<g>
						<path style="fill:#FFFFFF;stroke:#000000;stroke-width:2;stroke-miterlimit:10;" d="M298.325,179.542
							c-0.505-3.065-0.676-3.547-0.888-4.772c-0.5-2.871-1.04-5.871-0.866-8.799c0.081-1.378,0.18-3.219,1.465-4.056
							c1.922-1.251,3.774,2.563,4.353,3.817c0.084,0.179,0.711,1.804,0.969,1.722c0.577-0.184,1.13-1.91,1.372-2.378
							c1.182-2.302,2.449-4.564,3.988-6.645c0.558-0.754,1.806-2.495,2.96-1.883c0.732,0.388,0.772,1.43,0.711,2.155
							c-0.152,1.793-0.98,3.524-1.583,5.197c-0.074,0.203-0.903,2.143-0.646,2.288c0.438,0.247,2.154-1.267,2.457-1.473
							c1.51-1.037,3.095-2.11,4.843-2.686c0.629-0.206,1.557-0.484,2.181-0.114c0.738,0.437,0.522,1.43,0.263,2.088
							c-0.693,1.752-1.972,3.242-3.065,4.749c-0.122,0.171-1.41,1.594-1.29,1.802c0.131,0.224,2.602-0.638,2.81-0.69
							c1.817-0.458,3.661-0.911,5.531-1.058c0.759-0.06,1.883-0.181,2.513,0.369c0.651,0.569,0.048,1.627-0.334,2.157
							c-1.117,1.543-2.836,2.637-4.395,3.671c-0.163,0.108-1.852,1.012-1.818,1.251c0.016,0.113,1.962,0.263,2.094,0.287
							c1.536,0.268,4.319,0.727,5.094,2.334c0.79,1.638-1.759,2.718-2.876,3.11c-4.191,1.467-8.31,3.131-12.51,4.575"/>
						<path style="fill:#FFFFFF;stroke:#000000;stroke-width:2;stroke-miterlimit:10;" d="M144.496,193.933
							c-0.34-1.857,0.045-3.867,0.213-5.101c0.392-2.887,0.461-6.033,0.179-8.952c-0.134-1.375-0.303-3.21-1.617-3.998
							c-1.968-1.179-3.676,2.703-4.208,3.977c-0.076,0.182-0.643,1.83-0.904,1.757c-0.584-0.163-1.201-1.867-1.459-2.326
							c-1.267-2.255-2.618-4.469-4.233-6.49c-0.587-0.734-1.899-2.426-3.029-1.772c-0.717,0.416-0.717,1.457-0.629,2.181
							c0.218,1.785,1.111,3.485,1.777,5.133c0.081,0.201,0.982,2.109,0.73,2.263c-0.429,0.263-2.199-1.185-2.51-1.382
							c-1.548-0.979-3.173-1.993-4.939-2.502c-0.637-0.184-1.994-0.992-2.605-0.598c-0.719,0.463-0.048,2.013,0.237,2.66
							c0.758,1.727,2.089,3.168,3.239,4.633c0.129,0.164,1.47,1.54,1.356,1.752c-0.121,0.229-2.623-0.54-2.834-0.585
							c-1.831-0.39-3.692-0.774-5.565-0.851c-0.761-0.031-1.889-0.11-2.499,0.463c-0.63,0.593,0.013,1.628,0.414,2.143
							c1.174,1.503,2.932,2.531,4.528,3.505c0.168,0.102,1.889,0.943,1.864,1.183c-0.011,0.115-1.951,0.337-2.081,0.364
							c-1.525,0.326-4.288,0.888-5.004,2.523c-0.729,1.667,1.859,2.652,2.989,3c4.245,1.311,10.914,4.68,15.165,5.968"/>
						<g>
							<path style="fill:#6F96BD;" d="M146.595,193.024c-3.65-3.082-14.375,8.617-13.603,10.226
								c1.18,2.454,13.566,35.883,65.553,55.164c3.829,1.42-3.076,41.893-1.335,50.049c0.658,3.078,30.127,6.474,43.515,7.301
								c26.187,1.614,37.096-3.927,37.096-3.927c-1.941-18.094-10.064-59.599-10.064-59.599
								c35.887-33.844,38.611-49.445,42.961-64.642c0.949-3.316-9.798-10.412-12.721-8.81c-6.012,3.292-19.331,34.436-57.863,54.448
								c-3.066,1.593-14.125,1.997-17.48,1.175C159.365,218.909,158.347,202.951,146.595,193.024L146.595,193.024z"/>
							<path style="fill:#6488AA;" d="M199.349,272.676c1.983,3.716,4.374,7.308,7.438,10.287
								c15.734,15.296,42.333,16.774,62.826,14.551c2.039-0.221,4.075-0.488,6.107-0.804c0.906,5.739,1.662,11.033,2.1,15.128
								c0,0-10.909,5.541-37.096,3.927c-13.388-0.827-42.857-4.224-43.515-7.301C196.12,303.359,198.417,285.598,199.349,272.676
								L199.349,272.676z"/>
							
								<path style="fill:none;stroke:#000000;stroke-width:2;stroke-linecap:round;stroke-linejoin:round;stroke-miterlimit:1.5;" d="
								M146.595,193.024c-3.65-3.082-14.375,8.617-13.603,10.226c1.18,2.454,13.566,35.883,65.553,55.164
								c3.829,1.42-3.076,41.893-1.335,50.049c0.658,3.078,30.127,6.474,43.515,7.301c26.187,1.614,37.096-3.927,37.096-3.927
								c-1.941-18.094-10.064-59.599-10.064-59.599c35.887-33.844,38.611-49.445,42.961-64.642
								c0.949-3.316-9.798-10.412-12.721-8.81c-6.012,3.292-19.331,34.436-57.863,54.448c-3.066,1.593-14.125,1.997-17.48,1.175
								C159.365,218.909,158.347,202.951,146.595,193.024L146.595,193.024z"/>
						</g>
						
							<path style="fill:#FFFFFF;stroke:#000000;stroke-width:2;stroke-linecap:round;stroke-linejoin:round;stroke-miterlimit:10;" d="
							M234.795,241.059c0,0-15.981,12.343-18.795,9.111c-6.426-7.383-0.993-19.513,3.8-21.913c4.793-2.4,21.566-1.035,21.566-1.035
							s15.929,3.754,11.913,18.868C251.837,251.518,234.795,241.059,234.795,241.059z"/>
					</g>
					<g>
						<g>
							<path style="fill:#965352;stroke:#000000;stroke-width:2;stroke-miterlimit:10;" d="M180.243,196.098
								c3.584-0.858-0.443-7.317,2.502-6.05c16.528,6.182,3.627-11.578,4.264-11.312c7.317,3.063,17.913-2.936,3.658-5.666
								c-3.065-0.587,3.166-3.7,2.81-6.033c-0.825-5.404-8.784-1.39-8.775-1.446c0.54-2.815,0.974-11.162-4.759-9.579
								c-4.282,1.183-5.486,6.647-5.51,6.652c-0.54,0.09-7.185-8.426-10.719-5.22c-3.107,2.818,1.477,8.994,1.093,8.97
								c-4.441-0.272-10.184,0.034-10.277,3.845c-0.097,3.914,6.722,4.395,5.836,5.995c-1.409,2.546-6.316,6.603-3.855,8.758
								c3.179,2.781,10.404-1.722,11.088-1.443c0.195,0.079-5.405,7.572-0.771,9.21c5.157,1.823,7.838-7.024,7.764-4.678
								C174.541,189.727,175.144,197.318,180.243,196.098L180.243,196.098z"/>
							
								<path style="fill:#BE122C;stroke:#000000;stroke-width:2;stroke-linecap:round;stroke-linejoin:round;stroke-miterlimit:1.5;" d="
								M190.8,178.465c4.272,1.317,7.403,2.754,6.726,5.675c-0.675,2.908-4.482,2.217-8.754,0.898
								c-4.27-1.317-7.653-3.065-6.724-5.673C183.338,175.739,186.53,177.146,190.8,178.465L190.8,178.465z"/>
						</g>
						<g>
							<path style="fill:#965352;stroke:#000000;stroke-width:2;stroke-miterlimit:10;" d="M236.953,161.2
								c-0.876,3.578,6.919,2.426,4.609,4.651c-8.096,7.796,9.266,7.832,8.775,8.315c-5.66,5.559-4.237,17.651,3.806,5.568
								c1.728-2.597,2.183,4.353,4.472,4.928c5.302,1.335,4.685-7.559,4.735-7.527c2.384,1.588,9.911,5.223,10.674-0.675
								c0.569-4.406-4.001-7.633-3.996-7.658c0.127-0.532,10.553-3.356,8.968-7.857c-1.394-3.956-8.863-2.125-8.694-2.47
								c1.973-3.988,3.917-9.4,0.44-10.964c-3.571-1.606-6.658,4.493-7.79,3.057c-1.799-2.286-3.638-8.383-6.579-6.948
								c-3.796,1.852-2.446,10.258-2.968,10.78c-0.148,0.15-4.885-7.919-8.191-4.28c-3.679,4.048,3.435,9.948,1.303,8.971
								C245.037,158.412,238.037,156.771,236.953,161.2z"/>
							
								<path style="fill:#BE122C;stroke:#000000;stroke-width:2;stroke-linecap:round;stroke-linejoin:round;stroke-miterlimit:1.5;" d="
								M248.22,177.517c-3.263,3.055-6.063,5.062-8.262,3.024c-2.191-2.03,0.298-4.991,3.561-8.046
								c3.263-3.055,6.458-5.125,8.264-3.024C254.289,172.389,251.483,174.462,248.22,177.517z"/>
						</g>
						
							<path style="fill:#FFFFFF;stroke:#000000;stroke-width:2;stroke-linecap:round;stroke-linejoin:round;stroke-miterlimit:1.5;" d="
							M252.748,196.067c0,0,10.816-6.07,12.012,5.259c0.767,7.269-9.05,8.57-11.592,6.888"/>
						<g>
							<path style="fill:#FFFFFF;" d="M239.157,173.074c11.378,6.3,16.479,23.824,15.258,37.991
								c-0.845,9.811-6.318,11.309-9.9,15.212c-4.003,4.361-0.077,6.943-2.344,11.451c-1.541,3.063-15.112,5.039-19.569,0.176
								c-2.122-2.315-2.681-8.783-5.897-10.412c-5.106-2.587-26.832-13.962-22.629-35.493
								C197.313,175.413,217.624,161.151,239.157,173.074L239.157,173.074z"/>
							<path style="fill:#D6E6EE;" d="M218.136,228.698c3.5,0.969,7.148,1.525,10.725,1.83c4.667,0.397,9.219,0.532,13.753-0.042
								c-0.072,2.271,1.003,4.364-0.443,7.242c-1.541,3.063-15.112,5.039-19.569,0.176
								C220.842,235.981,220.156,231.2,218.136,228.698L218.136,228.698z"/>
							
								<path style="fill:none;stroke:#000000;stroke-width:2;stroke-linecap:round;stroke-linejoin:round;stroke-miterlimit:1.5;" d="
								M239.157,173.074c11.378,6.3,16.479,23.824,15.258,37.991c-0.845,9.811-6.318,11.309-9.9,15.212
								c-4.003,4.361-0.077,6.943-2.344,11.451c-1.541,3.063-15.112,5.039-19.569,0.176c-2.122-2.315-2.681-8.783-5.897-10.412
								c-5.106-2.587-26.832-13.962-22.629-35.493C197.313,175.413,217.624,161.151,239.157,173.074L239.157,173.074z"/>
						</g>
						<g>
							
								<path style="fill:none;stroke:#000000;stroke-width:2;stroke-linecap:round;stroke-linejoin:round;stroke-miterlimit:1.5;" d="
								M232.578,195.631c0,0,1.59,1.888,1.1,3.713"/>
							<path style="stroke:#000000;stroke-width:2;stroke-linecap:round;stroke-linejoin:round;stroke-miterlimit:1.5;" d="
								M223.584,207.184c1.309-1.683,16.658-1.793,16.696,0.655c0.037,2.447-0.983,10.304-7.851,10.093
								C225.56,217.723,222.276,208.868,223.584,207.184L223.584,207.184z"/>
							
								<path style="fill:none;stroke:#000000;stroke-width:2;stroke-linecap:round;stroke-linejoin:round;stroke-miterlimit:1.5;" d="
								M236.769,194.868c0,0,3.755-2.357,6.042-0.833"/>
							
								<path style="fill:none;stroke:#000000;stroke-width:2;stroke-linecap:round;stroke-linejoin:round;stroke-miterlimit:1.5;" d="
								M223.6,197.738c0,0-5.939-0.664-7.599,1.707"/>
							
								<path style="fill:none;stroke:#000000;stroke-width:2;stroke-linecap:round;stroke-linejoin:round;stroke-miterlimit:1.5;" d="
								M233.218,184.618c0,0,4.459-3.89,8.928-0.84"/>
							
								<path style="fill:none;stroke:#000000;stroke-width:2;stroke-linecap:round;stroke-linejoin:round;stroke-miterlimit:1.5;" d="
								M221.488,186.493c0,0-6.371-2.275-9.631,3.155"/>
						</g>
						<path style="fill:#965352;" d="M205.383,221.345c0,0-2.196-26.443-2.629-29.825c-0.434-3.381,22.032-19.061,22.032-19.061
							s16.348,4.454,21.122,6.534c7.193,3.134-5.012-17.997-28.299-14.359c-15.628,2.441-26.856,11.828-27.514,28.212
							C189.195,215.269,205.383,221.345,205.383,221.345L205.383,221.345z"/>
						<path style="fill:#75413B;" d="M203.078,194.675c-7.428-2.213-10.5-6.314-11.453-10.554c-0.874,2.647-1.402,5.553-1.529,8.723
							c-0.901,22.424,15.287,28.5,15.287,28.5C205.383,221.344,203.829,202.628,203.078,194.675z"/>
						<path style="fill:none;stroke:#000000;stroke-width:2;stroke-miterlimit:10;" d="M205.383,221.345
							c0,0-2.196-26.443-2.629-29.825c-0.434-3.381,22.032-19.061,22.032-19.061s16.348,4.454,21.122,6.534
							c7.193,3.134-5.012-17.997-28.299-14.359c-15.628,2.441-26.856,11.828-27.514,28.212
							C189.195,215.269,205.383,221.345,205.383,221.345L205.383,221.345z"/>
						<g>
							<polygon style="fill:#75413B;" points="205.383,221.345 205.383,221.345 205.383,221.345 							"/>
						</g>
						
							<path style="fill:#FFFFFF;stroke:#000000;stroke-width:2;stroke-linecap:round;stroke-linejoin:round;stroke-miterlimit:1.5;" d="
							M206.352,209.23c0,0-12.703-4.495-12.144,5.479c0.587,10.48,11.667,7.943,13.14,5.821"/>
					</g>
				</g>
			</g>
		</g>
	</g>
</g>
</svg>
