<?xml version="1.0" encoding="utf-8"?>
<!-- Generator: Adobe Illustrator 27.5.0, SVG Export Plug-In . SVG Version: 6.00 Build 0)  -->
<svg version="1.1" id="Layer_1" xmlns="http://www.w3.org/2000/svg" xmlns:xlink="http://www.w3.org/1999/xlink" x="0px" y="0px"
	 viewBox="0 0 217.822 250.579" style="enable-background:new 0 0 217.822 250.579;" xml:space="preserve">
<g>
	<g>
		<g>
			<g>
				<g>
					<g>
						<path style="fill:#FFFFFF;" d="M90.08,220.787c0,0-2.082-2.035-5.188,0.523c-3.107,2.561-6.55,11.172-3.144,13.787
							c0.586,0.326,2.502-0.715,3.697-4.105c1.195-3.393,3.012-5.559,3.012-5.559L90.08,220.787z"/>
						<path d="M81.998,235.654L81.998,235.654c-0.185,0-0.351-0.041-0.494-0.121c-1.082-0.822-1.637-2.139-1.666-3.844
							c-0.066-3.873,2.445-8.877,4.736-10.764c1.131-0.934,2.273-1.406,3.396-1.406c1.511,0,2.422,0.873,2.46,0.91
							c0.139,0.137,0.187,0.34,0.123,0.523L88.93,225.6c-0.021,0.057-0.051,0.109-0.09,0.156c-0.017,0.02-1.775,2.145-2.923,5.402
							C84.754,234.457,82.937,235.654,81.998,235.654z M87.97,220.52c-0.884,0-1.813,0.396-2.761,1.178
							c-2.07,1.707-4.432,6.436-4.371,9.975c0.024,1.41,0.434,2.43,1.215,3.029l-0.055-0.047c0.434,0,1.945-0.908,2.976-3.828
							c1.104-3.133,2.706-5.225,3.04-5.641l1.476-4.223C89.206,220.777,88.683,220.52,87.97,220.52z"/>
					</g>
				</g>
				<path style="fill:#422313;" d="M80.578,230.57c1.257-0.949,2.756-0.453,3.74,0.627c0.063,0.068,0.338,0.008,0.288-0.049
					c-1.118-1.227-2.882-1.689-4.29-0.619C80.23,230.594,80.514,230.619,80.578,230.57L80.578,230.57z"/>
				<path style="fill:#422313;" d="M81.496,227c0.162-0.219,0.373-0.4,0.595-0.557c1.101-0.797,2.232-0.023,3,0.822
					c0.06,0.066,0.335,0.004,0.284-0.053c-0.733-0.809-1.631-1.426-2.758-1.174c-0.551,0.121-1.08,0.502-1.412,0.951
					C81.163,227.051,81.441,227.074,81.496,227L81.496,227z"/>
				<path style="fill:#422313;" d="M84.074,222.367c1.012-0.598,1.953,0.152,2.453,1.037c0.045,0.08,0.327,0.076,0.29,0.012
					c-0.591-1.045-1.818-1.84-2.991-1.146C83.73,222.328,84.004,222.408,84.074,222.367L84.074,222.367z"/>
			</g>
			<g>
				<g>
					<g>
						<path style="fill:#FFFFFF;" d="M97.842,221.348c0,0-2.17-3.461-4.729-3.199c-2.556,0.264-5.926,3.785-6.721,9.965
							c-0.691,5.584,0.832,6.697,2.332,6.617c1.502-0.088,2.269-9.111,6.596-8.775C97.061,225.582,97.842,221.348,97.842,221.348z"
							/>
						<path d="M88.578,235.234c-0.756,0-1.379-0.271-1.854-0.809c-0.955-1.08-1.226-3.166-0.828-6.373
							c0.818-6.363,4.303-10.107,7.166-10.4c2.833-0.295,5.111,3.283,5.203,3.43c0.066,0.105,0.092,0.232,0.068,0.355
							c-0.086,0.467-0.9,4.576-2.908,5.008c-0.048,0.008-0.096,0.012-0.144,0.008c-2.378-0.18-3.62,3.207-4.529,5.674
							c-0.677,1.838-1.124,3.051-1.999,3.102L88.578,235.234z M93.393,218.635c-0.076,0-0.151,0.004-0.228,0.012
							c-2.126,0.219-5.478,3.32-6.276,9.531c-0.441,3.568,0.074,5.008,0.586,5.586c0.279,0.316,0.641,0.471,1.104,0.471l0.12-0.004
							c0.263-0.133,0.757-1.471,1.116-2.449c1.006-2.73,2.415-6.492,5.461-6.33c0.986-0.297,1.764-2.688,2.036-3.998
							C96.883,220.836,95.229,218.635,93.393,218.635z"/>
					</g>
				</g>
				<path style="fill:#422313;" d="M86.643,227.162c1.395-1.121,3.118-0.625,4.268,0.586c0.063,0.064,0.337-0.006,0.283-0.061
					c-1.289-1.361-3.267-1.799-4.813-0.559C86.295,227.197,86.58,227.211,86.643,227.162L86.643,227.162z"/>
				<path style="fill:#422313;" d="M88.799,221.617c2.174-0.541,4.246,0.502,5.106,2.561c0.036,0.076,0.323,0.086,0.289,0.004
					c-0.933-2.229-3.269-3.254-5.595-2.678C88.45,221.543,88.726,221.635,88.799,221.617L88.799,221.617z"/>
				<path style="fill:#422313;" d="M91.854,218.689c1.694-0.299,3.062,0.793,3.539,2.371c0.024,0.088,0.302,0.148,0.276,0.074
					c-0.53-1.76-2.164-2.928-4.031-2.596C91.531,218.557,91.777,218.703,91.854,218.689L91.854,218.689z"/>
			</g>
			<g>
				<g>
					<path style="fill:#FFFFFF;" d="M103.675,195.699c0,0,0.438,20.906-0.825,24.145c0.418,0.693-4.004-2.646-6.773,2.551
						c-2.771,5.195-4.843,13.191-1.666,14.152c1.85,0.529,3.438-3.217,4.346-5.201c0.909-1.982,2.334-3.791,6.234-3.922
						c3.899-0.131,5.604,0.242,7.484,1.822c1.876,1.58,2.711,3.039,4.318,2.211c1.609-0.832,1.002-4.076-0.109-6.068
						c-1.111-1.998-3.126-2.158-5.424-2.707c-2.295-0.549-3.591-1.805-3.359-5.389c0.231-3.582,1.488-23.892,0.836-27.813
						C108.408,191.863,103.675,195.699,103.675,195.699z"/>
					<path d="M94.768,237.098c-0.166,0-0.332-0.023-0.494-0.07c-0.732-0.221-1.267-0.732-1.594-1.52
						c-1.185-2.854,0.639-9.006,2.955-13.348c1.146-2.15,2.723-3.242,4.685-3.242c0.908,0,1.676,0.238,2.172,0.404
						c0.859-3.24,0.828-16.693,0.683-23.611c-0.003-0.154,0.065-0.303,0.185-0.4c1.274-1.033,4.635-4.105,4.881-5.898
						c0.033-0.244,0.241-0.428,0.488-0.432c0.242,0.039,0.46,0.174,0.5,0.418c0.682,4.084-0.672,25.498-0.828,27.928
						c-0.221,3.408,0.975,4.391,2.977,4.869c0.314,0.074,0.625,0.143,0.928,0.209c1.928,0.424,3.749,0.824,4.816,2.74
						c0.814,1.463,1.475,3.766,0.993,5.359c-0.194,0.646-0.571,1.129-1.093,1.398c-0.385,0.197-0.75,0.295-1.114,0.295
						c-0.991,0-1.727-0.695-2.658-1.574c-0.328-0.311-0.687-0.648-1.097-0.994c-1.775-1.492-3.391-1.832-7.146-1.705
						c-3.687,0.123-4.965,1.818-5.795,3.631l-0.148,0.324C98.117,233.957,96.689,237.098,94.768,237.098z M100.32,219.918
						c-1.564,0-2.844,0.912-3.803,2.713c-2.191,4.105-3.929,10.051-2.914,12.494c0.209,0.504,0.521,0.813,0.951,0.943
						c0.066,0.02,0.14,0.029,0.213,0.029c1.278,0,2.648-3.014,3.385-4.633l0.148-0.326c0.92-2.004,2.431-4.072,6.672-4.215
						c4.036-0.135,5.844,0.277,7.823,1.939c0.426,0.359,0.799,0.711,1.14,1.031c1.072,1.012,1.678,1.604,2.628,1.119
						c0.281-0.146,0.476-0.406,0.593-0.797c0.375-1.244-0.189-3.291-0.909-4.586c-0.849-1.523-2.308-1.844-4.156-2.25
						c-0.309-0.066-0.626-0.137-0.946-0.213c-2.848-0.682-3.967-2.447-3.742-5.906c0.139-2.148,1.217-19.213,0.991-25.777
						c-1.246,1.902-3.485,3.842-4.214,4.447c0.047,2.432,0.352,20.475-0.816,23.963c0.004,0.104-0.012,0.205-0.054,0.279
						c-0.095,0.17-0.273,0.27-0.476,0.27c-0.148,0-0.29-0.047-0.549-0.135C101.855,220.162,101.137,219.918,100.32,219.918z"/>
				</g>
			</g>
			<path style="fill:#422313;" d="M103.605,199.555c1.17,0.971,3.098,0.627,4.39,0.193c0.184-0.059-0.069-0.127-0.154-0.096
				c-1.184,0.395-2.905,0.725-3.98-0.168C103.799,199.436,103.514,199.479,103.605,199.555L103.605,199.555z"/>
			<path style="fill:#422313;" d="M103.633,203.742c0.822,1.406,3.097,0.723,4.208,0.25c0.141-0.061-0.151-0.092-0.218-0.064
				c-1.02,0.436-2.969,1.012-3.707-0.246C103.874,203.611,103.586,203.662,103.633,203.742L103.633,203.742z"/>
			<path style="fill:#422313;" d="M103.486,209.482c1.324,1.053,3.199,0.646,4.524-0.146c0.059-0.035-0.19-0.154-0.27-0.109
				c-1.161,0.697-2.844,1.172-4.028,0.234C103.653,209.412,103.364,209.387,103.486,209.482L103.486,209.482z"/>
			<path style="fill:#422313;" d="M103.289,215.416c1.109,0.781,2.794,0.439,3.949,0.018c0.182-0.063-0.07-0.121-0.158-0.092
				c-1.047,0.385-2.529,0.703-3.535-0.004C103.479,215.291,103.197,215.35,103.289,215.416L103.289,215.416z"/>
			<path style="fill:#422313;" d="M102.764,219.883c1.623,0.613,3.207,1.75,4.063,3.271c0.044,0.082,0.323,0.092,0.29,0.025
				c-0.882-1.568-2.514-2.738-4.185-3.373C102.852,219.775,102.584,219.813,102.764,219.883L102.764,219.883z"/>
			<path style="fill:#422313;" d="M103.238,218.248c1.076,0.914,2.526,1.416,3.931,1.316c0.204-0.014,0.052-0.125-0.076-0.117
				c-1.284,0.094-2.614-0.422-3.593-1.256C103.438,218.141,103.152,218.174,103.238,218.248L103.238,218.248z"/>
			<path style="fill:#422313;" d="M93.662,228.762c1.596-0.752,3.32-0.123,4.414,1.158c0.059,0.068,0.336,0.018,0.287-0.043
				c-1.211-1.414-3.172-2.016-4.916-1.189C93.305,228.752,93.592,228.797,93.662,228.762L93.662,228.762z"/>
			<path style="fill:#422313;" d="M95.523,223.863c2.054-0.619,4.061,0.469,5.203,2.164c0.045,0.066,0.325,0.131,0.263,0.039
				c-1.229-1.826-3.459-3.025-5.683-2.352C95.199,223.746,95.449,223.887,95.523,223.863L95.523,223.863z"/>
			<path style="fill:#422313;" d="M98.405,220.098c2.902,0.191,5.2,2.326,5.864,5.1c0.021,0.084,0.303,0.143,0.282,0.063
				c-0.702-2.932-3.217-5.107-6.257-5.311C98.102,219.936,98.313,220.09,98.405,220.098L98.405,220.098z"/>
			<path style="fill:#422313;" d="M111.514,222.947c1.348,0.977,1.243,3.076,0.891,4.482c-0.021,0.076,0.271,0.135,0.293,0.047
				c0.373-1.475,0.435-3.568-0.961-4.582C111.674,222.85,111.387,222.854,111.514,222.947L111.514,222.947z"/>
			<path style="fill:#422313;" d="M107.338,222.256c1.799,0.787,1.254,3.561,0.811,4.936c-0.028,0.088,0.266,0.084,0.291,0.006
				c0.462-1.438,0.992-4.219-0.853-5.021C107.516,222.143,107.243,222.217,107.338,222.256L107.338,222.256z"/>
		</g>
		<g>
			<g>
				<g>
					<g>
						<path style="fill:#FFFFFF;" d="M134.645,224.566c0,0-2.638-1.771-5.463,1.592c-2.822,3.361-4.81,13.281-0.637,15.414
							c0.692,0.23,2.542-1.266,3.151-5.139c0.609-3.875,2.127-6.561,2.127-6.561L134.645,224.566z"/>
						<path d="M128.697,242.096L128.697,242.096c-0.109,0-0.213-0.016-0.31-0.049c-1.307-0.662-2.155-1.953-2.521-3.762
							c-0.836-4.131,0.858-9.979,2.934-12.447c1.553-1.85,3.083-2.238,4.095-2.238c1.195,0,1.996,0.529,2.029,0.551
							c0.162,0.109,0.246,0.301,0.216,0.492l-0.821,5.307c-0.01,0.061-0.029,0.117-0.059,0.17c-0.015,0.025-1.481,2.66-2.068,6.393
							C131.586,240.363,129.783,242.096,128.697,242.096z M132.895,224.6c-1.162,0-2.281,0.633-3.329,1.881
							c-1.889,2.248-3.487,7.809-2.719,11.606c0.302,1.49,0.929,2.502,1.865,3.01c0.398-0.029,1.94-1.23,2.491-4.74
							c0.564-3.59,1.875-6.152,2.141-6.644l0.753-4.867C133.841,224.734,133.418,224.6,132.895,224.6z"/>
					</g>
					<path style="fill:#422313;" d="M134.701,224.547c-3.068-1.936-5.969,1.613-7.096,4.121c-1.507,3.359-2.834,9.309,0.053,12.33
						c2.855,2.986,4.281-5.447,4.555-6.584c0.412-1.715,1.52-3.313,1.782-5.02c0.247-1.602,0.495-3.201,0.743-4.803
						c0.008-0.059-0.178-0.1-0.186-0.051c-0.262,1.697-0.176,4.055-0.964,5.58c-0.903,1.748-1.461,3.66-1.859,5.576
						c-0.415,1.994-0.721,4.215-2.421,5.58c-1.719,1.379-2.852-2.881-2.987-3.889c-0.257-1.906,0.053-3.893,0.492-5.748
						c0.702-2.963,3.638-9.668,7.776-7.057C134.64,224.617,134.806,224.613,134.701,224.547z"/>
				</g>
				<path style="fill:#422313;" d="M126.393,236.949c1.161-1.273,2.867-1.037,4.139-0.072c0.078,0.061,0.363-0.059,0.297-0.107
					c-1.442-1.096-3.424-1.242-4.723,0.182C126.023,237.039,126.334,237.012,126.393,236.949L126.393,236.949z"/>
				<path style="fill:#422313;" d="M126.669,232.936c0.131-0.27,0.323-0.508,0.526-0.717c1.023-1.072,2.391-0.469,3.383,0.287
					c0.078,0.059,0.36-0.064,0.295-0.113c-0.947-0.723-2.033-1.205-3.192-0.711c-0.566,0.238-1.058,0.752-1.324,1.299
					C126.322,233.053,126.626,233.025,126.669,232.936L126.669,232.936z"/>
				<path style="fill:#422313;" d="M128.515,227.451c0.968-0.84,2.127-0.221,2.837,0.627c0.066,0.076,0.368,0.018,0.315-0.045
					c-0.841-1.004-2.314-1.613-3.436-0.637C128.138,227.479,128.449,227.51,128.515,227.451L128.515,227.451z"/>
			</g>
			<g>
				<g>
					<g>
						<path style="fill:#FFFFFF;" d="M143.085,223.631c0,0-3.017-3.283-5.708-2.496c-2.689,0.789-5.609,5.238-5.234,12.023
							c0.365,6.127,2.221,7.021,3.816,6.633c1.59-0.391,0.623-10.221,5.333-10.719C143.084,228.326,143.085,223.631,143.085,223.631
							z"/>
						<path d="M135.342,240.369c-2.17,0-3.414-2.416-3.697-7.182c-0.386-6.961,2.594-11.652,5.592-12.533
							c0.322-0.094,0.662-0.143,1.012-0.143c2.62,0,5.101,2.668,5.205,2.781c0.085,0.092,0.132,0.213,0.132,0.338
							c0,0.516-0.06,5.055-2.101,5.902c-0.045,0.02-0.092,0.031-0.14,0.035c-2.616,0.277-3.286,4.178-3.774,7.023
							c-0.357,2.086-0.595,3.465-1.492,3.684C135.826,240.338,135.578,240.369,135.342,240.369z M138.248,221.512
							c-0.254,0-0.5,0.035-0.73,0.102c-2.252,0.662-5.254,4.674-4.875,11.518c0.17,2.844,0.775,6.238,2.699,6.238
							c0.157,0,0.324-0.021,0.498-0.064c0.281-0.18,0.549-1.74,0.745-2.881c0.538-3.137,1.273-7.422,4.571-7.84
							c0.998-0.502,1.396-3.08,1.427-4.752C142.064,223.314,140.123,221.512,138.248,221.512z"/>
					</g>
					<path style="fill:#422313;" d="M143.17,223.621c-1.275-1.355-2.945-2.473-4.83-2.645c-1.907-0.174-3.455,1.646-4.36,3.064
						c-1.952,3.051-2.157,6.984-1.815,10.479c0.155,1.6,0.527,4.607,2.381,5.236c3.023,1.027,2.748-4.215,3.174-6.004
						c0.271-1.145,0.672-2.262,1.338-3.238c0.35-0.514,0.84-0.893,1.391-1.17c0.307-0.154,0.876-0.129,1.191-0.391
						c1.408-1.182,1.529-3.604,1.541-5.311c0-0.059-0.189-0.074-0.19-0.023c-0.009,1.33-0.185,2.676-0.614,3.938
						c-0.543,1.592-2.26,1.521-3.303,2.664c-2.048,2.246-1.771,5.918-2.59,8.664c-0.333,1.125-1.413,1.211-2.366,0.494
						c-0.683-0.512-1.006-1.443-1.262-2.217c-0.946-2.873-0.823-6.285-0.214-9.205c0.495-2.367,1.663-4.793,3.661-6.234
						c2.253-1.627,5.085,0.201,6.698,1.918C143.035,223.676,143.22,223.674,143.17,223.621z"/>
				</g>
				<path style="fill:#422313;" d="M132.221,232.086c1.276-1.477,3.223-1.287,4.695-0.215c0.081,0.059,0.36-0.076,0.291-0.125
					c-1.651-1.203-3.859-1.281-5.274,0.359C131.855,232.193,132.164,232.152,132.221,232.086L132.221,232.086z"/>
				<path style="fill:#422313;" d="M133.436,225.711c2.224-1.014,4.652-0.303,5.983,1.732c0.055,0.078,0.364,0.029,0.313-0.051
					c-1.442-2.205-4.152-2.844-6.531-1.762C133.046,225.701,133.361,225.746,133.436,225.711L133.436,225.711z"/>
				<path style="fill:#422313;" d="M136.134,221.965c1.757-0.658,3.44,0.244,4.265,1.842c0.045,0.088,0.354,0.1,0.314,0.025
					c-0.92-1.783-2.904-2.711-4.842-1.984C135.762,221.885,136.054,221.996,136.134,221.965L136.134,221.965z"/>
				<g style="opacity:0.4;">
					<g>
						<path style="fill:#F5F5F5;" d="M139.575,221.303c0.898,1.561-1.151,2.105-1.352,3.535c-0.205,1.475-0.573,2.674-1.102,4.064
							c-0.623,1.629-0.979,3.305-1.174,5.035c-0.191,1.682-0.402,4.387-2.327,5.047c-0.013,0.002-0.064,0.025-0.039,0.045
							c0.966,0.955,2.554,1.408,3.091-0.131c0.859-2.467,0.742-5.139,1.874-7.551c0.705-1.502,1.761-1.676,3.072-2.396
							c0.815-0.445,1.072-1.686,1.263-2.506c0.215-0.916,0.293-1.887,0.299-2.824c0.006-0.816-2.932-2.156-3.433-2.363
							c-0.047-0.018-0.222,0.029-0.161,0.053c1.229,0.51,2.271,1.236,3.232,2.158c0.308,0.295,0.15,0.813,0.122,1.205
							c-0.069,0.984-0.244,1.957-0.563,2.893c-0.363,1.066-1.168,1.27-2.08,1.726c-2.73,1.375-2.98,5.34-3.447,7.988
							c-0.119,0.678-0.244,1.361-0.512,2c-0.495,1.186-0.951-0.809-2.357-0.33c0.191-0.064,0.352-0.193,0.513-0.311
							c1.661-1.186,1.563-4.352,1.82-6.08c0.322-2.174,1.438-4.006,1.907-6.102c0.296-1.313,0.053-2.295,1.266-3.209
							c0.762-0.572,0.716-1.213,0.271-1.984C139.731,221.219,139.546,221.252,139.575,221.303z"/>
					</g>
				</g>
			</g>
			<g>
				<g>
					<path style="fill:#FFFFFF;" d="M144.252,194.959c0,0,4.617,22.342,3.904,26.064c0.587,0.66-4.819-2.045-6.76,4.08
						c-1.943,6.123-2.579,15.111,1.021,15.512c2.088,0.201,3.046-4.135,3.629-6.441c0.583-2.307,1.753-4.531,5.909-5.443
						c4.157-0.912,6.061-0.851,8.391,0.471c2.328,1.32,3.512,2.723,5.072,1.516c1.559-1.211,0.266-4.57-1.322-6.49
						c-1.586-1.922-3.779-1.693-6.354-1.826c-2.57-0.137-4.209-1.225-4.672-5.113c-0.463-3.891-3.143-25.926-4.621-30.002
						C148.57,189.904,144.252,194.959,144.252,194.959z"/>
					<path d="M142.557,241.121c-0.061,0-0.125-0.002-0.188-0.008c-0.815-0.092-1.479-0.527-1.977-1.295
						c-1.828-2.813-1.093-9.758,0.528-14.865c0.928-2.928,2.818-4.475,5.469-4.475c0.531,0,0.994,0.061,1.321,0.107
						c0.307-3.58-2.413-18.1-3.948-25.525c-0.031-0.152,0.01-0.309,0.109-0.428c1.166-1.363,4.17-5.34,4.079-7.324
						c-0.011-0.248,0.159-0.467,0.401-0.514c0.24-0.049,0.484,0.088,0.568,0.318c1.543,4.254,4.333,27.48,4.646,30.115
						c0.444,3.729,1.938,4.553,4.201,4.674c0.352,0.018,0.696,0.029,1.033,0.039c2.145,0.07,4.169,0.137,5.68,1.967
						c1.16,1.402,2.318,3.727,2.119,5.521c-0.08,0.727-0.375,1.293-0.875,1.682c-0.492,0.381-0.986,0.564-1.512,0.564
						c-0.893,0-1.704-0.523-2.732-1.188c-0.416-0.268-0.871-0.563-1.382-0.852c-1.277-0.725-2.361-1.021-3.738-1.021
						c-1.074,0-2.4,0.186-4.299,0.604c-3.953,0.867-4.994,2.953-5.531,5.076l-0.099,0.393
						C145.793,237.25,144.828,241.121,142.557,241.121z M146.389,221.479c-2.202,0-3.722,1.27-4.516,3.777
						c-1.539,4.85-2.223,11.588-0.643,14.018c0.332,0.512,0.738,0.789,1.242,0.844l0.084,0.004c1.49,0,2.411-3.691,2.906-5.676
						l0.098-0.395c0.587-2.318,1.792-4.822,6.288-5.809c1.999-0.439,3.349-0.627,4.513-0.627c1.545,0,2.811,0.346,4.23,1.152
						c0.529,0.299,1.002,0.604,1.432,0.881c0.889,0.574,1.592,1.027,2.189,1.027c0.3,0,0.585-0.113,0.898-0.355
						c0.283-0.219,0.445-0.547,0.495-1c0.157-1.424-0.86-3.521-1.896-4.775c-1.224-1.482-2.864-1.535-4.942-1.604
						c-0.342-0.012-0.693-0.024-1.051-0.041c-3.162-0.168-4.699-1.83-5.144-5.555c-0.278-2.348-2.534-21.119-4.083-28.006
						c-0.951,2.346-3.092,5.02-3.699,5.754c0.514,2.512,4.453,21.947,3.879,25.891c0.025,0.117,0.025,0.24-0.016,0.332
						c-0.043,0.096-0.184,0.32-0.547,0.32c-0.096,0-0.252-0.02-0.456-0.049C147.332,221.541,146.895,221.479,146.389,221.479z"/>
				</g>
				<path style="fill:#422313;" d="M144.158,194.947c0.983,4.771,1.883,9.561,2.685,14.365c0.511,3.049,1.005,6.119,1.235,9.207
					c0.061,0.82,0.119,1.678-0.017,2.496c-0.015,0.094-1.829-0.074-2.077-0.064c-3.172,0.127-4.404,3.014-5.128,5.682
					c-1.004,3.697-1.809,8.266-0.58,12.002c0.551,1.676,2.253,2.727,3.659,1.336c1.121-1.109,1.516-3.117,1.898-4.568
					c0.561-2.131,1.094-3.973,2.953-5.34c1.974-1.451,4.98-1.799,7.366-1.904c2.674-0.119,4.543,1.422,6.729,2.662
					c1.883,1.066,3.461-0.316,3.296-2.348c-0.229-2.811-2.376-5.393-5.108-5.906c-1.841-0.344-3.751,0.084-5.51-0.707
					c-1.807-0.814-2.225-3.143-2.432-4.867c-0.611-5.111-1.271-10.219-1.99-15.316c-0.665-4.715-1.02-9.867-2.596-14.393
					c-0.016-0.043-0.188-0.061-0.188-0.01c-0.046,2.775-2.47,5.633-4.192,7.666c-0.033,0.037,0.145,0.08,0.182,0.039
					c1.705-2.012,3.588-4.416,4.154-7.041c0.146-0.678-0.041-0.383,0.131,0.246c0.16,0.592,0.287,1.191,0.414,1.789
					c0.323,1.539,0.584,3.09,0.841,4.641c1.129,6.838,1.999,13.719,2.841,20.596c0.296,2.41,0.336,5.342,2.696,6.689
					c1.03,0.588,2.362,0.547,3.502,0.586c2.108,0.07,4.02,0.383,5.393,2.145c0.857,1.101,1.428,2.457,1.673,3.824
					c0.355,1.967-1.402,3.213-3.415,2.07c-1.003-0.568-1.924-1.252-2.968-1.758c-1.252-0.605-2.625-0.725-3.994-0.664
					c-3.338,0.146-7.757,1.092-9.159,4.551c-0.675,1.662-1.776,9.709-4.973,7.535c-2.385-1.625-1.589-6.814-1.297-9.154
					c0.388-3.107,0.942-7.637,3.841-9.43c1.066-0.66,2.395-0.652,3.594-0.484c0.166,0.021,0.502,0.137,0.662,0.02
					c0.009-0.004,0.013-0.008,0.016-0.016c-0.208-1.664-0.076-3.422-0.275-5.111c-0.346-2.941-0.838-5.863-1.342-8.779
					c-0.711-4.102-1.488-8.19-2.329-12.266C144.336,194.906,144.148,194.908,144.158,194.947z"/>
			</g>
			<path style="fill:#422313;" d="M144.942,199.109c1.446,0.808,3.449,0.057,4.748-0.662c0.187-0.102-0.097-0.125-0.184-0.072
				c-1.191,0.656-2.972,1.354-4.303,0.607C145.127,198.941,144.831,199.045,144.942,199.109L144.942,199.109z"/>
			<path style="fill:#422313;" d="M145.805,203.596c1.161,1.346,3.463,0.162,4.563-0.568c0.138-0.092-0.18-0.068-0.247-0.023
				c-1.008,0.668-2.984,1.676-4.025,0.473C146.037,203.408,145.738,203.52,145.805,203.596L145.805,203.596z"/>
			<path style="fill:#422313;" d="M146.785,209.783c1.629,0.865,3.558,0.059,4.823-1.055c0.056-0.051-0.235-0.131-0.311-0.064
				c-1.107,0.977-2.816,1.822-4.273,1.049C146.95,209.674,146.635,209.703,146.785,209.783L146.785,209.783z"/>
			<path style="fill:#422313;" d="M147.75,216.186c1.345,0.619,3.084-0.078,4.242-0.762c0.182-0.105-0.102-0.119-0.189-0.066
				c-1.05,0.619-2.576,1.256-3.794,0.695C147.93,216.014,147.639,216.135,147.75,216.186L147.75,216.186z"/>
			<path style="fill:#422313;" d="M148.072,221.08c1.861,0.338,3.785,1.24,5.008,2.707c0.064,0.078,0.365,0.029,0.315-0.031
				c-1.258-1.51-3.241-2.439-5.157-2.791C148.145,220.951,147.865,221.043,148.072,221.08L148.072,221.08z"/>
			<path style="fill:#422313;" d="M148.258,219.236c1.334,0.764,2.991,1.018,4.477,0.631c0.216-0.057,0.031-0.145-0.105-0.111
				c-1.359,0.355-2.889,0.066-4.104-0.633C148.449,219.08,148.15,219.172,148.258,219.236L148.258,219.236z"/>
			<path style="fill:#422313;" d="M140.068,232.412c1.563-1.125,3.538-0.791,4.965,0.367c0.077,0.061,0.365-0.051,0.301-0.102
				c-1.58-1.279-3.805-1.537-5.511-0.305C139.684,232.473,140.001,232.463,140.068,232.412L140.068,232.412z"/>
			<path style="fill:#422313;" d="M141.096,226.787c2.078-1.072,4.447-0.303,6.01,1.291c0.061,0.061,0.375,0.074,0.289-0.012
				c-1.682-1.715-4.311-2.561-6.563-1.395C140.724,226.725,141.02,226.828,141.096,226.787L141.096,226.787z"/>
			<path style="fill:#422313;" d="M143.439,222.176c3.15-0.367,6.041,1.465,7.301,4.309c0.039,0.086,0.355,0.094,0.317,0.014
				c-1.337-3.01-4.465-4.846-7.767-4.459C143.082,222.064,143.34,222.186,143.439,222.176L143.439,222.176z"/>
			<path style="fill:#422313;" d="M158.066,222.635c1.639,0.779,1.943,3.051,1.844,4.633c-0.006,0.088,0.318,0.088,0.324-0.01
				c0.107-1.654-0.242-3.912-1.941-4.723C158.219,222.496,157.911,222.559,158.066,222.635L158.066,222.635z"/>
			<path style="fill:#422313;" d="M153.449,222.721c2.086,0.488,2.051,3.568,1.851,5.133c-0.015,0.102,0.3,0.037,0.311-0.051
				c0.211-1.635,0.229-4.723-1.91-5.221C153.619,222.564,153.34,222.697,153.449,222.721L153.449,222.721z"/>
			<g style="opacity:0.4;">
				<g>
					<path style="fill:#F5F5F5;" d="M164.181,224.223c-1.169-1.258-2.528-1.637-4.194-1.771c-1.621-0.131-3.259,0.08-4.735-0.764
						c-1.138-0.65-1.595-2.012-1.892-3.197c-0.768-3.088-0.844-6.5-1.252-9.648c-0.543-4.186-1.119-8.367-1.769-12.539
						c-0.464-2.979-0.801-6.15-1.797-9.012c-0.015-0.041-0.187-0.076-0.188-0.023c-0.038,2.373-1.851,4.631-3.218,6.445
						c-0.314,0.414-0.638,0.822-0.974,1.219c-0.213,0.25,0.463,2.324,0.521,2.623c0.01,0.047,0.154,0.07,0.183,0.037
						c0.857-1.092,2.357-2.135,3.695-0.74c0.559,0.582,0.839,1.412,1.033,2.174c0.533,2.096-0.406,4.08-2.328,5.021
						c-0.061,0.029,0.05,0.068,0.07,0.072c2.121,0.436,3.758,3.881,2.016,5.494c-0.021,0.02,0.021,0.043,0.035,0.049
						c1.729,0.684,2.456,5.613,0.641,6.439c-0.81,0.369,3.439,2.934,0.861,3.668c-0.01,0.002-0.031,0.006-0.032,0.02
						c-0.108,1.072,2.088,1.619,0.737,2.566c-0.006,0.004-0.008,0.012-0.005,0.02c0.58,1.068,1.216,2.867-0.987,1.813
						c-0.857-0.408-1.849-1.063-2.809-1.188c-0.014-0.002-0.094,0-0.074,0.035c0.339,0.586,0.764,0.637,0.778,1.428
						c0.027,1.547-2.009,1.998-3.145,2.098c-0.021,0.002-0.055,0.006-0.052,0.035c0.324,2.121,0.417,4.387-2.14,5.051
						c-0.008,0-0.031,0.006-0.031,0.02c-0.146,2.189,1.902,8.15-1.49,8.686c-0.053,0.008-0.025,0.047,0.009,0.063
						c2.302,0.979,3.257-1.916,3.802-3.637c0.472-1.488,0.693-3.041,1.361-4.463c1.205-2.564,4.036-3.33,6.582-3.824
						c3.045-0.596,5.418-0.219,8.043,1.438c1.016,0.641,1.952,1.383,3.198,1.244C168.066,230.795,165.121,225.432,164.181,224.223
						c-0.032-0.037-0.217-0.051-0.169,0.008c1.282,1.65,3.33,5.172,0.912,6.717c-1.477,0.943-4.91-2.244-6.584-2.631
						c-3.295-0.758-7.879,0.059-10.455,2.273c-2.818,2.42-1.772,7.004-4.381,9.582c1.926-1.904-2.613,0.734-1.197,0.158
						c0.3-0.121,0.184-0.061,0.451-0.236c0.385-0.246,0.565-0.766,0.702-1.17c0.503-1.479,0.249-3.277,0.095-4.793
						c-0.062-0.6-0.143-1.199-0.208-1.799c-0.073-0.68,0.28-0.672,0.86-0.912c1.354-0.561,1.536-2.229,1.461-3.486
						c-0.033-0.525-0.43-1.271,0.355-1.342c0.631-0.057,1.198-0.285,1.736-0.598c0.85-0.498,1.157-1.568,0.693-2.416
						c-0.291-0.535-0.307-0.41,0.439-0.084c0.861,0.375,1.702,0.902,2.602,1.178c0.672,0.207,0.955-0.186,0.917-0.844
						c-0.021-0.379-0.181-0.787-0.38-1.104c-0.567-0.9,0.369-0.285,0.38-0.605c0.04-1.184-1.898-1.393-0.769-2.516
						c0.648-0.643-0.185-1.484-0.622-2.014c-0.329-0.396-1.21-1.045-0.56-1.549c0.539-0.414,0.688-0.943,0.764-1.609
						c0.152-1.336-0.354-2.84-0.959-4.004c-0.152-0.293-0.354-0.549-0.615-0.748c0.215,0.164,0.654-1.621,0.658-1.703
						c0.07-1.162-0.783-2.623-1.688-3.314c-0.282-0.215-0.609-0.482-0.973-0.557c0.436,0.09,1.538-1.391,1.717-1.666
						c1.185-1.838,0.509-5.295-1.543-6.272c-0.627-0.297-1.623-0.033-2.131,0.365c-0.176,0.137-0.822,1.031-0.951,0.389
						c-0.094-0.479-0.191-0.957-0.289-1.436c-0.113-0.563-0.047-0.572,0.307-1.008c0.988-1.225,1.891-2.518,2.674-3.881
						c0.355-0.621,0.646-1.27,0.884-1.941c0.223-0.621-0.025-1.682,0.258-0.689c1.835,6.422,2.367,13.393,3.235,19.99
						c0.406,3.104,0.73,6.223,1.169,9.322c0.282,1.994,0.839,3.893,2.79,4.77c2.783,1.254,5.82-0.432,8.244,2.182
						C164.043,224.268,164.229,224.275,164.181,224.223z"/>
				</g>
			</g>
			<g style="opacity:0.4;">
				<path style="fill:#F5F5F5;" d="M144.988,237.146c-1.019-5.289,3.66-10.533,8.691-11.373c2.152-0.361,4.292,0.578,6.148,1.553
					c1.32,0.691,3.041,1.598,3.859,2.926c0.865,1.408-0.996-0.002-1.488-0.295c-1.479-0.881-3.141-1.82-4.883-2.016
					c-1.91-0.211-3.979,0.328-5.807,0.82c-1.73,0.465-3.549,1.051-4.439,2.701c-0.221,0.412-2.096,5.662-2.12,5.65
					c-0.053-0.025-0.222-0.014-0.109,0.041c0.546,0.27,0.767-1.029,0.862-1.32c0.631-1.877,1.019-4.525,2.76-5.715
					c2.225-1.521,5.594-2.018,8.223-2.109c2.473-0.086,5.071,1.684,7.055,3.023c0.033,0.023,0.123,0.057,0.16,0.021
					c0.646-0.633-1.003-1.854-1.342-2.125c-2.326-1.857-5.445-3.363-8.472-3.291c-5.349,0.127-10.292,6.242-9.284,11.484
					C144.813,237.174,144.999,237.205,144.988,237.146z"/>
			</g>
		</g>
		<g>
			<g>
				<path style="fill:#FFFFFF;" d="M31.565,130.029c-0.814,1.525-2.117,2.767-3.715,3.788c-0.023,0.128-2.299,12.357-0.297,20.486
					c3.141,12.766,14.451,16.797,14.451,16.797c0.607,0.837,1.227,1.65,1.856,2.441c-1.194-1.743-7.71-12.006-9.119-30.398
					C31.788,139.565,31.565,130.029,31.565,130.029z"/>
				<path d="M31.283,129.943c-0.928,1.596-2.178,2.744-3.697,3.761c-0.123,0.083-0.132,0.68-0.152,0.804
					c-0.326,1.976-0.557,3.967-0.733,5.96c-0.523,5.926-0.46,12.039,1.845,17.609c1.786,4.316,4.971,7.958,8.775,10.619
					c1.068,0.747,2.201,1.398,3.375,1.97c0.328,0.161,0.666,0.311,1.008,0.446c0.732,0.296,1.387,1.766,1.896,2.412
					c0.089,0.113,0.653,0.227,0.523,0.035c-3.732-5.477-5.88-12.134-7.347-18.529c-0.679-2.951-1.143-5.949-1.485-8.958
					c-0.143-1.255-0.006-2.458-0.722-3.505c-0.621-0.907-0.99-1.997-1.32-3.037c-0.954-2.99-1.317-6.28-1.401-9.415
					C31.842,129.921,31.278,129.817,31.283,129.943c0.062,2.431,0.358,4.872,0.838,7.256c0.346,1.72,0.855,3.425,1.703,4.968
					c1.225,2.232,1.053,5.326,1.445,7.848c1.15,7.406,3.352,14.849,7.037,21.407c0.333,0.596,0.686,1.18,1.057,1.751
					c0.061,0.093,0.123,0.186,0.184,0.276c0.035-0.161,0.069-0.324,0.104-0.487c-0.316-0.402-0.624-0.809-0.929-1.22
					c-0.286-0.382-0.472-0.676-0.68-0.754c-1.84-0.694-3.557-1.781-5.127-2.944c-3.283-2.429-5.861-5.672-7.588-9.361
					c-2.094-4.471-2.421-9.45-2.285-14.314c0.08-2.898,0.379-5.797,0.797-8.666c0.086-0.593,0.18-1.186,0.289-1.774
					c0.063-0.351,1.994-1.568,2.342-1.915c0.557-0.559,0.984-1.221,1.375-1.898C31.916,129.994,31.377,129.779,31.283,129.943z"/>
			</g>
			<g>
				<path style="fill:#FFFFFF;" d="M201.893,62.703c-2.198-3.841-5.826,7.043-5.826,7.043c2.499-12.117-3.483-19.672-5.742-13.066
					c-1.894,5.542-3.542,8.916-3.542,8.916s3.157-13.666-1.798-13.091c-7.85,0.907-13.322,16.181-13.322,16.181
					c1.848-10.766-10.285-17.405-8.676-9.054c1.607,8.352-2.73,17.43-2.73,17.43c-3.458,1.653-7.217,2.752-10.971,3.464
					c0.507-0.055,10.606-1.167,15.686-3.062c5.211-1.942,6.504,0.086,4.064,6.289c0,0,15.24-1.309,16.446,2.687
					c1.208,3.997-1.282,6.846-1.282,6.846s5.398-1.737,3.148,4.671c0,0,3.499-3.396,3.576,3.903
					c0.078,7.299-2.738,22.162-9.07,27.21c0,0,2.619-1.267,4.887-3.533c2.266-2.269-0.934,16.916-18.842,20.673
					c0,0,4.877,1.197,2.584,4.056c-2.293,2.857-14.975,8.814-23.839,4.091c0,0,2.808,3.473,0.855,7.529
					c-1.903,3.957-18.39-1.919-23.362-11.544c0.639,1.395,1.795,4.477,0.524,6.213c-1.677,2.294-13.595-4.732-17.19-12.775
					c0,0,0.308,4.471-4.576,0.984c-3.826-2.729-7.156-7.804-8.164-16.325c0,0-2.117-4.201-3.611-13.334
					c-2.526-1.292-3.91-4.147-3.91-4.147s2.926,9.788-1.061,10.798c-3.988,1.011-7.41-6.435-7.41-6.435s2.806,8.01-0.805,9.43
					c-3.611,1.421-6.863-5.424-6.863-5.424s2.799,8.205-1.454,10.781c-4.253,2.575-7.085-4.844-7.085-4.844
					s0.898,11.081-2.55,13.296c-3.448,2.218-8.274-4.696-8.274-4.696s0.309,6.52-3.055,6.768c-3.363,0.248-4.544-8.873-4.544-8.873
					s-1.13,12.373-6.665,12.724c-1.092,0.068-1.979-0.456-2.703-1.337c1.409,18.392,7.925,28.654,9.119,30.398
					c18.631,23.456,46.124,27.102,51.009,28.843c5.048,1.797,4.771,2.113,6.128,4.145c1.359,2.029,1.895,1.791,2.294-1.348
					c0.399-3.137,0.726-1.545,2.452,1.027c1.729,2.572,1.541,0.855,1.655-1.768c0.114-2.625,0.057-1.313,1.534,0.986
					c1.477,2.299,0.811,2.531,3.047-0.525c2.236-3.059,4.072-2.979,4.072-2.979c11.936,0.65,18.733-1.551,20.964-1.455
					c2.231,0.098,2.105-0.039,4.632,2.307c2.527,2.344,3.023,3.023,2.984,0.918c-0.039-2.105-1.199-5.705,0.416-3.531
					c1.615,2.174,2.213,3.512,3.229,1.324c1.017-2.191,0.986-4.561,1.529-1.906c0.541,2.652,0.656,6.074,1.91,1.396
					c1.256-4.676,4.284-7.832,4.284-7.832c31.054-24.939,45.237-60.867,48.367-87.546C207.499,78.918,204.094,66.546,201.893,62.703
					z"/>
				<path d="M202.275,62.68c-2.602-4.096-6.043,5.385-6.604,7.047c0.264,0.014,0.527,0.025,0.788,0.038
					c0.715-3.669,0.983-7.672-0.15-11.296c-0.479-1.528-1.419-4.118-3.338-4.358c-1.692-0.213-2.514,1.115-3.041,2.55
					c-1.098,2.989-2.135,6.007-3.527,8.875c0.258,0.027,0.516,0.054,0.771,0.079c0.795-3.467,3.22-14.727-3.422-13.05
					c-4.037,1.021-6.855,5.139-8.855,8.486c-1.436,2.403-2.678,4.98-3.629,7.615c0.264,0.014,0.524,0.024,0.786,0.038
					c0.632-4.15-0.583-8.363-3.682-11.266c-1.255-1.177-4.095-2.759-5.499-0.928c-1.001,1.308-0.162,3.635-0.013,5.037
					c0.343,3.228-0.177,6.532-0.964,9.657c-0.484,1.924-1.135,3.828-1.946,5.641c-0.392,0.871-3.714,1.641-4.655,1.957
					c-2.024,0.682-4.109,1.166-6.203,1.577c-0.466,0.092,0.063,0.326,0.289,0.302c3.944-0.429,7.887-1.037,11.757-1.917
					c1.113-0.252,2.218-0.551,3.308-0.897c1.341-0.426,3.317-1.521,4.682-0.674c1.828,1.137,0.026,5.2-0.487,6.541
					c-0.058,0.153,0.433,0.181,0.493,0.176c3.415-0.288,6.902-0.329,10.313,0.048c1.773,0.197,4.412,0.477,5.488,2.124
					c1.284,1.973,0.286,5.482-1.115,7.144c-0.17,0.203,0.571,0.21,0.651,0.184c3.307-1.025,3.21,2.306,2.482,4.529
					c-0.073,0.223,0.665,0.181,0.77,0.077c2.117-2.003,2.691,1.587,2.789,3.151c0.186,2.99-0.256,6.075-0.745,9.016
					c-1.064,6.409-3.011,14.444-8.251,18.792c-0.262,0.218,0.529,0.262,0.672,0.189c1.409-0.697,2.695-1.624,3.902-2.623
					c0.359-0.299,0.688-0.622,1.025-0.945c0.224-0.215-0.302-0.199-0.221-0.055c0.116,0.21,0.092,0.524,0.088,0.754
					c-0.035,2.083-0.98,4.243-1.863,6.08c-3.377,7.03-9.819,12.018-17.416,13.688c-0.225,0.051-0.254,0.21-0.012,0.273
					c1.352,0.347,3.188,1.177,2.964,2.833c-0.243,1.789-3.157,3.1-4.52,3.805c-5.755,2.964-13.24,4.307-19.209,1.282
					c-0.086-0.044-0.817-0.07-0.666,0.124c1.594,2.036,2.229,5.515,0.674,7.745c-1.305,1.872-5.352,0.515-6.997,0.003
					c-6.107-1.898-12.355-6.086-15.421-11.813c-0.103-0.191-0.86-0.174-0.762,0.048c0.539,1.22,2.406,6.507-0.379,6.47
					c-1.877-0.023-3.951-1.393-5.473-2.345c-4.137-2.585-7.974-6.275-10.052-10.734c-0.077-0.163-0.787-0.212-0.775,0.006
					c0.034,0.617-0.091,1.246-0.44,1.759c-1.23,1.795-5.238-2.311-6.109-3.285c-3.363-3.758-4.781-8.889-5.404-13.777
					c-0.059-0.468-0.446-1.035-0.616-1.471c-0.68-1.75-1.197-3.563-1.663-5.379c-0.309-1.197-0.568-2.409-0.814-3.622
					c-0.108-0.536-0.182-2.727-0.628-2.98c-1.637-0.927-2.969-2.388-3.813-4.072c-0.093-0.187-0.835-0.201-0.763,0.049
					c0.816,2.76,1.54,6.139,0.683,8.952c-1.143,3.744-5.096,0.384-6.429-1.367c-0.764-1.006-1.428-2.124-1.961-3.27
					c-0.09-0.193-0.846-0.191-0.763,0.049c0.827,2.395,1.606,5.569,0.587,8.004c-1.878,4.496-6.531-2.061-7.49-4.048
					c-0.094-0.191-0.845-0.193-0.764,0.049c0.924,2.758,1.441,6.232,0.165,8.944c-0.711,1.509-2.474,2.656-4.175,1.902
					c-0.951-0.421-1.667-1.338-2.26-2.155c-0.615-0.852-1.126-1.822-1.507-2.803c-0.068-0.175-0.792-0.202-0.775,0.006
					c0.267,3.39,0.224,6.997-0.696,10.284c-0.271,0.968-0.701,1.883-1.393,2.617c-1.421,1.508-3.434,0.209-4.697-0.779
					c-1.25-0.977-2.35-2.232-3.263-3.529c-0.096-0.133-0.785-0.232-0.775,0.007c0.081,1.992-1.278,9.481-4.36,5.547
					c-1.588-2.027-2.119-5.114-2.451-7.614c-0.029-0.227-0.766-0.265-0.787-0.037c-0.285,3.034-3.441,16.987-8.594,11.381
					c-0.1-0.107-0.797-0.247-0.775,0.006c0.711,8.795,2.615,17.567,6.406,25.571c2.89,6.106,7.693,10.886,12.824,15.196
					c11.192,9.403,24.695,14.452,38.688,17.948c2.314,0.576,4.9,1.215,6.811,2.67c1.179,0.896,1.841,3.939,3.701,3.406
					c0.987-0.283,0.95-3.086,1.079-3.783c0.177-0.957-0.065-0.383,0.125-0.111c0.263,0.375,0.485,0.785,0.724,1.18
					c0.474,0.777,0.957,1.566,1.613,2.207c1.867,1.822,1.489-4.271,1.531-4.291c-0.219-0.031-0.438-0.064-0.656-0.098
					c0.673,0.77,1.844,5.229,3.51,4.145c0.516-0.336,0.902-1.154,1.244-1.637c0.79-1.115,1.629-2.125,2.77-2.9
					c1.712-1.168,4.458-0.406,6.426-0.43c4.091-0.051,8.141-0.441,12.178-1.088c1.1-0.176,2.199-0.395,3.311-0.477
					c2.369-0.176,3.564,1.17,5.186,2.678c0.612,0.574,1.563,1.857,2.553,1.797c1.016-0.064,0.653-1.65,0.591-2.303
					c-0.085-0.885-0.27-1.754-0.362-2.637c-0.068-0.672,0.354,0.406,0.486,0.584c0.33,0.455,0.656,0.906,1.012,1.342
					c0.326,0.402,1.202,0.986,1.751,0.545c0.551-0.445,0.841-1.072,1.078-1.734c0.189-0.535,0.359-1.068,0.519-1.611
					c0.121-0.418-0.449-1.607-0.031,0.266c0.188,0.838,0.1,3.166,0.866,3.742c0.324,0.244,0.765,0.178,1.035-0.094
					c0.481-0.486,0.63-1.617,0.798-2.213c0.432-1.537,1.055-2.984,1.825-4.381c1.905-3.445,5.071-5.518,7.948-8.102
					c3.962-3.56,7.668-7.401,11.149-11.429c6.589-7.622,12.22-16.051,16.937-24.944c8.285-15.621,13.416-32.696,15.199-50.273
					c0.92-9.081,1.312-18.343,0.223-27.429C204.92,70.518,204.244,66.176,202.275,62.68c-0.113-0.201-0.871-0.146-0.763,0.048
					c2.085,3.702,2.706,8.297,3.181,12.445c1.067,9.323,0.512,18.83-0.464,28.133c-1.871,17.809-7.542,35.073-16.12,50.769
					c-5.98,10.942-13.51,21.022-22.299,29.866c-2.429,2.445-4.975,4.771-7.599,7.007c-1.528,1.303-2.86,2.313-4.017,3.941
					c-1.598,2.246-2.417,4.689-3.234,7.289c-0.086,0.328-0.222,0.633-0.406,0.912c0.355,0.111,0.448,0.047,0.28-0.189
					c-0.204-0.486-0.249-1.094-0.337-1.608c-0.157-0.922-0.189-2.068-0.66-2.892c-0.078-0.137-0.35-0.139-0.48-0.133
					c-0.544,0.02-0.569,0.531-0.704,0.99c-0.119,0.396-1.003,3.418-1.557,3.035c-0.795-0.551-1.36-1.767-1.957-2.517
					c-0.278-0.346-0.627-0.504-1.061-0.404c-0.621,0.143-0.166,1.596-0.11,1.969c0.095,0.631,0.185,1.26,0.246,1.896
					c0.02,0.281,0.028,0.563,0.021,0.848c-0.001,0.471,0.101,0.709-0.249,0.451c-1.404-1.043-2.528-2.441-3.919-3.512
					c-1.143-0.879-2.871-0.799-4.23-0.646c-2.036,0.228-4.052,0.645-6.081,0.91c-4.293,0.566-8.623,0.693-12.944,0.518
					c-1.835-0.076-3.038,0.643-4.343,1.975c-0.734,0.746-1.303,1.662-1.904,2.514c-0.418,0.59-0.225,0.836-0.584,0.233
					c-0.655-1.102-1.191-2.596-2.027-3.553c-0.139-0.158-0.47-0.172-0.652-0.1c-0.664,0.258-0.346,2.979-0.383,3.613
					c-0.032,0.549-0.268,0.586,0.084,0.795c-0.498-0.295-0.918-1.158-1.229-1.633c-0.398-0.607-0.79-1.732-1.415-2.158
					c-0.343-0.234-0.775-0.289-1.089,0.014c-0.446,0.43-0.388,1.75-0.463,2.287c-0.078,0.551-0.193,1.098-0.407,1.611
					c-0.22,0.531-0.868-0.676-1.022-0.898c-0.574-0.824-1.015-1.66-1.826-2.279c-1.301-0.992-3.072-1.479-4.592-2.006
					c-1.604-0.557-3.305-0.879-4.949-1.295c-16.206-4.076-31.41-11.459-42.828-23.939c-8.229-8.994-11.096-22.008-12.051-33.82
					c-0.258,0-0.516,0.003-0.775,0.004c2.832,3.081,6.205,0.707,7.764-2.301c1.42-2.741,2.093-6.031,2.381-9.091
					c-0.262-0.013-0.524-0.024-0.787-0.037c0.332,2.503,1.064,8.026,3.957,8.902c3.796,1.152,4.535-4.166,4.43-6.762
					c-0.259,0.002-0.518,0.006-0.776,0.008c1.622,2.297,6.111,7.357,9.262,4.567c1.946-1.725,2.178-4.946,2.357-7.356
					c0.142-1.928,0.133-3.89-0.019-5.816c-0.258,0-0.517,0.003-0.775,0.005c1.148,2.943,3.763,6.615,7.345,5.155
					c4.064-1.656,3.04-7.912,1.959-11.142c-0.256,0.016-0.51,0.032-0.764,0.049c1.32,2.735,3.983,6.645,7.516,5.523
					c3.438-1.09,1.721-7.239,0.914-9.577c-0.254,0.016-0.509,0.031-0.763,0.049c1.251,2.685,4.663,8.182,8.414,6.414
					c3.419-1.612,1.626-8.095,0.818-10.827c-0.254,0.016-0.507,0.032-0.763,0.049c0.789,1.574,2.009,2.924,3.46,3.909
					c1.042,0.708,1.101,3.786,1.361,4.969c0.276,1.252,0.593,2.5,0.955,3.729c0.45,1.531,0.941,3.058,1.583,4.519
					c0.322,0.738,0.32,1.578,0.45,2.37c0.241,1.463,0.612,2.898,1.052,4.312c1.388,4.467,4.193,8.761,8.414,10.981
					c1.859,0.979,3.891,0.352,3.763-1.972c-0.257,0-0.517,0.003-0.775,0.007c2.531,5.428,7.721,9.962,13.113,12.445
					c1.268,0.587,2.817,1.152,4.223,0.78c2.463-0.654,0.711-5.316,0.092-6.715c-0.254,0.017-0.508,0.033-0.762,0.048
					c3.395,6.341,10.777,11.041,17.715,12.547c1.79,0.388,4.346,0.861,5.933-0.374c2.267-1.762,1.11-6.304-0.378-8.207
					c-0.223,0.042-0.443,0.083-0.666,0.124c6.839,3.465,15.523,1.644,21.885-2.079c1.717-1.003,4.581-3.086,2.396-5.085
					c-0.654-0.597-1.59-0.933-2.426-1.178c1.276,0.374,3.914-0.897,5.346-1.528c5.873-2.595,10.479-7.622,12.951-13.501
					c0.184-0.439,2.43-7.228,0.021-5.752c-1.066,0.653-1.953,1.726-3.004,2.454c-0.639,0.44-1.316,0.847-2.012,1.19
					c0.226,0.063,0.449,0.127,0.672,0.189c2.895-2.399,4.568-5.889,5.866-9.344c1.616-4.297,2.538-8.885,3.026-13.441
					c0.206-1.919,0.301-3.856,0.181-5.783c-0.063-1.021-0.257-2.742-1.28-3.32c-1.016-0.572-2.22-0.129-3.013,0.623
					c0.257,0.025,0.515,0.051,0.771,0.077c0.496-1.509,1.217-4.257-0.918-4.885c-0.937-0.275-1.967-0.218-2.898,0.07
					c0.219,0.062,0.436,0.122,0.652,0.185c1.599-1.896,2.063-4.823,1.216-7.125c-0.595-1.616-3.21-2.065-4.638-2.338
					c-3.957-0.756-8.213-0.624-12.215-0.286c0.162,0.058,0.326,0.118,0.49,0.176c0.678-1.772,2.459-5.832-0.1-6.964
					c-2.255-0.999-5.468,0.881-7.602,1.431c-3.499,0.903-7.105,1.44-10.686,1.905c-0.527,0.069-1.056,0.133-1.586,0.194
					c-0.465,0.053-0.453,0.425,0.725,0.193c0.705-0.139,1.408-0.304,2.107-0.471c2.605-0.619,5.142-1.491,7.588-2.571
					c1.744-0.769,2.211-4.094,2.673-5.74c0.638-2.269,1.017-4.602,1.157-6.953c0.136-2.238-0.418-4.351-0.475-6.56
					c-0.101-3.993,4.029-1.258,5.377,0.285c2.418,2.769,3.203,6.578,2.66,10.144c-0.033,0.218,0.71,0.252,0.786,0.038
					c1.94-5.379,5.053-11.594,9.921-14.837c1.586-1.055,3.965-1.969,4.908,0.215c0.617,1.431,0.53,3.215,0.463,4.734
					c-0.1,2.265-0.453,4.553-0.959,6.761c-0.044,0.197,0.688,0.25,0.771,0.079c0.711-1.466,1.32-2.98,1.92-4.493
					c0.457-1.155,1.78-7.481,3.883-6.688c1.816,0.687,2.546,3.708,2.9,5.318c0.715,3.255,0.44,6.693-0.191,9.933
					c-0.038,0.207,0.714,0.261,0.788,0.038c0.42-1.248,0.917-2.472,1.46-3.67c0.432-0.956,2.363-5.302,3.593-3.367
					C201.639,62.927,202.389,62.857,202.275,62.68z"/>
			</g>
		</g>
		<g>
			<path style="fill:#FFFFFF;" d="M31.565,130.029c0,0,0.343,14.803,5.879,14.452c5.535-0.351,6.665-12.724,6.665-12.724
				s1.181,9.121,4.544,8.873c3.363-0.248,3.055-6.768,3.055-6.768s4.826,6.914,8.274,4.696c3.448-2.215,2.55-13.296,2.55-13.296
				s2.832,7.419,7.085,4.844c4.253-2.576,1.454-10.781,1.454-10.781s3.252,6.845,6.863,5.424c3.61-1.42,0.805-9.43,0.805-9.43
				s3.422,7.445,7.41,6.435c3.986-1.01,1.061-10.798,1.061-10.798s1.384,2.855,3.91,4.147c-0.26-1.587-0.502-3.304-0.71-5.191
				c-2.19-19.934,5.368-34.477,23.072-31.018c-13.779-4.661-26.458-17.178-36.78-30.112C64.287,33.229,42.32,23.232,27.328,36.975
				c-16.326,14.966-7,38.539-7,38.539s3.304,10.2,6.684,23.164c3.381,12.963-0.11,27.509-2.601,32.618
				c-2.164,4.44,3.44,2.515,3.44,2.515s-0.001,0.005-0.001,0.007C29.447,132.796,30.751,131.555,31.565,130.029z"/>
			<path d="M31.197,129.925c0.063,2.526,0.376,5.068,0.9,7.536c0.547,2.563,1.506,6.059,4.262,7.049
				c5.841,2.095,7.771-8.957,8.115-12.604c-0.244-0.085-0.489-0.168-0.732-0.251c0.353,2.668,1.037,7.614,3.836,8.897
				c3.776,1.733,4.6-4.105,4.496-6.586c-0.238-0.052-0.475-0.105-0.712-0.156c1.712,2.424,6.166,7.439,9.399,4.576
				c1.811-1.602,2.019-4.98,2.154-7.202c0.12-1.933,0.135-3.885-0.018-5.817c-0.244-0.068-0.49-0.139-0.734-0.207
				c1.065,2.738,3.522,6.476,6.957,5.517c4.451-1.24,3.389-8.05,2.317-11.25c-0.237-0.051-0.475-0.104-0.713-0.155
				c1.252,2.596,3.765,6.369,7.12,5.798c3.837-0.655,2.049-7.36,1.259-9.646c-0.237-0.053-0.474-0.106-0.712-0.157
				c1.339,2.871,4.473,7.834,8.326,6.597c3.521-1.13,1.563-8.413,0.857-10.804c-0.238-0.053-0.475-0.105-0.712-0.158
				c0.903,1.807,2.351,3.312,4.1,4.304c0.065,0.038,0.558,0.222,0.521,0.002c-1.442-8.99-2.068-18.901,2.115-27.298
				c3.877-7.782,11.812-10.343,20.012-8.814c0.409,0.076,0.141-0.273-0.072-0.346c-10.968-3.802-20.035-11.637-27.9-19.949
				c-3.838-4.058-7.177-8.524-10.903-12.674c-3.135-3.49-6.755-6.545-10.671-9.122c-6.772-4.456-14.888-7.357-23.07-6.598
				c-9.004,0.834-16.543,7.123-20.5,15.028c-4.993,9.972-3.324,21.106-0.122,31.273c1.14,3.619,2.218,7.256,3.267,10.9
				c1.61,5.604,3.435,11.266,4.109,17.073c0.645,5.523,0.241,11.168-0.76,16.624c-0.692,3.77-2.002,7.135-3.295,10.699
				c-1.035,2.855,2.865,2.537,4.44,2.009c-0.218-0.117-0.434-0.234-0.65-0.351c0,0.003,0,0.005,0,0.005
				c-0.04,0.235,0.534,0.442,0.701,0.33c1.542-1.029,2.809-2.212,3.743-3.82c0.102-0.177-0.607-0.508-0.731-0.297
				c-0.922,1.588-2.175,2.744-3.685,3.754c0.233,0.109,0.467,0.221,0.701,0.331c0-0.002,0.002-0.006,0.002-0.006
				c0.037-0.229-0.484-0.406-0.65-0.35c-0.715,0.239-1.466,0.388-2.217,0.408c-2.264,0.063-0.145-3.495,0.223-4.45
				c1.555-4.054,2.363-8.422,2.851-12.72c0.608-5.338,0.465-10.771-0.574-16.044c-1.089-5.539-2.883-11.017-4.475-16.429
				c-1.084-3.691-2.331-7.333-3.427-11.017c-1.861-6.256-2.446-12.985-1.354-19.433c1.551-9.156,7.45-17.497,16.013-21.318
				c9.423-4.204,20.192-1.011,28.505,4.188c9.207,5.761,15.076,14.757,22.409,22.509c7.161,7.565,15.392,14.523,25.047,18.654
				c0.563,0.239,1.136,0.458,1.71,0.674c1.242,0.472,0.102-0.113-0.465-0.198c-0.992-0.15-1.994-0.217-2.997-0.252
				c-2.042-0.07-4.091,0.198-6.052,0.771c-3.6,1.051-6.543,3.474-8.644,6.529c-5.759,8.371-4.89,20.034-3.368,29.516
				c0.174,0.001,0.348,0.002,0.521,0.002c-1.602-0.906-2.897-2.345-3.719-3.99c-0.078-0.152-0.777-0.373-0.714-0.159
				c0.813,2.757,1.552,6.142,0.694,8.951c-0.257,0.845-0.832,1.48-1.672,1.749c-1.859,0.598-3.55-1.309-4.57-2.581
				c-0.874-1.089-1.621-2.331-2.211-3.597c-0.078-0.169-0.779-0.354-0.711-0.157c0.816,2.365,1.497,5.289,0.715,7.731
				c-0.282,0.888-0.945,1.443-1.811,1.717c-1.713,0.543-3.262-1.363-4.16-2.521c-0.658-0.85-1.232-1.798-1.7-2.766
				c-0.078-0.163-0.779-0.358-0.712-0.158c0.9,2.685,1.375,5.933,0.331,8.627c-0.399,1.032-1.195,1.774-2.149,2.289
				c-1.729,0.932-3.286-0.435-4.288-1.724c-0.705-0.905-1.282-1.977-1.699-3.047c-0.065-0.169-0.756-0.479-0.734-0.207
				c0.272,3.487,0.248,7.245-0.809,10.601c-0.92,2.922-3.206,3.745-5.798,1.865c-1.358-0.988-2.54-2.342-3.507-3.711
				c-0.076-0.108-0.723-0.44-0.711-0.155c0.044,1.085-0.061,2.177-0.266,3.245c-0.338,1.785-2.12,5.063-4.157,2.464
				c-1.573-2.008-2.111-5.128-2.44-7.608c-0.025-0.188-0.715-0.442-0.733-0.251c-0.188,1.981-0.6,3.957-1.148,5.867
				c-0.707,2.468-2.806,7.929-6.353,6.654c-2.676-0.958-3.353-5.895-3.749-8.25c-0.318-1.893-0.513-3.828-0.562-5.748
				C31.927,129.915,31.19,129.679,31.197,129.925z"/>
		</g>
		<g>
			<g>
				<g>
					<path style="fill:#FFFFFF;" d="M54.285,8.768c-9.395-1.593-11.756,7.375-11.756,7.375s-4.381-8.077-11.801-5.245
						c-8.313,3.175-4.115,13.032-4.115,13.032c-5.811-2.421-10.447,4.476-5.536,9.422c4.444,4.476,8.359,7.265,8.359,7.265
						s4.376-9.74,14.437-10.021c11.055-0.308,17.892,5.707,17.892,5.707l0.788,0.034C67.9,26.711,65.551,10.676,54.285,8.768z"/>
					<path d="M54.48,8.626c-5.518-0.824-10.827,1.923-12.346,7.528c0.258-0.022,0.516-0.043,0.773-0.062
						c-2.707-4.908-8.211-7.333-13.416-4.877c-4.86,2.29-5.102,8.369-3.258,12.768c0.219-0.057,0.437-0.116,0.654-0.173
						c-4.096-1.535-8.645,0.917-8.229,5.651c0.275,3.143,3.465,5.394,5.613,7.317c1.542,1.377,3.144,2.72,4.827,3.925
						c0.134,0.098,0.632,0.133,0.719-0.057c2.492-5.474,8.015-9.619,14.058-9.895C48.9,30.524,54,31.896,58.377,34.33
						c1.378,0.767,2.481,2.093,4.074,2.162c0.127,0.005,0.406,0.016,0.482-0.123C67.822,27.317,66.703,10.925,54.48,8.626
						c-0.232-0.043-0.891,0.188-0.389,0.282c7.539,1.419,10.656,9.025,10.803,15.973c0.078,3.658-0.727,7.349-2.314,10.642
						c-0.393,0.821-0.326,0.786-1.035,0.247c-0.886-0.675-1.842-1.254-2.814-1.795c-5.838-3.251-13.748-4.858-20.152-2.476
						c-4.063,1.512-7.726,5.143-9.522,9.084c0.239-0.018,0.479-0.037,0.72-0.056c-3.117-2.234-6.098-4.842-8.707-7.645
						c-3.701-3.979-0.467-10.983,5.27-8.834c0.112,0.042,0.759,0.079,0.654-0.169c-1.496-3.572-1.68-8.303,1.234-11.189
						c4.615-4.574,11.24-1.36,13.924,3.506c0.104,0.188,0.715,0.149,0.773-0.064c1.358-5.018,6.06-7.988,11.169-7.225
						C54.322,8.942,54.982,8.701,54.48,8.626z"/>
				</g>
				<g>
					<path d="M54.48,8.626c-5.518-0.824-10.827,1.923-12.346,7.528c0.258-0.022,0.516-0.043,0.773-0.062
						c-2.707-4.908-8.211-7.333-13.416-4.877c-4.86,2.29-5.102,8.369-3.258,12.768c0.219-0.057,0.437-0.116,0.654-0.173
						c-4.096-1.535-8.645,0.917-8.229,5.651c0.275,3.143,3.465,5.394,5.613,7.317c1.542,1.377,3.144,2.72,4.827,3.925
						c0.134,0.098,0.632,0.133,0.719-0.057c2.492-5.474,8.015-9.619,14.058-9.895C48.9,30.524,54,31.896,58.377,34.33
						c1.378,0.767,2.481,2.093,4.074,2.162c0.127,0.005,0.406,0.016,0.482-0.123C67.822,27.317,66.703,10.925,54.48,8.626
						c-0.232-0.043-0.891,0.188-0.389,0.282c7.539,1.419,10.656,9.025,10.803,15.973c0.078,3.658-0.727,7.349-2.314,10.642
						c-0.393,0.821-0.326,0.786-1.035,0.247c-0.886-0.675-1.842-1.254-2.814-1.795c-5.838-3.251-13.748-4.858-20.152-2.476
						c-4.063,1.512-7.726,5.143-9.522,9.084c0.239-0.018,0.479-0.037,0.72-0.056c-3.117-2.234-6.098-4.842-8.707-7.645
						c-3.701-3.979-0.467-10.983,5.27-8.834c0.112,0.042,0.759,0.079,0.654-0.169c-1.496-3.572-1.68-8.303,1.234-11.189
						c4.615-4.574,11.24-1.36,13.924,3.506c0.104,0.188,0.715,0.149,0.773-0.064c1.358-5.018,6.06-7.988,11.169-7.225
						C54.322,8.942,54.982,8.701,54.48,8.626z"/>
				</g>
			</g>
		</g>
		<g>
			<g>
				<g>
					<path d="M37.578,48.023c0.039-0.79,0.294-1.584,0.678-2.271c1.21-2.169,3.869-1.971,5.933-1.379
						c0.424,0.124,0.976-0.687,0.507-0.822c-2.329-0.672-4.889-0.747-6.598,1.225c-0.791,0.91-1.289,2.225-1.35,3.431
						C36.717,48.815,37.555,48.469,37.578,48.023L37.578,48.023z"/>
				</g>
				<g>
					<path d="M24.31,51.523c-1.019-2.516-3.767-2.609-5.898-1.517c-0.422,0.218-0.472,1.064,0.104,0.769
						c1.863-0.957,4.142-0.836,5.02,1.323C23.719,52.557,24.478,51.934,24.31,51.523L24.31,51.523z"/>
				</g>
			</g>
			<g>
				<path style="fill:#FFFFFF;" d="M55.363,57.563c1.566,6.697-1.274,13.089-6.344,14.273c-5.069,1.186-10.447-3.285-12.014-9.984
					c-1.565-6.697,1.275-13.09,6.345-14.274C48.42,46.394,53.799,50.864,55.363,57.563z"/>
				<g>
					<path d="M54.987,57.496c1.059,4.954,0.087,11.22-4.906,13.702c-6.233,3.099-11.392-4.121-12.698-9.278
						c-1.238-4.887,0.038-11.283,4.906-13.703C48.523,45.119,53.681,52.337,54.987,57.496c0.057,0.223,0.808,0.351,0.752,0.135
						c-1.268-5.004-5.396-10.823-11.237-10.424c-7.17,0.491-9.131,8.689-7.873,14.578c1.075,5.031,5.53,10.813,11.239,10.424
						c7.171-0.491,9.13-8.688,7.871-14.578C55.691,57.407,54.938,57.27,54.987,57.496z"/>
				</g>
			</g>
			<g>
				
					<radialGradient id="SVGID_1_" cx="2.0134" cy="48.5383" r="12.6142" fx="5.6082" fy="52.3872" gradientTransform="matrix(0.9932 0.1161 -0.1161 0.9932 19.1429 15.4607)" gradientUnits="userSpaceOnUse">
					<stop  offset="0" style="stop-color:#FFFFFF"/>
					<stop  offset="0.5115" style="stop-color:#FDFDFD"/>
					<stop  offset="0.7081" style="stop-color:#F6F7F6"/>
					<stop  offset="0.8501" style="stop-color:#EBEBEA"/>
					<stop  offset="0.9656" style="stop-color:#DADBD9"/>
					<stop  offset="0.992" style="stop-color:#D5D6D4"/>
				</radialGradient>
				<path style="fill:url(#SVGID_1_);" d="M27.965,62.196c0.783,4.928-1.605,9.402-5.334,9.996c-3.729,0.593-7.387-2.921-8.17-7.849
					c-0.785-4.928,1.604-9.403,5.333-9.997C23.523,53.754,27.18,57.269,27.965,62.196z"/>
				<g>
					<path d="M27.695,62.128c0.508,3.639-0.521,8.121-4.263,9.658c-4.671,1.916-8.026-3.575-8.704-7.374
						c-0.642-3.601,0.615-8.16,4.264-9.657C23.663,52.839,27.02,58.329,27.695,62.128c0.027,0.165,0.567,0.298,0.538,0.137
						c-0.657-3.684-3.341-8.11-7.588-8.125c-5.212-0.021-7.057,5.809-6.454,10.135c0.516,3.697,3.438,8.111,7.587,8.127
						c5.214,0.018,7.06-5.811,6.455-10.137C28.211,62.102,27.672,61.961,27.695,62.128z"/>
				</g>
			</g>
		</g>
		<g>
			<path style="fill:#000100;" d="M54.388,57.818c1.012,5.017-0.821,9.563-4.095,10.155c-3.276,0.593-6.75-2.991-7.763-8.009
				c-1.013-5.013,0.821-9.561,4.097-10.152C49.9,49.219,53.376,52.803,54.388,57.818z"/>
			<path style="fill:#FFFFFF;" d="M51.461,54.429c0.53,1.738-0.038,3.434-1.271,3.782c-1.232,0.352-2.662-0.774-3.195-2.516
				c-0.531-1.739,0.037-3.435,1.271-3.783C49.497,51.561,50.928,52.687,51.461,54.429z"/>
		</g>
		<g>
			<path style="fill:#000100;" d="M26.914,62.721c0.791,3.919-0.642,7.471-3.199,7.934c-2.559,0.463-5.273-2.337-6.064-6.258
				c-0.791-3.916,0.642-7.47,3.2-7.931C23.409,56.002,26.124,58.801,26.914,62.721z"/>
			<path style="fill:#FFFFFF;" d="M24.627,60.072c0.415,1.358-0.029,2.682-0.992,2.955c-0.963,0.274-2.08-0.605-2.498-1.965
				c-0.414-1.36,0.029-2.685,0.994-2.956C23.094,57.831,24.211,58.71,24.627,60.072z"/>
		</g>
		<g>
			<g>
				<path d="M124.52,150.332c-0.113-0.245-0.229-0.489-0.357-0.726c-0.104-0.193-0.863-0.197-0.765,0.016
					c0.112,0.246,0.233,0.486,0.357,0.726C123.861,150.556,124.62,150.528,124.52,150.332c-0.124-0.239-0.245-0.48-0.357-0.726
					c-0.255,0.006-0.51,0.01-0.765,0.016c0.13,0.238,0.245,0.483,0.357,0.726C123.852,150.556,124.615,150.539,124.52,150.332z"/>
			</g>
			<g>
				<g>
					<path style="fill:#FFFFFF;" d="M90.409,109.912c1.401,12.765,4.321,18.525,4.321,18.525c1.008,8.521,4.338,13.596,8.164,16.325
						c4.884,3.486,4.576-0.984,4.576-0.984c3.596,8.043,15.514,15.069,17.19,12.775c1.271-1.736,0.114-4.818-0.524-6.213
						c-0.125-0.242-0.247-0.48-0.355-0.727c0,0,0.15,0.277,0.355,0.727c4.973,9.625,21.459,15.501,23.362,11.544
						c1.952-4.057-0.855-7.529-0.855-7.529c8.864,4.724,21.546-1.233,23.839-4.091c2.293-2.858-2.584-4.056-2.584-4.056
						c17.908-3.757,21.107-22.941,18.842-20.673c-2.268,2.267-4.887,3.533-4.887,3.533c6.332-5.048,9.148-19.911,9.07-27.21
						c-0.077-7.299-3.576-3.903-3.576-3.903c2.25-6.408-3.148-4.671-3.148-4.671s2.49-2.849,1.282-6.846
						c-1.206-3.995-16.446-2.687-16.446-2.687c2.439-6.203,1.146-8.231-4.064-6.289c-5.079,1.895-15.179,3.007-15.686,3.062
						c-13.066,2.479-26.062,0.25-26.062,0.25c-3.296-0.144-6.548-0.802-9.742-1.881C95.777,75.436,88.219,89.979,90.409,109.912z"/>
					<path d="M90.115,109.892c0.602,5.313,1.512,10.628,3.211,15.711c0.303,0.906,0.635,1.805,1.033,2.67
						c0.374,0.813,0.333,1.973,0.496,2.858c0.262,1.423,0.652,2.822,1.111,4.195c1.428,4.27,4.352,8.727,8.617,10.593
						c1.781,0.781,3.289-0.154,3.182-2.119c-0.193-0.003-0.388-0.007-0.581-0.01c2.564,5.499,7.894,10.177,13.423,12.577
						c1.012,0.438,2.852,1.189,3.949,0.555c2.309-1.337,0.309-5.635-0.49-7.317c-0.191,0.007-0.381,0.013-0.573,0.02
						c3.444,6.606,10.427,11.45,17.644,13.161c1.833,0.435,4.531,1.017,6.179-0.267c2.256-1.754,1.092-6.285-0.387-8.175
						c-0.166,0.026-0.333,0.054-0.501,0.077c6.796,3.445,15.407,1.635,21.728-2.064c1.701-0.994,4.568-3.063,2.398-5.048
						c-0.643-0.587-1.564-0.922-2.387-1.163c1.086,0.319,3.671-0.861,4.92-1.414c6.044-2.668,10.773-7.577,13.33-13.659
						c0.146-0.351,2.314-7.022,0.202-5.727c-1.76,1.076-3.112,2.701-5.016,3.643c0.178,0.045,0.354,0.088,0.532,0.132
						c3.001-2.49,4.697-6.193,5.998-9.786c1.503-4.156,2.379-8.564,2.85-12.954c0.204-1.918,0.299-3.855,0.179-5.783
						c-0.062-1.004-0.245-2.726-1.25-3.293c-0.968-0.547-2.091-0.116-2.847,0.6c0.191,0.024,0.385,0.048,0.576,0.074
						c0.478-1.459,1.23-4.236-0.87-4.852c-0.898-0.264-1.882-0.218-2.776,0.06c0.162,0.05,0.324,0.1,0.483,0.149
						c1.474-1.746,2.64-5.818,0.842-7.668c-1.583-1.629-4.408-1.847-6.53-2.057c-2.807-0.276-5.656-0.223-8.47-0.069
						c-0.353,0.019-0.704,0.041-1.055,0.067c-0.673,0.049,0.326-0.531,0.489-0.984c0.521-1.456,1.07-3.219,0.57-4.752
						c-0.704-2.167-4.212-0.988-5.559-0.508c-3.91,1.396-8.094,2.03-12.193,2.612c-8.955,1.27-17.732,2.046-26.769,1.028
						c-1.568-0.177-3.116-0.355-4.686-0.511c-3.644-0.36-7.013-1.807-10.649-2.146c-4.294-0.4-8.659,0.472-12.211,2.978
						C89.596,87.441,89.116,100.421,90.115,109.892c0.018,0.185,0.604,0.188,0.588,0.042c-0.854-8.115-0.563-17.21,4.063-24.25
						c1.938-2.95,4.771-5.151,8.101-6.308c1.852-0.642,3.82-0.858,5.77-0.874c2.883-0.021,5.43,0.862,8.201,1.49
						c3.053,0.694,6.201,0.94,9.31,1.291c4.519,0.509,9.081,0.633,13.624,0.446c4.02-0.166,7.965-0.854,11.946-1.371
						c3.811-0.496,7.631-1.118,11.344-2.122c1.679-0.454,5.349-2.488,6.587-0.567c1.031,1.599-0.332,4.559-0.908,6.063
						c-0.043,0.113,0.319,0.146,0.366,0.142c3.333-0.282,6.729-0.314,10.056,0.011c1.869,0.185,4.734,0.445,5.867,2.185
						c1.291,1.977,0.293,5.496-1.111,7.163c-0.127,0.152,0.418,0.171,0.482,0.15c3.396-1.053,3.423,2.197,2.651,4.553
						c-0.053,0.166,0.496,0.151,0.577,0.074c2.447-2.317,2.959,2.227,2.999,3.829c0.081,2.948-0.343,5.944-0.847,8.841
						c-1.1,6.3-3.063,14.069-8.209,18.338c-0.127,0.104,0.433,0.178,0.533,0.13c1.217-0.602,2.395-1.377,3.439-2.242
						c0.512-0.423,0.998-0.857,1.479-1.317c0.266-0.257,0.066,0.051-0.063-0.115c0.137,0.175,0.121,0.479,0.123,0.688
						c0.036,2.006-0.903,4.16-1.727,5.933c-3.346,7.186-9.885,12.305-17.601,14.003c-0.162,0.036-0.203,0.154-0.015,0.202
						c1.367,0.352,3.242,1.186,3.015,2.866c-0.247,1.806-3.157,3.114-4.535,3.824c-5.794,2.985-13.353,4.345-19.362,1.297
						c-0.064-0.032-0.615-0.065-0.502,0.08c1.563,1.998,2.371,5.808,0.559,7.9c-1.551,1.788-5.635,0.354-7.412-0.229
						c-6.395-2.1-12.305-6.425-15.438-12.434c-0.078-0.15-0.647-0.136-0.573,0.02c0.809,1.71,2.636,5.486,0.701,7.061
						c-1.276,1.038-4.551-1.092-5.655-1.734c-4.438-2.574-8.598-6.499-10.781-11.185c-0.059-0.121-0.592-0.172-0.582-0.01
						c0.034,0.618-0.092,1.252-0.444,1.768c-1.354,1.979-5.687-2.558-6.585-3.615c-3.168-3.727-4.517-8.7-5.121-13.452
						c-0.169-1.313-1.141-2.872-1.535-4.15c-1.447-4.667-2.236-9.53-2.787-14.374C90.683,109.748,90.098,109.746,90.115,109.892z"/>
				</g>
				<g>
					<path d="M184.773,93.099c-3.465-0.107-6.867,1.585-9.904,3.091c-2.259,1.12-4.443,2.634-5.889,4.703
						c2.186-2.422,5.4-4.011,8.631-5.142c2.401-0.942,4.888-1.685,7.123-2.459C184.799,93.271,184.894,93.102,184.773,93.099z"/>
					<path d="M188.098,96.071c0.008-0.235-0.004-0.471-0.064-0.702c-0.037-0.142-0.241,0.048-0.242,0.135
						c-0.003,0.141-0.024,0.285-0.046,0.431c-0.105-0.006-0.195,0.016-0.211,0.079c-0.219,0.896-0.516,1.778-0.847,2.651
						c-0.226,0.443-0.444,0.871-0.61,1.257c-0.625,1.455-1.36,2.848-2.231,4.165c-0.181,0.264-0.354,0.531-0.544,0.788
						c-0.194,0.264-0.395,0.523-0.606,0.775c-0.036,0.045-0.073,0.09-0.109,0.135c-0.331,0.386-0.697,0.745-1.063,1.104
						c-1.047,1.322-2.27,2.526-3.615,3.479c0.819-0.335,1.591-0.741,2.313-1.225c1.73-1.377,3.266-3.022,4.475-4.739
						c1.115-1.586,1.903-3.442,2.48-5.284c0.284-0.906,0.84-1.919,0.918-2.917c0.006-0.023,0.015-0.047,0.02-0.071
						C188.119,96.111,188.111,96.091,188.098,96.071z"/>
					<path d="M107.744,144.147c0.047-0.051,0.079-0.115,0.055-0.163c-2.536-5.018-4.872-10.049-5.403-15.723
						c-0.017-0.184-0.273-0.023-0.29,0.092c-0.175,1.255-0.158,2.532-0.002,3.809c0,0-0.002,0.002-0.001,0.003
						c0.001,0.001,0.001,0.002,0.001,0.004c0.471,3.824,2.268,7.624,4.469,10.719c0.221,0.443,0.432,0.892,0.658,1.33
						c0.082,0.16,0.641,0.181,0.572,0.047C107.782,144.226,107.764,144.186,107.744,144.147z"/>
					<path d="M126.449,136.375c-0.717-0.568-1.422-1.162-2.109-1.776c0-0.019-0.009-0.037-0.035-0.057
						c-0.074-0.054-0.143-0.117-0.217-0.172c-4.166-3.78-7.626-8.435-8.535-14.104c-0.03-0.187-0.267-0.001-0.273,0.119
						c-0.336,6.875,5.104,13.311,10.963,16.239C126.352,136.679,126.559,136.462,126.449,136.375z"/>
					<path d="M98.408,103.439c0.084-0.133-0.074-0.158-0.15-0.063c-2.982,3.774-4.455,7.998-4.81,12.759
						c-0.339,4.541-0.11,9.438,1.326,13.787c0.052,0.158,0.306-0.044,0.291-0.162c-0.026-0.212-0.05-0.422-0.076-0.634
						c0.104,0.006,0.193-0.01,0.179-0.078c-1.389-6.573-1.592-13.94,0.699-20.342C96.514,106.899,97.381,105.063,98.408,103.439z"/>
				</g>
			</g>
		</g>
		<g>
			<g>
				<path style="fill:#FFFFFF;" d="M45.148,76.067c0,0-2.488-8.635-13.029-8.716C21.082,67.266,12.65,77.547,12.243,93.697
					c-0.382,15.195,2.739,9.583,2.739,9.583s0.328,1.494,1.963,0.186c1.634-1.31,11.359-5.028,18.709-6.285
					C43.004,95.922,53.104,88.113,45.148,76.067z"/>
				<path d="M45.541,76.037c-1.291-4.366-5.539-7.662-9.898-8.495c-6.846-1.304-13.347,1.324-17.688,6.699
					c-5.73,7.096-6.66,17.235-5.996,25.987c0.074,0.979,0.102,3.92,1.51,4.197c0.723,0.142,1.292-0.285,1.699-0.834
					c0.072-0.097,0.137-0.196,0.195-0.299c-0.26,0.006-0.517,0.013-0.774,0.02c0.201,0.741,0.957,1,1.658,0.776
					c1.467-0.468,2.902-1.617,4.357-2.231c2.694-1.14,5.484-2.061,8.284-2.892c2.684-0.798,5.443-1.192,8.135-1.914
					c3.912-1.05,7.514-3.32,9.745-6.749c2.983-4.583,1.493-10.02-1.245-14.306c-0.119-0.19-0.875-0.054-0.749,0.143
					c2.616,4.097,3.937,8.799,1.682,13.354c-1.81,3.652-5.657,6.091-9.457,7.214c-2.009,0.593-4.132,0.845-6.165,1.364
					c-2.326,0.594-4.619,1.323-6.887,2.111c-1.717,0.6-3.416,1.259-5.076,2c-0.543,0.24-3.246,1.988-3.497,1.068
					c-0.063-0.229-0.678-0.153-0.774,0.018c-0.123,0.221-0.619,0.909-0.76,0.836c-1.287-0.652-1.129-4.25-1.183-5.338
					c-0.396-7.903,0.573-16.219,4.964-22.985c4.023-6.198,11.229-9.637,18.544-7.714c3.804,0.999,7.45,4.179,8.592,8.031
					C44.828,76.34,45.596,76.218,45.541,76.037z"/>
			</g>
			<path d="M15.367,103.357c0.374-1.206,1.285-2.3,2.08-3.246c2.903-3.454,6.885-5.963,10.781-8.128
				c4.32-2.397,8.857-4.526,12.777-7.565c2.889-2.235,4.969-5.199,4.454-8.977c-0.028-0.209-0.796-0.322-0.761-0.067
				c0.598,4.402-2.458,7.457-5.781,9.823c-4.339,3.092-9.305,5.224-13.861,7.96c-3.146,1.891-6.174,4.148-8.546,6.972
				c-0.741,0.882-1.569,1.95-1.915,3.075C14.533,103.403,15.297,103.587,15.367,103.357L15.367,103.357z"/>
		</g>
	</g>
</g>
</svg>
