<?xml version="1.0" encoding="utf-8"?>
<!-- Generator: Adobe Illustrator 27.5.0, SVG Export Plug-In . SVG Version: 6.00 Build 0)  -->
<svg version="1.1" id="Layer_1" xmlns="http://www.w3.org/2000/svg" xmlns:xlink="http://www.w3.org/1999/xlink" x="0px" y="0px"
	 viewBox="0 0 2599 1733" style="enable-background:new 0 0 2599 1733;" xml:space="preserve">
<g>
	<rect style="fill:#FDE6DB;" width="2598.076" height="1732.051"/>
	<g>
		<g>
			<g>
				<path style="fill:#FE3E33;" d="M2014.177,1161.288c-2.179-112.59-25.552-226.837-74.434-336.683
					c-50.668-113.727-130.531-228.08-253.816-315.047c-64.552-45.487-142.566-83.449-231.247-102.477
					c-93.696-20.057-203.73-17.882-309.046,18.208c-57.513,19.738-114.419,49.511-166.837,88.828
					c-56.11,42.114-107.228,95.197-150.041,157.19c-45.416,65.807-81.104,140.955-104.89,222.174
					c-24.604,84.112-36.041,173.174-33.601,263.177c-51.194,0.395-105.19,0.811-162.224,1.251
					c-2.718-104.442,12.043-207.684,43.167-304.394c30.001-93.115,74.675-178.406,130.757-251.756
					c52.684-68.855,115.045-126.528,182.405-170.819c62.828-41.282,130.23-71.029,197.274-89.263
					c122.831-33.349,247.214-27.994,351.387-0.216c98.072,26.198,182.54,71.529,251.961,123.716
					c130.874,98.484,214.175,222.061,266.749,343.243c50.291,116.055,74.298,235.728,76.634,353.43
					C2023.716,1161.664,2018.984,1161.478,2014.177,1161.288z"/>
				<path style="fill:#FFA400;" d="M1999.275,1160.7c-2.02-107.23-24.69-215.809-72.007-319.264
					c-48.62-106.175-124.88-211.382-240.404-287.414c-59.747-39.276-131.477-70.557-211.242-83.46
					c-83.986-13.544-180.836-5.504-270.976,31.837c-101.583,42.154-197.01,122.223-264.723,229.886
					c-75.59,120.352-115.167,269.059-110.862,423.303c-43.984,0.339-90.192,0.695-138.798,1.07
					c-2.44-90.003,8.997-179.065,33.601-263.177c23.786-81.219,59.474-156.367,104.89-222.174
					c42.813-61.993,93.931-115.076,150.041-157.19c52.418-39.316,109.324-69.09,166.837-88.828
					c105.316-36.089,215.35-38.264,309.046-18.208c88.682,19.027,166.695,56.99,231.247,102.477
					c123.285,86.968,203.148,201.32,253.816,315.047c48.882,109.846,72.255,224.093,74.434,336.683
					C2009.29,1161.095,2004.324,1160.899,1999.275,1160.7z"/>
				<path style="fill:#FFE300;" d="M1983.614,1160.083c-1.858-101.599-23.745-204.255-69.329-301.131
					c-46.416-98.527-118.894-194.678-226.483-260.381c-55.002-33.547-120.601-58.81-191.909-66.564
					c-74.958-8.113-159.696,4.312-236.651,41.73c-86.705,42.224-165.615,116.321-221.051,212.449
					c-61.441,106.685-92.849,235.402-89.026,368.474c-38.196,0.295-78.188,0.603-120.104,0.926
					c-4.305-154.245,35.272-302.951,110.862-423.303c67.712-107.663,163.14-187.732,264.723-229.886
					c90.14-37.341,186.989-45.38,270.976-31.837c79.764,12.903,151.495,44.184,211.242,83.46
					c115.524,76.032,191.784,181.239,240.404,287.414c47.318,103.454,69.988,212.034,72.007,319.264
					C1994.142,1160.498,1988.922,1160.292,1983.614,1160.083z"/>
				<path style="fill:#66C232;" d="M1967.135,1159.433c-1.695-95.677-22.71-192.134-66.37-282.238
					c-44.045-90.788-112.544-177.98-212.022-233.991c-50.315-28.291-109.918-48.179-173.219-51.692
					c-66.535-3.657-140.161,11.846-205.625,48.417c-73.678,41.217-138.835,108.94-184.219,194.248
					c-49.943,94.001-74.939,205.131-71.566,319.676c-33.48,0.258-68.43,0.527-104.95,0.809
					c-3.823-133.072,27.585-261.789,89.026-368.474c55.436-96.128,134.346-170.225,221.051-212.449
					c76.954-37.419,161.692-49.843,236.651-41.73c71.308,7.754,136.908,33.017,191.909,66.564
					c107.589,65.704,180.067,161.854,226.483,260.381c45.584,96.876,67.471,199.532,69.329,301.131
					C1978.215,1159.87,1972.724,1159.654,1967.135,1159.433z"/>
				<path style="fill:#2ECFFF;" d="M1949.773,1158.749c-3.097-178.625-78.126-376.985-260.086-470.829
					c-45.682-23.5-99.406-38.641-155.141-38.753c-58.65-0.087-122.104,17.352-177.517,52.343
					c-62.241,39.353-115.878,100.51-152.956,175.666c-40.52,82.237-60.418,177.767-57.465,275.963
					c-29.586,0.228-60.391,0.466-92.492,0.713c-3.373-114.545,21.622-225.675,71.566-319.676
					c45.384-85.308,110.54-153.031,184.219-194.248c65.463-36.57,139.09-52.074,205.625-48.417
					c63.302,3.513,122.905,23.401,173.219,51.692c99.478,56.011,167.977,143.203,212.022,233.991
					c43.66,90.105,64.675,186.561,66.37,282.238C1961.449,1159.209,1955.663,1158.981,1949.773,1158.749z"/>
				<path style="fill:#0051DE;" d="M1931.452,1158.026c-2.76-165.239-74.661-347.59-240.821-425.306
					c-41.097-19.169-89.05-30.176-137.647-27.665c-51.246,2.677-105.407,21.06-151.998,53.892
					c-52.176,36.811-96.109,91.352-126.271,156.978c-32.738,71.324-48.542,152.92-45.979,236.581
					c-26.334,0.203-53.691,0.414-82.129,0.633c-2.953-98.196,16.945-193.726,57.465-275.963
					c37.078-75.156,90.716-136.314,152.956-175.666c55.413-34.991,118.866-52.431,177.517-52.343
					c55.735,0.112,109.46,15.253,155.141,38.753c181.96,93.843,256.99,292.203,260.086,470.829
					C1943.776,1158.512,1937.67,1158.272,1931.452,1158.026z"/>
				<path style="fill:#763DFF;" d="M1912.093,1157.263c-2.425-151.151-70.74-316.825-220.515-379.658
					c-72.995-30.508-175.986-22.143-249.495,35.039c-43.303,33.742-79.018,81.71-103.378,138.38
					c-26.27,61.19-38.753,130.263-36.553,200.915c-23.59,0.182-48.046,0.37-73.415,0.566
					c-2.563-83.661,13.241-165.257,45.979-236.581c30.162-65.625,74.095-120.166,126.271-156.978
					c46.59-32.831,100.751-51.215,151.998-53.892c48.597-2.511,96.55,8.496,137.647,27.665
					c166.16,77.716,238.061,260.067,240.821,425.306C1925.119,1157.777,1918.667,1157.522,1912.093,1157.263z"/>
			</g>
		</g>
	</g>
	<g>
		<g>
			<g>
				<path style="fill:#FFFFFF;" d="M1433.129,422.147c-18.671,4.572-22.377,8.278-26.95,26.949
					c-4.572-18.671-8.278-22.377-26.949-26.949c18.671-4.572,22.377-8.278,26.949-26.949
					C1410.752,413.868,1414.458,417.575,1433.129,422.147z"/>
			</g>
		</g>
		<g>
			<g>
				<path style="fill:#FFFFFF;" d="M906.406,539.26c-20.367,4.987-24.41,9.031-29.398,29.398
					c-4.987-20.368-9.031-24.411-29.398-29.398c20.367-4.987,24.411-9.031,29.398-29.399
					C881.996,530.229,886.039,534.273,906.406,539.26z"/>
			</g>
		</g>
		<g>
			<g>
				<path style="fill:#FFFFFF;" d="M1269.886,390.413c-17.474,4.279-20.943,7.748-25.222,25.222
					c-4.279-17.474-7.748-20.943-25.222-25.222c17.474-4.279,20.943-7.748,25.222-25.222
					C1248.943,382.665,1252.412,386.134,1269.886,390.413z"/>
			</g>
		</g>
		<g>
			<g>
				<path style="fill:#FFFFFF;" d="M1359.829,760.521c-5.847,1.431-7.008,2.592-8.439,8.439c-1.432-5.847-2.593-7.008-8.439-8.439
					c5.847-1.432,7.008-2.593,8.439-8.44C1352.822,757.929,1353.983,759.089,1359.829,760.521z"/>
			</g>
		</g>
		<g>
			<g>
				<path style="fill:#FFFFFF;" d="M1057.653,588.577c-17.134,4.196-20.535,7.597-24.731,24.73
					c-4.195-17.133-7.596-20.534-24.73-24.73c17.134-4.195,20.534-7.596,24.73-24.73
					C1037.118,580.98,1040.519,584.381,1057.653,588.577z"/>
			</g>
		</g>
		<g>
			<g>
				<path style="fill:#FFFFFF;" d="M1597.997,474.818c-6.201,1.518-7.432,2.75-8.95,8.95c-1.519-6.201-2.75-7.432-8.95-8.95
					c6.2-1.518,7.432-2.749,8.95-8.95C1590.565,472.069,1591.796,473.3,1597.997,474.818z"/>
			</g>
		</g>
		<g>
			<g>
				<path style="fill:#FFFFFF;" d="M1819.168,820.223c-6.201,1.518-7.432,2.749-8.95,8.95c-1.519-6.201-2.75-7.432-8.95-8.95
					c6.2-1.519,7.432-2.75,8.95-8.95C1811.736,817.473,1812.967,818.704,1819.168,820.223z"/>
			</g>
		</g>
		<g>
			<g>
				<path style="fill:#FFFFFF;" d="M1809.307,686.046c-16.429,4.023-19.691,7.285-23.714,23.714
					c-4.023-16.429-7.285-19.691-23.715-23.714c16.43-4.023,19.691-7.285,23.715-23.715
					C1789.616,678.761,1792.878,682.023,1809.307,686.046z"/>
			</g>
		</g>
		<g>
			<g>
				<path style="fill:#FFFFFF;" d="M1523.92,688.475c-20.851,5.106-24.99,9.245-30.096,30.096
					c-5.106-20.851-9.245-24.99-30.096-30.096c20.851-5.106,24.99-9.246,30.096-30.097
					C1498.929,679.23,1503.069,683.369,1523.92,688.475z"/>
			</g>
		</g>
		<g>
			<g>
				<path style="fill:#FFFFFF;" d="M1344.551,594.873c-8.927,2.186-10.7,3.958-12.886,12.886c-2.186-8.927-3.958-10.7-12.886-12.886
					c8.927-2.186,10.7-3.958,12.886-12.886C1333.851,590.914,1335.624,592.687,1344.551,594.873z"/>
			</g>
		</g>
		<g>
			<g>
				<path style="fill:#FFFFFF;" d="M1949.993,940.759c-19.922,4.879-23.876,8.833-28.754,28.754
					c-4.878-19.922-8.833-23.876-28.754-28.754c19.921-4.878,23.876-8.833,28.754-28.754
					C1926.117,931.926,1930.071,935.881,1949.993,940.759z"/>
			</g>
		</g>
		<g>
			<g>
				<path style="fill:#FFFFFF;" d="M1226.628,520.547c-15.063,3.689-18.054,6.679-21.743,21.743
					c-3.689-15.063-6.679-18.054-21.743-21.743c15.063-3.688,18.054-6.679,21.743-21.743
					C1208.574,513.868,1211.565,516.858,1226.628,520.547z"/>
			</g>
		</g>
		<g>
			<g>
				<path style="fill:#FFFFFF;" d="M666.772,1090.05c-6.284,1.539-7.532,2.786-9.071,9.071c-1.539-6.285-2.786-7.532-9.071-9.071
					c6.285-1.539,7.532-2.786,9.071-9.071C659.24,1087.264,660.487,1088.511,666.772,1090.05z"/>
			</g>
		</g>
		<g>
			<g>
				<path style="fill:#FFFFFF;" d="M756.158,652.402c-6.039,1.479-7.238,2.678-8.717,8.717c-1.479-6.039-2.677-7.238-8.717-8.717
					c6.039-1.479,7.238-2.678,8.717-8.717C748.92,649.725,750.119,650.923,756.158,652.402z"/>
			</g>
		</g>
		<g>
			<g>
				<path style="fill:#FFFFFF;" d="M993.293,1042.65c-8.169,2-9.791,3.622-11.791,11.792c-2.001-8.169-3.622-9.792-11.792-11.792
					c8.169-2,9.791-3.622,11.792-11.792C983.502,1039.027,985.124,1040.649,993.293,1042.65z"/>
			</g>
		</g>
		<g>
			<g>
				<path style="fill:#FFFFFF;" d="M1248.055,1059.881c-5.327,1.304-6.385,2.362-7.69,7.69c-1.304-5.328-2.362-6.385-7.69-7.69
					c5.327-1.305,6.385-2.362,7.69-7.69C1241.67,1057.519,1242.728,1058.576,1248.055,1059.881z"/>
			</g>
		</g>
		<g>
			<g>
				<path style="fill:#FFFFFF;" d="M668.542,954.572c-15.638,3.829-18.742,6.934-22.572,22.572
					c-3.829-15.638-6.934-18.743-22.572-22.572c15.638-3.83,18.743-6.934,22.572-22.572
					C649.8,947.638,652.904,950.742,668.542,954.572z"/>
			</g>
		</g>
		<g>
			<g>
				<path style="fill:#FFFFFF;" d="M1106.299,855.32c-8.958,2.193-10.736,3.972-12.93,12.93c-2.194-8.958-3.972-10.736-12.93-12.93
					c8.958-2.193,10.736-3.972,12.93-12.93C1095.562,851.348,1097.341,853.126,1106.299,855.32z"/>
			</g>
		</g>
		<g>
			<g>
				<path style="fill:#FFFFFF;" d="M1029.741,727.268c-18.137,4.441-21.737,8.041-26.178,26.178
					c-4.441-18.137-8.041-21.737-26.178-26.178c18.137-4.441,21.737-8.041,26.178-26.178
					C1008.004,719.226,1011.604,722.826,1029.741,727.268z"/>
			</g>
		</g>
		<g>
			<g>
				<path style="fill:#FFFFFF;" d="M1713.325,538.23c-12.5,3.061-14.982,5.543-18.042,18.042
					c-3.061-12.5-5.542-14.981-18.042-18.042c12.5-3.061,14.981-5.543,18.042-18.042
					C1698.343,532.687,1700.825,535.169,1713.325,538.23z"/>
			</g>
		</g>
		<g>
			<g>
				<path style="fill:#FFFFFF;" d="M778.311,817.695c-6.081,1.489-7.288,2.696-8.777,8.777c-1.489-6.081-2.696-7.288-8.777-8.777
					c6.081-1.489,7.288-2.696,8.777-8.777C771.023,814.999,772.23,816.206,778.311,817.695z"/>
			</g>
		</g>
		<g>
			<g>
				<path style="fill:#FFFFFF;" d="M868.935,1095.28c-5.841,1.43-7,2.59-8.431,8.431c-1.43-5.841-2.59-7-8.43-8.431
					c5.841-1.431,7-2.59,8.43-8.43C861.935,1092.69,863.094,1093.849,868.935,1095.28z"/>
			</g>
		</g>
		<g>
			<g>
				<path style="fill:#FFFFFF;" d="M1275.043,881.626c-15.452,3.784-18.519,6.851-22.303,22.303
					c-3.784-15.452-6.851-18.519-22.303-22.303c15.452-3.784,18.519-6.851,22.303-22.303
					C1256.524,874.775,1259.591,877.842,1275.043,881.626z"/>
			</g>
		</g>
		<g>
			<g>
				<path style="fill:#FFFFFF;" d="M1510.205,540.513c-18.945,4.639-22.705,8.4-27.345,27.345
					c-4.639-18.945-8.4-22.706-27.344-27.345c18.944-4.639,22.705-8.4,27.344-27.345
					C1487.5,532.113,1491.26,535.874,1510.205,540.513z"/>
			</g>
		</g>
		<g>
			<g>
				<path style="fill:#FFFFFF;" d="M825.5,917.14c-5.251,1.286-6.293,2.328-7.579,7.579c-1.286-5.251-2.328-6.293-7.579-7.579
					c5.251-1.286,6.293-2.329,7.579-7.579C819.207,914.811,820.249,915.854,825.5,917.14z"/>
			</g>
		</g>
		<g>
			<g>
				<path style="fill:#FFFFFF;" d="M1073.829,437.677c-11.595,2.84-13.897,5.141-16.737,16.737
					c-2.839-11.596-5.141-13.897-16.737-16.737c11.595-2.839,13.897-5.141,16.737-16.737
					C1059.932,432.535,1062.234,434.837,1073.829,437.677z"/>
			</g>
		</g>
		<g>
			<g>
				<path style="fill:#FFFFFF;" d="M1916.497,782.802c-11.596,2.839-13.897,5.141-16.737,16.736
					c-2.84-11.596-5.141-13.897-16.737-16.736c11.596-2.84,13.897-5.142,16.737-16.737
					C1902.6,777.661,1904.902,779.962,1916.497,782.802z"/>
			</g>
		</g>
		<g>
			<g>
				<path style="fill:#FFFFFF;" d="M668.121,790.697c-6.151,1.507-7.373,2.727-8.879,8.879c-1.506-6.152-2.727-7.373-8.879-8.879
					c6.151-1.506,7.373-2.727,8.879-8.879C660.748,787.97,661.969,789.192,668.121,790.697z"/>
			</g>
		</g>
		<g>
			<g>
				<path style="fill:#FFFFFF;" d="M1681.665,635.501c-18.314,4.484-21.949,8.12-26.433,26.433
					c-4.485-18.313-8.12-21.949-26.434-26.433c18.313-4.485,21.949-8.12,26.434-26.434
					C1659.716,627.381,1663.351,631.016,1681.665,635.501z"/>
			</g>
		</g>
		<g>
			<g>
				<path style="fill:#FFFFFF;" d="M967.247,881.53c-18.742,4.589-22.463,8.31-27.052,27.052
					c-4.589-18.742-8.31-22.463-27.052-27.052c18.742-4.59,22.463-8.31,27.052-27.052
					C944.784,873.219,948.505,876.94,967.247,881.53z"/>
			</g>
		</g>
		<g>
			<g>
				<path style="fill:#FFFFFF;" d="M872.042,716.13c-7.913,1.938-9.484,3.509-11.421,11.421c-1.938-7.913-3.509-9.484-11.421-11.421
					c7.913-1.938,9.484-3.509,11.421-11.421C862.558,712.622,864.129,714.193,872.042,716.13z"/>
			</g>
		</g>
		<g>
			<g>
				<path style="fill:#FFFFFF;" d="M1125.28,1041.687c-7.146,1.75-8.565,3.168-10.314,10.314c-1.75-7.146-3.169-8.564-10.314-10.314
					c7.145-1.75,8.564-3.168,10.314-10.314C1116.716,1038.519,1118.134,1039.937,1125.28,1041.687z"/>
			</g>
		</g>
		<g>
			<g>
				<path style="fill:#FFFFFF;" d="M1196.003,692.461c-10.144,2.484-12.158,4.498-14.642,14.642
					c-2.484-10.144-4.498-12.157-14.642-14.642c10.144-2.484,12.157-4.498,14.642-14.642
					C1183.845,687.963,1185.859,689.977,1196.003,692.461z"/>
			</g>
		</g>
	</g>
	<g>
		<path style="fill:#FE3E33;" d="M460.728,1076.037l-6.014-0.212c0.129-3.559,15.428-358.471,266.522-581.276l3.993,4.499
			C476.039,720.161,460.851,1072.505,460.728,1076.037z"/>
	</g>
	<g>
		<path style="fill:#763DFF;" d="M1865.241,1033.105c-50.603-176.24-194.371-223.81-195.816-224.271l1.821-5.732
			c1.474,0.467,148.249,48.893,199.774,228.34L1865.241,1033.105z"/>
	</g>
	<g>
		<path style="fill:#FFFFFF;" d="M1062.417,684.829l-4.793-3.63c1.239-1.635,126.559-163.73,351.635-177.758l0.376,6.002
			C1187.279,523.301,1063.638,683.217,1062.417,684.829z"/>
	</g>
	
		<radialGradient id="SVGID_1_" cx="408.1446" cy="1640.2145" r="382.0947" gradientTransform="matrix(1.6295 0 0 0.8597 276.6149 -118.3908)" gradientUnits="userSpaceOnUse">
		<stop  offset="0.3529" style="stop-color:#666666"/>
		<stop  offset="1" style="stop-color:#FFFFFF"/>
	</radialGradient>
	<ellipse style="fill:url(#SVGID_1_);" cx="941.687" cy="1291.702" rx="622.623" ry="328.487"/>
	
		<radialGradient id="SVGID_00000099626432747992926420000000072510979039147659_" cx="1034.7509" cy="1655.7603" r="234.4648" gradientTransform="matrix(1.6295 0 0 0.8597 276.6149 -118.3908)" gradientUnits="userSpaceOnUse">
		<stop  offset="0.3529" style="stop-color:#666666"/>
		<stop  offset="1" style="stop-color:#FFFFFF"/>
	</radialGradient>
	
		<ellipse style="fill:url(#SVGID_00000099626432747992926420000000072510979039147659_);" cx="1962.741" cy="1305.066" rx="382.06" ry="201.57"/>
	<path style="fill:#FFFFFF;" d="M1501.396,1272.355c-4.524-37.225-36.123-64.495-72.673-64.635
		c4.267-10.94,5.982-23.057,4.467-35.529c-4.902-40.336-41.575-69.058-81.907-64.156c-11.606,1.41-22.203,5.52-31.362,11.522
		c1.468-8.342,1.772-17.031,0.697-25.872c-6.609-54.383-69.011-94.644-115.651-88.976c-14.303,1.739-27.333,6.881-38.505,14.424
		c-0.179-3.212-0.289-6.419-0.683-9.661c-9.684-79.686-82.136-136.432-161.816-126.748c-69.646,8.464-121.76,64.872-127.32,132.156
		c-30.56-36.059-78.035-56.588-128.463-50.46c-66.111,8.035-116.297,59.308-125.99,122.039c-1.25,1.532-2.424,3.119-3.531,4.761
		c-17.324-9.711-37.721-14.289-58.94-11.711c-53.125,6.457-90.955,54.753-84.498,107.877c0.136,1.127,0.397,2.201,0.575,3.312
		c-11.501-6.38-25.012-9.38-39.064-7.672c-35.416,4.304-60.637,36.501-56.333,71.917c4.303,35.414,36.502,60.637,71.918,56.333
		c0.719-0.087,1.409-0.256,2.123-0.367c8.032,36.612,42.733,61.796,80.699,57.182c9.828-1.194,18.954-4.301,27.085-8.862
		c0.079,0.948,0.084,1.882,0.2,2.835c5.44,44.762,46.135,76.638,90.896,71.198c35.851-4.357,63.383-31.353,70.15-64.919
		c17.876,43.843,63.305,72.2,112.571,66.212c43.422-5.276,77.571-35.756,89.774-74.983c17.447,13.975,40.265,21.221,64.212,18.311
		c32.64-3.966,58.765-25.718,69.905-54.358c21.263,35.085,61.669,56.444,105.042,51.173c45.189-5.491,80.329-38.269,91.14-79.802
		c12.769,28.81,43.223,47.206,76.131,43.206c13.557-1.647,25.75-6.946,35.844-14.703c15.089,21.526,41.232,34.257,69.151,30.864
		C1477.572,1349.361,1506.298,1312.688,1501.396,1272.355z"/>
	<path style="fill:#FFFFFF;" d="M1720.355,1236.094c-7.988,52.438,28.019,101.413,80.474,109.41
		c19.006,2.896,37.533-0.053,53.852-7.416c8.881,7.927,20.052,13.488,32.709,15.417c12.376,1.886,24.427,0.017,35.111-4.665
		c9.398,15.795,25.537,27.418,45.124,30.399c25.956,3.958,50.617-8.358,63.673-29.314c9.761,6.477,21.009,11.058,33.367,12.94
		c40.852,6.229,79.193-18.433,91.551-56.489c34.342-10.846,61.378-40.27,67.179-78.28c8.108-53.273-28.484-103.043-81.759-111.163
		c-2.845-0.434-5.66-0.677-8.48-0.855c3.357-41.536-25.871-79.188-67.701-85.562c-24.905-3.798-48.849,4.339-66.103,20.1
		c-11.193-17.007-29.211-29.433-50.921-32.744c-40.659-6.197-78.637,21.742-84.836,62.397c-0.192,1.248-0.252,2.48-0.38,3.717
		c-0.905-0.173-1.786-0.41-2.7-0.552c-38.985-5.94-75.381,20.839-81.328,59.813c-0.957,6.301-0.983,12.512-0.316,18.561
		C1748.746,1174.208,1725.627,1201.541,1720.355,1236.094z"/>
</g>
</svg>
