<?xml version="1.0" encoding="utf-8"?>
<!-- Generator: Adobe Illustrator 27.5.0, SVG Export Plug-In . SVG Version: 6.00 Build 0)  -->
<svg version="1.1" id="Layer_2" xmlns="http://www.w3.org/2000/svg" xmlns:xlink="http://www.w3.org/1999/xlink" x="0px" y="0px"
	 viewBox="0 0 240.842 400" style="enable-background:new 0 0 240.842 400;" xml:space="preserve">
<g>
	<g>
		<g>
			<path style="fill:#FED09E;" d="M119.235,388.082c74.91,0,90.303-74.236,90.303-74.236c-12.831-0.475-49.424-6.653-63.68-19.484
				c-14.257-12.831-6.653-63.205-6.653-63.205h-38.101c0,0,7.604,50.374-6.653,63.205c-14.257,12.831-50.849,19.009-63.68,19.484
				c0,0,15.393,74.236,90.303,74.236"/>
			<path style="opacity:0.5;fill:#FED09E;" d="M102.33,273.848c3.009-1.009,5.988-2.108,8.92-3.322
				c5.276-2.185,10.413-4.743,15.234-7.811c2.287-1.456,4.529-3.016,6.618-4.747c1.423-1.179,2.802-2.413,4.152-3.674
				c0.366-12.634,1.95-23.136,1.95-23.136h-38.101C101.103,231.156,104.675,254.826,102.33,273.848z"/>
			<path style="opacity:0.5;fill:#FED09E;" d="M194.84,319.915c-6.495,5.965-13.399,11.383-20.395,16.74
				c-6.981,5.345-13.921,10.746-21.058,15.882c-3.595,2.587-7.239,5.105-10.955,7.515c-3.403,2.207-6.937,4.178-10.386,6.304
				c-2.645,1.63-5.1,3.578-7.908,4.938c-1.153,0.559-2.391,1.051-3.681,1.143c-1.21,0.086-2.301-0.37-3.324-0.979
				c-2.756-1.64-4.999-4.076-7.295-6.277c-3.012-2.887-6.437-5.396-9.73-7.951c-7.071-5.49-14.278-10.852-21.686-15.88
				c-13.176-8.943-27.262-16.988-38.587-28.333c-3.621,0.468-6.737,0.743-9.067,0.83c0,0,15.269,73.623,89.384,74.229
				c74.115-0.606,89.384-74.229,89.384-74.229c-2.044-0.076-4.693-0.297-7.756-0.666C199.525,315.479,197.219,317.73,194.84,319.915
				z"/>
		</g>
		<path style="fill:#DF7469;" d="M121.073,388.082c-0.308,0-0.613-0.005-0.919-0.007c-0.306,0.003-0.611,0.007-0.919,0.007H121.073z
			"/>
		<g>
			<path style="fill:#9DDCF9;" d="M120.173,390c16.555,0,33.19-1.715,49.229-5.912c21.687-5.674,44.859-16.346,58.224-35.162
				c3.48-4.9,6.422-10.784,7.082-16.818c1.65-15.091-14.965-28.386-29.496-24.761c-9.52,2.375-15.028,12.351-21.439,18.905
				c-7.616,7.785-15.446,15.36-23.343,22.859c-13.132,12.469-26.458,24.744-39.965,36.806h-0.086
				c-13.507-12.062-26.833-24.337-39.965-36.806c-7.897-7.499-15.727-15.074-23.343-22.859c-6.411-6.554-11.919-16.53-21.439-18.905
				c-14.531-3.626-31.146,9.67-29.496,24.761c0.66,6.034,3.601,11.918,7.082,16.818c13.365,18.816,36.537,29.488,58.224,35.162
				c16.039,4.197,32.673,5.912,49.228,5.912"/>
			<g>
				<g>
					<path style="fill:#9DDCF9;" d="M82.154,374.869c-14.106-7.752-31.157-21.855-36.987-37.19c-0.89-2.401-1.555-4.894-1.81-7.427
						c-0.011-0.112,0.071-0.213,0.183-0.224c0.101-0.01,0.192,0.055,0.218,0.149c3.887,13.028,14.111,23.649,23.989,32.556
						c4.673,4.166,9.564,8.062,14.619,11.788c0.093,0.065,0.115,0.196,0.047,0.288C82.353,374.892,82.242,374.915,82.154,374.869
						L82.154,374.869z"/>
					<path style="fill:#9DDCF9;" d="M43.573,321.065c0.42,13.889,3.022,28.034,10.17,40.121c0.059,0.097,0.027,0.225-0.072,0.282
						c-0.088,0.052-0.2,0.03-0.262-0.048c-6.706-8.368-9.611-19.222-10.397-29.765c-0.236-3.538-0.257-7.089,0.154-10.617
						c0.013-0.112,0.114-0.192,0.226-0.179C43.498,320.871,43.575,320.962,43.573,321.065L43.573,321.065z"/>
					<path style="fill:#9DDCF9;" d="M36.945,315.184c-5.355,10.97-10.036,22.733-10.068,35.083
						c-0.004,1.732,0.085,3.466,0.256,5.259c0.013,0.115-0.071,0.22-0.186,0.23c-0.087,0.008-0.166-0.038-0.204-0.111
						c-0.846-1.625-1.374-3.414-1.68-5.232c-1.521-10.065,3.559-22.372,8.585-30.944c0.917-1.544,1.884-3.053,2.952-4.503
						c0.067-0.091,0.195-0.11,0.286-0.043C36.969,314.985,36.992,315.096,36.945,315.184L36.945,315.184z"/>
				</g>
				<g>
					<path style="fill:#9DDCF9;" d="M159.176,374.521c13.63-10.257,27.785-22.148,35.819-37.439c1.1-2.21,2.042-4.503,2.79-6.905
						c0.032-0.109,0.148-0.172,0.258-0.138c0.094,0.029,0.151,0.119,0.143,0.213c-0.218,2.54-0.852,5.05-1.736,7.459
						c-4.556,11.944-14.427,21.244-24.334,28.91c-4.054,3.033-8.256,5.864-12.727,8.248c-0.1,0.053-0.223,0.014-0.276-0.085
						C159.064,374.691,159.093,374.579,159.176,374.521L159.176,374.521z"/>
					<path style="fill:#9DDCF9;" d="M198.376,321.038c1.286,13.664-1.628,29.418-10.243,40.382
						c-0.071,0.088-0.199,0.102-0.287,0.032c-0.081-0.065-0.1-0.18-0.047-0.266c4.505-7.501,7.191-15.896,8.652-24.481
						c0.886-5.165,1.391-10.391,1.518-15.639c-0.002-0.115,0.093-0.211,0.209-0.208
						C198.281,320.859,198.364,320.938,198.376,321.038L198.376,321.038z"/>
					<path style="fill:#9DDCF9;" d="M204.942,314.967c7.916,10.023,15.702,28.271,9.856,40.678c-0.05,0.102-0.174,0.145-0.276,0.095
						c-0.082-0.04-0.126-0.128-0.114-0.214c1.231-10.513-2.078-20.776-5.747-30.507c-1.272-3.287-2.639-6.56-4.067-9.839
						c-0.045-0.104,0.002-0.225,0.107-0.271C204.787,314.872,204.885,314.898,204.942,314.967L204.942,314.967z"/>
				</g>
			</g>
		</g>
	</g>
	<g>
		<g>
			<g>
				<path style="fill:#FED09E;" d="M40.38,188.548c1.079,4.225,3.095,8.174,5.65,11.694c2.358,3.249,5.215,6.245,8.473,8.604
					c2.379,1.722,5.757,3.722,8.783,2.555c1.667-0.643,2.68-2.209,3.33-3.796c0.811-1.981,1.192-4.11,1.214-6.246
					c0.044-4.267-1.185-8.453-2.59-12.442c-1.362-3.867-3.125-7.84-6.254-10.61c-0.022-0.02-0.049-0.031-0.074-0.045
					c-0.579-0.747-1.228-1.441-1.956-2.061c-2.647-2.257-6.082-3.144-9.505-2.585c-2.99,0.488-5.585,2.22-6.843,5.024
					C39.208,181.763,39.557,185.325,40.38,188.548z"/>
				<path style="opacity:0.27;fill:#FED09E;" d="M65.239,188.917c-1.362-3.867-3.125-7.84-6.254-10.61
					c-0.022-0.02-0.049-0.031-0.074-0.045c-0.579-0.747-1.228-1.441-1.956-2.061c-1.341-1.143-2.883-1.933-4.524-2.363
					c0.339,3.243,0.778,6.476,1.333,9.69c1.236,7.157,3.033,14.212,5.367,21.09c0.812,2.394,1.692,4.763,2.625,7.111
					c0.515-0.035,1.028-0.134,1.53-0.328c1.667-0.643,2.68-2.209,3.329-3.796c0.811-1.981,1.192-4.11,1.214-6.246
					C67.873,197.092,66.644,192.907,65.239,188.917z"/>
				<path style="fill:#92422B;" d="M42.19,184.128c1.855-3.709,7.14-1.066,9.514,0.609c3.897,2.75,6.552,7.03,8.087,11.477
					c0.918,2.661,1.455,5.444,1.685,8.247c0.018,0.215-0.327,0.146-0.351-0.024c-0.228-1.583-0.525-3.157-0.913-4.706
					c-0.473,0.384-1.318,0.451-1.833,0.402c-0.912-0.087-1.8-0.46-2.592-0.906c-1.519-0.854-2.93-2.009-4.123-3.278
					c-0.105-0.111,0.09-0.156,0.169-0.077c1.131,1.133,2.465,2.124,3.876,2.878c0.728,0.389,1.509,0.758,2.335,0.872
					c0.344,0.047,0.699,0.052,1.037-0.036c0.375-0.098,0.602-0.354,0.937-0.514c0.007-0.003,0.015-0.003,0.022-0.006
					c-0.719-2.673-1.725-5.259-3.15-7.659c-2.049-3.452-5.095-6.652-8.95-8.029c-1.863-0.665-4.076-0.865-5.347,0.953
					C42.47,184.509,42.089,184.33,42.19,184.128z"/>
			</g>
			<g>
				<rect x="60.512" y="212.854" style="fill:#D4EFFC;" width="1.811" height="3.84"/>
				<rect x="60.512" y="212.854" style="fill:#D4EFFC;" width="1.811" height="3.84"/>
				<rect x="60.512" y="212.854" style="fill:#D4EFFC;" width="1.811" height="3.84"/>
				<path style="fill:#D4EFFC;" d="M63.758,211.004c0,1.293-1.048,2.341-2.341,2.341c-1.293,0-2.341-1.048-2.341-2.341
					c0-1.293,1.048-2.341,2.341-2.341C62.71,208.663,63.758,209.711,63.758,211.004z"/>
				<path style="fill:#D4EFFC;" d="M63.758,211.004c0,1.293-1.048,2.341-2.341,2.341c-1.293,0-2.341-1.048-2.341-2.341
					c0-1.293,1.048-2.341,2.341-2.341C62.71,208.663,63.758,209.711,63.758,211.004z"/>
				<ellipse style="fill:#D4EFFC;" cx="61.417" cy="227.8" rx="3.619" ry="9.454"/>
				<ellipse style="opacity:0.5;fill:#D4EFFC;" cx="61.417" cy="227.8" rx="3.619" ry="9.454"/>
				<path style="fill:#D4EFFC;" d="M63.758,217.555c0,0.81-1.048,1.467-2.341,1.467c-1.293,0-2.341-0.657-2.341-1.467
					c0-0.81,1.048-1.467,2.341-1.467C62.71,216.089,63.758,216.745,63.758,217.555z"/>
			</g>
		</g>
		<g>
			<g>
				<path style="fill:#FED09E;" d="M198.642,188.548c-1.079,4.225-3.095,8.174-5.65,11.694c-2.358,3.249-5.215,6.245-8.473,8.604
					c-2.379,1.722-5.757,3.722-8.784,2.555c-1.667-0.643-2.68-2.209-3.329-3.796c-0.811-1.981-1.192-4.11-1.214-6.246
					c-0.044-4.267,1.185-8.453,2.59-12.442c1.362-3.867,3.125-7.84,6.254-10.61c0.022-0.02,0.049-0.031,0.075-0.045
					c0.579-0.747,1.228-1.441,1.956-2.061c2.647-2.257,6.082-3.144,9.505-2.585c2.99,0.488,5.585,2.22,6.843,5.024
					C199.814,181.763,199.465,185.325,198.642,188.548z"/>
				<path style="opacity:0.27;fill:#FED09E;" d="M173.783,188.917c1.362-3.867,3.125-7.84,6.254-10.61
					c0.022-0.02,0.049-0.031,0.075-0.045c0.579-0.747,1.228-1.441,1.956-2.061c1.341-1.143,2.883-1.933,4.524-2.363
					c-0.339,3.243-0.778,6.476-1.333,9.69c-1.236,7.157-3.033,14.212-5.367,21.09c-0.812,2.394-1.692,4.763-2.625,7.111
					c-0.515-0.035-1.027-0.134-1.53-0.328c-1.667-0.643-2.68-2.209-3.329-3.796c-0.811-1.981-1.192-4.11-1.214-6.246
					C171.149,197.092,172.378,192.907,173.783,188.917z"/>
				<path style="fill:#92422B;" d="M196.831,184.128c-1.855-3.709-7.14-1.066-9.514,0.609c-3.897,2.75-6.552,7.03-8.087,11.477
					c-0.918,2.661-1.455,5.444-1.685,8.247c-0.018,0.215,0.327,0.146,0.351-0.024c0.228-1.583,0.525-3.157,0.913-4.706
					c0.473,0.384,1.318,0.451,1.833,0.402c0.912-0.087,1.8-0.46,2.592-0.906c1.519-0.854,2.93-2.009,4.123-3.278
					c0.105-0.111-0.09-0.156-0.169-0.077c-1.131,1.133-2.465,2.124-3.876,2.878c-0.728,0.389-1.509,0.758-2.335,0.872
					c-0.344,0.047-0.699,0.052-1.036-0.036c-0.375-0.098-0.602-0.354-0.937-0.514c-0.007-0.003-0.015-0.003-0.022-0.006
					c0.719-2.673,1.725-5.259,3.15-7.659c2.049-3.452,5.095-6.652,8.95-8.029c1.863-0.665,4.076-0.865,5.347,0.953
					C196.552,184.509,196.932,184.33,196.831,184.128z"/>
			</g>
			<g>
				
					<rect x="176.699" y="212.854" transform="matrix(-1 -1.224647e-16 1.224647e-16 -1 355.2092 429.5484)" style="fill:#D4EFFC;" width="1.811" height="3.84"/>
				
					<rect x="176.699" y="212.854" transform="matrix(-1 -1.224647e-16 1.224647e-16 -1 355.2092 429.5484)" style="fill:#D4EFFC;" width="1.811" height="3.84"/>
				
					<rect x="176.699" y="212.854" transform="matrix(-1 -1.224647e-16 1.224647e-16 -1 355.2092 429.5484)" style="fill:#D4EFFC;" width="1.811" height="3.84"/>
				<path style="fill:#D4EFFC;" d="M175.263,211.004c0,1.293,1.048,2.341,2.341,2.341s2.341-1.048,2.341-2.341
					c0-1.293-1.048-2.341-2.341-2.341S175.263,209.711,175.263,211.004z"/>
				<path style="fill:#D4EFFC;" d="M175.263,211.004c0,1.293,1.048,2.341,2.341,2.341s2.341-1.048,2.341-2.341
					c0-1.293-1.048-2.341-2.341-2.341S175.263,209.711,175.263,211.004z"/>
				<ellipse style="fill:#D4EFFC;" cx="177.605" cy="227.8" rx="3.619" ry="9.454"/>
				<ellipse style="opacity:0.5;fill:#D4EFFC;" cx="177.605" cy="227.8" rx="3.619" ry="9.454"/>
				<path style="fill:#D4EFFC;" d="M175.263,217.555c0,0.81,1.048,1.467,2.341,1.467s2.341-0.657,2.341-1.467
					c0-0.81-1.048-1.467-2.341-1.467S175.263,216.745,175.263,217.555z"/>
			</g>
		</g>
		<g>
			<ellipse style="fill:#F99D1C;" cx="121.255" cy="70.022" rx="66.78" ry="60.022"/>
			<g>
				<path style="opacity:0.3;fill:#F99D1C;" d="M121.255,63.143c-26.127,0-48.746-8.143-59.718-20.006
					c-4.516,8.088-7.062,17.219-7.062,26.885c0,33.149,29.899,60.022,66.78,60.022s66.78-26.873,66.78-60.022
					c0-9.666-2.546-18.797-7.062-26.885C170.001,55,147.382,63.143,121.255,63.143z"/>
			</g>
		</g>
		<path style="fill:#FED09E;" d="M119.386,252.348c0,0,62.932-3.702,62.932-101.431c0-84.464-49.219-67.171-62.581-60.921h-0.06
			c-13.362-6.251-62.581-23.543-62.581,60.921c0,97.729,62.932,101.431,62.932,101.431"/>
		<radialGradient id="SVGID_1_" cx="81.5798" cy="200.3059" r="16.2539" gradientUnits="userSpaceOnUse">
			<stop  offset="1.799800e-04" style="stop-color:#DF7469"/>
			<stop  offset="1" style="stop-color:#FFFFFF"/>
		</radialGradient>
		<circle style="opacity:0.3;fill:url(#SVGID_1_);" cx="81.58" cy="200.306" r="16.254"/>
		
			<radialGradient id="SVGID_00000004535871307287395160000007076490553769314690_" cx="157.7839" cy="200.3059" r="16.2539" gradientUnits="userSpaceOnUse">
			<stop  offset="1.799800e-04" style="stop-color:#DF7469"/>
			<stop  offset="1" style="stop-color:#FFFFFF"/>
		</radialGradient>
		
			<circle style="opacity:0.3;fill:url(#SVGID_00000004535871307287395160000007076490553769314690_);" cx="157.784" cy="200.306" r="16.254"/>
		<g>
			<g>
				<g>
					<path style="fill:#FFFFFF;" d="M101.635,196.11c0,0,7.504-18.994-9.497-26.263c-17.001-7.269-23.332,10.669-21.104,16.884
						C73.261,192.944,81.351,201.034,101.635,196.11z"/>
					<path style="fill:#844E3D;" d="M71.254,186.651c2.577,5.732,8.126,8.971,14.183,9.893c3.891,0.663,7.924,0.485,11.838,0.075
						c1.458-0.125,2.89-0.409,4.352-0.553c0.051-0.009,0.071,0.075,0.019,0.088c-2.018,0.657-4.318,1.249-6.425,1.608
						c-0.598,0.131-1.585,0.215-2.201,0.288c-6.95,0.82-14.932-0.615-19.591-6.286l-0.679-0.909
						c-0.845-1.25-1.533-2.606-1.937-4.046C70.742,186.538,71.133,186.384,71.254,186.651L71.254,186.651z"/>
					<path style="fill:#231F20;" d="M78.433,169.304c8.229-4.313,18.864,0.174,23.024,8.087c1.556,2.96,2.205,6.328,2.083,9.657
						c-0.055,1.503-0.502,2.92-0.635,4.387c0,0,1.296-14.328-9.483-19.513c-10.78-5.185-23.47,3.138-22.31,13.918
						c0,0-5.935-7.122-6.706-14.221c0,0,5.093,2.932,8.951,0.694C75.034,171.341,76.69,170.217,78.433,169.304z"/>
					<g>
						
							<ellipse transform="matrix(0.9732 -0.2298 0.2298 0.9732 -39.8455 25.6919)" style="fill:#006F92;" cx="90.405" cy="183.953" rx="10.362" ry="10.362"/>
						<circle style="fill:#231F20;" cx="90.405" cy="183.953" r="5.941"/>
						<path style="fill:#FFFFFF;" d="M92.027,181.839c0,2.064,1.674,3.738,3.738,3.738c2.064,0,3.738-1.674,3.738-3.738
							c0-2.064-1.674-3.738-3.738-3.738C93.701,178.102,92.027,179.775,92.027,181.839z"/>
					</g>
				</g>
				<path style="fill:#F99D1C;" d="M64.605,159.167c0,0,7.701-4.321,17.544-3.347c13.326,1.32,15.764,6.026,20.633,5.132
					C107.65,160.059,80.31,141.449,64.605,159.167z"/>
			</g>
			<g>
				<g>
					<path style="fill:#FFFFFF;" d="M138.444,196.11c0,0-7.504-18.994,9.497-26.263s23.332,10.669,21.104,16.884
						C166.818,192.944,158.728,201.034,138.444,196.11z"/>
					<path style="fill:#844E3D;" d="M168.825,186.651c-2.577,5.732-8.126,8.971-14.183,9.893c-3.891,0.663-7.923,0.485-11.838,0.075
						c-1.458-0.125-2.89-0.409-4.352-0.553c-0.051-0.009-0.071,0.075-0.019,0.088c2.018,0.657,4.318,1.249,6.425,1.608
						c0.598,0.131,1.585,0.215,2.201,0.288c6.95,0.82,14.932-0.615,19.591-6.286l0.679-0.909c0.845-1.25,1.533-2.606,1.937-4.046
						C169.336,186.538,168.945,186.384,168.825,186.651L168.825,186.651z"/>
					<path style="fill:#231F20;" d="M161.646,169.304c-8.229-4.313-18.864,0.174-23.024,8.087c-1.556,2.96-2.205,6.328-2.083,9.657
						c0.055,1.503,0.502,2.92,0.635,4.387c0,0-1.296-14.328,9.484-19.513c10.78-5.185,23.47,3.138,22.31,13.918
						c0,0,5.935-7.122,6.706-14.221c0,0-5.093,2.932-8.951,0.694C165.045,171.341,163.388,170.217,161.646,169.304z"/>
					<g>
						
							<ellipse transform="matrix(0.9239 -0.3827 0.3827 0.9239 -59.0027 71.2802)" style="fill:#006F92;" cx="149.673" cy="183.953" rx="10.362" ry="10.362"/>
						<circle style="fill:#231F20;" cx="149.673" cy="183.953" r="5.941"/>
						<path style="fill:#FFFFFF;" d="M148.051,181.839c0,2.064-1.674,3.738-3.738,3.738c-2.064,0-3.738-1.674-3.738-3.738
							c0-2.064,1.674-3.738,3.738-3.738C146.378,178.102,148.051,179.775,148.051,181.839z"/>
					</g>
				</g>
				<path style="fill:#F99D1C;" d="M175.474,159.167c0,0-7.701-4.321-17.544-3.347c-13.326,1.32-15.764,6.026-20.633,5.132
					C132.429,160.059,159.769,141.449,175.474,159.167z"/>
			</g>
		</g>
		<g style="opacity:0.55;">
			<path style="opacity:0.74;fill:#E07B70;" d="M125.885,212.827c0,2.449-2.617,4.435-5.846,4.435s-5.846-1.986-5.846-4.435
				s2.617-9.403,5.846-9.403S125.885,210.378,125.885,212.827z"/>
			<g style="opacity:0.5;">
				<path style="fill:#E1A566;" d="M120.039,215.779c-2.933,0-5.354-1.64-5.774-3.776c-0.047,0.309-0.072,0.588-0.072,0.823
					c0,2.449,2.617,4.435,5.846,4.435c3.229,0,5.846-1.986,5.846-4.435c0-0.236-0.025-0.514-0.072-0.823
					C125.393,214.14,122.972,215.779,120.039,215.779z"/>
			</g>
			<path style="fill:#726658;" d="M114.655,214.484c-0.009,0.008-0.015,0.016-0.024,0.024c0.648,1.198,1.966,2.132,3.602,2.535
				C117.75,216.244,115.908,213.409,114.655,214.484z"/>
			<path style="fill:#726658;" d="M125.428,214.484c0.009,0.008,0.015,0.016,0.024,0.024c-0.648,1.198-1.966,2.132-3.602,2.535
				C122.333,216.244,124.176,213.409,125.428,214.484z"/>
		</g>
		<g>
			<path style="fill:#E07B70;" d="M119.888,238.632c-9.713,0-14.649-11.772-14.649-11.772c1.24,1.199,2.842,2.056,4.611,1.828
				c1.792-0.231,3.441-1.345,4.922-2.31c2.775-1.81,5.55,1.086,5.55,1.086h0.089c0,0,2.775-2.896,5.55-1.086
				c1.48,0.965,3.13,2.079,4.922,2.31c1.768,0.228,3.371-0.629,4.611-1.828c0,0-4.936,11.772-14.649,11.772H119.888z"/>
			<path style="opacity:0.7;fill:#9B8579;" d="M105.381,226.714c7.123,5.82,16.416,7.377,24.743,3.193
				c1.792-0.843,3.625-2.049,5.242-3.206c0.199-0.16,0.466,0.148,0.254,0.319c-1.071,0.888-2.174,1.743-3.351,2.49
				c-6.001,3.921-13.51,4.871-20.155,2.034c-2.589-1.09-4.996-2.582-7.017-4.537C104.926,226.823,105.167,226.527,105.381,226.714
				L105.381,226.714z"/>
		</g>
		<g>
			<g>
				<path style="fill:#ABE1FA;" d="M79.633,68.262c0,0-8.044-16.092,41.28-16.092h-0.781c49.324,0,41.28,16.092,41.28,16.092
					S132.136,58.253,79.633,68.262z"/>
				<path style="opacity:0.5;fill:#ABE1FA;" d="M79.633,68.262c52.503-10.009,81.779,0,81.779,0s0.668-1.341,0.436-3.247
					c-12.033-6.423-25.988-11.393-40.871-11.393c-15.278,0-29.576,5.169-41.823,11.911C79.084,67.16,79.633,68.262,79.633,68.262z"
					/>
			</g>
			<g>
				<path style="fill:#ABE1FA;" d="M188.367,89.156c-14.817-19.745-39.473-32.672-67.39-32.672
					c-28.495,0-53.594,13.467-68.299,33.906c17.448-14.06,41.747-22.786,68.628-22.786
					C147.391,67.604,171.045,75.821,188.367,89.156z"/>
				<path style="opacity:0.5;fill:#ABE1FA;" d="M124.507,67.65c2.844-1.896,5.118-5.76,6.261-10.625
					c-3.211-0.354-6.477-0.542-9.791-0.542c-3.619,0-7.182,0.219-10.677,0.64c1.159,4.857,3.449,8.705,6.305,10.572
					c1.558-0.059,3.124-0.092,4.7-0.092C122.378,67.604,123.444,67.623,124.507,67.65z"/>
				<path style="opacity:0.5;fill:#ABE1FA;" d="M59.773,85.219c16.674-10.996,38.124-17.615,61.533-17.615
					c23.408,0,44.856,6.621,61.529,17.615c-16.674-15.206-38.121-24.362-61.529-24.362C97.897,60.857,76.447,70.012,59.773,85.219z"
					/>
			</g>
			<g>
				<ellipse style="fill:#ABE1FA;" cx="120.523" cy="49.887" rx="10.057" ry="17.333"/>
				<path style="fill:#ABE1FA;" d="M126.821,49.887c0,5.994-2.82,10.854-6.298,10.854c-3.478,0-6.298-4.859-6.298-10.854
					s2.82-10.854,6.298-10.854C124.001,39.033,126.821,43.893,126.821,49.887z"/>
			</g>
		</g>
		<g>
			<path style="fill:#F99D1C;" d="M113.501,101.152c0,0-8.675,40.858-39.568,42.251c0,0,18.555-3.13,23.026-30.626
				c0,0-7.824,19.896-23.473,28.391c-15.648,8.495-18.555,36.885-9.836,61.476c0,0-29.956-19.896-34.427-53.205
				c-4.471-33.309,25.708-84.725,90.09-84.725s93.443,42.921,93.443,80.254s-36.886,58.346-36.886,58.346s9.999-33.907,1.565-50.298
				C161.476,121.997,120.431,133.119,113.501,101.152z"/>
			<path style="opacity:0.3;fill:#F99D1C;" d="M29.174,149.015c0.017,0.141,0.031,0.283,0.049,0.423
				c4.471,33.309,34.427,53.205,34.427,53.205c-2.938-8.287-4.554-17.005-4.809-25.248
				C46.956,169.836,36.847,160.175,29.174,149.015z"/>
			<path style="opacity:0.3;fill:#F99D1C;" d="M180.389,179.396c-1.202,12.67-4.518,23.918-4.518,23.918s33.447-19.056,36.64-53.112
				C204.234,161.863,193.263,171.827,180.389,179.396z"/>
			<path style="fill:#F99D1C;" d="M119.314,68.585c63.217,0,92.378,41.382,93.412,78.222c0.02-0.609,0.031-1.221,0.031-1.839
				c0-37.333-29.061-80.254-93.443-80.254c-61.431,0-91.721,46.81-90.485,80.036C29.96,111.88,60.233,68.585,119.314,68.585z"/>
		</g>
	</g>
</g>
</svg>
