<?xml version="1.0" encoding="utf-8"?>
<!-- Generator: Adobe Illustrator 23.0.1, SVG Export Plug-In . SVG Version: 6.00 Build 0)  -->
<svg version="1.1" xmlns="http://www.w3.org/2000/svg" xmlns:xlink="http://www.w3.org/1999/xlink" x="0px" y="0px"
	 viewBox="0 0 1024 1094" style="enable-background:new 0 0 1024 1094;" xml:space="preserve">
<style type="text/css">
	.st0{opacity:0;fill:#FFFFFF;}
	.st1{fill:#1D1F25;}
	.st2{fill:#E0ECDE;}
	.st3{fill:#FFCED9;}
	.st4{fill:#F7F5FF;}
	.st5{opacity:0.2;}
	.st6{fill:#BC5570;}
	.st7{fill:#F796A7;}
	.st8{opacity:0.4;fill:#F796A7;}
	.st9{fill:#FEFFFF;}
	.st10{fill:#E5738B;}
	.st11{fill:#DDA2DC;}
	.st12{opacity:0.4;}
	.st13{fill:#C178C1;}
	.st14{fill:#F7C6F7;}
</style>
<g id="Layer_1">
	<rect class="st0" width="1024" height="1023"/>
	<rect x="1" y="1024" class="st1" width="1024" height="70"/>
	<g>
		<g>
			<g>
				<path class="st2" d="M279.12,1043.44h5.2c4.09,0,7.46,1.08,10.11,3.2c2.67,2.14,4,5.19,4,9.15c0,4.08-1.32,7.2-3.96,9.36
					c-2.65,2.17-6.06,3.24-10.24,3.24h-5.1V1043.44z M282.25,1065.56h1.1c1.62,0,3.16-0.16,4.6-0.48c1.45-0.33,2.71-0.86,3.79-1.62
					c1.07-0.78,1.94-1.77,2.58-2.99c0.64-1.22,0.97-2.74,0.97-4.55c0-1.79-0.32-3.32-0.95-4.59c-0.63-1.28-1.51-2.26-2.66-2.97
					c-1.13-0.72-2.38-1.25-3.75-1.58c-1.37-0.35-2.9-0.5-4.59-0.5h-1.1V1065.56z"/>
				<path class="st2" d="M303.03,1061.16c0.04,1.38,0.49,2.59,1.33,3.61c0.87,1.02,1.99,1.51,3.36,1.51c1.09,0,1.98-0.25,2.69-0.75
					c0.7-0.51,1.36-1.25,1.98-2.26l2.54,1.43c-0.73,1.32-1.75,2.35-3.03,3.12c-1.28,0.74-2.68,1.11-4.21,1.11
					c-2.34,0-4.2-0.76-5.6-2.31c-1.38-1.59-2.07-3.51-2.07-5.83c0-2.43,0.66-4.45,1.98-6.01c1.29-1.56,3.17-2.31,5.64-2.31
					c2.41,0,4.21,0.75,5.44,2.31c1.24,1.54,1.87,3.52,1.87,5.93v0.46H303.03z M311.93,1058.91c-0.19-1.2-0.63-2.15-1.39-2.83
					c-0.75-0.7-1.72-1.05-2.92-1.05c-0.57,0-1.12,0.08-1.62,0.27c-0.5,0.2-0.94,0.48-1.33,0.82c-0.38,0.36-0.71,0.77-0.98,1.25
					c-0.25,0.49-0.42,0.99-0.5,1.55H311.93z"/>
				<path class="st2" d="M323.78,1056.46c-0.45-0.92-1.11-1.37-2-1.37c-0.42,0-0.8,0.15-1.13,0.45c-0.34,0.3-0.5,0.67-0.5,1.08
					c0,0.4,0.13,0.75,0.38,1.02c0.25,0.28,0.6,0.53,1.05,0.78c0.29,0.13,0.51,0.25,0.67,0.3c0.15,0.09,0.4,0.21,0.77,0.37
					c0.17,0.07,0.33,0.16,0.46,0.2c0.13,0.04,0.23,0.08,0.3,0.13c1.1,0.51,1.99,1.09,2.64,1.76c0.64,0.65,0.97,1.55,0.97,2.64
					c0,1.46-0.54,2.69-1.6,3.67c-1.04,0.98-2.31,1.46-3.77,1.46c-0.61,0-1.19-0.08-1.74-0.25c-0.55-0.15-1.07-0.39-1.56-0.69
					c-0.48-0.3-0.89-0.66-1.26-1.09c-0.37-0.44-0.65-0.92-0.85-1.43l2.57-1.15c0.73,1.32,1.68,1.97,2.84,1.97
					c0.47,0,0.9-0.12,1.29-0.38c0.41-0.25,0.71-0.57,0.89-0.95c0.19-0.4,0.23-0.81,0.12-1.28c-0.11-0.43-0.45-0.87-1.03-1.27
					l-2.95-1.55c-0.5-0.26-0.95-0.53-1.33-0.8c-0.38-0.27-0.69-0.55-0.93-0.84c-0.25-0.3-0.43-0.63-0.56-0.98
					c-0.12-0.38-0.18-0.79-0.18-1.28c0-1.26,0.44-2.32,1.34-3.19c0.89-0.88,1.97-1.31,3.26-1.31c1.96,0,3.38,0.88,4.27,2.71
					L323.78,1056.46z"/>
				<path class="st2" d="M334.54,1045.83c0,0.55-0.2,1.03-0.6,1.42c-0.4,0.4-0.89,0.6-1.46,0.6c-0.58,0-1.07-0.19-1.47-0.6
					c-0.4-0.39-0.6-0.87-0.6-1.42c0-0.58,0.2-1.07,0.6-1.48c0.4-0.41,0.89-0.6,1.47-0.6c0.57,0,1.06,0.19,1.46,0.6
					C334.34,1044.76,334.54,1045.24,334.54,1045.83z M333.98,1068.4h-3.01v-15.49h3.01V1068.4z"/>
				<path class="st2" d="M353.39,1068.12c0,2.9-0.55,5.17-1.67,6.79c-1.12,1.58-3.1,2.37-5.94,2.37c-2.2,0-4-0.63-5.4-1.88
					c-1.38-1.25-2.09-2.96-2.13-5.13h2.99c0,1.39,0.44,2.46,1.28,3.24c0.87,0.75,2,1.13,3.4,1.13c1.71,0,2.88-0.49,3.52-1.5
					c0.63-1,0.94-2.38,0.94-4.2v-2.95h-0.07c-0.62,0.95-1.39,1.67-2.31,2.18c-0.92,0.52-1.91,0.77-2.98,0.77
					c-2.32,0-4.15-0.8-5.48-2.41c-1.33-1.62-1.98-3.59-1.98-5.96c0-2.24,0.67-4.12,2.02-5.69c1.36-1.62,3.13-2.41,5.31-2.41
					c2.28,0,4.11,1.04,5.42,3.08h0.07v-2.63h3V1068.12z M345.49,1066.28c1.57,0,2.8-0.54,3.69-1.61c0.91-1.11,1.37-2.45,1.37-4.01
					c0-1.55-0.46-2.86-1.37-3.95c-0.88-1.07-2.12-1.62-3.69-1.62c-1.5,0-2.7,0.55-3.61,1.67c-0.89,1.08-1.34,2.38-1.34,3.9
					c0,1.56,0.45,2.88,1.34,3.97C342.8,1065.74,344,1066.28,345.49,1066.28z"/>
				<path class="st2" d="M360.29,1054.99h0.07c0.43-0.83,1.09-1.44,1.93-1.88c0.85-0.45,1.77-0.65,2.77-0.65
					c1.02,0,1.88,0.14,2.6,0.45c0.7,0.3,1.28,0.74,1.71,1.32c0.44,0.58,0.75,1.27,0.94,2.1c0.19,0.82,0.28,1.78,0.28,2.82v9.24h-3
					v-8.87c0-1.53-0.23-2.64-0.66-3.34c-0.45-0.73-1.37-1.1-2.77-1.1c-0.52,0-0.95,0.05-1.3,0.15c-0.36,0.09-0.67,0.23-0.94,0.42
					c-0.27,0.19-0.49,0.41-0.67,0.65c-0.17,0.25-0.35,0.51-0.5,0.81c-0.07,0.14-0.13,0.35-0.19,0.59c-0.05,0.24-0.1,0.49-0.14,0.73
					c-0.05,0.26-0.09,0.51-0.1,0.77c-0.02,0.26-0.03,0.46-0.03,0.61v1.45v7.12h-3v-15.49h3V1054.99z"/>
				<path class="st2" d="M384.14,1039.67h3v15.82h0.07c1.38-2.03,3.19-3.03,5.44-3.03c2.17,0,3.95,0.8,5.31,2.41
					c1.35,1.56,2.03,3.45,2.03,5.69c0,2.37-0.67,4.34-2,5.96c-1.34,1.61-3.17,2.41-5.47,2.41c-1.06,0-2.06-0.25-2.99-0.77
					c-0.92-0.51-1.69-1.23-2.31-2.18h-0.07v2.42h-3V1039.67z M391.91,1066.28c1.58,0,2.81-0.54,3.7-1.61
					c0.91-1.11,1.36-2.45,1.36-4.01c0-1.55-0.45-2.86-1.36-3.95c-0.89-1.07-2.12-1.62-3.7-1.62c-1.49,0-2.7,0.55-3.61,1.67
					c-0.89,1.08-1.34,2.38-1.34,3.9c0,1.56,0.45,2.88,1.34,3.97C389.21,1065.74,390.42,1066.28,391.91,1066.28z"/>
				<path class="st2" d="M400.41,1052.91h3.5l5.27,9.83l4.91-9.83h3.37l-12.65,24.37h-3.4l6.15-11.53L400.41,1052.91z"/>
				<path class="st2" d="M432.59,1062.13l-2.87,6.26h-3.37l12-26.01l12.01,26.01h-3.37l-2.88-6.26H432.59z M438.36,1049.2
					l-4.47,10.11h8.94L438.36,1049.2z"/>
				<path class="st2" d="M455.26,1068.4h-3v-28.73h3V1068.4z"/>
				<path class="st2" d="M462.66,1068.4h-2.99v-28.73h2.99V1068.4z"/>
				<path class="st2" d="M474.07,1056.56v2.47h-7.29v-2.47H474.07z"/>
				<path class="st2" d="M485.75,1042.68c-0.94-0.43-1.61-0.62-2-0.62c-0.64,0-1.12,0.18-1.4,0.6c-0.29,0.4-0.48,0.9-0.6,1.5
					c-0.06,0.45-0.1,0.79-0.12,1.05c-0.01,0.24-0.02,0.6-0.02,1.03v6.66h4.14v2.78h-4.14v12.71h-2.99v-12.71h-1.37v-2.78h1.37v-7.55
					c0-4.06,1.67-6.09,5.03-6.09c0.74,0,1.43,0.13,2.11,0.4V1042.68z"/>
				<path class="st2" d="M490.39,1055.43h0.09c0.39-0.93,0.94-1.66,1.68-2.18c0.74-0.55,1.6-0.79,2.59-0.79
					c0.83,0,1.65,0.24,2.47,0.75l-1.37,2.72c-0.48-0.42-1.1-0.63-1.83-0.63c-1.53,0-2.56,0.62-3.07,1.84
					c-0.22,0.58-0.38,1.17-0.46,1.72c-0.07,0.55-0.11,1.2-0.11,1.92v7.62h-3v-15.49h3V1055.43z"/>
				<path class="st2" d="M500.69,1061.16c0.05,1.38,0.48,2.59,1.33,3.61c0.88,1.02,1.99,1.51,3.37,1.51c1.09,0,1.99-0.25,2.69-0.75
					c0.7-0.51,1.36-1.25,1.98-2.26l2.53,1.43c-0.73,1.32-1.73,2.35-3.02,3.12c-1.27,0.74-2.68,1.11-4.22,1.11
					c-2.32,0-4.2-0.76-5.6-2.31c-1.37-1.59-2.07-3.51-2.07-5.83c0-2.43,0.65-4.45,1.98-6.01c1.28-1.56,3.16-2.31,5.62-2.31
					c2.42,0,4.23,0.75,5.45,2.31c1.25,1.54,1.86,3.52,1.86,5.93v0.46H500.69z M509.59,1058.91c-0.18-1.2-0.64-2.15-1.39-2.83
					c-0.74-0.7-1.72-1.05-2.92-1.05c-0.57,0-1.12,0.08-1.61,0.27c-0.5,0.2-0.95,0.48-1.34,0.82c-0.39,0.36-0.71,0.77-0.97,1.25
					c-0.24,0.49-0.43,0.99-0.52,1.55H509.59z"/>
				<path class="st2" d="M516.96,1061.16c0.05,1.38,0.5,2.59,1.34,3.61c0.86,1.02,1.98,1.51,3.36,1.51c1.1,0,1.99-0.25,2.69-0.75
					c0.7-0.51,1.37-1.25,1.98-2.26l2.53,1.43c-0.73,1.32-1.73,2.35-3,3.12c-1.28,0.74-2.69,1.11-4.23,1.11
					c-2.33,0-4.2-0.76-5.6-2.31c-1.38-1.59-2.07-3.51-2.07-5.83c0-2.43,0.65-4.45,1.97-6.01c1.29-1.56,3.16-2.31,5.65-2.31
					c2.39,0,4.21,0.75,5.42,2.31c1.25,1.54,1.86,3.52,1.86,5.93v0.46H516.96z M525.88,1058.91c-0.18-1.2-0.65-2.15-1.39-2.83
					c-0.75-0.7-1.73-1.05-2.91-1.05c-0.59,0-1.13,0.08-1.63,0.27c-0.5,0.2-0.95,0.48-1.33,0.82c-0.39,0.36-0.73,0.77-0.97,1.25
					c-0.26,0.49-0.43,0.99-0.52,1.55H525.88z"/>
				<path class="st2" d="M538.57,1056.56v2.47h-7.29v-2.47H538.57z"/>
				<path class="st2" d="M554.15,1065.98h-0.05c-0.63,0.95-1.4,1.67-2.33,2.18c-0.92,0.52-1.92,0.77-2.98,0.77
					c-2.33,0-4.14-0.8-5.47-2.41c-1.34-1.62-2-3.59-2-5.96c0-2.24,0.67-4.12,2.03-5.69c1.36-1.62,3.12-2.41,5.31-2.41
					c2.24,0,4.05,1,5.44,3.03h0.05v-15.82h3v28.73h-3V1065.98z M549.24,1066.28c1.59,0,2.83-0.54,3.71-1.61
					c0.9-1.11,1.37-2.45,1.37-4.01c0-1.55-0.46-2.86-1.37-3.95c-0.88-1.07-2.12-1.62-3.71-1.62c-1.48,0-2.68,0.55-3.59,1.67
					c-0.89,1.08-1.34,2.38-1.34,3.9c0,1.56,0.45,2.88,1.34,3.97C546.56,1065.74,547.76,1066.28,549.24,1066.28z"/>
				<path class="st2" d="M562.05,1054.83c1.62-1.58,3.61-2.37,5.94-2.37c2.33,0,4.31,0.79,5.9,2.37c1.63,1.59,2.44,3.55,2.44,5.87
					s-0.81,4.27-2.44,5.86c-1.58,1.59-3.57,2.37-5.9,2.37c-2.34,0-4.32-0.78-5.94-2.37c-1.59-1.59-2.39-3.54-2.39-5.86
					S560.46,1056.42,562.05,1054.83z M562.65,1060.7c0,1.43,0.53,2.7,1.58,3.81c1.02,1.06,2.28,1.58,3.77,1.58
					c1.45,0,2.72-0.53,3.76-1.58c1.05-1.1,1.58-2.37,1.58-3.81c0-1.46-0.52-2.73-1.58-3.81c-1.04-1.07-2.31-1.59-3.76-1.59
					c-1.49,0-2.75,0.52-3.77,1.59C563.18,1057.97,562.65,1059.24,562.65,1060.7z"/>
				<path class="st2" d="M584.4,1062.78l4.6-10.73l4.57,10.73l4.53-9.86h3.41l-7.94,16.02l-4.57-10.35l-4.6,10.35l-7.93-16.02h3.4
					L584.4,1062.78z"/>
				<path class="st2" d="M606.01,1054.99h0.06c0.44-0.83,1.1-1.44,1.95-1.88c0.83-0.45,1.77-0.65,2.76-0.65
					c1.03,0,1.89,0.14,2.6,0.45c0.71,0.3,1.29,0.74,1.71,1.32c0.46,0.58,0.76,1.27,0.95,2.1c0.19,0.82,0.27,1.78,0.27,2.82v9.24h-3
					v-8.87c0-1.53-0.21-2.64-0.66-3.34c-0.46-0.73-1.37-1.1-2.78-1.1c-0.51,0-0.94,0.05-1.31,0.15c-0.34,0.09-0.66,0.23-0.92,0.42
					c-0.27,0.19-0.5,0.41-0.67,0.65c-0.18,0.25-0.33,0.51-0.5,0.81c-0.05,0.14-0.12,0.35-0.17,0.59c-0.06,0.24-0.1,0.49-0.16,0.73
					c-0.03,0.26-0.07,0.51-0.1,0.77c-0.01,0.26-0.03,0.46-0.03,0.61v1.45v7.12h-3v-15.49h3V1054.99z"/>
				<path class="st2" d="M623.58,1068.4h-3v-28.73h3V1068.4z"/>
				<path class="st2" d="M628.85,1054.83c1.63-1.58,3.61-2.37,5.94-2.37c2.32,0,4.3,0.79,5.9,2.37c1.62,1.59,2.43,3.55,2.43,5.87
					s-0.81,4.27-2.43,5.86c-1.6,1.59-3.58,2.37-5.9,2.37c-2.33,0-4.31-0.78-5.94-2.37c-1.61-1.59-2.4-3.54-2.4-5.86
					S627.25,1056.42,628.85,1054.83z M629.46,1060.7c0,1.43,0.52,2.7,1.57,3.81c1.02,1.06,2.28,1.58,3.77,1.58
					c1.47,0,2.72-0.53,3.76-1.58c1.06-1.1,1.58-2.37,1.58-3.81c0-1.46-0.53-2.73-1.58-3.81c-1.04-1.07-2.28-1.59-3.76-1.59
					c-1.5,0-2.75,0.52-3.77,1.59C629.98,1057.97,629.46,1059.24,629.46,1060.7z"/>
				<path class="st2" d="M660.5,1068.4h-3v-2.42h-0.07c-1.33,1.98-3.1,2.95-5.3,2.95c-2.29,0-4.11-0.8-5.48-2.41
					c-1.33-1.62-1.98-3.59-1.98-5.96c0-2.24,0.68-4.12,2.02-5.69c1.36-1.62,3.14-2.41,5.33-2.41c2.23,0,4.04,1,5.41,3.03h0.07v-2.57
					h3V1068.4z M652.6,1066.28c1.57,0,2.81-0.54,3.71-1.61c0.9-1.11,1.35-2.45,1.35-4.01c0-1.55-0.45-2.86-1.35-3.95
					c-0.9-1.07-2.14-1.62-3.71-1.62c-1.49,0-2.7,0.55-3.6,1.67c-0.89,1.08-1.33,2.38-1.33,3.9c0,1.56,0.44,2.88,1.33,3.97
					C649.9,1065.74,651.11,1066.28,652.6,1066.28z"/>
				<path class="st2" d="M676.05,1065.98h-0.07c-0.62,0.95-1.4,1.67-2.32,2.18c-0.91,0.52-1.91,0.77-2.98,0.77
					c-2.32,0-4.13-0.8-5.47-2.41c-1.34-1.62-1.99-3.59-1.99-5.96c0-2.24,0.67-4.12,2.04-5.69c1.35-1.62,3.11-2.41,5.29-2.41
					c2.25,0,4.06,1,5.44,3.03h0.07v-15.82h3v28.73h-3V1065.98z M671.15,1066.28c1.58,0,2.81-0.54,3.7-1.61
					c0.92-1.11,1.36-2.45,1.36-4.01c0-1.55-0.45-2.86-1.36-3.95c-0.89-1.07-2.12-1.62-3.7-1.62c-1.5,0-2.69,0.55-3.61,1.67
					c-0.88,1.08-1.32,2.38-1.32,3.9c0,1.56,0.44,2.88,1.32,3.97C668.46,1065.74,669.65,1066.28,671.15,1066.28z"/>
				<path class="st2" d="M687.65,1067.02c0,0.53-0.18,0.99-0.56,1.36c-0.38,0.37-0.84,0.55-1.38,0.55c-0.52,0-1-0.19-1.37-0.55
					c-0.37-0.37-0.57-0.83-0.57-1.36c0-0.51,0.2-0.96,0.57-1.35c0.37-0.37,0.85-0.56,1.37-0.56c0.53,0,1,0.19,1.38,0.56
					C687.47,1066.05,687.65,1066.51,687.65,1067.02z"/>
				<path class="st2" d="M704.05,1057.32c-1.24-1.39-2.74-2.1-4.47-2.1c-1.45,0-2.67,0.56-3.69,1.64c-1,1.09-1.5,2.38-1.5,3.8
					c0,1.62,0.5,2.91,1.5,3.93c1.04,1.04,2.33,1.57,3.88,1.57c1.61,0,3.04-0.7,4.28-2.07v3.81c-1.29,0.69-2.72,1.02-4.29,1.02
					c-2.31,0-4.3-0.77-5.94-2.35c-1.63-1.55-2.43-3.47-2.43-5.79c0-2.38,0.81-4.36,2.43-5.96c1.62-1.58,3.65-2.37,6.1-2.37
					c1.61,0,2.99,0.33,4.14,1.02V1057.32z"/>
				<path class="st2" d="M708.3,1054.83c1.62-1.58,3.6-2.37,5.94-2.37c2.34,0,4.31,0.79,5.91,2.37c1.61,1.59,2.42,3.55,2.42,5.87
					s-0.8,4.27-2.42,5.86c-1.6,1.59-3.57,2.37-5.91,2.37c-2.33,0-4.31-0.78-5.94-2.37c-1.6-1.59-2.41-3.54-2.41-5.86
					S706.7,1056.42,708.3,1054.83z M708.9,1060.7c0,1.43,0.5,2.7,1.56,3.81c1.02,1.06,2.28,1.58,3.77,1.58
					c1.46,0,2.73-0.53,3.77-1.58c1.04-1.1,1.56-2.37,1.56-3.81c0-1.46-0.53-2.73-1.56-3.81c-1.04-1.07-2.31-1.59-3.77-1.59
					c-1.5,0-2.75,0.52-3.77,1.59C709.4,1057.97,708.9,1059.24,708.9,1060.7z"/>
				<path class="st2" d="M728.21,1054.87h0.08c0.43-0.72,1.02-1.29,1.78-1.76c0.74-0.43,1.53-0.65,2.35-0.65
					c1.95,0,3.45,0.9,4.5,2.73c0.48-0.83,1.16-1.5,2.02-2c0.84-0.5,1.79-0.73,2.78-0.73c3.46,0,5.17,2.22,5.17,6.68v9.26h-3v-8.77
					c0-0.39-0.02-0.8-0.05-1.18c-0.04-0.38-0.09-0.75-0.19-1.13c-0.09-0.35-0.22-0.68-0.41-1c-0.17-0.3-0.42-0.58-0.72-0.83
					c-0.4-0.26-0.91-0.39-1.53-0.39c-0.63,0-1.16,0.13-1.59,0.39c-0.43,0.25-0.76,0.57-0.99,0.92c-0.25,0.35-0.43,0.84-0.56,1.37
					c-0.12,0.54-0.21,1.05-0.25,1.5c-0.02,0.43-0.05,0.95-0.05,1.51v7.62h-3.01v-8.2c0-0.53,0-0.96-0.03-1.31
					c-0.02-0.37-0.09-0.8-0.2-1.35c-0.11-0.57-0.25-0.98-0.43-1.25c-0.18-0.3-0.45-0.58-0.83-0.83c-0.38-0.24-0.84-0.36-1.37-0.36
					c-1.54,0-2.52,0.67-2.96,1.99c-0.21,0.61-0.34,1.21-0.41,1.74c-0.06,0.56-0.09,1.21-0.09,1.96v7.62h-3v-15.49h3V1054.87z"/>
			</g>
			<g>
				<g>
					<path class="st2" d="M209.16,1059.27c14.16,0,28.32,0,42.48,0c1.29,0,1.29-1.99,0-1.99c-14.16,0-28.32,0-42.48,0
						C207.88,1057.29,207.88,1059.27,209.16,1059.27L209.16,1059.27z"/>
				</g>
				<g>
					<path class="st2" d="M774.36,1059.27c14.15,0,28.31,0,42.47,0c1.3,0,1.3-1.99,0-1.99c-14.15,0-28.32,0-42.47,0
						C773.08,1057.29,773.08,1059.27,774.36,1059.27L774.36,1059.27z"/>
				</g>
			</g>
		</g>
	</g>
</g>
<g id="Layer_2">
	<g>
		<path class="st3" d="M280.1,582.15c3.82,2.3,7.95,4.17,12.04,5.95c14.72,6.38,29.67,12.19,44.79,17.55
			c5.32-6.68,10.46-13.51,15.4-20.48C328.22,585.67,304.08,584.67,280.1,582.15z"/>
		<path class="st4" d="M752.28,575.31c-24.27-8.32-47.31-20.29-67.99-35.47c-6.62-4.86-12.78-9.94-19.05-14.52
			c0.93,19.87,7.39,37.91,22.92,52.79c12.63,12.1,27.61,21.8,43.82,28.38c17.71,7.18,35.03,8.69,53.9,9.46
			c2.32,0.09,7.46,0.24,9.11,2.43c16.5-8.58,31.75-19.53,45.17-32.4C814.53,595.63,776.87,583.74,752.28,575.31z"/>
		<g class="st5">
			<path class="st6" d="M673.38,559.08c0.78-1.47,1.68-2.88,2.67-4.22c0.99-1.35,2.08-2.62,3.24-3.84c1.17-1.2,2.39-2.37,3.71-3.42
				c1.31-1.06,2.67-2.07,4.11-2.96c0.81-0.5,1.87-0.25,2.37,0.56c0.17,0.27,0.25,0.56,0.26,0.86l0,0.06
				c0.12,5.28,0.1,10.56,0.15,15.84l0.11,15.84l-2.88-1.7c5.22-2.9,10.62-5.46,16.2-7.6c5.57-2.15,11.29-3.92,17.1-5.29
				c1.1-0.26,2.21,0.42,2.47,1.53c0.04,0.17,0.06,0.35,0.05,0.52c-0.12,6.3,0.15,12.61,0.74,18.88c0.59,6.27,1.54,12.51,2.93,18.64
				l-2.77-1.36c13.72-6.23,27.07-13.29,39.94-21.14l0.01-0.01c0.86-0.52,1.98-0.25,2.5,0.61c0.2,0.33,0.28,0.7,0.26,1.06
				c-0.32,5.22-0.75,10.43-1.36,15.62c-0.61,5.19-1.34,10.36-2.21,15.51l-2.31-1.7c3.26-1.59,6.49-3.25,9.68-5
				c3.19-1.74,6.32-3.58,9.43-5.45c6.22-3.76,12.26-7.82,18.09-12.17l0.02-0.02c0.48-0.36,1.15-0.26,1.51,0.22
				c0.13,0.18,0.2,0.38,0.21,0.58c0.27,4.52,0.32,9.05,0.26,13.58c-0.07,4.52-0.3,9.04-0.71,13.54c-0.03,0.28-0.27,0.48-0.55,0.46
				c-0.27-0.02-0.47-0.25-0.46-0.52c0.15-4.49,0.18-8.99,0.07-13.47c-0.11-4.49-0.4-8.96-0.78-13.43l1.74,0.78
				c-5.75,4.57-11.74,8.86-17.92,12.85c-3.09,2-6.25,3.88-9.45,5.71c-3.2,1.82-6.44,3.57-9.73,5.23c-0.79,0.4-1.76,0.08-2.16-0.71
				c-0.16-0.31-0.2-0.65-0.16-0.97l0-0.03c0.77-5.11,1.42-10.24,1.93-15.38c0.5-5.14,0.93-10.29,1.2-15.45l2.78,1.66
				c-12.94,8.02-26.37,15.25-40.19,21.65c-1,0.46-2.18,0.03-2.64-0.97c-0.06-0.12-0.1-0.25-0.13-0.37l-0.01-0.02
				c-1.48-6.31-2.51-12.71-3.16-19.14c-0.65-6.43-0.86-12.9-0.73-19.37l2.52,2.04c-5.63,1.31-11.18,3.01-16.58,5.08
				c-5.41,2.06-10.69,4.46-15.78,7.22l-0.02,0.01c-0.94,0.51-2.12,0.16-2.63-0.78c-0.16-0.29-0.24-0.62-0.24-0.93l0.06-15.84
				c0.04-5.28,0-10.56,0.1-15.84l2.63,1.48c-1.35,0.8-2.69,1.62-3.98,2.54c-1.28,0.92-2.56,1.85-3.78,2.87
				c-1.23,1-2.41,2.08-3.57,3.18c-1.15,1.11-2.27,2.27-3.38,3.47c-0.19,0.21-0.51,0.22-0.72,0.03
				C673.31,559.53,673.27,559.28,673.38,559.08z"/>
		</g>
		<path class="st7" d="M789.85,626.07c-10.98,5.7-20.29,13.55-31.45,18.86c-11.76,5.6-24.07,10.02-36.61,13.5
			c-14.41,4-29.1,6.77-43.92,8.77c7.52,7.43,17.3,12.8,27.43,16.16c19.58,6.51,40.54,8.22,60.76,11.91
			c19.95,3.64,39.84,7.75,59.36,13.3c11.8,3.35,23.28,7.7,34.67,12.2c4.83,1.91,26.05,14.03,29.76,7.03c0.55-1.04,0.42-2.3,0.2-3.45
			c-2.92-15.58-15.8-29.57-26.25-40.73c-11.15-11.91-22.63-23.32-35.11-33.85c-11.12-9.38-21.55-19.8-33.87-27.64
			C793.78,623.99,791.76,625.08,789.85,626.07z"/>
		<path class="st7" d="M613.21,336.42c-44.17-50.28-112.56-83.63-175.83-101.31c-7.93-2.22-75.57-16.33-69.37,1.01
			c3.84,10.72,21.09,16.75,29.83,23.05c11.82,8.53,22.75,18.26,32.58,29.03c21.74,23.81,37.57,51.7,45.63,82.2
			c31.35-13.16,64.09-23.02,97.51-29.25C586.82,338.68,600.01,337.21,613.21,336.42z"/>
		<path class="st3" d="M794.97,618.38c-1.65-2.19-6.78-2.34-9.11-2.43c-18.87-0.77-36.19-2.27-53.9-9.46
			c-16.21-6.58-31.19-16.27-43.82-28.38c-15.52-14.88-21.99-32.92-22.92-52.79c-11.95-8.73-24.34-15.61-41.21-15.47
			c-22.28,0.18-42.51,4.88-62.92,9.97c-7.28,38.72-27.16,75.17-55.69,102.24c-12.56,11.92-26.6,22.04-41.46,30.94
			c4.93,1.55,9.96,2.86,14.97,4.08c53.97,13.18,110.02,17.49,165.41,13.52c11.2-0.8,22.4-1.89,33.54-3.4
			c14.81-2,29.51-4.76,43.92-8.77c12.55-3.49,24.85-7.9,36.61-13.5c11.16-5.31,20.47-13.16,31.45-18.86
			c1.91-0.99,3.93-2.08,4.97-3.94c0.05-0.09,0.12-0.15,0.17-0.24C795.74,620.34,795.6,619.21,794.97,618.38z"/>
		<path class="st7" d="M992.8,425.82c-9.94-24.64-51.68-29.76-73.43-36.73c-22.31-7.15-44.79-13.76-67.43-19.81
			c-54.86-14.66-110.22-27.79-167.07-31.77c-24.14-1.69-47.92-2.52-71.67-1.09c-13.2,0.79-26.39,2.27-39.64,4.73
			c-33.43,6.23-66.16,16.09-97.51,29.25c-1.67,0.7-3.35,1.37-5.01,2.09c-46.51,20.14-87.98,49.27-131.9,74.21
			c-41.64,23.64-83.46,47.37-128.12,64.63c-7.79,3.01-16.68,5.79-24.22,2.2c-18.47-8.78-20.74-34.46-23.04-52.16
			c-3.87-29.86-14.69-57.52-34.98-80.09c-4.33-4.81-22.65-26.84-26.13-10.77c-0.84,3.9,0.6,7.89,1.93,11.65
			c20.88,58.92,23.08,128.42-14.23,181.19c-16.07,22.73-36.72,41.79-57.52,60.3c-15.96,14.2,22.23,7.36,27.1,6.11
			c18.04-4.65,34.7-13.67,50.46-23.39c16.72-10.32,32.94-21.48,50.61-30.16c18.95-9.31,32.17-9.58,53.03-4.87
			c21.78,4.91,43.85,8.48,66.05,10.82c23.98,2.53,48.12,3.53,72.23,3.02c-4.94,6.97-10.08,13.8-15.4,20.48
			c-32.85,41.22-72.79,76.79-117.65,104.46c-1.5,0.93-3.13,2-3.62,3.7c-1.1,3.85,4.09,6.25,8.07,6.73
			c14.93,1.82,29.99,1.86,44.87-0.4c43.23-6.57,85.67-18.22,126.32-34.33c23.47-9.3,47.15-19.7,69.04-32.8
			c14.86-8.89,28.91-19.02,41.46-30.94c28.53-27.07,48.4-63.53,55.69-102.24c20.41-5.1,40.63-9.79,62.92-9.97
			c16.87-0.14,29.25,6.74,41.21,15.47c6.27,4.58,12.43,9.66,19.05,14.52c20.69,15.19,43.72,27.15,67.99,35.47
			c24.59,8.43,62.25,20.32,87.87,10.67c0.24-0.09,0.49-0.15,0.73-0.24c25.89-10.25,41.3-38.22,61.18-55.78
			c15.97-14.1,33.19-26.76,49.8-40.07C969.68,475.6,1004.1,453.83,992.8,425.82z"/>
		<path class="st8" d="M684.88,337.51c-24.14-1.69-47.92-2.52-71.67-1.09c-15.37-17.49-33.71-32.89-53.7-46.34
			c-4.18,0.63-8.35,1.42-12.47,2.36c-8.62,1.98-18.32,5.82-20.78,14.31c-1.47,5.07,0.12,10.46,1.79,15.47
			c1.89,5.65,3.9,11.34,4.31,17.28c0.26,3.87-0.17,7.7-0.8,11.53c-0.65,3.97-1.51,7.94-2.04,11.92c-1.03,7.83-0.48,16.55,4.79,22.43
			c7.14,7.96,20.14,7.42,29.72,2.67c9.58-4.74,17.14-12.72,26.04-18.64c9.9-6.59,21.85-10.64,33.67-9.4
			c5.96,0.63,11.69,2.55,17.47,4.12c14.31,3.88,30.23,5.42,43.43-1.33c9.6-4.91,16.53-13.62,21.36-23.4
			C698.97,338.64,691.94,338.01,684.88,337.51z"/>
		<g>
			<g>
				<path class="st6" d="M620.38,410.56c-2.56-0.83-4.77-2.31-6.56-4.07c-1.8-1.76-3.22-3.8-4.33-5.96
					c-2.2-4.32-3.16-8.92-4.12-13.41c-0.05-0.22,0.09-0.44,0.31-0.48c0.2-0.04,0.4,0.07,0.47,0.26c1.51,4.34,3.06,8.7,5.54,12.33
					c1.23,1.8,2.7,3.41,4.37,4.67c1.66,1.26,3.53,2.15,5.42,2.5c1.17,0.22,1.94,1.34,1.72,2.51c-0.22,1.17-1.34,1.94-2.51,1.72
					c-0.09-0.02-0.18-0.04-0.26-0.07L620.38,410.56z"/>
			</g>
			<g>
				<path class="st6" d="M620.49,419.61c-6.6,0.59-13.15-1.11-18.63-4.32c-5.49-3.21-10.01-8-12.57-13.69c-0.09-0.2,0-0.45,0.2-0.54
					c0.19-0.09,0.42-0.01,0.52,0.17c2.99,5.25,7.71,9.33,13.03,11.79c5.32,2.48,11.33,3.36,16.88,2.32
					c1.17-0.22,2.29,0.55,2.51,1.72s-0.55,2.29-1.72,2.51c-0.07,0.01-0.14,0.02-0.2,0.03L620.49,419.61z"/>
			</g>
			<g>
				<path class="st6" d="M628.46,404.61c-4.15-7.85-5.87-16.74-5.06-25.24c0.02-0.22,0.22-0.39,0.44-0.37
					c0.21,0.02,0.36,0.19,0.37,0.39c0.36,8.37,3.21,16.45,7.9,22.97c0.69,0.96,0.48,2.31-0.49,3s-2.31,0.48-3-0.49
					c-0.06-0.08-0.11-0.16-0.15-0.24L628.46,404.61z"/>
			</g>
		</g>
		<g>
			<g>
				<path class="st6" d="M493.1,438.72c-0.09,0.86-0.23,1.7-0.37,2.53l-0.33,2.51l-0.23,2.5c-0.04,0.84-0.07,1.67-0.14,2.49
					c-0.06,1.66-0.22,3.28-0.3,4.92c-0.07,1.63-0.09,3.27-0.05,4.9c0.05,3.26,0.35,6.5,0.73,9.71c0.4,3.21,0.88,6.41,1.53,9.58
					c0.62,3.21,1.4,6.42,2.18,9.57c0.8,3.15,1.64,6.28,2.63,9.35c0.98,3.07,2.19,6.03,3.57,8.92c1.41,2.89,3.05,5.65,5.27,8.36
					c-3.35-1.09-6.25-3.45-8.6-6.12c-2.38-2.69-4.17-5.79-5.72-8.94c-3.13-6.34-4.83-13.11-6.06-19.87c-0.6-3.44-1-6.91-1.09-10.4
					c-0.1-3.49,0.11-6.99,0.53-10.44c0.22-1.73,0.5-3.44,0.83-5.15c0.35-1.7,0.71-3.4,1.29-5.04c0.56-1.65,1.27-3.24,1.95-4.82
					C491.47,441.73,492.18,440.18,493.1,438.72z"/>
			</g>
			<g>
				<path class="st6" d="M522.19,438.72c-0.09,0.86-0.23,1.7-0.37,2.53l-0.33,2.51l-0.23,2.5c-0.04,0.84-0.07,1.67-0.14,2.49
					c-0.06,1.66-0.22,3.28-0.3,4.92c-0.07,1.63-0.09,3.27-0.05,4.9c0.05,3.26,0.35,6.5,0.73,9.71c0.4,3.21,0.88,6.41,1.53,9.58
					c0.62,3.21,1.4,6.42,2.18,9.57c0.8,3.15,1.64,6.28,2.63,9.35c0.98,3.07,2.19,6.03,3.57,8.92c1.41,2.89,3.05,5.65,5.27,8.36
					c-3.35-1.09-6.25-3.45-8.6-6.12c-2.38-2.69-4.17-5.79-5.72-8.94c-3.13-6.34-4.83-13.11-6.06-19.87c-0.6-3.44-1-6.91-1.09-10.4
					c-0.1-3.49,0.11-6.99,0.53-10.44c0.22-1.73,0.5-3.44,0.83-5.15c0.35-1.7,0.71-3.4,1.29-5.04c0.56-1.65,1.27-3.24,1.95-4.82
					C520.56,441.73,521.27,440.18,522.19,438.72z"/>
			</g>
			<g>
				<path class="st6" d="M549.31,435.72c-0.09,0.86-0.23,1.7-0.37,2.53l-0.33,2.51l-0.23,2.5c-0.04,0.84-0.07,1.67-0.14,2.49
					c-0.06,1.66-0.22,3.28-0.3,4.92c-0.07,1.63-0.09,3.27-0.05,4.9c0.05,3.26,0.35,6.5,0.73,9.71c0.4,3.21,0.88,6.41,1.53,9.58
					c0.62,3.21,1.4,6.42,2.18,9.57c0.8,3.15,1.64,6.28,2.63,9.35c0.98,3.07,2.19,6.03,3.57,8.92c1.41,2.89,3.05,5.65,5.27,8.36
					c-3.35-1.09-6.25-3.45-8.6-6.12c-2.38-2.69-4.17-5.79-5.72-8.94c-3.13-6.34-4.83-13.11-6.06-19.87c-0.6-3.44-1-6.91-1.09-10.41
					c-0.1-3.49,0.11-6.99,0.53-10.44c0.22-1.73,0.5-3.44,0.83-5.15c0.35-1.7,0.71-3.4,1.29-5.04c0.56-1.65,1.27-3.24,1.95-4.82
					C547.68,438.72,548.39,437.17,549.31,435.72z"/>
			</g>
			<g>
				<path class="st6" d="M576.44,431.96c-0.09,0.86-0.23,1.7-0.37,2.53l-0.33,2.51l-0.23,2.5c-0.04,0.84-0.07,1.67-0.14,2.49
					c-0.06,1.66-0.22,3.28-0.3,4.92c-0.07,1.63-0.09,3.27-0.05,4.9c0.05,3.26,0.35,6.5,0.73,9.71c0.4,3.21,0.88,6.41,1.53,9.58
					c0.62,3.21,1.4,6.42,2.18,9.57c0.8,3.15,1.64,6.28,2.63,9.35c0.98,3.07,2.19,6.03,3.57,8.92c1.41,2.89,3.05,5.65,5.27,8.36
					c-3.35-1.09-6.25-3.45-8.6-6.12c-2.38-2.69-4.17-5.79-5.72-8.94c-3.13-6.34-4.83-13.11-6.06-19.87c-0.6-3.44-1-6.91-1.09-10.41
					c-0.1-3.49,0.11-6.99,0.53-10.44c0.22-1.73,0.5-3.44,0.83-5.15c0.35-1.7,0.71-3.4,1.29-5.04c0.56-1.65,1.27-3.24,1.95-4.82
					C574.8,434.96,575.52,433.41,576.44,431.96z"/>
			</g>
			<g>
				<path class="st6" d="M818.4,515.37c-0.08-0.85,0.01-1.5,0.16-2.08c0.14-0.59,0.38-1.07,0.65-1.49c0.28-0.42,0.64-0.74,1.01-1.04
					l1.1-0.91c0.76-0.58,1.51-1.18,2.28-1.74l2.37-1.62c3.21-2.09,6.68-3.77,10.27-5.09c3.61-1.28,7.26-2.41,11.02-3.04
					c3.76-0.6,7.61-0.75,11.44-0.04c0.58,0.11,0.96,0.66,0.85,1.24c-0.06,0.34-0.28,0.61-0.57,0.76l-0.01,0.01
					c-3.41,1.67-6.72,2.98-9.99,4.3c-3.27,1.3-6.52,2.56-9.63,4.12c-3.13,1.52-6.19,3.12-9.25,4.74l-2.29,1.23
					c-0.75,0.44-1.52,0.85-2.28,1.27c-1.52,0.88-2.77,2.02-5.88,0.96C818.93,516.71,818.47,516.07,818.4,515.37z"/>
			</g>
			<g>
				<path class="st6" d="M881.75,533.83c-0.04-0.81,0.03-1.39,0.16-1.89c0.12-0.51,0.3-0.89,0.52-1.21
					c0.21-0.34,0.48-0.57,0.77-0.77l0.84-0.64c1.11-0.88,2.23-1.73,3.33-2.59c2.22-1.71,4.49-3.34,6.77-4.97
					c2.32-1.6,4.5-3.37,6.8-5.05c2.32-1.67,4.71-3.29,7.52-4.67l0.01,0c0.54-0.27,1.19-0.04,1.46,0.5c0.13,0.27,0.14,0.57,0.05,0.83
					c-1.02,3.01-2.65,5.63-4.52,8.01c-1.89,2.37-4.07,4.48-6.27,6.57c-2.23,2.05-4.64,3.92-7.23,5.5c-1.31,0.77-2.62,1.52-3.99,2.2
					l-1.02,0.5c-0.34,0.17-0.69,0.32-1.1,0.36c-0.41,0.05-0.86,0.03-1.37-0.12c-0.51-0.13-1.06-0.35-1.74-0.79
					c-0.61-0.4-0.95-1.04-0.99-1.71L881.75,533.83z"/>
			</g>
		</g>
		<g>
			<circle class="st9" cx="655.41" cy="445.7" r="54.97"/>
			<circle class="st6" cx="640.91" cy="444.81" r="39.69"/>
			
				<ellipse transform="matrix(0.9633 -0.2685 0.2685 0.9633 -91.2411 194.8432)" class="st9" cx="666.72" cy="431" rx="8.85" ry="12.64"/>
		</g>
		<path class="st10" d="M367.99,236.02c0.01,0.04,0.01,0.07,0.03,0.11c3.84,10.72,21.09,16.75,29.83,23.05
			c11.82,8.53,22.75,18.26,32.58,29.03c21.74,23.81,37.57,51.7,45.63,82.2c14.79-6.21,29.89-11.65,45.21-16.35
			c-11.52-21.07-26.13-40.45-43.37-57.18C447.49,267.36,409.1,246.22,367.99,236.02z"/>
		<path class="st10" d="M888.11,729.37c0.73-0.35,1.35-0.83,1.74-1.56c0.55-1.04,0.42-2.3,0.2-3.45
			c-2.92-15.58-15.8-29.57-26.25-40.73c-11.15-11.91-22.63-23.32-35.11-33.85c-11.12-9.38-21.55-19.8-33.87-27.64
			c-1.04,1.86-3.06,2.95-4.97,3.94c-7.26,3.77-13.8,8.47-20.62,12.77C815.19,658.43,856.48,690.4,888.11,729.37z"/>
		<path class="st10" d="M292.51,693.79c-4.52,0.04-9.79-0.47-12.23-4.27c-3.09-4.82,0.57-10.99,4.1-15.5
			c13.22-16.86,25.87-33.53,37.8-50.88c-29.81,33.81-64.54,63.29-102.91,86.97c-1.5,0.93-3.13,2-3.62,3.7
			c-1.1,3.85,4.09,6.25,8.07,6.73c14.93,1.82,29.99,1.86,44.87-0.4c43.23-6.57,85.67-18.22,126.32-34.33
			c23.47-9.3,47.15-19.7,69.04-32.8c14.86-8.89,28.91-19.02,41.46-30.94c26.85-25.48,46.02-59.26,54.26-95.42
			c-6.79,15.06-35.45,51.52-39.35,55.99C467.42,643.3,373.82,693,292.51,693.79z"/>
		<g>
			<g>
				<g>
					<path class="st11" d="M610.85,345.21c-3.23-4.02-4.33-9.34-4.7-14.48c-0.23-3.22-0.2-6.57,1.06-9.54
						c0.65-1.54,1.73-2.95,3.07-4.14c-15.11-14.64-36.37-22.83-57.41-21.84c-4.92,0.23-9.94,0.98-14.24,3.37
						c-4.3,2.39-7.79,6.69-8.13,11.6c-0.41,6.13,3.9,11.45,5.93,17.26c2.03,5.8,1.74,12.14,1.12,18.25
						c-0.61,6.11-1.53,12.29-0.69,18.37c1.35,9.77,8.31,14.46,17.24,16.64c11.97,2.92,23.9-2.12,34.16-8.02
						c10.45-6.01,20.83-13.91,25.69-24.68C612.78,347.23,611.72,346.29,610.85,345.21z"/>
					<path class="st11" d="M709.48,338.52c-1.23-7.51-4.4-14.55-6.5-21.87c-1.62-5.64-2.59-11.46-2.91-17.32
						c-0.25-4.63,0.88-10.31-1.24-14.62c-1.92-3.9-6.34-5.89-10.58-6.83c-14.08-3.12-29.08,2.24-40.18,11.45
						c-8.92,7.41-15.62,17.06-21.14,27.32c3.66,4.52,4.39,13.03,4.49,17.84c0.05,2.88-0.2,5.81-1.25,8.49
						c-0.48,1.24-1.17,2.41-2.01,3.44c15.19,11.18,33.51,18.09,52.32,19.6c8.45,0.68,17.89-0.08,23.83-6.13
						C709.63,354.46,710.7,346.03,709.48,338.52z"/>
				</g>
			</g>
			<g class="st12">
				<path class="st11" d="M610.85,345.21c-3.23-4.02-4.33-9.34-4.7-14.48c-0.23-3.22-0.2-6.57,1.06-9.54
					c0.65-1.54,1.73-2.95,3.07-4.14c-2.15-2.08-4.44-4.02-6.82-5.84c-0.25,4.17-3.37,8.29-7.5,8.07c3.38,1.5,4.31,6.16,2.93,9.58
					c-1.38,3.43-4.38,5.89-7.26,8.2c9.11-0.43,17.06,7.29,19.33,16.17c1.12-1.67,2.16-3.4,2.99-5.23
					C612.78,347.23,611.72,346.29,610.85,345.21z"/>
				<path class="st11" d="M642.49,331.13c-6.16-1.67-9.61-9.68-6.59-15.3c-2.66-0.7-4.21-3.65-4.22-6.4c0-0.37,0.07-0.72,0.11-1.08
					c-1.72,2.7-3.34,5.48-4.86,8.3c3.66,4.52,4.39,13.03,4.49,17.84c0.05,2.88-0.2,5.81-1.25,8.49c-0.48,1.24-1.17,2.41-2.01,3.44
					c2.08,1.53,4.24,2.97,6.43,4.34c-0.26-1.2-0.47-2.42-0.56-3.66C633.59,340.68,636.52,333.55,642.49,331.13z"/>
			</g>
			<path class="st11" d="M626.93,316.65c-0.7-0.87-1.5-1.6-2.43-2.12c-4.44-2.48-10.4-0.88-14.21,2.52
				c-1.34,1.19-2.42,2.6-3.07,4.14c-1.26,2.98-1.29,6.32-1.06,9.54c0.37,5.14,1.47,10.47,4.7,14.48c0.87,1.08,1.93,2.01,3.1,2.79
				c3.19,2.11,7.23,2.92,10.65,1.32c1.4-0.66,2.59-1.68,3.56-2.89c0.84-1.04,1.52-2.2,2.01-3.44c1.05-2.68,1.3-5.61,1.25-8.49
				C631.32,329.68,630.58,321.18,626.93,316.65z"/>
			<g>
				<g>
					<path class="st13" d="M630.11,321.48c-0.3-1.44,0.39-2.34,1.01-3.24c0.63-0.9,1.28-1.79,2-2.63c1.43-1.68,3.11-3.14,4.93-4.41
						c1.84-1.24,3.81-2.31,5.92-3.01c2.11-0.7,4.38-1,6.56-0.71l0.05,0.73c-2.03,0.59-3.92,1.27-5.72,2.17
						c-1.81,0.87-3.52,1.93-5.09,3.17c-1.59,1.22-3.05,2.62-4.45,4.06c-0.71,0.72-1.39,1.47-2.03,2.25c-0.65,0.79-1.14,1.64-2.54,2
						L630.11,321.48z"/>
				</g>
				<g>
					<path class="st13" d="M632.69,331.08c0.71-0.51,1.45-0.73,2.19-0.85c0.74-0.09,1.47-0.02,2.21-0.03l2.21,0.14l2.2,0.24
						c2.93,0.4,5.8,1.18,8.57,2.2c5.51,2.08,10.76,5.11,14.66,9.51l-0.47,0.56c-4.91-2.96-9.82-5.62-15.15-7.33
						c-2.64-0.87-5.36-1.51-8.09-2.02l-2.06-0.35l-2.07-0.26c-1.4-0.13-2.76-0.1-4.2-1.08L632.69,331.08z"/>
				</g>
				<g>
					<path class="st13" d="M605.69,325.5c-1.34,0.16-1.97-0.43-2.72-0.91c-0.75-0.47-1.5-0.93-2.27-1.35
						c-1.54-0.84-3.1-1.64-4.73-2.29c-3.26-1.37-6.74-2.01-10.35-3.05l0.03-0.73c3.76-0.7,7.65-0.14,11.32,1.06
						c1.83,0.63,3.62,1.42,5.24,2.48c0.81,0.52,1.6,1.09,2.35,1.7c0.74,0.61,1.56,1.17,1.61,2.55L605.69,325.5z"/>
				</g>
				<g>
					<path class="st13" d="M605.48,334.46c-1.22,1.18-2.52,1.36-3.82,1.7l-1.93,0.58l-1.9,0.67c-2.51,0.94-4.97,2-7.32,3.29
						c-4.75,2.55-8.92,5.98-13.03,9.68l-0.57-0.46c2.84-4.93,7.29-8.79,12.16-11.74c2.46-1.46,5.07-2.71,7.8-3.57l2.07-0.59
						l2.09-0.48c0.71-0.11,1.4-0.29,2.12-0.32c0.73,0.01,1.47,0.12,2.23,0.51L605.48,334.46z"/>
				</g>
			</g>
			<g>
				<path class="st14" d="M540.81,364.57c-4.02-13.66,7.26-29.12,1.24-42.03c-1.37-2.93-3.56-5.49-4.38-8.62
					c-1.47-5.66,2.03-11.49,6.4-15.37c1.19-1.06,2.48-2,3.81-2.87c-3.23,0.47-6.39,1.32-9.24,2.9c-4.3,2.39-7.79,6.69-8.13,11.6
					c-0.41,6.13,3.9,11.45,5.93,17.26c2.03,5.8,1.74,12.14,1.12,18.25c-0.61,6.11-1.53,12.29-0.69,18.37
					c1.35,9.77,8.31,14.46,17.24,16.64c3.91,0.95,7.81,1.05,11.65,0.55C554.98,380.82,543.83,374.84,540.81,364.57z"/>
				<path class="st14" d="M709.48,338.52c-1.23-7.51-4.4-14.55-6.5-21.87c-1.62-5.64-2.59-11.46-2.91-17.32
					c-0.25-4.63,0.88-10.31-1.24-14.62c-1.92-3.9-6.34-5.89-10.58-6.83c-14.08-3.12-29.08,2.24-40.18,11.45
					c-1.6,1.33-3.1,2.75-4.56,4.21c8.35-4.26,17.45-7.04,26.75-8.14c4.09-0.48,8.32-0.63,12.25,0.59c3.94,1.22,7.57,4,8.92,7.89
					c1.31,3.77,0.35,7.93,0.93,11.87c0.8,5.39,4.36,9.88,7.21,14.52c3.54,5.76,6.16,12.22,6.6,18.97c0.45,6.75-1.45,13.8-5.98,18.82
					c-4.1,4.54-9.66,6.9-15.7,8.14c7.3,0.11,14.8-1.2,19.81-6.31C709.63,354.46,710.7,346.03,709.48,338.52z"/>
			</g>
			<path class="st14" d="M610.2,329.97c0.08,0.39,0.18,0.79,0.42,1.11c0.35,0.46,0.97,0.66,1.55,0.66s1.14-0.18,1.7-0.36
				c0.25-0.08,0.52-0.17,0.7-0.37c0.24-0.27,0.27-0.66,0.27-1.02c0.07-3.23-0.23-6.46-0.88-9.62c-0.2-0.95-0.82-2.7-2.16-2.21
				c-0.86,0.31-1.1,2.38-1.28,3.1C609.83,324.1,609.61,327.09,610.2,329.97z"/>
			<path class="st14" d="M613.66,334.18c0.37,0.02,0.74,0.1,1.08,0.25c0.6,0.26,0.84,0.95,1.03,1.58c0.6,2.02,1.2,4.04,1.79,6.07
				c0.18,0.62,0.34,1.35-0.08,1.84c-0.26,0.3-0.67,0.42-1.07,0.41c-2.27-0.02-4.27-3.21-5.01-5.03c-0.3-0.74-0.51-1.52-0.72-2.29
				C610.2,335.18,611.98,334.08,613.66,334.18z"/>
		</g>
	</g>
</g>
</svg>
