<?xml version="1.0" encoding="iso-8859-1"?>
<!-- Uploaded to: SVG Repo, www.svgrepo.com, Generator: SVG Repo Mixer Tools -->
<svg height="800px" width="800px" version="1.1" id="Layer_1" xmlns="http://www.w3.org/2000/svg" xmlns:xlink="http://www.w3.org/1999/xlink" 
	 viewBox="0 0 512 512" xml:space="preserve">
<path style="fill:#00BAB9;" d="M337.965,13.402l-16.744,11.253L256,512c141.38,0,256-114.62,256-256
	C512,143.281,439.15,47.577,337.965,13.402z"/>
<path style="fill:#FD6144;" d="M190.779,24.655l-16.744-11.253C72.85,47.577,0,143.281,0,256c0,141.38,114.62,256,256,256
	L190.779,24.655z"/>
<path style="fill:#FF8468;" d="M256,56.264L278.505,256L256,512c-70.69,0-128-114.62-128-256
	c0-93.747,25.195-175.712,62.779-220.318C206.252,48.252,229.714,56.264,256,56.264z"/>
<path style="fill:#FCE190;" d="M337.965,13.402c-3.049,8.305-8.856,15.889-16.744,22.28C305.748,48.252,282.286,56.264,256,56.264
	c-26.286,0-49.748-8.012-65.221-20.581c-7.888-6.392-13.695-13.976-16.744-22.28C199.77,4.715,227.339,0,256,0
	C284.661,0,312.23,4.715,337.965,13.402z"/>
<path style="fill:#80E2E2;" d="M321.221,35.682C358.805,80.288,384,162.253,384,256c0,141.38-57.31,256-128,256V56.264
	C282.286,56.264,305.748,48.252,321.221,35.682z"/>
<circle style="fill:#FF8468;" cx="86.837" cy="142.347" r="8.44"/>
<g>
	<circle style="fill:#00BAB9;" cx="336.874" cy="272.879" r="8.44"/>
	<circle style="fill:#00BAB9;" cx="303.115" cy="239.121" r="8.44"/>
</g>
</svg>