<?xml version="1.0" standalone="no"?>
<!DOCTYPE svg PUBLIC "-//W3C//DTD SVG 20010904//EN"
 "http://www.w3.org/TR/2001/REC-SVG-20010904/DTD/svg10.dtd">
<svg version="1.0" xmlns="http://www.w3.org/2000/svg"
 width="1280.000000pt" height="1045.000000pt" viewBox="0 0 1280.000000 1045.000000"
 preserveAspectRatio="xMidYMid meet">
<metadata>
Created by potrace 1.15, written by Peter Selinger 2001-2017
</metadata>
<g transform="translate(0.000000,1045.000000) scale(0.100000,-0.100000)"
fill="#000000" stroke="none">
<path d="M12336 10439 c-1285 -73 -2434 -477 -3381 -1187 -462 -347 -904 -800
-1246 -1277 -401 -558 -720 -1194 -955 -1905 l-57 -175 -33 180 c-17 99 -48
263 -67 365 -75 388 -105 784 -78 1020 59 515 295 992 621 1252 166 133 307
200 587 277 197 55 300 94 366 140 56 38 77 71 77 119 0 50 -29 78 -97 92 -64
14 -131 2 -253 -45 -468 -179 -858 -551 -1100 -1047 -178 -365 -270 -774 -270
-1205 l0 -143 -44 0 -44 0 -6 73 c-3 39 -8 115 -11 167 -29 463 -169 934 -379
1280 -259 424 -703 816 -1016 895 -95 24 -220 18 -285 -15 -69 -35 -70 -55 -2
-116 73 -67 213 -133 428 -204 305 -100 480 -200 649 -369 357 -357 550 -881
577 -1558 l6 -162 -51 -46 c-59 -53 -92 -115 -92 -171 0 -21 11 -86 25 -144
14 -58 25 -124 25 -147 0 -22 -25 -122 -55 -221 -30 -99 -58 -197 -63 -218 -8
-38 -9 -34 -66 126 -724 2049 -2043 3438 -3836 4040 -437 147 -962 257 -1430
300 -340 31 -780 41 -780 18 0 -36 33 -386 50 -543 161 -1430 550 -2635 1146
-3543 193 -293 359 -498 603 -742 308 -308 613 -531 971 -710 505 -253 1003
-377 1635 -406 l150 -7 -135 -23 c-1080 -184 -1822 -890 -2115 -2009 -104
-398 -141 -751 -132 -1259 5 -297 19 -478 53 -721 18 -129 74 -458 78 -463 6
-5 333 117 456 170 624 272 1200 683 1664 1188 172 187 184 202 302 350 537
677 975 1511 1344 2563 35 97 64 176 65 175 1 -2 -2 -68 -7 -148 -21 -331 24
-748 123 -1145 50 -199 179 -592 189 -573 12 20 86 336 119 503 43 218 78 456
96 645 15 166 21 616 9 668 -15 63 9 5 66 -158 522 -1485 1262 -2623 2195
-3376 443 -357 936 -631 1482 -822 98 -35 113 -38 117 -23 9 26 54 390 72 571
21 224 30 797 15 1015 -103 1472 -736 2390 -1911 2770 -120 39 -389 105 -427
105 -12 0 -25 5 -29 11 -5 8 1 10 21 7 42 -8 376 9 527 27 1653 200 2864 1358
3522 3370 222 680 374 1433 461 2292 14 134 25 247 25 253 0 12 -251 11 -464
-1z m-11656 -504 c1161 -124 2028 -600 2369 -1300 95 -194 141 -365 141 -524
0 -400 -325 -756 -808 -888 -84 -22 -117 -26 -247 -26 -138 -1 -157 1 -235 27
-302 100 -564 329 -797 700 -223 354 -419 879 -547 1461 -39 175 -96 502 -96
546 0 25 2 27 38 23 20 -2 102 -11 182 -19z m11684 8 c-2 -10 -15 -88 -29
-173 -36 -215 -98 -493 -155 -695 -292 -1023 -745 -1669 -1286 -1831 -119 -36
-304 -38 -434 -6 -374 91 -662 312 -787 604 -103 236 -77 489 82 813 341 697
1159 1145 2340 1284 88 11 185 19 217 20 49 1 56 -1 52 -16z m-2928 -1123 c93
-283 54 -589 -106 -829 -158 -234 -372 -398 -780 -598 -637 -311 -708 -350
-912 -498 -103 -74 -319 -287 -381 -376 -26 -36 -67 -101 -92 -145 -51 -90
-52 -88 -34 74 22 206 91 444 190 657 l41 90 13 -42 c13 -44 52 -113 64 -113
3 0 12 30 19 68 31 160 110 350 205 492 46 68 215 255 224 247 1 -2 -8 -35
-21 -74 -36 -107 -66 -284 -48 -282 4 0 35 48 70 107 160 273 344 482 518 591
30 19 57 31 60 28 4 -3 -5 -26 -19 -50 -40 -67 -77 -189 -77 -249 l0 -53 34
50 c81 121 187 212 322 278 78 39 173 72 181 64 3 -3 -5 -20 -16 -36 -23 -32
-101 -193 -101 -208 0 -9 185 164 351 328 95 94 112 117 152 200 61 127 81
222 75 358 l-5 106 24 -55 c14 -30 36 -89 49 -130z m-5997 90 c-10 -79 4 -217
30 -291 52 -151 117 -238 312 -413 85 -77 173 -160 196 -185 l43 -46 -14 40
c-19 56 -59 141 -95 203 -17 28 -30 52 -28 52 15 0 124 -43 177 -70 132 -66
241 -162 334 -293 l41 -59 3 31 c4 41 -28 168 -67 266 -17 42 -31 79 -31 82 0
3 21 -7 48 -23 190 -110 359 -314 579 -700 l22 -39 1 52 c0 57 -19 147 -50
237 -11 33 -18 61 -15 64 9 9 151 -143 205 -219 98 -139 189 -352 221 -516 6
-35 14 -63 18 -63 11 0 49 67 62 110 l13 42 28 -55 c83 -165 166 -423 192
-597 19 -134 29 -240 22 -240 -3 0 -18 24 -32 53 -58 113 -181 274 -290 378
-207 196 -474 362 -882 550 -469 216 -674 343 -859 531 -100 100 -156 177
-208 283 -70 144 -89 231 -89 415 0 167 13 240 69 380 15 36 31 76 36 89 15
37 17 22 8 -49z m908 -1834 c158 -34 281 -75 421 -142 454 -216 840 -635 1037
-1124 43 -105 115 -336 115 -363 0 -7 -22 29 -49 80 -274 515 -656 811 -1072
830 -239 11 -456 -51 -670 -193 -37 -24 -70 -44 -74 -44 -12 0 2 142 21 213 8
33 29 90 45 125 16 36 29 66 29 69 0 7 -107 -51 -165 -90 -78 -53 -180 -155
-234 -236 -93 -136 -166 -327 -192 -500 l-13 -81 -29 27 c-70 66 -149 200
-183 306 -21 68 -25 63 -50 -53 -27 -128 -25 -331 4 -434 44 -154 112 -265
234 -381 120 -116 266 -208 443 -280 50 -21 92 -40 95 -42 3 -3 -62 -3 -145 0
-360 15 -637 134 -875 376 -155 158 -244 314 -301 528 -30 110 -38 354 -15
475 90 477 402 802 886 922 156 38 226 45 430 41 150 -3 208 -9 307 -29z
m4742 10 c413 -75 726 -286 885 -596 235 -458 161 -998 -186 -1352 -193 -196
-422 -314 -702 -363 -95 -16 -367 -20 -331 -5 11 5 65 27 120 50 178 74 296
151 421 275 120 120 170 198 214 340 30 96 37 261 17 380 -16 92 -55 230 -62
223 -3 -2 -16 -49 -30 -104 -29 -109 -89 -240 -134 -293 -34 -39 -27 -52 -56
102 -50 272 -178 494 -373 648 -76 61 -199 135 -208 126 -3 -3 17 -85 45 -182
28 -97 51 -185 51 -196 0 -15 -13 -10 -82 35 -153 99 -282 153 -435 182 -118
22 -315 15 -428 -16 -333 -90 -644 -368 -872 -780 -29 -52 -53 -90 -53 -84 0
26 62 217 105 324 228 568 706 1034 1247 1215 116 39 261 71 384 85 107 12
360 4 463 -14z m-7591 -276 c327 -112 582 -163 822 -163 179 0 267 17 413 78
12 5 2 -17 -31 -68 -115 -176 -211 -408 -243 -587 -20 -109 -17 -336 5 -440
24 -118 69 -246 121 -353 25 -49 44 -92 42 -94 -6 -5 -161 82 -232 130 -167
113 -318 251 -426 390 -38 49 -110 161 -160 250 -275 486 -430 709 -634 913
l-112 111 131 -54 c72 -30 209 -81 304 -113z m10123 43 c-211 -214 -368 -442
-645 -940 -158 -285 -386 -507 -704 -687 -46 -26 -86 -45 -89 -43 -2 3 14 40
35 83 159 316 188 670 81 989 -40 120 -115 276 -183 380 -31 47 -56 87 -56 89
0 2 27 -7 61 -21 106 -43 192 -56 359 -57 249 -1 492 47 833 164 126 43 417
157 433 169 1 1 -56 -56 -125 -126z m-6773 -839 c119 -24 220 -68 333 -144
260 -173 481 -424 668 -757 43 -77 141 -283 141 -298 0 -2 -44 40 -97 94 -123
123 -238 209 -367 272 -141 68 -232 91 -393 96 -160 6 -249 -6 -421 -55 -110
-32 -141 -37 -232 -37 -97 0 -110 2 -172 32 -111 52 -182 143 -208 266 -23
114 27 234 150 358 156 156 373 219 598 173z m3398 -64 c170 -44 305 -147 369
-282 79 -167 61 -347 -45 -441 -65 -60 -100 -71 -215 -70 -71 0 -147 10 -260
32 -206 41 -365 53 -518 40 -313 -27 -559 -148 -712 -350 -25 -34 -45 -58 -45
-55 0 3 18 52 41 108 124 312 321 600 525 769 110 92 160 124 277 179 205 98
388 120 583 70z m-464 -896 c217 -49 375 -64 490 -45 26 4 45 4 42 0 -8 -14
-169 -107 -235 -137 -186 -83 -245 -92 -664 -102 -372 -8 -425 -14 -510 -57
-34 -18 -40 -27 50 81 62 75 178 167 264 211 175 88 335 102 563 49z m-2317
-4 c84 -26 178 -76 255 -135 58 -45 183 -174 201 -208 10 -17 9 -18 -13 -3
-14 9 -60 25 -104 37 -70 19 -121 22 -449 29 -405 9 -420 11 -589 79 -118 47
-338 181 -260 158 91 -27 273 -15 489 33 181 41 168 39 290 35 76 -2 132 -10
180 -25z m1982 -479 c430 -65 820 -232 1042 -445 112 -107 204 -255 470 -754
156 -293 258 -440 396 -570 47 -44 112 -98 145 -118 33 -20 58 -39 56 -41 -7
-8 -262 75 -393 127 -352 141 -633 315 -857 530 -55 53 -187 204 -296 340
-493 612 -748 848 -1013 937 l-72 24 195 -5 c121 -3 245 -12 327 -25z m-1603
10 c3 -5 -12 -11 -33 -15 -57 -9 -208 -88 -303 -158 -98 -72 -364 -336 -502
-498 -54 -63 -171 -205 -260 -315 -229 -284 -350 -399 -581 -551 -241 -158
-515 -281 -844 -379 -62 -19 -111 -32 -110 -30 2 1 40 27 84 56 207 138 337
313 600 804 203 379 309 542 414 636 308 277 847 449 1428 458 56 0 104 -3
107 -8z m-60 -113 c-4 -7 -18 -26 -30 -43 -53 -72 -115 -229 -148 -375 -23
-100 -44 -266 -61 -478 -8 -106 -22 -223 -30 -260 -50 -238 -165 -475 -355
-727 -39 -52 -75 -97 -79 -99 -4 -3 0 19 10 49 42 129 48 283 23 636 -21 296
-15 446 21 559 85 265 272 496 555 686 52 35 96 64 98 64 2 0 0 -6 -4 -12z
m1391 -86 c104 -74 276 -247 343 -345 104 -151 169 -323 187 -492 3 -33 -3
-177 -14 -323 -32 -399 -25 -601 22 -714 9 -21 14 -38 13 -38 -8 0 -168 222
-217 300 -68 110 -150 284 -182 385 -38 122 -55 225 -67 400 -31 464 -97 733
-219 895 l-26 34 40 -23 c22 -13 76 -48 120 -79z m767 -949 c180 -220 324
-500 383 -745 13 -55 34 -177 45 -272 42 -345 62 -474 90 -590 31 -127 87
-257 147 -339 l35 -50 -38 23 c-179 109 -281 188 -399 312 -212 222 -321 454
-347 738 -10 108 -9 169 10 435 18 247 20 328 12 397 -10 84 -37 175 -68 228
-18 32 53 -43 130 -137z m-2967 99 c-62 -123 -73 -243 -50 -552 23 -312 17
-526 -19 -663 -63 -242 -219 -479 -438 -663 -89 -74 -213 -160 -287 -199 l-34
-17 36 49 c54 73 113 205 142 313 31 120 47 216 85 514 17 131 37 270 46 310
53 255 204 557 396 794 65 79 138 162 144 162 2 0 -8 -22 -21 -48z m4719
-1306 c265 -130 465 -586 531 -1210 16 -157 32 -506 22 -506 -14 0 -131 47
-255 102 -343 153 -611 326 -808 522 -157 156 -234 289 -257 441 -13 91 7 187
65 305 34 69 60 103 133 176 73 74 106 98 175 132 114 56 179 73 267 68 53 -2
86 -10 127 -30z m-6296 -2 c106 -35 207 -100 288 -187 193 -205 237 -432 127
-652 -82 -162 -280 -358 -528 -521 -193 -126 -349 -207 -600 -310 l-130 -53
-3 92 c-2 51 2 166 8 257 28 413 104 746 231 1005 95 195 214 328 334 375 74
28 177 26 273 -6z"/>
</g>
</svg>
