<?xml version="1.0" ?>
<!-- Uploaded to: SVG Repo, www.svgrepo.com, Generator: SVG Repo Mixer Tools -->
<svg width="800px" height="800px" viewBox="0 0 960 960" version="1.1" xml:space="preserve" xmlns="http://www.w3.org/2000/svg" xmlns:xlink="http://www.w3.org/1999/xlink">
<style type="text/css">
	.st0{display:none;}
	.st1{display:inline;opacity:0.93;}
	.st2{display:inline;fill:none;stroke:#000000;stroke-width:15;stroke-linecap:round;stroke-linejoin:round;stroke-miterlimit:10;}
	.st3{display:inline;}
	.st4{fill:none;stroke:#000000;stroke-width:15;stroke-linecap:round;stroke-linejoin:round;stroke-miterlimit:10;}
	.st5{display:inline;fill:none;stroke:#1A1D3F;stroke-width:15;stroke-linecap:round;stroke-linejoin:round;stroke-miterlimit:10;}
	.st6{fill:#DDEDE7;}
	.st7{fill:#1A1D3F;}
	.st8{fill:#E9B44D;}
	.st9{fill:#ED644E;}
	.st10{fill:#494EDF;}
	.st11{fill:#3DC5A1;}
	.st12{fill:#F6CEC1;}
	.st13{fill:none;}
	.st14{fill:none;stroke:#1A1D3F;stroke-width:15;stroke-linecap:round;stroke-linejoin:round;stroke-miterlimit:10;}
	.st15{display:inline;fill:#E9B44D;}
	.st16{fill:#222222;}
	.st17{display:inline;fill:#222222;}
</style>
<g class="st0" id="guide"/>
<g class="st0" id="sketch"/>
<g class="st0" id="stroke">
<path class="st2" d="M307.5,606c-10.9-48.6-11.3-124.9-8.6-174.6c2.7-49.7,19-90.4,52.4-127.3c25.9-28.6,70.1-57.9,117.3-65.4   c67.2-10.7,138.9,10.2,193.9,50.3c40.6,29.7,65.5,57.3,79,115.4c11.4,49,13.6,99.1,16.7,150.1"/>
<path class="st2" d="M84.7,587.5c-14-103.7,25.3-194.1,102.1-265.1s192.5-79.5,309-86.1"/>
<path class="st2" d="M84.6,588c221.2,34.8,455.4,16.6,673.6-33.5"/>
<path class="st2" d="M308.5,610.5c70.4,72.9,118.8,111.4,207.7,134.1c89,22.7,141.8,18.5,233-8.3c26.2-7.7,100.4-34.4,114.3-57.9   c16.7-28.1,21.2-47.9,1.8-74.2s-67.5-36.6-107.2-49.6"/>
<path class="st2" d="M427.9,240.9c-15.9-7.5-41.3-20.1-30.8-31.7c3.5-9.5,25.1-8.6,38.9-8.2c13.8,0.4,28.2,4.5,27.4,13.5   C462.4,227.3,454.8,229.4,427.9,240.9"/>
<path class="st2" d="M506.7,339.1c-7.3,0.9-17.9,3.3-23.1,10.8c-3.7,5.4-3.8,12.4-3.4,18.9c2.4,38,4.7,76,7.1,114   c0.4,7.1,1.2,14.9,6.3,19.8c5.4,5.3,13.8,5.5,21.3,5.1c17.1-0.9,34.3-1.9,50.9-5.9c17.6-4.3,32.4-10.1,40.2-26.5   c6.3-13.4,7.3-31.3-2.5-42.6c-9.7-11.2-17.2-15-28.2-18.2c14.1-7.5,21.3-12.5,25.5-28.9c4.2-16.5-4.1-36-19.1-44.1   C557.9,328.6,535.2,335.4,506.7,339.1z"/>
<path class="st2" d="M515.5,395.5c0.1,1.7,0.3,3.6,1.2,5c1.5,2.6,4.5,2.9,7,2.9c6.2-0.1,12.4-0.8,18.4-2.1c4.5-1,9-2.4,12.6-5.7   c3.5-3.3,5.9-8.9,4.8-14.5c-0.8-4.3-3.6-8-6.8-10.3c-3.2-2.3-6.8-3.3-10.4-4c-7.7-1.5-19.1-2.8-26.1,1.1c-3.4,1.9-2.2,5.7-1.8,10   C514.6,383.8,515.1,389.7,515.5,395.5z"/>
<path class="st2" d="M522.4,473.9c2.5,3.7,7.8,3.8,12.3,3.5c7.7-0.5,15.7-1.2,22.4-5c6.7-3.9,11.5-12,9.1-19.4   c-1.6-4.8-6-8.2-10.6-10.4c-8.5-4.1-19.8-5.4-28.7-2c-7,2.7-7,9-6.7,15.6C520.3,461.3,519.4,469.5,522.4,473.9z"/>
</g>
<g id="outline">
<path d="M782.3,554.1c-5.6-1.7-11.3-3.4-16.8-5.2c-0.2-2.6-0.3-5.2-0.5-7.8c-2.7-45.7-5.6-93-16.1-138.4   c-14-60.4-40.6-89.6-81.9-119.7c-55.2-40.3-124.3-59.8-187.3-53.3c-5.2,0.3-10.4,0.6-15.5,1c4-3.9,6.1-8.6,6.7-15.5   c0.4-4.3-1-8.3-4-11.6c-7.6-8.5-24-9.9-30.7-10.1l-1.4,0c-16.1-0.5-38-1.1-44.2,11.8c-3.8,4.8-3.9,9.5-3.2,12.7   c1.4,6.8,7.1,12.6,14.9,17.8c-26.8,2.8-52.6,6.6-77.5,12.2c-60.7,13.5-107.5,36.1-143.1,69c-81.8,75.7-118,169.3-104.6,270.7   c-0.2,3.8,2.5,7.3,6.3,7.9c69.9,11,142.9,17,218.1,17.9c0.4,0.8,0.9,1.6,1.5,2.3c71.4,74,121.2,113.2,211.2,136.1   c38.9,9.9,71,15,103.5,15c39.8,0,79.9-7.6,133.5-23.4c1-0.3,100.2-30.2,118.7-61.3c17.5-29.6,23.4-52.6,1.4-82.5   C854.1,576,817.6,564.9,782.3,554.1z M402.1,215c0-0.1,0.2-0.4,0.5-0.8c0.6-0.7,1.1-1.5,1.5-2.4c0,0,1.3-2,9.3-3   c6.5-0.8,14.5-0.6,20.9-0.4l1.4,0c13,0.4,19.6,3.9,20.2,5.4c-0.6,6.7-2.4,8-24.5,17.3c-1.1,0.5-2.3,1-3.4,1.5   c-6.1-2.9-12.3-6.1-17.3-9.5C402.6,217.8,402.1,215,402.1,215z M291.4,431c-2.6,47.9-2.3,118.6,6.8,167.3   c-71.2-1-140.4-6.7-206.7-16.8c-11.2-94.8,23.4-182.4,100.4-253.6c57.1-52.8,138.2-70.3,219.7-78.2C384,263.5,361,282.2,345.8,299   C311.5,336.8,294.3,378.7,291.4,431z M313.5,598.5c-9.4-47.4-9.8-118.6-7.2-166.7c2.7-48.6,18.7-87.6,50.5-122.7   c22-24.3,64.8-55.3,113-63c3.8-0.6,7.6-1.1,11.4-1.5c5-0.3,10.1-0.6,15-0.9c0.5,0,0.9-0.1,1.3-0.2c54.8-1.5,113,16.9,160.5,51.5   c39.3,28.7,63.1,54.9,76.1,111c10.3,44.2,12.9,88.8,15.7,135.9c0.1,2.2,0.3,4.4,0.4,6.6c-110.8,25.1-221.2,40.9-328.2,47   C385.5,597.7,349.3,598.7,313.5,598.5z M857.1,674.5c-11.3,19-77.2,44.9-110,54.5c-94.2,27.7-145.6,29.5-229,8.2   c-42.8-10.9-76.3-25.5-108.5-47.2c-26.1-17.6-51.9-40.1-87.7-76.6c0.3,0,0.5,0,0.8,0c33,0,66.5-1,100.2-2.9   c109.3-6.2,221.9-22.5,334.9-48.3c6.6,2.1,13.4,4.2,20,6.2c33,10,67.1,20.4,81.5,40C876.7,632.2,872.4,648.6,857.1,674.5z"/>
<path d="M479.8,483.3c0.4,7,1.1,17.5,8.5,24.7c6.2,6,14.4,7.4,22.3,7.4c1.6,0,3.1-0.1,4.6-0.1c16.2-0.8,34.5-1.8,52.3-6.1   c16.8-4.1,35.5-10.2,45.2-30.6c7.1-15,8.7-36.5-3.6-50.7c-6-7-11.5-11.4-17.2-14.6c7.5-5.6,12.8-12.7,16.1-25.7   c5-19.8-5-42.9-22.7-52.5c-22.1-12-43.3-8.8-65.8-5.3c-4.5,0.7-9.1,1.4-13.9,2c-13.6,1.7-23.1,6.4-28.3,14   c-5,7.1-5.2,15.6-4.7,23.6L479.8,483.3z M489.7,354.2c1.9-2.7,6.5-6.2,18-7.7c0,0,0,0,0,0c4.9-0.6,9.7-1.4,14.2-2.1   c21.6-3.3,38.7-5.9,56.3,3.7c11.8,6.4,18.7,22.4,15.4,35.7c-3.4,13.3-8.4,17-21.7,24.2c-2.7,1.4-4.2,4.4-3.9,7.4s2.4,5.6,5.4,6.4   c9.8,2.9,16,6,24.6,15.9c7.8,9,6.2,24.2,1.3,34.4c-6.2,13.1-17.6,18.1-35.2,22.4c-16.4,4-34,4.9-49.5,5.7c-5.9,0.3-12.4,0.2-15.7-3   c-3-3-3.6-8.7-4-14.9l-7.1-114C487.3,362.2,487.5,357.4,489.7,354.2z"/>
<path d="M506.7,378.6l1.3,17.6c0.2,2.1,0.4,5.3,2.2,8.3c2.6,4.4,7,6.6,13.2,6.6c0.1,0,0.2,0,0.4,0c6.7-0.1,13.4-0.9,19.9-2.3   c5.2-1.1,11.2-2.9,16.1-7.5c5.7-5.4,8.5-13.8,7-21.4c-1.2-5.9-4.7-11.3-9.8-14.9c-4.6-3.3-9.5-4.5-13.3-5.3   c-13.9-2.7-24.1-2-31.2,1.9c-7.1,4-6.3,11.5-5.9,15.2C506.6,377.3,506.6,377.9,506.7,378.6z M540.7,374.3c3.4,0.7,5.7,1.5,7.4,2.8   c1.9,1.4,3.4,3.5,3.8,5.6c0.6,3-0.9,6-2.5,7.6c-2.3,2.1-5.7,3.1-9,3.8c-5.5,1.2-11.2,1.9-16.9,1.9c-0.2,0-0.3,0-0.4,0   c0-0.4-0.1-0.7-0.1-1c0,0,0,0,0,0l-1.3-17.6c-0.1-0.9-0.3-3.2-0.4-3.6C524,373,529.7,372.2,540.7,374.3z"/>
<path d="M524,433.6c-12.5,4.8-11.8,17.1-11.5,23c0.1,1,0.1,2.3,0.1,3.7c0,5.6,0,12.5,3.5,17.8c4,6,10.9,7,15.6,7   c1.4,0,2.6-0.1,3.4-0.1c7.7-0.5,17.3-1.2,25.6-6c8.9-5.2,16.3-16.8,12.4-28.2c-2.1-6.1-7.1-11.2-14.4-14.8   C547.7,430.5,534.4,429.7,524,433.6z M553.2,465.9c-5.3,3.1-12.3,3.6-19.1,4c-3.9,0.3-5.2-0.1-5.6-0.3c-0.9-1.6-0.9-6.6-0.9-9.3   c0-1.6,0-3.1-0.1-4.5c-0.4-7.3,0.4-7.6,1.9-8.1c6.4-2.4,15.6-1.7,22.8,1.7c3.6,1.7,6,3.9,6.7,6.1C560.2,459,557,463.7,553.2,465.9z   "/>
</g>
<g class="st0" id="flat">
<g class="st3">
<g>
<g>
<g>
<g>
<g>
<g>
<g>
<g>
<path class="st10" d="M465.2,211.9c0.3,12.8-7,15.7-32.3,29.8c-0.2,0-0.3,0.1-0.5,0.1c-16.6-5.8-38.5-13.9-33.7-28.2            c2.5-9.8,24.1-11.2,37.8-12.2C450.2,200.3,465,202.8,465.2,211.9z"/>
</g>
</g>
</g>
</g>
</g>
</g>
</g>
</g>
<g>
<g>
<g>
<g>
<g>
<g>
<g>
<g>
<path class="st10" d="M863.6,678.3c-13.9,23.5-88.1,50.2-114.3,57.9c-91.2,26.8-144.1,31-233,8.3            c-88.9-22.7-138.4-65.7-208.8-138.6c142.9-31.1,297.5-48.1,450.8-51.4c39.7,13,87.8,23.2,107.2,49.6            C884.7,630.5,880.2,650.2,863.6,678.3z"/>
</g>
</g>
</g>
</g>
</g>
</g>
</g>
</g>
<g>
<g>
<g>
<g>
<g>
<g>
<g>
<g>
<path class="st9" d="M481.2,237.4c-3.9,0.4-184.7,320-173.8,368.5c-75-0.7-149.6-6.4-222.8-17.9            c-14-103.7,25.4-194.7,102.2-265.7c55.9-51.8,171.9-77.3,273.6-85C460.6,237.4,475.3,237.2,481.2,237.4z"/>
</g>
</g>
</g>
</g>
</g>
</g>
</g>
</g>
<g>
<g>
<g>
<g>
<g>
<g>
<g>
<g>
<path class="st8" d="M741.5,404.4c-13.5-58.1-38.4-85.7-79-115.3c-51.1-37.3-116.8-58.1-179.8-52.1            c-0.8,0.1-1.6,0.1-2.3,0.2h0c-3.9,0.4-7.8,0.9-11.7,1.5c-47.2,7.5-91.4,36.8-117.3,65.4c-33.4,36.9-49.7,77.6-52.5,127.3            c-2.7,49.7-2.3,126,8.6,174.5c151.6,1.4,304.8-17.9,450.8-51.4C755.1,503.5,752.9,453.4,741.5,404.4z"/>
</g>
</g>
</g>
</g>
</g>
</g>
</g>
</g>
<g>
<g>
<g>
<g>
<g>
<g>
<g>
<g>
<path class="st9" d="M603.5,432.8c-9.7-11.2-17.2-15-28.2-18.2c14.1-7.5,19.3-12.5,23.5-28.9c4.2-16.4-7.1-35-22.1-43.1            c-23.9-13-41.5-7.1-70.1-3.5c-7.3,0.9-17.9,3.3-23.1,10.8c-3.8,5.4-3.8,12.4-3.4,18.9c2.4,38,4.7,76,7.1,114            c0.4,7.1,1.2,14.9,6.3,19.8c5.4,5.3,13.8,5.5,21.3,5.1c17.1-0.9,34.3-1.9,50.9-5.9c17.6-4.3,33.4-9.1,41.2-25.5            C613.3,462.9,613.2,444,603.5,432.8z M516.7,400.6c-0.9-1.5-1-3.3-1.2-5c-0.4-5.9-0.9-11.7-1.3-17.6            c-0.3-4.2-1.5-8.1,1.8-10c7-3.9,18.4-2.6,26.1-1.1c3.6,0.7,7.2,1.7,10.4,4c3.2,2.3,5.9,6,6.8,10.3            c1.1,5.6-1.2,11.2-4.8,14.5c-3.5,3.3-8.1,4.7-12.6,5.7c-6,1.3-12.2,2-18.4,2.1C521.1,403.5,518.2,403.2,516.7,400.6z             M557,472.4c-6.7,3.9-14.7,4.5-22.4,5c-4.5,0.3-9.8,0.2-12.2-3.5c-2.9-4.4-2-12.6-2.3-17.7c-0.4-6.6-0.4-12.9,6.7-15.6            c9-3.4,20.3-2.1,28.8,2c4.6,2.2,8.9,5.6,10.6,10.4C568.5,460.3,563.7,468.5,557,472.4z"/>
</g>
</g>
</g>
</g>
</g>
</g>
</g>
</g>
<g>
<g>
<g>
<g>
<g>
<g>
<g>
<g>
<path class="st7" d="M307.5,613.5c-3.4,0-6.5-2.4-7.3-5.9c-10.9-48.7-11.6-125.6-8.8-176.7c2.9-52.2,20.1-94.2,54.4-132            c24.8-27.3,69.7-59.5,121.7-67.8c66.1-10.5,140.7,8.8,199.5,51.7c41.2,30.1,67.9,59.4,81.9,119.7            c10.5,45.5,13.4,92.7,16.1,138.4c0.3,4.3,0.5,8.6,0.8,12.9c0.3,4.1-2.9,7.7-7,7.9c-4.1,0.3-7.7-2.9-7.9-7            c-0.3-4.3-0.5-8.6-0.8-12.9c-2.8-47.2-5.5-91.7-15.7-135.9c-13-56.1-36.8-82.3-76.1-111c-55.6-40.6-126-58.9-188.3-49            c-48.2,7.7-91,38.8-113,63c-31.8,35.1-47.8,74.1-50.5,122.7c-2.7,50.1-2.2,125.4,8.4,172.5c0.9,4-1.6,8.1-5.7,9            C308.6,613.4,308,613.5,307.5,613.5z"/>
</g>
</g>
</g>
</g>
</g>
</g>
</g>
</g>
</g>
</g>
<g class="st0" id="colored_x5F_line">
<g class="st3">
<path class="st8" d="M298.9,431.4c2.7-49.7,19-90.4,52.4-127.3c25.9-28.6,70.1-57.9,117.3-65.4c3.9-0.6,7.8-1.1,11.7-1.5    c-111.2,6.6-220.2,17.4-293.6,85.2C110,393.4,70.6,484.4,84.6,588c80.5,10.2,154.7,16.1,222.8,18    C296.5,557.4,296.2,481.1,298.9,431.4z"/>
</g>
<g class="st3">
<path class="st8" d="M865.4,604.1c-19.3-26.4-67.5-36.6-107.2-49.6C635.1,585.6,487,603.9,307.5,606    c70.4,72.9,119.8,115.9,208.8,138.5c89,22.7,141.8,18.5,233-8.3c26.2-7.7,100.4-34.4,114.3-57.9    C880.2,650.2,884.7,630.5,865.4,604.1z"/>
</g>
<path class="st17" d="M765.7,554.1c-0.3-4.3-0.5-8.6-0.8-12.9c-2.7-45.7-5.6-93-16.1-138.4c-14-60.4-40.6-89.6-81.9-119.7   c-58.8-42.9-133.3-62.2-199.5-51.7c-1.7,0.3-3.3,0.6-5,0.9c5.1-4.2,7.7-9.2,8.4-17c0.4-4.3-1-8.3-4-11.6c-7.6-8.5-24-9.9-30.7-10.1   c-1.2,0-2.5-0.1-3.8-0.1c-15.6-0.5-35-1.2-42,12.4c0,0.1-0.1,0.2-0.1,0.3c-5.8,12.7,2.7,22.3,8.3,27c6.1,5,14.1,9,21.6,12.6   c-31.4,14-57.6,34.8-74.5,53.4c-34.2,37.8-51.5,79.7-54.4,132c-2.8,51.1-2.2,128,8.8,176.7c0.8,3.4,3.8,5.8,7.3,5.9   c5.1,0,10.1,0.1,15.2,0.1c140.7,0,287.8-17.4,437.3-51.8C763.5,561,766,557.7,765.7,554.1z M403.8,212.5c2.8-5,19.2-4.5,28-4.2   c1.4,0,2.7,0.1,3.9,0.1c13,0.4,19.6,3.9,20.2,5.4c-0.6,6.7-2.4,8-24.5,17.3c-1.1,0.5-2.3,1-3.5,1.5c-7.1-3.3-14.8-7.1-19.9-11.3   C402.3,216.6,403.1,214.1,403.8,212.5z M313.6,598.5c-9.4-47.4-9.8-118.6-7.2-166.7c2.7-48.6,18.7-87.6,50.5-122.7   c22-24.3,64.8-55.3,113-63c62.3-9.9,132.7,8.4,188.3,49c39.3,28.7,63.1,54.9,76.1,111c10.3,44.2,12.9,88.8,15.7,135.9   c0.1,2.2,0.3,4.4,0.4,6.6C600.9,582.5,454,599.3,313.6,598.5z"/>
<g class="st3">
<path class="st8" d="M603.5,432.8c-9.7-11.2-17.2-15-28.2-18.2c14.1-7.5,21.3-12.5,25.5-28.9c4.2-16.5-4.1-36-19.1-44.1    c-23.9-13-46.5-6.1-75.1-2.5c-7.3,0.9-17.9,3.3-23.1,10.8c-3.7,5.4-3.8,12.4-3.4,18.9c2.4,38,4.7,76,7.1,114    c0.4,7.1,1.2,14.9,6.3,19.8c5.4,5.3,13.8,5.5,21.3,5.1c17.1-0.9,34.3-1.9,50.9-5.9c17.6-4.3,32.4-10.1,40.2-26.5    C612.3,462,613.2,444,603.5,432.8z M516.7,400.6c-0.9-1.5-1-3.3-1.2-5c-0.4-5.9-0.9-11.7-1.3-17.6c-0.3-4.3-1.5-8.1,1.8-10    c7-3.9,18.4-2.6,26.1-1.1c3.6,0.7,7.2,1.7,10.4,4c3.2,2.3,5.9,5.9,6.8,10.3c1.1,5.6-1.2,11.2-4.8,14.5c-3.5,3.3-8.1,4.7-12.6,5.7    c-6,1.3-12.2,2-18.4,2.1C521.1,403.5,518.2,403.2,516.7,400.6z M557,472.4c-6.7,3.9-14.7,4.5-22.4,5c-4.5,0.3-9.8,0.2-12.3-3.5    c-2.9-4.4-2-12.6-2.3-17.7c-0.4-6.6-0.3-12.9,6.7-15.6c9-3.4,20.3-2.1,28.7,2c4.6,2.2,9,5.6,10.6,10.4    C568.5,460.3,563.7,468.5,557,472.4z"/>
</g>
</g>
</svg>