<?xml version="1.0" encoding="utf-8"?>
<!-- Generator: Adobe Illustrator 27.5.0, SVG Export Plug-In . SVG Version: 6.00 Build 0)  -->
<svg version="1.1" id="Layer_1" xmlns="http://www.w3.org/2000/svg" xmlns:xlink="http://www.w3.org/1999/xlink" x="0px" y="0px"
	 viewBox="0 0 4000 4000" style="enable-background:new 0 0 4000 4000;" xml:space="preserve">
<g>
	<g>
		<rect style="fill:#B0F8FF;" width="4000" height="4000"/>
	</g>
	<g>
		<g>
			<g>
				<g>
					<path style="fill:#D3613B;" d="M1579.317,2272.252c-223.815,271.498-474.697,173.487-629.069-204.603
						c-7.796-19.095-18.543-36.98-32.474-52.189c-63.514-69.345-141.819-37.278-185.381,56.105
						c-32.148,68.914-134.762,57.088-150.27-17.357c-0.508-2.436-0.951-4.886-1.33-7.346c-4.231-27.454,1.538-55.497,14.636-79.994
						c69.27-129.555,210.799-219.133,355.596-143.817c53.935,28.054,96.629,73.94,122.631,128.894
						c127.274,268.984,256.524,385.951,355.594,241.329L1579.317,2272.252z"/>
				</g>
				<g>
					<path style="fill:#F9D6B6;" d="M897.775,1948.259c2.31,20.088,8.688,42.335,19.987,67.193
						c-63.527-69.353-141.819-37.262-185.358,56.095c-32.14,68.95-134.788,57.099-150.305-17.326
						c-0.502-2.46-0.904-4.921-1.306-7.382c-0.251-1.456-0.402-2.912-0.603-4.419c-0.151-1.507-0.301-3.013-0.402-4.52
						c-0.101-1.306-0.151-2.662-0.201-3.967c-0.09-2.224-0.089-4.464-0.046-6.702c0.019-1.49,0.072-2.976,0.145-4.463
						c0.001-0.011,0.001-0.022,0.001-0.034c0,0,0.001,0.001,0.001,0.001c0.965-19.432,6.489-38.525,15.718-55.845
						c69.302-129.615,210.82-219.156,355.601-143.827C915.05,1855.053,891.497,1893.721,897.775,1948.259z"/>
				</g>
				<g style="opacity:0.2;">
					<path d="M1579.297,2272.272c-223.776,271.484-474.67,173.457-629.043-204.643c-7.784-19.083-18.531-36.961-32.492-52.177
						c-11.299-24.858-17.677-47.105-19.987-67.193c0.402,0.351,0.753,0.703,1.054,1.054c13.911,15.216,24.658,33.094,32.442,52.178
						c146.589,359.016,380.208,465.43,594.995,242.859L1579.297,2272.272z"/>
				</g>
				<g>
					<path style="fill:#F4B68C;" d="M917.762,2015.452c-63.527-69.353-141.819-37.262-185.358,56.095
						c-32.14,68.95-134.788,57.099-150.305-17.326c-0.502-2.46-0.904-4.921-1.306-7.382c-0.251-1.456-0.402-2.912-0.603-4.419
						c-0.151-1.507-0.301-3.013-0.402-4.52c-0.101-1.306-0.151-2.662-0.201-3.967c-0.151-3.716-0.101-7.483,0.1-11.199
						c34.5,41.38,107.519,38.87,133.733-17.326c43.389-92.905,121.078-125.096,184.354-57.149
						C900.084,1968.347,906.462,1990.594,917.762,2015.452z"/>
				</g>
				<g>
					<path style="fill:#650000;" d="M1315.535,2444.565c-12.41,0-24.81-0.938-37.195-2.822
						c-133.887-20.356-256.304-150.801-344.704-367.31c-7.375-18.066-17.163-33.828-29.094-46.855
						c-21.833-23.838-46.047-34.478-70.071-30.801c-32.444,4.99-63.723,35.015-85.818,82.373
						c-17.983,38.55-57.136,60.264-99.758,55.313c-42.568-4.941-75.671-35.005-84.338-76.592c-0.569-2.739-1.067-5.493-1.494-8.257
						c-4.651-30.176,1.226-62.558,16.543-91.206c37.974-71.023,93.97-126.606,157.673-156.516
						c72.874-34.209,149.648-32.407,222.024,5.242c56.187,29.224,102.556,77.927,130.571,137.139
						c86.975,183.813,171.97,287.998,239.331,293.349c30.579,2.437,58.462-15.391,85.242-54.487c5.144-7.51,15.1-9.971,23.159-5.737
						l150.068,78.975c4.778,2.515,8.169,7.046,9.233,12.339c1.065,5.298-0.313,10.786-3.745,14.951
						C1505.86,2389.565,1410.599,2444.565,1315.535,2444.565z M844.083,1960.156c24.263,0,55.593,8.982,86.921,43.183
						c14.81,16.167,26.87,35.522,35.854,57.529c83.435,204.351,195.972,327.017,316.875,345.4
						c89.136,13.525,181.233-30.845,267.383-128.584l-116.519-61.318c-31.975,41.03-68.345,60.2-108.237,57.026
						c-83.052-6.602-173.533-112.168-268.923-313.774c-24.685-52.17-65.418-95.02-114.692-120.649
						c-139.016-72.314-269.282,20.003-331.494,136.36c-11.677,21.841-16.199,46.272-12.727,68.801
						c0.332,2.134,0.718,4.282,1.165,6.416c6.624,31.792,31.899,45.781,53.345,48.271c21.502,2.515,49.346-5.347,63.101-34.839
						c27.246-58.406,68.391-95.828,112.886-102.668C833.638,1960.6,838.687,1960.156,844.083,1960.156z"/>
				</g>
				<g>
					<path style="fill:#650000;" d="M917.784,2033.403c-6.819,0-13.337-3.906-16.343-10.518
						c-39.666-87.266-27.703-155.02,37.649-213.232c7.4-6.592,18.74-5.935,25.332,1.465c6.589,7.4,5.935,18.74-1.465,25.332
						c-37.607,33.496-70.444,80.078-28.85,171.582c4.102,9.024,0.112,19.658-8.909,23.76
						C922.791,2032.885,920.267,2033.403,917.784,2033.403z"/>
				</g>
			</g>
			<g>
				<g>
					<path style="fill:#D3613B;" d="M1506.747,1855.101c-190.217,42.416-358.377,165.205-504.478,368.367
						c-120.511,47.098-83.616,201.103,31.998,175.685c129.128-10.097,247.056-123.333,362.584-258.668L1506.747,1855.101z"/>
				</g>
				<g>
					<path style="fill:#FDDBA5;" d="M1116.816,2378.848c-27.048,11.079-54.545,18.122-82.535,20.32
						c-115.638,25.388-152.509-128.601-32.027-175.7L1116.816,2378.848z"/>
				</g>
				<g style="opacity:0.2;">
					<path d="M1446.192,1904.993c-26.913,51.083-53.827,102.165-80.74,153.248c-115.528,135.334-233.455,248.571-362.583,258.668
						c-30.506,6.707-55.524,0.914-73.623-12.103c-9.56,54.93,32.033,110.395,105.022,94.347
						c129.128-10.097,247.056-123.333,362.583-258.668l109.896-285.384c-5.161-0.412-20.569-0.962-35.612,8.955
						C1449.967,1878.011,1446.641,1901.406,1446.192,1904.993z"/>
				</g>
				<g>
					<line style="fill:none;" x1="1116.816" y1="2378.848" x2="1002.255" y2="2223.468"/>
				</g>
				<g>
					<path style="fill:#650000;" d="M1009.022,2419.98c-50.654,0.005-83.464-32.231-94.597-68.931
						c-14.81-48.833,6.856-112.573,76.299-142.246c147.405-203.428,319.678-328.303,512.119-371.213
						c6.448-1.448,13.179,0.791,17.495,5.798c4.319,5.01,5.53,11.99,3.152,18.162l-109.895,285.383
						c-0.73,1.899-1.777,3.657-3.098,5.205c-111.602,130.732-234.097,253.237-373.608,264.805
						C1027.081,2419.018,1017.781,2419.98,1009.022,2419.98z M1477.586,1880.898c-171.675,47.808-326.545,166.426-460.752,353.042
						c-2.019,2.813-4.81,4.976-8.035,6.235c-55.591,21.729-70.09,67.305-60.034,100.454c7.729,25.498,33.762,51.519,81.648,41.001
						c0.808-0.176,1.628-0.298,2.454-0.361c126.196-9.868,241.98-125.742,348.345-250.098L1477.586,1880.898z"/>
				</g>
				<g>
					<path style="fill:#650000;" d="M1116.81,2396.796c-5.508,0-10.94-2.524-14.458-7.3l-114.526-155.386
						c-5.879-7.974-4.18-19.209,3.799-25.088c7.976-5.879,19.211-4.18,25.088,3.799l114.526,155.386
						c5.879,7.974,4.18,19.209-3.799,25.088C1124.236,2395.658,1120.506,2396.796,1116.81,2396.796z"/>
				</g>
			</g>
			<g>
				<g>
					<g>
						<path style="fill:#FDD907;" d="M2727.135,1445.509c72.274,93.675,121.552,174.741,138.357,238.042
							c4.707,17.752-9.219,35.827-29.037,37.33c-52.955,3.98-100.937-4.913-143.401-23.144
							c-69.898-30.026-124.937-85.352-162.778-150.579c-74.515-128.343-82.394-294.882-5.958-381.114
							c18.711-9.447,36.951-10.275,54.668-1.573c9.82,4.804,19.483,12.509,28.963,23.297
							c28.134,31.855,54.823,90.507,79.876,179.802C2695.708,1395.651,2709.083,1422.06,2727.135,1445.509z"/>
					</g>
					<g>
						<path style="fill:#FDD907;" d="M2521.219,1169.634l-24.226-56.096c-6.428-14.884,3.935-31.81,21.174-34.793
							c29.591-5.121,58.283-3.568,85.868,6.193c14.292,5.057,20.86,20.267,14.399,33.478l-26.481,54.146"/>
					</g>
					<g>
						<path style="fill:#F9B00D;" d="M2687.825,1367.57c-25.053-89.295-51.742-147.948-79.876-179.802
							c-9.48-10.788-19.144-18.493-28.963-23.297l-15.779,1.868l48.594,235.563c-2.783-10.08-5.475-20.386-8.082-30.896
							c-6.481,65.327-40.958,106.255-99.635,126.092l27.941,50.849c-0.585-0.27-1.16-0.51-1.749-0.789
							c37.841,65.226,92.879,120.553,162.778,150.579c42.464,18.231,90.446,27.124,143.401,23.144
							c19.818-1.503,33.744-19.578,29.037-37.33c-16.805-63.301-66.083-144.367-138.357-238.042
							C2709.083,1422.06,2695.708,1395.651,2687.825,1367.57z"/>
					</g>
					<g>
						<path style="fill:#650000;" d="M2812.545,1744.191c-132.524,0-249.351-77.944-316.023-212.495
							c-68.892-139.031-64.368-295.508,11.003-380.525c1.877-2.119,4.138-3.862,6.665-5.139
							c23.982-12.122,48.687-13.24,71.445-3.223c48.579,21.379,87.917,90.871,123.799,218.694
							c7.119,25.361,19.055,49.016,35.476,70.303c78.95,102.354,125.479,182.815,142.244,245.989
							c3.845,14.492,0.945,29.978-7.957,42.488c-9.492,13.342-24.458,21.707-41.062,22.949
							C2829.547,1743.874,2821.011,1744.191,2812.545,1744.191z M2538.167,1184.325c-59.683,71.568-60.532,208.23-1.453,327.454
							c62.532,126.199,173.923,195.984,298.074,186.721c4.631-0.347,7.041-3.066,7.861-4.221c0.82-1.155,1.687-2.954,1.15-4.983
							c-14.995-56.494-60.215-133.911-134.407-230.093c-19.949-25.862-34.465-54.653-43.147-85.576
							c-38.733-137.993-75.042-179.36-98.677-189.761C2558.165,1179.726,2548.734,1179.858,2538.167,1184.325z"/>
					</g>
					<g>
						<path style="fill:#650000;" d="M2591.937,1194.997c-3.306,0-6.665-0.735-9.836-2.285
							c-11.125-5.442-15.735-18.875-10.295-30.002l26.479-54.148c0.313-0.635,0.205-0.896,0.142-1.052
							c-0.11-0.269-0.513-0.947-1.87-1.428c-23.171-8.201-47.563-9.915-74.563-5.237c-2.852,0.493-3.958,2.166-4.229,2.666
							c-0.374,0.691-0.259,0.957-0.183,1.133l24.229,56.099c4.91,11.372-0.327,24.57-11.699,29.482
							c-11.372,4.907-24.573-0.33-29.482-11.699l-24.226-56.096c-5.605-12.979-4.91-27.654,1.909-40.259
							c7.314-13.525,20.449-22.827,36.03-25.525c34.299-5.935,66.99-3.53,97.175,7.151c13.005,4.6,23.367,14.351,28.433,26.748
							c4.941,12.095,4.443,25.845-1.37,37.727l-26.477,54.146C2608.211,1190.373,2600.235,1194.997,2591.937,1194.997z"/>
					</g>
					<g>
						<path style="fill:#650000;" d="M2570.742,1079.778c-8.547,22.676-5.385,56.363,0.562,74.407
							c20.642,48.154,29.819,99.88,37.239,150.02c13.63,106.318,32.433,189.505,106.392,271.757
							c32.922,37.664,71.564,70.033,111.134,100.801c1.904,1.43,2.265,4.179,0.782,6.047c-1.349,1.709-3.743,2.109-5.558,1.006
							c-87.819-52.09-168.801-127.022-204.256-225.426c-18.382-48.361-25.731-100.019-33.087-150.544
							c-7.079-49.419-16.275-98.289-34.927-144.448c-4.469-14.661-6.975-30.117-7.119-45.811
							c-0.15-15.256,2.533-30.657,7.601-45.022c2.061-5.842,8.466-8.906,14.307-6.846
							C2569.573,1067.751,2572.63,1074.01,2570.742,1079.778L2570.742,1079.778z"/>
					</g>
					<g style="opacity:0.6;">
						
							<ellipse transform="matrix(0.9968 -0.0798 0.0798 0.9968 -97.1744 205.9214)" style="fill:#FFFFFF;" cx="2527.384" cy="1318.563" rx="18.254" ry="77.96"/>
					</g>
				</g>
				<g>
					<path style="fill:#F9D6B6;" d="M2569.508,1459.983l-50.92,33.292c-7.818,5.101-10.658,14.606-6.706,22.46
						c5.301,10.497,11.091,20.734,17.315,30.696c27.791,44.694,64.117,84.409,105.425,121.211
						c-72.767,61.232-136.41,63.731-180.78,34.366c-67.597-44.751-90.488-163.497-32.71-261.628
						c25.662-43.6,85.226-60.949,130.212-36.412c7.621,4.129,14.924,9.268,21.875,15.436
						C2586.031,1430.682,2584.379,1450.274,2569.508,1459.983z"/>
				</g>
				<g style="opacity:0.7;">
					<g>
						<path style="fill:#FFFFFF;" d="M2446.035,1493.651c25.271-42.937,83.413-60.385,128.14-37.472
							c10.375-10.395,10.353-26.819-0.956-36.776c-6.951-6.168-14.255-11.307-21.875-15.436
							c-44.986-24.536-104.55-7.188-130.212,36.412c-46.899,79.654-40.643,172.888-0.474,229.109
							C2405.951,1616.659,2411.934,1551.569,2446.035,1493.651z"/>
					</g>
				</g>
				<g>
					<path style="fill:#F4B68C;" d="M2634.622,1667.641c-72.767,61.232-136.41,63.731-180.78,34.366l-23.266-47.909
						c0.902-64.559,61.844-75.748,98.622-107.668C2556.988,1591.124,2593.314,1630.839,2634.622,1667.641z"/>
				</g>
				<g>
					<path style="fill:#650000;" d="M2514.08,1738.034c-30.364,0-58.616-10.103-82.805-30.547
						c-70.474-59.561-81.726-180.886-25.618-276.208c30.73-52.202,101.379-71.929,154.282-43.076
						c8.777,4.79,17.241,10.754,25.159,17.734c10.225,9.011,15.537,21.843,14.578,35.203c-0.986,13.716-8.406,26.062-20.352,33.867
						l-50.918,33.271c-0.051,0.034-0.095,0.066-0.134,0.095c25.33,49.819,64.033,97.542,118.298,145.879
						c3.889,3.464,6.082,8.445,6.006,13.652c-0.073,5.205-2.405,10.125-6.389,13.477
						C2601.539,1718.945,2555.814,1738.034,2514.08,1738.034z M2506.27,1410.573c-27.603,0-55.129,14.175-69.69,38.909
						c-52.322,88.892-31.467,188.909,17.859,230.598c39.895,33.718,94.753,28.603,152.48-13.467
						c-49.788-46.804-86.213-93.667-111.05-142.791c-8.049-15.916-2.5-35.513,12.905-45.583c0.002,0,0.002,0,0.002,0l50.918-33.271
						c3.403-2.224,4.084-4.966,4.187-6.404c0.107-1.499-0.239-3.704-2.512-5.708c-5.918-5.215-12.18-9.641-18.616-13.152
						C2531.385,1413.505,2518.819,1410.573,2506.27,1410.573z"/>
				</g>
				<g>
					<path style="fill:#650000;" d="M2530.677,1507.732c-4.711,30.705-23.185,59.873-57.097,60.897
						c-9.567,0.605-12.22-13.003-3.25-16.088c5.267-1.766,10.105-4.269,13.733-7.375c11.463-10.117,11.732-24.151,10.812-39.868
						C2494.294,1477.719,2534.959,1480.451,2530.677,1507.732L2530.677,1507.732z"/>
				</g>
				<g>
					<path style="fill:#D3613B;" d="M2506.217,1726.507c-74.135,62.614-203.389,151.783-381.697,182.517
						c-47.203,8.136-91.334,11.055-131.306,10.859c-60.612-33.454-121.224-66.908-181.836-100.363l-102.955-95.41
						c10.445-4.401,20.44-8.478,29.984-12.23c114.091-44.831,165.979-45.046,231.921-51.252
						c77.246-7.241,173.806-22.61,412.393-127.458L2506.217,1726.507z"/>
				</g>
				<g style="opacity:0.6;">
					<path style="fill:#FFFFFF;" d="M1721.514,1726.154c10.741-3.689,21.009-7.084,30.802-10.185
						c117.069-37.053,168.721-33.74,234.831-35.461c77.441-1.987,174.742-10.785,420.429-99.361l82.703,154.89
						c5.31-3.188,10.634-6.317,15.938-9.529l-123.496-193.338c-238.587,104.847-335.147,120.217-412.393,127.458
						c-65.941,6.207-117.83,6.422-231.921,51.252c-9.544,3.752-19.539,7.829-29.984,12.23l79.68,73.841L1721.514,1726.154z"/>
				</g>
				<g>
					<path style="fill:#BC462F;" d="M2382.722,1533.17c-3.686,1.62-7.337,3.217-10.956,4.795l67.94,123.028
						c-128.266,68.123-257.741,129.466-388.604,183.418c-45.165,18.592-90.45,36.342-135.943,53.168l-173.806-182.293l-3.163-3.318
						c-9.48,3.729-19.399,7.774-29.767,12.143l102.955,95.41c55.566,37.92,111.132,75.84,166.698,113.76
						c46.186-1.568,98.025-7.078,153.75-19.448c173.562-38.528,299.427-124.649,374.391-187.324L2382.722,1533.17z"/>
				</g>
				<g>
					<path style="fill:#650000;" d="M1940.667,1954.001c-4.463,0-8.782-1.665-12.095-4.69l-232.229-211.946
						c-4.519-4.124-6.626-10.268-5.588-16.299c1.04-6.028,5.081-11.113,10.72-13.489c124.663-52.502,183.833-57.59,246.475-62.976
						c79.624-6.846,169.873-14.604,427.568-127.852c8.098-3.557,17.578-0.688,22.341,6.768l123.486,193.328
						c4.995,7.82,3.201,18.159-4.136,23.843c-74.802,57.939-157.769,105.278-246.592,140.698
						c-104.875,41.821-215.549,66.243-328.948,72.588C1941.334,1953.991,1940.999,1954.001,1940.667,1954.001z M1741.475,1729.972
						l205.688,187.725c106.902-6.768,211.208-30.186,310.164-69.641c80.583-32.136,156.162-74.429,224.88-125.82l-106.335-166.477
						c-252.412,109.766-343.938,117.639-424.849,124.595C1893.414,1685.307,1843.069,1689.633,1741.475,1729.972z"/>
				</g>
			</g>
			<g>
				<g>
					<path style="fill:#D3613B;" d="M2216.831,2795.441c-0.132,20.808-13.444,39.47-33.281,45.812
						c-4.101,1.331-8.288,2.58-12.52,3.745c-51.317,14.465-111.343,20.252-169.053,12.898
						c-33.406-4.233-62.477-25.038-77.819-55.021c-18.054-35.271-44.338-64.083-75.623-88.881l-126.403,7.522
						c-29.355,26.466-49.736,60.421-62.136,101.088c-8.937,29.436-35.32,50.127-66.026,52.322
						c-64.53,4.597-119.772,2.875-162.162-7.622c-2.335-0.53-4.588-1.146-6.84-1.763c-29.161-8.1-51.387-31.827-57.269-61.551
						c-14.595-74.101-24.985-145.485-31.296-214.232c-3.702-39.951-6.03-78.967-7.028-117.174
						c-2.659-100.197,3.868-194.431,18.936-283.191c13.925-82.442,35.231-160.14,63.364-233.416
						c6.106-13.41,12.213-26.82,18.319-40.231c13.848-30.45,27.696-60.9,41.544-91.351c19.615-10.007,46.802-22.533,80.597-34.093
						c0,0,0.042-0.001,0.084-0.002c52.283-17.866,120.245-33.229,199.928-32.863c69.637,0.291,129.416,12.529,176.083,26.839
						c25.184,7.74,46.543,16.044,63.659,23.446c22.246,30.942,44.45,61.928,66.696,92.87c9.022,12.593,18.086,25.185,27.108,37.778
						c41.411,65.13,71.437,156.425,92.182,268.852c14.208,77.023,24.116,163.949,30.359,259.157
						c2.712,40.821,4.748,83.22,6.144,126.987C2216.484,2657.794,2217.235,2725.294,2216.831,2795.441z"/>
				</g>
				<g style="opacity:0.2;">
					<path d="M2171.03,2844.998c-51.317,14.465-111.343,20.252-169.053,12.898c-33.406-4.233-62.477-25.038-77.819-55.021
						c-18.054-35.271-44.338-64.083-75.623-88.881l-126.403,7.522c-29.355,26.466-49.736,60.421-62.136,101.088
						c-8.937,29.436-35.32,50.127-66.026,52.322c-64.53,4.597-119.772,2.875-162.162-7.622
						c40.677-18.687,63.245-51.906,53.126-111.614c-4.43-26.141-7.279-52.475-27.968-69.068l-120.563-96.864
						c-3.702-39.951-6.03-78.967-7.028-117.174c253.118,234.391,550.6,237.75,878.859-6.204c2.712,40.821,4.748,83.22,6.144,126.987
						l-126.292,66.683c-31.635,16.693-25.936,51.523-25.404,87.257C2063.8,2822.355,2110.582,2840.611,2171.03,2844.998z"/>
				</g>
				<g>
					<path style="fill:#650000;" d="M2097.612,1934.16c92.402,132.126,115.275,328.175,130.745,485.932
						c11.322,125.553,14.608,251.978,14.436,377.964c-0.409,25.296-15.868,49.797-38.783,60.967
						c-12.025,5.633-22.141,7.545-34.191,11.002c-55.145,13.998-112.982,18.15-169.474,10.495
						c-35.904-5.257-68.615-27.367-87.361-58.321c-6.698-11.593-12.626-23.697-20.651-34.497
						c-14.644-20.658-32.956-39.083-53.487-55.44l15.26,4.81c-0.083,0.044-126.315,7.489-126.401,7.522
						c0,0,13.682-5.728,13.682-5.728c-18.274,16.516-32.764,36.826-43.442,59.446c-5.74,11.787-9.868,24.555-14.028,37
						c-13.028,36.156-49.075,61.705-87.275,62.883c-41.156,2.715-81.671,3.482-123.237-1.352
						c-22.481-3.01-46.492-6.414-67.467-16.342c-31.297-14.965-52.657-46.703-56.575-80.938
						c-18.177-95.781-29.676-193.913-33.645-291.391c-6.145-188.068,14.488-381.519,93.247-554.182
						c4.168-7.913,16.216-4.125,13.888,5.274c-49.022,157.677-74.643,320.842-71.101,485.6
						c0.987,53.685,5.034,110.355,10.986,163.86c6.492,54.399,14.104,108.713,24.648,162.561
						c2.245,10.426,4.447,27.436,7.776,37.329c3.418,9.504,9.413,18.059,17.132,24.604c32.229,27.851,137.783,23.004,181.289,20.25
						c21.093-0.369,40.973-13.955,48.109-33.829c4.458-13.773,9.139-27.479,15.425-40.573c12.844-27.468,31.31-52.974,54.239-73.518
						c3.926-3.536,8.786-5.438,13.684-5.728c0.268-0.016,126.285-7.514,126.551-7.532c5.722-0.338,11.085,1.556,15.219,4.905
						c23.109,18.25,44.808,39.463,62.426,64.336c8.535,11.627,15.339,24.497,22.317,37.09
						c11.218,18.568,30.374,32.281,51.619,36.584c51.625,7.764,105.099,4.175,155.813-8.095c8.212-2.028,18.206-4.634,25.581-7.559
						c8.553-4.113,14.424-13.175,14.678-22.852c1.051-152.117-1.254-304.774-16.658-456.123
						c-8.988-81.646-21.591-164.651-42.775-243.77c-14.234-52.9-31.789-104.925-57.654-153.047
						c-2.382-4.436-0.717-9.961,3.718-12.341C2089.967,1929.216,2094.99,1930.469,2097.612,1934.16L2097.612,1934.16z"/>
				</g>
				<g>
					<path style="fill:#000072;" d="M1473.595,2585.271c113.097,116.034,302.424,142.079,449.432,81.145
						c49.374-20.817,93.422-53.221,126.733-95.439c4.429-5.559,12.526-6.474,18.086-2.046c5.171,4.119,6.289,11.465,2.861,16.938
						c-31.488,49.854-79.403,88.918-132.875,113.652c-107.261,49.256-233.925,48.631-342.783,5.208
						c-54.281-21.868-104.64-55.972-141.656-101.932C1443.064,2589.323,1461.636,2573.04,1473.595,2585.271L1473.595,2585.271z"/>
				</g>
				<g>
					
						<ellipse transform="matrix(0.9997 -0.0261 0.0261 0.9997 -57.4286 46.7358)" style="fill:#F9D6B6;" cx="1760.787" cy="2222.296" rx="306.899" ry="351.193"/>
				</g>
			</g>
			<g>
				<g>
					<path style="fill:#F9D702;" d="M1071.646,2366.259l-71.793-67.877c-6.706-6.34-15.584-9.872-24.812-9.872H811.087
						c-13.145,0-24.616,8.627-28.649,21.138c-25.647,79.556,17.747,127.846,130.182,144.87L1071.646,2366.259z"/>
				</g>
				<g>
					<path style="fill:#F9B00D;" d="M957.768,2400.598c-96.043-14.542-141.664-51.919-136.952-112.089h-9.73
						c-13.145,0-24.616,8.627-28.649,21.138c-25.647,79.556,17.747,127.846,130.182,144.87l159.027-88.259l-19.236-18.187
						L957.768,2400.598z"/>
				</g>
				<g>
					<path style="fill:#650000;" d="M912.62,2476.943c-1.118,0-2.241-0.083-3.357-0.254
						c-72.307-10.942-118.533-34.155-141.316-70.957c-17.476-28.228-19.783-62.871-6.856-102.964
						c7.073-21.943,27.166-36.685,49.995-36.685H975.04c15.027,0,29.312,5.684,40.225,16.006l71.79,67.871
						c5.195,4.912,7.739,12.007,6.843,19.102c-0.894,7.095-5.115,13.34-11.367,16.807l-159.026,88.257
						C920.157,2475.981,916.409,2476.943,912.62,2476.943z M811.087,2310.937c-3.291,0-6.226,2.246-7.305,5.591
						c-8.826,27.378-8.071,48.833,2.302,65.591c14.556,23.516,48.999,39.99,102.427,49.028l125.469-69.634l-49.534-46.831
						c-2.554-2.417-5.894-3.745-9.407-3.745H811.087z"/>
				</g>
				<g>
					<path style="fill:#650000;" d="M1016.522,2414.789c-3.477,0-6.99-1.011-10.081-3.115
						c-53.462-36.392-124.172-41.685-222.539-16.646c-9.607,2.422-19.37-3.359-21.814-12.964c-2.444-9.6,3.359-19.365,12.961-21.812
						c109.06-27.764,189.002-20.85,251.587,21.763c8.191,5.576,10.31,16.733,4.734,24.927
						C1027.899,2412.04,1022.261,2414.789,1016.522,2414.789z"/>
				</g>
				<g>
					<path style="fill:#F9D702;" d="M3038.528,2371.638l71.793-67.877c6.706-6.34,15.584-9.873,24.812-9.873h163.954
						c13.145,0,24.616,8.627,28.649,21.138c25.647,79.556-17.747,127.846-130.182,144.87L3038.528,2371.638z"/>
				</g>
				<g>
					<path style="fill:#F9B00D;" d="M3152.406,2405.978c96.043-14.542,141.664-51.919,136.952-112.089h9.73
						c13.145,0,24.616,8.627,28.649,21.138c25.647,79.556-17.747,127.846-130.182,144.87l-159.027-88.258l19.236-18.187
						L3152.406,2405.978z"/>
				</g>
				<g>
					<path style="fill:#650000;" d="M3197.554,2482.323c-3.789,0-7.537-0.962-10.884-2.817l-159.026-88.257
						c-6.25-3.467-10.474-9.712-11.367-16.807c-0.896-7.09,1.648-14.189,6.843-19.102l71.792-67.881
						c10.92-10.317,25.203-16.001,40.22-16.001h163.955c22.832,0,42.925,14.746,49.998,36.689
						c12.925,40.093,10.618,74.731-6.855,102.959c-22.783,36.802-69.009,60.015-141.318,70.962
						C3199.796,2482.24,3198.673,2482.323,3197.554,2482.323z M3076.195,2366.894l125.466,69.634
						c53.433-9.038,87.874-25.518,102.429-49.033c10.374-16.753,11.128-38.208,2.302-65.586c-1.079-3.345-4.014-5.596-7.305-5.596
						h-163.955c-3.511,0-6.851,1.333-9.407,3.745L3076.195,2366.894z"/>
				</g>
				<g>
					<path style="fill:#650000;" d="M3093.653,2420.165c-5.74,0-11.377-2.749-14.849-7.847c-5.576-8.193-3.457-19.355,4.736-24.932
						c62.588-42.598,142.532-49.517,251.584-21.753c9.602,2.446,15.405,12.212,12.961,21.816
						c-2.446,9.6-12.214,15.386-21.814,12.959c-98.359-25.039-169.072-19.751-222.542,16.646
						C3100.643,2419.155,3097.127,2420.165,3093.653,2420.165z"/>
				</g>
			</g>
			<g>
				<g style="opacity:0.4;">
					<path style="fill:#31303D;" d="M2035.356,2046.288l-611.039,32.12c-27.497,1.446-53.116,14.4-70.578,35.69l-164.423,200.462
						c-11.611,14.156-3.089,35.572,15.083,37.804c210.774,25.898,499.859,29.591,830.958,21.37l53.012-0.748
						c331.099,8.221,620.184,4.528,830.958-21.37c18.173-2.233,26.695-23.648,15.083-37.804l-164.423-200.462
						c-17.462-21.29-43.081-34.244-70.578-35.69l-611.039-32.12L2035.356,2046.288z"/>
				</g>
				<g>
					<path style="fill:#650000;" d="M879.407,3239.211v97.484c0,19.977,15.363,36.644,35.279,38.207
						c87.131,6.841,173.34,6.99,258.468-0.729c13.626-1.236,24.089-12.617,24.089-26.299v-80.24
						C1048.279,3265.269,914.679,3260.366,879.407,3239.211z"/>
				</g>
				<g>
					<path style="fill:#650000;" d="M3257.551,3239.211v97.484c0,19.977-15.363,36.644-35.279,38.207
						c-87.131,6.841-173.34,6.99-258.468-0.729c-13.625-1.236-24.089-12.617-24.089-26.299v-80.24
						C3088.679,3265.269,3222.28,3260.366,3257.551,3239.211z"/>
				</g>
				<g>
					<polygon style="fill:#F9D702;" points="2684.119,3277.622 2145.986,3301.485 1977.732,3302.248 1439.643,3278.385 
						1650.285,3101.608 2035.371,3109.368 2088.346,3108.606 2473.432,3100.846 					"/>
				</g>
				<g>
					<polygon style="fill:#F9B00D;" points="2687.998,3277.622 2149.864,3301.485 1981.61,3302.248 1443.521,3278.385 
						1654.163,3101.608 2039.25,3109.368 2092.224,3108.606 2477.31,3100.846 					"/>
				</g>
				<g>
					<path style="fill:#63577F;" d="M2035.356,3025.638c-306.888-3.887-613.775-34.307-920.663-91.259
						c-14.715-2.731-29.81,2.156-40.067,13.054l-127.079,135.022l21.216,84.864c3.399,13.595,15.151,23.465,29.129,24.464
						l375.909,26.851c12.565,0.897,25.098-2.127,35.871-8.656l180.807-109.58l444.878,8.971l53.012-0.748l444.878-8.971
						l180.807,109.58c10.773,6.529,23.306,9.553,35.871,8.656l375.909-26.851c13.978-0.998,25.73-10.868,29.129-24.464
						l21.216-84.864l-127.079-135.022c-10.257-10.898-25.352-15.785-40.067-13.054c-306.888,56.951-613.775,87.371-920.663,91.258
						L2035.356,3025.638z"/>
				</g>
				<g style="opacity:0.2;">
					<path d="M1074.644,3005.216c10.257-10.899,25.352-15.785,40.067-13.054c306.888,56.951,613.776,87.371,920.663,91.258
						l53.012-0.748c306.887-3.887,613.775-34.307,920.663-91.259c14.715-2.731,29.81,2.156,40.067,13.054l115.65,122.878
						l11.41-45.639l-127.079-135.022c-10.257-10.898-25.353-15.784-40.067-13.054c-306.888,56.952-613.776,87.371-920.663,91.259
						l-53.012,0.748c-306.888-3.887-613.775-34.307-920.663-91.259c-14.715-2.731-29.81,2.156-40.067,13.054l-127.08,135.022
						l11.418,45.671L1074.644,3005.216z"/>
				</g>
				<g>
					<path style="fill:#55CBFF;" d="M1001.358,2589.042c108.82,49.745,229.796,90.967,361.313,124.654
						c-26.42,24.985-52.84,49.969-79.26,74.909c-10.272,9.734-24.985,13.188-38.531,9.061l-147.486-44.945
						c-9.285-2.826-17.045-9.33-21.441-17.987L1001.358,2589.042z"/>
				</g>
				<g>
					<path style="fill:#55CBFF;" d="M3122.36,2588.28l-74.55,145.736c-4.441,8.612-12.201,15.116-21.486,17.942l-147.486,44.99
						c-13.546,4.127-28.214,0.673-38.531-9.061c-26.42-24.984-52.84-49.969-79.26-74.954
						C2892.609,2679.292,3013.54,2638.07,3122.36,2588.28z"/>
				</g>
				<g style="opacity:0.2;">
					<path d="M1329.184,2745.344c11.162-10.552,22.324-21.093,33.486-31.648c-131.517-33.687-252.493-74.909-361.313-124.654
						l27.025,52.783C1120.648,2681.979,1221.22,2716.299,1329.184,2745.344z"/>
				</g>
				<g style="opacity:0.2;">
					<path d="M3096.297,2639.229l26.063-50.949c-108.82,49.79-229.751,91.012-361.313,124.654
						c10.916,10.323,21.833,20.647,32.749,30.97C2902.475,2714.588,3003.604,2679.895,3096.297,2639.229z"/>
				</g>
				<g>
					<g>
						<path style="fill:#FDD907;" d="M3073.736,2367.635c-10.855-5.562-20.499-13.232-28.394-22.518l-228.899-269.628
							c-35.66-41.985-87.199-67.284-142.237-69.885l-585.861-27.362l-52.974,0.763l-585.86,27.362
							c-55.038,2.557-106.532,27.9-142.193,69.885l-228.943,269.628c-7.895,9.285-17.538,16.956-28.394,22.473
							c-150.85,76.972-243.791,163.32-238.498,265.546c2.063,209.656,13.995,401.324,42.703,562.58
							c5.876,33.014,34.09,57.46,67.598,58.94l517.859,22.966l210.642-176.776l-59.793-1.211l-180.813,109.583
							c-10.765,6.504-23.325,9.554-35.885,8.657l-375.891-26.868c-13.995-0.987-25.747-10.855-29.156-24.446l-21.217-84.867
							l127.076-135.016c10.272-10.9,25.388-15.789,40.101-13.053c306.858,56.967,613.761,87.379,920.663,91.236l52.974-0.718
							c306.903-3.902,613.806-34.315,920.663-91.281c14.758-2.736,29.829,2.153,40.101,13.053l127.076,135.015l-21.217,84.867
							c-3.409,13.591-15.161,23.459-29.156,24.491l-375.891,26.824c-12.56,0.897-25.119-2.108-35.885-8.657l-180.813-109.583
							l-59.793,1.211l210.687,176.777l517.814-22.966c33.507-1.48,61.766-25.882,67.642-58.94
							c28.663-161.256,40.594-352.925,42.658-562.58C3317.527,2530.909,3224.586,2444.562,3073.736,2367.635z M1283.41,2788.605
							c-10.272,9.734-24.985,13.188-38.531,9.061l-147.486-44.945c-9.285-2.826-17.045-9.33-21.441-17.987l-74.595-145.691
							c108.82,49.745,229.796,90.967,361.313,124.654C1336.25,2738.681,1309.83,2763.665,1283.41,2788.605z M2088.346,2372.972
							l-52.974,0.763c-331.125,8.208-620.22,4.531-830.952-21.351c-18.211-2.243-26.734-23.684-15.116-37.813l164.441-200.46
							c17.449-21.307,43.061-34.27,70.558-35.705l611.069-32.117l52.974-0.763l611.07,32.117
							c27.496,1.48,53.109,14.399,70.558,35.705l164.441,200.46c11.617,14.174,3.095,35.571-15.072,37.813
							C2708.566,2377.503,2419.471,2381.226,2088.346,2372.972z M3047.809,2734.016c-4.441,8.612-12.201,15.116-21.486,17.942
							l-147.486,44.99c-13.546,4.127-28.214,0.673-38.531-9.061c-26.42-24.984-52.84-49.969-79.26-74.954
							c131.562-33.642,252.493-74.864,361.313-124.654L3047.809,2734.016z"/>
					</g>
				</g>
				<g style="opacity:0.6;">
					<path style="fill:#FFFFFF;" d="M811.781,2656.946c7.267-93.349,97.539-173.28,238.2-245.053
						c10.855-5.517,20.499-13.188,28.394-22.473l228.943-269.628c35.66-41.985,87.155-67.328,142.193-69.885l585.86-27.362
						l52.974-0.763l585.861,27.362c55.038,2.602,106.577,27.9,142.237,69.885l228.899,269.628
						c7.895,9.285,17.539,16.955,28.394,22.518c140.661,71.731,230.934,151.659,238.2,245.008
						c0.103-7.675,0.221-15.323,0.297-23.048c5.293-102.226-87.648-188.573-238.498-265.501
						c-10.855-5.562-20.499-13.232-28.394-22.518l-228.899-269.628c-35.66-41.985-87.199-67.284-142.237-69.885l-585.861-27.362
						l-52.974,0.763l-585.86,27.362c-55.038,2.557-106.532,27.9-142.193,69.885l-228.943,269.628
						c-7.895,9.285-17.538,16.956-28.394,22.473c-150.85,76.972-243.791,163.32-238.498,265.546
						C811.56,2641.623,811.677,2649.271,811.781,2656.946z"/>
				</g>
				<g style="opacity:0.6;">
					<path style="fill:#FFFFFF;" d="M1204.419,2395.924c210.732,25.882,499.827,29.56,830.952,21.351l52.974-0.763
						c331.125,8.253,620.22,4.53,830.997-21.351c18.167-2.243,26.689-23.639,15.072-37.813l-6.863-8.365
						c-2.445,1.318-5.178,2.264-8.209,2.638c-210.777,25.882-499.872,29.604-830.997,21.351l-52.974,0.763
						c-331.125,8.208-620.22,4.531-830.952-21.351c-3.045-0.375-5.79-1.325-8.245-2.65l-6.872,8.377
						C1177.685,2372.24,1186.208,2393.681,1204.419,2395.924z"/>
				</g>
				<g>
					<path style="fill:#F9B00D;" d="M1077.627,2932.888c-61.445,25.947-117.906,56.722-165.594,95.992
						c-24.255,19.974-39.627,49.043-42.09,80.367c-3.843,48.871,8.655,90.904,28.261,129.964l541.438,33.133l183.729-169.728
						l-227.269,116.172l-423.139-28.791l-20.393-87.381C964.496,3056.974,1017.879,2996.1,1077.627,2932.888z"/>
				</g>
				<g>
					<path style="fill:#F9B00D;" d="M3055.808,2932.888c61.445,25.947,117.906,56.722,165.593,95.992
						c24.255,19.974,39.627,49.043,42.091,80.367c3.843,48.871-8.655,90.904-28.261,129.964l-541.438,33.133l-183.729-169.728
						l227.269,116.172l423.139-28.791l20.393-87.381C3168.939,3056.974,3115.556,2996.1,3055.808,2932.888z"/>
				</g>
				<g>
					<path style="fill:#650000;" d="M1439.637,3296.327c-5.122,0-10.205-2.183-13.755-6.411c-6.37-7.593-5.378-18.906,2.212-25.278
						l210.679-176.777c7.59-6.377,18.906-5.381,25.278,2.212c6.37,7.593,5.378,18.906-2.212,25.278l-210.679,176.777
						C1447.798,3294.95,1443.707,3296.327,1439.637,3296.327z"/>
				</g>
				<g style="opacity:0.6;">
					<path style="fill:#FFFFFF;" d="M1341.723,2640.253c-36.807-110.483-104.874-198.726-212.885-255.173"/>
				</g>
				<g style="opacity:0.6;">
					<path style="fill:#FFFFFF;" d="M2780.682,2640.253c36.807-110.483,104.874-198.726,212.885-255.173"/>
				</g>
				<g>
					<path style="fill:#650000;" d="M1120.228,2374.768c66.799,62.748,125.966,132.659,182.197,204.816
						c18.596,24.136,36.727,48.66,53.488,74.332c1.851,2.834,1.053,6.631-1.78,8.481c-2.418,1.577-5.54,1.226-7.552-0.671
						c-22.313-21.025-43.257-43.198-63.737-65.759c-40.946-45.139-79.935-91.912-116.719-140.513
						c-18.412-24.292-36.299-49.021-52.762-74.941C1110.595,2376.249,1116.419,2371.165,1120.228,2374.768L1120.228,2374.768z"/>
				</g>
				<g>
					<path style="fill:#650000;" d="M1599.658,2426.88c-9.943,39.796-24.012,80.025-38.165,118.552
						c-14.699,38.858-30.018,77.41-48.477,114.719c-1.66,3.323-5.701,4.673-9.025,3.013c-2.882-1.44-4.276-4.673-3.514-7.673
						c10.39-40.305,23.972-79.51,38.221-118.53c14.458-38.437,30.059-78.043,48.533-114.7
						C1590.783,2415.308,1601.539,2419.258,1599.658,2426.88L1599.658,2426.88z"/>
				</g>
				<g style="opacity:0.6;">
					<polygon style="fill:#FFFFFF;" points="2263.732,2054.759 2430.576,2063.529 2176.592,2373.735 1977.732,2373.735 					"/>
				</g>
				<g style="opacity:0.6;">
					<polygon style="fill:#FFFFFF;" points="2495.145,2045.549 2554.323,2078.51 2329.492,2396.891 2254.604,2369.512 					"/>
				</g>
				<g>
					<path style="fill:#650000;" d="M1977.728,3324.677c-0.329,0-0.659-0.005-0.989-0.02l-1055.933-46.831
						c-44.48-1.978-80.964-33.818-88.723-77.427c-26.672-149.897-40.745-335-43.022-565.835
						c-5.117-103.882,76.907-197.495,250.73-286.177c8.201-4.18,15.427-9.912,21.479-17.041l228.931-269.614
						c39.546-46.567,97.224-74.912,158.25-77.761l585.857-27.368c0.244-0.012,0.486-0.02,0.73-0.024l53.013-0.75
						c0.452,0.002,0.913,0.002,1.365,0.024l585.859,27.366c61.028,2.854,118.706,31.199,158.25,77.766l228.933,269.619
						c6.045,7.119,13.271,12.852,21.475,17.036c173.828,88.682,255.85,182.3,250.73,286.182
						c-2.273,230.815-16.348,415.913-43.022,565.83c-7.759,43.608-44.243,75.449-88.721,77.427l-1055.933,46.826
						c-0.298,0.01-0.596,0.02-0.894,0.02l-168.259,0.752C1977.798,3324.677,1977.762,3324.677,1977.728,3324.677z
						 M2036.028,2001.427l-585.483,27.351c-48.65,2.271-94.629,24.863-126.152,61.987l-228.931,269.619
						c-9.915,11.675-21.79,21.079-35.293,27.964c-156.653,79.917-230.676,159.858-226.289,244.385
						c0.017,0.313,0.027,0.63,0.029,0.942c2.239,228.535,16.086,411.343,42.334,558.862c3.992,22.432,23.569,39.453,46.553,40.474
						l1055.383,46.807l167.266-0.747l1055.483-46.807c22.981-1.021,42.559-18.042,46.55-40.474
						c26.25-147.534,40.098-330.342,42.334-558.862c0.002-0.313,0.012-0.63,0.029-0.942
						c4.387-84.526-69.634-164.463-226.294-244.385c-13.511-6.895-25.383-16.304-35.286-27.964l-228.933-269.619
						c-31.521-37.124-77.5-59.717-126.15-61.992l-585.178-27.336L2036.028,2001.427z"/>
				</g>
				<g>
					<path style="fill:#650000;" d="M1746.641,2395.546c-226.79,0-406.331-8.408-544.431-25.376
						c-14.883-1.826-27.593-11.611-33.167-25.537c-5.586-13.95-3.132-29.834,6.399-41.45l164.424-200.459
						c20.608-25.132,51.047-40.527,83.508-42.236l611.038-32.119c0.229-0.01,0.459-0.02,0.688-0.02l53.013-0.747
						c0.41,0,0.798,0,1.196,0.02l611.04,32.124c32.456,1.704,62.896,17.095,83.508,42.227l164.424,200.464
						c9.531,11.616,11.982,27.5,6.399,41.45c-5.576,13.926-18.284,23.711-33.169,25.537
						c-192.2,23.618-464.758,30.649-833.242,21.509l-52.661,0.742C1931.817,2394.252,1835.572,2395.546,1746.641,2395.546z
						 M2035.953,2064.223l-610.693,32.104c-22.41,1.177-43.42,11.802-57.646,29.15l-164.426,200.459
						c-1.738,2.124-1.265,4.268-0.83,5.361c0.527,1.313,1.687,2.944,4.229,3.257c190.493,23.403,461.438,30.352,828.325,21.245
						l53.203-0.752c0.227,0,0.466-0.005,0.698,0.005c366.895,9.102,637.832,2.153,828.325-21.245
						c2.544-0.313,3.704-1.943,4.231-3.257c0.435-1.094,0.908-3.237-0.83-5.361l-164.424-200.464
						c-14.231-17.344-35.242-27.969-57.649-29.146l-610.444-32.09L2035.953,2064.223z"/>
				</g>
				<g>
					<path style="fill:#F9B00D;" d="M3093.522,2644.653l-45.713,89.363c-4.441,8.612-12.201,15.116-21.486,17.942l-147.486,44.99
						c-13.546,4.127-28.214,0.673-38.531-9.061c-14.421-13.637-28.841-27.274-43.262-40.911c-1.96,0.53-3.955,1.034-5.918,1.562
						l-30.08-26.424L2236.4,2804.35c0.532-69.332-75.41-78.318-174.047-69.397c-90.548-6.232-172.526-4.333-178.818,69.397
						l-526.296-82.236l-28.159,26.247c-0.8-0.216-1.614-0.421-2.413-0.638c-14.419,13.63-28.838,27.271-43.256,40.882
						c-10.272,9.734-24.985,13.188-38.531,9.061l-147.486-44.945c-9.285-2.826-17.045-9.33-21.441-17.987l-45.731-89.317
						c-9.702-4.221-19.347-8.483-28.864-12.833l74.595,145.691c4.396,8.657,12.156,15.161,21.441,17.987l147.486,44.946
						c13.547,4.127,28.259,0.673,38.531-9.061c16.033-15.135,32.066-30.301,48.099-45.459l5.302-1.498
						c23.315-6.589,47.76-8.173,71.73-4.648l467.445,68.742c6.826,1.004,13.703,1.35,20.538,1.049
						c19.209-0.845,35.59-13.609,42.024-31.728c10.835-30.514,38.837-42.26,81.772-37.682c29.11,3.104,58.451,3.338,87.724,2.945
						c40.685-0.547,67.211,10.551,77.602,34.92c8.974,21.048,30.413,34.339,53.084,31.246c0.4-0.055,0.801-0.112,1.201-0.172
						l447.995-67.156c33.08-4.958,66.814-3.335,99.266,4.778l9.032,2.258c14.694,13.896,29.388,27.792,44.083,41.688
						c10.317,9.734,24.985,13.188,38.531,9.061l147.486-44.99c9.285-2.826,17.045-9.33,21.486-17.942l74.55-145.737
						C3112.85,2636.171,3103.215,2640.432,3093.522,2644.653z"/>
				</g>
				<g style="opacity:0.6;">
					<path style="fill:#FFFFFF;" d="M1011.091,2578.447c280.859,78.68,554.346,139.995,816.374,174.318
						c49.481-49.69,126.381-74.969,232.749-74.012c92.999,6.991,174.518,22.405,222.537,62.395
						c239.416-17.627,530.297-81.828,839.601-162.702c-254.058,108.75-527.666,197.633-866.514,220.213
						c-21.409-52.488-106.862-58.522-193.485-63.708c-88.212-4.724-154.908,15.653-197.881,63.708
						C1551.689,2771.473,1262.392,2705.963,1011.091,2578.447z"/>
				</g>
				<g>
					<path style="fill:#650000;" d="M1877.554,2822.294c-0.664,0-1.331-0.039-1.997-0.112
						c-188.74-21.147-357.275-50.454-507.908-88.491l-71.922,67.979c-14.934,14.116-36.421,19.17-56.086,13.169l-147.466-44.961
						c-13.867-4.224-25.61-14.053-32.217-26.963l-74.558-145.698c-3.482-6.802-2.273-15.059,3.008-20.576
						c5.286-5.522,13.486-7.09,20.427-3.916c105.354,48.188,223.337,89.097,355.566,123.115c1.843,0.181,3.662,0.64,5.386,1.382
						c145.928,37.231,309.163,66.143,491.851,87.261c2.952-10.884,8.899-21.084,17.671-30.151
						c25.889-26.763,75.073-41.313,131.572-38.877c22.429,0.962,46.336,1.875,70.247,1.528c3.604-0.049,7.507-0.313,12.288-0.82
						c63.469-6.758,119.189,6.499,149.077,35.498c9.844,9.551,16.445,20.405,19.604,32.07
						c182.695-21.118,345.918-50.029,491.848-87.261c1.716-0.737,3.528-1.196,5.361-1.372
						c132.251-34.028,250.22-74.927,355.581-123.12c6.951-3.179,15.146-1.602,20.427,3.911c5.281,5.522,6.489,13.779,3.008,20.581
						l-74.561,145.698c-6.609,12.91-18.352,22.739-32.217,26.963l-147.463,44.961c-19.653,5.981-41.152,0.947-56.089-13.169
						l-71.924-67.979c-150.632,38.032-319.155,67.339-507.903,88.491c-5.271,0.596-10.608-1.206-14.456-4.922
						c-3.845-3.711-5.837-8.94-5.432-14.272c0.676-8.882-2.949-17.236-10.771-24.824c-21.665-21.021-68.882-31.064-120.288-25.571
						c-5.911,0.63-10.864,0.952-15.593,1.016c-24.846,0.371-49.331-0.576-72.278-1.558c-45.723-1.909-85.661,8.765-104.248,27.979
						c-7.048,7.285-10.298,15.264-9.656,23.706c0.405,5.332-1.587,10.562-5.432,14.272
						C1886.651,2820.507,1882.176,2822.294,1877.554,2822.294z M1040.333,2625.79l51.572,100.776
						c2.202,4.302,6.113,7.578,10.73,8.984l147.471,44.961c7.363,2.251,15.388,0.356,20.972-4.922l55.625-52.573
						C1222.711,2695.048,1127.523,2662.704,1040.333,2625.79z M2797.02,2722.27l55.623,52.568
						c5.591,5.283,13.633,7.173,20.977,4.927l147.466-44.961c4.622-1.406,8.533-4.683,10.735-8.984l51.572-100.776
						C2996.207,2661.952,2901.009,2694.301,2797.02,2722.27z"/>
				</g>
				<g>
					<path style="fill:#650000;" d="M1378.223,3236.733c-1.895,0-3.796-0.068-5.703-0.205l-375.908-26.851
						c-21.77-1.548-39.958-16.821-45.256-38.003l-21.218-84.868c-1.482-5.928,0.154-12.197,4.341-16.646l127.08-135.024
						c14.482-15.386,35.581-22.261,56.406-18.398c304.38,56.489,613.015,87.09,917.378,90.957l52.771-0.742
						c304.49-3.862,613.22-34.468,917.644-90.962c20.847-3.867,41.926,3.013,56.406,18.398l127.08,135.024
						c4.187,4.448,5.823,10.718,4.341,16.646l-21.216,84.863c-5.295,21.182-23.484,36.455-45.261,38.008l-375.903,26.851
						c-16.35,1.191-32.417-2.705-46.45-11.211l-176.355-106.88l-439.67,8.872l-53.12,0.747c-0.215,0-0.413,0-0.615,0l-439.67-8.872
						l-176.353,106.88C1406.583,3232.831,1392.598,3236.733,1378.223,3236.733z M967.33,3087.612l18.838,75.356
						c1.521,6.084,6.746,10.469,12.998,10.918l375.913,26.851c8.911,0.63,17.656-1.475,25.288-6.104l180.811-109.58
						c2.908-1.768,6.255-2.622,9.661-2.598l444.57,8.97l52.705-0.742l444.771-8.975c3.315,0.029,6.753,0.83,9.661,2.593
						l180.808,109.585c7.639,4.624,16.394,6.738,25.293,6.104l375.908-26.851c6.257-0.449,11.479-4.834,13-10.918l18.838-75.356
						l-120.361-127.886c-6.077-6.455-14.951-9.355-23.728-7.705c-306.426,56.865-617.207,87.671-923.708,91.558l-52.986,0.747
						c-0.159,0-0.317,0.005-0.481,0c-306.472-3.882-617.254-34.688-923.708-91.558c-8.782-1.616-17.651,1.255-23.73,7.71
						L967.33,3087.612z"/>
				</g>
				<g>
					<path style="fill:#650000;" d="M2684.088,3295.58c-4.07,0-8.162-1.377-11.523-4.199l-210.679-176.782
						c-7.59-6.372-8.582-17.686-2.212-25.278c6.372-7.588,17.688-8.584,25.278-2.212l210.679,176.782
						c7.59,6.372,8.582,17.686,2.212,25.278C2694.293,3293.398,2689.207,3295.58,2684.088,3295.58z"/>
				</g>
				<g>
					<path style="fill:#650000;" d="M3010.361,2379.766c-49.988,76.814-108.37,147.384-169.482,215.455
						c-20.479,22.561-41.424,44.731-63.736,65.759c-2.463,2.319-6.342,2.205-8.662-0.259c-1.981-2.102-2.184-5.237-0.671-7.551
						c16.763-25.671,34.894-50.198,53.49-74.333c37.214-48.262,76.377-94.888,117.732-139.666
						c20.664-22.407,41.853-44.373,64.463-65.149C3007.204,2370.544,3013.236,2375.383,3010.361,2379.766L3010.361,2379.766z"/>
				</g>
				<g>
					<path style="fill:#650000;" d="M2536.492,2421.514c18.463,36.627,34.086,76.281,48.534,114.697
						c14.247,39.024,27.831,78.224,38.22,118.533c0.913,3.601-1.265,7.261-4.866,8.174c-3.123,0.793-6.29-0.745-7.672-3.513
						c-18.459-37.308-33.779-75.863-48.478-114.719c-14.157-38.549-28.213-78.729-38.165-118.552
						C2522.211,2418.548,2532.939,2414.513,2536.492,2421.514L2536.492,2421.514z"/>
				</g>
				<g>
					<path style="fill:#650000;" d="M1042.052,3397.909c-42.256,0-85.261-1.704-128.77-5.122
						c-29.055-2.28-51.816-26.919-51.816-56.094v-97.48c0-6.465,3.477-12.427,9.099-15.61c5.627-3.188,12.527-3.101,18.071,0.225
						c35.901,21.528,220.283,24.458,308.892,25.869c9.797,0.156,17.656,8.14,17.656,17.939v80.239
						c0,23.091-17.373,42.08-40.41,44.17C1131.636,3395.956,1087.274,3397.909,1042.052,3397.909z M897.349,3264.98v71.714
						c0,10.571,8.232,19.497,18.74,20.322c88.066,6.909,174.009,6.675,255.442-0.713c4.429-0.4,7.769-4.023,7.769-8.428v-62.598
						C1045.159,3282.905,947.962,3278.173,897.349,3264.98z"/>
				</g>
				<g>
					<path style="fill:#650000;" d="M3094.908,3397.909c-45.229,0-89.583-1.953-132.725-5.864
						c-23.037-2.09-40.41-21.079-40.41-44.17v-80.239c0-9.8,7.859-17.783,17.656-17.939c88.611-1.411,272.993-4.341,308.894-25.869
						c5.544-3.325,12.446-3.413,18.071-0.225c5.623,3.184,9.099,9.146,9.099,15.61v97.48c0,29.175-22.761,53.813-51.816,56.094
						C3180.174,3396.205,3137.159,3397.909,3094.908,3397.909z M2957.657,3285.278v62.598c0,4.404,3.34,8.027,7.769,8.428
						c81.433,7.393,167.375,7.622,255.444,0.713c10.508-0.825,18.74-9.751,18.74-20.322v-71.714
						C3188.997,3278.173,3091.798,3282.905,2957.657,3285.278z"/>
				</g>
			</g>
			<g>
				<g>
					<g>
						<path style="fill:#D2623A;" d="M1521.542,793.543c-16.099-48.003-42.369-84.781-78.809-110.336
							c-17.366,60.09-44.595,115.502-113.644,151.081c-588.897,226.847-511.54,1259.693,346.228,1014.837
							c35.973-10.269,72.473-18.528,108.534-28.481c685.137-174.118,570.805-1017.155-116.719-1043.308
							c-7.735-28.024,9.425-49.025,35.302-67.568C1627.922,698.449,1566.423,723.056,1521.542,793.543z"/>
					</g>
					<g>
						<path style="fill:#F9D6B6;" d="M2089.356,1499.208c7.369,26.017,5.369,53.512-4.655,81.305
							c-36.05,99.649-175.72,203.065-359.357,255.078c-3.656,1.036-7.322,2.032-10.989,3.028c-0.545,0.154-1.05,0.297-1.606,0.413
							c-4.028,1.057-8.094,2.125-12.122,3.181c-166.919,42.07-322.086,28.929-404.549-27.574
							c-28.781-19.742-48.684-44.772-57.121-74.562c-12.513-44.178,1.988-92.648,37.118-139.483
							c-77.208-30.979-139.725-96.115-164.146-182.333c-41.858-147.78,44.034-301.498,191.776-343.345
							c76.457-21.656,154.496-9.102,217.825,28.497c34.205-65.225,94.069-116.839,170.526-138.495
							c147.78-41.858,301.487,43.995,343.345,191.776c24.85,87.735,4.708,177.543-46.686,244.822
							C2040.994,1423.09,2077.162,1456.157,2089.356,1499.208z"/>
					</g>
					<g>
						<g style="opacity:0.2;">
							<path d="M1699.568,709.35c-18.994-2.66-37.127-2.942-54.348-0.707c-0.656,0.085-1.124,0.697-1.026,1.351
								c0.248,1.661,0.565,3.341,1,5.054c0.128,0.504,0.587,0.87,1.107,0.891c14.939,0.584,29.596,1.57,43.991,2.911
								c0.307,0.029,0.606-0.065,0.841-0.266c2.831-2.414,5.818-4.783,8.959-7.11
								C1700.937,710.848,1700.609,709.496,1699.568,709.35z"/>
						</g>
						<g>
							<g>
								<path style="fill:#F4B68C;" d="M1762.145,1759.213c-36.078,9.967-72.563,18.2-108.552,28.478
									c-139.731,39.872-258.731,45.851-357.514,26.949c82.463,56.503,237.63,69.644,404.549,27.574
									c4.028-1.057,8.094-2.125,12.122-3.181c0.555-0.115,1.061-0.258,1.606-0.413c3.667-0.996,7.333-1.993,10.989-3.028
									c183.637-52.014,323.307-155.429,359.357-255.078C2009.489,1659.663,1902.644,1723.534,1762.145,1759.213z"/>
							</g>
						</g>
						<g>
							<path style="fill:#BC462F;" d="M1783.835,1820.662c-23.078,6.326-46.293,12.02-69.481,17.957
								c3.667-0.996,7.333-1.993,10.989-3.028c183.637-52.014,323.307-155.429,359.357-255.078
								c36.593-38.553,65.738-80.71,87.547-125.032c3.442-6.982,3.886-14.46,1.992-21.149c-3.228-11.395-13.211-20.54-26.44-21.414
								c-0.649-0.068-1.137-0.602-1.107-1.241l2.35-32.341c0.051-0.56,0.507-1.026,1.085-1.063l52.385-3.117
								c0.489-0.055,0.9-0.381,1.052-0.886c23.283-81.54,24.433-167.061,4.704-248.433c-0.358-1.411,1.681-2.073,2.233-0.717
								C2312.038,1387.488,2184.971,1718.722,1783.835,1820.662z"/>
						</g>
						<g>
							<g>
								<path style="fill:#BC462F;" d="M1296.078,1814.639c-76.052-14.587-140.106-43.915-192.426-83.876
									c-0.632-0.451-0.613-1.423,0.01-1.893l47.514-33.664c0.517-0.399,0.652-1.109,0.292-1.637l-18.961-26.305
									c-0.337-0.45-0.97-0.607-1.482-0.337l-61.965,33.221c-0.434,0.249-1.005,0.159-1.36-0.203
									c-38.508-37.026-69.05-80.635-91.732-128.529c-0.619-1.295-2.625-0.517-2.19,0.872
									c73.175,228.685,303.193,390.553,701.542,276.841c8.4-2.379,16.861-4.692,25.305-6.916
									C1533.708,1884.283,1378.542,1871.142,1296.078,1814.639z M1068.399,1700.629l33.807,29.031
									C1090.329,1720.506,1079.014,1710.814,1068.399,1700.629z"/>
							</g>
						</g>
					</g>
					<g style="opacity:0.6;">
						<g>
							<path style="fill:#FFFFFF;" d="M1681.861,829.343c294.187,11.191,483.405,171.953,549.97,365.87
								c-47.206-209.604-232.417-393.764-534.911-416.193C1683.337,793.378,1676.417,809.617,1681.861,829.343z"/>
						</g>
						<g>
							<path style="fill:#FFFFFF;" d="M1343.819,886.295c69.05-35.579,96.278-90.991,113.644-151.081
								c36.44,25.555,62.709,62.334,78.809,110.336c34.042-53.463,77.652-80.51,129.24-85.527
								c1.821-19.71,16.67-35.744,36.92-50.254c-74.51-11.32-136.009,13.288-180.891,83.775
								c-16.099-48.003-42.369-84.782-78.809-110.336c-17.366,60.09-44.595,115.502-113.644,151.081
								c-319.001,122.881-442.473,482.253-352.33,746.942C917.977,1323.426,1045.28,1001.294,1343.819,886.295z"/>
						</g>
					</g>
					<g>
						<path style="fill:#650000;" d="M1560.044,1600.177c54.063,190.871,244.558,164.447,184.364-48.068
							C1690.808,1592.277,1629.118,1607.575,1560.044,1600.177z"/>
					</g>
					<g>
						<path style="fill:#FC4F8B;" d="M1751.823,1665.149c-17.311,70.907-84.624,83.515-137.537,32.574
							C1623.008,1633.341,1718.657,1608.765,1751.823,1665.149z"/>
					</g>
					<g>
						<path style="fill:#650000;" d="M1430.819,1904.736c-85.83,0.003-163.533-15.901-232.505-47.698
							c-114.761-52.905-197.607-147.18-239.58-272.632c-45.713-136.628-36.692-296.394,24.749-438.333
							c66.196-152.922,186.279-269.475,338.179-328.279c65.54-34.123,88.589-87.248,103.721-139.602
							c1.619-5.603,5.845-10.081,11.345-12.019c5.5-1.943,11.599-1.106,16.377,2.246c31.135,21.833,55.613,51.414,73.047,88.196
							c45.342-54.131,105.398-75.881,178.994-64.705c7.266,1.104,13.137,6.497,14.851,13.643c1.714,7.144-1.069,14.617-7.043,18.896
							c-20.571,14.741-27.749,26.191-29.294,35.588c160.3,9.092,299.517,62.981,403.445,156.338
							c97.446,87.534,158.535,205.884,172.012,333.242c13.232,125.054-20.781,250.22-95.774,352.437
							c-83.059,113.208-212.744,194.849-375.042,236.094c-16.318,4.509-33.274,8.801-49.67,12.952
							c-19.219,4.863-39.094,9.895-58.354,15.393C1590.96,1891.989,1507.632,1904.733,1430.819,1904.736z M1451.912,713.935
							c-17.651,50.125-47.561,101.89-114.551,136.409c-0.578,0.3-1.174,0.566-1.782,0.801
							c-309.5,119.219-427.014,469.47-342.588,721.799c86.472,258.452,339.702,355.205,677.366,258.813
							c19.785-5.647,39.929-10.747,59.407-15.676c16.213-4.104,32.976-8.347,49.282-12.847
							c361.15-91.787,464.915-353.533,444.146-549.815c-23.103-218.325-204.214-444.626-556.748-458.035
							c-7.866-0.3-14.631-5.657-16.726-13.245c-6.406-23.215,0.288-42.212,10.398-56.704c-51.262,2.644-91.836,28.335-123.337,77.81
							c-3.74,5.872-10.527,9.07-17.429,8.225c-6.909-0.845-12.72-5.583-14.932-12.185
							C1492.733,764.448,1475.118,735.839,1451.912,713.935z"/>
					</g>
					<g>
						<path style="fill:#650000;" d="M1593.336,1617.468c-27.632,0-53.86-4.954-75.698-15.715
							c-7.158-3.528-10.103-12.19-6.575-19.348c3.528-7.161,12.195-10.1,19.348-6.575c67.246,33.14,194.058-2.776,233.94-66.26
							c4.25-6.758,13.167-8.794,19.922-4.551c6.758,4.246,8.794,13.167,4.551,19.922
							C1753.656,1580.922,1668.365,1617.468,1593.336,1617.468z"/>
					</g>
					<g>
						<path style="fill:#650000;" d="M1682.222,1743.08c-50.198,0-109.312-44.458-136.079-138.965
							c-1.309-4.619-0.239-9.585,2.856-13.254c3.093-3.672,7.803-5.547,12.583-5.051c66.98,7.178,123.945-7.632,174.16-45.264
							c3.809-2.859,8.784-3.657,13.289-2.126c4.512,1.524,7.981,5.171,9.277,9.751c31.982,112.913-4.209,177.759-54.265,191.936
							C1697.066,1742.082,1689.74,1743.08,1682.222,1743.08z M1580.382,1616.161c27.803,76.05,78.774,106.599,115.788,96.14
							c33.582-9.512,57.227-55.178,39.324-136.484C1689.647,1604.919,1637.611,1618.432,1580.382,1616.161z"/>
					</g>
					<g>
						<path style="fill:#650000;" d="M1614.288,1712.175c-0.647,0-1.299-0.044-1.958-0.132c-7.908-1.072-13.45-8.352-12.378-16.26
							c4.966-36.643,34.971-66.623,74.663-74.6c37.566-7.539,71.926,6.499,89.653,36.665c4.045,6.88,1.746,15.735-5.134,19.778
							c-6.885,4.05-15.735,1.743-19.778-5.134c-13.508-22.976-39.358-26.941-59.048-22.976
							c-22.986,4.619-47.893,21.919-51.719,50.149C1627.606,1706.913,1621.407,1712.175,1614.288,1712.175z"/>
					</g>
					<g>
						
							<ellipse transform="matrix(0.8092 -0.5875 0.5875 0.8092 -581.8689 1221.0778)" style="fill:#650000;" cx="1589.256" cy="1506.489" rx="13.546" ry="20.47"/>
					</g>
					<g>
						
							<ellipse transform="matrix(0.0759 -0.9971 0.9971 0.0759 72.0775 3041.196)" style="fill:#650000;" cx="1676.726" cy="1481.713" rx="20.47" ry="13.546"/>
					</g>
					<g>
						
							<ellipse transform="matrix(0.9106 -0.4132 0.4132 0.9106 -482.1286 698.0258)" style="fill:#650000;" cx="1372.67" cy="1463.624" rx="92.76" ry="120.042"/>
					</g>
					<g>
						
							<ellipse transform="matrix(0.9106 -0.4132 0.4132 0.9106 -467.7135 704.1002)" style="fill:#FFFFFF;" cx="1393.923" cy="1433.338" rx="28.329" ry="41.738"/>
					</g>
					<g style="opacity:0.35;">
						
							<ellipse transform="matrix(0.7491 -0.6624 0.6624 0.7491 -664.2063 1278.2856)" style="fill:#FFFFFF;" cx="1355.472" cy="1516.019" rx="22.43" ry="33.046"/>
					</g>
					<g>
						
							<ellipse transform="matrix(0.9921 -0.1257 0.1257 0.9921 -153.1333 240.7569)" style="fill:#650000;" cx="1831.13" cy="1333.768" rx="92.76" ry="120.042"/>
					</g>
					<g>
						
							<ellipse transform="matrix(0.9921 -0.1257 0.1257 0.9921 -151.5602 236.3657)" style="fill:#FFFFFF;" cx="1797.151" cy="1319.126" rx="28.329" ry="41.738"/>
					</g>
					<g style="opacity:0.35;">
						
							<ellipse transform="matrix(0.1712 -0.9852 0.9852 0.1712 203.3923 2980.5083)" style="fill:#FFFFFF;" cx="1873.25" cy="1369.362" rx="33.046" ry="22.43"/>
					</g>
				</g>
				<g>
					<g>
						<path style="fill:#F9D6B6;" d="M2086.252,1120.619c207.203-269.447,470.07,270.895,71.621,252.859
							C2152.989,1286.798,2127.941,1202.66,2086.252,1120.619z"/>
					</g>
					<g>
						<path d="M2090.786,1114.872c-1.514,1.876-3.026,3.785-4.534,5.747c18.048,35.518,32.963,71.43,44.488,107.769
							C2121.128,1190.082,2107.727,1152.254,2090.786,1114.872z"/>
					</g>
					<g>
						<path style="fill:#F4B68C;" d="M2154.542,1336.749c1.494,12.194,2.638,24.433,3.33,36.728
							c195.343,8.842,231.726-116.52,193.656-214.875C2367.63,1247.352,2320.211,1341.554,2154.542,1336.749z"/>
					</g>
					<g style="opacity:0.6;">
						<g>
							<path style="fill:#FFFFFF;" d="M2361.424,1192.582c-23.334-117.977-158.127-224.169-275.172-71.963
								c4.436,8.731,8.643,17.491,12.698,26.269C2204.584,1015.045,2323.435,1090.114,2361.424,1192.582z"/>
						</g>
						<g>
							<path style="fill:#FFFFFF;" d="M2140.631,1262.981c9.285,36.386,15.141,73.205,17.242,110.497
								c2.095,0.095,4.145,0.152,6.203,0.216C2159.886,1336.333,2151.97,1299.441,2140.631,1262.981z"/>
						</g>
					</g>
					<g>
						<path style="fill:#F9D6B6;" d="M1054.191,1412.943c-317.728-120.764-258.186,477.168,71.621,252.859
							C1084.513,1589.437,1061.718,1504.661,1054.191,1412.943z"/>
					</g>
					<g>
						<path style="fill:#F4B68C;" d="M848.237,1584.4c19.164,103.711,115.884,191.372,277.574,81.402
							c-5.858-10.832-11.302-21.853-16.425-33.019C970.846,1723.753,881.069,1668.411,848.237,1584.4z"/>
					</g>
					<g>
						<path d="M1072.827,1528.035c-9.244-36.985-15.378-75.385-18.636-115.092c-2.313-0.879-4.601-1.712-6.874-2.515
							C1052.496,1451.141,1060.923,1490.379,1072.827,1528.035z"/>
					</g>
					<g style="opacity:0.6;">
						<g>
							<path style="fill:#FFFFFF;" d="M1058.031,1449.144c-1.548-11.945-2.839-24.007-3.84-36.201
								c-181.445-68.965-239.849,96.451-195.151,209.269C839.987,1516.214,901.843,1394.1,1058.031,1449.144z"/>
						</g>
						<g>
							<path style="fill:#FFFFFF;" d="M1119.623,1669.918c2.055-1.347,4.113-2.704,6.189-4.116
								c-17.218-31.838-31.176-65.159-42.196-99.815C1092.569,1602.017,1104.509,1636.689,1119.623,1669.918z"/>
						</g>
					</g>
					<g>
						<path style="fill:#F28475;" d="M2112.913,1179.025c114.998-145.03,277.714,114.247,38.409,135.604
							C2144.875,1270.943,2131.306,1225.559,2112.913,1179.025z"/>
					</g>
					<g>
						<path style="fill:#F28475;" d="M1062.119,1476.656c-173.972-63.181-176.55,242.914,38.409,135.604
							C1083.108,1571.682,1070.861,1525.923,1062.119,1476.656z"/>
					</g>
					<g>
						<path style="fill:#650000;" d="M2062.344,1074.463c69.111,96.3,109.155,218.353,94.703,337.287
							c-1.009,7.527-12.128,7.573-13.074-0.039c-7.161-57.422-16.634-113.485-32.957-168.737
							c-15.941-55.393-38.553-108.083-61.356-161.299C2046.323,1073.821,2057.221,1067.477,2062.344,1074.463L2062.344,1074.463z"/>
					</g>
					<g>
						<path style="fill:#650000;" d="M2176.986,1391.982c-6.445,0-13.071-0.149-19.932-0.459
							c-9.255-0.42-16.694-7.776-17.214-17.029c-4.565-81.008-28.013-163.669-69.69-245.691c-3.154-6.208-2.461-13.674,1.782-19.194
							c58.848-76.523,131.765-101.392,200.061-68.223c79.099,38.416,127.605,143.015,105.92,228.413
							C2368.372,1307.37,2329.825,1391.982,2176.986,1391.982z M2174.725,1355.849c0.73,0.005,1.462,0.007,2.19,0.007
							c91.694,0,150.347-33.354,165.986-94.949c17.146-67.522-24.175-156.665-86.689-187.026
							c-49.712-24.143-102.185-6.726-148.645,49.004C2145.548,1200.422,2168.096,1278.649,2174.725,1355.849z"/>
					</g>
					<g>
						<path style="fill:#650000;" d="M2151.304,1332.692c-8.865,0-16.533-6.499-17.852-15.427
							c-5.886-39.888-18.101-82.934-37.336-131.599c-2.371-6.001-1.365-12.808,2.644-17.864
							c36.675-46.248,85.044-62.126,129.407-42.463c43.586,19.321,70.803,68.015,63.308,113.262
							c-4.126,24.919-25.889,83.962-138.547,94.019C2152.384,1332.668,2151.842,1332.692,2151.304,1332.692z M2133.641,1182.499
							c15.43,40.415,26.189,77.351,32.654,112.148c51.948-7.944,84.265-30.08,89.543-61.948
							c4.807-29.036-13.777-61.687-42.312-74.336C2186.722,1146.479,2158.626,1155.063,2133.641,1182.499z"/>
					</g>
					<g>
						<path style="fill:#650000;" d="M1064.924,1360.593c8.491,57.264,16.872,113.996,32.346,169.516
							c15.075,55.606,36.412,108.307,60.426,160.957c3.155,6.886-6.292,12.857-11.111,6.89
							c-56.251-70.056-86.773-158.99-95.234-247.844c-2.818-29.675-3.355-59.453-1.008-89.006
							C1051.068,1352.58,1063.594,1352.035,1064.924,1360.593L1064.924,1360.593z"/>
					</g>
					<g>
						<path style="fill:#650000;" d="M988.907,1734.455c-53.384,0-88.059-25.278-104.822-41.538
							c-63.247-61.34-76.802-175.842-29.597-250.032c40.754-64.053,115.881-81.123,206.118-46.824
							c6.509,2.473,11.016,8.467,11.584,15.405c7.527,91.697,30.911,174.377,69.507,245.745c4.409,8.149,1.934,18.315-5.728,23.525
							C1076.783,1720.99,1027.862,1734.455,988.907,1734.455z M975.157,1414.814c-39.175,0-70.176,16.008-90.19,47.463
							c-37.307,58.635-25.742,156.206,24.268,204.709c45.977,44.59,114.121,41.843,192.983-7.356
							c-34.841-69.209-56.667-147.642-64.988-233.579C1014.847,1418.539,994.053,1414.814,975.157,1414.814z"/>
					</g>
					<g>
						<path style="fill:#650000;" d="M1017.899,1653.324c-42.109,0-66.016-20.166-76.575-32.3
							c-30.11-34.6-32.471-90.332-5.491-129.641c27.456-40.002,76.968-51.848,132.451-31.707
							c6.064,2.202,10.493,7.471,11.619,13.821c9.146,51.538,21.321,94.597,37.222,131.638c3.777,8.794,0.034,19.009-8.53,23.284
							C1071.844,1646.767,1041.912,1653.324,1017.899,1653.324z M1016.986,1485.995c-21.963,0-39.624,8.716-51.37,25.83
							c-17.664,25.735-16.365,63.284,2.957,85.484c21.208,24.372,60.332,26.269,108.728,5.791
							c-12.739-33.01-22.949-70.107-31.006-112.617C1035.87,1487.482,1026.058,1485.995,1016.986,1485.995z"/>
					</g>
				</g>
			</g>
			<g>
				<g>
					<path style="fill:#FFFFFF;" d="M2815.711,1003.408c-22.865-37.409-34.138-82.317-29.315-129.297
						c11.708-114.031,113.64-196.98,227.671-185.272c114.031,11.708,196.98,113.64,185.272,227.671
						c-11.708,114.031-113.64,196.98-227.671,185.272c-31.718-3.257-61.018-13.512-86.558-29.048l-96.052,21.541L2815.711,1003.408z
						"/>
				</g>
				<g style="opacity:0.5;">
					<g>
						<path style="fill:#FFFFFF;" d="M3009.989,728.55c-106.521-10.937-202.459,60.735-224.181,163.173
							c-0.026-7.317,0.289-14.699,1.053-22.142c11.708-114.031,113.639-196.98,227.67-185.272
							c114.031,11.708,196.98,113.64,185.272,227.671c-0.768,7.475-1.945,14.808-3.466,21.998
							C3195.937,829.217,3116.545,739.49,3009.989,728.55z"/>
					</g>
				</g>
				<g>
					<path style="fill:#650000;" d="M2993.038,1120.942c-7.678,0-15.413-0.391-23.215-1.194
						c-31.196-3.203-60.664-12.559-87.703-27.832l-89.109,19.983c-6.245,1.394-12.759-0.605-17.131-5.273
						c-4.373-4.665-5.952-11.296-4.153-17.434l24.456-83.374c-22.974-40.735-32.561-86.729-27.756-133.55
						c6.157-59.951,35.291-113.916,82.034-151.953c46.746-38.039,105.493-55.601,165.452-49.441
						c123.755,12.703,214.102,123.723,201.394,247.483C3205.401,1034.308,3107.169,1120.932,2993.038,1120.942z M2885.111,1054.672
						c3.286,0,6.536,0.896,9.387,2.632c24.143,14.685,50.728,23.606,79.016,26.511c103.909,10.657,197.185-65.21,207.859-169.15
						c5.168-50.349-9.58-99.702-41.528-138.96c-31.948-39.26-77.273-63.728-127.625-68.899c-50.339-5.161-99.7,9.578-138.96,41.526
						c-39.26,31.948-63.728,77.273-68.899,127.625c-4.268,41.592,4.985,82.407,26.76,118.032c2.659,4.346,3.354,9.614,1.921,14.502
						l-18.025,61.453l66.14-14.834C2882.464,1054.816,2883.79,1054.672,2885.111,1054.672z"/>
				</g>
				<g style="opacity:0.3;">
					<path style="fill:#650000;" d="M2814.546,1001.415c56.851,48.086,135.17,69.144,212.945,49.787
						c86.253-21.467,149.804-87.148,172.662-166.861c0.546,10.57,0.301,21.313-0.814,32.169
						c-11.708,114.031-113.64,196.98-227.671,185.272c-31.718-3.256-61.018-13.511-86.558-29.048l-96.052,21.541l26.653-90.867
						C2815.309,1002.752,2814.939,1002.076,2814.546,1001.415z"/>
				</g>
				<g>
					<path style="fill:#FF0068;" d="M2926.498,837.027L2926.498,837.027c17.962-17.962,47.085-14.744,65.047,3.218l2.796,2.796
						l2.796-2.796c17.962-17.962,47.085-21.181,65.047-3.219l0,0c17.962,17.962,17.962,47.085,0,65.047l-2.796,2.796l-56.473,56.473
						c-4.735,4.735-12.413,4.735-17.148,0l-56.473-56.473l-2.796-2.796C2908.536,884.112,2908.536,854.99,2926.498,837.027z"/>
				</g>
			</g>
		</g>
	</g>
</g>
</svg>
