<?xml version="1.0" encoding="utf-8"?>
<!-- Generator: Adobe Illustrator 27.5.0, SVG Export Plug-In . SVG Version: 6.00 Build 0)  -->
<svg version="1.1" id="Layer_1" xmlns="http://www.w3.org/2000/svg" xmlns:xlink="http://www.w3.org/1999/xlink" x="0px" y="0px"
	 viewBox="0 0 4000 4000" style="enable-background:new 0 0 4000 4000;" xml:space="preserve">
<g>
	<g>
		<rect style="fill:#74E8FF;" width="4000" height="4000"/>
	</g>
	<g>
		<g style="opacity:0.1;">
			
				<ellipse transform="matrix(0.9969 -0.0785 0.0785 0.9969 -235.455 173.2392)" style="fill:#6B184B;" cx="2086.392" cy="3082.31" rx="1802.847" ry="307.424"/>
		</g>
		<g>
			<g>
				<path style="fill:#F9C9C9;" d="M3024.653,849.614c-161.129-160.253-370.626-164.654-502.293-158.442
					c-131.668,6.212-339.818,30.319-485.144,205.031s-320.856,541.919-131.603,806.201
					c189.253,264.282,674.836,219.943,674.836,219.943s487.601-1.577,651.131-282.504
					C3395.108,1358.916,3185.784,1009.867,3024.653,849.614z"/>
			</g>
			<g style="opacity:0.4;">
				<path style="fill:#FFFFFF;" d="M3024.653,849.614c-161.129-160.253-370.626-164.654-502.293-158.442
					c-131.668,6.212-339.818,30.319-485.144,205.031c-107.673,129.446-231.881,364.556-212.066,585.188
					c-1.089-207.107,113.739-419.784,214.173-540.526c85.576-102.879,192.928-153.509,293.628-179.042
					c0.005,0.056-0.004,0.113,0.002,0.169c2.579,23.832,74.406,35.607,160.429,26.3c77.012-8.332,139.251-30.734,149.607-52.436
					c120.627,7.035,265.265,40.558,383.771,158.42c111.357,110.75,245.7,311.673,264.115,517.963
					C3289.83,1190.72,3144.037,968.347,3024.653,849.614z"/>
			</g>
			<g>
				<g style="opacity:0.2;">
					<path style="fill:#6B184B;" d="M3227.207,1547.193c-163.53,280.927-651.131,282.504-651.131,282.504
						s-485.583,44.339-674.836-219.943c-44.002-61.447-68.264-128.462-77.792-197.324c-3.778,100.807,18.591,201.198,82.163,289.974
						c189.253,264.282,674.836,219.943,674.836,219.943s487.601-1.577,651.131-282.504c54.932-94.368,67.749-196.419,54.496-296.422
						C3283.073,1412.874,3265.229,1481.875,3227.207,1547.193z"/>
				</g>
			</g>
			<g>
				<path style="fill:#6B184B;" d="M2624.077,1664.245c-21.489,9.318-55.283,11.036-55.286,11.036
					c-0.002,0-33.809,1.472-56.079-5.781c0,0,9.186,105.611,60.674,103.183l0,0l0,0h0.001l0,0
					C2624.875,1770.252,2624.077,1664.245,2624.077,1664.245z"/>
			</g>
			<g>
				<path style="fill:#EF4B6F;" d="M2525.307,1726.463c0,0,38.656-46.74,91.597-4.322c0,0-7.802,49.553-40.916,50.32
					C2542.875,1773.228,2524.981,1732.901,2525.307,1726.463z"/>
			</g>
			<g>
				<path style="fill:#EC6A84;" d="M2706.443,1548.549c-22.031-63.246-146.255-55.599-146.255-55.599s-124.391,4.083-140.371,69.122
					c-15.978,65.039,66.6,117.094,148.973,113.208C2651.163,1671.394,2728.474,1611.795,2706.443,1548.549z"/>
			</g>
			<g>
				<g style="opacity:0.4;">
					<path style="fill:#FFFFFF;" d="M2561.561,1522.053c0,0,124.224-7.647,146.255,55.599c0.525,1.506,0.941,3.007,1.355,4.508
						c1.948-10.882,1.253-22.184-2.728-33.611c-22.031-63.246-146.255-55.599-146.255-55.599s-124.391,4.083-140.371,69.122
						c-2.887,11.751-2.515,23.068,0.449,33.719c0.27-1.533,0.543-3.067,0.924-4.616
						C2437.17,1526.136,2561.561,1522.053,2561.561,1522.053z"/>
				</g>
			</g>
			<g>
				<g style="opacity:0.2;">
					<path style="fill:#6B184B;" d="M2706.067,1547.637c-12.402,46.843-74.186,84.583-139.163,87.648
						c-64.978,3.066-130.04-28.689-146.797-74.156c-0.085,0.321-0.209,0.62-0.289,0.944
						c-15.978,65.039,66.6,117.094,148.973,113.208c82.373-3.886,159.683-63.486,137.653-126.731
						C2706.333,1548.234,2706.181,1547.948,2706.067,1547.637z"/>
				</g>
			</g>
			<g>
				<path style="fill:#6B184B;" d="M2489.458,1564.57c4.226,5.229,6.946,10.541,9.353,15.467l3.284,6.989
					c0.977,2.146,1.995,4.072,2.587,5.108c0.281,0.46,0.49,0.632,0.02,0.406c-0.375-0.258-2.041-0.969-3.497-0.724
					c-0.818,0.068-2.19,0.474-3.124,1.066c-0.966,0.652-1.483,1.355-1.654,1.732c-0.37,0.827,0.242,0.691,0.674,0.097
					c2.207-2.638,4.277-8.662,7.22-14.136l0.22-0.409c1.228-2.284,4.075-3.14,6.359-1.912c0.719,0.387,1.308,0.952,1.722,1.592
					c2.025,3.142,3.162,6.242,4.102,9.676c0.831,3.445,1.299,7.012,0.627,11.517c-0.441,2.231-1.024,4.873-3.264,8.015
					c-1.094,1.533-2.734,3.256-5.027,4.577c-2.225,1.328-5.098,2.052-7.389,2.13c-4.435,0.343-9.029-1.501-11.751-3.562
					c-2.828-2.042-4.52-4.19-5.914-6.17c-2.684-3.921-4.008-7.5-4.977-10.95c-0.951-3.453-1.439-6.809-1.559-10.128
					c-0.221-6.645,0.642-13.076,3.688-19.652c1.113-2.404,3.964-3.45,6.367-2.337c0.682,0.316,1.256,0.772,1.701,1.319
					L2489.458,1564.57z"/>
			</g>
			<g>
				<path style="fill:#6B184B;" d="M2519.729,1946.85c-49.741,0-124.692-3.003-207.983-16.709
					c-193.921-31.904-338.579-107.637-418.33-219.004c-86.025-120.132-107.456-275.474-61.982-449.224
					c33.906-129.541,106.523-269.839,194.248-375.303c145.137-174.48,352.568-203.655,495.972-210.422
					c143.398-6.763,352.666,2.778,513.574,162.791l0,0c97.271,96.736,182.773,229.578,228.726,355.352
					c61.636,168.696,54.927,325.361-19.409,453.057c-68.911,118.384-205.796,207.397-395.854,257.422
					c-139.604,36.743-257.9,40.044-267.173,40.249C2577.668,1945.337,2555.051,1946.85,2519.729,1946.85z M2582.146,704.68
					c-20.674,0-40.439,0.596-59.077,1.475c-137.739,6.499-336.763,34.268-474.321,199.641
					c-129.204,155.327-322.842,519.888-130.938,787.871c182.095,254.292,657.095,221.802,661.88,221.445
					c0.273-0.024,0.557-0.034,0.835-0.039c4.79-0.098,480.742-12.466,638.091-282.773
					c165.82-284.863-61.289-629.575-204.541-772.051l0,0C2882.195,729.089,2714.226,704.68,2582.146,704.68z"/>
			</g>
			<g>
				<path style="fill:#6B184B;" d="M2560.271,1690.483c-54.087,0-107.954-22.104-136.265-56.514
					c-18.789-22.837-25.278-48.936-18.755-75.474c18.481-75.215,148.901-80.356,154.443-80.537
					c5.103-0.342,135.435-7.485,160.913,65.654c8.989,25.815,4.99,52.412-11.567,76.919
					c-26.362,39.014-82.441,67.041-139.541,69.736C2566.428,1690.41,2563.347,1690.483,2560.271,1690.483z M2573.845,1507.573
					c-4.829,0-9.136,0.132-12.744,0.347c-31.86,1.099-115.864,13.564-126.719,57.734c-4.229,17.227,0.073,33.799,12.788,49.258
					c24.204,29.414,72.773,47.627,120.913,45.386c48.115-2.271,94.771-25,116.099-56.563c11.211-16.587,13.931-33.496,8.096-50.249
					C2679.036,1515.463,2611.067,1507.573,2573.845,1507.573z"/>
			</g>
			<g>
				<path style="fill:#6B184B;" d="M2645.681,1557.537c3.65,6.26,5.116,12.582,5.521,19.218c0.193,3.315,0.022,6.702-0.598,10.229
					c-0.64,3.525-1.621,7.214-3.923,11.37c-1.202,2.103-2.684,4.401-5.308,6.7c-2.517,2.307-6.917,4.576-11.364,4.652
					c-2.288,0.138-5.216-0.312-7.556-1.424c-2.407-1.099-4.203-2.661-5.436-4.083c-2.526-2.916-3.354-5.492-4.004-7.672
					c-1.093-4.422-0.963-8.017-0.459-11.525c0.612-3.507,1.451-6.701,3.172-10.019c1.192-2.302,4.026-3.201,6.328-2.008
					c0.725,0.376,1.311,0.914,1.737,1.548l0.267,0.404c3.445,5.172,6.073,10.974,8.519,13.393c0.486,0.55,1.108,0.628,0.662-0.16
					c-0.206-0.359-0.786-1.01-1.81-1.569c-0.984-0.501-2.39-0.776-3.209-0.767c-1.474-0.107-3.065,0.758-3.415,1.05
					c-0.447,0.269-0.254,0.078-0.018-0.406c0.492-1.087,1.323-3.1,2.094-5.329l2.611-7.267c1.934-5.131,4.141-10.676,7.855-16.279
					l0.193-0.29c1.464-2.208,4.44-2.811,6.648-1.347C2644.814,1556.371,2645.323,1556.929,2645.681,1557.537z"/>
			</g>
			<g>
				<path style="fill:#6B184B;" d="M2571.462,1787.724c-61.729,0-72.642-104.819-73.691-116.929
					c-0.439-5.015,1.67-9.912,5.61-13.042c3.945-3.13,9.189-4.072,13.979-2.52c18.843,6.143,48.828,5.146,50.703,5.063
					c11.748-0.664,35.435-3.481,50.044-9.814c4.604-2.002,9.932-1.558,14.15,1.187c4.219,2.749,6.777,7.427,6.816,12.461
					c0.093,12.324-0.938,120.513-64.98,123.535C2573.21,1787.705,2572.327,1787.724,2571.462,1787.724z M2530.574,1688.569
					c5.815,30.493,19.287,69.151,41.216,69.151c0.298,0,0.591-0.01,0.889-0.025c22.461-1.055,32.451-41.46,35.41-72.788
					c-17.324,3.95-34.102,5.107-38.398,5.347c-0.088,0.01-0.176,0.015-0.269,0.015
					C2566.765,1690.385,2549.163,1691,2530.574,1688.569z"/>
			</g>
			<g>
				
					<ellipse transform="matrix(0.9989 -0.0471 0.0471 0.9989 -66.3792 108.171)" style="fill:#6B184B;" cx="2260.772" cy="1461.777" rx="104.793" ry="136.513"/>
			</g>
			<g>
				
					<ellipse transform="matrix(0.9989 -0.0471 0.0471 0.9989 -64.3223 106.4973)" style="fill:#FFFFFF;" cx="2227.099" cy="1417.797" rx="48.114" ry="50.723"/>
			</g>
			<g style="opacity:0.4;">
				
					<ellipse transform="matrix(0.9989 -0.0471 0.0471 0.9989 -69.2238 109.1664)" style="fill:#FFFFFF;" cx="2280.203" cy="1522.436" rx="24.023" ry="25.325"/>
			</g>
			<g>
				
					<ellipse transform="matrix(0.9989 -0.0471 0.0471 0.9989 -64.3907 136.2577)" style="fill:#6B184B;" cx="2857.354" cy="1433.63" rx="104.793" ry="136.513"/>
			</g>
			<g>
				
					<ellipse transform="matrix(0.9989 -0.0471 0.0471 0.9989 -62.3665 134.6474)" style="fill:#FFFFFF;" cx="2823.681" cy="1389.65" rx="48.114" ry="50.723"/>
			</g>
			<g style="opacity:0.4;">
				
					<ellipse transform="matrix(0.9989 -0.0471 0.0471 0.9989 -67.223 137.2304)" style="fill:#FFFFFF;" cx="2876.786" cy="1494.289" rx="24.023" ry="25.325"/>
			</g>
		</g>
		<g>
			<g style="opacity:0.2;">
				<path style="fill:#6B184B;" d="M2948.173,823.815c0,0,40.155,96.208,30.038,209.78c-6.323,70.982-26.056,94.997-16.039,132.898
					c10.368,39.229,32.133,56.817,82.637,67.529c75.746,16.066,196.359-77.121,196.627-172.371
					c0.268-95.25-116.453-146.885-116.453-146.885s-31.897-104.135-107.185-127.084
					C2950.16,767.064,2938.164,794.73,2948.173,823.815z"/>
			</g>
			<g>
				<path style="fill:#F9C9C9;" d="M2946.604,790.556c0,0,40.155,96.208,30.038,209.78
					c-10.117,113.571-10.094,189.76,66.599,200.427c76.693,10.667,196.359-77.121,196.627-172.371s-116.453-146.885-116.453-146.885
					s-31.897-104.135-107.186-127.084C2948.59,733.805,2936.595,761.471,2946.604,790.556z"/>
			</g>
			<g style="opacity:0.4;">
				<path style="fill:#FFFFFF;" d="M2943.65,770.924c0,0,68.363-11.242,109.234,41.293c40.871,52.535,82.488,146.107,82.488,146.107
					s-3.351-79.577-41.445-138.358c-38.094-58.78-77.911-70.054-105.744-73.325C2960.351,743.369,2940.696,751.291,2943.65,770.924z
					"/>
			</g>
			<g style="opacity:0.2;">
				<path style="fill:#6B184B;" d="M2972.095,1072.142c0,0,42.586,84.73,137.203,46.338
					c94.616-38.392,86.541-133.844,75.861-189.887c0,0,78.415,54.513,45.682,145.551
					c-32.733,91.038-137.766,134.458-197.629,124.747C2973.349,1189.179,2958.9,1099.417,2972.095,1072.142z"/>
			</g>
			<g>
				<path style="fill:#6B184B;" d="M3056.467,1216.645c-5.229,0-10.337-0.337-15.293-1.025
					c-97.559-13.565-87.949-121.441-79.473-216.614c9.648-108.291-28.56-201.751-28.945-202.683
					c-0.117-0.288-0.234-0.591-0.337-0.886c-7.017-20.393-4.614-38.122,6.772-49.919c14.971-15.505,42.349-17.349,81.411-5.442
					c71.494,21.792,106.328,106.338,115,130.63c25.449,12.725,119.521,65.972,119.263,157.729
					c-0.132,46.096-25.625,94.597-69.946,133.069C3144.729,1196.391,3096.936,1216.645,3056.467,1216.645z M2960.652,785.278
					c3.506,8.574,40.991,103.447,30.933,216.389c-10.757,120.74-5.552,175.994,53.721,184.236
					c34.409,4.795,81.504-13.682,119.951-47.056c37.778-32.791,59.502-73.066,59.609-110.496
					c0.239-84.18-106.455-132.654-107.534-133.132c-3.965-1.765-6.987-5.169-8.257-9.316c-0.293-0.952-30.581-96.819-97.222-117.131
					c-39.272-11.975-49.438-4.121-51.074-2.422C2957.805,769.431,2957.761,776.66,2960.652,785.278z"/>
			</g>
			<g>
				<path style="fill:#6B184B;" d="M3137.702,876.942c3.08,8.493,5.237,16.689,7.073,25.2c0.957,4.216,1.755,8.469,2.461,12.738
					c0.739,4.263,1.422,8.532,1.892,12.847c1.173,8.575,1.767,17.255,2.211,25.922c0.548,8.63-0.302,17.568-5.347,26.705
					c-0.41,0.742-1.345,1.012-2.087,0.602c-0.142-0.078-0.288-0.199-0.393-0.311c-7.164-7.627-10.281-15.441-12.716-23.447
					l-7.542-23.822c-1.288-3.95-2.556-7.902-3.744-11.866c-1.267-3.947-2.507-7.893-3.668-11.857
					c-2.416-7.843-4.784-15.935-6.716-23.58l-0.084-0.337c-2.032-8.036,2.837-16.198,10.873-18.229
					C3127.436,865.605,3135.09,869.814,3137.702,876.942z"/>
			</g>
		</g>
		<g>
			<g style="opacity:0.2;">
				<path style="fill:#6B184B;" d="M2113.894,863.177c0,0-30.918,99.562-10.153,211.676c12.979,70.071,34.885,92.122,28.48,130.798
					c-6.629,40.031-26.64,59.59-75.912,75.01c-73.897,23.126-202.748-58.291-211.983-153.092
					c-9.235-94.801,102.106-157.197,102.106-157.197s21.951-106.675,94.744-136.612
					C2106.573,806.865,2121.12,833.279,2113.894,863.177z"/>
			</g>
			<g>
				<path style="fill:#F9C9C9;" d="M2112.324,829.918c0,0-30.918,99.562-10.153,211.676
					c20.766,112.114,27.916,187.967-47.432,205.807c-75.348,17.84-202.748-58.291-211.983-153.092s102.106-157.197,102.106-157.197
					s21.951-106.675,94.744-136.612C2105.003,773.606,2119.551,800.02,2112.324,829.918z"/>
			</g>
			<g style="opacity:0.4;">
				<path style="fill:#FFFFFF;" d="M2113.417,810.095c0,0-69.118-4.756-104.861,51.394c-35.743,56.15-68.365,153.224-68.365,153.224
					s-4.156-79.539,28.234-141.645c32.39-62.106,70.969-77.078,98.37-82.955C2094.196,784.235,2114.51,790.272,2113.417,810.095z"/>
			</g>
			<g style="opacity:0.2;">
				<path style="fill:#6B184B;" d="M2113.459,1112.654c0,0-34.42,88.364-132.23,59.05s-98.759-125.101-93.403-181.901
					c0,0-72.934,61.654-31.775,149.205c41.159,87.552,149.814,120.89,208.496,105.585S2129.163,1138.565,2113.459,1112.654z"/>
			</g>
			<g>
				<path style="fill:#6B184B;" d="M2030.857,1265.024c-37.808,0-81.851-15.479-120.869-43.369
					c-47.744-34.131-77.691-80.015-82.163-125.891c-8.892-91.326,79.746-153.193,103.887-168.257
					c6.343-25,33.066-112.451,102.192-140.879c37.754-15.525,65.19-16.284,81.558-2.251c12.446,10.671,16.509,28.096,11.445,49.063
					c-0.073,0.31-0.156,0.615-0.254,0.918l0,0c-0.298,0.964-29.536,97.605-9.731,204.504
					c17.402,93.95,37.124,200.439-58.726,223.135C2049.607,1264.033,2040.432,1265.024,2030.857,1265.024z M2084.431,804.328
					c-7.666,0-19.932,2.153-39.121,10.044c-64.429,26.499-85.557,124.79-85.762,125.781c-0.884,4.25-3.569,7.922-7.354,10.046
					c-1.016,0.569-102.671,58.875-94.507,142.654c3.628,37.254,29.048,75.305,69.746,104.397
					c41.416,29.604,90.029,43.555,123.848,35.557c58.237-13.794,58.218-69.292,36.138-188.482
					c-20.649-111.479,7.734-209.451,10.425-218.337c2.065-8.852,1.343-16.047-1.909-18.835
					C2095.046,806.394,2091.941,804.328,2084.431,804.328z M2112.327,829.919h0.049H2112.327z"/>
			</g>
			<g>
				<path style="fill:#6B184B;" d="M1959.518,940.313c-1.205,7.793-2.8,16.072-4.467,24.108c-0.783,4.055-1.646,8.101-2.535,12.15
					c-0.808,4.058-1.699,8.112-2.61,12.166l-5.265,24.426c-1.67,8.2-4.038,16.272-10.452,24.54
					c-0.509,0.678-1.472,0.816-2.151,0.307c-0.129-0.097-0.256-0.237-0.347-0.363c-5.882-8.621-7.569-17.439-7.837-26.083
					c-0.375-8.67-0.601-17.367-0.241-26.015c0.062-4.34,0.342-8.655,0.675-12.968c0.3-4.317,0.695-8.626,1.25-12.913
					c1.027-8.646,2.402-17.008,4.668-25.754c2.08-8.024,10.27-12.844,18.295-10.765c7.51,1.946,12.213,9.245,11.08,16.751
					L1959.518,940.313z"/>
			</g>
		</g>
		<g>
			<g>
				<path style="fill:#78787A;" d="M2378.166,2626.354h-229.122c-126.54,0-229.122,149.912-229.122,334.839
					s102.582,334.839,229.122,334.839h229.122c126.541,0,229.124-149.912,229.124-334.839S2504.707,2626.354,2378.166,2626.354z"/>
			</g>
			<g>
				<g style="opacity:0.2;">
					<path style="fill:#6B184B;" d="M2562.491,2731.367c2.693,20.529,4.154,41.698,4.154,63.374
						c0,184.927-102.583,334.839-229.124,334.839h-229.124c-75.578,0-142.59-53.503-184.324-135.979
						c20.276,154.61,113.262,271.463,224.969,271.463h229.122c126.541,0,229.124-149.912,229.124-334.839
						C2607.29,2855.751,2590.631,2786.979,2562.491,2731.367z"/>
				</g>
			</g>
			<g>
				<ellipse style="fill:#B7B7B7;" cx="2378.167" cy="2961.193" rx="178.795" ry="261.29"/>
			</g>
			<g>
				<g style="opacity:0.2;">
					<path style="fill:#6B184B;" d="M2391.715,2750.225c69.06,0,128.933,57.257,158.716,141.025
						c-20.933-110.33-90.103-191.347-172.264-191.347c-98.745,0-178.794,116.984-178.794,261.29
						c0,43.383,7.277,84.26,20.079,120.268c-4.225-22.271-6.532-45.708-6.532-69.945
						C2212.92,2867.208,2292.97,2750.225,2391.715,2750.225z"/>
				</g>
			</g>
			<g>
				<path style="fill:#6B184B;" d="M2378.167,3237.485c-106.86,0-193.794-123.945-193.794-276.294s86.934-276.289,193.794-276.289
					s193.794,123.94,193.794,276.289S2485.027,3237.485,2378.167,3237.485z M2378.167,2714.902
					c-90.317,0-163.794,110.483-163.794,246.289s73.477,246.294,163.794,246.294s163.794-110.488,163.794-246.294
					S2468.484,2714.902,2378.167,2714.902z"/>
			</g>
			<g>
				<ellipse style="fill:#78787A;" cx="2359.845" cy="2961.193" rx="41.804" ry="61.092"/>
			</g>
			<g>
				<path style="fill:#6B184B;" d="M2359.846,3037.285c-31.855,0-56.807-33.423-56.807-76.094c0-42.666,24.951-76.089,56.807-76.089
					c31.851,0,56.802,33.423,56.802,76.089C2416.648,3003.862,2391.697,3037.285,2359.846,3037.285z M2359.846,2915.102
					c-12.681,0-26.807,18.926-26.807,46.089s14.126,46.094,26.807,46.094c12.676,0,26.802-18.931,26.802-46.094
					S2372.522,2915.102,2359.846,2915.102z"/>
			</g>
			<g>
				<path style="fill:#6B184B;" d="M2378.167,3311.03c-134.609,0-244.121-156.938-244.121-349.839s109.512-349.839,244.121-349.839
					s244.121,156.938,244.121,349.839S2512.776,3311.03,2378.167,3311.03z M2378.167,2641.352
					c-118.066,0-214.121,143.481-214.121,319.839s96.055,319.839,214.121,319.839s214.121-143.481,214.121-319.839
					S2496.233,2641.352,2378.167,2641.352z"/>
			</g>
			<g>
				<path style="fill:#6B184B;" d="M2378.167,3311.03h-229.121c-134.609,0-244.126-156.938-244.126-349.839
					s109.517-349.839,244.126-349.839h229.121c134.609,0,244.121,156.938,244.121,349.839S2512.776,3311.03,2378.167,3311.03z
					 M2149.045,2641.352c-118.071,0-214.126,143.481-214.126,319.839s96.055,319.839,214.126,319.839h229.121
					c118.066,0,214.121-143.481,214.121-319.839s-96.055-319.839-214.121-319.839H2149.045z"/>
			</g>
		</g>
		<g>
			<g>
				<path style="fill:#78787A;" d="M3501.576,2504.33h-177.212c-97.872,0-177.212,115.948-177.212,258.978
					s79.341,258.978,177.212,258.978h177.212c97.871,0,177.213-115.948,177.213-258.978S3599.448,2504.33,3501.576,2504.33z"/>
			</g>
			<g>
				<g style="opacity:0.2;">
					<path style="fill:#6B184B;" d="M3644.14,2585.551c2.083,15.878,3.213,32.251,3.213,49.016
						c0,143.03-79.342,258.978-177.213,258.978h-177.213c-58.456,0-110.285-41.381-142.563-105.172
						c15.682,119.582,87.601,209.961,174,209.961h177.212c97.871,0,177.213-115.948,177.213-258.978
						C3678.789,2681.754,3665.905,2628.563,3644.14,2585.551z"/>
				</g>
			</g>
			<g>
				<ellipse style="fill:#B7B7B7;" cx="3501.576" cy="2763.307" rx="138.287" ry="202.092"/>
			</g>
			<g>
				<g style="opacity:0.2;">
					<path style="fill:#6B184B;" d="M3512.055,2600.136c53.414,0,99.722,44.285,122.757,109.074
						c-16.19-85.333-69.689-147.996-133.236-147.996c-76.374,0-138.286,90.48-138.286,202.092c0,33.554,5.628,65.17,15.53,93.02
						c-3.268-17.225-5.052-35.353-5.052-54.098C3373.768,2690.616,3435.682,2600.136,3512.055,2600.136z"/>
				</g>
			</g>
			<g>
				<path style="fill:#6B184B;" d="M3501.575,2980.4c-84.521,0-153.286-97.388-153.286-217.095
					c0-119.702,68.765-217.09,153.286-217.09c84.526,0,153.291,97.388,153.291,217.09
					C3654.866,2883.012,3586.101,2980.4,3501.575,2980.4z M3501.575,2576.215c-67.979,0-123.286,83.926-123.286,187.09
					s55.308,187.095,123.286,187.095c67.983,0,123.291-83.931,123.291-187.095S3569.558,2576.215,3501.575,2576.215z"/>
			</g>
			<g>
				<ellipse style="fill:#78787A;" cx="3487.406" cy="2763.307" rx="32.333" ry="47.251"/>
			</g>
			<g>
				<path style="fill:#6B184B;" d="M3487.405,2825.556c-26.543,0-47.334-27.344-47.334-62.251s20.791-62.251,47.334-62.251
					s47.334,27.344,47.334,62.251S3513.948,2825.556,3487.405,2825.556z M3487.405,2731.054c-8.184,0-17.334,13.794-17.334,32.251
					s9.15,32.251,17.334,32.251s17.334-13.794,17.334-32.251S3495.588,2731.054,3487.405,2731.054z"/>
			</g>
			<g>
				<path style="fill:#6B184B;" d="M3501.575,3037.285c-105.986,0-192.212-122.905-192.212-273.979
					c0-151.069,86.226-273.975,192.212-273.975s192.212,122.905,192.212,273.975
					C3693.787,2914.379,3607.561,3037.285,3501.575,3037.285z M3501.575,2519.331c-89.443,0-162.212,109.448-162.212,243.975
					c0,134.531,72.769,243.979,162.212,243.979s162.212-109.448,162.212-243.979
					C3663.787,2628.779,3591.018,2519.331,3501.575,2519.331z"/>
			</g>
			<g>
				<path style="fill:#6B184B;" d="M3501.575,3037.285h-177.212c-105.986,0-192.212-122.905-192.212-273.979
					c0-151.069,86.226-273.975,192.212-273.975h177.212c105.986,0,192.217,122.905,192.217,273.975
					C3693.792,2914.379,3607.561,3037.285,3501.575,3037.285z M3324.363,2519.331c-89.443,0-162.212,109.448-162.212,243.975
					c0,134.531,72.769,243.979,162.212,243.979h177.212c89.448,0,162.217-109.448,162.217-243.979
					c0-134.526-72.769-243.975-162.217-243.975H3324.363z"/>
			</g>
		</g>
		<g>
			<g>
				<path style="fill:#FF4343;" d="M335.455,2891.515l-19.355,69.677l104.516,60l11.613-25.161c0,0,425.807,116.129,729.677,137.419
					c0,0,19.355,56.129,42.581,58.065c23.226,1.935,520.645,83.226,898.064,0c0,0-71.47-375.886,153.942-514.072
					s378.316,37.943,376.38,376.653l683.226-153.995c0,0-36.774-279.553,149.032-376.327
					c185.807-96.774,255.484,147.097,230.323,305.806c0,0,61.936-29.964,90.968-66.272
					c29.032-36.308,20.645-396.308-178.065-595.018l-441.29-46.452c0,0-2.581-54.194-30.968-77.419
					c-28.387-23.226-694.194-144.516-1336.774-90.323c-49.032,23.226-105.807,160-105.807,160l-583.226,92.903l-247.742,80
					c0,0-296.774,7.742-467.097,147.097S335.455,2891.515,335.455,2891.515z"/>
			</g>
			<g style="opacity:0.3;">
				<path style="fill:#6B184B;" d="M2705.813,2810.559c0,0,319.964,7.408,468.996-110.656s205.161-342.581,228.387-356.129
					s275.592-21.815,275.592-21.815s94.085,142.133,86.343,386.812c0,0-4.516,73.92-5.161,83.171
					c-0.645,9.251-63.691,32.136-63.691,32.136s26.917-134.931-49.858-256.005c-76.774-121.074-205.108-58.868-286.103,60.996
					c-29.381,54.704-37.513,108.766-38.286,113.03c-0.773,4.264-6.687,49.842-6.687,49.842l-5.712,9.821l-338.442,56.445
					l-242.088,40.375c0,0-4.496-5.727-7.295-7.902C2719.01,2888.507,2705.813,2810.559,2705.813,2810.559z"/>
			</g>
			<g>
				<path style="fill:#666666;" d="M3175.777,2288.468c0,0,448.741-8.907,459.035-7.425s37.417-0.167,37.417-0.167
					s16.015-9.395,13.66-13.196c-2.355-3.802-65.777-98.154-77.531-99.392s-429.547-47.049-432.581-46.452
					s-10.756,12.903-10.756,12.903l-17.87,137.419l11.564,11.656L3175.777,2288.468z"/>
			</g>
			<g>
				<path style="fill:#999999;" d="M1666.025,2210.688c0,0,21.489-75.494,22.035-77.412c0.546-1.918,13.405-37.225,13.405-37.225
					s61.758-125.83,95.213-140.586c33.454-14.756,275.874-18.007,517.809-15.172c241.936,2.835,622.485,63.687,726.404,79.229
					c103.919,15.542,112.026,44.153,115.928,55.503s14.166,55.448,3.498,111.775c-10.668,56.328-13.165,90.199-13.165,90.199
					l-14.922,12.025c0,0-380.853,14.512-499.136,17.211c-118.283,2.699-254.926,15.723-254.926,15.723
					s-107.774-14.644-271.05-42.866c-163.275-28.222-441.092-40.803-441.092-40.803l-3.73-14.497L1666.025,2210.688z"/>
			</g>
			<g>
				<path style="fill:#999999;" d="M1133.106,2636.52c-309.445-26.608-678.571-107.614-678.571-107.614
					s-33.515,174.925-38.614,222.885c-5.099,47.961-7.564,57.789-7.564,57.789l4.665,17.783L816.1,2908.96l242.561,43.979h29.697
					l8.155-9.27L1133.106,2636.52z"/>
			</g>
			<g>
				<path style="fill:#FFFFFF;" d="M428.942,2653.64c0,0-63.165-41.479-61.875-46.64c1.29-5.161,30.928-107.097,30.928-107.097
					l53.609,39.479"/>
			</g>
			<g>
				<path style="fill:#FFFFFF;" d="M1350.616,2767.644c0,0,46.452-113.226,53.226-116.129
					c6.774-2.903,427.742-25.162,427.742-25.162l-21.29,130.646C1810.293,2756.999,1395.132,2770.548,1350.616,2767.644z"/>
			</g>
			<g>
				<path style="fill:#6B184B;" d="M486.741,2855.595c-0.42,0-0.845-0.02-1.274-0.063c-6.87-0.698-11.875-6.831-11.177-13.696
					c7.969-78.633,35.83-298.062,36.108-300.269c0.874-6.846,7.041-11.704,13.979-10.825c6.846,0.874,11.694,7.129,10.825,13.979
					c-0.283,2.202-28.101,221.313-36.04,299.634C498.508,2850.795,493.079,2855.595,486.741,2855.595z"/>
			</g>
			<g>
				<path style="fill:#6B184B;" d="M565.959,2872.211c-0.142,0-0.283,0-0.42-0.005c-6.899-0.229-12.31-6.006-12.085-12.905
					c4.024-122.163,33.052-301.372,33.345-303.169c1.113-6.812,7.52-11.382,14.351-10.327c6.811,1.113,11.435,7.534,10.327,14.351
					c-0.293,1.777-29.063,179.429-33.032,299.966C578.22,2866.884,572.668,2872.211,565.959,2872.211z"/>
			</g>
			<g>
				<path style="fill:#6B184B;" d="M639.153,2890.839c-0.142,0-0.283,0-0.42-0.005c-6.899-0.229-12.31-6.006-12.085-12.905
					c4.023-122.163,33.047-301.372,33.34-303.169c1.113-6.812,7.524-11.382,14.35-10.327c6.812,1.113,11.436,7.534,10.327,14.351
					c-0.293,1.777-29.058,179.429-33.027,299.966C651.414,2885.512,645.862,2890.839,639.153,2890.839z"/>
			</g>
			<g>
				<path style="fill:#6B184B;" d="M712.341,2904.467c-0.142,0-0.283,0-0.42-0.005c-6.899-0.229-12.31-6.006-12.085-12.905
					c4.023-122.163,33.052-301.372,33.345-303.169c1.113-6.812,7.524-11.387,14.351-10.327c6.812,1.113,11.435,7.534,10.327,14.351
					c-0.293,1.777-29.063,179.429-33.032,299.966C724.602,2899.14,719.05,2904.467,712.341,2904.467z"/>
			</g>
			<g>
				<path style="fill:#6B184B;" d="M793.831,2921.459c-0.142,0-0.283,0-0.42-0.005c-6.899-0.229-12.31-6.006-12.085-12.905
					c4.023-122.163,33.052-301.372,33.345-303.169c1.113-6.812,7.529-11.387,14.351-10.327c6.811,1.113,11.435,7.534,10.327,14.351
					c-0.293,1.777-29.063,179.429-33.032,299.966C806.091,2916.132,800.539,2921.459,793.831,2921.459z"/>
			</g>
			<g>
				<path style="fill:#6B184B;" d="M891.155,2935.283c-0.142,0-0.283,0-0.42-0.005c-6.899-0.229-12.31-6.006-12.085-12.905
					c4.023-122.163,33.052-301.377,33.345-303.174c1.113-6.812,7.52-11.387,14.351-10.327c6.812,1.113,11.436,7.534,10.327,14.351
					c-0.293,1.777-29.063,179.434-33.032,299.971C903.415,2929.956,897.864,2935.283,891.155,2935.283z"/>
			</g>
			<g>
				<path style="fill:#6B184B;" d="M987.746,2950.59c-0.142,0-0.283,0-0.42-0.005c-6.899-0.229-12.31-6.006-12.085-12.905
					c4.023-122.163,33.047-301.377,33.34-303.174c1.113-6.812,7.515-11.387,14.351-10.327c6.812,1.113,11.435,7.534,10.327,14.351
					c-0.293,1.777-29.058,179.434-33.027,299.971C1000.007,2945.263,994.456,2950.59,987.746,2950.59z"/>
			</g>
			<g style="opacity:0.3;">
				<path style="fill:#6B184B;" d="M322.517,2938.09c0,0,69.066,38.586,78.744,36.651c9.677-1.936,15.484-13.549,38.71-7.742
					c23.226,5.806,210,50.323,254.516,60c44.516,9.677,124.19-6.463,124.19-6.463l130.659,21.409c0,0-37.821,45.523-25.003,54.731
					c12.819,9.208-205.986-32.304-205.986-32.304l-280.312-73.18l-17.419,30l-109.355-63.231L322.517,2938.09z"/>
			</g>
			<g style="opacity:0.3;">
				<path style="fill:#6B184B;" d="M1171.904,3146.031c0,0,46.131,10.645,306.454,21.29
					c260.323,10.645,378.387-74.097,378.387-74.097h81.704l-52.345-158.591l-7.305-37.312c0,0,77.946,50.323,132.14-16.774
					c54.193-67.097,43.871-176.737,246.452-259.336c202.581-82.599,354.839,20.626,394.839,170.304
					c40,149.677,50.13,154.839,69.581,154.839l-1.804,41.29c0,0,323.19-67.991,386.416-87.544
					c63.226-19.553,92.317-79.843,92.317-79.843l84.532-14.098l4.532,100.319l-654.93,147.618c0,0,17.126-349.298-192.082-419.488
					c0,0-110.433-38.228-248.853,96.759c-138.42,134.987-89.387,460.148-89.387,460.148s-219.885,54.18-485.162,36.167
					c-265.277-18.014-420.488-38.677-420.488-38.677S1170.288,3159.902,1171.904,3146.031z"/>
			</g>
			<g style="opacity:0.3;">
				<path style="fill:#6B184B;" d="M325.984,2859.714c0,0,286.245,94.382,540.438,133.092s576.774,56.849,760,42.618
					c183.226-14.231,194.922-115.34,194.922-115.34l47.014-4.375c0,0,8.888-1.027,14.516,12.581s55.575,164.935,55.575,164.935
					s-326.715-2.145-511.356-12.592c-184.641-10.448-443.582-27.848-608.417-60.096
					c-164.835-32.247-410.319-104.204-410.319-104.204s-64.523-21.676-65.241-21.939c-0.718-0.263-9.547-8.625-9.798-9.424
					C333.067,2884.171,325.984,2859.714,325.984,2859.714z"/>
			</g>
			<g style="opacity:0.3;">
				<path style="fill:#6B184B;" d="M446.244,2834.493c0,0,17.598-234.439,31.792-242.579c14.193-8.14,432.68,80.113,651.179,77.277
					l3.003-15.551l-11.034-17.119c0,0-239.599-26.146-405.595-57.08s-254.498-49.115-254.498-49.115l-7.749,2.729
					c0,0-20.668,85.875-29.044,152.306c-8.376,66.431-14.821,128.483-14.821,128.483l3.546,13.52L446.244,2834.493z"/>
			</g>
			<g style="opacity:0.3;">
				<path style="fill:#6B184B;" d="M1125.132,2715.386c0,0,14.516,52.106,33.871,52.666c19.355,0.56,35.807-101.053,119.032-154.279
					s233.003-70.988,233.003-70.988s-147.174,37.092-211.863,91.298c-64.688,54.206-119.788,183.58-115.979,190.658
					c3.809,7.078,615.484,4.839,648.387-14.516c32.903-19.355,40.196-241.262,322.372-247.189c0,0-107.915,17.435-183.692,94.57
					c-75.777,77.135-89.895,206.849-89.895,206.849l-1.57,32.867c0,0-3.546,17.745-16.287,18.931s-429.785,36.603-567.131,45.126
					s-190.565-2.181-190.565-2.181l-9.408-6.26L1125.132,2715.386z"/>
			</g>
			<g style="opacity:0.3;">
				<path style="fill:#6B184B;" d="M496.1,2471.999c3.278,0.852,11.129,34.839,56.613,46.451
					c45.484,11.613,282.097,56.157,379.839,58.32c97.742,2.164,118.924-44.475,122.343-43.224
					c3.419,1.251-72.69-24.325-76.15-25.373c-3.461-1.048-162.429-39.671-168.329-40.717
					c-5.9-1.045,597.298-201.099,839.233-233.037l16.377,3.869c0,0-631.861,196.029-633.796,209.788
					c-1.935,13.76,90.968,49.259,236.129,12.155c145.161-37.104,781.199-188.37,781.199-188.37l310.288,50.096v14.073
					c0,0-486.311,73.108-690.189,111.554c-203.878,38.446-467.251,105.098-497.823,112.793
					c-30.572,7.695-38.727,24.237-38.727,24.237s0.09,38.029-2.168,42.706s-6.613,7.581-6.613,7.581s-262.419-34.166-417.258-58.131
					c-154.839-23.965-240.968-44.288-240.968-44.288l-8.06-14.93C458.04,2517.553,471.906,2465.709,496.1,2471.999z"/>
			</g>
			<g style="opacity:0.3;">
				<path style="fill:#6B184B;" d="M1703.842,2241.193c-6.546-3.871,27.097-110.532,27.097-110.532s255.484,120.214,696.774,103.76
					c441.29-16.454,441.29-200.325,441.29-200.325s135.783,6.612,200.795,25.886c0,0-45.461,37.195-63.901,88.456
					s-22.093,91.183-22.093,91.183s65.77-134.197,119.392-149.397c53.622-15.2,55.519,60.968,55.519,60.968l4.188,10.715
					l-2.587,24.892l272.558,9.876l-100.64,42.945c0,0,174.511,4.474,205.479-13.913c30.968-18.387,30-26.129,32.903-29.032
					c2.903-2.903,25.161,0,25.161,0s40.679,49.271,63.888,86.087l-572.927,2.674c0,0-82.318-0.105-276.801,10.244
					s-396.279,26.277-396.279,26.277l-30.184,1.025c0,0-176.452-35.901-378.254-56.345S1703.842,2241.193,1703.842,2241.193z"/>
			</g>
			<g style="opacity:0.4;">
				<path style="fill:#FFFFFF;" d="M332.646,2765.347c0.228-7.38-10.74-206.735,86.034-289.315
					c96.774-82.581,178.686-118.951,332.246-154.516l23.883-7.742l-4.077-18.494c0,0-192.277,19.023-316.197,98.114
					s-146.775,155.219-154.218,241.51c-7.443,86.29,9.97,112.428,12.325,114.326
					C314.998,2751.126,332.646,2765.347,332.646,2765.347z"/>
			</g>
			<g style="opacity:0.4;">
				<path style="fill:#FFFFFF;" d="M622.874,2448.078c0,0,76.774-53.982,239.677-123.659
					c162.903-69.677,292.581-117.419,292.581-117.419l52.258,8.064c0,0-383.226,153.556-369.677,158.552
					c13.548,4.996,462.651-160.183,462.651-160.183s-103.529-9.982-111.361-13.853c-7.831-3.871-93.594,7.419-93.594,7.419
					s-277.36,81.651-404.426,149.154s-161.757,79.404-162.519,88.952c-0.761,9.549-6.345,14.49,0,15.127
					S622.874,2448.078,622.874,2448.078z"/>
			</g>
			<g style="opacity:0.3;">
				<path style="fill:#6B184B;" d="M1332.229,2206.999c2.903-2.581,352.22-61.036,351.755-59.404
					c-0.465,1.632-21.689,76.197-21.689,76.197l-12.647,10.629L1332.229,2206.999z"/>
			</g>
			<g style="opacity:0.4;">
				<path style="fill:#FFFFFF;" d="M1659.27,2281.043c44.572-1.141,86.508,6.601,81.346,14.343
					c-5.161,7.742-505.271,160.269-501.935,125.806C1240.616,2401.193,1614.697,2282.185,1659.27,2281.043z"/>
			</g>
			<g style="opacity:0.4;">
				<path style="fill:#FFFFFF;" d="M1687.961,2533.306c116.645-27.545,342.304-72.885,504.114-55.947
					c9.499,0.994,9.824,14.743,0.391,16.242c-84.144,13.371-247.258,39.419-296.701,48.222
					c-57.991,10.326-143.356,12.371-205.423,12.245C1677.867,2554.043,1675.819,2536.173,1687.961,2533.306z"/>
			</g>
			<g style="opacity:0.4;">
				<path style="fill:#FFFFFF;" d="M2767.684,2372.57c159.052-14.184,377.036-30.527,556.423-32.667
					c10.876,27.097-325.898,120-548.479,108.387c-2.226-0.116-4.43-0.233-6.614-0.352
					C2722.176,2445.397,2720.963,2376.737,2767.684,2372.57z"/>
			</g>
			<g style="opacity:0.4;">
				
					<ellipse transform="matrix(0.9956 -0.0937 0.0937 0.9956 -215.8487 254.2769)" style="fill:#FFFFFF;" cx="2598.513" cy="2424.559" rx="82.818" ry="41.613"/>
			</g>
			<g style="opacity:0.4;">
				<path style="fill:#FFFFFF;" d="M1765.777,1987.644c0,0,451.701-13.783,892.903,15.484s365.136,13.112,365.136,13.112
					s-336.525-59.068-726.314-73.509c-389.789-14.441-511.712,20.353-511.712,20.353L1765.777,1987.644z"/>
			</g>
			<g>
				<path style="fill:#6B184B;" d="M1701.555,3243.789c-148.208,0-311.289-11.738-482.432-35.234
					c-7.959-1.094-14.243-1.958-15.884-2.095c-25.84-2.148-43.857-38.32-52.022-58.75
					c-272.163-20.679-639.277-115.068-710.659-133.931l-6.323,13.696c-1.763,3.823-5.049,6.729-9.063,8.008
					c-4.004,1.274-8.364,0.815-12.021-1.284l-104.517-60c-5.947-3.413-8.823-10.42-6.987-17.021l18.125-65.254
					c-13.54-41.426-101.011-332.642,66.186-469.438c166.475-136.206,444.258-149.385,474.004-150.41l245.723-79.346
					c0.737-0.239,1.489-0.42,2.251-0.542l575.029-91.597c13.818-31.855,62.583-137.617,109.937-160.049
					c1.621-0.771,3.369-1.24,5.161-1.392c344.102-29.033,680.195-7.236,901.548,16.157c237.705,25.117,425.825,61.006,445.986,77.5
					c24.067,19.697,32.339,55.991,35.107,75.381l429.224,45.186c3.413,0.361,6.606,1.88,9.033,4.312
					c200.815,200.811,215.952,569.004,179.175,614.99c-30.801,38.516-93.496,69.121-96.147,70.405
					c-5.024,2.441-10.986,1.88-15.474-1.46c-4.487-3.33-6.748-8.872-5.874-14.39c16.104-101.582-9.277-241.997-78.359-291.729
					c-35.43-25.513-79.243-24.976-130.22,1.577c-174.204,90.728-141.44,358.379-141.089,361.074
					c1.001,7.686-4.014,14.878-11.577,16.582l-683.223,153.994c-4.473,0.996-9.141-0.083-12.7-2.944
					c-3.564-2.866-5.625-7.202-5.601-11.777c1.123-196.504-49.844-338.296-139.839-389.028
					c-58.809-33.145-132.705-24.409-213.701,25.249c-213.872,131.113-147.739,494.829-147.046,498.486
					c1.509,7.969-3.584,15.698-11.504,17.446C1992.073,3231.235,1854.763,3243.784,1701.555,3243.789z M432.224,2981.03
					c1.314,0,2.637,0.171,3.95,0.527c4.243,1.157,427.895,115.991,726.782,136.934c6.001,0.42,11.167,4.385,13.13,10.068
					c8.745,25.244,23.608,47.495,29.643,48.008c2.339,0.195,7.046,0.835,17.471,2.266c337.481,46.338,642.808,46.631,862.232,1.006
					c-4.604-30.874-13.506-107.183-5.376-194.927c13.94-150.444,72.241-261.187,168.594-320.259
					c90.854-55.693,175.264-64.614,244.116-25.806c96.724,54.521,152.813,198.477,155.054,396.504l651.997-146.953
					c-5.015-59.131-12.676-288.838,158.389-377.93c77.031-40.117,130.405-21.772,161.606,0.688
					c72.642,52.29,103.052,182.998,94.004,291.245c19.399-11.553,45.532-29.258,60.894-48.467
					c19.873-26.001,21.582-372.085-173.252-571.289l-435.962-45.894c-7.363-0.776-13.057-6.807-13.413-14.204
					c-0.664-13.145-6.479-50.527-25.103-66.206c-40.146-22.905-695.938-139.937-1323.438-87.549
					c-31.733,17.881-75.537,101.387-96.172,151.055c-1.997,4.81-6.348,8.242-11.494,9.063l-582.075,92.72l-246.641,79.644
					c-1.362,0.444-2.783,0.684-4.214,0.723c-2.92,0.078-293.706,9.292-457.993,143.711
					c-160.176,131.05-56.392,437.813-55.322,440.894c0.996,2.876,1.094,5.996,0.278,8.926l-16.24,58.457l80.2,46.035l4.741-10.273
					C421.111,2984.331,426.496,2981.03,432.224,2981.03z"/>
			</g>
			<g>
				<path style="fill:#6B184B;" d="M1938.45,3108.227c-0.034,0-0.073,0-0.108,0c-529.546-3.774-923.159-30.137-1138.291-76.235
					c-322.632-69.136-468.652-125.957-470.088-126.523c-7.71-3.032-11.494-11.738-8.462-19.443
					c3.027-7.71,11.728-11.499,19.448-8.472c1.416,0.557,145.601,56.577,465.391,125.103
					c207.3,44.424,601.431,71.143,1111.309,75.41l-48.774-147.778c-86.992,9.16-591.06,60.835-747.114,45.835
					c-166.704-16.03-694.209-130.259-716.582-135.112c-2.28-0.493-4.414-1.514-6.23-2.979l-104.443-84.155
					c-6.45-5.195-7.466-14.639-2.266-21.089c5.2-6.455,14.649-7.471,21.094-2.271l101.67,81.924
					c46.909,10.127,551.611,118.628,709.629,133.818c164.297,15.796,747.217-46.45,753.091-47.075
					c6.992-0.757,13.628,3.496,15.845,10.21l59.126,179.131c1.514,4.59,0.728,9.629-2.119,13.535
					C1947.751,3105.937,1943.245,3108.227,1938.45,3108.227z"/>
			</g>
			<g>
				<path style="fill:#6B184B;" d="M1094.832,2972.963c-0.596,0-1.191-0.034-1.792-0.107c-8.228-0.977-14.102-8.442-13.12-16.665
					l45.127-378.794c-303.882-130.171-596.172-129.531-634.131-93.687c-30.791,29.082-57.813,226.362-67.612,343.887
					c-0.684,8.252-7.886,14.434-16.191,13.701c-8.257-0.688-14.39-7.935-13.701-16.191c2.69-32.285,27.7-316.738,76.909-363.208
					c34.116-32.227,148.623-33.135,244.419-23.237c142.036,14.678,295.649,55.757,432.539,115.674
					c6.055,2.651,9.663,8.95,8.877,15.513l-46.45,389.888C1108.796,2967.363,1102.322,2972.963,1094.832,2972.963z"/>
			</g>
			<g>
				<path style="fill:#6B184B;" d="M1141.252,2583.081c-6.685,0-12.778-4.502-14.517-11.274
					c-2.061-8.022,2.773-16.201,10.796-18.262c7.339-1.88,740.41-189.102,1295.117-245.337
					c554.526-56.221,1255.923-39.912,1262.939-39.741c8.281,0.2,14.829,7.08,14.629,15.361c-0.2,8.154-6.875,14.634-14.99,14.634
					c-0.122,0-0.244,0-0.371-0.005c-7.002-0.166-706.558-16.436-1259.18,39.595c-552.485,56.011-1283.364,242.676-1290.684,244.551
					C1143.743,2582.924,1142.488,2583.081,1141.252,2583.081z"/>
			</g>
			<g>
				<path style="fill:#6B184B;" d="M3225.707,2268.771c16.649-7.448,33.481-14.468,50.251-21.633
					c16.747-7.22,33.654-14.064,50.496-21.062c33.771-13.79,67.665-27.29,101.633-40.617l4.786,23.414l-35.486-1.215
					c-11.83-0.448-23.658-0.691-35.487-1.395c-11.828-0.54-23.657-1.558-35.487-2.836c-11.829-1.364-23.657-2.944-35.486-5.502
					c-0.69-0.149-1.128-0.829-0.979-1.519c0.109-0.505,0.504-0.875,0.979-0.979c11.829-2.558,23.657-4.138,35.486-5.501
					c11.83-1.278,23.659-2.296,35.487-2.836c11.829-0.703,23.657-0.946,35.487-1.394l35.486-1.216
					c6.682-0.229,12.284,5.003,12.513,11.685c0.172,5.013-2.729,9.418-7.012,11.403l-0.714,0.327
					c-33.125,15.303-66.324,30.433-99.647,45.274c-16.704,7.317-33.344,14.788-50.144,21.883
					c-16.776,7.15-33.491,14.445-50.388,21.312c-7.676,3.12-16.427-0.574-19.547-8.25
					C3214.884,2280.607,3218.375,2272.062,3225.707,2268.771z"/>
			</g>
			<g>
				<path style="fill:#6B184B;" d="M1168.76,2894.282c-0.963-0.814-1.753-2.904-1.68-2.993c-0.114-0.452-0.244-1.146-0.261-1.419
					c-0.06-0.616-0.115-1.322-0.111-1.778c-0.028-1.065,0.007-1.946,0.048-2.867c0.109-1.774,0.266-3.476,0.461-5.145
					c0.388-3.342,0.848-6.61,1.404-9.853c1.128-6.474,2.442-12.862,3.848-19.228c2.972-12.679,6.256-25.267,10.071-37.697
					c7.546-24.89,16.653-49.313,27.223-73.255c5.366-11.935,11.194-23.695,17.443-35.302c6.214-11.627,13.003-23.023,20.597-34.015
					c7.539-11.023,15.726-21.756,24.973-31.877c4.594-5.086,9.569-9.903,14.831-14.515c5.194-4.494,11.065-9.191,16.775-12.64
					c5.745-3.571,11.381-7.543,17.233-10.746l17.576-9.542c11.896-5.701,23.872-11.265,36.007-16.074
					c12.051-5.158,24.316-9.451,36.515-13.981c12.322-4.105,24.615-8.262,37.018-11.959c49.569-15.017,99.76-26.876,150.79-35.017
					c2.732-0.436,5.3,1.426,5.736,4.158c0.396,2.485-1.108,4.835-3.44,5.567l-0.101,0.031
					c-48.763,15.37-97.481,31.012-145.109,48.658c-23.835,8.77-47.379,18.15-70.316,28.365
					c-22.825,10.337-45.468,21.354-65.154,34.994c-9.939,6.319-18.123,14.292-26.394,23.014
					c-8.171,8.696-15.721,18.279-22.786,28.317c-13.995,20.182-26.813,41.703-38.146,64.114
					c-11.608,22.285-22.053,45.33-31.882,68.671c-4.851,11.695-9.669,23.438-14.012,35.328c-2.244,5.92-4.399,11.874-6.361,17.84
					c-0.98,2.978-1.979,5.954-2.827,8.899c-0.434,1.474-0.82,2.93-1.153,4.33l-0.416,1.915l-0.13,0.624
					c-0.021,0.129-0.036-0.175-0.101-0.23c0.082,0.325-0.425-1.442-1.228-1.894c1.989,1.916,2.047,5.081,0.132,7.07
					C1173.913,2896.139,1170.748,2896.198,1168.76,2894.282z"/>
			</g>
			<g>
				<path style="fill:#6B184B;" d="M504.978,2475.234c-4.81,0-9.531-2.305-12.432-6.582c-4.648-6.855-2.856-16.187,3.999-20.835
					c1.646-1.113,166.719-112.231,361.397-175.088c7.881-2.568,16.333,1.777,18.882,9.663c2.549,7.886-1.782,16.338-9.663,18.882
					c-190.649,61.563-352.173,170.283-353.779,171.377C510.803,2474.399,507.873,2475.234,504.978,2475.234z"/>
			</g>
			<g>
				<path style="fill:#6B184B;" d="M1864.382,2915.401c-0.491-6.142-0.636-11.279-0.695-16.83
					c-0.073-5.455-0.011-10.874,0.265-16.279c0.438-10.815,1.382-21.57,2.731-32.276c2.672-21.406,6.951-42.645,13.324-63.321
					c12.584-41.31,32.355-80.942,59.982-114.532c27.46-33.705,62.452-60.826,100.707-80.059
					c38.333-19.168,80.168-30.573,122.273-32.117c0.697-0.025,1.283,0.519,1.309,1.215c0.021,0.568-0.342,1.063-0.853,1.24
					c-39.58,13.687-77.719,28.196-112.863,48.027c-17.369,10.146-34.137,21.325-48.996,34.686
					c-14.91,13.223-29.01,27.394-40.792,43.423c-11.888,15.905-22.305,32.875-31.083,50.699
					c-8.748,17.842-15.77,36.559-21.139,55.766c-5.289,19.227-9.238,38.867-11.73,58.7c-1.235,9.915-2.096,19.885-2.483,29.838
					c-0.211,4.974-0.367,9.951-0.388,14.887c-0.049,4.839,0.057,10.099,0.319,14.323l0.031,0.488
					c0.511,8.267-5.774,15.383-14.041,15.895C1872.087,2929.68,1865.038,2923.528,1864.382,2915.401z"/>
			</g>
			<g>
				<path style="fill:#6B184B;" d="M2715.735,3050.424c-0.84,0-1.694-0.073-2.549-0.22c-8.164-1.396-13.647-9.146-12.256-17.31
					c0.347-2.031,33.496-204.473-63.784-339.766c-45.908-63.848-114.111-103.242-202.715-117.095
					c-6.479-1.011-11.553-6.113-12.52-12.603l-33.535-224.214c-517.803-101.636-1270.772-117.075-1278.369-117.222
					c-8.281-0.156-14.868-6.997-14.707-15.283c0.156-8.184,6.841-14.712,14.99-14.712c0.098,0,0.195,0,0.293,0.005
					c7.671,0.142,773.296,15.825,1294.004,119.844c6.201,1.235,10.962,6.235,11.895,12.49l33.491,223.896
					c91.621,16.636,162.778,59.502,211.626,127.515c104.595,145.625,70.405,353.438,68.901,362.212
					C2729.246,3045.268,2722.903,3050.424,2715.735,3050.424z"/>
			</g>
			<g>
				<path style="fill:#6B184B;" d="M2719.988,2915.102c-7.197,0-13.555-5.195-14.775-12.534
					c-1.362-8.169,4.155-15.898,12.329-17.261l594.634-99.175c8.13-1.387,15.903,4.15,17.261,12.329
					c1.362,8.169-4.155,15.898-12.329,17.261l-594.634,99.175C2721.638,2915.039,2720.808,2915.102,2719.988,2915.102z"/>
			</g>
			<g>
				<path style="fill:#6B184B;" d="M3045.056,2976.191c-8.286,0-15-6.714-15-15v-115.303c0-1.128,0.127-2.261,0.381-3.359
					c0.688-3.003,67.456-303.345-59.927-547.114c-3.833-7.344-0.991-16.406,6.348-20.244c7.344-3.833,16.406-0.991,20.244,6.348
					c128.96,246.802,69.038,538.486,62.954,566.035v113.638C3060.056,2969.477,3053.342,2976.191,3045.056,2976.191z"/>
			</g>
			<g>
				<path style="fill:#6B184B;" d="M3150.383,2297.568c-0.518,0-1.045-0.024-1.572-0.078c-8.237-0.859-14.224-8.232-13.369-16.475
					l16.704-160.732c0.859-8.237,8.179-14.214,16.475-13.369c8.237,0.859,14.224,8.232,13.369,16.475l-16.704,160.732
					C3164.48,2291.831,3157.971,2297.568,3150.383,2297.568z"/>
			</g>
			<g>
				<path style="fill:#6B184B;" d="M2967.61,2304.023c-0.645,0-1.294-0.044-1.948-0.127c-8.213-1.064-14.009-8.584-12.949-16.797
					c0.928-7.144,23.574-175.693,104.609-236.631c24.429-18.369,51.694-25.41,81.06-20.874c8.188,1.26,13.804,8.916,12.544,17.104
					c-1.26,8.193-8.95,13.823-17.104,12.544c-21.372-3.276-40.479,1.685-58.442,15.186c-70.957,53.32-92.7,214.897-92.915,216.523
					C2981.482,2298.51,2975.032,2304.023,2967.61,2304.023z"/>
			</g>
			<g>
				<path style="fill:#6B184B;" d="M1659.28,2249.423c-1.362,0-2.744-0.186-4.116-0.576c-7.969-2.271-12.588-10.566-10.322-18.535
					l34.248-120.322c2.27-7.974,10.576-12.588,18.535-10.322c7.969,2.271,12.588,10.566,10.322,18.535l-34.248,120.322
					C1671.819,2245.122,1665.813,2249.423,1659.28,2249.423z"/>
			</g>
			<g>
				<path style="fill:#6B184B;" d="M428.928,2668.642c-2.822,0-5.679-0.796-8.218-2.461c-72.065-47.324-70.771-52.5-68.193-62.813
					c1.318-5.293,28.032-97.192,31.074-107.656c1.367-4.707,4.951-8.447,9.595-10.02c4.624-1.577,9.756-0.781,13.706,2.129
					l53.608,39.478c6.67,4.912,8.096,14.302,3.184,20.977c-4.912,6.67-14.302,8.101-20.977,3.184l-36.304-26.738
					c-8.706,29.99-18.496,63.794-22.715,78.555c9.741,8.091,33.247,24.536,53.486,37.827c6.924,4.551,8.853,13.848,4.307,20.771
					C438.601,2666.264,433.811,2668.642,428.928,2668.642z"/>
			</g>
			<g>
				<path style="fill:#6B184B;" d="M1373.196,2783.042c-10.957,0-19.048-0.132-23.555-0.425c-4.814-0.317-9.189-2.93-11.748-7.026
					c-2.554-4.097-2.983-9.17-1.152-13.638c48.779-118.901,54.805-121.489,61.187-124.224c3.237-1.387,9.238-3.955,432.866-26.357
					c4.551-0.249,8.931,1.587,11.958,4.966c3.032,3.379,4.365,7.949,3.638,12.427l-21.289,130.649
					c-1.152,7.075-7.148,12.344-14.317,12.578C1795.515,2772.49,1470.974,2783.042,1373.196,2783.042z M1372.898,2753.071
					c0.156,0,0.307,0,0.464,0c85.747,0,362.226-8.687,424.116-10.664l16.309-100.088c-152.378,8.096-364.258,19.858-401.66,23.257
					C1405.178,2678.051,1388.752,2715.195,1372.898,2753.071z M1414.338,2662.011"/>
			</g>
			<g>
				<path style="fill:#6B184B;" d="M1133.123,2651.518c-0.43,0-0.864-0.02-1.299-0.054
					c-306.875-26.387-676.807-107.095-680.503-107.905c-8.096-1.777-13.213-9.775-11.441-17.866
					c1.773-8.096,9.795-13.208,17.866-11.44c3.687,0.811,371.753,81.108,676.646,107.319c8.257,0.713,14.37,7.979,13.662,16.23
					C1147.38,2645.62,1140.828,2651.518,1133.123,2651.518z"/>
			</g>
		</g>
		<g>
			<g>
				<path style="fill:#F9C9C9;" d="M2765.457,1908.301c0,0,128.459-46.546,202.132-169.892c0,0-3.747-106.894,31.092-121.41
					c34.839-14.516,45.484,37.742,45.484,37.742s57.097-88.312,91.936-77.059c34.839,11.253,30.968,79.963,30.968,79.963
					s75.484-66.774,90-15.484c14.516,51.29-1.936,222.861-157.742,378.527s-166.452,169.215-166.452,169.215l2.889,100.279
					c0,0-212.881,8.2-317.406,16.818c-104.524,8.617-216.708,19.558-216.708,19.558s-197.485-33.107-313.614-47.623l75.161-130.645
					c0,0-112.903,37.742-198.065-12.581c-85.161-50.323,58.575-185.355,301.373-229.31
					C2266.505,1906.399,2565.137,1947.023,2765.457,1908.301z"/>
			</g>
			<g style="opacity:0.4;">
				<path style="fill:#FFFFFF;" d="M1940.459,2104.418c0.856,2.522,52.501-69.082,194.35-132.903
					c141.849-63.821,151.249-59.051,147.742-61.29c-3.507-2.24-21.29,0-21.29,0s-95.965,12.044-199.918,64.087
					C1957.39,2026.354,1931.915,2079.257,1940.459,2104.418z"/>
			</g>
			<g style="opacity:0.4;">
				<path style="fill:#FFFFFF;" d="M2111.014,2286.999c4.302-4.52,59.28-91.613,91.538-143.226
					c32.258-51.613,65.36-119.233,62.357-114.778c-3.002,4.455-79.636,80.921-120.106,151.265
					c-40.469,70.344-56.768,106.738-56.768,106.738H2111.014z"/>
			</g>
			<g style="opacity:0.4;">
				<path style="fill:#FFFFFF;" d="M2767.068,1920.548c0,0,65.161-5.807,130.968-60.645c65.806-54.839,100.645-112.258,101.29-120
					c0.645-7.742-9.168-55.04,4.516-89.677s24.975-21.935,24.975-21.935l23.027,47.195c0,0,61.03-64.615,74.578-71.066
					c13.548-6.452,34.839,3.674,34.839,3.674s-5.161-24.244-25.161-30.411c-20-6.166-60.025,35.396-61.188,36.734
					c-1.163,1.338-24.618,30.648-24.618,30.648l-11.212-5.803c0,0-8.143-32.262-40.401-22.262
					c-32.258,10-34.516,107.419-34.516,107.419v29.845c0,0-38.387,52.736-95.806,94.672
					C2810.939,1890.87,2767.068,1920.548,2767.068,1920.548z"/>
			</g>
			<g style="opacity:0.2;">
				<path style="fill:#6B184B;" d="M2011.923,2154.74c0,0,80.951-24.697,145.79-70.251c64.839-45.554,107.196-55.493,107.196-55.493
					l-87.533,101.665c0,0-14.486,23.457-28.373,24.079C2135.116,2155.362,2067.424,2169.899,2011.923,2154.74z"/>
			</g>
			<g style="opacity:0.2;">
				<path style="fill:#6B184B;" d="M2108.643,2243.115c0,0,201.98,90.335,462.46,25.82c260.481-64.516,330.158-120,428.223-216.774
					c98.064-96.774,252.214-259.355,260.301-397.419c0,0,11.811,119.685-65.535,244.358
					c-77.346,124.674-261.217,290.803-261.217,290.803l2.889,100.279c0,0-377.632,16.846-534.114,36.376
					c0,0-226.195-41.494-313.614-47.623L2108.643,2243.115z"/>
			</g>
			<g style="opacity:0.2;">
				<path style="fill:#6B184B;" d="M2253.111,1908.935c0,0,119.458,77.524,272.191,71.02
					c152.733-6.504,268.862-78.762,268.862-78.762s-92.521,18.762-230.131,22.284c-137.61,3.522-275.675-15.833-275.675-15.833
					L2253.111,1908.935z"/>
			</g>
			<g>
				<path style="fill:#6B184B;" d="M2401.648,2341.557c-0.83,0-1.66-0.068-2.48-0.205c-1.973-0.332-198.511-33.223-312.993-47.534
					c-4.985-0.62-9.326-3.696-11.567-8.193c-2.236-4.497-2.08-9.814,0.425-14.17l57.686-100.269
					c-42.153,7.852-114.492,13.315-175.215-22.563c-24.6-14.536-35.62-36.65-31.03-62.261
					c12.163-67.896,141.68-159.297,337.363-194.722c1.553-0.278,3.14-0.322,4.692-0.103c2.949,0.4,297.275,39.649,492.817,2.28
					c11.865-4.619,124.292-50.674,191.123-159.399c-0.728-31.797,1.255-114.941,40.444-131.265
					c15.703-6.538,27.915-3.193,35.396,0.771c8.53,4.521,14.858,11.895,19.478,19.526c22.72-30.015,60.537-70.513,92.925-60.044
					c27.72,8.955,37.129,40.371,40.166,64.824c18.574-12.329,44.067-24.868,64.551-18.843c8.931,2.617,20.708,9.722,26.074,28.687
					c16.021,56.611-2.422,234.219-161.577,393.223c-117.505,117.402-152.163,153.696-161.885,164.175l2.72,94.272
					c0.234,8.228-6.196,15.107-14.419,15.425c-2.124,0.078-213.75,8.286-316.753,16.782
					c-103.208,8.501-215.361,19.424-216.484,19.536C2402.62,2341.533,2402.136,2341.557,2401.648,2341.557z M2112.244,2266.938
					c109.849,14.59,270.361,41.235,289.922,44.497c15.493-1.499,119.067-11.479,214.961-19.385
					c87.646-7.227,252.964-14.229,303.218-16.265l-2.466-85.449c-0.098-3.511,1.03-6.943,3.198-9.702
					c1.147-1.46,15.591-18.643,167.646-170.557c152.798-152.656,166.289-320.108,153.911-363.828
					c-1.978-6.997-4.648-7.778-5.649-8.076c-12.412-3.628-42.783,15.503-59.98,30.708c-4.526,4.009-11.03,4.907-16.479,2.261
					c-5.449-2.642-8.774-8.296-8.433-14.341c1.006-18.647-2.71-59.067-20.601-64.849c-13.652-4.4-50.698,33.823-74.736,70.938
					c-3.315,5.117-9.429,7.7-15.376,6.587c-5.991-1.133-10.698-5.771-11.914-11.743c-1.484-7.051-7.168-23.071-15.239-27.319
					c-1.797-0.938-4.531-1.753-9.775,0.435c-15.073,6.275-23.477,60.41-21.87,107.036c0.098,2.886-0.635,5.737-2.114,8.213
					c-75.542,126.484-204.448,174.331-209.902,176.304c-0.732,0.269-1.489,0.479-2.261,0.625
					c-193.242,37.358-470.742,2.603-501.436-1.445c-189.209,34.785-302.065,120.962-310.869,170.073
					c-1.475,8.242-1.343,20.435,16.768,31.138c78.086,46.147,184.624,11.626,185.688,11.265c5.908-1.953,12.417-0.073,16.353,4.751
					c3.936,4.819,4.492,11.567,1.392,16.963L2112.244,2266.938z M2765.457,1908.3h0.049H2765.457z M2765.457,1908.3h0.049H2765.457z
					"/>
			</g>
			<g>
				<path style="fill:#6B184B;" d="M3058.231,1649.533c2.776,6.835,5.435,13.713,7.902,20.661l-5.492-7.15
					c2.986,2.205,5.076,3.95,7.45,5.991c2.256,2.025,4.46,4.079,6.583,6.217c4.28,4.237,8.307,8.744,11.99,13.596
					c7.439,9.611,13.728,20.52,17.64,32.742c3.793,12.18,4.821,25.931,1.382,38.488c-1.664,6.261-4.641,12.064-8.579,16.874
					c-3.872,4.873-8.706,8.764-14.225,11.471c-0.685,0.336-1.511,0.053-1.847-0.631c-0.14-0.286-0.172-0.596-0.114-0.885l0.01-0.044
					c2.432-11.817,4.922-21.223,5.208-30.346c0.812-9.027-1.452-17.785-5.318-26.039c-3.88-8.295-9.711-16.002-16.228-23.224
					c-3.329-3.564-6.843-7.027-10.502-10.335c-1.825-1.658-3.727-3.233-5.625-4.774c-1.797-1.508-3.976-3.2-5.417-4.22
					c-2.553-1.805-4.381-4.251-5.424-6.966l-0.07-0.186c-2.653-6.88-5.114-13.831-7.458-20.825
					c-2.634-7.859,1.6-16.365,9.459-18.999C3047.102,1638.42,3055.263,1642.269,3058.231,1649.533z"/>
			</g>
			<g>
				<path style="fill:#6B184B;" d="M2151.44,2138.974c8.517-11.376,17.46-22.201,26.71-32.871
					c4.574-5.365,9.275-10.626,14.033-15.839c4.711-5.251,9.507-10.434,14.406-15.527c9.69-10.284,19.723-20.267,29.908-30.12
					c10.143-9.866,21.269-18.995,35.483-24.801c0.696-0.284,1.49,0.05,1.775,0.745c0.134,0.329,0.126,0.691,0.012,0.999
					c-5.333,14.318-13.151,25.886-21.709,36.93l-25.293,33.402c-4.178,5.599-8.433,11.133-12.708,16.651
					c-4.233,5.553-8.5,11.078-12.826,16.553c-8.568,10.997-17.326,21.937-26.279,32.509l-0.052,0.06
					c-5.356,6.324-14.824,7.108-21.149,1.752C2147.673,2154.266,2146.743,2145.276,2151.44,2138.974z"/>
			</g>
		</g>
		<g>
			<g>
				<g>
					<path style="fill:#FFDE80;" d="M1831.584,2250.468c0,0,10.645-88.178,151.935-145.984
						c141.29-57.807,360.586,31.145,394.648,217.475l-95.068-12.391c0,0-60.548-143.332-185.386-147.951
						c-124.839-4.618-185.794,94.935-185.794,94.935L1831.584,2250.468z"/>
				</g>
				<g>
					<g style="opacity:0.4;">
						<path style="fill:#FFFFFF;" d="M1983.519,2126.688c135.353-55.378,342.179,23.994,389.277,194.571l5.37,0.7
							c-34.061-186.331-253.357-275.282-394.647-217.475s-151.935,145.984-151.935,145.984l6.575,0.498
							C1850.595,2221.147,1885.809,2166.664,1983.519,2126.688z"/>
					</g>
				</g>
				<g>
					<path style="fill:#FFDE80;" d="M1989.326,2269.257c0,0,43.357-53.226,115.55-40.645c72.192,12.581,85.965,64.6,85.965,64.6
						L1989.326,2269.257z"/>
				</g>
			</g>
			<g style="opacity:0.3;">
				<g>
					<path style="fill:#6B184B;" d="M2008.514,2251.85c-12.482,9.203-19.188,17.407-19.188,17.407l201.514,23.955
						c0,0-2.482-9.295-10.765-20.969L2008.514,2251.85z"/>
				</g>
			</g>
			<g style="opacity:0.3;">
				<g>
					<path style="fill:#6B184B;" d="M2298.37,2283.624c0,0-65.736-143.332-201.271-147.95
						c-135.536-4.618-201.714,94.935-201.714,94.935l-13.462,18.472c-6.323,14.491-50.339,1.387-50.339,1.387l80.334,6.085
						c0,0,60.955-99.553,185.793-94.935s185.387,147.95,185.387,147.95l95.067,12.391c-1.863-10.19-61.719-1.49-64.647-11.089
						L2298.37,2283.624z"/>
				</g>
			</g>
			<g>
				<g>
					<path style="fill:#6B184B;" d="M2378.167,2336.958c-0.645,0-1.289-0.039-1.938-0.127l-95.068-12.388
						c-5.283-0.688-9.805-4.126-11.88-9.038c-0.566-1.328-58.491-134.595-172.124-138.799c-2.603-0.098-5.19-0.146-7.739-0.146
						c-109.585,0-164.15,87.026-164.702,87.925c-2.939,4.8-8.34,7.563-13.926,7.124l-80.337-6.084
						c-4.082-0.308-7.861-2.271-10.459-5.435c-2.598-3.164-3.789-7.256-3.301-11.318c0.479-3.96,13.398-97.622,161.147-158.071
						c77.002-31.514,177.207-22.422,261.494,23.701c83.208,45.547,137.754,118.335,153.589,204.961
						c0.859,4.712-0.581,9.551-3.882,13.027C2386.189,2335.288,2382.249,2336.958,2378.167,2336.958z M2293.254,2295.766
						l65.562,8.545c-18.516-68.618-65.43-126.221-133.887-163.691c-76.543-41.899-166.865-50.425-235.733-22.256
						c-96.811,39.609-128.32,92.603-138.296,118.525l53.525,4.053c18.003-24.712,81.328-98.486,193.838-94.316
						C2214.963,2150.942,2277.893,2264.091,2293.254,2295.766z"/>
				</g>
				<g>
					<path style="fill:#6B184B;" d="M2190.842,2308.212c-0.586,0-1.177-0.034-1.772-0.103l-201.519-23.955
						c-5.43-0.649-10.083-4.199-12.134-9.272c-2.051-5.068-1.177-10.859,2.275-15.098c1.997-2.451,49.829-59.873,129.756-45.947
						c80.732,14.063,97.231,73.032,97.896,75.537c1.27,4.8,0.083,9.922-3.179,13.672
						C2199.299,2306.347,2195.159,2308.212,2190.842,2308.212z M2025.295,2258.427l137.837,16.387
						c-10.659-12.197-29.248-25.923-60.83-31.426C2068.997,2237.597,2042.737,2247.583,2025.295,2258.427z"/>
				</g>
			</g>
		</g>
		<g>
			<path style="fill:#F9C9C9;" d="M2014.003,2200.064c0,0,0.463,34.359,35.554,34.357c35.091-0.002,82.783-42.472,72.247-70.108
				C2121.804,2164.313,2061.423,2137.16,2014.003,2200.064z"/>
		</g>
		<g style="opacity:0.3;">
			<path style="fill:#6B184B;" d="M2014.003,2200.064c0,0,0.463,34.359,35.554,34.357c35.091-0.002,82.783-42.472,72.247-70.108
				C2121.804,2164.313,2061.423,2137.16,2014.003,2200.064z"/>
		</g>
		<g>
			<path style="fill:#6B184B;" d="M2049.548,2249.418c-36.597,0-50.278-29.395-50.547-49.155c-0.044-3.325,1.021-6.572,3.023-9.229
				c43.208-57.314,101.265-51.494,125.933-40.405c3.618,1.631,6.45,4.629,7.861,8.34c5.205,13.638,2.08,29.844-8.794,45.625
				c-14.971,21.729-47.207,44.824-77.466,44.824C2049.558,2249.418,2049.553,2249.418,2049.548,2249.418z M2029.602,2204.521
				c1.426,6.504,5.977,14.897,19.951,14.897c0,0,0,0,0.005,0c16.709,0,40.869-14.58,52.759-31.841
				c2.998-4.355,4.932-8.525,5.654-12.031C2093.079,2171.889,2059.27,2168.896,2029.602,2204.521z M2014.001,2200.063h0.049
				H2014.001z"/>
		</g>
		<g>
			<g>
				<path style="fill:#F9C9C9;" d="M2049.557,2050.064c-136.704-10.161-206.844,74.032-198.033,122.543
					c8.812,48.51,60.382,72.457,60.382,72.457s67.742-6.29,72.581-50.323c0,0,10.645,9.677,29.516,5.323
					c18.871-4.355,46.936-27.245,43.548-42.171c-3.387-14.926-29.516-66.7,14.032-85.571"/>
			</g>
			<g style="opacity:0.4;">
				<path style="fill:#FFFFFF;" d="M1867.713,2201.515c0,0-7.097-45.484,36.936-83.226c44.032-37.742,121.452-61.452,121.452-61.452
					s-34.355-19.259-103.064,18.919S1836.1,2161.354,1867.713,2201.515z"/>
			</g>
			<g style="opacity:0.3;">
				<path style="fill:#6B184B;" d="M1867.713,2198.29c0,0,39.032,19.163,58.71,6.194s7.742-76.84,7.742-76.84l15.484,35.484
					c0,0,31.29,13.548,53.226-3.871c21.935-17.419,3.871-50.645,15.484-69.677s45.306-13.019,44.7-12.581
					c-0.606,0.438-23.41,21.29-17.603,49.355c5.807,28.064,11.29,32.212,9.355,43.848s-21.29,27.12-40.807,29.862
					c-19.516,2.742-25-2.097-29.516,2.097c-4.516,4.194-15.08,25.521-38.83,34.535c-23.75,9.014-33.75,8.369-33.75,8.369
					S1870.939,2236.354,1867.713,2198.29z"/>
			</g>
			<g>
				<path style="fill:#6B184B;" d="M2049.557,2050.064c-15.787,12.41-29.438,13.937-43.44,16.127
					c-13.851,2.41-27.5,4.471-41.033,7.418c-27.137,5.581-52.354,19.158-71.611,37.719c-9.559,9.29-17.616,20.021-22.661,31.435
					c-2.478,5.688-4.188,11.527-4.786,17.08c-0.648,5.678,0.121,10.083,1.791,16.376c3.387,11.621,10.156,22.521,19.156,31.935
					c4.417,4.774,9.526,9.071,14.85,13.062c2.649,2.012,5.438,3.881,8.252,5.63c2.686,1.706,5.963,3.549,8.149,4.612l-7.704-1.331
					c2.814-0.288,6.722-0.966,10.078-1.657c3.48-0.728,6.94-1.583,10.31-2.587c6.758-1.969,13.25-4.505,18.872-7.722
					c5.591-3.201,10.624-6.891,13.909-11.136c3.263-4.254,5.043-8.821,5.887-13.923l25-9.462c-0.642-0.565-0.223-0.216-0.223-0.216
					l0.472,0.303c0.353,0.22,0.789,0.466,1.251,0.673c0.918,0.437,1.936,0.833,3.024,1.096c2.157,0.572,4.525,0.813,7.057,0.627
					c1.274-0.128,2.569-0.28,3.906-0.577c1.344-0.333,2.385-0.55,3.8-1.115c2.665-0.894,5.59-2.427,8.409-4.011
					c5.631-3.315,11.208-7.591,15.167-12.217c2.096-2.217,3.529-4.723,4.216-6.408c0.175-0.422,0.411-0.871,0.348-1.056
					c-0.027-0.183,0.223-0.616,0.012-0.469c-0.152,0.124,0.059-0.091-0.143,0.41c-0.166,0.212,0.27,1.238-0.127,0.173
					c-0.752-2.227-2.44-6.489-3.839-10.203c-1.503-3.93-2.819-8.07-4.088-12.37c-2.432-8.614-4.093-18.033-3.573-28.266
					c0.234-2.616,0.574-5.221,0.94-7.798c0.526-2.638,1.296-5.315,2.058-7.902c0.885-2.598,2.15-5.222,3.372-7.71
					c1.244-2.5,3.325-4.684,5.078-6.837c7.983-8.306,19.551-11.299,29.89-7.448c-4.166,10.677-6.219,17.153-7.133,22.379
					c-0.47,2.588-0.901,4.921-1.267,7.395c0.022,1.362-0.131,2.609-0.193,3.94c0.105,1.436,0.182,2.842,0.158,4.238
					c0.482,5.883,1.787,12.414,3.447,19.326c0.784,3.473,1.852,7.017,2.839,10.731c1.05,3.942,2.144,7.238,3.428,12.794
					c0.289,0.846,0.679,3.916,0.762,6.118c0.211,2.506-0.271,4.276-0.563,6.396c-0.304,2.178-0.979,3.589-1.542,5.337
					c-0.574,1.772-1.289,3.1-2.006,4.48c-2.882,5.514-6.315,9.53-9.701,13.177c-6.863,7.293-14.283,12.798-22.439,17.711
					c-4.176,2.355-8.403,4.582-13.349,6.315c-5.026,1.808-10.363,3.019-15.789,3.394c-5.487,0.396-11.239-0.068-16.853-1.564
					c-2.81-0.723-5.575-1.745-8.284-3.039c-1.359-0.639-2.692-1.363-4.045-2.201c-0.664-0.397-1.362-0.871-2.048-1.347
					c-0.808-0.598-1.206-0.837-2.609-2.06l24.999-9.461c-1.375,10.632-5.702,21.092-12.25,29.346
					c-6.555,8.28-14.653,13.995-22.747,18.632c-8.163,4.616-16.563,7.822-24.999,10.299c-4.221,1.254-8.462,2.302-12.736,3.194
					c-4.406,0.879-8.303,1.616-13.372,2.149l-0.081,0.008c-2.699,0.283-5.349-0.242-7.626-1.34
					c-4.53-2.202-7.732-4.096-11.371-6.354c-3.524-2.193-6.946-4.493-10.248-6.988c-6.616-4.953-12.98-10.321-18.734-16.496
					c-11.584-12.11-21.282-27.191-26.241-44.288c-0.991-4.454-2.317-8.271-2.787-13.476c-0.585-4.928-0.421-9.715-0.013-14.403
					c1.016-9.313,3.664-17.94,7.136-25.933c7.075-15.945,17.449-29.416,29.245-40.926c11.876-11.438,25.238-21.035,39.5-28.627
					c14.24-7.615,28.998-14.175,44.296-19.107c15.277-4.953,31.204-7.878,47.113-7.908
					C2019.252,2033.907,2035.554,2035.527,2049.557,2050.064z"/>
			</g>
			<g>
				<path style="fill:#6B184B;" d="M1978.359,2208.432l-2.318-1.06l-1.864-0.964c-1.2-0.634-2.375-1.282-3.446-1.991
					c-2.239-1.368-4.304-2.842-6.359-4.375c-3.966-3.175-7.755-6.542-11.063-10.344c-3.418-3.697-6.396-7.771-9.059-11.998
					c-1.272-2.156-2.572-4.286-3.773-6.459l-3.059-6.793c-3.636-9.178-6.078-18.734-6.639-28.245
					c-0.739-4.699-0.049-9.503,0.726-14.164c1.145-4.657,3.071-9.231,6.176-13.467c0.492-0.673,1.438-0.818,2.111-0.325
					c0.115,0.084,0.215,0.182,0.298,0.289l0.088,0.114c3.34,4.327,5.065,8.345,6.806,12.228c1.992,3.815,2.783,7.668,4.249,11.283
					l1.941,5.436l2.452,5.144c0.76,1.722,1.653,3.359,2.6,4.956c0.963,1.586,1.708,3.272,2.804,4.753
					c3.958,6.171,8.695,11.587,13.796,16.497c2.578,2.43,5.291,4.682,8.049,6.814c1.434,0.956,2.775,2.092,4.197,2.96l2.046,1.344
					l0.948,0.594c0.286,0.171,0.662,0.41,0.549,0.39c7.561,3.384,10.947,12.258,7.563,19.819
					C1994.793,2208.43,1985.92,2211.817,1978.359,2208.432z"/>
			</g>
		</g>
		<g>
			<g>
				<path style="fill:#666666;" d="M2401.649,2326.557c0,0,173.605-458.913,155.318-488.59
					c-18.287-29.677-442.803-86.452-689.255-94.193c-246.452-7.742-402.581,42.581-402.581,42.581l-369.723,420.645h59.723
					l344.839-389.677c0,0,226.275-36.249,505.806-19.355s486.452,64.516,486.452,64.516l-209.13,447.085L2401.649,2326.557z"/>
			</g>
			<g style="opacity:0.3;">
				<polygon style="fill:#6B184B;" points="1185.336,2104.686 1451.147,1872.494 1155.132,2206.999 1099.971,2204.418 				"/>
			</g>
			<g style="opacity:0.3;">
				<path style="fill:#6B184B;" d="M2315.022,2251.85c0,0,38.115,12.593,63.144,0c25.03-12.593,170.279-353.999,170.279-353.999
					s-145.579,436.842-146.188,432.774c-0.608-4.067-119.158-25.642-119.158-25.642S2307.45,2249.782,2315.022,2251.85z"/>
			</g>
			<g>
				<g style="opacity:0.4;">
					<path style="fill:#FFFFFF;" d="M1863.358,1765.709c246.451,7.742,670.968,64.516,689.254,94.193
						c2.223,3.607,1.593,13.594-1.198,28.285c6.208-25.556,8.667-43.071,5.553-48.124c-18.287-29.677-442.803-86.452-689.255-94.194
						c-246.451-7.742-402.58,42.581-402.58,42.581l-369.723,420.645h13.082l352.286-400.807
						C1460.777,1808.289,1616.907,1757.967,1863.358,1765.709z"/>
				</g>
				<g style="opacity:0.4;">
					<path style="fill:#FFFFFF;" d="M2483.415,1881.326l-200.316,428.242l4.615,0.661l200.159-427.907
						C2487.873,1882.322,2486.336,1881.969,2483.415,1881.326z"/>
				</g>
			</g>
			<g>
				<path style="fill:#6B184B;" d="M2401.658,2341.557c-0.708,0-1.421-0.049-2.139-0.151l-118.55-16.987
					c-4.702-0.674-8.809-3.535-11.069-7.715c-2.256-4.185-2.402-9.185-0.391-13.491l201.152-430.024
					c-56.323-11.709-237.676-46.46-465.786-60.249c-251.343-15.19-461.787,13.228-497.28,18.408l-341.226,385.596
					c-2.852,3.218-6.938,5.059-11.235,5.059h-59.726c-5.894,0-11.235-3.447-13.667-8.818c-2.427-5.366-1.489-11.66,2.402-16.084
					l369.727-420.649c1.782-2.031,4.087-3.545,6.665-4.375c6.475-2.085,161.524-51.001,407.647-43.291
					c115.625,3.628,281.055,18.574,431.733,38.994c252.515,34.228,265.088,54.639,269.819,62.319
					c6.04,9.8,15.171,24.609-69.399,268.213c-40.713,117.275-84.224,232.407-84.658,233.555
					C2413.45,2337.758,2407.815,2341.557,2401.658,2341.557z M2305.261,2297.592l86.602,12.407
					c77.173-204.829,152.656-427.852,151.577-464.028c-42.393-25.889-429.839-79.468-676.196-87.202
					c-220.068-6.948-368.359,33.276-393.667,40.698l-345.015,392.534h19.814l340.361-384.619c2.305-2.598,5.434-4.321,8.862-4.868
					c2.275-0.366,231.152-36.338,509.082-19.517c277.568,16.772,486.831,64.39,488.911,64.868c4.414,1.016,8.135,3.975,10.117,8.047
					c1.987,4.072,2.026,8.823,0.107,12.93L2305.261,2297.592z"/>
			</g>
		</g>
	</g>
</g>
</svg>
