<?xml version="1.0" encoding="utf-8"?>
<!-- Generator: Adobe Illustrator 27.5.0, SVG Export Plug-In . SVG Version: 6.00 Build 0)  -->
<svg version="1.1" id="Layer_1" xmlns="http://www.w3.org/2000/svg" xmlns:xlink="http://www.w3.org/1999/xlink" x="0px" y="0px"
	 viewBox="0 0 4000 4000" style="enable-background:new 0 0 4000 4000;" xml:space="preserve">
<g>
	<g>
		<rect style="fill:#0BCBFF;" width="4000" height="4000"/>
	</g>
	<g>
		<g>
			<path style="fill:#FFAD40;" d="M1408.319,2001.763c-188.068,20.803-546.668,276.154-518.29,457.628
				c17.271,110.445,114.175,122.101,180.898,119.39c101.27-4.115,226.024-51.87,226.024-51.87"/>
		</g>
		<g>
			<path style="fill:#FFAD40;" d="M1408.334,2001.758l-21.194,99.908l-90.201,425.233c0,0-124.747,47.771-226.011,51.883
				c-66.717,2.713-163.616-8.944-180.911-119.406c-20.049-128.392,153.613-293.789,323.546-386.872
				C1283.757,2033.973,1353.357,2007.82,1408.334,2001.758z"/>
		</g>
		<g>
			<path style="fill:#FAA327;" d="M1408.334,2001.758l-21.194,99.908l-3.349,15.683l-86.852,409.55c0,0-7.884,3.01-21.236,7.587
				c-39.929,13.649-128.943,41.201-204.775,44.295c-66.717,2.713-163.616-8.944-180.911-119.406
				c-20.049-128.392,153.613-293.789,323.546-386.872C1283.757,2033.973,1353.357,2007.82,1408.334,2001.758z"/>
		</g>
		<g>
			<path style="fill:#FF9343;" d="M1383.791,2117.349l-86.852,409.55c0,0-7.884,3.01-21.236,7.587
				c-32.426-73.331-91.557-179.045-172.56-209.48c0,0,121.737-0.805,207.785-187.353
				C1330.934,2094.248,1357.384,2095.859,1383.791,2117.349z"/>
		</g>
		<g>
			<path style="fill:#EF7F25;" d="M1408.334,2001.758l-21.194,99.908c-62.098-4.917-120.465-14.836-173.578-29.163
				C1283.757,2033.973,1353.357,2007.82,1408.334,2001.758z"/>
		</g>
		<g>
			<path style="fill:#F9D3B7;" d="M1932.839,2021.85c-85.878,33.74-183.539,59.046-288.364,72.653
				c-89.65,11.614-176.46,13.606-257.039,7.206c5.341-40.819,8.393-81.342,7.715-120.508c0,0,58.791-41.879,257.42-54.595
				c198.671-12.674,228.045-24.161,228.045-24.161C1888.247,1934.743,1907.958,1975.478,1932.839,2021.85z"/>
		</g>
		<g>
			<path style="fill:#FF9343;" d="M2244.729,1793.507c-59.131,97.11-185.277,184.725-349.191,242.203l-14.921-98.594
				c83.631-12.165,160.183-35.945,229.912-67.736C2158.469,1847.509,2203.188,1821.822,2244.729,1793.507z"/>
		</g>
		<g>
			<path style="fill:#FF9343;" d="M1976.838,2003.411c-95.839,42.981-209.184,75.111-332.363,91.091
				c-115.802,15.005-226.859,13.946-325.834-0.509c17.76-44.168,105.63-231.734,322.824-245.637
				C1828.651,1836.404,1936.061,1948.816,1976.838,2003.411z"/>
		</g>
		<g>
			<path style="fill:#000072;" d="M1055.776,2596.338c-133.211,0-173.088-72.295-182.783-134.282
				c-8.628-55.186,13.264-117.525,65.071-185.283c106.936-139.863,325.796-276.382,468.362-292.149
				c9.443-1.055,17.986,5.776,19.033,15.244c1.045,9.463-5.779,17.983-15.244,19.033
				c-132.395,14.644-344.38,147.539-444.756,278.818c-45.22,59.146-65.413,114.126-58.394,159.004
				c11.653,74.526,65.003,108.74,163.162,104.829c97.192-3.95,219.341-50.278,220.561-50.747c8.892-3.408,18.862,1.05,22.266,9.941
				c3.401,8.896-1.047,18.862-9.939,22.265c-5.203,1.992-128.577,48.814-231.487,52.993
				C1066.203,2596.226,1060.917,2596.338,1055.776,2596.338z"/>
		</g>
		<g>
			<path style="fill:#000072;" d="M928.583,2377.25c25.499-77.688,136.385-99.9,195.172-46.634c3.513,2.987-0.056,8.961-4.324,7.291
				c-64.66-23.556-139.742-13.574-183.359,43.318C933.245,2384.958,927.063,2381.687,928.583,2377.25L928.583,2377.25z"/>
		</g>
		<g>
			<path style="fill:#F9D3B7;" d="M1391.421,2066.645c82.487,10.046,173.069,10.216,270.391,0.424
				c94.949-9.537,182.988-32.003,261.999-62.31c-20.6-39.293-36.496-74.052-43.193-102.324c0,0-29.375,11.487-228.046,24.203
				c-198.629,12.674-257.421,54.553-257.421,54.553C1395.618,2009.125,1394.219,2037.736,1391.421,2066.645z"/>
		</g>
		<g>
			<path style="fill:#FF9343;" d="M1335.385,2058.125c96.813,17.93,206.555,20.982,326.428,8.944
				c111.692-11.233,213.846-40.311,302.945-79.011c-47.856-57.775-152.299-150.646-323.291-139.71
				C1463.311,1859.75,1372.177,1988.016,1335.385,2058.125z"/>
		</g>
		<g>
			<path style="fill:#FF9343;" d="M1880.618,1937.108l11.953,79.053c166.287-57.563,295.909-150.604,370.342-235.337
				c-46.584,33.359-97.365,63.455-152.384,88.548C2040.801,1901.163,1964.249,1924.943,1880.618,1937.108z"/>
		</g>
		<g>
			<path style="fill:#FF9343;" d="M1896.345,1984.253l3.476,66.888c127.926-26.746,234.277-76.552,301.207-139.88
				c-23.737,10.597-48.28,20.304-73.543,28.951C2056.316,1964.586,1979.213,1980.439,1896.345,1984.253z"/>
		</g>
		<g>
			<path style="fill:#FFAD40;" d="M1224.886,1894.791"/>
		</g>
		<g>
			<path style="fill:#FFAD40;" d="M1880.63,1937.117l18.06,119.287l29.841,197.403l1.102,7.336
				c289.806-32.18,529.516-135.436,662.349-304.399c21.16-26.908,39.564-55.464,55.083-85.651
				c7.093-13.846,12.917-27.698,17.402-41.418c59.803-180.257-94.165-337.651-266.589-164.018
				c-16.446,16.571-33.675,32.852-51.653,48.75c-67.558,59.824-145.964,114.04-235.711,154.968
				C2040.822,1901.174,1964.251,1924.958,1880.63,1937.117z"/>
		</g>
		<g>
			<path style="fill:#FAA327;" d="M1880.63,1937.117l18.06,119.287l29.841,197.403l1.102,7.336
				c289.806-32.18,529.516-135.436,662.349-304.399c21.16-26.908,39.564-55.464,55.083-85.651
				c7.093-13.846,12.917-27.698,17.402-41.418c59.803-180.257-94.165-337.651-266.589-164.018
				c-16.446,16.571-33.675,32.852-51.653,48.75c-67.558,59.824-145.964,114.04-235.711,154.968
				C2040.822,1901.174,1964.251,1924.958,1880.63,1937.117z"/>
		</g>
		<g>
			<path style="fill:#EF7F25;" d="M2244.729,1793.507c-59.131,97.11-185.277,184.725-349.191,242.203l-14.921-98.594
				c83.631-12.165,160.183-35.945,229.912-67.736C2158.469,1847.509,2203.188,1821.822,2244.729,1793.507z"/>
		</g>
		<g>
			<path style="fill:#EF7F25;" d="M1928.531,2253.807l1.102,7.336c289.806-32.18,529.516-135.436,662.349-304.399
				c21.16-26.908,39.564-55.464,55.083-85.651c7.093-13.846,12.917-27.698,17.402-41.418c-1.67,2.662-55.459,88.047-164.653,155.067
				c-96.304,59.109-311.158,118.546-489.699,70.513C1955.111,2125.47,1957.39,2210.176,1928.531,2253.807z"/>
		</g>
		<g>
			<path style="fill:#F9D3B7;" d="M2535.557,1960.841c17.346,0.811,36.125-0.448,56.424-4.097
				c21.16-26.908,39.564-55.464,55.083-85.651c4.563-8.829,8.556-17.671,12.027-26.487c0.586-1.522,1.167-3.086,1.753-4.607
				c0.644-1.748,1.293-3.453,1.895-5.195c0.606-1.699,1.169-3.392,1.727-5.129
				C2662.983,1832.015,2620.791,1899.027,2535.557,1960.841z"/>
		</g>
		<g>
			<path style="fill:#FFFFFF;" d="M2591.982,1956.744c21.16-26.908,39.564-55.464,55.083-85.65
				c100.537-195.798-63.634-392.27-249.188-205.436c-16.446,16.571-33.674,32.852-51.653,48.75
				C2342.602,1800.775,2394.104,1992.248,2591.982,1956.744z"/>
		</g>
		<g style="opacity:0.2;">
			<path style="fill:#000072;" d="M2535.557,1960.841c17.346,0.811,36.125-0.448,56.424-4.097
				c21.16-26.908,39.564-55.464,55.083-85.651c4.563-8.829,8.556-17.671,12.027-26.487c0.586-1.522,1.167-3.086,1.753-4.607
				c0.644-1.748,1.293-3.453,1.895-5.195c0.606-1.699,1.169-3.392,1.727-5.129
				C2662.983,1832.015,2620.791,1899.027,2535.557,1960.841z"/>
		</g>
		<g>
			
				<ellipse transform="matrix(0.9942 -0.1072 0.1072 0.9942 -178.4333 279.3824)" style="fill:#FF8080;" cx="2509.497" cy="1799.413" rx="68.379" ry="68.379"/>
		</g>
		<g>
			
				<ellipse transform="matrix(0.1418 -0.9899 0.9899 0.1418 450.1478 3905.811)" style="fill:#FF8080;" cx="2477.701" cy="1693.288" rx="26.025" ry="26.025"/>
		</g>
		<g>
			
				<ellipse transform="matrix(0.6082 -0.7938 0.7938 0.6082 -374.0488 2764.238)" style="fill:#FF8080;" cx="2613.294" cy="1761.05" rx="26.025" ry="26.025"/>
		</g>
		<g>
			
				<ellipse transform="matrix(0.6082 -0.7938 0.7938 0.6082 -344.0518 2695.3647)" style="fill:#FF8080;" cx="2558.518" cy="1696.225" rx="32.799" ry="32.798"/>
		</g>
		<g>
			<path style="fill:#000072;" d="M1929.628,2278.409c-8.669,0-16.135-6.523-17.114-15.342c-1.052-9.468,5.769-17.993,15.234-19.043
				c347.732-38.604,597.747-173.847,703.987-380.806c52.754-102.766,25.967-198.345-26.021-236.101
				c-52.832-38.372-125.964-19.419-195.62,50.706c-153.828,154.873-331.135,247.859-526.995,276.377
				c-9.426,1.338-18.176-5.159-19.548-14.578c-1.372-9.424,5.156-18.176,14.578-19.548
				c188.303-27.417,359.05-117.097,507.498-266.553c82.688-83.254,172.539-103.557,240.354-54.307
				c63.577,46.174,97.954,159.912,36.433,279.751c-56.707,110.466-151.707,201.607-282.361,270.893
				c-124.473,66.006-275.369,109.219-448.501,128.443C1930.907,2278.37,1930.263,2278.409,1929.628,2278.409z"/>
		</g>
		<g>
			<path style="fill:#FFAD40;" d="M1315.179,2103.288c-34.753,194.569-99.002,325.46-104.742,493.065
				c-2.677,78.172,12.315,160.627,46.475,217.218l201.724,142.894c78.378,29.297,169.892,42.76,270.053,35.091
				c100.156-7.668,188.551-34.903,261.554-75.788l177.505-171.724c38.477-68.25,54.588-144.955,43.801-222.729
				c-20.724-149.413-100.078-322.778-215.595-489.159c0,0-108.204-199.54-354.499-183.79
				C1395.158,1864.116,1315.179,2103.288,1315.179,2103.288z"/>
		</g>
		<g>
			<path style="fill:#FAA327;" d="M1211.188,2647.653c3.984,61.504,19.032,121.653,45.737,165.906l201.723,142.889
				c78.375,29.332,169.89,42.769,270.052,35.097c100.162-7.672,188.541-34.885,261.532-75.789l177.52-171.713
				c38.488-68.244,54.595-144.966,43.786-222.747c-20.727-149.374-100.077-322.74-215.584-489.154
				c0,0-108.216-199.519-354.489-183.793c-246.315,15.768-326.301,254.92-326.301,254.92
				c-34.758,194.602-98.975,325.495-104.74,493.096C1209.832,2613.362,1210.086,2630.571,1211.188,2647.653z"/>
		</g>
		<g>
			<path style="fill:#EF7F25;" d="M1976.838,2003.411c-95.839,42.981-209.184,75.111-332.363,91.091
				c-115.802,15.005-226.859,13.946-325.834-0.509c17.76-44.168,105.63-231.734,322.824-245.637
				C1828.651,1836.404,1936.061,1948.816,1976.838,2003.411z"/>
		</g>
		<g>
			<path style="fill:#FF9343;" d="M1211.188,2647.653c3.984,61.504,19.032,121.653,45.737,165.906l201.723,142.889
				c78.375,29.332,169.89,42.769,270.052,35.097c100.162-7.672,188.541-34.885,261.532-75.789l177.52-171.713
				c38.488-68.244,54.595-144.966,43.786-222.747c-51.798,142.508-203.291,327.445-503.057,332.065
				c-311.719,4.832-456.261-144.585-497.25-205.665C1211.231,2647.696,1211.231,2647.653,1211.188,2647.653z"/>
		</g>
		<g>
			<path style="fill:#F9D3B7;" d="M1430.036,2808.472c66.04,47.389,162.769,76.044,300.826,65.786
				c128.604-9.58,214.778-48.407,272.129-100.459c-76.001,46.245-173.069,77.697-294.51,79.562
				C1594.246,2855.141,1502.477,2836.194,1430.036,2808.472z"/>
		</g>
		<g>
			<path style="fill:#FFFFFF;" d="M1395.158,1981.202c3.213,191.096-81.379,413.694-90.176,548.658
				c-9.413,144.397,74.473,370.516,425.887,344.378c350.837-26.095,386.008-270.263,381.497-404.896
				c-6.975-208.18-203.201-446.428-231.751-566.899c0,0-29.39,11.471-228.024,24.174S1395.158,1981.202,1395.158,1981.202z"/>
		</g>
		<g style="opacity:0.2;">
			<path style="fill:#000072;" d="M1932.839,2021.85c-85.878,33.74-183.539,59.046-288.364,72.653
				c-89.65,11.614-176.46,13.606-257.039,7.206c5.341-40.819,8.393-81.342,7.715-120.508c0,0,58.791-41.879,257.42-54.595
				c198.671-12.674,228.045-24.161,228.045-24.161C1888.247,1934.743,1907.958,1975.478,1932.839,2021.85z"/>
		</g>
		<g>
			<path style="fill:#F9D3B7;" d="M1430.036,2808.472c66.04,47.389,162.769,76.044,300.826,65.786
				c128.604-9.58,214.778-48.407,272.129-100.459c-76.001,46.245-173.069,77.697-294.51,79.562
				C1594.246,2855.141,1502.477,2836.194,1430.036,2808.472z"/>
		</g>
		<g>
			<path style="fill:#000072;" d="M2160.363,2739.88c57.047-126.417,41.873-236.038-0.264-362.84
				c-20.258-60.052-45.727-118.415-74.742-174.849c-28.867-56.758-61.771-111.524-96.403-165.254
				c-2.538-3.937-1.403-9.185,2.534-11.723c3.783-2.438,8.792-1.464,11.428,2.106c57.415,78.006,108.123,161.467,149.105,249.479
				c35.588,77.755,63.709,159.852,76.202,244.78c12.064,78.629-8.375,162.549-53.092,226.628
				C2169.254,2756.408,2156.257,2749.333,2160.363,2739.88L2160.363,2739.88z"/>
		</g>
		<g>
			<path style="fill:#512717;" d="M1455.988,2948.524c129.317,37.545,267.652,37.167,397.863,4.69
				c43.3-11.012,85.575-26.038,126.635-44.843c4.271-1.983,9.348-0.111,11.307,4.172c1.766,3.857,0.404,8.348-3.022,10.621
				c-152.346,99.098-372.939,115.407-538.718,41.243C1440.764,2960.017,1445.879,2945.665,1455.988,2948.524L1455.988,2948.524z"/>
		</g>
		<g>
			<path style="fill:#000072;" d="M1323.524,2104.778c-20.937,150.428-79.372,293.648-94.112,444.504
				c-1.428,12.97-2.349,31.35-2.94,44.536c0.232,73.256,7.655,148.002,37.697,215.372c2.039,4.313,0.121,9.503-4.251,11.43
				c-3.696,1.639-7.935,0.432-10.265-2.668c-45.905-63.556-60.157-148.466-54.9-225.36c4.452-108.045,36.89-212.048,67.069-314.887
				c17.127-58.241,32.602-116.667,45.012-175.908C1309.074,2091.51,1324.925,2093.632,1323.524,2104.778L1323.524,2104.778z"/>
		</g>
		<g>
			<path style="fill:#CCCCCC;" d="M2150.28,2359.689c0.186,17.676-13.304,32.492-30.924,33.905
				c-29.081,2.332-74.486,5.267-118.837,5.267c-44.351,0-89.756-2.935-118.837-5.267c-17.62-1.413-31.11-16.23-30.924-33.905
				l0.402-38.149c0.188-17.867,14.287-32.479,32.137-33.273c32.211-1.433,82.151-3.366,117.222-3.366
				c35.071,0,85.012,1.933,117.222,3.366c17.85,0.794,31.949,15.406,32.137,33.273L2150.28,2359.689z"/>
		</g>
		<g style="opacity:0.5;">
			<path style="fill:#FFFFFF;" d="M2150.276,2359.68c0,1.314-0.042,2.586-0.212,3.857l-0.17-18.481
				c-0.211-17.845-14.284-32.469-32.172-33.274c-32.173-1.399-82.148-3.349-117.203-3.349s-85.029,1.95-117.202,3.349
				c-17.887,0.805-31.96,15.429-32.173,33.274l-0.17,18.481c-0.17-1.271-0.211-2.543-0.211-3.857l0.381-38.149
				c0.212-17.845,14.285-32.469,32.173-33.274c32.173-1.441,82.147-3.349,117.202-3.349s85.03,1.907,117.203,3.349
				c17.887,0.805,31.96,15.429,32.172,33.274L2150.276,2359.68z"/>
		</g>
		<g>
			<path style="fill:#A3A3A3;" d="M2150.276,2359.68c0.212,17.676-13.309,32.511-30.901,33.91
				c-29.12,2.331-74.518,5.256-118.855,5.256s-89.777-2.925-118.855-5.256c-17.59-1.399-31.112-16.234-30.9-33.91l0.296-30.646
				c1.95,15.557,14.581,27.934,30.604,29.205c13.997,1.116,31.801,2.387,51.456,3.395c15.981,0.82,29.421-11.893,29.421-27.895v0
				h75.958l0,0c0,16.002,13.44,28.715,29.421,27.895c19.641-1.008,37.432-2.278,51.455-3.395
				c16.023-1.271,28.654-13.649,30.604-29.205L2150.276,2359.68z"/>
		</g>
		<g>
			<path style="fill:#000072;" d="M2000.519,2415.816c-44.526,0-89.937-2.891-120.193-5.322
				c-26.362-2.109-46.799-24.507-46.521-50.982l0.403-38.154c0.281-26.855,21.514-48.833,48.335-50.029
				c34.727-1.543,83.381-3.379,117.976-3.379s83.25,1.836,117.974,3.379c26.826,1.196,48.059,23.174,48.34,50.029l0.4,38.154
				c0.278,26.475-20.156,48.872-46.523,50.982C2090.456,2412.925,2045.043,2415.816,2000.519,2415.816z M2000.519,2301.856
				c-33.972,0-82.087,1.821-116.47,3.35c-8.84,0.396-15.84,7.646-15.935,16.513l-0.403,38.15
				c-0.09,8.735,6.641,16.128,15.325,16.826c29.641,2.378,74.08,5.215,117.483,5.215c43.401,0,87.842-2.837,117.48-5.215
				c8.687-0.698,15.417-8.091,15.327-16.831l-0.4-38.149c-0.095-8.862-7.095-16.113-15.94-16.509
				C2082.607,2303.677,2034.491,2301.856,2000.519,2301.856z"/>
		</g>
		<g>
			<path style="fill:#CCCCCC;" d="M2000.52,2341.882L2000.52,2341.882c-12.825,0-23.385-10.079-23.984-22.89l-4.907-105.041h57.782
				l-4.907,105.041C2023.905,2331.803,2013.344,2341.882,2000.52,2341.882z"/>
		</g>
		<g>
			<path style="fill:#000072;" d="M2000.519,2358.833c-21.924,0-39.897-17.153-40.92-39.052l-4.907-105.039
				c-0.217-4.629,1.472-9.146,4.67-12.495c3.198-3.354,7.632-5.249,12.266-5.249h57.783c4.634,0,9.067,1.894,12.266,5.249
				c3.198,3.35,4.888,7.866,4.671,12.495l-4.907,105.039C2040.417,2341.68,2022.443,2358.833,2000.519,2358.833z M1989.394,2230.904
				l4.077,87.295c0.176,3.774,3.272,6.729,7.048,6.729c3.777,0,6.873-2.954,7.048-6.729l4.077-87.295H1989.394z"/>
		</g>
		<g>
			<path style="fill:#512717;" d="M2000.519,2580.308c-572.966,0-896.768-48.872-899.973-49.365
				c-5.945-0.918-10.959-4.917-13.179-10.508c-2.217-5.591-1.306-11.939,2.397-16.685c6.125-7.847,150.718-192.593,209.509-225.996
				c110.029-62.471,452.908-69.692,701.245-69.692c248.318,0,591.177,7.222,701.238,69.688
				c58.799,33.408,203.391,218.154,209.517,226.001c3.704,4.746,4.614,11.094,2.397,16.685c-2.219,5.591-7.234,9.59-13.179,10.508
				C2897.287,2531.436,2573.486,2580.308,2000.519,2580.308z M1134.894,2501.402c91.172,11.67,392.988,45,865.625,45
				s774.453-33.33,865.625-45c-49.795-62.041-142.649-172.3-181.133-194.165c-114.995-65.268-543.638-65.268-684.492-65.268
				c-140.864,0-569.536,0-684.497,65.273C1277.541,2329.107,1184.687,2439.361,1134.894,2501.402z"/>
		</g>
		<g>
			<path style="fill:#512717;" d="M2000.519,2580.308c-572.966,0-896.768-48.872-899.973-49.365
				c-5.945-0.918-10.959-4.917-13.179-10.508c-2.217-5.591-1.306-11.939,2.397-16.685c6.125-7.847,150.718-192.593,209.509-225.996
				c110.029-62.471,452.908-69.692,701.245-69.692c248.318,0,591.177,7.222,701.238,69.688
				c58.799,33.408,203.391,218.154,209.517,226.001c3.704,4.746,4.614,11.094,2.397,16.685c-2.219,5.591-7.234,9.59-13.179,10.508
				C2897.287,2531.436,2573.486,2580.308,2000.519,2580.308z M1134.894,2501.402c91.172,11.67,392.988,45,865.625,45
				s774.453-33.33,865.625-45c-49.795-62.041-142.649-172.3-181.133-194.165c-114.995-65.268-543.638-65.268-684.492-65.268
				c-140.864,0-569.536,0-684.497,65.273C1277.541,2329.107,1184.687,2439.361,1134.894,2501.402z"/>
		</g>
		<g>
			<path style="fill:#FFFFFF;" d="M946.394,2456.627c-18.885,54.211,27.899,114.12,110.382,115.458
				c61.477,0.997,145.94-1.185,166.528-45.347c14.625-31.372,15.843-116.323-67.5-138.079
				C1072.77,2366.983,973.107,2379.946,946.394,2456.627z"/>
		</g>
		<g>
			<path style="fill:#000072;" d="M1073.886,2589.473c-5.811,0-11.606-0.054-17.388-0.146
				c-49.021-0.796-90.532-20.43-113.889-53.872c-17.781-25.454-22.336-56.255-12.498-84.502l0,0
				c30.503-87.559,140.635-102.304,230.049-78.979c35.676,9.317,62.09,30.303,76.384,60.698
				c17.126,36.416,13.245,78.066,2.388,101.353C1216.965,2581.143,1145.341,2589.473,1073.886,2589.473z M962.675,2462.3
				L962.675,2462.3c-6.243,17.925-3.33,36.895,8.206,53.408c16.943,24.258,48.354,38.525,86.177,39.136
				c36.399,0.591,133.113,2.158,150.62-35.391c6.526-13.999,10.115-45.625-2.339-72.104c-9.939-21.133-28.069-35.268-53.889-42.007
				C1076.886,2385.865,985.995,2395.401,962.675,2462.3z"/>
		</g>
		<g>
			<path style="fill:#FF4A4A;" d="M946.561,2599.57H829.282c-38.385,0-74.913-17.685-97.761-48.53
				c-9.285-12.534-17.557-27.943-23.015-46.718c-7.297-25.099,12.126-50.071,38.265-50.071h137.134
				c23.268,0,45.383,10.132,60.578,27.753l57.493,66.675"/>
		</g>
		<g>
			<path style="fill:#FF2727;" d="M1001.992,2548.687l-55.442,50.865H829.262c-38.36,0-74.899-17.676-97.745-48.492
				c-9.284-12.546-17.549-27.976-23.016-46.753c-7.292-25.094,12.122-50.06,38.275-50.06H883.9c23.271,0,45.397,10.13,60.572,27.764
				L1001.992,2548.687z"/>
		</g>
		<g style="opacity:0.5;">
			<path style="fill:#FFFFFF;" d="M1001.992,2548.687l-12.504,11.445l-43.447-50.356c-15.174-17.633-37.301-27.764-60.571-27.764
				H748.344c-18.185,0-33.148,12.08-38.064,27.891c-0.636-1.823-1.229-3.688-1.78-5.595c-7.292-25.094,12.122-50.06,38.275-50.06
				H883.9c23.271,0,45.397,10.13,60.572,27.764L1001.992,2548.687z"/>
		</g>
		<g>
			<path style="fill:#DB2626;" d="M1001.992,2548.687l-55.442,50.865H829.262c-38.36,0-74.899-17.676-97.745-48.492
				c-9.284-12.546-17.549-27.976-23.016-46.753c0,0,38.021,54.85,113.513,54.85c78.206,0,134.623-28.993,122.459-77.146
				L1001.992,2548.687z"/>
		</g>
		<g>
			<path style="fill:#000072;" d="M946.562,2616.524h-117.28c-44.053,0-85.691-20.708-111.384-55.391
				c-11.504-15.527-20.139-33.047-25.674-52.075c-4.922-16.934-1.628-34.79,9.038-48.999c10.862-14.468,27.449-22.764,45.508-22.764
				h137.134c28.22,0,54.981,12.256,73.418,33.633l57.495,66.68c6.113,7.095,5.322,17.803-1.77,23.916s-17.793,5.322-23.914-1.768
				l-57.493-66.679c-11.987-13.902-29.387-21.875-47.737-21.875H746.769c-7.29,0-13.992,3.359-18.389,9.214
				c-4.199,5.596-5.51,12.583-3.594,19.175c4.407,15.156,11.255,29.072,20.359,41.358c19.326,26.089,50.779,41.67,84.136,41.67
				h117.28c9.365,0,16.956,7.588,16.956,16.953C963.517,2608.936,955.927,2616.524,946.562,2616.524z"/>
		</g>
		<g>
			<path style="fill:#FF4A4A;" d="M3053.289,2599.57h117.279c38.385,0,74.913-17.685,97.761-48.53
				c9.285-12.534,17.557-27.943,23.015-46.718c7.297-25.099-12.126-50.071-38.264-50.071h-137.134
				c-23.268,0-45.383,10.132-60.578,27.753l-57.492,66.675"/>
		</g>
		<g>
			<path style="fill:#FF2727;" d="M2997.859,2548.687l55.442,50.865h117.288c38.36,0,74.899-17.676,97.745-48.492
				c9.284-12.546,17.549-27.976,23.016-46.753c7.292-25.094-12.122-50.06-38.275-50.06H3115.95
				c-23.271,0-45.397,10.13-60.572,27.764L2997.859,2548.687z"/>
		</g>
		<g style="opacity:0.5;">
			<path style="fill:#FFFFFF;" d="M2997.859,2548.687l12.504,11.445l43.448-50.356c15.174-17.633,37.302-27.764,60.571-27.764
				h137.125c18.185,0,33.147,12.08,38.064,27.891c0.636-1.823,1.229-3.688,1.78-5.595c7.292-25.094-12.122-50.06-38.275-50.06
				H3115.95c-23.271,0-45.397,10.13-60.572,27.764L2997.859,2548.687z"/>
		</g>
		<g>
			<path style="fill:#DB2626;" d="M2997.859,2548.687l55.442,50.865h117.288c38.36,0,74.899-17.676,97.745-48.492
				c9.284-12.546,17.549-27.976,23.016-46.753c0,0-38.021,54.85-113.513,54.85c-78.206,0-134.624-28.993-122.459-77.146
				L2997.859,2548.687z"/>
		</g>
		<g>
			<path style="fill:#000072;" d="M3170.568,2616.524H3053.29c-9.365,0-16.956-7.588-16.956-16.953
				c0-9.365,7.59-16.953,16.956-16.953h117.278c33.359,0,64.812-15.576,84.136-41.67c9.104-12.285,15.952-26.201,20.359-41.362
				c1.917-6.587,0.605-13.574-3.594-19.17c-4.397-5.854-11.099-9.214-18.389-9.214h-137.134c-18.35,0-35.75,7.973-47.739,21.875
				l-57.49,66.679c-6.118,7.09-16.821,7.876-23.914,1.768c-7.092-6.113-7.883-16.821-1.77-23.916l57.493-66.675
				c18.44-21.382,45.2-33.638,73.42-33.638h137.134c18.059,0,34.646,8.296,45.508,22.764c10.667,14.209,13.96,32.065,9.038,48.994
				c-5.535,19.033-14.17,36.553-25.671,52.08C3256.261,2595.816,3214.623,2616.524,3170.568,2616.524z"/>
		</g>
		<g>
			<g>
				<path style="fill:#464691;" d="M1083.791,3555.594c-71.43,6.002-143.516,5.303-214.949,0.001
					c-27.8-2.189-53.591-27.397-56.086-55.16c-4.075-62.047-4.076-122.181,0.001-184.228c2.494-27.762,28.285-52.97,56.085-55.158
					c71.433-5.303,143.519-6.002,214.949,0c27.799,2.189,53.59,27.396,56.083,55.158c4.075,62.047,4.077,122.181,0,184.228
					C1137.379,3528.197,1111.59,3553.405,1083.791,3555.594z"/>
			</g>
		</g>
		<g>
			<g>
				<path style="fill:#464691;" d="M3132.2,3555.594c-71.43,6.002-143.517,5.303-214.949,0.001
					c-27.801-2.189-53.591-27.397-56.086-55.16c-4.075-62.047-4.076-122.181,0-184.228c2.495-27.762,28.286-52.97,56.086-55.158
					c71.433-5.303,143.519-6.002,214.949,0c27.799,2.189,53.589,27.396,56.083,55.158c4.075,62.047,4.077,122.181,0,184.228
					C3185.788,3528.197,3159.998,3553.405,3132.2,3555.594z"/>
			</g>
		</g>
		<g>
			<g>
				<path style="fill:#000072;" d="M979.596,3576.768c-36.323,0-73.738-1.421-112.009-4.263
					c-36.343-2.866-68.479-34.512-71.719-70.552c-4.153-63.164-4.153-124.15-0.029-186.86c3.269-36.445,35.405-68.091,71.672-70.948
					c76.685-5.684,149.905-5.693,217.698,0.01c36.179,2.846,68.315,34.492,71.553,70.532c4.153,63.159,4.153,124.146,0.032,186.86
					c-3.269,36.436-35.386,68.071-71.633,70.942C1051.249,3575.342,1015.971,3576.768,979.596,3576.768z M979.599,3273.79
					c-35.491,0-72.068,1.392-109.502,4.17c-19.404,1.528-38.721,20.483-40.452,39.765c-3.994,60.806-3.994,120.337,0.029,181.597
					c1.702,18.877,21.021,37.837,40.5,39.37c74.763,5.557,146.182,5.552,212.195,0.005c0.029-0.005,0.061-0.005,0.09-0.01
					c19.478-1.533,38.794-20.488,40.527-39.771c3.992-60.81,3.992-120.347-0.032-181.597c-1.699-18.877-21.016-37.832-40.496-39.365
					C1049.421,3275.177,1015.053,3273.79,979.599,3273.79z"/>
			</g>
		</g>
		<g>
			<g>
				<path style="fill:#000072;" d="M3028.005,3576.768c-36.323,0-73.738-1.421-112.009-4.263
					c-36.343-2.866-68.479-34.512-71.719-70.552c-4.15-63.139-4.15-124.126-0.032-186.86c3.271-36.445,35.41-68.091,71.675-70.948
					c76.689-5.684,149.91-5.693,217.698,0.01c36.179,2.846,68.315,34.492,71.553,70.532c4.153,63.159,4.153,124.146,0.032,186.86
					c-3.269,36.436-35.386,68.071-71.633,70.942C3099.657,3575.342,3064.379,3576.768,3028.005,3576.768z M3028.007,3273.79
					c-35.488,0-72.065,1.392-109.502,4.17c-19.404,1.528-38.721,20.483-40.454,39.765c-3.989,60.83-3.989,120.361,0.032,181.597
					c1.702,18.877,21.021,37.837,40.5,39.37c74.766,5.557,146.187,5.552,212.195,0.005c0.029-0.005,0.061-0.005,0.09-0.01
					c19.478-1.533,38.794-20.488,40.527-39.771c3.992-60.81,3.992-120.347-0.032-181.597c-1.699-18.877-21.016-37.832-40.496-39.365
					C3097.831,3275.177,3063.461,3273.79,3028.007,3273.79z"/>
			</g>
		</g>
		<g>
			<path style="fill:#FF2727;" d="M3201.448,2674.027c-7.418-11.36-16.87-22.084-27.679-32.257
				c-53.578-50.442-140.261-86.725-175.401-114.744c-59.469-47.389-165.1-217.661-262.676-283.786
				c-148.485-100.628-735.173-85.666-735.173-85.666s-586.688-14.963-735.172,85.666
				c-97.577,66.125-203.249,236.396-262.676,283.786c-35.14,28.018-121.822,64.302-175.401,114.744
				c-10.809,10.173-20.261,20.897-27.679,32.257c-60.783,93.126-80.325,627.211,13.903,734.028
				c26.492,30.053,94.144,46.754,260.812,49.509c119.365,1.992,238.22-0.509,294.849-19.244
				c44.253-14.624,186.421-104.57,245.891-149.925l385.474,3.221l385.475-3.221c59.427,45.355,201.638,135.302,245.89,149.925
				c56.631,18.735,175.486,21.236,294.849,19.244c166.669-2.755,234.32-19.456,260.812-49.509
				C3281.773,3301.238,3262.232,2767.153,3201.448,2674.027z M2000.52,2563.353c-578.295,0-897.39-49.17-897.39-49.17
				s147.975-189.558,204.521-221.688c118.855-67.481,549.388-67.481,692.869-67.481c143.483,0,573.972,0,692.869,67.481
				c56.546,32.13,204.521,221.688,204.521,221.688S2578.815,2563.353,2000.52,2563.353z"/>
		</g>
		<g style="opacity:0.4;">
			<path style="fill:#FFFFFF;" d="M2431.727,2744.585c-2.385,16.906-95.46,21.773-130.24,22.804
				c-100.224,2.969-200.802,0.863-300.965,0.863c-100.155,0-200.739,2.106-300.964-0.864c-39.849-1.18-128.373-9.458-130.246-22.803
				c-2.157-15.362,83.493-44.333,122.65-53.333c101.299-23.284,206.631-31.395,308.559-31.395
				c101.956,0,207.198,8.097,308.558,31.395C2343.203,2699.095,2434.027,2728.278,2431.727,2744.585z"/>
		</g>
		<g style="opacity:0.4;">
			<path style="fill:#FFFFFF;" d="M1179.714,2598.304c0,59.353,98.642,155.897,162.947,167.849
				c41.138,7.646,9.253-121.461-2.767-151.33C1322.76,2572.25,1179.714,2560.567,1179.714,2598.304z"/>
		</g>
		<g style="opacity:0.4;">
			<path style="fill:#FFFFFF;" d="M2821.325,2598.304c0,59.353-98.642,155.897-162.947,167.849
				c-41.138,7.646-9.254-121.461,2.767-151.33C2678.279,2572.25,2821.325,2560.567,2821.325,2598.304z"/>
		</g>
		<g>
			<path style="fill:#D80000;" d="M3187.545,3408.055c-26.492,30.053-94.143,46.754-260.812,49.509
				c-119.363,1.992-238.219-0.509-294.849-19.244c-44.252-14.624-186.463-104.57-245.89-149.925l-385.475,3.221l-385.474-3.221
				c-59.47,45.355-201.639,135.302-245.891,149.925c-56.629,18.735-175.485,21.236-294.849,19.244
				c-166.668-2.755-234.319-19.456-260.812-49.509c-94.228-106.817-74.687-640.902-13.903-734.028
				c7.418-11.36,16.87-22.084,27.679-32.257c4.833,27.425,81.173,125.213,314.093,203.334
				c128.265,20.77-101.434-250.639-74.603-272.85c117.753,201.553,311.719,332.913,362.924,341.052
				c158.53,25.094,326.852,39.844,570.835,35.563c243.984,4.281,412.305-10.47,570.836-35.563
				c51.203-8.138,245.17-139.498,362.923-341.052c26.832,22.211-202.868,293.62-74.602,272.85
				c232.92-78.121,309.26-175.909,314.092-203.334c10.809,10.173,20.261,20.897,27.679,32.257
				C3262.232,2767.153,3281.773,3301.238,3187.545,3408.055z"/>
		</g>
		<g style="opacity:0.5;">
			<path style="fill:#FFFFFF;" d="M3187.545,3408.055c-3.772,4.281-8.393,8.308-14.031,12.081
				c91.134-109.742,71.721-631.069,12.081-722.414c-7.333-11.191-16.658-21.787-27.298-31.833
				c-52.901-49.763-138.439-85.581-173.112-113.218c-58.665-46.754-162.896-214.779-259.2-280.013
				c-146.534-99.314-725.466-84.563-725.466-84.563s-578.931-14.751-725.465,84.563c-96.305,65.235-200.579,233.26-259.201,280.013
				c-34.673,27.637-120.211,63.455-173.111,113.218c-10.639,10.046-19.964,20.643-27.297,31.833
				c-59.64,91.345-79.054,612.672,12.08,722.414c-5.637-3.773-10.258-7.8-14.031-12.081
				c-94.228-106.817-74.687-640.902-13.903-734.028c7.418-11.36,16.87-22.084,27.679-32.257
				c53.579-50.442,140.261-86.725,175.401-114.744c59.428-47.389,165.1-217.661,262.676-283.786
				c148.484-100.628,735.172-85.666,735.172-85.666s586.688-14.963,735.173,85.666c97.575,66.125,203.207,236.396,262.676,283.786
				c35.139,28.018,121.823,64.302,175.401,114.744c10.809,10.173,20.261,20.897,27.679,32.257
				C3262.232,2767.153,3281.773,3301.238,3187.545,3408.055z"/>
		</g>
		<g style="opacity:0.3;">
			<path style="fill:#2BD4FC;" d="M2897.923,2514.183c0,0-87.911,13.564-255.047,26.408c-55.189,4.239-119.066,8.435-191.253,12.038
				c-112.031,5.553-244.111,9.749-395.138,10.597c-18.354,0.085-37.005,0.127-55.953,0.127c-92.236,0-177.901-1.272-256.742-3.349
				c-47.898-1.271-93.253-2.882-136.023-4.705c-139.032-5.892-250.765-14.157-333.464-21.788
				c-112.54-10.3-171.162-19.329-171.162-19.329s147.976-189.558,204.521-221.688c22.041-12.504,54.808-22.72,94.482-31.028
				c97.11-20.304,235.634-29.332,359.406-33.274c50.186-1.653,97.916-2.416,139.54-2.798c39.888-0.381,74.136-0.381,99.441-0.381
				c47.263,0,125.638,0,213.762,2.416c125.891,3.433,271.747,11.784,375.089,32.13c43.956,8.647,80.24,19.413,104.019,32.935
				c12.293,6.994,28.909,21.406,47.39,39.717C2807.298,2398.083,2897.923,2514.183,2897.923,2514.183z"/>
		</g>
		<g style="opacity:0.5;">
			<path style="fill:#FFFFFF;" d="M1761.551,2228.193l-153.783,327.106c-139.032-5.892-250.765-14.157-333.464-21.788
				l127.841-272.044C1499.255,2241.164,1637.779,2232.135,1761.551,2228.193z"/>
		</g>
		<g style="opacity:0.5;">
			<path style="fill:#FFFFFF;" d="M2214.294,2227.43l-157.809,335.795c-18.354,0.085-37.005,0.127-55.953,0.127
				c-92.236,0-177.901-1.272-256.742-3.349l157.3-334.609c39.888-0.381,74.136-0.381,99.441-0.381
				C2047.795,2225.014,2126.17,2225.014,2214.294,2227.43z"/>
		</g>
		<g style="opacity:0.6;">
			<path style="fill:#FFFFFF;" d="M2740.792,2332.213l-97.916,208.378c-55.189,4.239-119.066,8.435-191.253,12.038l137.76-293.068
				c43.956,8.647,80.24,19.413,104.019,32.935C2705.695,2299.49,2722.311,2313.901,2740.792,2332.213z"/>
		</g>
		<g>
			<path style="fill:#000072;" d="M1137.377,3475.079c-19.907,0-41.006-0.19-63.354-0.562
				c-163.97-2.71-240.583-18.198-273.247-55.249c-63.779-72.305-69.722-292.237-69.316-383.438
				c0.622-139.873,17.764-315.654,53.933-371.07c32.166-49.287,97.266-86.133,149.573-115.737
				c23.894-13.525,44.531-25.205,57.136-35.254c22.859-18.228,55.415-58.823,89.883-101.797
				c53.489-66.694,114.116-142.285,173.852-182.769c150.447-101.953,714.907-89.321,744.683-88.594
				c29.788-0.723,594.236-13.364,744.685,88.594c59.709,40.464,120.305,116.025,173.77,182.69
				c34.492,43.008,67.07,83.633,89.961,101.87c12.607,10.054,33.245,21.733,57.139,35.259
				c52.307,29.604,117.407,66.45,149.575,115.737c36.167,55.415,53.311,231.196,53.933,371.07
				c0.405,91.201-5.537,311.138-69.321,383.442c-32.659,37.046-109.272,52.534-273.247,55.244
				c-155.684,2.593-251.155-3.789-300.454-20.098c-45.21-14.941-183.223-101.865-246.187-149.023l-379.712,3.174l-379.995-3.174
				c-63.032,47.178-201.077,134.116-246.191,149.023C1332.258,3468.389,1256.156,3475.079,1137.377,3475.079z M1922.465,2173.794
				c-163.425,0-536.953,8.491-647.605,83.481c-55.503,37.612-114.431,111.089-166.423,175.913
				c-37.231,46.421-69.385,86.513-95.195,107.094c-14.705,11.724-36.426,24.019-61.572,38.252
				c-49.109,27.793-110.225,62.388-137.878,104.761c-56.792,87.007-75.701,613.647,12.417,713.545
				c24.546,27.837,101.147,41.338,248.379,43.77c149.69,2.505,244.294-3.516,289.243-18.388
				c39.905-13.184,177.671-99.063,240.932-147.31c2.993-2.285,6.543-3.521,10.425-3.472l385.474,3.223l385.193-3.223
				c3.765,0.005,7.434,1.191,10.427,3.477c63.181,48.218,200.928,134.087,240.923,147.305
				c44.954,14.873,139.565,20.888,289.246,18.388c147.236-2.432,223.838-15.933,248.379-43.765
				c88.12-99.897,69.214-626.538,12.422-713.55c-27.656-42.373-88.772-76.968-137.881-104.765
				c-25.146-14.233-46.865-26.524-61.57-38.247c-25.842-20.591-58.022-60.718-95.281-107.177
				c-51.963-64.795-110.859-138.233-166.338-175.825c-142.302-96.441-719.412-82.896-725.229-82.759c-0.288,0.01-0.576,0.01-0.864,0
				C1998.796,2174.493,1969.211,2173.794,1922.465,2173.794z M2000.519,2580.308c-572.966,0-896.768-48.872-899.973-49.365
				c-5.945-0.918-10.959-4.917-13.179-10.508c-2.217-5.591-1.306-11.944,2.397-16.685c6.125-7.847,150.718-192.593,209.509-225.996
				c110.029-62.471,452.908-69.692,701.245-69.692c248.318,0,591.177,7.222,701.238,69.688
				c58.799,33.408,203.391,218.154,209.517,226.001c3.704,4.741,4.614,11.094,2.397,16.685c-2.219,5.591-7.234,9.59-13.179,10.508
				C2897.287,2531.436,2573.486,2580.308,2000.519,2580.308z M1134.894,2501.402c91.172,11.67,392.988,45,865.625,45
				s774.453-33.33,865.625-45c-49.792-62.041-142.649-172.3-181.133-194.165c-114.995-65.268-543.638-65.268-684.492-65.268
				c-140.864,0-569.536,0-684.497,65.273C1277.529,2329.112,1184.682,2439.366,1134.894,2501.402z"/>
		</g>
		<g style="opacity:0.3;">
			<path style="fill:#FFFFFF;" d="M2738.363,3069.929c-277.64,40.946-446.555,54.256-737.843,53.536
				c-291.288,0.72-460.204-12.589-737.843-53.536c-239.066-35.267-441.298-116.058-429.811-135.599
				c11.911-20.219,398.064,137.125,1167.654,137.125c769.592,0,1155.743-157.343,1167.654-137.125
				C3179.661,2953.871,2977.429,3034.662,2738.363,3069.929z"/>
		</g>
		<g>
			<path style="fill:#000072;" d="M3091.75,3339.811c-41.795,58.029-349.106,63.2-405.863,53.578
				c-56.758-9.665-264.5-157.428-264.5-157.428c-162.641,2.162-420.868,2.077-420.868,2.077s-258.226,0.085-420.868-2.077
				c0,0-207.742,147.763-264.499,157.428c-56.757,9.622-364.068,4.451-405.862-53.578c-31.918-44.338,2.162-117.753,19.287-150.985
				c17.125-33.19,60.487-101.942,109.233-109.191c42.769-6.401,181.292,35.987,402.641,68.499
				c149.374,21.957,340.119,28.4,560.068,27.849c219.95,0.551,410.695-5.892,560.069-27.849
				c221.349-32.511,359.871-74.899,402.641-68.499c48.746,7.249,92.108,76.001,109.233,109.191
				C3089.587,3222.058,3123.667,3295.473,3091.75,3339.811z"/>
		</g>
		<g>
			<path style="fill:#37377C;" d="M2765.954,3312.463c-28.536,0-47.06-0.92-57.202-1.731c-5.07-0.405-10.025-1.535-14.708-3.521
				c-24.361-10.334-73.496-39.787-126.618-74.407c1.842-0.265,3.667-0.53,5.493-0.799c108.49-15.933,198.692-34.432,264.555-47.938
				c32.218-6.607,63.305-12.982,86.006-16.772c17.476-2.918,35.148,3.803,46.181,17.667c8.907,11.192,18.755,25.866,27.462,42.739
				c0.154,0.298,0.306,0.595,0.458,0.891c15.056,29.379-3.043,65.038-35.646,70.225
				C2913.901,3306.458,2845.646,3312.463,2765.954,3312.463z M1235.087,3312.463c-79.69,0-147.946-6.005-195.983-13.647
				c-32.603-5.187-50.7-40.846-35.645-70.227c0.157-0.306,0.315-0.614,0.474-0.922c8.691-16.85,18.53-31.509,27.431-42.694
				c11.032-13.863,28.702-20.58,46.177-17.669c22.763,3.792,53.819,10.16,86.003,16.759
				c65.866,13.507,156.069,32.006,264.588,47.947c1.817,0.265,3.647,0.53,5.481,0.795c-53.128,34.626-102.272,64.08-126.63,74.412
				c-4.681,1.986-9.635,3.116-14.704,3.52C1282.162,3311.543,1263.634,3312.463,1235.087,3312.463z"/>
		</g>
		<g>
			<path style="fill:#000072;" d="M2765.771,3414.21c-37.229,0-67.4-1.504-82.717-4.102
				c-55.918-9.521-230.957-131.67-266.965-157.119c-161.194,2.06-413.005,1.992-415.574,2.002
				c-2.559-0.02-254.37,0.059-415.562-2.002c-36.008,25.449-211.047,147.597-266.953,157.114
				c-31.235,5.298-124.185,6.064-212.781-1.235c-117.864-9.712-188.411-29.61-209.685-59.151
				c-26.663-37.031-20.615-93.779,17.971-168.662c13.125-25.435,60.686-109.097,121.809-118.194
				c25.229-3.76,71.687,5.757,148.674,21.548c68.281,13.999,153.257,31.43,258.926,46.948
				c132.664,19.502,309.788,28.271,557.563,27.671c247.791,0.63,424.988-8.174,557.646-27.671
				c105.671-15.522,190.647-32.949,258.928-46.948c76.985-15.791,123.442-25.303,148.687-21.543
				c61.118,9.092,108.672,92.759,121.792,118.184c38.589,74.888,44.636,131.636,17.979,168.667c0,0,0,0-0.002,0
				c-21.274,29.541-91.821,49.439-209.685,59.151C2850.69,3412.583,2804.426,3414.21,2765.771,3414.21z M2421.388,3219.01
				c3.521,0,6.956,1.094,9.827,3.135c82.244,58.496,218.691,147.92,257.52,154.531c24.695,4.185,111.672,6.025,204.302-1.606
				c119.463-9.839,173.87-29.78,184.954-45.166l0,0c12.788-17.763,19.595-55.313-20.598-133.311
				c-22.122-42.871-60.71-94.839-96.658-100.186c-19.297-2.91-68.616,7.222-136.87,21.221
				c-65.073,13.345-154.192,31.621-260.811,47.285c-134.36,19.741-313.218,28.765-562.576,28.023
				c-249.407,0.762-428.13-8.277-562.493-28.023c-106.614-15.664-195.735-33.94-260.808-47.285
				c-68.257-13.999-117.578-24.102-136.858-21.225c-35.957,5.351-74.548,57.319-96.677,100.195
				c-40.188,77.993-33.379,115.542-20.591,133.305c11.079,15.381,65.483,35.327,184.951,45.166
				c92.639,7.637,179.614,5.796,204.316,1.602c38.813-6.606,175.264-96.03,257.507-154.526c2.932-2.085,6.467-3.218,10.051-3.135
				c160.662,2.129,418.059,2.065,420.637,2.075c2.59,0.005,259.985,0.053,420.649-2.075
				C2421.24,3219.01,2421.313,3219.01,2421.388,3219.01z M3091.75,3339.81h0.051H3091.75z"/>
		</g>
		<g>
			<path style="fill:#000072;" d="M1061.293,2546.479c73.671,118.726,224.809,288.113,350.106,349.485
				c20.114,9.948,6.39,39.854-14.417,30.701c-77.874-41.395-139.417-102.841-198.03-166.541
				c-56.888-64.003-110.132-130.572-152.509-205.459C1041.302,2544.98,1055.633,2536.693,1061.293,2546.479L1061.293,2546.479z"/>
		</g>
		<g>
			<path style="fill:#D80000;" d="M1450.082,2869.685c0,0-8.491-62.253,13.921-131.179c28.377-87.274,67.463-130.108,67.463-130.108
				s-97.413,32.171-115.652,143.494C1404.674,2819.89,1450.082,2869.685,1450.082,2869.685z"/>
		</g>
		<g>
			<path style="fill:#D80000;" d="M2550.958,2869.685c0,0,8.491-62.253-13.921-131.179
				c-28.377-87.274-67.463-130.108-67.463-130.108s97.413,32.171,115.652,143.494
				C2596.365,2819.89,2550.958,2869.685,2550.958,2869.685z"/>
		</g>
		<g>
			<path style="fill:#000072;" d="M1443.782,2870.544c-10.094-47.421-5.213-97.458,10.601-143.008
				c16.01-45.166,37.954-89.256,72.386-123.424c5.703-5.229,14.099,2.368,9.394,8.572c-36.072,57.065-62.643,121.646-73.956,188.416
				c-3.382,22.348-5.503,45.451-5.83,68.059C1456.275,2876.518,1445.492,2877.778,1443.782,2870.544L1443.782,2870.544z"/>
		</g>
		<g>
			<path style="fill:#000072;" d="M2954.596,2554.665c-20.918,37.878-45.431,72.726-71.019,106.854
				c-51.776,68.065-108.339,132.308-172.457,189.327c-32.373,28.357-66.967,54.893-106.544,75.56
				c-8.302,4.336-18.547,1.12-22.883-7.183c-4.5-8.557-0.839-19.238,7.947-23.26c36.157-17.336,70.208-41.417,102.274-67.734
				c64.22-53.363,122.156-114.919,174.959-179.753c26.271-32.668,51.668-66.447,72.876-101.997
				C2945.208,2536.968,2959.813,2544.575,2954.596,2554.665L2954.596,2554.665z"/>
		</g>
		<g>
			<path style="fill:#000072;" d="M2544.658,2868.825c-0.665-90.758-31.479-179.954-79.781-256.142
				c-4.678-6.125,3.682-13.875,9.393-8.571c34.43,34.163,56.378,78.262,72.385,123.423c15.815,45.554,20.696,95.582,10.602,143.008
				C2555.429,2877.906,2544.435,2876.455,2544.658,2868.825L2544.658,2868.825z"/>
		</g>
		<g>
			<path style="fill:#AFAFAF;" d="M953.56,2766.153c0,0,3.932,89.075,24.814,123.878c20.881,34.803,175.619,77.636,215.776,75.495
				c40.157-2.142,95.476-73.539,95.476-73.539s-61.039-13.771-152.146-46.093S953.56,2766.153,953.56,2766.153z"/>
		</g>
		<g>
			<path style="fill:#DBDBDB;" d="M1191.043,2940.171c-43.091-0.004-176.253-41.539-190.906-63.296
				c-7.96-13.271-13.689-41.225-17.212-68.127c35.976,16.963,90.989,41.58,146.051,61.11c47.525,16.864,86.82,28.715,113.975,36.295
				c-18.938,18.644-38.849,33.372-50.157,33.976c-0.547,0.029-1.126,0.042-1.743,0.042
				C1191.048,2940.171,1191.048,2940.171,1191.043,2940.171z"/>
		</g>
		<g>
			
				<ellipse transform="matrix(0.2298 -0.9732 0.9732 0.2298 -1980.5328 3240.3501)" style="fill:#DBDBDB;" cx="1056.913" cy="2871.431" rx="57.86" ry="57.86"/>
		</g>
		<g>
			
				<ellipse transform="matrix(0.2298 -0.9732 0.9732 0.2298 -1980.5328 3240.3499)" style="fill:#FFFFFF;" cx="1056.913" cy="2871.431" rx="43.986" ry="43.986"/>
		</g>
		<g>
			
				<ellipse transform="matrix(0.2298 -0.9732 0.9732 0.2298 -1980.533 3240.3494)" style="fill:#919191;" cx="1056.913" cy="2871.431" rx="27.427" ry="27.427"/>
		</g>
		<g style="opacity:0.5;">
			<path style="fill:#FFFFFF;" d="M1058.91,2861.659c0,3.302-2.677,5.979-5.979,5.979s-5.979-2.677-5.979-5.979
				s2.677-5.979,5.979-5.979S1058.91,2858.357,1058.91,2861.659z"/>
		</g>
		<g>
			<path style="fill:#666666;" d="M1074.884,2870.985c0,9.908-8.049,17.956-17.956,17.956c-9.936,0-17.956-8.048-17.956-17.956
				c0-1.776,0.249-3.497,0.749-5.107c2.22,7.41,9.075,12.822,17.207,12.822c8.132,0,14.987-5.412,17.207-12.822
				C1074.634,2867.488,1074.884,2869.208,1074.884,2870.985z"/>
		</g>
		<g>
			<path style="fill:#000072;" d="M1056.913,2905.215c-18.628,0-33.784-15.156-33.784-33.784c0-18.628,15.156-33.784,33.784-33.784
				c18.628,0,33.784,15.156,33.784,33.784C1090.698,2890.059,1075.541,2905.215,1056.913,2905.215z M1056.913,2850.362
				c-11.616,0-21.069,9.453-21.069,21.07c0,11.616,9.453,21.069,21.069,21.069c11.616,0,21.069-9.453,21.069-21.069
				C1077.983,2859.815,1068.53,2850.362,1056.913,2850.362z"/>
		</g>
		<g>
			<path style="fill:#000072;" d="M1056.913,2937.769c-36.577,0-66.336-29.761-66.336-66.338c0-36.577,29.758-66.338,66.336-66.338
				c36.577,0,66.335,29.76,66.335,66.338C1123.249,2908.008,1093.49,2937.769,1056.913,2937.769z M1056.913,2822.046
				c-27.229,0-49.382,22.153-49.382,49.385c0,27.231,22.153,49.385,49.382,49.385s49.382-22.153,49.382-49.385
				C1106.296,2844.2,1084.142,2822.046,1056.913,2822.046z"/>
		</g>
		<g>
			
				<ellipse transform="matrix(0.9239 -0.3827 0.3827 0.9239 -1025.4513 667.075)" style="fill:#DBDBDB;" cx="1164.081" cy="2911.185" rx="32.748" ry="32.748"/>
		</g>
		<g>
			<circle style="fill:#FFFFFF;" cx="1164.081" cy="2911.185" r="23.152"/>
		</g>
		<g>
			<path style="fill:#000072;" d="M1164.081,2950.289c-21.563,0-39.104-17.539-39.104-39.102s17.542-39.106,39.104-39.106
				s39.104,17.544,39.104,39.106S1185.644,2950.289,1164.081,2950.289z M1164.081,2884.795c-14.551,0-26.389,11.841-26.389,26.392
				s11.838,26.387,26.389,26.387c14.551,0,26.389-11.836,26.389-26.387S1178.632,2884.795,1164.081,2884.795z"/>
		</g>
		<g>
			<path style="fill:#000072;" d="M962.029,2765.779c6.93,37.522,11.983,80.995,29.183,114.071c0.913,1.767,1.249,2.201,2.405,3.453
				c9.88,9.387,22.94,15.159,35.864,21.158c35.397,15.157,73.782,26.412,111.493,34.925c17.225,3.483,36.375,8.295,53.491,7.356
				c13.867-1.837,30.164-14.48,41.91-24.363c14.251-12.273,28.018-26.85,40.216-41.212c6.068-7.129,16.766-7.99,23.896-1.922
				c6.864,5.842,7.886,16.016,2.54,23.125c-19.953,25.748-41.447,49.192-69.003,67.366c0,0-7.531,4.478-7.531,4.478l-8.323,3.968
				c-27.128,12.049-57.983,2.627-85.369-2.682c-40.601-9.688-79.653-21.944-117.715-39.67
				c-14.941-7.199-30.088-15.238-42.682-27.435c-3.391-3.593-7.474-8.541-9.402-13.03c-10.756-22.154-13.854-45.392-16.332-67.134
				c-1.954-20.666-2.627-41.021-1.582-61.705c0.237-4.697,4.237-8.311,8.933-8.074
				C958.174,2758.66,961.482,2761.818,962.029,2765.779L962.029,2765.779z"/>
		</g>
		<g>
			<circle style="fill:#919191;" cx="1164.081" cy="2911.185" r="15.523"/>
		</g>
		<g>
			<path style="fill:#000072;" d="M1164.081,2930.948c-10.896,0-19.761-8.862-19.761-19.761c0-10.898,8.865-19.766,19.761-19.766
				s19.761,8.867,19.761,19.766C1183.842,2922.086,1174.977,2930.948,1164.081,2930.948z M1164.081,2899.898
				c-6.221,0-11.284,5.063-11.284,11.289c0,6.221,5.063,11.284,11.284,11.284s11.284-5.063,11.284-11.284
				C1175.365,2904.961,1170.302,2899.898,1164.081,2899.898z"/>
		</g>
		<g>
			<path style="fill:#666666;" d="M1173.26,2910.31c0,5.064-4.114,9.178-9.179,9.178c-5.079,0-9.179-4.114-9.179-9.178
				c0-0.908,0.128-1.788,0.383-2.61c1.135,3.788,4.639,6.554,8.796,6.554c4.157,0,7.661-2.766,8.796-6.554
				C1173.132,2908.522,1173.26,2909.402,1173.26,2910.31z"/>
		</g>
		<g style="opacity:0.5;">
			<circle style="fill:#FFFFFF;" cx="1162.443" cy="2906.11" r="3.382"/>
		</g>
		<g>
			<path style="fill:#AFAFAF;" d="M3047.262,2766.153c0,0-3.932,89.075-24.814,123.878
				c-20.882,34.803-175.619,77.636-215.776,75.495s-95.476-73.539-95.476-73.539s61.039-13.771,152.146-46.093
				S3047.262,2766.153,3047.262,2766.153z"/>
		</g>
		<g>
			<path style="fill:#DBDBDB;" d="M2809.778,2940.171c43.091-0.004,176.253-41.539,190.906-63.296
				c7.96-13.271,13.689-41.225,17.212-68.127c-35.976,16.963-90.989,41.58-146.052,61.11
				c-47.525,16.864-86.82,28.715-113.975,36.295c18.938,18.644,38.849,33.372,50.157,33.976c0.546,0.029,1.126,0.042,1.743,0.042
				C2809.774,2940.171,2809.774,2940.171,2809.778,2940.171z"/>
		</g>
		<g>
			
				<ellipse transform="matrix(0.3827 -0.9239 0.9239 0.3827 -835.5328 4492.3979)" style="fill:#DBDBDB;" cx="2943.908" cy="2871.431" rx="57.86" ry="57.86"/>
		</g>
		<g>
			
				<ellipse transform="matrix(0.7071 -0.7071 0.7071 0.7071 -1168.1572 2922.6799)" style="fill:#FFFFFF;" cx="2943.908" cy="2871.431" rx="43.986" ry="43.986"/>
		</g>
		<g>
			
				<ellipse transform="matrix(0.3827 -0.9239 0.9239 0.3827 -835.533 4492.3975)" style="fill:#919191;" cx="2943.908" cy="2871.431" rx="27.427" ry="27.427"/>
		</g>
		<g style="opacity:0.5;">
			<path style="fill:#FFFFFF;" d="M2941.911,2861.659c0,3.302,2.677,5.979,5.979,5.979s5.979-2.677,5.979-5.979
				s-2.677-5.979-5.979-5.979S2941.911,2858.357,2941.911,2861.659z"/>
		</g>
		<g>
			<path style="fill:#666666;" d="M2925.938,2870.985c0,9.908,8.049,17.956,17.956,17.956c9.936,0,17.957-8.048,17.957-17.956
				c0-1.776-0.249-3.497-0.75-5.107c-2.22,7.41-9.075,12.822-17.207,12.822c-8.131,0-14.987-5.412-17.207-12.822
				C2926.188,2867.488,2925.938,2869.208,2925.938,2870.985z"/>
		</g>
		<g>
			<path style="fill:#000072;" d="M2943.908,2905.215c-18.628,0-33.784-15.156-33.784-33.784c0-18.628,15.156-33.784,33.784-33.784
				s33.784,15.156,33.784,33.784C2977.692,2890.059,2962.536,2905.215,2943.908,2905.215z M2943.908,2850.362
				c-11.616,0-21.069,9.453-21.069,21.07c0,11.616,9.453,21.069,21.069,21.069s21.069-9.453,21.069-21.069
				C2964.977,2859.815,2955.524,2850.362,2943.908,2850.362z"/>
		</g>
		<g>
			<path style="fill:#000072;" d="M2943.908,2937.769c-36.577,0-66.335-29.761-66.335-66.338c0-36.577,29.758-66.338,66.335-66.338
				s66.335,29.76,66.335,66.338C3010.243,2908.008,2980.485,2937.769,2943.908,2937.769z M2943.908,2822.046
				c-27.229,0-49.382,22.153-49.382,49.385c0,27.231,22.153,49.385,49.382,49.385s49.382-22.153,49.382-49.385
				C2993.29,2844.2,2971.137,2822.046,2943.908,2822.046z"/>
		</g>
		<g>
			
				<ellipse transform="matrix(0.9732 -0.2298 0.2298 0.9732 -592.9669 729.6254)" style="fill:#DBDBDB;" cx="2836.74" cy="2911.185" rx="32.748" ry="32.748"/>
		</g>
		<g>
			<circle style="fill:#FFFFFF;" cx="2836.74" cy="2911.185" r="23.152"/>
		</g>
		<g>
			<path style="fill:#000072;" d="M2836.74,2950.289c-21.563,0-39.104-17.539-39.104-39.102s17.542-39.106,39.104-39.106
				s39.104,17.544,39.104,39.106S2858.302,2950.289,2836.74,2950.289z M2836.74,2884.795c-14.551,0-26.389,11.841-26.389,26.392
				s11.838,26.387,26.389,26.387s26.389-11.836,26.389-26.387S2851.291,2884.795,2836.74,2884.795z"/>
		</g>
		<g>
			<circle style="fill:#919191;" cx="2836.74" cy="2911.185" r="15.523"/>
		</g>
		<g>
			<path style="fill:#000072;" d="M2836.74,2930.948c-10.896,0-19.761-8.862-19.761-19.761c0-10.898,8.865-19.766,19.761-19.766
				s19.761,8.867,19.761,19.766C2856.501,2922.086,2847.636,2930.948,2836.74,2930.948z M2836.74,2899.898
				c-6.221,0-11.284,5.063-11.284,11.289c0,6.221,5.063,11.284,11.284,11.284s11.284-5.063,11.284-11.284
				C2848.024,2904.961,2842.961,2899.898,2836.74,2899.898z"/>
		</g>
		<g>
			<path style="fill:#666666;" d="M2827.561,2910.31c0,5.064,4.114,9.178,9.179,9.178c5.079,0,9.179-4.114,9.179-9.178
				c0-0.908-0.127-1.788-0.383-2.61c-1.135,3.788-4.639,6.554-8.796,6.554c-4.156,0-7.661-2.766-8.796-6.554
				C2827.689,2908.522,2827.561,2909.402,2827.561,2910.31z"/>
		</g>
		<g style="opacity:0.5;">
			<circle style="fill:#FFFFFF;" cx="2838.378" cy="2906.11" r="3.382"/>
		</g>
		<g>
			<path style="fill:#000072;" d="M3055.731,2766.527c2.127,31.173,0.643,62.202-5.392,92.996
				c-2.802,13.245-6.923,27.982-14.418,40.547c-11.938,17.491-32.265,27.163-50.031,36.102
				c-19.153,9.065-38.547,16.337-58.18,22.788c-29.64,9.639-59.573,17.719-90.508,22.722c-17.207,3.07-38.061,4.434-54.583-3.428
				c0,0.001-8.329-3.97-8.329-3.97l-7.535-4.48c-27.493-18.296-49.035-41.635-68.963-67.431c-5.643-7.47-4.162-18.101,3.307-23.744
				c7.367-5.586,17.823-4.159,23.499,2.975c17.99,20.838,38.348,42.359,61.644,56.854c12.446,7.476,18.577,9.428,31.47,8.027
				c14.028-1.355,28.1-4.125,42.103-7.237c37.667-8.635,76.005-19.942,111.368-35.125c12.893-5.92,25.833-11.788,35.541-21.228
				c1.219-1.246,1.379-1.595,2.342-3.341c17.259-34.725,21.671-75.748,29.727-113.773
				C3040.378,2755.998,3055.015,2756.581,3055.731,2766.527L3055.731,2766.527z"/>
		</g>
		<g>
			<path style="fill:#000072;" d="M3078.73,2759.296c-119.063,73.291-250.688,124.301-387.114,154.878
				c-137.395,24.858-275.226,34.913-414.077,44.365c-276.615,18.857-554.684,6.988-829.998-24.221
				c-91.857-9.385-185.459-26.823-272.867-58.05c-87.893-30.404-172.927-68.499-252.365-116.97
				c-3.977-2.482-5.189-7.717-2.707-11.693c2.332-3.743,7.108-5.027,10.963-3.117c41.255,19.194,83.489,37.255,125.898,54.023
				c84.464,33.268,171.291,62.873,259.935,81.615c88.985,16.228,181.52,23.757,272.059,31.622
				c319.921,27.9,641.9,21.632,961.023-12.987c183.122-13.985,354.686-79.764,520.993-154.274c4.268-2.053,9.478-0.176,11.414,4.17
				C3083.643,2752.547,3082.223,2757.062,3078.73,2759.296L3078.73,2759.296z"/>
		</g>
		<g>
			<g>
				<g>
					<path style="fill:#FAA327;" d="M1432.889,788.884l293.411,74.529l397.091,100.819c64.65-116.799,68.991-435.463-23.592-534.5
						c-27.955-29.877-64.716-39.731-111.343-17.99C1871.106,466.485,1705.578,698.201,1432.889,788.884z"/>
				</g>
				<g style="opacity:0.5;">
					<path style="fill:#FFFFFF;" d="M1432.889,788.884l52.707,13.404c247.526-99.243,401.796-309.691,512.89-361.502
						c46.627-21.741,83.388-11.887,111.343,17.99c14.588,15.615,26.783,36.745,36.751,61.637
						c-11.316-37.642-26.774-69.271-46.782-90.681c-27.955-29.877-64.716-39.731-111.343-17.99
						C1871.106,466.485,1705.578,698.201,1432.889,788.884z"/>
				</g>
				<g>
					<path style="fill:#EF7F25;" d="M1726.3,863.414l397.091,100.819c64.65-116.799,68.991-435.463-23.592-534.5
						c-17.728-3.915-38.344,0.477-60.234,22.223C1983.546,507.546,1868.589,779.292,1726.3,863.414z"/>
				</g>
				<g>
					<path style="fill:#000072;" d="M2123.388,981.492c-2.825,0-5.688-0.696-8.335-2.161c-8.33-4.609-11.348-15.102-6.736-23.435
						c29.746-53.757,47.407-157.815,44.99-265.098c-2.578-114.492-27.273-207.651-66.055-249.202
						c-24.907-26.682-54.836-31.331-91.492-14.228c-40.383,18.843-89.189,61.921-145.701,111.802
						c-104.604,92.332-234.788,207.239-411.731,266.094c-9.045,3.003-18.794-1.882-21.804-10.92
						c-3.005-9.036,1.885-18.796,10.92-21.804c170.276-56.636,297.537-168.965,399.793-259.221
						c58.516-51.65,109.05-96.255,153.943-117.2c50.496-23.565,95.889-15.969,131.282,21.948
						c45.061,48.279,72.515,147.402,75.322,271.956c2.583,114.683-16.306,222.957-49.297,282.573
						C2135.344,978.282,2129.457,981.492,2123.388,981.492z"/>
				</g>
				<g>
					<path style="fill:#FFF3E9;" d="M2101.368,909.341l0.002,0.045c-3.238,8.664-6.786,16.394-10.655,22.966L1788.43,715.237
						c141.347-127.038,231.253-242.85,265.053-233.065c5.299,1.532,11.26,6.961,17.471,16.123
						c16.657,24.503,34.957,75.776,45.946,150.143C2130.115,737.91,2124.258,847.642,2101.368,909.341z"/>
				</g>
				<g>
					<path style="fill:#F9D3B7;" d="M2101.368,909.341l0.002,0.045c-3.238,8.664-6.786,16.394-10.655,22.966L1788.43,715.237
						c141.347-127.038,231.253-242.85,265.053-233.065c5.299,1.532,11.26,6.961,17.471,16.123
						c-10.981,6.921-25.129,22.052-43.086,51.466c-56.524,92.64-45.474,180.041-4.903,257.336
						C2034.704,829.464,2070.361,873.137,2101.368,909.341z"/>
				</g>
				<g>
					<path style="fill:#000072;" d="M2090.698,949.607c-3.579,0-7.104-1.116-10.059-3.24l-302.246-217.117
						c-4.241-3.047-6.873-7.849-7.158-13.062c-0.286-5.212,1.807-10.273,5.688-13.765c51.667-46.455,95.54-90.513,134.248-129.382
						c77.202-77.527,115.964-116.453,147.117-107.419c37.805,10.93,64.382,103.945,75.652,180.276
						c14.341,97.127,7.644,234.109-28.389,295.222c-2.461,4.172-6.563,7.117-11.301,8.115
						C2093.073,949.485,2091.882,949.607,2090.698,949.607z M1815.822,713.68l268.254,192.698
						c22.051-55.959,29.29-163.74,15.747-255.439c-15.19-102.881-42.222-146.773-51.067-152.087
						c-15.586,0.549-67.388,52.573-113.149,98.525C1902.304,630.821,1861.684,671.609,1815.822,713.68z"/>
				</g>
				<g>
					<path style="fill:#000072;" d="M1922.326,828.651c-3.513,0-7.036-1.072-10.056-3.24l-133.899-96.169
						c-4.241-3.047-6.875-7.852-7.158-13.064c-0.286-5.215,1.809-10.278,5.696-13.767c39.487-35.469,74.91-70.166,101.357-96.431
						c1.768-1.755,3.892-3.106,6.228-3.96c29.89-10.933,53.22-9.871,69.329,3.149c13.789,11.167,17.205,23.945,17.644,32.698
						c0.606,12.048-3.921,23.303-9.785,32.744c14.414,3.198,28.701,9.585,37.708,21.819c6.772,9.202,13.061,25.337,4.563,49.949
						c-0.005,0.01-0.007,0.02-0.012,0.029c-9.116,26.24-63.845,76.187-70.054,81.794
						C1930.622,827.151,1926.481,828.651,1922.326,828.651z M1815.81,713.672l105.151,75.522
						c29.409-27.81,47.935-51.038,50.4-58.091c2.896-8.394,2.981-14.526,0.254-18.232c-5.249-7.129-22.114-11.321-42.988-10.676
						c-1.165,0.029-1.909,0.017-2.168,0.007c-6.839-0.313-12.9-4.668-15.359-11.057c-4.119-10.691,3.303-18.049,6.475-21.191
						c16.514-16.37,19.693-25.544,19.451-30.359c-0.059-1.14-0.191-3.809-4.893-7.617c-5.366-4.338-17.048-3.87-32.336,1.221
						C1877.045,655.76,1848.115,684.056,1815.81,713.672z M1987.653,736.749h0.049H1987.653z"/>
				</g>
			</g>
			<g>
				<g>
					<path style="fill:#FAA327;" d="M1515.151,776.29l-257.674,158.898l-348.74,215.003
						c-96.633-92.107-196.112-394.876-137.4-517.077c17.736-36.872,49.865-57.273,100.861-50.478
						C1000.55,599.763,1227.821,771.344,1515.151,776.29z"/>
				</g>
				<g style="opacity:0.5;">
					<path style="fill:#FFFFFF;" d="M1515.151,776.29l-46.283,28.559c-265.88-20.642-476.045-175.297-597.552-191.498
						c-50.995-6.795-83.125,13.606-100.861,50.478c-9.248,19.265-14.563,43.075-16.627,69.809
						c-0.464-39.303,4.823-74.109,17.509-100.524c17.736-36.872,49.865-57.273,100.861-50.478
						C1000.55,599.763,1227.821,771.344,1515.151,776.29z"/>
				</g>
				<g>
					<path style="fill:#EF7F25;" d="M1257.476,935.189l-348.74,215.003c-96.633-92.107-196.112-394.876-137.4-517.077
						c15.745-9.039,36.73-11.016,64.123,3.185C905.545,672.583,1096.537,897.49,1257.476,935.189z"/>
				</g>
				<g>
					<path style="fill:#000072;" d="M908.727,1167.452c-4.275,0-8.557-1.582-11.894-4.763
						c-49.314-47.017-99.731-144.68-131.577-254.88c-34.587-119.688-38.047-222.485-9.495-282.036
						c22.429-46.77,63.503-67.583,118.704-60.22c49.104,6.555,110.671,33.997,181.958,65.774
						c124.575,55.532,279.614,124.641,459.033,127.742c9.521,0.164,17.107,8.015,16.941,17.537
						c-0.161,9.419-7.849,16.946-17.234,16.946c-0.1,0-0.2-0.002-0.303-0.005c-186.445-3.22-345.044-73.916-472.478-130.723
						c-68.848-30.688-128.308-57.192-172.48-63.091c-40.085-5.352-67.266,8.044-83.044,40.952
						c-24.575,51.25-20.266,147.529,11.526,257.549c29.792,103.093,77.776,197.1,122.244,239.495
						c6.892,6.572,7.153,17.485,0.583,24.378C917.822,1165.66,913.278,1167.449,908.727,1167.452z"/>
				</g>
				<g>
					<path style="fill:#FFF3E9;" d="M913.328,1091.225l0.012,0.044c5.682,7.299,11.38,13.613,17.038,18.726l223.484-297.607
						c-172.88-78.931-293.317-162.541-322.641-143.092c-4.597,3.047-8.661,10.011-11.847,20.611
						c-8.563,28.364-10.686,82.764,1.078,157.012C834.61,936.247,873.028,1039.201,913.328,1091.225z"/>
				</g>
				<g>
					<path style="fill:#F9D3B7;" d="M913.328,1091.225l0.012,0.044c5.682,7.299,11.38,13.613,17.038,18.726l223.484-297.607
						c-172.88-78.931-293.317-162.541-322.641-143.092c-4.597,3.047-8.661,10.011-11.847,20.611
						c12.549,3.319,30.576,13.524,56.51,36.218c81.652,71.486,97.255,158.19,81.668,244.082
						C953.042,995.062,932.083,1047.403,913.328,1091.225z"/>
				</g>
				<g>
					<path style="fill:#000072;" d="M930.397,1127.244c-4.248,0-8.369-1.572-11.553-4.443
						c-52.668-47.532-100.039-176.238-115.41-273.206c-12.083-76.208-14.553-172.915,18.25-194.656
						c27.048-17.925,75.657,7.612,172.517,58.489c48.564,25.508,103.608,54.421,166.809,83.291c4.749,2.17,8.257,6.372,9.543,11.433
						c1.289,5.059,0.215,10.43-2.92,14.604l-223.447,297.598c-2.908,3.872-7.312,6.343-12.131,6.809
						C931.501,1127.217,930.947,1127.244,930.397,1127.244z M840.585,683.834c-6.472,6.728-19.534,56.665-3.093,160.361
						c14.514,91.553,53.667,192.232,91.448,239.031l198.318-264.131c-56.345-26.421-107.31-53.191-149.092-75.137
						C920.588,713.714,855.409,679.464,840.585,683.834z"/>
				</g>
				<g>
					<path style="fill:#000072;" d="M1054.86,961.456c-2.424,0-4.875-0.51-7.192-1.577c-7.605-3.494-74.773-34.783-91.316-57.09
						c-0.007-0.007-0.012-0.015-0.02-0.024c-15.474-20.94-14.302-38.215-10.591-49.023c4.936-14.385,16.689-24.763,29.441-32.114
						c-8.418-7.251-16.096-16.633-19.123-28.306c-2.2-8.484-2.764-21.697,7.043-36.462c11.489-17.261,33.433-25.252,65.22-23.762
						c2.485,0.117,4.917,0.769,7.126,1.914c33.086,17.143,77.256,39.648,125.571,61.692c4.751,2.166,8.262,6.37,9.551,11.431
						c1.289,5.061,0.215,10.435-2.922,14.609l-98.994,131.824C1065.312,959.017,1060.151,961.456,1054.86,961.456z M984.062,882.264
						c4.475,5.999,29.097,22.612,65.466,40.344l77.742-103.52c-39.702-18.604-75.767-36.943-104.219-51.663
						c-16.128-0.283-27.395,2.766-31.233,8.528c-3.335,5.022-2.664,7.607-2.378,8.713c1.208,4.666,6.987,12.468,27.639,23.147
						c3.967,2.051,13.252,6.851,12.522,18.284c-0.435,6.829-4.912,12.8-11.343,15.146c-0.237,0.085-0.945,0.325-2.08,0.642
						c-20.1,5.632-34.946,14.68-37.82,23.052C976.865,869.29,978.784,875.12,984.062,882.264z"/>
				</g>
			</g>
			<g>
				<path style="fill:#FAA327;" d="M2356.207,1618.827c-128.618,301.687-585.002,379.764-693.48,396.372
					c-108.477,16.607-567.316,78.647-780.302-170.742c-87.999-103.065-82.518-199.787-63.531-261.008
					c10.891-35.179,26.215-58.68,30.862-64.954c2.322-144.157-65.263-783.063,601.418-885.129
					c666.682-102.066,793.339,527.795,838.685,664.655c6.312,4.596,27.964,22.437,48.881,52.746
					C2375.173,1403.503,2409.34,1494.155,2356.207,1618.827z"/>
			</g>
			<g style="opacity:0.5;">
				<path style="fill:#FFFFFF;" d="M2188.44,1016.883c-114.511-203.871-325.644-405.123-731.088-343.051
					c-405.801,62.126-546.94,317.766-595.052,546.716c35.551-235.052,161.006-521.664,588.859-587.167
					C1878.611,567.939,2084.082,803.387,2188.44,1016.883z"/>
			</g>
			<g>
				<path style="fill:#FFFFFF;" d="M2356.278,1618.816c-128.618,301.687-585.002,379.764-693.48,396.372
					c-108.477,16.607-567.316,78.647-780.302-170.742c-87.999-103.065-82.518-199.787-63.531-261.008
					c48.628-83.221,143.489-170.01,317.286-120.613c58.872,16.747,92.472,53.96,193.065,27.844
					c37.974-9.871,104.544-90.551,236.232-110.711c131.688-20.161,219.348,36.906,258.534,34.965
					c103.799-5.177,124.727-50.737,175.892-84.331c151.058-99.131,267.539-44.698,338.838,20.163
					C2375.244,1403.492,2409.411,1494.145,2356.278,1618.816z"/>
			</g>
			<g style="opacity:0.2;">
				<path style="fill:#000072;" d="M2356.281,1618.828c-128.619,301.687-585.002,379.764-693.48,396.372
					c-108.478,16.607-567.316,78.647-780.303-170.742c-55.396-64.925-73.747-127.314-75-179.874
					c10.53,36.915,30.693,76.594,65.411,117.238c212.986,249.389,671.825,187.349,780.303,170.741
					c108.478-16.607,564.861-94.685,693.48-396.372c20.968-49.169,28.336-93.063,27.34-131.437
					C2388.561,1475.281,2389.716,1540.303,2356.281,1618.828z"/>
			</g>
			<g>
				<polygon style="fill:#512717;" points="1596.392,1529.901 1594.479,1530.513 1594.384,1529.89 				"/>
			</g>
			<g>
				<polygon style="fill:#512717;" points="1598.26,1529.296 1598.355,1529.92 1596.392,1529.901 				"/>
			</g>
			<g>
				<path style="fill:#000072;" d="M1002.659,858.525c104.708-141.379,275.528-216.833,445.91-242.182
					c85.609-12.537,173.459-15.513,259.097-0.551c85.467,14.554,168.52,47.528,238.844,98.233
					c8.345,6.301,0.162,19.595-9.332,14.156c-108.138-64.98-233.685-92.737-358.753-88.859
					c-124.473,3.729-250.801,28.55-363.658,81.437c-75.036,35.674-143.246,85.716-198.968,148.482
					C1009.122,876.909,996.146,867.633,1002.659,858.525L1002.659,858.525z"/>
			</g>
			<g>
				<path style="fill:#000072;" d="M1465.819,2042.024c-204.119,9.816-436.111-17.675-585.02-173.25
					c-77.414-80.088-115.791-193.234-75.372-301.244c7.874-21.312,16.87-40.358,30.483-59.272c0,0-3.378,9.976-3.378,9.975
					c-2.954-91.179-4.981-183.855,7.95-274.773c12.967-91.246,34.7-184.376,84.785-263.019c5.372-7.921,18.3-2.602,15.298,7.273
					c-7.12,21.576-14.289,42.841-20.929,64.242c-19.898,64.076-34.744,129.404-42.474,196.168
					c-11.328,89.943-9.3,179.901-10.148,270.663c0.007,3.769-1.27,7.149-3.379,9.977c-20.583,31.119-33.115,69.366-36.896,106.571
					c-8.589,77.999,27.044,153.029,79.679,209.714c81.817,89.691,197.684,136.196,315.755,159.415
					c79.62,15.508,161.398,21.005,243.131,20.613c4.691-0.041,8.529,3.746,8.55,8.439
					C1473.875,2038.056,1470.303,2041.781,1465.819,2042.024L1465.819,2042.024z"/>
			</g>
			<g>
				<path style="fill:#000072;" d="M2056.831,807.203c118.718,100.439,188.36,273.769,230.901,420.186
					c6.388,21.915,12.188,44.193,18.482,65.23l-6.206-8.508c70.654,54.245,109.404,145.527,101.195,233.802
					c-12.369,130.325-98.079,241.256-201.352,315.72c-101.915,73.164-221.755,119.439-342.554,148.629
					c-4.554,1.094-9.136-1.711-10.229-6.267c-1.048-4.351,1.474-8.732,5.667-10.062c217.558-70.206,479.632-199.322,511.458-451.077
					c7.118-76.115-25.668-154.474-84.505-202.882c-3.004-2.129-5.212-5.191-6.208-8.51c-28.054-86.318-52.95-172.8-90.729-255.199
					c-27.318-61.403-61.148-119.206-99.404-174.31c-12.697-18.456-25.85-36.628-38.935-55.238c-2.714-3.86-1.785-9.19,2.076-11.905
					C2049.701,804.553,2053.937,804.825,2056.831,807.203L2056.831,807.203z"/>
			</g>
			<g>
				
					<ellipse transform="matrix(0.9885 -0.1513 0.1513 0.9885 -195.1477 343.5309)" style="fill:#FF8080;" cx="2159.384" cy="1453.864" rx="181.27" ry="129.748"/>
			</g>
			<g>
				
					<ellipse transform="matrix(0.9885 -0.1513 0.1513 0.9885 -234.0501 175.773)" style="fill:#FF8080;" cx="1037.788" cy="1625.575" rx="181.27" ry="129.748"/>
			</g>
			<g>
				<path style="fill:#FF8710;" d="M1009.825,1681.061"/>
			</g>
			<g>
				<path style="fill:#FFF3E9;" d="M1169.927,1086.133c-8.95-26.473,58.736-125.335,111.158-109.09
					c52.422,16.245,53.745,75.477,26.649,96.022C1268.375,1102.908,1178.876,1112.605,1169.927,1086.133z"/>
			</g>
			<g>
				<path style="fill:#FFF3E9;" d="M1854.786,981.284c0.62-27.938-93.543-102.022-138.704-70.837
					c-45.161,31.185-28.703,88.099,3.299,99.597C1765.865,1026.744,1854.166,1009.221,1854.786,981.284z"/>
			</g>
			<g>
				<path style="fill:#512717;" d="M1725.317,1510.583c-25.093,41.956-27.979,79.377-36.049,111.204
					c-1.529,6.201-3.303,12.188-5.489,17.943c-17.91,47.705-62.562,56.6-69.709,57.401c-9.711,1.066-52.703,6.261-83.648-33.922
					c-3.78-4.926-7.269-10.149-10.59-15.65c-17.141-27.968-31.277-62.657-67.684-95.155c33.898-46.203,133.22-42.751,133.22-42.751
					S1679.108,1476.644,1725.317,1510.583z"/>
			</g>
			<g>
				<path style="fill:#000072;" d="M1718.832,1529.776c-23.265,38.905-25.941,73.625-33.432,103.118
					c-0.848,3.549-1.825,7.038-2.935,10.428c-0.635,2.085-1.386,4.188-2.15,6.213c-16.609,44.207-58.005,52.453-64.606,53.225
					c-9.033,0.985-48.891,5.775-77.571-31.459c-1.346-1.782-2.659-3.608-3.94-5.48c-2.036-2.909-4.005-5.907-5.876-9.04
					c-15.894-25.913-29.011-58.095-62.766-88.231c31.451-42.822,123.539-39.626,123.539-39.626S1676.01,1498.325,1718.832,1529.776z
					"/>
			</g>
			<g>
				<path style="fill:#FF8080;" d="M1682.465,1643.322c-0.635,2.085-1.386,4.188-2.15,6.213
					c-16.609,44.207-58.005,52.453-64.606,53.225c-9.033,0.985-48.891,5.775-77.571-31.459c-1.346-1.782-2.659-3.608-3.94-5.48
					c9.352-12.921,23.715-22.197,40.73-24.802c11.11-1.701,22.024-0.271,31.832,3.555c8.216-6.585,18.201-11.215,29.311-12.916
					C1653.165,1629.043,1669.657,1633.674,1682.465,1643.322z"/>
			</g>
			<g>
				<path style="fill:#000072;" d="M1636.171,1631.632c0,0-21.582,4.862-25.199,26.755c-0.345,2.088-3.056,2.503-4.01,0.614
					c-10.001-19.808-32.049-17.99-32.049-17.99l6.775-26.895l20.698,1.591l19.316-7.717L1636.171,1631.632z"/>
			</g>
			<g>
				<path style="fill:#000072;" d="M1604.13,1720.345c-32.19,0-59.981-13.474-79.419-38.718
					c-8.259-10.71-14.785-22.402-21.694-34.78c-12.109-21.697-24.631-44.133-48.733-65.645c-6.516-5.818-7.547-15.635-2.38-22.678
					c33.267-45.349,115.171-46.924,134.578-46.628c18.386-6.067,97.039-29.092,142.39,4.219c7.046,5.176,9.001,14.861,4.516,22.363
					c-16.448,27.512-21.638,52.512-26.658,76.689c-2.927,14.106-5.693,27.429-10.535,40.313
					c-21.455,57.087-76.294,63.845-78.618,64.104C1613.022,1720.091,1608.532,1720.345,1604.13,1720.345z M1489.711,1568.353
					c20.217,21.301,32.168,42.71,42.915,61.968c6.282,11.25,12.212,21.877,18.945,30.608c15.012,19.492,35.854,27.891,62.002,24.98
					c0.601-0.066,36.658-4.514,50.879-42.358c3.916-10.422,6.423-22.495,9.077-35.276c4.453-21.45,9.402-45.291,22.212-71.46
					c-31.919-10.889-82.043,1.445-101.038,8.1c-1.985,0.693-4.106,1.011-6.206,0.947
					C1568.398,1545.193,1516.884,1548.428,1489.711,1568.353z"/>
			</g>
			<g>
				<path style="fill:#FFFFFF;" d="M1748.535,1467.585c-7.325,13.264-15.468,56.743-45.399,79.659
					c-34.681,26.553-78.399,15.331-101.352-6.538c-9.904-9.437-15.499-24.824-16.902-33.984l-4.52-29.521l4.52,29.521
					c1.402,9.161,0.667,25.517-5.96,37.484c-15.359,27.735-53.717,51.522-94.754,36.561c-35.416-12.912-56.195-51.964-67.152-62.428
					c0,0,37.81-120.097,148.704-137.075C1676.614,1364.287,1748.535,1467.585,1748.535,1467.585z"/>
			</g>
			<g>
				<path style="fill:#000072;" d="M1755.956,1471.683c-5.575,52.51-32.787,102.826-90.902,108.513
					c-46.878,4.326-94.536-26.033-99.533-74.952c-0.909-5.384-3.086-19.609-4.006-25.159c-1.655-10.399,5.434-20.172,15.833-21.827
					c10.4-1.655,20.172,5.433,21.827,15.833c0.104,0.021,2.434,16.936,2.519,17.024c0.362,2.854,1.491,9.861,1.853,12.603
					c5.095,30.722-10.347,62.685-35.619,80.059c-33.026,25.719-83.715,25.286-115.597-1.823
					c-19.709-15.638-31.784-37.393-41.91-59.048c-2.013-4.247-0.203-9.322,4.044-11.335c2.811-1.333,5.997-0.981,8.407,0.636
					c6.08,4.105,10.106,8.122,14.37,12.071c10.777,10.149,23.558,23.241,35.204,30.975c14.793,10.737,32.43,15.208,49.943,10.787
					c24.188-6.757,46.672-26.887,44.098-53.929c-0.453-4.166-1.678-11.066-2.315-15.252c0,0-2.656-16.774-2.656-16.774l37.694-5.771
					l2.471,16.803c0.362,2.853,1.492,9.861,1.853,12.603c5.591,36.583,53.738,50.915,83.318,33.652
					c16.641-9.565,26.582-26.39,36.298-43.49c5.344-9.78,10.82-20.951,17.964-30.396
					C1747.218,1456.024,1758.683,1462.513,1755.956,1471.683L1755.956,1471.683z"/>
			</g>
			<g>
				<path style="fill:#000072;" d="M1667.013,1416.599c-10.133,52.343-81.807,91.948-81.807,91.948s-80.24-16.349-105.568-63.262
					c-18.087-33.569,70.392-53.042,87.365-55.64C1583.977,1387.046,1674.229,1379.156,1667.013,1416.599z"/>
			</g>
			<g style="opacity:0.5;">
				<path style="fill:#FFFFFF;" d="M1608.617,1401.802c-5.432,13.659-36.959,18.249-36.959,18.249s-31.456,5.052-40.726-6.356
					c-6.618-8.164,30.209-15.299,37.246-16.376C1575.215,1396.242,1612.49,1392.032,1608.617,1401.802z"/>
			</g>
			<g>
				<g>
					
						<ellipse transform="matrix(0.9777 -0.2099 0.2099 0.9777 -232.4617 418.1188)" style="fill:#000072;" cx="1853.202" cy="1304.006" rx="111.61" ry="139.347"/>
				</g>
				<g>
					
						<ellipse transform="matrix(0.9801 -0.1986 0.1986 0.9801 -219.1695 385.2556)" style="fill:#FFFFFF;" cx="1810.674" cy="1285.051" rx="37.533" ry="55.326"/>
				</g>
				<g style="opacity:0.35;">
					
						<ellipse transform="matrix(0.2937 -0.9559 0.9559 0.2937 54.7279 2779.0857)" style="fill:#FFFFFF;" cx="1907.991" cy="1352.508" rx="35.746" ry="18.515"/>
				</g>
			</g>
			<g>
				<g>
					
						<ellipse transform="matrix(0.9957 -0.0922 0.0922 0.9957 -123.0694 122.8629)" style="fill:#000072;" cx="1268.344" cy="1393.545" rx="111.61" ry="139.347"/>
				</g>
				<g>
					
						<ellipse transform="matrix(0.9946 -0.1037 0.1037 0.9946 -134.2762 142.4791)" style="fill:#FFFFFF;" cx="1303.254" cy="1362.734" rx="37.533" ry="55.326"/>
				</g>
				<g style="opacity:0.35;">
					
						<ellipse transform="matrix(0.8242 -0.5663 0.5663 0.8242 -608.2899 952.7689)" style="fill:#FFFFFF;" cx="1230.575" cy="1456.218" rx="18.515" ry="35.746"/>
				</g>
			</g>
		</g>
		<g>
			<g>
				<path style="fill:#FFFFFF;" d="M2593.621,1023.949c-23.01-37.647-34.355-82.84-29.501-130.119
					c11.782-114.756,114.362-198.233,229.118-186.45c114.756,11.782,198.232,114.362,186.45,229.118
					c-11.782,114.756-114.362,198.232-229.118,186.45c-31.919-3.277-61.406-13.598-87.109-29.232l-96.662,21.678L2593.621,1023.949z
					"/>
			</g>
			<g style="opacity:0.5;">
				<g>
					<path style="fill:#FFFFFF;" d="M2789.135,747.343c-107.198-11.007-203.747,61.121-225.607,164.211
						c-0.026-7.364,0.291-14.793,1.06-22.283c11.782-114.756,114.362-198.232,229.118-186.45
						c114.756,11.783,198.233,114.362,186.45,229.118c-0.772,7.523-1.957,14.902-3.488,22.138
						C2976.265,848.651,2896.368,758.353,2789.135,747.343z"/>
				</g>
			</g>
			<g>
				<path style="fill:#000072;" d="M2772.328,1142.437c-7.842,0-15.725-0.4-23.635-1.213c-31.394-3.223-61.052-12.632-88.274-27.996
					l-89.6,20.093c-6.34,1.423-12.976-0.615-17.427-5.364c-4.448-4.746-6.055-11.492-4.224-17.734l24.587-83.826
					c-23.11-41.013-32.751-87.312-27.913-134.441c12.8-124.648,124.583-215.613,249.272-202.852
					c124.648,12.798,215.647,124.619,202.849,249.27c-6.199,60.383-35.542,114.739-82.625,153.052
					C2874.428,1124.72,2824.367,1142.437,2772.328,1142.437z M2663.461,1075.345c3.342,0,6.648,0.911,9.548,2.676
					c24.272,14.766,51.001,23.73,79.436,26.65c50.642,5.208,100.237-9.626,139.702-41.746
					c39.47-32.119,64.067-77.686,69.265-128.306c10.728-104.492-65.557-198.235-170.051-208.962
					c-104.47-10.718-198.235,65.552-208.965,170.051c-4.292,41.809,5.01,82.842,26.902,118.657c2.703,4.424,3.413,9.78,1.953,14.753
					l-18.047,61.524l66.235-14.854C2660.771,1075.491,2662.118,1075.345,2663.461,1075.345z"/>
			</g>
			<g style="opacity:0.3;">
				<path style="fill:#000072;" d="M2592.449,1021.943c57.212,48.392,136.029,69.583,214.298,50.103
					c86.801-21.604,150.757-87.702,173.76-167.922c0.55,10.637,0.303,21.449-0.819,32.374
					c-11.782,114.756-114.362,198.232-229.118,186.45c-31.919-3.277-61.406-13.597-87.109-29.232l-96.662,21.678l26.822-91.445
					C2593.218,1023.289,2592.845,1022.608,2592.449,1021.943z"/>
			</g>
			<g>
				<path style="fill:#FF0068;" d="M2705.113,856.51L2705.113,856.51c18.076-18.077,47.384-14.838,65.461,3.239l2.813,2.813
					l2.813-2.813c18.077-18.077,47.384-21.316,65.461-3.239l0,0c18.076,18.077,18.076,47.384,0,65.461l-2.813,2.813l-56.832,56.832
					c-4.766,4.766-12.492,4.766-17.257,0l-56.832-56.832l-2.813-2.813C2687.037,903.895,2687.037,874.587,2705.113,856.51z"/>
			</g>
		</g>
		<g style="opacity:0.2;">
			<ellipse style="fill:#000072;" cx="2006.692" cy="3561.473" rx="1351.258" ry="68.527"/>
		</g>
	</g>
</g>
</svg>
