<?xml version="1.0" encoding="iso-8859-1"?>
<!-- Uploaded to: SVG Repo, www.svgrepo.com, Generator: SVG Repo Mixer Tools -->
<svg version="1.1" id="Layer_1" xmlns="http://www.w3.org/2000/svg" xmlns:xlink="http://www.w3.org/1999/xlink" 
	 viewBox="0 0 512 512" xml:space="preserve">
<path style="fill:#FFAABD;" d="M454.859,456.468v38.653c0,9.284-7.596,16.879-16.879,16.879h-68.811
	c-9.284,0-16.879-7.596-16.879-16.879v-38.653l51.284-11.253L454.859,456.468z"/>
<polygon style="fill:#FE547B;" points="454.859,192.422 454.859,422.709 403.574,433.962 352.29,422.709 352.29,192.422 
	403.574,181.169 "/>
<polygon style="fill:#FFAABD;" points="417.466,0 446.982,103.131 403.574,114.384 360.167,103.131 389.671,0 "/>
<g>
	<rect x="352.29" y="422.709" style="fill:#C22A4D;" width="102.569" height="33.758"/>
	<rect x="352.29" y="158.664" style="fill:#C22A4D;" width="102.569" height="33.758"/>
</g>
<polygon style="fill:#FE547B;" points="454.859,103.131 454.859,158.664 352.29,158.664 352.29,103.131 360.167,103.131 
	446.982,103.131 "/>
<path style="fill:#80E2E2;" d="M307.279,456.468v38.653c0,9.284-7.596,16.879-16.879,16.879h-68.811
	c-9.284,0-16.879-7.596-16.879-16.879v-38.653l51.284-11.253L307.279,456.468z"/>
<polygon style="fill:#00BAB9;" points="307.279,192.422 307.279,422.709 255.994,433.962 204.71,422.709 204.71,192.422 
	255.994,181.169 "/>
<polygon style="fill:#80E2E2;" points="269.886,0 299.402,103.131 255.994,114.384 212.587,103.131 242.092,0 "/>
<g>
	<rect x="204.71" y="422.709" style="fill:#C22A4D;" width="102.569" height="33.758"/>
	<rect x="204.71" y="158.664" style="fill:#C22A4D;" width="102.569" height="33.758"/>
</g>
<polygon style="fill:#00BAB9;" points="307.279,103.131 307.279,158.664 204.71,158.664 204.71,103.131 212.587,103.131 
	299.402,103.131 "/>
<path style="fill:#FCE190;" d="M159.71,456.468v38.653c0,9.284-7.596,16.879-16.879,16.879H74.021
	c-9.284,0-16.879-7.596-16.879-16.879v-38.653l51.284-11.253L159.71,456.468z"/>
<polygon style="fill:#FFB354;" points="159.71,192.422 159.71,422.709 108.426,433.962 57.141,422.709 57.141,192.422 
	108.426,181.169 "/>
<polygon style="fill:#FCE190;" points="122.317,0 151.833,103.131 108.426,114.384 65.018,103.131 94.523,0 "/>
<g>
	<rect x="57.141" y="422.709" style="fill:#C22A4D;" width="102.569" height="33.758"/>
	<rect x="57.141" y="158.664" style="fill:#C22A4D;" width="102.569" height="33.758"/>
</g>
<polygon style="fill:#FFB354;" points="159.71,103.131 159.71,158.664 57.141,158.664 57.141,103.131 65.018,103.131 
	151.833,103.131 "/>
</svg>