<?xml version="1.0" encoding="utf-8"?>
<!-- Generator: Adobe Illustrator 27.5.0, SVG Export Plug-In . SVG Version: 6.00 Build 0)  -->
<svg version="1.1" id="Layer_1" xmlns="http://www.w3.org/2000/svg" xmlns:xlink="http://www.w3.org/1999/xlink" x="0px" y="0px"
	 viewBox="0 0 4000 4000" style="enable-background:new 0 0 4000 4000;" xml:space="preserve">
<g>
	<g>
		<rect style="fill:#B0FFF0;" width="4000" height="4000"/>
	</g>
	<g>
		<g>
			<g>
				<g>
					<path style="fill:#74D124;" d="M1871.686,3221.173c-0.844,50.66,39.466,146.013,48.971,181.109
						c9.147,33.773-0.844,67.969-64.591,67.969c-42.639,0-204,0-217.931,0c-48.127,0-52.536-77.96-0.751-104.486
						c0,0-95.691-132.208-34.46-251.822L1871.686,3221.173z"/>
				</g>
				<g>
					<path style="fill:#48AA09;" d="M1811.315,3284.075c17.486,14.136,22.843,47.486,33.493,82.604
						c11.821,38.98,1.548,53.334-50.378,53.334c-51.914,0-184.84,5.063-189.091-19.244c-12.945,31.866-0.637,69.482,32.796,69.482
						c13.932,0,175.293,0,217.932,0c63.747,0,73.738-34.195,64.591-67.969c-9.505-35.096-49.816-130.449-48.971-181.109
						l-268.763-107.23c-6.784,13.252-11.547,26.656-14.822,40.02C1648.902,3240.652,1783.673,3261.729,1811.315,3284.075z"/>
				</g>
				<g style="opacity:0.6;">
					<path style="fill:#FFFFFF;" d="M1643.979,3130.323l-41.056-16.38c-61.23,119.614,34.461,251.822,34.461,251.822
						c-51.786,26.526-47.376,104.486,0.75,104.486c0.913,0,2.492,0,4.597,0c-31.1-27.863-7.881-82.956,42.92-100.616l-10.058-6.755
						c-33.987-38.276-72.405-158.171-31.877-232.05C1643.81,3130.657,1643.886,3130.494,1643.979,3130.323z"/>
				</g>
				<g>
					<path style="fill:#114408;" d="M1856.065,3490.249h-217.93c-27.576,0-48.933-17.52-55.735-45.718
						c-6.477-26.851,1.572-61.45,27.656-84.263c-24.868-41.665-78.191-151.406-24.937-255.439l35.605,18.223
						c-54.792,107.041,31.992,229.785,32.876,231.011l13.584,18.882l-20.686,10.625c-21.768,11.147-29.238,34.897-25.215,51.582
						c2.417,10.02,8.086,15.098,16.851,15.098h217.93c21.57,0,36.924-4.541,43.232-12.783c6.206-8.11,4.543-20.767,2.056-29.956
						c-2.451-9.048-7.366-23.159-13.057-39.497c-15.732-45.156-37.278-107.002-36.609-147.173l39.995,0.664
						c-0.552,33.062,20.474,93.413,34.387,133.35c5.94,17.056,11.072,31.787,13.892,42.197c6.948,25.659,3.87,48.037-8.899,64.722
						C1916.604,3480.669,1891.372,3490.249,1856.065,3490.249z"/>
				</g>
				<g>
					<path style="fill:#114408;" d="M1695.196,3490.231c-63.777-10-66.035-88.253-9.282-109.761
						c-15.228,11.905-25.238,32.062-20.608,50.366c3.832,15.907,16.686,22.48,31.589,19.431
						C1696.895,3450.268,1695.196,3490.231,1695.196,3490.231L1695.196,3490.231z"/>
				</g>
				<g>
					<path style="fill:#114408;" d="M1768.075,3490.231c-63.777-10-66.037-88.25-9.284-109.761
						c-15.225,11.905-25.24,32.064-20.606,50.366c3.827,15.906,16.688,22.48,31.587,19.431
						C1769.771,3450.268,1768.075,3490.231,1768.075,3490.231L1768.075,3490.231z"/>
				</g>
				<g>
					<polygon style="fill:#114408;" points="1638.56,3345.798 1683.534,3368.483 1636.207,3385.729 1638.56,3345.798 					"/>
				</g>
			</g>
			<g>
				<g>
					<path style="fill:#FFFFFF;" d="M2458.637,2634.925l1.684,65.303c0,0,87.511-26.591,115.749-16.262
						c36.931,13.509,44.691,94.562,44.691,94.562s61.062-42.846,96.102-28.07c36.924,15.57,24.626,82.885,24.626,82.885
						C2407.83,2855.905,2284.193,2800.642,2458.637,2634.925z"/>
				</g>
				<g>
					<path style="fill:#D3E0DC;" d="M2732.185,2762.986c-3.796-5.355-8.772-9.766-15.323-12.528
						c-35.04-14.776-96.102,28.07-96.102,28.07s-7.76-81.052-44.691-94.562c-28.237-10.329-115.749,16.262-115.749,16.262
						l-1.684-65.303c-68.727,65.289-91.154,113.42-72.731,146.416C2548.494,2800.826,2656.892,2786.592,2732.185,2762.986z"/>
				</g>
				<g>
					<path style="fill:#114408;" d="M2761.163,2836.938l-39.351-7.188c2.878-16.143,3.684-53.945-12.72-60.864
						c-16.855-7.07-55.82,11.333-76.863,26.025l-28.096,19.624l-3.283-34.102c-2.808-28.73-15.371-71.733-31.65-77.686
						c-13.113-4.805-63.87,4.722-103.069,16.616l-25.125,7.627l-2.361-91.553l39.985-1.025l1.023,39.648
						c31.709-8.145,79.329-17.632,103.286-8.882c31.521,11.533,46.165,51.592,52.783,81.006
						c24.6-12.817,60.562-26.118,88.909-14.155C2774.893,2753.218,2762.715,2828.433,2761.163,2836.938z"/>
				</g>
			</g>
			<g>
				<g>
					<circle style="fill:#ED8100;" cx="2050.123" cy="1768.994" r="235.43"/>
				</g>
				<g>
					<path style="fill:#512717;" d="M2050.122,2024.424c-140.845,0-255.43-114.585-255.43-255.43s114.585-255.43,255.43-255.43
						s255.43,114.585,255.43,255.43S2190.967,2024.424,2050.122,2024.424z M2050.122,1553.564
						c-118.789,0-215.43,96.641-215.43,215.43s96.641,215.43,215.43,215.43c118.789,0,215.43-96.641,215.43-215.43
						S2168.912,1553.564,2050.122,1553.564z"/>
				</g>
			</g>
			<g>
				<g>
					<path style="fill:#FFBA31;" d="M2144.827,1769.766c-247.389,189.861-226,583.433,23.923,796.205
						c267.403,227.654,765.528,127.999,967.886-117.644c22.31-27.082,28.335-43.185,26.78-55.453
						c-2.435-19.2-32.862-23.24-78.847-34.609c-152.542-37.714-229.356-129.088-302.271-253.3
						c-45.724-77.892-89.235-165.966-91.188-249.922L2144.827,1769.766z"/>
				</g>
				<g>
					<path style="fill:#FFBA31;" d="M2144.827,1769.766c-247.389,189.861-226,583.433,23.923,796.205
						c267.403,227.654,765.528,127.999,967.886-117.644c22.31-27.082,28.335-43.185,26.78-55.453
						c-2.435-19.2-32.862-23.24-78.847-34.609c-152.542-37.714-229.356-129.088-302.271-253.3
						c-45.724-77.892-89.235-165.966-91.188-249.922L2144.827,1769.766z"/>
				</g>
				<g>
					
						<ellipse transform="matrix(0.9639 -0.2662 0.2662 0.9639 -447.835 785.9866)" style="fill:#EF880C;" cx="2675.693" cy="2045.117" rx="35.529" ry="49.566"/>
				</g>
				<g>
					
						<ellipse transform="matrix(0.8446 -0.5354 0.5354 0.8446 -728.7217 1801.9225)" style="fill:#EF880C;" cx="2739.833" cy="2156.339" rx="27.322" ry="38.117"/>
				</g>
				<g>
					
						<ellipse transform="matrix(0.7071 -0.7071 0.7071 0.7071 -777.3074 2647.1348)" style="fill:#EF880C;" cx="2806.721" cy="2261.86" rx="20.6" ry="28.74"/>
				</g>
				<g>
					
						<ellipse transform="matrix(0.9639 -0.2662 0.2662 0.9639 -478.2496 777.2561)" style="fill:#EF880C;" cx="2628.319" cy="2152.98" rx="18.723" ry="26.121"/>
				</g>
				<g>
					
						<ellipse transform="matrix(0.7071 -0.7071 0.7071 0.7071 -791.4182 2569.9841)" style="fill:#EF880C;" cx="2706.515" cy="2240.312" rx="19.397" ry="27.061"/>
				</g>
				<g>
					<path style="fill:#ED8100;" d="M3136.635,2448.327c22.31-27.082,28.335-43.185,26.78-55.453
						c-0.051-0.401-0.186-0.757-0.261-1.144c-64.39,61.311-185.325,147.62-382.545,187.75
						c-210.975,42.929-367.513-1.151-367.513-1.151s-119.832-135.224-103.061-298.868c0,0,181.25-48.935,201.514-127.776
						c0,0-343.435-16.285-541.453-24.999c-3.717,158.882,64.546,325.111,198.655,439.285
						C2436.152,2793.625,2934.277,2693.97,3136.635,2448.327z"/>
				</g>
				<g>
					<path style="fill:#ED8100;" d="M2698.452,1912.497c-4.241-19.25-6.9-38.459-7.342-57.453l-546.283-85.277
						c-25.666,19.698-48.394,41.615-68.319,65.269C2181.878,1973.744,2542.833,1951.766,2698.452,1912.497z"/>
				</g>
				<g style="opacity:0.6;">
					<path style="fill:#FFFFFF;" d="M3163.415,2392.874c-2.435-19.2-32.862-23.24-78.847-34.609
						c-152.543-37.714-229.356-129.088-302.271-253.3c-45.724-77.892-89.235-165.967-91.188-249.922l-64.836-10.121
						c7.28,70.59,22.212,134.223,42.321,190.925c-4.086,1.068-8.019,2.626-11.727,4.767c-34.056,19.662-37.039,78.256-6.661,130.871
						c30.378,52.616,82.612,79.33,116.668,59.667c1.983-1.145,3.838-2.45,5.611-3.851
						c50.496,64.314,106.509,108.491,156.161,132.205c65.645,31.352,154.519,47.352,230.341,55.505
						C3163.077,2406.083,3164.192,2399,3163.415,2392.874z"/>
				</g>
				<g style="opacity:0.6;">
					
						<ellipse transform="matrix(0.866 -0.5 0.5 0.866 -753.8098 1596.2875)" style="fill:#FFFFFF;" cx="2601.817" cy="2204.776" rx="30.193" ry="46.648"/>
				</g>
				<g>
					<path style="fill:#FFF4B3;" d="M2359.777,1803.321l-214.95-33.555c-214.681,164.759-226.915,482.9-63.086,703.195
						c63.254-5.575,136.478-21.425,220.413-49.401c-29.833-52.911-14.642-205.736,7.881-253.018
						C2344.461,2019.536,2358.54,1898.764,2359.777,1803.321z"/>
				</g>
				<g>
					<path style="fill:#E5CA76;" d="M2081.741,2472.961c63.254-5.575,136.478-21.425,220.413-49.401
						c-29.833-52.911-14.642-205.736,7.881-253.018c2.157-9.463,4.234-18.806,6.233-28.033
						c-110.829-5.171-246.805-11.45-346.171-15.823C1967.309,2246.412,2005.4,2370.308,2081.741,2472.961z"/>
				</g>
				<g>
					<path style="fill:#E5CA76;" d="M2076.5,1835.025c50.096,65.958,157.99,95.563,274.12,104.275
						c5.752-50.145,8.631-95.379,9.157-135.98l-214.95-33.555C2119.162,1789.463,2096.423,1811.373,2076.5,1835.025z"/>
				</g>
				<g>
					<path style="fill:#512717;" d="M2554.661,2713.779c-157.551,0.005-297.2-46.021-398.874-132.578
						c-133.172-113.374-210.068-283.862-205.701-456.055c3.855-152.009,68.691-283.853,182.564-371.248l24.355,31.733
						c-104.106,79.895-163.389,200.83-166.931,340.53c-4.065,160.234,67.578,318.96,191.641,424.58
						c109.185,92.954,266.804,135.537,443.809,119.863c200.979-17.773,390.911-107.822,495.677-234.995
						c19.511-23.682,22.593-34.683,22.439-39.414c-5.066-4.575-27.036-9.756-44.812-13.945c-6.001-1.416-12.366-2.915-19.058-4.57
						c-156.414-38.672-236.384-129.146-314.719-262.588c-42.61-72.588-91.797-167.693-93.936-259.583l39.99-0.933
						c1.924,82.698,48.274,171.843,88.442,240.261c73.067,124.473,147.034,208.711,289.822,244.014
						c6.543,1.616,12.769,3.081,18.638,4.468c39.903,9.404,71.419,16.836,75.251,47.036c2.53,19.946-6.797,41.084-31.184,70.684
						c-111.338,135.156-311.75,230.723-523.027,249.409C2603.877,2712.676,2579.048,2713.779,2554.661,2713.779z"/>
				</g>
			</g>
			<g>
				<g>
					<path style="fill:#FFBA31;" d="M1857.777,1519c-71.228-25.893-264.495-59.666-194.599-321.972
						c69.896-262.306,435.773-770.277,1015.548-619.177c598.266,155.92,655.201,800.427,559.51,1095.38
						c-36.365,112.09-133.967,155.357-286.752,117.081L1857.777,1519z"/>
				</g>
				<g>
					<path style="fill:#ED8100;" d="M1875.511,1478.12c-182.878-46.846-183.594-323.762,29.628-482.211
						c249.341-185.289,1171.295,182.549,1233.199,242.237c61.904,59.688,108.342,522.332-134.189,511.457
						C2726.335,1737.145,1875.511,1478.12,1875.511,1478.12z"/>
				</g>
				<g>
					<g>
						<path style="fill:#FFF4B3;" d="M1692.632,1431.274c44.419-50.561,34.252-165.481-38.907-191.418
							C1637.767,1332.007,1658.284,1391.489,1692.632,1431.274z"/>
					</g>
					<g>
						<path style="fill:#FFF4B3;" d="M3243.079,1153.466c-58.028,50.489-39.46,150.998,28.52,169.361
							C3266.906,1267.259,3257.678,1210.214,3243.079,1153.466z"/>
					</g>
					<g>
						<path style="fill:#FFF4B3;" d="M3116.137,1795.781c60.111-16.573,101.219-58.19,122.099-122.55
							c1.105-3.407,2.168-6.909,3.233-10.409C3163.653,1633.01,3103.174,1726.392,3116.137,1795.781z"/>
					</g>
					<g>
						<path style="fill:#FFF4B3;" d="M2678.726,577.851c-29.996-7.818-59.385-13.775-88.224-18.19
							c19.622,87.421,121.429,98.44,167.307,42.724C2732.559,593.235,2706.225,585.018,2678.726,577.851z"/>
					</g>
					<g>
						<path style="fill:#FFF4B3;" d="M1897.011,808.519c-39.077,40.274-73.759,82.705-103.842,125.362
							C1890.249,946.101,1921.908,862.135,1897.011,808.519z"/>
					</g>
				</g>
				<g style="opacity:0.6;">
					<path style="fill:#FFFFFF;" d="M2678.726,577.851c-579.775-151.101-945.652,356.871-1015.548,619.177
						c-22.124,83.026-17.862,143.134,0.53,187.365c-8.589-39.002-7.334-88.181,9.339-150.755
						c67.998-255.182,423.938-749.357,987.966-602.36c582.018,151.685,637.407,778.687,544.314,1065.63
						c-11.576,35.68-29.572,64.14-53.697,85.05c41.047-21.347,70.132-57.948,86.606-108.727
						C3333.927,1378.277,3276.992,733.771,2678.726,577.851z"/>
				</g>
				<g>
					<path style="fill:#512717;" d="M3050.882,1823.782c-31.838,0-66.667-4.651-104.258-14.07l-1094.687-271.555l-0.994-0.361
						c-6.169-2.244-13.672-4.666-21.614-7.231c-82.402-26.621-253.872-82.012-185.476-338.687
						c33.176-124.502,137.739-323.599,323.25-474.961c146.279-119.358,389.353-243.718,716.668-158.418
						c223.372,58.215,390.4,185.911,496.45,379.541c137.019,250.178,135.986,559.673,77.041,741.362
						C3226.448,1774.377,3154.61,1823.782,3050.882,1823.782z M1863.599,1499.836l1092.7,271.064
						c140.684,35.247,229.126,0.305,262.915-103.843c56.379-173.782,57.246-470.027-74.077-709.805
						c-100.547-183.584-259.168-304.722-471.455-360.049c-311.072-81.069-542.19,37.205-681.291,150.703
						c-166.689,136.008-275.75,326.157-309.885,454.268c-58.621,219.985,77.683,264.016,159.121,290.325
						C1849.517,1495.049,1856.993,1497.463,1863.599,1499.836z"/>
				</g>
				<g>
					<path style="fill:#512717;" d="M3050.882,1823.782c-31.838,0-66.667-4.651-104.258-14.07l9.722-38.799
						c140.639,35.239,229.08,0.288,262.868-103.855c56.379-173.782,57.246-470.027-74.077-709.805
						c-100.547-183.584-259.168-304.722-471.455-360.049c-311.072-81.069-542.19,37.205-681.291,150.703
						c-166.689,136.008-275.75,326.157-309.885,454.268c-58.621,219.985,77.683,264.016,159.121,290.325
						c8.296,2.681,16.13,5.212,22.983,7.703l-13.667,37.593c-6.169-2.244-13.672-4.666-21.614-7.231
						c-82.402-26.621-253.872-82.012-185.476-338.687c33.176-124.502,137.739-323.599,323.25-474.961
						c146.279-119.358,389.353-243.718,716.668-158.418c223.372,58.215,390.4,185.911,496.45,379.541
						c137.019,250.178,135.986,559.673,77.041,741.362C3226.448,1774.377,3154.61,1823.774,3050.882,1823.782z"/>
				</g>
			</g>
			<g>
				<g>
					<path style="fill:#74D124;" d="M1398.375,2712.885c4.285,10.132,67.153,354.853,281.225,462.694
						c224.592,113.14,451.718,50.66,641.13-33.21c208.018-92.109,448.343-266.296,420.759-309.025
						c-14.354-22.234-273.282-89.173-471.418-267.372C1855.614,2243.557,1649.378,2545.32,1398.375,2712.885z"/>
				</g>
				<g>
					<path style="fill:#48AA09;" d="M2649.192,2790.531c-96.324-40.117-250.517-108.896-379.122-224.56
						c-66.988-52.112-128.51-87.835-185.687-110.536c-39.212,76.817-147.654,307.579-24.833,288.735
						C2260.374,2713.358,2501.663,2796.556,2649.192,2790.531z"/>
				</g>
				<g>
					<path style="fill:#48AA09;" d="M2743.454,2843.824L2743.454,2843.824c-162.699,152.784-436.234,185.966-533.613,197.787
						c-87.034,10.565-121.021,23.641-121.021,23.641s-296.923,126.368-537.993,0.263l0,0
						c35.144,45.007,77.635,84.302,128.774,110.064c224.592,113.14,451.717,50.66,641.13-33.21
						C2514.615,3056.517,2736.527,2899.38,2743.454,2843.824z"/>
				</g>
				<g>
					<path style="fill:#48AA09;" d="M2123.156,2522.508l-28.159-62.734c-302.948-127.688-483.689,110.961-696.621,253.11
						c1.941,4.591,15.912,77.884,50.53,166.708C1693.119,2934.092,1989.788,2797.984,2123.156,2522.508z"/>
				</g>
				<g>
					<path style="fill:#E2FFAB;" d="M2071.019,3224.191c9-65.509-60.498-147.112-147.447-220.856
						c-94.244-79.93-239.469-166.615-283.656-284.54c-76.838-26.958-138.422-41.042-186.854-44.722
						c-18.056,13.457-36.249,26.503-54.687,38.812c4.285,10.132,67.153,354.853,281.225,462.694
						C1811.939,3242.246,1945.155,3247.923,2071.019,3224.191z"/>
				</g>
				<g>
					<path style="fill:#BFE56C;" d="M1550.826,3065.515L1550.826,3065.515c35.144,45.007,77.635,84.302,128.774,110.063
						c132.339,66.667,265.555,72.345,391.419,48.612c5.533-40.279-18.635-86.643-58.264-133.523
						C1908.894,3119.543,1716.648,3152.258,1550.826,3065.515z"/>
				</g>
				<g>
					<path style="fill:#BFE56C;" d="M1639.916,2718.795c-76.838-26.958-138.422-41.042-186.854-44.722
						c-18.056,13.457-36.249,26.503-54.687,38.812c1.941,4.591,15.912,77.884,50.53,166.708
						c95.093,21.221,198.114,13.54,296.378-20.024C1699.114,2817.373,1659.541,2771.17,1639.916,2718.795z"/>
				</g>
				<g>
					<path style="fill:#114408;" d="M1940.142,3256.592c-87.358,0.01-178.64-17.358-269.541-63.154
						c-130.864-65.923-233.499-231.177-288.999-465.317c-1.04-4.39-1.729-7.388-2.139-8.77c0.178,0.601,0.366,1.035,0.491,1.323
						l36.841-15.576c1.042,2.466,1.611,4.863,3.728,13.794c52.729,222.461,147.935,378.301,268.074,438.823
						c227.251,114.487,452.869,42.163,624.036-33.633c90.872-40.239,195.793-100.254,280.667-160.547
						c96.772-68.74,125.242-106.88,129.702-119.453c-9.558-5.415-33.318-15.2-56.401-24.707
						c-93.286-38.423-266.927-109.941-409.905-238.535l26.748-29.741c137.847,123.979,307.337,193.784,398.391,231.289
						c53.464,22.021,69.202,28.872,76.458,40.112c3.999,6.196,7.83,16.719,3.364,31.67
						c-21.904,73.311-254.692,227.607-432.827,306.484C2224.9,3206.675,2088.194,3256.587,1940.142,3256.592z M2726.436,2846.328
						c0.002,0,0.002,0,0.002,0S2726.438,2846.328,2726.436,2846.328z"/>
				</g>
			</g>
			<g>
				<g>
					<path style="fill:#D3E0DC;" d="M1640.385,1504.905c34.149-92.291,119.123-153.672,159.955-142.107
						c48.69,13.791,29.129,183.642,31.24,254.144L1640.385,1504.905z"/>
				</g>
				<g>
					<path style="fill:#FFFFFF;" d="M1691.916,1420.009c33.198,67.746,100.968-25.795,72.08-53.251
						C1741.298,1375.358,1715.255,1394.009,1691.916,1420.009z"/>
				</g>
				<g>
					<path style="fill:#114408;" d="M1811.59,1617.539c-0.498-16.614,0.161-38.477,0.862-61.624
						c1.189-39.412,2.539-84.084-0.96-120.017c-4.863-49.971-16.487-53.826-16.604-53.857
						c-26.457-7.515-103.757,43.354-135.745,129.805l-37.515-13.882c34.912-94.36,126.13-170.842,184.16-154.409
						c48.867,13.843,50.156,97.249,46.643,213.569c-0.681,22.527-1.323,43.806-0.862,59.219L1811.59,1617.539z"/>
				</g>
			</g>
			<g>
				<g>
					<path style="fill:#74D124;" d="M2037.617,3256.634c0-110.889,31.215-210.449,141.388-210.449
						c109.358,0,181.971,92.243,110.203,252.666c12.102,72.331,24.908,174.566-50.871,174.566c0,0-22.164,20.475-63.536,2.744
						c-11.539,6.614-37.432,13.932-74.724-21.953C2067.163,3422.536,2008.045,3337.268,2037.617,3256.634z"/>
				</g>
				<g>
					<path style="fill:#48AA09;" d="M2298.389,3387.552c-14.561,66.796-57.112,26.858-57.112,26.858
						c-18.772,39.798-63.618,4.544-63.618,4.544s-9.663,25.918-27.132,16.89c-18.787-9.71-38.699-62.692-32.719-92.454
						c7.406-36.855,116.154-1.07,175.045-21.462c-1.16-7.909-2.404-15.655-3.646-23.076c7.223-16.145,12.917-31.564,17.324-46.304
						c-1.388,1.457-63.319,65.702-147.352,26.884c-90.635-41.868-77.689-173.817-36.077-222.435
						c-65.249,28.613-85.487,110.438-85.487,199.638c-29.571,80.634,29.547,165.902,62.461,197.574
						c37.292,35.884,63.185,28.566,74.724,21.953c41.372,17.731,63.536-2.744,63.536-2.744
						C2285.136,3473.417,2298.131,3434.412,2298.389,3387.552z"/>
				</g>
				<g style="opacity:0.6;">
					<path style="fill:#FFFFFF;" d="M2179.005,3046.185c-86.051,0-123.933,60.736-136.397,140.167
						c23.211-87.315,112.206-104.206,171.865-89.453c0.047,10.086,3.17,21.639,9.535,32.663
						c13.64,23.625,36.809,35.783,51.752,27.156c1.948-1.125,3.647-2.56,5.121-4.236c21.745,57.803-1.924,140.036-1.924,140.036
						l15.764-6.637C2356.936,3133.48,2285.376,3046.185,2179.005,3046.185z"/>
				</g>
				<g style="opacity:0.6;">
					
						<ellipse transform="matrix(0.866 -0.5 0.5 0.866 -1277.7366 1520.3765)" style="fill:#FFFFFF;" cx="2198.186" cy="3144.471" rx="14.189" ry="22.435"/>
				</g>
				<g>
					<path style="fill:#114408;" d="M2206.975,3503.325c-9.465,0-20.051-1.572-31.572-5.513
						c-17.727,6.382-49.795,8.721-89.195-29.189c-37.266-35.864-98.811-126.475-68.581-215.439
						c1.05-187.515,88.198-226.997,161.377-226.997c58.183,0,107.209,24.15,134.502,66.265
						c33.569,51.792,32.246,125.845-3.598,209.004c10.784,66.304,15.847,131.719-14.339,167.373
						c-12.49,14.756-29.434,22.935-50.432,24.365C2236.485,3498.569,2223.426,3503.325,2206.975,3503.325z M2173.511,3453.853
						l9.168,3.926c26.226,11.245,40.198,2.271,42.285,0.742l5.713-5.991l7.661,0.889c16.018,0,22.91-5.952,26.701-10.435
						c23.384-27.622,10.11-106.953,4.441-140.83l-0.996-5.957l2.466-5.513c32.49-72.622,35.683-135.298,8.992-176.479
						c-20.071-30.962-55.918-48.018-100.938-48.018c-80.547,0-121.387,64.077-121.387,190.449v3.55l-1.223,3.335
						c-26.882,73.301,32.429,152.1,57.552,176.279c20.239,19.478,38.325,26.23,50.91,19.009L2173.511,3453.853z"/>
				</g>
				<g>
					<path style="fill:#114408;" d="M2168.751,3391.164c18.381,27.559,35.049,60.554,23.441,94.878
						c-0.001,0-34.781-19.76-34.781-19.76C2175.295,3448.87,2171.869,3414.532,2168.751,3391.164L2168.751,3391.164z"/>
				</g>
				<g>
					<path style="fill:#114408;" d="M2233.763,3387.507c17.301,27.744,30.417,60.298,22.901,93.921c0,0-36.653-16.02-36.653-16.02
						C2236.78,3444.298,2236.399,3413.985,2233.763,3387.507L2233.763,3387.507z"/>
				</g>
			</g>
			<g>
				<g>
					<g>
						<path style="fill:#FFFFFF;" d="M2089.418,791.448c-10.871-148.865,73.984-266.65,108.602-266.65
							c43.483,0,68.97,122.804,166.623,139.925C2445.417,831.027,2284.198,823.305,2089.418,791.448z"/>
					</g>
					<g>
						<path style="fill:#D3E0DC;" d="M2291.09,624.277c0,0.003-0.001,0.007-0.001,0.01
							c-1.318,42.962-157.735,122.395-179.347,12.379c-16.218,43.456-26.563,96.732-22.324,154.782
							c194.78,31.856,355.999,39.579,275.225-126.725C2333.912,659.336,2310.337,643.476,2291.09,624.277z"/>
					</g>
					<g>
						<path style="fill:#512717;" d="M2069.471,792.905c-8.142-111.501,34.26-210.94,79.892-260.027
							c17.322-18.633,33.691-28.079,48.657-28.079c28.471,0,46.689,25.867,67.783,55.815c25.039,35.549,53.418,75.84,102.295,84.409
							l-6.909,39.399c-65.154-11.423-101.528-63.066-128.088-100.774c-11.548-16.396-27.363-38.85-35.08-38.85
							c-20.73,3.469-98.845,105.647-88.657,245.19L2069.471,792.905z"/>
					</g>
				</g>
				<g>
					<g>
						<path style="fill:#FFFFFF;" d="M2908.165,802.852c98.161,21.544,178.943-53.614,207.362-42.626
							c42.217,16.324,38.88,225.6-39.663,274.911C2926.74,982.327,2867.143,905.875,2908.165,802.852z"/>
					</g>
					<g>
						<path style="fill:#D3E0DC;" d="M3075.864,1035.138c43.942-27.588,64.338-105.241,66.393-171.166
							c-0.543,0.695-1.078,1.351-1.636,2.124c-63.652,88.137-164.972,19.655-155.934-63.66c0-0.004,0-0.008,0.001-0.012
							c-23.699,4.936-49.444,6.371-76.522,0.428C2867.143,905.875,2926.74,982.327,3075.864,1035.138z"/>
					</g>
					<g>
						<path style="fill:#512717;" d="M3086.5,1052.078l-21.27-33.877c36.938-23.191,55.276-94.783,57.063-155.444
							c1.453-49.338-8.054-78.027-13.945-83.652c-6.438,0.188-24.041,8.015-37.058,13.801
							c-39.712,17.656-99.734,44.329-167.412,29.482l8.574-39.072c54.851,12.039,105.566-10.501,142.588-26.96
							c28.608-12.72,49.273-21.907,67.703-14.783c21.055,8.142,33.933,35.146,38.269,80.264
							C3167.444,888.728,3152.901,1010.386,3086.5,1052.078z M3109.207,779.133L3109.207,779.133L3109.207,779.133z
							 M3107.744,778.599L3107.744,778.599L3107.744,778.599z"/>
					</g>
				</g>
			</g>
			<g>
				<g>
					<g>
						<path style="fill:#74D124;" d="M825.98,2000.269c-188.286,138.47-161.535,498.853,305.93,678.28
							c386.422,148.321,921.229,46.027,944.713-315.217c27.957-430.046-117.55-747.234-391.958-844.332
							C1408.53,1421.29,1012.578,1468.339,825.98,2000.269z"/>
					</g>
					<g>
						<path style="fill:#74D124;" d="M825.98,2000.269c-188.286,138.47-161.535,498.853,305.93,678.28
							c386.422,148.321,921.229,46.027,944.713-315.217c27.957-430.046-117.55-747.234-391.958-844.332
							C1408.53,1421.29,1012.578,1468.339,825.98,2000.269z"/>
					</g>
					<g>
						<ellipse style="fill:#FFB894;" cx="1686.458" cy="2377.357" rx="84.536" ry="53.449"/>
					</g>
					<g>
						
							<ellipse transform="matrix(0.5 -0.866 0.866 0.5 -1421.5321 1785.7683)" style="fill:#FFB894;" cx="835.754" cy="2123.967" rx="52.896" ry="75.022"/>
					</g>
					<g>
						<path style="fill:#48AA09;" d="M962.078,1860.6c12.223-21.036,27.133-72.688,81.036-69.726
							c66.562,3.659,64.315,139.585,64.315,139.585C1077.169,1830.558,1009.201,1837.323,962.078,1860.6z"/>
					</g>
					<g>
						<path style="fill:#48AA09;" d="M1688.606,2039.108c-13.448-79.481-40.423-109.277-98.04-113.093
							c-89.964-5.958-135.924,109.152-135.924,109.152C1562.66,1967.762,1657.047,1997.08,1688.606,2039.108z"/>
					</g>
					<g style="opacity:0.6;">
						<path style="fill:#FFFFFF;" d="M1684.666,1519c-276.136-97.71-672.088-50.66-858.685,481.269
							c-93.984,69.118-134.378,193.527-93.14,323.123c1.386-239.943,158.998-282.595,158.998-282.595
							c43.066-171.681,210.342-538.688,634.093-481.163c421.474,57.215,513.05,496.028,553.891,678.247
							C2074.173,1872.093,1931.644,1606.391,1684.666,1519z"/>
					</g>
					<g>
						<path style="fill:#48AA09;" d="M1293.318,2238.792l-145.225-57.22c0,0,57.309-100.707,107.934-95.872
							C1303.028,2090.19,1293.318,2238.792,1293.318,2238.792z"/>
					</g>
					<g>
						<path style="fill:#48AA09;" d="M2039.563,1941.05c-28.403-5.693-53.53-1.906-68.564,18.577
							c-95.514,130.141,12.56,322.648,12.56,322.648s-11.763,169.445-182.376,251.634
							c-149.391,71.965-638.307,146.236-979.298-126.83c65.695,82.347,170.186,159.499,321.313,217.506
							c381.782,146.54,910.167,45.474,933.369-311.432c1.716-26.387,2.767-52.342,3.171-77.844
							C2077.878,2127.907,2064.248,2029.133,2039.563,1941.05z"/>
					</g>
					<g>
						<path style="fill:#114408;" d="M1494.842,2764.541c-123.926,0-252.49-22.178-370.098-67.319
							c-246.03-94.434-400.928-251.055-424.976-429.692c-14.988-111.338,25.83-215.361,109.363-279.614
							c82.449-231.704,210.005-390.259,379.177-471.282c203.196-97.317,402.38-52.109,503.03-16.489
							c282.444,99.944,433.935,423.115,405.244,864.485c-7.827,120.386-70.669,221.621-181.734,292.764
							C1804.187,2728.276,1653.308,2764.541,1494.842,2764.541z M1451.121,1497.988c-75.933,0-160.454,13.975-245.532,54.722
							c-160.635,76.934-282.004,229.741-360.737,454.18l-2.046,5.83l-4.976,3.662c-74.929,55.103-111.721,146.997-98.42,245.811
							c22.039,163.701,167.71,308.652,399.668,397.686c252.8,97.026,569.988,81.821,754.197-36.167
							c99.924-64.009,156.423-154.492,163.391-261.68c27.464-422.454-114.097-730.557-378.672-824.177
							C1625.606,1519.316,1544.917,1497.988,1451.121,1497.988z"/>
					</g>
				</g>
				<g>
					<g>
						<path style="fill:#FFFFFF;" d="M1317.1,1804.384c-43.835-18.997-53.335-225.265-11.258-243.73
							c19.56-8.584,46.285,7.03,81.619,27.37c29.217,16.819,54.013,32.86,59.385,40.176
							C1486.248,1681.856,1365.951,1825.555,1317.1,1804.384z"/>
					</g>
					<g>
						<path style="fill:#D3E0DC;" d="M1446.846,1628.2c4.016,84.991-128.017,127.761-168.039,31
							c-0.462,62.966,13.356,134.377,38.293,145.184C1365.951,1825.555,1486.248,1681.856,1446.846,1628.2z"/>
					</g>
					<g>
						<path style="fill:#114408;" d="M1327.71,1826.475c-6.416,0-12.642-1.172-18.562-3.738l-0.002-0.002
							c-48.64-21.082-50.325-145.371-50.356-159.473c-0.107-47.307,6.575-106.685,39.016-120.923
							c28.596-12.544,59.417,5.195,98.433,27.659l1.201,0.691c55.415,31.907,62.761,41.909,65.527,45.674
							c28.191,38.391,0.989,98.779-33.87,142.493C1402.378,1792.363,1362.315,1826.475,1327.71,1826.475z M1325.091,1786.05
							c8.374,3.562,39.773-10.793,72.732-52.131c30.227-37.905,44.37-78.264,32.903-93.879
							c-2.314-2.615-16.782-13.691-53.242-34.685l-1.201-0.691c-25.718-14.807-52.314-30.105-62.402-25.696
							c-6.672,4.785-18.569,43.513-14.199,110.491C1303.653,1750.286,1318.177,1782.356,1325.091,1786.05z"/>
					</g>
				</g>
				<g>
					<g>
						<path style="fill:#FFFFFF;" d="M1460.074,1603.433c-43.502-18.016-0.08-248.537,74.301-267.935
							c71.768-18.716,147.924,168.106,136.782,185.19C1652.159,1549.818,1501.868,1620.741,1460.074,1603.433z"/>
					</g>
					<g>
						<path style="fill:#D3E0DC;" d="M1473.755,1406.403c-32.762,75.534-43.093,184.849-13.681,197.03
							c41.795,17.309,192.085-53.615,211.083-82.744c2.931-4.494-0.185-20.741-7.667-41.895
							C1610.928,1554.461,1483.715,1533.564,1473.755,1406.403z"/>
					</g>
					<g>
						<path style="fill:#114408;" d="M1476.748,1625.935c-9.377,0-17.634-1.252-24.329-4.023
							c-22.778-9.434-32.532-40.308-28.987-91.758c5.271-76.545,42.573-197.495,105.896-214.009
							c23.259-6.062,59.885-0.93,102.288,57.957c17.554,24.38,34.587,56.196,46.733,87.29c20.735,53.081,13.188,64.658,9.561,70.22
							C1668.169,1561.88,1543.811,1625.935,1476.748,1625.935z M1468.567,1585.256c9.834,3.059,42.886-0.845,97.771-24.187
							c43.97-18.696,76.221-39.104,85.793-48.645c-2.454-23.472-39.082-111.853-81.101-146.13
							c-12.134-9.897-22.766-13.745-31.609-11.443c-21.951,5.725-47.285,47.732-63.04,104.529
							C1457.72,1526.667,1461.316,1576.248,1468.567,1585.256z M1468.963,1585.703L1468.963,1585.703L1468.963,1585.703z
							 M1652.246,1515.344L1652.246,1515.344L1652.246,1515.344z"/>
					</g>
				</g>
				<g>
					<g>
						<path style="fill:#114408;" d="M974.301,1839.564c3.466-16.495,19.989-76.029,78.241-67.547
							c51.223,7.458,69.235,74.301,54.319,131.434C1094.197,1831.121,1033.405,1775.676,974.301,1839.564z"/>
					</g>
					<g>
						<g>
							<path style="fill:#114408;" d="M985.559,2146.057c-39.784-7.741-63.747-31.381-43.061-131.997
								c21.074-102.503,55.444-132.373,109.482-117.362c54.037,15.01,46.063,90.395,31.733,146.844
								C1060.634,2134.447,1034.742,2155.626,985.559,2146.057z"/>
						</g>
						<g>
							
								<ellipse transform="matrix(0.1785 -0.9839 0.9839 0.1785 -1097.0962 2663.5483)" style="fill:#FFFFFF;" cx="1046.597" cy="1988.803" rx="26.912" ry="21.148"/>
						</g>
						<g style="opacity:0.4;">
							<path style="fill:#FFFFFF;" d="M1010.634,2024.728c-1.716,9.459-9.133,16.033-16.566,14.685
								c-7.433-1.349-12.067-10.109-10.351-19.568c1.716-9.459,9.133-16.033,16.566-14.685S1012.35,2015.269,1010.634,2024.728z"/>
						</g>
					</g>
				</g>
				<g>
					<g>
						<g>
							<path style="fill:#114408;" d="M1067.977,2323.907c-3.93,74.718-3.335,147.192,69.984,164.385
								c84.011,19.701,157.679-66.421,206.228-142.375L1067.977,2323.907z"/>
						</g>
						<g>
							<path style="fill:#FFABAB;" d="M1274.176,2435.139c-0.02-0.082-0.033-0.159-0.054-0.241
								c-36.927-60.15-106.188-21.329-106.188-21.329c-22.374-21.952-62.265-23.008-96.679,3.23
								c7.435,34.941,25.683,61.873,66.705,71.493C1188.099,2500.05,1234.547,2474.107,1274.176,2435.139z"/>
						</g>
						<g>
							<path style="fill:#114408;" d="M1162.776,2507.197c-9.509,0-18.999-1.108-28.467-3.33
								c-90.698-21.265-85.652-117.271-82.312-180.801l31.958,1.68c-4.631,88.086,3.015,135.156,57.659,147.969
								c59.194,13.882,122.793-31.689,189.094-135.415l26.963,17.236C1292.813,2456.001,1227.386,2507.197,1162.776,2507.197z"/>
						</g>
						<g>
							<path style="fill:#114408;" d="M1148.094,2437.421c4.014-23.515,11.543-45.756,27.534-65.186
								c0,0,19.654,25.252,19.654,25.252C1176.885,2404.837,1160.399,2421.004,1148.094,2437.421L1148.094,2437.421z"/>
						</g>
					</g>
					<g>
						<g>
							<path style="fill:#74D124;" d="M1365.931,2360.798c-176.465,32.084-328.361-41.667-335.34-66.702
								c-6.473-23.219,2.814-71.205,28.426-90.977c-1.266-13.65,3.87-29.2,15.831-36.447c12.58-7.622,26.737-3.307,31.662,7.74
								c16.042-11.961,84.644-23.641,130.238,22.586c42.357-5.348,52.771,15.761,54.459,55.444
								C1392.771,2283.542,1398.277,2342.78,1365.931,2360.798z"/>
						</g>
						<g>
							<path style="fill:#48AA09;" d="M1049.081,2213.208c-17.968,22.929-24.039,60.984-18.49,80.888
								c6.98,25.036,158.875,98.787,335.341,66.702c0,0-103.431-9.288-199.157-37.407
								C1059.229,2291.8,1045.947,2252.352,1049.081,2213.208z"/>
						</g>
						<g style="opacity:0.6;">
							<path style="fill:#FFFFFF;" d="M1236.748,2196.998c-45.594-46.227-114.196-34.547-130.238-22.586
								c-4.925-11.047-19.082-15.362-31.662-7.74c-11.961,7.247-17.098,22.797-15.831,36.447
								c-25.612,19.771-34.899,67.758-28.426,90.977c0.547,1.963,2.085,4.253,4.357,6.741c6.688-64.31,39.776-87.629,39.776-87.629
								s-3.359-25.216,5.401-27.609c6.421-1.754,12.876,24.591,12.876,24.591s6.074-5.404,17.543-10.283
								c1.65,8.932,17.817,15.947,37.55,15.947c20.813,0,37.686-7.802,37.711-17.428c32.498,11.971,43.485,37.411,43.485,37.411
								s16.535-16.676,37.221-9.921c16.878,5.511,24.697,26.526,24.697,26.526
								C1289.519,2212.759,1279.105,2191.65,1236.748,2196.998z"/>
						</g>
						<g style="opacity:0.6;">
							<ellipse style="fill:#FFFFFF;" cx="1160.165" cy="2230.723" rx="17.44" ry="8.069"/>
						</g>
						<g>
							<path style="fill:#114408;" d="M1365.931,2360.798c-91.154,33.194-194.526,19.929-282.949-16.417
								c-22.087-10.577-46.496-20.403-61.556-41.353c-3.996-7.038-4.423-15.759-4.76-23.097
								c-0.096-21.337,4.521-41.487,14.17-60.501c4.995-9.372,11.311-18.694,20.594-26.14l-4.778,10.974
								c-1.596-17.495,3.734-35.409,18.318-47.034c16.361-13.671,45.384-10.246,54.893,11.227c0-0.001-22.09-5.767-22.09-5.767
								c44.832-27.918,115.018-15.538,149.155,24.267c0,0.001-11.97-4.142-11.97-4.142c8.652-0.396,17.683-0.188,27.19,2.271
								c31.223,7.382,36.586,40.917,29.059,67.359c-6.565-17.532-11.56-42.78-33.658-43.24c-7.235-0.63-16.76,1.45-24.622,3.171
								c-24.648-23.302-57.399-35.672-91.382-32.48c-8.75,0.816-18.809,2.273-26.294,6.237c0,0-16.767,9.832-16.767,9.832
								l-5.327-15.598c-1.719-4.6-7.923-4.55-12.422-1.57c-6.847,4.273-9.993,14.924-9.353,23.176c0,0,0.461,7.063,0.461,7.063
								l-5.239,3.914c-20.961,17.064-29.531,51.503-24.479,77.551c0.165,0.689,0.07,0.015-0.006,0.01
								c0.254,0.25,0.537,0.826,1.116,1.426c13.19,13.028,32.434,21.224,49.775,28.68c16.807,6.946,34.265,12.688,51.995,17.414
								C1217.277,2357.755,1290.639,2360.65,1365.931,2360.798L1365.931,2360.798z"/>
						</g>
						<g>
							<path style="fill:#114408;" d="M1089.6,2208.162c0.539,6.945-2.511,12.845-6.811,13.178c-4.3,0.334-8.223-5.026-8.762-11.97
								c-0.539-6.945,2.511-12.845,6.811-13.178C1085.138,2195.858,1089.061,2201.217,1089.6,2208.162z"/>
						</g>
						<g>
							<path style="fill:#114408;" d="M1243.092,2250.38c-4.232,5.532-10.44,7.893-13.866,5.272
								c-3.426-2.621-2.772-9.23,1.46-14.763c4.232-5.532,10.44-7.893,13.866-5.272
								C1247.978,2238.238,1247.324,2244.848,1243.092,2250.38z"/>
						</g>
					</g>
				</g>
				<g>
					<g>
						<path style="fill:#114408;" d="M1470.206,2004.49c0,0,42.677-104.078,132.982-98.365
							c88.233,5.582,79.367,107.23,79.367,107.23C1656.803,1965.229,1564.208,1917.524,1470.206,2004.49z"/>
					</g>
					<g>
						<g>
							<path style="fill:#114408;" d="M1527.62,2289.03c-55.222-17.276-66.139-80.352-41.654-158.453
								c24.486-78.101,70.361-120.388,131.997-101.179c56.702,17.671,67.828,73.598,41.935,156.061
								C1638.221,2254.497,1603.188,2312.671,1527.62,2289.03z"/>
						</g>
						<g>
							<g>
								
									<ellipse transform="matrix(0.3315 -0.9434 0.9434 0.3315 -939.2607 2917.9807)" style="fill:#FFFFFF;" cx="1589.511" cy="2121.802" rx="30.958" ry="24.327"/>
							</g>
							<g style="opacity:0.4;">
								<path style="fill:#FFFFFF;" d="M1605.026,2178.181c-3.666,10.433,0.008,21.226,8.206,24.107
									c8.198,2.881,17.817-3.241,21.483-13.675c3.666-10.433-0.008-21.226-8.206-24.107S1608.692,2167.748,1605.026,2178.181z"/>
							</g>
						</g>
					</g>
				</g>
			</g>
			<g>
				<g>
					<path style="fill:#FFBA31;" d="M2466.404,2688.499c-49.703-4.744-112.324-26.837-206.467-17.831
						c-108.154,10.346-190.051,52.636-228.251,32.084c-48.127-25.893-112.015-235.287-66.139-306.774
						c37.484-58.41,120.74-40.809,157.609,11.539c0,0,88.092-55.726,198.981-17.168L2466.404,2688.499z"/>
				</g>
				<g style="opacity:0.6;">
					<path style="fill:#FFFFFF;" d="M2123.156,2407.518c-36.869-52.349-120.125-69.949-157.608-11.54
						c-9.8,15.271-14.577,36.846-15.583,61.57c28.022-61.128,73.795-7.518,109.77,48.698l-42.683-93.521
						c51.575-27.009,101.038,12.805,138.618,64.927l-3.118-34.548c0,0,86.278-41.216,169.586-52.755
						C2211.248,2351.792,2123.156,2407.518,2123.156,2407.518z"/>
				</g>
				<g>
					<path style="fill:#ED8100;" d="M2466.404,2688.499l-53.166-109.874c-140.918-27.554-198.754,20.697-248.383-35.732
						c-26.456,103.008-60.745-63.679-107.507-44.541c-33.261,105.191-70.412,76.485-103.721,19.307
						c11.751,81.067,47.982,168.913,78.058,185.094c38.2,20.552,120.097-21.738,228.251-32.084
						C2354.08,2661.662,2416.702,2683.755,2466.404,2688.499z"/>
				</g>
				<g>
					<path style="fill:#FFF4B3;" d="M2032.867,2559.137c-12.225-67.75-39.092-119.613-60.008-115.839
						c-12.552,2.265-20.101,24.064-21.495,55.768c7.077,72.231,36.277,155.016,64.679,189.683c0.363-0.032,0.728-0.041,1.087-0.105
						C2038.047,2684.869,2045.093,2626.887,2032.867,2559.137z"/>
				</g>
				<g>
					<path style="fill:#E5CA76;" d="M1953.648,2517.691c9.766,67.343,36.409,139.339,62.396,171.058
						c0.363-0.032,0.728-0.041,1.087-0.105c20.917-3.774,27.962-61.756,15.737-129.506c-0.328-1.821-0.673-3.624-1.022-5.421
						C2005.794,2587.432,1978.64,2560.583,1953.648,2517.691z"/>
				</g>
				<g>
					<path style="fill:#512717;" d="M2614.718,2711.589c-47.554,4.072-95.012,1.843-141.399-3.005
						c-68.495-6.432-134.861-21.561-202.431-18.69c-56.329,3.694-110.741,19.775-165.969,32.267
						c-31.937,7.388-76.329,13.234-100.073-15.822c-21.203-23.948-33.843-53.977-44.605-82.172
						c-8.274-22.51-14.882-45.425-20.014-68.755c-14.495-69.749-27.181-174.083,54.106-208.565
						c13.472-5.421,27.862-7.689,41.751-7.257c41.12,1.386,79.529,23.018,103.425,56.411c0,0-27.044-5.385-27.044-5.385
						c8.502-5.595,16.713-9.4,25.891-13.194c58.551-23.388,130.386-19.55,183.782,12.93c-33.8-4.092-67.204-4.01-99.983,2.634
						c-30.993,6.194-60.385,17.096-88.306,31.436l-17.153,8.643l-9.89-14.028c-24.503-36.115-85.891-56.674-118.042-20.608
						c-30.082,34.495-18.063,105.479-9.469,148.41c9.454,41.53,23.572,85.812,46.278,121.17
						c4.171,6.337,10.522,14.516,16.226,17.402c4.822,2.473,13.665,3.435,23.484,2.605c19.849-1.599,42.097-7.375,64.224-12.722
						c67.909-17.575,140.578-32.184,210.913-23.148c91.187,9.437,180.161,27.773,270.864,19.593
						C2611.283,2671.738,2614.718,2711.589,2614.718,2711.589L2614.718,2711.589z"/>
				</g>
				<g>
					<g>
						<path style="fill:#FFBA31;" d="M2123.156,2407.518c0,0,21.108,28.707,36.306,82.744"/>
					</g>
					<g>
						<path style="fill:#512717;" d="M2139.268,2395.671c13.113,29.856,17.927,62.426,20.194,94.592
							c-13.396-24.61-29.048-48.355-48.997-67.988c-1.165-1.067-2.635-2.519-3.423-2.91L2139.268,2395.671L2139.268,2395.671z"/>
					</g>
				</g>
				<g>
					<path style="fill:#512717;" d="M2051.883,2723.213c-7.383,0-16.035-1.582-26.113-5.596l11.836-29.727
						c7.031,2.793,16.421,5.273,21.203,1.162c3.87-3.325,21.79-25.898-5.566-144.243c-23.581-102.017-53.992-132.129-68.24-133.843
						c-6.482-0.791-11.121,5.586-13.875,11.064l-28.589-14.385c10.103-20.078,27.4-30.723,46.277-28.452
						c39.124,4.697,73.076,60.957,95.603,158.408c29.673,128.364,11.494,161.768-4.76,175.728
						C2073.726,2718.423,2064.729,2723.208,2051.883,2723.213z"/>
				</g>
				<g>
					<path style="fill:#512717;" d="M2028.294,2448.105c33.002-43.878,107.34-30.438,124.257,20.248
						c-6.264-9.366-14.487-16.991-23.818-21.915c-24.102-13.502-61.947-7.774-73.269,18.572
						C2055.465,2465.009,2028.294,2448.105,2028.294,2448.105L2028.294,2448.105z"/>
				</g>
			</g>
			<g>
				<g>
					<path style="fill:#74D124;" d="M2145.585,2734.239c30.84-75.067-29.089-107.838-86.88-33.175
						c-12.947-69.798-62.199-90.344-101.742-66.28c-17.098-11.821-77.699-22.585-75.99,48.76
						c2.065,86.192,85.137,188.92,225.859,188.919c148.682,0,191.499-88.176,189.835-178.733L2145.585,2734.239z"/>
				</g>
				<g style="opacity:0.6;">
					<path style="fill:#FFFFFF;" d="M2058.705,2701.064c-12.946-69.798-62.199-90.343-101.742-66.28
						c-17.098-11.821-77.699-22.585-75.99,48.76c0.444,18.548,4.662,37.858,12.376,56.749
						c-2.153-95.519,53.585-81.867,53.585-81.867l0.753,40.738c0,0,9.276-45.171,44.949-38.838
						c27.369,4.858,57.789,80.871,57.789,80.871l12.502-15.646c0,0,36.582-37.847,62.058-33.351
						c17.942,3.166,20.6,42.041,20.6,42.041C2176.425,2659.172,2116.497,2626.401,2058.705,2701.064z"/>
				</g>
				<g>
					<path style="fill:#48AA09;" d="M2257.967,2725.55c0,0-49.889,175.909-308.198,91.827
						c38.194,32.669,91.335,55.087,157.062,55.087c123.232,0,173.699-60.586,186.431-132.883
						C2273.172,2731.506,2257.967,2725.55,2257.967,2725.55z"/>
				</g>
				<g>
					<path style="fill:#48AA09;" d="M2296.667,2693.73l-145.868,39.111c0.001,0,103.254-5.9,130.697,46.738
						C2292.866,2753.277,2297.217,2723.645,2296.667,2693.73z"/>
				</g>
				<g>
					<path style="fill:#114408;" d="M2120.34,2777.475c9.942-25.77,20.613-49.949,20.633-76.479
						c-0.697-23.108-13.03-31.286-32.603-19.741c-13.101,7.417-24.181,19.907-33.85,32.05c0,0-26.946,32.749-26.946,32.749
						l-8.533-41.343c-5.768-35.769-32.362-75.775-71.681-52.841c0.001,0-9.079,4.907-9.079,4.907
						c-7.404-2.94-17.708-8.854-26.113-9.46c-25.335-3.452-29.715,14.52-29.477,35.647c2.359,47.955,29.347,91.603,66.101,121.953
						c44.027,36.057,101.974,50.866,158.908,47.471c45.897-1.887,92.167-14.359,121.995-50.1
						c26.786-31.083,37.081-68.083,46.943-109.946c16.68,61.56-4.084,129.035-59.788,164.638
						c-58.006,37.958-139.215,42.543-205.077,26.205c-90.419-22.172-169.598-103.185-172.512-199.211
						c-0.007-17.561,2.642-35.853,12.268-50.959c20.945-32.462,66.699-34.613,96.806-14.682c0,0-21.77-0.635-21.77-0.635
						c45.184-27.932,97.689-6.353,118.962,39.867c6.285,13.029,10.125,26.471,12.843,39.853c0.001-0.006-35.576-8.573-35.459-8.621
						c21.686-29.182,69.39-64.799,106.551-37.566C2190.028,2687.456,2154.766,2750.923,2120.34,2777.475L2120.34,2777.475z"/>
				</g>
				<g>
					<path style="fill:#114408;" d="M1949.747,2712.885c-12.287-26.257-17.815-57.539-10.852-86.675l36.138,17.148
						C1958.243,2662.084,1951.325,2687.548,1949.747,2712.885L1949.747,2712.885z"/>
				</g>
			</g>
			<g>
				<g>
					<path style="fill:#FFBA31;" d="M2395.594,1847.726c-88.374,43.905-163.684,59.954-209.113,61.636
						c-63.325,2.345-128.901-26.174-179.28-8.443c-47.735,16.801-49.534,87.529,0,108.074
						c-56.852,30.133-53.756,112.37,22.516,117.081c-54.037,44.187-16.324,138.752,72.472,91.61c0,0,68.25,14.494,107.09-22.093
						c0,0,142.974,17.449,291.576-32.648l10.695-11.258l-36.742-66.744L2395.594,1847.726z"/>
				</g>
				<g>
					<path style="fill:#ED8100;" d="M2198.02,2138.739c-16.042,16.464-51.082,41.583-101.953,31.24
						c-23.852,18.575-68.168,14.243-62.692-16.887c4.01-22.797,32.929-41.948,62.481-45.594
						c-19.348-12.102-176.747-43.905-38.586-100.547c-10.947-20.472-97.173-47.56-38.571-109.226
						c-3.909,0.839-7.75,1.874-11.498,3.193c-47.735,16.8-49.534,87.529,0,108.074c-56.852,30.133-53.756,112.37,22.516,117.081
						c-54.037,44.187-16.324,138.752,72.472,91.61c0,0,68.25,14.494,107.09-22.094c0,0,142.974,17.449,291.576-32.647l10.695-11.258
						C2511.548,2151.686,2346.622,2165.758,2198.02,2138.739z"/>
				</g>
				<g>
					<path style="fill:#ED8100;" d="M2395.594,1847.726c-64.006,31.799-121.088,48.934-165,56.633
						c0.069-0.002,0.126,0.006,0.195,0.003c0,0,92.192,34.938,196.354,37.843L2395.594,1847.726z"/>
				</g>
				<g style="opacity:0.6;">
					<path style="fill:#FFFFFF;" d="M2401.356,1864.983l-5.762-17.257c-88.374,43.905-163.684,59.953-209.113,61.636
						c-63.325,2.346-128.901-26.174-179.28-8.443c-35.696,12.563-45.695,55.279-27.759,84.62
						c2.716-63.229,60.653-54.918,176.362-38.463C2258.347,1961.658,2364.633,1902.22,2401.356,1864.983z"/>
				</g>
				<g>
					<path style="fill:#512717;" d="M2404.493,1865.637c-62.355,30.577-128.959,54.716-198.779,62.398
						c-56.287,7.665-113.267-14.235-168.259-12.7c-15.615,1.065-33.309,4.472-41.538,19.164
						c-11.645,19.551-2.892,47.787,18.946,56.02c-0.001,0,38.591,16.402,38.591,16.402l-36.887,19.744
						c-25.957,12.172-40.855,51.456-14.78,70.362c7.348,5.407,17.824,8.273,29.162,9.086l50.449,3.613l-39.021,31.831
						c-26.491,19.471-23.807,69.067,14.661,68.953c12.904,0.356,29.14-6.472,42.104-13.851c3.708,0.736,8.792,1.868,12.771,2.368
						c31.412,4.201,67.851,0.831,89.931-23.904c50.599,3.388,102.19,4.729,153.113,2.557c48.923-1.912,97.085-7.418,145.896-14.737
						c-66.569,35.628-142.47,51.716-217.536,55.365c-25.85,0.998-50.412,0.75-76.46-2.864c0,0,16.135-5.296,16.135-5.296
						c-33.529,30.838-82.19,34.563-124.956,27.1c0,0,13.53-1.9,13.53-1.9c-15.811,8.257-33.87,15.09-54.656,15.161
						c-47.284,1.012-79.884-43.593-70.863-88.221c3.656-20.549,15.446-39.106,31.01-51.696l11.426,35.444
						c-63.084-2.255-101.016-61.66-68.791-118.397c9.06-15.712,22.771-28.146,38.142-36.318l1.704,36.145
						c-61.836-24.374-66.196-116.371-4.076-143.389c23.813-10.091,51.671-10.164,76.474-7.5
						c34.751,3.712,65.463,11.427,98.889,12.751c75.297,0.442,148.412-27.164,215.872-59.515
						C2386.695,1829.814,2404.493,1865.637,2404.493,1865.637L2404.493,1865.637z"/>
				</g>
			</g>
			<g>
				<g>
					<g>
						<path style="fill:#FFBA31;" d="M2677.6,676.356c-440.627-118.63-808.87,207.706-878.442,594.41
							c-48.888,271.733,206.824,507.865,523.823,576.96c379.836,82.792,674.565,6.541,780.272-237.855
							C3238.237,1297.785,3072.748,782.742,2677.6,676.356z"/>
					</g>
					<g>
						<path style="fill:#ED8100;" d="M3074.785,1566.071c1.5-3.468,2.922-6.988,4.344-10.508
							c-140.519,184.317-458.418,200.151-719.351,148.064c-157.289-31.397-415.98-112.83-511.948-293.707
							c54.9,183.928,253.475,330.694,487.231,381.646C2695.158,1870.056,2974.572,1797.767,3074.785,1566.071z"/>
					</g>
					<g>
						<path style="fill:#ED8100;" d="M2321.469,1269.288c54.423-120.624,140.318-160.071,211.297-148.605
							c70.103,11.325,118.585,119.261,113.725,246.968"/>
					</g>
					<g style="opacity:0.6;">
						<path style="fill:#FFFFFF;" d="M3079.242,1657.08c8.835-14.98,16.869-30.697,24.011-47.209
							c134.983-312.086-30.505-827.129-425.653-933.514c-440.627-118.63-808.87,207.706-878.442,594.41
							c-5.207,28.943-6.928,57.478-5.518,85.455c76.783-401.992,391.436-687.463,824.012-618.228
							C3090.505,813.673,3163.639,1404.958,3079.242,1657.08z"/>
					</g>
					<g>
						<path style="fill:#512717;" d="M2599.409,1900.071c-85.862,0.005-179.78-10.808-280.688-32.803
							c-163.133-35.559-308.491-113.047-409.295-218.191c-107.861-112.505-154.014-248.115-129.954-381.851
							c38.95-216.497,170.068-414.109,350.74-528.618c166.872-105.762,357.959-133.97,552.588-81.563
							c172.649,46.482,316.213,172.498,404.243,354.836c96.514,199.905,109.758,432.083,34.565,605.928
							C3041.643,1802.693,2856.992,1900.059,2599.409,1900.071z M2493.955,671.458c-120.532,0-236.614,33.936-342.329,100.938
							c-171.377,108.618-295.784,296.248-332.783,501.914c-27.856,154.832,49.585,274.207,119.456,347.085
							c95.364,99.468,233.491,172.908,388.943,206.792c383.169,83.513,659.338,1.055,757.654-226.255
							c69.641-161.011,56.345-385.791-33.872-572.659c-82.9-171.711-217.365-290.188-378.623-333.604
							C2612.325,679.495,2552.61,671.458,2493.955,671.458z"/>
					</g>
				</g>
				<g>
					<g>
						<path style="fill:#512717;" d="M2385.93,935.566c11.352-78.523-62.105-146.914-121.49-138.189
							c-73.774,10.839-79.367,95.128-79.367,95.128C2251.776,857.888,2329.454,866.289,2385.93,935.566z"/>
					</g>
					<g>
						<g>
							<path style="fill:#512717;" d="M2104.018,1278.654c-6.192-11.828-13.15-267.303,129.464-251.056
								c133.405,15.198,60.229,238.165,29.833,285.384C2263.315,1312.983,2200.764,1282.587,2104.018,1278.654z"/>
						</g>
						<g>
							<g>
								
									<ellipse transform="matrix(0.2482 -0.9687 0.9687 0.2482 580.907 3045.8589)" style="fill:#FFFFFF;" cx="2252.831" cy="1148.664" rx="33.002" ry="26.775"/>
							</g>
							<g style="opacity:0.4;">
								
									<ellipse transform="matrix(0.2482 -0.9687 0.9687 0.2482 493.9045 3015.5034)" style="fill:#FFFFFF;" cx="2189.769" cy="1189.541" rx="23.692" ry="19.222"/>
							</g>
						</g>
					</g>
				</g>
				<g>
					<g>
						<path style="fill:#512717;" d="M2750.213,1030.413c16.887-61.918,100.64-92.327,157.952-67.547
							c59.885,25.893,58.619,90.484,38.495,126.087C2910.917,1042.515,2849.844,992.136,2750.213,1030.413z"/>
					</g>
					<g>
						<g>
							<path style="fill:#512717;" d="M2672.1,1417.68c11.974-86.746,42.088-266.246,168.034-225.437
								c113.836,36.886,25.47,233.036-15.831,283.273C2824.303,1475.516,2759.289,1436.255,2672.1,1417.68z"/>
						</g>
						<g>
							<g>
								
									<ellipse transform="matrix(0.3142 -0.9494 0.9494 0.3142 669.7912 3504.5105)" style="fill:#FFFFFF;" cx="2760.445" cy="1288.678" rx="33.002" ry="26.775"/>
							</g>
							<g style="opacity:0.4;">
								
									<ellipse transform="matrix(0.3142 -0.9494 0.9494 0.3142 626.0594 3580.8923)" style="fill:#FFFFFF;" cx="2791.45" cy="1357.136" rx="23.692" ry="19.222"/>
							</g>
						</g>
					</g>
				</g>
				<g>
					<g>
						<g>
							<path style="fill:#512717;" d="M2326.139,1326.009c-20.938,150.007,56.185,239.586,93.29,247.273
								c33.261,6.891,152.525-36.839,194.002-165.644L2326.139,1326.009z"/>
						</g>
						<g>
							<path style="fill:#FFABAB;" d="M2441.096,1479.991c-25.373-48.102-70.696-43.73-104.451-11.939
								c20.737,63.596,59.583,100.422,82.785,105.229c19.3,3.998,67.551-9.098,112.765-45.919
								C2523.047,1486.911,2506.343,1449.999,2441.096,1479.991z"/>
						</g>
						<g>
							<path style="fill:#512717;" d="M2426.653,1589.907c-3.892,0-7.403-0.322-10.471-0.959
								c-48.467-10.042-127.551-109.958-105.891-265.151l2.542-18.203l320.906,91.179l-5.078,15.769
								C2588.567,1537.048,2476.48,1589.907,2426.653,1589.907z M2339.89,1346.55c-11.75,132.898,57.517,205.828,82.786,211.064
								c22.261,4.583,126.553-29.968,169.922-139.265L2339.89,1346.55z"/>
						</g>
					</g>
					<g>
						<g>
							<path style="fill:#FFBA31;" d="M2301.186,1321.071c8.926,15.77,52.517,28.862,82.717,45.822
								c31.635,17.766,52.573,40.847,71.113,45.822c21.349,5.728,52.524-6.574,77.659-6.844
								c41.656-0.446,87.478,13.092,103.248,5.653C2692.798,1353.644,2306.094,1252.848,2301.186,1321.071z"/>
						</g>
						<g>
							<path style="fill:#512717;" d="M2301.185,1321.071c13.24,7.564,28.112,8.889,42.295,14.022
								c14.151,4.821,28.663,9.689,43.245,16.523c21.652,9.869,39.531,24.99,58.159,38.052c12.028,8.345,17.774,9.554,31.995,8.069
								c14.589-1.545,29.441-5.147,44.927-6.116c23.735-1.025,48.076,4.408,70.381,10.395c14.693,3.396,28.398,10.033,43.738,9.508
								c-6.325,4.917-14.999,6.182-22.754,7.172c-29.681,3.225-59.264-1.53-88.299,2.578c-24.132,3.565-46.699,12.568-72.544,7.217
								c-19.027-5.251-30.113-15.924-44.258-26.216c-11.863-9.034-23.264-17.295-35.239-24.563
								C2351.144,1363.162,2308.436,1349.142,2301.185,1321.071L2301.185,1321.071z"/>
						</g>
					</g>
					<g>
						<g>
							<path style="fill:#FFFFFF;" d="M2432.342,1206.726c0,0,65.134-134.097,110.587-124.669
								c40.756,8.454,31.646,157.787,31.646,157.787L2432.342,1206.726z"/>
						</g>
						<g>
							<path style="fill:#D3E0DC;" d="M2574.576,1239.845c0,0,2.852-46.828-1.792-89.523c-23.195,41.099-82.94,33.055-96.945-16.987
								c-24.564,34.443-43.498,73.391-43.498,73.391L2574.576,1239.845z"/>
						</g>
						<g>
							<path style="fill:#512717;" d="M2594.539,1241.064l-39.927-2.432c3.801-62.739-4.014-128.997-16.101-137.056
								c-15.849-2.244-58.423,52.629-88.178,113.887l-35.982-17.476c16.875-34.744,76.328-147.224,132.642-135.513
								c36.079,7.483,44.097,60.762,46.99,100.183C2596.863,1201.938,2594.634,1239.485,2594.539,1241.064z"/>
						</g>
					</g>
					<g>
						<g>
							<path style="fill:#FFBA31;" d="M2290.052,1309.605c0,0,75.964-133.215,217.838-100.475
								c142.695,32.929,142.692,195.885,142.692,195.885L2290.052,1309.605z"/>
						</g>
						<g style="opacity:0.6;">
							<path style="fill:#FFFFFF;" d="M2650.582,1405.015c0,0,0.003-162.956-142.692-195.885
								c-141.874-32.739-217.837,100.476-217.837,100.476s79.973-68.734,188.936-55.594c1.049,14.016,16.674,30.693,39.534,40.552
								c23.316,10.055,46.612,9.756,57.25,0.364C2630.285,1339.899,2650.582,1405.015,2650.582,1405.015z"/>
						</g>
						<g style="opacity:0.6;">
							
								<ellipse transform="matrix(0.396 -0.9183 0.9183 0.396 309.3554 3072.0842)" style="fill:#FFFFFF;" cx="2489.834" cy="1300.895" rx="12.63" ry="23.125"/>
						</g>
						<g>
							<path style="fill:#512717;" d="M2290.052,1309.606c25.776-63.023,85.584-113.195,154.204-121.719
								c70.492-8.839,146.436,23.231,181.232,86.771c22.348,39.706,31.05,85.667,25.094,130.356
								c-8.982-41.172-23.912-81.632-48.792-114.878c-26.108-36.056-66.716-58.944-110.281-65.995
								C2413.859,1209.41,2340.372,1252.534,2290.052,1309.606L2290.052,1309.606z"/>
						</g>
						<g>
							<path style="fill:#512717;" d="M2412.691,1236.887c2.463-2.427,23.371,4.734,26.388,13.298
								c1.264,3.588-1.058,19.103-4.435,19.103C2430.422,1269.288,2410.229,1239.314,2412.691,1236.887z"/>
						</g>
						<g>
							<path style="fill:#512717;" d="M2584.051,1287.135c-0.28-3.446-20.792-11.675-28.669-7.159
								c-3.301,1.892-11.673,15.159-9.115,17.364C2549.465,1300.097,2584.331,1290.581,2584.051,1287.135z"/>
						</g>
					</g>
				</g>
			</g>
			<g>
				<g>
					<path style="fill:#512717;" d="M1886.756,1691.016c-2.405,0-4.841-0.107-7.314-0.322c-28.201-2.468-46.58-19.023-56.711-34.407
						c-22.034,2.539-41.45-1.426-57.886-11.841c-15.1-9.575-24.456-22.632-30.1-33.618c-25.266,5.981-48.657,0.935-66.191-14.749
						c-23-20.581-31.379-56.321-20.896-89.023c4.5-15.137,23.477-42.517,66.88-51.152c96.594-19.229,218.896,57.329,236.279,126.396
						c8.86,35.195,4.131,65.854-13.316,86.331C1925.078,1683.208,1907.254,1691.016,1886.756,1691.016z M1846.746,1610.374
						l5.898,17.17c0.742,1.995,8.53,21.396,30.283,23.301c10.605,0.925,18.723-1.816,24.126-8.157
						c8.564-10.051,10.422-28.975,4.973-50.625c-11.575-45.977-111.604-112.466-189.683-96.931
						c-28.171,5.605-35.43,21.145-36.387,23.523l-0.149,0.676l-0.005-0.232c-5.735,17.678-1.86,37.075,9.421,47.168
						c12.681,11.348,30.413,6.919,43.049,1.208l22.705-10.264l5.11,24.387c0.01,0.029,4.575,19.368,20.457,29.241
						c10.718,6.663,25.024,7.925,42.542,3.748L1846.746,1610.374z"/>
				</g>
				<g>
					<path style="fill:#FFBA31;" d="M1666.778,1512.929c-15.041,46.387,18.099,100.635,79.735,72.772
						c0,0,13.797,65.858,87.216,48.338c0,0,11.532,33.586,47.455,36.728c41.02,3.588,63.255-31.873,50.238-83.589
						c-13.894-55.202-122.843-129.603-212.983-111.663C1674.956,1484.171,1666.778,1512.929,1666.778,1512.929z"/>
				</g>
				<g style="opacity:0.6;">
					<path style="fill:#FFFFFF;" d="M1703.449,1509.73c90.14-17.941,199.088,56.461,212.983,111.663
						c3.425,13.609,4.35,26.048,3.193,36.99c14.517-14.286,19.728-39.695,11.797-71.204
						c-13.894-55.202-122.843-129.603-212.983-111.663c-43.483,8.654-51.661,37.413-51.661,37.413
						c-1.769,5.457-2.848,11.022-3.316,16.551C1671.18,1521.803,1683.613,1513.678,1703.449,1509.73z"/>
				</g>
				<g>
					<path style="fill:#ED8100;" d="M1902.574,1625.737c-35.923-3.143-47.455-36.728-47.455-36.728
						c-73.419,17.52-87.215-48.338-87.215-48.338c-51.961,23.489-83.667-11.378-83.33-50.696
						c-14.283,10.864-17.795,22.954-17.795,22.954c-15.041,46.387,18.099,100.635,79.735,72.772c0,0,13.797,65.858,87.216,48.338
						c0,0,11.532,33.586,47.455,36.728c32.081,2.807,52.578-18.333,53.803-52.391
						C1926.346,1624.171,1915.375,1626.857,1902.574,1625.737z"/>
				</g>
				<g>
					<path style="fill:#512717;" d="M1886.756,1691.016c-2.405,0-4.841-0.107-7.314-0.322c-28.201-2.468-46.58-19.023-56.711-34.407
						c-22.034,2.539-41.45-1.426-57.886-11.841c-15.1-9.575-24.456-22.632-30.1-33.618c-25.266,5.981-48.657,0.935-66.191-14.749
						c-23-20.581-31.379-56.321-20.896-89.023c4.5-15.137,23.477-42.517,66.88-51.152c96.594-19.229,218.896,57.329,236.279,126.396
						c8.86,35.195,4.131,65.854-13.316,86.331C1925.078,1683.208,1907.254,1691.016,1886.756,1691.016z M1846.746,1610.374
						l5.898,17.17c0.742,1.995,8.53,21.396,30.283,23.301c10.605,0.925,18.723-1.816,24.126-8.157
						c8.564-10.051,10.422-28.975,4.973-50.625c-11.575-45.977-111.604-112.466-189.683-96.931
						c-28.171,5.605-35.43,21.145-36.387,23.523l-0.149,0.676l-0.005-0.232c-5.735,17.678-1.86,37.075,9.421,47.168
						c12.681,11.348,30.413,6.919,43.049,1.208l22.705-10.264l5.11,24.387c0.01,0.029,4.575,19.368,20.457,29.241
						c10.718,6.663,25.024,7.925,42.542,3.748L1846.746,1610.374z"/>
				</g>
				<g>
					<path style="fill:#512717;" d="M1767.62,1533.564c1.205,21.451,1.769,41.144-4.326,63.02c0,0-33.562-21.765-33.562-21.765
						C1744.236,1565.149,1757.034,1548.377,1767.62,1533.564L1767.62,1533.564z"/>
				</g>
				<g>
					<path style="fill:#512717;" d="M1860.006,1571.904c2.593,26.063,3.708,54.502-13.312,77.366
						c-0.001,0-25.928-30.459-25.928-30.459c8.043-1.508,15.851-10.203,21.372-17.195
						C1848.949,1592.817,1854.932,1582.636,1860.006,1571.904L1860.006,1571.904z"/>
				</g>
			</g>
		</g>
	</g>
</g>
</svg>
