<?xml version="1.0" encoding="UTF-8"?>
<svg xmlns="http://www.w3.org/2000/svg" version="1.1" viewBox="0 0 4000 4000">
  <!-- Generator: Adobe Illustrator 28.7.7, SVG Export Plug-In . SVG Version: 1.2.0 Build 194)  -->
  <g>
    <g id="Layer_1">
      <g>
        <rect x="1.997" y="1.997" width="3996.005" height="3996.005" style="fill: #66feff;"/>
        <g>
          <g style="opacity: .2;">
            <ellipse cx="1955.289" cy="3395.187" rx="977.699" ry="170.032" style="fill: #3a3a3a;"/>
          </g>
          <g>
            <g>
              <path d="M2597.43,2609.071s261.651-152.196,290.84-460.757c29.188-308.561-680.711,125.092-680.711,125.092l151.996,277.288,237.876,58.376Z" style="fill: #6fea1f;"/>
              <path d="M2220.86,2265.438l81.483,180.884,15.128,27.598,229.423,75.731s272.739-131.296,325.936-436.635c2.44-14.002,3.192-26.556,2.437-37.791-88.021-136.93-568.146,139.084-654.407,190.213Z" style="fill: #4cc100;"/>
              <path d="M2607.476,2626.341l-20.092-34.541,10.046,17.27-10.063-17.261c2.529-1.478,253.18-151.136,281.011-445.375,3.602-38.08-4.905-62.999-26.007-76.181-103.012-64.364-459.092,121.546-608.076,210.361l142.782,260.475-35.043,19.209-161.16-294.003,16.27-9.939c1.271-.775,128.77-78.41,271.916-144.175,197.237-90.613,329.958-116.124,394.479-75.823,34.704,21.68,49.716,59.979,44.623,113.836-15.592,164.835-96.386,285.437-161.416,357.584-70.347,78.044-136.49,116.944-139.27,118.561Z" style="fill: #3a3a3a;"/>
            </g>
            <g>
              <path d="M2664.667,2993.209c59.419-15.115,162.099-15.115,182.948-6.776,20.849,8.339,72.472,75.623,62.025,194.935-9.903,113.104-67.758,152.717-115.267,162.215-45.954,9.187-269.913,15.521-349.855,8.875l220.149-359.25Z" style="fill: #6fea1f;"/>
              <g style="opacity: .5;">
                <path d="M2847.614,2986.433c-20.849-8.339-123.529-8.339-182.947,6.776l-22.913,37.39c70.991-5.383,131.884-4.288,131.884-4.288l-37.564,135.332s43.001-138.724,99.409-131.015c31.693,4.331,74.156,150.742,74.156,150.742,10.447-119.313-41.176-186.597-62.025-194.936Z" style="fill: #fff;"/>
              </g>
              <path d="M2835.423,3232.482c-84.755-11.173-86.992-148.313-86.992-148.313,0,0-44.673,161.831-155.171,38.547l-148.743,229.743c79.942,6.645,303.9.312,349.854-8.875,47.509-9.498,105.364-49.11,115.267-162.214,4.659-53.206-3.037-96.033-14.832-127.933h0s27.341,190.479-59.385,179.046Z" style="fill: #4cc100;"/>
              <path d="M2543.121,3375.189c-40.623,0-76.786-.868-100.261-2.819l3.312-39.824c81.393,6.766,301.339.029,344.282-8.556,32.933-6.583,89.625-34.094,99.281-144.365,9.639-110.073-36.367-168.757-49.589-174.662-14.473-5.771-112.366-7.193-170.554,7.607l-9.849-38.726c60.804-15.463,168.311-16.758,195.291-5.963,31.451,12.58,85.593,88.627,74.511,215.229-12.375,141.311-95.912,172.998-131.255,180.064-35.187,7.034-157.933,12.014-255.167,12.014Z" style="fill: #3a3a3a;"/>
              <path d="M2804.579,3357.663c-14,0-27.931-4.263-40.116-12.644-27.309-18.78-58.223-65.364-50.409-180.64,6.512-96.044,44.577-176.008,92.566-194.461,25.314-9.734,51.85-2.924,74.698,19.182l-27.785,28.717c-15.334-14.834-25.938-13.163-32.572-10.6-28.365,10.907-61.196,73.686-67.04,159.865-7.144,105.373,20.826,136.514,33.185,145.011,12.617,8.678,24.204,5.485,29.99,2.805l16.79,36.262c-9.397,4.351-19.37,6.502-29.307,6.502Z" style="fill: #3a3a3a;"/>
            </g>
            <g>
              <path d="M1424.257,3008.208c-41.526-19.169-107.46-78.067-113.454-123.673-6.158-46.854,82.483-78.574,175.291-77.985-77.562-21.699-181.284-132.855-148.709-195.655,37.919-73.101,208.405-55.96,208.405-55.96,0,0-218.624-51.932-259.224-144.97-34.552-79.177,91.083-194.675,91.083-194.675,0,0-224.965-19.762-263.085-143.074-41.176-133.2,137.081-269.655,283.021-301.227,437.149,575.812,791.759,1120.131,26.671,1237.218Z" style="fill: #fff033;"/>
              <path d="M1430.026,2978.354c36.641,11.731,94.761-17.817,133.383-30.067-11.45-28.197-26.418-54.598-44.212-64.225-4.986-.027-10.109,1.004-15.371,3.34-54.869,24.358-132.464,11.602-163.629-11.576-.07,1.576-.045,3.168.168,4.792,4.737,36.043,56.844,82.588,89.661,97.737Z" style="fill: #f4b019;"/>
              <g style="opacity: .7;">
                <path d="M1545.791,2843.098l-19.464-45.345-40.233,8.798c-92.808-.589-181.449,31.13-175.291,77.985,4.312,32.81,39.647,72.498,74.598,99.325-.002-.003-.002-.004-.005-.006-20.908-24.002-56.046-90.54-43.693-106.95,27.997-37.193,204.087-33.806,204.087-33.806Z" style="fill: #fff;"/>
              </g>
              <g style="opacity: .7;">
                <path d="M1625.302,2600.573l-4.634-50.399s-71.624,5.566-74.877,4.762c0,0-170.487-17.141-208.405,55.96-21.423,41.3,16.105,103.508,66.37,147.438-30.771-36.133-49.465-103.768-41.153-122.028,6.793-14.922,23.311-25.004,44.94-31.661-.124.879-.177,1.767-.14,2.661.614,14.776,23.495,25.824,51.106,24.676,27.611-1.148,49.496-14.056,48.882-28.833-.151-3.645-1.668-7.059-4.267-10.124,62.709-.684,122.179,7.548,122.179,7.548Z" style="fill: #fff;"/>
              </g>
              <g style="opacity: .7;">
                <path d="M1475.391,2651.453c.258,6.196-7.56,11.553-17.461,11.964-9.901.412-18.136-4.278-18.394-10.474-.257-6.196,7.56-11.553,17.461-11.965,9.901-.411,18.136,4.278,18.394,10.474Z" style="fill: #fff;"/>
              </g>
              <path d="M1840.652,2613.696c-107.174-27.672-240.088-50.049-265.559.278-36.5,72.12-160.266,96.884-212.491,37.685,17.798,52.179,82.177,110.719,133.694,125.132l304.609,9.756c33.459-49.905,45.135-108.123,39.746-172.85Z" style="fill: #f4b019;"/>
              <g>
                <path d="M1545.791,2554.935s-.097-.01-.237-.023l.237.023Z" style="fill: #f4b019;"/>
                <path d="M1832.393,2464.099c-1.666-5.068-3.428-10.173-5.232-15.293-20.41-52.653-47.008-107.666-78.49-164.544-66.855-71.392-131.387-122.067-140.124-63.498-15.891,106.514-212.846,215.956-290.754,165.747.244.61.466,1.224.73,1.83,37.517,85.972,239.537,133.96,239.537,133.96l274.333-58.202Z" style="fill: #f4b019;"/>
              </g>
              <g style="opacity: .7;">
                <path d="M1377.649,2215.291s-125.634,115.498-91.083,194.675c14.248,32.649,50.426,60.228,91.379,82.285-.383-.405-44.516-54.862-55.675-90.625-16.549-53.034,135.256-175.65,135.256-175.65l9.639-53.686-89.515,43Z" style="fill: #fff;"/>
              </g>
              <path d="M1394.394,2199.654l222.174-120.399c-61.687-91.362-131.656-185.883-204.146-281.368-131.97,28.55-293.162,151.942-255.927,272.39.94,3.041,2.048,5.987,3.232,8.891,27.486-25.164,86.421-42.789,155.506-27.799,87.207,18.923,75.641,110.062,66.89,147.65,8.185.587,12.27.636,12.27.636Z" style="fill: #f4b019;"/>
              <path d="M1415.884,3026.349c-40.728-18.8-117.295-81.398-124.89-139.211-2.18-16.583,3.18-32.724,15.497-46.677,20.07-22.734,59.416-39.814,107.812-48.179-39.541-28.234-75.181-68.501-92.205-107.7-13.548-31.194-14.395-59.857-2.449-82.886,19.57-37.728,64.811-55.301,110.024-63.072-64.762-26.026-137.628-66.15-161.421-120.665-28.831-66.069,29.338-145.863,67.508-188.393-69.891-12.417-208.795-49.574-240.287-151.448-13.834-44.753-6.622-93.256,20.86-140.27,49.818-85.232,163.738-161.877,277.028-186.386l8.449,39.058c-101.537,21.965-207.088,92.405-250.977,167.494-21.99,37.616-27.77,74.054-17.18,108.302,33.763,109.222,243.626,128.887,245.743,129.073l45.114,3.963-33.341,30.651c-31.999,29.485-109.9,117.875-86.293,171.974,29.992,68.723,187.41,119.685,245.536,133.521l-6.612,39.319c-40.738-4.041-162.887-4.444-188.679,45.279-7.856,15.146-2.363,34.772,3.629,48.567,21.468,49.431,83.491,104.873,132.726,118.649l143.582,40.17-149.092-.949c-65.806-.402-128.497,16.561-149.519,40.375-6.095,6.902-6.249,11.88-5.837,15.024,4.519,34.392,60.813,89.117,102.017,108.137l-16.746,36.282Z" style="fill: #3a3a3a;"/>
            </g>
            <g>
              <g>
                <path d="M1020.499,3194.879c4.472-46.247,20.962-115.816,47.582-127.616,25.96-11.508,87.92,24.847,120.366,58.466,0,0,3.546-129.828,48.864-152.847,49.255-25.018,163.26,49.303,163.26,49.303,270.945,221.939-132.838,164.96-380.073,172.695Z" style="fill: #fff033;"/>
                <g style="opacity: .7;">
                  <path d="M1068.081,3067.263c-24.565,10.889-40.496,70.963-46.324,116.517.079-.246,9.986,2.909,16.579-13.292,10.852-26.668,25.91-75.127,40.264-76.228,33.13-2.541,110.053,79.551,110.053,79.551l-.207-48.082c-32.446-33.619-94.406-69.974-120.366-58.465Z" style="fill: #fff;"/>
                </g>
                <path d="M1163.184,3136.717c-62.891,12.07-88.11,2.365-96.853-18.197-7.879,24.347-13.063,52.825-15.321,75.739,14.435-.173,29.211-.206,44.27-.12,26.097-.139,53.232.151,80.656.56,7.904-28.425,12.04-62.74-12.753-57.982Z" style="fill: #f4b019;"/>
                <g style="opacity: .7;">
                  <path d="M1422.926,3041.218c-6.877-6.107-14.308-12.444-22.354-19.034,0,0-114.005-74.321-163.26-49.303-40.069,20.353-47.478,124.142-48.657,147.927.033-.153,24.313-113.641,60.906-122.908,40.134-10.164,136.302,65.158,136.302,65.158,0,0,17.504-10.22,37.064-21.84Z" style="fill: #fff;"/>
                </g>
                <path d="M1447.947,3179.192c-.363-51.67-12.09-149.617-97.888-129.684-70.376,16.35-98.233-8.857-108.568-37.859-19.226,46.286-21.182,116.919-21.182,116.919,0,0,10.544,32.103,22.431,67.461,83.37.575,159.888-1.683,205.207-16.838Z" style="fill: #f4b019;"/>
                <path d="M1040.386,3196.803l-39.775-3.849c1.217-12.58,13.219-123.497,59.374-143.958,29.838-13.229,76.801,10.219,111.432,35.814,5.161-44.994,19.119-110.58,56.845-129.743,56.677-28.782,162.569,36.916,183.223,50.379l-21.816,33.48c-43.37-28.224-116.507-61.847-143.309-48.231-23.685,12.029-36.641,88.013-37.938,135.58l-1.297,47.574-33.053-34.246c-33.972-35.204-85.874-59.43-97.89-54.077-12.095,5.361-30.365,55.138-35.794,111.275Z" style="fill: #3a3a3a;"/>
              </g>
              <g>
                <path d="M1725.953,3337.604c-41.046,14.855-503.497,85.61-720.323-56.682-21.684-14.23-30.577-28.313-31.405-42-1.432-23.674,22.411-35.305,64.763-51.298,74.534-28.146,372.671-151.674,443.557-222.039l243.409,372.019Z" style="fill: #6fea1f;"/>
                <path d="M1725.953,3337.604c-41.046,14.855-503.497,85.61-720.323-56.682-21.684-14.23-30.577-28.313-31.405-42-1.432-23.674,22.411-35.305,64.763-51.298,74.534-28.146,372.671-151.674,443.557-222.039l243.409,372.019Z" style="fill: #6fea1f;"/>
                <g style="opacity: .5;">
                  <path d="M1720.352,3339.29c2.316-.618,4.217-1.186,5.601-1.687l-59.958-91.638,54.357,93.325Z" style="fill: #fff;"/>
                  <path d="M1513.281,3012.546c-29.89,25.055-78.681,52.228-136.184,79.361-57.422,27.093-123.517,54.186-188.132,79.201-48.072,18.581-95.265,36.004-137.463,51.428-36.883,13.467-64.455,19.261-62.218,45.475-9.99-9.83-14.465-19.581-15.065-29.091-1.439-23.656,22.417-35.285,64.775-51.309,22.657-8.551,65.974-25.934,117.283-47.912,55.185-23.656,119.6-52.707,177.502-81.878,65.455-33.007,122.597-66.214,148.772-92.228l30.729,46.953Z" style="fill: #fff;"/>
                  <path d="M1274.919,3182.416c-33.007,3.956-63.696-.72-85.954-11.309-16.104-7.673-27.772-18.462-32.687-31.409,55.185-23.656,119.6-52.707,177.502-81.878,21.059,7.273,36.763,19.181,43.317,34.086,1.638,3.637,2.677,7.433,3.157,11.389,4.316,36.244-42.837,71.648-105.335,79.121Z" style="fill: #fff;"/>
                  <ellipse cx="1302.5" cy="3209.413" rx="35.566" ry="20.627" transform="translate(-371.325 177.063) rotate(-6.809)" style="fill: #fff;"/>
                </g>
                <path d="M1019.953,3236.32c189.67,124.471,570.629,83.02,680.382,62.129l-163.621-250.073c-2.127,3.552-5.132,6.957-6.218,11.288-63.332,252.53-346.35,220.475-510.544,176.656Z" style="fill: #4cc100;"/>
                <path d="M1414.813,3388.462c-147.287,0-312.507-20.2-420.146-90.837-25.502-16.736-39.092-36.08-40.385-57.499-2.48-40.941,40.089-57.013,77.647-71.196,89.932-33.96,371.969-153.433,436.539-217.527l28.15,28.36c-75.389,74.837-379.369,199.664-450.572,226.551-38.819,14.658-52.394,22.873-51.877,31.399.612,10.146,12.531,20.012,22.421,26.502,110.012,72.196,286.306,85.498,414.881,83.998,146.926-1.749,270.396-23.143,287.681-29.397l13.6,37.575c-25.951,9.39-161.877,32.07-317.939,32.07Z" style="fill: #3a3a3a;"/>
              </g>
            </g>
            <g>
              <polygon points="3291.953 1636.739 2138.373 1687.338 2170.031 717.694 2537.49 645.382 3291.953 1345.117 3291.953 1636.739" style="fill: #fff;"/>
              <path d="M2329.683,686.276l-159.652,31.417-28.206,863.929c298.629,6.389,1004.058,20.409,1016.436,10.552,14.483-11.533-620.297-561.701-828.578-905.898Z" style="fill: #bcd5e2;"/>
              <path d="M2138.372,1707.318c-5.249,0-10.3-2.066-14.048-5.773-3.956-3.912-6.102-9.297-5.922-14.858l31.658-969.646c.305-9.3,6.985-17.156,16.112-18.953l367.46-72.31c6.283-1.227,12.758.61,17.446,4.956l754.463,699.735c4.076,3.78,6.393,9.088,6.393,14.649v291.623c0,10.695-8.419,19.492-19.104,19.96l-1153.581,50.599c-.293.012-.585.019-.876.019ZM2189.481,734.229l-30.436,932.203,1112.928-48.816v-263.779l-740.61-686.886-341.882,67.279Z" style="fill: #3a3a3a;"/>
              <path d="M2383.356,730.374c347.255,346.402,745.195,768.763,908.597,906.365l35.964-69.192,36.16-75.251-3.323-56.487-812.318-769.839s-182.401,24-165.08,64.404Z" style="fill: #fff;"/>
              <path d="M2548.435,665.971s-182.401,23.999-165.08,64.403c21.642,21.589,43.481,43.473,65.447,65.564,75.56-1.592,96.398-31.39,96.398-31.39l794.34,778.809,24.535-51.061-3.323-56.487-812.318-769.839Z" style="fill: #bcd5e2;"/>
              <path d="M3291.953,1656.719c-4.668,0-9.236-1.636-12.87-4.697-107.127-90.213-317.463-305.139-540.148-532.685-122.229-124.895-248.621-254.045-369.689-374.816-1.807-1.802-3.251-3.932-4.254-6.273-4.249-9.91-3.602-20.607,1.815-30.124,21.329-37.472,132.302-55.816,179.023-61.964,5.978-.78,11.983,1.168,16.351,5.307l812.318,769.841c3.685,3.493,5.905,8.258,6.202,13.329l3.322,56.486c.2,3.388-.468,6.768-1.936,9.827l-36.158,75.252c-.09.188-.185.376-.28.561l-35.965,69.191c-2.8,5.383-7.893,9.205-13.841,10.383-1.293.256-2.595.383-3.888.383ZM2405.378,724.129c118.824,118.661,242.46,244.994,362.113,367.26,209.407,213.975,407.856,416.756,518.371,513.744l24.182-46.523,33.782-70.303-2.556-43.431-799.611-757.8c-61.377,8.871-119.678,24.851-136.282,37.053Z" style="fill: #3a3a3a;"/>
              <path d="M2487.222,704.243c71.437,86.968,146.996,171.138,226.96,250.482-22.234-17.451-44.411-35.065-66.135-53.226-65.545-54.535-128.884-111.129-190.371-170.355,0,0,29.546-26.902,29.546-26.902h0Z" style="fill: #3a3a3a;"/>
              <path d="M3023.785,1285.698c102.5,93.999,204.692,189.341,311.607,278.121,0,0-26.584,29.835-26.584,29.835-25.28-24.899-49.326-50.235-73.315-75.732-71.68-76.431-141.903-154.151-211.707-232.224h0Z" style="fill: #3a3a3a;"/>
              <path d="M2828.851,1049.586c101.007,89.027,197.118,185.148,292.048,280.575-55.719-38.668-106.086-84.211-154.939-131.05-48.247-47.465-95.107-96.318-137.109-149.526h0Z" style="fill: #3a3a3a;"/>
            </g>
            <g>
              <path d="M2524.981,2374.002s186.075,253.312,172.002,542.588-216.958,423.868-252.465,435.869c-14.073,4.756-151.74,29.579-241.129,5.342-21.128-5.729-564.218-116.753-564.218-116.753,0,0-171.117-82.571-172.002-279.112-.54-120.01,57.855-351.041,125.874-433.132,156.782-312.199,561.387-204.663,931.938-154.802Z" style="fill: #6fea1f;"/>
              <g style="opacity: .5;">
                <path d="M1578.044,3198.673c-157.593-391.023,171.885-809.074,171.885-809.074l-29.602-5.246c-51.428,32.907-94.718,79.599-127.285,144.45-68.019,82.092-126.414,313.121-125.874,433.132.528,117.263,61.65,193.946,110.876,236.737Z" style="fill: #fff;"/>
              </g>
              <path d="M2696.982,2916.59c.643-13.223.859-26.369.703-39.421-72.845,372.364-504.607,149.816-504.607,149.816l-158.901,295.2c90.007,18.609,161.794,33.605,169.212,35.616,89.389,24.237,227.056-.586,241.129-5.342,35.507-12.001,238.392-146.593,252.465-435.869Z" style="fill: #4cc100;"/>
              <path d="M1656.843,2436.801c196.821,90.8,496.543,176.335,821.595,109.937,47.505-9.704,87.947-24.627,122.386-42.74-39.406-80.37-75.844-129.996-75.844-129.996-327.78-44.106-682.167-133.277-868.138,62.799Z" style="fill: #4cc100;"/>
              <path d="M2629.745,2833.455c-18.373-123.268-77.551-310.423-256.44-316.557-124.05-4.253-270.512,115.107-290.852,354.234-18.889,222.067,80.541,448.098,195.395,496.759,76.765,2.846,156.163-11.882,166.67-15.432,15.137-5.116,60.698-32.534,109.078-84.698h0c91.265-128.089,95.244-306.195,76.15-434.305Z" style="fill: #fffb71;"/>
              <path d="M2553.595,3267.761c52.622-73.854,76.189-164.33,83.084-252.269-141.393,167.205-443.6,11.494-443.6,11.494l-72.121,133.983c36.8,101.88,94.57,180.519,156.891,206.923,76.765,2.846,156.163-11.882,166.67-15.432,15.137-5.116,60.698-32.534,109.078-84.698Z" style="fill: #f4d437;"/>
              <g style="opacity: .5;">
                <path d="M2444.517,3352.459c35.507-12.001,238.392-146.593,252.465-435.869,14.073-289.276-172.002-542.588-172.002-542.588-24.711-3.325-68.889-8.813-93.819-12.509,479.858,653.999,13.356,990.966,13.356,990.966Z" style="fill: #fff;"/>
              </g>
              <path d="M2224.201,2570.176c81.935,1.197,167.163-5.654,254.219-23.435-29.383-17.491-64.093-28.436-105.114-29.843-49.276-1.689-102.066,16.2-149.105,53.278Z" style="fill: #f4d437;"/>
              <path d="M2297.888,3388.148c-34.455,0-69.647-2.905-99.729-11.061-15.053-4.083-344.934-71.886-562.992-116.463l-2.439-.498-2.241-1.083c-7.446-3.593-182.367-90.371-183.298-297.018-.568-126.487,60.747-361.823,130.47-445.97l30.77,25.497c-63.099,76.149-121.814,301.332-121.28,420.293.768,170.752,140.204,250.377,158.699,260.174,45.945,9.395,541.831,110.822,562.77,116.5,81.62,22.129,214.076.027,229.524-4.997,29.116-9.839,225.314-138.994,238.885-417.903,13.549-278.533-166.335-527.315-168.152-529.795l32.209-23.651c7.771,10.578,190.108,262.396,175.855,555.387-14.68,301.776-227.478,440.8-266.023,453.826-11.763,3.976-80.769,16.761-153.026,16.761Z" style="fill: #3a3a3a;"/>
              <path d="M2183.583,2700.806c88.786-5.209,185.672.913,274.108-3.762,30.085-1.66,59.879-4.492,91.786-7.706-97.242,68.765-261.297,60.348-365.894,11.468h0Z" style="fill: #eaa00c;"/>
              <path d="M2143.969,2932.225c36.912,13.02,75.248,14.379,113.646,16.966,94.926,3.705,190.856,2.452,284.106-16.907,18.682-4.111,37.097-9.428,55.708-16.738-6.97,7.18-14.693,13.757-22.941,19.536-89.148,59.277-218.313,64.801-320.904,45.162-38.562-8.774-80.309-19.929-109.615-48.02h0Z" style="fill: #eaa00c;"/>
              <path d="M2207.558,3130.811c106.111,4.417,211.785,22.437,315.712-4.216,14.534-3.952,28.904-9.071,43.928-15.069-9.666,12.902-22.112,23.753-35.741,32.919-91.402,58.412-234.345,40.949-323.9-13.634h0Z" style="fill: #dd7e00;"/>
            </g>
            <g>
              <path d="M1915.155,3078.167c111.02-39.091,247.841-61.527,286.149-60.983,41.241.586,139.426,35.355,146.202,195.717,7.036,166.529-89.65,182.948-147.765,185.293-46.871,1.892-388.568,27.364-532.424-47.691-113.457-59.195-208.748-210.312-200.148-388.568l447.987,116.232Z" style="fill: #6fea1f;"/>
              <g style="opacity: .5;">
                <path d="M2129.812,3093.806l-23.417,89.093s47.87-91.29,110.756-104.678c63.619-13.545,127.691,107.026,128.254,108.089-15.896-137.642-105.25-168.573-144.101-169.125-38.308-.545-175.129,21.891-286.149,60.983l-115.189,33.358,329.845-17.72Z" style="fill: #fff;"/>
              </g>
              <path d="M1667.316,3350.503c143.856,75.056,485.553,49.583,532.424,47.692,58.116-2.345,154.802-18.763,147.765-185.293-1.634-38.659-8.613-69.957-18.793-95.299.291,5.011,9.645,178.106-90.924,175.024-102.046-3.127-123.704-151.673-123.704-151.673,0,0-49.34,151.673-283.367,143.093-319.499-11.713-353.907-261.534-363.55-322.112-8.6,178.256,86.69,329.373,200.148,388.568Z" style="fill: #4cc100;"/>
              <g style="opacity: .5;">
                <path d="M1467.168,2961.936c-8.6,178.256,86.69,329.373,200.148,388.568-95.418-119.74-130.62-248.146-131.932-370.869l-68.215-17.698Z" style="fill: #fff;"/>
              </g>
              <path d="M1915.155,3078.168c67.89-38.132,143.101-60.309,219.466-74.036,25.072-3.907,50.509-8.477,76.301-6.858,70.279,7.29,123.187,62.926,143.884,127.847,2.14,4.848,4.769,17.314,6.362,22.487,2.515,8.489,4.132,21.505,5.8,30.277,14.835,105.457-8.311,221.389-130.706,240.964-17.779,3.623-41.794,3.621-59.805,4.984-151.83,7.291-385.172,15.877-521.623-52.417-107.913-59.268-176.877-172.648-199.947-291.13-7.558-39.326-9.941-79.511-7.675-119.315l39.914,1.924c-1.893,73.113,13.714,146.418,46.472,211.1,39.99,79.077,106.169,149.103,192.949,173.628,126.618,34.745,259.695,32.754,390.447,29.772,27.421-.723,57.95-2.459,85.557-3.638,65.306-1.757,106.613-31.054,118.179-97.075,13.266-85.797-2.489-204.354-96.611-234.977-9.264-2.674-19.244-4.49-28.854-4.034-93.65,7.348-186.458,27.078-280.111,40.494h0Z" style="fill: #3a3a3a;"/>
              <path d="M2230.914,3415.166c-39.516,0-131.117-17.239-143.348-174.128-7.314-93.8,20.648-179.247,71.24-217.688,27.924-21.219,61.255-26.375,93.852-14.507l-13.668,37.55c-19.948-7.266-38.792-4.31-56.008,8.773-39.428,29.963-61.764,103.41-55.577,182.764,6.905,88.544,43.64,137.277,103.444,137.277.166,0,.322-.003.488-.003l.176,39.96h-.598Z" style="fill: #3a3a3a;"/>
            </g>
            <g>
              <path d="M1785.422,1314.371s11.736-114.817,48.091-135.453c33.543-19.04,94.694,31.33,94.694,31.33,0,0-33.717,13.851-58.964,30.346-18.027,11.777-83.821,73.778-83.821,73.778Z" style="fill: #3a3a3a;"/>
              <path d="M2288.869,865.076c321.83-5.963,576.988,260.522,629.631,594.362,80.268,13.899,187.237,68.394,215.524,212.483,47.17,240.282-91.84,582.687-639.795,739.087-514.963,146.983-852.537,26.582-966.729-108.935-64.898-466.939,276.02-949.236,761.369-1436.998Z" style="fill: #6fea1f;"/>
              <path d="M2348.288,1615.63c44.878,6.084,162.722-25.8,173.956-57.464,9.091-25.621-60.976-76.742-119.317-69.885-69.104,8.121-113.277,119.4-54.64,127.35Z" style="fill: #4cc100;"/>
              <path d="M3096.68,1726.568c-152.924,392.177-866.34,642.235-1488.522,428.001,0,0,585.814-864.132,738.254-1294.899-23.632-2.726-47.727-3.92-72.226-3.466-467.646,469.971-796.129,934.676-733.598,1384.583,110.027,130.574,435.287,246.584,931.467,104.961,460.538-131.449,621.246-399.257,624.625-619.18Z" style="fill: #4cc100;"/>
              <circle cx="2109.643" cy="2026.956" r="165.929" transform="translate(-815.374 2085.424) rotate(-45)" style="fill: #ff8383;"/>
              <path d="M3047.026,1517.954c-42.358,29.613-70.376,80.795-70.376,139.016,0,91.64,69.358,165.929,154.915,165.929,2.358,0,4.699-.079,7.032-.191,6.72-52.734,4.665-103.724-4.573-150.787-13.993-71.279-47.252-120.606-86.998-153.967Z" style="fill: #ff8383;"/>
              <path d="M3086.743,1815.818c6.267-30.301,9.491-60.195,9.938-89.249-10.24,26.261-23.071,51.861-38.142,76.75,8.915,5.115,18.353,9.314,28.204,12.499Z" style="fill: #f74f4f;"/>
              <g style="opacity: .5;">
                <path d="M3134.024,1671.921c-28.286-144.089-135.256-198.584-215.524-212.483-52.643-333.84-307.801-600.326-629.631-594.362-22.275,22.386-75.263,77.043-96.904,99.404,309.561-9.755,594.542,82.218,673.841,494.98l-45.93,8.154c238.646,68.264,306.866,174.675,303.801,428.38,22.069-78.544,23.814-155.472,10.347-224.074Z" style="fill: #fff;"/>
              </g>
              <path d="M2049.474,2498.112c-67.357,0-131.729-5.295-192.359-15.956-152.194-26.76-277.903-87.705-344.897-167.208l-3.715-4.412-.795-5.712c-31.289-225.131,26.543-461.755,176.806-723.39,125.514-218.544,318.568-457.475,590.191-730.449l5.705-5.734,8.088-.151c158.14-2.949,310.793,59.369,430.066,175.411,111.858,108.834,188.735,258.282,217.388,422.076,56.64,12.97,185.269,60.391,217.68,225.487,27.602,140.614-7.953,288.537-100.12,416.525-111.219,154.445-302.722,273.959-553.802,345.624-157.86,45.057-310.422,67.891-450.236,67.891ZM1546.503,2293.524c125.148,142.184,470.953,232.79,942.242,98.273,242.346-69.174,426.427-183.476,532.339-330.553,85.642-118.924,118.787-255.821,93.334-385.474-29.738-151.484-149.301-187.984-199.327-196.644l-14.097-2.441-2.229-14.134c-53.04-336.356-304.271-577.591-599.469-577.591-.676,0-1.349.002-2.022.005-571.433,575.604-803.274,1010.555-750.77,1408.56Z" style="fill: #3a3a3a;"/>
              <ellipse cx="2533.87" cy="1684.244" rx="28.427" ry="35.459" transform="translate(-480.166 1268.598) rotate(-25.76)" style="fill: #3a3a3a;"/>
              <ellipse cx="2766.333" cy="1611.348" rx="28.427" ry="35.459" transform="translate(-425.384 1362.387) rotate(-25.76)" style="fill: #3a3a3a;"/>
              <path d="M2461.081,1841.578s51.781,226.339,228.083,199.366c119.369-18.263,96.165-217.843,96.165-258.785l-324.248,59.419Z" style="fill: #3a3a3a;"/>
              <path d="M2735.193,2020.492c-20.029-81.473-165.641-127.572-214.907-53.188,35.535,46.687,89.617,85.766,168.878,73.639,18.595-2.845,33.727-10.092,46.029-20.452h0Z" style="fill: #ffa1a1;"/>
              <path d="M2660.616,2063.154c-66.928,0-124.648-34.397-168.304-100.803-36.541-55.582-50.148-113.863-50.709-116.317l38.95-8.931c1.966,8.5,49.916,207.932,205.588,184.091,88.737-13.575,82.266-163.355,79.83-219.739-.349-8.066-.624-14.436-.624-19.297h39.96c0,4,.271,10.287.585,17.57,2.861,66.179,10.456,241.97-113.707,260.967-10.729,1.641-21.261,2.459-31.57,2.459Z" style="fill: #3a3a3a;"/>
              <g>
                <ellipse cx="2629.47" cy="1323.517" rx="148.092" ry="174.78" transform="translate(-313.669 1262.339) rotate(-25.527)" style="fill: #3a3a3a;"/>
                <ellipse cx="2577.884" cy="1282.952" rx="48.942" ry="57.762" transform="translate(-301.224 1236.149) rotate(-25.527)" style="fill: #fff;"/>
                <g style="opacity: .4;">
                  <ellipse cx="2684.908" cy="1354.89" rx="30.878" ry="36.442" transform="translate(-321.777 1289.297) rotate(-25.527)" style="fill: #fff;"/>
                </g>
              </g>
              <path d="M2651.852,1065.57s-83.234-78.623-123.913-70.557c-37.533,7.442-50.81,84.907-50.81,84.907,0,0,34.3-11.451,63.952-15.428,21.172-2.839,110.771,1.079,110.771,1.079Z" style="fill: #3a3a3a;"/>
              <g>
                <ellipse cx="1972.934" cy="1503.225" rx="153.761" ry="181.471" transform="translate(-326.225 572.623) rotate(-15.269)" style="fill: #3a3a3a;"/>
                <ellipse cx="1985.964" cy="1436.346" rx="50.816" ry="59.973" transform="translate(-308.153 573.693) rotate(-15.269)" style="fill: #fff;"/>
                <g style="opacity: .4;">
                  <ellipse cx="1950.641" cy="1565.493" rx="32.06" ry="37.837" transform="translate(-343.414 568.958) rotate(-15.269)" style="fill: #fff;"/>
                </g>
              </g>
              <path d="M2424.907,1828.808c86.001,96.425,418.277,24.497,427.79-146.596l-427.79,146.596Z" style="fill: #6fea1f;"/>
              <path d="M2424.906,1828.807c105.484,45.266,261.663,14.572,352.458-51.056,33.372-25.986,58.428-54.777,75.332-95.538,6.668,22.38,3.268,47.57-6.173,69.767-48.36,102.318-195.812,149.426-301.824,141.117-45.124-2.908-101.077-17.947-119.793-64.29h0Z" style="fill: #3a3a3a;"/>
              <path d="M2786.893,1479.983c38.924-26.385,86.75-37.496,133.302-40.453,0,0-3.39,39.816-3.39,39.816-5.183-1.107-10.407-2.385-15.675-3.385-37.619-6.847-77.313-7.599-114.236,4.022h0Z" style="fill: #3a3a3a;"/>
            </g>
            <g>
              <path d="M780.145,1777.534s111.86,157.081,119.157,161.251c7.297,4.17,683.974-48.951,738.045-67.758,47.952-16.679,571.255-740.13,746.009-1140.653-731.767-177.498-1220.324,293.868-1603.211,1047.16Z" style="fill: #fff;"/>
              <path d="M780.145,1777.534s30.041,42.186,60.003,83.415c221.578-16.549,630.33-50.474,679.429-78.79,117.77-67.917,687.982-989.011,687.982-989.011,0,0,74.324,29.302,145.073,3.729,12.805-26.111,20.247-42.49,30.724-66.503-731.767-177.498-1220.324,293.868-1603.211,1047.16Z" style="fill: #bcd5e2;"/>
              <path d="M905.123,1958.888c-10.914,0-12.814-1.088-15.736-2.758-4.422-2.524-11.109-6.344-125.517-167.006l-7.019-9.856,5.483-10.788c210.512-414.163,431.912-701.928,676.848-879.74,136.36-98.99,282.674-164.65,434.875-195.152,160.747-32.212,333.682-26.368,514.008,17.37l23.114,5.607-9.512,21.8c-106.615,244.358-330.88,583.186-422.351,717.522-75.515,110.9-151.475,216.854-213.888,298.347-97.503,127.309-113.722,132.953-121.517,135.663-33.45,11.636-259.599,32.268-391.425,43.533-83.966,7.173-171.794,14.136-240.96,19.1-63.942,4.59-92.493,6.358-106.402,6.358ZM912.354,1923.738h.003-.003ZM803.452,1775.807c43.031,60.289,89.63,124.329,104.815,143.15,74.63-2.427,669.053-50.062,721.654-66.518,23.053-14.639,150.014-174.047,322.617-428.241,180.92-266.44,326.436-512.252,402.722-679.877-626.195-141.036-1120.02,187.366-1551.808,1031.486Z" style="fill: #3a3a3a;"/>
              <polygon points="817.717 1814.129 1108.542 1792.323 823.429 1853.68 817.717 1814.129 817.717 1814.129" style="fill: #3a3a3a;"/>
              <polygon points="962.889 1860.601 1373.731 1799.954 1377.657 1839.721 962.889 1860.601 962.889 1860.601" style="fill: #3a3a3a;"/>
              <path d="M2010.538,1124.643c83.153-131.051,165.126-263.847,238.434-400.386,0,0,34.472,20.209,34.472,20.209-85.524,131.01-178.31,255.979-272.906,380.177h0Z" style="fill: #3a3a3a;"/>
              <path d="M1899.519,1393.59c149.547-213.915,298.214-431.872,410.454-667.922-.002-.002,35.977,17.388,35.977,17.388-125.181,232.302-284.963,442.836-446.431,650.534h0Z" style="fill: #3a3a3a;"/>
              <polygon points="1561.595 1758.928 1785.421 1496.473 1593.452 1783.052 1561.595 1758.928 1561.595 1758.928" style="fill: #3a3a3a;"/>
              <rect x="1562.442" y="1672.167" width="39.961" height="214.031" transform="translate(-688.83 1064.366) rotate(-30.88)" style="fill: #3a3a3a;"/>
            </g>
            <g>
              <g>
                <g>
                  <path d="M666.187,1705.149s524.997-854.667,536.464-865.092,643.183-129.262,967.381-194.675l-642.532,985.381-861.313,74.385Z" style="fill: #11acef;"/>
                  <g style="opacity: .6;">
                    <path d="M2170.031,645.382c-324.198,65.413-955.914,184.25-967.381,194.675-11.467,10.424-536.464,865.091-536.464,865.091l62.617-5.408,376.004-553.196c49.34,22.748,153.925-.074,258.768-60.605,126.461-73.012,205.325-173.17,176.147-223.708-2.34-4.053-5.368-7.614-8.905-10.79l601.603-148.379,37.611-57.68Z" style="fill: #fff;"/>
                  </g>
                  <g style="opacity: .6;">
                    <ellipse cx="1394.508" cy="1197.371" rx="151.166" ry="60.411" transform="translate(-411.857 857.671) rotate(-30)" style="fill: #fff;"/>
                  </g>
                  <path d="M666.182,1725.128c-6.885,0-13.339-3.556-16.997-9.485-3.963-6.419-3.971-14.524-.022-20.953,526.483-857.083,536.692-866.365,540.046-869.414,9.061-8.236,35.558-15.263,572.358-119.88,144.24-28.109,293.391-57.177,404.512-79.598,7.883-1.585,15.966,1.707,20.485,8.368,4.519,6.663,4.6,15.387.202,22.131l-642.531,985.382c-3.356,5.146-8.895,8.463-15.017,8.993l-861.312,74.384c-.576.049-1.151.073-1.724.073ZM1215.294,856.589c-32.867,48.428-312.776,502.132-511.332,825.242l812.118-70.135,611.22-937.364c-104.485,20.86-233.126,45.931-358.089,70.286-241.365,47.038-513.71,100.115-553.917,111.971ZM1211.63,857.799s0,0,0,0h0Z" style="fill: #3a3a3a;"/>
                </g>
                <g>
                  <path d="M708.014,1785.286c-3.909-.004-37.528-33.228-41.828-80.137,43.587-8.014,822.659-108.903,832.516-112.453,6.874-2.476,661.947-937.932,671.329-947.314,156.756-1.564,288.494-14.073,370.586-32.837,10.946.782,931.026,864.18,935.456,887.634,1.831,9.694-40.027,57.683-49.385,61.243-11.988,4.561-98.771,6.124-98.771,6.124l36.16-75.251s-820.071-785.932-827.369-793.229c0,0-98.51,46.128-333.579,33.097,0,0-638.231,946.011-646.832,950.702-8.6,4.691-832.385,102.435-848.282,102.419Z" style="fill: #11acef;"/>
                  <path d="M2541.659,655.806c-105.547,41.176-283.09,46.55-350.78,34.922l-663.38,957.217s-587.631,69.671-681.102,81.44c-91.162,11.478-159.742,22.149-169.771,14.249,11.602,25.56,28.67,41.649,31.388,41.652,15.897.016,839.683-97.729,848.283-102.419,8.6-4.692,646.832-950.702,646.832-950.702,235.069,13.03,333.58-33.098,333.58-33.098,7.297,7.297,827.368,793.229,827.368,793.229l-31.681,65.93c42.007-2.942,82.937-5.958,85.431-6.706,5.212-1.564,31.273-33.566,31.273-33.566l-907.441-862.148Z" style="fill: #008edd;"/>
                  <g style="opacity: .6;">
                    <path d="M2540.617,612.545c-82.092,18.764-213.83,31.273-370.586,32.837-9.382,9.382-664.455,944.838-671.329,947.314-9.856,3.55-788.929,104.439-832.515,112.453.988,10.782,3.567,20.796,6.936,29.894l841.737-106.122,673.414-946.272s256.094,1.02,346.786-33.381l929.077,873.049c7.361-9.815,12.61-18.571,11.936-22.138-4.43-23.455-924.511-886.852-935.456-887.634Z" style="fill: #fff;"/>
                  </g>
                  <path d="M708.003,1805.267h-.012c-21.768-.027-57.352-50.867-61.701-98.295-.944-10.292,6.119-19.607,16.285-21.475,22.283-4.095,220.212-30.297,429.763-58.038,168.642-22.326,358.114-47.409,395.598-53.152,32.085-42.38,237.687-334.305,404.532-571.197,219.627-311.834,259.018-367.44,263.433-371.855,3.698-3.7,8.7-5.8,13.929-5.854,149.426-1.49,282.95-13.275,366.335-32.333,1.922-.441,3.89-.595,5.873-.451,9.324.663,11.005.785,162.318,140.997,89.469,82.905,206.156,192.147,320.144,299.715,125.483,118.414,238.763,226.383,318.973,304.017,149.509,144.702,150.592,150.44,152.233,159.126,1.539,8.151.893,18.685-24.797,49.438-11.207,13.419-26.743,30.241-37.114,34.187-12.607,4.793-64.34,6.685-105.517,7.429-6.98.056-13.434-3.351-17.178-9.188-3.744-5.836-4.195-13.195-1.193-19.443l29.885-62.196c-93.337-89.452-722.571-692.506-807.737-774.37-33.736,11.912-133.555,39.34-318.683,30.375-31.219,46.26-172.95,256.233-313.893,464.26-323.985,478.189-327.205,479.945-333.617,483.445-4.58,2.498-9.314,5.078-428.597,55.272-107.473,12.866-416.971,49.587-429.263,49.587ZM689.681,1721.762c6.261,20.973,18.353,36.499,24.48,43.021,81.915-7.573,758.695-89.142,831.12-100.164,47.104-64.174,474.709-696.723,641.285-943.629,3.936-5.829,10.622-9.202,17.668-8.773,225.67,12.514,323.117-30.836,324.073-31.277,7.588-3.483,16.619-1.907,22.529,4,10.317,10.183,818.898,785.106,827.064,792.933,6.239,5.978,7.927,15.29,4.185,23.078l-21.982,45.748c26.443-.932,50.767-2.354,58.708-3.854,7.712-5.968,26.563-27.546,34.541-39.689-33.689-38.033-207.903-206.383-456.672-441.136-216.768-204.556-421.768-394.874-460.801-427.963-84.476,18.056-212.888,29.326-355.792,31.192-25.68,35.348-137.355,193.91-254.948,360.872-91.395,129.768-194.986,276.85-273.669,388.042q-137.463,194.259-145.997,197.332c-5.544,1.998-46.338,7.717-407.891,55.579-171.323,22.68-347.648,46.021-407.9,54.689ZM1550.93,1663.658l-.002.002.002-.002ZM3417.677,1543.661h0ZM3456.661,1497.191h0Z" style="fill: #3a3a3a;"/>
                </g>
              </g>
              <rect x="1507.518" y="1584.285" width="39.961" height="106.995" transform="translate(-641.415 1079.754) rotate(-32.567)" style="fill: #3a3a3a;"/>
            </g>
            <g>
              <path d="M1627.443,2672.66c-117.274-121.965-232.984-300.222-279.894-557.443-51.89-284.532,1.174-420.213,145.42-432.35,120.792-10.164,188.16,100.074,210.051,188.16,47.573,191.427,30.752,470.139,252.269,671.329-4.648,188.156-169.867,255.397-327.846,130.304Z" style="fill: #6fea1f;"/>
              <g style="opacity: .6;">
                <path d="M1742.092,2095.782c-13.746-80.879-22.497-158.082-39.081-224.775-21.898-88.072-89.231-198.321-210.03-188.132-106.933,9.031-163.796,85.914-164.835,241.079-.4,54.106,5.994,117.683,19.421,191.249,4.156,22.897,8.911,45.195,14.146,66.853,37.323,155.125,100.22,278.921,171.229,377.382-68.332-120.479-113.007-253.386-135.944-376.064,34.965-14.225,58.901-74.166,55.305-144.496-3.516-68.651-32.168-124.715-67.213-137.183,11.868-78.442,39.68-133.227,82.078-148.452,249.391-89.67,189.69,456.064,343.816,589.051-36.444-81.159-55.145-165.635-68.891-246.514Z" style="fill: #fff;"/>
              </g>
              <g style="opacity: .6;">
                <ellipse cx="1502.25" cy="2043.55" rx="30.167" ry="48.473" transform="translate(-288.886 247.81) rotate(-8.606)" style="fill: #fff;"/>
              </g>
              <path d="M1894.427,2478.249c-10.023,219.429-269.59,240.837-390.6,38.583,38.876,60.033,81.134,111.646,123.616,155.828,14.249,308.18,316.271,269.861,327.846-130.304-22.693-20.61-42.847-42.045-60.862-64.106Z" style="fill: #4cc100;"/>
              <path d="M1627.442,2672.661c-42.521-22.678-73.754-57.94-101.625-94.925-28.28-36.829-54.113-75.65-76.813-116.266-57.192-101.063-96.245-212.686-117.961-326.646-22.567-121.58-51.177-314.806,37.012-415.012,34.342-39.072,86.712-57.264,137.703-57.932,50.991-1.394,102.157,21.539,137.396,57.655,52.26,52.124,77.345,123.438,89.575,194.49,24.507,133.481,36.103,271.751,85.646,397.512,16.165,41.415,36.05,81.34,60.364,118.578,24.539,37.194,51.423,72.108,76.547,112.241-63.874-32.438-106.606-92.494-141.155-153.287-56.929-102.048-81.724-218.613-98.763-332.875-7.022-45.321-13.205-90.493-21.764-134.616-7.95-42.848-18.79-85.607-40.873-123.285-44.57-78.955-118.538-116.28-206.327-84.442-137.42,53.057-97.912,298.183-75.97,413.256,21.607,110.027,58.926,217.227,111.511,316.281,21.102,39.589,44.482,78.042,70.525,114.712,26.363,36.582,54.213,71.291,74.969,114.561h0Z" style="fill: #3a3a3a;"/>
            </g>
          </g>
        </g>
      </g>
    </g>
  </g>
</svg>