<?xml version="1.0" encoding="utf-8"?>
<!-- Generator: Adobe Illustrator 27.5.0, SVG Export Plug-In . SVG Version: 6.00 Build 0)  -->
<svg version="1.1" id="Layer_1" xmlns="http://www.w3.org/2000/svg" xmlns:xlink="http://www.w3.org/1999/xlink" x="0px" y="0px"
	 viewBox="0 0 4000 4000" style="enable-background:new 0 0 4000 4000;" xml:space="preserve">
<g>
	<g>
		<rect style="fill:#CBEDFF;" width="4000" height="4000"/>
	</g>
	<g>
		<g>
			<ellipse style="fill:#97D6F2;" cx="1967.428" cy="3171.266" rx="1440.883" ry="252.503"/>
		</g>
		<g>
			<g>
				<g>
					<g>
						<path style="fill:#FC9C24;" d="M1081.985,2169.231c-2.326,3.087-109.042-34.198-210.695-112.386
							c-42.555-32.785-84.23-72.767-116.919-119.932c-31.707-45.739-54.959-98.281-62.468-157.689
							c-3.124-25.175-3.454-51.542-0.353-79.212c5.014-45.143,20.193-89.18,41.932-131.804
							c29.564-58.225,71.363-113.817,116.529-166.038c34.785-40.344,71.56-78.693,106.116-114.684
							c28.17-29.262,54.835-56.941,77.969-82.955c31.101-35.005,55.601-66.813,68.138-95.07c10.046-22.523,13.151-49.175,3-70.698
							c-6.629-14.073-18.881-25.918-38.574-33.009c-78.294-28.198-139.932,77.386-240.057,71.322
							c-48.491-2.94-87.753-32.248-113.061-81.895c-70.776-138.479,139.85-395.981,398.765-354.517
							c60.124,9.61,110.698,28.872,152.015,55.51c16.807,10.831,32.028,22.904,45.684,36.078
							c29.198,27.918,51.4,60.803,66.739,97.075c34.358,81.34,34.335,179.946,0.83,279.581
							c-14.454,43.124-35.166,86.404-62.056,128.574c-28.165,44.188-63.115,87.18-104.79,127.418
							c-34.014,32.858-91.414,77.441-145.432,129.107l-0.032,0.05c-33.175,31.656-65.051,65.945-89.418,101.758
							c-59.124,86.597-74.455,181.919,41.73,270.076c29.147,22.087,66.524,43.753,113.57,64.688
							C1488.319,2089.519,1081.985,2169.231,1081.985,2169.231"/>
					</g>
					<g>
						<path style="fill:#FB7D27;" d="M1081.985,2169.231c-2.326,3.087-109.042-34.198-210.695-112.386
							c-42.555-32.785-84.23-72.767-116.919-119.932c-31.707-45.739-54.959-98.281-62.468-157.689
							c-3.124-25.175-3.454-51.542-0.353-79.212c5.014-45.143,20.193-89.18,41.932-131.804
							c29.564-58.225,71.363-113.817,116.529-166.038c-62.345,96.221-156.575,286.218-40.363,421.275
							c91.345,106.129,164.901,78.996,207.928,42.445c29.147,22.087,66.524,43.753,113.57,64.688
							C1488.319,2089.519,1081.985,2169.231,1081.985,2169.231"/>
					</g>
					<g>
						<path style="fill:#3B0372;" d="M1315.52,1237.481c-88.478-27.569-156.02-99.579-156.02-99.579
							c109.295,8.853,176.63-6.441,218.075-28.996C1363.121,1152.031,1342.41,1195.311,1315.52,1237.481"/>
					</g>
					<g>
						<path style="fill:#3B0372;" d="M1065.267,1494.055c-33.175,31.656-65.056,65.946-89.418,101.758
							c-105.79-77.491-104.799-176.933-104.799-176.933C958.39,1481.743,1022.331,1496.17,1065.267,1494.055"/>
					</g>
					<g>
						<path style="fill:#3B0372;" d="M1175.857,1313.88c0,0-100.175,49.046-219.727-26.395
							c28.165-29.262,54.831-56.941,77.964-82.955C1064.755,1239.609,1109.733,1277.701,1175.857,1313.88"/>
					</g>
					<g>
						<path style="fill:#3B0372;" d="M922.996,1681.546c0,0-77.01,104.575-231.094,97.675c-3.124-25.17-3.454-51.542-0.353-79.207
							c5.014-45.142,20.193-89.184,41.936-131.808C749.206,1622.334,794.477,1690.615,922.996,1681.546"/>
					</g>
					<g>
						<path style="fill:#3B0372;" d="M871.292,2056.844c-42.556-32.785-84.23-72.767-116.919-119.932
							c62.06-1.761,145.694-21.835,218.048-99.955C972.421,1836.957,958.472,1978.66,871.292,2056.844"/>
					</g>
					<g>
						<path style="fill:#3B0372;" d="M1208.223,988.821c79.432-110.785,99.166-200.846,101.781-256.571
							c29.202,27.918,51.404,60.803,66.739,97.074C1323.925,923.559,1208.223,988.821,1208.223,988.821"/>
					</g>
					<g>
						<path style="fill:#3B0372;" d="M1105.235,1038.76c-6.628-14.069-18.881-25.918-38.574-33.005
							c-78.299-28.198-139.932,77.386-240.057,71.322c-48.496-2.94-87.753-32.253-113.065-81.895
							c-70.771-138.483,139.854-395.981,398.77-354.517c60.12,9.605,110.698,28.872,152.015,55.505
							C1268.011,788.368,1242.502,920.333,1105.235,1038.76"/>
					</g>
					<g>
						<path style="fill:#3B0372;" d="M1081.782,2192.416c-10.068,0-22.539-4.888-38.037-10.957
							c-31.162-12.207-140.205-58.936-235.054-147.666c-105.171-98.384-153.569-214.688-139.951-336.328
							c18.262-163.228,159.883-310.464,273.672-428.774c63.857-66.396,119.009-123.735,138.887-168.535
							c8.052-18.14,9.443-36.965,3.721-50.359c-4.424-10.369-12.974-17.712-26.138-22.458
							c-28.853-10.408-55.366,3.779-96.245,27.786c-38.462,22.59-82.051,48.225-137.402,44.851
							c-55.845-3.384-102.769-36.897-132.139-94.368c-31.851-62.327-16.724-146.499,40.454-225.161
							c67.178-92.422,207.69-190.425,382.393-162.444c149.287,23.896,253.306,106.382,292.9,232.258
							c52.036,165.44-19.478,373.918-182.188,531.13c-15.972,15.435-36.143,32.7-59.497,52.69
							c-90.83,77.744-228.096,195.229-212.388,303.14c9.268,63.657,71.748,121.651,185.698,172.378
							c113.584,50.562,165.957,100.288,160.112,152.017c-9.375,82.93-168.955,120.898-210.337,129.37
							C1087.632,2191.972,1084.814,2192.416,1081.782,2192.416z M1063.569,2155.585c-0.015,0.015-0.024,0.034-0.039,0.049
							C1063.545,2155.619,1063.555,2155.6,1063.569,2155.585z M1070.796,2149.233c-2.583,1.431-5.103,3.486-7.222,6.343
							C1065.522,2152.953,1067.988,2150.8,1070.796,2149.233z M1039.429,977.956c11.294,0,22.93,1.873,35.01,6.228
							c25.088,9.045,43.335,25.505,52.769,47.598c10.791,25.266,9.341,56.968-3.975,86.978
							c-23.154,52.178-80.898,112.217-147.759,181.728c-108.984,113.311-244.614,254.326-261.147,402.075
							c-13.53,120.874,40.156,230.918,159.565,327.085c88.989,71.67,185.571,110.576,207.153,116.396
							c68.945-14.15,169.673-51.611,173.955-89.59c1.47-13.071-8.555-49.473-133.184-104.951
							c-131.104-58.354-200.591-126.289-212.437-207.676c-19.356-132.925,123.584-255.268,227.949-344.6
							c22.788-19.507,42.471-36.353,57.451-50.825c150.322-145.244,217.168-335.371,170.303-484.377
							c-34.106-108.435-125.161-179.722-256.387-200.73c-154.258-24.67-278.501,62.212-338.042,144.123
							c-46.113,63.44-60.181,131.382-36.709,177.315c15.337,30.015,44.107,66.428,94.063,69.453
							c41.401,2.476,76.982-18.401,111.397-38.616C971.011,997.004,1003.447,977.956,1039.429,977.956z"/>
					</g>
					<g>
						<path style="fill:#EED0B0;" d="M2018.979,2490.124c-2.207,242.791-163.722,343.072-210.452,382.494
							c0,0,85.446,44.899,85.446,107.524c0,89.753-86.808,129.267-209.419,120.552c-190.919-13.569-261.337-64.234-275.342-133.001
							c-18.592-91.331,73.06-324.75,86.157-414.893"/>
					</g>
					<g>
						<path style="fill:#3B0372;" d="M1717.251,3124.828c-11.069,0-22.505-0.42-34.321-1.26
							c-183.711-13.057-277.827-61.133-296.191-151.299c-13.223-64.956,21.514-185.093,52.163-291.094
							c15.127-52.324,29.419-101.748,33.77-131.675c1.812-12.544,13.477-21.274,25.991-19.399
							c12.539,1.816,21.221,13.457,19.399,25.991c-4.8,33.052-18.838,81.606-35.093,137.827
							c-27.734,95.923-62.251,215.298-51.279,269.199c4.937,24.243,19.961,98.027,254.492,114.697
							c72.578,5.146,129.199-7.52,159.453-35.703c17.095-15.918,25.405-36.191,25.405-61.973c0-39.741-52.852-76.45-73.218-87.241
							c-6.733-3.564-11.274-10.254-12.085-17.832c-0.811-7.573,2.173-15.068,7.998-19.985c4.897-4.126,10.698-8.667,17.412-13.926
							c59.399-46.499,183.008-143.252,184.897-351.24c0.112-12.593,10.361-22.725,22.93-22.725c0.073,0,0.142,0,0.215,0
							c12.666,0.112,22.842,10.479,22.725,23.145c-1.997,219.917-130.4,330.063-194.102,380.356
							c28.867,21.318,69.097,59.912,69.097,109.448c0,38.125-13.833,71.162-40.005,95.542
							C1842.144,3108.061,1787.358,3124.823,1717.251,3124.828z"/>
					</g>
					<g>
						<path style="fill:#3B0372;" d="M1672.968,2922.347c2.798,1.67,4.592,2.972,6.697,4.569c2.009,1.546,3.917,3.17,5.78,4.858
							c3.688,3.39,7.115,7.046,10.248,10.959c6.275,7.821,11.317,16.693,14.986,26.115c3.674,9.427,5.849,19.399,6.803,29.399
							c0.867,10.046,0.541,19.931-0.826,29.89c-1.344,10.005-4.202,20.083-8.528,29.734c-4.44,9.601-10.523,18.688-18.064,26.418
							c-7.5,7.784-16.326,14.184-25.789,19.124c-4.738,2.477-9.647,4.573-14.725,6.335c-5.211,1.757-10.037,3.17-16.583,4.092
							l-0.44,0.064c-10.06,1.413-19.358-5.587-20.775-15.642c-1.418-10.06,5.587-19.362,15.642-20.78
							c0.697-0.096,1.404-0.156,2.087-0.174c2.362-0.06,6.307-0.697,9.661-1.564c3.486-0.876,6.964-2,10.307-3.399
							c6.702-2.784,12.94-6.528,18.326-11.225c10.918-9.262,18.257-22.583,21.725-37.895c3.532-15.537,3.881-31.872-0.541-46.886
							c-2.197-7.509-5.482-14.743-9.885-21.331c-2.193-3.294-4.661-6.422-7.33-9.349c-1.344-1.445-2.729-2.862-4.17-4.179
							c-1.344-1.261-3.115-2.688-4.096-3.427l-0.725-0.546c-4.027-3.051-4.821-8.794-1.771-12.821
							C1663.821,2920.934,1669.022,2920.012,1672.968,2922.347"/>
					</g>
					<g>
						<path style="fill:#3B0372;" d="M1813.54,2922.454c2.771,1.743,4.505,3.073,6.56,4.711c1.963,1.583,3.812,3.248,5.605,4.963
							c3.578,3.45,6.885,7.142,9.89,11.078c6.028,7.858,10.876,16.642,14.454,25.904c7.225,18.633,9.115,38.665,7.294,58.248
							c-0.931,10.005-3.381,20.193-7.463,29.936c-4.138,9.716-10.014,18.954-17.372,26.761
							c-14.656,15.794-34.344,25.72-53.537,31.005l-0.509,0.142c-9.785,2.688-19.899-3.055-22.592-12.84
							c-2.697-9.785,3.051-19.899,12.835-22.597c0.5-0.133,1.037-0.257,1.541-0.349c15.266-2.821,28.964-8.628,39.546-18.096
							c10.55-9.353,17.427-22.528,20.234-37.753c2.83-15.564,2.711-31.963-1.697-47c-2.179-7.542-5.376-14.798-9.615-21.45
							c-2.101-3.33-4.482-6.495-7.051-9.454c-1.293-1.477-2.628-2.913-4.018-4.248c-1.294-1.275-3.023-2.743-3.945-3.472
							l-0.729-0.583c-3.95-3.151-4.606-8.904-1.454-12.862C1804.453,2920.826,1809.645,2920.004,1813.54,2922.454"/>
					</g>
					<g>
						<path style="fill:#FC9C24;" d="M2685.577,2440.256c-3.537,5.252-7.22,10.652-11.22,16.161
							c-97.326,137.024-317.017,350.893-658.24,413.921c-169.185,31.331-368.251,25.509-597.138-45.101
							c-53.881-16.629-111.717-57.991-158.479-102.258c-1.092-1.042-2.183-2.078-3.275-3.174
							c-40.684-38.968-72.537-79.909-85.216-107.918l-40.266-766.007c324.494-207.796,603.262-70.515,986.527,52.739
							C2593.815,2123.611,2842.239,2206.956,2685.577,2440.256"/>
					</g>
					<g>
						<path style="fill:#3B0372;" d="M1329.707,2264.348c-71.524-63.271-153.543-303.847-163.414-439.412
							c57.106-32.629,112.964-54.767,168.355-68.432C1234.344,1946.166,1334.647,2248.302,1329.707,2264.348"/>
					</g>
					<g>
						<path style="fill:#FC9C24;" d="M2958.01,3121.724c-117.327,54.299-258.039,33.62-333.021-0.468
							c-35.748-16.211-97.423-60.014-165.598-163.052c-61.519-93.01-128.446-234.296-186.433-447.178l408.1-118.625
							c0,0,59.808,338.838,212.883,499.5c5.404,5.665,10.913,11.12,16.523,16.317c0,0,89.946,20.161,106.052,88.643
							C3026.341,3038.691,3021.088,3092.521,2958.01,3121.724"/>
					</g>
					<g>
						<path style="fill:#FC9C24;" d="M3020.206,3035.781c-1.872,32.322-17.564,65.267-62.198,85.941
							c-117.327,54.299-258.039,33.62-333.017-0.463c-35.748-16.211-97.427-60.014-165.602-163.056
							c-61.519-93.01-128.446-234.291-186.428-447.178l408.095-118.625c0,0,30.918,175.268,105.276,333.484
							c-51.395,20.01-147.831,47.808-286.512,47.858c0,0,50.344,226.915,181.497,276.434
							C2772.038,3084.465,2931.351,3070.855,3020.206,3035.781"/>
					</g>
					<g>
						<path style="fill:#FB7D27;" d="M3020.206,3035.781c-1.872,32.322-17.564,65.267-62.198,85.941
							c-117.327,54.299-258.039,33.62-333.017-0.463c-35.748-16.211-97.427-60.014-165.602-163.056
							c-61.519-93.01-128.446-234.291-186.428-447.178l408.095-118.625c0,0,30.918,175.268,105.276,333.484
							c-51.395,20.01-159.318,54.656-298.002,54.712c0,0,38.922,219.97,192.988,269.58
							C2773.639,3079.901,2931.351,3070.855,3020.206,3035.781"/>
					</g>
					<g>
						<path style="fill:#FFF7ED;" d="M3020.206,3035.781c-0.261,4.055-0.675,8.055-1.404,12.11
							c-0.156,1.037-0.362,2.023-0.573,3.009c-0.101,0.729-0.257,1.454-0.413,2.183c-1.041,4.312-2.289,8.574-3.899,12.785
							c-0.362,0.981-0.775,1.972-1.193,2.959c-0.83,1.977-1.715,3.899-2.651,5.771c-0.518,0.986-0.986,1.922-1.56,2.858
							c-2.179,4-4.725,7.844-7.638,11.638c-1.298,1.661-2.647,3.275-4.055,4.885c-1.606,1.761-3.271,3.477-4.987,5.142
							c-0.674,0.674-1.348,1.353-2.078,1.972c-6.496,5.927-14.134,11.381-23.17,16.317c-1.353,0.729-2.757,1.454-4.211,2.183
							c-1.404,0.729-2.858,1.454-4.367,2.128c-117.327,54.299-258.039,33.62-333.017-0.463
							c-35.748-16.211-97.427-60.014-165.602-163.056c25.725,8.106,63.863,15.587,112.863,12.523
							c27.431,34.711,63.129,64.638,109.065,79.45C2773.653,3079.896,2931.351,3070.855,3020.206,3035.781"/>
					</g>
					<g>
						<path style="fill:#FC9C24;" d="M2409.562,2873.558c35.386,12.991,97.79,27.959,203.272,33.257
							c-28.528,26.496-91.455,45.826-156.667,46.45C2440.842,2929.783,2425.254,2903.384,2409.562,2873.558"/>
					</g>
					<g>
						<path style="fill:#3B0372;" d="M2816.622,2784.708c-29.413,11.17-115.405,35.468-253.929,17.298
							c15.628-7.417,98.005-30.963,166.598-58.395c22.922-9.17,38.51-25.982,48-37.679
							C2789.135,2732.745,2802.227,2759.3,2816.622,2784.708"/>
					</g>
					<g>
						<path style="fill:#3B0372;" d="M2612.832,2906.815c-28.528,26.496-91.455,45.826-156.662,46.45
							c-15.326-23.482-30.918-49.881-46.611-79.707C2444.945,2886.549,2507.354,2901.517,2612.832,2906.815"/>
					</g>
					<g>
						<path style="fill:#FFF8EE;" d="M2958.01,3121.724c-117.327,54.299-258.039,33.62-333.021-0.468
							c-35.748-16.211-97.423-60.014-165.598-163.052c37.101,11.688,99.973,22.028,183.992,1.509
							c82.721-20.216,168.41-60.432,250.557-67.813c5.404,5.665,10.913,11.12,16.523,16.317c0,0,89.946,20.161,106.052,88.643
							C3026.341,3038.691,3021.088,3092.521,2958.01,3121.724"/>
					</g>
					<g>
						<path style="fill:#EED0B0;" d="M3020.206,3035.781c-0.261,4.055-0.675,8.055-1.404,12.11
							c-0.156,1.037-0.362,2.023-0.573,3.009c-0.101,0.729-0.257,1.454-0.413,2.183c-1.041,4.312-2.289,8.574-3.899,12.785
							c-0.362,0.981-0.775,1.972-1.193,2.959c-0.83,1.977-1.715,3.899-2.651,5.771c-0.518,0.986-0.986,1.922-1.56,2.858
							c-2.179,4-4.725,7.844-7.638,11.638c-1.298,1.661-2.647,3.275-4.055,4.885c-1.606,1.761-3.271,3.477-4.987,5.142
							c-0.674,0.674-1.348,1.353-2.078,1.972c-6.496,5.927-14.134,11.381-23.17,16.317c-1.353,0.729-2.757,1.454-4.211,2.183
							c-1.404,0.729-2.858,1.454-4.367,2.128c-117.327,54.299-258.039,33.62-333.017-0.463
							c-35.748-16.211-97.427-60.014-165.602-163.056c25.725,8.106,63.863,15.587,112.863,12.523
							c27.431,34.711,63.129,64.638,109.065,79.45C2773.653,3079.896,2931.351,3070.855,3020.206,3035.781"/>
					</g>
					<g>
						<path style="fill:#3B0372;" d="M2795.576,3177.983c-68.613,0-133.379-14.614-180.083-35.82
							c-52.026-23.628-232.085-138.53-364.673-625.122c-3.33-12.222,3.877-24.829,16.099-28.159
							c12.207-3.345,24.829,3.872,28.159,16.099c127.329,467.295,291.958,573.882,339.38,595.415
							c63.911,29.019,200.259,53.091,313.896,0.503c41.309-19.116,56.724-52.358,45.806-98.789
							c-12.451-53.008-87.959-71.318-88.716-71.489c-3.945-0.884-7.583-2.793-10.552-5.537
							c-169.048-156.152-233.74-513.545-236.411-528.682c-2.202-12.471,6.128-24.365,18.599-26.567
							c12.471-2.227,24.37,6.123,26.577,18.594c0.62,3.525,63.599,351.182,218.252,499.102
							c23.154,6.567,100.322,33.481,116.909,104.087c15.894,67.607-10.059,122.617-71.196,150.913
							C2913.149,3167.739,2853.018,3177.983,2795.576,3177.983z"/>
					</g>
					<g style="opacity:0.4;">
						<g>
							<g>
								<path style="fill:#FFFFFF;" d="M1148.733,1887.206c-163.35,114.451-241.837,310.416-266.241,382.435
									c20.413-141.744,83.07-297.755,249.268-423.765L1148.733,1887.206z"/>
							</g>
						</g>
					</g>
					<g>
						<path style="fill:#FC9C24;" d="M2685.577,2440.256c-3.537,5.252-7.22,10.652-11.22,16.161
							c-65.785,92.593-187.428,220.263-364.714,312.75c-712.488-68.276-577.234-722.562-498.881-971.614
							c96.285,29.202,197.607,65.73,307.507,101.065C2593.815,2123.611,2842.239,2206.956,2685.577,2440.256"/>
					</g>
					<g>
						<path style="fill:#FB7D27;" d="M2685.577,2440.256c-3.537,5.252-7.22,10.652-11.22,16.161
							c-65.785,92.593-187.428,220.263-364.714,312.75c-712.488-68.276-577.234-722.562-498.881-971.614
							c96.285,29.202,197.607,65.73,307.507,101.065C2593.815,2123.611,2842.239,2206.956,2685.577,2440.256"/>
					</g>
					<g>
						<path style="fill:#FB7D27;" d="M2280.906,2766.05c-125.644-15.326-223.534-49.67-299.136-97.005l276.741,13.872
							C2258.51,2682.917,2265.992,2716.949,2280.906,2766.05"/>
					</g>
					<g>
						<path style="fill:#FB7D27;" d="M2016.115,2870.337c-169.185,31.331-368.246,25.514-597.138-45.101
							c-53.881-16.629-111.712-57.991-158.479-102.258c-1.092-1.041-2.179-2.078-3.271-3.17
							c83.914-68.955,174.323-144.501,174.323-144.501s192.516,232.782,372.613,84.849
							C1867.871,2719.391,1946.33,2798.424,2016.115,2870.337"/>
					</g>
					<g>
						<path style="fill:#3B0372;" d="M2024.582,1867.753c-275.351,91.859-264.516,499.344-264.516,499.344
							c-81.914-284.149-9.211-470.247,54.753-568.294C1881.902,1819.275,1951.421,1843.175,2024.582,1867.753"/>
					</g>
					<g>
						<path style="fill:#3B0372;" d="M1689.954,1764.87c-164.63,109.162-70.487,500.394-138.955,673.286
							c-33.009-291.484-139.377-527.45-45.606-699.057C1566.026,1740.865,1627.183,1750.374,1689.954,1764.87"/>
					</g>
					<g>
						<path style="fill:#EED0B0;" d="M2674.356,2456.419c-145.593,204.933-564.872,581.904-1255.378,368.815
							c-53.881-16.629-111.712-57.987-158.478-102.258c0,0,50.266-97.932,120.561-97.345
							c70.29,0.587,151.295,189.837,499.738,66.932c139.46,26.308,307.099,59.872,433.105-0.605
							c42.243-20.266,22.34-131.203,62.037-161.703C2519.979,2419.68,2613.558,2415.625,2674.356,2456.419"/>
					</g>
					<g style="opacity:0.6;">
						<g>
							<g>
								<path style="fill:#FFFFFF;" d="M2100.759,1892.986c-4.129,57.523-9.174,119.542-11.789,125.231
									c-5,10.826-289.686-331.838-788.31-201.837c-63.533,16.56-118.671,45.505-166.194,81.239l-2.707-51.748
									C1451.304,1641.241,1726.49,1771.242,2100.759,1892.986"/>
							</g>
						</g>
					</g>
					<g>
						<path style="fill:#3B0372;" d="M1816.704,2906.044c-129.214,0.005-263.701-21.45-402.822-64.385
							c-105.488-32.559-227.07-155.601-257.554-222.661c-3.931-8.647-0.107-18.848,8.54-22.778
							c8.652-3.921,18.848-0.103,22.778,8.54c27.266,59.971,141.055,174.604,236.382,204.028
							c304.595,93.994,586.021,82.412,836.45-34.434c243.345-113.55,375.972-291.748,410.82-343.662
							c38.901-57.944,51.504-104.727,39.658-147.231c-28.638-102.749-204.141-184.521-469.805-308.296
							c-41.313-19.253-84.028-39.15-129.204-60.522c-45.811-14.741-90.186-29.697-133.11-44.165
							c-312.456-105.313-559.268-188.501-837.842-10.117c-7.993,5.127-18.638,2.793-23.765-5.21
							c-5.122-8.003-2.788-18.643,5.21-23.765c292.471-187.285,546.187-101.772,867.388,6.489
							c43.145,14.541,87.764,29.58,133.726,44.36c0.713,0.229,1.411,0.508,2.09,0.825c45.459,21.514,88.457,41.543,130.039,60.918
							c284.067,132.349,455.527,212.236,488.413,330.244c14.546,52.192,0.073,109.644-44.233,175.649
							c-36.104,53.774-173.438,238.354-424.834,355.659C2131.47,2872.514,1978.218,2906.039,1816.704,2906.044z"/>
					</g>
					<g>
						<path style="fill:#FC9C24;" d="M2494.672,3307.331c-144.763,56.276-304.434,31.849-359.462-0.472
							c-28.684-16.83-108.496-78.666-185.919-215.117c-56.688-99.918-112.079-239.956-145.125-431.586l454.348,22.762
							c0,0,56.115,254.553,165.749,374.893c6.188,6.812,12.528,13.197,19.074,19.073c0,0,101.373,26.808,119.717,104.593
							C2574.328,3229.284,2554.535,3284.051,2494.672,3307.331"/>
					</g>
					<g>
						<path style="fill:#FB7D27;" d="M2280.906,2766.05c-125.644-15.326-223.534-49.67-299.136-97.005l276.741,13.872
							C2258.51,2682.917,2265.992,2716.949,2280.906,2766.05"/>
					</g>
					<g>
						<path style="fill:#FB7D27;" d="M2566.015,3205.225c0.835,41.046-21.198,82.62-71.345,102.106
							c-144.758,56.271-304.434,31.849-359.462-0.472c-28.684-16.835-108.492-78.666-185.914-215.117
							c-56.693-99.918-112.083-239.956-145.13-431.586l5.821,0.312c60.588,92.074,102.363,255.231,157.442,346.943
							c80.799,134.474,179.781,197.552,208.465,214.387c55.028,32.322,214.704,56.744,359.466,0.472
							C2547.102,3217.698,2557.29,3211.927,2566.015,3205.225"/>
					</g>
					<g>
						<path style="fill:#FFF7ED;" d="M2566.015,3205.225c0.055,0.156,0.055,0.312,0,0.468c0.156,8.161-0.624,16.317-2.39,24.317
							c-3.949,18.551-12.94,36.22-27.592,50.872l-1.505,1.504c-2.496,2.39-5.142,4.729-7.954,6.963
							c-1.816,1.404-3.638,2.752-5.56,4.055c-2.124,1.505-4.362,2.959-6.647,4.363c-2.133,1.248-4.312,2.44-6.551,3.637
							c-4.156,2.133-8.518,4.105-13.147,5.927c-144.758,56.271-304.434,31.849-359.462-0.472
							c-28.684-16.835-108.492-78.666-185.914-215.117c0,0,29.982,14.707,97.478,22.707c57.051,62.721,109.533,95.868,129.12,107.35
							c55.028,32.322,214.704,56.744,359.466,0.472C2547.102,3217.698,2557.29,3211.927,2566.015,3205.225"/>
					</g>
					<g>
						<path style="fill:#3B0372;" d="M2334.424,2911.282c-13.945,9.84-40.308,19.464-81.629,23.331
							c-63.969,5.991-143.047-3.326-200.516-28.679c43.088-6.362,131.859-30.101,187.965-55.037
							c22.009-9.78,43.831-17.707,62.124-19.84C2311.612,2856.882,2322.319,2884.213,2334.424,2911.282"/>
					</g>
					<g>
						<path style="fill:#3B0372;" d="M2115.829,3044.042c-2.445,7.487-74.982,39.335-170.176,41.156
							c-16.936-30.399-33.721-64.381-49.721-102.258C1983.116,3029.803,2095.2,3043.211,2115.829,3044.042"/>
					</g>
					<g>
						<path style="fill:#3B0372;" d="M2022.764,2773.639c-18.445,14.239-86.927,44.267-184.355,41.675
							c-8.78-32.06-16.94-66.042-24.266-102.001C1871.611,2736.382,1964.465,2770.208,2022.764,2773.639"/>
					</g>
					<g>
						<path style="fill:#FFF8EE;" d="M2494.672,3307.331c-144.763,56.276-304.434,31.849-359.462-0.472
							c-28.684-16.83-108.496-78.666-185.919-215.117c0,0,50.615,24.785,168.405,27.542c86.258,1.977,201.612-63.707,306.567-61.473
							c6.188,6.812,12.528,13.197,19.074,19.073c0,0,101.373,26.808,119.717,104.593
							C2574.328,3229.284,2554.535,3284.051,2494.672,3307.331"/>
					</g>
					<g>
						<path style="fill:#EED0B0;" d="M2566.015,3205.225c0.055,0.156,0.055,0.312,0,0.468c0.156,8.161-0.624,16.317-2.39,24.317
							c-3.949,18.551-12.94,36.22-27.592,50.872l-1.505,1.504c-2.496,2.39-5.142,4.729-7.954,6.963
							c-1.816,1.404-3.638,2.752-5.56,4.055c-2.124,1.505-4.362,2.959-6.647,4.363c-2.133,1.248-4.312,2.44-6.551,3.637
							c-4.156,2.133-8.518,4.105-13.147,5.927c-144.758,56.271-304.434,31.849-359.462-0.472
							c-28.684-16.835-108.492-78.666-185.914-215.117c0,0,29.982,14.707,97.478,22.707c57.051,62.721,109.533,95.868,129.12,107.35
							c55.028,32.322,214.704,56.744,359.466,0.472C2547.102,3217.698,2557.29,3211.927,2566.015,3205.225"/>
					</g>
					<g>
						<path style="fill:#3B0372;" d="M2267.475,2680.959c12.004,34.322,23.995,68.881,36.5,102.923
							c12.601,34.046,25.381,67.937,39.991,100.882c7.197,16.518,14.817,32.789,22.917,48.757
							c8.005,16.014,16.523,31.684,25.684,46.854c18.023,30.496,38.716,59.106,63.051,82.863l0.005,0.005l-7.578-4.092
							c4.67,1.261,8.175,2.413,12.124,3.752c3.84,1.307,7.606,2.711,11.344,4.202c7.472,2.972,14.817,6.266,22.019,9.922
							c14.385,7.33,28.308,16.069,41.101,26.812c12.674,10.835,24.477,23.537,33.331,38.739
							c9.019,14.991,14.793,32.523,16.725,49.813c2.06,17.413,0.807,35.409-4.541,52.436c-5.22,17.019-14.207,33.064-26.198,46.308
							c-12.055,13.184-26.753,23.565-42.381,30.835c-3.862,1.642-8.023,3.693-11.666,4.936l-11.041,3.913
							c-7.39,2.523-14.665,5.441-22.211,7.381c-29.78,9.367-60.473,15.074-91.244,18.899c-30.812,3.651-61.867,5.064-92.868,3.605
							c-31.01-1.427-61.95-5.165-92.671-12.294c-15.358-3.982-30.647-8.014-45.964-14.675l-5.729-2.394l-5.766-2.982
							c-3.821-2.018-7.808-3.945-11.151-6.289c-3.431-2.275-7.119-4.459-10.317-6.84l-9.633-7.147
							c-49.891-38.973-89.666-86.427-124.644-136.74c-34.821-50.459-63.721-104.414-88.767-159.859
							c-48.432-111.524-81.207-229.635-92.762-349.755c-0.482-5.06,3.22-9.551,8.28-10.041c4.587-0.44,8.711,2.587,9.807,6.922
							c29.271,115.643,61.464,229.649,108.95,337.544c24.656,53.39,52.913,105.065,86.482,152.868l12.615,17.89l13.514,17.147
							c8.752,11.67,18.56,22.344,28.101,33.266c19.61,21.197,40.354,41.592,62.845,58.487l8.436,6.161
							c2.812,2.073,5.624,3.633,8.422,5.491c2.794,1.963,5.624,3.179,8.422,4.642l4.193,2.17l4.656,1.867
							c12.129,5.358,25.876,9.046,39.441,12.592c27.578,6.436,56.276,9.986,85.028,11.33c28.78,1.408,57.721,0.11,86.304-3.243
							c28.546-3.519,56.973-8.743,84.313-17.34c6.968-1.757,13.596-4.454,20.372-6.748l10.119-3.551
							c3.44-1.174,5.955-2.555,8.996-3.789c11.45-5.381,21.725-12.44,29.978-21.285c16.335-17.684,24.339-42.592,21.408-67.276
							c-1.294-12.436-4.968-23.991-11.234-34.734c-6.083-10.794-14.789-20.482-24.711-29.165
							c-10.073-8.564-21.436-16.165-33.597-22.606c-6.083-3.234-12.354-6.184-18.729-8.858c-3.188-1.335-6.408-2.601-9.628-3.761
							c-3.106-1.133-6.707-2.34-9.248-3.078l-1.059-0.312c-2.514-0.729-4.752-2.087-6.519-3.784l-0.009-0.005
							c-15.078-12.807-28.133-27.354-40.198-42.372c-12.147-14.995-22.739-30.945-32.592-47.156
							c-19.629-32.532-35.757-66.574-49.923-101.18c-6.968-17.353-13.564-34.817-19.661-52.413
							c-5.917-17.665-11.656-35.363-16.532-53.303c-5.023-17.89-9.436-35.941-13.275-54.115
							c-3.876-18.198-7.138-36.376-9.344-55.083c-0.596-5.055,3.018-9.638,8.073-10.234c4.372-0.518,8.39,2.115,9.78,6.105
							L2267.475,2680.959z"/>
					</g>
					<g>
						<path style="fill:#FC9C24;" d="M1299.886,3108.473c-6.078,91.611-102.258,126.474-229.667,122.368
							c-199.011-6.445-259.493-86.203-274.094-157.855c-9.509-46.716,8.629-129.02,31.179-211.846
							c23.431-86.047,51.647-172.667,58.61-220.52c14.395-99.093-118.056-518.831,245.828-794.741l299.81,729.429
							c-2.234,246.553-147.203,355.044-199.63,398.435c-1.404,1.142-2.702,2.229-3.954,3.271
							C1227.968,2977.013,1305.863,3018.371,1299.886,3108.473"/>
					</g>
					<g>
						<path style="fill:#FC9C24;" d="M1412.277,2717.208c-10.652,38.087-24.991,71.29-41.101,100.129c-1.922,0-3.899,0-5.872-0.055
							c-118.106-1.816-244.53-66.299-286.094-120.235C1244.913,2724.121,1325.601,2739.085,1412.277,2717.208"/>
					</g>
					<g>
						<path style="fill:#3B0372;" d="M1412.277,2717.208c-10.652,38.087-24.991,71.29-41.101,100.129c-1.922,0-3.899,0-5.872-0.055
							c-118.106-1.816-244.53-66.299-286.094-120.235C1244.913,2724.121,1325.601,2739.085,1412.277,2717.208"/>
					</g>
					<g>
						<path style="fill:#3B0372;" d="M1117.088,2243.222c-85.579-34.087-142.735-95.712-180.717-159.208
							c26.757-57.78,64.271-114.831,116.285-168.405C1037.326,2061.046,1106.643,2187.414,1117.088,2243.222"/>
					</g>
					<g style="opacity:0.6;">
						<g>
							<g>
								<path style="fill:#FFFFFF;" d="M1148.733,1887.206c-163.35,114.451-241.837,310.416-266.241,382.435
									c20.413-141.744,83.07-297.755,249.268-423.765L1148.733,1887.206z"/>
							</g>
						</g>
					</g>
					<g>
						<path style="fill:#3B0372;" d="M1079.208,2561.378c-79.29-4.261-145.492-21.197-199.635-43.285
							c-4.106-49.358-7.743-108.492-4.413-172.662C946.656,2470.185,1037.794,2515.758,1079.208,2561.378"/>
					</g>
					<g>
						<path style="fill:#3B0372;" d="M1054.632,2850.282c-82.726,14.078-158.584,5.716-221.41-10.445
							c9.615-34.349,19.647-68.276,28.427-99.244C939.117,2805.488,1018.517,2837.759,1054.632,2850.282"/>
					</g>
					<g>
						<path style="fill:#FFF8EE;" d="M1299.886,3108.473c-6.078,91.611-102.258,126.474-229.667,122.368
							c-199.011-6.445-259.493-86.203-274.094-157.855c-9.509-46.716,8.629-129.02,31.179-211.846
							c11.794,31.069,35.175,66.455,81.524,85.895c70.565,29.51,200.727-7.904,323.095,26.707c-1.404,1.142-2.702,2.229-3.954,3.271
							C1227.968,2977.013,1305.863,3018.371,1299.886,3108.473"/>
					</g>
					<g>
						<path style="fill:#EED0B0;" d="M1299.886,3108.473c-6.078,91.611-102.258,126.474-229.667,122.368
							c-199.011-6.445-259.493-86.203-274.094-157.855c-9.509-46.716,8.629-129.02,31.179-211.846
							c0.826,2.133,1.661,4.261,2.596,6.44c-11.275,52.17-17.197,98.937-10.858,130.01
							c14.596,71.652,75.078,151.414,274.094,157.855c93.684,3.014,170.483-15.014,207.011-61.211
							C1300.303,3098.858,1300.193,3103.592,1299.886,3108.473"/>
					</g>
					<g>
						<path style="fill:#3B0372;" d="M1440.727,2575.377c1.367,39.56-0.748,79.643-8.427,119.033
							c-7.115,39.5-19.918,78.157-37.289,114.749c-17.445,36.569-39.968,70.895-66.725,101.382
							c-13.312,15.303-27.844,29.445-42.73,42.987c-14.885,13.399-30.936,25.89-45.771,37.491l-3.22-30.225l0.005,0.005
							c2.064,1.124,3.138,1.798,4.615,2.697l3.991,2.578c2.583,1.752,5.119,3.523,7.564,5.39c4.908,3.702,9.587,7.642,14.069,11.817
							c8.973,8.321,17.106,17.619,24.193,27.785c7.055,10.17,13.028,21.234,17.537,32.932c4.459,11.706,7.477,24,8.936,36.404
							c1.445,12.473,1.427,24.729-0.05,37.243c-1.5,12.496-4.706,25.069-9.908,36.941c-5.216,11.867-12.459,22.876-21.042,32.404
							c-8.583,9.551-18.441,17.633-28.849,24.344c-20.899,13.427-43.656,21.638-66.345,27.294
							c-22.762,5.518-45.689,8.523-68.478,9.862c-22.785,1.44-45.528,1.188-68.01,0.009c-22.528-1.188-45.11-3.39-67.629-7.106
							c-22.51-3.674-44.968-8.991-66.964-16.615c-11.005-3.752-21.872-8.184-32.487-13.358
							c-10.638-5.083-21.005-10.996-30.895-17.789c-19.803-13.459-37.817-30.624-51.459-51.083
							c-13.707-20.436-22.89-43.587-27.505-67.482c-2.404-12.725-2.789-24.812-2.605-36.638c0.215-11.821,1.238-23.326,2.555-34.702
							c2.766-22.711,6.931-44.84,11.693-66.698c9.596-43.693,21.477-86.377,33.583-128.795
							c12.069-42.386,24.858-84.524,35.459-126.441c2.61-10.464,5.046-20.908,7.041-31.202l1.381-7.661
							c0.413-2.509,0.844-5.174,1.037-7.225c0.495-4.417,0.706-9.331,0.683-14.422c-0.064-20.431-2.225-42.386-4.087-64.161
							c-3.963-43.757-7.748-88.184-8.743-132.827c-1.078-44.638,0.358-89.574,5.505-134.267
							c5.151-44.67,13.959-89.12,27.234-132.364c13.271-43.225,31.074-85.189,53.303-124.707
							c44.39-79.23,106.96-147.396,178.74-201.704l0.027-0.023c8.078-6.11,19.587-4.518,25.702,3.564
							c6.115,8.083,4.523,19.587-3.555,25.702c-68.386,51.766-127.194,115.992-168.928,190.456
							c-20.904,37.161-37.665,76.638-50.211,117.501c-12.546,40.867-20.927,83.065-25.853,125.763
							c-4.917,42.716-6.321,85.918-5.275,129.203c0.963,43.322,4.633,86.611,8.61,130.46c1.849,22.023,4.119,43.904,4.229,67.473
							c0.014,5.908-0.197,12-0.917,18.514c-0.362,3.417-0.83,6.179-1.298,9.101l-1.546,8.564
							c-2.197,11.303-4.761,22.285-7.473,33.152c-10.982,43.376-23.766,85.432-35.78,127.653
							c-12.041,42.152-23.739,84.276-33.009,126.519c-4.606,21.106-8.564,42.262-11.11,63.221
							c-2.404,20.784-3.647,42.06-0.339,60.129c3.734,19.266,11.115,37.794,21.931,53.9c10.794,16.179,25.147,29.977,41.67,41.221
							c8.234,5.66,17.019,10.693,26.225,15.078c9.152,4.473,18.684,8.363,28.487,11.707c19.574,6.784,40.069,11.679,60.959,15.083
							c20.881,3.445,42.138,5.537,63.528,6.661c21.431,1.124,42.753,1.344,63.863,0.009c21.106-1.229,41.964-4.028,61.955-8.872
							c19.908-4.936,39.037-12.064,55.193-22.486c16.17-10.376,28.941-24.133,36.211-40.698c3.619-8.289,5.94-17.234,7.064-26.564
							c1.119-9.321,1.147-19.216,0.037-28.574c-2.165-18.885-9.151-36.886-20.151-52.652c-5.495-7.876-11.908-15.229-19.06-21.867
							c-3.569-3.317-7.307-6.468-11.179-9.385c-1.927-1.477-3.899-2.849-5.863-4.188l-2.94-1.895l-2.491-1.482l-3.22-30.229
							c7.583-6.766,14.982-12.89,22.262-19.152c7.252-6.234,14.271-12.597,21.326-18.881c13.977-12.693,27.188-26.051,39.72-39.968
							c24.968-27.908,46.95-58.395,64.831-91.4c8.963-16.477,16.665-33.666,23.422-51.253c6.656-17.615,12.743-35.555,17.34-53.968
							c2.578-9.133,4.33-18.477,6.431-27.762c1.601-9.381,3.573-18.716,4.853-28.184c3.129-18.872,4.532-38.005,6.069-57.188
							l0.018-0.252c0.404-5.051,4.83-8.821,9.885-8.418C1436.984,2566.918,1440.571,2570.771,1440.727,2575.377"/>
					</g>
					<g>
						<path style="fill:#FC9C24;" d="M2818.821,1495.706c0,0,8.128-201.859,173.235-257.947
							c180.387-61.276,315.154,148.758,264.851,299.384c-37.019,110.836-188.419,152.667-188.419,152.667L2818.821,1495.706z"/>
					</g>
					<g>
						<path style="fill:#FC9C24;" d="M3256.885,1537.125c-4.307,12.941-10.184,24.89-17.143,35.959
							c-21.252-58.872-66.771-44.533-68.799-49.624c-2.445-6.128-144.244-84.019-183.369-150.685
							c-28.945-49.363-73.578-57.106-105.271-55.184c25.253-33.413,60.533-63.078,109.74-79.813
							C3172.453,1176.466,3307.239,1386.541,3256.885,1537.125"/>
					</g>
					<g>
						<path style="fill:#3B0372;" d="M3256.885,1537.125c-4.307,12.941-82.873,16.583-79.207-57.386
							c0.33-6.592-104.73-165.286-174.217-131.432c-71.523,34.849-126.762-23.014-121.157-30.716
							c25.253-33.413,60.533-63.078,109.74-79.813C3172.453,1176.466,3307.239,1386.541,3256.885,1537.125"/>
					</g>
					<g>
						<path style="fill:#3B0372;" d="M2809.656,1495.339c-1.431-12.115-1.234-23.477-0.5-35.147
							c0.802-11.578,2.307-23.124,4.592-34.542c4.564-22.835,12-45.216,22.092-66.537c9.986-21.358,22.303-41.895,37.331-60.606
							c14.968-18.729,32.725-35.532,52.652-49.363c19.959-13.817,41.964-24.528,64.978-31.954
							c23.106-7.532,47.858-11.353,72.666-10.459c24.808,0.793,49.496,6.518,72.18,16.326c22.752,9.739,43.431,23.532,61.505,39.789
							c18.156,16.22,33.542,35.124,46.312,55.464c12.775,20.358,23.009,42.198,30.399,65.001
							c14.702,45.455,18.867,95.318,6.798,142.951c-1.495,5.936-3.252,11.798-5.248,17.624c-2.211,5.863-4.367,11.752-7.129,17.349
							c-5.316,11.271-11.592,22.051-18.908,31.899c-7.252,9.89-15.229,19.119-23.771,27.629
							c-8.587,8.45-17.665,16.248-27.087,23.468c-18.862,14.404-39.032,26.633-60.4,35.904
							c-10.674,4.638-21.592,8.633-32.775,11.734c-11.202,3.216-22.353,5.633-34.409,6.784c-5.119,0.486-9.661-3.271-10.151-8.385
							c-0.367-3.83,1.647-7.339,4.826-9.064l0.44-0.239l28.606-15.5c9.463-5.289,18.881-10.473,28.119-15.853
							c18.404-10.826,36.565-21.766,52.881-34.789c8.151-6.491,15.872-13.395,23.051-20.711
							c7.115-7.358,13.583-15.179,19.367-23.363c5.848-8.151,10.642-16.858,14.66-25.803c2.115-4.44,3.661-9.073,5.34-13.656
							c1.532-4.748,2.904-9.587,4.055-14.482c9.166-39.23,5.89-81.666-7.105-120.749c-12.982-39.102-35.679-75.212-65.643-102.505
							c-29.808-27.409-67.858-44.858-107.469-46.258c-19.762-0.826-39.734,2.129-59.115,8.019
							c-19.491,5.963-38.128,14.693-55.009,26.005c-33.89,22.606-60.354,55.881-78.583,93.666
							c-9.073,18.936-16.551,38.78-23.252,59.069c-3.349,10.147-6.532,20.417-9.495,30.803c-2.982,10.307-5.748,21.074-8.468,31.22
							l-0.152,0.573c-1.326,4.95-6.417,7.89-11.367,6.564C2812.697,1502.206,2810.096,1498.99,2809.656,1495.339"/>
					</g>
					<g>
						<path style="fill:#FF8E8E;" d="M3189.027,1477.111c-1.817,22.032-8.473,40.945-18.344,57.106
							c-28.473,46.766-83.707,70.771-125.382,82.308c-39.803-1.977-38.913-15.174-73.056-49.312
							c-28.216-28.166-47.542-28.528-54.037-61.156c4.83-43.652,22.913-91.193,53.156-125.799c6.908-8,14.551-15.275,22.757-21.665
							C3074.92,1295.871,3199.366,1351.573,3189.027,1477.111"/>
					</g>
					<g>
						<path style="fill:#F17070;" d="M3170.683,1534.215c-28.473,46.767-83.707,70.771-125.382,82.308
							c-39.803-1.977-38.913-15.175-73.056-49.312c-28.216-28.161-47.542-28.528-54.037-61.157
							c4.83-43.647,22.913-91.193,53.156-125.799c0.67,27.592,5.817,59.496,24.785,70.771
							c35.955,21.358,78.253-12.885,93.212,11.899C3102.613,1484.958,3072.269,1562.069,3170.683,1534.215"/>
					</g>
					<g>
						<path style="fill:#3B0372;" d="M3045.317,1633.7c-0.278,0-0.557-0.005-0.83-0.02c-35.605-1.724-46.821-12.671-65.137-33.496
							c-5.264-5.986-11.23-12.769-19.272-20.811c-8.608-8.604-16.484-14.477-23.433-19.663
							c-15.283-11.406-29.722-22.178-35.313-50.308c-0.347-1.733-0.42-3.506-0.225-5.259c7.158-64.214,38.755-125.19,82.466-159.131
							c43.486-33.76,102.383-38.887,150.063-13.066c50.718,27.471,77.842,82.261,72.554,146.572
							c-8.145,99.106-101.416,139.375-156.289,154.556C3048.408,1633.49,3046.865,1633.7,3045.317,1633.7z M2935.625,1505.214
							c3.135,13.149,8.848,17.407,21.597,26.924c7.49,5.591,16.816,12.544,27.183,22.905c0,0.005,0,0.005,0,0.005
							c8.818,8.818,15.449,16.357,20.776,22.417c14.482,16.46,17.974,20.43,38.228,21.699
							c46.519-13.315,122.183-46.675,128.496-123.467c4.136-50.293-16.294-92.725-54.653-113.496
							c-36.235-19.629-79.37-15.796-112.578,9.985C2961.812,1405.473,2941.011,1462.177,2935.625,1505.214z"/>
					</g>
					<g>
						<path style="fill:#FC9C24;" d="M3309.49,2317.119c-23.331,171.548-250.842,315.751-502.638,374.696
							c-219.314,51.335-560.542,36.932-751.021-70.675c-348.884-197.098-294.686-634.198-126.061-937.807
							c96.817-174.327,322.205-375.31,708.836-349.499c412.109,27.514,606.593,352.237,631.996,714.552
							C3273.522,2089.979,3328.146,2179.948,3309.49,2317.119"/>
					</g>
					<g>
						<path style="fill:#3B0372;" d="M2581.658,1596.353c0,0-83.785-185.08-202.451-243.47
							c47.776-11.11,99.253-18.266,154.538-20.473C2563.318,1365.425,2599.998,1464.38,2581.658,1596.353"/>
					</g>
					<g>
						<path style="fill:#3B0372;" d="M2764.743,1582.269c0,0-28.423-168.855-118.992-247.883
							c48.317,3.61,93.652,11.381,135.969,22.863C2798.216,1405.621,2799.592,1487.227,2764.743,1582.269"/>
					</g>
					<g>
						<path style="fill:#FC9C24;" d="M1853.611,2412.164c-22.482-45.23-37.574-93.606-46.363-143.818
							c60.496-48.982,150.891-86.335,273.892-99.175C2081.14,2169.171,1908.4,2256.177,1853.611,2412.164"/>
					</g>
					<g>
						<path style="fill:#FC9C24;" d="M2044.75,2041.815c0,0-142.29,30.349-246.842,125.955
							c-0.633-37.074,1.642-74.666,6.468-112.364C1873.349,2037.627,1950.584,2034.816,2044.75,2041.815"/>
					</g>
					<g>
						<path style="fill:#FC9C24;" d="M2142.613,2332.614c0,0-118.061,130.341-124.144,265.521
							c-36.523-24.555-67.936-52.074-94.652-82.033C1944.235,2454.298,2009.304,2372.899,2142.613,2332.614"/>
					</g>
					<g>
						<path style="fill:#EED0B0;" d="M3312.424,2288.516c-0.628,9.28-1.61,18.821-2.936,28.606
							c-23.344,171.538-250.842,315.75-502.638,374.705c-219.318,51.335-560.555,36.95-751.039-70.684
							c-335.26-189.419-298.25-600.482-145.189-901.728c1.537-3.101,3.124-6.138,4.761-9.174c1.459-2.771,2.917-5.541,4.372-8.312
							c-285.801,1054.321,580.904,737.557,616.533,684.01c30.78-19.399,64.014-107.226,162.355-157.515
							c80.785-41.303,165.098-36.606,217.465-15.248c51.28,20.913,75.849,69.001,91.629,80.056
							c64.799,45.39,272.03,78.4,289.571-149.501c0.569,2.188,1.188,4.436,1.757,6.684c1.954,7.748,3.831,15.876,5.519,24.326
							c0.592,2.688,1.119,5.486,1.592,8.275c0.61,3.184,1.165,6.482,1.711,9.775c0.39,2.395,0.725,4.739,1.11,7.193
							c0.041,0.225,0.027,0.445,0.115,0.725c0.363,2.784,0.78,5.628,1.087,8.463c0.399,3.06,0.743,6.119,1.027,9.174
							c0.307,2.835,0.555,5.665,0.803,8.551c0.468,6.106,0.872,12.372,1.096,18.785c0.11,3.266,0.216,6.587,0.211,9.895
							c0.06,3.206,0.06,6.463,0,9.766c0.009,0.665-0.042,1.381-0.032,2.046C3313.227,2274.277,3312.91,2281.319,3312.424,2288.516"
							/>
					</g>
					<g>
						<path style="fill:#FFF8EE;" d="M3312.424,2288.516c-0.628,9.28-1.61,18.821-2.936,28.606
							c-23.344,171.538-250.842,315.75-502.638,374.705c-219.318,51.335-560.555,36.95-751.039-70.684
							c-335.26-189.419-298.25-600.482-145.189-901.728c1.537-3.101,3.124-6.138,4.761-9.174c1.459-2.771,2.917-5.541,4.372-8.312
							c-285.801,1054.321,580.904,737.557,616.533,684.01c30.78-19.399,64.014-107.226,162.355-157.515
							c80.785-41.303,165.098-36.606,217.465-15.248c51.28,20.913,75.849,69.001,91.629,80.056
							c64.799,45.39,272.03,78.4,289.571-149.501c0.569,2.188,1.188,4.436,1.757,6.684c1.954,7.748,3.831,15.876,5.519,24.326
							c0.592,2.688,1.119,5.486,1.592,8.275c0.61,3.184,1.165,6.482,1.711,9.775c0.39,2.395,0.725,4.739,1.11,7.193
							c0.041,0.225,0.027,0.445,0.115,0.725c0.363,2.784,0.78,5.628,1.087,8.463c0.399,3.06,0.743,6.119,1.027,9.174
							c0.307,2.835,0.555,5.665,0.803,8.551c0.468,6.106,0.872,12.372,1.096,18.785c0.11,3.266,0.216,6.587,0.211,9.895
							c0.06,3.206,0.06,6.463,0,9.766c0.009,0.665-0.042,1.381-0.032,2.046C3313.227,2274.277,3312.91,2281.319,3312.424,2288.516"
							/>
					</g>
					<g>
						<path style="fill:#FFF7ED;" d="M3313.316,2255.59c0.101,3.165,0.101,6.44,0,9.766c0.055,0.624,0,1.353,0,2.028
							c-0.101,6.908-0.417,13.922-0.881,21.152c-0.624,9.243-1.61,18.803-2.963,28.573
							c-23.33,171.575-250.819,315.769-502.615,374.742c-219.332,51.34-560.555,36.945-751.048-70.716
							c-213.557-120.653-276.062-331.2-253.672-546.06c1.56,183.479,73.322,355.049,257.938,459.389
							c190.483,107.611,531.711,122.006,751.039,70.666c248.529-58.198,473.311-199.424,501.577-367.985
							c0.207,2.803,0.317,5.661,0.418,8.519C3313.215,2248.939,3313.316,2252.26,3313.316,2255.59"/>
					</g>
					<g style="opacity:0.6;">
						<g>
							<g>
								<path style="fill:#FFFFFF;" d="M3313.213,2248.625c-10.551-72.432-36.372-122.937-38.344-151.153
									c-25.408-362.324-219.901-687.024-632.006-714.566c-386.636-25.821-611.992,175.158-708.846,349.49
									c-83.918,151.102-139.465,335.2-131.153,506.408c-23.014-184.46,34.918-389.811,126.891-555.459
									c96.854-174.328,322.205-375.316,708.85-349.49c412.1,27.487,606.593,352.242,632.001,714.516
									C3272.992,2082.614,3310.41,2149.587,3313.213,2248.625"/>
							</g>
						</g>
					</g>
					<g>
						<path style="fill:#3B0372;" d="M2532.52,2743.368c-175.981,0-362.197-31.206-487.969-102.256
							c-165.371-93.428-258.291-248.252-268.721-447.734c-8.501-162.705,40.298-352.666,133.892-521.182
							c57.852-104.165,148.105-195.943,254.146-258.423c136.167-80.244,296.372-114.824,476.27-102.827
							c197.808,13.208,362.905,96.313,477.437,240.337c101.284,127.363,162.114,298.706,175.913,495.498
							c0.649,9.287,5.669,24.878,11.484,42.93c16.401,50.947,41.196,127.939,27.246,230.498l0,0
							c-26.406,194.199-280.269,337.783-520.137,393.94C2731.187,2733.08,2633.535,2743.368,2532.52,2743.368z M2571.831,1354.506
							c-400.708,0-576.226,257.529-622.012,339.966c-89.526,161.196-136.245,342.168-128.179,496.509
							c9.565,183.032,94.448,324.873,245.469,410.19c185.732,104.912,525.884,117.148,734.512,68.311
							c265.64-62.183,465.137-208.354,485.146-355.454c12.539-92.236-10.327-163.257-25.464-210.254
							c-7.002-21.758-12.539-38.945-13.579-53.784c-28.784-410.498-257.061-669.663-610.645-693.271
							C2614.707,1355.224,2592.939,1354.506,2571.831,1354.506z M3309.492,2317.118h0.049H3309.492z"/>
					</g>
					<g>
						<path style="fill:#3B0372;" d="M3312.438,2288.35c-22.01-26.16-49.794-50.175-84.955-68.019c0,0,38.115-3.706,84.29,3.789
							C3313.566,2244.056,3313.988,2265.501,3312.438,2288.35"/>
					</g>
					<g>
						<path style="fill:#3B0372;" d="M3291.885,2124.483c-26.909-17.445-60.625-32.151-102.891-41.198
							c0,0,36.243-17.628,82.882-25.831C3275.109,2074.066,3283.467,2096.433,3291.885,2124.483"/>
					</g>
					<g>
						<path style="fill:#3B0372;" d="M3260.841,1959.85c-33.766-12.28-74.693-19.142-124.061-16.257c0,0,49.62-41.555,109.267-61.73
							C3251.978,1907.483,3256.891,1933.479,3260.841,1959.85"/>
					</g>
					<g>
						<path style="fill:#3B0372;" d="M2081.138,2169.173c0,0-172.735,87.005-227.53,242.993
							c-22.482-45.234-37.574-93.611-46.363-143.818C1867.741,2219.361,1958.141,2182.012,2081.138,2169.173"/>
					</g>
					<g>
						<path style="fill:#3B0372;" d="M2044.75,2041.815c0,0-142.29,30.349-246.842,125.955
							c-0.633-37.074,1.642-74.666,6.468-112.364C1873.349,2037.627,1950.584,2034.816,2044.75,2041.815"/>
					</g>
					<g>
						<path style="fill:#3B0372;" d="M2142.613,2332.614c0,0-118.061,130.341-124.144,265.521
							c-36.523-24.555-67.936-52.074-94.652-82.033C1944.235,2454.298,2009.304,2372.899,2142.613,2332.614"/>
					</g>
					<g>
						<path style="fill:#3B0372;" d="M2450.708,1710.572c55.445,7.665,65.757,59.496,10.739,100.075
							c-20.601,15.193-125.754,61.583-150.478,45.62C2273.436,1832.036,2363.569,1698.521,2450.708,1710.572"/>
					</g>
					<g>
						<path style="fill:#3B0372;" d="M2977.205,1669.274c-49.817,12.656-53.945,61.01,0.413,92.437
							c20.349,11.766,121.056,43.381,141.997,26.289C3151.4,1762.059,3055.513,1649.388,2977.205,1669.274"/>
					</g>
					<g>
						<path style="fill:#FFF8EE;" d="M2646.66,2171.978c1.878,50.723-59.718,125.674-182.799,137.42
							c-78.68,7.511-193.003-26.542-208.063-134.732c-14.26-102.488,66.803-295.07,192.245-301.313
							C2579.52,1866.809,2644.555,2115.253,2646.66,2171.978"/>
					</g>
					<g>
						<path style="fill:#FFF8EE;" d="M2905.175,2123.647c8.356,44.843,42.695,96.448,126.511,103.979
							c66.876,6.017,148.418-20.78,167.907-116.964c15.448-76.206-39.584-239.886-153.748-263.759
							C2944.286,1825.67,2888.951,2036.568,2905.175,2123.647"/>
					</g>
					<g>
						<path style="fill:#3B0372;" d="M2669.764,2353.512c0,0,9.532,60.624,33.188,113.597c19.436,43.61,48.395,81.991,89.487,77.212
							c34.835-4.055,61.766-40.629,81.152-80.629c25.152-51.927,37.505-109.703,37.505-109.703L2669.764,2353.512z"/>
					</g>
					<g>
						<path style="fill:#FF8CC3;" d="M2702.954,2467.108c19.431,43.615,48.395,81.992,89.487,77.212
							c34.835-4.055,61.766-40.624,81.147-80.629c-9.28-6.913-51.271-16.023-90.983,5.308
							C2782.606,2468.998,2739.551,2447.566,2702.954,2467.108"/>
					</g>
					<g>
						<path style="fill:#3B0372;" d="M2785.161,2561.967c-97.144,0-128.989-184.155-132.388-205.771
							c-0.781-4.971,0.654-10.039,3.931-13.862c3.267-3.813,8.037-6.011,13.062-6.011c0.01,0,0.024,0,0.034,0l241.348,0.464
							c5.186,0.01,10.093,2.358,13.35,6.396s4.521,9.326,3.438,14.399c-4.224,19.766-43.843,193.408-133.525,203.838
							C2791.27,2561.786,2788.174,2561.967,2785.161,2561.967z M2690.522,2370.766c12.383,57.656,46.069,162.617,99.912,156.484
							c48.062-5.591,84.023-102.241,98.735-156.104L2690.522,2370.766z"/>
					</g>
					<g>
						<path style="fill:#FFF8EE;" d="M2976.269,2296.042c0,0,9.261,73.12-25.688,95.675
							c-53.253,34.372-106.308,5.073-134.946-23.225c0,0-35.514,87.615-120.675,66.331c-49.808-12.445-77.615-70.51-77.615-70.51
							s30.638-103.482,160.226-130.73C2907.158,2206.326,2976.269,2296.042,2976.269,2296.042"/>
					</g>
					<g>
						<path style="fill:#EED0B0;" d="M2617.356,2364.294c0,0,27.784,58.079,77.602,70.514
							c85.161,21.299,120.694-66.303,120.694-66.303c28.606,28.298,81.694,57.56,134.951,23.22
							c21.716-14.023,26.353-47.546,26.743-70.9c-37.028,58.395-104.496,33.202-136.46-32.115c0,0-49.67-0.587-66.606,15.661
							c-8.037,39.037-43.693,68.372-103.863,70.721c-16.675,0.665-34.477-5.959-51.322-15.766
							C2617.865,2362.501,2617.356,2364.294,2617.356,2364.294"/>
					</g>
					<g>
						<path style="fill:#3B0372;" d="M2819.314,2262.099c4.28,9.014,7.243,17.39,9.858,26.436c2.583,8.931,4.491,18.101,5.72,27.45
							c1.284,9.344,1.867,18.881,1.559,28.51c-0.073,9.647-1.44,19.321-3.165,29.014c-1.789,10.028-11.363,16.707-21.385,14.922
							c-10.028-1.784-16.707-11.363-14.922-21.385c0.179-1.014,0.44-1.991,0.771-2.927l0.239-0.638
							c2.587-7.188,5.092-14.573,6.509-22.326c1.629-7.698,2.555-15.656,2.863-23.716c0.362-8.06,0.124-16.248-0.757-24.404
							c-0.807-8.041-2.349-16.578-4.326-23.844l-0.193-0.716c-1.335-4.917,1.569-9.982,6.482-11.317
							C2812.942,2255.966,2817.438,2258.145,2819.314,2262.099"/>
					</g>
					<g>
						<path style="fill:#3B0372;" d="M2987.19,2294.658c1.638,11.505,2.234,22.211,2.096,33.519
							c-0.225,11.193-1.239,22.592-4.207,34.152c-3.014,11.445-7.867,23.542-17.482,33.835c-2.39,2.546-5.083,4.908-8.013,7.005
							c-2.808,1.991-5.037,3.404-7.688,5.018c-5.133,3.105-10.619,5.761-16.28,8.083c-11.399,4.496-23.794,7.142-36.239,7.376
							c-12.45,0.353-24.803-1.651-36.427-5.156c-23.239-7.211-43.913-19.885-60.211-36.945l29.904-6.156
							c-0.826,2.119-1.33,3.266-2.005,4.826c-0.633,1.445-1.307,2.849-1.995,4.22c-1.381,2.757-2.825,5.445-4.349,8.078
							c-3,5.298-6.431,10.335-10.147,15.202c-7.367,9.752-16.11,18.761-26.335,26.317c-10.207,7.486-21.867,13.67-34.418,17.133
							c-12.496,3.56-25.606,4.835-38.166,3.729c-6.28-0.532-12.468-1.482-18.431-2.931c-5.83-1.307-12.257-3.28-18.051-5.817
							c-11.729-5.101-21.945-12.303-30.89-20.298c-8.94-8.042-16.651-16.968-23.257-26.473c-3.321-4.743-6.395-9.61-9.266-14.587
							c-2.913-5.069-5.385-9.899-7.922-15.72c-2.427-5.573,0.124-12.06,5.697-14.487c5.142-2.243,11.064-0.238,13.858,4.463
							l0.303,0.509c2.271,3.821,5.321,8.262,8.211,12.261c2.977,4.069,6.115,8.005,9.408,11.771
							c6.615,7.486,13.711,14.385,21.354,20.11c7.642,5.697,15.775,10.307,24.147,13.046c7.995,2.771,17.661,4.184,26.514,4.349
							c17.954,0.307,34.243-6.055,48.078-17.064c3.514-2.674,6.766-5.817,9.954-9.042c3.22-3.206,6.243-6.702,9.078-10.39
							c2.835-3.679,5.473-7.564,8.032-11.486c1.266-1.972,2.468-3.986,3.596-5.991l2.991-5.514l12.982-23.968l16.917,17.808
							c13.67,12.335,28.876,23.601,45.528,29.936c16.601,6.39,34.303,7.473,51.046,2.055c4.165-1.404,8.308-3.041,12.331-5.119
							c1.917-0.977,4.216-2.257,5.757-3.207c1.413-0.862,2.775-1.881,4.069-3.087c5.225-4.761,9.395-12.427,12.202-21.069
							c5.651-17.335,7.018-38.312,5.881-57.524l-0.037-0.569c-0.358-6.069,4.271-11.276,10.335-11.638
							C2981.392,2284.882,2986.378,2289.061,2987.19,2294.658"/>
					</g>
					<g>
						<path style="fill:#3B0372;" d="M2820.443,2333.729c83.555-20.188,115.06-91.171,108.23-110.363
							c-3.996-11.216-50.074-29.17-119.533-23.299c-69.455,5.876-108.363,23.248-110.4,44.055
							C2696.864,2263.252,2723.726,2321.083,2820.443,2333.729"/>
					</g>
					<g style="opacity:0.4;">
						<g>
							<g>
								<path style="fill:#FFFFFF;" d="M2836.642,2261.907c44.505-7.89,57.243-31.308,56.308-35.537
									c-0.463-2.174-24.913-7.468-57.611-6.45c-32.697,1.009-56.794,7.817-57.124,10.014
									C2777.567,2234.209,2791.738,2256.797,2836.642,2261.907"/>
							</g>
						</g>
					</g>
					<g>
						<path style="fill:#FB7D27;" d="M2685.322,2190.72c-12.303-22.023,42.583-78.189,109.735-81.097
							c62.376-2.707,124.506,41.321,115.106,66.831c-5.422,14.702-36.991-9.179-106.478-4.161
							C2748.703,2176.27,2692.341,2203.284,2685.322,2190.72"/>
					</g>
					<g>
						<path style="fill:#FC9C24;" d="M2164.819,1504.782c0,0-43.023-202.515-204.823-215.718
							c-189.75-15.477-275.204,180.525-223.998,330.723c45.51,133.483,191.855,155.511,191.855,155.511L2164.819,1504.782z"/>
					</g>
					<g>
						<path style="fill:#FC9C24;" d="M2099.98,1368.098c-10.188,42.711-51.129,63.753-120.134,66.923
							c-91.712,4.211-93.528,49-173.346,186.543c-15.95,27.486-31.014,42.867-44.89,49.831
							c-10.184-15.018-18.964-32.115-25.619-51.597c-51.18-150.222,34.243-346.214,224.002-330.732
							C2023.337,1294.212,2068.494,1328.4,2099.98,1368.098"/>
					</g>
					<g>
						<path style="fill:#3B0372;" d="M2099.98,1368.098c41.565,69.423-19.285,90.23-115.565,101.249
							c-91.212,10.44-82.528,132.96-154.047,208.148c-21.908,23.028-47.684,24.436-68.757-6.101
							c-10.184-15.018-18.964-32.115-25.619-51.597c-51.18-150.222,34.243-346.214,224.002-330.732
							C2023.337,1294.212,2068.494,1328.4,2099.98,1368.098"/>
					</g>
					<g>
						<path style="fill:#3B0372;" d="M2099.98,1368.098c41.565,69.423-19.285,90.23-115.565,101.249
							c-91.212,10.44-82.528,132.96-154.047,208.148c-21.908,23.028-47.684,24.436-68.757-6.101
							c-10.184-15.018-18.964-32.115-25.619-51.597c-51.18-150.222,34.243-346.214,224.002-330.732
							C2023.337,1294.212,2068.494,1328.4,2099.98,1368.098"/>
					</g>
					<g>
						<path style="fill:#3B0372;" d="M2155.842,1506.688c-17.578-38.835-35.78-77.308-58.849-111.377
							c-23.298-33.872-54.23-61.881-90.932-75.817c-9.142-3.491-18.564-6.193-28.197-8.018c-9.661-1.821-19.372-2.706-29.606-3.032
							c-20.197-0.596-40.257,1.211-59.386,6.239c-38.344,9.762-72.414,32.638-96.868,64.042
							c-24.716,31.202-40.574,69.881-46.968,110.056c-6.408,40.198-3.661,82.056,8.404,120.799
							c5.904,19.271,14.743,37.243,25.918,53.803c5.771,8.142,11.982,15.995,18.849,23.326c6.931,7.271,14.34,14.124,22.216,20.491
							c15.89,12.62,33.5,23.12,51.757,32.867c9.161,4.835,18.56,9.349,28.106,13.762c9.477,4.317,19.541,8.5,28.936,12.399
							l0.725,0.303c4.729,1.964,6.973,7.395,5.009,12.124c-1.473,3.532-4.876,5.674-8.468,5.716
							c-12.216,0.133-23.395-1.363-34.794-3.729c-11.335-2.294-22.454-5.601-33.312-9.725
							c-21.771-8.165-42.166-20.161-60.886-34.495c-9.317-7.253-18.184-15.142-26.532-23.61
							c-8.294-8.532-15.895-17.757-22.954-27.395c-13.757-19.514-24.812-41.147-32.151-63.716
							c-14.904-44.776-18.257-92.831-11.147-139.244c7.193-46.322,24.904-91.827,54.817-129.483
							c14.904-18.776,32.844-35.386,53.097-48.666c20.216-13.34,42.812-23.064,66.156-28.991c23.363-5.913,47.45-8.092,71.056-6.904
							c11.675,0.555,23.844,1.83,35.707,4.275c11.876,2.44,23.564,5.977,34.835,10.495c22.578,9.028,43.234,22.28,61.101,38.032
							c17.899,15.776,33.147,33.945,46.083,53.266c13.032,19.271,23.684,39.886,31.537,61.39
							c3.945,10.748,7.197,21.716,9.725,32.844c2.509,11.207,4.45,22.216,4.968,34.161c0.225,5.129-3.752,9.468-8.881,9.693
							c-3.899,0.17-7.34-2.087-8.867-5.431L2155.842,1506.688z"/>
					</g>
					<g>
						<path style="fill:#FF8E8E;" d="M2088.964,1575.317c-6.078,33.826-26.087,34.555-54.666,64.17
							c-34.656,35.854-33.514,49.519-74.615,52.276c-23.381-6.078-50.918-15.743-76.069-30.918
							c-37.468-22.656-69.624-57.469-74.932-110.469c-10.803-107.923,75.973-167.469,154.226-147.57
							c15.587,3.95,30.863,11.069,44.941,21.615C2053.941,1458.926,2081.794,1519.981,2088.964,1575.317"/>
					</g>
					<g>
						<path style="fill:#F17070;" d="M2088.964,1575.317c-6.078,33.826-26.087,34.555-54.666,64.17
							c-34.656,35.854-33.514,49.519-74.615,52.276c-23.381-6.078-50.918-15.743-76.069-30.918
							c94.207-13.042,33.308-67.656,28.216-100.597c-7.069-46.349,72.588-14.495,90.932-53.624
							c15.743-33.619-27.436-88.904-39.854-103.818c15.587,3.95,30.863,11.069,44.941,21.615
							C2053.941,1458.926,2081.794,1519.981,2088.964,1575.317"/>
					</g>
					<g>
						<path style="fill:#3B0372;" d="M1959.697,1708.949c-1.445,0-2.891-0.181-4.292-0.542
							c-56.812-14.639-153.647-54.409-163.853-156.294c-6.621-66.104,20.288-122.993,71.973-152.183
							c48.574-27.432,109.268-23.237,154.619,10.698c54.565,40.84,81.177,110.708,87.891,162.48
							c0.225,1.753,0.181,3.525-0.132,5.264c-5.22,28.94-19.849,40.269-35.342,52.256c-7.1,5.493-15.146,11.724-23.906,20.801l0,0
							c-8.174,8.472-14.219,15.596-19.551,21.88c-18.438,21.729-29.756,33.184-66.27,35.601
							C1960.454,1708.935,1960.078,1708.949,1959.697,1708.949z M1932.48,1416.073c-17.822,0-35.664,4.57-52.036,13.813
							c-39.443,22.28-59.878,66.689-54.663,118.799c7.979,79.595,87.09,112.774,135.518,125.698
							c21.216-1.694,24.766-5.879,39.57-23.33c5.391-6.353,12.095-14.253,21.03-23.511l0,0
							c10.493-10.874,19.98-18.218,27.607-24.121c13.14-10.171,19.009-14.712,22.036-28.618
							c-6.357-44.492-28.955-102.91-74.014-136.626C1977.935,1423.51,1955.22,1416.073,1932.48,1416.073z"/>
					</g>
					<g>
						<path style="fill:#3B0372;" d="M2761.419,2461.777c0,0,22.413,4.138,32.124,29.629c0,0,12.459-25.693,0.564-36.968
							c-11.899-11.28-26.807,0.372-26.807,0.372"/>
					</g>
					<g>
						<path style="fill:#3B0372;" d="M977.201,2982.141c11.427-4.972,22.381-8.812,33.812-12.33
							c5.67-1.78,11.418-3.239,17.138-4.872l17.353-4.087c23.248-4.995,47.037-7.826,71.001-8.573
							c11.991-0.67,24.014,0.069,36.064,0.454c6.009,0.5,12.014,1.215,18.032,1.821c3,0.344,6.028,0.573,9.023,1.018l8.945,1.619
							c24.069,3.569,47.34,11.372,70.258,20.032c9.491,3.583,14.275,14.184,10.693,23.67c-3.587,9.486-14.183,14.275-23.674,10.688
							c-0.344-0.124-0.679-0.266-1.005-0.413l-1.129-0.509c-19.766-8.908-40.051-17.399-61.583-22.01l-8-2.023
							c-2.688-0.583-5.422-0.959-8.133-1.454c-5.431-0.908-10.867-1.936-16.33-2.766c-11.009-1.051-22.028-2.509-33.17-2.605
							c-22.23-0.78-44.698,0.362-66.936,3.624l-16.633,2.775c-5.482,1.188-11.032,2.202-16.491,3.528
							c-10.862,2.546-21.982,5.697-32.028,9.289l-0.459,0.165c-4.771,1.702-10.018-0.78-11.72-5.551
							C970.6,2989.073,972.829,2984.059,977.201,2982.141"/>
					</g>
					<g>
						<path style="fill:#3B0372;" d="M2209.804,3127.906c41.133-26.441,87.07-45.592,135.441-55.964
							c24.202-5.124,49.056-8.041,74.354-7.647c25.253,0.504,51.161,4.009,76.551,14.583c9.362,3.904,13.789,14.656,9.89,24.019
							c-3.899,9.362-14.652,13.794-24.014,9.89c-0.358-0.147-0.716-0.307-1.06-0.477l-0.454-0.229
							c-18.207-9.032-40.106-13.908-62.372-15.711c-22.354-1.803-45.326-0.656-68.037,2.66
							c-45.473,6.729-90.102,21.95-130.767,44.556l-0.11,0.064c-4.431,2.459-10.018,0.862-12.477-3.569
							C2204.382,3135.837,2205.781,3130.502,2209.804,3127.906"/>
					</g>
					<g>
						<path style="fill:#3B0372;" d="M2481.56,3156.782c3.743,2.468,6.362,4.573,9.266,7.073c2.803,2.44,5.468,5.009,8.004,7.702
							c5.078,5.381,9.642,11.257,13.661,17.546c8.037,12.569,13.679,26.854,16.633,41.688c1.537,7.459,2.156,14.904,2.422,22.431
							c0.225,7.573-0.284,15.34-1.56,23.202c-1.445,7.858-3.752,15.817-7.477,23.555c-1.835,3.872-4.096,7.661-6.752,11.344
							c-1.335,1.839-2.821,3.656-4.436,5.445c-0.881,0.908-1.693,1.785-2.684,2.702c-1.128,1.009-1.628,1.592-3.908,3.216
							c-8.482,5.555-19.849,3.179-25.404-5.294c-5.555-8.477-3.183-19.849,5.294-25.404c-0.899,0.67-0.11,0.17,0.027,0.069
							c0.28-0.179,0.651-0.504,0.995-0.748c0.72-0.633,1.468-1.326,2.211-2.133c1.473-1.61,2.94-3.454,4.22-5.542
							c2.61-4.133,4.697-9,6.284-14.234c2.954-10.496,3.876-22.885,3.078-34.629c-0.904-11.771-3.908-23.436-9.115-34.29
							c-2.61-5.417-5.729-10.642-9.339-15.523c-1.803-2.449-3.725-4.807-5.748-7.051c-1.931-2.17-4.372-4.528-6.069-6.009
							l-0.67-0.587c-3.807-3.326-4.197-9.106-0.872-12.913C2472.674,3154.906,2477.798,3154.291,2481.56,3156.782"/>
					</g>
					<g>
						<path style="fill:#3B0372;" d="M2961.947,2987.149c2.798,2.858,4.605,5.055,6.637,7.665c1.977,2.523,3.766,5.119,5.514,7.757
							c3.445,5.294,6.473,10.821,9.129,16.528c2.665,5.697,5.014,11.564,6.931,17.564c1.027,2.991,1.858,6.023,2.688,9.073
							c0.885,2.977,1.395,6.619,1.853,9.94c1.674,13.665,0.184,27.564-3.56,40.468c-1.867,6.468-4.261,12.725-7.151,18.757
							c-1.445,3.014-3.005,5.977-4.707,8.904c-0.858,1.463-1.739,2.922-2.693,4.385l-1.477,2.22
							c-0.578,0.821-0.927,1.358-1.876,2.564c-6.523,7.752-18.096,8.752-25.854,2.229c-7.752-6.518-8.757-18.092-2.234-25.849
							c-0.032,0.096,0.496-0.509,0.785-0.839l1.051-1.271l2.128-2.775c1.399-1.922,2.738-3.931,4-5.991
							c2.523-4.128,4.716-8.468,6.504-12.908c3.592-8.89,5.542-18.225,5.376-27.532c-0.055-2.399-0.229-4.482-0.486-7.147
							c-0.248-2.606-0.477-5.229-0.899-7.812c-0.698-5.202-1.785-10.344-3.147-15.422c-1.358-5.078-3.051-10.078-5.105-14.899
							c-1.051-2.39-2.138-4.775-3.353-7.046c-1.115-2.202-2.656-4.707-3.619-6.207l-0.66-1.027
							c-2.72-4.248-1.491-9.899,2.757-12.629C2954.195,2983.471,2958.984,2984.117,2961.947,2987.149"/>
					</g>
					<g>
						<path style="fill:#3B0372;" d="M2851.38,3017.768c4.684,5.422,8.005,10.34,11.335,15.932
							c3.234,5.495,6.041,11.271,8.427,17.284c4.633,11.977,7.656,25.34,7.651,38.464c0.119,13.014-1.633,26.289-5.665,39.087
							c-1.977,6.408-4.459,12.711-7.592,18.803c-1.56,3.051-3.266,6.055-5.143,9.032c-0.986,1.486-1.936,2.968-3.041,4.459
							c-0.523,0.743-1.101,1.504-1.706,2.28l-0.963,1.188c-0.362,0.431-0.624,0.766-1.312,1.504
							c-7.115,7.216-18.734,7.294-25.95,0.184c-7.216-7.119-7.294-18.734-0.183-25.954c-0.184,0.216,0.037,0.005,0.156-0.101
							c0.119-0.101,0.293-0.28,0.458-0.454c0.335-0.33,0.679-0.683,1.041-1.101c0.716-0.761,1.422-1.661,2.142-2.523
							c1.422-1.794,2.794-3.707,4.096-5.702c2.62-3.986,4.876-8.326,6.798-12.84c3.927-9.009,6.317-18.844,7.271-29
							c0.509-5.165,0.83-9.954,0.711-15.041c-0.248-5.028-0.789-10.119-1.849-15.188c-1.078-5.051-2.541-10.097-4.417-15.014
							c-1.798-4.803-4.298-9.986-6.596-13.84l-0.463-0.771c-2.592-4.344-1.17-9.968,3.174-12.56
							C2843.636,3013.585,2848.527,3014.466,2851.38,3017.768"/>
					</g>
					<g>
						<path style="fill:#3B0372;" d="M2366.808,3182.93c2.151,1.427,3.491,2.45,5.101,3.725c1.537,1.225,3.018,2.477,4.445,3.78
							c2.862,2.587,5.564,5.326,8.115,8.197c5.083,5.757,9.624,12.019,13.459,18.729c7.738,13.395,12.752,28.473,14.908,43.854
							c2.092,15.275,1.853,31.344-2.523,47.468c-2.142,8.037-5.519,15.968-10.087,23.418c-2.353,3.693-4.89,7.312-7.927,10.711
							c-1.472,1.72-3.11,3.376-4.835,5.014c-0.927,0.821-1.729,1.615-2.784,2.445l-1.569,1.243c-0.716,0.504-0.94,0.738-2.257,1.564
							c-8.716,5.17-19.973,2.298-25.142-6.422c-5.17-8.711-2.298-19.968,6.417-25.138c-0.573,0.376-0.092,0.11-0.092,0.11
							c0.119-0.046,0.349-0.216,0.523-0.312c0.353-0.179,0.826-0.578,1.248-0.849c0.867-0.67,1.785-1.371,2.665-2.216
							c1.807-1.587,3.473-3.523,5.101-5.509c3.156-4.096,5.872-8.817,7.854-14.051c4.119-10.381,5.61-22.601,5.427-34.95
							c-0.257-12.284-2.757-24.487-7.628-35.863c-2.413-5.697-5.464-11.156-9.005-16.284c-1.78-2.56-3.702-5.028-5.734-7.358
							c-1.014-1.174-2.069-2.298-3.128-3.381c-0.991-1.018-2.321-2.229-2.986-2.835l-0.766-0.697
							c-3.743-3.404-4.014-9.183-0.615-12.927C2358.069,3181.012,2363.106,3180.476,2366.808,3182.93"/>
					</g>
					<g>
						<path style="fill:#3B0372;" d="M2714.776,2951.819c18.505-9.789,37.069-17.881,56.344-25.243
							c19.234-7.261,38.941-13.505,59.212-18.271c20.266-4.757,41.115-8.032,62.519-8.867c10.711-0.321,21.542-0.147,32.454,0.981
							c10.904,1.188,21.863,3.202,32.73,6.275c9.761,2.757,15.441,12.908,12.679,22.665c-2.757,9.757-12.908,15.44-22.661,12.679
							c-0.436-0.119-0.857-0.257-1.275-0.408l-0.207-0.073c-8.293-3.032-17.014-5.367-26-7.06
							c-9.014-1.642-18.298-2.509-27.688-2.949c-18.812-0.707-38.074,0.771-57.244,3.761c-19.184,2.991-38.312,7.468-57.193,13
							c-18.789,5.56-37.725,12.202-55.427,19.899l-0.298,0.133c-4.642,2.018-10.051-0.11-12.069-4.757
							C2708.73,2959.167,2710.593,2954.043,2714.776,2951.819"/>
					</g>
					<g>
						<path style="fill:#3B0372;" d="M1057.275,3054.945c4.174,3.863,7.151,7.294,10.307,11.225
							c3.064,3.862,5.867,7.913,8.431,12.142c5.128,8.45,9.257,17.647,12.027,27.381c2.766,9.734,4.165,19.973,4.055,30.239
							c-0.147,9.844-1.28,19.752-3.601,29.661c-4.491,19.72-14.844,39.592-31.395,53.936c-8.161,7.216-17.67,12.968-27.931,16.982
							c-10.294,3.986-21.303,6.344-33.152,6.211l-0.317-0.005c-10.147-0.115-18.28-8.427-18.17-18.573
							c0.115-10.147,8.431-18.285,18.578-18.17c0.541,0.004,1.11,0.041,1.638,0.087c6.165,0.624,13.22-0.142,19.89-2.137
							c6.702-2.005,13.165-5.175,18.872-9.459c11.55-8.445,20.073-21.308,24.803-36.298c2.399-7.468,4-15.468,4.775-23.615
							c0.83-7.716,0.541-15.583-0.881-23.372c-1.417-7.784-3.991-15.482-7.528-22.812c-1.766-3.67-3.766-7.248-5.996-10.679
							c-2.142-3.34-4.839-6.94-7.041-9.44l-0.463-0.523c-3.349-3.794-2.986-9.587,0.812-12.931
							C1048.541,3051.665,1053.867,3051.807,1057.275,3054.945"/>
					</g>
					<g>
						<path style="fill:#3B0372;" d="M1217.084,3047.952c4.018,4.087,6.931,7.674,9.945,11.775
							c2.908,4.032,5.679,8.179,8.101,12.532c4.931,8.661,8.927,17.945,11.734,27.684c2.821,9.725,4.404,19.931,4.798,30.156
							c0.248,10.119-0.587,20.468-2.95,30.688c-4.56,20.44-15.647,40.166-31.537,54.679c-15.803,14.661-35.491,24.44-56.354,29.115
							l-0.174,0.041c-9.899,2.22-19.72-4.004-21.941-13.899c-2.22-9.899,4.005-19.725,13.899-21.94
							c0.463-0.105,0.968-0.193,1.431-0.266c15.119-2.156,29.913-8.133,41.812-17.578c11.982-9.376,20.835-22.363,25.5-37.39
							c2.367-7.505,3.67-15.5,4.105-23.698c0.404-8.101,0-16.234-1.527-24.317c-1.5-8.073-4.037-16.051-7.463-23.697
							c-1.665-3.849-3.674-7.551-5.785-11.179c-2.055-3.532-4.665-7.289-6.821-9.987l-0.454-0.573
							c-3.165-3.949-2.518-9.716,1.431-12.872C1208.524,3044.274,1213.827,3044.673,1217.084,3047.952"/>
					</g>
					<g>
						<g>
							<ellipse style="fill:#3B0372;" cx="2463.368" cy="2117" rx="116.853" ry="148.884"/>
						</g>
						<g>
							
								<ellipse transform="matrix(0.9426 -0.334 0.334 0.9426 -547.3754 953.6526)" style="fill:#FFFFFF;" cx="2499.681" cy="2068.678" rx="33.146" ry="48.464"/>
						</g>
						<g style="opacity:0.67;">
							<g>
								
									<ellipse transform="matrix(0.2978 -0.9546 0.9546 0.2978 -377.2014 3893.4995)" style="fill:#FFFFFF;" cx="2457.988" cy="2203.151" rx="28.484" ry="36.834"/>
							</g>
						</g>
					</g>
					<g>
						<g>
							<ellipse style="fill:#3B0372;" cx="3040.563" cy="2057.807" rx="98.157" ry="125.063"/>
						</g>
						<g>
							
								<ellipse transform="matrix(0.9426 -0.334 0.334 0.9426 -497.38 1141.5438)" style="fill:#FFFFFF;" cx="3071.066" cy="2017.217" rx="27.842" ry="40.71"/>
						</g>
						<g style="opacity:0.67;">
							<g>
								
									<ellipse transform="matrix(0.2978 -0.9546 0.9546 0.2978 98.3956 4394.1143)" style="fill:#FFFFFF;" cx="3036.044" cy="2130.174" rx="23.927" ry="30.941"/>
							</g>
						</g>
					</g>
				</g>
			</g>
		</g>
	</g>
</g>
</svg>
