<?xml version="1.0" encoding="utf-8"?>
<!-- Generator: Adobe Illustrator 27.5.0, SVG Export Plug-In . SVG Version: 6.00 Build 0)  -->
<svg version="1.1" id="Layer_1" xmlns="http://www.w3.org/2000/svg" xmlns:xlink="http://www.w3.org/1999/xlink" x="0px" y="0px"
	 viewBox="0 0 4000 4000" style="enable-background:new 0 0 4000 4000;" xml:space="preserve">
<g>
	<g>
		<rect style="fill:#66FEFF;" width="4000" height="4000"/>
	</g>
	<g>
		<g>
			<g style="opacity:0.2;">
				<ellipse style="fill:#2D0106;" cx="2028.713" cy="3350.893" rx="1274.487" ry="117.2"/>
			</g>
			<g>
				<path style="fill:#FBB040;" d="M2045.862,1113.751c-39.659,14.913-76.754,30.245-111.38,45.903
					c-269.501,121.818-391.134,264.002-434.66,398.263c-83.372,257.012,119.535,484.944,119.535,484.944
					c-124.242,35.418-54.059,146.145-54.059,146.145c-235.854-86.354-305.618-329.991-305.618-329.991l-48.746,62.913
					c-106.3-564.96,290.146-774.857,290.146-774.857l-84.164-41.057C1775.709,949.851,2045.862,1113.751,2045.862,1113.751z"/>
			</g>
			<g style="opacity:0.2;">
				<path style="fill:#2D0106;" d="M1499.823,1557.918c-83.372,257.012,119.535,484.944,119.535,484.944
					c-124.242,35.418-54.059,146.145-54.059,146.145S1180.783,1933.44,1499.823,1557.918z"/>
			</g>
			<g style="opacity:0.2;">
				<path style="fill:#2D0106;" d="M1499.823,1557.918c0,0-193.074,42.501-240.142,301.098l-48.746,62.913
					c0,0-24.886-623.493,528.237-728.022c0,0-110.727-46.835-238.091-46.835c-127.318,0-84.164-41.057-84.164-41.057
					s312.562-67.667,517.566,53.639C1664.981,1281.473,1543.349,1423.657,1499.823,1557.918z"/>
			</g>
			<g>
				<path style="fill:#2D0106;" d="M1565.289,2207.652c-2.136,0-4.292-0.371-6.382-1.133
					c-191.609-70.171-276.765-237.393-305.386-309.109l-27.825,35.928c-4.495,5.798-11.98,8.423-19.106,6.709
					c-7.134-1.719-12.595-7.463-13.953-14.675c-56.111-298.205,27.886-498.162,108.23-613.391
					c59.553-85.41,124.91-137.598,161.841-162.886l-53.958-26.35c-6.536-3.191-10.618-9.89-10.457-17.158
					c0.159-7.271,4.529-13.784,11.196-16.685c189.705-82.554,354.834-75.955,459.949-55.889
					c114.37,21.838,183.218,63.064,186.094,64.807c6.099,3.701,9.551,10.559,8.892,17.663c-0.662,7.104-5.32,13.208-12,15.72
					c-313.804,118.042-496.345,272.595-542.559,459.363c-57.542,232.559,121.606,437.847,123.423,439.893
					c4.253,4.79,5.752,11.44,3.96,17.593c-1.794,6.152-6.619,10.957-12.781,12.715c-30.3,8.643-49.355,22.637-56.638,41.592
					c-13.074,34.038,12.993,76.294,13.259,76.719c4.226,6.748,3.711,15.464-1.304,21.65
					C1576.17,2205.191,1570.804,2207.652,1565.289,2207.652z M1259.678,1840.372c1.17,0,2.349,0.112,3.523,0.337
					c6.899,1.328,12.466,6.421,14.399,13.174c0.63,2.182,61.743,206.992,253.374,300.298c-4.832-19.292-6.58-42.529,1.965-64.966
					c9.082-23.838,27.69-42.236,55.461-54.907c-46.357-60.469-166.475-242.869-114.802-452.38
					c47.19-191.333,224.136-349.429,526.152-470.273c-30.171-13.237-77.927-30.833-138.958-42.334
					c-92.498-17.424-234.119-23.76-398.196,38.23l46.672,22.793c6.304,3.079,10.347,9.434,10.459,16.448
					c0.115,7.012-3.718,13.496-9.917,16.777c-0.943,0.503-97.253,52.673-179.434,171.277
					c-71.922,103.796-146.819,280.486-108.103,542.021l22.666-29.265C1248.511,1842.991,1253.98,1840.372,1259.678,1840.372z"/>
			</g>
			<g>
				<path style="fill:#8DC63F;" d="M3091.991,3069.745c0,20.925-0.839,40.171-2.423,57.88
					c-19.48,220.382-150.386,204.631-150.386,204.631h-584.719l122.844-350.31l33.32-94.929
					c212.6-78.059,294.014,19.946,294.014,19.946C2866.063,2730.899,3091.991,2745.858,3091.991,3069.745z"/>
			</g>
			<g>
				<ellipse style="fill:#FFE09C;" cx="2969.803" cy="3067.054" rx="123.75" ry="213.24"/>
			</g>
			<g style="opacity:0.2;">
				<path style="fill:#2D0106;" d="M3089.568,3127.625c-19.48,220.382-150.386,204.631-150.386,204.631h-584.719l122.844-350.31
					c13.328,75.356,71.022,248.484,317.828,158.867c0,0-15.425-74.75,0-149.5c0,0,50.331,200.996,191.489,200.996
					C3036.069,3192.309,3068.411,3164.161,3089.568,3127.625z"/>
			</g>
			<g>
				<g style="opacity:0.6;">
					<path style="fill:#FFFFFF;" d="M2776.68,2948.905c6.146-17.618,13.961-33.287,23.011-46.961
						c-20.376-18.938-106.115-82.099-289.064-14.927l-12.877,36.687C2699.078,2855.657,2776.68,2948.905,2776.68,2948.905z"/>
				</g>
				<g style="opacity:0.6;">
					<path style="fill:#FFFFFF;" d="M2815.164,2881.812c86.95-97.089,248.866-44.326,248.866,229.875
						c0,20.924-0.839,40.171-2.423,57.88c-4.707,53.248-15.928,92.679-30.226,121.909c26.689-29.225,50.691-79.041,58.187-163.851
						c1.584-17.709,2.423-36.956,2.423-57.88C3091.991,2762.2,2888.306,2733.221,2815.164,2881.812z"/>
				</g>
			</g>
			<g>
				<path style="fill:#2D0106;" d="M2822.003,2913.695c-0.673,1.763-1.652,4.591-2.418,7.071l-2.397,7.814
					c-1.552,5.273-3.01,10.661-4.279,16.106c-1.311,5.444-2.479,10.926-3.578,16.463c-1.235,5.499-2.206,11.07-3.123,16.663
					c-3.684,22.363-5.732,45.128-6.869,68.05c-0.675,22.929-0.547,46.028,1.077,69.171l0.354,8.72l0.739,8.688l1.227,17.495
					c0.864,11.692,2.236,23.352,2.722,35.324l0.002,0.053c0.02,0.483-0.355,0.89-0.839,0.909c-0.375,0.015-0.706-0.21-0.842-0.537
					c-4.578-10.973-8.915-22.128-12.584-33.489c-3.192-11.455-6.941-22.897-9.143-34.645l-3.538-17.617
					c-1.017-5.904-1.72-11.855-2.595-17.797c-1.886-11.874-2.695-23.882-3.802-35.896c-1.473-24.077-1.318-48.348,0.839-72.628
					c0.978-12.147,2.523-24.3,4.858-36.396c1.106-6.06,2.418-12.102,3.888-18.179c0.759-3.041,1.466-6.067,2.428-9.135
					c0.918-3.148,1.758-5.908,3.104-9.663c3.474-9.692,14.147-14.733,23.839-11.259c9.692,3.474,14.734,14.147,11.26,23.84
					c-0.032,0.089-0.065,0.178-0.098,0.266L2822.003,2913.695z"/>
			</g>
			<g>
				<path style="fill:#2D0106;" d="M2944.564,3351.143c-2.81,0-4.929-0.117-6.223-0.22h-583.872c-6.042,0-11.711-2.93-15.208-7.861
					c-3.494-4.927-4.382-11.245-2.383-16.948l156.14-445.244c1.843-5.259,5.938-9.414,11.165-11.333
					c163.425-60,254.651-20.439,293.008,6.528c33.513-70.2,95.212-109.009,159.729-98.081
					c74.307,12.598,153.704,95.859,153.704,291.768c0,117.715-26.05,200.513-77.429,246.104
					C2997.645,3347.398,2960.286,3351.143,2944.564,3351.143z M2380.76,3313.638h558.406c0.742,0,1.482,0.044,2.219,0.132
					c1.252,0.127,35,3.174,67.854-26.509c41.936-37.891,64.104-113.105,64.104-217.51c0-172.876-66.074-245.415-122.654-255.01
					c-53.147-8.979-104.79,30.518-128.472,98.369c-2.214,6.348-7.673,11.006-14.287,12.202c-6.609,1.201-13.359-1.265-17.654-6.436
					c-2.92-3.389-75.22-83.979-265.015-17.3L2380.76,3313.638z"/>
			</g>
			<g>
				<path style="fill:#8DC63F;" d="M2302.282,2336.851c0,0,227.305-16.205,417.297-138.444c26.138-16.817,56.693-25.895,87.715-24
					c35.527,2.169,78.375,16.32,107.093,64.44c61.46,102.987-121.258,313.113-332.215,354.639L2302.282,2336.851z"/>
			</g>
			<g style="opacity:0.3;">
				<path style="fill:#351A60;" d="M2486.836,2404.707l-89.401-81.973c-57.482,11.43-95.153,14.117-95.153,14.117l279.891,256.636
					c195.338-38.452,366.432-221.45,341.906-330.102c-25.39,55.857-78.494,115.583-146.261,162.511
					C2688.198,2487.956,2567.183,2478.379,2486.836,2404.707z"/>
			</g>
			<g style="opacity:0.6;">
				<path style="fill:#FFFFFF;" d="M2733.56,2235.689c26.138-16.817,56.692-25.895,87.716-24
					c34.406,2.101,75.64,15.536,104.295,60.086c-1.551-11.82-5.192-22.888-11.183-32.927
					c-28.717-48.121-71.566-62.271-107.093-64.44c-31.023-1.895-61.578,7.183-87.716,24
					c-189.993,122.239-417.298,138.444-417.298,138.444l37.919,34.769C2403.411,2363.794,2580.567,2334.123,2733.56,2235.689z"/>
			</g>
			<g>
				<path style="fill:#2D0106;" d="M2582.174,2612.129c-4.622,0-9.128-1.724-12.598-4.902l-279.89-256.636
					c-5.486-5.029-7.451-12.842-5.002-19.868c2.446-7.031,8.843-11.929,16.267-12.466c2.229-0.161,224.985-17.427,408.542-135.527
					c30.627-19.697,64.851-28.994,98.938-26.934c53.03,3.247,95.205,28.662,121.963,73.501
					c20.515,34.37,19.636,78.848-2.539,128.608c-44.167,99.121-179.07,221.782-342.08,253.872
					C2584.576,2612.012,2583.37,2612.129,2582.174,2612.129z M2345.01,2350.738l242.71,222.544
					c141.46-31.382,266.025-140.664,306.079-230.547c11.873-26.646,22.305-64.634,4.58-94.336
					c-20.447-34.258-51.475-52.896-92.222-55.386c-26.125-1.616-52.581,5.688-76.494,21.074
					C2584.425,2307.53,2420.262,2340.127,2345.01,2350.738z"/>
			</g>
			<g>
				<path style="fill:#8DC63F;" d="M2317.228,2218.926c1.119,2.33,2.284,4.66,3.542,6.944
					c12.723,23.814,31.643,45.577,54.478,67.573c106.533,102.711,298.208,209.384,343.972,541.193
					c6.012,43.573,7.41,83.279,5.126,119.489c-20.785,326.263-343.972,367.739-343.972,367.739
					c-1.911,1.911-3.915,3.775-5.919,5.546c-56.575,49.958-153.555,52.055-153.555,52.055h-593.574
					c-579.314,0-715.765-314.612-745.358-421.332c-2.284-8.295,0.093-16.311,5.126-21.95l1.398-1.398
					c2.377-2.237,5.219-4.008,8.342-5.126c3.495-1.305,7.363-1.771,11.418-1.165c553.682,79.131,823.137-242.006,823.51-529.216
					c0.186-126.805-52.055-246.992-155.372-323.234c-253.703-187.155-166.091-479.491-166.091-479.491
					c-87.939-103.271-101.313-242.146-99.216-330.784c0.326-13.002,3.495-25.305,8.854-36.257
					c10.113-20.645,28.101-36.583,49.678-44.086c12.256-4.241,25.678-5.779,39.472-3.914
					c139.994,18.781,211.621,102.758,211.621,102.758c4.194-4.986,8.528-9.88,12.955-14.587
					c190.697-204.351,567.291-150.386,567.291-150.386c46.089-72.886,102.385-111.193,138.455-129.787
					c12.023-6.152,25.585-6.757,37.422-2.563c9.786,3.402,18.408,10.113,24.14,19.619c51.682,86.121,33.647,212.367,33.647,212.367
					c119.582,128.483,126.805,272.437,126.805,272.437s186.223,26.89,231.474,230.215c4.427,19.713,7.503,41.103,8.948,64.311
					c1.072,17.056,1.211,35.091,0.419,54.105C2788.983,2151.073,2317.228,2218.926,2317.228,2218.926z"/>
			</g>
			<g>
				<g>
					<path style="fill:#FFE09C;" d="M1530.783,1508.247c22.898-11.157,47.643-31.868,61.469-70.308
						c7.253-20.166,3.267-42.616-9.848-59.566c-24.611-31.807-74.778-83.293-153.076-103.724
						c-15.976-4.169-31.975,7.193-33.076,23.668c-2.625,39.274,1.822,112.636,54.959,188.778
						C1469.073,1512.692,1502.723,1521.919,1530.783,1508.247z"/>
				</g>
				<g>
					<path style="fill:#FFE09C;" d="M2374.206,1191.505c-15.345-10.031-38.334-23.432-64.719-33.451
						c-7.877-2.991-11.555-12.077-8.038-19.734c8.854-19.276,26.549-53.802,50.588-81.085c8.241-9.353,23.472-6.612,28.117,4.956
						c9.198,22.906,20.344,63.11,16.68,118.162C2396.094,1191.473,2383.535,1197.603,2374.206,1191.505z"/>
				</g>
				<g>
					<path style="fill:#FFE09C;" d="M2380.374,3321.863c-1.911,1.911-3.915,3.775-5.919,5.546c-0.14-3.262,1.445-5.546,1.445-5.546
						c-203.735,90.81-196.196-363.405-120.374-439.227c74.75-74.75,141.671,9.693,144.561,13.421
						c-4.687-7.783-9.716-14.85-14.804-21.203c-27.92-34.858-69.569-56.752-114.23-56.917
						c-58.686-0.216-89.671,34.779-89.671,34.779c-29.546-131.419-57.927-137.71-137.663-340.337
						c-22.979-58.408-29.13-106.354-26.242-145.018c5.533-74.094,66.873-131.743,141.12-134.557
						c81.15-3.076,158.631-13.88,158.631-13.88c66.455,139.527,345.51,205.982,401.992,615.71
						C2779.29,3270.647,2380.374,3321.863,2380.374,3321.863z"/>
				</g>
				<g>
					<path style="fill:#FFE09C;" d="M1784.563,3373.918l-3.961,5.546h-153.275c-579.314,0-715.765-314.612-745.358-421.332
						c-2.47-8.994,0.513-17.709,6.524-23.348c2.377-2.237-3.122,1.118,0,0c236.88,430.885,794.197,312.888,794.197,312.888
						C1682.69,3391.627,1784.563,3373.918,1784.563,3373.918z"/>
				</g>
			</g>
			<g style="opacity:0.2;">
				<path style="fill:#2D0106;" d="M2802.265,1840.002c-13.281,311.071-485.037,378.924-485.037,378.924
					c1.119,2.33,2.284,4.66,3.542,6.944c12.723,23.814,31.643,45.577,54.478,67.573c-81.669,4.445-258.314,6.865-428.82-37.65
					c-86.306-22.532-159.362,66.396-121.184,147.011c0.638,1.347,1.292,2.703,1.961,4.069c0,0-52.894,5.546-95.442-7.596
					c0.186-126.805-52.055-246.992-155.372-323.234c-253.703-187.155-166.091-479.491-166.091-479.491
					c-87.939-103.271-101.313-242.146-99.216-330.784c0.932-37.608,16.713-57.434,40.884-71.855
					c-18.26,82.522-20.127,249.36,116.379,368.096c14.289,12.429,21.61,31.024,18.874,49.764
					c-13.362,91.541,14.116,376.412,340.082,483.691c370.675,122.005,975.009-24.64,965.595-373.878
					c4.427,19.713,7.503,41.103,8.948,64.311C2802.917,1802.953,2803.057,1820.988,2802.265,1840.002z"/>
			</g>
			<g style="opacity:0.2;">
				<path style="fill:#2D0106;" d="M2720.027,2994.721c-41.508,274.605-310.493,322.682-337.472,326.826
					c-1.44,0.221-2.745,0.889-3.795,1.899c-1.411,1.358-2.858,2.684-4.304,3.963c-56.575,49.958-153.555,52.055-153.555,52.055
					h-593.574c-579.314,0-715.765-314.612-745.358-421.332c-0.023-0.083-0.045-0.166-0.067-0.249
					c-2.121-8.026,9.515-12.087,13.141-4.619c65.704,135.355,240.8,361.091,677.897,361.169
					c24.498,0.004,46.063-16.176,52.533-39.804c4.655-16.999,12.854-37.148,27.294-55.286c17.228-21.638,49.619-23.363,69.239-3.868
					c34.674,34.454,105.819,86.141,224.268,91.987c154.092,7.606,236.89-120.843,257.168-157.199
					c2.409-4.319,8.368-4.906,11.514-1.09c27.961,33.917,139.748,151.026,222.365-30.068c0.459-1.007,0.683-2.098,0.641-3.204
					c-0.515-13.471-4.428-106.052-16.763-166.345c5.686,24.42,37.608,134.588,151.83,134.588
					c61.395,0,105.082-42.298,133.972-93.958C2710.821,2983.354,2721.197,2986.98,2720.027,2994.721z"/>
			</g>
			<g style="opacity:0.6;">
				<path style="fill:#FFFFFF;" d="M1692.668,3119.217c0,0,34.883-178.565,224.245-202.651
					c189.362-24.086,211.5,107.97,211.5,107.97s-8.593,63.951,0,116.275c0,0,24.373-203.481,86.663-265.772
					s183.412-26.51,201.82,83.053c0,0,6.45-128.688-119.675-137.553c-126.125-8.865-168.808,113.215-168.808,113.215
					s-118.942-123.498-286.479-54.563S1692.668,3119.217,1692.668,3119.217z"/>
			</g>
			<g style="opacity:0.6;">
				<path style="fill:#FFFFFF;" d="M2277.366,2218.915c0,0,12.181,71.079,110.738,144.616
					c98.557,73.538,343.781,261.69,286.781,764.493c0,0,144.438-316.981-85.014-624.673c0,0-62.403-85.116-172.92-172.318
					c-110.517-87.202-99.72-116.271-99.72-116.271S2305.604,2224.729,2277.366,2218.915z"/>
			</g>
			<g style="opacity:0.6;">
				<path style="fill:#FFFFFF;" d="M2802.265,1840.002c0,0-42.73-273.908-255.342-310.745
					c-11.502-1.993-20.198-11.448-21.325-23.066c-4.368-45.033-24.761-156.889-119.821-254.822
					c-12.23-12.599-15.982-31.1-10.13-47.655c11.975-33.877,22.475-102.935-18.815-216.766c9.786,3.402,18.408,10.113,24.14,19.619
					c51.682,86.121,33.647,212.367,33.647,212.367c119.582,128.483,126.805,272.437,126.805,272.437s186.223,26.89,231.474,230.215
					c4.427,19.713,7.503,41.103,8.948,64.311C2802.917,1802.953,2803.057,1820.988,2802.265,1840.002z"/>
			</g>
			<g style="opacity:0.6;">
				<path style="fill:#FFFFFF;" d="M1679.754,1353.474c0,0-254.122-181.19-359.817-123.962
					c10.113-20.645,28.101-36.583,49.678-44.086c12.256-4.241,25.678-5.779,39.472-3.914
					c139.994,18.781,211.621,102.758,211.621,102.758c4.194-4.986,8.528-9.88,12.955-14.587
					C1653.144,1299.508,1669.921,1328.821,1679.754,1353.474z"/>
			</g>
			<g>
				<g>
					<path style="fill:#2D0106;" d="M2319.988,2237.351c-27.742,3.775-54.84,6.021-82.329,7.412
						c-27.394,1.521-54.834,2.015-82.256,1.66c-27.416-0.305-54.841-1.526-82.142-4.169c-27.303-2.438-54.478-6.852-81.227-12.691
						c-0.977-0.213-1.595-1.177-1.382-2.154c0.179-0.825,0.897-1.395,1.704-1.423l0.04-0.001
						c27.328-0.941,54.351-1.486,81.353-2.869c26.981-1.372,53.885-2.647,80.741-4.903c26.849-2.135,53.644-4.682,80.375-7.581
						c26.627-3.092,53.569-6.423,79.611-10.153l0.356-0.051c10.192-1.459,19.636,5.619,21.095,15.81
						c1.46,10.191-5.618,19.636-15.809,21.095L2319.988,2237.351z"/>
				</g>
				<g>
					<path style="fill:#351A60;" d="M1633.884,1271.118c5.608,5.841,10.299,11.874,14.94,18.218
						c4.606,6.306,8.885,12.882,12.925,19.626c4.105,6.684,7.767,13.729,11.141,20.911c3.27,7.264,6.199,14.754,8.153,22.71
						c0.225,0.913-0.333,1.834-1.246,2.058c-0.469,0.115-0.967,0.007-1.345-0.234c-6.858-4.403-13.04-9.058-19.226-13.669
						c-6.113-4.665-12.106-9.337-17.942-14.124c-5.886-4.741-11.704-9.5-17.371-14.369c-5.64-4.822-11.368-9.831-16.421-14.795
						l-0.125-0.122c-7.345-7.216-7.449-19.021-0.232-26.365c7.216-7.345,19.02-7.449,26.365-0.232
						C1633.611,1270.838,1633.778,1271.008,1633.884,1271.118z"/>
				</g>
				<g>
					<path style="fill:#2D0106;" d="M2368.923,3307.141c-0.277,0.222,0.449-0.45,0.884-0.868c0.457-0.385,1.018-1.024,1.56-1.606
						c1.091-1.116,2.188-2.344,3.268-3.743c2.238-2.541,4.236-5.63,6.34-8.518c1.97-3.073,3.873-6.257,5.778-9.424l5.201-10.023
						c6.423-13.804,11.437-28.574,15.436-43.76c7.948-30.443,11.163-62.654,11.694-94.946c0.454-8.05,0.09-16.181-0.055-24.291
						c-0.277-8.116-0.067-16.215-0.847-24.35c-1.162-16.249-2.14-32.5-4.084-48.869c-3.706-32.553-8.613-64.932-17.218-95.426
						c-4.333-15.199-9.688-29.854-16.52-43.201c-6.964-13.214-15.414-25.053-25.906-34.048
						c-10.404-9.109-22.875-15.377-36.763-19.315c-13.956-3.786-29.093-5.485-44.686-5.525c-3.896-0.021-7.799-0.028-11.752,0.158
						c-1.934,0.082-4.021,0.09-5.826,0.23l-5.286,0.453c-6.978,0.865-13.885,2.099-20.416,4.445
						c-13.13,4.449-25.197,11.897-35.627,21.819c-10.481,9.84-19.427,21.901-26.753,35.118c-3.667,6.609-6.936,13.51-9.816,20.567
						c-1.449,3.525-2.782,7.1-3.99,10.679c-0.615,1.787-1.187,3.583-1.719,5.351c-0.516,1.678-1.084,3.748-1.365,4.887
						c-2.476,10.045-12.626,16.181-22.671,13.706c-4.103-1.011-7.554-3.303-10.032-6.346l-0.713-0.875v-0.001l-2.281-2.699
						l-2.794-3.106c-1.926-2.077-3.962-4.12-6.031-6.139c-4.18-4.017-8.615-7.832-13.11-11.565
						c-9.092-7.376-18.875-13.897-29.028-19.687c-20.363-11.549-42.688-19.235-65.695-23.42c-23.073-4.026-46.892-4.2-70.619-1.413
						c-11.852,1.609-23.701,3.716-35.422,6.773c-5.876,1.458-11.761,2.902-17.562,4.804l-8.744,2.662l-8.511,3.072
						c-45.265,16.334-86.025,44.136-112.825,83.761c-26.721,39.472-42.638,86.742-50.602,137.638l-0.024,0.155
						c-0.197,1.256-1.373,2.115-2.629,1.919c-0.909-0.142-1.611-0.801-1.854-1.628c-3.804-13.006-5.121-26.308-5.546-39.74
						c-0.195-13.406,0.593-26.96,2.977-40.333c4.52-26.784,14.419-53.028,29.044-76.608c7.393-11.731,15.688-22.946,24.952-33.352
						c9.44-10.2,19.376-20.073,30.4-28.556c5.313-4.523,11.173-8.236,16.765-12.378c5.891-3.615,11.686-7.485,17.767-10.742
						c6.095-3.229,12.109-6.687,18.413-9.417l9.371-4.325c3.148-1.373,6.359-2.55,9.539-3.831
						c25.391-10.005,51.7-17.366,79.152-21.062c13.718-1.674,27.573-2.845,41.549-2.595c13.95,0.307,27.97,1.413,41.796,4.062
						c27.672,5.001,54.594,14.945,78.739,29.435c12.112,7.181,23.424,15.615,34.037,24.839c5.281,4.656,10.344,9.561,15.162,14.768
						c2.4,2.62,4.764,5.282,7.067,8.067l3.429,4.284c1.193,1.538,2.144,2.806,3.634,4.939l0.002,0.004l-33.414,6.484
						c0.713-2.915,1.281-4.863,1.976-7.179c0.67-2.229,1.366-4.411,2.108-6.572c1.464-4.33,3.051-8.58,4.772-12.779
						c3.429-8.4,7.318-16.615,11.753-24.609c8.86-15.959,19.937-31.133,33.807-44.178c6.931-6.502,14.524-12.477,22.787-17.571
						c8.287-5.053,17.179-9.223,26.41-12.396c9.224-3.26,18.848-5.065,28.413-6.207l7.192-0.607
						c2.357-0.169,4.448-0.175,6.685-0.268c4.39-0.2,8.835-0.202,13.287-0.176c17.772,0.074,36.136,1.927,54.421,6.908
						c9.132,2.569,18.171,6.097,26.855,10.53c8.694,4.457,16.816,10.15,24.246,16.495c14.906,12.822,26.034,28.77,34.585,45.042
						c8.397,16.393,14.464,33.286,19.293,50.178c9.521,33.839,14.548,67.759,18.417,101.511c1.993,16.802,3.051,33.892,4.257,50.952
						c0.801,8.501,0.612,17.13,0.897,25.697c0.153,8.583,0.519,17.148,0.052,25.784c-0.596,34.407-3.959,69.189-12.86,103.439
						c-4.5,17.104-10.208,34.065-17.905,50.55l-6.334,12.208c-2.371,3.996-4.762,7.982-7.312,11.92
						c-2.777,3.882-5.364,7.79-8.611,11.56c-1.49,1.895-3.163,3.789-4.982,5.669c-0.886,0.941-1.716,1.86-2.819,2.866
						c-1.09,1.008-1.846,1.808-3.752,3.337c-8.134,6.313-19.844,4.836-26.156-3.297
						C2359.314,3325.164,2360.791,3313.454,2368.923,3307.141z"/>
				</g>
				<g>
					<path style="fill:#2D0106;" d="M2150.127,2944.157c-0.916,2.995-1.964,7.178-2.931,10.922
						c-0.984,3.845-1.886,7.781-2.728,11.725c-1.591,7.921-3.341,15.886-4.637,23.964c-0.73,4.023-1.361,8.071-1.902,12.139
						c-0.59,4.06-1.176,8.125-1.604,12.217c-1.136,8.157-1.897,16.37-2.664,24.606c-1.346,16.48-2.286,33.086-2.545,49.789
						c-0.543,16.728-0.551,33.534-1.182,50.696l-0.002,0.061c-0.077,2.116-1.855,3.769-3.972,3.691
						c-1.619-0.06-2.968-1.123-3.477-2.562c-1.437-4.093-2.653-8.238-3.921-12.387c-1.252-4.153-2.585-8.311-3.5-12.533
						c-1.913-8.432-3.96-16.905-5.19-25.485c-3.007-17.123-4.146-34.487-5.111-51.917c-0.657-17.442-0.315-34.97,1.133-52.51
						c0.645-8.774,1.583-17.569,3-26.339c0.692-4.396,1.45-8.781,2.328-13.21c0.868-4.536,1.821-8.599,3.248-13.755
						c2.748-9.924,13.02-15.741,22.943-12.994c9.924,2.747,15.741,13.019,12.994,22.943c-0.037,0.132-0.074,0.263-0.114,0.393
						L2150.127,2944.157z"/>
				</g>
				<g>
					
						<ellipse transform="matrix(0.3499 -0.9368 0.9368 0.3499 -223.9985 3241.3218)" style="fill:#2D0106;" cx="2223.381" cy="1782.052" rx="39.866" ry="49.832"/>
				</g>
				<g>
					
						<ellipse transform="matrix(0.3499 -0.9368 0.9368 0.3499 60.0338 3554.4917)" style="fill:#2D0106;" cx="2591.032" cy="1733.991" rx="34.971" ry="27.977"/>
				</g>
			</g>
			<g>
				<path style="fill:#2D0106;" d="M1794.208,3397.998c-1.982,0.204-3.154,0.227-4.474,0.288c-1.35,0.077-2.585,0.069-3.805,0.047
					c-2.483,0.017-4.93-0.102-7.301-0.374c-4.827-0.322-9.495-1.265-14.169-2.222c-4.576-1.325-9.27-2.269-13.649-4.219l-6.633-2.67
					c-2.145-1.038-4.237-2.198-6.348-3.307c-2.08-1.162-4.254-2.164-6.218-3.508l-5.809-4.149c-1.891-1.433-3.921-2.695-5.664-4.286
					l-5.179-4.819c-1.721-1.604-3.408-3.243-5.066-4.896l-4.357-5.444c-2.827-3.668-5.938-7.15-8.062-11.174
					c-2.339-3.896-4.625-7.826-6.752-11.78l-5.074-12.297c-0.785-2.054-1.764-4.056-2.369-6.143l-1.71-6.275
					c-1.108-4.186-2.133-8.376-3.096-12.551c-1.072-8.475-1.897-16.922-2.111-25.287c0.475-8.421,1.115-16.76,2.573-24.967
					c0.376-2.118,2.397-3.529,4.515-3.153c1.31,0.233,2.35,1.095,2.863,2.22l0.155,0.344c3.403,7.597,5.988,15.062,8.407,22.444
					c1.281,3.661,2.932,7.178,4.285,10.737c1.351,3.551,2.587,7.124,3.997,10.581c6.305,13.402,11.954,26.906,21.143,37.146
					c8.639,10.542,18.881,18.88,30.436,24.309l4.32,2.053l4.537,1.552c2.957,1.211,6.134,1.771,9.198,2.662
					c3.138,0.509,6.278,1.263,9.403,1.5c1.583,0.221,3.109,0.307,4.611,0.396c0.768,0.062,1.523,0.116,2.163,0.103
					c0.67,0.014,1.49,0.046,1.49,0.046l2.57,0.099c10.238,0.396,18.217,9.017,17.821,19.256
					C1810.486,3389.612,1803.258,3397.076,1794.208,3397.998z"/>
			</g>
			<g>
				<path style="fill:#2D0106;" d="M2213.351,1938.266c0,0-109.843,14.963-202.208-35.84c0,0-7.807,199.045,111.243,212.497
					C2241.436,2128.375,2213.351,1938.266,2213.351,1938.266z"/>
			</g>
			<g>
				<path style="fill:#FF6C93;" d="M2018.113,1975.4c0,0,55.557-15.242,101.768,23.397c46.212,38.639,27.823,110.014,27.823,110.014
					S2029.672,2104.904,2018.113,1975.4z"/>
			</g>
			<g>
				<path style="fill:#2D0106;" d="M2135.052,2122.227c-4.165,0-8.447-0.234-12.852-0.708
					c-129.165-13.809-122.166-210.413-121.804-218.774c0.186-4.287,2.556-8.181,6.282-10.313c3.723-2.129,8.284-2.202,12.075-0.186
					c87.412,46.479,193.467,33.013,194.534,32.866c6.731-0.903,13.01,3.787,14.023,10.542
					c0.681,4.561,16.157,112.261-31.477,161.934C2180.125,2113.965,2159.72,2122.227,2135.052,2122.227z M2025.516,1923.287
					c1.697,47.17,14.502,164.302,99.343,173.379c22.708,2.427,40.012-2.925,52.908-16.357
					c31.079-32.378,28.552-101.509,26.111-129.17C2174.129,1953.353,2097.633,1955.03,2025.516,1923.287z"/>
			</g>
			<g>
				<path style="fill:#2D0106;" d="M2214.304,1925.02c3.588-0.091,8.466-0.395,12.839-0.667c4.501-0.321,9.064-0.719,13.636-1.329
					c4.609-0.516,9.202-1.318,13.889-2.197c4.729-0.831,9.336-2.134,14.299-3.293l0.103-0.024c1.061-0.248,2.122,0.411,2.369,1.473
					c0.144,0.617-0.026,1.243-0.396,1.7c-3.309,4.031-7.114,7.742-11.302,10.93c-4.138,3.308-8.655,6.1-13.344,8.58
					c-4.708,2.438-9.594,4.593-14.664,6.239c-5.192,1.708-9.988,2.928-16.145,3.555c-6.875,0.7-13.016-4.306-13.717-11.182
					c-0.699-6.876,4.307-13.017,11.183-13.717c0.309-0.031,0.616-0.051,0.922-0.06L2214.304,1925.02z"/>
			</g>
			<g>
				<path style="fill:#2D0106;" d="M1627.332,3398.096c-252.883,0-451.646-58.867-590.764-174.966
					c-113.701-94.883-156.926-203.628-172.573-260.005c-3.818-13.76-0.474-28.369,8.943-39.087
					c9.49-10.796,23.665-16.055,37.94-13.989c438.728,62.676,683.733-131.528,766.748-334.17
					c74.446-181.733,28.267-381.099-112.3-484.819c-136.541-100.747-176.331-231.286-185.667-323.057
					c-8.083-79.453,4.424-143.206,10.166-166.917c-84.407-104.639-99.666-239.758-97.368-335.75
					c0.718-30.049,14.265-58.496,37.163-78.047c22.691-19.37,52.561-28.213,81.97-24.268
					c110.044,14.775,179.644,67.639,208.325,94.045c79.951-85.481,203.401-139.58,358.611-156.863
					c99.585-11.094,183.018-4.158,213.162-0.837c46.238-68.865,100.798-106.653,139.214-126.421
					c30.693-15.789,68.484-5.234,86.052,24.031c46.909,78.149,40.378,184.268,37.17,215.674
					c96.936,107.661,119.441,223.076,124.497,263.225c23.53,5.679,71.963,20.981,119.666,58.11
					c59.917,46.641,129.827,137.732,122.603,306.833c-5.75,134.58-95.046,245.991-258.237,322.188
					c-87.837,41.011-173.772,61.333-215.964,69.634c22.529,32.988,58.564,63.872,99.148,98.657
					c106.631,91.392,252.666,216.563,291.843,500.776c19.363,140.488-5.596,257.178-74.185,346.831
					c-95.132,124.351-242.058,155.088-274.512,160.498c-60.708,55.762-163.254,58.589-167.695,58.687L1627.332,3398.096z
					 M904.779,2946.895c-1.973,0-3.227,1.064-3.835,1.753c-0.789,0.898-1.607,2.407-1.025,4.507
					c14.485,52.192,54.604,152.949,160.539,241.353c132.234,110.352,322.957,166.304,566.875,166.304h593.557
					c0.552-0.015,96.985-2.827,146.282-52.124c2.915-2.92,6.716-4.785,10.808-5.313c1.572-0.205,160.659-22.314,256.143-147.432
					c62.141-81.421,84.556-188.677,66.624-318.779c-37.244-270.2-171.387-385.176-279.172-477.559
					c-52.576-45.059-97.981-83.979-121.172-132.676c-2.546-5.347-2.395-11.587,0.4-16.812c2.795-5.22,7.908-8.804,13.772-9.653
					c4.563-0.659,456.599-69.326,469.07-361.235c5.254-123.017-31.169-215.818-108.257-275.82
					c-57.319-44.617-116.052-53.508-116.638-53.594c-8.823-1.272-15.513-8.616-15.957-17.519
					c-0.071-1.345-8.66-139.102-121.819-260.645c-3.84-4.124-5.608-9.763-4.812-15.339c0.168-1.187,16.404-120.886-31.172-200.147
					c-7.488-12.473-23.757-16.897-37.026-10.068c-36.111,18.582-88.193,55.029-131.248,123.147
					c-3.921,6.206-11.135,9.541-18.394,8.494c-3.843-0.552-386.25-52.307-563.359,158.535c-3.525,4.199-8.721,6.631-14.204,6.65
					c-0.022,0-0.046,0-0.068,0c-5.459,0-10.642-2.39-14.185-6.545c-0.647-0.749-69.299-78.87-199.875-96.406
					c-19.197-2.561-37.944,2.991-52.8,15.674c-14.851,12.678-23.635,31.116-24.102,50.586
					c-2.197,91.829,12.456,221.585,94.753,318.25c4.099,4.815,5.476,11.379,3.662,17.437c-0.203,0.684-20.884,71.76-11.25,163.708
					c12.781,121.956,70.166,221.355,170.566,295.435c77.69,57.324,130.295,139.487,152.126,237.598
					c20.859,93.735,11.106,197.207-27.461,291.353c-76.987,187.935-283.071,369.316-639.197,369.326
					c-52.5,0-108.232-3.94-167.322-12.383C905.318,2946.915,905.042,2946.895,904.779,2946.895z"/>
			</g>
			<g>
				<path style="fill:#8DC63F;" d="M1925.11,2690.564c97.023-23.664,223.626,4.733,223.626,4.733s50.817,51.469,97.023,51.469
					c94.656,0,171.565-163.874,49.695-258.531c-121.87-94.657-330.115-123.054-330.115-123.054l0,0
					c-64.457,92.506-80.549,210.345-43.256,316.746L1925.11,2690.564z"/>
			</g>
			<g style="opacity:0.2;">
				<path style="fill:#2D0106;" d="M2358.245,2611.634c0,0-45.443,106.287-179.436,31.75
					c-116.018-64.538-232.037-45.798-275.453,11.428c-11.929,15.723-0.07,38.234,19.636,37.147c6.73-0.371,14.77-1.131,24.374-2.407
					c63.152-8.39,130.324-16.194,201.37,5.745c0,0,32.195,51.469,97.023,51.469S2358.245,2689.856,2358.245,2611.634z"/>
			</g>
			<g style="opacity:0.6;">
				<path style="fill:#FFFFFF;" d="M2343.965,2680.337c0,0,79.096-161.697-377.431-295.81c-12.165-3.573-9.123-21.671,3.537-20.976
					c27.838,1.529,72.326,10.294,142.917,36.084C2279.858,2460.601,2391.462,2515.535,2343.965,2680.337z"/>
			</g>
			<g>
				<path style="fill:#2D0106;" d="M2134.23,2699.113l-1.224-3.488c-0.453-1.368-0.989-2.722-1.522-4.107
					c-1.056-2.762-2.235-5.506-3.514-8.215c-2.511-5.452-5.61-10.58-9.263-15.448c-1.79-2.512-3.967-4.585-6.083-6.954
					c-2.369-1.922-4.626-4.319-7.366-6.01c-5.225-3.991-11.453-6.729-18.19-9.564l-0.182-0.077
					c-1.016-0.427-1.492-1.597-1.064-2.613c0.277-0.659,0.872-1.092,1.53-1.197c7.405-1.162,15.469-1.661,23.344,0.224
					c7.944,1.548,15.803,4.869,22.7,9.603c7.036,4.595,13.177,10.549,18.251,17.202c2.45,3.384,4.764,6.88,6.677,10.619
					c0.997,1.843,1.854,3.777,2.687,5.743c0.83,2.095,1.469,3.785,2.234,6.649c2.131,7.99-2.617,16.196-10.607,18.328
					c-7.598,2.028-15.389-2.166-17.97-9.452L2134.23,2699.113z"/>
			</g>
			<g>
				<path style="fill:#2D0106;" d="M1965.667,2362.781c17.212-0.883,34.174,0.365,51.019,2.428
					c16.854,2.022,33.528,5.182,50.02,9.107c32.925,8.067,65.579,17.559,97.584,29.325c31.995,11.744,63.469,25.473,93.528,42.474
					l22.261,13.352l21.409,14.986c14.281,10.509,27.758,23.173,38.923,37.703c22.4,29.059,35.046,66.632,33.224,103.703
					c-1.366,37.034-15.002,73.194-39.033,101.839c-12.081,14.242-26.984,26.646-44.723,34.778
					c-4.298,2.238-9.058,3.665-13.634,5.366c-4.785,1.232-9.492,2.72-14.457,3.309c-4.883,0.954-9.888,1.107-14.873,1.323
					c-2.498,0.091-5.134-0.239-7.693-0.373c-2.601-0.132-5.145-0.398-7.561-0.943c-19.878-3.48-36.555-12.071-51.821-21.599
					c-7.574-4.878-14.796-10.141-21.694-15.718c-6.959-5.687-13.347-11.251-20.082-18.004l7.39,4.097l-0.002-0.001
					c-17.456-3.546-35.936-6.619-54.052-9.269c-18.217-2.649-36.509-4.805-54.847-6.366c-18.346-1.597-36.699-2.085-55.105-2.267
					c-18.412-0.029-36.735,0.663-55.596,1.569l-0.101,0.005c-1.746,0.084-3.229-1.263-3.313-3.009
					c-0.065-1.362,0.747-2.566,1.932-3.068c17.754-7.476,36.666-12.129,55.707-14.946c19.067-2.489,38.295-3.509,57.473-3.632
					c19.172,0.058,38.325,0.98,57.38,2.869c9.523,0.98,19.036,2.083,28.502,3.607c9.537,1.461,18.799,3.006,28.584,5.234l0.004,0
					c2.684,0.556,5.032,1.841,6.879,3.603l0.513,0.495c5.216,5.008,11.565,10.38,17.705,15.15
					c6.229,4.854,12.731,9.255,19.269,13.418c13.096,8.12,27.076,14.727,40.406,16.835c1.682,0.405,3.306,0.532,4.899,0.568
					c1.625,0.04,3.168,0.324,4.855,0.227c3.385-0.232,6.777-0.273,10.133-1.01c3.391-0.363,6.676-1.541,10.015-2.353
					c3.229-1.313,6.584-2.221,9.7-3.94c12.773-5.967,24.213-15.495,33.926-26.644c19.305-22.576,30.934-52.422,32.169-82.385
					c1.675-30.082-8.163-59.961-26.351-84.145c-9.053-12.218-19.978-23.002-32.498-32.588l-19.525-14.232l-20.634-12.902
					c-28.068-16.451-57.821-30.525-88.442-42.721c-30.624-12.234-62.224-22.315-94.177-31.139
					c-7.97-2.283-15.997-4.368-23.954-6.776c-7.997-2.233-15.983-4.572-23.953-7.044c-15.983-4.748-31.986-9.696-47.941-15.494
					l-0.061-0.022c-1.281-0.465-1.941-1.879-1.476-3.159C1963.824,2363.442,1964.708,2362.832,1965.667,2362.781z"/>
			</g>
			<g>
				<path style="fill:#FFE09C;" d="M1729.379,2598.127c-147.479,5.28-327.465,194.616-332.905,200.38
					c-0.084,0.102-0.126,0.153-0.126,0.153c-232.595-154.588-435.457-120.97-435.457-120.97
					c64.659-222.295,0.538-386.328,0.538-386.328c364.732-106.146,406.803,54.475,571.46,100.966
					c133.337,37.694,179.564,149.322,192.344,190.372C1728.22,2592.386,1729.379,2598.127,1729.379,2598.127z"/>
			</g>
			<g style="opacity:0.2;">
				<path style="fill:#2D0106;" d="M1725.232,2582.701c-30.085-10.086-63.73-20.673-91.311-27.582
					c-66.483-16.665-232.506,235.846-237.448,243.388c-0.084,0.102-0.126,0.153-0.126,0.153s4.915-177.902-95.831-219.421
					c-100.792-41.514-339.627,98.451-339.627,98.451c79.154-117.412,188.65-210.812,188.65-210.812
					c22.805-156.817-188.112-175.516-188.112-175.516c364.732-106.146,406.803,54.475,571.46,100.966
					C1666.225,2430.023,1712.452,2541.651,1725.232,2582.701z"/>
			</g>
			<g>
				<path style="fill:#FFB839;" d="M1398.206,2814.942l-8.796-5.845c-225.325-149.79-424.5-119.38-426.482-119.063l-19.553,3.198
					l5.52-19.023c62.729-215.708,1.519-376.704,0.894-378.306l-4.976-12.734l13.125-3.818
					c264.5-76.968,363.154-16.221,458.562,42.524c37.961,23.374,73.816,45.454,119.792,58.442
					c170.056,48.057,203.994,208.569,205.356,215.376l2.881,14.419l-14.692,0.522c-142.859,5.107-322.598,194.697-324.397,196.611
					L1398.206,2814.942z M1013.445,2661.9c75.393,0,220.115,16.46,381.082,120.654c34.956-35.571,184.89-180.635,318.992-195.747
					c-11.638-38.569-54.998-145.967-184.024-182.427c-49.326-13.94-88.357-37.974-126.103-61.216
					c-89.246-54.951-181.458-111.748-425.85-43.408c13.355,42.109,48.521,181.436,0.347,363.472
					C986.893,2662.515,998.883,2661.9,1013.445,2661.9z"/>
			</g>
			<g>
				<path style="fill:#8DC63F;" d="M1745.68,2613.373c0,0-23.9-14.424-49.972-68.62c-16.853-35.183-40.521-48.646-55.106-53.803
					c-7.603-2.642-15.943-2.218-23.251,1.151c-122.078,56.872-221.003,306.56-221.003,306.56
					c-46.967-176.537,65.955-347.558,65.955-347.558c-273.011,15.339-501.412,226.588-501.412,226.588
					c83.956-238.329,322.77-332.085,322.77-332.085c-118.219-84.647-322.232-54.243-322.232-54.243s0.046-0.004,0.088-0.055
					c181.001-135.736,397.193-74.19,397.193-74.19c-13.551-59.843,25.76-90.294,25.76-90.294
					c71.633,150.579,258.432,252.767,315.655,269.523c55.629,16.253,123.407,1.474,127.259,0.637
					c0.046-0.004,0.139-0.013,0.181-0.064C1827.564,2396.918,1848.749,2542.311,1745.68,2613.373z"/>
			</g>
			<g style="opacity:0.2;">
				<path style="fill:#2D0106;" d="M1745.68,2613.373c0,0-23.9-14.424-49.972-68.62c-16.853-35.183-40.521-48.646-55.106-53.803
					c-7.603-2.642-15.943-2.218-23.251,1.151c-122.078,56.872-221.003,306.56-221.003,306.56s48.819-291.376,170.6-352.807
					C1688.725,2384.376,1722.629,2529.627,1745.68,2613.373z"/>
			</g>
			<g style="opacity:0.2;">
				<path style="fill:#2D0106;" d="M960.896,2677.701c0,0,136.365-245.844,445.534-293.259c0,0,65.536-6.834,72.136,62.062
					l-16.245,4.615C1462.321,2451.119,1220.87,2450.609,960.896,2677.701z"/>
			</g>
			<g style="opacity:0.2;">
				<path style="fill:#2D0106;" d="M961.431,2291.351c0,0,250.525-107.989,397.838,33.364l-75.594,20.869
					C1283.675,2345.584,1156.817,2266.794,961.431,2291.351z"/>
			</g>
			<g style="opacity:0.6;">
				<path style="fill:#FFFFFF;" d="M1827.383,2396.982c-191.456,97.22-379.494-123.435-427.799-186.263
					c-3.418-4.446-10.514-1.656-9.979,3.927l1.407,14.685c0.021,0.219,0.041,0.437,0.059,0.652
					c1.288,15.134-13.266,26.683-27.916,22.672c-215.932-59.125-396.965,36.157-401.639,38.652
					c181.001-135.736,397.193-74.19,397.193-74.19c-13.551-59.843,25.76-90.294,25.76-90.294
					c71.633,150.579,258.432,252.767,315.655,269.523C1755.753,2412.598,1823.531,2397.819,1827.383,2396.982z"/>
			</g>
			<g>
				<path style="fill:#2D0106;" d="M1276.437,2328.406c6.561-2.518,12.61-4.041,19.032-5.477c6.36-1.348,12.786-2.398,19.277-3.095
					c12.921-1.457,26.224-1.751,39.51,1.465c2.257,0.547,3.645,2.82,3.098,5.078c-0.262,1.085-0.924,1.969-1.791,2.534l-0.1,0.065
					c-5.582,3.621-11.053,6.681-16.501,9.662c-5.435,2.99-10.876,5.646-16.263,8.421l-16.078,8.157
					c-5.266,2.609-10.825,5.374-15.707,7.547l-0.215,0.095c-9.409,4.188-20.433-0.045-24.622-9.455s0.045-20.434,9.454-24.622
					C1275.813,2328.656,1276.154,2328.516,1276.437,2328.406z"/>
			</g>
			<g>
				<path style="fill:#2D0106;" d="M1828.502,2400.951c-22.057,9.802-45.52,14.562-69.573,15.838
					c-12.03,0.556-24.176,0.199-36.388-1.399c-12.14-1.607-24.631-3.968-36.417-8.14c-23.286-7.922-44.423-18.082-65.367-29.104
					c-20.939-10.922-40.946-23.333-60.759-36.098c-39.122-26.231-76.188-55.921-109.324-90.124
					c-8.555-8.263-16.205-17.478-23.999-26.523l-5.839-6.792l-5.446-7.159l-10.819-14.38c-3.743-4.681-6.887-9.849-10.16-14.912
					l-9.771-15.223c-1.715-2.477-3.07-5.201-4.464-7.895l-4.196-8.072l-8.356-16.146l28.251,6.726l0.002-0.002
					c0.214-0.169-0.115,0.113-0.308,0.284l-0.704,0.651c-0.503,0.467-1.018,0.96-1.544,1.534c-1.064,1.044-2.067,2.296-3.109,3.461
					c-1.971,2.498-3.887,5.095-5.529,7.881c-3.292,5.552-6.007,11.5-7.604,17.809c-1.494,6.318-2.717,12.792-2.472,19.527
					c-0.248,3.317,0.411,6.741,0.559,10.116c0.4,3.396,1.189,6.811,1.713,10.226l0.16,1.042c1.575,10.255-5.461,19.845-15.717,21.42
					c-2.633,0.405-5.314,0.212-7.734-0.428c-3.3-0.888-7.587-1.921-11.525-2.755c-4.021-0.873-8.094-1.684-12.191-2.425
					c-8.193-1.481-16.458-2.8-24.774-3.827c-16.62-2.13-33.384-3.47-50.162-3.974c-33.564-1.016-67.181,1.265-100.149,6.843
					c-16.459,2.923-32.755,6.616-48.794,11.183c-15.953,4.809-31.764,10.123-47.057,16.683
					c-30.691,12.861-59.594,29.702-86.321,49.468l-13.932-33.349c14.901-2.04,28.748-3.185,43.104-4.114
					c14.238-0.871,28.486-1.325,42.75-1.383c28.523-0.116,57.124,1.472,85.646,5.098c28.508,3.689,56.957,9.571,84.783,18.659
					c13.878,4.67,27.596,10.058,40.968,16.479c13.314,6.571,26.256,14.115,38.588,22.774c8.383,5.887,10.406,17.456,4.519,25.839
					c-2.122,3.021-4.982,5.217-8.164,6.513l-0.389,0.157c-8.007,3.279-17.059,7.538-25.5,11.755
					c-8.561,4.297-17.07,8.781-25.443,13.537c-16.78,9.444-33.179,19.647-49.08,30.56c-31.79,21.847-61.665,46.441-88.911,73.56
					c-27.169,27.186-51.687,56.929-72.448,89.066c-20.941,32.022-37.678,66.604-50.63,102.482l-30.239-19.878
					c9.335-8.456,18.251-15.872,27.568-23.45c9.247-7.502,18.617-14.802,28.11-21.925c18.975-14.263,38.384-27.901,58.22-40.904
					c39.702-25.936,80.948-49.633,123.948-69.995c21.456-10.253,43.317-19.739,65.621-28.176
					c11.072-4.413,22.417-8.155,33.661-12.143c11.411-3.54,22.711-7.408,34.285-10.466c45.975-13.183,93.547-21.455,141.625-24.452
					c10.243-0.638,19.063,7.147,19.701,17.389c0.256,4.109-0.844,7.99-2.914,11.205l-0.188,0.29
					c-3.494,5.431-7.33,12.044-10.791,18.292c-3.528,6.353-6.912,12.829-10.16,19.377c-6.506,13.094-12.513,26.469-17.971,40.051
					c-10.856,27.177-19.785,55.135-25.811,83.599c-3.058,14.218-5.519,28.547-7.053,42.936c-1.638,14.378-2.549,28.813-2.46,43.203
					c-0.179,28.804,3.618,57.391,10.71,85.026l0.004,0.018l-35.345-2.075c17.615-45.953,38.671-89.264,62.675-131.797
					c24.124-42.301,51.519-83.195,85.074-120.203c17.039-18.263,35.868-35.422,57.579-49.759l8.419-5.069l4.222-2.508l4.448-2.245
					c3.069-1.514,5.73-2.899,9.137-4.492c4.314-1.88,8.895-3.12,13.545-3.642c4.646-0.536,9.36-0.395,13.953,0.424
					c2.3,0.392,4.563,0.988,6.775,1.717c1.195,0.392,2.094,0.743,2.896,1.07l2.542,1.036c6.688,2.892,12.953,6.459,18.73,10.585
					c11.561,8.268,21.089,18.667,28.651,29.889c3.755,5.631,7.137,11.441,9.979,17.414l3.929,8.261
					c1.215,2.579,2.39,5.188,3.713,7.693l15.464,30.242c5.151,10.088,10.338,20.362,16.282,30.733l0.255,0.445
					c0.737,1.287,0.292,2.929-0.995,3.667c-0.602,0.344-1.285,0.43-1.913,0.293c-7.026-1.545-12.616-4.836-18.191-8.363
					c-5.43-3.645-10.419-7.834-14.874-12.421c-9.072-9.099-16.29-19.599-22.382-30.52c-1.595-2.707-3.015-5.477-4.481-8.233
					l-4.144-7.729c-2.513-4.702-5.399-9.094-8.469-13.255c-6.189-8.273-13.485-15.351-21.65-20.593
					c-4.078-2.616-8.376-4.757-12.737-6.393l-1.638-0.57c-0.592-0.211-1.095-0.372-1.328-0.418
					c-0.636-0.156-1.277-0.292-1.931-0.346c-1.299-0.14-2.62-0.084-3.892,0.157c-1.271,0.246-2.499,0.641-3.632,1.203l-6.802,3.679
					l-3.497,1.889l-3.397,2.197l-6.793,4.386c-17.782,12.607-34.061,28.332-49.06,45.443c-15.051,17.13-28.911,35.649-41.895,54.876
					c-12.961,19.25-25.354,39.049-36.853,59.443c-11.525,20.373-22.726,41.011-33.125,62.082
					c-5.305,10.48-10.454,21.048-15.426,31.684c-4.996,10.552-10.04,21.394-14.502,31.781l-0.391,0.908
					c-4.028,9.379-14.897,13.717-24.277,9.688c-5.536-2.378-9.34-7.239-10.679-12.671l-0.004-0.02
					c-7.982-30.962-12.146-62.867-11.963-94.6c-0.088-15.872,0.909-31.695,2.694-47.376c1.683-15.703,4.349-31.244,7.653-46.604
					c6.522-30.759,16.083-60.671,27.671-89.676c5.826-14.497,12.227-28.749,19.186-42.754c3.475-7.006,7.101-13.944,10.918-20.82
					c3.885-6.977,7.605-13.483,12.297-20.779l16.598,28.884c-45.024,2.825-89.883,10.568-133.577,23.106
					c-10.984,2.891-21.759,6.596-32.622,9.954c-10.73,3.817-21.547,7.369-32.141,11.599c-21.322,8.06-42.288,17.158-62.909,27.013
					c-41.322,19.56-81.155,42.442-119.53,67.509c-19.171,12.567-37.942,25.757-56.25,39.519c-9.16,6.871-18.19,13.907-27.052,21.098
					c-8.78,7.125-17.779,14.655-25.729,21.856l-0.24,0.218c-7.617,6.899-19.385,6.319-26.284-1.298
					c-4.772-5.268-5.953-12.544-3.716-18.799c13.943-38.703,32.032-75.985,54.503-110.362c22.294-34.504,48.508-66.28,77.4-95.184
					c28.972-28.839,60.587-54.845,94.163-77.919c16.799-11.527,34.105-22.298,51.884-32.305c8.871-5.036,17.908-9.802,27.068-14.399
					c4.581-2.3,9.207-4.53,13.899-6.701c4.763-2.214,9.24-4.208,14.63-6.401l-4.034,32.509
					c-10.442-7.308-21.555-13.807-33.169-19.551c-11.7-5.611-23.89-10.406-36.357-14.61c-25.05-8.181-51.266-13.652-77.885-17.092
					c-26.637-3.385-53.667-4.905-80.74-4.792c-13.536,0.056-27.086,0.487-40.594,1.313c-13.384,0.848-27.258,2.045-39.902,3.778
					l-0.331,0.045c-10.183,1.395-19.569-5.729-20.964-15.912c-0.953-6.962,2.097-13.564,7.362-17.482
					c29.142-21.583,60.762-39.979,94.208-53.997c16.675-7.142,33.861-12.939,51.189-18.145c17.402-4.961,35.043-8.959,52.817-12.109
					c35.59-6.028,71.676-8.454,107.615-7.367c17.972,0.541,35.907,1.971,53.77,4.26c8.936,1.107,17.844,2.523,26.755,4.136
					c4.456,0.808,8.907,1.692,13.38,2.664c4.561,0.982,8.737,1.954,13.827,3.332l-23.291,22.033
					c-0.811-4.693-1.812-9.327-2.374-14.087c-0.314-4.826-1.058-9.571-0.813-14.488c-0.251-9.737,1.372-19.637,3.765-29.239
					c2.494-9.635,6.595-18.846,11.707-27.396c2.552-4.287,5.496-8.345,8.646-12.274c1.67-1.924,3.274-3.857,5.126-5.714
					c0.873-0.933,1.835-1.87,2.837-2.803l1.567-1.433c0.582-0.503,1.018-0.908,2.04-1.715l0.024-0.02
					c7.908-6.336,19.454-5.061,25.791,2.847c0.61,0.762,1.15,1.559,1.62,2.381l0.841,1.498c5.358,9.518,10.295,19.218,15.907,28.593
					l8.944,13.807c2.99,4.597,5.824,9.287,9.315,13.587c13.026,17.771,27.288,34.746,42.661,50.836
					c30.68,32.23,65.111,61.329,101.743,87.423c18.461,12.819,37.202,25.392,56.746,36.461
					c19.391,11.102,39.397,22.014,59.432,29.799c19.449,7.804,40.98,10.467,62.986,11.733c21.993,1.426,44.598,1.402,67.627,1.887
					l0.236,0.005c2.314,0.049,4.15,1.964,4.102,4.278C1830.955,2398.885,1829.937,2400.311,1828.502,2400.951z"/>
			</g>
			<g>
				<path style="fill:#FFCA83;" d="M2288.707,1187.523c-6.105,8.994-14.773,17.243-26.283,24.42
					c-90.455,56.435-171.171-39.845-171.171-39.845c-144.514-155.046-73.352-294.107-71.069-298.488v-0.047
					c0.047-0.047,0.047-0.047,0.047-0.047s-1.165,120.187,118.23,138.968c63.612,10.02,116.366,44.552,142.976,83.791
					C2302.268,1126.94,2307.115,1160.54,2288.707,1187.523z"/>
			</g>
			<g style="opacity:0.2;">
				<path style="fill:#2D0106;" d="M2232.412,1214.552c-12.536,7.783-24.886,12.489-36.816,14.819
					c-59.884-4.241-104.343-57.274-104.343-57.274c-99.17-106.393-96.793-205.237-84.77-258.224
					c5.453-24.233,12.956-38.913,13.701-40.264c-0.373,2.19-6.99,38.773,0.606,86.634c7.643,48.56,29.919,108.77,87.985,156.537
					c70.836,58.3,130.114,53.36,157.05,23.441C2272.35,1168.136,2263.122,1195.399,2232.412,1214.552z"/>
			</g>
			<g style="opacity:0.6;">
				<path style="fill:#FFFFFF;" d="M2277.92,1193.913c-5.918-103.69-78.071-123.907-179.956-159.339
					c-114.247-39.73-78.944-157.096-77.779-160.964c0.047-0.047,0.047-0.093,0.047-0.093s-1.165,120.187,118.23,138.968
					c63.612,10.02,116.366,44.552,142.976,83.791C2302.268,1126.94,2296.328,1166.93,2277.92,1193.913z"/>
			</g>
			<g>
				<path style="fill:#2D0106;" d="M2203.543,1248.167c-55.557,0.005-103.542-36.809-126.26-63.716
					c-153.74-165.273-76.807-313.525-73.452-319.758c4.063-7.554,12.749-11.365,21.057-9.224
					c8.306,2.136,14.084,9.663,13.999,18.237c-0.012,4.194,0.842,104.368,102.476,120.369
					c86.868,13.674,162.285,72.698,175.427,137.292c7.878,38.713-8.347,73.855-44.519,96.414
					C2248.912,1242.349,2225.626,1248.167,2203.543,1248.167z M2105.513,1160.098c3.081,3.635,71.731,83.001,147.031,36.047
					c23.188-14.461,32.512-33.755,27.712-57.346c-8.794-43.225-65.322-95.403-144.69-107.898
					c-61.965-9.753-97.239-45.232-115.867-82.522c-4.199,51.646,8.103,128.313,85.178,211.001
					C2105.098,1159.615,2105.308,1159.854,2105.513,1160.098z"/>
			</g>
			<g>
				<path style="fill:#FFCA83;" d="M1844.347,1292.435c-6.9,10.165-16.696,19.487-29.705,27.598
					c-102.23,63.782-193.453-45.032-193.453-45.032c-163.326-175.229-82.901-332.393-80.32-337.343v-0.053
					c0.053-0.053,0.053-0.053,0.053-0.053s-1.317,135.833,133.621,157.058c71.893,11.324,131.514,50.351,161.588,94.698
					C1859.674,1223.966,1865.151,1261.94,1844.347,1292.435z"/>
			</g>
			<g style="opacity:0.2;">
				<path style="fill:#2D0106;" d="M1780.723,1322.983c-14.168,8.796-28.125,14.115-41.609,16.749
					c-67.679-4.793-117.925-64.73-117.925-64.73c-112.079-120.243-109.393-231.953-95.805-291.838
					c6.162-27.388,14.642-43.979,15.485-45.506c-0.421,2.475-7.9,43.82,0.685,97.911c8.638,54.881,33.813,122.929,99.439,176.915
					c80.057,65.889,147.051,60.306,177.494,26.492C1825.861,1270.525,1815.432,1301.336,1780.723,1322.983z"/>
			</g>
			<g style="opacity:0.6;">
				<path style="fill:#FFFFFF;" d="M1832.156,1299.657c-6.689-117.188-88.233-140.037-203.382-180.081
					c-129.119-44.902-89.221-177.546-87.904-181.918c0.053-0.053,0.053-0.105,0.053-0.105s-1.317,135.833,133.621,157.058
					c71.893,11.324,131.514,50.351,161.588,94.698C1859.674,1223.966,1852.96,1269.162,1832.156,1299.657z"/>
			</g>
			<g>
				<path style="fill:#2D0106;" d="M1748.087,1358.533c-61.958,0-115.532-41.15-140.871-71.182
					c-172.666-185.559-86.448-351.638-82.69-358.621c4.063-7.554,12.749-11.357,21.057-9.224
					c8.306,2.136,14.084,9.663,13.999,18.237c-0.02,4.841,0.874,120.042,117.864,138.459
					c97.224,15.303,181.599,81.187,196.262,153.247c8.691,42.708-9.248,81.497-49.216,106.426
					C1798.528,1352.066,1772.65,1358.533,1748.087,1358.533z M1635.445,1262.996c3.42,4.041,82.327,95.491,169.316,41.245
					c27.156-16.936,38.062-39.597,32.415-67.354c-10.107-49.666-74.785-109.573-165.527-123.857
					c-73.438-11.56-113.25-55.527-132.886-99.88c-6.924,58.801,3.848,150.213,96.05,249.133
					C1635.03,1262.515,1635.24,1262.754,1635.445,1262.996z"/>
			</g>
			<g>
				<g>
					<g>
						<g>
							<path style="fill:#2D0106;" d="M2000.734,1420.94c51.979-2.823,92.99,59.691,91.601,139.628
								c-1.388,79.938-44.651,147.029-96.631,149.852c-51.978,2.823-92.991-59.69-91.602-139.628
								C1905.491,1490.854,1948.756,1423.762,2000.734,1420.94z"/>
						</g>
					</g>
				</g>
				<g>
					<g>
						<g>
							<path style="fill:#FFFFFF;" d="M2000.771,1454.458c15.591,8.167,19.737,35.623,9.26,61.325
								c-10.477,25.703-31.609,39.917-47.201,31.75c-15.591-8.166-19.737-35.623-9.259-61.324
								C1964.047,1460.506,1985.179,1446.29,2000.771,1454.458z"/>
						</g>
					</g>
				</g>
				<g>
					<g>
						<g>
							<path style="fill:#B199C5;" d="M2037.533,1628.446c7.096,6.533,6.438,21.512-1.468,33.457
								c-7.906,11.946-20.067,16.333-27.161,9.801c-7.096-6.531-6.438-21.512,1.469-33.455
								C2018.276,1626.303,2030.438,1621.915,2037.533,1628.446z"/>
						</g>
					</g>
				</g>
			</g>
			<g>
				<g>
					<g>
						<g>
							<path style="fill:#2D0106;" d="M2371.994,1368.511c43.015-14.344,91.865,28.726,109.11,96.197
								c17.245,67.472-3.646,133.796-46.661,148.139c-43.014,14.343-91.865-28.725-109.11-96.197
								C2308.089,1449.18,2328.98,1382.854,2371.994,1368.511z"/>
						</g>
					</g>
				</g>
				<g>
					<g>
						<g>
							<path style="fill:#FFFFFF;" d="M2379.745,1396.66c14.978,3.269,24.785,25.379,21.903,49.384
								c-2.881,24.005-17.359,40.813-32.338,37.543c-14.978-3.269-24.785-25.379-21.903-49.383
								C2350.289,1410.199,2364.766,1393.39,2379.745,1396.66z"/>
						</g>
					</g>
				</g>
				<g>
					<g>
						<g>
							<path style="fill:#B199C5;" d="M2450.701,1534.352c7.466,3.853,10.363,16.589,6.473,28.443
								c-3.89,11.856-13.096,18.343-20.56,14.489c-7.465-3.852-10.363-16.588-6.472-28.442
								C2434.031,1536.987,2443.237,1530.5,2450.701,1534.352z"/>
						</g>
					</g>
				</g>
			</g>
		</g>
		<g>
			<g>
				<path style="fill:#FFFFFF;" d="M2769.458,1214.244c-19.566-32.012-29.213-70.44-25.085-110.642
					c10.019-97.578,97.243-168.56,194.822-158.541s168.56,97.244,158.541,194.822s-97.244,168.559-194.822,158.541
					c-27.142-2.787-52.214-11.562-74.07-24.857L2746.651,1292L2769.458,1214.244z"/>
			</g>
			<g style="opacity:0.5;">
				<g>
					<path style="fill:#FFFFFF;" d="M2935.706,979.042c-91.152-9.359-173.248,51.972-191.836,139.631
						c-0.022-6.261,0.248-12.579,0.902-18.948c10.019-97.579,97.243-168.56,194.822-158.541
						c97.578,10.019,168.56,97.243,158.541,194.822c-0.657,6.397-1.664,12.671-2.965,18.824
						C3094.825,1065.185,3026.888,988.404,2935.706,979.042z"/>
				</g>
			</g>
			<g>
				<path style="fill:#2D0106;" d="M2921.422,1317.234c-6.748,0-13.53-0.347-20.332-1.045c-26.714-2.742-51.968-10.693-75.178-23.66
					l-75.352,16.897c-6.179,1.392-12.62-0.603-16.941-5.212c-4.324-4.614-5.886-11.172-4.106-17.241l20.642-70.376
					c-19.543-35.073-27.678-74.6-23.547-114.819c11.006-107.219,107.175-185.523,214.412-174.482
					c51.938,5.332,98.694,30.571,131.648,71.069c32.957,40.496,48.169,91.404,42.834,143.342
					c-5.332,51.938-30.571,98.694-71.069,131.648C3009.239,1301.995,2966.182,1317.234,2921.422,1317.234z M2828.844,1255.706
					c3.25,0,6.462,0.889,9.282,2.603c20.356,12.38,42.769,19.9,66.611,22.349c42.451,4.338,84.053-8.079,117.148-35.007
					c33.098-26.933,53.726-65.144,58.083-107.59c4.358-42.449-8.074-84.053-35.007-117.148
					c-26.934-33.098-65.144-53.726-107.59-58.083c-87.644-8.999-166.233,54.971-175.232,142.598
					c-3.599,35.061,4.202,69.468,22.559,99.504c2.627,4.299,3.318,9.507,1.899,14.341l-14.275,48.669l52.612-11.799
					C2826.229,1255.85,2827.537,1255.706,2828.844,1255.706z"/>
			</g>
			<g style="opacity:0.2;">
				<path style="fill:#2D0106;" d="M2768.461,1212.538c48.648,41.148,115.667,59.168,182.221,42.603
					c73.808-18.37,128.19-74.574,147.75-142.786c0.468,9.045,0.258,18.238-0.696,27.528
					c-10.019,97.578-97.244,168.559-194.822,158.541c-27.141-2.787-52.214-11.562-74.069-24.857L2746.651,1292l22.807-77.756
					C2769.115,1213.682,2768.799,1213.104,2768.461,1212.538z"/>
			</g>
			<g>
				<path style="fill:#FF0068;" d="M2864.261,1071.868L2864.261,1071.868c15.371-15.371,40.292-12.617,55.662,2.754l2.392,2.392
					l2.392-2.392c15.371-15.371,40.292-18.125,55.662-2.754v0c15.371,15.371,15.371,40.292,0,55.662l-2.392,2.392l-48.325,48.325
					c-4.052,4.052-10.622,4.052-14.674,0l-48.325-48.325l-2.392-2.392C2848.891,1112.16,2848.891,1087.239,2864.261,1071.868z"/>
			</g>
		</g>
	</g>
</g>
</svg>
