<?xml version="1.0" encoding="utf-8"?>
<!-- Generator: Adobe Illustrator 27.5.0, SVG Export Plug-In . SVG Version: 6.00 Build 0)  -->
<svg version="1.1" id="Layer_1" xmlns="http://www.w3.org/2000/svg" xmlns:xlink="http://www.w3.org/1999/xlink" x="0px" y="0px"
	 viewBox="0 0 4000 4000" style="enable-background:new 0 0 4000 4000;" xml:space="preserve">
<g>
	<g>
		<rect style="fill:#C4C4FF;" width="4000" height="4000"/>
	</g>
	<g>
		<g>
			<ellipse style="fill:#A4A4F7;" cx="1818.294" cy="3475.979" rx="947.436" ry="125.106"/>
		</g>
		<g>
			<g>
				<g>
					<g>
						<path style="fill:#7C7C7C;" d="M2832.372,2627.213c-4.347,82.921-72.871,173.564-173.879,158.07
							c-51.754-7.946-91.653-59.083-83.183-116.103c2.243-15.1,7.902-30.598,17.601-45.785
							c44.819-70.195,114.747-4.788,170.057-21.161c45.217-13.429,42.055-72.867,42.055-72.867s22.429,36.829,26.82,78.355
							C2832.459,2614.134,2832.722,2620.671,2832.372,2627.213"/>
					</g>
					<g style="opacity:0.4;">
						<g>
							<g>
								<path style="fill:#FFFFFF;" d="M2815.444,2555.371c0,0,3.455,65.499-46.367,80.319
									c-60.946,18.043-138.042-54.032-187.439,23.299c-2.366,3.743-4.543,7.482-6.485,11.269c0.048-0.376,0.092-0.708,0.14-1.089
									c2.278-15.104,7.911-30.593,17.619-45.789c44.797-70.187,114.747-4.784,170.061-21.122
									c45.225-13.451,42.05-72.885,42.05-72.885s10.421,17.046,18.424,41.058
									C2818.898,2561.007,2815.444,2555.371,2815.444,2555.371"/>
							</g>
						</g>
					</g>
					<g>
						<path style="fill:#6C6C6C;" d="M2832.372,2627.213c-4.347,82.921-72.871,173.564-173.879,158.07
							c-51.754-7.946-91.653-59.083-83.183-116.103c11.72-19.757,31.429-40.651,61.633-37.096
							c49.205,5.794,55.397,66.417,77.476,76.295c39.724,17.776,107.064-26.562,117.423-100.657
							C2832.459,2614.134,2832.722,2620.671,2832.372,2627.213"/>
					</g>
					<g>
						<path style="fill:#371A45;" d="M2681.162,2808.926c-8.542,0-17.219-0.667-25.981-2.009l0,0
							c-39.519-6.06-74.683-33.257-91.772-70.984c-18.015-39.771-13.982-85.083,11.06-124.322
							c36.294-56.865,88.696-44.446,126.958-35.374c20.615,4.885,40.09,9.502,55.332,4.988
							c27.864-8.262,26.428-50.291,26.404-50.713c-0.53-10.015,5.811-19.109,15.391-22.073c9.58-2.966,19.951,0.957,25.168,9.521
							c1.365,2.241,33.403,55.505,30.52,110.401c-2.893,54.992-30.557,110.205-72.2,144.092
							C2752.441,2796.538,2717.969,2808.926,2681.162,2808.926z M2650.43,2612.083c-16.082,0-28.066,5.867-39.053,23.083
							c-23.179,36.316-15.015,67.402-8.086,82.7c11.05,24.392,33.474,41.931,58.525,45.769l0,0
							c42.9,6.584,74.028-10.042,92.588-25.144c32.349-26.323,53.85-69.402,56.111-112.427c0.525-9.961-0.63-20.107-2.676-29.768
							c-8.833,11.89-21.318,21.772-38.638,26.907c-26.436,7.839-53.762,1.353-77.876-4.363
							C2674.976,2614.963,2661.697,2612.083,2650.43,2612.083z"/>
					</g>
					<g>
						<path style="fill:#C2C6D2;" d="M2637.556,2705.876c-36.388,29.938-33.711,77.83-52.235,132.174
							c-4.478,13.128-10.185,26.645-17.999,40.341c-80.24,141.169-257.761,71.813-257.761,71.813l28.752-104.208
							c46.004,38.189,85.641,44.993,118.434,31.516c43.502-17.912,75.062-71.419,93.718-134.719
							c15.056-51.138,45.26-67.427,73.134-70.278C2642.297,2670.625,2652.088,2693.938,2637.556,2705.876"/>
					</g>
					<g style="opacity:0.4;">
						<g>
							<g>
								<path style="fill:#FFFFFF;" d="M2643.595,2697.211c-30.025-11.072-56.735,17.002-74.35,65.162
									c-22.779,61.943-57.728,113.282-102.341,128.338c-28.367,9.52-60.71,4.307-96.228-22.35
									c32.487,17.947,61.231,19.364,86.047,9.14c43.52-17.903,75.106-71.419,93.718-134.684
									c15.065-51.151,45.278-67.44,73.169-70.282C2638.386,2671.021,2647.574,2685.277,2643.595,2697.211"/>
							</g>
						</g>
					</g>
					<g>
						<path style="fill:#A8AFC1;" d="M2585.32,2838.047c-4.474,13.128-10.185,26.649-17.995,40.345
							c-80.244,141.169-257.766,71.809-257.766,71.809l28.757-104.208c45.999,38.194,85.64,44.994,118.434,31.516
							C2488.397,2891.909,2545.241,2904.508,2585.32,2838.047"/>
					</g>
					<g>
						<path style="fill:#371A45;" d="M2404.543,2989.316c-40.068,0-77.217-8.672-102.932-18.719
							c-11.262-4.397-16.824-17.094-12.424-28.357c4.397-11.255,17.078-16.814,28.333-12.434
							c6.702,2.583,161.045,60.449,230.762-62.227c16.321-28.723,22.622-56.45,28.716-83.264
							c7.434-32.705,14.492-63.762,38.752-88.147c-21.023,5.833-35.571,23.218-44.304,52.822
							c-24.438,82.82-65.647,136.873-116.033,152.202c-41.23,12.537-85.32-0.369-131.069-38.367
							c-9.302-7.725-10.579-21.528-2.854-30.827c7.727-9.302,21.531-10.576,30.828-2.854c33.708,27.998,64.109,38.139,90.349,30.161
							c35.313-10.744,66.943-55.469,86.785-122.705c19.238-65.212,60.618-82.683,91.941-85.857
							c18.069-1.846,34.897,8.167,41.868,24.89c6.953,16.68,2.224,35.625-11.768,47.144c-19.199,15.803-24.482,39.057-31.797,71.242
							c-6.482,28.521-13.828,60.845-33.347,95.19C2542.485,2966.399,2469.666,2989.316,2404.543,2989.316z"/>
					</g>
					<g>
						<path style="fill:#C2C6D2;" d="M1644.526,2033.589l-58.016,113.794l-6.385,12.502l-81.871,160.502
							c-109.784,42.37-432.475-4.286-470.651-251.176c0,0,0.411-4.426,1.412-12.087c5.156-38.22,25.954-157.585,90.398-217.84
							c39.501-36.987,137.88-14.317,171.452-14.317c99.245,0,113.798,33.156,113.798,33.156s1.05,14.186,7.478,34.485
							C1428.745,1945.15,1481.335,2038.784,1644.526,2033.589"/>
					</g>
					<g>
						<path style="fill:#A8AFC1;" d="M1644.526,2033.589l-58.016,113.794c-126.615-53.726-204.468-126.384-197.628-199.176
							c1.872-19.796,9.852-38.408,23.26-55.598C1428.745,1945.15,1481.335,2038.784,1644.526,2033.589"/>
					</g>
					<g>
						<path style="fill:#A8AFC1;" d="M2478.468,2102.959c-40,56.88-137.745,99.022-266.276,118.359l-70.423-133.818
							C2141.77,2087.501,2317.052,2054.751,2478.468,2102.959"/>
					</g>
					<g>
						<path style="fill:#A8AFC1;" d="M2300.542,2203.166c-101.943,27.323-234.847,37.311-378.429,23.807
							c-160.047-15.047-301.622-56.28-398.681-110.147l187.549-336.103l581.397,197.72
							C2278.012,2056.164,2284.803,2130.234,2300.542,2203.166"/>
					</g>
					<g>
						<path style="fill:#A8AFC1;" d="M1580.125,2159.885l-81.871,160.502c-109.784,42.374-432.475-4.285-470.651-251.176
							c0,0,0.411-4.425,1.413-12.087c40.502,69.097,111.607,139.249,235.852,159.177
							C1440.605,2244.493,1534.563,2198.196,1580.125,2159.885"/>
					</g>
					<g>
						<path style="fill:#371A45;" d="M1405.566,2356.174c-75.339,0-166.995-19.402-242.71-63.203
							c-88.235-51.045-142.493-127.263-156.912-220.415c-0.273-1.77-0.33-3.567-0.166-5.352
							c0.623-6.77,16.172-166.746,98.66-243.904c37.852-35.403,109.656-27.73,157.173-22.649
							c12.214,1.304,22.764,2.432,29.246,2.432c105.349,0,129.077,35.376,133.84,46.218c0.999,2.271,1.602,4.695,1.787,7.168
							c0.54,6.521,15.828,161.663,217.322,155.22c12.083-0.393,22.195,9.099,22.583,21.182c0.386,12.085-9.097,22.195-21.182,22.581
							c-4.639,0.149-9.233,0.222-13.708,0.222c-205.884,0.022-242.148-153.635-247.747-188.828
							c-5.867-5.266-28.066-19.978-92.896-19.978c-8.816,0-20.439-1.243-33.899-2.681c-37.173-3.972-99.395-10.625-122.61,11.091
							c-65.129,60.92-82.405,193.159-84.69,213.347c13.103,79.426,58.555,142.148,135.125,186.445
							c110.166,63.735,248.257,67.034,305.574,44.905c11.289-4.348,23.955,1.265,28.308,12.542
							c4.353,11.282-1.262,23.955-12.542,28.308C1480.234,2350.815,1445.149,2356.174,1405.566,2356.174z"/>
					</g>
					<g>
						<path style="fill:#C2C6D2;" d="M1800.514,2993.639c-133.455,198.359-144.632,427.962-206.523,480.919
							c-33.615,28.73-119.269,30.462-181.164,29.281c-73.89-1.373-167.21-24.266-187.597-56.879
							c-4.972-7.933-6.476-24.353-5.335-47.569c4.605-91.951,51.492-290.266,95.143-485.108
							c25.857-115.81,50.626-230.382,64.72-320.737L1800.514,2993.639z"/>
					</g>
					<g>
						<path style="fill:#A8AFC1;" d="M1800.514,2993.639c-133.455,198.359-144.632,427.962-206.523,480.919
							c-33.615,28.73-119.269,30.462-181.164,29.281c-73.89-1.373-167.21-24.266-187.597-56.879
							c-4.972-7.933-6.476-24.353-5.335-47.569c11.4,27.685,52.178,79.453,197.899,76.26
							c197.996-4.29,179.752-256.878,168.762-291.906c-18.655-59.569-194.528-98.838-271.519-269.463
							c25.857-115.81,50.626-230.382,64.72-320.737L1800.514,2993.639z"/>
					</g>
					<g>
						<path style="fill:#371A45;" d="M1438.181,3525.996c-8.743,0-17.368-0.103-25.779-0.261
							c-64.053-1.206-176.553-20.508-205.752-67.166c-24.47-39.097,2.935-176.098,71.299-479.382
							c31.165-138.264,63.391-281.236,80.183-389.033c1.86-11.948,13.042-20.127,25-18.262c11.946,1.86,20.122,13.054,18.262,25
							c-17.017,109.25-49.407,252.952-80.732,391.921c-24.761,109.849-48.149,213.606-63.208,296.462
							c-22.002,121.067-15.964,145.598-13.589,150.234c12.62,20.154,89.414,44.944,169.363,46.45
							c89.897,1.689,145.906-6.394,166.533-24.038c22.434-19.192,40.046-77.546,60.439-145.117
							c29.292-97.046,65.745-217.822,142.153-331.372c6.753-10.029,20.356-12.686,30.386-5.943
							c10.032,6.751,12.69,20.354,5.942,30.386c-72.727,108.076-108.123,225.349-136.563,319.58
							c-24.219,80.237-41.714,138.208-73.896,165.737C1574.065,3520.412,1503.03,3525.996,1438.181,3525.996z"/>
					</g>
					<g>
						<path style="fill:#FFFFFF;" d="M1222.809,3365.945c14.907-5.654,33.904-5.982,48.903,4.679
							c29.242,20.794,21.314,74.153,16.661,98.23c-1.596,6.38-2.326,10.443-2.326,10.443s1.05-3.966,2.326-10.443
							c6.157-24.804,25.564-77.227,65.975-71.398c41.854,6.035,54.4,65.328,50.705,106.141
							c-72.495-2.733-160.13-25.167-179.83-56.63C1218.156,3435.659,1218.02,3406.937,1222.809,3365.945"/>
					</g>
					<g>
						<path style="fill:#371A45;" d="M1405.063,3520.017c-0.21,0-0.417-0.002-0.627-0.01
							c-60.527-2.285-166.482-21.768-193.13-64.326c-6.089-9.744-12.129-28.952-4.807-91.641c0.71-6.089,4.756-11.274,10.486-13.447
							c22.41-8.506,46.421-6.016,64.238,6.646c12.903,9.177,21.382,23.032,25.408,41.443c13.308-13.005,29.998-20.373,50.061-17.476
							c54.988,7.927,68.828,78.423,64.714,123.872C1420.637,3513.567,1413.518,3520.017,1405.063,3520.017z M1304.59,3471.699
							c25.098,6.999,54.739,12.275,84.583,14.548c-0.813-31.455-11.58-68.85-37.168-72.542
							C1322.334,3409.475,1307.253,3461.494,1304.59,3471.699z M1237.917,3378.913c-4.658,46.99,0.149,57.625,1.23,59.353
							c4.934,7.881,17.124,15.715,33.977,22.739c7.012-39.717,3.174-66.975-10.93-77.002
							C1254.038,3378.203,1244.819,3377.898,1237.917,3378.913z"/>
					</g>
					<g>
						<path style="fill:#C2C6D2;" d="M1515.011,2131.943c-170.958,242.875-260.923,491.9-178.912,742.415
							c58.038,177.276,309.498,233.946,381.74,246.046c207.769,34.792,552.474-11.007,646.292-239.644
							c142.52-347.333-128.242-596.51-71.734-902.317l-581.41-197.737"/>
					</g>
					<g>
						<path style="fill:#A8AFC1;" d="M2300.542,2203.166c-101.943,27.323-234.847,37.311-378.429,23.807
							c-160.047-15.047-301.622-56.28-398.681-110.147l187.549-336.103l581.397,197.72
							C2278.012,2056.164,2284.803,2130.234,2300.542,2203.166"/>
					</g>
					<g>
						<path style="fill:#A8AFC1;" d="M2364.121,2880.752c-93.818,228.646-438.497,274.44-646.297,239.64
							c-72.246-12.087-323.697-68.735-381.718-246.024c-13.679-41.779-22.573-83.555-27.091-125.198
							c58.292,176.922,283.286,254.779,354.802,270.377c235.853,51.536,551.25-31.608,645.068-260.249
							c126.708-308.741-73.156-539.937-79.453-802.246l62.945,21.393C2235.865,2284.264,2506.654,2533.432,2364.121,2880.752"/>
					</g>
					<g>
						<path style="fill:#371A45;" d="M1636.863,3092.996c8.934,1.465,17.894,2.724,26.832,3.927
							c8.89,1.386,17.794,2.615,26.693,3.699c8.886,1.115,17.724,2.357,26.557,3.254c4.421,0.332,8.781,1.238,13.167,1.845
							c4.404,0.595,8.785,1.273,13.202,1.789c35.264,4.482,70.974,6.385,106.653,6.214c35.688-0.153,71.367-2.519,106.745-6.87
							c35.373-4.351,70.453-10.88,104.764-19.941c34.315-9.013,67.86-20.61,99.896-35.133c32.032-14.496,62.416-32.294,89.786-53.63
							c13.622-10.736,26.474-22.35,38.325-34.844c11.812-12.529,22.512-26.015,32.023-40.262
							c9.542-14.234,17.584-29.404,24.379-45.112c6.726-16.027,12.979-32.749,18.253-49.493
							c10.482-33.624,17.938-68.153,21.493-103.163c3.608-34.993,3.734-70.383,0.573-105.625
							c-6.148-70.619-24.541-140.154-45.558-209.304c-20.912-69.233-44.784-138.65-59.836-211.456
							c-7.526-36.34-12.843-73.492-14.356-111.078c-1.64-37.568,1.093-75.521,8.051-112.657l11.977,20.435l-145.152-50.023
							c-48.291-16.941-96.652-33.685-144.846-50.919c-48.243-17.085-96.394-34.442-144.475-52.008
							c-24.06-8.733-48.059-17.636-72.032-26.614c-23.99-8.934-47.989-17.837-71.883-27.042c-4.513-1.74-6.761-6.805-5.024-11.313
							c1.649-4.285,6.328-6.516,10.653-5.248c24.554,7.272,49.008,14.846,73.466,22.39c24.48,7.504,48.929,15.078,73.326,22.818
							c48.82,15.397,97.57,30.991,146.224,46.865c48.706,15.721,97.251,31.936,145.856,47.95l145.551,48.851l14.776,4.959
							l-2.799,15.48c-12.45,68.931-7.849,140.084,6.717,209.719c14.466,69.793,37.21,138.545,58.091,208.587
							c20.851,69.964,39.956,141.973,46.218,216.572c3.14,37.214,3.28,74.887-0.529,112.263
							c-3.708,37.389-11.575,74.345-22.661,110.173c-5.619,17.96-12.052,35.364-19.359,52.882
							c-7.591,17.684-16.635,34.796-27.301,50.814c-21.187,32.172-48.042,60.216-77.961,83.686
							c-29.994,23.43-62.849,42.619-97.045,58.13c-34.179,15.629-69.745,27.607-105.813,36.891
							c-72.202,18.528-146.438,26.745-220.521,26.404c-37.052-0.201-74.122-2.545-110.978-7.6
							c-9.205-1.347-18.445-2.493-27.572-4.548c-9.078-2.23-18.091-4.491-26.99-7.167c-8.882-2.729-17.698-5.597-26.452-8.606
							c-8.715-3.184-17.33-6.612-25.888-10.115c-4.495-1.845-6.647-6.984-4.801-11.479
							C1628.86,3094.474,1632.909,3092.349,1636.863,3092.996"/>
					</g>
					<g>
						<path style="fill:#371A45;" d="M1481.227,2197.61c-32.522,56.932-62.862,114.822-88.072,174.661
							c-25.245,59.77-45.527,121.429-57.85,184.553c-12.139,63.072-16.097,127.696-8.925,191.301
							c3.525,31.787,9.612,63.277,18.144,94.129c1.937,7.762,4.596,15.332,6.853,23.015c2.318,7.648,4.666,14.619,7.115,21.987
							l15.896,44.67c1.679,4.71-0.783,9.887-5.488,11.562c-3.1,1.102-6.398,0.42-8.768-1.517l-0.149-0.127
							c-3.424-2.807-6.463-5.938-9.424-9.166c-2.982-3.214-5.956-6.494-8.492-10.058c-2.689-3.481-5.164-7.115-7.43-10.88
							c-2.361-3.721-4.552-7.552-6.463-11.523c-4.014-7.766-7.412-16.25-9.844-24.362c-2.401-8.107-5.195-16.097-7.264-24.309
							c-9.052-32.601-15.528-65.953-19.294-99.604c-7.609-67.353-3.621-135.711,9.293-201.835
							c13.171-66.159,35.592-129.956,63.981-190.396c28.499-60.439,62.796-117.734,101.471-171.561
							c2.821-3.931,8.291-4.828,12.223-2.003C1482.403,2188.781,1483.404,2193.771,1481.227,2197.61"/>
					</g>
					<g>
						<path style="fill:#C2C6D2;" d="M2417.989,3437.108c-1.233,6.8-2.969,12.13-5.339,15.826
							c-37.175,58.108-293.773,71.061-344.447,11.956c-63.264-73.755-87.482-251.547-136.923-394.26
							c-6.568-18.931,116.719,10.762,244.244-64.082c127.525-74.8,219.06-455.556,219.06-455.556
							c26.732,165.106-2.37,317.811-8.024,424.175c-0.367,6.883-0.638,13.5-0.774,19.98
							C2383.049,3115.374,2431.44,3362.763,2417.989,3437.108"/>
					</g>
					<g>
						<path style="fill:#A8AFC1;" d="M2417.989,3437.108c-1.233,6.8-2.969,12.13-5.339,15.826
							c-37.175,58.108-293.773,71.061-344.447,11.956c-63.264-73.755-87.482-251.547-136.923-394.26
							c-6.568-18.931,116.719,10.762,244.244-64.082c127.525-74.8,219.06-455.556,219.06-455.556
							c26.732,165.106-2.37,317.811-8.024,424.175c-23.623,26.675-84.91,85.715-194.502,128.12
							c-95.042,36.772-143.832,142.459-109.5,238.415c12.927,36.125,31.752,68.8,59.118,89.432
							C2211.785,3483.999,2352.355,3476.609,2417.989,3437.108"/>
					</g>
					<g>
						<path style="fill:#371A45;" d="M2411.848,2548.201c11.492,71.109,13.281,143.215,9.669,214.324
							c-1.745,35.574-4.793,70.969-8.173,106.11c-3.332,35.137-7.115,70.077-9.126,104.545c-1.041,17.313-1.307,34.022-0.699,51.243
							c0.56,17.181,1.697,34.507,3.113,51.864c2.838,34.722,6.721,69.579,10.74,104.484c4.032,34.918,8.283,69.902,12.083,105.078
							c3.708,35.22,7.325,70.462,8.26,106.793c0.197,9.1,0.166,18.296-0.363,27.764c-0.262,4.736-0.656,9.538-1.356,14.531
							c-0.704,4.998-1.587,10.11-3.363,15.804c-0.966,2.895-2.021,5.847-3.866,9.201l-1.43,2.479l-1.391,2.003
							c-0.927,1.369-1.907,2.611-2.917,3.77c-4.014,4.749-8.356,8.492-12.729,11.741c-8.772,6.367-17.724,10.854-26.662,14.667
							c-17.898,7.465-35.876,12.218-53.884,15.948c-18.017,3.669-36.068,6.175-54.155,7.836c-36.178,3.232-72.482,3.446-108.94-0.38
							c-18.227-1.99-36.506-5.007-54.82-10.207c-9.152-2.598-18.331-5.886-27.467-10.189c-9.091-4.426-18.323-9.874-26.701-18.371
							c-1.001-1.071-2.121-2.243-2.991-3.267l-2.309-2.851c-1.513-1.915-3.122-3.787-4.544-5.742
							c-2.807-3.918-5.716-7.806-8.208-11.838c-5.278-7.968-9.721-16.198-14.072-24.436c-8.396-16.56-15.384-33.431-21.668-50.385
							c-12.463-33.948-22.42-68.157-32.295-102.179c-4.714-17.076-9.468-34.074-13.626-51.186
							c-4.255-17.09-8.108-34.228-12.043-51.308l-22.914-102.577l-0.009-0.026c-1.058-4.745,1.929-9.45,6.673-10.508
							c4.084-0.91,8.142,1.185,9.865,4.81c15.358,32.303,27.423,65.896,38.194,99.621c5.339,16.884,10.482,33.79,15.214,50.749
							c4.832,16.932,9.065,33.978,13.622,50.875c8.733,33.873,18.218,67.436,30.125,99.586c5.947,16.049,12.48,31.748,20.011,46.607
							c3.879,7.316,7.806,14.606,12.271,21.314c2.125,3.468,4.521,6.612,6.822,9.865c1.172,1.605,2.449,3.061,3.656,4.6l1.837,2.291
							l1.469,1.596c3.993,4.111,10.014,7.985,16.731,11.208c6.796,3.192,14.23,5.917,22.014,8.116
							c15.568,4.43,32.155,7.233,48.912,9.052c33.593,3.542,68.052,3.367,101.991,0.324c16.972-1.561,33.852-3.914,50.342-7.277
							c16.447-3.38,32.657-7.78,47.276-13.893c7.246-3.07,14.076-6.634,19.565-10.631c2.685-1.999,5.011-4.093,6.673-6.074
							c1.88-2.392,1.994-2.519,3.026-5.497c1.732-5.633,2.72-13.758,3.148-21.769c0.45-8.112,0.494-16.534,0.306-25.035
							c-0.857-34.087-4.386-68.993-8.064-103.78c-3.761-34.844-8.007-69.771-12.052-104.812
							c-4.036-35.045-7.955-70.195-10.858-105.665c-1.443-17.737-2.624-35.557-3.205-53.573
							c-0.652-17.964-0.354-36.497,0.735-54.339c2.095-35.846,5.917-70.939,9.227-105.905c3.363-34.953,6.35-69.753,8.059-104.514
							c3.529-69.465,1.732-138.965-9.262-206.995c-1.548-9.533,4.924-18.52,14.461-20.072
							C2401.313,2532.178,2410.3,2538.663,2411.848,2548.201"/>
					</g>
					<g>
						<path style="fill:#FFFFFF;" d="M2419.817,3379.58c-1.321-0.687-2.69-1.277-4.098-1.692
							c-49.065-14.859-41.316,85.177-41.316,85.177s-13.403-67.619-54.938-57.36c-41.583,10.259-39.444,75.596-39.444,75.596
							s-5.514-62.372-50.971-57.68c-33.104,3.424-44.137,51.251-47.788,78.198c92.379,7.25,207.463-11.396,231.396-48.877
							C2419.773,3441.772,2421.365,3415.189,2419.817,3379.58"/>
					</g>
					<g>
						<path style="fill:#371A45;" d="M2219.575,3519.646c-14.055,0-27.429-0.503-39.597-1.458c-4.502-0.354-8.66-2.544-11.494-6.059
							c-2.834-3.513-4.099-8.04-3.491-12.515c7.605-56.164,29.756-88.952,62.368-92.327c15.356-1.584,29.409,2.5,40.691,11.812
							c2.393,1.972,4.583,4.114,6.592,6.372c7.485-16.033,19.998-30.554,40.889-35.708c13.345-3.298,26.392-1.238,37.717,5.969
							c3.325,2.114,6.382,4.597,9.185,7.334c3.591-13.772,9.614-26.592,19.561-34.587c7.402-5.952,20.081-11.878,38.486-6.306
							c2.217,0.654,4.512,1.594,6.904,2.837c5.212,2.705,8.582,7.991,8.835,13.857c1.929,44.387-0.977,69.177-9.714,82.896
							C2399.805,3503.581,2298.901,3519.646,2219.575,3519.646z M2200.681,3486.526c21.233,0.864,42.749,0.398,63.425-1.182
							c-0.212-0.84-0.361-1.709-0.439-2.6c-0.706-7.434-5.063-28.928-16.57-38.362c-4.524-3.708-9.729-5.127-16.36-4.428
							C2213.936,3441.689,2205.034,3467.207,2200.681,3486.526z M2327.82,3421.062c-1.394,0-2.854,0.195-4.417,0.581
							c-27.666,6.826-26.985,58.633-26.97,59.155c0.01,0.364,0.01,0.723-0.005,1.082c23.584-3.288,45.029-8.044,62.317-13.877
							c-0.178-0.569-0.33-1.15-0.447-1.746c-1.709-8.447-9.565-34.517-22.705-42.837
							C2333.091,3421.836,2330.588,3421.062,2327.82,3421.062z M2403.833,3393.276c-0.588,0.257-0.974,0.566-1.26,0.796
							c-9.133,7.327-12.664,36.177-12.217,58.696c3.699-2.781,6.555-5.676,8.464-8.662
							C2400.278,3441.816,2404.612,3431.667,2403.833,3393.276z"/>
					</g>
					<g>
						<path style="fill:#C2C6D2;" d="M2739.724,2404.994c-147.002,115.53-404.204,50.762-404.204,50.762l-1.277-2.462
							l-192.473-365.796c0,0,477.722-89.213,582.127,243.746C2730.965,2353.817,2736.348,2378.354,2739.724,2404.994"/>
					</g>
					<g>
						<path style="fill:#A8AFC1;" d="M2478.468,2102.959c-40,56.88-137.745,99.022-266.276,118.359l-70.423-133.818
							C2141.77,2087.501,2317.052,2054.751,2478.468,2102.959"/>
					</g>
					<g>
						<path style="fill:#A8AFC1;" d="M2739.724,2404.994c-147.002,115.53-404.204,50.762-404.204,50.762l-1.277-2.462
							c102.76,3.555,278.318-9.397,389.655-122.05C2730.965,2353.817,2736.348,2378.354,2739.724,2404.994"/>
					</g>
					<g>
						<path style="fill:#A8AFC1;" d="M2739.724,2404.994l-51.724-42.33c79.177-60.067,137.469-157.9,138.427-315.76
							C2858.354,2157.509,2853.657,2300.772,2739.724,2404.994"/>
					</g>
					<g>
						<path style="fill:#371A45;" d="M2137.285,2070.619c18.187-4.666,35.744-8.47,53.691-12.078
							c17.873-3.568,35.806-6.761,53.797-9.603c35.99-5.663,72.224-9.944,108.691-12.419c36.458-2.458,73.156-3.162,109.941-1.168
							c36.759,2.02,73.685,6.669,109.993,15.979c36.204,9.323,72.133,23.417,103.959,45.65
							c15.865,11.085,30.563,24.222,43.17,39.274c12.629,15.021,23.081,31.923,31.005,49.8c7.924,17.899,13.25,36.72,16.608,55.651
							c3.245,18.961,4.487,38.045,4.255,56.941c-0.56,37.818-6.791,74.765-15.725,110.602l-1.478,5.925l-4.675,3.555
							c-7.25,5.912-14.685,11.619-22.508,16.735c-7.832,5.082-15.878,9.809-24.086,14.191c-8.239,4.32-16.635,8.287-25.149,11.925
							c-8.562,3.525-17.243,6.677-25.989,9.563c-35.058,11.361-71.275,17.352-107.322,19.766
							c-18.034,1.307-36.064,1.579-54.028,1.119c-17.951-0.516-35.867-1.413-53.648-3.446c-8.89-0.988-17.767-2.086-26.57-3.634
							c-8.825-1.412-17.602-3.109-26.312-5.116c-17.47-4.001-34.551-8.707-51.54-15.603c-4.513-1.837-6.691-6.988-4.854-11.505
							c1.474-3.634,5.095-5.75,8.803-5.484l0.324,0.026c34.341,2.493,68.813,5.353,102.918,7.076
							c17.085,0.809,34.14,1.478,51.169,1.268c17.015-0.215,33.982-0.958,50.827-2.392c33.663-2.987,66.903-8.755,98.541-18.664
							c15.795-4.998,31.171-10.994,45.947-18.078c14.724-7.194,28.669-15.703,41.854-25.254l-6.148,9.485
							c8.457-33.891,14.177-68.358,14.671-102.52c0.503-34.079-4.578-67.917-17.881-97.972
							c-13.185-30.077-34.931-55.646-62.227-74.564c-27.244-19.066-59.307-31.883-92.62-40.437
							c-33.384-8.571-68.175-13.014-103.181-14.929c-35.045-1.906-70.388-1.242-105.673,1.142
							c-35.295,2.388-70.549,6.555-105.608,12.065c-17.527,2.772-35.006,5.886-52.397,9.358
							c-17.304,3.472-34.905,7.307-51.549,11.58l-0.297,0.074c-9.358,2.405-18.891-3.236-21.292-12.594
							C2122.29,2082.553,2127.927,2073.02,2137.285,2070.619"/>
					</g>
					<g>
						<path style="fill:#F3AABB;" d="M3385.175,1480.394c-4.176,74.542-20.439,147.488-50.303,207.03
							c-58.274,116.194-174.11,193.75-268.987,279.582c-43.196,39.059-84.027,77.45-122.885,111.021
							c-72.224,62.433-137.561,108.271-198.175,111.459c-254.997,13.451-206.501-294.477-206.501-294.477l77.874-702.94
							c205.933-111.887,508.434-205.202,653.333-91.938C3350.711,1163.641,3394.004,1325.516,3385.175,1480.394"/>
					</g>
					<g style="opacity:0.4;">
						<g>
							<g>
								<path style="fill:#FFFFFF;" d="M2915.155,1970.108c26.413,37.875,389.03-249.763,378.98-472.016
									c-4.338-95.913-61.222,64.668-153.846,202.067C3047.665,1837.555,2899.937,1948.287,2915.155,1970.108"/>
							</g>
						</g>
					</g>
					<g>
						<path style="fill:#E36F8A;" d="M3385.175,1480.394c-175.759-229.17-502.093-202.473-533.303,40.31
							c-38.583,300.538-126.742,322.486-117.06,464.844c6.796,100.093,120.813,104.278,208.189,92.48
							c-72.224,62.433-137.561,108.271-198.175,111.459c-254.997,13.451-206.501-294.477-206.501-294.477l77.874-702.94
							c205.933-111.887,508.434-205.202,653.333-91.938C3350.711,1163.641,3394.004,1325.516,3385.175,1480.394"/>
					</g>
					<g>
						<path style="fill:#371A45;" d="M2728.831,2211.806c-65.403,0-117.263-20.786-154.333-61.909
							c-81.338-90.229-59.741-245.571-57.9-257.737l48.391-436.907l5.327-5.408c111.797-113.501,395.476-370.998,614.67-310.989
							c106.394,29.141,181.279,128.301,222.573,294.726l0.637,2.566l0.007,2.646c0.264,96.978-18.826,188.767-53.757,258.455
							l-0.002,0.007c-46.924,93.523-128.188,161.958-206.777,228.142c-22.419,18.879-45.603,38.403-67.078,57.837
							c-14.014,12.676-27.776,25.273-41.304,37.656c-108.855,99.639-202.864,185.691-293.33,190.454
							C2740.149,2211.653,2734.438,2211.806,2728.831,2211.806z M2606.831,1475.195l-46.899,423.24
							c-0.222,1.431-21.76,145.92,47.175,222.246c30.972,34.292,76.921,50.098,136.545,46.941
							c74.788-3.936,163.43-85.076,266.069-179.026c13.589-12.439,27.415-25.095,41.489-37.827
							c22.051-19.954,45.54-39.732,68.252-58.86c75.2-63.33,152.961-128.816,195.845-214.285
							c31.604-63.059,49.016-146.804,49.114-236.069c-37.292-148.337-101.545-235.967-191.001-260.466
							C2975.186,1126.789,2696.157,1385.41,2606.831,1475.195z M3334.875,1687.441h0.049H3334.875z"/>
					</g>
					<g>
						<path style="fill:#C2C6D2;" d="M3386.311,1438.855c-146.049-588.63-664.108-112.009-800.401,26.352l30.274-273.136
							c205.959-111.887,508.438-205.211,653.337-91.942C3343.451,1157.987,3385.934,1297.424,3386.311,1438.855"/>
					</g>
					<g style="opacity:0.7;">
						<g>
							<g>
								<path style="fill:#FFFFFF;" d="M3386.298,1438.876c-0.311-1.281-0.621-2.563-0.984-3.796
									c-7.867-126.008-48.938-243.973-115.355-295.977c-144.899-113.26-447.396-19.945-653.333,91.946l-25.376,228.764
									c-1.854,1.85-3.621,3.651-5.331,5.401l30.279-273.141c205.933-111.887,508.434-205.206,653.333-91.942
									C3343.429,1157.986,3385.926,1297.406,3386.298,1438.876"/>
							</g>
						</g>
					</g>
					<g>
						<path style="fill:#371A45;" d="M2585.903,1487.099c-3.184,0-6.394-0.693-9.399-2.124c-8.42-4.006-13.379-12.91-12.351-22.18
							l30.273-273.137c0.789-7.122,5.012-13.406,11.309-16.824c115.828-62.925,245.53-111.279,355.85-132.661
							c139.858-27.117,251.001-12.341,321.421,42.705c75.64,59.202,124.78,198.904,125.198,355.918
							c0.029,11.074-8.215,20.427-19.207,21.785c-11.001,1.348-21.267-5.706-23.933-16.455
							c-37.192-149.897-101.67-238.396-191.641-263.037c-202.371-55.405-488.909,215.215-571.917,299.482
							C2597.297,1484.844,2591.643,1487.099,2585.903,1487.099z M2636.677,1205.908l-22.236,200.627
							c130.945-124.316,376.135-320.94,570.547-267.676c63.062,17.271,115.059,59.148,155.547,125.044
							c-19.082-65.715-48.542-118.389-84.507-146.536c-60.127-47.007-159.07-58.838-286.111-34.211
							C2866.973,1103.11,2746.123,1147.676,2636.677,1205.908z"/>
					</g>
					<g>
						<path style="fill:#F3AABB;" d="M1534.439,1184.009l-113.116,417.318c0,0-69.924,303.765-261.819,206.838
							c-31.756-16.014-58.008-52.078-82.453-100.155c-29.675-58.309-56.648-134.386-87.503-213.974
							c-43.201-111.542-105.476-222.371-109.941-350.176c-1.496-43.31,3.66-90.149,13.889-137.404
							c8.099-37.529,19.372-75.29,33.134-111.878C1244.396,392.892,1477.612,1009.623,1534.439,1184.009"/>
					</g>
					<g>
						<path style="fill:#E36F8A;" d="M1534.439,1184.009l-113.116,417.318c0,0-69.924,303.765-261.819,206.838
							c-31.756-16.014-58.008-52.078-82.453-100.155c80.008-117.559,209.772-245.395,246.685-395.746
							c47.784-194.812,0-451.882-208.998-458.044c-97.203-2.869-173.9,81.049-221.242,152.237
							c8.099-37.529,19.372-75.29,33.134-111.878C1244.396,392.892,1477.612,1009.623,1534.439,1184.009"/>
					</g>
					<g>
						<path style="fill:#371A45;" d="M1231.934,1849.192c-26.421,0-53.931-7.173-82.3-21.501
							c-69.751-35.215-112.412-147.214-161.812-276.897c-6.111-16.042-12.329-32.363-18.711-48.838
							c-9.78-25.266-20.847-51.182-31.553-76.243c-37.488-87.783-76.252-178.552-79.815-281.101v-0.007
							c-2.62-76.174,14.565-167.705,48.389-257.732l0.794-2.109l1.206-1.904c92.297-145.718,187.825-213.496,283.977-201.435
							c189.661,23.787,317.146,354.646,363.154,495.793l2.024,6.208l-114.731,423.276c-2.81,11.968-43.801,179.204-149.326,228.672
							C1273.574,1844.587,1253.105,1849.192,1231.934,1849.192z M901.504,1143.093c3.276,94.382,40.41,181.335,76.323,265.422
							c10.847,25.403,22.065,51.667,32.114,77.629c6.411,16.548,12.656,32.944,18.796,49.063
							c44.238,116.135,86.023,225.828,140.632,253.398c38.994,19.692,73.406,22.041,105.208,7.153
							c87.849-41.111,125.049-197.759,125.415-199.336l0.2-0.801l111.411-411.021c-36.572-110.598-158.767-438.892-324.944-459.734
							c-77.488-9.719-158.311,50.676-240.33,179.514C915.012,988.437,899.099,1073.135,901.504,1143.093L901.504,1143.093z"/>
					</g>
					<g>
						<path style="fill:#C2C6D2;" d="M926.624,894.572c317.763-501.664,550.992,115.062,607.827,289.431l71.87-265.222
							c-84.425-143.526-212.995-313.84-422.513-288.704C1057.416,645.233,976.209,762.556,926.624,894.572"/>
					</g>
					<g style="opacity:0.7;">
						<g>
							<g>
								<path style="fill:#FFFFFF;" d="M1606.324,918.773l-71.883,265.235c-1.251-3.901-2.593-7.959-4.076-12.266l58.296-215.138
									c-84.39-143.526-212.978-313.854-422.479-288.7c-102.192,12.244-174.858,91.308-225.13,190.903
									c50.385-116.868,127.927-214.958,242.74-228.742C1393.347,604.963,1521.882,775.239,1606.324,918.773"/>
							</g>
						</g>
					</g>
					<g>
						<path style="fill:#371A45;" d="M1534.446,1205.893c-9.453,0-17.866-6.079-20.811-15.107
							c-33.875-103.928-157.568-444.67-326.973-465.918c-77.856-9.78-159.111,51.274-241.545,181.419
							c-6.006,9.477-18.201,12.883-28.252,7.883c-10.044-5.003-14.683-16.79-10.735-27.295
							c63.179-168.215,158.298-264.531,275.071-278.535c224.343-26.941,360.823,157.954,443.989,299.343
							c2.986,5.076,3.801,11.14,2.261,16.824l-71.87,265.22c-2.532,9.346-10.901,15.915-20.579,16.16
							C1534.817,1205.891,1534.631,1205.893,1534.446,1205.893z M1170.322,680.058c7.263,0,14.519,0.454,21.79,1.365
							c163.708,20.532,281.094,269.851,339.739,428.467l50.923-187.913c-83.271-139.807-203.43-293.306-396.357-270.166
							c-49.944,5.991-91.702,30.042-126.382,63.496C1096.58,691.841,1133.391,680.058,1170.322,680.058z"/>
					</g>
					<g>
						<path style="fill:#C2C6D2;" d="M1929.218,2131.772c-32.741-1.837-91.177-11.352-91.177-11.352
							c-385.452-60.054-593.405-270.049-606.047-395.038c-11.763-116.286,56.145-175.313,84.25-230.277
							c38.185-74.673,41.237-139.214,73.011-248.206c110.322-378.451,367.029-556.611,729.103-496.482
							c323.203,53.678,526.096,195.805,592.745,427.827l19.744,100.99c10.823,58.353,4.684,165.513-12.856,260.949
							c-26.841,146.04-5.436,419.737-197.991,529.162c-91.063,51.75-237.904,70.296-380.891,71.704L1929.218,2131.772z"/>
					</g>
					<g style="opacity:0.7;">
						<g>
							<g>
								<path style="fill:#FFFFFF;" d="M2736.136,1344.421l-13.985-71.603c-71.66-249.496-286.373-416.947-633.982-474.683
									c-216.725-35.998-401.833,22.005-540.724,137.802c135.523-159.955,329.885-225.528,570.897-185.502
									c323.234,53.679,526.105,195.766,592.745,427.792l19.753,101.02C2734.112,1297.018,2735.821,1319.298,2736.136,1344.421"/>
							</g>
						</g>
					</g>
					<g>
						<path style="fill:#A8AFC1;" d="M2717.979,1540.189c-26.815,146.032-5.401,419.71-197.97,529.149
							c-162.623,92.44-503.208,78.937-681.976,51.076c-385.435-60.059-593.423-270.036-606.034-395.042
							c-2.099-20.881-1.443-39.619,1.246-56.656c35.325,126.278,240.567,313.709,601.202,369.902
							c178.816,27.865,519.353,41.364,681.976-51.076c192.56-109.443,171.154-383.121,198.018-529.144
							c10.399-56.49,16.775-117.117,18.017-169.265C2740.98,1349.155,2734.587,1449.913,2717.979,1540.189"/>
					</g>
					<g>
						<path style="fill:#371A45;" d="M2739.451,1277.639c7.027,26.125,9.494,52.66,10.718,79.003
							c0.569,13.198,0.577,26.36,0.49,39.523c-0.346,13.141-0.875,26.277-1.662,39.392c-1.889,26.203-4.648,52.319-8.584,78.307
							c-0.962,6.498-1.942,12.992-3.061,19.477l-3.118,19.005c-1.972,12.363-3.507,24.957-4.898,37.634
							c-2.755,25.376-4.867,51.103-7.268,76.947c-2.488,25.849-5.178,51.829-8.663,77.852c-3.49,26.015-7.736,52.082-13.403,78.023
							c-5.799,25.906-12.961,51.684-22.215,76.951c-9.245,25.241-20.601,49.979-34.726,73.339
							c-14.186,23.299-31.201,45.16-50.958,64.344c-19.722,19.211-42.177,35.631-66.203,48.789
							c-24.056,13.163-49.288,22.984-74.796,30.795c-51.063,15.69-103.312,23.994-155.446,28.879
							c-52.192,4.736-104.44,5.65-156.465,3.892c-4.828-0.162-8.615-4.207-8.453-9.043c0.153-4.526,3.717-8.134,8.143-8.44
							l0.14-0.009c25.73-1.666,51.413-3.17,76.991-5.628c25.56-2.532,51.063-5.165,76.378-8.838
							c25.298-3.643,50.456-7.946,75.281-13.254c24.786-5.458,49.249-11.921,73.046-19.761
							c23.794-7.854,46.774-17.584,67.991-29.522c21.183-12.021,40.638-26.719,57.741-43.87
							c34.323-34.306,58.69-77.962,75.434-124.687c8.392-23.4,14.977-47.626,20.317-72.259c5.471-24.607,9.721-49.633,13.232-74.887
							c7.028-50.552,10.955-101.873,17.44-153.903c1.644-13.018,3.441-26.089,5.75-39.252l3.477-19.245
							c1.185-6.245,2.234-12.529,3.267-18.813c4.058-25.145,7.604-50.42,10.307-75.771c1.5-12.66,2.737-25.342,3.813-38.041
							c1.093-12.677,2.068-25.381,2.689-38.067c1.408-25.368,1.963-50.766,0.07-75.675l-0.018-0.245
							c-0.363-4.832,3.258-9.048,8.085-9.411C2734.588,1270.844,2738.379,1273.647,2739.451,1277.639"/>
					</g>
					<g>
						<path style="fill:#371A45;" d="M1928.729,2140.505c-16.744-0.415-33.068-1.714-49.38-3.424
							c-16.294-1.71-32.544-3.56-48.772-5.816l-24.362-3.411c-8.138-1.041-16.189-2.746-24.292-4.089
							c-16.219-2.663-32.286-6.179-48.405-9.489c-32.05-7.438-63.99-15.655-95.388-25.827
							c-31.341-10.294-62.367-21.734-92.69-34.979c-60.566-26.601-118.678-59.586-171.539-100.312
							c-26.4-20.374-51.544-42.606-74.481-67.278c-5.558-6.345-11.427-12.38-16.692-19.022l-8.068-9.795l-7.675-10.172l-3.826-5.095
							l-3.612-5.287c-2.388-3.538-4.854-7.014-7.167-10.613c-4.482-7.32-9.07-14.566-13.031-22.285
							c-8.116-15.27-15.24-31.337-20.081-48.636l-3.14-13.198c-0.848-4.478-1.421-9.078-2.108-13.617
							c-0.442-4.426-0.612-8.689-0.918-13.045c-0.188-4.347-0.73-8.654-0.612-13.027c-0.337-34.831,6.302-70.466,20.409-102.358
							c13.495-32.203,33.466-60.264,50.91-86.751c4.351-6.638,8.488-13.189,12.122-19.687c3.63-6.275,6.94-13.464,10.294-20.404
							c6.415-14.081,11.921-28.569,16.744-43.428c9.664-29.679,16.372-61.108,23.728-92.865
							c7.259-31.791,15.095-63.876,24.292-95.558c18.699-63.347,42.003-125.714,72.985-184.693
							c15.528-29.422,32.334-58.323,51.794-85.557c19.355-27.274,40.59-53.316,63.846-77.564
							c46.795-48.186,101.996-88.754,162.964-117.677c61.082-28.577,127.096-46.104,193.758-52.362
							c33.327-3.14,66.802-4.111,100.098-2.576c33.265,1.723,66.408,4.968,99.144,10.395
							c65.031,10.701,129.462,25.446,192.298,46.432c62.753,20.912,123.992,47.932,180.482,83.629
							c56.363,35.596,108.183,80.082,148.406,134.023c40.17,53.818,68.748,116.05,82.746,180.74
							c1.028,4.731-1.981,9.402-6.712,10.421c-4.333,0.94-8.606-1.504-10.084-5.549l-0.013-0.04
							c-11.029-30.13-23.96-59.28-39.177-87.027l-5.755-10.377l-6.144-10.132c-3.94-6.835-8.308-13.407-12.681-19.967
							c-8.742-13.115-18.227-25.691-27.943-38.054c-39.61-48.89-87.845-90.525-141.519-123.987
							c-53.696-33.528-112.425-59.132-173.061-78.967c-60.653-19.901-123.471-33.939-186.762-43.997
							c-31.459-5.042-63.133-7.941-94.793-9.419c-31.678-1.255-63.334-0.197-94.719,2.777c-31.407,2.917-62.438,8.707-92.729,16.889
							c-30.292,8.19-59.84,18.939-88.164,32.29c-56.543,26.99-107.672,64.672-151.371,109.823
							c-43.354,45.54-79.816,97.811-109.268,154.008c-29.758,56.101-52.454,116.042-70.794,177.272
							c-9.043,30.733-16.771,61.808-24.108,93.372c-7.447,31.525-14.396,63.789-24.974,95.943
							c-5.269,16.04-11.387,31.962-18.515,47.447c-3.743,7.679-7.25,15.262-11.763,23.068c-4.329,7.666-8.925,14.846-13.504,21.786
							c-18.406,27.602-36.405,52.957-48.186,80.883c-12.314,27.607-17.864,57.273-17.789,87.394
							c0.127,7.504,0.756,15.161,1.229,22.595c0.56,3.49,0.945,6.975,1.587,10.478l2.462,10.535
							c3.861,14.063,9.9,27.935,16.976,41.36c3.424,6.778,7.535,13.276,11.497,19.844c2.068,3.24,4.303,6.402,6.446,9.608
							l3.236,4.801l3.485,4.657l6.971,9.328l7.403,9.052c4.797,6.131,10.281,11.772,15.397,17.684
							c21.253,23.046,44.893,44.132,69.876,63.57c25.009,19.416,51.47,37.109,78.902,53.237
							c27.392,16.193,55.686,31.009,84.805,44.137c29.107,13.145,58.786,25.131,89.003,35.758
							c30.235,10.587,60.964,19.866,92.008,28.123c31.074,8.186,62.481,15.061,94.164,21.248
							c15.826,3.175,31.761,5.952,47.683,8.593c15.918,2.51,31.888,5.16,47.6,6.752l0.118,0.013c4.81,0.486,8.309,4.784,7.823,9.59
							C1937.187,2137.212,1933.247,2140.601,1928.729,2140.505"/>
					</g>
					<g>
						<path style="fill:#371A45;" d="M2466.579,1302.985c14.317,12.288,35.355-3.288,27.466-20.426
							c-17.291-37.586-45.807-76.759-91.36-87.093c-82.409-18.699-65.468,35.054-22.267,52.673
							C2405.628,1258.424,2437.983,1278.448,2466.579,1302.985"/>
					</g>
					<g>
						<path style="fill:#371A45;" d="M1603.619,1171.069c-17.33,7.456-32.767-13.679-20.129-27.69
							c27.712-30.716,66.614-59.604,113.177-55.887c84.237,6.722,52.039,52.974,5.545,56.915
							C1675.082,1146.707,1638.231,1156.175,1603.619,1171.069"/>
					</g>
					<g>
						<path style="fill:#C2C6D2;" d="M2138.225,746.399c-1.469,28.46-7.775,54.903-15.892,77.511l-63.692-26.903
							c0.306-46.861-40.879-98.641-81.993-136.24c-5.567-5.09-11.138-9.905-16.565-14.427c-1.264-1.049-2.528-2.143-3.743-3.236
							c-61.467-55.782,20.798-149.267,85.409-97.189C2120.685,609.529,2141.505,682.969,2138.225,746.399"/>
					</g>
					<g style="opacity:0.7;">
						<g>
							<g>
								<path style="fill:#FFFFFF;" d="M2138.225,746.399c-31.131-96.818-104.042-186.871-146.233-160.034
									c-25.643,16.328-22.814,48.929-15.345,74.402c-5.567-5.09-11.138-9.905-16.565-14.427c-1.264-1.049-2.528-2.143-3.743-3.236
									c-61.467-55.782,20.798-149.267,85.409-97.189C2120.685,609.529,2141.505,682.969,2138.225,746.399"/>
							</g>
						</g>
					</g>
					<g>
						<path style="fill:#371A45;" d="M2114.096,820.948c2.418-29.115,6.516-55.935,6.682-83.113
							c0.118-27.038-4.39-53.949-14.732-78.657c-10.154-24.76-25.241-47.425-43.581-67.497l-14.348-14.593l-15.612-13.465
							l-1.946-1.688c-0.673-0.617-1.285-1.102-1.819-1.443l-3.341-2.409c-1.12-0.787-2.309-1.338-3.442-2.042
							c-1.124-0.744-2.3-1.277-3.485-1.762c-4.67-2.173-9.472-3.494-14.326-3.813c-9.651-0.761-19.775,2.2-28.464,8.282
							c-8.715,6-15.59,15.122-18.996,24.769c-3.398,9.708-3.376,19.718,0.533,28.63c1.959,4.474,4.823,8.737,8.374,12.774
							c1.999,1.906,3.739,3.883,6.162,5.855l8.501,7.255c22.954,20.028,43.962,42.361,62.088,67.781
							c8.991,12.756,17.09,26.496,23.43,41.587c6.205,15.082,10.605,31.849,10.338,49.747c-0.14,9.656-8.086,17.37-17.746,17.225
							c-9.441-0.136-17.024-7.732-17.225-17.098l-0.009-0.385c-0.232-11.414-3.651-23.431-8.89-35.141
							c-5.213-11.755-12.192-23.247-20.256-34.193c-16.163-21.939-36.055-41.871-57.137-60.177l-8.182-6.949
							c-3.249-2.65-6.516-6.013-9.713-9.232c-6.17-6.861-11.628-14.785-15.506-23.715c-7.994-17.929-7.963-39.173-1.583-56.906
							c6.345-17.868,18.034-33.09,33.278-43.822c15.135-10.745,34.512-16.945,54.076-15.406c9.743,0.643,19.228,3.481,27.738,7.508
							c2.169,0.975,4.281,2.016,6.24,3.249c1.976,1.202,4.049,2.331,5.921,3.647l5.501,4.049c0.975,0.696,1.78,1.356,2.449,1.981
							l2.178,1.916l17.396,15.362c5.462,5.536,10.81,11.212,16.198,16.823c20.876,23.168,38.29,50.149,49.615,79.776
							c11.628,29.526,16.316,61.506,15.511,92.79c-0.406,31.324-8.615,62.407-25.402,88.4c-2.694,4.163-8.248,5.357-12.415,2.667
							c-2.873-1.858-4.333-5.081-4.08-8.273L2114.096,820.948z"/>
					</g>
					<g>
						<path style="fill:#C2C6D2;" d="M2056.906,795.672l-51.033,14.129c-24.996-32.176-85.251-42.733-130.735-43.739
							c-1.273-0.057-2.545-0.114-3.77-0.175c-1.933-0.109-3.813-0.363-5.65-0.66c-57.387-9.398-50.823-98.869,10.788-98.292
							c91.828,0.879,141.344,48.588,166.72,96.752C2048.934,774.48,2053.412,785.316,2056.906,795.672"/>
					</g>
					<g style="opacity:0.7;">
						<g>
							<g>
								<path style="fill:#FFFFFF;" d="M2043.226,763.685c-55.476-45.544-145.397-76.348-172.059-56.35
									c-22.635,16.967-15.905,40.406-5.449,57.894c-57.387-9.402-50.818-98.873,10.788-98.296
									C1968.338,667.812,2017.849,715.522,2043.226,763.685"/>
							</g>
						</g>
					</g>
					<g>
						<path style="fill:#371A45;" d="M2040.343,801.266c-14.256-38.718-39.51-72.797-74.035-92.327
							c-17.19-9.835-36.383-16.145-56.407-19.573l-15.179-2.02l-15.454-0.77l-1.933-0.101c-0.7-0.057-1.268-0.065-1.684-0.017
							l-2.838,0.101c-1.789,0.258-3.656,0.323-5.274,0.835c-3.367,0.748-6.415,1.92-9.048,3.721
							c-5.287,3.463-9.459,9.118-11.623,16.066c-2.213,6.909-2.082,14.855,0.109,21.454c2.235,6.634,6.166,11.894,11.895,15.091
							c2.877,1.609,6.223,2.764,9.927,3.516c1.955,0.201,3.761,0.582,6.061,0.647l8.584,0.429
							c23.444,1.539,47.018,4.474,69.968,12.244c11.427,3.901,22.722,9.056,33.138,16.136c10.368,6.984,20.098,16.154,26.229,27.712
							c2.296,4.325,0.651,9.695-3.673,11.986c-3.179,1.688-6.918,1.246-9.586-0.822l-0.542-0.42
							c-15.485-12.017-34.63-18.161-54.724-22.81c-20.133-4.404-41.207-7.434-62.42-8.024l-8.186-0.188
							c-3.302-0.018-7.036-0.464-10.639-0.87c-7.312-1.181-14.75-3.402-21.743-7.076c-14.168-7.277-25.079-20.793-29.99-35.29
							c-5.016-14.562-5.296-30.064-1.058-44.583c4.163-14.47,13.364-28.328,26.724-37.354c6.594-4.557,14.098-7.666,21.602-9.45
							c3.77-1.028,7.526-1.378,11.265-1.793l5.549-0.223c0.984-0.052,1.81-0.039,2.51,0.013l2.257,0.1l18.065,0.879l18.091,2.357
							c24.069,3.927,47.972,12.017,69.513,24.659c21.708,12.419,40.21,29.999,54.969,49.669
							c14.859,19.731,25.398,41.989,32.741,64.934c2.939,9.201-2.134,19.049-11.335,21.992c-8.947,2.864-18.502-1.854-21.734-10.578
							L2040.343,801.266z"/>
					</g>
					<g style="opacity:0.4;">
						<g>
							<g>
								<path style="fill:#FFFFFF;" d="M1084.912,1452.379c-40.621,21.957-186.35-274.418-77.441-468.416
									c47.001-83.721,38.666,84.145,46.559,249.662C1059.601,1350.367,1108.321,1439.724,1084.912,1452.379"/>
							</g>
						</g>
					</g>
					<g>
						<path style="fill:#371A45;" d="M2166.73,1557.344c-19.644,61.76,12.152,127,71.017,145.721
							c58.86,18.721,122.505-16.172,142.144-77.931c19.639-61.76-12.153-127-71.018-145.721
							C2250.014,1460.692,2186.369,1495.584,2166.73,1557.344"/>
					</g>
					<g>
						<path style="fill:#FFFFFF;" d="M2206.202,1598.417c-8.309,26.138,5.147,53.744,30.055,61.672
							c24.908,7.919,51.846-6.848,60.159-32.981c8.309-26.142-5.147-53.748-30.056-61.672
							C2241.453,1557.513,2214.515,1572.276,2206.202,1598.417"/>
					</g>
					<g>
						<path style="fill:#FFFFFF;" d="M2294.781,1547.479c-4.793,15.069,2.965,30.992,17.33,35.557
							c14.361,4.57,29.889-3.945,34.682-19.014c4.788-15.069-2.965-30.987-17.33-35.557
							C2315.098,1523.896,2299.574,1532.414,2294.781,1547.479"/>
					</g>
					<g>
						<path style="fill:#371A45;" d="M1526.25,1440.909c-19.643,61.76,12.153,127,71.017,145.721
							c58.865,18.721,122.5-16.167,142.144-77.927c19.644-61.76-12.153-127.005-71.017-145.721
							C1609.529,1344.257,1545.89,1379.15,1526.25,1440.909"/>
					</g>
					<g>
						<path style="fill:#FFFFFF;" d="M1565.723,1481.982c-8.309,26.138,5.143,53.748,30.056,61.672
							c24.913,7.919,51.846-6.848,60.155-32.981c8.313-26.137-5.143-53.748-30.051-61.672
							C1600.969,1441.078,1574.036,1455.845,1565.723,1481.982"/>
					</g>
					<g>
						<path style="fill:#FFFFFF;" d="M1654.301,1431.048c-4.793,15.065,2.965,30.987,17.326,35.557
							c14.365,4.565,29.894-3.945,34.687-19.018c4.788-15.069-2.969-30.987-17.33-35.557
							C1674.618,1407.465,1659.094,1415.979,1654.301,1431.048"/>
					</g>
					<g>
						<path style="fill:#371A45;" d="M2089.426,1740.121c46.227,30.353,90.919,49.782,132.501,60.806
							c10.146,2.65,20.059,4.832,29.789,6.555c32.417,5.729,62.595,6.314,89.721,3.061c18.633-2.187,35.845-6.218,51.369-11.588
							c15.62-5.383,29.531-12.201,41.447-19.941c84.783-55.108,157.03-238.756,149.145-280.973
							c-12.748-68.087-154.533-124.591-271.615-146.088c-29.491-5.388-57.448-8.589-81.32-9.188
							c-13.272-0.341-25.766-0.284-37.524,0.07c-24.427,0.73-45.68,2.808-64.051,5.659c-28.643,4.482-50.241,10.784-65.927,16.875
							c-24.524,9.476-34.638,18.314-34.638,18.314S1919.977,1628.903,2089.426,1740.121"/>
					</g>
					<g style="opacity:0.7;">
						<g>
							<g>
								<path style="fill:#FFFFFF;" d="M2192.938,1342.837l148.498,467.708c18.633-2.191,35.845-6.223,51.369-11.589
									l-81.023-447.002c-29.491-5.387-57.448-8.589-81.32-9.192C2217.19,1342.422,2204.697,1342.483,2192.938,1342.837"/>
							</g>
						</g>
					</g>
					<g style="opacity:0.7;">
						<g>
							<g>
								<path style="fill:#FFFFFF;" d="M2062.962,1365.368l158.967,435.563c10.145,2.646,20.054,4.828,29.789,6.555
									l-122.829-458.989C2100.241,1352.975,2078.647,1359.276,2062.962,1365.368"/>
							</g>
						</g>
					</g>
					<g>
						<path style="fill:#371A45;" d="M1407.251,1510.8c25.674,55.542,97.872,115.775,221.334,116.702
							c7.902,0.074,16.01-0.101,24.34-0.573c3.966-0.179,8.011-0.477,12.109-0.8c23.457-1.902,44.171-7.779,62.472-16.591
							c14.33-6.879,27.196-15.564,38.753-25.525c90.285-78.176,99.07-236.014,99.07-236.014s-24.156-59.298-147.536-111.306
							c-11.225-4.714-23.754-9.122-37.179-13.062c-36.51-10.806-79.536-18.318-120.672-20.444
							c-14.335-0.73-28.49-0.826-42.007-0.157c-27.62,1.356-52.742,5.798-72.399,14.142c-14.689,6.232-26.303,14.641-33.58,25.543
							C1392.203,1272.372,1373.072,1436.682,1407.251,1510.8"/>
					</g>
					<g style="opacity:0.7;">
						<g>
							<g>
								<path style="fill:#FFFFFF;" d="M1559.943,1203.188l167.564,406.351c14.33-6.879,27.196-15.568,38.753-25.525
									l-85.645-360.382C1644.105,1212.826,1601.079,1205.309,1559.943,1203.188"/>
							</g>
						</g>
					</g>
					<g style="opacity:0.7;">
						<g>
							<g>
								<path style="fill:#FFFFFF;" d="M1445.538,1217.169l183.044,410.33c7.906,0.079,16.014-0.096,24.34-0.573l-134.985-423.895
									C1490.313,1204.383,1465.19,1208.83,1445.538,1217.169"/>
							</g>
						</g>
					</g>
					<g>
						<path style="fill:#371A45;" d="M2307.556,1833.953c-66.367,0.005-145.562-20.566-229.902-75.923
							c-76.206-50.019-112.063-132.844-103.691-239.521c6.116-77.956,33.577-140.864,34.744-143.503
							c1.27-2.878,3.159-5.442,5.532-7.507c5.894-5.134,62.068-50.032,216.746-46.179c120.837,3.015,354.409,70.918,373.489,172.795
							l0,0c9.937,53.098-67.024,243.389-158.542,302.878C2412.729,1818.569,2364.934,1833.95,2307.556,1833.953z M2045.801,1397.524
							c-13.63,34.668-83.845,233.284,55.378,324.666c139.976,91.872,260.613,78.352,321.389,38.857
							c80.427-52.283,145.535-228.223,139.766-259.048v-0.002c-12.075-64.558-203.582-134.607-332.419-137.822
							C2112.598,1361.279,2059.426,1388.899,2045.801,1397.524z"/>
					</g>
					<g>
						<path style="fill:#371A45;" d="M1631.677,1648.938c-135.22,0-215.386-67.432-243.87-129.175
							c-36.34-78.774-18.284-252.034,6.304-288.921c51.79-77.693,246.487-49.922,332-13.879
							c127.883,53.901,156.272,116.023,159.089,122.93c1.199,2.942,1.731,6.116,1.553,9.287
							c-0.156,2.827-4.185,70.032-32.029,140.103c-38.379,96.589-103.372,151.292-187.954,158.198
							C1654.695,1648.467,1642.981,1648.938,1631.677,1648.938z M1411.948,1242.732l17.837,11.89
							c-14.226,21.338-34.749,178.469-3.052,247.182c25.076,54.356,102.104,113.938,236.548,102.947
							c150.51-12.288,176.694-215.503,180.198-252.302c-7.71-12.661-39.719-56.233-134.019-95.979
							c-91.707-38.657-249.722-46.785-279.675-1.848L1411.948,1242.732z"/>
					</g>
					<g>
						<path style="fill:#371A45;" d="M2028.313,1383.663c0,0-82.623-60.417-162.964-35.675c0,0-0.66,28.254-12.262,75.425
							c0,0,111.415-6.253,148.738,49.476C2001.826,1472.889,2016.458,1407.377,2028.313,1383.663"/>
					</g>
					<g style="opacity:0.7;">
						<g>
							<g>
								<path style="fill:#FFFFFF;" d="M2028.292,1383.642c-3.148,6.385-6.52,15.734-9.804,26.089
									c-12.087-8.256-84.018-54.601-155.67-35.941c2.326-16.652,2.554-25.814,2.554-25.814
									C1945.691,1323.251,2028.292,1383.642,2028.292,1383.642"/>
							</g>
						</g>
					</g>
					<g>
						<path style="fill:#371A45;" d="M2001.821,1494.324c-7.061,0-13.779-3.499-17.805-9.507
							c-24.919-37.209-102.107-41.514-129.751-40c-6.799,0.347-13.342-2.502-17.673-7.732c-4.331-5.227-5.94-12.197-4.319-18.792
							c10.786-43.86,11.641-70.588,11.648-70.854c0.256-9.185,6.338-17.231,15.12-19.937
							c89.587-27.583,178.196,36.13,181.924,38.857c8.442,6.172,11.196,17.534,6.521,26.887
							c-8.75,17.505-20.825,66.797-24.739,84.314c-1.87,8.369-8.547,14.817-16.975,16.396
							C2004.453,1494.204,2003.132,1494.324,2001.821,1494.324z M1879.734,1402.18c29.216,1.474,75.486,7.59,110.012,29.998
							c3.474-13.081,7.654-27.617,11.99-39.951c-22.634-12.998-69.521-35.042-116.26-27.039
							C1884.49,1374.231,1882.756,1386.736,1879.734,1402.18z"/>
					</g>
					<g>
						<path style="fill:#371A45;" d="M2582.078,1523.983c0,0,131.736,57.47,156.426,75.898
							c24.694,18.432,5.96,129.751-37.909,122.57c-28.726-4.701-18.283-58.961-18.283-58.961l-125.006-60.706
							C2557.305,1602.784,2577.972,1558.84,2582.078,1523.983"/>
					</g>
					<g>
						<path style="fill:#371A45;" d="M2704.414,1744.189c-2.832,0-5.303-0.261-7.28-0.583c-11.316-1.853-20.798-7.854-27.427-17.351
							c-10.305-14.771-11.377-35.466-10.479-50.147l-111.287-54.043c-10.557-5.127-15.029-17.786-10.034-28.406
							c0.188-0.398,19.241-41.287,22.881-72.185c0.796-6.741,4.734-12.705,10.618-16.084c5.886-3.381,13.022-3.767,19.243-1.055
							c13.716,5.981,134.751,59.018,160.676,78.367c28.062,20.945,22.117,81.274,7.036,116.77
							C2742.166,1737.602,2718.684,1744.187,2704.414,1744.189z M2585.002,1592.405l106.672,51.802
							c8.728,4.238,13.521,13.809,11.687,23.335c-2.388,12.727-1.75,29.162,1.196,33.772c2.788-0.181,6.76-4.697,9.634-9.348
							c14.783-23.941,16.643-66.082,10.798-75.41c-15.383-10.94-78.342-40.386-127.219-62.209
							C2593.967,1568.486,2589.102,1582.014,2585.002,1592.405z M2724.734,1616.174L2724.734,1616.174
							C2724.734,1616.172,2724.734,1616.174,2724.734,1616.174z"/>
					</g>
					<g>
						<path style="fill:#C2C6D2;" d="M2739.724,2404.994l-205.067-167.8c0,0-20.067-40.774-22.07-87.162c0,0-0.459,0.14-1.277,0.363
							c-8.304,2.191-55.922,12.909-95.283-17.514c-33.252-25.722-48.212-84.377-32.338-142.214
							c8.116-29.645,24.401-59.018,50.399-83.695c71.105-67.414,216.878-90.901,309.056-10.123
							C2822.872,1966.768,2923.669,2236.735,2739.724,2404.994"/>
					</g>
					<g>
						<path style="fill:#A8AFC1;" d="M2541.364,2056.436c-0.778,1.732-21.712,46.021-30.056,93.958
							c-8.3,2.191-55.922,12.909-95.283-17.514c-33.252-25.722-48.212-84.377-32.338-142.214c0,0-1.369,73.436,51.496,95.235
							C2501.272,2113.18,2539.675,2058.859,2541.364,2056.436"/>
					</g>
					<g>
						<path style="fill:#A8AFC1;" d="M2739.724,2404.994l-51.724-42.33c79.177-60.067,137.469-157.9,138.427-315.76
							C2858.354,2157.509,2853.657,2300.772,2739.724,2404.994"/>
					</g>
					<g style="opacity:0.4;">
						<g>
							<g>
								<path style="fill:#FFFFFF;" d="M2840.063,2214.205c3.699-121.552-52.087-236.539-100.159-278.725
									c-92.134-80.778-237.903-57.286-309.056,10.123c-29.828,28.328-46.796,62.853-53.455,96.787
									c-1.321-44.972,15.327-96.193,56.696-135.418c71.105-67.414,216.878-90.901,309.056-10.124
									C2796.325,1943.461,2858.858,2079.106,2840.063,2214.205"/>
							</g>
						</g>
					</g>
					<g>
						<path style="fill:#371A45;" d="M2526.793,2241.067c-4.172-7.154-7.618-13.958-10.95-21.178
							c-3.306-7.15-6.275-14.475-8.965-21.961c-2.72-7.482-5.073-15.148-7.054-23.002c-2.086-7.827-3.49-15.917-4.709-24.13
							l22.591,15.974c-2.624,0.765-4.154,1.106-6.135,1.544c-1.872,0.411-3.721,0.765-5.567,1.08
							c-3.687,0.634-7.36,1.115-11.046,1.465c-7.368,0.682-14.79,0.818-22.241,0.376c-14.868-0.923-29.946-4.198-43.979-10.53
							c-7.005-3.14-13.731-6.997-19.985-11.475c-3.092-2.147-6.227-4.815-9.271-7.451c-2.873-2.777-5.733-5.571-8.226-8.602
							c-10.224-11.969-17.321-25.604-22.202-39.554c-9.76-28.009-11.221-57.505-6.874-85.807
							c4.36-28.337,15.161-55.589,31.07-79.392c15.834-23.785,37.144-44.049,61.042-59.088
							c23.854-15.109,49.966-25.774,76.934-32.587c26.986-6.774,54.938-9.651,82.864-8.221c27.9,1.526,55.795,7.534,81.893,18.546
							c13.036,5.497,25.63,12.214,37.359,20.238c5.838,4.041,11.619,8.204,17.015,12.826l4.106,3.398l4.093,3.721
							c2.65,2.532,5.226,5.099,7.675,7.723c19.495,21.073,33.965,44.548,46.393,68.844c24.515,48.715,39.93,101.392,45.89,155.49
							c5.904,53.998,1.439,109.95-16.613,162.168c-8.986,26.059-21.292,51.059-36.624,74.008
							c-15.323,22.958-33.584,43.835-53.766,62.394c-7.111,6.538-18.179,6.07-24.716-1.041c-6.538-7.115-6.07-18.178,1.041-24.716
							l0.065-0.061c18.244-16.788,34.586-35.495,48.265-55.979c13.683-20.474,24.624-42.715,32.662-66.014
							c16.132-46.643,20.339-97.33,14.903-147.011c-5.436-49.695-19.849-98.847-42.304-143.412
							c-11.265-22.14-24.668-43.472-40.73-60.75c-4.102-4.355-7.924-8.107-12.712-11.868c-4.509-3.879-9.358-7.347-14.239-10.74
							c-9.813-6.73-20.383-12.362-31.398-16.998c-22.031-9.293-45.912-14.505-70.134-15.831c-24.235-1.242-48.79,1.264-72.434,7.211
							c-23.636,5.947-46.454,15.336-66.736,28.197c-10.128,6.437-19.578,13.727-28.018,21.908
							c-8.523,8.221-16.158,17.313-22.713,27.117c-13.084,19.587-22,42.024-25.564,65.319c-3.616,23.199-2.204,47.416,5.309,68.8
							c3.7,10.652,9.017,20.531,15.778,28.416c1.649,2.033,3.494,3.765,5.287,5.554c1.911,1.601,3.717,3.223,5.991,4.797
							c4.36,3.118,9.017,5.79,13.919,7.99c9.787,4.43,20.627,6.844,31.792,7.543c5.584,0.328,11.248,0.232,16.88-0.293
							c2.812-0.267,5.615-0.629,8.361-1.102c1.373-0.236,2.729-0.499,4.045-0.783c1.207-0.253,2.855-0.673,3.363-0.826l0.984-0.28
							c8.973-2.593,18.354,2.589,20.947,11.562c0.442,1.539,0.652,3.17,0.66,4.697c-0.293,6.826-0.49,13.784-0.009,20.82
							c0.372,7.036,1.106,14.142,2.226,21.24c1.08,7.102,2.458,14.225,4.189,21.279c1.688,7.001,3.774,14.234,6.021,20.719
							l0.149,0.442c1.583,4.57-0.84,9.559-5.414,11.142C2533.204,2246.327,2528.857,2244.613,2526.793,2241.067"/>
					</g>
					<g>
						<path style="fill:#C2C6D2;" d="M2541.423,2056.376c0,0-24.012,46.835-28.836,93.665"/>
					</g>
					<g>
						<path style="fill:#371A45;" d="M2549.205,2060.369c-2.751,7.185-5.348,14.96-7.605,22.56
							c-2.278,7.657-4.259,15.375-5.96,23.085c-1.745,7.714-3.022,15.454-4.041,23.116c-1.032,7.674-1.452,15.27-1.609,22.704
							l-0.004,0.223c-0.201,9.704-8.23,17.4-17.934,17.195c-9.699-0.197-17.4-8.226-17.199-17.929
							c0.022-1.019,0.149-2.108,0.337-3.07c1.771-8.864,3.87-17.501,6.542-25.827c2.659-8.322,5.571-16.464,8.908-24.366
							c3.297-7.915,6.844-15.66,10.653-23.242c3.853-7.626,7.802-14.912,12.345-22.429c2.51-4.141,7.893-5.471,12.034-2.969
							c3.691,2.23,5.147,6.743,3.656,10.635L2549.205,2060.369z"/>
					</g>
					<g>
						<path style="fill:#C2C6D2;" d="M1114.788,1975.066c0,0,47.062,49.34,101.243,59.503
							c93.372,17.514,251.67-41.513,230.911-176.734c-11.571-75.351-91.478-165.185-199.828-142.984
							c-108.349,22.202-283.527,143.272-210.546,392.091"/>
					</g>
					<g style="opacity:0.4;">
						<g>
							<g>
								<path style="fill:#FFFFFF;" d="M1447.673,1899.312c-0.184-1.78-0.455-3.555-0.73-5.379
									c-11.584-75.399-91.496-165.207-199.819-142.992c-87.481,17.877-218.474,100.251-227.321,262.165
									c-10.128-185.856,133.595-279.04,227.321-298.246c108.323-22.21,188.235,67.641,199.819,142.992
									C1449.221,1872.584,1449.361,1886.403,1447.673,1899.312"/>
							</g>
						</g>
					</g>
					<g>
						<path style="fill:#371A45;" d="M1121.118,1969.032c22.228,11.938,42.72,25.429,63.574,35.95
							c10.482,5.147,21.279,9.135,31.993,11.3c10.889,2.191,22.748,3.004,34.468,2.869c23.583-0.258,47.495-4.557,70.068-12.052
							c22.595-7.403,44.045-18.253,62.022-32.662c17.986-14.365,32.181-32.482,39.947-53.053
							c7.906-20.457,9.104-43.625,4.858-65.997c-4.294-22.088-14.523-43.8-28.416-62.529c-13.81-18.856-31.586-34.752-51.623-46.061
							c-20.028-11.413-42.641-17.488-65.499-17.807c-11.457-0.192-22.871,1.107-34.328,3.529
							c-11.606,2.519-23.159,6.052-34.455,10.342c-45.23,17.278-86.581,46.056-117.55,83.047
							c-15.472,18.52-28.298,39.13-37.892,61.178c-9.533,22.07-15.975,45.496-19.049,69.513
							c-6.328,48.116,0.179,97.841,14.116,145.419c2.724,9.266-2.58,18.992-11.851,21.716c-9.266,2.724-18.987-2.58-21.712-11.851
							l-0.009-0.017c-14.925-51.002-22.337-105.564-15.231-159.811c3.459-27.038,10.762-53.744,21.651-78.923
							c10.946-25.162,25.599-48.684,43.135-69.662c35.216-41.959,81.119-73.838,131.985-93.315
							c12.756-4.85,25.88-8.877,39.427-11.82c13.714-2.921,28.022-4.57,42.304-4.325c28.608,0.398,57.229,8.142,82.046,22.027
							c24.874,13.845,46.367,32.999,63.128,55.541c16.766,22.534,29.461,48.286,35.439,76.715
							c2.829,14.234,3.988,28.451,3.162,43.087c-0.765,14.549-3.77,29.163-8.864,43c-10.093,27.9-29.185,51.487-51.26,69.229
							c-22.215,17.842-47.504,30.519-73.733,39.204c-26.325,8.532-53.753,13.106-81.657,13.158
							c-14.002-0.057-27.952-1.281-42.247-4.443c-14.457-3.293-27.843-8.715-40.301-15.188
							c-12.498-6.424-23.964-14.282-34.135-23.448c-5.103-4.561-9.818-9.52-14.234-14.733c-4.399-5.313-8.414-10.613-11.938-17.055
							c-2.396-4.386-0.783-9.883,3.599-12.279c2.768-1.513,5.974-1.43,8.567-0.061L1121.118,1969.032z"/>
					</g>
					<g>
						<path style="fill:#FFFFFF;" d="M1317.729,2014.658c0,0,0-0.044-0.044-0.092c-0.048-0.044-0.048-0.135-0.14-0.223
							c-0.498-1.233-2.641-5.794-6.109-11.859c-12.498-21.76-44.421-53.425-77.424-34.109
							c-24.226,14.182-27.572,42.182-24.471,64.803c2.143,0.547,4.286,1.006,6.477,1.417
							c93.411,17.509,251.678-41.552,230.924-176.743c-0.044-0.411-0.135-0.774-0.227-1.185
							c-13.491-4.46-47.967-10.136-61.65,17.002c-22.757,45.151,25.21,82.243,27.217,89.086
							c2.051,6.839-50.018-71.647-93.214-36.501c-25.149,20.461-16.661,56.796-7.631,76.23c2.873,6.293,5.383,10.626,6.109,11.859"
							/>
					</g>
					<g>
						<path style="fill:#371A45;" d="M1250.068,2053.969c-13.167,0.002-25.669-1.099-37.075-3.237
							c-2.539-0.474-5.024-1.008-7.512-1.643c-6.472-1.653-11.299-7.063-12.207-13.682c-5.017-36.599,6.809-66.196,32.441-81.204
							c13.916-8.14,29.358-10.298,44.673-6.223c5.706,1.519,11.15,3.818,16.279,6.685c1.855-15.386,8.396-30.046,22.039-41.147
							c12.673-10.31,30.635-17.417,54.082-9.309c-1.018-11.772,0.874-24.56,7.612-37.93c15.566-30.867,52.141-34.895,81.467-25.2
							c5.469,1.807,9.59,6.348,10.862,11.965c0.21,0.925,0.366,1.724,0.476,2.556c7.922,52.051-7.703,98.731-45.193,135.007
							C1372.737,2034.414,1305.566,2053.967,1250.068,2053.969z M1224.99,2019.438c21.699,3.11,47.983,1.975,74.512-3.909
							c-0.83-1.633-1.729-3.467-2.659-5.478c-7.131-12.119-20.947-26.624-34.897-30.335c-6.943-1.85-13.184-0.947-19.641,2.827
							C1228.269,1990.762,1224.978,2006.462,1224.99,2019.438z M1326.067,1994.995c2.456,4.336,4.458,8.262,5.708,10.942
							c22.986-8.686,44.79-21.235,62.424-37.991c-28.484-31.758-49.688-41.226-64.768-28.955
							C1309.46,1955.237,1323.352,1988.953,1326.067,1994.995z M1423.005,1869.297c-8.882,0-18.582,2.444-23.281,11.765
							c-11.467,22.754,1.721,42.839,16.335,60.078c12.793-21.069,18.096-44.866,15.818-71.118
							C1429.197,1869.604,1426.152,1869.297,1423.005,1869.297z M1430.62,1859.648c0,0.002,0,0.002,0,0.005
							C1430.62,1859.651,1430.62,1859.651,1430.62,1859.648z M1430.618,1859.626c0,0.005,0.002,0.012,0.002,0.017
							C1430.62,1859.639,1430.618,1859.631,1430.618,1859.626z M1430.615,1859.599c0,0.007,0.002,0.015,0.002,0.022
							C1430.618,1859.614,1430.615,1859.607,1430.615,1859.599z"/>
					</g>
					<g>
						<path style="fill:#EEF0F4;" d="M1381.524,2668.718c0.52-199.6,183.46-469.917,432.991-445.979
							c243.68,23.365,388.089,334.231,327.27,573.062c-37.096,145.669-234.077,273.661-455.14,222.218
							C1529.225,2981.386,1380.986,2876.115,1381.524,2668.718"/>
					</g>
					<g>
						<path style="fill:#371A45;" d="M1911.958,1977.639c-85.054,0-160.618-42.983-165.42-45.771
							c-7.844-4.551-10.513-14.597-5.962-22.441c4.548-7.837,14.587-10.515,22.429-5.969l0,0
							c1.604,0.93,161.687,91.665,263.052-0.603c6.702-6.108,17.085-5.62,23.193,1.089c6.106,6.704,5.618,17.09-1.089,23.193
							C2006.411,1965.144,1957.8,1977.639,1911.958,1977.639z"/>
					</g>
					<g>
						<path style="fill:#C2C6D2;" d="M1837.14,2234.913c-152.385,73.702-322.556-24.174-353.21-229.241c0-0.087,0-0.135-0.044-0.227
							c-3.42-22.621-5.06-46.612-4.832-71.791c1.05-112.884,60.203-272.607,167.249-342.169
							c193.072-125.382,377.931,16.009,411.861,142.629l-170.262,171.124c-26.408,20.115-40.774,54.05-48.256,79.273
							c-5.514,18.607-7.25,32.522-7.25,32.522C1944.186,2041.299,1923.935,2192.95,1837.14,2234.913"/>
					</g>
					<g>
						<path style="fill:#A8AFC1;" d="M1837.14,2234.913c-152.385,73.702-322.556-24.174-353.21-229.241
							c3.424,17.422,35.714,157.13,186.595,135.375c132.541-19.158,140.526-121.097,169.121-156.535
							c-5.514,18.607-7.25,32.522-7.25,32.522C1944.186,2041.299,1923.935,2192.95,1837.14,2234.913"/>
					</g>
					<g style="opacity:0.4;">
						<g>
							<g>
								<path style="fill:#FFFFFF;" d="M2058.166,1734.112l-0.547,0.547c-69.649-116.129-242.6-211.408-422.081-94.867
									c-61.296,39.816-108.183,106.863-139.017,179.336c24.904-88.802,75.941-179.66,149.783-227.64
									C1839.372,1466.105,2024.231,1607.497,2058.166,1734.112"/>
							</g>
						</g>
					</g>
					<g>
						<path style="fill:#371A45;" d="M1893.201,1912.192c-7.181,6.455-13.259,14.099-18.371,22.442
							c-5.09,8.361-9.249,17.37-12.69,26.697c-3.389,9.358-6.127,19-8.195,28.805c-1.041,4.893-1.924,9.822-2.654,14.75
							c-0.7,4.806-1.343,10.132-1.548,14.291v0.004l-13.644-19.263c20.177,4.351,40.616,13.591,56.569,28.862
							c16.093,15.104,26.544,35.478,31.048,56.145c4.609,20.767,3.839,41.906-0.538,61.891c-4.434,20.011-12.585,39.06-24.13,56.075
							c-11.532,16.971-26.658,31.962-44.858,42.724c-9.468,5.488-18.078,9.087-27.147,12.865
							c-9.061,3.629-18.353,6.726-27.786,9.349c-18.861,5.282-38.447,8.191-58.113,8.877c-19.683,0.586-39.453-1.273-58.703-5.475
							c-19.233-4.294-37.91-10.932-55.511-19.652c-17.553-8.803-34.096-19.539-49.126-32.015
							c-30.204-24.852-54.413-56.154-72.421-90.184c-18.052-34.083-30.078-70.93-36.842-108.393
							c-3.442-18.738-5.593-37.651-6.586-56.582c-0.573-9.459-0.722-18.926-0.735-28.381c0.026-9.529,0.402-19.176,1.159-28.661
							c2.987-38.054,10.722-75.241,22.101-111.262c11.4-36.003,26.43-70.925,45.558-103.819
							c19.132-32.845,42.724-63.631,71.595-89.729c7.176-6.551,14.824-12.647,22.683-18.485c3.953-2.882,8.064-5.606,12.1-8.374
							c4.089-2.523,8.073-5.2,12.258-7.592c16.517-9.861,33.934-18.432,52.109-25.333c36.309-13.792,75.893-20.317,115.009-17.815
							c39.147,2.326,77.45,13.521,111.848,31.442c17.234,8.93,33.51,19.587,48.505,31.765
							c15.122,12.043,28.748,25.844,41.019,40.677c12.122,14.973,22.823,31.105,31.328,48.392
							c8.501,17.247,15.039,35.587,18.126,54.601c0.783,4.793-2.471,9.306-7.263,10.084c-4.155,0.678-8.099-1.679-9.586-5.44
							l-0.044-0.118c-12.852-32.509-32.544-61.672-56.302-86.729c-23.654-25.158-51.492-46.209-81.923-61.834
							c-30.506-15.476-63.929-24.799-97.754-26.456c-33.847-1.876-67.821,4.29-99.717,16.403
							c-15.975,6.035-31.451,13.609-46.288,22.442c-3.752,2.13-7.347,4.552-11.033,6.813c-3.481,2.401-6.997,4.705-10.416,7.194
							c-6.791,5.051-13.456,10.324-19.762,16.075c-25.407,22.84-46.795,50.679-64.571,80.765
							c-17.767,30.13-32.006,62.595-42.842,96.118c-10.806,33.519-18.275,68.24-21.104,103.001
							c-4.723,69.412,6.078,141.79,38.299,202.871c16.101,30.436,37.511,57.977,63.767,79.567
							c13.067,10.849,27.357,20.094,42.427,27.663c15.117,7.482,31.083,13.149,47.486,16.823c16.42,3.577,33.261,5.165,50.075,4.666
							c16.81-0.599,33.598-3.066,49.9-7.64c8.147-2.265,16.202-4.946,24.091-8.099c7.775-3.214,16.014-6.791,22.328-10.504
							c13.272-7.836,24.777-19.093,33.738-32.281c17.881-26.291,26.05-60.68,19.442-90.709
							c-3.302-14.929-10.39-28.402-21.003-38.373c-10.526-10.08-24.484-16.674-39.891-20.033l-0.07-0.018
							c-8.881-1.937-14.68-10.399-13.569-19.245v-0.004c1.251-6.376,2.654-11.497,4.246-17.081c1.592-5.453,3.35-10.827,5.27-16.145
							c3.831-10.64,8.383-21.034,13.687-31.088c5.361-10.032,11.549-19.718,18.848-28.656c7.316-8.917,15.813-17.041,25.512-23.583
							c4.01-2.702,9.455-1.644,12.161,2.366c2.471,3.669,1.797,8.54-1.404,11.413L1893.201,1912.192z"/>
					</g>
					<g>
						<path style="fill:#371A45;" d="M1824.593,2124.213c-3.074-9.17-5.304-17.833-7.242-26.951
							c-1.889-9.043-3.297-18.231-4.22-27.559c-0.979-9.319-1.224-18.804-0.936-28.398c0.223-9.603,1.539-19.329,3.372-29.111
							c1.784-9.538,10.959-15.817,20.496-14.033c9.537,1.78,15.822,10.959,14.037,20.492c-0.171,0.914-0.411,1.793-0.708,2.646
							l-0.192,0.525c-2.632,7.298-5.073,14.886-6.586,22.879c-1.57,7.963-2.755,16.158-3.249,24.502
							c-0.555,8.331-0.678,16.792-0.328,25.267c0.35,8.401,1.168,17.168,2.427,25.123l0.074,0.472
							c0.756,4.775-2.501,9.258-7.277,10.014C1829.976,2130.76,1825.923,2128.197,1824.593,2124.213"/>
					</g>
					<g>
						<path style="fill:#371A45;" d="M2016.951,1979.866c5.488-9.774,10.451-20.619,13.001-31.061
							c2.777-10.513,3.284-20.89,1.684-30.926c-1.5-9.043-6.07-16.932-13.351-24.528c-7.237-7.412-16.998-14.186-26.754-20.19
							l-0.577-0.354c-3.135-1.933-4.111-6.035-2.182-9.166c1.342-2.187,3.756-3.323,6.148-3.157
							c7.281,0.52,13.618,2.265,20.208,4.644c6.433,2.51,12.787,5.737,18.629,10.115c5.882,4.312,11.195,9.927,15.458,16.478
							c4.439,6.446,6.966,14.479,8.265,22.097c2.156,14.641-0.039,29.797-5.825,42.724c-5.895,13.01-14.015,24.003-25.407,32.583
							c-2.912,2.191-7.045,1.609-9.24-1.303c-1.622-2.156-1.723-4.981-0.485-7.194L2016.951,1979.866z"/>
					</g>
					<g>
						<path style="fill:#371A45;" d="M1557.028,1663.863c7.592-3.153,14.365-5.366,21.607-7.617
							c7.137-2.208,14.352-4.045,21.581-5.786c14.505-3.319,29.216-5.711,44.058-7.01c29.631-2.532,60.037-0.914,88.995,7.425
							c14.44,4.146,28.525,9.682,41.71,16.928c13.106,7.369,25.407,16.062,36.563,26.019c22.101,20.155,39.409,44.731,52.55,70.877
							c1.627,3.236,0.324,7.181-2.917,8.807c-3.157,1.587-6.988,0.385-8.685-2.681l-0.031-0.061
							c-13.508-24.497-30.694-46.844-51.671-64.563c-10.587-8.733-22.088-16.202-34.197-22.429
							c-12.192-6.104-25.11-10.609-38.325-13.867c-26.474-6.555-54.321-7.01-81.569-3.625c-13.644,1.714-27.187,4.452-40.489,8.033
							c-6.629,1.872-13.237,3.822-19.705,6.1c-6.358,2.226-13.11,4.788-18.66,7.351l-0.28,0.131
							c-6.581,3.039-14.379,0.171-17.418-6.411c-3.044-6.581-0.171-14.378,6.411-17.417
							C1556.696,1664.003,1556.884,1663.924,1557.028,1663.863"/>
					</g>
					<g>
						<path style="fill:#371A45;" d="M1782.074,2113.118c-8.274,9.026-16.945,16.395-26.356,23.426
							c-9.349,6.97-19.281,13.18-29.693,18.55c-20.785,10.797-43.607,18.156-67.182,21.034c-5.882,0.844-11.816,1.106-17.754,1.469
							c-5.934,0-11.899,0.188-17.824-0.302c-5.96-0.201-11.842-1.05-17.759-1.749c-2.943-0.402-5.847-1.023-8.781-1.53
							c-2.93-0.521-5.86-1.045-8.72-1.819c-23.137-5.427-45.291-14.374-65.918-25.687c-6.354-3.485-8.681-11.462-5.199-17.816
							c3.485-6.358,11.461-8.685,17.82-5.199c0.171,0.096,0.385,0.219,0.551,0.319c18.345,11.256,37.949,20.26,58.432,26.142
							c2.536,0.831,5.13,1.417,7.723,2.003c2.593,0.577,5.173,1.277,7.784,1.762c5.239,0.857,10.473,1.907,15.773,2.322
							c5.278,0.713,10.596,0.779,15.913,1.058c5.318-0.083,10.653-0.039,15.961-0.551c21.275-1.548,42.331-7.163,61.987-16.193
							c9.844-4.482,19.35-9.8,28.368-15.865c8.951-5.982,17.82-12.922,25.136-20.168l0.297-0.289
							c2.576-2.545,6.721-2.523,9.266,0.048C1784.366,2106.577,1784.414,2110.56,1782.074,2113.118"/>
					</g>
					<g>
						<path style="fill:#371A45;" d="M1769.609,1951.553c-24.716,4.019-49.214,6.271-74,7.583
							c-24.747,1.242-49.585,1.233-74.454-0.061c-24.869-1.43-49.712-4.592-74.411-9.367c-24.655-5.143-48.986-12.603-72.618-22.635
							c-6.673-2.834-9.787-10.539-6.953-17.212c2.834-6.673,10.539-9.782,17.212-6.948c0.157,0.066,0.315,0.135,0.468,0.21
							l0.464,0.219c21.091,10.049,43.406,18.073,66.513,23.981c23.194,5.554,46.887,9.677,70.877,12.131
							c23.999,2.331,48.195,3.429,72.43,3.289c24.174-0.184,48.636-1.365,72.443-4.15l0.214-0.026
							c3.599-0.42,6.857,2.151,7.277,5.75C1775.482,1947.814,1773.046,1950.985,1769.609,1951.553"/>
					</g>
				</g>
			</g>
		</g>
	</g>
</g>
</svg>
