<?xml version="1.0" encoding="utf-8"?>
<!-- Generator: Adobe Illustrator 27.5.0, SVG Export Plug-In . SVG Version: 6.00 Build 0)  -->
<svg version="1.1" id="Layer_1" xmlns="http://www.w3.org/2000/svg" xmlns:xlink="http://www.w3.org/1999/xlink" x="0px" y="0px"
	 viewBox="0 0 4000 4000" style="enable-background:new 0 0 4000 4000;" xml:space="preserve">
<g>
	<g>
		<rect style="fill:#B3FFC7;" width="4000" height="4000"/>
	</g>
	<g>
		<g style="opacity:0.2;">
			<ellipse style="fill:#000072;" cx="2175.828" cy="3475.104" rx="855.62" ry="96.551"/>
		</g>
		<g>
			<g>
				<g>
					<path style="fill:#FFF1AB;" d="M2390.651,2077.505c0,0,181.85-29.692,215.822,8.135
						c33.972,37.827-70.586,187.703-70.586,187.703s154.517-28.228,172.502,8.867c17.985,37.095-69.287,183.641-69.287,183.641
						s137.231-8.66,167.206,19.317c29.975,27.977-31.974,205.83-31.974,205.83s113.906-71.94,153.873-65.946
						c39.967,5.995,61.949,133.889,61.949,133.889s-101.916,39.967-217.82,0S2402.641,2129.462,2390.651,2077.505z"/>
				</g>
				<g>
					<path style="fill:#000072;" d="M2880.456,2801.463c-34.668,0-74.517-4.805-116.172-19.17
						c-20.796-7.17-84.087-28.994-243.853-348.525c-77.271-154.541-146.602-319.294-153.848-350.708
						c-1.538-6.655-0.249-13.65,3.554-19.319c3.809-5.671,9.79-9.514,16.533-10.615c1.909-0.31,47.354-7.668,97.813-10.403
						c99.737-5.405,127.857,12.488,140.366,26.414c22.275,24.802,16.235,67.99-19.004,135.915
						c-6.709,12.93-13.765,25.374-20.381,36.501c9.033-0.935,18.672-1.765,28.467-2.346c67.939-4.016,103.931,5.915,116.685,32.224
						c16.679,34.407-16.343,109.492-48.184,168.23c48.545-0.259,115.542,3.938,140.728,27.448
						c14.497,13.53,26.113,40.427,2.393,137.339c-2.827,11.552-5.854,22.859-8.828,33.413c39.106-20.7,86.992-41.47,115.142-37.239
						c52.012,7.803,75.117,110.388,82.637,154.133c1.982,11.548-4.419,22.903-15.327,27.18
						C2996.193,2783.106,2948.224,2801.463,2880.456,2801.463z M2423.532,2097.698c20.82,54.947,75.127,182.051,141.089,313.975
						c139.878,279.753,200.513,318.657,215.767,323.916c76.875,26.504,147.993,14.695,181.182,6.235
						c-10.132-45.061-26.704-86.838-37.544-92.41c-19.092-2.126-85.679,30.396-136.504,62.471
						c-8.882,5.601-20.327,4.983-28.555-1.548c-8.218-6.531-11.411-17.544-7.964-27.461c27.48-78.94,44.678-162.209,37.441-180.479
						c-14.321-10.478-82.046-16.025-147.788-11.895c-9.126,0.569-17.856-3.962-22.632-11.78c-4.775-7.818-4.829-17.637-0.146-25.51
						c39.78-66.833,70.938-139.792,68.32-159.363c-14.775-9.39-82.744-7.739-145.874,3.792c-9.839,1.802-19.8-2.522-25.215-10.942
						c-5.415-8.42-5.21-19.275,0.513-27.485c0.24-0.339,23.838-34.307,44.224-72.817c35.366-66.812,28.062-84.458,27.974-84.617
						C2576.457,2089.178,2502.028,2087.706,2423.532,2097.698z"/>
				</g>
			</g>
			<g>
				<g>
					<path style="fill:#FFF1AB;" d="M2116.877,671.708c0,0,65.672-64.409,144.809-122.948c34.009-25.157,82.37-10.732,96.962,28.975
						c11.532,31.381,24.032,73.639,34.085,127.945c0,0,61.339-27.563,126.561-42.016c32.379-7.175,64.846,11.43,74.416,43.184
						c9.743,32.33,19.62,83.052,23.096,160.376c0,0,51.911-7.01,130.247,6.945c27.556,4.909,48.506,27.485,51.526,55.311
						c4.409,40.615,4.064,101.802-24.351,156.942c0,0,84.332,57.771,137.505,109.025c17.643,17.006,23.886,42.713,15.754,65.829
						c-11.258,32-32.566,77.853-69.286,109.863c0,0,83.993,118.56,95.983,162.191c11.99,43.631-131.639,115.105-131.639,115.105
						L2116.877,671.708z"/>
				</g>
				<g>
					<path style="fill:#000072;" d="M2822.56,1673.141c-7.725,0-15.259-3.623-20.039-10.239l-705.669-976.729
						c-7.153-9.902-5.996-23.547,2.729-32.102c2.729-2.678,67.813-66.287,147.412-125.168c22.544-16.672,50.811-21.648,77.578-13.63
						c26.733,8,47.603,27.664,57.261,53.94c11.387,30.994,21.177,65.269,29.209,102.217c24.8-9.617,62.939-23.027,102.91-31.882
						c44.839-9.932,90.249,16.499,103.408,60.176c11.323,37.564,18.945,84.981,22.715,141.211
						c24.023-0.681,62.891,0.291,111.309,8.916c38.062,6.78,67.568,38.43,71.753,76.963c4.331,39.866,4.209,96.626-17.9,151.201
						c27.817,19.866,83.687,61.135,123.643,99.648c24.595,23.708,33.193,59.746,21.909,91.814
						c-10.698,30.413-29.468,71.35-60.356,104.722c24.731,35.981,77.29,115.171,87.573,152.588
						c10.918,39.739-35.454,76.621-71.284,100.906c-35.371,23.977-71.641,42.1-73.169,42.859
						C2830.036,1672.301,2826.276,1673.141,2822.56,1673.141z M2149.552,674.754l680.513,941.909
						c52.148-28.377,97.329-63.008,100.059-77.642c-8.682-29.456-60.884-109.568-92.08-153.604
						c-7.329-10.349-5.635-24.568,3.926-32.9c32.471-28.301,51.753-69.697,62.217-99.439c4.883-13.882,1.118-29.521-9.595-39.846
						c-51.035-49.197-133.496-105.867-134.321-106.433c-10.274-7.038-13.701-20.625-7.998-31.694
						c25.444-49.377,25.874-104.995,21.753-142.959c-1.831-16.86-14.707-30.703-31.304-33.66
						c-73.003-13.005-122.178-6.841-122.666-6.775c-6.841,0.898-13.804-1.121-19.102-5.566c-5.298-4.443-8.516-10.903-8.828-17.813
						c-2.847-63.281-10.269-115.215-22.07-154.358c-5.835-19.382-25.386-30.635-45.415-26.196
						c-62.036,13.748-121.196,40.166-121.782,40.432c-6.929,3.101-14.878,2.864-21.592-0.652
						c-6.719-3.521-11.445-9.929-12.822-17.383c-8.457-45.681-19.556-87.373-32.983-123.923
						c-4.238-11.533-13.369-20.154-25.059-23.652c-11.714-3.516-24.116-1.316-34.028,6.018
						C2221.818,608.975,2173.283,652.652,2149.552,674.754z"/>
				</g>
			</g>
			<g>
				<g>
					<path style="fill:#3BEDA1;" d="M1658.512,2445.163c-264.784,143.112-441.8-75.846-441.8-75.846
						c-61.989,41.709-81.76-43.611-81.76-43.611s-24.331,31.773-55.906,33.765c-31.575,1.993-36.391-55.009-36.391-55.009
						s-22.204,34.565-47.132,33.7c-24.927-0.866-79.846-104.085-9.394-222.288c70.452-118.203,164.761-121.106,265.334-96.239
						c100.573,24.867,416.052,108.84,416.052,108.84s45.448,57.485,44.946,130.673
						C1711.958,2332.335,1658.512,2445.163,1658.512,2445.163z"/>
				</g>
				<g>
					<path style="fill:#1AB78D;" d="M1327.976,2192.37c0,0-14.845,285.858,327.009,246.654c0,0-89.287,66.515-216.455,46.761
						c-127.167-19.755-208.587-114.679-208.587-114.679S1302.785,2265.842,1327.976,2192.37z"/>
				</g>
				<g style="opacity:0.35;">
					<path style="fill:#FFFFFF;" d="M966.234,2188.263c0,0,72.698-136.224,208.936-125.264
						c136.238,10.96,489.317,74.069,489.317,74.069s-336.466-109.058-432.195-121.819S1030.151,2018.757,966.234,2188.263z"/>
				</g>
				<g>
					<path style="fill:#000072;" d="M1203.792,2350.278c56.793-40.113,91.898-104.829,115.9-168.854
						c2.005-5.103,7.768-7.613,12.87-5.607c4.727,1.859,7.228,6.942,5.975,11.737c-4.539,18.153-9.292,36.311-15.65,53.971
						c-18.591,52.12-45.701,102.703-86.469,141.121c-4.463,4.485-21.502,16.417-26.757,20.445
						c-13.646,10.067-32.867,7.166-42.935-6.479C1148.114,2371.283,1175.527,2337.77,1203.792,2350.278L1203.792,2350.278z"/>
				</g>
				<g>
					<path style="fill:#000072;" d="M1665.219,2137.104c-87.109-10.144-170.238-35.068-254.611-55.392
						c-23.868-6.135-136.632-34.114-157.795-39.529c-65.84-17.153-142.552-22.687-196.805,24.758
						c-43.29,38.42-74.965,94.634-80.181,152.901c-2.08,32.671,2.095,69.847,23.863,94.955c1.842,1.613,0.724,0.509-0.226,0.398
						c0,0-0.28-0.04-0.28-0.04l-0.574-0.182c-0.778-0.186-1.601-0.278-2.258-0.231c0.169-0.066,0.287-0.111,0.461-0.079
						c0.314,0.145,0.952-0.232,1.415-0.157c9.864-3.409,18.748-13.799,25.067-22.48c-0.001-0.009,42.305,10.519,42.286,10.49
						c1.141,10.642,4.925,27.412,11.815,33.983c15.995-1.536,29.628-13.443,39.84-25.431c8.294-9.744,22.917-10.919,32.661-2.625
						c7.25,5.755,7.499,14.413,10.876,22.4c9.69,22.494,19.466,35.989,43.36,19.218c13.089-7.935,26.378-1.912,34.668,9.509
						c24.286,26.089,52.667,48.452,83.08,66.986c48.97,29.615,105.021,46.912,162.217,47.509
						c59.176,1.343,113.838-17.224,170.558-36.187c4.375-1.478,9.12,0.872,10.598,5.247c1.171,3.469-0.076,7.177-2.818,9.299
						c-33.127,25.533-72.677,42.664-114.206,52.173c-41.554,9.442-85.422,11.407-128.106,4.48
						c-85.5-14.159-164.686-60.08-221.306-125.293c0-0.001,30.738,4.624,30.738,4.624c-38.828,27.383-82.203,17.016-104.298-25.108
						c-5.782-10.698-9.686-20.54-12.722-32.398c0,0,40.682,8.795,40.682,8.795c-1.614,2.053-2.571,3.145-3.823,4.573
						c-56.565,60.582-120.632,50.113-129.668-37.869c-0.001,0,42.285,10.499,42.285,10.499c-1.274,1.959-2.067,3.062-3.083,4.489
						c-15.426,20.969-38.52,42.417-67.103,39.893c-32.208-5.294-49.01-45.377-56.79-72.633
						c-19.348-71.855,2.236-145.757,43.707-204.311c42.194-62.309,106.33-100.962,182.769-99.65
						c47.411,0.23,92.004,12.992,133.069,24.382l125.789,34.307c83.644,23.63,168.533,42.66,249.441,76.469
						C1679.097,2123.999,1675.821,2138.221,1665.219,2137.104L1665.219,2137.104z"/>
				</g>
			</g>
			<g>
				<g>
					<path style="fill:#3BEDA1;" d="M3087.924,2757.182c-7.01,9.976-14.109,19.591-21.568,28.848
						c-245.159,310.313-698.452,275.894-894.722,243.452c-8.987-1.528-17.434-2.966-25.253-4.404
						c-40.44-7.458-65.514-13.929-69.108-14.828l-0.36-0.09l19.052,36.396l11.773,22.467c86.722,61.38,71.714,98.585,21.119,195.822
						c-50.686,97.326-55.897,187.913-89.328,199.865c-33.251,11.952-66.592-37.295-66.592-37.295s-14.559,45.293-39.901,61.38
						c-25.253,15.906-75.938-52.034-75.938-52.034c-22.647,89.239-91.934,9.346-77.286-77.286
						c14.738-86.633,54.46-119.884,54.46-119.884s-253.157-70.456-379.96-318.131c-31.634-61.739-55.448-134.532-65.513-219.906
						c0-0.269-0.09-0.719-0.09-0.989c-1.348-11.233-2.427-22.736-3.235-34.509c-1.079-15.098-1.708-30.016-2.068-44.574
						c-6.65-283.892,116.469-471.446,186.745-554.843c0.179-0.09,0.269-0.18,0.269-0.18c27.589-32.802,46.911-49.427,46.911-49.427
						l817.975-17.794c0,0,151.876,333.049,269.154,548.013c81.51,149.54,254.685,161.133,352.551,154.302
						c18.153-1.258,32.082,10.874,36.126,26.062C3095.743,2737.142,3094.395,2747.836,3087.924,2757.182z"/>
				</g>
				<g>
					<path style="fill:#1AB78D;" d="M1827.851,3246.799c0,0-40.62,117.535,6.347,127.228
						c46.968,9.694,129.363,13.329,194.795-92.089c65.432-105.418,82.725-142.317,66.973-160.492
						c-15.752-18.175-64.549-24.898-64.549-24.898S1896.917,3178.944,1827.851,3246.799z"/>
				</g>
				<g>
					<path style="fill:#FFF1AB;" d="M3087.924,2757.182c-7.01,9.976-14.109,19.591-21.568,28.848
						c-2.606,3.325-5.302,6.65-7.999,9.885c-2.157,2.607-4.313,5.213-6.47,7.729c-3.236,3.864-6.561,7.638-9.886,11.323
						c-2.786,3.146-5.572,6.201-8.448,9.257c-2.786,2.966-5.662,6.021-8.448,8.897c-2.876,2.966-5.751,5.931-8.717,8.807
						c-6.291,6.201-12.761,12.313-19.232,18.243c-5.482,4.943-10.964,9.796-16.535,14.469c-3.056,2.606-6.111,5.123-9.257,7.639
						c-3.056,2.516-6.201,4.943-9.346,7.459c-21.928,17.075-44.665,32.443-68.03,46.282c-3.415,1.977-6.74,3.954-10.065,5.842
						c-23.635,13.39-47.81,25.342-72.433,35.767c-3.505,1.528-7.01,2.966-10.515,4.403c-11.323,4.673-22.736,8.987-34.15,13.031
						c-2.876,0.988-5.752,1.977-8.627,2.966c-3.595,1.258-7.19,2.426-10.784,3.594c-3.595,1.258-7.189,2.337-10.784,3.505
						c-6.56,2.067-13.121,3.954-19.681,5.842c-2.337,0.719-4.583,1.348-6.92,1.977c-27.949,7.729-56.077,14.019-84.116,19.142
						c-6.65,1.168-13.3,2.337-19.95,3.325c-4.673,0.809-9.437,1.528-14.109,2.157c-3.775,0.629-7.549,1.168-11.323,1.618
						c-20.4,2.786-40.71,4.943-60.841,6.561c-3.505,0.269-7.099,0.539-10.604,0.809c-3.505,0.27-7.01,0.539-10.604,0.719
						c-3.505,0.269-7.01,0.449-10.514,0.629c-3.505,0.179-7.01,0.359-10.425,0.539c-3.505,0.179-7.009,0.359-10.424,0.449
						c-3.505,0.18-6.92,0.27-10.335,0.359c-113.593,3.505-215.502-8.268-285.15-19.77c0-0.09,0-0.09,0-0.09l-94.361-19.142
						l-0.36-0.09c0,0-626.916,116.648-688.116-308.606c0-0.269-0.09-0.719-0.09-0.989c-4.134-29.297-6.83-57.605-8.178-84.835
						c-18.063-355.516,181.263-541.452,189.621-549.091c0.179-0.09,0.269-0.18,0.269-0.18l416.267,62.817
						c0,0-72.164,223.052,28.129,452.034c28.668,65.424,71.445,131.297,133.992,192.587
						c127.882,125.276,315.975,145.406,494.812,119.344c185.756-27.229,361.448-104.336,449.518-165.626
						C3095.743,2737.142,3094.395,2747.836,3087.924,2757.182z"/>
				</g>
				<g>
					<path style="fill:#1AB78D;" d="M2643.619,2893.242c-178.837,26.062-366.929,5.932-494.812-119.344
						c-62.548-61.29-105.325-127.163-133.992-192.587c13.211-14.289,20.31-23.186,20.31-23.186S2304.279,2853.79,2643.619,2893.242z
						"/>
				</g>
				<g>
					<path style="fill:#1AB78D;" d="M2095.965,3046.556c-131.387,51.045-485.106,155.292-641.655-125.096
						c-41.069-73.602-68.659-173.714-74.95-308.336c0,0,0.36,0.898,1.168,2.606c1.348,27.23,4.044,55.538,8.178,84.835
						c0,0.27,0.09,0.719,0.09,0.989c61.2,425.254,688.116,308.606,688.116,308.606L2095.965,3046.556z"/>
				</g>
				<g>
					<path style="fill:#FFD085;" d="M3066.356,2786.03c-2.606,3.325-5.302,6.65-7.999,9.885c-2.157,2.607-4.313,5.213-6.47,7.729
						c-3.236,3.864-6.561,7.638-9.886,11.323c-2.786,3.146-5.572,6.201-8.448,9.257c-2.786,2.966-5.662,6.021-8.448,8.897
						c-2.876,2.966-5.751,5.931-8.717,8.807c-6.291,6.201-12.761,12.313-19.232,18.243c-5.482,4.943-10.964,9.796-16.535,14.469
						c-3.056,2.606-6.111,5.123-9.257,7.639c-3.056,2.516-6.201,4.943-9.346,7.459c-21.928,17.075-44.665,32.443-68.03,46.282
						c-3.415,1.977-6.74,3.954-10.065,5.842c-23.635,13.39-47.81,25.342-72.433,35.767c-3.505,1.528-7.01,2.966-10.515,4.403
						c-11.323,4.673-22.736,8.987-34.15,13.031c-2.876,0.988-5.752,1.977-8.627,2.966c-3.595,1.258-7.19,2.426-10.784,3.594
						c-3.595,1.258-7.189,2.337-10.784,3.505c-6.56,2.067-13.121,3.954-19.681,5.842c-2.337,0.719-4.583,1.348-6.92,1.977
						c-27.949,7.729-56.077,14.019-84.116,19.142c-6.65,1.168-13.3,2.337-19.95,3.325c-4.673,0.809-9.437,1.528-14.109,2.157
						c-3.775,0.629-7.549,1.168-11.323,1.618c-20.4,2.786-40.71,4.943-60.841,6.561c-3.505,0.269-7.099,0.539-10.604,0.809
						c-3.505,0.27-7.01,0.539-10.604,0.719c-3.505,0.269-7.01,0.449-10.514,0.629c-3.505,0.179-7.01,0.359-10.425,0.539
						c-3.505,0.179-7.009,0.359-10.424,0.449c-3.505,0.18-6.92,0.27-10.335,0.359c-113.593,3.505-215.502-8.268-285.15-19.77
						c-8.987-1.528-17.434-2.966-25.253-4.404c-40.44-7.458-65.514-13.929-69.108-14.828l-0.36-0.09
						c0,0-626.916,116.648-688.116-308.606c0-0.269-0.09-0.719-0.09-0.989c-4.134-29.297-6.83-57.605-8.178-84.835
						c0.629,1.348,1.618,3.325,2.876,5.752c17.794,34.24,96.428,161.582,275.894,155.201
						c164.728-5.752,304.921-140.284,355.516-195.373c28.668,65.424,71.445,131.297,133.992,192.587
						c127.882,125.276,315.975,145.406,494.812,119.344C2777.701,2908.879,2922.658,2884.435,3066.356,2786.03z"/>
				</g>
				<g>
					<path style="fill:#000072;" d="M1837.219,3215.071c51.671,8.922,105.427-4.73,154.102-22.643
						c7.195-2.551,12.121,7.521,5.639,11.604c-49.514,31.85-105.745,58.519-165.784,60.072c0-0.001-19.162-0.943-19.162-0.943
						c-16.502-0.811-29.222-14.847-28.411-31.35C1784.863,3204.061,1820.695,3193.265,1837.219,3215.071L1837.219,3215.071z"/>
				</g>
				<g>
					<path style="fill:#000072;" d="M1924.547,3515.946c-21.606,0.005-43.789-16.484-61.343-34.128
						c-17.149,21.267-38.188,19.38-46.025,17.737c-42.734-9.023-72.729-79.094-61.714-144.187
						c8.257-48.804,23.872-82.405,37.529-103.887c-40.879-15.813-112.607-48.818-186.557-107.727
						c-102.578-81.717-228.457-230.625-245.601-475.972c-15.752-225.503,50.015-395.078,107.964-497.627
						c63.096-111.653,129.707-169.431,132.51-171.836c4.336-3.718,9.829-5.82,15.542-5.945l817.891-17.791
						c9.961-0.212,18.916,5.466,23.013,14.446c1.514,3.323,152.861,334.731,268.32,546.399
						c75.166,137.798,238.472,147.754,329.136,141.443c23.115-1.599,44.614,9.939,56.04,30.146
						c11.553,20.437,10.347,45.085-3.145,64.331c-130.913,186.76-352.437,291.279-640.615,302.253
						c-147.339,5.615-275.43-14.072-344.004-27.693l3.398,6.509c97.178,70.913,74.839,126.023,23.892,223.889
						c-21.69,41.665-35.01,83.027-45.713,116.262c-15.825,49.155-27.266,84.67-57.09,95.408
						c-26.528,9.546-50.523-2.334-67.866-16.58c-8.203,14.165-19.482,29.102-33.892,38.203
						C1939.201,3514.031,1931.906,3515.946,1924.547,3515.946z M1857.092,3412.056c7.71,0,15.093,3.614,19.809,9.944
						c14.902,19.937,35.889,39.92,45.65,43.841c11.225-9.341,22.305-31.856,26.958-46.055c2.934-8.96,10.723-15.491,20.063-16.794
						c9.351-1.313,18.613,2.8,23.892,10.61c9.268,13.533,28.604,31.199,37.774,27.891c7.549-4.272,18.677-38.833,26.807-64.067
						c11.27-35.002,25.303-78.567,48.916-123.931c49.556-95.205,56.67-114.697-13.496-164.258c-3.203-2.263-5.82-5.257-7.636-8.731
						l-30.806-58.923c-4.541-8.684-3.516-19.226,2.607-26.877c6.118-7.644,16.172-10.964,25.654-8.433
						c1.738,0.461,175.371,46.045,383.579,37.913c275.405-10.762,477.544-105.369,600.791-281.196
						c3.589-5.117,1.611-9.858,0.591-11.66c-1.182-2.1-3.945-5.53-9.595-5.176c-102.456,7.16-287.573-5.059-375.942-167.068
						c-102.285-187.512-232.222-467.644-263.11-534.758l-792.334,17.236c-17.422,16.66-68.462,69.189-116.524,154.805
						c-54.087,96.343-115.444,255.735-100.615,467.971c12.705,181.895,88.608,329.785,225.591,439.57
						c103.096,82.622,204.121,111.604,205.127,111.887c8.823,2.476,15.561,9.634,17.49,18.589
						c1.924,8.955-1.245,18.245-8.267,24.131c-0.098,0.093-33.188,30.054-45.889,105.093c-7.495,44.285,11.382,79.08,21.167,86.409
						c1.831-2.52,4.956-8.096,7.803-19.333c2.344-9.236,9.79-16.299,19.136-18.154
						C1853.888,3412.21,1855.495,3412.056,1857.092,3412.056z"/>
				</g>
			</g>
			<g>
				<g>
					<path style="fill:#3BEDA1;" d="M2578.465,2799.959c0,0-1.708,5.662-5.122,15.637c-19.861,56.707-98.136,251.36-254.595,304.112
						c-183.869,61.919-279.129-42.687-279.129-42.687c-12.042,70.636-65.334,126.623-119.884,138.576
						c-54.639,12.042-94.63-34.599-94.63-34.599c-46.911-67.581-90.767-119.974-126.803-164.637
						c-31.454-39.092-56.886-72.253-73.063-104.516c-34.599-69.288,55.987-62.638,55.987-62.638
						c-34.599-113.233,93.283-50.595,93.283-50.595c-25.343-125.186,82.588-58.594,82.588-58.594s37.924-153.853,211.818-187.823
						c173.894-33.97,279.758,119.884,279.758,119.884C2460.558,2780.009,2578.465,2799.959,2578.465,2799.959z"/>
				</g>
				<g>
					<path style="fill:#1AB78D;" d="M2573.342,2815.596c-19.861,56.707-98.136,251.36-254.595,304.112
						c-183.869,61.919-279.129-42.687-279.129-42.687c-12.042,70.636-65.334,126.623-119.884,138.576
						c-54.639,12.042-94.63-34.599-94.63-34.599c-46.911-67.581-90.767-119.974-126.803-164.637
						c2.067-6.92,3.235-10.964,3.235-10.964s-39.901-66.951-46.911-86.992c-5.942-16.913,14.08-30.597,46.87-25.501
						c9.313,1.447,17.65-6.183,17.392-15.604c-0.358-13.015,0.486-28.118,5.925-31.597c6.33-4.013,35.625,2.781,56.494,8.375
						c9.822,2.633,19.63-4.808,19.382-14.973c-0.423-17.35,3.082-39.144,23.248-39.684c33.61-0.989,127.162,220.805,138.126,230.78
						c10.874,9.976,50.236-8.717,23.276-79.353c-26.96-70.546,118.715-120.782,238.958-68.39
						C2341.304,2933.323,2423.532,2996.5,2573.342,2815.596z"/>
				</g>
				<g style="opacity:0.35;">
					<path style="fill:#FFFFFF;" d="M1901.055,2776.706c0,0,172.578-322.366,435.007-120.614c0,0-48.978-103.596-245.273-103.596
						c-196.295,0-220.529,187.504-220.529,187.504L1901.055,2776.706z"/>
				</g>
				<g>
					<path style="fill:#000072;" d="M2016.657,3067.918c24.625-51.675,61.862-97.513,107.728-131.632
						c0.001,0,11.612-8.022,11.612-8.022c11.923-7.291,24.668-13.885,37.731-18.81c4.101-1.661,7.562,3.87,4.199,6.806
						c-25.432,25.022-48.844,50.356-68.277,79.902c-18.877,28.207-35.018,58.803-47.199,90.318
						C2049.687,3117.852,2003.977,3099.442,2016.657,3067.918L2016.657,3067.918z"/>
				</g>
				<g>
					<path style="fill:#000072;" d="M1875.783,2723.851c50.61,72.166,88.697,152.353,118.389,235.031
						c1.989,5.455-6.078,9.163-8.807,3.871c-30.394-56.358-65.606-110.195-105.829-159.896
						c-12.974-15.987-26.779-32.201-41.136-46.707C1814.291,2730.223,1853.527,2696.177,1875.783,2723.851L1875.783,2723.851z"/>
				</g>
				<g>
					<path style="fill:#000072;" d="M2342.628,2676.226c-51.019-51.803-114.467-98.162-187.984-107.693
						c-121.816-14.346-239.23,60.852-274.088,178.953c-4.749,15.01-23.068,21.744-36.44,13.534
						c-12.319-6.719-31.618-16.64-45.1-13.11c-0.136,0.171-0.698,0.47-1.705,2.965c-3.835,12.884-1.285,27.933,1.394,42.85
						c2.638,13.422-6.105,26.441-19.527,29.079c-8.753,1.978-15.35-2.017-23.119-5.336c-12.668-5.185-26.739-9.787-40.036-11.117
						c-6.244-0.372-10.605-0.654-14.489,1.428c-0.142-0.06-0.043,0.086-0.088,0.083c-0.078,0.062-0.265,0.326-0.54,1.185
						c-0.242,0.205-0.243,1.027-0.397,1.614l-0.253,0.935l-0.057,1.322c-0.759,6.999,1.298,18.273,4.66,29.099
						c4.034,12.989-3.225,26.789-16.214,30.823c-6.592,2.085-12.967,0.407-19.862,1.124c-7.698,0.148-21.373,3.058-25.216,6.638
						c-0.988,0.847-1.044,1.086-1.164,1.351c-0.101,0.261-0.305,1.098-0.226,2.882c0.111,3.618,2.087,10.004,5.565,16.651
						c7.488,14.985,17.114,29.687,27.408,44.232c32.191,44.763,68.63,86.384,102.891,130.424
						c23.222,29.509,45.833,59.726,67.364,90.733l-1.531-1.982c6.555,6.922,14.42,13.08,22.67,17.767
						c26.251,16.185,55.398,11.055,80.425-4.958c35.798-22.754,61.037-62.848,68.286-104.782
						c3.586-19.263,29.342-26.544,42.616-12.498c1.47,1.552,4.51,4.267,6.104,5.674c55.232,46.844,133.779,58.303,203.534,44.052
						c5.269-1.004,15.459-2.713,20.745-4.581c19.462-5.222,41.419-11.646,59.192-21.207c57.33-28.72,102.359-76.832,139.305-131.025
						c32.697-48.525,60.052-101.963,82.262-156.558c2.093-5.139,7.956-7.609,13.095-5.516c4.62,1.881,7.081,6.812,6.01,11.523
						c-1.768,7.814-3.753,15.091-5.979,22.492c-10.912,36.873-25.584,72.538-43.146,106.769
						c-47.056,89.536-117.71,175.602-216.542,209.226c-13.567,4.191-32.216,10.248-45.973,12.688
						c-7.371,1.319-16.304,3.869-23.587,4.556c-78.762,12.273-165.645-4.993-226.112-59.47c0,0-2.53-2.42-2.53-2.42
						c-0.702-0.611-2.231-2.252-2.903-2.937c0,0,42.614-12.498,42.614-12.498c-2.64,13.935-6.201,27.706-11.456,40.847
						c-37.228,95.771-150.094,165.403-237.532,83.718c-3.578-3.361-6.922-6.42-10.141-10.693
						c-42.024-60.979-88.76-117.244-135.418-175.273c-23.982-30.443-47.741-60.711-65.792-96.073
						c-8.393-15.793-15.638-40.603-6.847-60.704c14.598-33.438,54.107-39.784,86.272-38.405c0,0-25.432,31.861-25.432,31.861
						c-10.718-33.018-13.671-79.776,27.775-95.558c30.777-10.314,61.299,0.036,89.57,10.912c3.453,1.444,6.469,2.733,10.395,4.61
						l-35.073,27.08c-4.008-22.013-7.641-46.465,0.757-69.945c11.797-33.544,47.572-41.601,77.59-32.441
						c15.292,4.257,27.853,9.891,41.438,17.854c0,0-36.957,15.102-36.957,15.102c0.679-2.559,1.148-4.144,1.739-6.017
						c53.069-164.759,248.685-250.184,403.345-169.1c24.103,12.445,46.578,27.938,66.326,46.409
						c19.723,18.49,36.998,38.675,50.224,62.513c1.953,3.581,0.634,8.068-2.948,10.021
						C2348.65,2679.63,2344.871,2678.794,2342.628,2676.226L2342.628,2676.226z"/>
				</g>
			</g>
			<g>
				<g>
					<path style="fill:#3BEDA1;" d="M2156.844,2125.841c-737.391,36.636-1015.161-213.157-1039.142-480.881
						c-23.98-267.724,137.22-362.422,137.22-362.422s70.608-659.916,778.024-659.916c767.366,0,1191.016,1039.083,407.663,1440.345
						C2440.609,2062.966,2310.563,2118.203,2156.844,2125.841z"/>
				</g>
				<g>
					
						<ellipse transform="matrix(0.134 -0.991 0.991 0.134 -428.0046 2622.8613)" style="fill:#FF8383;" cx="1286.653" cy="1556.311" rx="123.367" ry="168.662"/>
				</g>
				<g>
					<path style="fill:#FF8383;" d="M2641.012,1762.976c-10.065,74.95-99.933,125.545-205.617,118.985
						c-7.189-0.45-14.469-1.168-21.838-2.157c-114.851-15.547-199.146-93.013-188.273-172.995
						c10.784-80.072,112.604-132.375,227.455-116.828c81.151,10.964,147.024,52.753,174.883,104.606
						C2639.215,1716.156,2644.247,1739.431,2641.012,1762.976z"/>
				</g>
				<g>
					<path style="fill:#1AB78D;" d="M2440.607,2062.955c0,0-130.039,55.269-283.802,62.907
						c-619.637,30.735-914.672-140.732-1007.326-355.156c137.767,151.697,419.502,256.482,908.471,232.218
						c149.989-7.459,276.882-61.379,276.882-61.379c36.127-18.513,69.647-38.374,100.562-59.582
						c105.685,6.56,195.552-44.035,205.617-118.985c3.235-23.545-1.797-46.821-13.39-68.389
						c203.101-292.609,120.512-679.848-125.456-924.109C2932.094,1071.985,3041.552,1755.158,2440.607,2062.955z"/>
				</g>
				<g>
					<path style="fill:#F95555;" d="M2641.012,1762.976c-10.065,74.95-99.933,125.545-205.617,118.985
						c80.881-55.089,144.417-118.625,192.227-187.374C2639.215,1716.156,2644.247,1739.431,2641.012,1762.976z"/>
				</g>
				<g style="opacity:0.6;">
					<path style="fill:#FFFFFF;" d="M1303.699,1259.204c0,0,82.046-416.52,458.72-542.431
						c413.24-138.134,728.231,102.994,728.231,102.994S1698.015,453.015,1303.699,1259.204z"/>
				</g>
				<g>
					<g>
						
							<ellipse transform="matrix(0.134 -0.991 0.991 0.134 -37.1311 2715.7749)" style="fill:#000072;" cx="1535.251" cy="1379.132" rx="154.562" ry="116.637"/>
					</g>
					<g style="opacity:0.35;">
						
							<ellipse transform="matrix(0.9069 -0.4213 0.4213 0.9069 -469.6988 762.1564)" style="fill:#FFFFFF;" cx="1489.894" cy="1443.996" rx="24.714" ry="39.035"/>
					</g>
					<g>
						<g>
							<path style="fill:#3BEDA1;" d="M1444.432,1223.919l214.911,147.219c0,0,6.906-127.902-59.04-158.877
								C1534.358,1181.287,1444.432,1223.919,1444.432,1223.919z"/>
						</g>
						<g>
							<path style="fill:#000072;" d="M1650.095,1384.639c-73.54-46.254-145.968-94.797-212.055-151.388
								c-9.863-8.819,1.047-24.696,12.786-18.664c76.642,41.181,148.071,91.184,217.767,143.049
								C1684.657,1370.436,1667.839,1394.959,1650.095,1384.639L1650.095,1384.639z"/>
						</g>
						<g>
							
								<ellipse transform="matrix(0.134 -0.991 0.991 0.134 -15.1884 2758.0684)" style="fill:#FFFFFF;" cx="1570.421" cy="1387.724" rx="49.995" ry="37.727"/>
						</g>
					</g>
					<g>
						
							<ellipse transform="matrix(0.1084 -0.9941 0.9941 0.1084 488.6017 3457.3481)" style="fill:#000072;" cx="2171.652" cy="1456.296" rx="161.181" ry="121.632"/>
					</g>
					<g style="opacity:0.35;">
						
							<ellipse transform="matrix(0.6271 -0.7789 0.7789 0.6271 -373.5371 2286.3528)" style="fill:#FFFFFF;" cx="2201.29" cy="1533.33" rx="40.706" ry="25.772"/>
					</g>
					<g>
						<g>
							<path style="fill:#3BEDA1;" d="M2302.517,1321.974l-254.465,95.099c0,0,25.097-131.194,99.617-146.002
								C2222.19,1256.263,2302.517,1321.974,2302.517,1321.974z"/>
						</g>
						<g>
							<path style="fill:#000072;" d="M2042.078,1401.088c83.538-35.057,168.413-67.678,256.309-90.164
								c6.391-1.506,12.795,2.453,14.302,8.844c1.271,5.391-1.357,10.792-6.043,13.255c-20.201,10.612-40.903,19.885-61.69,28.927
								c-62.621,26.367-126.19,50.446-190.929,71.109C2033.556,1438.999,2022.721,1410.006,2042.078,1401.088L2042.078,1401.088z"/>
						</g>
						<g>
							
								<ellipse transform="matrix(0.1084 -0.9941 0.9941 0.1084 463.3716 3415.2905)" style="fill:#FFFFFF;" cx="2135.593" cy="1449.332" rx="52.135" ry="39.343"/>
						</g>
					</g>
					<g>
						<g>
							<path style="fill:#000072;" d="M1695.225,1552.98c0,0,107.911,62.948,235.805,4.996c0,0,7.327,293.424-156.537,273.441
								C1632.376,1814.086,1695.225,1552.98,1695.225,1552.98z"/>
						</g>
						<g>
							<g>
								<path style="fill:#FFFFFF;" d="M1703.219,1556.311c0,0-10.658,80.877,21.316,91.084
									c31.974,10.208,52.623-58.106,52.623-58.106S1730.934,1573.749,1703.219,1556.311z"/>
							</g>
							<g>
								<path style="fill:#000072;" d="M1731.003,1659.151c-3.257,0-6.519-0.51-9.731-1.536
									c-38.565-12.312-30.664-87.715-28.687-102.705c0.479-3.623,2.764-6.755,6.074-8.308c3.306-1.555,7.178-1.316,10.273,0.63
									c26.289,16.538,71.196,31.738,71.646,31.89c5.493,1.848,8.53,7.725,6.851,13.274c-1.519,5.022-15.571,49.463-40.938,62.8
									C1741.491,1657.825,1736.252,1659.151,1731.003,1659.151z M1712.433,1573.849c-1.338,27.302,2.163,59.114,15.361,63.328
									c2.944,0.94,5.635,0.647,8.711-0.969c11.524-6.062,21.587-26.614,26.983-40.386
									C1751.418,1591.387,1730.744,1583.319,1712.433,1573.849z"/>
							</g>
						</g>
						<g>
							<g>
								<path style="fill:#FFFFFF;" d="M1834.198,1597.311c0,0,23.24,77.126,55.486,68.189
									c32.246-8.937,22.863-80.609,22.863-80.609S1865.613,1597.121,1834.198,1597.311z"/>
							</g>
							<g>
								<path style="fill:#000072;" d="M1884.162,1677.01c-35.249,0-56.162-63.088-60.239-76.604
									c-0.972-3.24-0.366-6.748,1.646-9.468c2.007-2.72,5.181-4.336,8.564-4.356c29.683-0.181,75.254-11.955,75.708-12.073
									c2.993-0.774,6.148-0.237,8.701,1.484c2.549,1.721,4.243,4.453,4.639,7.505c1.089,8.281,9.438,81.233-30.63,92.339
									C1889.67,1676.634,1886.872,1677.01,1884.162,1677.01z M1848.976,1607.283c9.717,25.173,25.571,51.223,37.842,47.878
									c14.57-4.038,17.168-34.922,16.113-56.926C1889.88,1601.199,1868.542,1605.548,1848.976,1607.283z"/>
							</g>
						</g>
						<g>
							<path style="fill:#000072;" d="M1757.162,1593.933c-29.005-6.795-56.274-17.639-81.599-33.344
								c-9.608-7.345-36.017-23.378-21.091-37.02c3.464-2.727,7.881-3.145,11.726-1.676c33.744,12.175,67.355,25.636,101.2,37.456
								C1788.025,1567.594,1778.808,1598.274,1757.162,1593.933L1757.162,1593.933z"/>
						</g>
						<g>
							<path style="fill:#FF8888;" d="M1710.213,1793.799c0,0,0-81.95,66.945-105.93s124.443-2.399,136.66,15.787
								c12.217,18.185-48.542,137.153-119.578,128.627C1723.202,1823.757,1710.213,1793.799,1710.213,1793.799z"/>
						</g>
						<g>
							<path style="fill:#000072;" d="M1790.26,1850.455c-5.854,0-11.836-0.371-17.954-1.118
								c-33.008-4.026-59.131-19.588-77.637-46.255c-57.412-82.739-18.672-247.361-16.997-254.329
								c1.338-5.549,5.22-10.139,10.469-12.38c5.249-2.229,11.226-1.865,16.152,0.994c4.243,2.444,101.992,57.322,219.287,4.165
								c5.518-2.498,11.914-2.066,17.046,1.152c5.127,3.215,8.301,8.789,8.452,14.841c0.19,7.637,3.735,187.864-77.407,261.538
								C1848.688,1839.935,1821.359,1850.455,1790.26,1850.455z M1708.376,1579.154c-8.096,45.386-21.275,149.724,15.981,203.372
								c12.554,18.079,29.668,28.208,52.324,30.972c28.081,3.425,51.235-3.484,70.688-21.14
								c52.427-47.559,63.086-157.08,65.166-207.573C1822.184,1616.109,1744.86,1594.095,1708.376,1579.154z"/>
						</g>
					</g>
				</g>
				<g>
					<path style="fill:#000072;" d="M2433.643,2049.365c169.846-107.875,311.637-230.185,371.512-429.123
						c115.521-379.518-142.945-800.905-507.788-926.821c-99.078-35.285-204.984-49.654-310.008-44.12
						c-345.496,11.561-594.952,210.271-689.991,541.559c-6.631,23.374-12.376,47.003-16.742,70.852
						c-3.729,13.727-0.687,31.062-13.736,39.409c-0.006,0.004-0.756,0.5-0.761,0.503c0,0-1.764,1.185-1.764,1.185
						c-106.384,79.392-135.809,223.052-121.003,349.658c14.976,142.954,115.776,257.482,238.385,324.928
						c229.557,125.706,516.952,136.447,774.668,138.832c11.401-0.15,13.458,17.607,0.92,19.229
						c-139.139,13.751-279.88,15.463-419.079-1.916c-240.383-30.492-520.079-124.712-617.314-368.535
						c-61.68-163.455-33.294-389.475,115.822-497.085c2.682-1.653,4.051-2.837,6.948-4.467c0,0-10.796,16.728-10.796,16.728
						c2.042-17.641,5.172-34.351,8.745-51.57c86.387-388.936,369.309-625.542,769.082-630.708
						c102.75-3.519,206.737,13.061,303.792,47.051c390.895,133.38,663.131,584.807,538.635,989.947
						c-50.191,165.009-166.315,308.404-314.072,396.408c-29.237,17.696-60.06,32.481-91.521,45.258
						c-7.849,3.188-16.796-0.591-19.984-8.44C2424.744,2061.125,2427.46,2053.234,2433.643,2049.365L2433.643,2049.365z"/>
				</g>
			</g>
			<g>
				<g>
					<path style="fill:#3BEDA1;" d="M2381.991,2440.077c-261.118,190.338-480.936-17.148-480.936-17.148
						c-59.95,53.289-93.256-34.638-93.256-34.638s-21.316,37.302-54.622,43.964s-46.628-53.289-46.628-53.289
						s-18.651,39.967-45.296,42.631c-26.645,2.665-99.917-99.251-41.965-235.139c57.952-135.888,157.87-152.541,268.445-140.551
						c110.575,11.99,458.288,55.954,458.288,55.954s56.62,54.622,66.612,132.557
						C2422.624,2312.353,2381.991,2440.077,2381.991,2440.077z"/>
				</g>
				<g>
					<path style="fill:#1AB78D;" d="M1993.978,2218.673c0,0,25.321,306.257,383.377,215.379c0,0-85.425,83.607-223.558,80.881
						s-238.407-92.005-238.407-92.005S1977.745,2300.463,1993.978,2218.673z"/>
				</g>
				<g style="opacity:0.35;">
					<path style="fill:#FFFFFF;" d="M1608.533,2266.333c0,0,57.75-155.384,204.268-163.318s531.233,8.423,531.233,8.423
						s-373.649-67.632-477.329-67.441C1763.025,2044.189,1652.154,2076.803,1608.533,2266.333z"/>
				</g>
				<g>
					<path style="fill:#000072;" d="M1884.572,2404.531c40.557-36.988,65.924-88.655,83.682-140.157
						c6.227-18.139,10.786-36.811,15.182-55.529c1.131-5.998,7.086-9.928,13.04-8.443c5.296,1.297,8.688,6.346,8.045,11.627
						c-1.198,9.931-2.218,19.924-3.59,29.889c-10.876,69.888-33.639,140.62-79.836,195.658
						c-2.264,2.843-19.846,19.393-22.684,22.297c-13.069,12.673-33.937,12.351-46.609-0.718
						C1828.356,2434.886,1852.702,2395.29,1884.572,2404.531L1884.572,2404.531z"/>
				</g>
				<g>
					<path style="fill:#000072;" d="M2344.818,2111.371c-80.79,2.641-197.483-13.831-278.868-22.117
						c-26.254-3.077-150.293-16.551-173.56-19.36c-72.875-8.831-154.508-4.051-205.797,54.453
						c-40.53,47.101-66.144,111.463-63.313,174.203c2.458,34.906,12.336,74.166,39.045,97.589c1.05,0.809,1.608,0.833,0.962,0.727
						c-0.463-0.203-0.945-0.292-1.449-0.272c0,0-0.636-0.111-0.636-0.111c-0.429-0.056-0.866-0.074-1.3-0.054
						c-0.368,0.002-1.012,0.117-1.135,0.133c0.172-0.097,0.288-0.157,0.479-0.15c0.357,0.107,0.978-0.382,1.484-0.37
						c10.007-5.05,17.958-17.374,23.435-27.522c0,0,46.498,5.087,46.498,5.087c-0.004-0.018,0.842,3.2,0.842,3.197
						c2.881,10.404,9.076,25.885,16.613,31.25c16.582-3.876,29.29-18.232,38.385-32.252c10.175-16.977,37.276-14.447,44.397,3.74
						c5,12.14,14.99,28.227,25.74,33.95c10.698,4.921,18.194-1.169,27.988-9.01c9.796-8.311,24.12-7.875,33.384,0.484
						c1.235,1.11,3.34,2.92,5.144,4.417c29.587,24.246,62.977,44.031,98.051,59.248c56.25,24.198,118.445,35.033,179.385,27.282
						c63.125-7.081,118.584-34.672,176.181-62.996c4.442-2.254,9.891-0.445,12.099,4.023c1.745,3.522,0.952,7.647-1.661,10.298
						c-31.572,31.929-71.184,55.844-113.999,71.933c-42.85,16.021-89.24,24.422-135.646,23.191
						c-93.056-2.555-183.818-40.252-253.466-101.469c0-0.001,33.367,0.498,33.367,0.498c-49.554,44.977-103.05,20.099-128.803-35.35
						c-1.334-3.102-2.72-5.573-3.963-9c0,0,44.546,3.505,44.546,3.505c-4.221,7.108-8.417,12.672-13.576,18.857
						c-52.681,59.604-110.342,48.234-131.714-29.197c-0.53-1.885-0.944-3.406-1.519-5.883l46.497,5.087
						c-13.653,27.426-37.496,58.182-71.77,57.214c-20.897-2.174-36.149-18.225-47.529-33.438
						c-57.886-82.677-43.027-193.93,6.475-275.743c22.487-39.357,55.516-73.547,96.646-93.711
						c67.396-34.526,150.574-25.662,219.36-15.52c0-0.001,138.755,18.465,138.755,18.465
						c81.115,12.254,198.093,23.072,276.352,45.673C2357.588,2095.498,2356.146,2110.944,2344.818,2111.371L2344.818,2111.371z"/>
				</g>
			</g>
		</g>
		<g>
			<g>
				<path style="fill:#FFFFFF;" d="M1125.835,986.038c17.775-29.083,26.54-63.994,22.79-100.518
					c-9.102-88.65-88.345-153.136-176.995-144.034c-88.65,9.102-153.136,88.346-144.034,176.995
					c9.102,88.65,88.346,153.136,176.995,144.034c24.658-2.532,47.437-10.504,67.292-22.582l74.672,16.747L1125.835,986.038z"/>
			</g>
			<g style="opacity:0.5;">
				<g>
					<path style="fill:#FFFFFF;" d="M974.799,772.358c82.811-8.503,157.395,47.216,174.283,126.854
						c0.02-5.689-0.225-11.428-0.819-17.214c-9.102-88.65-88.345-153.136-176.995-144.034
						c-88.65,9.102-153.136,88.345-144.034,176.995c0.597,5.811,1.512,11.512,2.694,17.102
						C830.24,850.619,891.961,780.863,974.799,772.358z"/>
				</g>
			</g>
			<g>
				<path style="fill:#000072;" d="M987.98,1077.955c-89.014,0-165.61-67.554-174.897-157.983
					c-9.907-96.509,60.547-183.086,157.056-192.998c96.567-9.893,183.086,60.549,192.998,157.058
					c3.74,36.428-3.696,72.227-21.528,103.945l18.945,64.597c1.45,4.958,0.176,10.315-3.354,14.082
					c-3.535,3.765-8.799,5.388-13.838,4.258l-69.067-15.491c-21.04,11.851-43.955,19.114-68.213,21.604
					C1000.002,1077.65,993.962,1077.955,987.98,1077.955z M988.219,755.221c-4.995,0-10.029,0.256-15.102,0.776
					c-80.503,8.267-139.277,80.491-131.011,160.996s80.44,139.307,160.996,131.011c21.909-2.248,42.495-9.158,61.196-20.535
					c3.232-1.963,7.1-2.595,10.776-1.77l50.513,11.328l-13.75-46.882c-1.157-3.95-0.596-8.203,1.553-11.714
					c16.865-27.598,24.028-59.209,20.723-91.421C1126.369,811.576,1062.472,755.221,988.219,755.221z"/>
			</g>
			<g style="opacity:0.3;">
				<path style="fill:#000072;" d="M1126.74,984.488c-44.197,37.383-105.084,53.754-165.547,38.705
					c-67.054-16.689-116.46-67.75-134.23-129.721c-0.425,8.217-0.234,16.569,0.633,25.009
					c9.102,88.65,88.346,153.136,176.995,144.034c24.658-2.532,47.437-10.504,67.292-22.582l74.672,16.747l-20.72-70.642
					C1126.147,985.528,1126.434,985.002,1126.74,984.488z"/>
			</g>
			<g>
				<path style="fill:#FF0068;" d="M1039.707,856.69L1039.707,856.69c-13.964-13.964-36.605-11.462-50.569,2.502l-2.173,2.173
					l-2.173-2.173c-13.964-13.964-36.605-16.466-50.569-2.502h0c-13.964,13.964-13.964,36.605,0,50.569l2.173,2.173l43.903,43.903
					c3.681,3.681,9.65,3.681,13.332,0l43.903-43.903l2.173-2.173C1053.671,893.295,1053.671,870.654,1039.707,856.69z"/>
			</g>
		</g>
	</g>
</g>
</svg>
