<?xml version="1.0" encoding="utf-8"?>
<!-- Generator: Adobe Illustrator 27.5.0, SVG Export Plug-In . SVG Version: 6.00 Build 0)  -->
<svg version="1.1" id="Layer_1" xmlns="http://www.w3.org/2000/svg" xmlns:xlink="http://www.w3.org/1999/xlink" x="0px" y="0px"
	 viewBox="0 0 4000 4000" style="enable-background:new 0 0 4000 4000;" xml:space="preserve">
<g>
	<g>
		<rect style="fill:#FCE2A6;" width="4000" height="4000"/>
	</g>
	<g>
		<g>
			<path style="fill:#FD9D24;" d="M1628.561,2839.08c0,0-36.149,191.301-260.426,149.129
				c-244.881-46.046-196.388-344.2-91.527-607.691c56.684-142.435,92.921-320.138,41.984-477.553
				c-46.227-142.861-168.806-253.477-313.553-276.483c-256.987-40.845-460.281,129.885-464.503,297.828
				c-2.059,81.905,56.596,111.203,92.03,113.087c158.73,8.439,172.858-164.596,337.334-136.731
				c143.05,24.235,198.655,195.803,113.922,454.497c-111.498,340.409-104.926,505.689-14.284,651.253
				c115.34,185.227,497.614,255.85,668.95,53.084"/>
		</g>
		<g>
			<path style="fill:#FD9D24;" d="M632.558,2037.419c122.004,6.495,158.566-94.225,243.669-128.542
				c25.604-10.324,55.619-14.638,93.686-8.192c143.05,24.235,198.621,195.77,113.906,454.454
				c-111.482,340.452-104.936,505.735-14.257,651.29c115.312,185.203,497.57,255.824,668.939,53.075l-109.931-220.441
				c0,0-36.174,191.311-260.447,149.142c-244.882-46.046-196.39-344.185-91.503-607.667
				c56.686-142.453,92.909-320.144,41.993-477.574c-46.261-142.841-168.847-253.497-313.593-276.472
				c-72.253-11.487-140.238-6.252-200.755,10.954c-154.784,43.962-260.738,166.155-263.744,286.845
				C538.485,2006.204,597.111,2035.529,632.558,2037.419z"/>
		</g>
		<g>
			<path style="fill:#FD9D24;" d="M632.55,2037.394c122.039,6.513,158.583-94.179,243.682-128.498
				c25.608-10.363,55.636-14.667,93.654-8.212c143.059,24.239,198.639,195.777,113.937,454.471
				c-30.198,92.14-51.728,171.425-65.269,240.969c0,0,0,0,0,0.057c0,0.056,0,0.056,0,0.056
				c-36.487,187.395-15.127,304.057,50.991,410.185c115.354,185.186,497.562,255.806,668.95,53.064l-109.915-220.412
				c0,0-28.611,151.151-192.464,155.058c-20.509,0.566-43.058-1.246-67.989-5.946c-244.871-46.042-196.373-344.152-91.5-607.66
				c56.657-142.429,92.917-320.14,41.982-477.577c-46.232-142.826-168.838-253.484-313.596-276.477
				c-72.238-11.496-140.226-6.229-200.736,10.987c-154.787,43.947-260.736,166.158-263.738,286.841
				C538.499,2006.19,597.083,2035.525,632.55,2037.394z"/>
		</g>
		<g>
			<path style="fill:#FD9D24;" d="M632.55,2037.394c10.311,0.567,20.056,0.34,29.234-0.566
				c99.32-9.514,136.544-96.501,214.447-127.932c25.608-10.363,55.636-14.667,93.654-8.212
				c124.079,21.011,182.323,152.793,140.34,356.158c-6.402,31.147-15.184,63.938-26.402,98.313
				c-30.198,92.14-51.728,171.425-65.269,240.969c0,0,0,0,0,0.057c0,0.056,0,0.056,0,0.056
				c-36.487,187.395-15.127,304.057,50.991,410.185c115.354,185.186,497.562,255.806,668.95,53.064l-109.915-220.412
				c0,0-28.611,151.151-192.464,155.058c-20.509,0.566-43.058-1.246-67.989-5.946c-244.871-46.042-196.373-344.152-91.5-607.66
				c56.657-142.429,92.917-320.14,41.982-477.577c-46.232-142.826-168.838-253.484-313.596-276.477
				c-72.238-11.496-140.226-6.229-200.736,10.987c-154.787,43.947-260.736,166.158-263.738,286.841
				C538.499,2006.19,597.083,2035.525,632.55,2037.394z"/>
		</g>
		<g>
			<path style="fill:#FC7D27;" d="M661.785,2036.828c99.32-9.514,136.544-96.501,214.447-127.932
				c25.608-10.363,55.636-14.667,93.654-8.212c124.079,21.011,182.323,152.793,140.34,356.158
				c43.739-84.721,89.348-222.903,19.49-356.158c-90.992-173.633-277.337-103.806-332.351,0
				C760.538,1970.172,715.043,2020.178,661.785,2036.828z"/>
		</g>
		<g>
			<path style="fill:#FC7D27;" d="M1069.545,3006.423c115.354,185.186,497.562,255.806,668.95,53.064l-109.915-220.412
				c0,0-28.611,151.151-192.464,155.058c-49.462,34.206-120.283,55.896-216.656,27.467
				c-242.831-71.583-201.868-417.717-200.906-425.362C982.067,2783.633,1003.427,2900.294,1069.545,3006.423z"/>
		</g>
		<g>
			<path style="fill:#512717;" d="M943.181,1896.309c32.208-1.864-12.393-203.83,176.123-230.886
				c-56.844-29.834-120.261-46.028-184.555-45.014C878.744,1744.814,930.805,1897.008,943.181,1896.309z"/>
		</g>
		<g>
			<path style="fill:#512717;" d="M1097.59,2309.384c47.279,13.572,131.412,29.324,164.58,108.669
				c4.656-12.554,9.505-25.059,14.451-37.516c0.194-0.437,0.339-0.873,0.484-1.309c11.299-28.403,21.724-58.212,30.841-88.942
				c-72.543-31.699-151.39-35.044-199.203-26.271C1105.543,2278.75,1101.858,2293.873,1097.59,2309.384z"/>
		</g>
		<g>
			<path style="fill:#512717;" d="M1114.271,3060.909c25.022,23.993,54.941,44.98,88.158,62.478
				c5.625-56.613,32.926-138.188,108.863-152.487c-44.176-19.63-74.531-50.845-93.686-90.299
				C1127.558,2932.367,1108.355,3007.689,1114.271,3060.909z"/>
		</g>
		<g>
			<path style="fill:#512717;" d="M1022.303,1915.092c4.92,2.398,9.725,5.01,14.382,7.939c9.796,6.127,19.022,13.37,27.619,21.637
				c13.983,13.44,26.299,29.825,36.802,48.834c9.684-78.55,95.182-145.289,164.432-193.859c-0.834-1.639-1.621-3.286-2.496-4.87
				c-0.007-0.048-0.055-0.041-0.055-0.041c-7.565-10.873-15.69-21.221-24.258-31.258
				C1162.586,1771.369,1072.278,1812.608,1022.303,1915.092z"/>
		</g>
		<g>
			<path style="fill:#512717;" d="M1008.075,2847.835c43.352-42.847,115.264-48.276,186.013-49.343
				c-3.346-25.253-4.122-52.154-2.667-80.314c-62.263-27.822-143.147-21.86-189.65,6.737v0.049
				C999.395,2770.138,1001.577,2810.611,1008.075,2847.835z"/>
		</g>
		<g>
			<path style="fill:#512717;" d="M1358.086,3174.958c36.174,5.962,73.173,8.289,109.688,6.544
				c-7.274-73.917,12.656-156.558,48.637-203.816c-36.757,15.753-85.054,22.393-148.287,10.518
				c-7.225-1.357-14.159-2.908-20.852-4.75C1338.253,3040.261,1327.633,3121.545,1358.086,3174.958z"/>
		</g>
		<g>
			<path style="fill:#512717;" d="M1024.611,2567.098c57.559-14.347,127.532,1.26,183.54,31.117
				c5.819-27.046,12.996-54.577,21.191-82.253v-0.049c-44.225-40.86-111.046-59.473-179.127-50.796
				C1040.08,2501.276,1031.545,2535.156,1024.611,2567.098z"/>
		</g>
		<g>
			<path style="fill:#512717;" d="M1120.478,2192.571c-0.436,4.169-0.922,8.337-1.503,12.554
				c38.938-54.674,121.955-105.131,220.636-72.996c2.667-26.707,3.782-53.559,3.151-80.363
				c-72.931-26.271-158.275-18.758-225.533,9.936c2.764,14.202,4.655,29.276,5.674,45.125
				C1124.6,2133.244,1123.825,2161.89,1120.478,2192.571z"/>
		</g>
		<g>
			<path style="fill:#512717;" d="M632.558,2037.419c122.004,6.495,158.566-94.225,243.669-128.542
				c-120.113-47.258-121.665-205.513-71.962-271.431c-154.784,43.962-260.738,166.155-263.744,286.845
				C538.485,2006.204,597.111,2035.529,632.558,2037.419z"/>
		</g>
		<g>
			<path style="fill:#512717;" d="M1444.541,3198.753c-12.842,0-25.835-0.471-38.987-1.423
				c-150.623-10.913-288.066-82.393-350.159-182.107c-98.071-157.498-94.658-337.798,12.595-665.244
				c50.591-154.46,52.449-282.595,5.227-360.798c-24.153-39.998-59.851-64.253-106.101-72.087
				c-77.505-13.123-116.68,21.487-162.024,61.572c-42.307,37.4-90.315,79.78-173.411,75.369
				c-44.587-2.371-110.09-38.987-107.8-130.142c1.99-79.146,45.068-159.434,118.193-220.281
				c97.266-80.942,230.51-115.049,365.579-93.582c149.641,23.782,277.913,136.753,326.79,287.805
				c56.409,174.329,8.103,362.058-42.356,488.843c-88.655,222.771-108.225,398.613-55.105,495.134
				c26.387,47.949,71.548,78.237,134.231,90.022c204.697,38.518,239.6-128.75,240.986-135.889
				c1.75-9.014,10.481-14.919,19.492-13.208c9.021,1.729,14.946,10.41,13.24,19.436c-0.396,2.075-41.98,207.126-279.875,162.41
				c-72.937-13.716-125.85-49.617-157.266-106.707c-74.348-135.098-12.031-359.26,53.34-523.518
				c48.43-121.699,94.963-301.377,41.609-466.265c-45.054-139.243-162.935-243.323-300.315-265.159
				c-125.576-19.946-249.15,11.492-339.036,86.289c-65.742,54.705-104.448,125.962-106.196,195.503
				c-1.826,72.656,49.084,94.587,76.257,96.035c69.521,3.689,108.411-30.674,149.573-67.063
				c47.412-41.912,96.458-85.251,189.661-69.458c55.452,9.395,100.081,39.724,129.058,87.715
				c52.314,86.636,51.572,224.57-2.085,388.394c-105.054,320.732-109.236,487.493-15.974,637.261
				c56.646,90.969,183.933,156.318,324.28,166.487c131.924,9.546,247.781-32.485,317.803-115.349
				c5.935-7.034,16.45-7.913,23.477-1.973c7.029,5.938,7.913,16.45,1.973,23.477
				C1681.333,3152.955,1571.04,3198.75,1444.541,3198.753z"/>
		</g>
	</g>
	<g>
		<g>
			<path style="fill:#777782;" d="M1872.948,3328.738l-434.799,114.22c0,0-120.763,13.823-204.324,13.823
				c-169.698,0-220.135-263.585-220.135-263.585l178.372-174.27l451.94-140.119"/>
		</g>
		<g>
			<path style="fill:#FD9D24;" d="M1872.949,3328.752l-434.788,114.218c0,0-120.795,13.826-204.321,13.826
				c-169.72,0-220.164-263.596-220.164-263.596l136.063-132.927l42.317-41.355l336.116-104.208l105.732-32.78l10.097-3.118
				l35.298,69.376L1872.949,3328.752z"/>
		</g>
		<g>
			<path style="fill:#FC7D27;" d="M1872.949,3328.752l-434.788,114.218c0,0-120.795,13.826-204.321,13.826
				c-169.72,0-220.164-263.596-220.164-263.596l136.063-132.927l110.37-40.083c69.037,39.673,70.556,204.805,195.62,175.594
				c84.347-19.734,67.847-169.03,72.444-281.074l105.732-32.78c14.283,19.57,29.552,42.011,45.396,66.258L1872.949,3328.752z"/>
		</g>
		<g>
			<path style="fill:#512717;" d="M1233.826,3473.799c-181.68,0-234.683-266.079-236.848-277.405l-1.719-8.979l187.844-183.525
				l455.859-141.335c8.984-2.781,18.511,2.241,21.292,11.213c2.783,8.977-2.239,18.508-11.213,21.292l-448.022,138.904
				l-168.679,164.8c10.43,44.299,64.502,241.003,201.487,241.003c77.224,0,188.455-12.156,201.194-13.577l433.604-113.909
				c9.082-2.385,18.394,3.044,20.781,12.134s-3.045,18.394-12.134,20.781l-435.977,114.531l-1.208,0.137
				C1435.115,3460.433,1317.395,3473.799,1233.826,3473.799z"/>
		</g>
		<g>
			<path style="fill:#512717;" d="M1438.178,3211.438c-36.648-40.713-27.183-192.039-170.548-215.982l116.898-36.229
				C1479.357,2997.966,1436.787,3136.066,1438.178,3211.438z"/>
		</g>
		<g>
			<path style="fill:#512717;" d="M1551.712,3413.161l-113.534,29.817c0,0-0.852,0.09-2.422,0.269
				c104.114-70.754,66.658-153.568,69.618-200.513C1528.879,3307.255,1578.447,3348.954,1551.712,3413.161z"/>
		</g>
		<g>
			<path style="fill:#777782;" d="M1438.149,3442.958c-42.98,11.577-201.789,56.517-303,22.617
				c-127.415-42.677-193.877-210.21-176.444-332.56c25.937-182.026,202.797-199.709,292.721-121.179
				c43.094,37.633,78.641,122.536,75.005,200.21L1438.149,3442.958z"/>
		</g>
		<g>
			<path style="fill:#FFAD40;" d="M1438.162,3442.97c-42.974,11.57-201.817,56.494-302.993,22.606
				c-84.757-28.349-142.508-111.962-166.56-200.784c-0.041-0.041-0.041-0.082-0.041-0.082
				c-12.108-44.719-15.679-90.751-9.851-131.696c25.94-182.035,202.802-199.718,292.691-121.193
				c12.601,10.995,24.545,26.052,35.052,43.735v0.041c25.489,42.914,42.523,101.459,39.978,156.435L1438.162,3442.97z"/>
		</g>
		<g>
			<path style="fill:#FC7D27;" d="M1438.162,3442.97c-42.974,11.57-201.817,56.494-302.993,22.606
				c-84.757-28.349-142.508-111.962-166.56-200.784c1.765,3.979,62.553,137.316,198.082,123.982
				c135.448-13.333,159.952-183.266,119.769-333.177c25.489,42.914,42.523,101.459,39.978,156.435L1438.162,3442.97z"/>
		</g>
		<g>
			<path style="fill:#F9D3B7;" d="M1085.729,3441.029c-57.956-38.934-98.056-105.931-117.101-176.25
				c1.765,3.98,62.552,137.316,198.082,123.983c135.448-13.334,159.952-183.266,119.769-333.177
				c25.366,42.75,42.399,100.967,39.978,155.737c0,0.246,0,0.492-0.041,0.739C1335.486,3280.082,1343.695,3515,1085.729,3441.029z"
				/>
		</g>
		<g>
			<path style="fill:#FFF3E9;" d="M1085.716,3441.03c-57.923-38.925-98.046-105.95-117.089-176.251
				c-0.041-0.041-0.041-0.082-0.041-0.082c-12.108-44.719-15.679-90.751-9.851-131.696
				c25.94-182.035,202.802-199.718,292.691-121.193c12.6,10.995,24.545,26.052,35.052,43.734v0.041
				c25.366,42.75,42.399,100.967,39.978,155.737c0,0.246,0,0.492-0.041,0.739C1335.466,3280.082,1343.675,3515,1085.716,3441.03z"/>
		</g>
		<g>
			<path style="fill:#F9D3B7;" d="M1085.729,3441.029c-57.956-38.934-98.056-105.931-117.101-176.25
				c1.765,3.98,62.552,137.316,198.082,123.983c135.448-13.334,159.952-183.266,119.769-333.177
				c25.366,42.75,42.399,100.967,39.978,155.737c0,0.246,0,0.492-0.041,0.739C1335.486,3280.082,1343.695,3515,1085.729,3441.029z"
				/>
		</g>
		<g>
			<path style="fill:#F9D3B7;" d="M1128.62,3463.184c-2.545-0.944-5.048-1.928-7.552-2.995c-2.463-1.066-4.925-2.133-7.347-3.282
				c-2.175-1.026-4.351-2.093-6.485-3.2c-0.328-0.123-0.657-0.328-1.026-0.492c-2.298-1.19-4.556-2.421-6.814-3.734
				c-1.97-1.108-3.94-2.256-5.91-3.487c-0.534-0.287-1.026-0.615-1.56-0.985c-1.765-1.067-3.53-2.216-5.295-3.405
				c-0.41-0.246-0.821-0.533-1.231-0.78c-1.847-1.231-3.653-2.502-5.418-3.815c-0.534-0.328-1.026-0.698-1.56-1.108
				c-1.19-0.862-2.381-1.723-3.53-2.667c-1.313-0.985-2.668-2.01-3.94-3.077c-0.534-0.369-1.108-0.82-1.642-1.313
				c-1.56-1.231-3.078-2.503-4.597-3.816c-0.615-0.492-1.19-0.985-1.806-1.559c-1.765-1.518-3.53-3.118-5.254-4.718
				c-1.601-1.436-3.161-2.954-4.72-4.472c-1.231-1.148-2.422-2.338-3.612-3.569c-1.519-1.518-3.037-3.077-4.515-4.677
				c-1.519-1.559-2.955-3.2-4.433-4.8c-0.246-0.287-0.493-0.533-0.739-0.821c-1.478-1.641-2.914-3.323-4.351-5.046
				c-0.575-0.656-1.108-1.313-1.683-1.969c-1.067-1.313-2.176-2.667-3.243-4.021c-0.698-0.903-1.437-1.805-2.134-2.708
				c-1.108-1.395-2.175-2.831-3.243-4.226c-0.574-0.739-1.108-1.477-1.642-2.216c-1.026-1.313-1.97-2.708-2.955-4.062
				c-1.067-1.477-2.093-2.954-3.119-4.472c-0.041-0.041-0.082-0.123-0.082-0.164c-1.437-2.051-2.832-4.144-4.228-6.277
				c-0.451-0.698-0.903-1.436-1.313-2.134c-1.149-1.764-2.257-3.528-3.366-5.333c-0.082-0.164-0.205-0.287-0.287-0.451
				c-1.396-2.298-2.75-4.636-4.104-6.974c-1.314-2.298-2.627-4.636-3.899-6.975c-0.287-0.492-0.534-0.985-0.78-1.477
				c-1.026-1.887-2.011-3.775-2.996-5.662c-3.037-5.908-5.91-11.898-8.578-17.97c-0.862-1.887-1.683-3.774-2.463-5.662
				c-1.108-2.585-2.175-5.169-3.243-7.795c-5.172-13.087-9.646-26.503-13.299-40.042c1.765,3.98,62.552,137.316,198.082,123.983
				c135.448-13.334,159.952-183.266,119.769-333.177c1.026,1.682,2.011,3.405,2.996,5.169c1.19,2.134,2.339,4.267,3.489,6.441
				c1.149,2.215,2.298,4.431,3.448,6.729c3.161,6.482,6.157,13.251,8.948,20.226c1.478,3.733,2.914,7.549,4.31,11.405
				c0,0,0,0,0,0.041c0.533,1.518,1.067,3.036,1.559,4.554c3.202,9.559,5.993,19.406,8.291,29.416
				c0.616,2.708,1.191,5.416,1.724,8.123c0.452,2.215,0.862,4.431,1.272,6.687c0.739,4.185,1.396,8.41,1.929,12.636
				c0.287,2.298,0.575,4.554,0.78,6.852c0.246,1.969,0.41,3.979,0.575,5.949c0.862,10.544,1.108,21.088,0.657,31.509
				c0,0.246,0,0.492-0.041,0.739C1334.337,3248.45,1345.707,3493.79,1128.62,3463.184z"/>
		</g>
		<g>
			<path style="fill:#512717;" d="M1442.574,3459.388c-53.522,14.773-108.699,27.269-165.089,32.878
				c-28.229,2.721-56.867,3.768-85.808,1.416c-14.462-1.201-29.001-3.284-43.466-6.75c-14.47-3.488-28.837-8.447-42.322-14.872
				c-27.007-12.934-51.218-30.994-71.449-52.3c-20.46-21.169-37.116-45.395-50.891-70.891
				c-27.07-51.276-42.463-108.151-44.441-166.255c-0.805-29.072,2.19-58.565,9.961-87.017c7.785-28.455,20.821-56.289,40.247-79.808
				c19.331-23.517,45.062-42.091,73.593-52.864c28.519-10.898,59.395-14.369,89.318-11.193c29.948,3.15,59.149,12.869,84.993,28.662
				c6.45,3.964,12.681,8.31,18.64,13.033c5.84,4.684,12.056,9.751,16.71,15.914c9.766,11.875,17.458,24.604,24.128,37.601
				c13.12,26.092,21.778,53.554,26.838,81.401c4.99,27.83,6.332,56.182,2.894,83.702c-0.969-27.708-6.725-54.768-15.667-80.35
				c-8.983-25.551-21.287-49.813-36.658-71.074c-7.737-10.542-16.199-20.416-25.492-28.564c-4.828-3.881-8.896-8.079-13.889-11.958
				c-4.863-3.856-9.976-7.426-15.292-10.694c-21.298-13.028-45.788-21.22-70.768-23.83c-24.975-2.656-50.485,0.293-73.62,9.144
				c-23.169,8.778-43.713,23.601-59.493,42.745c-31.762,38.514-43.86,92.403-42.426,144.173
				c1.73,52.322,15.903,104.839,40.449,151.214c12.467,23.06,27.431,44.762,45.409,63.335
				c17.785,18.751,38.651,34.161,61.465,45.115c11.461,5.45,23.345,9.547,35.711,12.541c12.399,2.974,25.276,4.845,38.331,5.926
				c26.143,2.134,52.939,1.215,79.668-1.37c53.633-5.347,106.653-17.257,159.563-31.87L1442.574,3459.388z"/>
		</g>
		<g>
			
				<ellipse transform="matrix(0.9831 -0.183 0.183 0.9831 -578.6816 265.999)" style="fill:#FF999E;" cx="1151.941" cy="3268.511" rx="101.118" ry="112.778"/>
		</g>
		<g>
			
				<ellipse transform="matrix(0.9831 -0.183 0.183 0.9831 -547.9026 275.3039)" style="fill:#FF999E;" cx="1217.784" cy="3106.464" rx="37.143" ry="41.426"/>
		</g>
		<g>
			
				<ellipse transform="matrix(0.9831 -0.183 0.183 0.9831 -560.6722 241.604)" style="fill:#FF999E;" cx="1028.718" cy="3158.624" rx="37.143" ry="41.426"/>
		</g>
		<g>
			
				<ellipse transform="matrix(0.9831 -0.183 0.183 0.9831 -547.8981 255.6489)" style="fill:#FF999E;" cx="1111.269" cy="3096.577" rx="41.215" ry="45.967"/>
		</g>
	</g>
	<g>
		<g>
			<path style="fill:#777782;" d="M2215.059,3328.738l434.799,114.22c0,0,120.763,13.823,204.324,13.823
				c169.698,0,220.135-263.585,220.135-263.585l-178.372-174.27l-451.94-140.119"/>
		</g>
		<g>
			<path style="fill:#FD9D24;" d="M2215.057,3328.752l434.788,114.218c0,0,120.795,13.826,204.321,13.826
				c169.72,0,220.165-263.596,220.165-263.596l-136.063-132.927l-42.317-41.355l-336.116-104.208l-105.731-32.78l-10.097-3.118
				l-35.298,69.376L2215.057,3328.752z"/>
		</g>
		<g>
			<path style="fill:#FC7D27;" d="M2215.057,3328.752l434.788,114.218c0,0,120.795,13.826,204.321,13.826
				c169.72,0,220.165-263.596,220.165-263.596l-136.063-132.927l-110.37-40.083c-69.037,39.673-70.556,204.805-195.62,175.594
				c-84.347-19.734-67.847-169.03-72.444-281.074l-105.731-32.78c-14.283,19.57-29.552,42.011-45.396,66.258L2215.057,3328.752z"/>
		</g>
		<g>
			<path style="fill:#512717;" d="M2854.182,3473.799c-83.569,0-201.289-13.367-206.26-13.936l-2.388-0.447l-434.8-114.221
				c-9.089-2.388-14.521-11.692-12.134-20.781s11.699-14.519,20.781-12.134l433.606,113.909
				c12.739,1.421,123.97,13.577,201.194,13.577c136.982,0,191.055-196.704,201.484-241.003l-168.679-164.8l-448.02-138.904
				c-8.975-2.783-13.997-12.314-11.213-21.292s12.317-13.997,21.292-11.213l455.857,141.335l187.844,183.525l-1.719,8.979
				C3088.862,3207.72,3035.859,3473.799,2854.182,3473.799z"/>
		</g>
		<g>
			<path style="fill:#512717;" d="M2649.829,3211.438c36.648-40.713,27.184-192.039,170.548-215.982l-116.898-36.229
				C2608.65,2997.966,2651.219,3136.066,2649.829,3211.438z"/>
		</g>
		<g>
			<path style="fill:#512717;" d="M2536.295,3413.161l113.534,29.817c0,0,0.852,0.09,2.422,0.269
				c-104.114-70.754-66.658-153.568-69.618-200.513C2559.127,3307.255,2509.56,3348.954,2536.295,3413.161z"/>
		</g>
		<g>
			<path style="fill:#777782;" d="M2649.858,3442.958c42.98,11.577,201.79,56.517,303,22.617
				c127.415-42.677,193.877-210.21,176.444-332.56c-25.937-182.026-202.797-199.709-292.721-121.179
				c-43.094,37.633-78.641,122.536-75.005,200.21L2649.858,3442.958z"/>
		</g>
		<g>
			<path style="fill:#FFAD40;" d="M2649.845,3442.97c42.974,11.57,201.817,56.494,302.993,22.606
				c84.757-28.349,142.508-111.962,166.56-200.784c0.041-0.041,0.041-0.082,0.041-0.082c12.108-44.719,15.679-90.751,9.851-131.696
				c-25.94-182.035-202.802-199.718-292.691-121.193c-12.601,10.995-24.545,26.052-35.052,43.735v0.041
				c-25.489,42.914-42.522,101.459-39.978,156.435L2649.845,3442.97z"/>
		</g>
		<g>
			<path style="fill:#FC7D27;" d="M2649.845,3442.97c42.974,11.57,201.817,56.494,302.993,22.606
				c84.757-28.349,142.508-111.962,166.56-200.784c-1.765,3.979-62.552,137.316-198.083,123.982
				c-135.448-13.333-159.952-183.266-119.769-333.177c-25.489,42.914-42.522,101.459-39.978,156.435L2649.845,3442.97z"/>
		</g>
		<g>
			<path style="fill:#F9D3B7;" d="M3002.278,3441.029c57.956-38.934,98.056-105.931,117.101-176.25
				c-1.765,3.98-62.552,137.316-198.083,123.983c-135.448-13.334-159.951-183.266-119.769-333.177
				c-25.365,42.75-42.399,100.967-39.978,155.737c0,0.246,0,0.492,0.041,0.739C2752.52,3280.082,2744.311,3515,3002.278,3441.029z"
				/>
		</g>
		<g>
			<path style="fill:#FFF3E9;" d="M3002.29,3441.03c57.923-38.925,98.046-105.95,117.089-176.251
				c0.041-0.041,0.041-0.082,0.041-0.082c12.108-44.719,15.679-90.751,9.851-131.696
				c-25.94-182.035-202.802-199.718-292.691-121.193c-12.601,10.995-24.545,26.052-35.052,43.734v0.041
				c-25.365,42.75-42.399,100.967-39.978,155.737c0,0.246,0,0.492,0.041,0.739C2752.541,3280.082,2744.332,3515,3002.29,3441.03z"/>
		</g>
		<g>
			<path style="fill:#F9D3B7;" d="M3002.278,3441.029c57.956-38.934,98.056-105.931,117.101-176.25
				c-1.765,3.98-62.552,137.316-198.083,123.983c-135.448-13.334-159.951-183.266-119.769-333.177
				c-25.365,42.75-42.399,100.967-39.978,155.737c0,0.246,0,0.492,0.041,0.739C2752.52,3280.082,2744.311,3515,3002.278,3441.029z"
				/>
		</g>
		<g>
			<path style="fill:#F9D3B7;" d="M2959.386,3463.184c2.545-0.944,5.048-1.928,7.552-2.995c2.463-1.066,4.926-2.133,7.347-3.282
				c2.175-1.026,4.351-2.093,6.485-3.2c0.328-0.123,0.657-0.328,1.026-0.492c2.299-1.19,4.556-2.421,6.814-3.734
				c1.97-1.108,3.94-2.256,5.91-3.487c0.534-0.287,1.026-0.615,1.56-0.985c1.765-1.067,3.53-2.216,5.295-3.405
				c0.41-0.246,0.821-0.533,1.231-0.78c1.847-1.231,3.653-2.502,5.418-3.815c0.534-0.328,1.026-0.698,1.56-1.108
				c1.19-0.862,2.381-1.723,3.53-2.667c1.313-0.985,2.668-2.01,3.94-3.077c0.534-0.369,1.108-0.82,1.642-1.313
				c1.56-1.231,3.078-2.503,4.597-3.816c0.616-0.492,1.19-0.985,1.806-1.559c1.765-1.518,3.53-3.118,5.253-4.718
				c1.601-1.436,3.161-2.954,4.72-4.472c1.231-1.148,2.421-2.338,3.612-3.569c1.519-1.518,3.037-3.077,4.515-4.677
				c1.519-1.559,2.955-3.2,4.433-4.8c0.246-0.287,0.492-0.533,0.739-0.821c1.478-1.641,2.914-3.323,4.351-5.046
				c0.575-0.656,1.108-1.313,1.683-1.969c1.067-1.313,2.176-2.667,3.243-4.021c0.698-0.903,1.436-1.805,2.134-2.708
				c1.108-1.395,2.176-2.831,3.243-4.226c0.574-0.739,1.108-1.477,1.642-2.216c1.026-1.313,1.97-2.708,2.955-4.062
				c1.067-1.477,2.093-2.954,3.12-4.472c0.041-0.041,0.082-0.123,0.082-0.164c1.437-2.051,2.832-4.144,4.228-6.277
				c0.451-0.698,0.903-1.436,1.313-2.134c1.149-1.764,2.257-3.528,3.366-5.333c0.082-0.164,0.205-0.287,0.287-0.451
				c1.396-2.298,2.75-4.636,4.104-6.974c1.313-2.298,2.627-4.636,3.899-6.975c0.287-0.492,0.534-0.985,0.78-1.477
				c1.026-1.887,2.011-3.775,2.997-5.662c3.037-5.908,5.91-11.898,8.578-17.97c0.862-1.887,1.683-3.774,2.463-5.662
				c1.108-2.585,2.176-5.169,3.243-7.795c5.172-13.087,9.646-26.503,13.299-40.042c-1.765,3.98-62.552,137.316-198.083,123.983
				c-135.448-13.334-159.951-183.266-119.769-333.177c-1.026,1.682-2.011,3.405-2.996,5.169c-1.19,2.134-2.34,4.267-3.489,6.441
				c-1.149,2.215-2.299,4.431-3.448,6.729c-3.161,6.482-6.157,13.251-8.948,20.226c-1.478,3.733-2.914,7.549-4.31,11.405
				c0,0,0,0,0,0.041c-0.533,1.518-1.067,3.036-1.56,4.554c-3.202,9.559-5.993,19.406-8.291,29.416
				c-0.616,2.708-1.191,5.416-1.724,8.123c-0.451,2.215-0.862,4.431-1.272,6.687c-0.739,4.185-1.396,8.41-1.929,12.636
				c-0.287,2.298-0.575,4.554-0.78,6.852c-0.246,1.969-0.41,3.979-0.575,5.949c-0.862,10.544-1.108,21.088-0.657,31.509
				c0,0.246,0,0.492,0.041,0.739C2753.669,3248.45,2742.3,3493.79,2959.386,3463.184z"/>
		</g>
		<g>
			<path style="fill:#512717;" d="M2654.283,3426.528c52.91,14.613,105.929,26.523,159.563,31.87
				c26.729,2.585,53.525,3.503,79.668,1.37c13.055-1.081,25.933-2.952,38.331-5.926c12.365-2.994,24.25-7.091,35.71-12.541
				c22.815-10.954,43.68-26.364,61.465-45.115c17.979-18.573,32.942-40.275,45.41-63.335
				c24.547-46.375,38.719-98.892,40.449-151.214c1.435-51.77-10.664-105.659-42.426-144.173
				c-15.78-19.145-36.324-33.968-59.493-42.745c-23.135-8.851-48.645-11.801-73.62-9.144c-24.98,2.61-49.47,10.802-70.768,23.83
				c-5.316,3.268-10.429,6.837-15.292,10.694c-4.993,3.879-9.062,8.077-13.889,11.958c-9.292,8.148-17.755,18.022-25.492,28.564
				c-15.371,21.26-27.675,45.522-36.658,71.074c-8.942,25.582-14.698,52.643-15.667,80.35c-3.438-27.521-2.096-55.872,2.894-83.702
				c5.06-27.847,13.718-55.309,26.838-81.401c6.67-12.997,14.362-25.726,24.128-37.601c4.654-6.163,10.87-11.23,16.71-15.914
				c5.958-4.724,12.19-9.07,18.639-13.033c25.844-15.793,55.045-25.512,84.993-28.662c29.924-3.176,60.8,0.295,89.318,11.193
				c28.531,10.773,54.263,29.347,73.593,52.864c19.426,23.519,32.462,51.352,40.247,79.808c7.771,28.452,10.766,57.945,9.961,87.017
				c-1.978,58.104-17.37,114.979-44.44,166.255c-13.775,25.496-30.431,49.722-50.89,70.891
				c-20.231,21.306-44.442,39.366-71.449,52.3c-13.486,6.425-27.852,11.384-42.322,14.872c-14.464,3.467-29.004,5.55-43.466,6.75
				c-28.942,2.353-57.579,1.305-85.808-1.416c-56.39-5.609-111.566-18.105-165.089-32.878L2654.283,3426.528z"/>
		</g>
		<g>
			
				<ellipse transform="matrix(0.183 -0.9831 0.9831 0.183 -814.5474 5556.8618)" style="fill:#FF999E;" cx="2936.066" cy="3268.511" rx="112.778" ry="101.118"/>
		</g>
		<g>
			
				<ellipse transform="matrix(0.183 -0.9831 0.9831 0.183 -709.0449 5359.7144)" style="fill:#FF999E;" cx="2870.223" cy="3106.464" rx="41.426" ry="37.143"/>
		</g>
		<g>
			
				<ellipse transform="matrix(0.183 -0.9831 0.9831 0.183 -605.8279 5588.248)" style="fill:#FF999E;" cx="3059.289" cy="3158.624" rx="41.426" ry="37.143"/>
		</g>
		<g>
			
				<ellipse transform="matrix(0.183 -0.9831 0.9831 0.183 -612.2817 5456.3862)" style="fill:#FF999E;" cx="2976.738" cy="3096.577" rx="45.967" ry="41.215"/>
		</g>
	</g>
	<g>
		<polygon style="fill:#A1ACC6;" points="2042.062,3468.604 2042.062,3468.689 2041.934,3468.646 		"/>
	</g>
	<g>
		<polygon style="fill:#A1ACC6;" points="2041.934,3468.646 2041.806,3468.689 2041.806,3468.604 		"/>
	</g>
	<g>
		<path style="fill:#C1612B;" d="M1637.705,3317.362c0,0,164.908,71.403,406.279,71.403c241.372,0,406.28-71.403,406.28-71.403
			l151.782-254.752c44.899-226.303-110.196-658.16-266.85-830.245h-291.279h0.065h-0.063h0.065h-291.28
			c-156.654,172.085-311.749,603.942-266.85,830.245L1637.705,3317.362z"/>
	</g>
	<g>
		<path style="fill:#FD9D24;" d="M2602.059,3062.599l-31.564,52.965l-120.22,201.81c0,0-164.918,71.386-406.303,71.386
			c-241.343,0-406.262-71.386-406.262-71.386l-120.22-201.687v-0.041l-31.645-53.047
			c-44.903-226.303,110.205-658.149,266.873-830.215h582.468C2491.854,2404.449,2646.962,2836.296,2602.059,3062.599z"/>
	</g>
	<g>
		<path style="fill:#FC7D27;" d="M2485.491,2477.231c-114.802,51.899-270.28,83.817-441.478,83.817
			c-171.281,0-326.799-31.919-441.601-83.859c44.821-99.243,97.481-186.794,150.306-244.806h582.468
			C2388.01,2290.396,2440.671,2377.987,2485.491,2477.231z"/>
	</g>
	<g>
		<path style="fill:#FC7D27;" d="M2570.5,3115.55l-120.25,201.8c0,0-164.9,71.4-406.3,71.4c-241.3,0-406.25-71.4-406.25-71.4
			l-120.2-201.65v-0.05c-6.25-59.1-8.049-136.8,7.5-225.65c8.75-50,21.35-94.05,34.65-131.35c41.801-9.55,83.551-19.1,125.35-28.65
			c-14.9,36.95-29.8,86.1-35,145c-2.4,27.35-2.45,53.5-0.75,78.25c-27.101,59.851-36.5,120.801-24.25,176.75
			c15.701,71.5,60,120,60,120c43.3,47.4,94.05,63.5,155.25,82.05c45,13.651,114.95,29.2,203.75,26.25c0,0,407,9,408.95-237.05
			c1.5-189.8-282.401-245.3-318.9-303.65c-1.1-4.7-2.35-9.4-3.7-14.1c0,0,0,0,0-0.05c0,0,362.949-79,398.049-44.8
			C2563.5,2792.8,2541.899,3003.75,2570.5,3115.55z"/>
	</g>
	<g>
		<path style="fill:#E8BA9A;" d="M2452.902,3121.267c-1.929,246.037-408.889,237.052-408.889,237.052s-407.001,8.985-408.93-237.052
			c-1.601-204.969,339.317-178.712,327.579-242.467c-3.695-20.062-4.68-42.34-2.258-63.837
			c7.634,28.677,32.015,101.254,83.608,101.254c51.552,0,75.974-72.576,83.608-101.254c2.422,21.498,1.437,43.775-2.258,63.837
			C2113.585,2942.555,2454.543,2916.298,2452.902,3121.267z"/>
	</g>
	<g>
		<path style="fill:#512717;" d="M2602.046,3062.609c2.234-37.448,0.825-74.231-2.963-110.793
			c-3.654-36.544-9.505-72.782-16.665-108.76c-14.054-72.007-33.749-142.997-57.759-212.463
			c-23.979-69.468-51.998-137.625-84.86-203.175c-16.495-32.727-34.294-64.766-53.943-95.442
			c-19.63-30.653-40.986-60.117-64.835-86.708l14.174,6.264l-291.279-0.025v-38.284h0.064v38.284h-0.062v-38.284h0.065v38.284
			l-291.279,0.081l14.214-6.282c-23.762,26.664-45.017,56.183-64.543,86.883c-19.567,30.712-37.196,62.828-53.518,95.615
			c-32.54,65.664-60.144,133.917-83.867,203.378c-23.754,69.461-43.304,140.368-57.385,212.22
			c-7.075,35.914-13.237,72.018-17.215,108.467c-4.125,36.475-5.978,73.149-4.538,110.74
			c-12.46-35.577-17.572-73.701-19.291-111.538c-1.469-37.934,0.699-75.931,5.587-113.448
			c10.094-75.037,28.778-148.463,52.193-220.115c23.815-71.56,53.242-141.199,88.002-208.284
			c17.426-33.523,36.253-66.387,56.847-98.326c20.684-31.876,43.272-62.786,69.297-91.473l5.703-6.285l8.514,0.002l291.279,0.081
			v38.284h-0.065v-38.284h0.062v38.284h-0.064v-38.284l291.279-0.025l8.524-0.001l5.651,6.265
			c25.938,28.76,48.425,59.726,69.006,91.649c20.511,31.974,39.168,64.914,56.422,98.499
			c34.438,67.198,63.451,136.934,87.009,208.488c23.158,71.647,41.697,144.99,51.819,219.873
			c4.802,37.451,7.282,75.315,6.137,113.154C2618.381,2988.874,2613.714,3026.888,2602.046,3062.609z"/>
	</g>
	<g>
		<path style="fill:#512717;" d="M1637.705,3317.362c17.706,2.321,34.779,5.161,51.749,8.268c17.029,2.868,33.76,6.355,50.535,9.628
			c33.463,6.806,66.804,13.627,100.304,20.074c66.978,13.245,135.453,18.172,203.691,18.564
			c68.239-0.397,136.713-5.316,203.696-18.544c33.511-6.408,66.777-13.587,100.196-20.488l25.095-5.193
			c8.448-1.509,16.805-3.31,25.332-4.701c16.988-3.018,34.083-5.718,51.96-7.609c-14.073,11.308-29.702,19.833-45.581,27.486
			c-15.955,7.493-32.372,13.906-49.14,19.018c-33.449,10.599-67.776,18.239-102.44,23.305
			c-69.345,9.772-139.104,16.415-209.118,16.462c-70.013-0.052-139.772-6.685-209.121-16.441
			c-34.675-5.027-68.926-13.026-102.333-23.719c-8.364-2.62-16.628-5.6-24.799-8.844c-8.218-3.059-16.257-6.723-24.233-10.439
			C1667.601,3336.626,1651.951,3328.241,1637.705,3317.362z"/>
	</g>
	<g>
		<path style="fill:#E23B3B;" d="M1682.628,2545.221c-1.959-0.34-3.919-0.681-5.836-1.107
			C1677.644,2544.199,1679.774,2544.455,1682.628,2545.221z"/>
	</g>
	<g>
		<path style="fill:#EFD1B1;" d="M2452.95,3121.25C2451,3367.3,2044,3358.3,2044,3358.3c-88.8,2.95-158.75-12.599-203.75-26.25
			c-61.2-18.55-111.951-34.65-155.25-82.05c0,0-44.299-48.5-60-120c-12.25-55.95-2.85-116.9,24.25-176.75
			c0.702,10.257,1.703,20.267,2.956,30.015c21.391,166.438,207.297,259.022,350.418,171.412c2.464-1.508,4.923-3.066,7.376-4.676
			c104.8-68.75,155.4-202.55,124.05-332.4C2170.549,2875.95,2454.451,2931.45,2452.95,3121.25z"/>
	</g>
	<g>
		<path style="fill:#FFF3E9;" d="M2010,3150c-2.454,1.61-4.913,3.168-7.376,4.676c-143.121,87.61-329.027-4.974-350.418-171.412
			c-1.253-9.748-2.254-19.758-2.956-30.015c14.099-31.2,32.999-62.05,56.1-91.749c47.2-60.601,111.3-106.051,183.85-131.25
			c0.299-0.05,0.549-0.15,0.8-0.25c26.15-9.05,47.4-14.35,90-25c31.7-7.9,45.649-10.5,64-9.05c17.999,1.45,36.799,3.5,52.999,15.85
			c38.401,29.35,33.55,89.3,33.351,91.65c0,0.05,0,0.05,0,0.05c-0.5,4.75,0.8,9.45,3.7,14.1
			C2165.4,2947.45,2114.8,3081.25,2010,3150z"/>
	</g>
	<g>
		<g>
			<path style="fill:#FFAD40;" d="M2130.853,2795.459c-22.026,354.036-54.272,551.771-10.383,629.71
				c41.392,87.555,164.24,98.693,221.749,83.602c46.973,8.384,98.508,11.948,143.384-13.415
				c101.495-7.546,106.109-154.481-16.025-209.639c0,0,82.351-356.104,52.502-632.239c-9.95-92.045-41.125-251.08-152.288-393.647
				c0,0-22.797,222.438-105.275,361.774C2210.18,2713.402,2130.853,2795.459,2130.853,2795.459z"/>
		</g>
		<g>
			<path style="fill:#FFAD40;" d="M2098.825,3310.483c1.19,51.612,7.429,89.438,21.631,114.669
				c41.414,87.592,164.261,98.71,221.765,83.612c46.955,8.41,98.508,11.938,143.37-13.416
				c98.754-7.344,105.772-146.588-6.362-204.969c0,0,0,0-0.041,0c-3.119-1.641-6.321-3.2-9.604-4.677
				c0,0,82.336-356.071,52.496-632.221c-9.933-92.064-41.127-251.083-152.276-393.65c0,0-22.821,222.446-105.28,361.773
				c-54.343,91.776-133.683,173.871-133.683,173.871C2115.982,3034.825,2096.403,3202.747,2098.825,3310.483z"/>
		</g>
		<g>
			<path style="fill:#FD9D24;" d="M2098.825,3310.483c1.19,51.612,7.429,89.438,21.631,114.669
				c41.414,87.592,164.261,98.71,221.765,83.612c46.955,8.41,98.508,11.938,143.37-13.416
				c98.754-7.344,105.772-146.588-6.362-204.969c0,0,0,0-0.041,0c-3.119-1.641-6.321-3.2-9.604-4.677
				c0,0,82.336-356.071,52.496-632.221c-4.925-45.581-15.022-107.572-37.515-175.84c-22.903-69.622-58.653-145.809-114.761-217.81
				c0,0-14.94,145.439-64.194,274.755c-11.698,30.647-25.325,60.35-41.086,87.018c-54.343,91.776-133.683,173.871-133.683,173.871
				C2115.982,3034.825,2096.403,3202.747,2098.825,3310.483z"/>
		</g>
		<g>
			<path style="fill:#512717;" d="M2188.594,3198.435c82.403,36.452,182.794-76.358,299.109-3.453
				c3.813-20.984,7.895-44.927,11.977-71.202c0,0,0,0,0-0.045c-1.256-1.704-2.512-3.453-3.813-5.201
				C2411.221,3004.557,2274.182,3187.18,2188.594,3198.435z"/>
		</g>
		<g>
			<path style="fill:#512717;" d="M2198.642,2965.907c82.403,36.408,216.123-78.51,319.833,9.819l0.045-0.045
				c2.288-23.181,4.306-46.9,5.921-71.022v-0.045c-4.665-7.846-9.869-15.648-15.476-22.688
				C2420.731,2771.582,2280.776,2958.24,2198.642,2965.907z"/>
		</g>
		<g>
			<path style="fill:#512717;" d="M2195.771,2733.425c82.448,36.453,233.393-79.093,319.743,4.798l12.56,7.488
				c-0.762-29.054-2.512-57.795-5.338-85.729C2425.172,2523.362,2283.602,2722.978,2195.771,2733.425z"/>
		</g>
		<g>
			<g>
				<path style="fill:#FC7D27;" d="M2305.609,2534.587c66.451-14.113,126.869-33.478,178.955-56.945
					c-22.903-69.622-58.653-145.809-114.761-217.81C2369.803,2259.832,2354.863,2405.271,2305.609,2534.587z"/>
			</g>
		</g>
		<g>
			<g>
				<path style="fill:#FC7D27;" d="M2120.486,3425.151c41.374,87.592,164.22,98.71,221.724,83.612
					c46.996,8.41,98.508,11.938,143.41-13.416c49.542-3.692,76.015-40.616,75.892-83.859
					c-14.776,11.816-35.052,18.339-60.582,16.493c-31.44,23.836-77.615,23.508-118.414,13.785
					c-80.776,15.016-188.108,3.938-229.482-83.612c-43.877-77.869-11.41-282.551-22.698-553.942
					C2108.295,3152.734,2076.937,3347.898,2120.486,3425.151z"/>
			</g>
		</g>
		<g>
			<g>
				<path style="fill:#F9D3B7;" d="M2098.866,3310.524c0.246,10.052,0.657,19.529,1.272,28.555c0.123,1.6,0.246,3.2,0.369,4.8
					c0.123,1.6,0.287,3.159,0.41,4.718c0.575,6.646,1.313,12.964,2.216,18.995c0.37,2.421,0.739,4.759,1.108,7.098
					c0.451,2.749,0.944,5.457,1.519,8.082c0.287,1.272,0.534,2.544,0.821,3.815c0.246,1.272,0.533,2.503,0.862,3.734
					c0.329,1.231,0.616,2.461,0.944,3.651c0.615,2.379,1.272,4.718,1.97,6.974c0.657,2.257,1.396,4.472,2.216,6.646
					c1.149,3.2,2.381,6.277,3.694,9.19c0.862,1.928,1.765,3.774,2.709,5.58c0,0.082,0.041,0.164,0.123,0.246
					c0.451,0.862,0.944,1.723,1.396,2.544c3.94,8.369,8.66,16.041,13.955,23.057c1.313,1.764,2.709,3.487,4.104,5.169
					c2.832,3.323,5.787,6.523,8.866,9.559c53.728,52.801,146.899,58.381,194.799,45.827c46.955,8.41,98.508,11.938,143.37-13.416
					c21.631-1.6,38.87-9.559,51.388-21.58c4.515-4.308,8.414-9.108,11.657-14.359c1.313-2.092,2.545-4.308,3.653-6.523
					c1.642-3.323,3.12-6.81,4.31-10.38c3.284-9.641,4.966-20.144,4.925-31.016l-0.041,0.041
					c-14.776,11.775-35.052,18.298-60.541,16.452c-31.441,23.836-77.616,23.508-118.415,13.785
					c-80.776,15.016-188.109,3.939-229.482-83.612c-4.474-7.959-8.168-17.231-11.164-27.816
					C2124.847,3328.863,2109.866,3323.037,2098.866,3310.524z"/>
			</g>
		</g>
		<g>
			<path style="fill:#FFF3E9;" d="M2098.825,3310.483c1.19,51.612,7.429,89.438,21.631,114.669
				c41.414,87.592,164.261,98.71,221.765,83.612c46.955,8.41,98.508,11.938,143.37-13.416
				c98.754-7.344,105.772-146.588-6.362-204.969c0,0,0,0-0.041,0c-54.384-18.913-130.851-20.103-234.982,19.241
				C2192.9,3327.632,2130.06,3346.012,2098.825,3310.483z"/>
		</g>
		<g>
			<path style="fill:#F9D3B7;" d="M2098.825,3310.483c0.246,10.052,0.657,19.57,1.313,28.596c0.123,1.6,0.246,3.2,0.369,4.8
				c0.123,1.6,0.287,3.159,0.41,4.718c0.575,6.646,1.313,12.964,2.216,18.995c0.328,2.421,0.698,4.759,1.108,7.098
				c0.451,2.749,0.944,5.457,1.519,8.082c0.287,1.272,0.534,2.544,0.821,3.815c0.246,1.272,0.533,2.503,0.862,3.734
				c0.329,1.231,0.616,2.461,0.944,3.651c0.615,2.379,1.272,4.718,1.97,6.974c0.657,2.257,1.396,4.472,2.216,6.646
				c1.108,3.2,2.34,6.277,3.694,9.19c0.862,1.928,1.765,3.774,2.709,5.58c0,0.082,0.041,0.164,0.123,0.246
				c0.41,0.862,0.903,1.723,1.354,2.544c3.94,8.369,8.66,16.041,13.996,23.057c1.313,1.764,2.709,3.487,4.104,5.169
				c2.791,3.323,5.746,6.523,8.866,9.559c53.728,52.801,146.899,58.381,194.799,45.827c46.955,8.41,98.508,11.938,143.37-13.416
				c21.631-1.6,38.87-9.559,51.388-21.58c4.515-4.308,8.373-9.149,11.657-14.359c1.313-2.092,2.545-4.308,3.653-6.523
				c1.642-3.323,3.078-6.81,4.31-10.38c3.284-9.641,4.925-20.103,4.885-30.975c-14.776,11.775-35.052,18.298-60.541,16.452
				c-31.441,23.836-77.616,23.508-118.415,13.785c-80.776,15.016-188.109,3.939-229.482-83.612
				c-4.474-7.959-8.168-17.231-11.164-27.816c-17.033-1.477-32.015-7.303-43.015-19.816L2098.825,3310.483z"/>
		</g>
		<g>
			<g>
				<path style="fill:#512717;" d="M2130.853,2795.46c1.129,52.997,0.835,105.98-0.661,158.874
					c-1.293,52.907-3.746,105.736-6.1,158.449l-3.903,78.896c-1.346,26.229-2.911,52.399-3.427,78.438
					c-0.628,25.988-0.914,51.986,1.322,77.232c1.104,12.619,2.775,25.065,5.509,36.878c2.726,11.792,6.377,23.077,11.748,32.569
					l0.261,0.461l0.298,0.62c8.01,16.652,20.015,31.099,34.927,42.515c14.893,11.444,32.449,19.981,51.08,25.81
					c18.645,5.833,38.341,9.143,58.088,10.138c19.655,0.969,39.835-0.307,57.675-4.904l3.8-0.979l3.9,0.671
					c23.411,4.027,46.628,6.611,68.988,5.215c22.326-1.39,43.545-6.948,61.852-17.607l3.217-1.873l4.762-0.546l0.01-0.001
					c19.859-1.138,37.229-9.64,47.592-24.856c10.564-15.074,13.892-35.985,10.408-56.139c-3.382-20.283-13.243-39.821-27.207-56.01
					c-14.002-16.238-32.205-29.165-52.427-38.046l-0.007-0.003l-12.593-5.954l2.995-13.434
					c9.494-42.579,17.583-86.193,24.847-129.598c7.222-43.493,13.439-87.152,18.623-130.906
					c10.215-87.496,16.341-175.516,14.897-263.169c-0.898-43.79-3.663-87.483-9.594-130.562
					c-6.052-43.08-15.21-85.714-27.851-127.251c-25.138-83.06-64.255-161.921-117.509-230.094
					c-5.785-7.405-4.471-18.099,2.935-23.884c7.406-5.785,18.099-4.471,23.884,2.934l0.019,0.024
					c56.048,71.743,97.031,154.529,123.237,241.14c13.183,43.325,22.704,87.676,28.989,132.419
					c6.168,44.803,8.995,89.784,9.916,134.653c1.467,89.766-4.779,179.112-15.098,267.767
					c-5.242,44.327-11.525,88.503-18.823,132.51c-7.374,44.069-15.437,87.705-25.236,131.702l-9.597-19.387l0.008,0.004
					c11.895,5.561,23.455,12.051,34.287,19.773c10.784,7.775,20.886,16.664,29.868,26.709c17.919,20.061,31.349,44.934,36.479,72.38
					c2.556,13.687,3.029,27.987,0.792,42.216c-2.262,14.191-7.333,28.374-15.692,40.887c-8.284,12.532-19.932,23.14-33.237,30.214
					c-13.281,7.189-27.885,10.889-42.07,12.039l-0.015,0.001l7.977-2.418c-12.195,6.74-25.262,11.823-38.558,15.228
					c-13.303,3.422-26.804,5.205-40.111,5.795c-26.663,1.213-52.475-2.037-77.258-6.586l7.698-0.308
					c-23.346,5.779-46.013,6.78-68.652,5.599c-22.587-1.301-45.029-5.192-66.831-12.167c-21.752-6.982-42.94-17.281-61.619-31.821
					c-18.676-14.449-34.432-33.538-44.625-55.254l0.558,1.079c-7.439-13.658-12.064-27.729-15.309-41.624
					c-3.272-13.918-5.148-27.718-6.416-41.392c-2.681-27.37-3.088-54.297-2.901-81.104c0.513-26.779,1.568-53.381,3.335-79.884
					c1.779-26.498,4.227-52.882,6.919-79.208c5.542-52.643,11.608-105.121,18.274-157.563
					C2115.978,2900.314,2123.134,2847.907,2130.853,2795.46z"/>
			</g>
		</g>
		<g>
			<path style="fill:#512717;" d="M2222.638,3322.22c16.941-13.085,36.313-23.118,56.341-31.265
				c20.086-8.114,41.006-14.305,62.371-18.821c21.374-4.492,43.226-7.309,65.406-8.065c22.171-0.719,44.719,0.567,67.297,5.231
				l0.157,0.032c9.227,1.906,15.162,10.931,13.256,20.157c-1.906,9.227-10.931,15.162-20.157,13.256
				c-0.726-0.15-1.523-0.378-2.206-0.612c-18.621-6.545-38.718-10.507-59.155-12.553c-20.464-2.031-41.34-2.158-62.181-0.603
				c-20.842,1.576-41.687,4.815-62.114,10.055C2261.26,3304.324,2241.165,3311.501,2222.638,3322.22z"/>
		</g>
		<g>
			<path style="fill:#512717;" d="M2469.51,3347.23c20.628,20.285,35.201,47.894,39.737,78.46
				c2.193,15.277,1.731,31.474-2.81,47.384c-4.457,15.863-13.433,31.327-26.201,43.3l-21.316-26.527
				c9.789-5.994,17.988-14.879,23.688-25.916c5.728-11.009,8.925-23.966,9.646-37.374
				C2493.64,3399.664,2485.79,3371.1,2469.51,3347.23z"/>
		</g>
		<g>
			<path style="fill:#512717;" d="M2348.089,3347.23c12.063,9.788,21.994,22.523,29.365,36.732
				c7.362,14.232,12.279,30.005,13.995,46.558c1.685,16.509,0.141,34.019-6.453,50.712c-6.426,16.703-18.77,31.988-34.432,42.367
				l-16.69-29.657c11.284-4.764,21.256-12.824,28.236-24.008c7.043-11.101,11.168-24.823,12.327-39.126
				c1.169-14.329-0.499-29.269-4.848-43.605C2365.226,3372.877,2358.159,3359.05,2348.089,3347.23z"/>
		</g>
	</g>
	<g>
		<line style="fill:#FFAD40;" x1="2041.866" y1="2496.795" x2="2041.806" y2="2496.795"/>
	</g>
	<g>
		<g>
			<path style="fill:#B5CFDD;" d="M1439.344,2541.048c0,0,15.594-63.044,12.669-131.738"/>
		</g>
		<g>
			<path style="fill:#512717;" d="M1439.344,2541.047c2.106-22.188,2.543-44.382,1.796-66.333
				c-0.354-10.972-1.076-21.885-2.188-32.683c-0.994-10.806-2.651-21.47-4.422-31.978l34.965-1.487
				c-1.102,11.597-2.37,23.062-4.311,34.36c-1.824,11.309-4.048,22.476-6.631,33.511
				C1453.43,2498.496,1447.145,2520.122,1439.344,2541.047z"/>
		</g>
	</g>
	<g>
		<path style="fill:#512717;" d="M1208.098,2012.166c16.293,21.15,34.301,40.771,53.348,58.848
			c9.478,9.08,19.436,17.551,29.55,25.569c10.106,8.052,20.717,15.195,31.354,21.824l-21.38,27.708
			c-10.132-9.924-19.714-20.093-28.398-30.837c-8.701-10.72-16.935-21.648-24.485-32.961
			C1232.906,2059.775,1219.438,2036.392,1208.098,2012.166z"/>
	</g>
	<g>
		<g>
			<path style="fill:#FD9D24;" d="M1157.64,2766.296c126.967,83.75,327.737,35.629,475.156-14.899
				c20.961-7.172,40.857-14.437,59.273-21.331l75.375-270.407l41.505-148.854c-92.727,16.796-171.295,43.818-243.246,60.013
				c-44.05,9.902-85.601,15.779-126.366,12.771c0,0-230.799-135.157-276.376-99.251c-29.706,69.406-73.062,160.838-87.961,249.401
				c0,0,0,0,0,0.046C1060.101,2622.347,1073.612,2708.087,1157.64,2766.296z"/>
		</g>
		<g>
			<path style="fill:#FC7D27;" d="M1157.639,2766.296c126.968,83.75,327.737,35.629,475.156-14.899
				c15.735-5.466,31.47-10.931,47.205-16.397c-25.084,3.196-70.369,5.176-120-15c-17.988-7.313-45.574-18.527-70-45
				c0,0-13.297-14.411-50.663-85.505l0,0c0,0-37.85,122.341-191.238,109.338c-142.329-12.077-172.637-162.735-173.099-165.049
				C1060.1,2622.347,1073.612,2708.088,1157.639,2766.296z"/>
		</g>
		<g>
			<path style="fill:#FC7D27;" d="M1525,2399.178c53.743,54.578,135.681,100.025,235.497,130.823l48.45-219.197
				C1700.705,2335.538,1608.991,2375.33,1525,2399.178z"/>
		</g>
		<g>
			<path style="fill:#512717;" d="M1812.094,2328.011c-30.485,5.615-60.798,12.523-91.062,20.232
				c-30.275,7.688-60.492,16.193-91.069,24.429c-30.581,8.2-61.564,16.172-93.513,21.831c-31.896,5.629-64.955,8.857-98.384,6.561
				c-2.672-0.184-5.16-0.97-7.338-2.217l-0.226-0.135c-21.205-12.256-43.179-24.184-65.128-35.553
				c-22.007-11.372-44.236-22.263-66.7-32.311c-22.451-9.998-45.209-19.293-68.022-26.375c-11.366-3.472-22.832-6.42-33.672-7.866
				c-5.383-0.712-10.615-0.993-15.034-0.666c-4.391,0.303-7.573,1.606-8.181,2.158l-0.001,0.001l5.265-6.868
				c-16.986,42.08-34.68,83.129-49.849,124.757c-7.618,20.781-14.585,41.687-20.466,62.732
				c-5.919,21.025-10.892,42.178-14.084,63.373c-6.338,42.241-6.024,85.174,7.808,123.085c6.841,18.915,17.07,36.324,30.189,51.614
				c13.108,15.277,29.056,28.766,46.395,39.069c35.435,21.134,77.378,31.772,120.137,35.793c42.93,3.935,86.965,1.248,130.591-4.93
				c21.837-3.083,43.665-6.854,65.457-11.161c21.882-3.953,43.562-9.111,65.405-13.959c43.585-10.1,87.13-21.445,131.467-31.541
				c-40.042,21.532-81.708,39.718-124.619,54.945c-21.396,7.825-43.27,14.29-65.288,20.503
				c-22.101,5.874-44.495,10.903-67.177,14.779c-45.339,7.636-91.791,11.844-138.801,8.813
				c-46.829-2.943-94.755-14.147-137.408-38.607l-7.965-4.79c-2.681-1.564-5.311-3.197-7.739-5.113
				c-4.929-3.717-10.046-7.237-14.792-11.172c-4.625-4.072-9.338-8.044-13.861-12.25c-4.304-4.469-8.68-8.878-12.886-13.453
				c-16.454-18.73-29.414-40.817-37.999-64.226c-8.644-23.428-12.99-48-14.2-72.214c-1.229-24.26,0.798-48.206,4.471-71.528
				c7.433-46.716,21.898-90.984,38.453-133.699c16.597-42.733,35.974-83.887,54.585-124.584l0.505-1.105
				c1.085-2.372,2.783-4.346,4.761-5.765l0.013-0.01c9.451-7.119,18.983-8.757,26.973-9.531c8.077-0.595,15.406-0.055,22.428,0.848
				c13.994,1.892,26.847,5.3,39.419,9.118c25.032,7.783,48.71,17.511,71.998,27.868c23.256,10.403,46.018,21.561,68.503,33.179
				c22.518,11.67,44.579,23.633,66.736,36.438l-7.561-2.352c29.519,2.019,59.655-0.804,89.745-6.123
				c30.117-5.327,60.243-13.042,90.508-21.163c30.269-8.151,60.715-16.724,91.52-24.547c30.797-7.845,61.952-14.954,93.447-20.751
				c9.504-1.75,18.628,4.537,20.377,14.042s-4.537,18.627-14.042,20.377L1812.094,2328.011z"/>
		</g>
		<g>
			<path style="fill:#512717;" d="M1082.039,2499.57c4.827,64.566,42.927,104.385,105.078,124.352
				c80.565,25.883,195.033-23.331,236.592-34.268c-46.116,42.47-109,151.652-249.983,123.272
				c-88.704-17.856-98.646-126.878-98.344-181.493"/>
		</g>
		<g>
			<path style="fill:#512717;" d="M1229.04,2393.892c80.565,25.883,175.263,87.856,216.822,76.92
				c-32.36,34.632-133.34,85.304-232.862,49.368c-59.786-21.588-98.064-78.451-104.941-104.127"/>
		</g>
		<g>
			<path style="fill:#512717;" d="M1221.352,2796.167c162.075,7.08,215.39-80.197,256.948-108.905
				c-18.865,35.543-36.364,108.544-92.654,124.533"/>
		</g>
		<g>
			<path style="fill:#512717;" d="M1554.884,2373.181c-7.958,49.692,2.979,155.646,2.979,155.646s47.357-124.819,100.594-182.04"/>
		</g>
		<g>
			<path style="fill:#512717;" d="M1439.344,2586.048c2.106-22.189,2.544-44.383,1.796-66.334
				c-0.354-10.971-1.075-21.884-2.188-32.681c-0.994-10.805-2.65-21.47-4.421-31.976v-0.001l17.921,16.748l-241.19,6.056
				l-0.879-34.986l241.19-6.056l0.729-0.018c9.26-0.232,16.956,7.086,17.189,16.346c0.002,0.114,0.004,0.308,0.005,0.421v0.001
				c-1.101,11.598-2.371,23.063-4.312,34.361c-1.824,11.309-4.048,22.476-6.631,33.51
				C1453.43,2543.496,1447.145,2565.123,1439.344,2586.048z"/>
		</g>
	</g>
	<g>
		<g>
			<g>
				<path style="fill:#FF8710;" d="M1453.842,1979.076"/>
			</g>
			<g style="opacity:0.4;">
				<path style="fill:#FFFFFF;" d="M1415.607,1579.126c1.089-2.987,1.715-4.57,1.715-4.57s0.094-8.526,1.032-23.727
					C1417.213,1561.334,1416.31,1570.799,1415.607,1579.126z"/>
			</g>
			<g>
				<g>
					<path style="fill:#FD9D24;" d="M1835.367,829.657c-107.261-64.677-127.422-275.167-237.218-343.506
						c-156.792-80.415-342.461,158.975-314.978,350.245c24.425,169.985,167.223,235.055,239.446,247.576"/>
				</g>
				<g>
					<path style="fill:#FD9D24;" d="M1835.353,829.676l-312.751,254.3c-72.192-12.53-215.02-77.608-239.433-247.57
						c-1.547-10.765-2.403-21.693-2.622-32.698c-4.043-184.503,169.651-393.418,317.583-317.567
						c83.055,51.693,114.832,184.639,171.738,274.39C1788.234,789.479,1809.214,813.936,1835.353,829.676z"/>
				</g>
				<g>
					<path style="fill:#512717;" d="M1769.868,760.532c-0.012,0.134-0.069,0.264-0.126,0.394
						c-12.395,11.033-97.35-99.72-172.182,0.379c-82.199,109.831-100.075-86.551-165.215-83.945
						c-65.136,2.561-94.092,130.723-94.092,130.723s-29.949-6.991-57.706-4.374c-4.043-184.503,169.651-393.418,317.583-317.567
						C1681.186,537.834,1712.963,670.78,1769.868,760.532z"/>
				</g>
				<g>
					<path style="fill:#512717;" d="M1522.637,1100.992c-0.964,0-1.943-0.082-2.927-0.253
						c-82.178-14.248-228.025-85.447-253.381-261.923c-17.627-122.681,47.107-270.877,150.576-344.714
						c63.11-45.035,130.232-53.236,189.011-23.091c0.417,0.215,0.825,0.447,1.226,0.695
						c59.348,36.94,93.362,110.155,126.257,180.959c31.741,68.323,61.721,132.855,110.754,162.421
						c8.047,4.852,10.637,15.31,5.784,23.358c-4.849,8.047-15.308,10.64-23.357,5.785
						c-57.939-34.938-91.545-107.272-124.043-177.225c-30.674-66.024-62.388-134.287-112.783-166.033
						c-59.861-30.328-116.255-5.445-153.081,20.833c-92.317,65.879-152.344,203.002-136.658,312.174
						c22.581,157.161,152.375,220.552,225.51,233.231c9.258,1.605,15.464,10.413,13.857,19.672
						C1537.947,1095.156,1530.759,1100.992,1522.637,1100.992z"/>
				</g>
				<g>
					<path style="fill:#FF8F8F;" d="M1618.894,894.809c-10.741,53.261-79.904,94.456-115.863,97.718
						c-59.065-7.853-155.609-99.841-148.985-203.15c7.266-113.318,79.461-194.555,134.994-185.469
						c21.481,3.515,43.922,48.855,57.63,82.037C1590.724,792.589,1631.592,831.844,1618.894,894.809z"/>
				</g>
				<g>
					<path style="fill:#FF8F8F;" d="M1354.035,789.369c-3.565,55.491,22.644,107.752,56.812,145.362
						c29.482,32.475,64.827,54.155,92.206,57.803c35.929-3.247,105.102-44.487,115.856-97.693
						c12.704-62.99-28.178-102.235-72.237-208.916c-13.713-33.137-36.178-78.486-57.612-82.006
						c-20.985-3.418-44.411,6.066-65.742,25.339C1388.193,660.88,1358.554,718.894,1354.035,789.369z"/>
				</g>
				<g>
					<path style="fill:#F27070;" d="M1423.319,629.258c18.301-3.286,38.64,3.844,54.761,37.657
						c38.937,81.872,71.729,150.714,40.443,212.685c-19.491,38.626-63.573,61.416-107.677,55.132
						c29.482,32.475,64.827,54.155,92.206,57.803c35.929-3.247,105.102-44.487,115.856-97.693
						c12.704-62.99-28.178-102.235-72.237-208.916c-13.713-33.137-36.178-78.486-57.612-82.006
						C1468.075,600.501,1444.65,609.984,1423.319,629.258z"/>
				</g>
				<g>
					<path style="fill:#512717;" d="M1503.03,1009.543c-0.75,0-1.499-0.049-2.244-0.148
						c-69.656-9.262-170.715-112.001-163.721-221.106c4.69-73.141,36.123-141.281,82.039-177.827
						c23.677-18.85,49.497-27.139,72.683-23.345c14.946,2.445,38.528,14.677,70.608,92.332
						c13.867,33.566,27.307,60.127,39.165,83.562c25.432,50.266,43.806,86.592,34.014,135.161l0,0
						c-12.275,60.88-86.98,107.308-131.006,111.301C1504.055,1009.519,1503.542,1009.543,1503.03,1009.543z M1480.449,620.237
						c-12.302,0-26.326,5.844-40.151,16.851c-38.049,30.286-65.239,90.491-69.272,153.379
						c-6.067,94.642,82.363,176.497,132.341,184.906c30.591-4.003,89.98-39.95,98.848-83.927c0,0,0,0,0-0.001
						c7.463-37.008-7.021-65.638-31.021-113.07c-12.134-23.981-25.886-51.161-40.251-85.933
						c-23.42-56.691-40.171-71.008-44.648-71.741C1484.397,620.391,1482.446,620.237,1480.449,620.237z"/>
				</g>
			</g>
			<g>
				<g>
					<path style="fill:#FD9D24;" d="M2639.682,902.548c117.14-44.34,174.814-247.777,295.106-295.264
						c168.694-50.918,308.303,217.95,246.881,401.164c-54.586,162.824-206.755,201.163-280.053,200.497"/>
				</g>
				<g>
					<path style="fill:#FD9D24;" d="M2639.692,902.569l261.939,306.381c73.268,0.652,225.468-37.689,280.039-200.493
						c3.457-10.312,6.264-20.907,8.457-31.694c37.146-180.77-96.161-417.507-255.319-369.486
						c-90.995,35.919-146.155,160.987-218.268,239.046C2693.27,871.498,2668.235,891.784,2639.692,902.569z"/>
				</g>
				<g>
					<path style="fill:#512717;" d="M2716.54,846.324c-0.012,0.134,0.021,0.272,0.053,0.41
						c10.21,13.081,113.691-80.595,169.309,31.326c61.115,122.819,114.004-67.15,177.615-52.876
						c63.615,14.229,69.058,145.509,69.058,145.509s30.718-1.493,57.553,6.071c37.146-180.77-96.161-417.507-255.319-369.486
						C2843.813,643.197,2788.654,768.264,2716.54,846.324z"/>
				</g>
				<g>
					<path style="fill:#512717;" d="M2903.582,1225.97c-0.713,0-1.416-0.002-2.119-0.01c-9.397-0.085-16.946-7.771-16.86-17.168
						s7.937-16.865,17.168-16.86c74.25,0.625,213.301-38.352,263.767-188.893c35.056-104.572,0.657-250.252-78.313-331.654
						c-31.497-32.47-82.495-67.089-146.841-48.014c-55.283,22.169-98.752,83.619-140.796,143.055
						c-44.543,62.97-90.605,128.084-153.882,152.035c-8.784,3.325-18.611-1.1-21.936-9.889c-3.328-8.789,1.101-18.611,9.89-21.937
						c53.547-20.27,94.639-78.361,138.145-139.862c45.088-63.738,91.711-129.647,156.736-155.315
						c0.437-0.173,0.881-0.327,1.331-0.463c63.247-19.091,127.795,1.048,181.78,56.694
						c88.511,91.237,125.547,248.654,86.152,366.167C3141.609,1181.47,2987.485,1225.97,2903.582,1225.97z"/>
				</g>
				<g>
					<path style="fill:#FF8F8F;" d="M2840.915,1005.555c0.991,54.324,61.621,107.282,96.409,116.955
						c59.514,2.893,171.023-70.24,183.079-173.057c13.224-112.778-43.19-205.671-99.453-206.716
						c-21.763-0.404-51.99,40.163-71.439,70.34C2887.003,910.064,2839.744,941.332,2840.915,1005.555z"/>
				</g>
				<g>
					<path style="fill:#FF8F8F;" d="M3120.414,949.447c-6.469,55.228-41.646,101.925-82.019,132.781
						c-34.84,26.646-73.506,41.619-101.095,40.285c-34.76-9.653-95.392-62.657-96.406-116.929
						c-1.173-64.247,46.099-95.504,108.617-192.527c19.447-30.132,49.698-70.703,71.416-70.313
						c21.258,0.41,42.597,13.951,60.115,36.745C3109.912,816.91,3128.638,879.308,3120.414,949.447z"/>
				</g>
				<g>
					<path style="fill:#F27070;" d="M3081.043,779.489c-17.412-6.522-38.701-3.165-60.639,27.199
						c-53.021,73.539-97.654,135.363-78.02,201.95c12.229,41.5,51.496,71.844,96.011,73.591
						c-34.84,26.646-73.506,41.619-101.095,40.285c-34.76-9.653-95.392-62.657-96.406-116.929
						c-1.173-64.247,46.099-95.504,108.617-192.527c19.447-30.132,49.698-70.703,71.416-70.313
						C3042.186,743.154,3063.525,756.695,3081.043,779.489z"/>
				</g>
				<g>
					<path style="fill:#512717;" d="M2940.745,1139.607c-1.438,0-2.847-0.034-4.246-0.101c-1.265-0.062-2.515-0.264-3.733-0.602
						c-42.59-11.842-107.729-70.944-108.862-133.04c-0.906-49.543,23.701-81.968,57.759-126.846
						c15.876-20.922,33.872-44.634,53.547-75.159c45.515-70.624,71.072-78.37,86.055-78.136c23.496,0.437,47.4,13.234,67.305,36.031
						c38.596,44.206,57.271,116.887,48.733,189.679C3124.824,1057.853,3011.338,1139.599,2940.745,1139.607z M2940.076,1105.574
						c0.281,0.005,0.557,0.006,0.837,0.006c50.95,0,151.606-64.429,162.59-158.108c7.339-62.589-8.584-126.7-40.569-163.334
						c-13.508-15.471-28.53-24.133-42.3-24.388c-0.017-0.001-0.037-0.001-0.054-0.001c-4.629,0-23.662,11.18-56.768,62.546
						c-20.381,31.622-38.794,55.888-55.042,77.296c-32.136,42.345-51.533,67.904-50.845,105.653l0,0
						C2858.748,1050.101,2910.706,1096.138,2940.076,1105.574z"/>
				</g>
			</g>
			<g>
				<path style="fill:#FD9D24;" d="M2251.727,721.236c443.263,40.429,739.48,288.79,800.964,747.742
					c20.832,108.131,19.552,301.901,188.228,395.995c-31.531,71.988-126.4,137.507-199.556,154.352
					c9.178,39.593,23.791,199.086-41.064,338.047c-102.819-46.81-141.584-50.405-163.495-47.145c0,0-256.596,182.404-741.367,134.72
					c-485.445-40.242-705.069-265.803-705.069-265.803c-20.968-7.146-59.748-10.578-169.307,16.985
					c-38.817-148.356,4.23-302.624,20.377-339.922c-68.936-29.723-150.48-111.228-168.557-187.712
					c182.843-62.238,216.419-253.081,256.35-355.705c142.989-440.422,479.029-631.485,922.339-591.568"/>
			</g>
			<g>
				<path style="fill:#FD9D24;" d="M3041.372,2019.336c9.158,39.593,23.802,199.08-41.084,338.033
					c-102.82-46.821-141.589-50.425-163.506-47.143c0,0-256.555,182.406-741.336,134.736
					c-485.454-40.257-705.082-265.817-705.082-265.817c-20.97-7.169-59.755-10.594-169.317,16.98
					c-38.803-148.35,4.228-302.61,20.4-339.907c-68.964-29.751-150.49-111.244-168.559-187.706
					c182.835-62.263,216.432-253.08,256.361-355.711c10.504-32.409,22.105-63.502,34.706-93.2
					c158.31-374.141,476.902-535.348,887.617-498.398l0.178,0.016c410.13,37.438,694.368,252.827,783.236,648.422
					c7.195,31.942,13.11,65.073,17.707,99.346c20.828,108.137,19.53,301.881,188.237,396.003
					C3209.409,1936.958,3114.516,2002.464,3041.372,2019.336z"/>
			</g>
			<g>
				<path style="fill:#FFF8EE;" d="M3041.372,2019.336c9.158,39.593,23.802,199.08-41.084,338.033
					c-102.82-46.821-141.589-50.425-163.506-47.143c0,0-256.555,182.406-741.336,134.736
					c-485.454-40.257-705.082-265.817-705.082-265.817c-20.97-7.169-59.755-10.594-169.317,16.98
					c-38.803-148.35,4.228-302.61,20.4-339.907c-68.964-29.751-150.49-111.244-168.559-187.706
					c182.835-62.263,216.432-253.08,256.361-355.711c10.504-32.409,22.105-63.502,34.706-93.2
					c1.595,21.665-0.63,47.215-7.777,77.362c-68.439,288.506,15.153,530.102,258.711,624.298
					c243.035,94.014,302.327-149.715,539.247-128.38c236.965,21.34,251.706,271.688,507.662,222.625
					c256.46-49.152,381.911-271.938,366.135-568.032c-1.663-30.855,0.697-56.393,6.12-77.467c0.325-0.106,0.609-0.26,0.934-0.366
					c7.195,31.942,13.11,65.073,17.707,99.346c20.828,108.137,19.53,301.881,188.237,396.003
					C3209.409,1936.958,3114.516,2002.464,3041.372,2019.336z"/>
			</g>
			<g>
				<path style="fill:#FFF8EE;" d="M3041.372,2019.336c9.158,39.593,23.802,199.08-41.084,338.033
					c-102.82-46.821-141.589-50.425-163.506-47.143c0,0-256.555,182.406-741.336,134.736
					c-485.454-40.257-705.082-265.817-705.082-265.817c-20.97-7.169-59.755-10.594-169.317,16.98
					c-38.803-148.35,4.228-302.61,20.4-339.907c-68.964-29.751-150.49-111.244-168.559-187.706
					c182.835-62.263,216.432-253.08,256.361-355.711c10.504-32.409,22.105-63.502,34.706-93.2
					c1.595,21.665-0.63,47.215-7.777,77.362c-68.439,288.506,15.153,530.102,258.711,624.298
					c243.035,94.014,302.327-149.715,539.247-128.38c236.965,21.34,251.706,271.688,507.662,222.625
					c256.46-49.152,381.911-271.938,366.135-568.032c-1.663-30.855,0.697-56.393,6.12-77.467c0.325-0.106,0.609-0.26,0.934-0.366
					c7.195,31.942,13.11,65.073,17.707,99.346c20.828,108.137,19.53,301.881,188.237,396.003
					C3209.409,1936.958,3114.516,2002.464,3041.372,2019.336z"/>
			</g>
			<g>
				<path style="fill:#FFF8EE;" d="M3041.372,2019.336c4.913,21.335,11.453,77.394,6.289,146.303
					c-4.407,59.073-17.418,127.587-47.373,191.729c-102.82-46.821-141.589-50.425-163.506-47.143
					c0,0-256.555,182.406-741.336,134.736c-485.454-40.257-705.082-265.817-705.082-265.817
					c-20.97-7.169-59.755-10.594-169.317,16.98c-17.891-68.478-18.372-138.215-12.088-197.118
					c7.308-68.715,23.775-122.689,32.488-142.789c-68.964-29.751-150.49-111.244-168.559-187.706
					c182.835-62.263,216.432-253.08,256.361-355.711c10.504-32.409,22.105-63.502,34.706-93.2
					c1.595,21.665-0.63,47.215-7.777,77.362c-68.439,288.506,15.153,530.102,258.711,624.298
					c243.035,94.014,302.327-149.715,539.247-128.38c236.965,21.34,251.706,271.688,507.662,222.625
					c256.46-49.152,381.911-271.938,366.135-568.032c-1.663-30.855,0.697-56.393,6.12-77.467c0.325-0.106,0.609-0.26,0.934-0.366
					c7.195,31.942,13.11,65.073,17.707,99.346c20.828,108.137,19.53,301.881,188.237,396.003
					C3209.409,1936.958,3114.516,2002.464,3041.372,2019.336z"/>
			</g>
			<g>
				<path style="fill:#EFD1B1;" d="M3000.288,2357.369c-102.82-46.821-141.589-50.425-163.506-47.143
					c0,0-256.555,182.406-741.336,134.736c-485.454-40.257-705.082-265.817-705.082-265.817
					c-20.97-7.169-59.755-10.594-169.317,16.98c-17.891-68.478-18.372-138.215-12.088-197.118l0.849,0.077
					c25.188,66.978,68.964,105.792,84.032,18.556c85.806,78.504,384.59,279.498,811.494,318.232
					c0.045,0.004,0.045,0.004,0.089,0.008c426.912,38.644,756.962-105.363,855.482-167.162
					c-0.861,88.524,49.179,58.212,85.999-3.147l0.759,0.069C3043.253,2224.713,3030.243,2293.227,3000.288,2357.369z"/>
			</g>
			<g>
				<path style="fill:#512717;" d="M1639.694,1918.169c-17.671-7.83-149.381-58.33-185.744-131.955
					c-35.773-72.432-45.635-232.49-45.635-232.49s-46.146,138.735-16.84,240.933
					C1423.666,1906.913,1600.561,1921.261,1639.694,1918.169z"/>
			</g>
			<g>
				<path style="fill:#512717;" d="M1522.856,1997.061c-17.671-7.83-169.433-76.479-208.592-161.217
					c-39.953-86.458-18.333-288.834,6.982-402.479c-60.542,134.792-124.206,364.372-73.206,444.86
					C1309.09,1974.575,1483.723,2000.153,1522.856,1997.061z"/>
			</g>
			<g>
				<path style="fill:#512717;" d="M2636.821,2007.953c18.785-4.547,157.398-30.707,206.328-96.652
					c48.137-64.876,86.432-220.599,86.432-220.599s20.621,144.747-26.47,240.066
					C2851.384,2035.469,2674.772,2017.985,2636.821,2007.953z"/>
			</g>
			<g>
				<path style="fill:#512717;" d="M2737.686,2106.447c18.785-4.547,180.37-44.982,234.036-121.362
					c54.755-77.93,69.634-280.914,65.028-397.252c35.49,143.439,57.118,380.699-7.439,450.782
					C2952.031,2122.509,2775.637,2116.479,2737.686,2106.447z"/>
			</g>
			<g>
				<path style="fill:#512717;" d="M1711.187,1084.442c14.948-41.03,113.603-172.978,188.416-104.518
					c26.373,24.133,14.931,83.533-25.669,90.005C1814.75,1079.363,1803.095,1070.677,1711.187,1084.442z"/>
			</g>
			<g>
				<path style="fill:#512717;" d="M2718.015,1175.605c-7.333-43.048-80.681-190.572-166.575-136.665
					c-30.279,19.003-29.694,79.492,9.083,93.152C2617.05,1152.005,2630.074,1145.554,2718.015,1175.605z"/>
			</g>
			<g>
				<g>
					<g>
						<path style="fill:#FFF8EE;" d="M1920.698,1830.866c-37.914,44.705-104.896,88.798-197.4,78.309
							c-127.837-14.495-213.552-102.253-233.615-206.27c-36.729-190.428,130.934-430.184,302.807-395.437
							c185.142,37.43,199.393,248.592,178.086,395.701C1960.366,1773.671,1936.792,1811.889,1920.698,1830.866z"/>
					</g>
				</g>
			</g>
			<g>
				<g>
					<g>
						<path style="fill:#FFF8EE;" d="M2377.881,1872.298c29.26,50.793,87.223,106.209,180.107,112.521
							c128.36,8.723,228.455-62.196,266.89-160.912c70.364-180.723-51.465-446.714-226.785-443.431
							c-188.855,3.536-240.835,208.696-246.321,357.239C2349.142,1808.904,2365.461,1850.737,2377.881,1872.298z"/>
					</g>
				</g>
			</g>
			<g>
				<path style="fill:#512717;" d="M1297.255,2049.118c14.349,22.771,30.567,44.174,47.98,64.133
					c8.657,10.017,17.855,19.471,27.255,28.489c9.39,9.05,19.376,17.241,29.443,24.923l-23.132,24.961
					c-9.29-10.829-18.015-21.86-25.791-33.393c-7.795-11.512-15.109-23.193-21.703-35.206
					C1318.03,2099.083,1306.538,2074.435,1297.255,2049.118z"/>
			</g>
			<g>
				<path style="fill:#512717;" d="M2951.752,2199.056c-13.683,23.236-29.419,45.416-46.784,66.582
					c-8.646,10.631-17.941,20.807-27.678,30.73c-9.723,9.946-20.289,19.229-31.375,28.212l-18.267-28.713
					c11.284-5.748,22.58-12.01,33.444-19.224c10.869-7.182,21.615-14.828,31.933-23.125
					C2913.741,2237.015,2933.543,2218.877,2951.752,2199.056z"/>
			</g>
			<g>
				<path style="fill:#512717;" d="M2252.991,2469.817c-49.902,0-103.008-2.407-159.219-7.937
					c-253.389-21.003-434.026-93.11-540.896-149.9c-102.515-54.473-158.02-104.829-171.509-117.817
					c-17.866-4.976-54.673-7.065-156.157,18.467c-9.033,2.268-18.25-3.164-20.613-12.195
					c-36.467-139.382-2.839-281.995,15.417-335.591c-67.371-34.954-145.144-113.955-163.694-192.437
					c-2.017-8.53,2.778-17.197,11.077-20.022c146.13-49.739,192.72-189.136,226.738-290.918c6.528-19.534,12.7-37.996,19.06-54.392
					c71.24-219.155,190.876-382.2,355.598-484.646c159.153-98.982,355.74-138.738,584.302-118.154l-3.052,33.894
					c-455.322-41.001-768.152,159.518-904.629,579.876c-0.1,0.308-0.21,0.615-0.327,0.916
					c-6.125,15.742-12.222,33.982-18.677,53.293c-35.11,105.049-82.769,247.668-232.771,306.746
					c23.196,67.317,95.757,136.24,154.534,161.582c4.148,1.787,7.415,5.154,9.082,9.351c1.665,4.199,1.592,8.889-0.203,13.035
					c-13.386,30.918-54.731,171.096-23.459,312.568c102.632-24.5,139.712-20.186,162.261-12.498
					c2.537,0.864,4.834,2.317,6.702,4.236c2.151,2.197,221.75,221.545,694.287,260.715
					c472.122,46.44,727.593-129.856,730.12-131.641c2.175-1.541,4.7-2.559,7.336-2.952c23.56-3.508,60.806-1.086,157.371,41.462
					c56.191-133.53,40.725-278.867,33.115-311.692c-1.018-4.402-0.247-9.026,2.146-12.859c2.393-3.831,6.211-6.553,10.613-7.566
					c62.378-14.36,146.145-69.116,181.064-131.167c-136.936-85.083-158.181-233.945-173.835-343.594
					c-2.878-20.159-5.596-39.199-8.792-55.786c-0.061-0.317-0.112-0.637-0.156-0.959
					c-58.682-438.041-330.352-691.528-785.645-733.054l3.091-33.89c228.54,20.845,414.778,95.29,553.542,221.272
					c143.621,130.389,231.995,312.284,262.676,540.675c3.311,17.275,6.062,36.543,8.972,56.934
					c15.168,106.24,35.94,251.741,170.745,326.941c7.656,4.272,10.813,13.657,7.297,21.687
					c-32.354,73.87-123.064,137.603-195.62,159.873c8.32,56.011,15.759,202.354-45.166,332.896
					c-3.945,8.457-13.965,12.156-22.471,8.289c-95.244-43.362-131.816-47.917-150.291-46.235
					c-15.603,10.349-79.258,49.907-189.895,85.063C2563.32,2440.203,2427.957,2469.815,2252.991,2469.817z"/>
			</g>
			<g>
				<path style="fill:#512717;" d="M2491.951,1132.429c-79.757-48.332-220.979-32.722-282.826,56.308l-0.029-0.183l-0.016,0.179
					c-44.835-98.698-180.95-139.442-268.096-106.235c103.633-112.256,255.545-52.477,279.614-20.357
					C2250.004,1034.868,2410.187,1003.372,2491.951,1132.429z"/>
			</g>
			<g>
				<path style="fill:#512717;" d="M2209.699,1175.283l-0.02,0.223c-0.041-0.049-0.036-0.093-0.032-0.138
					C2209.65,1175.323,2209.65,1175.323,2209.699,1175.283z"/>
			</g>
			<g>
				<path style="fill:#512717;" d="M2209.646,1175.368c-0.049,0.041-0.053,0.085-0.101,0.126l0.02-0.223
					C2209.606,1175.319,2209.606,1175.319,2209.646,1175.368z"/>
			</g>
			<g>
				<path style="fill:#512717;" d="M2688.862,940.331c-159.57-87.644-376.696-107.745-459.512,25.112
					c-57.71-145.51-274.956-164.563-447.619-106.792c178.001-146.161,423.906-87.215,460.627-37.581
					C2287.354,778.794,2539.833,764.723,2688.862,940.331z"/>
			</g>
			<g>
				<g>
					<path style="fill:#FFF8EE;" d="M2385.207,1960.012c-2.727,150.186-222.327,144.02-245.152,10.41
						c1.425-15.825,3.961-44.185,5.003-55.678l-0.031-0.003c-1.028,11.494-3.599,39.851-5.024,55.676
						c-46.325,127.384-263.495,94.222-239.349-54.035c0,0,82.499-80.881,250.12-65.788
						C2318.395,1865.687,2385.207,1960.012,2385.207,1960.012z"/>
				</g>
				<g>
					<path style="fill:#EFD1B1;" d="M1916.251,1937.51c-2.661,9.115,22.943,67.401,86.876,75.154
						c61.995,7.518,97.461-33.574,95.733-54.371c-1.915-23.046-33.541-9.708-54.382-2.082
						C1948.003,1991.512,1918.141,1931.036,1916.251,1937.51z"/>
				</g>
				<g>
					<path style="fill:#EFD1B1;" d="M2365.955,1978.002c0.99,9.444-34.614,62.219-98.904,58.426
						c-62.341-3.678-89.896-50.444-84.48-70.598c6.001-22.334,34.735-3.561,53.879,7.666
						C2325.067,2025.463,2365.251,1971.295,2365.955,1978.002z"/>
				</g>
				<g>
					<path style="fill:#512717;" d="M2159.857,1916.068c-0.128,9.344-0.44,18.672-0.875,27.989
						c-0.493,9.312-1.011,18.621-1.637,27.922c-0.091,1.357-0.365,2.66-0.794,3.884l-0.184,0.506
						c-5.71,15.992-14.324,31.365-25.92,44.258c-11.571,12.9-25.721,23.35-41.058,30.844
						c-30.928,14.628-65.839,18.138-98.339,11.029c-16.248-3.535-32.062-9.537-46.318-18.427
						c-14.246-8.843-26.738-20.864-35.772-35.045c-9.054-14.159-14.4-30.458-15.399-46.556c-1.224-16.089,1.544-31.86,7.093-46.091
						c0.891,15.292,3.059,29.887,7.578,43.223c4.656,13.291,11.458,25.153,20.248,35.038c17.561,19.687,42.254,32.24,68.541,36.433
						c26.235,3.969,53.854,0.49,76.746-11.328c23.139-11.365,40.74-31.114,49.873-55.282l-0.978,4.388
						c1.049-9.258,2.205-18.507,3.387-27.754c1.24-9.241,2.602-18.472,4.148-27.686c1.351-8.134,9.042-13.633,17.177-12.281
						C2154.747,1902.358,2159.952,1908.817,2159.857,1916.068z"/>
				</g>
				<g>
					<path style="fill:#512717;" d="M2159.886,1916.088c-0.125,9.342-0.433,18.668-0.864,27.982
						c-0.49,9.308-1.004,18.615-1.625,27.912l-0.178-4.492c4.669,25.411,18.459,47.986,39.196,63.301
						c20.413,15.717,46.966,24.074,73.487,24.855c26.614,0.57,53.152-7.37,73.947-23.604c10.414-8.156,19.226-18.612,26.181-30.858
						c6.829-12.314,11.569-26.287,15.178-41.174c2.918,14.994,2.823,31.005-1.255,46.617c-3.858,15.66-12.03,30.742-23.468,43.056
						c-11.422,12.338-25.861,21.934-41.457,28.09c-15.615,6.2-32.246,9.281-48.865,9.856c-33.247,1.19-66.969-8.5-94.786-28.417
						c-13.752-10.114-25.808-22.924-34.888-37.682c-9.106-14.757-14.835-31.422-17.596-48.177l-0.076-0.46
						c-0.221-1.343-0.241-2.744-0.103-4.034c1.046-9.262,2.199-18.515,3.378-27.765c1.236-9.245,2.596-18.478,4.139-27.695
						c1.361-8.133,9.058-13.622,17.191-12.261C2154.793,1902.373,2159.99,1908.839,2159.886,1916.088z"/>
				</g>
				<g>
					<g>
						<path style="fill:#512717;" d="M2267.582,1866.69c-27.783,60.09-126.004,86.531-126.004,86.531s-91.917-43.562-108.52-107.648
							c-11.835-45.846,100.67-43.02,121.914-41.107C2176.217,1806.379,2287.417,1823.696,2267.582,1866.69z"/>
					</g>
					<g style="opacity:0.5;">
						<path style="fill:#FFFFFF;" d="M2201.549,1831.493c-10.613,14.852-50.002,11.014-50.002,11.014s-39.441-3.26-47.23-19.769
							c-5.555-11.809,40.983-9.464,49.791-8.671C2162.916,1814.86,2209.125,1820.866,2201.549,1831.493z"/>
					</g>
				</g>
			</g>
		</g>
		<g>
			<g>
				<g>
					<g>
						
							<ellipse transform="matrix(0.0884 -0.9961 0.9961 0.0884 -52.7483 3289.9846)" style="fill:#512717;" cx="1771.022" cy="1673.81" rx="216.197" ry="187.215"/>
					</g>
				</g>
				<g>
					<g>
						
							<ellipse transform="matrix(0.0884 -0.9961 0.9961 0.0884 56.032 3293.3286)" style="fill:#FFFFFF;" cx="1827.241" cy="1616.053" rx="77.272" ry="61.04"/>
					</g>
				</g>
				<g style="opacity:0.2;">
					<g>
						
							<ellipse transform="matrix(0.0884 -0.9961 0.9961 0.0884 -188.1384 3274.7515)" style="fill:#FFFFFF;" cx="1695.006" cy="1740.16" rx="52.294" ry="33.806"/>
					</g>
				</g>
			</g>
		</g>
		<g>
			<g>
				<g>
					<g>
						
							<ellipse transform="matrix(0.0921 -0.9957 0.9957 0.0921 586.548 4134.0156)" style="fill:#512717;" cx="2560.37" cy="1745.344" rx="216.197" ry="187.215"/>
					</g>
				</g>
				<g>
					<g>
						
							<ellipse transform="matrix(0.0921 -0.9957 0.9957 0.0921 612.4077 4028.5317)" style="fill:#FFFFFF;" cx="2515.451" cy="1678.422" rx="77.272" ry="61.04"/>
					</g>
				</g>
				<g style="opacity:0.2;">
					<g>
						
							<ellipse transform="matrix(0.0921 -0.9957 0.9957 0.0921 565.0115 4268.2632)" style="fill:#FFFFFF;" cx="2623.22" cy="1824.279" rx="52.294" ry="33.806"/>
					</g>
				</g>
			</g>
		</g>
	</g>
	<g>
		<g>
			<path style="fill:#FFF3E9;" d="M1345.654,2199.494c102.003,19.308,124.16-56.296,112.785-94.084
				c-15.466-51.378-66.074-44.231-111.146-70.274c-28.386-16.401-65.833-41.096-106.423-22.557
				c-47.91,21.882-45.789,82.227-80.299,105.17c-37.552,24.965,157.143,77.59,157.143,77.59L1345.654,2199.494z"/>
		</g>
		<g style="opacity:0.7;">
			<path style="fill:#FFFFFF;" d="M1167.773,2139.418c31.649-21.331,29.799-76.856,73.987-97.03
				c37.479-17.167,72.09,5.691,98.326,20.822c41.69,24.061,88.47,17.49,102.768,64.964c4.534,15.084,3.285,36.74-7.218,54.97
				c24.755-21.47,29.382-55.896,22.812-77.735c-15.455-51.361-66.075-44.235-111.143-70.285
				c-28.41-16.38-65.843-41.089-106.423-22.535c-47.936,21.886-45.808,82.223-80.326,105.174
				C1151.532,2123.733,1155.928,2131.321,1167.773,2139.418z"/>
		</g>
		<g>
			<path style="fill:#512717;" d="M1376.689,2220.113c-10.327,0-21.724-1.047-34.29-3.428l6.509-34.385
				c36.167,6.846,63.784,1.013,79.873-16.865c14.49-16.101,17.458-39.846,12.903-54.98c-7.305-24.265-23.616-30.488-54.219-40.247
				c-15.112-4.819-32.239-10.278-48.928-19.922l-5.491-3.198c-25.83-15.093-55.107-32.197-84.907-18.594
				c-20.798,9.5-30.056,29.509-39.861,50.693c-7.744,16.738-15.713,33.958-29.736,46.675
				c21.563,14.172,86.787,37.183,143.738,52.583l-9.133,33.784c-168.401-45.518-173.04-74.016-174.565-83.381
				c-0.771-4.746-1.118-16.748,12.302-25.671c11.169-7.424,17.874-21.912,25.635-38.687c10.916-23.591,24.502-52.949,57.08-67.83
				c46.326-21.155,88.918,3.74,117.104,20.212l5.344,3.11c13.413,7.751,27.971,12.393,42.051,16.882
				c30.063,9.585,64.138,20.452,77.097,63.501c7.39,24.546,3.948,61.423-20.398,88.479
				C1441.079,2204.09,1417.051,2220.113,1376.689,2220.113z"/>
		</g>
		<g>
			<path style="fill:#FFF3E9;" d="M1196.714,2452.483c64.547,35.18,207.391,73.021,271.622,22.893
				c28.911-18.431,84.083-111.374,65.261-181.664c-7.217-26.951-32.491-57.542-77.91-69.5
				c-28.911-73.362-92.521-88.866-134.472-92.625c-14.295-25.187-35.259-46.526-82.126-46.526
				c-72.655,0-139.792,68.99-165.587,127.126C1030.904,2308.189,1091.917,2395.366,1196.714,2452.483z"/>
		</g>
		<g style="opacity:0.7;">
			<path style="fill:#FFFFFF;" d="M1073.797,2211.647c32.066-49.834,88.979-98.14,149.779-98.14
				c46.872,0,67.833,21.331,82.131,46.503c41.921,3.794,105.544,19.294,134.463,92.634c45.438,11.983,70.702,42.569,77.92,69.498
				c9.948,37.248-0.833,80.836-17.536,116.325c24.246-38.173,45.901-96.706,33.037-144.735
				c-7.218-26.976-32.482-57.561-77.92-69.499c-28.873-73.385-92.495-88.886-134.463-92.635
				c-14.298-25.217-35.258-46.548-82.131-46.548C1166.663,2085.05,1099.708,2153.623,1073.797,2211.647z"/>
		</g>
		<g>
			<path style="fill:#F9D3B7;" d="M1379.659,2462.554c29.403,0,52.19-5.657,65.904-16.357l1.387-1.084l1.487-0.949
				c6.814-4.396,19.916-21.781,31.266-44.421c14.513-28.949-90.432,42.41-234.496-33.48
				c-148.226-78.082-95.95-206.848-123.364-165.331c-5.727,8.673-10.628,17.529-14.504,26.265
				c-43.347,97.698,60.45,167.366,107.087,192.783C1253.246,2441.135,1322.462,2462.554,1379.659,2462.554z"/>
		</g>
		<g>
			<path style="fill:#512717;" d="M1379.612,2516.983c-70.151,0-148.97-26.079-191.272-49.136
				c-124.758-67.996-173.667-166.223-130.833-262.759c29.583-66.67,103.276-137.527,181.582-137.527
				c52.759,0,78.162,25.215,92.603,47.544c66.438,8.201,112.424,40,136.897,94.661c48.757,15.774,74.248,50.806,81.909,79.419
				c20.291,75.771-35.01,176.023-72.022,200.469C1452.769,2509.4,1417.456,2516.983,1379.612,2516.983z M1239.089,2102.557
				c-61.218,0-124.133,59.348-149.595,116.726c-49.932,112.534,64.204,189.829,115.593,217.837l0,0
				c59.978,32.69,195.642,68.818,252.48,24.463l1.36-0.962c21.56-13.743,74.888-98.442,57.766-162.383
				c-5.554-20.737-25.667-46.626-65.464-57.104l-8.574-2.256l-3.25-8.25c-19.485-49.441-58.655-76.135-119.753-81.611l-9.131-0.818
				l-4.524-7.974C1293.164,2117.615,1276.875,2102.557,1239.089,2102.557z"/>
		</g>
		<g>
			<path style="fill:#512717;" d="M1409.059,2350.276c6.386-12.432,11.644-25.342,16.068-38.391
				c4.371-13.059,7.841-26.331,9.819-39.57c2.03-13.201,2.542-26.433,0.834-38.728c-1.617-12.324-5.795-23.455-12.008-32.346
				l30.986-16.27c6.579,15.886,8.505,32.622,7.264,48.093c-1.172,15.544-5.023,30.09-10.162,43.735
				c-5.117,13.674-11.589,26.504-18.783,38.738C1425.834,2327.737,1417.9,2339.417,1409.059,2350.276z"/>
		</g>
		<g>
			<path style="fill:#512717;" d="M1236.271,2216.636c4.235-13.508,10.776-26.418,18.984-38.425
				c8.267-11.963,18.52-22.986,30.91-31.902c6.209-4.419,12.916-8.289,20.01-11.541c7.126-3.181,14.631-5.593,22.333-7.441
				c15.439-3.376,31.547-3.892,47.195-2.153l-7.134,34.263c-11.875-3.918-24.18-6.118-36.663-6.084
				c-6.206,0.186-12.468,0.793-18.67,2.117c-6.171,1.399-12.299,3.372-18.274,5.964c-11.917,5.254-23.108,13.01-33.038,22.441
				C1252.039,2193.347,1243.165,2204.321,1236.271,2216.636z"/>
		</g>
	</g>
</g>
</svg>
