<?xml version="1.0" encoding="utf-8"?>
<!-- Generator: Adobe Illustrator 27.5.0, SVG Export Plug-In . SVG Version: 6.00 Build 0)  -->
<svg version="1.1" id="Layer_1" xmlns="http://www.w3.org/2000/svg" xmlns:xlink="http://www.w3.org/1999/xlink" x="0px" y="0px"
	 viewBox="0 0 4000 4000" style="enable-background:new 0 0 4000 4000;" xml:space="preserve">
<g>
	<g>
		<rect style="fill:#DEFFE6;" width="4000" height="4000"/>
	</g>
	<g>
		<ellipse style="fill:#B4EFC0;" cx="2018.435" cy="3561.771" rx="776.888" ry="96.538"/>
	</g>
	<g>
		<g>
			<path style="fill:#C1CEDB;" d="M1969.622,3035.404v512.1c376.1,37.95,490.4-11.9,490.4-11.9c52.8-130.9-37.2-203.8-37.2-203.8
				v-240.25l-119.6-14.8L1969.622,3035.404z"/>
		</g>
		<g style="opacity:0.2;">
			<path style="fill:#0C1C7A;" d="M1969.622,3147.004v234.2c48.4-7.9,101.4-27.4,101.4-27.4s-28.65-38-26.05-69.6
				c2.6-31.6,49.1-38.7,49.1-38.7c233.15,3.35,323.95-79.55,323.95-79.55l4.8-14.2v-60.2l-119.6-14.8
				c-0.45,3.35-0.9,6.8-1.299,10.35c-32.401,273.7-163.251,32.7-266.6,45.35C1969.072,3140.554,1972.872,3139.954,1969.622,3147.004
				z"/>
		</g>
		<g>
			<path style="fill:#3AAAFF;" d="M1969.622,3353.604v193.9c133.451,13.45,233.95,15.9,308.05,13.4c0,0,0,0.05,0.05,0
				c134.75-4.55,182.3-25.3,182.3-25.3c10.25-25.35,15.1-48.5,16.3-69.4c5.05-87-53.5-134.4-53.5-134.4v-10.3l-34-3.15
				c0,0,5.25-72.1-28.5-79.5c-33.7-7.45-135.35-2.5-170.551,27.75c-35.199,30.25-11.649,87.2-11.649,87.2s-45.95,9.85-106.35,10.1
				C2040.172,3364.054,2004.622,3361.554,1969.622,3353.604z"/>
		</g>
		<g>
			<path style="fill:#2979ED;" d="M1969.622,3353.604v193.9c133.451,13.45,233.95,15.9,308.05,13.4
				c-175.2-19.2-201.9-158.1-205.9-197C2040.172,3364.054,2004.622,3361.554,1969.622,3353.604z"/>
		</g>
		<g>
			<path style="fill:#FFFFFF;" d="M2185.801,3351.888c0,0-1.488,22.314,25.289,44.628c26.777,22.314,51.074-0.496,110.083-14.876
				c59.008-14.38,79.339,15.868,92.231,0c12.893-15.868-5.215-57.395-5.215-57.395
				C2341.011,3306.473,2267.109,3314.807,2185.801,3351.888z"/>
		</g>
		<g>
			<path style="fill:#FFFFFF;" d="M2476.322,3466.204c-1.2,20.9-6.05,44.05-16.3,69.4c0,0-47.55,20.75-182.35,25.3
				c-7.1,0.25-14.4,0.45-21.95,0.55c-2.5,0.05-5.1,0.1-7.649,0.15c-5.15,0.05-10.451,0.1-15.85,0.1
				c-68.3,0.35-154.65-3.3-262.6-14.2v-78.2c5-2,7.9-3.1,7.9-3.1c56.25,21.45,111.901,33.45,164.45,39.15
				C2328.472,3525.504,2476.322,3466.204,2476.322,3466.204z"/>
		</g>
		<g>
			<path style="fill:#C1D6F4;" d="M2277.672,3560.904c-7.1,0.25-14.4,0.45-21.95,0.55c-2.5,0.05-5.1,0.1-7.649,0.15
				c-5.15,0.05-10.451,0.1-15.85,0.1c-68.3,0.35-154.65-3.3-262.6-14.2v-78.2c5-2,7.9-3.1,7.9-3.1
				c56.25,21.45,111.901,33.45,164.45,39.15C2172.322,3532.354,2215.722,3554.104,2277.672,3560.904z"/>
		</g>
		<g>
			<path style="fill:#0C1C7A;" d="M2224.165,3579.986c-67.72,0-152.134-3.831-256.396-14.348
				c-9.312-0.938-16.396-8.774-16.396-18.13v-512.095c0-5.222,2.241-10.195,6.157-13.655c3.916-3.452,9.121-5.068,14.307-4.429
				l453.232,56.152c9.126,1.13,15.981,8.887,15.981,18.083v232.427c21.489,21.819,84.053,98.982,35.864,218.43
				c-1.787,4.429-5.239,7.979-9.619,9.888C2463.794,3553.838,2401.001,3579.981,2224.165,3579.986z M1987.817,3530.991
				c303.843,29.155,429.297-0.913,458.228-9.822c40.625-111.318-31.587-172.646-34.751-175.259
				c-4.194-3.459-6.689-8.669-6.689-14.106v-224.136l-416.787-51.636V3530.991z"/>
		</g>
		<g>
			<path style="fill:#0C1C7A;" d="M2075.332,3384.702c-39.629,0-82.285-6.367-115.444-27.329
				c-8.506-5.378-11.045-16.633-5.669-25.139c5.381-8.503,16.621-11.055,25.142-5.667c65.85,41.624,188.169,11.257,200.566,8.027
				c177.998-73.933,251.06-19.526,254.092-17.173c7.939,6.182,9.37,17.629,3.188,25.574c-6.108,7.864-17.402,9.346-25.342,3.367
				c-1.597-1.111-63.745-42.485-219.048,22.341c-0.698,0.291-1.411,0.54-2.144,0.742
				C2187.075,3370.445,2134.604,3384.7,2075.332,3384.702z"/>
		</g>
		<g>
			<path style="fill:#0C1C7A;" d="M2235.269,3423.338c-11.953,0-23.604-3.562-35.381-13.376
				c-32.686-27.239-31.763-56.045-31.548-59.238l34.922,2.329l0.024-0.518c0,0.598,0.176,14.844,19.004,30.537
				c9.912,8.264,17.256,6.777,47.104-3.733c12.7-4.473,28.501-10.037,47.632-14.7c37.363-9.109,62.119-2.163,76.914,1.99
				c2.051,0.574,4.556,1.277,6.558,1.743c1.025-6.968-2.627-24.004-8.35-37.131c-3.862-8.857,0.186-19.172,9.043-23.035
				c8.872-3.87,19.17,0.186,23.037,9.045c5.249,12.031,20.957,53.03,2.754,75.425c-12.939,15.935-30.024,11.15-42.49,7.651
				c-13.701-3.843-30.752-8.616-59.175-1.685c-17.441,4.25-31.709,9.275-44.297,13.708
				C2264.814,3418.057,2249.819,3423.338,2235.269,3423.338z"/>
		</g>
		<g>
			<path style="fill:#0C1C7A;" d="M2178.135,3372.051c-7.153,0-13.94-4.241-16.846-11.262c-1.167-2.825-28.096-69.609,16.602-108.01
				c41.987-36.074,150.068-39.756,186.382-31.743c47.734,10.527,43.384,89.661,42.729,98.65
				c-0.732,10.039-9.463,17.612-19.492,16.853c-10.039-0.73-17.583-9.456-16.855-19.492c1.826-26.091-3.989-58.162-14.233-60.42
				c-32.412-7.156-126.509-0.496-154.78,23.794c-24.512,21.062-6.855,65.991-6.67,66.438c3.843,9.299-0.576,19.956-9.873,23.804
				C2182.817,3371.604,2180.459,3372.051,2178.135,3372.051z"/>
		</g>
		<g>
			<path style="fill:#0C1C7A;" d="M2221.387,3527.344c-75.752,0-161.904-11.199-250.083-44.783
				c-9.028-3.442-13.564-13.552-10.122-22.583c3.433-9.031,13.525-13.564,22.583-10.127c246.123,93.748,483.662,1.057,486.035,0.11
				c8.965-3.584,19.155,0.771,22.744,9.744c3.589,8.967-0.757,19.146-9.722,22.744
				C2476.104,3485.142,2368.374,3527.344,2221.387,3527.344z"/>
		</g>
		<g>
			<path style="fill:#0C1C7A;" d="M2221.387,3527.344c-75.752,0-161.904-11.199-250.083-44.783
				c-9.028-3.442-13.564-13.552-10.122-22.583c3.433-9.031,13.525-13.564,22.583-10.127c246.123,93.748,483.662,1.057,486.035,0.11
				c8.965-3.584,19.155,0.771,22.744,9.744c3.589,8.967-0.757,19.146-9.722,22.744
				C2476.104,3485.142,2368.374,3527.344,2221.387,3527.344z"/>
		</g>
		<g>
			<path style="fill:#C1CEDB;" d="M1969.572,3035.404v512.1c-376.1,37.95-490.4-11.9-490.4-11.9c-52.8-130.9,37.2-203.8,37.2-203.8
				v-240.25l119.6-14.8L1969.572,3035.404z"/>
		</g>
		<g style="opacity:0.2;">
			<path style="fill:#0C1C7A;" d="M1969.572,3147.004v234.2c-48.4-7.9-101.4-27.4-101.4-27.4s28.65-38,26.05-69.6
				c-2.6-31.6-49.1-38.7-49.1-38.7c-233.15,3.35-323.95-79.55-323.95-79.55l-4.8-14.2v-60.2l119.6-14.8c0.45,3.35,0.9,6.8,1.3,10.35
				c32.401,273.7,163.251,32.7,266.6,45.35C1970.122,3140.554,1966.322,3139.954,1969.572,3147.004z"/>
		</g>
		<g>
			<path style="fill:#3AAAFF;" d="M1969.572,3353.604v193.9c-133.45,13.45-233.95,15.9-308.05,13.4c0,0,0,0.05-0.05,0
				c-134.75-4.55-182.3-25.3-182.3-25.3c-10.25-25.35-15.1-48.5-16.3-69.4c-5.05-87,53.5-134.4,53.5-134.4v-10.3l34-3.15
				c0,0-5.25-72.1,28.5-79.5c33.7-7.45,135.35-2.5,170.551,27.75c35.199,30.25,11.649,87.2,11.649,87.2s45.95,9.85,106.35,10.1
				C1899.022,3364.054,1934.572,3361.554,1969.572,3353.604z"/>
		</g>
		<g>
			<path style="fill:#2979ED;" d="M1969.572,3353.604v193.9c-133.45,13.45-233.95,15.9-308.05,13.4
				c175.2-19.2,201.9-158.1,205.9-197C1899.022,3364.054,1934.572,3361.554,1969.572,3353.604z"/>
		</g>
		<g>
			<path style="fill:#FFFFFF;" d="M1753.393,3351.888c0,0,1.488,22.314-25.289,44.628c-26.777,22.314-51.074-0.496-110.083-14.876
				s-79.339,15.868-92.231,0c-12.893-15.868,5.215-57.395,5.215-57.395C1598.183,3306.473,1672.085,3314.807,1753.393,3351.888z"/>
		</g>
		<g>
			<path style="fill:#FFFFFF;" d="M1969.572,3469.304v78.2c-107.95,10.9-194.3,14.55-262.6,14.2c-5.4,0-10.7-0.05-15.85-0.1
				c-2.55-0.05-5.15-0.1-7.65-0.15c-7.55-0.1-14.85-0.3-21.95-0.55c-134.8-4.55-182.35-25.3-182.35-25.3
				c-10.25-25.35-15.1-48.5-16.3-69.4c0,0,147.85,59.3,334.35,39.15c52.55-5.7,108.2-17.7,164.45-39.15
				C1961.672,3466.204,1964.572,3467.304,1969.572,3469.304z"/>
		</g>
		<g>
			<path style="fill:#C1D6F4;" d="M1969.572,3469.304v78.2c-107.95,10.9-194.3,14.55-262.6,14.2c-5.4,0-10.7-0.05-15.85-0.1
				c-2.55-0.05-5.15-0.1-7.65-0.15c-7.55-0.1-14.85-0.3-21.95-0.55c61.95-6.8,105.3-28.55,135.7-55.55
				c52.55-5.7,108.2-17.7,164.45-39.15C1961.672,3466.204,1964.572,3467.304,1969.572,3469.304z"/>
		</g>
		<g>
			<path style="fill:#0C1C7A;" d="M1715.029,3579.986c-176.87,0-239.629-26.147-243.13-27.676c-4.38-1.909-7.832-5.459-9.619-9.888
				c-48.188-119.448,14.375-196.611,35.864-218.43v-232.427c0-9.197,6.855-16.953,15.981-18.083l453.228-56.152
				c5.2-0.645,10.396,0.974,14.307,4.429c3.916,3.459,6.157,8.433,6.157,13.655v512.095c0,9.355-7.085,17.192-16.392,18.13
				C1867.183,3576.153,1782.739,3579.983,1715.029,3579.986z M1493.154,3521.179c28.726,8.85,154.131,38.987,458.218,9.812v-474.958
				l-416.782,51.636v224.136c0,5.498-2.48,10.701-6.753,14.16C1524.736,3348.526,1452.51,3409.846,1493.154,3521.179z
				 M1516.367,3331.804h0.049H1516.367z"/>
		</g>
		<g>
			<path style="fill:#37DBFF;" d="M2452.872,2787.804c0,0-8.5,211.5-13.7,327.55c0,0-11.45,13.9-37.2,30.9
				c-58.6,38.75-191.299,93.75-432.4,39c-241.1,54.8-373.85-0.3-432.4-39.05c-25.75-17-37.15-30.85-37.15-30.85
				c-5.2-116.05-13.7-327.55-13.7-327.55H2452.872z"/>
		</g>
		<g>
			<path style="fill:#16B0F4;" d="M2401.972,3091.554v54.7c-58.6,38.75-191.299,93.75-432.4,39c-241.1,54.8-373.85-0.3-432.4-39.05
				v-54.65c0,0,142.5,107.1,240.6,71.4c98.1-35.7,46.6-86.15,46.6-86.15s-219.25-66.05-281.7-123.6c0,0,266.25,83.3,426.9,82.3
				c160.7,1,426.95-82.3,426.95-82.3c-62.45,57.55-281.701,123.6-281.701,123.6s-51.5,50.45,46.601,86.15
				C2259.522,3198.654,2401.972,3091.554,2401.972,3091.554z"/>
		</g>
		<g>
			<g>
				<path style="fill:#C1CEDB;" d="M2825.472,2727.104c0,0-40.3,119.05-142.5,186.4c-27.3,18.05-59,32.35-95.551,39.7
					c0,0-146.7-86.25-184.9-182.95c-30.35-76.85-60.55-180.05-71.65-219.15c-2.9-10.1-4.5-15.9-4.5-15.9l12.05-6.2l209.6-107.6
					c0,0,8.9,9.7,24.8,27C2617.172,2496.804,2715.872,2604.904,2825.472,2727.104z"/>
			</g>
			<g style="opacity:0.2;">
				<path style="fill:#0C1C7A;" d="M2682.972,2913.504c-27.3,18.05-59,32.35-95.551,39.7c0,0-146.7-86.25-184.9-182.95
					c-30.35-76.85-60.55-180.05-71.65-219.15c2.45-7.6,4.95-14.95,7.55-22.1l209.6-107.6c0,0,8.9,9.7,24.8,27l-7.7,6.45
					c0,0-100.4,144.3-80.3,191.9C2499.122,2680.704,2616.722,2830.404,2682.972,2913.504z"/>
			</g>
			<g>
				<path style="fill:#EDF4F9;" d="M2808.821,2708.557c0,0-59.229-50.265-84.89-24.231
					c-25.661,26.033,24.917,104.504,24.917,104.504s-49.835-43.512-90.744,0c-40.909,43.512,45.368,109.898,45.368,109.898
					S2811.521,2819.442,2808.821,2708.557z"/>
			</g>
			<g>
				<path style="fill:#0C1C7A;" d="M2587.441,2971.433c-3.228,0-6.421-0.857-9.238-2.515
					c-6.211-3.655-152.563-90.627-192.632-191.985c-38.14-96.501-76.396-235.53-76.777-236.921
					c-2.28-8.315,1.582-17.092,9.253-21.03l221.655-113.789c7.285-3.733,16.177-2.161,21.729,3.872
					c1.289,1.399,130.459,141.804,277.593,305.864c4.395,4.895,5.806,11.78,3.696,18.008
					c-2.778,8.213-70.166,201.523-251.675,238.137C2589.849,2971.314,2588.643,2971.433,2587.441,2971.433z M2347.935,2544.605
					c10.693,37.664,41.226,142.253,71.533,218.931c31.24,79.041,144.004,153.264,171.265,170.32
					c134.224-31.113,198.252-165.444,213.701-202.908c-121.196-135.034-228.794-252.512-260.439-286.992L2347.935,2544.605z"/>
			</g>
			<g>
				<path style="fill:#0C1C7A;" d="M2703.452,2916.948c-3.877,0-7.783-1.23-11.094-3.779c-6.094-4.688-59.639-47.119-63.286-92.49
					c-1.333-16.619,4.116-31.948,15.757-44.331c20.464-21.765,43.413-27.107,64.097-24.648
					c-11.211-28.003-17.319-60.537,2.026-80.164c36.494-37.014,102.285,16.863,109.663,23.127c7.671,6.511,8.613,18.01,2.104,25.684
					c-6.519,7.673-18.013,8.621-25.688,2.104c-21.455-18.127-52.422-33.162-60.122-25.334c-7.744,7.859,5.757,48.401,27.261,81.851
					c4.907,7.634,3.452,17.722-3.418,23.652c-6.87,5.935-17.051,5.908-23.892-0.063c-3.716-3.179-37.749-30.737-65.479-1.245
					c-4.644,4.941-6.489,10.005-5.981,16.418c1.753,22.151,31.108,52.588,49.199,66.57c7.959,6.147,9.434,17.588,3.296,25.552
					C2714.302,2914.507,2708.906,2916.948,2703.452,2916.948z"/>
			</g>
		</g>
		<g>
			<path style="fill:#0C1C7A;" d="M2159.941,3226.673c-54.463,0.005-117.568-6.465-190.352-22.717
				c-350.967,78.379-478.384-70.613-483.652-77.014c-2.51-3.044-3.96-6.824-4.136-10.767
				c-5.146-114.749-13.589-325.544-13.672-327.661c-0.2-4.954,1.631-9.775,5.068-13.352s8.179-5.598,13.14-5.598h966.509
				c4.961,0,9.702,2.021,13.14,5.598s5.269,8.398,5.068,13.352c-0.083,2.117-8.525,212.913-13.672,327.661
				c-0.176,3.943-1.626,7.722-4.136,10.767C2449.067,3132.017,2368.091,3226.66,2159.941,3226.673z M1987.813,3170.628
				c289.355,61.597,411.172-40.723,433.462-62.8c4.238-95.09,10.454-248.516,12.603-301.819h-928.569
				c2.148,53.286,8.364,206.641,12.598,301.736c22.451,21.851,145.801,124.065,433.462,62.881v-79.067
				c0-10.063,8.159-18.223,18.223-18.223s18.223,8.159,18.223,18.223V3170.628z"/>
		</g>
		<g>
			<g>
				<path style="fill:#C1CEDB;" d="M3154.172,1712.554c0,0-57.65,81.3-67.9,243.85c-10.2,162.6-144.3,380.05-460.899,199.65
					c0,0-240.75,195.7-687.65,113.15c-230.95-31.15-387.65-114.9-485.45-189.15c-92.949-70.5-132.75-132.45-132.75-132.45
					c-357.05,72.9-416.8-175.55-375.9-333.25c40.95-157.65,11.4-252.9,11.4-252.9c-31.6-126.75-19.05-243.35,22.35-338.35
					c118.7-272.2,474.2-367.35,706.3-16.65c9.25-5.2,18.6-10.1,28-14.65c3.75-1.85,7.5-3.6,11.3-5.35
					c200.5-91.75,426.849-45.7,426.849-45.7s241.2,28.1,403.601,188c6.449,6.3,12.75,12.8,18.899,19.55
					C3017.122,796.204,3422.872,1285.104,3154.172,1712.554z"/>
			</g>
			<g style="opacity:0.6;">
				<path style="fill:#FFFFFF;" d="M2553.422,1128.754c0,6.15-0.2,9.6-0.2,9.6c-257.1-152.35-537.9-201.15-842.9-144.55l1.35-2
					c3.75-1.85,7.5-3.6,11.3-5.35c200.5-91.75,426.849-45.7,426.849-45.7S2391.021,968.854,2553.422,1128.754z"/>
			</g>
			<g style="opacity:0.6;">
				<path style="fill:#FFFFFF;" d="M1722.972,986.454l-84.401,49.15c0,0-311.625-469.501-661.2-12.5
					c118.7-272.2,474.2-367.35,706.3-16.65C1696.622,999.154,1709.722,992.504,1722.972,986.454z"/>
			</g>
			<g style="opacity:0.6;">
				<path style="fill:#FFFFFF;" d="M2541.192,1117.072l64.904,72.984c0,0,442.311-349.145,632.229,193.979
					c-28.054-295.627-336.261-496.729-666.012-235.722C2562.279,1137.345,2551.9,1126.947,2541.192,1117.072z"/>
			</g>
			<g style="opacity:0.2;">
				<path style="fill:#0C1C7A;" d="M1642.655,950.549c1.391,1.709-28.6,90.595-119.84,63.818
					c-91.24-26.777-203.615-136.15-380.827-47.603c171.453-40.257,289.775,20.546,367.438,158.678l129.133-89.831
					c0,0,35.892-27.098,31.528-41.078C1665.724,980.552,1642.655,950.549,1642.655,950.549z"/>
			</g>
			<g style="opacity:0.2;">
				<path style="fill:#0C1C7A;" d="M2628.697,1107.958c-1.854,1.191-1.028,94.996,94.014,97.957
					c95.042,2.961,235.884-65.99,376.72,73.329c-150.398-91.636-281.769-70.694-398.579,36.393l-94.747-125.571
					c0,0-25.671-36.926-17.172-48.852C2597.433,1129.288,2628.697,1107.958,2628.697,1107.958z"/>
			</g>
			<g style="opacity:0.2;">
				<path style="fill:#0C1C7A;" d="M2729.372,1986.654c-16.15,105.45-118,186.95-271.45,253.95c-116.05,40.1-291.05,70.9-520.2,28.6
					c-230.95-31.15-387.65-114.9-485.45-189.15c-124.95-111.45-196.4-220.6-178.9-325.85c0,0,30.75-115.25,95.25-164.75
					c0,0-22.043,271.15,316.752,451.971c172.149,91.879,370.867,123.602,563.064,89.883
					c378.248-66.359,441.734-330.904,441.734-330.904C2736.021,1867.554,2729.372,1986.654,2729.372,1986.654z"/>
			</g>
			<g>
				<path style="fill:#EDF4F9;" d="M1509.422,1125.454c-57.151,60.5-96.201,140.9-122.6,216.7
					c-41.851,120.25-51.951,229.05-51.951,229.05c-92.45,131.8-76.949,243.9-51.35,310.6c-321.1,35.4-259.9-227.05-259.9-227.05
					c25.95-138.15,14.75-290.3,14.75-290.3c-7.6-34-11.4-67.6-13.25-96.05c-2.9-45.85-0.65-78.5-0.65-78.5
					C1072.072,872.554,1393.372,891.404,1509.422,1125.454z"/>
			</g>
			<g style="opacity:0.2;">
				<path style="fill:#0C1C7A;" d="M1509.422,1125.454c-57.151,60.5-96.201,140.9-122.6,216.7c-3.45,2.9-5.35,4.45-5.35,4.45
					c27.3-235.55-244.15-365.9-356.35-78.2c-2.9-45.85-0.65-78.5-0.65-78.5C1072.072,872.554,1393.372,891.404,1509.422,1125.454z"
					/>
			</g>
			<g>
				<path style="fill:#EDF4F9;" d="M2727.948,1793.591c46.821,154.033-2.811,255.735-47.904,311.15
					c294.119,133.611,317.672-134.848,317.672-134.848c18.352-139.363,76.365-280.464,76.365-280.464
					c46.495-78.159,67.554-161.547,67.554-161.547c53.57-316.397-257.63-398.518-440.782-212.232
					C2792.566,1510.278,2727.948,1793.591,2727.948,1793.591z"/>
			</g>
			<g style="opacity:0.2;">
				<path style="fill:#0C1C7A;" d="M2700.852,1315.65c35.474,75.286,47.552,163.848,49.039,244.1
					c2.376,3.83,3.699,5.894,3.699,5.894c47.393-232.342,345.935-271.7,362.986,36.633c17.031-42.669,25.058-74.396,25.058-74.396
					C3195.204,1211.485,2884.004,1129.364,2700.852,1315.65z"/>
			</g>
			<g>
				<g>
					
						<ellipse transform="matrix(0.1583 -0.9874 0.9874 0.1583 -190.2871 2955.7061)" style="fill:#0C1C7A;" cx="1638.56" cy="1589.468" rx="151.991" ry="135.91"/>
				</g>
				<g>
					
						<ellipse transform="matrix(0.1583 -0.9874 0.9874 0.1583 -126.8028 2978.5063)" style="fill:#FFFFFF;" cx="1683.681" cy="1563.631" rx="45.13" ry="40.462"/>
				</g>
				<g style="opacity:0.33;">
					
						<ellipse transform="matrix(0.1583 -0.9874 0.9874 0.1583 -286.2452 2973.6792)" style="fill:#FFFFFF;" cx="1601.125" cy="1654.74" rx="23.516" ry="26.629"/>
				</g>
			</g>
			<g>
				<path style="fill:#0C1C7A;" d="M1305.5,1959.243c-90.79-123.808-71.639-278.313,14.452-398.463
					c0.047-0.072-3.228,8.77-3.215,8.764c2.211-21.19,5.289-41.202,8.807-61.595c26.308-141.37,71.707-286.833,170.607-394.99
					c0.09-0.162-3.077,20.605-3.05,20.576c-56.161-118.964-205.357-209.942-331.109-140.895
					c-73.35,39.472-111.434,119.633-129.933,198.404c-0.931,4.223-5.192,6.851-9.38,5.798c-3.702-0.926-6.098-4.393-5.8-8.075
					c2.337-29.176,7.344-58.464,16.404-87.009l7.612-21.196c3.027-6.901,6.248-13.746,9.421-20.631
					c20.979-41.238,51.804-78.27,93.451-100.524c55.037-29.785,122.036-34.133,181.378-16.8
					c88.481,25.309,160.521,93.616,200.606,174.742c3.514,7.037,2.02,15.248-3.102,20.633
					c-26.575,28.453-48.904,60.756-67.878,94.871c-38.155,69.614-63.555,145.498-81.446,222.781
					c-4.468,19.423-8.431,38.974-11.883,58.597c-3.384,19.517-6.426,39.575-8.417,58.678c-0.328,3.139-1.401,6.021-3.025,8.486
					c-18.68,26.637-34.506,55.079-46.234,84.938c-29.981,73.626-29.052,158.742,6.005,230.295
					c6.804,13.926,14.662,27.691,24.154,39.822C1348.271,1955.172,1321.345,1977.703,1305.5,1959.243L1305.5,1959.243z"/>
			</g>
			<g>
				<path style="fill:#0C1C7A;" d="M1692.621,1022.312c-32.489,13.764-64.612,30.48-93.173,51.528
					c-4.385,3.333-10.077-2.617-6.547-6.837c23.898-28.969,51.888-53.781,81.888-76.484
					C1697.521,975.398,1717.411,1010.761,1692.621,1022.312L1692.621,1022.312z"/>
			</g>
			<g>
				<path style="fill:#0C1C7A;" d="M1579.18,1231.819c38.044-52.14,115.971-61.744,167.356-23.222
					c16.789,12.108,30.436,28.536,38.05,47.265c2.574,6.332-0.472,13.551-6.804,16.125c-5.001,2.035-10.529,0.555-13.928-3.247
					c-21.899-22.928-49.336-39.072-80.235-43.294c-31.32-4.402-60.734,5.627-87.251,23.701
					C1585.025,1257.422,1570.829,1242.958,1579.18,1231.819L1579.18,1231.819z"/>
			</g>
			<g>
				<g>
					
						<ellipse transform="matrix(0.157 -0.9876 0.9876 0.157 356.5632 3850.499)" style="fill:#0C1C7A;" cx="2433.667" cy="1716.397" rx="151.991" ry="135.91"/>
				</g>
				<g>
					
						<ellipse transform="matrix(0.157 -0.9876 0.9876 0.157 365.329 3783.5637)" style="fill:#FFFFFF;" cx="2398.832" cy="1677.796" rx="45.13" ry="40.462"/>
				</g>
				<g style="opacity:0.33;">
					
						<ellipse transform="matrix(0.157 -0.9876 0.9876 0.157 296.6386 3927.667)" style="fill:#FFFFFF;" cx="2448.92" cy="1790.08" rx="23.516" ry="26.629"/>
				</g>
			</g>
			<g>
				<path style="fill:#0C1C7A;" d="M2151.357,2307.561c-65.444,0.002-137.773-5.84-216.514-20.359
					c-236.24-31.921-394.644-119.255-485.952-186.921c-77.998-57.8-121.377-110.808-137.456-132.524
					c-182.666,34.348-278.184-18.071-326.304-68.779c-77.681-81.863-81.489-203.066-59.146-289.199
					c38.931-149.892,11.895-242.063,11.616-242.976c-0.088-0.293-0.185-0.64-0.259-0.938
					c-31.484-126.199-22.378-249.561,26.323-356.751c45.044-99.128,120.835-176.157,213.413-216.897
					c142.002-62.5,349.795-44.246,512.407,190.327c205.698-107.783,444.971-63.401,463.208-59.797
					c18.447,2.251,259.604,34.595,421.538,201.028c227.544-172.29,430.679-124.932,546.187-21.316
					c75.293,67.544,123.33,164.346,135.264,272.573c12.905,117.031-16.86,237.097-86.084,347.219
					c-0.171,0.271-0.352,0.539-0.537,0.801l0,0c-0.547,0.781-54.858,79.939-64.604,234.5
					c-5.571,88.787-46.899,202.766-146.177,256.374c-61.509,33.215-168.564,53.303-331.499-36.201
					c-22.041,15.632-79.771,52.505-171.895,83.152C2383.257,2284.705,2280.786,2307.561,2151.357,2307.561z M1319.526,1929.38
					c6.113,0,11.924,3.083,15.322,8.364c0.396,0.61,42.236,64.324,137.334,134.433c87.759,64.697,240.186,148.264,467.974,178.967
					c0.288,0.039,0.581,0.085,0.874,0.139c226.03,41.753,396.924,9.795,500.474-24.368c112.202-37.019,171.807-84.543,172.393-85.02
					c5.84-4.717,13.975-5.383,20.498-1.675c122.124,69.587,228.14,83.989,306.567,41.636
					c86.26-46.577,122.388-151.177,127.119-226.594c10.171-161.174,65.518-244.99,70.889-252.766
					c140.879-224.473,85.103-458.093-42.886-572.913c-106.685-95.701-297.324-137.29-512.456,33.005
					c-7.5,5.933-18.311,5.063-24.766-1.997c-155.186-169.91-408.618-201.441-411.162-201.741c-0.498-0.059-1.011-0.139-1.504-0.239
					c-2.52-0.508-253.213-49.485-453.56,63.704c-8.34,4.712-18.887,2.173-24.16-5.808
					c-151.431-228.804-345.532-248.655-476.719-190.935c-157.368,69.253-283.12,273.872-219.16,531.045
					c2.69,9.065,29.263,105.999-11.338,262.314c-18.975,73.157-17.188,183.831,50.308,254.956
					c61.362,64.663,166.602,83.977,304.307,55.859C1317.095,1929.5,1318.315,1929.38,1319.526,1929.38z M3154.17,1712.554h0.049
					H3154.17z"/>
			</g>
			<g>
				<path style="fill:#0C1C7A;" d="M2615.677,2140.618c110.363-80.677,134.363-216.143,94.824-341.691
					c-0.906-3.111-0.972-6.394-0.335-9.369c15.943-77.419,23.069-157.947,21.319-237.015c-1.124-39.53-4.832-79.022-12.135-117.818
					c-7.435-38.522-18.706-76.341-35.201-111.82c-3.07-6.996-1.338-14.908,3.709-20.042c42.37-42.868,95.396-76.153,154.243-92.529
					c88.563-25.914,193.042-7.576,257.931,61.366c38.01,39.764,55.771,93.525,60.039,147.161
					c2.118,36.938-2.087,74.997-10.866,110.304c-2.411,9.173-15.709,6.844-15.149-2.35c2.04-28.384,2.469-56.566-0.249-84.146
					c-13.873-150.742-134.963-238.27-281.926-197.226c-52.073,14.481-99.68,44.187-138.033,82.969
					c0.016,0.036,3.473-20.686,3.506-20.503c60.311,133.582,58.169,285.934,39.154,428.475
					c-3.007,20.475-6.312,40.451-10.809,61.276l-0.331-9.349c31.949,100.514,26.958,217.501-34.982,306.058
					c-20.452,29.769-45.314,56.708-75.337,77.12C2614.392,2184.005,2595.084,2154.11,2615.677,2140.618L2615.677,2140.618z"/>
			</g>
			<g>
				<path style="fill:#0C1C7A;" d="M2585.749,1135.985c21.424,30.898,40.291,63.181,53.973,98.13
					c0.945,2.459-0.283,5.218-2.742,6.163c-2.105,0.81-4.437,0.023-5.651-1.764c-10.325-14.644-21.921-28.257-34.173-41.229
					c-12.041-12.682-25.161-25.458-38.284-36.687C2538.901,1141.919,2568.857,1114.429,2585.749,1135.985L2585.749,1135.985z"/>
			</g>
			<g>
				<path style="fill:#0C1C7A;" d="M2579.718,1406.126c-19.565-25.427-44.406-44.124-75.536-49.688
					c-30.841-5.642-62.121,1.277-90.169,16.397c-6.036,3.207-13.529,0.913-16.735-5.123c-2.441-4.595-1.672-10.055,1.486-13.805
					c13.066-15.428,31.15-26.79,50.875-33.07c60.822-20.611,131.9,12.789,151.807,74.174
					C2605.883,1408.366,2587.82,1417.439,2579.718,1406.126L2579.718,1406.126z"/>
			</g>
		</g>
		<g>
			<path style="fill:#C3A4FF;" d="M2445.622,2706.254c51.6,76.5-28.75,126.45-139.501,157.65c-4.449,1.2-8.899,2.45-13.449,3.6
				c-0.2,0.05-0.401,0.1-0.6,0.15c-1.9,0.55-3.85,1.05-5.8,1.5c-0.1,0-0.15,0.05-0.25,0.1c-115.8,29.35-256.749,39.8-316.449,39.35
				c-121.95-1-328.25-16.9-431.4-76.4c-103.151-59.5-47.6-115.05-47.6-115.05c4.95-117,18.85-251.9,18.85-251.9
				c-101.3-30.4-189.601-82-264.601-141.3c-151.35-119.6-248.75-270.6-289.9-342.6c-14.75-25.8-12.6-57.9,5.15-81.75
				c9.1-12.2,18.1-23.4,27-33.6c88.6-102.25,164.3-109.15,204-102.9c17.15,2.65,31.6,14.05,38.85,29.8
				c25.35,55.25,59.1,105.9,91.15,147.35c5.5,7.15,10.95,14,16.35,20.55c0,0,0.05,0.05,0.1,0.1c42.6,52.2,78.8,85.9,82.75,89.5
				c0.1,0.15,0.25,0.25,0.35,0.35c19.85,17.05,43.199,35.1,70.099,53.4c100.2,68,249.2,138.4,447,165.05
				c183.8,33.95,332.75,20.85,444.4-6.45c6.95,5.65,13.75,11.3,20.4,16.85c64.351,54.3,112.75,105.45,133.75,128.65
				c7.7,8.4,11.75,13.15,11.75,13.15c-53.55,104.85-118.251,148.5-118.251,148.5
				C2436.972,2619.254,2445.622,2706.254,2445.622,2706.254z"/>
		</g>
		<g>
			<path style="fill:#A07DF4;" d="M2445.622,2706.254c51.6,76.5-28.75,126.45-139.501,157.65c76.7-25.4,64.301-107.15-101.749-69.7
				c-171.75,38.8-416.2-2.05-426.6-3.85c12.65,0.9,341.75,23.75,489.1-52.85c150.25-78.1,75.1-402.45,75.1-402.45
				s49.1,52.85,101.9,98.25c37.5,32.2,74.25-2.3,92.4-25.05c7.7,8.4,11.75,13.15,11.75,13.15
				c-53.55,104.85-118.251,148.5-118.251,148.5C2436.972,2619.254,2445.622,2706.254,2445.622,2706.254z"/>
		</g>
		<g style="opacity:0.2;">
			<path style="fill:#0C1C7A;" d="M1361.658,2295.689c0,0,125.581,84.545,181.303,33.347l-43.451,144.174
				c0,0-174.864-87.922-228.754-138.176C1270.755,2335.034,1321.989,2343.789,1361.658,2295.689z"/>
		</g>
		<g>
			<path style="fill:#A07DF4;" d="M2402.522,2279.604c-97.65,58.2-242.9,98.75-455.55,71.15c-527.45-68.45-625.9-410.5-625.9-410.5
				c5.5,7.15,10.95,14,16.35,20.55c0,0,0.05,0.05,0.1,0.1c42.6,52.2,78.8,85.9,82.75,89.5c0.1,0.15,0.25,0.25,0.35,0.35
				c19.85,17.05,43.199,35.1,70.099,53.4c100.2,68,249.2,138.4,447,165.05c183.8,33.95,332.75,20.85,444.4-6.45
				C2389.072,2268.404,2395.872,2274.054,2402.522,2279.604z"/>
		</g>
		<g>
			<path style="fill:#C1CEDB;" d="M1490.722,2104.154c-2.25,7.75-5.55,18.15-10.099,30.3c0,0-0.05,0.05-0.1,0.1
				c-2.35,6.25-5.05,12.95-8.101,19.95c-30.4,69.75-97.05,170.45-227.6,169.45c-151.35-119.6-248.75-270.6-289.9-342.6
				c-14.35-25.1-12.7-56.15,3.75-79.8c0.45-0.65,0.9-1.3,1.4-1.95c9.1-12.2,18.1-23.4,27-33.6c4.2-4.85,8.35-9.45,12.45-13.85
				c83.2-89,153.7-95,191.55-89.05c17.15,2.65,31.6,14.05,38.85,29.8c25.35,55.25,59.1,105.9,91.15,147.35
				c5.5,7.15,10.95,14,16.35,20.55c0,0,0.05,0.05,0.1,0.1c42.6,52.2,78.8,85.9,82.75,89.5c0.1,0.15,0.25,0.25,0.35,0.35
				C1440.472,2067.804,1463.822,2085.854,1490.722,2104.154z"/>
		</g>
		<g style="opacity:0.2;">
			<path style="fill:#0C1C7A;" d="M1490.722,2104.154c-2.25,7.75-5.55,18.15-10.099,30.3c0,0-0.05,0.05-0.1,0.1
				c-2.35,6.25-5.05,12.95-8.101,19.95c-120.35-106.6-151.35-214.25-151.35-214.25c5.5,7.15,10.95,14,16.35,20.55
				c0,0,0.05,0.05,0.1,0.1c42.6,52.2,78.8,85.9,82.75,89.5c0.1,0.15,0.25,0.25,0.35,0.35
				C1440.472,2067.804,1463.822,2085.854,1490.722,2104.154z"/>
		</g>
		<g style="opacity:0.2;">
			<path style="fill:#0C1C7A;" d="M1480.522,2134.554c-25.751,68.4-92.05,190.5-235.701,189.4
				c-151.35-119.6-248.75-270.6-289.9-342.6c-14.35-25.1-12.7-56.15,3.75-79.8c-19.5,42.1,28.85,59.9,28.85,59.9
				s182.25,253.15,276.65,277.7C1357.022,2263.304,1476.472,2138.854,1480.522,2134.554z"/>
		</g>
		<g>
			<path style="fill:#0C1C7A;" d="M1246.797,2342.183c-0.708,0-1.401-0.002-2.114-0.007c-10.063-0.078-18.159-8.298-18.081-18.362
				c0.078-10.066,8.345-17.92,18.364-18.083c0.581,0.005,1.177,0.007,1.758,0.007c154.854,0,212.48-158.037,226.489-206.633
				c2.793-9.675,12.886-15.242,22.559-12.461c9.668,2.788,15.249,12.888,12.461,22.559
				C1492.437,2163.992,1426.997,2342.183,1246.797,2342.183z"/>
		</g>
		<g>
			<path style="fill:#0C1C7A;" d="M1972.051,2926.836c-0.923,0-1.787-0.005-2.622-0.01c-72.275-0.593-317.612-8.032-440.361-78.838
				c-43.071-24.844-66.978-53.115-71.05-84.023c-3.042-23.081,6.211-42.627,14.619-53.811
				c4.121-92.061,13.55-194.365,17.192-231.921c-300.64-97.09-484.849-372.556-550.728-487.839
				c-18.291-31.99-15.801-71.899,6.353-101.667c9.316-12.495,18.696-24.165,27.886-34.7
				c95.293-109.978,179.107-115.466,220.562-108.923c22.954,3.547,42.622,18.572,52.573,40.181
				c21.494,46.843,51.436,95.225,89.009,143.826c5.293,6.875,10.576,13.518,15.732,19.78c0.151,0.168,0.298,0.339,0.42,0.493
				c43.545,53.354,80.542,87.214,80.908,87.549c0.166,0.151,0.327,0.305,0.488,0.461c75.615,64.69,241.616,177.969,507.119,213.752
				c0.298,0.039,0.586,0.085,0.879,0.139c155.459,28.713,302.407,26.616,436.768-6.23c5.503-1.36,11.372-0.046,15.796,3.54
				c98.916,80.134,165.503,157.715,168.286,160.979c4.79,5.608,5.728,13.552,2.373,20.12
				c-43.594,85.354-94.321,131.733-114.941,148.284c5.938,43.516,12.271,104.99,13.999,122.048
				c24.209,38.53,17.363,69.202,7.07,88.379C2408.306,2904.094,2048.076,2926.834,1972.051,2926.836z M1169.756,1779.698
				c-37.666,0-98.218,16.655-168.916,98.24c-8.618,9.88-17.407,20.82-26.157,32.561c-13.491,18.127-15.044,42.395-3.94,61.809
				c64.751,113.311,247.373,386.462,543.921,475.493c8.374,2.515,13.784,10.623,12.886,19.321
				c-0.137,1.345-13.901,135.718-18.77,250.803c-0.195,4.561-2.095,8.884-5.322,12.114c-0.342,0.361-11.709,12.52-9.253,29.578
				c2.695,18.687,21.05,38.33,53.076,56.804c91.406,52.725,278.149,72.776,422.441,73.96c1.455,0.012,2.939,0.017,4.458,0.017
				c117.983,0,418.555-34.365,464.087-119.226c5.552-10.339,10.781-27.263-7.749-54.727c-1.689-2.502-2.729-5.386-3.032-8.391
				c-0.083-0.864-8.687-87.153-15.747-135.518c-1.011-6.929,2.036-13.823,7.842-17.737c0.552-0.376,57.227-39.741,106.465-130.745
				c-19.946-22.158-75.088-81.179-148.452-141.479c-136.846,32.014-285.732,33.574-442.749,4.629
				c-275.176-37.192-447.715-155.425-526.084-222.617c-0.195-0.166-0.386-0.334-0.571-0.508c-0.215-0.2-0.435-0.413-0.649-0.63
				c-4.692-4.319-40.85-38.044-83.799-90.61c-0.127-0.146-0.254-0.295-0.381-0.444c-5.498-6.67-11.128-13.745-16.733-21.028
				c-39.238-50.757-70.63-101.526-93.267-150.864c-4.81-10.452-14.189-17.71-25.073-19.392
				C1182.954,1780.271,1176.748,1779.698,1169.756,1779.698z"/>
		</g>
		<g>
			<path style="fill:#0C1C7A;" d="M1491.487,2462.077c14.474-53.039,31.57-105.088,53.483-155.449
				c2.483-5.726,11.406-2.649,9.738,3.414c-13.259,51.938-21.715,105.352-27.353,158.538
				C1523.712,2494.389,1485.851,2487.606,1491.487,2462.077L1491.487,2462.077z"/>
		</g>
		<g>
			<path style="fill:#0C1C7A;" d="M1178.796,1743.398c43.256,7.329,55.714,47.285,38.975,84.226
				c-23.748,51.794-72.727,85.971-121.764,110.562c-24.363,11.765-49.655,21.117-75.408,28.361
				c-6.447,1.691-9.64-7.651-3.277-10.144c48.273-18.043,95.05-43.583,131.698-79.64c17.07-17.019,33.072-37.407,40.726-59.838
				c6.237-19.151,4.734-36.365-16.525-37.497C1148.463,1775.7,1154.057,1739.478,1178.796,1743.398L1178.796,1743.398z"/>
		</g>
		<g>
			<g>
				<path style="fill:#C1CEDB;" d="M2279.522,2134.454c0.15,6.05-0.199,11.7-1.05,16.9h-0.05c-8.35,53.2-63.85,64-63.85,64
					c-52.6,352.05-395.7,352.05-478.05,121c-22.25-62.45-28.4-132.35-25.55-201.15c7.7-185.7,81.1-363.15,81.1-363.15l416.55,55.55
					c-14.65,130.8-70.149,220.3-71.849,223.1c50-33.15,78.75,45.65,78.75,45.65S2277.522,2066.604,2279.522,2134.454z"/>
			</g>
			<g style="opacity:0.2;">
				<path style="fill:#0C1C7A;" d="M2278.422,2151.354c-8.35,53.2-63.85,64-63.85,64c-52.6,352.05-395.7,352.05-478.05,121
					c-22.25-62.45-28.4-132.35-25.55-201.15l7.8,9.3c-5-22.45-6.2-42.65-4.6-55c7.6-59.75,62.55-252,62.55-252l53.4-150.4
					c-3.8,14.25-89.7,338.7-14.75,440.5c76.7,104.05,336.7-42.15,373.4-377.35c0,0,48.4,245.95-188.55,443.3
					c-95.25,79.35-161.4,87.75-205.95,65.5c7.45,58.65,39.299,190.2,175.3,167.55c174.15-29,211.25-224.15,211.25-224.15
					s-69.05-9-91.85-78.35l7.55-13.85C2096.522,2110.254,2163.372,2224.704,2278.422,2151.354z"/>
			</g>
			<g>
				<path style="fill:#0C1C7A;" d="M1797.517,1774.306c-60.286,191.299-156.893,613.804,100.559,693.975
					c131.246,37.46,242.748-59.073,279.948-180.693c8.442-24.151,13.745-49.496,18.502-74.919
					c1.385-7.749,7.325-13.571,14.55-15.199c12.708-3.136,25.936-10.212,34.965-19.577c11.505-11.761,16.285-28.861,15.084-45.619
					c-0.917-12.448-3.501-25.902-19.549-24.115c-6.153,0.383-13.029,2.348-18.832,4.905c-9.387,3.92-20.173-0.511-24.094-9.897
					c-1.252-3.229-3.1-7.413-4.817-10.72c-9.083-17.512-26.009-42.163-47.061-26.53c-8.493,5.459-19.803,3.001-25.263-5.491
					c-7.544-11.471,1.045-21.112,7.06-30.884c17.13-28.746,31.254-59.232,42.856-90.707c13.477-36.342,23.174-74.034,29.431-112.349
					c0.736-4.263,4.788-7.122,9.051-6.387c4.021,0.694,6.791,4.374,6.474,8.364c-1.642,19.871-3.669,39.802-7.207,59.517
					c-10.399,59.826-28.462,118.645-57.068,172.482c0.002,0.014-25.48-24.915-25.481-24.915
					c48.037-32.124,89.666,10.337,106.034,54.56c0-0.001-25.002-10.184-25.002-10.184c54.871-24.348,94.769,6.579,89.706,65.439
					c-1.036,31.377-21.921,62.268-49.968,76.633c-9.519,5.176-18.605,8.824-29.37,11.253c0,0,14.548-15.198,14.548-15.198
					c-7.928,55.101-23.285,110.283-51.582,158.778c-57.13,104.605-177.112,165.354-294.388,130.952
					c-121.61-36.521-177.28-142.937-190.413-261.941c-17.008-163.554,23.791-327.764,90.433-476.039
					C1790.06,1763.272,1799.807,1767.181,1797.517,1774.306L1797.517,1774.306z"/>
			</g>
			<g>
				<path style="fill:#0C1C7A;" d="M2151.866,2060.831c-61.439,81.114-189.638,218.594-301.671,166.778
					c-6.56-3.285-2.354-13.23,4.599-10.672c55.304,22.165,112.389-9.373,154.503-45.056c43.706-37.129,81.148-83.23,112.234-131.251
					C2135.226,2019.653,2165.998,2039.91,2151.866,2060.831L2151.866,2060.831z"/>
			</g>
			<g>
				<path style="fill:#0C1C7A;" d="M1866.968,1604.733c102.467-73.092,257.397-49.529,314.353,68.49
					c3.56,7.228-5.687,14.446-11.791,9.228c-21.831-18.03-43.289-34.111-66.012-46.755c-45.868-25.189-96.983-34.319-149.4-30.344
					c-26.581,1.742-54.022,6.393-80.785,12.827C1865.493,1620.131,1860.454,1609.558,1866.968,1604.733L1866.968,1604.733z"/>
			</g>
			<g>
				<path style="fill:#0C1C7A;" d="M1915.714,1737.32c42.228-20.657,95.973-19.877,135.791,6.393
					c13.444,9.044,24.652,21.545,31.15,35.969c1.211,2.688,0.013,5.85-2.675,7.061c-1.788,0.804-3.763,0.545-5.269-0.499
					c-23.521-15.677-46.497-25.689-73.598-31.26c-26.918-5.631-54.829-6.57-82.768-7.702
					C1912.852,1747.525,1910.796,1739.774,1915.714,1737.32L1915.714,1737.32z"/>
			</g>
			<g>
				<path style="fill:#0C1C7A;" d="M1873.913,1903.812c49.324-29.291,124.931-12.314,148.493,42.285
					c2.205,4.484-3.2,9.394-7.426,6.852c-17.077-10.088-31.236-18.927-48.924-25.52c-28.436-10.531-58.399-13-88.991-13.806
					C1871.64,1914.026,1869.221,1906.584,1873.913,1903.812L1873.913,1903.812z"/>
			</g>
			<g>
				<path style="fill:#0C1C7A;" d="M1843.086,2074.193c34.899-32.205,95.304-22.464,121.618,16.034
					c3.514,5.314,6.517,10.896,8.86,16.727c1.107,2.755-0.229,5.885-2.983,6.991c-1.418,0.57-2.935,0.492-4.224-0.093
					c-18.929-10.1-36.218-22.003-57.052-27.41c-19.724-5.74-40.326-5.225-61.275-3.209
					C1842.87,2084.393,1839.215,2077.85,1843.086,2074.193L1843.086,2074.193z"/>
			</g>
		</g>
		<g>
			<path style="fill:#0C1C7A;" d="M2411.777,2572.776c-6.885-62.892-16.755-127.149-39.228-186.58
				c-2.392-5.895,6.119-10.107,9.293-4.484c23.823,43.343,39.481,90.248,53.33,137.465c4.533,15.832,8.759,31.465,12.594,47.855
				c2.299,9.824-3.802,19.652-13.626,21.95C2423.43,2591.584,2412.652,2583.748,2411.777,2572.776L2411.777,2572.776z"/>
		</g>
		<g>
			<path style="fill:#020C66;" d="M987.072,1866.004c4.2-4.85,8.35-9.45,12.45-13.85
				C997.472,1855.654,993.422,1860.204,987.072,1866.004z"/>
		</g>
		<g>
			<path style="fill:#0C1C7A;" d="M2286.272,2869.154c1.701-0.55,3.65-1.05,5.8-1.5
				C2290.172,2868.204,2288.222,2868.704,2286.272,2869.154z"/>
		</g>
		<g>
			<path style="fill:#0C1C7A;" d="M1656.286,3014.797c155.889,57.751,324.386,74.555,487.566,41.819
				c54.23-10.286,107.771-25.021,161.113-41.922c8.493-2.674,13.96,9.594,5.645,13.884
				c-203.057,103.78-459.415,111.174-660.44-0.097C1642.347,3024.11,1647.464,3011.749,1656.286,3014.797L1656.286,3014.797z"/>
		</g>
		<g>
			<path style="fill:#0C1C7A;" d="M1863.857,3384.702c-59.277,0-111.738-14.258-115.337-15.256
				c-0.732-0.203-1.445-0.452-2.144-0.742c-156.592-65.359-218.467-22.761-219.077-22.324c-7.935,6.184-19.263,4.656-25.444-3.286
				c-6.177-7.944-4.619-19.49,3.32-25.671c3.032-2.358,76.089-56.76,254.092,17.173c12.344,3.225,134.702,33.606,200.566-8.027
				c8.516-5.381,19.761-2.837,25.142,5.667c5.376,8.506,2.837,19.763-5.669,25.139
				C1946.152,3378.33,1903.481,3384.702,1863.857,3384.702z"/>
		</g>
		<g>
			<path style="fill:#0C1C7A;" d="M1703.926,3423.338c-14.551,0.002-29.541-5.278-45.752-10.986
				c-12.588-4.434-26.855-9.458-44.297-13.708c-28.433-6.929-45.479-2.153-59.175,1.685c-12.466,3.499-29.551,8.284-42.495-7.651
				c-18.198-22.395-2.49-63.394,2.759-75.425c3.862-8.86,14.155-12.92,23.037-9.045c8.857,3.862,12.905,14.17,9.048,23.027
				c-5.781,13.362-9.38,30.054-8.315,37.131c1.992-0.466,4.482-1.165,6.519-1.736c14.8-4.15,39.556-11.094,76.914-1.99
				c19.131,4.663,34.932,10.227,47.632,14.7c29.844,10.51,37.192,11.995,47.104,3.733c18.828-15.693,19.004-29.939,19.004-30.537
				l0.024,0.518l34.922-2.329c0.215,3.193,1.138,32-31.548,59.238C1727.529,3419.776,1715.879,3423.338,1703.926,3423.338z"/>
		</g>
		<g>
			<path style="fill:#0C1C7A;" d="M1761.06,3372.051c-2.324,0-4.683-0.447-6.963-1.389c-9.297-3.848-13.716-14.504-9.873-23.804
				c0.161-0.396,17.983-45.256-6.67-66.438c-28.271-24.29-122.319-30.95-154.78-23.794c-10.249,2.258-16.064,34.346-14.233,60.439
				c0.708,10.032-6.846,18.748-16.875,19.463c-10.176,0.74-18.74-6.816-19.473-16.843c-0.654-8.989-5.005-88.123,42.729-98.65
				c36.328-8.003,144.39-4.331,186.382,31.743c44.697,38.401,17.769,105.186,16.602,108.01
				C1775,3367.81,1768.213,3372.051,1761.06,3372.051z"/>
		</g>
		<g>
			<path style="fill:#0C1C7A;" d="M1717.808,3527.344c-147.007,0-254.717-42.202-261.436-44.895
				c-8.97-3.601-13.32-13.789-9.722-22.759c3.594-8.97,13.77-13.318,22.759-9.727c3.022,1.208,240.249,93.501,486.021-0.112
				c9.038-3.435,19.15,1.096,22.583,10.127c3.442,9.031-1.094,19.141-10.122,22.583
				C1879.727,3516.14,1793.55,3527.344,1717.808,3527.344z"/>
		</g>
		<g>
			<path style="fill:#0C1C7A;" d="M1717.808,3527.344c-147.007,0-254.717-42.202-261.436-44.895
				c-8.97-3.601-13.32-13.789-9.722-22.759c3.594-8.97,13.77-13.318,22.759-9.727c3.022,1.208,240.249,93.501,486.021-0.112
				c9.038-3.435,19.15,1.096,22.583,10.127c3.442,9.031-1.094,19.141-10.122,22.583
				C1879.727,3516.14,1793.55,3527.344,1717.808,3527.344z"/>
		</g>
	</g>
</g>
</svg>
