<?xml version="1.0" encoding="utf-8"?>
<!-- Generator: Adobe Illustrator 27.5.0, SVG Export Plug-In . SVG Version: 6.00 Build 0)  -->
<svg version="1.1" id="Layer_1" xmlns="http://www.w3.org/2000/svg" xmlns:xlink="http://www.w3.org/1999/xlink" x="0px" y="0px"
	 viewBox="0 0 4000 4000" style="enable-background:new 0 0 4000 4000;" xml:space="preserve">
<g>
	<g>
		<rect style="fill:#D8D0CA;" width="4000" height="4000"/>
	</g>
	<g>
		<g>
			<g>
				<path style="fill:#FD9D24;" d="M3424.237,1870.998c-2.076,104.703-28.452,212.219-89.112,314.055
					c-3.119,5.196-6.284,10.291-9.6,15.34c-15.532,23.746-33.255,45.813-52.798,66.102
					c-90.891,94.509-220.73,150.572-349.674,161.704c-124.443,10.785-248.145-20.238-335.381-98.812l9.302-165.317
					c80.111,42.21,153.096,63.436,218.21,68.087h0.096c16.625,1.189,32.76,1.285,48.347,0.398
					c56.209-3.266,105.686-19.593,147.896-45.521c22.662-13.904,43.243-30.583,61.597-49.532
					c30.977-31.864,55.77-70.118,73.927-112.172c10.986-25.283,19.593-52.006,25.681-79.516c4.948-22.365,8.31-45.324,9.947-68.531
					c2.173-30.625,1.432-61.753-2.378-92.578c-2.424-19.891-6.138-39.63-11.137-59.077c-5.292-20.636-12.019-40.92-20.188-60.664
					c-5.438-12.916-11.429-25.63-18.107-38.048c-5.346-9.897-10.784-19.447-16.424-28.654
					c-11.036-18.056-22.712-34.782-34.837-50.122c-19.447-24.492-40.225-45.42-62.1-62.443
					c-81.835-63.879-178.722-73.676-277.136-15.783c-219.893,129.291-259.226-68.43-209.205-141.863
					c135.63-199.157,455.767-173.279,636.469-35.523c13.158,9.993,25.58,20.581,37.11,31.764
					c16.177,15.637,32.065,33.003,47.451,51.951c17.663,21.629,34.636,45.279,50.616,70.657
					c22.964,36.47,43.842,76.498,61.606,119.201c10.689,25.781,20.238,52.496,28.402,79.96
					c10.487,35.281,18.701,71.746,24.048,109.057c3.81,26.124,6.234,52.596,7.121,79.365
					C3424.438,1846.603,3424.488,1858.777,3424.237,1870.998"/>
			</g>
			<g>
				<g>
					<g>
						<path style="fill:#FC7D27;" d="M3424.237,1870.998c-2.076,104.703-28.452,212.219-89.112,314.055
							c-3.119,5.196-6.284,10.291-9.6,15.34c-15.532,23.746-33.255,45.813-52.798,66.102
							c-90.891,94.509-220.73,150.572-349.674,161.704c-124.443,10.785-248.145-20.238-335.381-98.812l9.302-165.317
							c80.111,42.21,153.096,63.436,218.21,68.087h0.096c75.066,32.902,174.322,56.461,287.93,34.338
							c203.46-39.584,311.132-282.337,313.656-511.377c3.81,26.124,6.234,52.596,7.121,79.365
							C3424.438,1846.603,3424.488,1858.777,3424.237,1870.998"/>
					</g>
				</g>
			</g>
			<g>
				<path style="fill:#FFFFFF;" d="M3167.62,1292.542c-73.681,45.873-117.724,116.677-143.524,176.952
					c-2.333,5.488-4.523,10.885-6.581,16.191c-81.826-63.843-178.736-73.68-277.164-15.779
					c-186.095,109.446-242.899-15.413-225.61-100.893c3.151-15.505,8.731-29.683,16.419-40.975
					C2666.813,1128.899,2986.913,1154.785,3167.62,1292.542"/>
			</g>
			<g style="opacity:0.15;">
				<g>
					<path style="fill:#650000;" d="M3024.097,1469.496c-2.333,5.484-4.523,10.885-6.582,16.191
						c-81.826-63.847-178.74-73.68-277.164-15.779c-186.094,109.446-242.899-15.413-225.61-100.898
						c10.652,34.489,36.355,74.417,98.012,77.481C2695.164,1450.556,2919.819,1281.567,3024.097,1469.496"/>
				</g>
			</g>
			<g>
				<path style="fill:#650000;" d="M3104.148,2332.899c-6.184,0-19.644-70.909-92.624-145.87
					c22.662-13.904,43.243-30.579,61.602-49.532C3115.925,2230.821,3111.521,2332.899,3104.148,2332.899"/>
			</g>
			<g>
				<path style="fill:#650000;" d="M3325.525,2200.39c-15.532,23.746-33.255,45.818-52.798,66.102
					c-57.989-104.895-135.525-136.517-134.189-142.751C3140.071,2116.52,3246.009,2134.48,3325.525,2200.39"/>
			</g>
			<g>
				<path style="fill:#650000;" d="M3322.804,2093.313c-5.196,3.664-62.151-52.248-175.758-67.982
					c10.99-25.287,19.593-52.006,25.685-79.516C3268.425,1994.748,3329.088,2088.959,3322.804,2093.313"/>
			</g>
			<g>
				<path style="fill:#650000;" d="M3424.237,1870.998c-49.129-10.144-143.835-25.781-241.559,6.284
					c2.173-30.625,1.432-61.753-2.378-92.578c10.542-1.583,22.415-2.772,35.774-3.759c89.56-6.581,165.806,24.002,207.915,53.538
					C3424.438,1846.603,3424.488,1858.777,3424.237,1870.998"/>
			</g>
			<g>
				<path style="fill:#650000;" d="M3392.82,1646.061c-83.226-5.543-173.925,45.919-223.653,79.562
					c-5.296-20.632-12.024-40.92-20.188-60.659c58.532-50.273,121.922-79.365,214.46-77.038
					C3374.128,1613.708,3384.656,1618.597,3392.82,1646.061"/>
			</g>
			<g>
				<path style="fill:#650000;" d="M3302.813,1446.9c-94.257,36.868-156.458,106.931-188.372,151.363
					c-11.036-18.061-22.708-34.787-34.833-50.122c41.313-68.979,99.055-133.352,172.589-171.898
					C3269.86,1397.867,3286.833,1421.517,3302.813,1446.9"/>
			</g>
			<g>
				<path style="fill:#650000;" d="M2923.053,2428.198c-124.443,10.785-248.145-20.238-335.381-98.812l9.303-165.317
					c100.596,52.994,189.909,72.935,266.654,68.485C2893.261,2296.081,2915.923,2363.281,2923.053,2428.198"/>
			</g>
			<g>
				<path style="fill:#650000;" d="M2874.591,2448.671c-116.743,0-222.71-36.826-299.17-105.674
					c-7.51-6.758-8.115-18.325-1.353-25.835c6.758-7.515,18.33-8.11,25.835-1.353c86.958,78.301,216.836,111.108,356.377,90.029
					c155.43-23.491,291.177-109.536,363.115-230.171c186.567-312.859,37.837-678.506-127.363-838.22
					c-97.388-94.155-259.131-147.52-402.559-132.822c-74.619,7.656-177.383,37.073-243.198,133.73
					c-22.5,33.037-23.501,98.311,8.921,132.957c33.569,35.874,96.035,29.783,175.894-17.175
					c66.958-39.377,137.114-50.449,202.856-32.039c82.886,23.213,156.553,91.047,213.032,196.167
					c93.564,174.141,66.328,404.028-63.35,534.736c-55.532,55.981-126.758,89.473-205.977,96.855
					c-88.628,8.262-185.928-15.151-289.209-69.595c-8.94-4.707-12.363-15.771-7.651-24.712c4.712-8.936,15.776-12.373,24.712-7.651
					c182.778,96.333,343.354,88.999,452.148-20.664c118.804-119.751,143.35-331.116,57.1-491.65
					c-51.665-96.147-117.598-157.786-190.674-178.254c-56.753-15.891-115.43-6.35-174.443,28.345
					c-129.688,76.274-194.229,39.402-221.152,10.637c-45.723-48.857-43.257-133.313-12.451-178.55
					c58.364-85.71,151.626-137.419,269.707-149.534c153.53-15.762,327.012,41.68,431.724,142.915
					c96.826,93.608,174.18,237.002,206.919,383.574c27.896,124.9,37.778,312.981-73.56,499.69
					c-77.485,129.937-222.935,222.5-389.072,247.607C2932.237,2446.474,2903.087,2448.671,2874.591,2448.671z"/>
			</g>
			<g>
				<path style="fill:#FD9D24;" d="M1625.231,2689.402c0,0-30.181,493.865-173.577,569.274c-1.733,0.887-3.462,1.779-5.292,2.671
					c-115.291,55.221-437.756,48.091-422.316-108.957c8.758-89.062,102.471-86.738,146.707-106.533
					c1.486-1.088,2.968-2.278,4.404-3.613c20.682-18.651,35.578-58.926,46.907-112.661c4.898-23.357,9.156-49.285,12.916-77.092
					c5.493-40.92,9.948-85.901,13.904-132.808c2.968-35.376,5.639-71.896,8.315-108.508
					c15.834-217.762,30.479-440.775,96.681-473.627L1625.231,2689.402z"/>
			</g>
			<g>
				<path style="fill:#650000;" d="M1348.715,2926.223c-0.146,12.568-36.397-11.585-126.647,3.357
					c4.898-23.353,9.152-49.28,12.911-77.088C1286.688,2880.744,1348.815,2916.623,1348.715,2926.223"/>
			</g>
			<g>
				<path style="fill:#650000;" d="M1405.764,2719.684c0,8.909-24.45-20.485-156.879,0c2.968-35.377,5.639-71.897,8.315-108.513
					C1320.53,2639.679,1405.764,2706.869,1405.764,2719.684"/>
			</g>
			<g>
				<path style="fill:#FFFFFF;" d="M1446.364,3261.365c-55.867,26.735-160.306,38.827-251.378,26.428
					c-1.173-0.204-2.347-0.357-3.521-0.51c-27.347-3.98-53.418-10.153-76.48-18.826c-1.531-0.562-3.061-1.174-4.54-1.786
					c-1.531-0.612-3.01-1.225-4.49-1.837c-4.439-1.837-8.776-3.826-12.959-5.918c-2.449-1.224-4.847-2.449-7.194-3.775
					c-10.408-5.714-19.796-12.143-27.959-19.286c-0.969-0.867-1.939-1.735-2.857-2.602c-1.99-1.837-3.877-3.724-5.663-5.663
					c-0.765-0.816-1.531-1.633-2.245-2.5c-2.5-2.806-4.796-5.714-6.888-8.725c-1.939-2.704-3.724-5.561-5.306-8.469
					c-0.766-1.377-1.48-2.755-2.143-4.133c-1.071-2.194-2.092-4.439-2.959-6.684c-0.459-1.173-0.868-2.295-1.276-3.469
					c-0.408-1.173-0.765-2.347-1.123-3.521c-0.765-2.398-1.378-4.847-1.888-7.347c-0.714-3.265-1.224-6.633-1.531-10.102
					c-0.612-6.479-0.612-13.214,0.102-20.255c8.725-89.082,102.449-86.735,146.684-106.531c1.48-1.072,2.959-2.245,4.388-3.623
					c115.306,0.918,246.99,30.51,269.541,151.021C1448.507,3213.303,1449.221,3235.956,1446.364,3261.365z"/>
			</g>
			<g>
				<g>
					<path style="fill:#FC7D27;" d="M1625.242,2689.425c0,0-30.204,493.828-173.572,569.236c-1.734,0.918-3.469,1.786-5.306,2.704
						c2.857-25.408,2.143-48.061-1.684-68.113c87.909-82.092,73.725-320.256,73.725-320.256s-90.97-73.418-154.337-200.052
						c-44.388-88.725-66.684-236.633-77.959-364.49c13.928-88.878,34.235-154.286,67.755-170.919L1625.242,2689.425z"/>
				</g>
				<g style="opacity:0.15;">
					<path style="fill:#650000;" d="M1446.364,3261.365c-55.867,26.735-160.306,38.827-251.378,26.428
						c-1.173-0.204-2.347-0.357-3.521-0.51c-27.347-3.98-53.418-10.153-76.48-18.826c-1.531-0.562-3.061-1.174-4.54-1.786
						c-1.531-0.612-3.01-1.225-4.49-1.837c-4.439-1.837-8.776-3.826-12.959-5.918c-2.449-1.224-4.847-2.449-7.194-3.775
						c-10.408-5.714-19.796-12.143-27.959-19.286c-0.969-0.867-1.939-1.735-2.857-2.602c-1.99-1.837-3.877-3.724-5.663-5.663
						c-0.765-0.816-1.531-1.633-2.245-2.5c-2.5-2.806-4.796-5.714-6.888-8.725c-1.939-2.755-3.724-5.561-5.306-8.469
						c-0.766-1.377-1.48-2.755-2.143-4.133c-1.071-2.194-2.092-4.439-2.959-6.684c-0.459-1.173-0.868-2.295-1.276-3.469
						c-0.408-1.173-0.765-2.347-1.123-3.521c-0.714-2.347-1.327-4.796-1.837-7.245c0-0.051-0.051-0.051-0.051-0.102
						c-2.602-4.898-3.061-8.163-1.531-10.102c14.286-18.826,211.939,88.01,393.674,39.031c1.99-0.51,3.623-1.735,5.306-2.653
						c7.857-4.235,15.102-9.592,21.734-15.765C1448.507,3213.303,1449.221,3235.956,1446.364,3261.365z"/>
				</g>
			</g>
			<g>
				<path style="fill:#650000;" d="M1357.585,2144.976c-6.897,3.901-12.742,10.35-17.608,17.732
					c-4.866,7.441-8.919,15.738-12.358,24.405c-6.874,17.361-11.837,35.898-15.866,54.668
					c-8.109,37.609-12.957,76.269-17.137,114.998c-7.958,77.577-12.591,155.859-17.704,234.245
					c-5.264,78.405-10.204,157.021-19.342,235.81c-4.583,39.406-10.345,78.826-19.292,118.3
					c-4.564,19.73-9.943,39.479-17.691,59.187c-3.91,9.842-8.425,19.689-14.37,29.399c-5.946,9.632-13.3,19.442-24.309,27.529
					l-0.192,0.142c-0.988,0.727-2.113,1.349-3.192,1.816c-15.171,6.412-28.942,9.207-42.173,12.563
					c-13.204,3.16-25.822,6.522-37.512,10.807c-11.708,4.24-22.447,9.545-31.082,16.547c-8.685,6.934-15.193,15.385-19.465,25.328
					c-2.099,4.985-3.828,10.24-4.825,15.88c-1.166,5.571-1.692,11.489-1.861,17.105c-0.192,11.333,1.834,22.191,6.334,32.102
					c8.854,19.936,27.666,35.825,49.614,47.222c22.045,11.484,47.062,18.948,72.56,24.089c25.585,5.072,51.892,7.825,78.291,8.713
					c26.403,0.869,52.948,0.023,79.196-2.712c26.22-2.726,52.276-7.263,76.978-14.388c12.303-3.595,24.299-7.885,35.084-13.236
					c2.808-1.322,5.077-2.74,7.45-4.098c2.346-1.45,4.647-3.073,6.929-4.743c4.491-3.526,8.941-7.277,13.044-11.672
					c16.716-17.219,30.021-39.648,41.35-62.997c22.337-47.222,38.23-98.785,51.023-150.96c12.843-52.276,22.232-105.586,31.247-159
					l26.23-160.885l0.009-0.087c0.745-4.546,5.036-7.638,9.582-6.888c4.016,0.649,6.892,4.07,7.002,7.99
					c0.809,27.688,0,55.098-1.537,82.572c-1.564,27.446-4.002,54.837-7.203,82.165c-6.494,54.645-16.19,108.966-28.736,162.897
					c-6.289,26.961-13.497,53.803-21.93,80.422c-8.512,26.609-18.249,53.026-30.757,78.684c-12.6,25.553-27.286,50.909-48.69,72.981
					c-5.255,5.548-11.233,10.675-17.512,15.513c-3.215,2.36-6.522,4.656-9.98,6.774c-3.531,2.063-7.121,4.157-10.492,5.744
					c-13.707,6.737-27.551,11.576-41.441,15.61c-27.785,7.981-55.798,12.5-83.866,15.294c-28.068,2.749-56.223,3.476-84.373,2.378
					c-28.146-1.116-56.301-4.208-84.241-9.92c-27.89-5.822-55.729-14.164-82.151-27.981c-13.145-6.961-25.983-15.313-37.448-26.01
					c-11.503-10.533-21.574-23.673-28.26-38.688c-6.773-14.992-9.728-31.626-9.367-47.57c0.247-8.008,1.02-15.733,2.671-23.522
					c1.473-7.789,3.988-15.601,7.254-23.138c6.545-15.134,17.375-28.823,30.131-38.766c12.778-10.002,26.783-17.023,40.604-22.31
					c13.853-5.383,27.684-9.014,40.87-12.765c13.112-3.65,26.037-7.199,35.948-11.704l-3.384,1.958
					c4.907-3.558,9.874-9.573,14.132-16.643c4.308-7.066,8.05-15.129,11.356-23.545c6.6-16.895,11.603-35.166,15.816-53.717
					c8.392-37.201,13.743-75.702,18.527-114.294c9.184-77.335,14.924-155.589,21.167-233.916
					c6.412-78.336,12.733-156.924,24.025-235.361c5.667-39.205,12.582-78.396,23.087-117.171
					c5.443-19.328,11.64-38.638,20.581-57.275c4.482-9.303,9.678-18.455,16.236-27.016c6.632-8.429,14.873-16.515,25.63-21.487
					c4.167-1.926,9.106-0.105,11.031,4.066c1.829,3.947,0.288,8.594-3.426,10.707L1357.585,2144.976z"/>
			</g>
			<g>
				<path style="fill:#FD9D24;" d="M2861.846,2471.295c-2.872,81.689-28.85,160.862-79.517,223.603
					c-147.201,182.234-351.805,209.402-642.698,219.592c-317.965,11.187-572.586-21.08-712.171-214.643
					c-186.442-258.439-100.299-607.519-100.299-607.519l399.507-57.943l198.612-28.8c64.469,12.225,124.594,16.826,181.297,17.764
					c85.151,1.436,162.738-5.392,236.418-7.373c36.021-0.942,71.106-0.741,105.636,2.227c25.489,2.177,50.621,5.79,75.656,11.53
					c31.375,7.171,62.544,17.613,93.868,32.555c17.764,8.516,35.624,18.454,53.538,30.039c5.69,3.654,11.228,7.469,16.671,11.475
					c8.017,5.79,15.788,11.877,23.257,18.162c19.84,16.721,37.755,35.276,53.689,55.171c4.596,5.735,9.102,11.576,13.355,17.563
					c35.674,49.431,60.216,106.185,73.036,164.919C2859.765,2396.48,2863.182,2434.134,2861.846,2471.295"/>
			</g>
			<g>
				<path style="fill:#650000;" d="M2618.155,2062.289c-7.277,123.752-115.982,249.732-121.031,246.118
					c-5.196-3.714,43.097-146.364,27.167-278.673C2555.662,2036.905,2586.831,2047.342,2618.155,2062.289"/>
			</g>
			<g>
				<path style="fill:#650000;" d="M2778.669,2194.7c-60.166,99.503-187.778,165.509-190.893,160.661
					c-3.32-5.145,86.441-110.987,123.848-233.395c19.84,16.721,37.755,35.276,53.685,55.167
					C2769.91,2182.872,2774.41,2188.708,2778.669,2194.7"/>
			</g>
			<g>
				<path style="fill:#650000;" d="M2448.634,2018.201c13.245,97.71-88.083,286.019-93.718,282.012
					c-5.543-3.961,14.402-92.62-11.923-284.235C2379.014,2015.036,2414.098,2015.238,2448.634,2018.201"/>
			</g>
			<g style="opacity:0.7;">
				<g>
					<g>
						<path style="fill:#FFFFFF;" d="M2861.846,2471.295c-0.741,21.125-3.019,42.109-6.929,62.69
							c0.499-6.334,0.841-12.664,1.088-18.999c1.34-37.16-2.076-74.815-10.144-111.678
							c-12.815-58.734-37.357-115.488-73.031-164.919c-4.258-5.987-8.759-11.827-13.359-17.567
							c-15.934-19.886-33.845-38.446-53.685-55.167c-7.473-6.284-15.244-12.371-23.257-18.162
							c-5.443-4.006-10.986-7.816-16.68-11.48c-17.91-11.576-35.77-21.523-53.534-30.035c-31.32-14.942-62.494-25.384-93.864-32.555
							c-25.04-5.74-50.177-9.353-75.656-11.535c-34.54-2.964-69.619-3.165-105.641-2.223c-73.676,1.98-151.262,8.809-236.418,7.373
							c-56.703-0.942-116.823-5.543-181.297-17.764l-198.613,28.795l-399.503,57.943c0,0-3.911,15.788-8.265,43.198
							c5.886-53.589,14.1-86.885,14.1-86.885l399.507-57.943l198.612-28.8c64.469,12.225,124.594,16.826,181.297,17.764
							c85.151,1.436,162.738-5.392,236.418-7.373c36.021-0.942,71.106-0.741,105.636,2.227c25.489,2.177,50.621,5.79,75.656,11.53
							c31.375,7.171,62.544,17.613,93.868,32.555c17.764,8.516,35.624,18.454,53.538,30.039c5.69,3.654,11.228,7.469,16.671,11.475
							c8.017,5.79,15.788,11.877,23.257,18.162c19.84,16.721,37.755,35.276,53.689,55.171c4.596,5.735,9.102,11.576,13.355,17.563
							c35.674,49.431,60.216,106.185,73.036,164.919C2859.765,2396.48,2863.182,2434.134,2861.846,2471.295"/>
					</g>
				</g>
			</g>
			<g>
				<path style="fill:#FFFFFF;" d="M2861.826,2471.312c-2.857,81.684-28.826,160.868-79.49,223.572
					c-147.194,182.246-351.786,209.439-642.705,219.593c-317.96,11.224-572.603-21.072-712.196-214.643
					c-186.429-258.419-100.255-607.501-100.255-607.501l399.49-57.959l102.959,181.123c0,0-96.684,90.306-86.071,236.735
					c2.092,29.082,8.418,60.408,20.612,93.674c11.684,31.939,28.725,65.664,52.551,100.919
					c39.031,57.704,178.419,86.429,346.378,81.429c69.235-2.092,143.317-9.898,217.245-23.776
					C2570.448,2668.813,2759.479,2592.996,2861.826,2471.312z"/>
			</g>
			<g>
				<g>
					<path style="fill:#FC7D27;" d="M2088.1,2127.485c-43.367,116.735-220.409,225.51-344.542,324.745
						c-10.612-146.429,86.071-236.735,86.071-236.735l-102.959-181.123l198.623-28.776c64.439,12.194,124.592,16.837,181.276,17.755
						C2108.202,2052.536,2103.151,2087.026,2088.1,2127.485z"/>
				</g>
				<g style="opacity:0.15;">
					<path style="fill:#650000;" d="M2861.826,2471.312c-2.857,81.684-28.826,160.868-79.49,223.572
						c-147.194,182.246-351.786,209.439-642.705,219.593c-317.96,11.224-572.603-21.072-712.196-214.643
						c-186.429-258.419-100.255-607.501-100.255-607.501l399.49-57.959l102.959,181.123c0,0-96.684,90.306-86.071,236.735
						c-96.786,77.398-161.429,148.98-105.357,214.082c55.561,64.49,107.755-66.888,125.969-120.408
						c4.388-12.959,6.786-21.327,6.786-21.327l351.429,106.072c0,0,15.255,49.439,40.714,97.602
						c20,37.806,46.378,74.898,76.531,86.582c53.265,20.612,159.49,11.377,165.919-15.255c3.929-16.072-17.5-51.174-25.204-95.102
						c-5-28.622-4.184-61.02,13.265-94.337c25.969-49.592,283.776-172.092,458.113-250.51
						C2859.786,2396.465,2863.204,2434.118,2861.826,2471.312z"/>
				</g>
			</g>
			<g>
				<path style="fill:#650000;" d="M2032.471,2934.838c-249.502,0.005-485.908-38.535-619.873-224.277
					c-99.077-137.378-121.836-299.404-123.481-411.138c-1.777-120.557,19.404-207.852,20.303-211.509
					c2.422-9.805,12.349-15.786,22.139-13.374c9.805,2.417,15.801,12.324,13.389,22.134c-0.84,3.413-81.792,344.126,97.329,592.48
					c143.105,198.428,419.404,216.748,696.709,207.065c266.606-9.351,482.217-30.957,629.111-212.822
					c62.388-77.236,88.018-184.98,70.327-295.605c-18.804-117.554-83.208-219.658-176.694-280.132
					c-128.721-83.267-253.237-77.158-397.427-70.073c-99.941,4.912-213.213,10.464-342.417-14.028
					c-9.927-1.885-16.45-11.455-14.566-21.384c1.885-9.922,11.421-16.458,21.382-14.565
					c124.946,23.694,231.128,18.476,333.804,13.435c150.493-7.402,280.469-13.774,419.097,75.894
					c102.183,66.099,172.51,177.295,192.949,305.078c19.331,120.85-9.097,239.077-77.988,324.37
					c-156.621,193.901-380.234,216.719-656.299,226.396C2104.249,2934.047,2068.214,2934.838,2032.471,2934.838z"/>
			</g>
			<g>
				<path style="fill:#FD9D24;" d="M2050.763,3291.829c-9.55,15.486-19.694,26.669-30.282,32.555
					c-105.394,58.734-415.634,59.182-410.045-95.396c2.675-73.63,48.887-85.8,91.687-104.108c1.884-0.791,3.714-1.583,5.543-2.424
					c7.322-21.523,13.803-44.629,19.598-69.669c5.488-23.655,10.291-49.084,14.544-76.544c4.057-26.325,7.574-54.531,10.537-84.863
					c3.023-30.231,5.493-62.64,7.524-97.422c1.285-21.523,2.374-43.993,3.266-67.442c1.285-32.66,2.273-67.245,2.918-103.907
					c0.841-45.128,1.239-93.37,1.239-145.129l353.534,144.384C2160.113,2832.897,2120.875,3178.418,2050.763,3291.829"/>
			</g>
			<g>
				<path style="fill:#650000;" d="M2050.763,2713.167c0,0-163.876-48.023-287.628,13.346c1.285-32.66,2.273-67.241,2.918-103.907
					C1913.505,2608.949,2031.832,2672.549,2050.763,2713.167"/>
			</g>
			<g>
				<path style="fill:#650000;" d="M2043.737,2896.535c-3.664-1.239-167.329-57.193-291.388-5.154
					c3.018-30.231,5.488-62.64,7.519-97.427C1878.178,2786.188,2023.54,2858.991,2043.737,2896.535"/>
			</g>
			<g>
				<path style="fill:#650000;" d="M2007.385,3069.425c0,0-149.314-40.165-280.123-16.639c5.493-23.655,10.291-49.084,14.549-76.543
					C1891.252,2980.359,1974.203,3026.644,2007.385,3069.425"/>
			</g>
			<g>
				<path style="fill:#FFFFFF;" d="M2050.753,3291.824c-9.541,15.51-19.694,26.684-30.255,32.551
					c-105.408,58.725-415.664,59.184-410.052-95.408c0.051-1.632,0.153-3.163,0.255-4.745c0.051-1.122,0.153-2.245,0.255-3.367
					c5.663-66.429,50-78.367,91.174-95.969c97.551-1.327,251.123,11.173,317.807,94.949
					C2035.702,3239.63,2046.57,3263.354,2050.753,3291.824z"/>
			</g>
			<g>
				<g>
					<path style="fill:#FC7D27;" d="M2050.753,3291.824c-4.184-28.469-15.051-52.194-30.817-71.99
						c72.857-118.419,88.674-424.695,88.827-602.909l12.041,4.949C2160.09,2832.894,2120.855,3178.406,2050.753,3291.824z"/>
				</g>
				<g style="opacity:0.15;">
					<path style="fill:#650000;" d="M2050.753,3291.824c-9.541,15.51-19.694,26.684-30.255,32.551
						c-105.408,58.725-415.664,59.184-410.052-95.408c0.051-1.632,0.153-3.163,0.255-4.745c0.051-1.122,0.153-2.245,0.255-3.367
						c53.265,90.714,293.113,88.521,373.419,37.755c13.163-8.316,24.949-21.582,35.561-38.775
						C2035.702,3239.63,2046.57,3263.354,2050.753,3291.824z"/>
				</g>
			</g>
			<g>
				<path style="fill:#650000;" d="M1775.581,2477.49c3.878,54.229,5.566,108.522,6.101,162.875
					c0.215,54.353-0.768,108.774-3.773,163.218c-2.854,54.444-7.377,108.966-15.12,163.378c-3.759,27.204-8.877,54.33-14.613,81.373
					c-6.11,27.002-13.318,53.872-22.196,80.358l-0.073,0.215c-1.752,5.218-5.657,9.184-10.341,11.219
					c-13.853,5.937-27.222,10.547-39.017,16.035c-11.832,5.47-21.935,11.759-29.454,19.708c-7.345,8.068-12.244,17.947-15.01,29.477
					c-2.753,11.283-3.709,24.834-2.753,36.108c2.118,23.165,14.942,43.28,35.006,57.902c19.909,14.736,44.981,24.514,70.932,30.913
					c26.047,6.439,53.273,9.755,80.619,10.931c27.359,1.125,54.933,0.105,82.155-3.032c27.176-3.169,54.193-8.365,79.462-16.675
					c6.284-2.108,12.486-4.345,18.418-6.892c2.95-1.285,5.891-2.575,8.703-3.993c1.441-0.672,2.817-1.4,4.176-2.14l2.058-1.093
					l1.399-0.892c7.469-4.679,15.45-14.416,21.967-25.136c13.259-21.834,23.078-47.757,31.38-73.895
					c8.269-26.294,14.937-53.374,20.663-80.706c11.544-54.686,19.543-110.425,24.766-166.405
					c2.607-27.995,4.532-56.068,5.721-84.159c0.627-14.045,0.993-28.1,1.253-42.146c0.384-14.05,0.553-28.1,0.517-42.146
					c0.224-56.205-1.441-112.254-5.882-168.514l-0.004-0.069c-0.362-4.596,3.069-8.621,7.67-8.983c4.02-0.32,7.606,2.278,8.681,6.01
					c16.049,55.679,22.488,113.489,24.802,170.947c0.471,14.388,0.732,28.772,0.768,43.161c-0.077,14.379-0.347,28.763-0.841,43.134
					c-0.938,28.736-2.625,57.44-5.013,86.098c-4.83,57.298-12.307,114.44-23.883,171.139c-5.973,28.311-12.934,56.516-21.766,84.474
					c-8.996,27.931-19.218,55.734-35.491,82.622c-4.075,6.709-8.772,13.336-14.26,19.762c-5.525,6.398-11.928,12.701-20.311,17.983
					l-3.138,1.916l-2.652,1.409c-1.766,0.951-3.531,1.875-5.31,2.717c-3.545,1.774-7.116,3.343-10.684,4.884
					c-7.144,3.06-14.329,5.635-21.537,7.995c-28.845,9.298-58.02,14.649-87.31,17.928c-29.294,3.22-58.729,4.153-88.183,2.79
					c-29.44-1.431-58.944-5.113-88.092-12.472c-29.015-7.459-58.19-18.34-84.149-37.544c-6.426-4.848-12.6-10.227-18.322-16.223
					c-5.671-6.055-10.858-12.733-15.299-19.977c-9.037-14.425-14.311-31.352-15.962-48.073c-1.308-17.05,0.009-32.216,3.915-48.563
					c3.897-16.062,11.905-32.518,23.925-45.384c11.864-13.007,26.458-21.885,40.238-28.562c13.863-6.801,27.24-11.988,39.342-17.659
					l-10.409,11.434c8.182-24.958,15.084-50.447,20.869-76.31c5.452-25.96,10.359-52.112,13.972-78.597
					c7.739-52.853,12.683-106.377,16.488-160.076c3.59-53.721,6.334-107.621,8.982-161.603
					c2.886-53.987,5.173-108.065,9.275-162.193v-0.037c0.348-4.592,4.349-8.031,8.941-7.679
					C1772.073,2470.09,1775.298,2473.428,1775.581,2477.49"/>
			</g>
			<g>
				<path style="fill:#FD9D24;" d="M2479.67,1676.487c-25.384-5.241-40.28-6.975-40.28-6.975s7.821,241.019-101.927,394.458
					c-12.618,17.613-57.545-36.717-57.545-36.717s-1.779,82.288-15.637,112.817c-40.668,89.757-167.146,105.787-245.716,113.805
					c-12.024,1.239-17.814-47.652-17.814-47.652s-49.084,50.52-64.822,50.126c-32.23-0.787-83.303,7.199-136.393,18.006
					c-137.999,28.077-280.091,28.104-418.09,0.032c-53.2-10.821-104.392-18.825-136.654-18.038
					c-15.738,0.393-64.821-50.126-64.821-50.126s-5.79,48.892-17.814,47.652c-78.574-8.018-205.043-24.048-245.721-113.805
					c-13.853-30.529-15.633-112.817-15.633-112.817s-44.931,54.33-57.549,36.717c-109.743-153.439-101.927-394.458-101.927-394.458
					s-14.892,1.733-40.28,6.975c0-100.098,72.491-207.815,72.491-207.815l-24.743-21.377
					c-44.135-38.052-64.817-74.074-64.817-74.074s92.185-22.758,138.543-69.665c35.724-36.172,70.763-77.44,99.754-118.904
					c28.503-40.572,51.215-81.341,63.234-117.614c-73.475-83.82-73.429-272.636,32.413-343.193
					c104.799-69.82,241.412,11.974,278.87,136.961c66.106-21.327,195.594-45.077,293.665-45.077
					c98.122,0,227.362,23.751,293.469,45.077c37.458-124.987,174.071-206.781,278.87-136.961
					c105.837,70.557,105.888,259.373,32.413,343.193c13.209,39.781,39.237,84.913,71.595,129.295
					c27.263,37.503,59.031,74.417,91.389,107.223c46.363,46.907,138.543,69.665,138.543,69.665s-20.682,36.022-64.813,74.074
					l-24.748,21.377C2407.179,1468.672,2479.67,1576.389,2479.67,1676.487"/>
			</g>
			<g>
				<path style="fill:#EE7E80;" d="M1048.307,1014.272c70.172-78.807,99.229-71.041,145.783-100.002
					c36.813-22.895-24.601-133.992-94.678-133.942c-35.546,0.023-117.733,48.023-75.894,199.372c0,0,3.979,10.624,9.87,18.916
					C1039.284,1006.918,1048.307,1014.272,1048.307,1014.272"/>
			</g>
			<g>
				<path style="fill:#EE7E80;" d="M2120.358,1014.272c-70.173-78.807-99.229-71.041-145.783-100.002
					c-36.813-22.895,24.601-133.992,94.673-133.942c35.551,0.023,117.733,48.023,75.899,199.372"/>
			</g>
			<g>
				<path style="fill:#FFFFFF;" d="M2479.688,1676.487c-25.384-5.246-40.28-6.975-40.28-6.975s7.821,241.014-101.927,394.458
					c-12.619,17.608-57.545-36.721-57.545-36.721s-1.779,82.292-15.637,112.817c-40.673,89.757-167.146,105.792-245.716,113.805
					c-12.024,1.24-17.814-47.648-17.814-47.648s-49.084,50.52-64.822,50.122c-32.257-0.791-83.322,7.226-136.416,18.016
					c-37.554,7.665-75.455,13.208-113.457,16.671c-31.869,2.922-63.783,4.404-95.748,4.404h-0.101
					c-31.96,0-63.875-1.482-95.739-4.404c-37.906-3.462-75.606-9.005-113.064-16.625c-53.191-10.835-104.355-18.852-136.617-18.061
					c-15.733,0.398-64.817-50.122-64.817-50.122s-5.79,48.887-17.814,47.648c-78.574-8.013-205.048-24.048-245.72-113.805
					c-13.854-30.524-15.633-112.817-15.633-112.817s-44.931,54.33-57.545,36.721c-109.748-153.444-101.932-394.458-101.932-394.458
					s-14.896,1.729-40.28,6.975c0-100.102,72.491-207.815,72.491-207.815l-24.743-21.377
					c-44.135-38.052-64.817-74.074-64.817-74.074s92.181-22.763,138.543-69.669c35.724-36.168,70.758-77.436,99.754-118.9
					c-57.398,173.129-114.545,447.846-19.497,704.648c69.619,187.924,290.747,248.488,463.583,266.256
					c124.392,12.865,223.749,3.513,223.749,3.513h0.151c4.354,0.398,102.178,9.051,223.895-3.513
					c172.79-17.814,393.717-78.428,463.286-266.256c92.926-251.113,45.818-519.344-10.638-692.971
					c27.263,37.508,59.031,74.417,91.389,107.223c46.363,46.907,138.543,69.669,138.543,69.669s-20.682,36.022-64.817,74.074
					l-24.743,21.377C2407.197,1468.672,2479.688,1576.385,2479.688,1676.487"/>
			</g>
			<g>
				<path style="fill:#650000;" d="M886.74,1309.483c-10.24-2.323-156.247,405.151,33.236,680.788
					c78.931,114.815,247.994,88.517,246.251,73.635c-1.742-14.887-124.978-27.492-210.696-142.915
					c-48.366-65.123-72.043-146.83-80.33-212.475C846.09,1477.997,895.215,1311.404,886.74,1309.483"/>
			</g>
			<g>
				<path style="fill:#650000;" d="M912.453,1520.516c-8.411,1.587-24.693,235.997,64.616,360.573
					c73.754,102.874,184.242,70.758,184.242,63.262c0-9.678-88.531-10.661-148.006-97.939
					C932.828,1728.312,922.744,1518.581,912.453,1520.516"/>
			</g>
			<g>
				<path style="fill:#650000;" d="M2299.067,1309.483c10.235-2.323,156.243,405.151-33.241,680.788
					c-78.927,114.815-247.989,88.517-246.246,73.635c1.738-14.887,124.978-27.492,210.696-142.915
					c48.361-65.123,72.043-146.83,80.33-212.475C2339.713,1477.997,2290.588,1311.404,2299.067,1309.483"/>
			</g>
			<g>
				<path style="fill:#650000;" d="M2273.35,1520.516c8.415,1.587,24.693,235.997-64.616,360.573
					c-73.749,102.874-184.238,70.758-184.238,63.262c0-9.678,88.531-10.661,148.001-97.939
					C2252.979,1728.312,2263.064,1518.581,2273.35,1520.516"/>
			</g>
			<g>
				<path style="fill:#FFFFFF;" d="M1903.392,2053.973c-19.991,40.028-52.894,70.26-89.213,101.584
					c-43.344,37.407-91.49,76.397-128.106,135.474c-31.864,2.923-63.778,4.404-95.743,4.404l-0.05-136.366v-26.426l0.1-266.201
					C1731.347,1798.652,1973.706,1913.349,1903.392,2053.973"/>
			</g>
			<g>
				<path style="fill:#FFFFFF;" d="M1590.28,2132.644v26.422l-0.05,136.371c-31.965,0-63.879-1.482-95.743-4.404
					c-36.666-59.077-84.762-98.021-128.106-135.474c-36.269-31.274-69.221-61.556-89.263-101.584
					c-70.31-140.624,172.095-255.32,313.062-187.531L1590.28,2132.644z"/>
			</g>
			<g>
				<path style="fill:#650000;" d="M1636.724,903.372c-12.651,122.591-30.799,199.372-46.33,199.372
					c-15.573,0-33.721-76.873-46.376-199.372c-2.616-25.086-1.395-52.486,0.439-82.105c28.269-1.221,45.763-1.441,45.763-1.441
					h0.261c0,0,17.494,0.219,45.763,1.441C1638.123,850.931,1639.298,878.327,1636.724,903.372"/>
			</g>
			<g>
				<path style="fill:#650000;" d="M1700.16,2280.463l78.455-14.434l19.58-3.641l19.387-4.409c13.126-2.89,26.312-5.621,39.598-8.1
					c13.291-2.474,26.678-4.706,40.279-6.471c6.81-0.869,13.661-1.637,20.65-2.159c3.481-0.297,7.021-0.471,10.57-0.636l5.397-0.128
					l1.354-0.023c0.361-0.009,1.253-0.009,0.581-0.06c-0.302-0.037-0.714,0.027-0.915,0.06c-0.059-0.032-0.119-0.041-0.174-0.028
					c-0.128,0.05,0.288-0.178,0.435-0.21l1.143-0.59c0.896-0.49,1.921-1.116,2.996-1.797c2.177-1.418,4.523-3.16,6.86-4.981
					c4.697-3.686,9.44-7.853,14.109-12.138c9.294-8.594,18.601-17.988,27.19-27.24c6.787-7.304,18.212-7.729,25.521-0.947
					c2.968,2.758,4.802,6.275,5.479,9.98l0.288,1.587v0.005c1.056,8.228,2.666,17.306,4.743,25.027
					c1.011,3.837,2.342,7.597,3.384,9.641c0.32,0.938,1.253,1.308-1.084-0.686l-0.48-0.306c-0.247-0.183-0.508-0.352-0.773-0.503
					c-0.585-0.348-1.002-0.48-1.802-0.819c-1.564-0.599-3.298-0.896-5.26-0.869c-1.473,0.128-0.585,0.068-0.398,0.036l0.869-0.087
					l1.738-0.178c18.546-1.912,36.84-4.08,54.897-6.993c36.003-5.836,71.458-14.452,102.846-29.6
					c15.665-7.528,30.062-16.89,42.237-28.128c6.023-5.667,11.489-11.795,16.291-18.344c4.692-6.522,8.804-13.895,11.9-20.91
					c2.547-6.216,4.674-14.755,6.179-23.321c1.532-8.64,2.808-17.535,3.755-26.577c1.935-17.988,3.128-36.625,3.655-54.654
					c0.292-10.126,8.74-18.098,18.87-17.805c5.392,0.16,10.181,2.634,13.428,6.444l0.091,0.105
					c5.836,6.906,12.642,14.192,19.292,20.403c3.357,3.133,6.769,6.065,10.057,8.493c3.174,2.447,6.705,4.382,7.903,4.729
					c0.595,0.306-0.092-0.444-3.339,0.384c-1.647,0.403-3.284,1.473-4.327,2.507c-0.242,0.206-0.467,0.439-0.663,0.695
					c-0.156,0.178-0.512,0.782-0.197,0.293l1.02-1.496l8.146-11.987l7.629-12.381c2.552-4.116,4.784-8.461,7.194-12.678
					c18.642-34.188,32.903-71.096,43.669-109.13c10.826-38.034,18.44-77.161,23.49-116.659c2.516-19.749,4.386-39.598,5.658-59.47
					c1.189-19.744,1.921-40.074,1.537-59.169l-0.009-0.348c-0.201-10.044,7.775-18.345,17.814-18.55
					c0.851-0.014,1.788,0.041,2.607,0.133c3.965,0.499,7.268,0.997,10.83,1.55l10.419,1.742c6.911,1.221,13.775,2.538,20.608,3.947
					l-21.994,17.919c-0.338-16.986-2.36-34.183-6.042-51.307c-3.956-17.092-9.01-34.082-15.28-50.78
					c-6.357-16.671-13.597-33.095-21.67-49.148c-4.038-8.022-8.26-15.966-12.692-23.76c-4.345-7.743-9.147-15.697-13.679-22.644
					l-0.147-0.21c-5.063-7.775-3.471-17.961,3.375-23.851l24.88-21.468c7.853-6.837,15.44-13.981,22.69-21.45
					c7.249-7.464,14.16-15.262,20.627-23.339c3.238-4.029,6.353-8.141,9.349-12.289l4.326-6.252
					c1.331-1.985,2.872-4.386,3.755-5.891l11.48,26.865c-9.961-2.589-18.866-5.346-28.114-8.438
					c-9.161-3.028-18.198-6.435-27.19-10.012c-17.933-7.29-35.587-15.669-52.596-26.005l-6.367-3.906l-6.234-4.276
					c-4.194-2.744-8.219-5.909-12.225-9.12c-4.079-3.028-7.848-6.746-11.69-10.277l-2.85-2.666l-2.47-2.552l-4.939-5.099
					c-13.181-13.597-25.946-27.579-38.276-41.944c-24.739-28.663-47.904-58.743-68.86-90.626
					c-10.538-15.893-20.302-32.413-29.285-49.509c-8.946-17.119-17.087-34.86-23.412-53.767c-2.113-6.321-0.567-12.989,3.499-17.695
					l0.11-0.124c17.837-20.549,30.122-46.993,37.659-74.655c7.533-27.762,10.506-57.083,8.982-86.011
					c-1.523-28.905-7.446-57.6-18.56-83.697c-11.059-26.056-27.624-49.376-49.276-66.006c-21.692-16.794-48.05-26.792-75.144-27.872
					c-27.117-1.221-54.801,5.941-79.516,19.301c-49.692,26.737-87.785,75.519-104.118,130.023c-2.9,9.682-13.103,15.18-22.781,12.28
					l-0.174-0.055l-0.187-0.06c-22.735-7.19-46.472-13.057-70.314-18.221c-23.879-5.145-47.986-9.541-72.176-13.277
					c-48.352-7.354-97.239-12.541-145.477-12.683c-48.238,0.156-97.129,5.356-145.486,12.705
					c-24.19,3.732-48.302,8.127-72.18,13.268c-23.842,5.159-47.579,11.023-70.31,18.208l-0.096,0.032
					c-9.636,3.046-19.923-2.296-22.969-11.932c-0.018-0.06-0.064-0.206-0.082-0.265c-16.332-54.503-54.426-103.285-104.113-130.023
					c-24.716-13.359-52.404-20.522-79.521-19.301c-27.089,1.079-53.451,11.078-75.139,27.872
					c-21.656,16.63-38.217,39.95-49.28,66.006c-11.109,26.097-17.032,54.792-18.555,83.697c-1.523,28.928,1.45,58.249,8.982,86.011
					c7.533,27.661,19.822,54.106,37.659,74.655l0.087,0.101c4.372,5.04,5.475,11.818,3.517,17.718
					c-6.325,18.907-14.466,36.648-23.408,53.767c-8.987,17.096-18.752,33.616-29.285,49.509
					c-20.961,31.882-44.126,61.963-68.86,90.626c-12.33,14.366-25.095,28.347-38.276,41.944l-4.939,5.099l-2.47,2.552l-2.849,2.666
					c-3.842,3.531-7.61,7.249-11.695,10.277c-4.002,3.211-8.031,6.376-12.225,9.12l-6.229,4.276l-6.366,3.906
					c-17.009,10.336-34.663,18.715-52.596,26.005c-8.996,3.577-18.029,6.984-27.19,10.012c-9.248,3.092-18.157,5.85-28.114,8.438
					l11.48-26.865c0.878,1.505,2.424,3.906,3.75,5.891l4.331,6.252c2.991,4.148,6.11,8.26,9.349,12.289
					c6.472,8.077,13.373,15.875,20.622,23.339c7.254,7.469,14.841,14.613,22.69,21.45l24.885,21.468
					c7.021,6.056,8.315,16.291,3.375,23.847l-0.146,0.215c-4.528,6.948-9.339,14.901-13.68,22.644
					c-4.436,7.793-8.653,15.738-12.696,23.76c-8.068,16.053-15.308,32.477-21.67,49.148c-6.27,16.698-11.32,33.689-15.276,50.78
					c-3.686,17.124-5.708,34.32-6.046,51.307l-21.994-17.919c6.837-1.409,13.698-2.726,20.608-3.947l10.419-1.742
					c3.567-0.554,6.87-1.052,10.835-1.55c9.966-1.235,19.049,5.845,20.284,15.811c0.105,0.846,0.151,1.679,0.137,2.502l-0.009,0.453
					c-0.384,19.095,0.348,39.424,1.532,59.169c1.276,19.872,3.142,39.722,5.662,59.47c5.045,39.498,12.664,78.625,23.485,116.659
					c10.766,38.034,25.027,74.943,43.669,109.13c2.415,4.217,4.642,8.562,7.203,12.678l7.624,12.381l8.146,11.987l1.015,1.496
					c0.32,0.489-0.037-0.114-0.192-0.293c-0.197-0.256-0.421-0.49-0.668-0.695c-1.038-1.034-2.676-2.104-4.322-2.507
					c-3.247-0.828-3.938-0.078-3.339-0.384c1.194-0.348,4.729-2.282,7.903-4.729c3.284-2.428,6.705-5.36,10.053-8.493
					c6.655-6.211,13.46-13.497,19.296-20.403l0.041-0.055c6.54-7.734,18.116-8.708,25.854-2.168
					c4.125,3.485,6.33,8.475,6.495,13.478c0.521,18.029,1.72,36.662,3.654,54.65c0.947,9.038,2.218,17.933,3.755,26.573
					c1.5,8.566,3.632,17.101,6.174,23.321c3.092,7.016,7.203,14.388,11.891,20.906c4.807,6.549,10.268,12.678,16.291,18.349
					c12.175,11.233,26.563,20.599,42.223,28.123c31.384,15.148,66.834,23.769,102.833,29.609
					c18.057,2.914,36.346,5.082,54.888,6.989l1.738,0.183l0.869,0.087l0.434,0.046c0,0,0.288,0.037,0.073,0.005l-0.7-0.069
					c-0.938-0.064-1.912,0.009-2.813,0.183c-0.837,0.101-1.678,0.311-2.474,0.617c-0.869,0.375-1.235,0.476-1.839,0.819
					c-0.567,0.325-1.057,0.691-1.294,0.833c-2.392,2.003-1.459,1.665-1.148,0.732c1.043-2.017,2.369-5.781,3.385-9.609
					c2.081-7.729,3.686-16.771,4.752-25.045l0.005-0.032c1.047-9.979,9.989-17.215,19.964-16.163
					c4.048,0.421,7.647,2.145,10.423,4.715l0.896,0.828c9.005,8.315,18.569,16.844,27.931,24.711
					c4.697,3.951,9.467,7.697,14.109,11.086c2.305,1.701,4.587,3.257,6.723,4.592c2.063,1.303,4.263,2.428,5.008,2.648
					c0.037-0.005,0.064-0.005,0.091,0.009c0.073,0.037,0.05,0.027-0.178-0.055c-0.165-0.055-0.334-0.082-0.508-0.082
					c-0.467-0.105-0.992-0.165-1.491-0.156c-0.942,0.041,0.192,0.018,0.462,0.014l1.345-0.023l2.68-0.041
					c3.572-0.027,7.048,0.101,10.524,0.224c6.925,0.297,13.712,0.81,20.43,1.445c13.446,1.203,26.564,3.293,39.616,5.392
					c26.01,4.166,51.832,10.373,76.699,15.628c25.205,5.598,50.241,12.111,74.833,21.615c4.807,1.852,7.203,7.254,5.347,12.065
					c-1.391,3.609-4.793,5.854-8.429,5.964c-26.435,0.782-52.422-1.422-78.24-4.555c-6.449-0.819-12.87-1.642-19.383-2.891
					l-19.003-3.192c-12.614-2.031-25.223-3.874-37.759-5.676c-12.541-1.783-25.082-3.156-37.412-4.326
					c-6.165-0.558-12.289-0.993-18.299-1.23c-2.987-0.096-5.982-0.178-8.877-0.165l-5.218-0.041
					c-1.304-0.046-2.639-0.156-3.911-0.325c-0.96-0.174-1.921-0.38-2.877-0.608c-1.025-0.229-1.82-0.476-2.511-0.718l-2.204-0.768
					c-5.301-2.104-8.726-4.258-12.125-6.403c-3.316-2.15-6.335-4.318-9.202-6.504c-5.69-4.404-10.894-8.923-15.939-13.488
					c-10.112-9.184-19.291-18.523-28.461-28.635l31.283-10.62l-0.009,0.101c-1.354,10.35-3.014,19.859-5.776,30.286
					c-1.459,5.223-3,10.464-6.197,16.84c-0.851,1.637-1.829,3.353-3.215,5.296c-0.782,1.029-1.39,1.916-2.534,3.105l-1.615,1.651
					c-0.718,0.627-1.459,1.24-2.223,1.816c-0.677,0.54-1.683,1.189-2.771,1.779c-1.134,0.59-1.971,1.088-3.426,1.573
					c-1.358,0.467-2.767,0.837-4.167,1.098c-1.486,0.21-3.046,0.284-4.569,0.242l-1.509-0.096l-0.444-0.046l-0.883-0.087
					l-1.765-0.183c-18.834-1.944-37.878-4.189-56.927-7.258c-38.02-6.225-76.516-15.276-112.995-32.82
					c-18.171-8.749-35.72-19.978-51.169-34.251c-7.665-7.194-14.764-15.139-21.052-23.751c-6.257-8.763-11.425-17.837-15.889-28.009
					c-4.528-11.196-6.645-21.094-8.475-30.991c-1.761-9.856-3.128-19.58-4.148-29.23c-2.063-19.374-3.284-38.276-3.856-57.805
					l32.39,11.256c-7.281,8.603-14.375,16.177-22.543,23.856c-4.071,3.791-8.351,7.514-13.227,11.132
					c-4.971,3.567-10.076,7.249-18.523,10.167c-4.185,1.267-10.149,2.863-18.322,0.594c-2.003-0.695-4.034-1.5-5.841-2.584
					c-1.733-1.121-3.636-2.46-4.935-3.823c-0.668-0.681-1.308-1.39-1.926-2.122c-0.567-0.659-1.386-1.711-1.395-1.77l-1.12-1.651
					l-8.983-13.208l-8.356-13.561c-2.79-4.519-5.223-9.216-7.844-13.812c-20.266-37.174-35.4-76.557-46.76-116.663
					c-11.416-40.119-19.342-80.971-24.592-122.055c-2.625-20.549-4.564-41.162-5.886-61.83c-1.23-20.796-2.017-41.103-1.587-62.631
					l20.417,18.765c-2.804,0.348-6.243,0.851-9.412,1.354l-9.751,1.624c-6.517,1.153-13.044,2.406-19.561,3.75l-0.306,0.064
					c-9.76,2.012-19.305-4.267-21.317-14.027c-0.265-1.299-0.38-2.68-0.366-3.952c0.343-20.165,2.762-39.946,6.897-59.141
					c4.395-19.09,9.98-37.741,16.762-55.816c6.874-18.029,14.635-35.614,23.243-52.738c4.313-8.557,8.804-17.014,13.551-25.356
					c4.757-8.443,9.527-16.41,15.148-25.008l3.229,24.062l-24.894-21.473c-8.676-7.546-17.05-15.44-25.068-23.696
					c-8.013-8.251-15.655-16.876-22.886-25.905c-3.622-4.51-7.13-9.129-10.542-13.862c-1.692-2.388-3.38-4.789-5.026-7.263
					c-1.701-2.575-3.156-4.766-5.049-7.981c-5.081-8.644-2.195-19.762,6.444-24.844c1.459-0.86,2.991-1.491,4.551-1.907l0.485-0.119
					c8.027-2.085,16.895-4.793,25.265-7.606c8.484-2.804,16.844-5.964,25.123-9.248c16.479-6.696,32.491-14.347,47.25-23.325
					l5.52-3.371l5.25-3.617c3.604-2.337,6.86-4.94,10.108-7.542c3.417-2.488,6.216-5.374,9.239-8.1l2.25-2.081l2.378-2.456
					l4.757-4.912c12.692-13.085,24.999-26.563,36.872-40.403c23.828-27.602,46.102-56.557,65.974-86.793
					c10.007-15.079,19.159-30.616,27.464-46.408c8.265-15.802,15.633-31.965,21.103-48.334l3.604,17.819
					c-22.722-26.28-36.735-57.458-45.448-89.176c-8.621-31.846-11.914-64.749-10.213-97.477c1.738-32.697,8.365-65.425,21.45-96.201
					c13.007-30.657,33.127-59.512,60.591-80.614c13.689-10.538,28.759-19.031,45.045-25.127c16.241-6.078,33.501-9.554,50.79-10.313
					c34.686-1.555,68.874,7.638,98.405,23.59c29.669,15.925,55.304,38.158,75.967,64.099c20.659,25.978,36.374,55.839,45.955,87.694
					l-23.147-12.166c24.624-7.78,49.157-13.798,73.836-19.149c24.665-5.315,49.431-9.824,74.312-13.666
					c49.784-7.546,99.937-12.948,151.061-13.131c51.119,0.165,101.282,5.562,151.061,13.108
					c24.885,3.846,49.646,8.365,74.316,13.675c24.679,5.356,49.207,11.384,73.832,19.163l-23.147,12.166
					c9.582-31.855,25.296-61.716,45.955-87.694c20.659-25.941,46.294-48.174,75.967-64.099
					c29.531-15.953,63.714-25.146,98.401-23.59c17.292,0.759,34.553,4.235,50.794,10.313c16.282,6.097,31.356,14.59,45.041,25.127
					c27.464,21.102,47.588,49.957,60.595,80.614c13.085,30.775,19.712,63.504,21.45,96.201c1.697,32.728-1.592,65.631-10.213,97.477
					c-8.717,31.718-22.726,62.896-45.452,89.176l3.609-17.819c5.465,16.369,12.838,32.532,21.098,48.334
					c8.31,15.793,17.462,31.329,27.469,46.408c19.868,30.236,42.146,59.191,65.969,86.793c11.878,13.84,24.185,27.318,36.877,40.403
					l4.756,4.912l2.374,2.456l2.25,2.081c3.023,2.726,5.827,5.612,9.243,8.1c3.247,2.602,6.504,5.205,10.108,7.542l5.246,3.617
					l5.525,3.371c14.754,8.978,30.771,16.63,47.25,23.325c8.278,3.284,16.634,6.444,25.123,9.248
					c8.369,2.813,17.233,5.52,25.264,7.606l0.398,0.1c9.701,2.525,15.518,12.431,13.003,22.132
					c-0.425,1.642-1.116,3.238-1.921,4.638c-1.894,3.215-3.348,5.406-5.054,7.981c-1.642,2.474-3.325,4.875-5.022,7.263
					c-3.417,4.733-6.925,9.353-10.547,13.862c-7.226,9.028-14.873,17.654-22.886,25.905c-8.013,8.255-16.387,16.149-25.063,23.696
					l-24.894,21.473l3.229-24.062c5.621,8.598,10.391,16.566,15.148,25.008c4.748,8.342,9.239,16.799,13.552,25.356
					c8.603,17.124,16.369,34.709,23.243,52.738c6.783,18.075,12.367,36.726,16.762,55.816c4.135,19.195,6.549,38.976,6.892,59.141
					c0.178,9.961-7.766,18.18-17.727,18.349c-1.326,0.023-2.616-0.096-3.86-0.348l-0.398-0.087
					c-6.522-1.345-13.049-2.598-19.562-3.75l-9.751-1.624c-3.174-0.503-6.613-1.006-9.412-1.354l20.412-18.765
					c0.435,21.528-0.352,41.834-1.587,62.631c-1.322,20.668-3.261,41.281-5.882,61.83c-5.25,41.084-13.181,81.936-24.597,122.055
					c-11.361,40.106-26.495,79.489-46.751,116.663c-2.63,4.596-5.058,9.293-7.848,13.812l-8.356,13.561l-8.978,13.208l-1.125,1.651
					c-0.009,0.06-0.832,1.112-1.395,1.77c-0.617,0.732-1.258,1.441-1.926,2.122c-1.299,1.363-3.202,2.703-4.94,3.823
					c-1.806,1.084-3.837,1.889-5.836,2.584c-8.177,2.269-14.137,0.672-18.322-0.594c-8.452-2.918-13.556-6.6-18.528-10.167
					c-4.871-3.618-9.152-7.341-13.222-11.132c-8.173-7.679-15.267-15.253-22.543-23.856l32.39-11.256
					c-0.572,19.534-1.793,38.436-3.86,57.815c-1.02,9.65-2.388,19.374-4.144,29.23c-1.834,9.897-3.956,19.799-8.484,31
					c-4.464,10.167-9.637,19.241-15.893,28.004c-6.289,8.617-13.387,16.552-21.057,23.751
					c-15.454,14.279-33.008,25.502-51.178,34.247c-36.483,17.544-74.989,26.591-113.013,32.816
					c-19.044,3.069-38.094,5.319-56.937,7.258l-1.761,0.183l-0.887,0.087c-0.393,0.023-0.087,0.064-2.15,0.142
					c-3.151,0.11-6.032-0.444-8.713-1.427c-1.367-0.48-2.264-0.997-3.375-1.587l-1.551-0.924l-1.171-0.855
					c-0.755-0.576-1.514-1.203-2.2-1.82l-1.601-1.642c-1.139-1.198-1.711-2.053-2.511-3.101c-1.363-1.93-2.337-3.65-3.188-5.273
					c-3.174-6.371-4.72-11.612-6.174-16.835c-2.758-10.432-4.409-19.909-5.767-30.309v-0.018l31.283,10.62
					c-10.126,9.719-20.142,18.72-30.945,27.634c-5.411,4.418-10.935,8.768-16.982,12.975c-3.046,2.095-6.174,4.171-9.71,6.183
					c-1.793,1.006-3.682,2.008-5.781,2.973c-1.066,0.49-2.287,0.965-3.43,1.427c-1.441,0.467-2.566,0.91-4.322,1.303l-2.611,0.521
					c-1.025,0.146-2.273,0.224-3.407,0.26c-1.5,0.037-1.441-0.004-1.912-0.014l-1.148-0.046l-4.597-0.151
					c-3.115-0.032-6.229-0.069-9.408,0.023c-6.325,0.105-12.756,0.458-19.204,0.906c-12.916,0.933-25.942,2.337-38.981,4.002
					c-13.039,1.665-26.101,3.599-39.159,5.703l-19.836,3.325l-19.918,2.543l-79.585,9.984c-5.017,0.631-9.591-2.927-10.222-7.94
					C1692.128,2285.769,1695.435,2281.342,1700.16,2280.463"/>
			</g>
			<g>
				<path style="fill:#650000;" d="M1855.03,1048.82c-1.134,4.885-102.041-6.545-166.218,8.16
					c-75.386,17.279-84.108,76.475-98.552,76.475c-14.439,0-23.165-59.196-98.547-76.475c-64.131-14.704-165.038-3.275-166.218-8.16
					c-1.308-5.584,38.478-32.193,74.033-43.362c98.291-30.803,190.732,9.513,190.732,9.513s92.446-40.316,190.737-9.513
					C1816.547,1016.627,1856.337,1043.236,1855.03,1048.82"/>
			</g>
			<g>
				<path style="fill:#650000;" d="M1900.835,931.01c-0.174,8.287-104.964-19.195-196.056-11.301
					c-77.001,6.673-114.518,50.3-114.518,50.3s-37.517-43.628-114.518-50.3c-91.088-7.894-195.878,19.589-196.056,11.301
					c-0.128-7.985,38.871-33.812,93.667-53.401c115.611-41.313,216.907-25.914,216.907-25.914s101.3-15.399,216.911,25.914
					C1861.964,897.198,1901.009,923.025,1900.835,931.01"/>
			</g>
			<g>
				<path style="fill:#650000;" d="M1740.302,2063.857c-62.411,71.947-150.165,63.335-150.165,63.335s-87.795,8.612-150.21-63.335
					c-63.605-73.26-48.837-180.703,6.307-139.783c87.794,65.142,143.903,17.183,143.903,17.183s56.063,47.959,143.858-17.183
					C1789.138,1883.154,1803.906,1990.597,1740.302,2063.857"/>
			</g>
			<g>
				<path style="fill:#6B184E;" d="M1598.433,2129.755c-5.293,0-8.359-0.273-8.521-0.288c-0.42,0.088-89.238,7.905-151.714-64.111
					c-44.282-51.006-53.057-121.113-30.791-145.149c5.693-6.147,18.491-14.075,40.19,2.031
					c85.361,63.332,140.498,17.747,141.055,17.28l1.479-1.267l1.489,1.265c0.547,0.466,55.825,45.928,141.011-17.278
					c21.69-16.104,34.487-8.189,40.191-2.031c22.261,24.033,13.486,94.143-30.791,145.149l0,0
					C1690.933,2124.262,1622.227,2129.755,1598.433,2129.755z M1424.029,1917.311c-5.098,0-9.556,1.997-13.267,6.003
					c-18.672,20.156-13.926,87.422,30.894,139.043c60.884,70.181,147.407,62.651,148.257,62.559
					c1.318,0.088,87.798,7.607,148.662-62.559l0,0c44.819-51.621,49.561-118.887,30.894-139.043
					c-8.159-8.809-19.956-7.908-34.111,2.595c-80.4,59.661-135.63,25.178-145.22,18.22c-9.6,6.958-64.854,41.455-145.264-18.22
					C1437.154,1920.182,1430.137,1917.311,1424.029,1917.311z"/>
			</g>
			<g>
				<path d="M1719.193,2084.563c-59.329,49.482-129.044,42.603-129.044,42.603s-69.569,6.879-128.847-42.351v-0.05
					c10.492-23.307,24.148-33.104,35.921-32.559c8.214,0.398,10.935,5.145,9.751,6.138c-5.987,5.045-11.878,10.734-8.315,16.424
					c4.949,7.917,41.615,21.478,91.44,21.523h0.348c49.825-0.046,86.537-13.606,91.49-21.523c3.558-5.689-2.378-11.379-8.365-16.424
					c-1.185-0.992,1.537-5.74,9.751-6.138C1695.095,2051.661,1708.655,2061.361,1719.193,2084.563"/>
			</g>
			<g>
				<path d="M1719.193,2084.563c-3.956,3.366-7.967,6.385-12.024,9.207c-56.356,39.383-117.02,33.396-117.02,33.396
					s-58.981,5.841-114.646-31.713c-4.752-3.215-9.499-6.783-14.201-10.638c10.492-23.357,24.148-33.154,35.921-32.61
					c8.214,0.398,10.935,5.145,9.751,6.138c-5.987,5.045-11.878,10.734-8.315,16.424c4.949,7.917,41.615,21.478,91.44,21.523h0.348
					c49.825-0.046,86.537-13.606,91.49-21.523c3.558-5.689-2.378-11.379-8.365-16.424c-1.185-0.992,1.537-5.74,9.751-6.138
					C1695.095,2051.661,1708.655,2061.361,1719.193,2084.563"/>
			</g>
			<g>
				<path d="M1719.193,2084.563c-59.329,49.482-129.044,42.603-129.044,42.603s-69.569,6.879-128.847-42.402
					c10.538-23.307,24.148-33.104,35.921-32.559c8.214,0.398,10.935,5.145,9.751,6.138c-5.987,5.045-11.878,10.734-8.315,16.424
					c4.949,7.917,41.615,21.478,91.44,21.523h0.348c49.825-0.046,86.537-13.606,91.49-21.523c3.558-5.689-2.378-11.379-8.365-16.424
					c-1.185-0.992,1.537-5.74,9.751-6.138C1695.095,2051.661,1708.655,2061.361,1719.193,2084.563"/>
			</g>
			<g>
				<path style="fill:#EA5C66;" d="M1707.17,2093.768c-56.356,39.383-117.02,33.401-117.02,33.401s-58.981,5.836-114.646-31.718
					c16.922-27.313,57.842-69.866,114.843-29.687C1646.903,2027.758,1688.121,2066.505,1707.17,2093.768"/>
			</g>
			<g>
				<path style="fill:#FFFFFF;" d="M1719.193,2084.563c-59.329,49.482-129.044,42.603-129.044,42.603s-69.569,6.879-128.847-42.402
					c10.538-23.307,24.148-33.104,35.921-32.559c8.214,0.398,10.935,5.145,9.751,6.138c-5.987,5.045-11.878,10.734-8.315,16.424
					c4.949,7.917,41.615,21.478,91.44,21.523h0.348c49.825-0.046,86.537-13.606,91.49-21.523c3.558-5.689-2.378-11.379-8.365-16.424
					c-1.185-0.992,1.537-5.74,9.751-6.138C1695.095,2051.661,1708.655,2061.361,1719.193,2084.563"/>
			</g>
			<g>
				<path d="M1590.45,2099.037c-49.639-0.049-88.184-13.32-94.121-22.817c-4.727-7.544,2.656-14.658,7.671-18.95
					c-0.952-0.898-3.154-2.144-6.909-2.324c-11.646-0.371-24.277,11.016-33.291,30.952c-0.63,1.377-2.241,1.982-3.633,1.367
					c-1.377-0.625-1.992-2.251-1.367-3.633c10.122-22.378,24.116-34.961,38.55-34.165c7.1,0.342,11.333,3.633,12.378,6.743
					c0.552,1.636,0.176,3.257-0.991,4.233c-7.544,6.357-9.643,9.844-7.754,12.866c4.282,6.846,39.614,20.19,89.121,20.239
					c49.883-0.049,85.229-13.394,89.502-20.239c2.153-3.433-1.387-7.466-7.798-12.866c-1.162-0.977-1.538-2.598-0.986-4.233
					c1.045-3.11,5.278-6.401,12.368-6.743c14.36-0.771,28.393,11.714,38.501,33.965c0.625,1.377,0.015,3.003-1.367,3.633
					c-1.358,0.63-3.008,0.024-3.633-1.367c-9.126-20.093-21.152-31.187-33.242-30.752c-3.75,0.181-5.952,1.421-6.9,2.324
					c5.029,4.302,12.427,11.431,7.71,18.95C1678.331,2085.712,1639.771,2098.989,1590.45,2099.037z M1505.206,2056.244
					c0,0.005-0.005,0.005-0.005,0.005S1505.206,2056.249,1505.206,2056.244z M1675.338,2056.244c0.005,0,0.005,0,0.005,0
					S1675.343,2056.244,1675.338,2056.244z"/>
			</g>
			<g>
				<path style="fill:#650000;" d="M1590.45,2099.037c-49.629-0.049-88.174-13.32-94.116-22.813
					c-4.727-7.544,2.651-14.663,7.661-18.96c-0.947-0.898-3.149-2.139-6.904-2.324c-11.772-0.43-24.282,10.986-33.247,30.854
					c-0.405,1.016-1.392,1.738-2.544,1.738c-1.514,0-2.744-1.206-2.744-2.72v-0.049c0-0.391,0.083-0.771,0.244-1.128
					c10.073-22.388,24.243-34.907,38.55-34.175c7.105,0.347,11.338,3.643,12.383,6.753c0.547,1.636,0.166,3.257-1.001,4.229
					c-7.539,6.357-9.639,9.849-7.749,12.871c4.287,6.841,39.624,20.186,89.121,20.234c49.878-0.049,85.225-13.394,89.502-20.234
					c2.153-3.433-1.387-7.471-7.798-12.876c-1.157-0.967-1.538-2.588-0.991-4.224c1.045-3.11,5.274-6.406,12.373-6.753
					c0.361-0.02,0.728-0.024,1.094-0.024c13.984,0,27.559,12.305,37.407,33.989c0.625,1.377,0.015,3.003-1.367,3.633
					c-1.358,0.625-3.008,0.02-3.633-1.367c-8.911-19.619-20.674-30.771-32.397-30.771c-0.278,0-0.562,0.01-0.845,0.02
					c-3.75,0.186-5.947,1.426-6.9,2.324c5.034,4.312,12.422,11.44,7.71,18.96C1678.326,2085.717,1639.761,2098.989,1590.45,2099.037
					z M1505.206,2056.24c-0.005,0.005-0.01,0.01-0.015,0.015C1505.196,2056.249,1505.201,2056.244,1505.206,2056.24z
					 M1675.333,2056.235c0.005,0.005,0.01,0.005,0.015,0.01C1675.343,2056.24,1675.338,2056.24,1675.333,2056.235z"/>
			</g>
			<g>
				<path style="fill:#650000;" d="M2156.737,1329.983c0,0-108.897-184.955-226.21-161.091
					c-74.421,15.143-113.804,108.275-113.804,108.275s77.595-20.988,156.878-11.063
					C2048.018,1275.421,2156.737,1329.983,2156.737,1329.983"/>
			</g>
			<g>
				<path style="fill:#650000;" d="M1023.517,1327.652c0,0,108.897-184.951,226.214-161.091
					c74.421,15.143,113.804,108.275,113.804,108.275s-77.595-20.984-156.883-11.059
					C1132.24,1273.089,1023.517,1327.652,1023.517,1327.652"/>
			</g>
			<g>
				<path style="fill:#FFFFFF;" d="M1362.574,1855.839c28.823-3.819,94.66-51.187,89.844-198.109
					c-6.243-190.293-93.772-283.233-207.22-288.991c-111.518-5.657-233.77,124.402-233.765,313.972
					c0,81.213,48.946,138.214,127.987,169.396c62.329,24.588,131.148,27.377,196.042,10.698L1362.574,1855.839z"/>
			</g>
			<g>
				<path style="fill:#FFFFFF;" d="M1824.287,1855.839c-28.823-3.819-94.66-51.187-89.844-198.109
					c6.243-190.293,93.772-283.233,207.22-288.991c111.513-5.657,233.774,124.402,233.77,313.972
					c-0.005,81.213-48.951,138.214-127.992,169.396c-62.329,24.588-131.148,27.377-196.042,10.698L1824.287,1855.839z"/>
			</g>
			<g>
				<path style="fill:#EA5C66;" d="M1196.239,912.483c-37.128,23.184-63.125,22.941-107.69,61.945
					c10.053-14.187,21.949-28.768,35.249-40.874c41.29-37.531,11.837-124.768-42.017-113.082
					c-26.925,5.863-65.416,68.705-67.515,71.247c3.746-83.939,59.479-112.954,87.132-113.027
					C1171.427,778.55,1233.006,889.551,1196.239,912.483"/>
			</g>
			<g>
				<path style="fill:#EA5C66;" d="M1974.651,912.483c37.124,23.184,63.124,22.941,107.69,61.945
					c-10.057-14.187-21.953-28.768-35.249-40.874c-41.29-37.531-11.837-124.768,42.017-113.082
					c26.92,5.863,65.411,68.705,67.511,71.247c-3.741-83.939-59.48-112.954-87.127-113.027
					C1999.462,778.55,1937.884,889.551,1974.651,912.483"/>
			</g>
			<g>
				<path style="fill:#650000;" d="M1041.476,1008.189c15.372-21.084,32.934-41.066,54.105-58.318
					c10.565-8.635,22.392-16.154,34.43-22.525c12.047-6.504,23.952-11.425,34.645-16.89c5.383-2.73,10.542-5.534,15.495-8.667
					l3.737-2.301c0.233-0.151,0.796-0.466,0.764-0.476c0.05-0.055,0.105-0.1,0.165-0.133c0.142-0.059,0.156-0.192,0.284-0.238
					c0.293-0.329,0.558-0.714,0.928-1.592c0.755-1.733,1.189-5.616,0.695-10.057c-0.435-4.464-1.679-9.472-3.435-14.466
					c-7.222-20.179-21.157-40.11-37.952-54.485c-8.42-7.213-17.745-12.925-27.213-16.506c-4.743-1.779-9.536-2.936-14.283-3.449
					c-2.383-0.279-4.839-0.279-6.604-0.229c-2.081,0.206-4.308,0.444-6.636,1.052c-9.385,2.164-18.884,7.336-27.185,13.835
					c-8.306,6.632-15.385,15.033-21.011,24.551c-5.474,9.609-9.774,20.197-12.596,31.448c-2.845,11.251-4.231,23.087-4.72,35.112
					c-0.457,12.033,0.247,24.254,1.436,36.534c1.262,12.271,3.421,24.565,5.808,36.872l0.032,0.165
					c0.965,4.971-2.282,9.778-7.249,10.743c-4.551,0.878-8.964-1.77-10.414-6.028c-8.493-24.826-14.581-50.927-15.88-78.135
					c-1.326-27.043,2.68-55.784,16.035-81.831c13.46-25.768,36.369-48.247,67.209-56.776c3.855-1.093,7.985-1.802,12.266-2.278
					c4.628-0.361,8.594-0.334,12.591-0.014c8.013,0.636,15.806,2.365,23.124,4.894c14.695,5.058,27.405,13.222,38.546,22.493
					c11.118,9.362,20.75,20.014,29.029,31.649c8.223,11.685,15.294,24.258,20.174,38.446c2.429,7.098,4.363,14.594,5.164,22.895
					c0.7,8.246,0.526,17.581-3.723,27.721c-2.154,5.004-5.543,10.048-9.993,14.036c-1.13,0.947-2.255,1.953-3.467,2.763
					l-1.816,1.226c-0.686,0.458-0.842,0.503-1.285,0.773l-4.546,2.575c-6.042,3.439-12.303,6.481-18.477,9.266
					c-12.403,5.635-24.4,10.048-35.372,14.823c-11.009,4.82-21.286,10.446-31.43,16.913c-20.01,13.318-39.036,29.619-57.714,46.774
					l-0.018,0.018c-3.737,3.435-9.55,3.188-12.984-0.549C1039.121,1016.541,1038.947,1011.656,1041.476,1008.189"/>
			</g>
			<g>
				<path style="fill:#650000;" d="M2113.525,1020.355c-18.679-17.155-37.705-33.456-57.714-46.779
					c-10.144-6.467-20.417-12.088-31.425-16.909c-10.976-4.775-22.973-9.193-35.377-14.823c-6.17-2.785-12.431-5.827-18.477-9.266
					l-4.546-2.575c-0.444-0.27-0.599-0.316-1.285-0.773l-1.816-1.226c-1.208-0.809-2.333-1.816-3.467-2.762
					c-4.45-3.988-7.835-9.033-9.993-14.036c-4.249-10.14-4.423-19.474-3.718-27.72c0.796-8.301,2.735-15.797,5.159-22.9
					c4.88-14.183,11.951-26.755,20.174-38.441c8.278-11.635,17.915-22.287,29.029-31.649c11.146-9.271,23.851-17.434,38.546-22.493
					c7.323-2.529,15.116-4.258,23.129-4.894c3.997-0.32,7.962-0.347,12.591,0.014c4.276,0.476,8.411,1.185,12.262,2.278
					c30.84,8.53,53.749,31.009,67.213,56.776c13.355,26.047,17.361,54.783,16.031,81.831c-1.294,27.208-7.382,53.31-15.875,78.135
					c-1.642,4.784-6.847,7.341-11.635,5.703c-4.382-1.505-6.893-5.991-6.033-10.414l0.032-0.169
					c2.392-12.307,4.542-24.601,5.813-36.872c1.185-12.28,1.894-24.501,1.432-36.538c-0.49-12.024-1.875-23.856-4.72-35.107
					c-2.817-11.251-7.126-21.839-12.595-31.448c-5.621-9.518-12.701-17.919-21.011-24.556c-8.301-6.494-17.8-11.667-27.181-13.831
					c-2.332-0.608-4.555-0.851-6.636-1.052c-1.765-0.051-4.221-0.051-6.604,0.229c-4.752,0.512-9.541,1.669-14.283,3.448
					c-9.472,3.577-18.797,9.289-27.217,16.506c-16.794,14.375-30.73,34.307-37.952,54.485c-1.752,4.994-2.996,10.003-3.435,14.466
					c-0.489,4.441-0.059,8.324,0.695,10.057c0.375,0.873,0.64,1.258,0.933,1.591c0.119,0.041,0.137,0.178,0.279,0.233
					c0.059,0.036,0.114,0.082,0.169,0.137c-0.037,0.009,0.526,0.325,0.764,0.476l3.732,2.3c4.958,3.133,10.112,5.936,15.5,8.667
					c10.693,5.465,22.594,10.387,34.64,16.89c12.038,6.371,23.865,13.89,34.434,22.525c21.171,17.247,38.729,37.229,54.101,58.318
					c2.996,4.103,2.09,9.851-2.008,12.842c-3.599,2.625-8.475,2.255-11.631-0.654L2113.525,1020.355z"/>
			</g>
			<g>
				<path style="fill:#FFFFFF;" d="M1723.698,1892.713c-7.226,84.954-30.977,110.045-35.034,110.045
					c-4.107,0-6.033-26.87-6.033-26.87s-6.435,16.675-15.738,19.639c-24.098,7.725-49.07,10.057-76.516,10.057
					c-27.441,0-52.925-2.333-77.069-10.057c-9.252-2.964-15.687-19.639-15.687-19.639s-1.98,26.87-6.037,26.87
					c-4.107,0-27.807-25.091-35.034-110.045l133.553,8.905L1723.698,1892.713z"/>
			</g>
			<g>
				<path style="fill:#650000;" d="M1599.649,2138.979c-4.58,0-7.851-0.186-9.512-0.313c-11.24,0.84-96.421,4.644-158.848-67.314
					c-48.047-55.347-55.903-130.037-30.596-157.361c4.892-5.276,23.1-20.806,52.354,0.901
					c78.789,58.462,127.676,19.314,129.722,17.622c4.282-3.557,10.576-3.562,14.8,0.054c1.982,1.643,50.811,40.793,129.614-17.676
					c29.238-21.707,47.466-6.174,52.349-0.901c25.308,27.324,17.456,102.014-30.596,157.361
					C1695.743,2132.675,1626.046,2138.979,1599.649,2138.979z M1590.142,2115.761c0.376,0,0.747,0.015,1.113,0.054
					c0.786,0.054,82.822,6.938,140.41-59.448c0-0.005,0.005-0.005,0.005-0.005c42.236-48.652,45.415-111.362,31.084-126.831
					c-4.575-4.942-11.963-3.682-21.948,3.725c-76.47,56.748-131.436,33.682-150.674,21.909
					c-19.248,11.77-74.233,34.844-150.708-21.909c-9.99-7.412-17.383-8.669-21.953-3.725
					c-14.326,15.469-11.148,78.179,31.089,126.831c57.588,66.387,139.673,59.531,140.483,59.448
					C1589.405,2115.776,1589.776,2115.761,1590.142,2115.761z"/>
			</g>
			<g>
				<path style="fill:#650000;" d="M1686.385,1866.96c-13.355,25.438-49.948,14.466-49.948,14.466s-28.425,42.301-46.308,42.301
					c-17.887,0-46.307-42.301-46.307-42.301s-36.593,10.972-49.953-14.466c-8.319-15.797-2.333-31.43,13.89-40.019
					c17.174-9.115,43.143-17.915,82.37-17.915c39.223,0,65.196,8.8,82.37,17.915
					C1688.718,1835.531,1694.709,1851.163,1686.385,1866.96"/>
			</g>
			<g>
				<path style="fill:#FFFFFF;" d="M1486.979,2082.424c6.623-10.478,16.41-20.787,22.127-18.349
					c6.325,2.703,0.434,18.326,3.531,19.401l-2.241,8.823L1486.979,2082.424z"/>
			</g>
			<g>
				<path style="fill:#650000;" d="M1485.646,2081.579c2.259-3.705,4.724-7.281,7.588-10.611c2.9-3.284,5.918-6.577,10.501-8.667
					c1.185-0.457,2.497-0.892,4.061-0.773c1.5,0.046,3.201,0.727,4.317,1.944c2.241,2.52,2.36,5.255,2.52,7.528
					c0.091,2.323-0.082,4.528-0.206,6.632c-0.055,1.034-0.105,2.067-0.082,2.945c0.018,0.439,0.055,0.846,0.114,1.029
					c0.014,0.316,0.183-0.306-0.919-0.718c1.432,0.494,2.191,2.058,1.692,3.49c-0.498,1.431-2.058,2.191-3.49,1.692
					c-2.067-0.938-2.41-2.561-2.57-3.293c-0.174-0.865-0.169-1.518-0.169-2.15c0.023-1.244,0.137-2.342,0.247-3.421
					c0.224-2.14,0.467-4.18,0.48-6.11c0.041-1.903-0.316-3.741-0.965-4.455c-0.503-0.773-1.834-0.887-3.467-0.311
					c-3.284,1.271-6.499,4.176-9.28,7.135c-2.836,3-5.369,6.339-7.707,9.801c-0.476,0.727-1.454,0.933-2.186,0.458
					C1485.422,2083.258,1485.22,2082.302,1485.646,2081.579"/>
			</g>
			<g>
				<path style="fill:#FFFFFF;" d="M1693.35,2082.424c-6.623-10.478-16.406-20.787-22.127-18.349
					c-6.325,2.703-0.43,18.326-3.531,19.401l2.241,8.823L1693.35,2082.424z"/>
			</g>
			<g>
				<path style="fill:#650000;" d="M1692.017,2083.268c-2.333-3.462-4.871-6.801-7.707-9.806c-2.781-2.955-5.991-5.859-9.28-7.13
					c-1.628-0.576-2.964-0.462-3.467,0.311c-0.649,0.714-1.006,2.552-0.965,4.455c0.014,1.93,0.261,3.97,0.48,6.11
					c0.11,1.079,0.224,2.172,0.247,3.421c0.005,0.631,0.005,1.285-0.169,2.149c-0.16,0.732-0.499,2.355-2.566,3.293
					c-1.432,0.499-2.996-0.26-3.49-1.692c-0.499-1.431,0.256-2.996,1.692-3.494c-1.107,0.416-0.933,1.038-0.919,0.723
					c0.055-0.183,0.096-0.59,0.11-1.029c0.027-0.878-0.023-1.912-0.082-2.945c-0.119-2.104-0.293-4.308-0.206-6.636
					c0.165-2.268,0.279-5.003,2.52-7.523c1.116-1.217,2.817-1.898,4.318-1.944c1.564-0.119,2.877,0.311,4.061,0.773
					c4.583,2.09,7.601,5.383,10.505,8.667c2.859,3.33,5.328,6.906,7.583,10.611c0.457,0.746,0.219,1.715-0.521,2.168
					C1693.44,2084.192,1692.488,2083.958,1692.017,2083.268"/>
			</g>
			<g>
				<path style="fill:#650000;" d="M1393.415,1687.291c0,85.339-53.813,154.519-120.189,154.519
					c-66.381,0-120.194-69.18-120.194-154.519c0-85.334,53.813-154.514,120.194-154.514
					C1339.602,1532.777,1393.415,1601.957,1393.415,1687.291"/>
			</g>
			<g>
				<path style="fill:#FFFFFF;" d="M1352.776,1735.524c0,35.93-21.437,65.06-47.881,65.06c-26.44,0-47.877-29.13-47.877-65.06
					c0-35.93,21.437-65.06,47.877-65.06C1331.339,1670.464,1352.776,1699.594,1352.776,1735.524"/>
			</g>
			<g style="opacity:0.35;">
				<path style="fill:#FFFFFF;" d="M1249.138,1649.628c0,24.215-12.481,43.851-27.875,43.851c-15.393,0-27.871-19.636-27.871-43.851
					c0-24.219,12.477-43.856,27.871-43.856C1236.656,1605.772,1249.138,1625.408,1249.138,1649.628"/>
			</g>
			<g>
				<path style="fill:#650000;" d="M1786.859,1687.291c0,85.339,53.813,154.519,120.189,154.519
					c66.381,0,120.194-69.18,120.194-154.519c0-85.334-53.813-154.514-120.194-154.514
					C1840.672,1532.777,1786.859,1601.957,1786.859,1687.291"/>
			</g>
			<g>
				<path style="fill:#FFFFFF;" d="M1827.498,1735.524c0,35.93,21.437,65.06,47.881,65.06c26.44,0,47.877-29.13,47.877-65.06
					c0-35.93-21.437-65.06-47.877-65.06C1848.935,1670.464,1827.498,1699.594,1827.498,1735.524"/>
			</g>
			<g style="opacity:0.35;">
				<path style="fill:#FFFFFF;" d="M1931.136,1649.628c0,24.215,12.481,43.851,27.875,43.851c15.393,0,27.871-19.636,27.871-43.851
					c0-24.219-12.477-43.856-27.871-43.856C1943.618,1605.772,1931.136,1625.408,1931.136,1649.628"/>
			</g>
			<g>
				<path style="fill:#FD9D24;" d="M2930.424,3234.083c-8.265,22.41-19.936,39.882-36.168,49.083
					c-60.564,34.339-214.199,65.462-340.824,3.462c-79.018-38.693-50.666-146.314,19.694-175.603
					c6.485-2.721,13.314-4.747,20.485-5.987c0,0,5.447-156.115,0-169.424c-3.957-9.595-37.655-37.554-76.297-79.516
					c-14.05-15.285-28.8-32.404-42.95-51.16c-20.536-27.117-39.882-57.646-54.526-90.996c-9.353-21.276-16.776-43.687-21.327-67.044
					c-2.671-13.456-4.354-27.263-4.898-41.368l399.155-390.049c31.572,48.096,51.215,97.824,62.941,146.56v0.051
					c10.739,44.579,14.896,88.224,15.541,128.993c1.482,93.173-15.395,171.006-13.561,208.757c0.096,2.177,0.242,4.358,0.444,6.531
					c0.938,11.429,2.771,22.662,5.342,33.749c3.371,14.498,8.018,28.695,13.309,42.452c13.067,33.648,30.383,65.018,44.437,93.868
					c3.412,6.874,6.581,13.556,9.454,20.133c6.43,14.448,11.429,28.205,14,41.222c1.285,6.234,1.98,12.317,1.98,18.207
					C2946.751,3011.075,2960.06,3154.073,2930.424,3234.083"/>
			</g>
			<g>
				<path style="fill:#FC7D27;" d="M2930.449,3234.069c-6.429-37.857-26.276-65.357-54.541-84.949
					c22.143-98.469,27.245-185.46,0.867-263.623c-27.704-61.123-74.133-163.011-66.531-203.317
					c6.684-35.612,37.398-136.888,57.653-248.368c2.041,19.592,3.061,38.725,3.367,57.296
					c1.479,93.164-15.408,170.97-13.572,208.725c0.102,2.194,0.255,4.388,0.459,6.531c0.918,11.428,2.755,22.653,5.306,33.776
					c3.367,14.49,8.01,28.673,13.316,42.449c13.061,33.623,30.408,65,44.439,93.878c3.418,6.836,6.582,13.52,9.439,20.102
					c6.429,14.439,11.429,28.214,14.031,41.225c1.275,6.224,1.99,12.296,1.99,18.214
					C2946.775,3011.058,2960.041,3154.069,2930.449,3234.069z"/>
			</g>
			<g>
				<path style="fill:#650000;" d="M2677.183,2631.066c2.117,5.699-106.597,75.309-257.347,82.878
					c-9.353-21.276-16.776-43.691-21.327-67.044C2526.058,2682.172,2675.065,2625.368,2677.183,2631.066"/>
			</g>
			<g>
				<path style="fill:#650000;" d="M2671.591,2773.767c3.343,3.142-53.562,58.153-154.277,82.334
					c-14.054-15.29-28.8-32.408-42.95-51.165C2617.742,2811.038,2668.188,2770.561,2671.591,2773.767"/>
			</g>
			<g>
				<path style="fill:#650000;" d="M2871.248,2491.085c-40.454,80.628-190.641,109.149-199.582,100.418
					c-10.675-10.423,155.058-43.074,184.045-229.411C2866.446,2406.67,2870.603,2450.316,2871.248,2491.085"/>
			</g>
			<g>
				<path style="fill:#650000;" d="M2876.786,2782.575c-79.265,25.086-159.82,32.706-159.82,26.326
					c0-7.13,75.158-29.248,141.168-102.526c0.937,11.429,2.767,22.662,5.342,33.749
					C2866.843,2754.621,2871.494,2768.818,2876.786,2782.575"/>
			</g>
			<g>
				<path style="fill:#650000;" d="M2944.676,2937.796c-80.111,15.042-162.646,11.576-166.255,3.462
					c-4.157-9.403,72.24-14.05,142.801-64.817c3.412,6.874,6.582,13.556,9.449,20.133
					C2937.106,2911.022,2942.105,2924.78,2944.676,2937.796"/>
			</g>
			<g>
				<path style="fill:#FFFFFF;" d="M2930.449,3234.069c-8.265,22.449-19.949,39.898-36.174,49.082
					c-60.561,34.337-214.235,65.459-340.868,3.47c-7.296-3.572-13.674-7.755-19.184-12.347c-0.969-0.816-1.888-1.633-2.806-2.5
					c-1.02-0.918-1.99-1.888-2.959-2.857c-0.918-0.969-1.888-1.939-2.755-2.959c-1.786-1.99-3.418-4.082-4.949-6.173
					c-0.765-1.021-1.429-2.041-2.143-3.112c-0.817-1.225-1.582-2.5-2.296-3.776c-0.561-1.02-1.123-2.041-1.633-3.061
					c-0.051-0.153-0.153-0.306-0.255-0.459c-1.021-2.092-1.99-4.286-2.857-6.479c-0.51-1.174-0.918-2.398-1.327-3.572
					c-0.051-0.102-0.102-0.204-0.153-0.306c-0.969-3.112-1.837-6.275-2.449-9.49c-9.286-45.357,18.878-99.133,65.459-118.521
					c98.521-11.071,229.184-13.163,302.807,38.113C2904.173,3168.711,2924.02,3196.211,2930.449,3234.069z"/>
			</g>
			<g style="opacity:0.15;">
				<path style="fill:#650000;" d="M2930.449,3234.069c-8.265,22.449-19.949,39.898-36.174,49.082
					c-60.561,34.337-214.235,65.459-340.868,3.47c-7.296-3.572-13.674-7.755-19.184-12.347c-0.969-0.816-1.888-1.633-2.806-2.5
					c-1.02-0.918-1.99-1.888-2.959-2.857c-0.918-0.969-1.888-1.939-2.755-2.959c-1.786-1.99-3.418-4.082-4.949-6.173
					c-0.765-1.021-1.429-2.041-2.143-3.112c-0.817-1.225-1.582-2.5-2.296-3.776c-0.561-1.02-1.123-2.041-1.633-3.061
					c-0.051-0.153-0.153-0.306-0.255-0.459c-1.021-2.092-1.99-4.286-2.857-6.479c-0.51-1.174-0.918-2.398-1.327-3.572
					c-0.051-0.102-0.102-0.204-0.153-0.306c-1.837-3.979-2.653-7.092-2.449-9.49c1.327-21.786,78.725,12.857,164.082,19.796
					c135.204,11.02,179.439-25.459,196.99-70.103c2.551-10.153,5-20.204,7.194-30.102
					C2904.173,3168.711,2924.02,3196.211,2930.449,3234.069z"/>
			</g>
			<g>
				<path style="fill:#650000;" d="M2808.075,2205.446c20.146,31.1,37.005,64.433,49.504,99.288
					c6.366,17.398,11.438,35.189,15.958,53.095c4.167,17.979,7.679,36.09,10.176,54.316c2.415,18.226,4.157,36.516,5.068,54.805
					c0.846,18.285,1.033,36.561,0.626,54.773c-0.828,36.419-4.221,72.592-8.132,108.124c-1.889,17.714-4.039,35.441-5.027,52.249
					c-0.283,4.226-0.361,8.283-0.365,12.207c-0.06,3.746,0.365,7.816,0.787,11.882c0.467,4.048,0.585,8.104,1.303,12.152
					l2.223,12.129c3.549,16.136,8.296,32.216,14.786,48.032c6.206,15.871,13.547,31.54,21.395,47.291
					c7.748,15.756,16.063,31.526,23.947,48.068c7.807,16.561,15.591,33.643,20.636,53.145c1.001,5.054,2.223,9.961,2.945,15.161
					l0.64,8.041c0.16,2.552,0.462,5.703,0.416,7.583c0.05,8.511,0.352,17.338,0.659,26.188l1.811,53.593
					c0.906,35.953,1.001,72.189-1.857,108.76c-1.459,18.281-3.654,36.657-7.331,55.112c-3.709,18.436-8.727,37.06-17.764,55.331
					c-2.063,4.583-4.967,9.056-7.633,13.52c-3.096,4.386-6.124,8.777-10.025,12.843l-2.79,3.087l-3.201,2.859
					c-2.214,1.843-4.148,3.897-6.691,5.452c-2.401,1.61-4.944,3.357-7.295,4.752l-6.545,3.38l-6.554,3.362l-6.6,2.849
					c-4.404,1.843-8.791,3.906-13.245,5.378l-13.332,4.766l-13.451,4.038c-4.464,1.436-8.997,2.483-13.52,3.595
					c-4.523,1.075-9.028,2.305-13.579,3.238c-9.125,1.674-18.18,3.833-27.382,4.958l-13.762,1.994
					c-4.601,0.567-9.216,0.919-13.826,1.386c-4.619,0.38-9.216,1.002-13.849,1.18l-13.89,0.608
					c-37.032,1.294-74.398-1.646-110.9-9.957c-9.042-2.438-18.135-4.706-27.126-7.318c-8.859-3.142-17.814-5.996-26.564-9.417
					l-12.943-5.671l-6.463-2.849c-2.15-0.938-4.276-1.829-6.655-3.197c-9.344-4.692-18.189-11.086-25.978-18.706
					c-15.738-15.18-26.001-36.525-28.301-57.929c-2.548-21.455,1.39-42.635,9.394-61.611c8.082-18.994,20.531-35.953,36.3-49.504
					c15.77-13.533,35.45-23.074,56.356-26.861l-15.129,17.375v-0.004c0.43-46.783,1.294-94.143,0.471-140.185
					c-0.114-5.735-0.402-11.338-0.722-16.602l-0.329-3.508c-0.05-0.485-0.11-1.39-0.146-1.537c-0.028,0.151,0.009,0.311,0.105,0.453
					c0.055,0.201,0.324,0.133,0.361,0.471c0.064,0.306,0.21,0.585,0.416,0.814l-1.299-1.679c-2.74-3.32-6.915-7.514-10.803-11.457
					l-12.431-12.239c-16.881-16.483-33.781-33.648-49.916-51.549c-16.227-17.837-31.484-36.717-45.69-56.475
					c-14.187-19.758-27.35-40.444-38.258-62.475c-10.949-21.98-19.767-45.191-25.617-69.189c-5.717-24.002-8.53-48.814-6.952-73.292
					c0.325-5.072,4.698-8.919,9.77-8.585c4.395,0.279,7.871,3.613,8.502,7.798l0.009,0.059
					c6.819,45.237,23.056,87.474,45.333,126.693c22.287,39.26,50.447,75.437,81.858,108.97
					c15.605,16.918,32.134,32.971,48.979,49.354l12.77,12.513c4.367,4.455,8.589,8.534,13.405,14.256
					c0.604,0.709,1.326,1.692,1.976,2.538c0.7,0.961,1.23,1.587,2.044,2.831c0.924,1.51,1.793,3.078,2.57,4.665
					c0.833,1.596,1.075,3.096,1.551,4.693c0.411,1.578,0.768,3.174,1.061,4.766c0.206,1.299,0.215,1.875,0.325,2.849l0.512,5.287
					c0.412,6.481,0.604,12.651,0.686,18.688c0.402,24.199-0.133,47.762-0.91,71.462c-0.768,23.673-1.628,47.236-3.06,70.895v0.005
					c-0.302,8.727-6.668,15.811-14.91,17.343l-0.215,0.037c-14.164,2.634-27.688,9.023-38.98,18.706
					c-11.242,9.664-20.476,22.141-26.326,35.962c-5.836,13.789-8.425,28.836-6.746,42.841c1.583,14.064,7.784,26.65,17.64,36.273
					c4.948,4.807,10.656,9.079,17.26,12.353c1.464,0.896,3.449,1.733,5.388,2.57l5.767,2.525l11.535,5.081
					c7.83,3.055,15.884,5.589,23.81,8.438c8.109,2.342,16.323,4.377,24.473,6.609c33.04,7.519,67.319,10.254,101.474,9.056
					l12.815-0.563c4.267-0.146,8.516-0.741,12.779-1.088c4.253-0.435,8.521-0.746,12.765-1.267l12.692-1.848
					c8.502-1.02,16.803-3.042,25.205-4.555c4.176-0.855,8.269-1.99,12.413-2.968c4.13-1.015,8.287-1.967,12.303-3.27l12.156-3.636
					l11.832-4.24c4.016-1.313,7.693-3.092,11.507-4.674l5.676-2.433l5.328-2.753l5.342-2.735c1.459-0.896,2.552-1.742,3.883-2.561
					c1.34-0.686,2.401-2.026,3.636-2.991l1.816-1.555l1.656-1.898c2.337-2.337,4.322-5.337,6.412-8.191
					c1.829-3.211,3.901-6.183,5.47-9.755c6.833-13.703,11.375-29.751,14.64-46.216c3.289-16.497,5.36-33.565,6.732-50.794
					c2.703-34.517,2.653-69.669,1.756-104.946l-1.802-53.255c-0.311-8.96-0.622-17.947-0.681-27.25
					c0.041-2.584-0.251-3.865-0.357-5.758l-0.38-5.278c-0.512-3.608-1.5-7.368-2.163-11.059
					c-3.86-15.07-10.757-30.675-18.167-46.285c-7.441-15.632-15.742-31.397-23.728-47.615c-8.04-16.149-15.856-32.774-22.635-50.099
					c-7.03-17.165-12.513-35.372-16.575-54.014l-2.584-14.16c-0.823-4.729-1.038-9.609-1.573-14.411
					c-0.48-4.798-0.961-9.595-0.919-14.773c-0.005-4.981,0.119-9.838,0.425-14.503c1.116-18.775,3.307-36.442,5.182-54.16
					c3.888-35.304,7.126-70.173,7.926-105.032c0.389-17.416,0.206-34.796-0.594-52.107c-0.855-17.306-2.506-34.521-4.766-51.622
					c-2.337-17.087-5.63-33.986-9.504-50.73c-4.212-16.639-8.905-33.158-14.8-49.235c-11.562-32.248-27.098-62.928-45.677-91.641
					l-0.123-0.187c-5.488-8.489-3.064-19.813,5.42-25.301C2791.263,2194.547,2802.587,2196.966,2808.075,2205.446"/>
			</g>
			<g>
				<path style="fill:#650000;" d="M1241.215,3137.35c-11.96,9.801-21.642,21.972-28.023,35.569
					c-6.389,13.574-9.44,28.53-8.859,42.982c0.526,14.425,4.93,28.388,12.747,38.862c7.771,10.542,18.615,17.279,30.981,19.58
					c9.948,1.852,16.515,11.425,14.663,21.377s-11.42,16.515-21.377,14.663c-0.59-0.11-1.171-0.251-1.743-0.411l-0.558-0.165
					c-10.053-2.927-19.776-7.752-28.141-14.251c-8.393-6.472-15.381-14.53-20.645-23.307
					c-10.592-17.645-14.379-37.686-13.369-56.671c1.015-19.054,6.728-37.412,16.108-53.392
					c9.376-16.003,22.438-29.495,37.412-39.598c4.189-2.831,9.879-1.724,12.71,2.47c2.657,3.938,1.839,9.207-1.756,12.175
					L1241.215,3137.35z"/>
			</g>
			<g>
				<path style="fill:#650000;" d="M1138.904,3117.564c-12.751,5.699-23.202,15.294-30.615,27.03
					c-7.473,11.713-12.047,25.425-13.904,39.356c-1.871,13.885-1.12,28.238,2.662,40.691c1.88,6.193,4.569,11.836,7.807,16.168
					c3.302,4.299,7.011,6.892,10.547,8.155c9.536,3.403,14.512,13.899,11.109,23.435c-3.403,9.536-13.894,14.507-23.43,11.109
					c-0.649-0.233-1.272-0.494-1.875-0.787l-0.567-0.274c-10.89-5.319-19.127-13.954-24.478-22.841
					c-5.328-8.973-8.388-18.276-10.226-27.418c-3.554-18.331-2.47-36.282,1.5-53.397c4.025-17.078,11.283-33.483,22.25-47.492
					c10.844-14.013,25.855-25.264,42.731-30.84c4.802-1.587,9.979,1.02,11.567,5.822c1.482,4.491-0.7,9.307-4.917,11.21
					L1138.904,3117.564z"/>
			</g>
			<g>
				<path style="fill:#650000;" d="M1283.505,3062.6c-10.849-0.874-22.278-1.276-33.433-1.313
					c-11.21-0.06-22.411,0.306-33.533,1.015c-11.128,0.663-22.177,1.798-33.09,3.334c-10.94,1.418-21.651,3.641-32.221,5.991
					l-0.412,0.087c-9.893,2.2-19.689-4.043-21.889-13.931c-2.195-9.893,4.038-19.689,13.936-21.889
					c0.759-0.169,1.628-0.293,2.387-0.366c12.047-1.047,24.034-1.875,35.939-1.825c11.905-0.078,23.737,0.293,35.486,1.157
					c11.754,0.823,23.43,1.999,35.034,3.618c11.663,1.61,23.019,3.517,34.787,6.074c4.939,1.075,8.077,5.946,7.002,10.894
					c-0.988,4.532-5.177,7.547-9.682,7.181L1283.505,3062.6z"/>
			</g>
			<g>
				<path style="fill:#650000;" d="M1916.28,3219.291c4.569,14.635,7.482,29.01,9.147,44.135
					c1.605,15.038,1.678,30.593-1.349,46.486c-2.932,15.765-9.993,32.395-22.845,45.443c-6.385,6.499-14.128,11.599-22.191,15.5
					c-8.118,4.062-16.579,6.097-24.99,7.899c-9.915,2.136-19.676-4.176-21.811-14.087c-2.127-9.915,4.18-19.676,14.096-21.802
					c0.86-0.188,1.72-0.311,2.575-0.375l0.494-0.023c11.672-0.75,22.269-3.787,30.68-10.272c8.338-6.531,14.85-16.597,18.656-28.677
					c3.883-12.015,5.626-25.461,5.808-39.09c0.197-13.556-0.97-27.766-3.394-40.998l-0.073-0.393
					c-0.777-4.258,2.04-8.342,6.302-9.124C1911.326,3213.189,1915.118,3215.559,1916.28,3219.291"/>
			</g>
			<g>
				<path style="fill:#650000;" d="M1729.671,3193.224c-4.171,4.514-8.521,10.208-12.093,15.806
					c-3.641,5.68-6.842,11.603-9.476,17.686c-5.301,12.161-8.237,24.985-8.466,37.554c-0.183,12.586,2.41,24.88,7.336,36.323
					c4.976,11.443,12.015,22.109,20.485,31.869c6.636,7.647,5.822,19.223-1.825,25.864s-19.227,5.822-25.868-1.825
					c-0.467-0.544-0.901-1.102-1.294-1.683l-0.169-0.256c-8.923-13.222-16.323-27.913-20.956-43.682
					c-4.61-15.756-6.019-32.665-3.75-48.828c2.287-16.181,7.99-31.439,15.911-44.895c3.956-6.741,8.452-13.067,13.359-18.999
					c4.999-5.991,10.057-11.315,16.401-16.666c3.307-2.79,8.246-2.374,11.036,0.933c2.58,3.055,2.42,7.505-0.229,10.364
					L1729.671,3193.224z"/>
			</g>
			<g>
				<path style="fill:#650000;" d="M2814.217,3175.81c6.197,14.155,10.762,28.233,14.128,43.22
					c3.275,14.91,5.09,30.542,3.604,46.948c-0.741,8.182-2.589,16.602-5.873,24.834c-3.275,8.219-8.177,16.223-14.594,23.032
					c-6.353,6.929-14.306,12.088-22.397,16.058c-8.177,4.134-16.611,6.243-24.999,8.15c-9.883,2.246-19.717-3.947-21.967-13.835
					c-2.245-9.884,3.947-19.717,13.835-21.967c0.828-0.188,1.66-0.315,2.483-0.384l0.526-0.041
					c11.928-0.965,22.781-4.038,30.785-10.597c8.004-6.494,13.703-16.808,16.364-29.184c2.676-12.33,2.941-26.01,1.587-39.69
					c-1.335-13.625-4.13-27.743-8.058-40.76l-0.11-0.38c-1.248-4.148,1.098-8.521,5.246-9.769
					C2808.614,3170.29,2812.653,3172.224,2814.217,3175.81"/>
			</g>
			<g>
				<path style="fill:#650000;" d="M2638.245,3161.875c-3.924,4.537-8.018,10.313-11.292,15.962
					c-3.352,5.726-6.252,11.686-8.566,17.796c-4.665,12.207-6.906,24.986-6.536,37.439c0.119,6.234,1.002,12.395,2.47,18.395
					c1.363,6.014,3.494,11.859,6.046,17.521c5.173,11.311,12.258,21.862,20.682,31.549c6.646,7.643,5.84,19.223-1.802,25.873
					c-7.643,6.641-19.223,5.831-25.868-1.811c-0.476-0.549-0.915-1.116-1.317-1.701l-0.169-0.261
					c-8.768-13.016-16.113-27.373-20.938-42.763c-2.374-7.693-4.171-15.624-4.994-23.696c-0.924-8.036-1.047-16.177-0.22-24.176
					c1.523-16.021,6.375-31.398,13.638-45.068c3.613-6.856,7.807-13.309,12.445-19.374c4.72-6.138,9.527-11.58,15.678-17.11
					c3.22-2.891,8.173-2.621,11.059,0.594c2.667,2.968,2.644,7.414,0.101,10.354L2638.245,3161.875z"/>
			</g>
			<g>
				<path style="fill:#650000;" d="M1837.039,3137.979c-4.711-0.928-10.524-1.724-15.934-2.241
					c-5.502-0.567-11.073-0.892-16.639-1.134c-11.151-0.439-22.356-0.261-33.533,0.274c-11.178,0.563-22.342,1.615-33.456,2.977
					c-5.552,0.636-11.1,1.564-16.63,2.328l-16.552,2.858l-0.499,0.092c-9.989,1.724-19.483-4.976-21.208-14.96
					c-1.724-9.984,4.971-19.479,14.956-21.203c0.773-0.137,1.646-0.219,2.41-0.256l17.865-0.695
					c5.973-0.037,11.914-0.233,17.878-0.133c11.919,0.123,23.828,0.576,35.711,1.555c11.887,1.002,23.737,2.387,35.523,4.427
					c5.895,1.047,11.768,2.177,17.627,3.581c5.959,1.413,11.484,2.849,17.874,5.049c4.775,1.642,7.309,6.847,5.667,11.617
					c-1.505,4.372-6.001,6.874-10.414,5.991L1837.039,3137.979z"/>
			</g>
			<g>
				<path style="fill:#650000;" d="M2726.255,3113.602c-10.707-0.887-21.921-1.335-32.88-1.45
					c-11.018-0.11-22.003,0.156-32.898,0.782c-21.752,1.303-43.275,4.281-63.015,9.957l-0.064,0.018
					c-9.733,2.799-19.891-2.822-22.694-12.554c-2.799-9.733,2.822-19.895,12.554-22.694c0.787-0.224,1.678-0.412,2.456-0.526
					c24.299-3.499,47.885-3.362,71.041-1.642c11.576,0.91,23.046,2.196,34.435,3.86c11.434,1.692,22.58,3.649,34.073,6.206
					c4.94,1.093,8.054,5.982,6.956,10.922c-1.006,4.528-5.2,7.524-9.696,7.144L2726.255,3113.602z"/>
			</g>
			<g>
				<path style="fill:#650000;" d="M2426.172,2560.068c0.009,3.714,107.744,17.462,180.51-13.451
					c87.754-37.289,114.372-149.447,110.283-155.36c-3.998-5.79-46.738,68.041-122.508,111.701
					C2513.047,2549.865,2426.144,2549.33,2426.172,2560.068"/>
			</g>
		</g>
	</g>
</g>
</svg>
