<?xml version="1.0" encoding="utf-8"?>
<!-- Generator: Adobe Illustrator 27.5.0, SVG Export Plug-In . SVG Version: 6.00 Build 0)  -->
<svg version="1.1" id="Layer_1" xmlns="http://www.w3.org/2000/svg" xmlns:xlink="http://www.w3.org/1999/xlink" x="0px" y="0px"
	 viewBox="0 0 4000 4000" style="enable-background:new 0 0 4000 4000;" xml:space="preserve">
<g>
	<g>
		<rect style="fill:#F3E1FF;" width="4000" height="4000"/>
	</g>
	<g>
		<g>
			<g>
				<path style="fill:#0096F0;" d="M3309.093,2594.825c-4.487,49.545-19.618,142.524-69.877,235.599
					c-31.837,58.995-77.753,118.038-144.052,166.151c-58.279,42.289-103.91,33.888-136.079-4.535
					c-65.964-78.802-75.367-283.902-21.241-436.21c18.759-52.838,45.153-99.328,79.52-132.023c0,0,8.257,30.786,87.3,54.89
					c6.634,2.004,13.603,4.295,20.81,6.729h0.048c51.836,17.327,115.843,43.434,153.549,59.233
					C3298.974,2553.012,3311.098,2573.298,3309.093,2594.825z"/>
			</g>
			<g>
				<path style="fill:#FDF2E4;" d="M3309.093,2594.825c-7.351,80.952-43.005,277.746-213.929,401.75
					c-58.279,42.289-103.91,33.888-136.079-4.535c16.657-24.103,39.424-45.869,65.485-60.092
					c108.349-58.9,170.495-183.62,170.495-183.62c-159.325-105.581-69.592-262.901-69.592-262.901h0.048
					c51.836,17.327,115.843,43.434,153.549,59.233C3298.974,2553.012,3311.098,2573.298,3309.093,2594.825z"/>
			</g>
			<g style="opacity:0.2;">
				<g>
					<path style="fill:#00046A;" d="M3239.216,2830.424c-31.837,58.995-77.753,118.038-144.052,166.151
						c-58.279,42.289-103.91,33.888-136.079-4.535c-65.964-78.802-75.367-283.902-21.241-436.21l80.618-70.403
						C3018.461,2485.426,3026.91,2784.46,3239.216,2830.424z"/>
				</g>
			</g>
			<g>
				<path style="fill:#00046A;" d="M3022.863,3041.636c-36.714,0.005-62.173-21.572-76.841-39.197
					c-45.508-54.661-67.627-165.166-57.734-288.389c10.522-131.04,53.364-241.24,117.549-302.341
					c4.517-4.299,10.864-6.66,16.753-4.629c5.742,1.973,9.766,6.016,10.82,11.917c1.689,3.286,14.897,25.046,76.123,43.745
					c55.361,16.907,134.014,48.918,175.972,66.494c26.714,11.191,42.891,38.162,40.249,67.112
					c-7.466,81.665-43.916,285.454-220.757,413.752C3073.156,3033.201,3045.808,3041.633,3022.863,3041.636z M3015.358,2450.059
					c-50.19,57.527-84.824,155.256-93.765,266.665c-9.082,113.108,10.586,216.865,50.107,264.341
					c29.492,35.435,66.685,36.082,113.677,1.99c165.762-120.261,200.054-312.622,207.104-389.744
					c1.309-14.36-6.685-27.727-19.888-33.259c-41.377-17.334-118.853-48.875-172.817-65.356
					C3053.117,2480.447,3028.405,2463.455,3015.358,2450.059z M3033.493,2419.482L3033.493,2419.482L3033.493,2419.482z"/>
			</g>
			<g>
				<path style="fill:#00046A;" d="M3092.487,2901.543c-4.658,0-9.292-1.938-12.593-5.725c-6.064-6.953-5.347-17.507,1.606-23.572
					c161.992-141.292,134.512-342.358,134.214-344.373c-1.343-9.121,4.951-17.615,14.072-18.97
					c9.111-1.34,17.607,4.924,18.97,14.036c1.343,8.948,30.835,220.864-145.293,374.487
					C3100.3,2900.188,3096.384,2901.543,3092.487,2901.543z"/>
			</g>
			<g>
				<path style="fill:#00046A;" d="M3195.036,2765.02c-3.169,0.002-6.372-0.898-9.214-2.781
					c-170.352-112.869-75.85-283.401-74.873-285.11c4.57-8.02,14.785-10.806,22.783-6.24c8.008,4.565,10.801,14.746,6.26,22.756l0,0
					c-3.325,5.889-79.727,145.322,64.287,240.742c7.69,5.095,9.795,15.461,4.697,23.152
					C3205.764,2762.393,3200.451,2765.02,3195.036,2765.02z"/>
			</g>
			<g>
				<circle style="fill:#0096F0;" cx="3350.921" cy="2769.363" r="70.294"/>
			</g>
			<g>
				<path style="fill:#00046A;" d="M3350.92,2856.365c-47.974,0-86.997-39.028-86.997-87.002c0-47.971,39.023-87,86.997-87
					s87.002,39.028,87.002,87C3437.922,2817.336,3398.894,2856.365,3350.92,2856.365z M3350.92,2715.776
					c-29.546,0-53.589,24.038-53.589,53.586s24.043,53.589,53.589,53.589c29.551,0,53.594-24.041,53.594-53.589
					S3380.471,2715.776,3350.92,2715.776z"/>
			</g>
			<g>
				<circle style="fill:#00046A;" cx="3350.921" cy="2769.363" r="23.313"/>
			</g>
			<g>
				
					<ellipse transform="matrix(0.7071 -0.7071 0.7071 0.7071 -1201.1458 3136.3694)" style="fill:#0096F0;" cx="3185.36" cy="3018.096" rx="70.294" ry="70.294"/>
			</g>
			<g>
				<path style="fill:#00046A;" d="M3185.358,3105.098c-47.974,0-86.997-39.028-86.997-87.002c0-47.971,39.023-87,86.997-87
					s87.002,39.028,87.002,87C3272.36,3066.069,3233.332,3105.098,3185.358,3105.098z M3185.358,2964.509
					c-29.546,0-53.589,24.038-53.589,53.586s24.043,53.589,53.589,53.589c29.551,0,53.594-24.041,53.594-53.589
					S3214.909,2964.509,3185.358,2964.509z"/>
			</g>
			<g>
				
					<ellipse transform="matrix(0.1602 -0.9871 0.9871 0.1602 -304.0031 5678.8789)" style="fill:#00046A;" cx="3185.36" cy="3018.096" rx="23.313" ry="23.313"/>
			</g>
		</g>
		<g>
			<g>
				<path style="fill:#0096F0;" d="M3074.449,3080.15c-49.067,25.25-99.232,45.059-147.822,60.619
					c-127.44,40.858-243.522,52.456-297.314,55.797c-20.572,1.289-40.19-9.546-49.736-27.827
					c-33.507-64.15-52.837-167.964,8.64-217.604c-57.181-134.887-31.263-165.435-31.263-165.435
					c127.01-43.291,251.11-71.692,372.012-83.91c32.075-3.245,63.911-5.346,95.557-6.253
					c43.912,74.317,69.543,186.341,83.194,265.431c2.625,15.322,4.821,29.45,6.586,41.764
					C3118.838,3034.377,3102.896,3065.497,3074.449,3080.15z"/>
			</g>
			<g>
				<path style="fill:#FDF2E4;" d="M3074.449,3080.15c-177.749,91.405-370.868,111.834-445.136,116.416
					c-20.572,1.289-40.19-9.546-49.736-27.827c-33.507-64.15-52.837-167.964,8.64-217.604c0,0,178.846-37.993,201.233,142.571
					c0,0,188.822-54.651,318.268-132.738c2.625,15.322,4.821,29.45,6.586,41.764
					C3118.838,3034.377,3102.896,3065.497,3074.449,3080.15z"/>
			</g>
			<g style="opacity:0.2;">
				<g>
					<path style="fill:#00046A;" d="M3074.449,3080.15c-49.067,25.25-150.073,60.043-198.663,75.604
						c147.201-156.652,62.917-435.492,53.18-453.964c32.075-3.245,63.911-5.346,95.557-6.253
						c43.912,74.317,69.543,186.341,83.194,265.431c2.625,15.322,4.821,29.45,6.586,41.764
						C3118.838,3034.377,3102.896,3065.497,3074.449,3080.15z"/>
				</g>
			</g>
			<g>
				<path style="fill:#00046A;" d="M2626.057,3213.372c-25.684,0-49.419-14.153-61.306-36.909
					c-38.274-73.279-52.046-173.896,3.516-229.8c-51.057-125.178-31.458-163.027-24.028-171.78l25.474,21.621
					c0,0,0.425-0.349,0.945-1.27c-0.173,0.308-16.78,32.021,32.944,149.382c2.908,6.865,0.916,14.824-4.885,19.512
					c-55.298,44.675-32.898,142.207-4.351,196.865c6.453,12.354,19.81,19.785,33.94,18.896
					c73.645-4.526,263.796-24.756,438.518-114.602c22.061-11.343,34.487-35.52,30.933-60.161
					c-10.894-75.496-36.763-215-87.603-301.116c-4.692-7.944-2.056-18.188,5.894-22.878c7.949-4.695,18.188-2.051,22.876,5.891
					c53.765,91.06,80.654,235.398,91.899,313.33c5.596,38.75-13.984,76.787-48.721,94.646
					c-180.347,92.742-375.999,113.584-451.746,118.24C2628.918,3213.328,2627.485,3213.372,2626.057,3213.372z"/>
			</g>
			<g>
				<path style="fill:#00046A;" d="M2592.404,3136.157c-20.649,0-32.754-1.101-34.861-1.311
					c-9.182-0.916-15.881-9.099-14.968-18.279c0.913-9.177,9.128-15.837,18.262-14.971l0,0
					c2.383,0.237,241.318,21.179,538.936-152.153c7.983-4.639,18.203-1.941,22.842,6.028c4.644,7.974,1.948,18.201-6.025,22.844
					C2872.995,3120.186,2670.969,3136.157,2592.404,3136.157z"/>
			</g>
			<g>
				<path style="fill:#00046A;" d="M2984.846,3043.743c-7.246,0-13.916-4.749-16.03-12.058
					c-22.236-76.797-32.212-231.528,89.175-267.456c8.857-2.632,18.14,2.432,20.762,11.277c2.617,8.848-2.432,18.142-11.279,20.759
					c-119.946,35.503-67.109,224.238-66.563,226.14c2.554,8.86-2.559,18.12-11.416,20.679
					C2987.946,3043.53,2986.384,3043.743,2984.846,3043.743z"/>
			</g>
			<g>
				<path style="fill:#00046A;" d="M2789.44,3110.391c-8.308,0.002-15.505-6.191-16.555-14.648
					c-5.994-48.247-24.485-83.721-54.958-105.432c-53.064-37.8-125.513-22.986-126.24-22.837
					c-9.014,1.919-17.893-3.845-19.81-12.871s3.845-17.896,12.871-19.81c3.55-0.754,87.673-17.922,152.563,28.306
					c38.413,27.366,61.536,70.608,68.73,128.528c1.135,9.155-5.364,17.5-14.521,18.638
					C2790.822,3110.349,2790.126,3110.391,2789.44,3110.391z"/>
			</g>
			<g>
				<path style="fill:#00046A;" d="M2668.967,2967.944c-4.79,0-7.832-0.476-8.328-0.559c-9.097-1.536-15.225-10.156-13.689-19.255
					c1.536-9.094,10.129-15.234,19.255-13.689c1.003,0.139,30.291,3.743,50.481-32.603c14.912-26.841-19.624-100.496-48.909-144.226
					c-5.134-7.664-3.083-18.04,4.578-23.174c7.668-5.132,18.04-3.091,23.174,4.57c8.389,12.507,81.067,123.792,50.366,179.055
					C2721.208,2962.502,2685.144,2967.944,2668.967,2967.944z"/>
			</g>
			<g>
				<path style="fill:#00046A;" d="M2562.629,2897.344c-5.435,0-10.759-2.639-13.967-7.507c-5.068-7.69-2.974-18.018,4.702-23.105
					c2.454-1.626,61.243-39.905,163.721-48.689c9.18-0.779,17.285,6.028,18.071,15.22s-6.025,17.283-15.22,18.071
					c-93.381,8.003-147.615,42.922-148.152,43.274C2568.959,2896.458,2565.776,2897.344,2562.629,2897.344z"/>
			</g>
			<g>
				<circle style="fill:#0096F0;" cx="2725.966" cy="3260.003" r="70.294"/>
			</g>
			<g>
				<path style="fill:#00046A;" d="M2725.966,3347.004c-47.974,0-87.002-39.028-87.002-87.002c0-47.971,39.028-87,87.002-87
					c47.971,0,87,39.028,87,87C2812.966,3307.976,2773.938,3347.004,2725.966,3347.004z M2725.966,3206.416
					c-29.548,0-53.589,24.038-53.589,53.586s24.041,53.589,53.589,53.589s53.586-24.041,53.586-53.589
					S2755.515,3206.416,2725.966,3206.416z"/>
			</g>
			<g>
				<circle style="fill:#00046A;" cx="2725.966" cy="3260.003" r="23.313"/>
			</g>
			<g>
				<circle style="fill:#0096F0;" cx="3047.902" cy="3175.508" r="70.294"/>
			</g>
			<g>
				<path style="fill:#00046A;" d="M3047.902,3262.507c-47.974,0-86.997-39.028-86.997-87c0-47.974,39.023-87.002,86.997-87.002
					s86.997,39.028,86.997,87.002C3134.899,3223.479,3095.876,3262.507,3047.902,3262.507z M3047.902,3121.919
					c-29.546,0-53.589,24.041-53.589,53.589s24.043,53.586,53.589,53.586s53.589-24.038,53.589-53.586
					S3077.448,3121.919,3047.902,3121.919z"/>
			</g>
			<g>
				<circle style="fill:#00046A;" cx="3047.902" cy="3175.508" r="23.313"/>
			</g>
		</g>
		<g>
			<g>
				<path style="fill:#7C7C7C;" d="M3350.803,1868.588c0,0,39.881-74.232,119.761-29.854
					c79.88,44.378,49.703,118.577,120.707,115.027c0,0-47.218,97.986-148.399,82.365
					C3341.691,2020.505,3306.306,1944.239,3350.803,1868.588z"/>
			</g>
			<g style="opacity:0.2;">
				<g>
					<path style="fill:#00046A;" d="M3591.277,1953.755c0,0-47.206,97.991-148.395,82.382
						c-69.353-10.739-107.824-49.926-110.783-97.895c18.09,24.199,49.353,42.05,92.788,48.781
						c59.902,9.259,100.903-21.336,124.339-47.826C3558.009,1949.029,3570.179,1954.805,3591.277,1953.755z"/>
				</g>
			</g>
			<g>
				<path style="fill:#00046A;" d="M3463.894,2054.473c-7.598,0.002-15.449-0.583-23.569-1.836
					c-55.518-8.572-96.274-34.756-114.766-73.733c-16.968-35.762-13.154-77.871,10.732-118.594
					c2.3-4.126,21.997-37.622,60.146-48.811c25.84-7.585,53.506-3.333,82.241,12.629c42.505,23.618,57.734,55.701,68.848,79.126
					c11.792,24.851,16.729,35.11,42.91,33.821c5.967-0.317,11.499,2.539,14.756,7.449c3.257,4.912,3.687,11.177,1.128,16.487
					C3589.777,1995.342,3540.212,2054.47,3463.894,2054.473z M3421.716,1841.313c-5.371,0-10.571,0.72-15.591,2.163
					c-26.333,7.576-40.508,32.837-40.645,33.091c-0.078,0.139-0.2,0.354-0.278,0.488c-18.198,30.94-21.558,62.024-9.458,87.527
					c13.599,28.66,45.444,48.203,89.678,55.032c60.449,9.336,99.014-27.517,117.637-52.314
					c-25.981-8.123-36.323-29.929-45.718-49.719c-10.688-22.532-21.748-45.83-54.893-64.243
					C3448.044,1845.332,3434.401,1841.313,3421.716,1841.313z M3350.803,1868.586h0.049H3350.803z"/>
			</g>
			<g>
				<path style="fill:#C1C5D1;" d="M3013.296,1974.361c0,0,79.525,19.162,143.902-35.275s171.357-106.98,242.361-33.135
					c0,0-91.714-1.775-147.689,42.603c-55.798,44.237-89.466,129.228-206.386,115.5"/>
			</g>
			<g>
				<path style="fill:#00046A;" d="M3070.28,2082.266c-8.457,0.002-17.354-0.518-26.743-1.621
					c-9.165-1.077-15.718-9.377-14.644-18.54s9.336-15.742,18.54-14.644c78.599,9.236,114.263-29.6,151.997-70.708
					c13.174-14.348,26.792-29.185,42.065-41.289c33.125-26.27,76.758-37.642,109.854-42.546
					c-73.442-28.701-163.535,42.156-183.364,58.926c-70.039,59.229-155.024,39.622-158.604,38.757
					c-8.965-2.161-14.487-11.184-12.324-20.154c2.163-8.955,11.191-14.443,20.107-12.339c0.938,0.22,72.5,16.204,129.248-31.777
					c78.901-66.726,190.01-110.151,265.186-31.958c4.683,4.871,5.972,12.083,3.267,18.271c-2.71,6.191-8.828,10.2-15.63,10.01
					c-0.923,0.002-86.509-1.033-136.982,38.992c-13.203,10.464-25.347,23.694-38.208,37.703
					C3188.146,2038.452,3147.917,2082.261,3070.28,2082.266z"/>
			</g>
		</g>
		<g>
			<g>
				<path style="fill:#C1C5D1;" d="M3066.525,2291.592c-5.25,51.168-16.515,101.381-35.225,149.302
					c-26.73,68.685-24.056,156.844-6.777,254.643c-40.333-0.191-82.718,3.102-124.769,8.496
					c-173.835,22.529-342.801,81.667-342.801,81.667c-7.876-29.688-14.177-66.106-17.422-86.726
					c-1.576-9.975-2.434-16.228-2.434-16.228c-299.988,90.21-713.573-17.803-958.813-485.994c-0.334-0.572-0.621-1.193-0.954-1.814
					l1184.436-419.456c92.931,30.882,164.956,80.426,215.981,145.292C3052.064,2015.184,3081.846,2142.148,3066.525,2291.592z"/>
			</g>
			<g style="opacity:0.2;">
				<g>
					<path style="fill:#00046A;" d="M3066.525,2291.592c-5.25,51.168-16.515,101.381-35.225,149.302
						c-26.73,68.685-24.056,156.844-6.777,254.643c-40.333-0.191-82.718,3.102-124.769,8.496
						c-4.573-18.883-8.031-36.953-10.582-54.118c-12.313-82.851,2.027-166.666,33.686-244.213
						c111.265-272.537,57.742-440.289,54.888-484.929C3052.064,2015.184,3081.846,2142.148,3066.525,2291.592z"/>
				</g>
			</g>
			<g style="opacity:0.2;">
				<path style="fill:#00046A;" d="M2546.548,2688.903c0,0-2.482,3.676-7.016,10.071c-1.576-9.975-2.434-16.228-2.434-16.228
					c-299.988,90.21-713.573-17.803-958.813-485.994l111.499,2.863c0.096-1.24,0.335-2.242,0.668-2.863
					c1.671-3.008,465.851-238.558,480.887-242.663l384.756,133.837c0,0-119.133,271.161-449.286,141.095
					c0,0-224.384-72.219-306.672,45.389c-3.771,5.441-7.255,11.121-10.406,17.04l-20.238,16.848
					c176.413,260.992,562.411,351.68,799.345,118.229C2568.837,2426.526,2503.018,2535.973,2546.548,2688.903z"/>
			</g>
			<g>
				<path style="fill:#00046A;" d="M2556.977,2802.4c-2.7,0-5.386-0.654-7.82-1.943c-4.111-2.178-7.129-5.972-8.325-10.466
					c-7.827-29.402-14.019-64.697-17.417-85.972c-159.731,43.23-334.231,29.28-493.567-39.856
					c-191.545-83.11-353.137-242.686-467.307-461.477c-4.27-8.181-1.099-18.271,7.08-22.539c8.186-4.272,18.276-1.096,22.539,7.08
					c237.483,455.095,643.296,568.767,940.125,479.514c4.678-1.404,9.724-0.696,13.831,1.938s6.855,6.934,7.527,11.768
					c0.071,0.503,6.184,44.275,15.208,83.621c59.983-19.688,261.211-81.414,435.967-85.093
					c-16.621-104.558-13.076-182.5,10.933-244.131c17.368-44.597,28.857-93.364,34.141-144.949
					c25.625-250.068-78.574-427.126-293.394-498.557c-8.755-2.91-13.494-12.368-10.581-21.123
					c2.91-8.755,12.366-13.489,21.123-10.581c231.216,76.882,343.472,266.409,316.094,533.665
					c-5.596,54.573-17.788,106.277-36.25,153.672c-22.837,58.628-24.766,138.977-5.894,245.637c0.864,4.878-0.483,9.89-3.677,13.677
					c-3.193,3.789-7.939,5.859-12.861,5.94c-1.152-0.007-2.334-0.01-3.491-0.01c-201.106,0-455.901,88.35-458.464,89.246
					C2560.703,2802.087,2558.835,2802.4,2556.977,2802.4z"/>
			</g>
			<g>
				<path style="fill:#00046A;" d="M2590.463,2412.333c-44.393,60.807-52.178,142.47-44.762,215.499
					c0.001,0,1.906,17.398,1.906,17.398l5.933,34.569l0.178,1.041c3.1,21.78-28.515,27.394-32.949,5.653
					c-7.123-49.266-9.392-99.934-1.577-149.268c5.936-36.87,16.76-73.564,35.234-106.252c6.398-11.376,13.23-21.813,22.078-31.663
					C2585.217,2390.244,2598.912,2402.929,2590.463,2412.333L2590.463,2412.333z"/>
			</g>
		</g>
		<g>
			<g>
				<path style="fill:#0096F0;" d="M1954.735,2871.615c0.191,43.197-1.718,94.268-8.018,149.112v79.519h-564.845
					c0,0-15.178-35.512-14.891-84.674c0.429-72.552,34.509-174.886,200.898-236.267c184.528-68.064,290.633-64.58,341.37-54.366
					c26.013,5.203,37.469,12.172,37.469,12.172S1954.449,2790.664,1954.735,2871.615z"/>
			</g>
			<g>
				<path style="fill:#FDF2E4;" d="M1954.735,2871.615c0.191,43.197-1.718,94.268-8.018,149.112v79.519h-564.845
					c0,0-15.178-35.512-14.891-84.674h404.231C1771.211,3015.571,1780.041,2841.354,1954.735,2871.615z"/>
			</g>
			<g style="opacity:0.2;">
				<path style="fill:#00046A;" d="M1954.735,2871.615c0.191,43.197-1.718,94.268-8.018,149.112v79.519H1552.7
					c427.953-7.923,341.465-363.135,341.465-363.135l15.083-12.172c26.013,5.203,37.469,12.172,37.469,12.172
					S1954.449,2790.664,1954.735,2871.615z"/>
			</g>
			<g>
				<path style="fill:#00046A;" d="M1946.723,3116.951h-564.868c-6.692,0-12.739-3.994-15.366-10.149
					c-1.548-3.63-37.468-89.956,2.561-182.813c30.317-70.327,95.268-124.28,193.052-160.359
					c283.377-104.546,388.95-43.459,393.308-40.808c4.26,2.593,7.139,6.956,7.849,11.892c0.752,5.222,18.164,129.5,0.171,286.985
					v78.545C1963.43,3109.47,1955.949,3116.951,1946.723,3116.951z M1393.659,3083.538h536.357v-62.793
					c0-0.637,0.037-1.277,0.11-1.909c14.941-129.844,4.761-239.128,1.174-270.396c-26.438-10.022-131.272-36.98-357.632,46.538
					c-88.865,32.786-147.385,80.642-173.938,142.239C1372.695,2999.934,1386.386,3060.205,1393.659,3083.538z"/>
			</g>
			<g>
				<path style="fill:#00046A;" d="M1946.723,3037.451h-569.839c-9.226,0-16.706-7.48-16.706-16.707s7.48-16.707,16.706-16.707
					h569.839c9.226,0,16.707,7.48,16.707,16.707S1955.949,3037.451,1946.723,3037.451z"/>
			</g>
			<g>
				<path style="fill:#00046A;" d="M1771.206,3032.261c-0.295,0-0.593-0.01-0.893-0.024c-9.199-0.486-16.27-8.311-15.803-17.512
					c0.176-3.435,4.944-84.653,63.696-131.606c35.576-28.425,82.485-37.834,139.431-27.969c9.089,1.575,15.183,10.222,13.606,19.314
					c-1.575,9.092-10.205,15.195-19.314,13.606c-47.002-8.14-84.922-1.079-112.69,21.011
					c-46.997,37.395-51.323,106.677-51.362,107.373C1787.387,3025.352,1780.017,3032.261,1771.206,3032.261z"/>
			</g>
			<g>
				<circle style="fill:#0096F0;" cx="1522.439" cy="3170.774" r="70.529"/>
			</g>
			<g>
				<path style="fill:#00046A;" d="M1522.438,3258.01c-48.1,0-87.234-39.133-87.234-87.236s39.133-87.236,87.234-87.236
					c48.103,0,87.236,39.133,87.236,87.236S1570.542,3258.01,1522.438,3258.01z M1522.438,3116.951
					c-29.678,0-53.821,24.146-53.821,53.823s24.143,53.823,53.821,53.823c29.678,0,53.823-24.146,53.823-53.823
					S1552.116,3116.951,1522.438,3116.951z"/>
			</g>
			<g>
				<circle style="fill:#00046A;" cx="1522.439" cy="3170.774" r="26.982"/>
			</g>
			<g>
				<circle style="fill:#0096F0;" cx="1820.143" cy="3170.774" r="70.529"/>
			</g>
			<g>
				<path style="fill:#00046A;" d="M1820.144,3258.01c-48.103,0-87.236-39.133-87.236-87.236s39.133-87.236,87.236-87.236
					c48.101,0,87.234,39.133,87.234,87.236S1868.244,3258.01,1820.144,3258.01z M1820.144,3116.951
					c-29.678,0-53.823,24.146-53.823,53.823s24.146,53.823,53.823,53.823c29.678,0,53.821-24.146,53.821-53.823
					S1849.821,3116.951,1820.144,3116.951z"/>
			</g>
			<g>
				<circle style="fill:#00046A;" cx="1820.143" cy="3170.774" r="26.982"/>
			</g>
		</g>
		<g>
			<path style="fill:#C1C5D1;" d="M992.056,1553.055c-44.819,109.781-111.308,318.698,113.599,482.844l-264.237,33.029
				c-414.016-138.61-424.516-1536.211,428.287-1050.361c-93.123,63.482-165.195,158.704-198.13,288.103
				C1071.575,1306.67,1050.287,1410.341,992.056,1553.055z"/>
		</g>
		<g style="opacity:0.6;">
			<path style="fill:#FFFFFF;" d="M1269.705,1018.567c-13.412,9.165-26.395,18.95-38.9,29.45
				c-496.208-254.118-681.498,156.7-656.583,543.557C526.969,1179.754,717.127,703.736,1269.705,1018.567z"/>
		</g>
		<g>
			<path style="fill:#F8ABBB;" d="M906.038,1978.336c-318.721-164.435-321.561-1180.052,258.134-861.926l-65.624,697.492
				l7.108,221.998"/>
		</g>
		<g>
			<path style="fill:#E16F89;" d="M1164.173,1116.415l-8.067,85.486c-342.753-173.262-472.677,133.646-449.193,434.206
				C643.766,1304.999,767.77,898.859,1164.173,1116.415z"/>
		</g>
		<g>
			<path style="fill:#C1C5D1;" d="M2083.284,1104.345c287.264-226.648,854.274-116.124,683.865,649.657
				c-79.88,342.951-395.764,491.152-653.361,338.583"/>
		</g>
		<g style="opacity:0.6;">
			<path style="fill:#FFFFFF;" d="M2790.213,1378.505c-89.352-368.672-475.446-393.682-696.295-219.466l28.973,938.815
				c-3.054-1.719-6.11-3.437-9.116-5.251l-30.5-988.263C2314.576,921.913,2727.113,957.95,2790.213,1378.505z"/>
		</g>
		<g>
			<path style="fill:#00046A;" d="M2326.831,2168.918c-75.938,0.002-152.102-20.823-221.558-61.958
				c-7.939-4.702-10.562-14.949-5.862-22.888c4.7-7.942,14.951-10.564,22.888-5.862c112.573,66.68,238.577,76.069,354.792,26.428
				c134.956-57.634,234.746-186.819,273.787-354.426c97.969-440.261-57.104-612.629-158.267-676.177
				c-143.213-89.961-353.066-71.699-498.982,43.425c-7.244,5.713-17.751,4.473-23.462-2.769c-5.715-7.244-4.475-17.747,2.769-23.462
				c74.265-58.594,167.817-96.091,263.42-105.583c100.769-10.003,195.52,10.776,274.028,60.095
				c108.616,68.232,275.53,251.445,173.069,711.887c-41.516,178.254-148.386,315.874-293.24,377.737
				C2437.683,2157.8,2382.314,2168.918,2326.831,2168.918z"/>
		</g>
		<g style="opacity:0.6;">
			<path style="fill:#FFFFFF;" d="M2171.316,1273.882c248.206-146.95,542.442-45.907,508.733,386.494
				c-33.018,296.798-305.875,518.646-486.461,390.407"/>
		</g>
		<g>
			<path style="fill:#F8ABBB;" d="M2161.849,1236.959c248.206-146.95,542.442-45.907,508.733,386.494
				c-33.018,296.798-305.875,518.646-486.461,390.407"/>
		</g>
		<g>
			<path style="fill:#E16F89;" d="M2663.679,1443.991c-80.14-204.144-292.255-233.499-478.5-123.241l20.285,706.366
				c-7.255-3.866-14.367-8.305-21.335-13.269l-22.291-776.864C2371.09,1113.074,2613.037,1165.435,2663.679,1443.991z"/>
		</g>
		<g>
			<path style="fill:#00046A;" d="M2300.197,2067.686c-45.269,0-88.086-13.459-125.75-40.205c-7.522-5.342-9.29-15.771-3.948-23.293
				c5.339-7.52,15.771-9.294,23.293-3.948c57.209,40.627,129.187,44.873,202.671,11.941
				c132.578-59.404,238.43-219.883,257.485-390.305c14.666-188.872-34.465-328.508-138.354-393.21
				c-93.665-58.34-222.729-49.866-345.237,22.671c-7.937,4.707-18.184,2.075-22.886-5.864c-4.7-7.939-2.075-18.186,5.864-22.886
				c133.45-79.006,275.474-87.329,379.922-22.283c115.046,71.653,169.731,222.39,153.979,424.448
				c-0.015,0.183-0.032,0.366-0.051,0.549c-20.215,181.704-134.146,353.333-277.061,417.371
				C2372.846,2059.375,2335.766,2067.686,2300.197,2067.686z"/>
		</g>
		<g>
			<path style="fill:#C1C5D1;" d="M1395.093,2167.587c-128.347-37.278-221.995-82.478-289.438-131.688
				c-224.907-164.146-158.418-373.063-113.599-482.844c58.231-142.714,79.519-246.385,79.519-246.385
				c32.935-129.398,105.007-224.621,198.13-288.103c290.155-197.987,784.597-87.585,935.091,259.703
				C2529.985,1954.088,2105.374,2314.933,1395.093,2167.587z"/>
		</g>
		<g style="opacity:0.2;">
			<g>
				<path style="fill:#00046A;" d="M1395.093,2167.587c-128.347-37.278-221.995-82.478-289.438-131.688
					c-59.998-43.817-99.28-90.784-123.719-138.228c14.033,13.174,29.641,26.156,47.015,38.805
					c67.443,49.211,161.091,94.411,289.439,131.689c710.28,147.344,1134.891-213.5,809.703-889.318
					c-9.213-21.288-19.714-41.669-31.407-61.143c44.677,45.965,81.715,99.614,108.109,160.566
					C2529.985,1954.088,2105.374,2314.933,1395.093,2167.587z"/>
			</g>
		</g>
		<g style="opacity:0.6;">
			<path style="fill:#FFFFFF;" d="M2282.692,1479.646c-15.656-44.676-34.939-90.975-57.992-138.897
				c-104.482-241.135-374.781-368.05-627.371-356.834c-57.325,50.595-138.419,63.912-233.642,55.129
				c-25.822,12.028-50.642,26.013-74.078,42.003c-93.123,63.482-165.196,158.704-198.13,288.102c0,0-21.288,103.671-79.519,246.386
				c-26.108,64.006-59.615,161.664-38.423,264.523c-54.89-124.672-12.84-250.156,18.52-327.003
				c58.231-142.714,79.519-246.385,79.519-246.385c32.935-129.398,105.007-224.621,198.13-288.103
				c290.155-197.987,784.597-87.585,935.091,259.703C2238.781,1348.912,2264.604,1416.116,2282.692,1479.646z"/>
		</g>
		<g>
			<path style="fill:#00046A;" d="M1693.601,2217.109c-93.504,0-194.702-10.938-301.907-33.179
				c-0.427-0.088-0.849-0.193-1.267-0.315c-223.059-64.792-366.799-161.011-427.229-285.986
				c-63.088-130.476-22.581-262.742,13.374-350.881c56.88-139.421,78.418-242.415,78.63-243.44c0.051-0.251,0.11-0.505,0.173-0.757
				c58.044-227.917,243.599-376.057,496.36-396.274c133.777-10.711,272.857,17.134,391.66,78.369
				c128.22,66.091,223.86,165.222,276.594,286.68c73.816,153.486,111.692,295.593,112.563,422.351
				c0.835,121.79-32.205,226.357-98.208,310.801C2125.185,2144.136,1935.095,2217.109,1693.601,2217.109z M1399.121,2151.348
				c183.589,38.022,354.626,42.256,494.643,12.246c136.582-29.27,245.251-91.406,314.258-179.692
				c126.836-162.275,120.344-410.3-18.281-698.384c-0.095-0.198-0.186-0.398-0.273-0.601
				c-97.705-225.42-358.843-367.422-635.068-345.334c-237.717,19.014-412.1,157.632-466.553,370.852
				c-1.709,8.196-23.413,109.399-80.337,248.936c-33.545,82.227-71.516,205.244-14.231,323.713
				C1049.355,1999.06,1185.898,2089.314,1399.121,2151.348z"/>
		</g>
		<g>
			<path style="fill:#C1C5D1;" d="M1723.385,1757.197c-117.394-204.443-440.937-204.137-516.201,75.856
				c-29.996,80.657-89.996,105.286-163.546,104.613c-136.802-4.26-246.068,103.286-200.705,261.769
				c-45.618,54.458,34.555,156.683,107.453,49.23c96.093,47.178,148.301-32.08,69.111-80.472c0,0,7.337-34.792,22.248-35.502
				c240.705,129.701,523.664,37.351,590.755-243.072"/>
		</g>
		<g style="opacity:0.2;">
			<g>
				<path style="fill:#00046A;" d="M1702.084,1824.296c0,0-113.134-96.045-182.718,55.762
					c-69.584,151.807-140.253,315.945-510.235,180.682c0,0-54.012,46.863,10.365,107.453l22.248-35.502
					c0,0,136.239,84.045,274.505,54.093c138.266-29.952,247.247-108.057,298.553-219.06
					C1614.802,1967.725,1631.079,1832.58,1702.084,1824.296z"/>
			</g>
		</g>
		<g style="opacity:0.6;">
			<path style="fill:#FFFFFF;" d="M1723.385,1757.199l-8.64,12.602c-131.879-169.396-422.512-153.598-493.344,109.875
				c-30.023,80.665-90.021,105.294-163.573,104.626c-112.836-3.484-206.913,69.018-210.97,183.428
				c-3.627,0.621-7.207,1.48-10.644,2.482c-24.868-142.284,79.233-236.506,207.438-232.544
				c73.552,0.668,133.55-23.961,163.525-104.625C1282.449,1553.055,1605.968,1552.769,1723.385,1757.199z"/>
		</g>
		<g>
			<path style="fill:#00046A;" d="M1717.653,1760.488c-90.557-135.876-295.398-180.73-417.105-61.163
				c-38.28,37.388-62.995,86.605-77.23,138.065c-13.938,39.236-40.291,76.148-78.16,95.524
				c-24.219,12.991-51.651,19.021-78.852,20.756c-12.436,1.043-25.642,0.402-38.113,0.766c-23.308,0.795-46.467,5.07-68.005,13.336
				c-42.915,15.94-79.487,48.556-97.127,90.941c-18.478,42.809-16.771,91.732-4.001,136.366c1.506,5.433,0.041,11.062-3.321,15.082
				c-8.276,9.75-11.133,22.996-8.333,35.977c5.694,26.801,32.325,42.704,57.063,26.074c12.875-7.773,23.255-20.286,32.09-32.926
				c4.778-6.935,13.851-9.166,21.189-5.618c13.662,6.581,28.008,11.378,41.89,12.485c23.693,2.475,50.28-9.728,39.08-35.511
				c-4.675-10.751-15.833-20.736-28.24-28.386c-11.292-6.871-7.394-20.056-3.864-29.955c4.535-13.517,12.107-29.559,27.04-34.908
				c5.169-1.473,11.309-2.473,16.013,0.59c53.076,28.475,111.294,47.408,170.908,53.447
				c146.798,14.351,272.663-45.594,350.28-171.351c13.718-22.328,26.196-45.753,36.917-69.696c5.27-12.079,12.846-30.6,17.934-42.82
				c1.615-3.639,5.872-5.283,9.51-3.671c2.947,1.305,4.583,4.351,4.246,7.39c-4.8,43.965-18.391,86.936-39.631,125.791
				c-115.552,201.977-372.038,237.539-566.01,130.321c0,0.001,8.718,1.981,8.718,1.981c0.941,0.12,2.251-0.324,2.91-0.813
				c-4.807,5.566-7.838,15.763-9.607,23.075c0,0-7.634-17.701-7.634-17.701c16.841,10.6,32.289,23.879,40.989,43.018
				c16.607,34.89-5.112,72.408-41.888,80.284c-28.84,7.025-59.196-1.426-84.286-13.578l21.187-5.618
				c-17.591,25.359-41.343,50.079-74.229,54.03c-35.961,4.675-68.617-24.72-75.217-58.819c-5.023-22.112,0.425-47.168,15.363-64.546
				c0,0-3.255,15.323-3.255,15.323c-23.539-78.387-10.341-168.125,52.348-225.135c40.016-37.007,94.043-56.279,147.867-57.853
				c34.818,0.223,71.164-0.596,102.397-17.636c19.707-10.32,35.662-26.118,47.114-45.306c6.072-9.485,10.591-20.151,14.927-30.872
				l-0.474,1.486c15.659-56.852,43.403-111.577,86.109-153.252c85.139-85.899,226.804-105.04,332.209-46.775
				c26.216,13.939,50.403,31.69,70.708,53.074c20.542,21.1,37.485,45.448,49.993,71.594c1.711,3.577,0.2,7.863-3.377,9.574
				C1723.447,1764.488,1719.604,1763.378,1717.653,1760.488L1717.653,1760.488z"/>
		</g>
		<g>
			<path style="fill:#00046A;" d="M1215.908,1775.079c96.035-51.627,206.527-16.022,257.692,79.146
				c4.038,7.404-5.921,14.579-11.63,8.344c-29.746-32.492-64.488-59.983-107.444-70.312c-40.448-10.173-84.373-3.902-122.547,12.114
				C1212.422,1813.734,1197.451,1786.405,1215.908,1775.079L1215.908,1775.079z"/>
		</g>
		<g>
			<path style="fill:#00046A;" d="M1166.984,1883.093c74.025,12.958,106.073,85.627,84.936,153.678
				c-1.916,7.494-13.195,6.717-14.094-0.896c-1.83-17.481-3.243-34.921-8.529-51.609c-0.276-1.335-0.966-3.388-1.547-4.603
				c-2.679-7.382-6.192-14.663-10.105-21.206c-12.563-20.102-32.688-34.058-54.753-41.848c-1.748-0.458-5.297-2.899-6.763-3.698
				C1140.931,1903.728,1149.656,1880.34,1166.984,1883.093L1166.984,1883.093z"/>
		</g>
		<g>
			<path style="fill:#00046A;" d="M979.023,1929.126c42.627,7.773,75.483,50.997,71.264,93.976
				c-0.239,3.984-3.662,7.021-7.646,6.783c-3.243-0.185-5.702-2.45-6.602-5.35c-5.657-15.822-13.274-29.612-25.955-40.223
				c-10.077-8.795-22.315-14.914-34.394-20.527c-3.287-1.341-5.899-3.014-8.525-4.809
				C952.318,1949.32,961.847,1925.935,979.023,1929.126L979.023,1929.126z"/>
		</g>
		<g>
			<path style="fill:#00046A;" d="M1596.035,1984.657c50.85,14.381,108.141,13.936,155.957-9.883
				c29.494-14.851,53.109-36.349,75.691-61.381c3.564-3.954,9.658-4.271,13.613-0.707c3.232,2.914,4.026,7.529,2.263,11.274
				c-10.413,22.05-25.71,42.231-44.587,58.971c-9.671,8.073-19.924,15.657-31.106,21.747
				c-44.305,24.839-97.531,30.943-146.865,21.446c-12.711-2.469-24.578-5.402-36.811-10.227
				C1564.159,2007.393,1575.417,1977.784,1596.035,1984.657L1596.035,1984.657z"/>
		</g>
		<g>
			<path style="fill:#00046A;" d="M1781.918,1885.461c47.018-2.169,101.507,36.618,90.861,87.919
				c-1.406,8.649-13.48,10.836-17.861,3.374c-6.597-11.799-11.27-23.603-20.357-33.531c-14.219-14.96-35.463-21.311-55.551-24.804
				C1759.566,1914.347,1762.229,1885.999,1781.918,1885.461L1781.918,1885.461z"/>
		</g>
		<g>
			<path style="fill:#00046A;" d="M841.438,2085.64c-1.758,0-3.547-0.281-5.308-0.869
				c-136.814-45.808-242.422-225.369-275.608-468.608c-17.873-131.001-11.284-265.684,18.552-379.233
				c33.606-127.9,95.078-225.042,177.776-280.925c91.147-61.587,255.542-103.257,521.111,48.035
				c8.018,4.568,10.813,14.771,6.248,22.786c-4.573,8.02-14.78,10.806-22.786,6.248
				c-198.398-113.027-366.404-130.115-485.867-49.385c-169.253,114.377-213.33,397.805-181.931,627.959
				c30.979,227.056,130.332,400.332,253.113,441.44c8.75,2.93,13.467,12.397,10.539,21.147
				C854.936,2081.221,848.422,2085.637,841.438,2085.64z"/>
		</g>
		<g>
			<path style="fill:#00046A;" d="M906.023,1995.044c-2.578,0-5.195-0.598-7.644-1.863
				c-143.95-74.265-215.786-298.367-223.123-487.515c-7.908-203.923,51.982-365.625,160.21-432.551
				c88.777-54.895,202.068-45.254,336.743,28.647c8.088,4.438,11.047,14.595,6.609,22.683c-4.438,8.086-14.592,11.042-22.683,6.609
				c-123.34-67.688-225.312-77.625-303.096-29.521c-96.392,59.607-151.721,213.965-144.397,402.839
				c8.232,212.28,92.554,401.074,205.054,459.116c8.201,4.231,11.418,14.307,7.188,22.505
				C917.917,1991.743,912.077,1995.044,906.023,1995.044z"/>
		</g>
		<g>
			<g>
				<path style="fill:#C1C5D1;" d="M1617.041,2455.332c0,0,109.658-60.872,183.502-180.633
					c183.766-9.497,319.577,48.305,370.773,224.847c-125.783,231.475-336.207,289.868-336.207,289.868"/>
			</g>
			<g style="opacity:0.2;">
				<g>
					<path style="fill:#00046A;" d="M1780.355,2667.874c171.243-66.197,307.384-175.061,381.493-359.328
						c0,0,68.087,127.178-41.049,269.856c-109.137,142.678-285.228,194.638-285.228,194.638"/>
				</g>
			</g>
			<g>
				<g>
					<path style="fill:#0096F0;" d="M1844.812,2814.816c0,0-109.398,97.466-227.771,163.621
						c-26.252,14.7-52.933,27.826-78.994,38.041L1369.033,2789.9l-168.967-226.435c0,0,136.366-186.769,291.825-63.911
						l112.93-53.982c44.533,34.318,83.815,77.467,118.85,127.869C1771.211,2641.744,1810.828,2723.412,1844.812,2814.816z"/>
				</g>
				<g>
					<path style="fill:#FDF2E4;" d="M1617.041,2978.436c-26.252,14.7-52.933,27.826-78.994,38.041l-337.98-453.012
						c0,0,136.366-186.769,291.825-63.911c0,0,12.171,97.991-100.426,187.438L1617.041,2978.436z"/>
				</g>
				<g style="opacity:0.2;">
					<g>
						<path style="fill:#00046A;" d="M1844.812,2814.816c0,0-109.398,97.466-227.771,163.621
							c-26.252,14.7-52.933,27.826-78.994,38.041L1369.033,2789.9c210.254,158.083,317.313,58.088,354.639-216.459
							C1771.211,2641.744,1810.828,2723.412,1844.812,2814.816z"/>
					</g>
				</g>
				<g>
					<path style="fill:#00046A;" d="M1538.068,3033.164c-5.159,0-10.171-2.395-13.393-6.716l-337.981-453.008
						c-4.385-5.874-4.426-13.921-0.105-19.841c2.9-3.97,72.136-97.402,171.455-110.974c47.151-6.431,92.798,6.157,135.845,37.458
						l103.713-49.573c5.689-2.71,12.415-2.004,17.405,1.843c99.46,76.677,179.748,199.875,245.454,376.633
						c2.397,6.45,0.593,13.713-4.543,18.291c-6.76,6.025-167.212,148.203-311.77,204.739
						C1542.165,3032.791,1540.105,3033.164,1538.068,3033.164z M1221.223,2563.85l322.51,432.268
						c117.554-49.631,247.197-157.063,281.343-186.311c-60.84-160.117-133.735-273.064-222.449-344.666l-103.511,49.478
						c-5.745,2.747-12.556,1.985-17.561-1.965c-38.035-30.044-78.01-42.493-118.823-36.946
						C1294.704,2484.924,1240.566,2541.167,1221.223,2563.85z"/>
				</g>
				<g>
					<path style="fill:#00046A;" d="M1602.69,2990.562c-5.129,0-10.19-2.354-13.464-6.802l-344.729-468.184
						c-5.471-7.429-3.882-17.886,3.547-23.357c7.429-5.466,17.888-3.882,23.357,3.547l344.729,468.184
						c5.471,7.429,3.882,17.886-3.547,23.357C1609.602,2989.502,1606.13,2990.562,1602.69,2990.562z"/>
				</g>
				<g>
					<path style="fill:#00046A;" d="M1391.479,2703.718c-4.92,0-9.79-2.163-13.088-6.313c-5.74-7.224-4.539-17.732,2.685-23.472
						c103.11-81.934,94.656-168.772,94.246-172.429c-1.025-9.131,5.51-17.424,14.636-18.501c9.114-1.067,17.402,5.371,18.533,14.49
						c0.542,4.382,11.919,108.398-106.628,202.598C1398.789,2702.532,1395.122,2703.718,1391.479,2703.718z"/>
				</g>
				<g>
					<path style="fill:#00046A;" d="M1749.626,2908.03c-6.228,0-12.204-3.496-15.076-9.487
						c-25.315-52.8-60.22-86.794-103.748-101.033c-73.281-23.972-148.423,15.515-149.175,15.916
						c-8.125,4.355-18.25,1.304-22.612-6.812c-4.363-8.118-1.343-18.228,6.768-22.603c3.55-1.919,88.047-46.663,175.102-18.357
						c52.673,17.129,94.324,56.98,123.792,118.445c3.989,8.32,0.479,18.296-7.842,22.285
						C1754.506,2907.502,1752.048,2908.03,1749.626,2908.03z"/>
				</g>
				<g>
					<path style="fill:#00046A;" d="M1558.52,2623.367c-17.8,0-35.12-8.311-46.333-23.601
						c-8.191-11.169-17.378-23.716-24.507-33.511c-16.453-22.605-16.453-22.605-15.063-29.932
						c1.721-9.063,10.483-15.007,19.529-13.298c4.905,0.933,8.899,3.918,11.26,7.9c1.27,1.86,7.417,10.481,35.725,49.084
						c7.07,9.634,19.912,12.656,30.545,7.207c26.943-13.835,77.021-41.365,109.673-70.32c6.897-6.118,17.456-5.493,23.584,1.416
						c6.121,6.904,5.486,17.461-1.416,23.584c-33.625,29.817-81.956,57.266-116.582,75.042
						C1576.481,2621.279,1567.441,2623.364,1558.52,2623.367z"/>
				</g>
				<g>
					<path style="fill:#00046A;" d="M1611.679,2590.112c-5.146,0-10.222-2.368-13.494-6.838l-68.63-93.74
						c-5.452-7.444-3.833-17.898,3.611-23.347c7.446-5.447,17.9-3.831,23.347,3.611l68.63,93.74
						c5.452,7.444,3.833,17.898-3.611,23.347C1618.559,2589.063,1615.102,2590.112,1611.679,2590.112z"/>
				</g>
				<g>
					
						<ellipse transform="matrix(0.7071 -0.7071 0.7071 0.7071 -1556.5671 1635.9918)" style="fill:#0096F0;" cx="1196.533" cy="2696.939" rx="82.365" ry="82.365"/>
				</g>
				<g>
					<path style="fill:#00046A;" d="M1196.533,2796.011c-54.629,0-99.072-44.443-99.072-99.072s44.443-99.072,99.072-99.072
						s99.072,44.443,99.072,99.072S1251.162,2796.011,1196.533,2796.011z M1196.533,2631.279c-36.206,0-65.659,29.453-65.659,65.659
						s29.453,65.659,65.659,65.659c36.206,0,65.659-29.453,65.659-65.659S1232.739,2631.279,1196.533,2631.279z"/>
				</g>
				<g>
					
						<ellipse transform="matrix(0.1602 -0.9871 0.9871 0.1602 -1657.2444 3446.0203)" style="fill:#00046A;" cx="1196.533" cy="2696.939" rx="30.354" ry="30.354"/>
				</g>
				<g>
					
						<ellipse transform="matrix(0.7071 -0.7071 0.7071 0.7071 -1703.3142 1858.2677)" style="fill:#0096F0;" cx="1391.47" cy="2985.216" rx="82.365" ry="82.365"/>
				</g>
				<g>
					<path style="fill:#00046A;" d="M1391.469,3084.287c-54.627,0-99.07-44.443-99.07-99.072c0-54.626,44.443-99.07,99.07-99.07
						c54.629,0,99.072,44.443,99.072,99.07C1490.542,3039.844,1446.098,3084.287,1391.469,3084.287z M1391.469,2919.558
						c-36.204,0-65.657,29.453-65.657,65.657c0,36.206,29.453,65.659,65.657,65.659c36.206,0,65.659-29.453,65.659-65.659
						C1457.129,2949.011,1427.675,2919.558,1391.469,2919.558z"/>
				</g>
				<g>
					
						<ellipse transform="matrix(0.2298 -0.9732 0.9732 0.2298 -1833.5823 3653.6023)" style="fill:#00046A;" cx="1391.47" cy="2985.216" rx="30.354" ry="30.354"/>
				</g>
			</g>
			<g>
				<path style="fill:#00046A;" d="M1608.933,2440.726c70.39-45.846,133.455-103.336,183.484-171.037
					c6.886-9.546,21.748-0.467,16.252,10.021c-30.936,59.101-75.308,110.939-127.351,152.578
					c-17.846,14.062-35.98,26.852-56.169,37.65C1605.832,2479.521,1590.607,2452.059,1608.933,2440.726L1608.933,2440.726z"/>
			</g>
			<g>
				<path style="fill:#00046A;" d="M1830.642,2773.317c121.141-43.553,225.477-128.44,300.803-232.154
					c11.334-14.807,20.677-30.927,31.485-46.173c2.814-4.726,9.11-6.223,13.664-3.051c3.987,2.738,5.239,7.969,3.11,12.167
					c-4.336,8.564-8.789,17.094-13.308,25.605c-13.292,25.711-29.195,50.097-46.628,73.268
					c-41.708,56.432-95.215,104.766-153.924,143.125c-39.592,24.513-81.281,46.526-126.27,59.408
					C1818.416,2810.57,1809.838,2779.951,1830.642,2773.317L1830.642,2773.317z"/>
			</g>
		</g>
		<g>
			<g>
				<g>
					<g>
						<path style="fill:#00046A;" d="M1844.434,1418.929c49.453-1.107,90.484,56.192,91.647,127.978
							c1.163,71.787-37.985,130.88-87.438,131.987c-49.452,1.107-90.485-56.19-91.647-127.978
							C1755.834,1479.129,1794.982,1420.036,1844.434,1418.929z"/>
					</g>
				</g>
			</g>
			<g>
				<g>
					<g>
						<path style="fill:#FFFFFF;" d="M1845.512,1449.047c15.114,7.767,19.919,32.551,10.732,55.357
							c-9.187,22.806-28.885,34.997-43.999,27.23c-15.113-7.766-19.919-32.55-10.732-55.356
							C1810.699,1453.472,1830.398,1441.279,1845.512,1449.047z"/>
					</g>
				</g>
			</g>
			<g>
				<g>
					<g>
						<path style="fill:#B199C5;" d="M1885.96,1606.39c6.966,6.065,6.805,19.506-0.359,30.021
							c-7.163,10.516-18.618,14.124-25.583,8.059c-6.966-6.064-6.805-19.506,0.359-30.02
							C1867.54,1603.934,1878.996,1600.327,1885.96,1606.39z"/>
					</g>
				</g>
			</g>
		</g>
		<g>
			<g>
				<g>
					<g>
						
							<ellipse transform="matrix(0.0675 -0.9977 0.9977 0.0675 -386.512 2641.614)" style="fill:#00046A;" cx="1219.909" cy="1527.576" rx="118.772" ry="81.825"/>
					</g>
				</g>
			</g>
			<g>
				<g>
					<g>
						<path style="fill:#FFFFFF;" d="M1226.038,1436.539c-14.19,6.298-19.862,28.655-12.668,49.935
							c7.193,21.28,24.527,33.424,38.717,27.125c14.189-6.298,19.861-28.655,12.667-49.934
							C1257.562,1442.386,1240.228,1430.241,1226.038,1436.539z"/>
					</g>
				</g>
			</g>
			<g>
				<g>
					<g>
						<path style="fill:#B199C5;" d="M1180.962,1577.955c-6.669,5.17-7.221,17.438-1.234,27.402
							c5.987,9.965,16.248,13.851,22.916,8.681c6.669-5.169,7.221-17.438,1.233-27.401
							C1197.891,1576.673,1187.63,1572.786,1180.962,1577.955z"/>
					</g>
				</g>
			</g>
		</g>
	</g>
</g>
</svg>
