<?xml version="1.0" encoding="utf-8"?>
<!-- Generator: Adobe Illustrator 27.5.0, SVG Export Plug-In . SVG Version: 6.00 Build 0)  -->
<svg version="1.1" id="Layer_1" xmlns="http://www.w3.org/2000/svg" xmlns:xlink="http://www.w3.org/1999/xlink" x="0px" y="0px"
	 viewBox="0 0 4000 4000" style="enable-background:new 0 0 4000 4000;" xml:space="preserve">
<g>
	<g>
		<g>
			<rect style="fill:#FFD4F4;" width="4000" height="4000"/>
		</g>
	</g>
	<g>
		<g>
			<g>
				<g>
					<g>
						<path style="fill:#FF6494;" d="M1576.728,3381.716l-251.442-570.772l-22.517-51.1c-46.191-3.621-98.111,4.476-154.501,21.809
							c-12.784,3.949-26.583,3.766-39.002-1.113c-163.177-63.915-267.542-233.626-341.103-302.419
							c-7.26-6.82-19.097-1.208-18.558,8.736c3.745,70.042,10.699,135.687,20.455,197.031
							C874.563,3344.156,1301.443,3511.854,1576.728,3381.716z"/>
					</g>
				</g>
				<g>
					<g>
						<path style="fill:#E84688;" d="M1576.728,3381.716l-251.442-570.772c-8.953-16.75-17.793-33.57-26.523-50.458l-12.092,7.258
							c-37.562,84.814-41.794,180.345-40.289,273.112c0.527,33.216,0.084,70.689-23.905,93.687
							c-12.102,11.589-28.536,17.51-44.896,21.015c-80.936,17.192-166.144-20.406-224.506-79.06
							c-58.372-58.695-94.084-135.832-123.742-213.107c-22.581-58.842-42.374-118.767-59.273-179.502
							C874.563,3344.156,1301.443,3511.854,1576.728,3381.716z"/>
					</g>
				</g>
				<g>
					<g>
						<path style="fill:#000072;" d="M1393.436,3433.166c-86.501,0-174.834-24.253-255.015-72.065
							c-136.111-81.172-369.041-302.612-399.756-873.662c-0.488-9.043,4.504-17.358,12.717-21.182
							c8.169-3.818,17.685-2.3,24.258,3.858c20.327,19.013,42.322,44.824,67.79,74.702
							c68.308,80.142,153.32,179.878,269.814,225.522c9.8,3.848,21.094,4.146,31.799,0.859
							c59.67-18.359,113.03-25.864,158.581-22.275c4.023,0.313,7.544,2.813,9.172,6.504l273.98,621.875
							c2.392,5.434,0.024,11.787-5.347,14.326C1522.652,3419.416,1458.56,3433.166,1393.436,3433.166z M760.662,2486.115
							c30.056,561.05,256.619,777.222,388.984,856.157c130.945,78.091,284.392,90.532,412.715,33.969l-266.941-605.898
							c-41.382-2.158-89.771,5.142-143.936,21.802c-15.422,4.741-31.843,4.243-46.238-1.396
							c-121.611-47.651-212.288-154.033-278.496-231.714C801.714,2529.66,780.088,2504.289,760.662,2486.115z"/>
					</g>
				</g>
				<g>
					<g>
						
							<ellipse transform="matrix(0.8921 -0.4519 0.4519 0.8921 -1206.8158 814.6942)" style="fill:#D6497C;" cx="1102.219" cy="2933.911" rx="58.185" ry="49.397"/>
					</g>
				</g>
				<g>
					<g>
						
							<ellipse transform="matrix(0.8921 -0.4519 0.4519 0.8921 -1256.1613 850.3234)" style="fill:#D6497C;" cx="1152.128" cy="3055.019" rx="38.7" ry="32.855"/>
					</g>
				</g>
				<g>
					<g>
						
							<ellipse transform="matrix(0.8921 -0.4519 0.4519 0.8921 -1184.4774 716.7374)" style="fill:#D6497C;" cx="908.272" cy="2838.107" rx="30.547" ry="25.933"/>
					</g>
				</g>
			</g>
			<g>
				<g>
					<path style="fill:#FF6494;" d="M2424.944,2388.98l-65.752,311.225l-44.886,80.086l-86.573,154.517l-33.972,60.623
						l-73.423,131.021l-17.183,30.684l-61.982,110.638l-80.086,142.9c-1.271,0.438-2.542,0.877-3.814,1.315
						c-249.024,85.696-464.295,53.522-597.508-111.252c-39.407-102.879-64.349-205.189-74.519-306.841
						c-14.071-134.703,8.022-255.073,53.916-362.16c75.834-176.96,216.718-317.625,366.895-426.86l473.412,83.285L2424.944,2388.98z
						"/>
				</g>
			</g>
			<g>
				<g>
					<path style="fill:#E84688;" d="M2666.472,2829.955c-35.024,49.226-95.471,73.467-154.473,86.398
						c-87.318,19.111-177.53,18.892-266.908,18.586c-5.786-0.044-11.572-0.044-17.358-0.132
						c-40.152-0.483-80.875-3.112-116.775-20.471c-0.351-0.175-0.657-0.307-1.008-0.482c-23.802-11.704-44.229-29.281-67.461-42.169
						c-1.49-0.833-3.025-1.666-4.559-2.41c-8.373-4.427-17.096-8.154-26.038-11.178c-122.868-46.903-247.972-12.668-336.517,91.965
						l166.571,390.127c34.717-6.531,67.111,30.816,115.328,71.801c-249.024,85.696-464.295,53.522-597.508-111.252
						c-39.407-102.879-64.349-205.189-74.519-306.841c-14.071-134.703,8.022-255.073,53.916-362.16
						c0.921-1.578,1.885-3.113,2.849-4.646c-4.708,12.922-44.126,127.026,24.328,228.728
						c4.294,6.379,78.115,112.559,188.488,105.203c67.523-4.5,113.83-49.169,144.654-78.902
						c63.135-60.902,104.387-149.377,112.085-166.264c22.726-49.853,32.371-90.248,68.031-102.003
						c19.813-6.531,40.766-2.718,60.798,4.427l-41.468,68.776c148.643,164.072,327.487,237.934,543.284,201.419
						c64.261-10.871,121.553-47.955,157.19-102.528c40.459-61.895,53.61-116.118,47.166-161.135l18.586,2.06
						C2702.855,2687.931,2708.071,2771.523,2666.472,2829.955z"/>
				</g>
			</g>
			<g>
				<g>
					<path style="fill:#000075;" d="M1285.248,2993.895c-28.795-156.477,8.262-320.627,89.025-456.906
						c80.184-137.183,197.33-248.747,326.617-339.193c1.995-1.478,4.418-1.973,6.689-1.554c1.8,1.059,473.665,82.55,475.219,83.811
						c0.004,0,245.477,100.818,245.477,100.818c3.978,1.635,6.108,5.861,5.247,9.922l-65.751,311.224
						c2.22,2.414-399.789,710.615-399.025,712.962c-1.072,1.935-2.81,3.345-4.77,3.991
						c-153.298,58.827-336.427,79.034-484.893-4.121c-48.482-27.154-91.002-66.352-119.315-114.111
						c77.568,74.052,173.3,129.993,281.276,140.984c107.12,12.782,214.691-7.445,317.127-39.295c0.172-0.09-4.762,3.992-4.725,3.98
						c-1.844,0.625,403.181-718.592,397.17-708.022c0.001,0.008,65.752-311.217,65.752-311.217l5.247,9.921l-245.472-100.819
						c10.224,1.293-474.295-82.642-471.598-82.761c-0.003,0.001,6.671-1.543,6.671-1.543
						c-61.939,47.027-121.138,97.761-175.079,153.716C1364.048,2542.724,1276.264,2745.137,1285.248,2993.895L1285.248,2993.895z"/>
				</g>
			</g>
			<g>
				<g>
					<path style="fill:#F7EBD1;" d="M2144.296,3300.747c2.614,3.223,5.263,6.419,7.948,9.588
						c239.143,282.281,678.389,265.106,904.84-27.455c270.554-349.538,292.639-718.735,89.333-943.054
						c-42.903-47.337-97.578-82.524-159.103-99.736c-332.76-93.093-767.53,181.272-918.603,604.336
						C2013.391,2999.344,2040.68,3172.982,2144.296,3300.747z"/>
				</g>
			</g>
			<g>
				<g>
					<path style="fill:#E8D3AA;" d="M2068.717,2844.413c-55.343,154.923-28.043,328.551,75.58,456.339
						c2.626,3.208,5.253,6.416,7.938,9.567c170.657,201.44,443.184,250.352,667.627,155.547
						c-44.568,4.909-132.428,7.986-227.475-35.444c-41.743-19.073-121.793-55.652-169.634-145.027
						c-33.142-61.916-35.987-121.448-35.068-153.421c-22.094,114.12-40.888,206.538-43.834,206.022
						c-0.968-0.169,0.7-10.204-4.383-13.15c-6.568-3.807-15.718,9.257-26.301,8.767c-14.324-0.664-23.854-25.819-31.779-47.388
						c-10.576-28.785-30.036-79.708-6.914-99.22c2.538-2.142,5.275-4.022,8.154-5.524c33.558,17.104,67.116,34.209,100.674,51.313
						c-3.471-41.902-3.389-108.543,21.917-184.105c41.615-124.26,125.761-195.961,162.188-223.556
						c-7.856-22.579-71.665-216.713,48.218-398.894c108.93-165.535,286.099-194.434,313.793-198.473
						C2442.402,2331.247,2150.478,2615.54,2068.717,2844.413z"/>
				</g>
			</g>
			<g>
				<g>
					<path style="fill:#000072;" d="M2589.854,3523.454c-172.725,0-334.639-74.624-445.972-206.035
						c-2.734-3.228-5.435-6.485-8.098-9.766l0,0c-104.546-128.916-134.202-307.827-77.393-466.914
						c72.212-202.227,216.375-384.917,395.52-501.231c177.869-115.488,373.362-155.591,536.355-109.971
						c62.212,17.402,119.016,52.993,164.27,102.93c103.232,113.901,150.203,263.579,135.83,432.852
						c-14.604,172.002-92.275,353.291-224.617,524.268c-111.855,144.512-280.481,229.702-462.634,233.721
						C2598.692,3523.405,2594.266,3523.454,2589.854,3523.454z M2152.806,3293.844c2.566,3.159,5.164,6.294,7.798,9.404
						c109.883,129.707,271.062,201.948,442.029,198.149c175.513-3.877,337.996-85.967,445.784-225.229
						c260.757-336.875,296.035-701.524,89.88-928.985c-42.476-46.865-95.706-80.249-153.933-96.543
						c-156.929-43.892-345.918-4.81-518.516,107.246c-175.198,113.75-316.187,292.432-386.816,490.225
						C2024.783,3000.031,2053.062,3170.832,2152.806,3293.844L2152.806,3293.844z"/>
				</g>
			</g>
			<g>
				<g>
					
						<ellipse transform="matrix(0.5892 -0.808 0.808 0.5892 -794.583 3602.5764)" style="fill:#FC3C53;" cx="3145.83" cy="2582.758" rx="40.889" ry="36.8"/>
				</g>
			</g>
			<g>
				<g>
					
						<ellipse transform="matrix(0.5892 -0.808 0.808 0.5892 -1133.7543 3726.6792)" style="fill:#FC3C53;" cx="3098.319" cy="2978.389" rx="52.321" ry="47.089"/>
				</g>
			</g>
			<g>
				<g>
					
						<ellipse transform="matrix(0.5892 -0.808 0.808 0.5892 -1213.5352 3128.675)" style="fill:#FC3C53;" cx="2470.291" cy="2757.852" rx="57.106" ry="51.395"/>
				</g>
			</g>
			<g>
				<g>
					
						<ellipse transform="matrix(0.5893 -0.8079 0.8079 0.5893 -1077.9214 3526.4546)" style="fill:#FC3C53;" cx="2929.345" cy="2823.375" rx="31.399" ry="28.259"/>
				</g>
			</g>
			<g>
				<g>
					
						<ellipse transform="matrix(0.5893 -0.8079 0.8079 0.5893 -1050.2106 3015.571)" style="fill:#FC3C53;" cx="2440.757" cy="2540.684" rx="24.857" ry="22.372"/>
				</g>
			</g>
			<g>
				<g>
					
						<ellipse transform="matrix(0.5893 -0.8079 0.8079 0.5893 -1439.2864 3322.3242)" style="fill:#FC3C53;" cx="2547.916" cy="3076.723" rx="24.857" ry="22.372"/>
				</g>
			</g>
			<g>
				<g>
					
						<ellipse transform="matrix(0.6794 -0.7338 0.7338 0.6794 -1371.5806 3078.1526)" style="fill:#FC3C53;" cx="2836.726" cy="3108.659" rx="31.073" ry="27.965"/>
				</g>
			</g>
			<g>
				<g>
					<path style="fill:#FC3C53;" d="M2755.835,3254.915c-5.608,6.057-5.735,15.059-0.284,20.106
						c5.451,5.047,14.417,4.229,20.025-1.828c5.608-6.057,5.735-15.059,0.284-20.106
						C2770.409,3248.04,2761.443,3248.858,2755.835,3254.915z"/>
				</g>
			</g>
			<g>
				<g>
					<path style="fill:#D1284C;" d="M2281.388,3286.225c28.649,33.638,72.031,43.75,96.888,22.555
						c2.188-1.856,4.147-3.889,5.904-6.068c-18.214-16.788-35.72-34.897-52.375-54.3c-2.742-3.209-5.484-6.419-8.168-9.685
						c-15.133-18.316-28.812-37.427-41.009-57.246c-2.878,1.502-5.615,3.382-8.154,5.524
						C2249.646,3208.171,2252.709,3252.615,2281.388,3286.225z"/>
				</g>
			</g>
			<g>
				<g>
					<path style="fill:#FC3C53;" d="M2282.628,3181.48c12.197,19.819,25.876,38.93,41.009,57.246
						c2.684,3.267,5.426,6.476,8.168,9.685c16.654,19.402,34.16,37.512,52.375,54.3c18.194-22.797,13.318-62.489-12.818-93.152
						C2345.626,3179.364,2308.039,3168.099,2282.628,3181.48z"/>
				</g>
			</g>
			<g>
				<g>
					<g>
						<path style="fill:#000072;" d="M3161.917,3116.11c-6.201-0.968-12.107,0.512-18.113,2.019
							c-6.029,1.512-13.108,2.366-18.642,5.316c-4.901,2.613-7.484,7.161-10.087,11.846c-3.588,6.457-7.782,12.38-12.735,17.866
							c2.198-0.283,4.395-0.567,6.593-0.851c-10.087-4.964-20.654,0.622-29.807,5.465c-10.283,5.441-23.374,12.338-35.258,10.481
							c-2.631-0.411-6.007,1.72-4.833,4.833c4.484,11.894,20.651,4.883,28.91,1.509c5.964-2.436,11.703-5.253,17.319-8.407
							c5.749-3.229,11.464-7.735,18.177-4.485c2.088,1.011,4.916,1.031,6.593-0.851c3.843-4.313,7.417-8.866,10.536-13.732
							c2.832-4.418,5.11-11.948,9.964-14.482c10.344-5.399,23.129-4.49,32.545-12.122
							C3164.542,3119.329,3163.799,3116.404,3161.917,3116.11L3161.917,3116.11z"/>
					</g>
				</g>
			</g>
			<g>
				<g>
					<g>
						<path style="fill:#000072;" d="M3077.257,3162.402c-0.144-0.119-0.288-0.237-0.432-0.356c-1.089-0.898-2.739-1.392-4.031-0.52
							c-3.653,2.467-4.432,6.864-5.855,10.759c-1.41,3.859-2.892,7.245-5.353,10.779c-2.02,2.899-5.049,6.057-8.069,8.553
							c-1.148,0.949-2.905,2.184-4.487,3.235c-2.283,1.517-4.715,2.569-5.714,5.309c0.345-0.592,0.689-1.183,1.034-1.774
							c-0.629,0.708-1.382,1.177-2.094,1.784c-0.724,0.617-1.29,1.425-1.927,2.135c-0.71,0.792-0.413,1.994,0.613,2.323
							c1.212,0.388,2.34,0.744,3.62,0.732c0.528-0.005,1.058-0.09,1.588-0.092c0.737-0.002,1.64,0.224,2.738-0.001
							c2.494-0.513,5.116-1.921,7.269-3.276c4.745-2.986,8.762-6.962,12.108-11.427c3.191-4.257,5.637-9.082,7.231-14.158
							c0.79-2.515,0.837-5.108,1.151-7.702c0.073-0.608,0.206-1.589,0.471-2.266
							C3077.553,3165.327,3078.481,3163.411,3077.257,3162.402L3077.257,3162.402z"/>
					</g>
				</g>
			</g>
			<g>
				<g>
					<g>
						<path style="fill:#000072;" d="M2868.827,2220.651c-3.284,4.907-3.196,12.105-4.044,17.808
							c-0.788,5.297-2.982,11.959-1.885,17.29c1.016,4.937,5.352,7.019,9.74,8.358c6.273,1.914,12.662,2.98,19.174,3.657
							c-1.272-3.072-2.545-6.144-3.817-9.215c-4.592,4.076-8.7,8.622-12.23,13.651c-4.003,5.704-4.663,10.567-1.945,16.989
							c2.793,6.596,5.495,13.297,8.657,19.725c2.985,6.067,6.483,13.226,11.706,17.674c1.236,1.053,3.116,0.362,3.19-1.321
							c0.245-5.567-1.863-10.632-3.461-15.862c-1.687-5.521-3.993-10.749-6.319-16.034c-2.136-4.854-6.189-10.042-2.883-14.961
							c3.066-4.562,6.844-8.558,10.919-12.226c3.798-3.418,0.472-8.799-3.817-9.215c-4.586-0.446-9.15-1.151-13.659-2.103
							c-1.319-0.279-4.582-0.487-5.354-1.636c-0.74-1.102,0.281-4.517,0.432-5.774c0.542-4.507,1.083-9.014,1.625-13.521
							c0.502-4.177,1.465-8.403,0.101-12.481C2874.019,2218.645,2870.457,2218.215,2868.827,2220.651L2868.827,2220.651z"/>
					</g>
				</g>
			</g>
			<g>
				<g>
					<g>
						<path style="fill:#000072;" d="M2873.919,2280.182c-6.376,4.589-11.889,10.261-17.473,15.765
							c-2.643,2.606-5.451,5.167-7.778,8.067c-0.755,0.941-1.593,1.876-2.139,2.949c-0.43,0.844-0.811,1.537-1.324,2.356
							c-0.881,1.406-1.872,3.381-1.871,5.075c0,0.895,0.747,1.61,1.629,1.629c1.612,0.034,3.513-0.855,4.885-1.647
							c1.784-1.03,3.514-1.898,5.154-3.163c3.118-2.404,5.903-5.248,8.721-7.989c5.622-5.469,11.372-10.863,16.096-17.141
							C2882.387,2282.671,2877.328,2277.729,2873.919,2280.182L2873.919,2280.182z"/>
					</g>
				</g>
			</g>
			<g>
				<g>
					<g>
						<path style="fill:#000072;" d="M2755.3,3410.368c-0.292-0.148-0.583-0.297-0.875-0.445c0.352,0.458,0.705,0.917,1.057,1.375
							c-1.545-4.251-8.323-3.867-12.06-4.173c-5.294-0.433-10.562-0.757-15.873-0.839c-5.099-0.08-10.238-0.216-15.335,0.001
							c-5.261,0.224-9.948,0.455-14.463,3.348c-0.945,0.605-1.041,2.065,0,2.648c2.095,1.175,3.92,1.929,6.289,2.34
							c2.504,0.434,5.09,0.4,7.627,0.478c5.108,0.158,10.224,0.096,15.335,0.218c5.111,0.122,10.215,0.178,15.327,0.243
							c3.542,0.045,10.957,1.343,12.923-2.492c-0.458,0.353-0.916,0.705-1.375,1.057c0.326-0.115,0.652-0.229,0.979-0.343
							C2756.26,3413.29,2756.833,3411.147,2755.3,3410.368L2755.3,3410.368z"/>
					</g>
				</g>
			</g>
			<g>
				<g>
					<g>
						<path style="fill:#000072;" d="M2712.438,3386.382c-3.603,0.497-7.235,0.505-10.858,0.719
							c-1.848,0.109-3.696,0.051-5.543,0.129c-1.057,0.045-1.8,0.392-2.658,0.498c-1.29,0.158-2.374,0.332-3.297,1.348
							c0.318-0.185,0.635-0.37,0.953-0.556c-0.778,0.265-1.471,0.448-2.106,0.992c-0.39,0.334-0.525,1.141-0.202,1.568
							c0.502,0.664,1.07,0.986,1.792,1.39c-0.258-0.258-0.517-0.517-0.775-0.775c0.7,1.096,1.619,1.598,2.835,1.943
							c1.218,0.346,2.14,0.744,3.458,0.838c1.909,0.136,3.855,0.061,5.764-0.033c4.133-0.204,8.239-1.236,12.19-2.424
							c1.511-0.454,2.467-2.048,2.042-3.595C2715.57,3386.737,2714.008,3386.165,2712.438,3386.382L2712.438,3386.382z"/>
					</g>
				</g>
			</g>
			<g>
				<g>
					<path style="fill:#FFFFFF;" d="M2259.592,3060.499c17.477,3.452,33.301,3.828,47.471,1.13c6.818-1.298,12.3-6.472,13.841-13.24
						c7.629-33.507,4.732-62.307-9.895-85.86c-3.946-6.354-12.186-8.524-18.748-4.934c-27.882,15.255-44.266,41.918-49.18,79.961
						C2241.694,3048.29,2248.974,3058.402,2259.592,3060.499z"/>
				</g>
			</g>
			<g>
				<g>
					<path style="fill:#000075;" d="M2287.474,3074.352c-9.512,0-19.539-1.035-30.005-3.1c0,0,0,0-0.002,0
						c-16.287-3.223-27.38-18.638-25.254-35.103c5.366-41.543,23.799-71.211,54.788-88.169c11.665-6.377,26.301-2.529,33.318,8.77
						c15.874,25.557,19.666,57.207,11.272,94.073c-2.5,10.976-11.321,19.443-22.476,21.572
						C2302.256,3073.698,2295.027,3074.352,2287.474,3074.352z M2261.719,3049.748c16.006,3.159,30.571,3.535,43.293,1.113
						c2.598-0.493,4.641-2.417,5.205-4.902c7.168-31.479,4.382-56.875-8.518-77.646c-0.879-1.421-2.715-1.899-4.18-1.104
						c-24.839,13.594-39.092,37.061-43.569,71.748C2253.306,3043.937,2256.792,3048.776,2261.719,3049.748L2261.719,3049.748z"/>
				</g>
			</g>
			<g>
				<g>
					<path style="fill:#FFFFFF;" d="M2468.493,2489.92c23.74,23.529,48.282,37.499,73.703,40.996
						c24.104,3.316,44.272-19.65,35.996-42.53c-2.592-7.166-6.719-14.053-12.421-20.653c-4.664-5.398-11.864-7.922-18.884-6.654
						C2517.746,2466.344,2491.324,2475.536,2468.493,2489.92z"/>
				</g>
			</g>
			<g>
				<g>
					<path style="fill:#000075;" d="M2546.917,2542.199c-2.058,0-4.131-0.142-6.216-0.43c-27.322-3.755-54.211-18.584-79.924-44.067
						c-2.373-2.354-3.542-5.659-3.179-8.979c0.366-3.321,2.224-6.294,5.051-8.076c23.188-14.609,50.105-24.536,82.29-30.352
						c10.796-1.924,21.958,1.982,29.121,10.269c6.528,7.559,11.384,15.664,14.436,24.092c5.054,13.975,2.427,29.287-7.026,40.977
						C2572.879,2536.247,2560.284,2542.199,2546.917,2542.199z M2486.912,2491.999c18.811,16.035,37.861,25.459,56.777,28.062
						c7.922,1.054,15.693-1.978,20.74-8.218c4.653-5.747,5.913-12.939,3.457-19.731c-2.136-5.898-5.64-11.694-10.41-17.217
						c-2.117-2.451-5.427-3.604-8.638-3.032C2525.201,2476.135,2504.8,2482.756,2486.912,2491.999z"/>
				</g>
			</g>
			<g>
				<g>
					<path style="fill:#E84688;" d="M2599.406,2785.945c-35.637,54.573-92.929,91.657-157.19,102.528
						c-215.797,36.515-394.642-37.347-543.284-201.419l41.468-68.776c8.372,2.98,16.569,6.531,24.459,10.125
						c88.195,40.196,172.094,89.905,262.525,124.666c28.186,10.871,57.336,20.207,86.924,27.221
						c65.313,15.518,132.862,19.726,197.606,3.594c37.084-9.249,73.51-25.731,99.197-54.048
						c25.643-28.361,38.618-70.004,25.994-106.079l9.468,1.052C2653.015,2669.828,2639.865,2724.05,2599.406,2785.945z"/>
				</g>
			</g>
			<g>
				<g>
					<path style="fill:#FF6494;" d="M2637.103,2623.758c12.625,36.075-0.351,77.718-25.994,106.079
						c-25.687,28.317-62.114,44.799-99.197,54.048c-64.744,16.131-132.293,11.923-197.606-3.594
						c-29.588-7.014-58.738-16.35-86.924-27.221c-90.43-34.761-174.33-84.469-262.525-124.666
						c-7.89-3.594-16.087-7.145-24.459-10.125l125.103-207.381c152.15,41.555,306.578,71.319,463.155,89.861
						c15.079,1.797,29.588,6.795,42.52,14.772c40.678,25.161,68.776,62.157,75.396,109.28L2637.103,2623.758z"/>
				</g>
			</g>
			<g>
				<g>
					<path style="fill:#000075;" d="M2068.387,2400.326c150.671,41.106,304.436,70.816,459.523,89.294
						c13.628,1.453,27.679,5.329,40.03,11.587c40.134,21.438,72.614,57.506,85.185,101.561
						c16.991,61.048-5.699,125.971-37.561,177.684c-17.291,30.416-42.213,57.41-71.191,77.632
						c-43.279,31.561-96.21,43.323-148.683,47.587c-4.719,0.444-28.02,2.148-32.235,2.526c-4.185,0.127-15.117,0.18-19.421,0.289
						c-4.142,0.013-15.381,0.253-19.424,0.277c-4.526-0.043-27.425-1.528-32.368-1.66c-3.189-0.115-9.744-0.648-12.913-1.138
						c-12.385-1.809-26.37-2.564-38.556-5.281c-24.536-4.484-51.953-10.85-75.433-19.036l-24.519-8.508
						c-13.415-5.865-34.448-14.323-47.169-21.485c-76.376-38.635-145.367-94.372-194.723-164.602
						c26.532,21.634,51.405,44.271,78.167,64.562c32.433,25.985,67.359,49.811,103.697,69.789
						c32.55,17.512,68.052,31.748,103.33,42.875c11.829,2.85,24.313,6.789,36.11,9.313c19.154,4.025,42.082,7.719,61.376,9.743
						c7.928,1.223,28.914,1.994,37.244,2.558c3.119,0.275,9.324,0.397,12.448,0.281c11.485-0.376,25.979,0.227,37.383-0.763
						c24.111-1.456,50.69-4.399,74.347-8.349c31.78-5.731,62.305-18.405,88.77-36.931c26.509-18.618,48.806-42.527,65.035-71.063
						c33.031-53.861,56.13-122.493,26.669-182.152c-4.968-11.354-13.344-22.113-21.216-31.657
						c-2.92-3.085-7.531-7.411-10.474-10.501c-4.514-3.88-9.121-7.692-13.83-11.349c-15.928-11.845-32.784-20.298-52.667-22.025
						c0-0.001-12.654-1.557-12.654-1.557c-151.869-18.623-302.412-48.108-450.049-88.358
						C2049.088,2417.591,2053.982,2396.866,2068.387,2400.326L2068.387,2400.326z"/>
				</g>
			</g>
			<g>
				<g>
					<g>
						<g>
							<path style="fill:#FFB774;" d="M1714.962,704.029c-3.381-51.948,0.688-98.376,18.654-134.51
								c11.511-23.15,37.948-34.82,62.652-27.195c49.651,15.326,95.212,51.086,137.731,102.044L1714.962,704.029z"/>
						</g>
					</g>
					<g>
						<g>
							<path style="fill:#000075;" d="M1714.962,714.989c-2.258,0-4.49-0.701-6.367-2.041c-2.678-1.912-4.356-4.924-4.568-8.206
								c-3.887-59.695,2.583-105.523,19.778-140.103c14.026-28.21,45.85-42.004,75.696-32.788
								c49.749,15.359,96.497,49.866,142.913,105.496c2.393,2.866,3.159,6.75,2.041,10.31c-1.121,3.56-3.975,6.304-7.573,7.285
								l-219.038,59.661C1716.893,714.862,1715.926,714.989,1714.962,714.989z M1780.831,550.944
								c-15.474,0-30.093,8.757-37.402,23.455c-14.16,28.479-20.154,66.353-18.235,115.486l189.158-51.521
								c-39.849-44.656-79.656-72.708-121.316-85.569C1788.987,551.544,1784.878,550.944,1780.831,550.944z"/>
						</g>
					</g>
				</g>
				<g>
					<g>
						<g>
							<path style="fill:#E89C5D;" d="M2425.408,775.454c39.905-33.43,79.762-57.589,119.528-64.452
								c25.477-4.397,50.516,10.031,58.966,34.465c16.983,49.109,15.064,106.996-0.911,171.411L2425.408,775.454z"/>
						</g>
					</g>
					<g>
						<g>
							<path style="fill:#000075;" d="M2602.991,927.834c-2.446,0-4.858-0.815-6.826-2.383l-177.583-141.426
								c-2.573-2.048-4.092-5.147-4.131-8.435c-0.042-3.291,1.399-6.423,3.918-8.538c45.857-38.416,86.646-60.281,124.702-66.848
								c31.057-5.369,60.981,12.173,71.187,41.682c17.014,49.202,16.809,107.305-0.63,177.627c-0.898,3.623-3.579,6.538-7.112,7.739
								C2605.367,927.643,2604.175,927.834,2602.991,927.834z M2442.867,775.346l153.357,122.131
								c12.468-58.535,11.57-107.224-2.678-148.428c-6.677-19.311-26.323-30.752-46.748-27.248
								C2515.457,727.211,2481.365,744.76,2442.867,775.346z"/>
						</g>
					</g>
				</g>
				<g>
					<g>
						<g>
							<path style="fill:#E89C5D;" d="M2700.099,1183.504c47.614-21.046,92.608-33.197,132.717-28.757
								c25.697,2.844,45.75,23.653,47.088,49.473c2.69,51.893-15.215,106.975-48.435,164.428L2700.099,1183.504z"/>
						</g>
					</g>
					<g>
						<g>
							<path style="fill:#000075;" d="M2831.47,1379.606c-3.542,0-6.877-1.709-8.938-4.614l-131.372-185.146
								c-1.904-2.686-2.5-6.079-1.628-9.253c0.874-3.174,3.127-5.781,6.135-7.114c54.714-24.185,99.954-33.867,138.354-29.624
								c31.309,3.462,55.21,28.613,56.829,59.8c2.693,51.992-13.628,107.759-49.893,170.479c-1.868,3.232-5.251,5.288-8.979,5.464
								C2831.81,1379.606,2831.639,1379.606,2831.47,1379.606z M2716.9,1188.244l113.45,159.888
								c28.22-52.778,40.867-99.805,38.611-143.345c-1.06-20.405-16.768-36.87-37.349-39.146
								C2799.983,1162.14,2762.374,1169.543,2716.9,1188.244z"/>
						</g>
					</g>
				</g>
				<g>
					<g>
						<g>
							<path style="fill:#FFB774;" d="M1110.675,1232.889c-36.601-37.053-63.351-75.267-71.726-115.646
								c-5.366-25.87,9.278-53.745,35.004-65.707c51.705-24.043,113.25-29.614,182.114-21.447L1110.675,1232.889z"/>
						</g>
					</g>
					<g>
						<g>
							<path style="fill:#000075;" d="M1110.674,1244.411c-3.069,0-6.025-1.221-8.201-3.423
								c-42.271-42.793-66.741-82.505-74.812-121.406c-6.492-31.299,10.933-64.316,41.431-78.496
								c51.631-24.009,113.242-31.333,188.333-22.441c4.05,0.479,7.544,3.062,9.189,6.792c1.643,3.735,1.196,8.057-1.179,11.367
								l-145.393,202.798c-1.98,2.764-5.076,4.512-8.462,4.775C1111.277,1244.401,1110.975,1244.411,1110.674,1244.411z
								 M1198.863,1038.044c-46.021,0-85.618,7.93-120.049,23.94c-20.566,9.565-32.854,32.314-28.579,52.92
								c6.538,31.519,25.925,64.326,59.15,100l125.706-175.337C1222.593,1038.551,1210.516,1038.044,1198.863,1038.044z"/>
						</g>
					</g>
				</g>
				<g>
					<g>
						<g>
							<path style="fill:#E89C5D;" d="M1249.05,2035.514c-50.702,11.909-97.258,14.807-136.08,0.897
								c-24.873-8.912-41.021-35.943-37.813-64.132c6.447-56.656,33.787-112.076,76.665-166.577L1249.05,2035.514z"/>
						</g>
					</g>
					<g>
						<g>
							<path style="fill:#000075;" d="M1171.536,2057.184c-23.286,0-43.992-3.306-62.454-9.922
								c-30.098-10.781-49.18-42.866-45.379-76.289c6.438-56.572,32.3-112.964,79.06-172.402c2.52-3.203,6.558-4.824,10.588-4.297
								c4.041,0.542,7.495,3.179,9.084,6.934l97.229,229.814c1.323,3.13,1.199,6.684-0.339,9.712
								c-1.538,3.027-4.333,5.225-7.642,6.001C1222.034,2053.698,1195.428,2057.184,1171.536,2057.184z M1148.97,1828.542
								c-36.536,50.151-56.98,97.754-62.361,145.039c-2.566,22.539,10.44,44.883,30.247,51.982
								c30.31,10.854,68.416,11.416,116.177,1.67L1148.97,1828.542z"/>
						</g>
					</g>
				</g>
				<g>
					<g>
						<g>
							<path style="fill:#FF6494;" d="M2911.507,1608.726l-132.95,218.515l-527.811,231.621l-658.657,106.562
								c-199.359,6.487-361.064-40.503-430.718-181.694c-36.821-74.694-47.911-175.777-25.161-309.252
								c10.301-56.547,7.364-111.164-0.088-165.607c-9.556-69.784-26.695-139.174-33.139-211.721
								c-1.446-16.043-2.367-32.218-2.542-48.612c-1.666-140.402,90.869-265.505,225.572-305.219
								c17.052-4.997,33.797-9.424,50.234-14.378c51.637-15.561,97.356-46.815,129.969-89.817
								c55.144-72.634,124.49-134.66,217.331-179.064c70.793-33.884,150.221-46.377,227.895-34.936
								c104.808,15.386,179.984,52.251,237.89,77.455c36.251,15.737,75.22,24.328,114.715,24.723
								c135.229,1.403,215.666,33.621,265.549,92.403c60.974,73.16,99.899,164.204,133.914,246.35
								c15.386,37.04,29.72,72.239,44.667,103.186c15.43,31.868,36.12,60.755,60.229,86.661
								C2892.702,1346.508,2934.476,1460.084,2911.507,1608.726z"/>
						</g>
					</g>
					<g>
						<g>
							<path style="fill:#E84688;" d="M2911.507,1608.726l-132.95,218.515l-527.811,231.621l-658.657,106.562
								c-199.359,6.487-361.064-40.503-430.718-181.694c17.183,11.879,35.462,22.048,55.582,27.44
								c62.333,16.613,131.898-20.077,161.53-77.369c29.588-57.335,22.268-129.487-10.17-185.245
								c-48.788-83.811-143.821-129.224-206.154-203.523c-9.556-11.397-18.279-23.495-26.038-36.163
								c-9.556-69.784-26.695-139.174-33.139-211.721l7.408,1.535c21.303,86.573,86.617,157.585,163.678,202.471
								c75.965,44.229,174.461,64.875,250.689,21.172c31.78-18.235,56.941-46.114,79.165-75.264
								c37.566-49.401,69.171-107.657,67.154-169.684c-1.973-61.061-35.813-115.723-63.779-170.033
								c-27.966-54.311-51.242-117.696-31.035-175.382c19.112,77.149,78.902,141.629,152.149,172.401
								c73.292,30.816,158.286,29.238,232.893,1.841c32.481-11.923,63.735-28.931,87.581-54.048
								c52.733-55.582,63.034-143.645,121.29-193.485c-8.066,64.831,22.399,130.101,68.119,176.74
								c45.763,46.64,105.334,77.105,165.738,102.091c38.969,16.087,80.042,30.465,122.167,28.492
								c69.741-3.2,127.164-49.051,177.311-99.943c15.386,37.04,29.72,72.239,44.667,103.186
								c15.43,31.868,36.12,60.755,60.229,86.661C2892.702,1346.508,2934.476,1460.084,2911.507,1608.726z"/>
						</g>
					</g>
					<g style="opacity:0.5;">
						<g>
							<g>
								<g>
									<path style="fill:#FFFFFF;" d="M1153.745,1705.162c10.301-56.547,7.364-111.164-0.088-165.607
										c-9.556-69.784-26.695-139.174-33.139-211.721c-1.446-16.043-2.367-32.218-2.542-48.612
										c-1.666-140.402,90.869-265.505,225.572-305.219c17.052-4.997,33.797-9.424,50.234-14.378
										c51.637-15.561,97.356-46.815,129.969-89.817c55.144-72.634,124.49-134.66,217.331-179.064
										c70.793-33.884,150.221-46.377,227.895-34.936c104.808,15.386,179.984,52.251,237.89,77.455
										c36.251,15.737,75.22,24.328,114.715,24.723c135.229,1.403,215.666,33.621,265.549,92.403
										c18.459,22.148,34.871,45.951,49.764,70.634c-19.316-35.637-41.288-70.111-67.297-101.318
										c-49.884-58.782-130.32-91-265.549-92.403c-39.495-0.395-78.463-8.986-114.715-24.723
										c-57.906-25.205-133.082-62.07-237.89-77.455c-77.675-11.441-157.103,1.052-227.895,34.936
										c-92.841,44.404-162.188,106.43-217.331,179.064c-32.613,43.002-78.332,74.256-129.969,89.817
										c-16.438,4.953-33.183,9.381-50.234,14.378c-134.703,39.714-227.238,164.817-225.572,305.219
										c0.175,16.395,1.096,32.569,2.542,48.612c6.444,72.546,23.583,141.937,33.139,211.721
										c7.452,54.443,10.389,109.06,0.088,165.607c-22.75,133.476-11.66,234.558,25.161,309.252
										c5.238,10.617,11.058,20.637,17.313,30.206C1142.049,1939.288,1131.042,1838.359,1153.745,1705.162z"/>
								</g>
							</g>
						</g>
						<g>
							<g>
								<g>
									<path style="fill:#FFFFFF;" d="M2825.942,1286.587c18.792,20.198,35.454,41.547,49.773,64.163
										c-17.566-34.249-40.228-65.741-67.307-94.848c-14.985-16.102-28.643-33.359-40.544-51.764
										C2783.051,1234.332,2802.908,1261.836,2825.942,1286.587z"/>
								</g>
							</g>
						</g>
					</g>
					<g>
						<g>
							<path style="fill:#000075;" d="M1540.808,1584.538c-81.274,9.879-218.739,21.545-277.477-45.946
								c19.986,13.492,42.067,21.261,64.674,26.188c33.778,7.202,69.868,7.942,104.454,6.701
								c35.368-1.246,70.476-5.057,105.752-8.705C1552.385,1561.589,1554.949,1582.307,1540.808,1584.538L1540.808,1584.538z"/>
						</g>
					</g>
					<g>
						<g>
							<path style="fill:#000075;" d="M1574.556,911.758c-6.404,90.918,59.045,161.062,125.167,214.031
								c22.488,18.345,45.914,35.76,69.533,53.099c4.908,3.571,5.981,10.459,2.387,15.352c-3.453,4.703-9.977,5.833-14.812,2.704
								C1664.748,1135.729,1539.263,1037.103,1574.556,911.758L1574.556,911.758z"/>
						</g>
					</g>
					<g>
						<g>
							<path style="fill:#000075;" d="M2175.088,824.089c-20.021,83.124,26.748,187.569,72.919,255.677
								c7.231,10.669,15.18,20.755,23.1,30.916c4.071,4.768,3.379,12.065-1.643,15.873c-12.911,8.663-20.522-9.937-28.016-17.515
								C2187.475,1039.606,2137.397,909.138,2175.088,824.089L2175.088,824.089z"/>
						</g>
					</g>
					<g>
						<g>
							<path style="fill:#000075;" d="M1557.452,2176.96c-169.094,0-291.448-42.075-364.006-125.264
								c-73.628-84.424-96.521-211.953-68.037-379.057c15.264-83.96,0.972-162.847-14.163-246.372
								c-10.344-57.085-21.04-116.118-21.76-177.593c-1.702-144.936,94.29-274.819,233.43-315.854
								c7.851-2.314,15.649-4.507,23.384-6.675c9.019-2.534,17.949-5.039,26.77-7.7c50.239-15.142,93.269-44.858,124.438-85.938
								c61.289-80.762,133.677-140.408,221.299-182.344c73.54-35.193,154.536-47.603,234.229-35.894
								c95.232,13.997,165.41,45.02,221.802,69.949c6.492,2.871,12.778,5.649,18.872,8.298
								c35.479,15.422,72.639,23.442,110.444,23.838c132.239,1.374,219.241,31.963,273.801,96.262
								c64.595,77.512,104.565,174.055,139.832,259.236c13.789,33.301,26.812,64.761,40.281,92.612
								c14.189,29.341,33.828,57.588,58.372,83.965c93.384,100.371,128.025,218.77,105.898,361.973
								c-0.22,1.421-0.718,2.788-1.467,4.019l-132.932,218.506c-1.169,1.924-2.9,3.438-4.958,4.341l-527.822,231.621
								c-0.85,0.371-1.741,0.635-2.654,0.786l-658.662,106.567c-0.462,0.078-0.928,0.122-1.394,0.137
								C1580.569,2176.764,1568.899,2176.96,1557.452,2176.96z M1592.09,2165.427h0.049H1592.09z M1894.512,631.906
								c-57.046,0-113.652,12.856-166.243,38.027c-84.402,40.393-154.172,97.905-213.301,175.825
								c-33.989,44.79-80.869,77.183-135.574,93.672c-8.953,2.7-18.015,5.244-27.171,7.813c-7.644,2.148-15.349,4.312-23.108,6.602
								c-129.775,38.267-219.302,159.399-217.717,294.575c0.701,59.629,11.23,117.744,21.414,173.94
								c14.814,81.772,30.134,166.323,14.18,254.077c-27.302,160.186-6.123,281.631,62.971,360.85
								c72.844,83.516,201.042,122.969,381.072,117.207l656.592-106.235l523.381-229.673l129.995-213.682
								c20.361-135.171-12.561-246.909-100.61-341.543c-26.035-27.978-46.917-58.042-62.058-89.355
								c-13.745-28.423-26.887-60.166-40.801-93.77c-34.668-83.735-73.96-178.642-136.355-253.513
								c-50.078-59.018-131.843-87.151-257.256-88.455c-40.75-0.425-80.771-9.055-118.95-25.649
								c-6.135-2.668-12.463-5.464-18.999-8.354c-55.176-24.392-123.843-54.749-216.128-68.311
								C1931.438,633.249,1912.952,631.906,1894.512,631.906z"/>
						</g>
					</g>
					<g>
						<g>
							<ellipse style="fill:#D6497C;" cx="1252.372" cy="1301.885" rx="51.543" ry="67.943"/>
						</g>
					</g>
					<g>
						<g>
							<ellipse style="fill:#D6497C;" cx="1418.943" cy="1236.134" rx="30.684" ry="40.447"/>
						</g>
					</g>
					<g>
						<g>
							<ellipse style="fill:#D6497C;" cx="1809.07" cy="854.774" rx="65.752" ry="76.71"/>
						</g>
					</g>
				</g>
				<g>
					<g>
						<g>
							<g>
								<path style="fill:#FFB774;" d="M2452.265,1271.63c4.667,54.466,40.334,98.649,89.254,115.379
									c38.784,13.263,81.301,2.174,110.444-26.649c91.955-90.941,111.569-294.532,7.646-359.687c-5.602-3.512-13.006-1-15.303,5.2
									c-36.546,98.644-113.602,148.934-165.498,197.37C2459.97,1220.825,2450.065,1245.956,2452.265,1271.63z"/>
							</g>
						</g>
						<g style="opacity:0.6;">
							<g>
								<g>
									<path style="fill:#FFFFFF;" d="M2468.303,1293.639c-2.541-26.461,7.03-52.534,25.633-70.943
										c51.248-50.716,127.629-103.7,162.862-206.005c2.214-6.43,9.584-9.127,15.232-5.583c2.587,1.623,5.041,3.403,7.479,5.198
										c-6.064-5.807-12.65-11.088-19.9-15.633c-5.602-3.512-13.006-1-15.303,5.2c-36.546,98.644-113.602,148.934-165.499,197.37
										c-18.838,17.581-28.743,42.713-26.543,68.387c2.597,30.306,14.813,57.407,33.547,78.387
										C2476.432,1333.273,2470.279,1314.21,2468.303,1293.639z"/>
								</g>
							</g>
						</g>
						<g>
							<g>
								<path style="fill:#E89C5D;" d="M2678.019,1014.81c38.885,88.953,11.084,226.358-59.942,296.602
									c-29.144,28.822-71.661,39.912-110.444,26.649c-17.336-5.929-32.958-15.36-46.175-27.42
									c14.345,36.012,43.496,63.863,80.062,76.368c38.784,13.263,81.301,2.174,110.444-26.649
									C2738.042,1275.23,2760.715,1091.405,2678.019,1014.81z"/>
							</g>
						</g>
						<g>
							<g>
								<path style="fill:#000075;" d="M2575.215,1403.581c-12.49,0-25.046-2.031-37.241-6.201
									c-53.779-18.389-91.707-67.383-96.628-124.815l0,0c-2.488-29.038,8.442-57.222,29.985-77.334
									c10.134-9.458,21.033-18.833,32.568-28.755c47.62-40.957,101.589-87.378,130.132-164.414
									c2.246-6.06,7.043-10.727,13.157-12.808c6.121-2.065,12.766-1.299,18.247,2.139c40.659,25.488,66.736,72.881,73.42,133.442
									c9.668,87.593-22.896,187.647-79.187,243.316C2636.319,1391.242,2605.982,1403.581,2575.215,1403.581z M2463.182,1270.69
									c4.182,48.784,36.323,90.371,81.882,105.947c34.309,11.743,72.317,2.51,99.194-24.072
									c51.853-51.279,81.794-143.935,72.813-225.327c-5.903-53.477-28.169-94.971-62.725-116.924
									c-30.574,81.973-89.102,132.31-136.155,172.778c-11.362,9.775-22.095,19.009-31.904,28.164
									C2469.695,1226.74,2461.275,1248.405,2463.182,1270.69L2463.182,1270.69z"/>
							</g>
						</g>
					</g>
					<g>
						<g>
							<path style="fill:#FF6494;" d="M2817.263,2246.518c-24.954,21.627-39.291,52.873-62.394,78.543
								c-13.317,14.796-31.69,23.963-51.407,26.704c-37.305,5.185-75.547,5.722-114.667,1.891
								c-19.333-1.893-38.897,2.713-54.824,13.833c-251.707,175.756-1090.781,44.779-1086.535-592.191
								c7.396-67.144,25.549-128.201,57.023-181.723c13.442-22.858,21.609-48.456,24.258-74.84
								c56.323-560.964,1073.187-662.182,1173.339,6.603c2.728,18.215,8.565,35.84,17.854,51.744
								c136.01,232.863,346.268,439.308,131.867,665.387c-5.348,5.64-12.877,8.981-20.643,8.688
								C2826.143,2250.968,2821.492,2249.523,2817.263,2246.518z"/>
						</g>
					</g>
					<g style="opacity:0.5;">
						<g>
							<g>
								<path style="fill:#FFFFFF;" d="M2719.91,1577.081c-9.29-15.904-15.126-33.529-17.854-51.744
									c-78.183-522.078-715-574.914-1017.42-306.115c311.512-243.535,915.136-179.359,991.12,328.032
									c2.728,18.215,8.565,35.84,17.854,51.744c133.2,228.05,337.543,430.767,144.553,651.4c5.151-1.257,9.911-4.024,13.615-7.93
									C3066.177,2016.389,2855.92,1809.944,2719.91,1577.081z"/>
							</g>
						</g>
						<g>
							<g>
								<path style="fill:#FFFFFF;" d="M2790.962,2268.435c-23.473,20.343-37.556,49.195-58.374,73.915
									c8.311-4.42,15.889-10.188,22.281-17.29c15.406-17.116,26.923-36.701,40.28-54.271
									C2793.717,2270.139,2792.311,2269.393,2790.962,2268.435z"/>
							</g>
						</g>
					</g>
					<g>
						<g>
							<g>
								<g>
									<path style="fill:#E84688;" d="M1535.665,1706.955c5.699-71.872,25.608-138.02,63.114-197.081
										c16.017-25.223,25.082-52.994,26.99-81.218c6.03-89.197,39.992-169.064,93.992-238.098
										c-103.768,77.854-177.052,188.821-191.044,328.176c-2.649,26.384-10.817,51.983-24.258,74.841
										c-31.474,53.522-49.627,114.578-57.023,181.723c-4.246,636.97,834.828,767.946,1086.535,592.191
										c4.917-3.434,10.21-6.171,15.708-8.363C2116.392,2369.307,1557.662,2189.361,1535.665,1706.955z"/>
								</g>
							</g>
						</g>
						<g>
							<g>
								<g>
									<path style="fill:#E84688;" d="M2619.724,2355.754c28.402,1.098,56.325-0.18,83.739-3.99
										c10.284-1.43,20.18-4.648,29.207-9.461C2696.816,2348.351,2658.989,2352.867,2619.724,2355.754z"/>
								</g>
							</g>
						</g>
					</g>
					<g>
						<g>
							<path style="fill:#000075;" d="M2236.106,2450.06c-141.199,0-302.61-33.247-446.836-109.058
								c-106.873-56.177-191.465-129.404-251.428-217.651c-68.132-100.269-102.236-217.393-101.365-348.125
								c0.002-0.376,0.024-0.752,0.066-1.128c7.793-70.752,27.466-133.359,58.469-186.079c12.412-21.103,20.295-45.439,22.8-70.376
								c29.98-298.608,321.848-461.553,594.663-468.184c243.318-5.918,546.58,114.746,600.417,474.258
								c2.622,17.51,8.167,33.608,16.479,47.837c23.384,40.039,49.299,79.78,74.36,118.218
								c123.049,188.721,239.272,366.977,55.996,560.234c-7.678,8.096-18.293,12.451-29.009,12.104
								c-4.106-0.156-8.008-0.933-11.667-2.314c-10.842,10.723-19.766,23.614-29.138,37.148
								c-8.201,11.841-16.68,24.087-26.902,35.445c-14.705,16.338-35.317,27.07-58.042,30.229
								c-37.603,5.229-77.046,5.884-117.246,1.943c-17.195-1.704-34.063,2.544-47.483,11.909
								C2473.204,2423.283,2362.786,2450.055,2236.106,2450.06z M1458.392,1775.939c-1.785,301.87,184.465,463.34,341.077,545.664
								c120.752,63.472,265.935,101.055,408.811,105.82c133.87,4.414,250.291-20.659,319.417-68.921
								c17.698-12.354,39.756-17.954,62.168-15.757c38.477,3.77,76.191,3.154,112.09-1.836
								c17.617-2.447,33.518-10.679,44.771-23.184c9.287-10.318,17.363-21.978,25.171-33.257
								c11.174-16.142,22.729-32.832,38.191-46.23c3.818-3.311,9.402-3.579,13.523-0.654c2.356,1.675,4.878,2.505,7.942,2.622
								c4.343,0.293,8.979-1.807,12.275-5.278c78.108-82.363,103.75-166.123,80.691-263.594
								c-20.857-88.174-78.313-176.294-139.143-269.59c-25.205-38.657-51.27-78.633-74.927-119.136
								c-9.722-16.646-16.191-35.366-19.229-55.649c-51.724-345.386-343.779-461.274-578.21-455.591
								c-263.203,6.397-544.675,162.495-573.389,448.462c-2.818,28.066-11.709,55.488-25.715,79.302
								C1484.561,1649.03,1465.884,1708.512,1458.392,1775.939z"/>
						</g>
					</g>
					<g>
						<g>
							<path style="fill:#000075;" d="M2819.439,2255.29c-5.393,0-10.095-3.984-10.842-9.482
								c-5.283-38.735-70.835-41.108-140.234-43.618c-76.995-2.788-164.26-5.948-195.974-62.061
								c-2.976-5.268-1.121-11.953,4.148-14.931c5.271-2.984,11.953-1.123,14.934,4.15c25.679,45.434,106.436,48.359,177.686,50.938
								c78.879,2.856,153.384,5.552,161.155,62.563c0.818,5.996-3.379,11.519-9.377,12.339
								C2820.433,2255.256,2819.932,2255.29,2819.439,2255.29z"/>
						</g>
					</g>
					<g>
						<g>
							<path style="fill:#000075;" d="M2433.711,2196.108c22.898-35.049,38.348-69.435,41.478-110.976
								c1.338-13.463,1.619-27.378,2.356-42.445C2513.796,2091.701,2496.853,2179.12,2433.711,2196.108L2433.711,2196.108z"/>
						</g>
					</g>
					<g>
						<g>
							<path style="fill:#000075;" d="M2192.622,1635.027c39.594-51.663,110.808-73.901,173.87-56.846
								c70.313,18.089,111.728,82.533,107.839,153.68c-0.237,7.96-6.934,14.214-14.893,13.899
								c-9.696-0.957-16.252-10.592-24.326-15.385c-26.848-20.089-57.23-36.096-91.094-39.719
								c-13.61-1.478-27.672-0.874-41.81,1.357c12.833-6.354,26.995-10.541,41.702-12.213c37.316-4.566,75.238,8.082,106.704,27.7
								c6.273,4.009,12.39,8.199,18.26,12.708l-23.182,10.857C2449.801,1590.584,2286.511,1548.432,2192.622,1635.027
								L2192.622,1635.027z"/>
						</g>
					</g>
					<g>
						<g>
							
								<ellipse transform="matrix(0.9742 -0.2259 0.2259 0.9742 -375.7646 666.3987)" style="fill:#000075;" cx="2724.503" cy="1975.417" rx="20.51" ry="37.259"/>
						</g>
					</g>
					<g>
						<g>
							<g>
								<path style="fill:#FFB774;" d="M1828.989,1305.995c5.433,63.409,46.957,114.847,103.909,134.323
									c45.152,15.441,94.65,2.531,128.579-31.024c107.053-105.874,129.888-342.893,8.902-418.746
									c-6.522-4.089-15.141-1.164-17.816,6.054c-42.547,114.841-132.255,173.388-192.672,229.777
									C1837.96,1246.848,1826.428,1276.105,1828.989,1305.995z"/>
							</g>
						</g>
						<g style="opacity:0.6;">
							<g>
								<g>
									<path style="fill:#FFFFFF;" d="M1847.661,1331.617c-2.958-30.806,8.184-61.16,29.841-82.591
										c59.663-59.043,148.585-120.727,189.603-239.83c2.578-7.486,11.158-10.626,17.733-6.5c3.011,1.89,5.868,3.961,8.708,6.052
										c-7.06-6.761-14.727-12.909-23.167-18.2c-6.522-4.089-15.141-1.164-17.815,6.054
										c-42.547,114.841-132.255,173.388-192.673,229.777c-21.931,20.468-33.463,49.726-30.902,79.616
										c3.023,35.281,17.245,66.833,39.056,91.258C1857.125,1377.76,1849.961,1355.566,1847.661,1331.617z"/>
								</g>
							</g>
						</g>
						<g>
							<g>
								<path style="fill:#E89C5D;" d="M2091.811,1007.006c45.27,103.558,12.904,263.525-69.785,345.302
									c-33.929,33.555-83.427,46.465-128.579,31.024c-20.182-6.902-38.369-17.883-53.757-31.922
									c16.701,41.925,50.637,74.349,93.208,88.907c45.151,15.44,94.65,2.53,128.578-31.025
									C2161.689,1310.186,2188.085,1096.177,2091.811,1007.006z"/>
							</g>
						</g>
						<g>
							<g>
								<path style="fill:#000075;" d="M1972.125,1457.809c-14.346,0-28.767-2.334-42.771-7.119
									c-61.931-21.182-105.61-77.617-111.282-143.76l0,0c-2.849-33.257,9.668-65.532,34.341-88.564
									c11.77-10.981,24.438-21.88,37.852-33.413c55.608-47.827,118.635-102.036,152.024-192.158
									c2.422-6.543,7.6-11.587,14.204-13.833c6.611-2.256,13.792-1.406,19.712,2.305c46.863,29.38,76.924,84.082,84.644,154.028
									c11.199,101.465-26.497,217.339-91.665,281.792C2042.342,1443.63,2007.479,1457.809,1972.125,1457.809z M2063.941,999.645
									c-0.117,0-0.247,0.015-0.388,0.064c-0.518,0.176-0.664,0.571-0.713,0.698c-35.356,95.435-103.516,154.058-158.284,201.162
									c-13.24,11.387-25.745,22.139-37.188,32.822c-19.722,18.403-29.731,44.165-27.461,70.664l0,0
									c4.927,57.5,42.82,106.523,96.536,124.892c40.601,13.897,85.554,2.983,117.329-28.447
									c60.73-60.063,95.803-168.54,85.291-263.804c-6.97-63.149-33.43-112.109-74.504-137.861
									C2064.468,999.777,2064.253,999.645,2063.941,999.645z"/>
							</g>
						</g>
					</g>
					<g>
						<g>
							<g>
								<path style="fill:#FFB774;" d="M2674.89,1726.469c-6.294,63.33,25.087,121.513,77.499,151.109
									c41.552,23.463,92.579,19.854,132.088-6.905c124.662-84.433,190.599-313.239,85.585-410.003
									c-5.661-5.216-14.671-3.923-18.624,2.682c-62.896,105.085-161.824,146.177-231.562,190.523
									C2694.562,1669.972,2677.857,1696.617,2674.89,1726.469z"/>
							</g>
						</g>
						<g style="opacity:0.6;">
							<g>
								<g>
									<path style="fill:#FFFFFF;" d="M2688.544,1755.082c2.745-30.826,19.267-58.62,44.489-75.713
										c69.483-47.093,168.214-91.414,230.389-200.969c3.908-6.886,12.918-8.398,18.625-3.135c2.613,2.41,5.042,4.971,7.449,7.547
										c-5.7-7.941-12.108-15.392-19.434-22.142c-5.661-5.216-14.671-3.923-18.624,2.682
										c-62.896,105.085-161.824,146.177-231.562,190.524c-25.314,16.097-42.019,42.742-44.986,72.594
										c-3.502,35.237,4.69,68.862,21.648,96.875C2689.381,1802.178,2686.41,1779.047,2688.544,1755.082z"/>
								</g>
							</g>
						</g>
						<g>
							<g>
								<path style="fill:#E89C5D;" d="M2988.11,1480.781c25.5,110.106-35.668,261.418-131.958,326.635
									c-39.51,26.76-90.536,30.368-132.088,6.905c-18.573-10.488-34.437-24.619-46.987-41.244
									c8.725,44.278,36.136,82.378,75.312,104.5c41.552,23.463,92.578,19.854,132.088-6.905
									C3001.173,1791.635,3066.388,1586.103,2988.11,1480.781z"/>
							</g>
						</g>
						<g>
							<g>
								<path style="fill:#000075;" d="M2812.168,1904.225c-22.524,0-44.912-5.664-65.168-17.104
									c-56.992-32.183-89.575-95.669-83.015-161.733l0,0c3.301-33.213,21.528-62.646,50.01-80.762
									c13.586-8.638,28.042-17.026,43.345-25.908c63.435-36.807,135.337-78.53,184.697-160.996
									c3.579-5.986,9.592-9.99,16.497-10.986c6.909-1.006,13.818,1.142,18.955,5.879c40.676,37.48,60.19,96.767,54.946,166.938
									c-7.607,101.797-65.923,208.789-141.812,260.191C2866.619,1896.002,2839.295,1904.225,2812.168,1904.225z M2961.854,1468.41
									c-0.059,0-0.12,0.005-0.186,0.015c-0.542,0.078-0.754,0.435-0.825,0.552c-52.271,87.329-130.024,132.446-192.502,168.701
									c-15.107,8.765-29.375,17.046-42.583,25.444c-22.766,14.478-37.332,37.964-39.961,64.434l0,0
									c-5.708,57.427,22.546,112.568,71.98,140.483c37.358,21.084,83.552,18.613,120.557-6.441
									c70.723-47.9,125.103-148.105,132.246-243.682c4.736-63.354-12.292-116.338-47.944-149.19
									C2962.544,1468.644,2962.291,1468.41,2961.854,1468.41z M2674.891,1726.471h0.049H2674.891z"/>
							</g>
						</g>
					</g>
					<g>
						<g>
							
								<ellipse transform="matrix(0.3432 -0.9393 0.9393 0.3432 -448.835 3325.1621)" style="fill:#FF8CC3;" cx="2153.171" cy="1983.511" rx="109.586" ry="124.928"/>
						</g>
					</g>
					<g>
						<g>
							
								<ellipse transform="matrix(0.9094 -0.4159 0.4159 0.9094 -595.03 867.1299)" style="fill:#D6497C;" cx="1692.909" cy="1799.406" rx="90.571" ry="103.251"/>
						</g>
					</g>
					<g>
						<g>
							
								<ellipse transform="matrix(0.9094 -0.4159 0.4159 0.9094 -505.4605 839.9791)" style="fill:#D6497C;" cx="1675.375" cy="1580.234" rx="45.436" ry="51.797"/>
						</g>
					</g>
					<g>
						<g>
							
								<ellipse transform="matrix(0.9094 -0.4159 0.4159 0.9094 -535.2482 896.1287)" style="fill:#D6497C;" cx="1789.345" cy="1676.67" rx="33.978" ry="38.735"/>
						</g>
					</g>
				</g>
			</g>
			<g>
				<g>
					
						<path style="fill:none;stroke:#000075;stroke-width:21.9172;stroke-linecap:round;stroke-linejoin:round;stroke-miterlimit:10;" d="
						M2666.034,2625.686"/>
				</g>
			</g>
			<g>
				<g>
					<path style="fill:#FFFFFF;" d="M2547.341,2544.786c24.667,22.556,49.75,35.528,75.29,38.001
						c24.218,2.345,43.447-21.413,34.258-43.942c-2.878-7.056-7.278-13.772-13.241-20.138c-4.877-5.207-12.172-7.438-19.136-5.889
						C2595.608,2519.249,2569.576,2529.496,2547.341,2544.786z"/>
				</g>
			</g>
			<g>
				<g>
					<path style="fill:#FFFFFF;" d="M2560.473,2664.231c27.212,27.505,55.461,43.953,84.846,48.29
						c27.863,4.112,51.469-22.242,42.148-48.82c-2.919-8.324-7.617-16.343-14.143-24.047c-5.337-6.302-13.642-9.304-21.783-7.916
						C2617.752,2637.5,2587.064,2647.84,2560.473,2664.231z"/>
				</g>
			</g>
			<g>
				<g>
					<path style="fill:#000075;" d="M2625.992,2593.908c-1.462,0-2.937-0.073-4.417-0.215c-27.446-2.656-54.91-16.387-81.628-40.82
						c-2.466-2.251-3.767-5.508-3.538-8.843c0.232-3.335,1.97-6.377,4.722-8.271c22.581-15.532,49.075-26.533,81.001-33.638
						c10.728-2.368,22.029,1.099,29.514,9.097c6.829,7.285,12.007,15.19,15.391,23.486c5.613,13.76,3.601,29.17-5.376,41.226
						C2653.133,2587.379,2640.037,2593.908,2625.992,2593.908z M2565.831,2546.125c19.441,15.269,38.855,23.916,57.856,25.752
						c7.983,0.776,15.603-2.608,20.393-9.038c4.419-5.932,5.391-13.169,2.664-19.853c-2.371-5.811-6.104-11.455-11.094-16.787
						c-2.212-2.363-5.566-3.379-8.76-2.681C2603.445,2528.732,2583.331,2536.169,2565.831,2546.125z"/>
				</g>
			</g>
			<g>
				<g>
					<path style="fill:#000075;" d="M2651.16,2723.913c-2.463,0-4.949-0.181-7.441-0.552c-31.201-4.604-61.831-21.904-91.035-51.426
						c-2.349-2.373-3.486-5.689-3.091-9.009c0.398-3.316,2.288-6.27,5.129-8.023c26.814-16.533,57.881-27.642,94.976-33.965
						c11.924-2.041,24.185,2.417,31.99,11.635c7.336,8.662,12.761,17.915,16.121,27.505c5.488,15.649,2.385,32.72-8.301,45.669
						C2679.886,2717.409,2665.936,2723.913,2651.16,2723.913z M2578.726,2666.471c22.461,20.01,45.349,31.836,68.191,35.21
						c9.79,1.436,19.387-2.246,25.688-9.883c5.842-7.08,7.49-16.001,4.519-24.468c-2.471-7.056-6.563-13.979-12.163-20.591
						c-2.815-3.325-7.246-4.932-11.575-4.199C2624.805,2647.414,2600.235,2655.28,2578.726,2666.471z"/>
				</g>
			</g>
			<g>
				<g>
					<path style="fill:#E84688;" d="M2315.972,3453.105c-20.032,23.978-44.536,41.73-73.554,49.84
						c-10.432,2.893-21.303,4.077-32.087,4.34c-122.737,2.981-198.132-48.524-253.056-95.296
						c-48.218-40.985-80.612-78.332-115.328-71.801l-166.571-390.127c88.546-104.633,213.649-138.867,336.517-91.965
						c-43.615-15.036-92.666-14.597-135.712,2.148c-53.522,20.778-96.83,66.234-114.978,120.677
						c-20.821,62.376-8.679,132.38,21.303,190.899c8.066,15.693,17.797,31.21,32.262,41.292
						c26.257,18.235,61.544,14.685,91.921,24.547c39.319,12.756,74.913,48.612,115.066,38.837
						c7.232-1.753,13.632-4.778,19.419-8.723c25.643-17.621,38.004-54.223,50.41-84.995c3.507-8.679,7.364-17.271,11.572-25.643
						c5.216-10.52,10.958-20.733,17.183-30.684c23.32-37.259,53.302-70.398,88.326-97.006c6.663,8.417,13.37,16.832,20.076,25.249
						c-112.698,77.236-159.075,238.021-104.808,363.432c6.794,15.649,15.254,31.166,28.536,41.949
						c14.027,11.397,32.131,16.438,49.971,19.156C2242.067,3485.28,2286.691,3479.099,2315.972,3453.105z"/>
				</g>
			</g>
			<g>
				<g>
					<path style="fill:#FF6494;" d="M2315.972,3453.105c-29.281,25.994-73.905,32.174-113.531,26.125
						c-17.841-2.718-35.944-7.759-49.971-19.156c-13.282-10.783-21.742-26.301-28.536-41.949
						c-54.267-125.411-7.89-286.195,104.808-363.432c-6.706-8.417-13.413-16.832-20.076-25.249
						c-35.024,26.607-65.006,59.746-88.326,97.006c-6.225,9.951-11.967,20.164-17.183,30.684
						c-4.208,8.372-8.066,16.964-11.572,25.643c-12.406,30.772-24.767,67.374-50.41,84.995c-5.786,3.945-12.186,6.97-19.419,8.723
						c-40.153,9.775-75.746-26.081-115.066-38.837c-30.377-9.863-65.664-6.312-91.921-24.547
						c-14.465-10.082-24.196-25.6-32.262-41.292c-29.983-58.519-42.125-128.522-21.303-190.899
						c18.147-54.443,61.456-99.899,114.978-120.677c43.046-16.745,92.096-17.183,135.712-2.148
						c8.679,3.287,17.402,7.013,26.038,11.178c24.328,11.572,48.393,26.388,72.02,44.579c28.843,22.18,56.985,49.313,83.812,81.576
						c16.175,19.507,31.955,40.897,47.078,64.218C2399.302,2991.222,2427.574,3319.279,2315.972,3453.105z"/>
				</g>
			</g>
			<g>
				<g>
					<path style="fill:#000075;" d="M1675.375,2950.061c47.041-74.254,134.159-119.622,221.539-122.39
						c150.791-4.771,277.115,105.211,353.114,226.004c0.041-0.003-13.732-4.094-13.48-4.109
						c113.537-49.118,158.295,82.828,159.161,172.349c2.586,106.462-34.859,258.143-149.922,292.527
						c-19.705,5.517-40.329,4.911-60.525,4.297c-67.407-2.152-134.125-24.802-189.138-63.834
						c-36.19-24.845-67.806-56.558-100.553-84.749c-16.295-13.62-31.247-27.866-53.625-29.969
						c41.595-16.741,85.363,35.322,114.809,58.646c73.793,65.881,160.995,102.406,260.79,96.225
						c117.738-12.773,156.262-172.562,153.096-272.402c-0.648-70.467-30.502-193.551-125.413-152.964
						c-5.005,2.064-10.655,0.233-13.577-4.072c-15.787-23.213-32.435-45.771-50.461-67.145
						c-87.395-105.099-227.014-184.032-364.907-137.344C1762.822,2878.886,1717.311,2912.372,1675.375,2950.061L1675.375,2950.061z"
						/>
				</g>
			</g>
			<g>
				<g>
					<path style="fill:#FFFFFF;" d="M2196.971,3088.672c16.539-6.62,30.017-14.919,40.434-24.897
						c5.012-4.801,6.794-12.126,4.402-18.641c-11.844-32.259-29.953-54.84-55.046-66.632c-6.77-3.181-14.863-0.516-18.412,6.069
						c-15.082,27.976-14.308,59.261,2.282,93.846C2175.312,3088.176,2186.924,3092.694,2196.971,3088.672z"/>
				</g>
			</g>
			<g>
				<g>
					<path style="fill:#000075;" d="M2189.354,3101.1c-11.853,0-23.203-6.685-28.604-17.939
						c-18.12-37.783-18.809-72.7-2.046-103.789c6.306-11.709,20.676-16.445,32.72-10.786c27.229,12.793,47.642,37.28,60.671,72.773
						c3.882,10.572,1.091,22.476-7.109,30.332c-11.392,10.908-26.177,20.044-43.943,27.158h-0.002
						C2197.22,3100.377,2193.26,3101.1,2189.354,3101.1z M2196.971,3088.673h0.049H2196.971z M2180.762,2988.122
						c-1.121,0-2.2,0.601-2.764,1.646c-13.438,24.922-12.615,52.368,2.512,83.911c2.168,4.526,7.72,6.68,12.39,4.82
						c15.146-6.065,27.571-13.682,36.926-22.637c1.907-1.826,2.573-4.555,1.694-6.948c-11.125-30.308-27.292-50.093-49.421-60.493
						C2181.668,2988.219,2181.211,2988.122,2180.762,2988.122z"/>
				</g>
			</g>
			<g>
				<g>
					<path style="fill:#FFFFFF;" d="M2151.018,3154.774c12.032-13.137,20.578-26.46,25.638-39.968
						c2.435-6.5,0.863-13.873-4.118-18.706c-24.661-23.932-50.771-36.426-78.495-36.17c-7.479,0.069-13.616,5.98-13.959,13.452
						c-1.458,31.749,12.806,59.604,42.752,83.574C2131.285,3163.719,2143.708,3162.755,2151.018,3154.774z"/>
				</g>
			</g>
			<g>
				<g>
					<path style="fill:#000075;" d="M2135.728,3172.419c-6.958,0-13.945-2.271-19.741-6.909
						c-32.708-26.177-48.469-57.344-46.851-92.632c0.608-13.281,11.504-23.784,24.807-23.906c0.308-0.005,0.615-0.005,0.92-0.005
						c29.753,0,58.447,13.208,85.305,39.268c8.081,7.847,10.73,19.785,6.748,30.415c-5.535,14.771-14.893,29.414-27.817,43.525
						C2152.898,3168.942,2144.336,3172.419,2135.728,3172.419z M2094.886,3070.885c-0.249,0-0.493,0-0.742,0
						c-1.67,0.015-3.037,1.333-3.113,2.998c-1.299,28.286,11.345,52.656,38.652,74.517c3.918,3.135,9.866,2.676,13.254-1.03l0,0
						c11.021-12.031,18.911-24.277,23.457-36.411c0.925-2.471,0.342-5.219-1.489-6.997
						C2141.973,3081.71,2119.058,3070.885,2094.886,3070.885z"/>
				</g>
			</g>
			<g>
				<g>
					
						<ellipse transform="matrix(0.1681 -0.9858 0.9858 0.1681 -1375.5853 4976.939)" style="fill:#FF8CC3;" cx="2261.037" cy="3303.502" rx="134.539" ry="84.135"/>
				</g>
			</g>
			<g>
				<g>
					<ellipse style="fill:#D6497C;" cx="1530.721" cy="2702.396" rx="94.244" ry="109.586"/>
				</g>
			</g>
			<g>
				<g>
					
						<ellipse transform="matrix(0.9613 -0.2755 0.2755 0.9613 -598.4888 551.5608)" style="fill:#D6497C;" cx="1664.417" cy="2406.514" rx="61.368" ry="50.41"/>
				</g>
			</g>
			<g>
				<g>
					
						<ellipse transform="matrix(0.9052 -0.4249 0.4249 0.9052 -1142.3455 887.6984)" style="fill:#C63E75;" cx="1418.943" cy="3004.854" rx="35.068" ry="43.834"/>
				</g>
			</g>
		</g>
		<g>
			<g>
				<path style="fill:#000075;" d="M2589.852,3540.954c-89.99,0-179.631-20.225-260.127-58.584
					c-22.661,23.54-49.155,39.941-78.928,48.838c-22.644,6.348-45.71,5.645-66.067,5.02
					c-70.383-2.241-140.955-26.054-198.733-67.051c-10.879-7.466-22.19-16.123-34.971-26.787
					c-103.811,37.017-292.212,81.147-460.62-1.826c-31.648,6.704-64.236,10.103-96.973,10.103
					c-90.933,0-182.212-25.771-263.975-74.536c-139.104-82.949-377.117-308.584-408.269-887.749
					c-0.874-16.211,8.071-31.123,22.793-37.983c14.673-6.856,31.789-4.126,43.613,6.934c21.033,19.677,43.303,45.805,69.089,76.059
					c67.112,78.735,150.54,176.621,262.944,220.659c6.143,2.398,13.345,2.549,20.264,0.425
					c49.822-15.327,95.798-23.31,136.914-23.799c16.907-70.708,44.597-138.804,82.41-202.607
					c60.474-103.462,146.58-200.298,256.079-288.003c-15.642-14.624-30.503-29.927-44.39-45.708
					c-4.524,0.063-9.016,0.103-13.464,0.103c-166.829,0-290.305-40.513-367.2-120.43c-6.494,0.435-12.759,0.654-18.706,0.654
					c-25.076,0-48.074-3.682-68.355-10.947c-37.664-13.496-61.577-53.34-56.865-94.736c5.151-45.269,21.699-89.727,50.547-135.737
					c-2.549-49.639,1.248-104.634,11.294-163.564c14.729-81.03,0.71-158.398-14.131-240.313
					c-10.474-57.793-21.301-117.554-22.039-180.503c-0.056-4.6,0.007-9.448,0.195-14.678
					c-33.918-38.291-54.109-74.683-61.658-111.064c-8.118-39.175,13.408-80.356,51.189-97.925
					c34.453-16.016,72.341-24.917,115.62-27.134c39.651-38.262,88.13-66.567,140.63-82.051c7.9-2.329,15.75-4.536,23.535-6.719
					l0.632-0.176c8.716-2.446,17.351-4.873,25.879-7.446c46.68-14.067,86.636-41.65,115.557-79.758
					c57.163-75.332,123.552-132.634,202.693-174.9c2.285-35.654,9.47-65.239,21.875-90.185c17.864-35.92,58.46-53.472,96.526-41.716
					c42.58,13.145,82.488,38.894,121.819,78.633c10.02,0.752,19.783,1.821,29.102,3.191
					c97.571,14.338,168.953,45.893,226.306,71.247c6.57,2.903,12.778,5.647,18.799,8.264c33.325,14.485,68.198,22.017,103.65,22.385
					c58.833,0.615,108.376,6.872,151.104,19.106c29.722-18.838,57.485-30.31,84.653-35c39.536-6.865,77.671,15.525,90.703,53.206
					c13.682,39.558,16.978,83.689,10.042,134.717c29.038,47.305,51.628,96.704,68.345,135.376
					c24.321,28.052,40.244,65.942,46.182,109.912c2.417,5.596,4.724,10.854,6.953,15.84c26.799-6.245,51.006-8.062,73.638-5.547
					c39.871,4.414,70.31,36.499,72.371,76.284c1.868,35.991-4.543,72.871-19.578,112.476c22.712,38.164,38.801,79.16,48.064,122.393
					c5.5-4.316,12.092-7.168,19.221-8.198c12.131-1.758,24.282,2.007,33.311,10.322c44.695,41.187,66.196,105.508,60.542,181.123
					c-6.968,93.208-53.394,189.575-119.46,249.614c41.428,89.155,72.793,203.569-7.275,327.72
					c24.692,3.179,48.75,8.032,71.833,14.492c65.388,18.291,125.044,55.645,172.52,108.027
					c106.58,117.593,155.095,271.851,140.3,446.089c-14.89,175.366-93.806,359.849-228.215,533.496
					c-115.105,148.706-288.633,236.367-476.089,240.503C2598.946,3540.905,2594.393,3540.954,2589.852,3540.954z M2325.591,3443.346
					c2.673,0,5.371,0.61,7.881,1.88c82.458,41.635,175.667,62.597,269.255,60.586c176.848-3.901,340.571-86.616,449.185-226.938
					c130.271-168.301,206.699-346.396,221.018-515.029c13.95-164.312-31.475-309.414-131.36-419.624
					c-43.04-47.49-96.99-81.318-156.018-97.832c-30.166-8.438-62.185-13.931-95.171-16.323c-6.404-0.469-12.041-4.404-14.683-10.259
					c-2.644-5.854-1.865-12.686,2.024-17.798c74.836-98.33,79.456-196.543,15.444-328.394c-3.525-7.261-1.626-15.996,4.6-21.133
					c63.562-52.5,110.669-146.626,117.217-234.229c4.839-64.731-12.688-118.989-49.353-152.773
					c-1.262-1.162-2.893-1.655-4.595-1.426c-1.689,0.244-3.103,1.187-3.982,2.656c-4.814,8.042-10.259,16.265-16.65,25.147
					c-4.229,5.884-11.65,8.555-18.66,6.704c-7.007-1.846-12.153-7.818-12.939-15.02c-6.27-57.344-24.053-108.813-54.365-157.363
					c-2.971-4.756-3.481-10.649-1.372-15.85c15.391-37.915,22.031-72.51,20.308-105.767c-1.172-22.583-18.53-40.796-41.277-43.315
					c-22.097-2.451-46.589,0.229-74.875,8.213c-8.284,2.349-17.017-1.68-20.63-9.478c-4.478-9.658-9.17-20.19-14.338-32.207
					c-0.649-1.514-1.084-3.105-1.289-4.736c-4.917-39.092-18.662-72.144-39.756-95.586c-1.272-1.416-2.307-3.027-3.062-4.78
					c-16.963-39.365-40.291-90.703-70.364-138.687c-2.222-3.545-3.101-7.768-2.476-11.904c7.251-48.03,4.768-88.747-7.588-124.477
					c-7.397-21.384-29.126-34.085-51.66-30.159c-24.385,4.211-49.954,15.383-78.174,34.163c-4.387,2.915-9.846,3.704-14.875,2.146
					c-41.218-12.778-89.968-19.287-149.038-19.902c-40.156-0.417-79.602-8.926-117.239-25.286c-6.082-2.644-12.358-5.42-18.84-8.284
					c-55.571-24.565-124.539-55.054-217.4-68.699c-10.432-1.533-21.509-2.659-32.922-3.345c-4.387-0.264-8.518-2.17-11.565-5.342
					c-36.655-38.132-73.184-62.444-111.667-74.324c-21.589-6.665-44.67,3.367-54.866,23.86
					c-11.311,22.747-17.446,50.915-18.752,86.113c-0.234,6.323-3.865,12.026-9.492,14.917
					c-78.357,40.242-143.704,95.727-199.78,169.624c-33.423,44.048-79.526,75.898-133.33,92.114
					c-8.735,2.637-17.588,5.122-26.523,7.632l-0.637,0.181c-7.639,2.139-15.337,4.302-23.089,6.587
					c-49.08,14.477-94.258,41.455-130.654,78.022c-3.135,3.154-7.353,4.99-11.797,5.146c-41.382,1.431-77.019,9.341-108.948,24.185
					c-23.21,10.791-36.531,35.64-31.672,59.082c6.587,31.753,25.591,64.458,58.096,99.971c3.169,3.462,4.814,8.057,4.565,12.744
					c-0.391,7.354-0.544,13.804-0.474,19.717c0.701,60.015,11.265,118.306,21.479,174.678
					c15.425,85.127,29.995,165.532,14.16,252.622c-9.949,58.364-13.496,112.612-10.508,161.05c0.229,3.726-0.735,7.422-2.754,10.557
					c-27.773,43.115-43.562,84.194-48.271,125.581c-2.896,25.435,11.36,49.756,33.894,57.832c16.714,5.986,35.212,8.896,56.55,8.896
					c7.463,0,15.571-0.405,24.097-1.196c5.483-0.532,10.881,1.582,14.58,5.659c72.468,79.795,196.389,118.511,368.193,115.073
					c5.251-0.352,10.239,2.129,13.645,6.108c18.792,21.924,39.607,42.964,61.875,62.52c3.921,3.447,6.099,8.462,5.942,13.682
					c-0.159,5.215-2.637,10.088-6.76,13.291c-113.757,88.32-202.488,186.226-263.728,291.001
					c-38.428,64.844-65.85,134.194-81.558,206.22c-1.799,8.247-9.346,13.999-17.668,13.76c-40.854-1.372-87.92,6.113-139.971,22.124
					c-14.446,4.443-29.832,3.989-43.313-1.284c-120.588-47.246-207.175-148.833-276.748-230.464
					c-25.171-29.531-46.848-54.961-66.44-73.291c-1.345-1.255-3.223-1.548-4.907-0.771c-1.729,0.806-2.737,2.486-2.634,4.38
					c30.278,562.959,258.125,780.19,391.245,859.575c76.343,45.527,161.426,69.595,246.047,69.595
					c32.273,0,64.375-3.564,95.417-10.596c3.994-0.908,8.184-0.376,11.829,1.489c163.264,83.438,350.652,35.503,447.825-0.493
					c5.957-2.207,12.646-1.016,17.471,3.125c15.112,12.959,27.839,22.9,40.054,31.284c52.456,37.217,116.228,58.745,179.79,60.771
					c18.696,0.566,38.049,1.157,55.249-3.657c26.997-8.071,51.035-24.262,71.157-48.047
					C2315.638,3445.51,2320.569,3443.346,2325.591,3443.346z"/>
			</g>
		</g>
	</g>
</g>
</svg>
