<?xml version="1.0" encoding="utf-8"?>
<!-- Generator: Adobe Illustrator 27.5.0, SVG Export Plug-In . SVG Version: 6.00 Build 0)  -->
<svg version="1.1" id="Layer_1" xmlns="http://www.w3.org/2000/svg" xmlns:xlink="http://www.w3.org/1999/xlink" x="0px" y="0px"
	 viewBox="0 0 4000 4000" style="enable-background:new 0 0 4000 4000;" xml:space="preserve">
<g>
	<g>
		<rect style="fill:#FFE767;" width="4000" height="4000"/>
	</g>
	<g>
		<g style="opacity:0.25;">
			<ellipse style="fill:#591124;" cx="1992.5" cy="3222.854" rx="1207.5" ry="167.146"/>
		</g>
		<g>
			<g>
				<path style="fill:#F98903;" d="M2459.549,1718.673c-0.013-0.115-0.025-0.229-0.038-0.344
					c-3.672-44.696-29.869-104.976-57.603-168.794c-28.104-64.678-57.17-131.563-63.646-185.966
					c-13.966-117.342-84.878-360.305-262.022-526.6c-180.714-169.661-444.54-92.789-447.172-91.998c-1.237,0.37-2.537,0.37-3.773,0
					c-2.633-0.79-266.452-77.682-447.179,91.998c-177.144,166.295-248.05,409.259-262.016,526.6
					c-6.476,54.403-35.542,121.287-63.652,185.966c-27.734,63.818-53.932,124.098-57.603,168.794
					c-6.307,46.316-1.09,90.89,3.389,105.791c1.243-6.301,5.965-6.137,10.326-6.765c-0.288,1.455-0.618,2.867-0.891,4.338
					c19.715-2.796,63.678-12.61,81.513-16.77c3.315-0.778,6.712,1.154,7.725,4.436c21.181,68.834,63.028,180.943,85.146,188.7
					c1.23,0.433,1.708,0.185,2.218-0.159c28.773-19.569,36.301-70.785,36.371-71.301c0.351-2.492,2.097-4.557,4.494-5.316
					c0.65-0.204,1.313-0.306,1.97-0.306c1.778,0,3.512,0.727,4.768,2.065c2.161,2.314,220.393,230.802,595.307,230.802
					c375.189,0,593.146-228.488,595.307-230.795c1.721-1.849,4.347-2.524,6.731-1.766c2.403,0.759,4.15,2.824,4.5,5.316
					c0.07,0.516,7.592,51.733,36.371,71.301c0.51,0.344,1.001,0.586,2.212,0.159c22.118-7.757,63.965-119.86,85.146-188.7
					c1.007-3.283,4.379-5.22,7.725-4.436c16.608,3.873,55.822,12.636,77.153,16.071c1.029,4.466,2.005,9.004,2.915,13.628
					C2449.677,1819.848,2465.861,1764.898,2459.549,1718.673z M1849.616,1151.198c3.115-9.506,7.386-18.665,12.971-27.022
					c5.714-8.262,12.634-15.633,20.407-21.804c15.571-12.41,33.864-20.285,52.421-25.226c18.611-4.99,37.676-7.197,56.628-7.68
					c18.957-0.163,37.902,0.646,56.451,4.034c-18.797-0.508-37.534-0.024-56.032,2.219c-18.493,1.981-36.761,5.51-54.203,11.065
					c-17.295,5.775-34.036,13.494-47.51,25.052c-6.675,5.785-12.758,12.177-17.629,19.448c-2.661,4.09-4.93,8.404-6.911,12.857
					c15.411-3.171,30.776-5.279,46.353-6.769c19.597-1.522,39.314-2.044,58.959-0.592c19.642,1.564,39.126,5.037,58.014,10.544
					c18.67,6.279,36.651,14.579,52.435,25.978c-17.366-8.828-35.345-15.669-54.099-19.7c-18.756-3.893-37.778-5.9-56.864-6.549
					c-19.108-0.222-38.23,0.49-57.227,2.71c-18.936,2.012-38.081,5.121-56.269,9.611l-0.252,0.062
					c-3.444,0.851-6.926-1.253-7.776-4.698C1849.186,1153.532,1849.259,1152.298,1849.616,1151.198z M1224.82,1147.324
					c18.888-5.507,38.372-8.98,58.014-10.544c19.645-1.452,39.364-0.93,58.959,0.592c15.575,1.49,30.942,3.598,46.353,6.769
					c-1.979-4.453-4.25-8.767-6.911-12.857c-4.87-7.271-10.954-13.663-17.628-19.448c-13.473-11.558-30.215-19.277-47.511-25.052
					c-17.441-5.555-35.708-9.084-54.201-11.065c-18.498-2.244-37.236-2.728-56.032-2.219c18.547-3.388,37.493-4.197,56.449-4.034
					c18.952,0.483,38.019,2.69,56.628,7.68c18.557,4.941,36.851,12.816,52.423,25.226c7.773,6.171,14.692,13.542,20.405,21.804
					c5.585,8.358,9.858,17.516,12.971,27.022c1.106,3.372-0.733,7.001-4.105,8.106c-1.179,0.386-2.39,0.413-3.514,0.139
					l-0.276-0.069c-18.189-4.49-37.335-7.599-56.269-9.611c-18.998-2.22-38.119-2.932-57.227-2.71
					c-19.086,0.649-38.109,2.656-56.865,6.549c-18.753,4.031-36.733,10.872-54.099,19.7
					C1188.17,1161.904,1206.15,1153.603,1224.82,1147.324z M1909.816,1786.061c-8.044,39.074-21.443,72.175-38.033,100.413
					c-0.323,1.04-0.829,2.022-1.675,2.818c-7.565,12.56-15.704,24.228-24.384,34.858c-0.236,0.493-0.422,1.005-0.79,1.442
					c-0.376,0.446-0.896,0.744-1.382,1.077c-31.402,37.584-68.575,63.41-103.177,80.966c-1.106,1.209-2.618,1.925-4.232,2.069
					c-57.775,28.385-107.22,34.093-108.294,34.204c-0.223,0.019-0.446,0.032-0.669,0.032c-0.223,0-0.446-0.013-0.669-0.032
					c-1.074-0.111-50.518-5.819-108.294-34.203c-1.621-0.142-3.136-0.861-4.245-2.076c-34.604-17.558-71.775-43.385-103.175-80.97
					c-0.484-0.334-1.004-0.633-1.377-1.08c-0.36-0.428-0.539-0.929-0.77-1.411c-8.309-10.172-16.125-21.286-23.417-33.223
					c-0.854-0.166-1.688-0.494-2.451-1.017c-2.4-1.649-3.262-4.596-2.462-7.245c-15.558-27.398-28.096-59.307-35.777-96.622
					c-26.982-131.043-1.711-210.517,36.18-258.604c0.303-0.567,0.774-1.042,1.249-1.512c35.485-44.088,81.443-61.236,106.177-67.534
					c0.019-0.005,0.038-0.01,0.057-0.014c1.227-0.312,2.456-0.624,3.573-0.885c80.445-18.771,123.388-48.635,128.872-64.342
					v-102.821c-19.693-7.195-96.726-38.214-99.163-83.857c-0.03-0.562,0.013-1.099,0.01-1.651c1.96-0.252,3.629-0.444,4.929-0.586
					c1.087-1.44,21.705-7.828,23.055-9.159c24.929-24.56,68.646-17.134,75.167-16.739c6.527-0.402,57.187-12.558,82.117,12.002
					c1.351,1.331,10.281,13.088,11.368,14.528c3.023,0.332,8.07,1.003,14.672,2.205c-3.08,45.314-79.494,76.096-99.1,83.259v102.822
					c5.479,15.707,48.421,45.57,128.866,64.341c1.109,0.259,2.33,0.569,3.546,0.878c0.043,0.01,0.083,0.02,0.126,0.031
					c24.901,6.347,71.261,23.659,106.816,68.344c0.174,0.239,0.43,0.429,0.567,0.686
					C1911.521,1575.538,1936.795,1655.012,1909.816,1786.061z"/>
			</g>
			<g>
				<path style="fill:#FFFFFF;" d="M1428.912,1917.649c-1.919,1.795-3.439,3.208-4.79,4.447
					c25.589,29.574,54.854,51.273,83.121,67.126c-11.03-40.13-13.738-99.02-14.398-124.211
					C1463.811,1884.975,1441.482,1905.876,1428.912,1917.649z"/>
			</g>
			<g>
				<path style="fill:#FFFFFF;" d="M1462.128,1597.756c1.555-27.196,6.157-90.295,16.487-122.933
					c-23.231,7.751-56.169,23.759-83.382,56.02C1404.566,1541.87,1430.813,1571.767,1462.128,1597.756z"/>
			</g>
			<g>
				<path style="fill:#591124;" d="M1719.828,1205.803c0.351-6.482-1.74-11.856-6.38-16.433
					c-17.867-17.612-67.999-18.345-85.822-17.134c-0.306,0.013-0.593,0.013-0.886,0c-3.257-0.223-7.598-0.376-12.621-0.376
					c-22.45,0-58.604,3.111-73.207,17.51c-4.64,4.577-6.731,9.95-6.38,16.426c1.823,34.318,65.59,63.633,92.648,73.041
					C1654.232,1269.417,1718.005,1240.07,1719.828,1205.803z"/>
			</g>
			<g>
				<path style="fill:#FFFFFF;" d="M1747.11,1989.225c28.269-15.853,57.536-37.553,83.129-67.129
					c-1.358-1.243-2.883-2.662-4.809-4.467c-12.57-11.767-34.892-32.667-63.92-52.619
					C1760.849,1890.202,1758.142,1949.095,1747.11,1989.225z"/>
			</g>
			<g>
				<path style="fill:#FFFFFF;" d="M2222.488,1923.048c1.721-1.849,4.347-2.524,6.731-1.766c2.403,0.759,4.15,2.824,4.5,5.316
					c0.07,0.516,7.592,51.733,36.371,71.301c0.51,0.344,1.001,0.586,2.212,0.159c22.118-7.757,63.965-119.86,85.146-188.7
					c1.007-3.283,4.379-5.22,7.725-4.436c17.81,4.153,61.638,13.937,81.506,16.734c-27.793-149.763-134.408-217.86-232.593-269.909
					l-6.967-3.697c-101.234-53.619-143.138-75.814-243.429-209.117c-83.2-110.591-196.987-135.57-231.332-140.731
					c0.472,2.654,0.665,5.411,0.512,8.289c-2.437,45.644-79.47,76.662-99.163,83.857v102.822
					c5.479,15.707,48.421,45.57,128.866,64.341c1.109,0.259,2.33,0.569,3.546,0.878c0.043,0.01,0.083,0.02,0.126,0.031
					c24.901,6.347,71.261,23.659,106.816,68.344c0.174,0.239,0.43,0.429,0.567,0.686c37.893,48.086,63.166,127.561,36.188,258.609
					c-8.044,39.074-21.443,72.175-38.033,100.413c-0.323,1.04-0.829,2.022-1.675,2.818c-7.565,12.56-15.704,24.228-24.384,34.858
					c-0.236,0.493-0.422,1.005-0.79,1.442c-0.376,0.446-0.896,0.744-1.382,1.077c-31.402,37.584-68.575,63.41-103.177,80.966
					c-1.106,1.209-2.618,1.925-4.232,2.069c-57.775,28.385-107.22,34.093-108.294,34.204c-0.223,0.019-0.446,0.032-0.669,0.032
					c-0.223,0-0.446-0.013-0.669-0.032c-1.074-0.111-50.518-5.819-108.294-34.203c-1.621-0.142-3.136-0.861-4.245-2.076
					c-34.604-17.558-71.775-43.385-103.175-80.97c-0.484-0.334-1.004-0.633-1.377-1.08c-0.36-0.428-0.539-0.929-0.77-1.411
					c-8.309-10.172-16.125-21.286-23.417-33.223c-0.854-0.166-1.688-0.494-2.451-1.017c-2.4-1.649-3.262-4.596-2.462-7.245
					c-15.558-27.398-28.096-59.307-35.777-96.622c-26.982-131.043-1.711-210.517,36.18-258.604c0.303-0.567,0.774-1.042,1.249-1.512
					c35.485-44.088,81.443-61.236,106.177-67.534c0.019-0.005,0.038-0.01,0.057-0.014c1.227-0.312,2.456-0.624,3.573-0.885
					c80.445-18.771,123.388-48.635,128.872-64.342v-102.821c-19.693-7.195-96.726-38.214-99.163-83.857
					c-0.153-2.878,0.042-5.635,0.513-8.29c-34.347,5.161-148.138,30.139-231.34,140.732
					c-100.278,133.296-142.182,155.491-243.416,209.11l-6.98,3.703c-98.191,52.053-204.805,120.151-232.599,269.945
					c19.715-2.796,63.678-12.61,81.513-16.77c3.315-0.778,6.712,1.154,7.725,4.436c21.181,68.834,63.028,180.943,85.146,188.7
					c1.23,0.433,1.708,0.185,2.218-0.159c28.773-19.569,36.301-70.785,36.371-71.301c0.351-2.492,2.097-4.557,4.494-5.316
					c0.65-0.204,1.313-0.306,1.97-0.306c1.778,0,3.512,0.727,4.768,2.065c2.161,2.314,220.393,230.802,595.307,230.802
					C2002.369,2153.843,2220.327,1925.355,2222.488,1923.048z"/>
			</g>
			<g>
				<path style="fill:#FF3569;" d="M1838.595,1912.061c6.591-8.358,12.873-17.297,18.767-26.847
					c-82.536-90.286-167.03-133.363-251.044-127.862c-113.404,7.414-192.687,102.269-210.596,125.672
					c6.271,10.357,12.962,20.056,20.042,29.035c1.31-1.209,2.773-2.576,4.231-3.939c14.253-13.354,40.795-38.207,75.636-60.644
					c2.001-1.288,4.557-1.39,6.642-0.249c2.097,1.135,3.404,3.321,3.417,5.705c0.006,1.005,0.685,98.63,18.029,144.978
					c52.222,25.743,97.403,32.172,103.462,32.931c6.059-0.759,51.235-7.187,103.454-32.927
					c17.352-46.368,18.025-143.977,18.031-144.982c0.013-2.384,1.32-4.57,3.417-5.705c2.078-1.141,4.634-1.039,6.642,0.249
					c34.828,22.431,61.37,47.277,75.623,60.625C1835.811,1909.473,1837.282,1910.848,1838.595,1912.061z"/>
			</g>
			<g>
				<path style="fill:#FFFFFF;" d="M1859.121,1530.843c-27.213-32.26-60.148-48.268-83.379-56.02
					c10.331,32.638,14.928,95.736,16.483,122.932C1823.541,1571.767,1849.788,1541.87,1859.121,1530.843z"/>
			</g>
			<g>
				<path style="fill:#F98903;" d="M960.292,1146.829c-25.715-0.398-80.98,9.269-107.527-71.434
					c-13.003-39.539-18.069-58.038,1.263-86.537c24.745-36.492,55.841-37.168,88.432-39.163
					c52.404-3.141,82.956,26.943,96.888,44.216c26.335-41.063,64.221-98.805,99.325-135.981
					c-18.144-26.56-124.095-165.378-320.68-106.637c-80.25,23.986-137.771,69.089-170.967,134.055
					c-38.895,76.133-41.859,179.668-7.917,276.963c49.969,143.249,238.2,151.406,271.736,151.652
					C918.988,1272.446,940.8,1200.172,960.292,1146.829z"/>
			</g>
			<g>
				<path style="fill:#591124;" d="M1759.603,1470.222c-63.333-14.782-114.269-39.233-132.423-62.486
					c-18.16,23.253-69.096,47.711-132.429,62.486c-0.182,0.043-0.397,0.1-0.583,0.144c-12.366,25.58-18.358,109.541-19.648,140.731
					c-0.102,2.441-1.555,4.621-3.767,5.647c-0.88,0.414-1.817,0.612-2.754,0.612c-1.421,0-2.83-0.465-3.997-1.364
					c-35.107-27.157-64.97-60.55-76.965-74.613c-33.474,46.216-54.628,121.017-29.707,242.049
					c6.867,33.358,17.76,62.255,31.297,87.315c23.924-30.508,102.646-118.903,216.734-126.414
					c87.246-5.772,174.346,37.775,258.859,129.107c14.229-25.681,25.693-55.43,32.809-90.001
					c24.92-121.036,3.761-195.839-29.713-242.056c-11.995,14.063-41.857,47.456-76.965,74.613c-1.167,0.899-2.575,1.364-3.997,1.364
					c-0.937,0-1.874-0.198-2.754-0.612c-2.212-1.026-3.665-3.206-3.767-5.647c-1.291-31.19-7.276-115.15-19.648-140.731
					C1760,1470.323,1759.785,1470.265,1759.603,1470.222z"/>
			</g>
			<g>
				<path style="fill:#F98903;" d="M2316.332,943.379c32.591,1.995,51.039,9.625,75.783,46.111
					c19.333,28.505,26.031,51.872,10.107,90.327c-29.688,71.693-82.462,66.558-108.18,66.956
					c19.492,53.339,41.328,125.666,49.469,167.182c33.553-0.283,221.813-8.54,271.732-151.643
					c33.942-97.301,30.985-200.837-7.917-276.963c-33.197-64.972-90.717-110.069-170.968-134.055
					c-196.614-58.735-302.539,80.076-320.68,106.637c35.104,37.177,80.982,102.143,107.318,143.207
					C2236.944,983.859,2263.996,940.207,2316.332,943.379z"/>
			</g>
			<g>
				<path style="fill:#FFFFFF;" d="M2402.475,982.644c-22.087-32.572-61.479-46.104-90.979-47.908
					c-49.467-2.968-87.08,41.092-96.484,53.257c34.83,56.218,62.014,113.916,82.738,168.371c16.901,0.811,86.427-0.927,112.8-81.116
					C2422.247,1039.699,2419.455,1007.675,2402.475,982.644z"/>
			</g>
			<g>
				<path style="fill:#FFFFFF;" d="M942.864,934.736c-29.506,1.804-68.898,15.336-90.985,47.908
					c-16.974,25.031-19.766,57.055-8.07,92.604c26.096,79.333,96.109,81.682,112.813,81.074
					c20.722-54.446,47.903-112.132,82.727-168.338C1029.988,975.795,992.547,931.696,942.864,934.736z"/>
			</g>
			<g>
				<path style="fill:#591124;" d="M1701.714,1071.821c0,0,22.319-85.489,75.378-112.44c53.059-26.951,100.223-32.425,154.546-129.7
					c0,0-17.055,116.225-109.277,158.546C1745.61,1023.448,1701.714,1071.821,1701.714,1071.821z"/>
			</g>
			<g>
				<path style="fill:#591124;" d="M1907.78,736.943c2.303,0.86-158.692,41.573-201.013,172.326c0,0-22.74-128.858,86.537-186.971
					C1793.304,722.299,1867.5,721.9,1907.78,736.943z"/>
			</g>
			<g>
				<path style="fill:#591124;" d="M2101.314,861.743c0,0,4.24,93.427-74.928,146.487c0,0,112.715-8.364,145.21-73.243
					C2171.596,934.986,2123.183,877.803,2101.314,861.743z"/>
			</g>
			<g>
				<path style="fill:#591124;" d="M2341.538,1340.06c0,0-61.647-80.789-115.548-114.509
					c-53.902-33.72-118.594-27.349-118.594-27.349s68.846,16.369,107.616,93.01c38.771,76.641,92.672,111.77,134.782,116.524
					L2341.538,1340.06z"/>
			</g>
			<g>
				<path style="fill:#591124;" d="M2057.969,1313.955c0,0,189.076,130.498,207.605,283.801
					c18.529,153.303-36.978,219.697-36.978,219.697s5.817-184.304-27.872-273.578S2057.969,1313.955,2057.969,1313.955z"/>
			</g>
			<g>
				<path style="fill:#591124;" d="M2010.384,1558.193c0,0,95.65,75.799,94.989,231.608
					c-0.661,155.809-113.517,213.461-113.517,213.461s69.903-104.434,66.114-222.534
					C2054.179,1662.627,2010.384,1558.193,2010.384,1558.193z"/>
			</g>
			<g>
				<path style="fill:#591124;" d="M1546.326,1071.821c0,0-22.319-85.489-75.378-112.44
					c-53.059-26.951-100.223-32.425-154.546-129.7c0,0,17.055,116.225,109.277,158.546
					C1502.43,1023.448,1546.326,1071.821,1546.326,1071.821z"/>
			</g>
			<g>
				<path style="fill:#591124;" d="M1340.259,736.943c-2.303,0.86,158.692,41.573,201.013,172.326c0,0,22.74-128.858-86.537-186.971
					C1454.735,722.299,1380.539,721.9,1340.259,736.943z"/>
			</g>
			<g>
				<path style="fill:#591124;" d="M1146.725,861.743c0,0-4.239,93.427,74.928,146.487c0,0-112.714-8.364-145.21-73.243
					C1076.443,934.986,1124.856,877.803,1146.725,861.743z"/>
			</g>
			<g>
				<path style="fill:#591124;" d="M906.502,1340.06c0,0,61.647-80.789,115.548-114.509c53.902-33.72,118.594-27.349,118.594-27.349
					s-68.846,16.369-107.616,93.01c-38.77,76.641-92.672,111.77-134.782,116.524L906.502,1340.06z"/>
			</g>
			<g>
				<path style="fill:#591124;" d="M1190.071,1313.955c0,0-189.076,130.498-207.605,283.801
					c-18.529,153.303,36.978,219.697,36.978,219.697s-5.817-184.304,27.872-273.578
					C1081.005,1454.601,1190.071,1313.955,1190.071,1313.955z"/>
			</g>
			<g>
				<path style="fill:#591124;" d="M1237.656,1558.193c0,0-95.65,75.799-94.989,231.608
					c0.661,155.809,113.517,213.461,113.517,213.461s-69.903-104.434-66.113-222.534
					C1193.861,1662.627,1237.656,1558.193,1237.656,1558.193z"/>
			</g>
			<g>
				<path style="fill:#591124;" d="M1626.457,738.722l-51.254-13.897c0,0,33.005,114.962,51.254,257.717
					c18.25-142.755,51.254-257.717,51.254-257.717L1626.457,738.722z"/>
			</g>
			<g>
				<path style="fill:none;" d="M931.834,1229.491c30.905-103.948,87.055-231.266,178.699-339.947v-0.066
					c0,0-92.272-105.276-198.392-117.067c-105.711-11.745-254.478,95.325-255.619,96.147c-2.518,4.125-4.934,8.337-7.233,12.642
					C643.936,957.893,659.138,1151.839,931.834,1229.491z"/>
			</g>
			<g>
				<path style="fill:none;" d="M2342.236,772.41c-106.118,11.791-198.391,117.067-198.391,117.067v0.094
					c91.633,108.677,147.777,235.984,178.682,339.924c272.657-77.634,287.908-271.521,282.566-348.249
					c-2.314-4.332-4.742-8.568-7.278-12.718C2595.828,867.097,2447.642,760.698,2342.236,772.41z"/>
			</g>
			<g>
				<path style="fill:none;" d="M1761.509,1865.011c-0.66,25.191-3.367,84.083-14.399,124.214
					c28.269-15.853,57.536-37.553,83.129-67.129c-1.358-1.243-2.883-2.662-4.809-4.467
					C1812.859,1905.863,1790.537,1884.962,1761.509,1865.011z"/>
			</g>
			<g>
				<path style="fill:none;" d="M1428.912,1917.649c-1.919,1.795-3.439,3.208-4.79,4.447c25.589,29.574,54.854,51.273,83.121,67.126
					c-11.03-40.13-13.738-99.02-14.398-124.211C1463.811,1884.975,1441.482,1905.876,1428.912,1917.649z"/>
			</g>
			<g>
				<path style="fill:none;" d="M1462.128,1597.756c1.555-27.196,6.157-90.295,16.487-122.933
					c-23.231,7.751-56.169,23.759-83.382,56.02C1404.566,1541.87,1430.813,1571.767,1462.128,1597.756z"/>
			</g>
			<g>
				<path style="fill:none;" d="M2431.51,1784.747c-5.896,12.633-74.957-13.054-85.064-8.205
					c-10.106,4.849-34.529,101.69-51.795,136.22c-13.292,26.583-36.508,49.363-46.519,58.469
					c5.359,10.357,12.489,20.23,21.957,26.668c0.51,0.344,1.001,0.586,2.212,0.159c22.118-7.757,63.965-119.86,85.146-188.7
					c1.007-3.283,4.379-5.22,7.725-4.436c20.882,4.87,77.656,17.516,89.474,17.516c6.234-2.741,13.029-44.25,4.902-103.765
					c-0.013-0.115-0.025-0.229-0.038-0.344c-2.486-30.267-15.317-67.692-31.944-108.511
					C2443.938,1677.516,2436.739,1773.54,2431.51,1784.747z"/>
			</g>
			<g>
				<path style="fill:none;" d="M1606.318,1757.352c-113.404,7.414-192.687,102.269-210.596,125.672
					c6.271,10.357,12.962,20.056,20.042,29.035c1.31-1.209,2.773-2.576,4.231-3.939c14.253-13.354,40.795-38.207,75.636-60.644
					c2.001-1.288,4.557-1.39,6.642-0.249c2.097,1.135,3.404,3.321,3.417,5.705c0.005,0.727,0.367,52.045,7.136,97.918
					c17.433,5.719,72.423,22.714,114.01,24.026c41.612-1.313,97.136-18.329,114.698-24.036c6.769-45.876,7.128-97.18,7.133-97.908
					c0.013-2.384,1.32-4.57,3.417-5.705c2.078-1.141,4.634-1.039,6.642,0.249c34.828,22.431,61.37,47.277,75.623,60.625
					c1.464,1.372,2.935,2.747,4.248,3.96c6.591-8.358,12.873-17.297,18.767-26.847
					C1774.826,1794.929,1690.332,1751.851,1606.318,1757.352z"/>
			</g>
			<g>
				<path style="fill:none;" d="M1719.828,1205.803c0.351-6.482-1.74-11.856-6.38-16.433
					c-17.867-17.612-67.999-18.345-85.822-17.134c-0.306,0.013-0.593,0.013-0.886,0c-3.257-0.223-7.598-0.376-12.621-0.376
					c-22.45,0-58.604,3.111-73.207,17.51c-4.64,4.577-6.731,9.95-6.38,16.426c1.823,34.318,65.59,63.633,92.648,73.041
					C1654.232,1269.417,1718.005,1240.07,1719.828,1205.803z"/>
			</g>
			<g>
				<path style="fill:none;" d="M1867.317,1541.379c-11.995,14.063-41.857,47.456-76.965,74.613
					c-1.167,0.899-2.575,1.364-3.997,1.364c-0.937,0-1.874-0.198-2.754-0.612c-2.212-1.026-3.665-3.206-3.767-5.647
					c-1.291-31.19-7.276-115.15-19.648-140.731c-0.187-0.044-0.402-0.102-0.583-0.145c-63.333-14.782-114.269-39.233-132.423-62.486
					c-18.16,23.253-69.096,47.711-132.429,62.486c-0.182,0.043-0.397,0.1-0.583,0.144c-12.366,25.58-18.358,109.541-19.648,140.731
					c-0.102,2.441-1.555,4.621-3.767,5.647c-0.88,0.414-1.817,0.612-2.754,0.612c-1.421,0-2.83-0.465-3.997-1.364
					c-35.107-27.157-64.97-60.55-76.965-74.613c-33.474,46.216-54.628,121.017-29.707,242.049
					c6.867,33.358,17.76,62.255,31.297,87.315c23.924-30.508,102.646-118.903,216.734-126.414
					c87.246-5.772,174.346,37.775,258.859,129.107c14.229-25.681,25.693-55.43,32.809-90.001
					C1921.95,1662.399,1900.791,1587.596,1867.317,1541.379z"/>
			</g>
			<g>
				<path style="fill:none;" d="M959.727,1912.763c-17.266-34.53-41.69-131.371-51.796-136.22s-79.167,20.838-85.063,8.205
					c-5.235-11.216-12.439-107.374,3.981-175.08c-16.657,40.878-29.516,78.358-32.005,108.662
					c-8.153,59.859-1.37,101.368,5.029,104.141c11.652-0.032,68.433-12.678,89.308-17.548c3.315-0.778,6.712,1.154,7.725,4.436
					c21.181,68.834,63.028,180.943,85.146,188.7c1.23,0.433,1.708,0.185,2.218-0.159c9.47-6.441,16.601-16.318,21.96-26.68
					C996.213,1962.106,973.011,1939.334,959.727,1912.763z"/>
			</g>
			<g>
				<path style="fill:none;" d="M1859.121,1530.843c-27.213-32.26-60.148-48.268-83.379-56.02
					c10.331,32.638,14.928,95.736,16.483,122.932C1823.541,1571.767,1849.788,1541.87,1859.121,1530.843z"/>
			</g>
			<g>
				<path style="fill:none;" d="M887.718,1629.78c5.053,11.791,57.992-45.009,69-28.4c11.008,16.609-5.836,122.728,14.378,163.996
					c20.213,41.268,39.442-39.695,48.777-29.533c9.335,10.162,198.95,355.045,607.315,345.783
					c408.366,9.262,597.98-335.621,607.315-345.783c9.337-10.162,28.566,70.801,48.778,29.533s3.369-147.387,14.377-163.996
					c11.008-16.609,63.949,40.191,69.002,28.4c5.053-11.791-25.688-235.398-25.688-235.398l3.641,2.883
					c-2.871-11.64-5.069-22.921-6.352-33.696c-3.596-30.219-11.008-68.809-23-112.236c-3.546-7.135-129.483-259.779-233.27-365.225
					c-105.275-106.961-256.031-116.225-285.508-116.225c-29.477,0-169.296,16.002-169.296,16.002s-139.817-16.002-169.294-16.002
					c-29.477,0-180.234,9.264-285.509,116.225c-104.533,106.206-231.523,361.709-233.31,365.31
					c-11.979,43.392-19.381,81.951-22.976,112.15c-1.283,10.78-3.484,22.066-6.357,33.712l3.662-2.899
					C913.404,1394.383,882.664,1617.989,887.718,1629.78z M1572.928,1267.996c-25.094-14.782-50.067-35.829-51.438-61.504
					c-0.548-10.281,2.907-19.174,10.262-26.427c24.929-24.56,88.907-21.277,95.427-20.882c6.527-0.401,70.492-3.678,95.421,20.882
					c7.362,7.247,10.817,16.139,10.269,26.427c-1.37,25.683-26.36,46.735-51.463,61.518l0.041-0.014
					c0,0-7.085,80.486,26.603,117.544c33.689,37.057,115.383,8.422,199.898,104.698c84.515,96.275,6.597,327.216,6.597,327.216
					s-5.362-7.028-9.284-12.241c-8.14,30.857-19.679,57.773-33.479,81.262c-0.323,1.04-0.829,2.022-1.675,2.818
					c-7.565,12.56-15.704,24.228-24.384,34.858c-0.236,0.493-0.422,1.005-0.79,1.442c-0.376,0.446-0.896,0.744-1.382,1.077
					c-31.402,37.584-68.575,63.41-103.177,80.966c-1.106,1.209-2.618,1.925-4.232,2.069
					c-57.775,28.385-107.22,34.093-108.294,34.204c-0.223,0.019-0.446,0.032-0.669,0.032c-0.223,0-0.446-0.013-0.669-0.032
					c-1.074-0.111-50.518-5.819-108.294-34.203c-1.621-0.142-3.136-0.861-4.245-2.076c-34.604-17.558-71.775-43.385-103.175-80.97
					c-0.484-0.334-1.004-0.633-1.377-1.08c-0.36-0.428-0.539-0.929-0.77-1.411c-8.309-10.172-16.125-21.286-23.417-33.223
					c-0.854-0.166-1.688-0.494-2.451-1.017c-2.4-1.649-3.262-4.596-2.462-7.245c-12.815-22.568-23.532-48.258-31.222-77.449
					c-3.92,5.21-9.266,12.219-9.266,12.219s-77.919-230.941,6.596-327.216c84.515-96.276,166.209-67.641,199.898-104.698
					S1572.928,1267.996,1572.928,1267.996z M1224.82,1147.324c18.888-5.507,38.372-8.98,58.014-10.544
					c19.645-1.452,39.364-0.93,58.959,0.592c15.575,1.49,30.942,3.598,46.353,6.769c-1.979-4.453-4.25-8.767-6.911-12.857
					c-4.87-7.271-10.954-13.663-17.628-19.448c-13.473-11.558-30.215-19.277-47.511-25.052
					c-17.441-5.555-35.708-9.084-54.201-11.065c-18.498-2.244-37.236-2.728-56.032-2.219c18.547-3.388,37.493-4.197,56.449-4.034
					c18.952,0.483,38.019,2.69,56.628,7.68c18.557,4.941,36.851,12.816,52.423,25.226c7.773,6.171,14.692,13.542,20.405,21.804
					c5.585,8.358,9.858,17.516,12.971,27.022c1.106,3.372-0.733,7.001-4.105,8.106c-1.179,0.386-2.39,0.413-3.514,0.139
					l-0.276-0.069c-18.189-4.49-37.335-7.599-56.269-9.611c-18.998-2.22-38.119-2.932-57.227-2.71
					c-19.086,0.649-38.109,2.656-56.865,6.549c-18.753,4.031-36.733,10.872-54.099,19.7
					C1188.17,1161.904,1206.15,1153.603,1224.82,1147.324z"/>
			</g>
			<g style="opacity:0.25;">
				<path style="fill:#591124;" d="M639.11,1162.312c49.969,143.249,238.2,151.406,271.736,151.652
					c4.985-25.42,11.912-53.95,20.987-84.473c-272.696-77.652-287.898-271.597-282.545-348.291
					c-0.744,1.391-1.541,2.739-2.261,4.149C608.132,961.482,605.168,1065.017,639.11,1162.312z"/>
			</g>
			<g style="opacity:0.25;">
				<path style="fill:#591124;" d="M653.447,849.258c-0.046,0.09-0.088,0.183-0.134,0.273c0.037-0.051,0.072-0.102,0.107-0.153
					C653.432,849.331,653.447,849.258,653.447,849.258z"/>
			</g>
			<g style="opacity:0.25;">
				<path style="fill:#591124;" d="M1346.427,1490.237c-84.515,96.275-6.596,327.216-6.596,327.216s5.346-7.008,9.266-12.219
					c-1.644-6.246-3.2-12.596-4.554-19.173c-26.982-131.043-1.711-210.517,36.18-258.604c0.303-0.567,0.774-1.042,1.249-1.512
					c35.485-44.088,81.443-61.236,106.177-67.534c0.019-0.005,0.038-0.01,0.057-0.014c1.227-0.312,2.456-0.624,3.573-0.885
					c80.445-18.771,123.388-48.635,128.872-64.342v-102.821c-8.615-3.148-28.206-10.856-47.725-22.353
					c0,0,7.086,80.486-26.603,117.544S1430.942,1393.962,1346.427,1490.237z"/>
			</g>
			<g style="opacity:0.25;">
				<path style="fill:#591124;" d="M2600.93,849.258c0,0,0.016,0.078,0.035,0.159c0.046,0.068,0.094,0.135,0.14,0.204
					C2601.045,849.501,2600.991,849.377,2600.93,849.258z"/>
			</g>
			<g style="opacity:0.25;">
				<path style="fill:#591124;" d="M2322.527,1229.496c9.074,30.518,16.001,59.043,20.985,84.459
					c33.553-0.283,221.813-8.54,271.732-151.643c33.942-97.301,30.985-200.837-7.917-276.963c-0.712-1.394-1.5-2.727-2.234-4.102
					C2610.434,957.975,2595.184,1151.862,2322.527,1229.496z"/>
			</g>
			<g style="opacity:0.25;">
				<path style="fill:#591124;" d="M822.868,1784.747c5.896,12.633,74.957-13.054,85.063-8.205s34.53,101.69,51.796,136.22
					c13.284,26.571,36.486,49.343,46.504,58.457c10.922-21.119,14.363-44.275,14.41-44.621c0.351-2.492,2.097-4.557,4.494-5.316
					c0.65-0.204,1.313-0.306,1.97-0.306c0.665,0,1.297,0.2,1.927,0.396c0.002-0.006,0.022-0.064,0.022-0.064s0.076,0.07,0.097,0.089
					c1.01,0.337,1.963,0.837,2.722,1.644c0.266,0.285,3.842,4.027,10.548,10.32c6.255,5.635,12.887,11.604,15.75,14.153
					c68.422,59.353,268.226,206.328,569.009,206.328c300.465,0,499.953-146.446,568.66-206.002
					c2.644-2.349,9.59-8.599,16.093-14.458c6.71-6.304,10.288-10.051,10.554-10.335c1.721-1.849,4.347-2.524,6.731-1.766
					c2.403,0.759,4.15,2.824,4.5,5.316c0.048,0.347,3.487,23.511,14.414,44.633c10.011-9.105,33.227-31.885,46.519-58.469
					c17.266-34.53,41.689-131.371,51.795-136.22c10.108-4.849,79.168,20.838,85.064,8.205
					c5.229-11.207,12.428-107.231-3.944-174.929c-7.927-19.459-16.707-39.681-25.659-60.283
					c-22.537-51.868-45.665-105.139-57.294-152.27l-3.641-2.883c0,0,30.741,223.607,25.688,235.398
					c-5.053,11.791-57.994-45.009-69.002-28.4c-11.008,16.609,5.835,122.728-14.377,163.996s-39.442-39.695-48.778-29.533
					c-9.335,10.162-198.948,355.045-607.315,345.783c-408.365,9.262-597.98-335.621-607.315-345.783
					c-9.335-10.162-28.564,70.801-48.777,29.533c-20.214-41.268-3.37-147.387-14.378-163.996c-11.008-16.609-63.947,40.191-69,28.4
					c-5.055-11.791,25.686-235.398,25.686-235.398l-3.662,2.899c-11.63,47.127-34.757,100.392-57.296,152.254
					c-8.93,20.548-17.688,40.719-25.599,60.132C810.428,1677.373,817.633,1773.531,822.868,1784.747z"/>
			</g>
			<g style="opacity:0.25;">
				<path style="fill:#591124;" d="M1512.825,1950.851c2.585,17.52,6.1,34.25,10.893,47.06
					c52.222,25.743,97.403,32.172,103.462,32.931c6.059-0.759,51.235-7.187,103.454-32.927c4.797-12.816,8.314-29.551,10.898-47.074
					c-17.562,5.708-73.086,22.724-114.698,24.036C1585.248,1973.565,1530.258,1956.569,1512.825,1950.851z"/>
			</g>
			<g style="opacity:0.25;">
				<path style="fill:#591124;" d="M1633.707,1393.171c5.479,15.707,48.421,45.57,128.866,64.341
					c1.109,0.259,2.33,0.569,3.546,0.878c0.043,0.01,0.083,0.02,0.126,0.031c24.901,6.347,71.261,23.659,106.816,68.344
					c0.174,0.239,0.43,0.429,0.567,0.686c37.893,48.086,63.166,127.561,36.188,258.609c-1.353,6.571-2.91,12.912-4.554,19.151
					c3.922,5.212,9.284,12.241,9.284,12.241s77.918-230.941-6.597-327.216c-84.515-96.276-166.209-67.641-199.898-104.698
					c-33.688-37.057-26.603-117.544-26.603-117.544l-0.041,0.014c-19.51,11.489-39.088,19.193-47.699,22.339V1393.171z"/>
			</g>
			<g style="opacity:0.4;">
				<path style="fill:#FFFFFF;" d="M912.141,772.41c106.12,11.791,198.392,117.067,198.392,117.067v0.066
					c9.045-10.727,18.396-21.291,28.142-31.613c-18.144-26.56-124.095-165.378-320.68-106.637
					c-73.118,21.854-127.298,61.297-161.473,117.263C657.662,867.735,806.43,760.665,912.141,772.41z"/>
			</g>
			<g style="opacity:0.4;">
				<path style="fill:#FFFFFF;" d="M2342.236,772.41c105.406-11.712,253.592,94.687,255.58,96.119
					c-34.175-55.956-88.349-95.384-161.456-117.234c-196.614-58.735-302.539,80.076-320.68,106.637
					c9.756,10.331,19.113,20.905,28.166,31.641v-0.094C2143.845,889.477,2236.117,784.201,2342.236,772.41z"/>
			</g>
			<g style="opacity:0.4;">
				<path style="fill:#FFFFFF;" d="M1457.894,769.884c29.477,0,169.294,16.002,169.294,16.002s139.819-16.002,169.296-16.002
					c29.477,0,180.232,9.264,285.508,116.225c103.787,105.446,229.724,358.09,233.27,365.225
					c-30.437-110.221-90.628-251.792-194.333-368.349c-6.537-6.572-13.145-13.278-13.284-14.583
					c-10.081-10.733-20.538-21.23-31.406-31.433c-180.714-169.661-444.54-92.789-447.172-91.998c-1.237,0.37-2.537,0.37-3.773,0
					c-2.633-0.79-266.452-77.682-447.179,91.998c-10.855,10.19-21.299,20.674-31.367,31.393c-0.041,1.25-6.897,8.187-13.569,14.893
					c-103.582,116.534-163.701,258.016-194.104,368.164c1.786-3.601,128.777-259.105,233.31-365.31
					C1277.66,779.148,1428.417,769.884,1457.894,769.884z"/>
			</g>
			<g style="opacity:0.4;">
				<path style="fill:#FFFFFF;" d="M1133.179,883.255c6.672-6.706,13.528-13.643,13.569-14.893
					C1142.136,873.273,1137.63,878.248,1133.179,883.255z"/>
			</g>
			<g style="opacity:0.4;">
				<path style="fill:#FFFFFF;" d="M1133.179,883.255c6.672-6.706,13.528-13.643,13.569-14.893
					C1142.136,873.273,1137.63,878.248,1133.179,883.255z"/>
			</g>
			<g style="opacity:0.4;">
				<path style="fill:#FFFFFF;" d="M2107.645,868.402c0.139,1.306,6.747,8.011,13.284,14.583
					C2116.568,878.084,2112.159,873.21,2107.645,868.402z"/>
			</g>
			<g style="opacity:0.4;">
				<path style="fill:#FFFFFF;" d="M2107.645,868.402c0.139,1.306,6.747,8.011,13.284,14.583
					C2116.568,878.084,2112.159,873.21,2107.645,868.402z"/>
			</g>
			<g>
				<g>
					<path style="fill:#591124;" d="M1205.862,1073.501c64.888-17.537,150.986-14.058,194.223,45.06
						c6.305,9.13,10.938,19.288,14.37,29.686c4.28,11.824-7.389,24.351-19.41,21.137c-72.876-16.081-151.252-23.507-222.661,3.918
						c61.484-53.63,154.565-53.599,230.415-36.312c0,0.001-20.22,20.939-20.22,20.939
						C1360.677,1089.418,1267.902,1079.99,1205.862,1073.501L1205.862,1073.501z"/>
				</g>
				<g>
					<path style="fill:#591124;" d="M911.119,1337.211c-37.275,0-238.208-7.529-293.926-167.256
						c-35.989-103.164-32.564-213.506,9.163-295.169c36.194-70.835,98.435-119.868,184.995-145.737
						c119.734-35.789,208.481-1.128,261.846,34.243c57.612,38.191,86.741,84.602,87.952,86.56c4.854,7.835,2.434,18.12-5.403,22.971
						c-7.825,4.849-18.096,2.437-22.956-5.376l0,0c-4.29-6.87-107.38-167.544-311.882-106.421
						c-77.488,23.157-132.944,66.541-164.832,128.945c-37.659,73.706-40.415,174.263-7.368,268.992
						c52.214,149.68,264.885,144.919,267.041,144.817c9.128-0.291,16.907,6.953,17.192,16.167
						c0.283,9.212-6.956,16.909-16.167,17.192C916.05,1337.162,914.11,1337.211,911.119,1337.211z"/>
				</g>
				<g>
					<path style="fill:#591124;" d="M1468.004,1627.519c-3.633,0-7.236-1.184-10.212-3.489
						c-45.667-35.325-82.749-81.091-84.304-83.023c-5.781-7.175-4.653-17.676,2.52-23.459c7.173-5.781,17.681-4.658,23.464,2.512
						c0.283,0.354,23.083,28.464,53.792,56.489c2.837-39.194,9.146-98.318,22.168-120.332c4.695-7.93,14.927-10.549,22.861-5.864
						c7.93,4.695,10.557,14.929,5.864,22.861c-10.208,17.249-17.537,91.26-19.483,138.306c-0.256,6.235-3.972,11.807-9.631,14.441
						C1472.796,1627.006,1470.394,1627.519,1468.004,1627.519z"/>
				</g>
				<g>
					<path style="fill:#591124;" d="M1518.78,2019.955c-6.575,0-12.808-3.916-15.452-10.381
						c-13.45-32.893-18.227-89.797-19.922-125.222c-21.072,15.92-37.483,31.289-47.542,40.708
						c-10.791,10.103-14.434,13.506-22.337,13.03c-4.575-0.273-8.948-2.468-11.892-5.979c-5.925-7.058-5.007-17.585,2.053-23.508
						c0.938-0.789,1.936-1.455,2.979-2.002c1.501-1.333,4.063-3.731,6.384-5.903c13.459-12.603,41.467-38.828,77.075-61.763
						c5.125-3.291,11.633-3.545,16.99-0.637c5.356,2.903,8.704,8.496,8.733,14.587c0.005,1.004,0.696,100.833,18.372,144.06
						c3.486,8.53-0.601,18.274-9.131,21.76C1523.023,2019.55,1520.885,2019.95,1518.78,2019.955z M1420.579,1905.871
						c2.49,0.986,4.778,2.588,6.619,4.785C1425.252,1908.337,1422.96,1906.796,1420.579,1905.871z"/>
				</g>
				<g>
					<path style="fill:#591124;" d="M1627.178,2177.06c-201.169,0-356.663-64.507-451.682-118.623
						c-67.315-38.335-114.146-76.46-139.221-99.028c-6.568,19.434-18.42,43.731-38.953,57.69
						c-6.831,4.648-14.985,5.669-22.957,2.866c-13.933-4.888-32.813-21.853-67.2-110.593
						c-12.041-31.072-22.148-61.152-27.749-78.399c-24.297,5.476-67.019,14.678-79.709,14.678c-6.816,0-13.225-3.042-18.047-8.567
						c-21.919-25.108-11.482-109.448-9.917-121.106c4.114-48.455,30.977-110.266,59.412-175.696
						c27.439-63.142,55.815-128.435,61.89-179.456c14.341-120.464,87.175-369.924,269.182-540.786
						c178.965-168.013,426.211-109.253,464.951-98.667c38.745-10.591,285.984-69.343,464.951,98.667
						c182.012,170.869,254.841,420.325,269.18,540.786c6.074,51.021,34.451,116.313,61.892,179.456
						c28.435,65.43,55.298,127.241,59.412,175.696c1.565,11.658,12.002,95.999-9.917,121.106c-4.822,5.525-11.23,8.567-18.047,8.567
						c-12.693,0-55.413-9.202-79.712-14.678c-5.598,17.246-15.706,47.324-27.747,78.399c-34.387,88.74-53.267,105.705-67.2,110.593
						c-7.974,2.803-16.128,1.782-22.959-2.866c-20.53-13.958-32.385-38.254-38.953-57.69
						c-25.076,22.568-71.904,60.693-139.219,99.028C1983.841,2112.553,1828.348,2177.06,1627.178,2177.06z M1027.115,1910.827
						c4.543,0,8.975,1.853,12.178,5.278c2.124,2.266,217.768,227.576,587.886,227.576s585.757-225.31,587.893-227.585
						c4.395-4.685,11.096-6.433,17.224-4.495c6.125,1.946,10.596,7.229,11.484,13.594c1.743,12.188,10.024,45.217,27.9,61.086
						c17.695-16.968,52.559-103.547,76.062-179.912c2.581-8.379,11.191-13.347,19.741-11.343
						c31.067,7.248,66.663,14.709,81.516,16.724c3.855-11.936,6.67-46.338,0.483-91.702c-0.039-0.295-0.071-0.593-0.095-0.889
						c-3.535-43.018-29.407-102.549-56.797-165.574c-28.401-65.351-57.769-132.927-64.421-188.813
						c-13.806-115.979-83.867-356.096-258.882-520.4c-176.641-165.818-434.7-90.452-437.288-89.673
						c-3.145,0.947-6.499,0.947-9.644,0c-2.578-0.779-260.999-75.82-437.288,89.673c-175.01,164.297-245.076,404.419-258.884,520.4
						c-6.653,55.886-36.021,123.462-64.419,188.813c-27.39,63.025-53.262,122.556-56.797,165.574
						c-0.024,0.295-0.056,0.593-0.095,0.889c-6.187,45.364-3.372,79.766,0.483,91.702c14.856-2.014,50.449-9.475,81.516-16.724
						c8.538-2,17.163,2.964,19.741,11.343c23.503,76.365,58.364,162.942,76.06,179.912c17.876-15.869,26.157-48.901,27.905-61.113
						c0.911-6.358,5.388-11.643,11.514-13.569C1023.743,1911.078,1025.438,1910.827,1027.115,1910.827z M1627.178,2054.101
						c-0.571,0-1.14-0.029-1.709-0.088c-2.475-0.259-61.367-6.655-126.731-42.388c-60.728-33.196-138.499-98.921-164.15-223.513
						c-55.479-269.463,104.526-328.748,154.888-340.498c78.435-18.301,118.542-47.224,121.692-57.939
						c2.09-7.102,8.608-11.98,16.011-11.98c7.402,0,13.921,4.878,16.011,11.98c3.149,10.715,43.257,39.639,121.692,57.939
						c50.361,11.75,210.364,71.038,154.888,340.498l0,0c-25.652,124.592-103.425,190.317-164.15,223.513
						c-65.364,35.732-124.255,42.129-126.731,42.388C1628.319,2054.072,1627.75,2054.101,1627.178,2054.101z M1627.178,1422.516
						c-26.631,24.885-79.902,45.881-130.12,57.598c-55.027,12.842-177.83,67.903-129.78,301.27
						c42.461,206.243,237.876,236.472,259.902,239.226c21.919-2.739,217.407-32.966,259.897-239.226l0,0
						c48.045-233.367-74.753-288.428-129.78-301.27C1707.081,1468.398,1653.809,1447.402,1627.178,1422.516z M1903.423,1784.748
						h0.049H1903.423z M1627.178,1302.424c-1.782,0-3.564-0.286-5.276-0.857c-10.996-3.665-107.515-37.453-110.559-94.529
						c-0.698-13.132,3.892-24.963,13.281-34.211c27.361-26.953,90.945-24.517,102.554-23.826
						c11.624-0.691,75.198-3.128,102.554,23.826c9.39,9.248,13.979,21.079,13.281,34.211
						c-3.044,57.075-99.563,90.864-110.559,94.529C1630.743,1302.138,1628.961,1302.424,1627.178,1302.424z M1613.524,1181.977
						c-24.146,0-54.731,4.023-65.486,14.634c-2.583,2.549-3.557,5.054-3.364,8.65c1.365,25.603,53.049,51.978,82.495,62.788
						c29.441-10.845,81.155-37.271,82.515-62.788c0.193-3.601-0.784-6.108-3.374-8.66c-14.026-13.818-58.606-15.557-77.993-14.231
						c-0.754,0.051-1.509,0.049-2.263,0.002l0,0C1622.205,1182.114,1617.974,1181.977,1613.524,1181.977z"/>
				</g>
				<g>
					<path style="fill:#591124;" d="M2048.494,1073.501c-61.993,6.479-154.826,15.918-176.718,84.427
						c0.001,0.001-20.219-20.936-20.219-20.936c75.837-17.288,168.937-17.32,230.415,36.31
						c-71.381-27.418-149.744-19.998-222.597-3.935c-8.819,2.137-17.702-3.28-19.839-12.099c-0.745-3.074-0.549-6.221,0.366-9.021
						c3.433-10.398,8.065-20.557,14.37-29.685C1897.524,1059.436,1983.582,1055.968,2048.494,1073.501L2048.494,1073.501z"/>
				</g>
				<g>
					<path style="fill:#591124;" d="M2343.238,1337.211c-2.993,0-4.929-0.049-5.654-0.071c-9.211-0.283-16.45-7.981-16.167-17.192
						c0.283-9.214,7.986-16.519,17.192-16.167c2.141,0.078,214.949,4.517,267.041-144.817
						c33.044-94.727,30.291-195.286-7.371-268.989c-31.885-62.405-87.344-105.791-164.832-128.948
						c-205.203-61.335-310.823,104.712-311.865,106.394c-4.851,7.832-15.137,10.254-22.971,5.403
						c-7.837-4.851-10.256-15.137-5.403-22.971c1.211-1.958,30.337-48.369,87.952-86.56
						c53.362-35.371,142.114-70.024,261.843-34.243c86.56,25.869,148.804,74.902,184.998,145.74
						c41.724,81.66,45.149,192.004,9.163,295.166C2581.448,1329.672,2380.533,1337.211,2343.238,1337.211z"/>
				</g>
				<g>
					<path style="fill:#591124;" d="M1786.353,1627.519c-2.39,0-4.792-0.513-7.038-1.558c-5.657-2.634-9.375-8.205-9.631-14.441
						c-1.946-47.043-9.277-121.057-19.485-138.306c-4.692-7.932-2.065-18.167,5.864-22.861c7.925-4.69,18.167-2.068,22.861,5.864
						c13.023,22.014,19.331,81.138,22.168,120.332c30.71-28.027,53.511-56.135,53.794-56.489c5.791-7.173,16.296-8.293,23.464-2.512
						c7.173,5.784,8.301,16.287,2.519,23.459c-1.557,1.931-38.64,47.698-84.304,83.023
						C1793.59,1626.335,1789.986,1627.519,1786.353,1627.519z"/>
				</g>
				<g>
					<path style="fill:#591124;" d="M1735.577,2019.955c-2.104,0-4.243-0.4-6.311-1.25c-8.53-3.486-12.617-13.23-9.131-21.76
						c17.676-43.227,18.367-143.057,18.372-144.06c0.029-6.091,3.376-11.685,8.733-14.587c5.359-2.908,11.868-2.654,16.99,0.64
						c35.605,22.93,63.613,49.155,77.073,61.758c2.322,2.175,4.883,4.573,6.387,5.906c1.04,0.547,2.041,1.213,2.979,2.002
						c7.06,5.923,7.979,16.45,2.053,23.508c-2.944,3.511-7.317,5.706-11.892,5.979c-7.883,0.474-11.545-2.927-22.336-13.032
						c-10.061-9.419-26.472-24.783-47.542-40.706c-1.694,35.425-6.472,92.329-19.922,125.222
						C1748.385,2016.039,1742.152,2019.95,1735.577,2019.955z M1833.809,1905.859c-2.393,0.923-4.695,2.466-6.65,4.797
						C1829.01,1908.452,1831.307,1906.845,1833.809,1905.859z"/>
				</g>
				<g>
					<path style="fill:#591124;" d="M1627.178,1411.069c-9.216,0-16.687-7.471-16.687-16.687v-108.645
						c0-9.216,7.471-16.687,16.687-16.687c9.216,0,16.687,7.471,16.687,16.687v108.645
						C1643.865,1403.598,1636.395,1411.069,1627.178,1411.069z"/>
				</g>
				<g>
					<path style="fill:#591124;" d="M1865.67,1901.237c-4.565,0-9.111-1.86-12.405-5.52
						c-81.399-90.391-164.221-133.582-246.143-128.237c-123.762,8.008-206.079,125.347-206.895,126.531
						c-5.229,7.576-15.613,9.5-23.203,4.277c-7.585-5.22-9.514-15.591-4.302-23.184c3.689-5.371,91.953-131.697,231.973-140.911
						c92.766-6.138,184.702,40.728,273.369,139.189c6.167,6.848,5.615,17.4-1.233,23.567
						C1873.643,1899.823,1869.649,1901.237,1865.67,1901.237z"/>
				</g>
				<g>
					<path style="fill:#591124;" d="M1530.41,1214.797c-72.467,7.945-148.753,33.635-197.28,90.617
						c-30.921,34.455-60.631,70.139-92.237,104.295c-28.203,30.034-58.01,59.859-93.933,80.528
						c34.332-22.982,61.639-54.298,87.634-85.999c25.828-31.968,50.145-65.193,75.422-97.94
						c12.464-16.386,26.341-34.104,42.003-47.719c40.642-35.411,91.132-57.089,142.868-70.362
						c10.511-2.595,20.582-4.854,32.012-6.611C1549.771,1178.947,1553.492,1212.53,1530.41,1214.797L1530.41,1214.797z"/>
				</g>
				<g>
					<path style="fill:#591124;" d="M1727.498,1181.609c63.2,11.186,125.201,35.003,173.832,77.709
						c15.954,13.828,28.794,31.179,41.555,47.721c25.173,32.627,49.4,65.725,75.148,97.556
						c25.898,31.585,53.136,62.747,87.339,85.642c-35.785-20.591-65.515-50.268-93.612-80.186
						c-28.038-30.244-54.546-61.765-81.697-92.432c-25.337-31.114-55.535-56.527-92.588-72.575
						c-35.625-16.061-75.147-26.477-113.897-30.28C1701.01,1212.14,1704.727,1178.954,1727.498,1181.609L1727.498,1181.609z"/>
				</g>
			</g>
		</g>
		<g>
			<g>
				<path style="fill:#F98903;" d="M3228.367,1877.039c-54.588-7.146-161.789-3.716-265.904,99.322
					c-168.176,166.442-179.419,427.82-173.249,609.949c6.11,180.199-68.771,226.074-87.447,234.682
					c-1.573,33.644-6.373,67.047-14.654,99.814c-25.392,100.455-82.654,167.051-139.481,210.379
					c433.866,5.491,446.01-268.714,457.653-533.778c1.396-31.66,2.83-64.392,5.036-95.555
					c18.848-267.064,165.55-323.877,262.621-361.472c8.542-3.308,16.713-6.476,24.387-9.625
					c42.739-17.554,71.072-43.867,81.933-76.101c10.709-31.75,4.583-68.611-17.707-106.589
					C3340.839,1912.786,3288.564,1884.899,3228.367,1877.039z"/>
			</g>
			<g>
				<path style="fill:#FFFFFF;" d="M2918.382,2026.605c0,0,151.212,43.999,224.63,181.105c0,0,63.311-32.599,103.316-49.443
					c40.005-16.844,146.966-47.297,141.491-131.662c-5.474-84.365-42.899-122.606-96.854-142.057
					c-53.955-19.451-159.75-21.954-227.397,11.791C2995.921,1930.085,2918.898,2004.431,2918.382,2026.605z"/>
			</g>
			<g>
				<path style="fill:#F98903;" d="M2437.94,2310.335c-167.27-133.819-316.142-256.949-339.223-276.067
					c-103.269,63.33-263.675,132.629-471.537,132.629c-185.893,0-333.8-55.43-436.875-112.442
					c-8.701,30.176-40.442,154.518-25.844,317.11c15.253,169.836,85.783,416.967,333.438,635.261
					c6.588-58,30.844-311.39-18.581-532.146c-0.79-3.519,1.421-7.012,4.94-7.796c3.576-0.791,7.018,1.428,7.796,4.94
					c49.467,220.941,25.846,473.863,18.971,535.093c-0.072,0.019-0.148,0.033-0.222,0.053c-0.265,0.112-0.553,0.138-0.832,0.215
					c-21.717,5.944-40.673,15.939-55.347,31.116c-67.642,69.976-53.654,178.572-50.968,195.556
					c4.905,4.232,21.792,17.781,49.687,30.985c2.07,6.722,4.436,13.125,4.436,13.125s35.997,8.542,84.208,13.027
					c13.25,1.85,27.334,3.029,42.356,3.196c18.574,0.206,37.121,0.134,55.498-0.292c-0.301-0.717-0.548-1.438-0.841-2.155
					c3.439-0.332,6.871-0.695,10.285-1.125c1.101-0.139,2.231-0.301,3.342-0.448c0.049,0.094,0.091,0.195,0.14,0.289l0.148,0.284
					c0.465,0.892,0.701,1.844,0.778,2.799c86.088-3.021,166.592-16.247,221.612-58.275l9.588-3.077c0,0,95.381,47.855,189.499,54.09
					c18.295,1.213,35.907,0.79,52.453-0.663c7.67-0.094,15.465-0.338,23.501-0.881c2.998-0.202,5.936-0.484,8.894-0.739
					c-0.088-0.884-0.116-1.747-0.198-2.629c4.366-0.766,8.619-1.585,12.742-2.448c0.198,1.138,0.338,2.315,0.545,3.445l0.026,0.129
					c0.011,0.062-0.011,0.118-0.002,0.18c127.813-14.735,214.753-78.289,233.673-93.25c42.99-12.584,218.788-75.408,268.427-271.818
					C2727.849,2706.354,2635.01,2467.987,2437.94,2310.335z M1977.287,3063.094c9.99-2.542,20.643-5.046,31.928-7.387
					c-10.505,2.547-20.356,5.201-29.511,7.847L1977.287,3063.094z"/>
			</g>
			<g>
				<path style="fill:#F98903;" d="M1444.538,3042.51c12.779-11.357,28.139-19.639,45.401-25.301
					c-201.998-177.773-287.928-374.599-321.895-534.598l-10.014,511.55c-1.845,0.312-6.017,1.555-6.681,1.685
					c-6.677,2.782-86.769,26.636-93.74,113.81c-4.636,58.073,30.229,99.249,71.284,122.11c-4.848-13.763,14.989,2.312,14.989,2.312
					c0.832,1.707,0.931,3.608,0.426,5.306c16.332,7.108,32.977,11.449,47.989,12.893c17.381,1.676,42.882,4.125,70.165,5.11
					c-3.249-15.709,8.886-16.327,13.126-1.633c0,0,0.212,1.413,0.236,1.988c45.566,0.739,93.139-3.516,114.591-22.741
					c-3.429-21.585-15.451-123.412,46.413-197.058C1439.404,3039.442,1441.982,3040.929,1444.538,3042.51z"/>
			</g>
			<g>
				<path style="fill:#FFFFFF;" d="M1153.173,3003.828c-6.597,2.599-88.68,36.658-95.568,118.057
					c-4.58,54.227,29.865,92.676,70.423,114.022c-4.79-12.852-7.928-25.756-9.907-39.074c-2.249-15.914-2.346-32.143,0.064-47.967
					c0.778-3.932,1.096-7.934,2.253-11.775l3.276-11.52c1.284-3.768,3.004-7.39,4.483-11.073c0.803-1.817,1.455-3.699,2.382-5.452
					l2.975-5.162c7.289-14.17,18.378-25.722,29.565-36.552c-10.443,11.621-20.53,23.738-26.663,38.045l-2.54,5.197
					c-0.779,1.76-1.281,3.641-1.936,5.451c-1.179,3.669-2.596,7.25-3.577,10.956l-2.371,11.264
					c-0.856,3.728-0.88,7.613-1.364,11.395c-1.243,15.236-0.076,30.595,3.095,45.493c3.198,14.768,8.229,29.662,14.892,42.581
					l0.182,0.354c0.822,1.594,0.919,3.369,0.421,4.954c16.134,6.637,32.578,10.69,47.409,12.039
					c17.17,1.564,42.364,3.852,69.317,4.771c-3.209-14.668-5.009-29.02-6.043-43.652c-1.01-15.264-0.902-30.582,0.379-45.783
					c1.304-15.209,4.302-30.238,8.573-44.804c4.406-14.574,11.057-28.31,18.979-41.104c-6.991,13.364-12.54,27.357-15.829,41.954
					c-3.15,14.598-5.009,29.423-5.206,44.308c-0.175,14.876,0.798,29.734,2.843,44.427c2.075,14.605,5.082,29.409,9.271,43.129
					l0.077,0.25c0.164,0.537,0.132,1.071,0.156,1.607c45.016,0.69,92.014-3.283,113.208-21.235
					c-3.437-20.448-15.669-118.034,48.506-187.002C1310.584,2976.767,1163.043,3002.01,1153.173,3003.828z"/>
			</g>
			<g>
				<path style="fill:#FFFFFF;" d="M1886.289,3102.03c-18.217-0.089-52.453-2.199-76.923-15.374
					c-83.323-41.659-216.45-82.846-304.041-60.655c-0.261,0.105-0.546,0.129-0.821,0.201c-21.455,5.55-40.183,14.884-54.679,29.055
					c-66.825,65.341-53.006,166.745-50.353,182.604c6.811,5.553,36.875,28.289,87.868,43.169
					c-6.354-12.469-10.761-25.144-13.811-38.421c-3.534-15.439-4.914-31.351-3.791-47.038c1.104-15.643,4.006-31.207,9.756-45.688
					c2.322-7.438,6.153-14.248,9.475-21.217c3.534-6.87,8.079-13.179,12.042-19.752c-3.507,6.869-7.561,13.424-10.576,20.469
					c-2.801,7.142-6.086,14.064-7.842,21.524c-4.621,14.537-6.33,29.81-6.331,44.841c-0.016,15.075,2.376,30.068,6.738,44.374
					c4.244,14.192,10.656,28.321,18.482,40.009l0.285,0.427c0.935,1.396,1.203,3.017,0.982,4.559
					c21.887,5.206,46.978,8.787,75.229,9.083c18.35,0.191,36.672,0.124,54.827-0.272c-6.21-13.97-10.629-28-14.036-42.528
					c-3.53-15.501-5.482-31.361-5.503-47.23c0.057-15.888,2.739-31.706,7.639-46.665c4.851-15.099,13.561-28.442,23.207-40.587
					c-8.803,12.836-16.394,26.517-20.085,41.54c-3.742,14.9-5.246,30.271-4.237,45.535c1.093,15.249,4.029,30.305,8.443,44.896
					c4.441,14.477,10.242,28.979,17.341,41.828l0.147,0.265c0.461,0.833,0.693,1.721,0.768,2.614
					c95.043-3.152,183.297-18.098,237.101-69.311C1861.14,3163.15,1876.139,3120.832,1886.289,3102.03z"/>
			</g>
			<g>
				<path style="fill:#FFFFFF;" d="M2254.384,3071.989c-156.198-48.173-334.206,21.4-351.898,28.602
					c-5.581,7.667-32.919,50.574-5.765,121.679c6.272,5.005,36.503,27.704,87.966,44.664c-4.15-9.909-7.043-19.802-9.177-30.087
					c-2.48-12.404-3.431-25.099-2.677-37.651c0.585-12.564,3.402-24.973,7.968-36.528c4.162-11.782,11.313-22.095,18.635-31.858
					c-6.455,10.418-12.531,21.12-15.547,32.914c-3.42,11.576-5.04,23.629-4.529,35.591c0.344,11.946,2.304,23.792,5.659,35.199
					c3.351,11.285,8.06,22.662,13.767,32.284l0.193,0.323c0.818,1.378,0.986,2.925,0.744,4.391
					c36.822,10.418,82.864,17.342,137.422,13.857c2.961-0.188,5.864-0.451,8.785-0.69c-1.334-12.76-1.96-25.227-2.213-37.849
					c-0.253-12.756,0.062-25.529,1.095-38.247c0.988-12.708,2.655-25.408,5.815-37.781c3.133-12.305,7.392-24.567,14.726-34.94
					c-6.404,10.961-9.499,23.308-11.529,35.593c-2.041,12.333-2.597,24.875-2.489,37.369c0.064,12.496,0.832,24.989,2.156,37.416
					c1.313,12.384,3.039,24.898,5.373,36.914l0.024,0.121c0.011,0.058-0.011,0.11-0.001,0.167
					c132.351-14.422,220.397-78.965,233.135-88.803c1.025-4.918,2.859-19.997-7.342-39.368
					C2372.318,3131.791,2339.676,3098.282,2254.384,3071.989z"/>
			</g>
			<g>
				<path style="fill:#FFFFFF;" d="M1166.068,2424.406c0,0,18.108-121.278,128.016-120.015
					c109.909,1.263,177.315,105.309,191.603,201.002s34.802,260.029,26.876,406.402l-9.674,79.834v6.682l-19.411-4.412
					c0,0-112.83-88.72-182.429-203.835c-69.599-115.115-126.368-306.659-126.534-307.454
					C1174.348,2481.816,1166.068,2424.406,1166.068,2424.406z"/>
			</g>
			<g>
				<path style="fill:#591124;" d="M1169.016,2114.052c0,0,26.108,72.43,122.12,87.59c0,0-66.367,28.635-130.459-3.369
					C1160.677,2198.272,1156.931,2136.775,1169.016,2114.052z"/>
			</g>
			<g>
				<path style="fill:#591124;" d="M1569.066,2278.704c0,0,178.648-36.594,288.296-147.787l45.851-13.917l62.113-26.53
					l80.852-31.583C2046.178,2058.887,1909.529,2256.595,1569.066,2278.704z"/>
			</g>
			<g>
				<path style="fill:#591124;" d="M1626.073,2441.671c0,0,31.258-52.217,121.037-59.797c89.779-7.58,123.467,14.318,206.004-44.637
					c82.537-58.955,129.7-123.812,129.7-123.812s-48.848,173.502-141.491,197.926c-92.643,24.424-172.653-1.684-215.606,5.053
					C1682.764,2423.143,1626.073,2441.671,1626.073,2441.671z"/>
			</g>
			<g>
				<path style="fill:#591124;" d="M2273.922,2177.957c0,0-18.455,210.655-148.997,332.775c0,0,173.198-78.402,212.931-280.916
					C2337.855,2229.817,2299.535,2183.33,2273.922,2177.957z"/>
			</g>
			<g>
				<path style="fill:#591124;" d="M2518.025,2384.822c0,0-31.792,121.91-149.912,199.604c0,0,140.993-28.647,202.197-135.917
					C2570.31,2448.508,2535.289,2388.612,2518.025,2384.822z"/>
			</g>
			<g>
				<path style="fill:#591124;" d="M1943.401,2654.101c0,0-192.417-36.829-346.542,13.704c0,0,216.17,11.37,330.745,92.854
					C1927.603,2760.658,1941.899,2695.352,1943.401,2654.101z"/>
			</g>
			<g>
				<path style="fill:#591124;" d="M1522.593,2808.048c0,0,191.122,10.773,278.291,109.602c0,0-145.249-40.135-284.546-33.187
					C1516.338,2884.463,1516.546,2816.907,1522.593,2808.048z"/>
			</g>
			<g>
				<path style="fill:#591124;" d="M1434.897,2959.631c0,0-221.455-60.639-215.77-64.429c5.685-3.79,137.701-18.95,141.491-18.95
					S1434.897,2959.631,1434.897,2959.631z"/>
			</g>
			<g>
				<polygon style="fill:#591124;" points="1156.028,2760.658 1267.765,2756.868 1258.536,2729.621 1157.856,2708.231 				"/>
			</g>
			<g>
				<path style="fill:#591124;" d="M1986.378,2695.885c0,0,230.347,4.344,303.62,136.572c0,0-217.912-94.328-364.988-33.688
					C1925.01,2798.768,1952.266,2721.861,1986.378,2695.885z"/>
			</g>
			<g>
				<path style="fill:#591124;" d="M2097.974,2908.256c5.053-2.527,232.45-27.793,277.087,129.7c0,0-49.901-41.058-119.383-71.377
					C2186.195,2936.259,2097.974,2908.256,2097.974,2908.256z"/>
			</g>
			<g>
				<path style="fill:#591124;" d="M2689.301,2802.137c0,0-117.162,60.639-272.971-20.213c0,0,102.75,138.123,264.454,137.28
					C2680.783,2919.204,2700.344,2849.301,2689.301,2802.137z"/>
			</g>
			<g>
				<path style="fill:#591124;" d="M2681.986,2939.248c0,0,38.225,49.668,109.127,80.18c0,0-48.373-108.484-72.138-209.149
					c0,0-8.293-0.281-9.557,0c-1.263,0.281-13.357,12.914-13.357,12.914L2681.986,2939.248z"/>
			</g>
			<g>
				<path style="fill:#591124;" d="M2971.346,2903.624c0,0-130.542-40.426-178.549-121.699c0,0,133.069,44.637,199.183,36.636
					C2991.98,2818.56,2981.452,2884.253,2971.346,2903.624z"/>
			</g>
			<g>
				<path style="fill:#591124;" d="M2782.691,2586.531c0,0,93.402-7.58,177.243,32.004c0,0-51.718-90.893-171.751-126.299
					c0,0-2.545,21.865-2.966,23.549C2784.796,2517.47,2782.691,2586.531,2782.691,2586.531z"/>
			</g>
			<g>
				<path style="fill:#591124;" d="M2802.482,2293.842c0,0,138.544-2.084,217.712,34.973c0,0-24.896-111.172-175.837-168.442
					C2844.357,2160.373,2811.747,2226.065,2802.482,2293.842z"/>
			</g>
			<g>
				<path style="fill:none;" d="M2211.934,1933.383c-6.503,5.859-13.449,12.11-16.093,14.458
					C2202.355,1942.195,2207.798,1937.266,2211.934,1933.383z"/>
			</g>
			<g>
				<path style="fill:none;" d="M1029.031,1921.373c0.04,0.012,0.081,0.012,0.12,0.025c-0.021-0.019-0.097-0.089-0.097-0.089
					S1029.033,1921.367,1029.031,1921.373z"/>
			</g>
			<g>
				<path style="fill:none;" d="M1058.171,1947.515c-2.864-2.549-9.496-8.518-15.75-14.153
					C1046.484,1937.175,1051.808,1941.995,1058.171,1947.515z"/>
			</g>
			<g>
				<path style="fill:none;" d="M2167.41,3052.297c-18.694-2.805-36.79-4.217-54.153-4.491
					C2131.377,3048.515,2149.481,3049.814,2167.41,3052.297z"/>
			</g>
			<g>
				<path style="fill:none;" d="M3228.367,1877.039c-54-7.069-159.484-3.724-262.537,96.092
					c-3.754,4.65-68.587,86.729-109.025,257.987c-41.653,176.411-26.108,309.934-32.846,455.635
					c-6.738,145.703-124.646,183.603-124.646,183.603s-0.335-5.173-0.843-11.686c-2.518,20.89-6.178,41.646-11.357,62.135
					c-7.487,29.617-17.797,56.217-29.995,80.219c29.794-3.227,126.774-21.07,205.584-118.878
					c94.328-117.068,85.904-304.038,85.904-424.474c0-120.436,58.113-220.863,126.333-279.716
					c68.219-58.853,253.505-112.754,254.348-198.659c0,0,25.266,27.793,18.107,72.851c-7.16,45.059-96.012,56.85-170.548,105.698
					c-74.534,48.848-108.644,86.748-145.702,210.552c-25.849,86.359-26.902,170.614-25.176,213.714
					c1.198-26.828,2.5-54.082,4.354-80.26c18.848-267.064,165.55-323.877,262.621-361.472c8.542-3.308,16.713-6.476,24.387-9.625
					c42.739-17.554,71.072-43.867,81.933-76.101c10.709-31.75,4.583-68.611-17.707-106.589
					C3340.839,1912.786,3288.564,1884.899,3228.367,1877.039z"/>
			</g>
			<g>
				<path style="fill:none;" d="M2472.471,3162.804c-10.051,4.548-20.796,9.432-31.209,14.198
					C2450.679,3173.169,2461.227,3168.449,2472.471,3162.804z"/>
			</g>
			<g>
				<path style="fill:none;" d="M1116.475,3170.939c0.08-7.396,0.599-14.779,1.71-22.073c0.778-3.932,1.096-7.934,2.253-11.775
					l3.276-11.52c1.284-3.768,3.004-7.39,4.483-11.073c0.803-1.817,1.455-3.699,2.382-5.452l2.975-5.162
					c7.289-14.17,18.378-25.722,29.565-36.552c-10.443,11.621-20.53,23.738-26.663,38.045l-2.54,5.197
					c-0.779,1.76-1.281,3.641-1.936,5.451c-1.179,3.669-2.596,7.25-3.577,10.956l-2.371,11.264
					c-0.856,3.728-0.88,7.613-1.364,11.395c-0.698,8.548-0.561,17.126,0.187,25.649c11.556,5.611,25.122,10.756,41.214,15.108
					c30.774,8.323,60.336,10.53,87.272,9.289c-0.127-9.781,0.159-19.559,0.98-29.289c1.304-15.209,4.302-30.238,8.573-44.804
					c4.406-14.574,11.057-28.31,18.979-41.104c-6.991,13.364-12.54,27.357-15.829,41.954c-3.15,14.598-5.009,29.423-5.206,44.308
					c-0.112,9.497,0.295,18.981,1.1,28.426c72.138-5.368,123.247-34.714,123.247-34.714l0.005-0.016
					c2.935-23.726,9.615-50.188,23.221-75.479l4.648-15.108c0,0-42.755-56.116-112.658-173.184
					c-49.259-82.494-73.022-197.114-82.775-257.664c-23.011-55.955-38.882-110.006-49.58-160.4l-1.842,93.309
					c6.118,17.542,15.762,50.999,20.71,98.833c7.043,68.091,16.81,282.313,18.157,312.284c14.479-0.363,28.959-0.257,43.398,0.508
					c16.334,0.904,32.594,2.836,48.675,5.587c16.064,2.94,31.852,7.175,47.13,12.68c-15.631-4.473-31.539-7.608-47.604-9.45
					c-16.085-1.652-32.22-2.479-48.354-2.292c-16.133,0.228-32.237,1.165-48.257,2.809c-15.758,1.649-31.651,3.887-46.93,6.967
					c-6.161,2.433-72.882,30.253-91.281,94.903C1063.616,3116.416,1073.458,3147.082,1116.475,3170.939z"/>
			</g>
			<g>
				<path style="fill:none;" d="M2168.441,3052.445c3.606,0.508,7.19,1.163,10.78,1.771c-2.303-0.404-4.54-0.828-6.906-1.212
					C2171.013,3052.793,2169.737,3052.643,2168.441,3052.445z"/>
			</g>
			<g>
				<path style="fill:none;" d="M1218.132,2608.433c28.789,30.68,150.733,155.434,216.766,140.645
					c42.661-9.554,63.115-30.753,72.841-47.318c-3.374-73.509-11.646-152.16-28.419-227.08c-0.79-3.519,1.421-7.012,4.94-7.796
					c3.576-0.791,7.018,1.428,7.796,4.94c0.838,3.748,1.602,7.527,2.398,11.292c2.599-10.251,6.561-16.179,6.561-16.179
					c91.123,150.334,67.448,543.92,67.448,543.92s-0.124,0.025-0.207,0.042c4.349,0.208,8.698,0.415,13.051,0.729
					c26.33,2.086,52.461,6.117,78.002,12.472c6.427,1.39,12.689,3.462,19.035,5.158c6.336,1.742,12.656,3.525,18.828,5.791
					l18.622,6.389l18.232,7.395c12.273,4.629,23.86,10.834,35.708,16.37c11.713,5.829,22.929,12.615,34.392,18.862
					c-11.732-5.774-23.188-12.069-35.099-17.392c-12.045-5.027-23.798-10.708-36.192-14.802l-18.386-6.581l-18.71-5.561
					c-6.194-1.987-12.521-3.49-18.855-4.95c-6.342-1.414-12.592-3.202-18.993-4.309c-25.441-5.218-51.291-8.098-77.113-9.067
					c-25.688-0.841-52.027,0.243-76.563,4.954l-0.242,0.046c-28.998,4.975-53.933,28.653-54.182,28.889
					c-9.004,8.804-16.501,18.277-22.8,28.096c-12.708,40.498-14.205,106.325,42.904,135.849c0.002,0,0.002,0,0.003,0
					c-0.652-7.888-0.719-15.806-0.156-23.67c1.104-15.643,4.006-31.207,9.756-45.688c2.322-7.438,6.153-14.248,9.475-21.217
					c3.534-6.87,8.079-13.179,12.042-19.752c-3.507,6.869-7.561,13.424-10.576,20.469c-2.801,7.142-6.086,14.064-7.842,21.524
					c-4.621,14.537-6.33,29.81-6.331,44.841c-0.01,9.281,0.993,18.51,2.706,27.589c32.755,13.288,84.51,18.28,137.653,17.361
					c-2.151-12.065-3.339-24.292-3.354-36.529c0.057-15.888,2.739-31.706,7.639-46.665c4.851-15.099,13.561-28.442,23.207-40.587
					c-8.803,12.836-16.394,26.517-20.085,41.54c-3.742,14.9-5.246,30.271-4.237,45.535c0.884,12.343,3.028,24.543,6.134,36.488
					c75.908-2.282,152.428-16.275,178.199-35.12c46.662-34.122,28.975-183.826,41.609-324.053
					c12.632-140.228,81.871-370.573,81.871-370.573l8.835,6.802c0.86-0.699,1.837-1.265,3.012-1.454
					c3.569-0.586,6.903,1.842,7.477,5.412c0.242,1.505,0.421,3.084,0.644,4.612l0.068,0.052c0,0,64.008,43.531,135.175,54.901
					c71.167,11.37,124.21,20.389,124.638,23.249c0.002,0.01,0.002,0.013,0.003,0.022c62.361,5.969,117.292,27.125,145.848,45.341
					c3.041,1.938,3.927,5.972,1.989,9.013c-1.931,3.041-5.953,3.933-9.013,1.989c-12.578-8.022-30.59-16.616-52.091-24.144
					c-51.337-5.464-152.745-7.827-230.535,43.28c-108.644,71.378-142.123,216.026-142.123,216.026l-4.824-36.427
					c-1.362,11.789-2.04,23.29-2.059,34.416l-0.01,1.425c0,0.135,0.01,0.266,0.01,0.402c0.242,0.45,43.054,79.525,175.745,75.97
					c133.07-3.565,222.608-145.595,388.259-150.11c165.653-4.515,169.285,84.468,146.545,194.252l13.84-8.532
					c14.634-26.248,26.904-55.939,35.417-89.622c22.722-89.896,18.874-184.688-8.127-276.095
					c-45.616-98.708-158.02-219.376-306.424-341.332c-170.126-139.807-286.352-245.715-286.352-245.715s1.498-3.264,3.644-7.421
					c-15.437,8.881-31.985,17.773-49.586,26.488c-56.803,42.791-238.53,164.685-458.542,158.429
					c-266.486-7.578-388.962-135.612-389.029-135.682c-11.829,55.79-26.37,155.055-15.575,275.287
					C1170.629,2440.224,1185.847,2521.522,1218.132,2608.433z"/>
			</g>
			<g>
				<path style="fill:none;" d="M2233.422,3067.104c-3.307-0.781-6.623-1.523-9.958-2.17c-12.426-2.278-24.757-4.975-37.322-6.272
					c-24.955-3.656-50.209-4.613-75.317-4.445c-25.141,0.17-50.193,2.794-74.885,6.851c-24.56,4.175-49.326,10.14-71.979,18.86
					l-0.381,0.147c-0.046,0.017-0.096,0.008-0.142,0.024c-0.3,0.091-0.617,0.112-0.931,0.158c-0.5,0.1-0.999,0.267-1.495,0.25
					c-50.604,16.754-73.277,38.677-75.712,73.142c-0.435,6.189-0.382,12.498,0.053,18.891c13.473,3.617,46.377,12.001,88.115,19.628
					c1.141-10.145,3.621-20.108,7.332-29.499c4.162-11.782,11.313-22.095,18.635-31.858c-6.455,10.418-12.531,21.12-15.547,32.914
					c-2.841,9.615-4.355,19.559-4.521,29.506c49.599,8.793,110.404,16.113,165.64,13.214c1.007-11.992,2.634-23.964,5.617-35.64
					c3.133-12.305,7.392-24.567,14.726-34.94c-6.404,10.961-9.499,23.308-11.529,35.593c-1.893,11.441-2.479,23.06-2.473,34.656
					c28.147-1.9,54.638-6.593,77.167-15.295C2329.793,3151.7,2330.126,3097.888,2233.422,3067.104z"/>
			</g>
			<g>
				<path style="fill:none;" d="M1194.815,2056.876c-1.482-0.809-3.047-1.612-4.51-2.421c-0.271,0.943-0.567,1.978-0.881,3.103
					C1191.008,2058.061,1193.01,2057.583,1194.815,2056.876z"/>
			</g>
			<g style="opacity:0.25;">
				<path style="fill:#591124;" d="M1261.937,3199.177c0.456,5.348,1.004,10.688,1.743,16.001
					c2.075,14.605,5.082,29.409,9.271,43.129l0.077,0.25c0.164,0.537,0.132,1.071,0.156,1.607
					c45.016,0.69,92.014-3.283,113.208-21.235c-1.705-10.142-5.558-39.285-1.203-74.481l-0.005,0.016
					C1385.184,3164.463,1334.074,3193.809,1261.937,3199.177z"/>
			</g>
			<g style="opacity:0.25;">
				<path style="fill:#591124;" d="M1896.733,3222.281c6.296,5.022,36.519,27.703,87.954,44.653
					c-4.15-9.909-7.043-19.802-9.177-30.087c-2.48-12.404-3.431-25.099-2.677-37.651c0.11-2.353,0.375-4.691,0.636-7.029
					c-41.738-7.627-74.641-16.011-88.115-19.628C1886.449,3188.597,1890.229,3205.246,1896.733,3222.281z"/>
			</g>
			<g style="opacity:0.25;">
				<path style="fill:#591124;" d="M1061.847,3098.75c-2.064,7.251-3.549,14.942-4.242,23.136
					c-4.58,54.227,29.865,92.676,70.423,114.022c-4.79-12.852-7.928-25.756-9.907-39.074c-1.211-8.579-1.74-17.245-1.646-25.894
					C1073.458,3147.082,1063.616,3116.416,1061.847,3098.75z"/>
			</g>
			<g style="opacity:0.25;">
				<path style="fill:#591124;" d="M1914.638,2895.246l0.01-1.425C1914.648,2894.295,1914.638,2894.774,1914.638,2895.246z"/>
			</g>
			<g style="opacity:0.25;">
				<path style="fill:#591124;" d="M1434.897,2749.078c-66.033,14.789-187.977-109.964-216.766-140.645
					c47.573,128.074,132.232,268.347,279.766,398.392c4.342-38.191,16.412-161.845,9.84-305.065
					C1498.013,2718.325,1477.558,2739.524,1434.897,2749.078z"/>
			</g>
			<g style="opacity:0.25;">
				<path style="fill:#591124;" d="M3031.143,2368.399c37.058-123.805,71.167-161.704,145.702-210.552
					c74.536-48.848,163.389-60.639,170.548-105.698c7.158-45.058-18.107-72.851-18.107-72.851
					c-0.843,85.905-186.128,139.807-254.348,198.659c-68.219,58.853-126.333,159.28-126.333,279.716
					c0,120.436,8.424,307.406-85.904,424.474c-78.81,97.808-175.79,115.651-205.584,118.878
					c-29.176,57.409-69.413,99.605-109.486,130.16c433.866,5.491,446.01-268.714,457.653-533.778
					c0.223-5.064,0.453-10.186,0.682-15.294C3004.24,2539.013,3005.294,2454.758,3031.143,2368.399z"/>
			</g>
			<g style="opacity:0.25;">
				<path style="fill:#591124;" d="M1166.068,3190.396c-16.092-4.353-29.657-9.498-41.214-15.108
					c0.585,6.667,1.515,13.304,2.908,19.844c3.198,14.768,8.229,29.662,14.892,42.581l0.182,0.354
					c0.822,1.594,0.919,3.369,0.421,4.954c16.134,6.637,32.578,10.69,47.409,12.039c17.17,1.564,42.364,3.852,69.317,4.771
					c-3.209-14.668-5.009-29.02-6.043-43.652c-0.363-5.494-0.529-10.995-0.601-16.495
					C1226.404,3200.927,1196.842,3198.719,1166.068,3190.396z"/>
			</g>
			<g style="opacity:0.25;">
				<path style="fill:#591124;" d="M1413.058,3073.859l-4.648,15.108c8.095-15.047,18.616-29.675,32.288-43.043
					c1.015-0.974,21.545-20.479,48.635-29.252c-138.011-121.628-221.731-252.141-271.708-373.661
					c9.752,60.55,33.515,175.169,82.775,257.664C1370.303,3017.743,1413.058,3073.859,1413.058,3073.859z"/>
			</g>
			<g style="opacity:0.25;">
				<path style="fill:#591124;" d="M1478.968,3223.335c1.071,5.667,2.355,11.287,4.032,16.785
					c4.244,14.192,10.656,28.321,18.482,40.009l0.285,0.427c0.935,1.396,1.203,3.017,0.982,4.559
					c21.887,5.206,46.978,8.787,75.229,9.083c18.35,0.191,36.672,0.124,54.827-0.272c-6.21-13.97-10.629-28-14.036-42.528
					c-0.808-3.548-1.509-7.12-2.148-10.701C1563.479,3241.614,1511.724,3236.622,1478.968,3223.335z"/>
			</g>
			<g style="opacity:0.25;">
				<path style="fill:#591124;" d="M1426.987,3083.39c-40.422,63.008-29.809,140.75-27.514,154.469
					c6.811,5.553,36.875,28.289,87.868,43.169c-6.354-12.469-10.761-25.144-13.811-38.421c-1.762-7.701-2.988-15.519-3.635-23.369
					c-0.002,0-0.002,0-0.003,0C1412.782,3189.715,1414.279,3123.888,1426.987,3083.39z"/>
			</g>
			<g style="opacity:0.25;">
				<path style="fill:#591124;" d="M1979.368,3193.229c-0.035,2.029-0.096,4.059-0.008,6.085
					c0.344,11.946,2.304,23.792,5.659,35.199c3.351,11.285,8.06,22.662,13.767,32.284l0.193,0.323
					c0.818,1.378,0.986,2.925,0.744,4.391c36.822,10.418,82.864,17.342,137.422,13.857c2.961-0.188,5.864-0.451,8.785-0.69
					c-1.334-12.76-1.96-25.227-2.213-37.849c-0.253-12.756,0.062-25.529,1.095-38.247c0.056-0.714,0.139-1.427,0.198-2.14
					C2089.771,3209.343,2028.967,3202.023,1979.368,3193.229z"/>
			</g>
			<g style="opacity:0.25;">
				<path style="fill:#591124;" d="M2082.814,2581.057c-71.167-11.37-135.175-54.901-135.175-54.901l-0.068-0.052
					c9.87,67.801,1.254,157.282-6.06,211.921c4.776-8.954,10.358-18.039,16.903-27.059c34.784-51.088,82.545-84.565,142.328-99.624
					c35.724-8.996,72.344-10.303,106.715-7.013c-0.002-0.01-0.002-0.013-0.003-0.022
					C2207.024,2601.446,2153.981,2592.427,2082.814,2581.057z"/>
			</g>
			<g style="opacity:0.25;">
				<path style="fill:#591124;" d="M1845.732,2881.305c-12.634,140.227,5.053,289.931-41.609,324.053
					c-25.771,18.845-102.291,32.838-178.199,35.12c0.731,2.813,1.468,5.626,2.309,8.407c4.441,14.477,10.242,28.979,17.341,41.828
					l0.147,0.265c0.461,0.833,0.693,1.721,0.768,2.614c95.035-3.152,183.282-18.096,237.086-69.297
					c-9.056-24.678-12.906-48.739-11.29-71.565c3.429-48.584,42.637-69.976,78.957-82.698
					c-18.775-30.232-80.786-146.113-30.059-285.428c0.005-0.033-0.008-0.063-0.002-0.096c0.287-1.594,28.907-160.915,12.857-260.951
					c-0.384-2.385,0.652-4.599,2.4-6.023l-8.835-6.802C1927.603,2510.732,1858.364,2741.077,1845.732,2881.305z"/>
			</g>
			<g style="opacity:0.25;">
				<path style="fill:#591124;" d="M2478.652,2821.508c-165.651,4.514-255.189,146.544-388.259,150.11
					c-132.691,3.555-175.503-75.52-175.745-75.97c0.373,88.91,39.292,154.69,49.639,170.596
					c23.266-7.369,46.531-11.828,70.224-14.862c25.358-3.056,50.89-4.611,76.348-3.693c0.8,0.029,1.598,0.086,2.398,0.117
					c17.363,0.275,35.459,1.687,54.153,4.491c0.344,0.047,0.687,0.1,1.031,0.148c1.296,0.198,2.572,0.347,3.874,0.559
					c2.366,0.384,4.604,0.808,6.906,1.212c2.472,0.418,4.958,0.75,7.419,1.219c12.56,1.847,24.846,5.091,37.19,7.907
					c12.317,2.949,24.33,7.054,36.481,10.517c-8.997-2.151-17.905-4.632-26.889-6.756c96.704,30.785,96.371,84.596-4.906,123.713
					c-22.529,8.702-49.02,13.395-77.167,15.295c0,0.904-0.024,1.81-0.016,2.714c0.064,12.496,0.832,24.989,2.156,37.416
					c1.313,12.384,3.039,24.898,5.373,36.914l0.024,0.121c0.011,0.058-0.011,0.11-0.001,0.167
					c142.604-15.539,233.815-89.309,234.768-90.086c0.797-0.656,1.74-1.115,2.747-1.339c0.622-0.136,18.386-4.241,44.861-15.017
					c10.414-4.766,21.159-9.65,31.209-14.198c52.684-26.451,121.168-74.143,166.566-155.575l-13.84,8.532
					C2647.937,2905.976,2644.305,2816.993,2478.652,2821.508z"/>
			</g>
			<g style="opacity:0.25;">
				<path style="fill:#591124;" d="M1569.065,2231.961c220.012,6.256,401.739-115.637,458.542-158.429
					c-100.353,49.688-235.418,93.365-400.427,93.365c-183.254,0-329.501-53.874-432.365-110.021
					c-1.806,0.708-3.807,1.185-5.391,0.682c-2.309,8.256-5.719,21.421-9.387,38.72
					C1180.104,2096.348,1302.58,2224.383,1569.065,2231.961z"/>
			</g>
			<g style="opacity:0.4;">
				<path style="fill:#FFFFFF;" d="M1166.203,2575.92l-8.178,414.253c13.856-1.596,27.543-2.537,41.357-3.061
					c1.896-0.067,3.791-0.027,5.687-0.075c-1.347-29.971-11.113-244.193-18.157-312.284
					C1181.965,2626.919,1172.321,2593.462,1166.203,2575.92z"/>
			</g>
			<g style="opacity:0.4;">
				<path style="fill:#FFFFFF;" d="M1501.013,2466.938c0,0-3.962,5.927-6.561,16.179c47.77,225.53,21.704,480.211,15.943,529.307
					c19.513-2.279,38.682-2.439,57.858-1.523c0.083-0.017,0.207-0.042,0.207-0.042S1592.137,2617.272,1501.013,2466.938z"/>
			</g>
			<g style="opacity:0.4;">
				<path style="fill:#FFFFFF;" d="M2063.653,2679.806c77.79-51.106,179.198-48.743,230.535-43.28
					c-51.09-17.89-122.313-29.641-190.26-12.526c-64.315,16.203-113.989,54.964-147.645,115.206
					c-23.492,42.055-35.236,82.66-39.577,120.199l4.824,36.427C1921.531,2895.833,1955.009,2751.184,2063.653,2679.806z"/>
			</g>
			<g style="opacity:0.25;">
				<path style="fill:#591124;" d="M1941.302,2739.62c1.203-2.259,2.319-4.507,3.585-6.774c4.261-7.627,8.78-14.907,13.526-21.88
					c-6.545,9.02-12.127,18.105-16.903,27.059C1941.442,2738.541,1941.37,2739.109,1941.302,2739.62z"/>
			</g>
			<g style="opacity:0.4;">
				<path style="fill:#FFFFFF;" d="M1941.302,2739.62c1.203-2.259,2.319-4.507,3.585-6.774c4.261-7.627,8.78-14.907,13.526-21.88
					c-6.545,9.02-12.127,18.105-16.903,27.059C1941.442,2738.541,1941.37,2739.109,1941.302,2739.62z"/>
			</g>
			<g style="opacity:0.4;">
				<path style="fill:#FFFFFF;" d="M2359.902,2300.18c148.405,121.956,260.808,242.624,306.424,341.332
					c-36.454-123.396-115.176-240.611-228.386-331.177c-167.27-133.819-316.142-256.949-339.223-276.067
					c-6.913,4.239-14.103,8.505-21.524,12.776c-2.146,4.157-3.644,7.421-3.644,7.421S2189.775,2160.373,2359.902,2300.18z"/>
			</g>
			<g style="opacity:0.4;">
				<path style="fill:#FFFFFF;" d="M2823.959,2686.754c6.738-145.702-8.807-279.225,32.846-455.635
					c40.438-171.257,105.271-253.337,109.025-257.987c-1.124,1.087-2.245,2.12-3.367,3.23
					c-168.176,166.442-179.419,427.82-173.249,609.949c6.11,180.199-68.771,226.074-87.447,234.682
					c-0.59,12.606-1.788,25.161-3.297,37.679c0.508,6.513,0.843,11.686,0.843,11.686S2817.221,2832.457,2823.959,2686.754z"/>
			</g>
			<g>
				<g>
					<path style="fill:#591124;" d="M1502.882,3036.655c-3.862,0-7.742-1.333-10.896-4.058
						c-261.35-225.527-334.963-483.14-350.696-659.541c-17.056-191.221,27.224-327.285,29.116-332.988
						c2.908-8.745,12.358-13.486,21.099-10.571c8.745,2.905,13.481,12.349,10.576,21.099
						c-0.442,1.328-44.175,136.294-27.417,320.942c15.413,169.844,86.758,418.013,339.128,635.796
						c6.977,6.021,7.751,16.558,1.731,23.535C1512.222,3034.692,1507.564,3036.655,1502.882,3036.655z"/>
				</g>
				<g>
					<path style="fill:#591124;" d="M1599.478,3317.533c-7.251,0-14.487-0.044-21.746-0.122
						c-97.456-1.025-160.107-37.671-184.27-54.927c-41.409,26.133-122.4,23.198-204.902,15.698
						c-67.017-6.094-162.334-60.605-154.082-158.252c6.841-80.938,73.772-120.713,100.4-133.428l10.874-550.762
						c0.183-9.219,7.766-16.406,17.014-16.357c9.214,0.181,16.536,7.798,16.355,17.012l-11.086,561.46
						c-0.137,6.875-4.47,12.959-10.92,15.332c-3.34,1.25-82.81,31.821-89.38,109.556c-6.963,82.373,82.134,118.408,123.848,122.197
						c43.794,3.989,160.13,14.561,190.083-15.391c6.279-6.274,16.379-6.538,22.976-0.591c0.564,0.503,61.877,53.906,173.442,55.083
						c119.104,1.211,237.998-6.323,301.328-69.653c6.201-6.196,16.135-6.543,22.749-0.791c0.791,0.679,84.629,71.113,234.339,61.631
						c151.445-9.614,249.724-88.916,250.698-89.717c2.039-1.67,4.458-2.852,7.031-3.413c2.129-0.474,215.583-50.19,270.376-266.982
						c52.419-207.402-39.045-441.68-233.013-596.851c-181.201-144.961-340.962-277.495-342.554-278.818
						c-7.092-5.889-8.071-16.406-2.185-23.501c5.886-7.09,16.404-8.066,23.499-2.183c1.592,1.323,161.133,133.677,342.09,278.437
						c204.155,163.325,300.137,411.04,244.521,631.089c-31.348,124.033-109.968,196.66-170.4,235.747
						c-56.406,36.479-107.014,51.084-121.279,54.717c-18.823,14.531-117.612,85.317-266.67,94.785
						c-10.388,0.659-20.508,0.967-30.303,0.967c-114.749,0.01-188.511-42.393-216.033-61.587
						C1823.236,3307.055,1712.42,3317.533,1599.478,3317.533z"/>
				</g>
				<g>
					<path style="fill:#591124;" d="M1148.356,2981.113c66.163-4.455,134.241-0.722,195.917,24.696
						c-15.905-3.668-31.909-5.946-47.974-6.935c-47.567-2.405-96.363,3.572-142.219,15.141
						C1130.628,3019.165,1124.47,2984.228,1148.356,2981.113L1148.356,2981.113z"/>
				</g>
				<g>
					<path style="fill:#591124;" d="M1891.217,3242.885c-6.672,0-12.971-4.028-15.547-10.62
						c-10.784-27.588-15.334-54.59-13.523-80.254c3.469-49.136,38.53-72.983,74.238-87.271
						c-27.126-48.56-85.647-184.194-0.366-336.855c36.895-66.045,91.479-108.574,162.236-126.396
						c104.368-26.289,212.974,9.287,260.515,39.614c7.771,4.956,10.051,15.273,5.095,23.042
						c-4.958,7.773-15.276,10.059-23.044,5.093c-41.028-26.167-140.952-58.916-234.414-35.386
						c-61.492,15.488-109.016,52.603-141.252,110.313c-95.645,171.216,5.53,313.872,9.883,319.858
						c3.672,5.049,4.226,11.738,1.423,17.319c-2.576,5.122-7.573,8.545-13.21,9.121c-46.025,15.4-65.701,34.004-67.813,63.901
						c-1.458,20.684,2.349,42.808,11.316,65.752c3.355,8.584-0.884,18.262-9.468,21.616
						C1895.291,3242.514,1893.236,3242.885,1891.217,3242.885z M1965.467,3089.731c-0.024,0.01-0.051,0.015-0.076,0.024
						C1965.416,3089.745,1965.44,3089.74,1965.467,3089.731z"/>
				</g>
				<g>
					<path style="fill:#591124;" d="M1393.441,3258.031c-7.754,0-14.697-5.425-16.321-13.315
						c-1.055-5.127-24.905-126.489,56.472-206.06c1.155-1.113,23.96-22.832,54.119-32.158
						c6.384-55.85,31.011-309.307-18.308-529.595c-2.014-8.994,3.645-17.92,12.639-19.932c8.982-2.012,17.915,3.647,19.929,12.637
						c56.846,253.911,17.854,549.639,17.454,552.598c-0.977,7.222-6.533,12.974-13.718,14.209
						c-25.806,4.419-48.67,26.001-48.896,26.221c-68.064,66.548-47.212,174.297-46.995,175.381
						c1.826,9.023-3.997,17.832-13.018,19.673C1395.672,3257.919,1394.547,3258.031,1393.441,3258.031z"/>
				</g>
				<g>
					
						<path style="fill:none;stroke:#591124;stroke-width:33.3751;stroke-linecap:round;stroke-linejoin:round;stroke-miterlimit:10;" d="
						M2397.801,3198.397"/>
				</g>
				<g>
					<path style="fill:#591124;" d="M1955.411,3058.345c93.517-26.493,195.108-20.538,286.881,9.476
						c0,0.001,18.021,6.039,18.021,6.039c-48.756-11.74-99.503-17.224-149.514-14.565c-48.87,2.647-97.895,11.426-143.094,30.077
						C1946.194,3098.481,1933.397,3066.533,1955.411,3058.345L1955.411,3058.345z"/>
				</g>
				<g>
					<path style="fill:#591124;" d="M1927.623,2802.367c-0.991,0-1.997-0.088-3.008-0.273c-9.067-1.65-15.081-10.337-13.43-19.404
						c0.288-1.582,28.591-159.243,12.817-257.52c-1.46-9.102,4.734-17.661,13.833-19.121c9.111-1.499,17.659,4.727,19.121,13.828
						c16.684,103.96-11.719,262.109-12.935,268.794C1942.552,2796.723,1935.531,2802.367,1927.623,2802.367z"/>
				</g>
				<g>
					<path style="fill:#591124;" d="M1121.973,3248.262c-23.843-62.002-14.159-139.318,41.148-180.93
						c-20.544,22.914-33.135,52.411-33.538,82.871c-0.51,28.943,7.59,58.063,22.12,82.893
						C1165.56,3254.737,1131.555,3272.201,1121.973,3248.262L1121.973,3248.262z"/>
				</g>
				<g>
					<path style="fill:#591124;" d="M1250.641,3264.724c-9.555-60.948-5.253-128.717,31.23-180.237
						c-12.799,27.163-17.228,56.945-15.962,86.538c1.422,28.604,6.975,57.91,16.847,84.578
						C1290.544,3278.531,1256.108,3288.376,1250.641,3264.724L1250.641,3264.724z"/>
				</g>
				<g>
					<path style="fill:#591124;" d="M1482.243,3293.12c-28.406-54.684-24.301-125.016,12.06-174.743c0,0,6.71-9.466,6.71-9.466
						c-13.741,26.589-22.084,57.084-19.671,86.973c1.874,28.271,11.636,55.999,28.559,78.557
						C1528.58,3294.749,1494.847,3317.977,1482.243,3293.12L1482.243,3293.12z"/>
				</g>
				<g>
					<path style="fill:#591124;" d="M1625.122,3301.697c-23.588-59.015-28.111-136.29,18.99-184.783
						c-17.348,25.608-23.157,56.847-19.27,86.919c3.742,28.958,14.307,57.427,29.682,82.073
						C1667.569,3306.813,1635.408,3324.154,1625.122,3301.697L1625.122,3301.697z"/>
				</g>
				<g>
					<path style="fill:#591124;" d="M1978.633,3278.32c-19.89-48.521-16.495-108.497,20.802-147.51
						c-7.364,13.548-13.045,27.393-14.67,42.461c-4.022,30.789,5.398,63.203,22.839,88.482
						C2022.766,3282.873,1989.299,3302.133,1978.633,3278.32L1978.633,3278.32z"/>
				</g>
				<g>
					<path style="fill:#591124;" d="M2135.938,3286.814c-0.791-47.731,0.425-111.464,29.411-150.953
						c-5.679,11.421-7.866,23.833-9.038,36.104c-2.832,36.629,3.647,74.392,12.604,109.658
						C2174.229,3305.709,2138.311,3311.422,2135.938,3286.814L2135.938,3286.814z"/>
				</g>
				<g>
					<path style="fill:#591124;" d="M2559.337,3154.482c-10.117,0-20.4-0.156-30.874-0.464c-9.214-0.269-16.46-7.959-16.189-17.173
						c0.271-9.209,7.981-16.528,17.17-16.187c442.07,12.988,454.094-259.834,465.691-523.716
						c1.394-31.719,2.834-64.517,5.044-95.811c19.307-273.491,169.626-331.709,269.097-370.229
						c8.474-3.281,16.577-6.421,24.192-9.546c39.934-16.401,66.274-40.586,76.172-69.941c9.736-28.882,3.911-62.837-16.846-98.201
						c-15.718-26.78-60.696-57.605-125.742-66.101c-52.773-6.892-156.406-3.533-257.444,96.465
						c-165.349,163.643-176.348,422.168-170.239,602.388c7.08,208.823-94.155,244.907-98.469,246.343
						c-8.733,2.91-18.191-1.821-21.099-10.571c-2.886-8.677,1.753-18.047,10.371-21.03c1.663-0.635,81.965-32.969,75.842-213.608
						c-4.297-126.738,3.613-233.213,24.18-325.503c27.969-125.493,80.435-227.017,155.938-301.738
						c111.135-109.99,226.416-113.518,285.244-105.84c68.069,8.894,125.623,40.43,150.203,82.302
						c25.798,43.953,32.605,87.439,19.688,125.754c-13.079,38.794-45.969,69.971-95.117,90.151
						c-7.813,3.208-16.125,6.431-24.819,9.8c-97.083,37.598-230.042,89.087-247.859,341.46c-2.178,30.85-3.545,61.973-4.993,94.922
						c-5.947,135.322-12.095,275.254-76.201,382.295C2882.34,3097.48,2753.619,3154.477,2559.337,3154.482z"/>
				</g>
				<g>
					<path style="fill:#591124;" d="M1499.508,3003.625c100.219-10.004,202.073,19.368,287.797,70.314
						c0,0.001,16.818,10.128,16.818,10.128c-29.141-14.222-59.679-26.625-90.725-35.778
						c-43.078-12.231-88.386-19.415-133.037-19.275c-24.849,0.039-50.15,1.763-74.256,7.338
						C1483.442,3041.358,1476.53,3007.879,1499.508,3003.625L1499.508,3003.625z"/>
				</g>
			</g>
		</g>
	</g>
</g>
</svg>
