<?xml version="1.0" encoding="utf-8"?>
<!-- Generator: Adobe Illustrator 27.5.0, SVG Export Plug-In . SVG Version: 6.00 Build 0)  -->
<svg version="1.1" id="Layer_1" xmlns="http://www.w3.org/2000/svg" xmlns:xlink="http://www.w3.org/1999/xlink" x="0px" y="0px"
	 viewBox="0 0 4000 4000" style="enable-background:new 0 0 4000 4000;" xml:space="preserve">
<g>
	<g>
		<rect style="fill:#83FBFF;" width="4000" height="4000"/>
	</g>
	<g>
		<g>
			<path style="fill:#FFCF11;" d="M3490.275,2907.296c0,34.402-1.868,67.091-5.396,98.12
				c-33.831,295.344-222.546,439.801-450.334,439.801c-198.522,0-367.365-113.997-429.889-336.129
				c-16.76-59.515-25.892-126.813-25.892-201.791c0-350.865,204.073-537.92,455.781-537.92S3490.275,2556.431,3490.275,2907.296z"/>
		</g>
		<g style="opacity:0.6;">
			<path style="fill:#FFFFFF;" d="M3368.4,2686.781c28.227-9.68,64.469-13.445,93.724,12.33l22.755,125.183
				c0,0-47.248,21.123-100.682,11.882c-21.724-3.757-38.42-21.376-42.048-43.123c-2.116-12.688-4.979-28.028-8.611-43.654
				C3327.332,2722.707,3342.479,2695.67,3368.4,2686.781z"/>
		</g>
		<g style="opacity:0.2;">
			<path style="fill:#6C194F;" d="M3484.879,3005.416c-33.831,295.344-222.546,439.801-450.334,439.801
				c-198.522,0-367.365-113.997-429.889-336.129v-0.156c212.229,461.505,714.051,311.611,739.745-56.478
				c1.632-23.384,22.321-40.773,45.518-37.402C3415.678,3018.795,3449.798,3018.972,3484.879,3005.416z"/>
		</g>
		<g>
			<path style="fill:#000070;" d="M3034.527,3462.714c-132.563,0-251.597-50.317-335.171-141.68
				c-90.332-98.745-138.076-241.816-138.076-413.745c0-170.508,47.734-313.086,138.042-412.319
				c83.989-92.285,203.032-143.11,335.205-143.11s251.216,50.825,335.205,143.11c90.308,99.233,138.042,241.812,138.042,412.319
				c0,174.575-47.764,318.564-138.13,416.401C3285.64,3414.643,3169.761,3462.714,3034.527,3462.714z M3034.527,2386.86
				c-266.226,0-438.247,204.282-438.247,520.43s172.021,520.425,438.247,520.425c270.322,0,438.247-199.414,438.247-520.425
				C3472.774,2591.142,3300.753,2386.86,3034.527,2386.86z"/>
		</g>
		<g>
			<path style="fill:#F3960F;" d="M2989.127,3380.356c-95.845,0-181.772-42.954-241.943-120.942
				c-64.346-83.398-98.354-204.106-98.354-349.072c0-143.765,34.004-264.053,98.33-347.861
				c60.464-78.774,146.396-122.158,241.968-122.158s181.504,43.384,241.968,122.158c64.326,83.809,98.33,204.097,98.33,347.861
				c0,147.202-34.023,268.687-98.398,351.318C3170.538,3339.311,3086.89,3380.356,2989.127,3380.356z M2989.127,2471.454
				c-86.914,0-162.046,38.032-217.271,109.98c-60.117,78.325-91.895,192.056-91.895,328.906
				c0,266.611,121.353,438.882,309.165,438.882c190.698,0,309.165-168.169,309.165-438.882c0-136.851-31.777-250.581-91.895-328.906
				C3151.173,2509.487,3076.041,2471.454,2989.127,2471.454z"/>
		</g>
		<g style="opacity:0.6;">
			<g>
				<path style="fill:#FFFFFF;" d="M2967.801,3202.799l-2.576-51.018c-19.264-0.665-35.702-4.459-49.305-11.401
					c-13.614-6.952-24.984-15.784-34.115-26.507c-9.138-10.722-16.412-22.082-21.827-34.099
					c-5.41-11.998-9.483-23.399-12.214-34.176c-2.727-10.777-5.013-22.801-6.846-36.083l77.512-5.556
					c1.959,10.021,4.358,18.587,7.197,25.698c2.829,7.112,7.033,13.819,12.596,20.122c5.563,6.313,13.055,10.55,22.495,12.72
					l-5.274-104.469l-3.98-0.94c-10.328-2.502-21.567-5.858-33.725-10.077c-12.16-4.199-23.908-10.474-35.253-18.804
					c-11.348-8.33-20.825-19.937-28.42-34.843c-7.601-14.895-11.999-34.28-13.206-58.184c-1.349-26.72,2.194-50.233,10.64-70.559
					c8.439-20.305,20.502-36.719,36.192-49.22c15.683-12.502,33.769-20.708,54.261-24.618l-2.545-50.407l34.837-2.497l2.576,51.018
					c19.88,1.422,36.462,6.737,49.75,15.936c13.281,9.209,24.027,20.133,32.243,32.74c8.213,12.617,14.448,25.08,18.714,37.367
					c4.26,12.298,7.969,26.661,11.133,43.09l-75.768,5.432c-2.96-12.381-6.743-22.38-11.346-29.968
					c-4.611-7.597-11.38-13.3-20.312-17.137l4.844,95.959l7.523,1.902c9.433,2.171,19.938,5.381,31.516,9.632
					c11.579,4.251,22.976,10.748,34.197,19.493c11.217,8.744,20.645,20.869,28.277,36.375c7.625,15.506,12.06,35.402,13.286,59.7
					c1.962,38.865-6.069,71.753-24.083,98.646c-18.021,26.893-43.611,43.752-76.765,50.607l2.606,51.629L2967.801,3202.799z
					 M2915.479,2824.348c0.532,10.539,3.639,18.748,9.329,24.626c5.684,5.899,14.305,10.668,25.852,14.308l-4.415-87.46
					c-10.329,3.172-18.184,9.221-23.559,18.147C2917.304,2802.886,2914.906,2813.021,2915.479,2824.348z M3025.261,3007.885
					c-0.572-11.336-3.788-20.15-9.637-26.433c-5.856-6.292-14.106-11.078-24.761-14.386l4.661,92.325
					c9.994-3.969,17.6-10.603,22.81-19.922C3023.547,3030.16,3025.854,3019.635,3025.261,3007.885z"/>
			</g>
		</g>
		<g>
			<g>
				<path style="fill:#F3960F;" d="M2978.553,3192.799l-2.576-51.018c-19.264-0.665-35.702-4.459-49.305-11.401
					c-13.614-6.952-24.984-15.784-34.115-26.507c-9.138-10.722-16.412-22.082-21.827-34.099
					c-5.411-11.998-9.483-23.399-12.214-34.176c-2.727-10.777-5.013-22.801-6.846-36.083l77.512-5.556
					c1.959,10.021,4.358,18.587,7.197,25.698c2.829,7.112,7.033,13.819,12.596,20.122c5.563,6.313,13.055,10.55,22.495,12.72
					l-5.274-104.469l-3.981-0.94c-10.328-2.502-21.567-5.858-33.725-10.077c-12.16-4.199-23.908-10.474-35.253-18.804
					c-11.349-8.33-20.825-19.937-28.42-34.843c-7.601-14.895-11.999-34.28-13.206-58.184c-1.349-26.72,2.195-50.233,10.64-70.559
					c8.439-20.305,20.502-36.719,36.192-49.22c15.683-12.502,33.769-20.708,54.261-24.618l-2.545-50.407l34.837-2.497l2.575,51.018
					c19.88,1.422,36.462,6.737,49.75,15.936c13.281,9.209,24.028,20.133,32.243,32.74c8.213,12.617,14.448,25.08,18.714,37.367
					c4.26,12.298,7.969,26.661,11.133,43.09l-75.768,5.432c-2.96-12.381-6.743-22.38-11.346-29.968
					c-4.611-7.597-11.38-13.3-20.312-17.137l4.844,95.959l7.523,1.902c9.432,2.171,19.938,5.381,31.516,9.632
					s22.976,10.748,34.197,19.493c11.217,8.744,20.645,20.869,28.277,36.375c7.625,15.506,12.06,35.402,13.286,59.7
					c1.962,38.865-6.069,71.753-24.083,98.646c-18.021,26.893-43.611,43.752-76.765,50.607l2.606,51.629L2978.553,3192.799z
					 M2926.231,2814.348c0.532,10.539,3.64,18.748,9.329,24.626c5.684,5.899,14.305,10.668,25.852,14.308l-4.415-87.46
					c-10.328,3.172-18.184,9.221-23.558,18.147C2928.057,2792.886,2925.659,2803.021,2926.231,2814.348z M3036.013,2997.885
					c-0.572-11.336-3.788-20.15-9.636-26.433c-5.856-6.292-14.106-11.078-24.761-14.386l4.661,92.325
					c9.994-3.969,17.6-10.603,22.81-19.922C3034.3,3020.16,3036.606,3009.635,3036.013,2997.885z"/>
			</g>
		</g>
		<g>
			<path style="fill:#02BAF3;" d="M2917.798,2445.495c-100.35,61.695-236.659,97.341-280.401,107.667
				c-9.029,2.179-14.114,3.269-14.114,3.269c2.024,6.434,3.995,12.816,5.864,19.146c63.043,214.141,22.467,374.215-79.648,479.961
				c-0.052,0.104-0.104,0.156-0.207,0.208c-29.784,30.822-64.808,56.972-104.035,78.558c0,0-0.052,0-0.052,0.052
				c-15.1,8.302-30.874,15.929-47.166,22.883c0,0,0.779,1.557,1.713,4.462c3.476,10.636,9.339,39.746-10.377,81.153
				c65.741,8.665,106.37,108.082,7.783,121.936h-293.321c-27.033,0-53.393-9.028-74.511-25.892
				c-27.708-22.208-58.581-61.072-63.147-125.724c-0.052-0.468-0.052-0.986-0.104-1.453c0,0-9.755-0.156-24.128-0.675h-0.363
				c-18.109-0.675-43.431-2.024-65.794-4.566c-14.424-1.609-27.604-3.684-36.84-6.434c0,0-3.632,59.463-22.52,110.158
				c-12.245,32.741-43.377,54.586-78.298,54.586h-390.819c0,0-114.153-32.015,24.231-166.923v-27.656
				c-3.632,0.156-7.316,0.26-10.948,0.312c-277.288,5.344-607.969-247.868-633.809-440.06c-0.778-5.76-0.207-11.208,1.349-16.137
				c6.642-20.859,31.496-32.897,52.977-21.274c37.048,20.08,91.219,45.246,149.385,58.581
				c166.04,38.085,318.228,39.798,377.95-183.163l137.45-218.084c0,0,228.306-181.607,306.138-199.093
				s269.816,64.185,306.138,78.662c36.321,14.528,387.082-13.128,387.082-13.128s289.171-70.516,439.645-10.015
				c31.91,12.817,57.18,27.604,76.067,43.638C3031.277,2310.016,3013.168,2386.914,2917.798,2445.495z"/>
		</g>
		<g style="opacity:0.7;">
			<g>
				<path style="fill:#FFFFFF;" d="M2343.557,2259.584c0,0,421.325-97.752,653.654,38.035c0,0-82.665-118.135-254.006-115.056
					c-171.342,3.079-258.556,21.824-258.556,21.824"/>
			</g>
		</g>
		<g style="opacity:0.2;">
			<path style="fill:#000070;" d="M2917.798,2445.495c-100.35,61.695-236.659,97.341-280.401,107.667l-58.633-132.521
				c409.913,22.519,382.204-170.192,382.204-170.192C3031.277,2310.016,3013.168,2386.914,2917.798,2445.495z"/>
		</g>
		<g style="opacity:0.2;">
			<path style="fill:#000070;" d="M1361.166,3170.211c0,0-0.207,0.104-0.57,0.312c-277.288,5.344-607.969-247.868-633.809-440.06
				c-0.778-5.76-0.207-11.208,1.349-16.137c18.835,36.892,192.815,353.095,597.591,307.279L1361.166,3170.211z"/>
		</g>
		<g>
			<path style="fill:#FFFFFF;" d="M2578.781,2891.747c0,240.717-205.981,313.488-460.071,313.488s-460.071-72.771-460.071-313.488
				c0-240.717,205.981-435.857,460.071-435.857S2578.781,2651.03,2578.781,2891.747z"/>
		</g>
		<g>
			<path style="fill:#73F140;" d="M1735.2,872.65l-20.2,8.1l-202.6,81.2c0,0-78.05-249.8-55.8-348.4
				c3.25-14.6,8.75-25.9,16.949-32.55C1537.55,529.15,1735.2,872.65,1735.2,872.65z"/>
		</g>
		<g style="opacity:0.2;">
			<path style="fill:#000070;" d="M1715,880.75l-202.6,81.2c0,0-78.05-249.8-55.8-348.4l1.749-1.9
				C1458.35,611.65,1500.95,888.9,1715,880.75z"/>
		</g>
		<g>
			<path style="fill:#73F140;" d="M2496.347,961.936c0,0,102.801-329.034,38.806-380.922S2273.527,872.64,2273.527,872.64"/>
		</g>
		<g style="opacity:0.2;">
			<path style="fill:#000070;" d="M2293.747,880.75l202.6,81.2c0,0,78.05-249.8,55.799-348.4l-1.749-1.9
				C2550.397,611.65,2507.797,888.9,2293.747,880.75z"/>
		</g>
		<g>
			<path style="fill:#02BAF3;" d="M2221.621,2256.157l-337.27,3.425c-632.304,1.141-941.347-439.852-674.332-787.5
				c19.977-26.1,43.222-51.628,69.841-76.43c64.86-180.31,180.984-293.788,180.984-293.788
				c-1.349-55.831,13.595-97.964,13.595-97.964c19.458-57.077,211.442-136.205,297.473-131.017
				c86.081,5.189,112.44,71.346,112.44,71.346c80.01-10.378,160.022-10.378,240.033,0c0,0,26.359-66.157,112.44-71.346
				c86.03-5.189,278.015,73.94,297.473,131.017c0,0,14.892,42.185,13.595,97.964c0,0,116.125,113.479,180.984,293.788
				c22.934,21.326,43.326,43.274,61.332,65.586v0.051C3057.376,1792.281,2793.89,2214.024,2221.621,2256.157z"/>
		</g>
		<g style="opacity:0.7;">
			<g>
				<path style="fill:#FFFFFF;" d="M1882.172,939.662c-14.114,2.698-26.93,5.604-37.256,8.146
					c-16.604-11.311-40.213-21.066-73.006-23.038c-86.03-5.189-278.015,73.94-297.473,131.017c0,0-6.85,19.302-10.845,49.086
					l-5.24-0.467c1.608-1.712,2.49-2.542,2.49-2.542c-1.349-55.831,13.595-97.964,13.595-97.964
					c19.458-57.077,211.442-136.205,297.473-131.017C1844.241,877.241,1874.388,924.614,1882.172,939.662z"/>
			</g>
		</g>
		<g style="opacity:0.7;">
			<g>
				<path style="fill:#FFFFFF;" d="M2547.994,1095.377l-4.306,0.155c-3.996-24.387-9.392-39.746-9.392-39.746
					c-19.458-57.077-211.442-136.205-297.473-131.017c-43.481,2.594-70.774,18.887-87.119,34.402
					c-24.024-8.302-56.506-15.67-88.936-20.963c21.17,1.245,42.392,3.269,63.614,6.019c0,0,26.359-66.157,112.44-71.346
					c86.03-5.189,278.015,73.94,297.473,131.017C2534.296,1003.899,2548.046,1042.815,2547.994,1095.377z"/>
			</g>
		</g>
		<g style="opacity:0.2;">
			<path style="fill:#000070;" d="M2221.621,2256.157l-337.27,3.425c-632.304,1.141-941.347-439.852-674.332-787.5
				c-208.537,470.985,416.97,708.163,815.052,699.031c386.201-8.873,964.021-216.994,765.137-709.824
				C3057.376,1792.281,2793.89,2214.024,2221.621,2256.157z"/>
		</g>
		<g>
			<path style="fill:#73F140;" d="M788.607,2697.052c79.658-127.81,129.207-109.104,148.646,56.119"/>
		</g>
		<g>
			<path style="fill:#73F140;" d="M1000.625,2765.173c43.45-143.342,93.921-144.771,151.384-4.875"/>
		</g>
		<g>
			<path style="fill:#73F140;" d="M1274.288,2521.615c-62.907-22.099-123.815-40.36-50.474,199.302c0,0,95.035-51.71,77.27-158.368"
				/>
		</g>
		<g>
			<ellipse style="fill:#000070;" cx="1948.562" cy="1738.975" rx="17.08" ry="21.188"/>
		</g>
		<g>
			<ellipse style="fill:#000070;" cx="2025.096" cy="1738.975" rx="17.08" ry="21.188"/>
		</g>
		<g>
			
				<ellipse transform="matrix(0.4039 -0.9148 0.9148 0.4039 -719.2229 2305.9939)" style="fill:#FFFFFF;" cx="1409.891" cy="1704.892" rx="57.076" ry="102.084"/>
		</g>
		<g>
			
				<ellipse transform="matrix(0.9148 -0.4039 0.4039 0.9148 -471.0282 1176.9119)" style="fill:#FFFFFF;" cx="2554.015" cy="1704.892" rx="102.084" ry="57.076"/>
		</g>
		<g>
			<path style="fill:#FFFFFF;" d="M1789.128,1281.481c-5.506,17.982-32.588,20.817-62.387,11.692
				c-29.798-9.125-51.029-26.754-45.523-44.736s34.126-25.162,63.925-16.037C1774.942,1241.525,1794.635,1263.499,1789.128,1281.481
				z"/>
		</g>
		<g>
			<path style="fill:#FFFFFF;" d="M2173.143,1281.481c5.506,17.982,32.588,20.817,62.387,11.692
				c29.799-9.125,51.03-26.754,45.523-44.736c-5.506-17.982-34.126-25.162-63.925-16.037S2167.637,1263.499,2173.143,1281.481z"/>
		</g>
		<g>
			<path style="fill:#000070;" d="M1598.325,1833.157c56.392,29.339,115.354,50.837,176.65,66.023
				c30.664,7.352,61.853,12.632,93.208,16.393c31.345,3.876,62.915,6.068,94.492,6.605c31.572,0.493,63.186-0.108,94.597-2.897
				c31.387-2.861,62.615-7.238,93.269-13.886c30.627-6.669,60.676-15.764,89.18-27.886c28.621-12.024,55.698-26.21,82.051-43.686
				l0.251-0.167c2.988-1.981,7.014-1.165,8.997,1.822c1.572,2.374,1.372,5.413-0.271,7.551
				c-10.232,13.253-22.307,25.484-35.925,35.311c-3.401,2.46-6.67,5.224-10.237,7.399l-10.688,6.659
				c-7.075,4.599-14.68,8.032-22.119,11.908c-7.532,3.604-15.232,6.796-22.922,10.022c-7.808,2.825-15.576,5.825-23.43,8.493
				c-7.91,2.439-15.774,5.126-23.74,7.351c-7.988,2.092-15.938,4.451-23.975,6.315c-32.1,7.794-64.675,13.072-97.393,16.146
				c-32.717,3.038-65.562,4.384-98.352,3.519c-32.786-0.852-65.51-3.419-98.022-7.736c-32.495-4.466-64.753-10.771-96.545-19.099
				c-31.755-8.398-63.193-18.623-93.159-32.536c-29.883-13.893-58.652-31.013-83.279-53.086c-2.664-2.387-2.888-6.481-0.5-9.144
				c2.014-2.248,5.247-2.758,7.808-1.426L1598.325,1833.157z"/>
		</g>
		<g>
			<path style="fill:#000070;" d="M2342.839,1774.673c-0.737,10.336-1.658,20.737-1.543,30.248c0.078,9.58,1.013,18.544,3.391,26.61
				c1.16,4.052,2.705,7.888,4.553,11.639c1.953,3.696,4.287,7.263,6.963,10.836c5.53,7.032,12.715,13.672,20.925,20.847l0.173,0.151
				c2.793,2.441,3.079,6.684,0.637,9.477c-1.467,1.68-3.625,2.448-5.691,2.267c-11.978-1.134-23.862-5.876-34.246-13.864
				c-5.073-4.128-9.744-9.016-13.55-14.624c-3.748-5.64-6.611-11.881-8.538-18.308c-3.896-12.926-3.599-26.294-0.818-38.342
				c2.93-12.147,7.905-23.052,16.204-32.611c2.397-2.76,6.577-3.055,9.338-0.659c1.624,1.411,2.395,3.44,2.266,5.433
				L2342.839,1774.673z"/>
		</g>
		<g>
			<path style="fill:#F0F1F1;" d="M1694.533,1890.203c46.08,17.871,96.599,30.319,150.31,38.872c0,0-20.164,80.797-79.834,88.58
				C1705.338,2025.438,1692.809,1924.901,1694.533,1890.203z"/>
		</g>
		<g>
			<path style="fill:#F0F1F1;" d="M2124.376,1927.108c0,0,95.627-3.346,145.24-38.172
				C2269.617,2034.042,2199.381,2093.599,2124.376,1927.108z"/>
		</g>
		<g>
			<path style="fill:#000070;" d="M1758.663,2033.075c-14.937,0-28.667-5.449-40.098-16.006
				c-35.4-32.668-40.142-104.888-39.014-127.61c0.239-4.812,2.773-9.216,6.816-11.838c4.038-2.622,9.101-3.145,13.589-1.401
				c42.964,16.66,91.133,29.107,147.246,38.042c4.15,0.662,7.837,3.035,10.156,6.543c2.314,3.506,3.057,7.825,2.041,11.904
				c-0.928,3.703-23.438,90.82-92.451,99.819C1764.151,2032.895,1761.387,2033.075,1758.663,2033.075z M1710.01,1911.845
				c2.251,28.196,10.713,66.394,28.901,83.181c7.066,6.521,14.732,8.987,24.16,7.756c34.434-4.492,53.589-40.562,61.992-61.821
				C1782.774,1933.469,1744.82,1923.866,1710.01,1911.845z"/>
		</g>
		<g>
			<path style="fill:#000070;" d="M2212.144,2042.699c-25.747,0-61.816-21.46-101.445-109.429
				c-2.051-4.556-1.699-9.834,0.938-14.077s7.217-6.897,12.207-7.075c0.913-0.034,91.821-3.635,137.153-35.461
				c4.585-3.213,10.576-3.604,15.537-1.033c4.966,2.583,8.081,7.715,8.081,13.311c0,87.19-23.457,144.287-62.754,152.729
				C2218.814,2042.319,2215.572,2042.699,2212.144,2042.699z M2147.34,1940.451c28.838,57.161,53.784,74.993,68.218,71.882
				c17.061-3.667,34.307-37.903,38.232-97.412C2217.799,1931.213,2173.551,1937.829,2147.34,1940.451z"/>
		</g>
		<g>
			<path style="fill:#000070;" d="M1884.363,2267.082c-59.509,2.162-119.38,0.257-178.831-6.957
				c-29.709-3.65-59.353-8.289-88.779-14.3c-29.355-6.322-58.479-13.907-87.239-22.842c-28.745-8.97-57.173-19.2-84.924-31.2
				c-27.776-11.943-54.773-25.788-80.977-41.08c-52.439-30.508-100.986-68.424-142.625-113.319
				c-41.453-44.958-75.613-97.433-97.617-155.18c-10.889-28.887-18.682-58.991-23.123-89.618c-4.258-30.654-5-61.806-2.268-92.625
				c5.662-61.698,25.823-121.482,55.918-174.854c30.171-53.476,69.7-100.819,113.984-142.217l0.044-0.042l-4.536,6.878
				c10.452-27.683,21.458-55.189,34.651-81.644c12.739-26.674,27.192-52.471,42.603-77.641
				c15.349-25.22,32.136-49.534,49.958-73.087c8.889-11.794,18.179-23.302,27.676-34.665c9.731-11.352,19.238-22.209,30.303-33.367
				l-5.259,12.919c-0.505-25.37,1.865-50.588,7.004-75.343c1.277-6.197,2.776-12.359,4.478-18.556
				c0.857-3.12,1.763-6.157,2.869-9.505c1.492-3.707,3.11-8.062,5.193-11.226c8.103-13.624,18.057-22.809,28.086-31.216
				c20.244-16.473,41.824-28.917,63.816-40.302c22.043-11.224,44.612-21.001,67.651-29.547
				c23.037-8.562,46.521-15.943,70.669-21.679c12.073-2.877,24.302-5.357,36.848-7.091c12.546-1.731,25.334-2.895,38.806-2.495
				c6.768,0.082,13.23,1.199,19.854,1.801c3.291,0.395,6.56,1.247,9.839,1.865c3.262,0.771,6.584,1.147,9.785,2.271
				c12.996,3.541,25.557,8.962,37.344,15.786c11.672,7.058,22.336,15.766,31.599,25.765c4.683,4.954,8.855,10.379,12.813,15.971
				c1.873,2.903,3.799,5.726,5.5,8.813c0.886,1.489,1.731,3.059,2.549,4.684c0.413,0.797,0.825,1.588,1.238,2.497
				c0.413,0.893,0.781,1.639,1.343,3.011l-18.506-10.873c81.03-10.563,163.499-10.563,244.526,0l-18.506,10.873
				c0.562-1.372,0.933-2.118,1.345-3.011c0.41-0.909,0.823-1.699,1.235-2.497c0.818-1.625,1.665-3.195,2.549-4.684
				c1.702-3.087,3.63-5.911,5.5-8.813c3.958-5.592,8.13-11.017,12.815-15.971c9.26-9.999,19.924-18.708,31.597-25.765
				c11.79-6.824,24.351-12.244,37.344-15.786c3.201-1.124,6.523-1.5,9.785-2.271c3.279-0.617,6.55-1.469,9.839-1.865
				c6.624-0.603,13.086-1.719,19.854-1.801c13.472-0.4,26.26,0.764,38.806,2.495c12.546,1.734,24.778,4.214,36.848,7.091
				c24.15,5.736,47.632,13.117,70.669,21.679c23.042,8.546,45.61,18.323,67.651,29.547c21.992,11.385,43.572,23.829,63.818,40.302
				c10.027,8.407,19.983,17.592,28.083,31.216c2.085,3.163,3.701,7.518,5.193,11.226c1.108,3.348,2.012,6.385,2.869,9.505
				c1.702,6.197,3.203,12.359,4.48,18.556c5.137,24.755,7.507,49.973,7.004,75.343l-5.261-12.919
				c11.06,11.154,20.564,22.006,30.293,33.353c9.492,11.358,18.779,22.861,27.664,34.65c17.817,23.541,34.597,47.846,49.944,73.054
				c15.408,25.157,29.854,50.944,42.593,77.605c13.193,26.441,24.197,53.935,34.646,81.606l0.051,0.136l-4.534-6.878
				c41.174,38.671,78.252,82.362,107.549,131.399l2.864,4.515l2.529,4.724l5.012,9.477l10.002,18.965
				c3.25,6.364,5.745,13.115,8.647,19.658c2.773,6.605,5.669,13.161,8.328,19.812l6.704,20.469l3.337,10.239
				c0.54,1.712,1.145,3.403,1.628,5.131l1.226,5.253l4.868,21.02c0.776,3.511,1.685,6.994,2.346,10.528l1.494,10.698
				c8.687,56.881,5.537,115.846-10.281,171.219c-15.991,55.327-42.961,106.993-77.458,152.446
				c-34.553,45.486-76.174,85.125-121.99,118.509c-2.766,2.229-5.676,4.248-8.65,6.168l-8.838,5.892l-17.683,11.774
				c-5.793,4.097-12.09,7.334-18.152,10.971l-18.347,10.642c-24.792,13.517-50.051,26.259-76.24,36.685
				c-6.519,2.666-12.922,5.635-19.534,8.046l-19.873,7.112l-19.868,7.1c-6.614,2.389-13.433,4.122-20.137,6.212l-20.19,6.011
				c-6.724,2.032-13.438,4.085-20.317,5.49l-40.991,9.423c-55.066,10.463-110.918,15.813-166.604,15.197
				c-4.158-0.046-7.49-3.453-7.444-7.609c0.042-3.674,2.708-6.704,6.196-7.326l0.144-0.025
				c54.214-9.71,107.732-19.573,160.449-32.577c52.544-13.444,104.299-29.578,153.77-51.055
				c12.273-5.552,24.814-10.551,36.699-16.85l18.042-9.025c6.033-2.975,12.065-5.95,17.795-9.451l17.441-10.072
				c5.759-3.439,11.775-6.49,17.246-10.365c11.094-7.511,22.505-14.599,33.352-22.433c43.54-31.115,83.164-67.779,115.449-110.031
				c32.324-42.125,57.495-89.667,72.051-140.371c14.475-50.712,17.28-104.335,9.377-156.34l-1.34-9.781
				c-0.605-3.234-1.458-6.426-2.173-9.641l-4.453-19.264l-1.108-4.818c-0.442-1.587-1.011-3.142-1.509-4.714l-3.086-9.413
				l-6.14-18.835c-2.466-6.134-5.159-12.188-7.72-18.289c-2.69-6.047-4.951-12.282-7.976-18.183l-9.304-17.601l-4.641-8.806
				l-2.339-4.393l-2.683-4.209c-27.295-45.687-62.185-86.918-101.343-123.702c-1.987-1.868-3.45-4.086-4.38-6.469l-0.156-0.411
				l-0.049-0.13c-10.015-26.46-20.52-52.787-33.193-78.161c-12.212-25.578-26.104-50.363-40.92-74.555
				c-14.751-24.243-30.908-47.637-48.018-70.246c-8.535-11.325-17.439-22.347-26.504-33.199
				c-9.092-10.634-18.718-21.53-28.04-30.933l-0.156-0.157c-3.481-3.513-5.183-8.18-5.105-12.764
				c0.447-22.501-1.677-45.25-6.274-67.373c-1.138-5.527-2.476-11-3.943-16.345c-0.723-2.652-1.538-5.35-2.307-7.685
				c-0.884-1.765-1.121-3.181-2.395-5.007c-4.08-7.067-11.648-14.81-19.993-21.623c-16.914-13.811-36.985-25.577-57.478-36.139
				c-20.623-10.502-42.058-19.802-63.906-27.901c-21.831-8.12-44.126-15.11-66.563-20.434c-22.319-5.309-45.308-9.153-66.409-8.66
				c-5.215,0.025-10.596,1.03-15.891,1.443c-2.654,0.301-5.188,1.023-7.788,1.498c-2.554,0.621-5.247,0.848-7.693,1.765
				c-10.129,2.758-19.666,6.937-28.618,12.055c-8.818,5.348-16.855,11.921-23.865,19.473c-3.555,3.731-6.675,7.841-9.648,11.998
				c-1.353,2.138-2.827,4.248-4.001,6.415c-0.649,1.081-1.221,2.146-1.746,3.197c-0.278,0.53-0.562,1.065-0.759,1.522l-0.505,1.079
				l-0.457,0.972c-3.298,7.046-10.728,10.847-18.052,9.902c-78.093-10.176-157.427-10.176-235.522,0
				c-7.715,1.005-14.907-3.193-18.047-9.878l-0.459-0.996l-0.505-1.079c-0.2-0.458-0.483-0.992-0.762-1.522
				c-0.525-1.051-1.094-2.116-1.746-3.197c-1.174-2.167-2.649-4.277-3.999-6.415c-2.976-4.156-6.094-8.267-9.651-11.998
				c-7.007-7.552-15.046-14.125-23.862-19.473c-8.953-5.119-18.489-9.297-28.618-12.055c-2.446-0.917-5.142-1.143-7.693-1.765
				c-2.603-0.475-5.137-1.197-7.788-1.498c-5.295-0.413-10.679-1.418-15.891-1.443c-21.101-0.494-44.092,3.351-66.411,8.66
				c-22.437,5.324-44.729,12.313-66.56,20.434c-21.848,8.099-43.284,17.398-63.909,27.901
				c-20.493,10.562-40.562,22.328-57.478,36.139c-8.342,6.813-15.913,14.557-19.993,21.623c-1.272,1.826-1.511,3.241-2.393,5.007
				c-0.771,2.334-1.587,5.032-2.31,7.685c-1.465,5.345-2.805,10.818-3.94,16.345c-4.6,22.122-6.724,44.871-6.274,67.373
				c0.098,4.946-1.851,9.458-5.068,12.724l-0.195,0.197c-9.324,9.407-18.955,20.307-28.052,30.946
				c-9.067,10.857-17.974,21.883-26.511,33.213c-17.114,22.62-33.281,46.023-48.035,70.277c-14.817,24.205-28.716,49-40.928,74.59
				c-12.676,25.386-23.181,51.725-33.198,78.197c-1.003,2.651-2.542,4.943-4.446,6.799l-0.09,0.081l-0.042,0.04
				c-42.129,39.38-79.285,84.036-107.344,133.775c-27.991,49.665-46.387,104.57-51.567,160.882
				c-2.488,28.139-1.814,56.526,2.063,84.508c4.133,27.95,11.499,55.411,21.621,81.856c20.518,52.849,52.344,101.236,91.309,143.016
				c38.962,41.919,84.893,77.326,134.155,107.269c49.497,29.643,102.458,53.954,157.48,72.791
				c55.029,18.859,111.956,32.548,169.656,42.364c28.87,4.893,58,8.216,87.197,11.326c29.224,2.928,58.589,4.442,88.018,5.801
				l0.103,0.005c4.138,0.191,7.341,3.702,7.148,7.843C1891.406,2263.85,1888.215,2266.93,1884.363,2267.082z"/>
		</g>
		<g>
			<path style="fill:#000070;" d="M1512.374,979.44c-7.451,0-14.36-4.797-16.699-12.285c-0.259-0.833-26.182-84.17-43.857-172.8
				c-33.584-168.377-9.956-210.156,10.737-226.934c9.829-7.971,22.129-10.867,35.571-8.369
				c83.633,15.537,235.234,275.295,252.246,304.861c4.819,8.379,1.934,19.077-6.445,23.896c-8.364,4.814-19.072,1.941-23.892-6.44
				c-61.157-106.277-177.212-278.415-228.301-287.905c-4.668-0.869-6.274,0.437-7.139,1.145
				c-7.451,6.04-29.365,37.788,1.494,192.654c17.305,86.841,42.739,168.638,42.993,169.456c2.881,9.224-2.261,19.038-11.484,21.921
				C1515.86,979.181,1514.102,979.44,1512.374,979.44z"/>
		</g>
		<g>
			<path style="fill:#000070;" d="M2496.353,979.44c-1.729,0-3.486-0.259-5.225-0.801c-9.224-2.883-14.365-12.698-11.484-21.921
				c0.254-0.818,25.688-82.615,42.993-169.456c30.859-154.866,8.945-186.614,1.494-192.654c-0.864-0.706-2.466-2.004-7.139-1.145
				c-51.089,9.49-167.144,181.628-228.301,287.905c-4.819,8.379-15.522,11.255-23.892,6.44c-8.379-4.819-11.265-15.518-6.445-23.896
				c17.012-29.565,168.613-289.324,252.246-304.861c13.438-2.507,25.737,0.396,35.571,8.369
				c20.693,16.777,44.321,58.557,10.737,226.934c-17.676,88.63-43.599,171.968-43.857,172.8
				C2510.714,974.643,2503.804,979.44,2496.353,979.44z"/>
		</g>
		<g>
			<path style="fill:#000070;" d="M1884.351,961.728c-1.174-0.083-3.372-0.083-5.2-0.053c-1.882-0.007-3.894,0.127-5.842,0.18
				c-3.953,0.221-7.942,0.445-11.963,0.864c-8.032,0.702-16.128,1.843-24.216,3.12c-16.189,2.629-32.336,6.305-48.379,10.593
				c-16.028,4.362-31.919,9.487-47.644,15.203c-7.898,2.768-15.615,6.029-23.457,9.026l-23.167,9.915l-0.264,0.112
				c-3.809,1.63-8.218-0.136-9.846-3.945c-1.528-3.57-0.042-7.683,3.284-9.524l22.588-12.414
				c7.688-3.846,15.271-7.959,23.088-11.598c15.559-7.454,31.436-14.362,47.671-20.545c16.262-6.112,32.825-11.645,49.827-16.155
				c8.516-2.22,17.095-4.302,25.872-5.955c4.363-0.89,8.811-1.593,13.293-2.284c2.283-0.295,4.487-0.656,6.841-0.891
				c2.407-0.264,4.446-0.503,7.515-0.65l0.396-0.019c9.678-0.464,17.898,7.004,18.362,16.681s-7.004,17.897-16.68,18.362
				C1885.762,961.783,1885,961.769,1884.351,961.728z"/>
		</g>
		<g>
			<path style="fill:#000070;" d="M2126.399,926.845c11.379,1.911,21.44,4.241,31.946,6.762c10.356,2.596,20.637,5.34,30.806,8.401
				c20.339,6.092,40.42,12.84,60.078,20.625c19.658,7.765,39.082,16.052,57.964,25.436c19.009,9.099,37.388,19.424,55.532,30.006
				c3.579,2.087,4.788,6.681,2.7,10.259c-1.98,3.395-6.216,4.657-9.7,2.996l-0.203-0.098c-18.557-8.908-37.217-17.51-56.389-24.86
				c-19.041-7.633-38.503-14.141-58.062-20.109c-19.558-5.987-39.409-10.919-59.312-15.181c-9.951-2.147-19.951-3.967-29.932-5.637
				c-9.866-1.562-20.247-3.046-29.475-3.836l-0.352-0.03c-9.641-0.826-16.787-9.311-15.962-18.952
				c0.825-9.641,9.312-16.787,18.953-15.962C2125.454,926.707,2125.947,926.771,2126.399,926.845z"/>
		</g>
		<g>
			<path style="fill:#000070;" d="M2540.41,2346.821c23.125,36.257,44.199,73.947,62.717,113.036
				c18.037,39.288,33.948,79.778,46.221,121.587c12.444,41.748,21.057,84.845,25.237,128.597
				c3.972,43.751,3.296,88.188-3.193,132.059c-6.431,43.865-19.866,86.929-39.502,127.011
				c-10.325,19.767-21.445,39.245-34.973,57.034l-4.91,6.781c-1.67,2.235-3.511,4.335-5.259,6.509l-10.627,12.926l-11.35,12.275
				l-5.693,6.12l-6.03,5.775l-12.087,11.517l-12.693,10.816c-2.126,1.787-4.209,3.633-6.375,5.368l-6.626,5.04l-13.289,10.026
				c-9.243,6.095-18.154,12.754-27.756,18.246l-14.214,8.557l-14.587,7.848l-7.297,3.918l-7.456,3.573l-14.927,7.116l-0.933,0.444
				c-0.242,0.122,0.188-0.065,0.234-0.11c0.283-0.148,0.559-0.33,0.82-0.537c0.527-0.413,0.996-0.928,1.37-1.528
				c0.752-1.173,1.128-2.828,0.874-4.344c-0.005-0.143-0.09-0.449-0.09-0.449l0.273,1.21l0.527,2.418
				c0.298,1.603,0.618,3.212,0.828,4.804c0.498,3.197,0.791,6.371,0.974,9.531c1.382,25.361-5.466,49.231-15.422,70.369
				l-13.521-24.864c19.81,2.626,37.905,11.89,51.992,24.896c14.031,13.055,24.978,29.983,28.813,50.467
				c1.833,10.174,1.655,21.377-1.799,32.094c-3.452,10.703-10.159,20.331-18.184,27.337c-8.035,7.089-17.083,11.813-26.04,15.217
				c-9.006,3.403-17.966,5.159-26.851,6.606c-0.681,0.111-1.357,0.167-2.026,0.171l-0.408-0.001H2137.09h-32.51
				c-12.117,0.016-24.685-1.423-36.641-4.657c-12.014-3.164-23.65-8.012-34.385-14.483c-5.298-3.161-10.703-6.956-15.215-10.689
				c-4.685-3.705-9.138-7.708-13.445-11.863c-17.219-16.648-31.006-36.957-40.405-58.941c-9.46-22.018-14.248-45.546-15.881-68.82
				l17.219,16.383c-10.977-0.192-21.655-0.553-32.478-1.018c-10.791-0.464-21.594-1.091-32.432-1.871
				c-10.833-0.76-21.716-1.788-32.717-3.13c-11.067-1.416-21.968-2.907-34.224-6.375l22.439-15.714
				c-0.999,13.632-2.568,26.209-4.597,39.206c-2.041,12.886-4.548,25.728-7.676,38.522c-3.159,12.828-6.838,25.457-11.655,38.25
				c-2.722,7.103-6.301,13.861-10.449,20.244c-4.277,6.309-9.238,12.129-14.724,17.415c-5.576,5.198-11.714,9.763-18.252,13.685
				c-6.594,3.837-13.621,6.894-20.879,9.251c-7.3,2.262-14.844,3.637-22.444,4.311c-8.201,0.447-13.774,0.25-20.225,0.295h-75.64
				l-302.563,0h-0.249c-1.528,0-3.079-0.243-4.475-0.65c-2.053-0.609-3.074-0.987-4.475-1.5c-1.301-0.481-2.566-0.989-3.796-1.519
				c-2.483-1.049-4.88-2.212-7.251-3.45c-4.722-2.5-9.275-5.428-13.621-8.808c-8.674-6.718-16.44-15.755-21.506-26.523
				c-5.083-10.77-6.841-22.871-6.165-33.939c0.679-11.134,3.455-21.418,7.102-30.844c7.571-18.706,18.193-34.561,29.602-49.167
				c11.484-14.57,23.975-27.828,36.831-40.535l-5.283,12.529v-27.672l18.274,17.482c-67.627,2.736-134.395-9.249-197.766-29.159
				c-63.406-20.23-123.652-48.844-180.225-83.209c-56.34-34.754-109.277-75.208-156.345-122.263
				c-23.442-23.601-45.418-48.846-64.993-76.161c-19.504-27.318-36.863-56.696-48.994-89.021c-2.937-8.12-5.989-16.187-8.047-24.705
				c-1.074-4.232-2.461-8.349-3.257-12.68l-2.371-12.997l-0.581-3.251l-0.288-1.648l-0.171-2.208
				c-0.195-2.953-0.459-5.885-0.1-8.894l0.413-4.48c0.276-1.479,0.62-2.953,0.96-4.425c0.571-2.977,1.726-5.776,2.839-8.585
				c4.658-11.207,13.357-20.185,23.618-26.019c10.259-5.933,22.786-8.116,34.707-6.279c5.986,0.839,11.66,2.935,16.914,5.551
				l10.759,5.663c14.043,7.338,28.335,14.18,42.817,20.509c28.945,12.675,58.765,23.158,89.08,30.401
				c31.025,7.238,62.456,13.341,93.669,16.864c31.206,3.373,62.483,4.126,92.466-0.494c29.915-4.677,58.259-15.209,82.163-32.479
				c24.114-17.024,43.162-40.885,58.154-67.367c14.802-26.716,25.579-56.14,33.806-86.414l0.037-0.13
				c2.534-9.327,12.151-14.832,21.477-12.297s14.832,12.151,12.297,21.477v0.004c-8.792,32.313-20.396,64.346-37.08,94.462
				c-16.865,29.861-39.177,58.099-68.262,78.684c-28.804,20.86-63.027,33.357-97.173,38.639
				c-34.28,5.267-68.472,4.282-101.729,0.704c-33.315-3.772-65.723-10.096-97.903-17.596c-32.842-7.849-64.504-19.032-95.012-32.382
				c-15.261-6.671-30.264-13.855-44.99-21.549l-10.784-5.675c-2.026-0.925-4.023-1.761-6.096-1.991
				c-4.065-0.583-8.477-0.018-12.266,2.26c-3.733,2.189-7.048,5.434-8.538,9.325c-0.325,0.983-0.852,1.902-0.957,2.951l-0.383,1.51
				c-0.01,0.533-0.039,1.06-0.088,1.585c-0.227,1.032,0.01,2.152,0.034,3.249l0.017,0.829l0.244,1.348l0.508,2.737l1.987,10.955
				c0.649,3.655,1.904,7.252,2.815,10.884c1.721,7.295,4.451,14.41,7.024,21.557c10.667,28.539,26.543,55.619,44.731,81.061
				c18.247,25.465,39.014,49.364,61.313,71.812c44.795,44.794,95.696,83.73,149.815,117.112
				c54.351,33.018,112.222,60.467,172.566,79.712c60.295,18.959,123.257,30.085,185.62,27.549l0.061-0.003
				c9.656-0.393,17.803,7.117,18.196,16.775c0.01,0.215,0.015,0.498,0.015,0.711v27.672c0,4.85-1.973,9.239-5.159,12.409
				l-0.125,0.122c-12.024,11.886-23.55,24.162-33.73,37.082c-10.129,12.885-18.984,26.543-24.548,40.33
				c-5.403,13.83-6.606,27.183-1.807,37.222c2.429,5.071,6.216,9.767,11.367,13.759c2.561,1.986,5.378,3.824,8.389,5.417
				c1.509,0.784,3.047,1.536,4.595,2.187c0.776,0.337,1.541,0.643,2.292,0.921l1.736,0.609l-4.724-0.649l302.563,0h75.64
				c6.157-0.009,13.196,0.066,17.585-0.196c4.954-0.474,9.866-1.345,14.624-2.811c4.719-1.563,9.309-3.537,13.625-6.037
				c4.26-2.587,8.281-5.563,11.946-8.956c3.574-3.482,6.829-7.285,9.646-11.41c2.69-4.202,5.061-8.618,6.855-13.297
				c4.072-10.804,7.493-22.417,10.349-34.068c2.861-11.697,5.193-23.622,7.097-35.637c1.88-11.909,3.394-24.381,4.238-35.895
				l0.005-0.072c0.71-9.703,9.155-16.992,18.86-16.28c1.201,0.088,2.456,0.324,3.574,0.638c8.269,2.376,18.545,3.967,28.611,5.202
				c10.156,1.238,20.503,2.224,30.935,2.955c10.425,0.75,20.906,1.36,31.411,1.811c10.474,0.452,21.104,0.808,31.44,0.988
				c9.15,0.16,16.543,7.288,17.209,16.237l0.01,0.147c1.421,19.916,5.452,39.432,13.137,57.299
				c7.654,17.847,18.669,34.1,32.625,47.603c3.494,3.364,7.102,6.623,10.923,9.635c3.84,3.176,7.356,5.59,11.35,8
				c7.827,4.725,16.392,8.308,25.334,10.658c8.982,2.418,18.13,3.486,27.673,3.488h32.51h260.083l-2.432,0.17
				c6.821-1.14,13.572-2.469,19.492-4.741c5.906-2.249,11.133-5.142,15.054-8.617c3.938-3.48,6.57-7.415,8.081-11.88
				c1.44-4.491,1.638-9.685,0.667-15.148c-1.919-10.986-8.811-22.466-18.101-30.948c-9.285-8.584-20.95-14.366-32.825-15.92
				c-9.58-1.254-16.328-10.035-15.076-19.614c0.242-1.833,0.757-3.562,1.499-5.151l0.054-0.101
				c8.198-17.302,13.101-35.874,12.09-53.318c-0.125-2.163-0.32-4.31-0.649-6.384c-0.129-1.055-0.347-2.059-0.527-3.081
				l-0.969-4.644c-1.104-6.789,0.432-14.002,4.05-19.681c1.792-2.859,4.077-5.38,6.704-7.436c1.316-1.027,2.712-1.937,4.167-2.723
				l2.896-1.419l13.965-6.665l6.98-3.335l6.799-3.661l13.606-7.31l13.203-7.959c8.95-5.091,17.144-11.278,25.728-16.9l12.256-9.26
				l6.118-4.641c1.997-1.598,3.904-3.302,5.859-4.946l11.677-9.938l11.077-10.57l5.537-5.286l5.198-5.606l10.388-11.218
				l9.692-11.805c1.597-1.982,3.286-3.893,4.807-5.933l4.465-6.188c12.361-16.2,22.432-33.963,31.875-51.963
				c4.185-9.278,8.936-18.302,12.368-27.916c1.821-4.758,3.801-9.455,5.505-14.257l4.675-14.573l2.317-7.292l1.885-7.43
				l3.767-14.859c1.04-5.008,1.899-10.061,2.864-15.087c0.894-5.041,2.039-10.032,2.539-15.15
				c5.815-40.619,5.791-82.14,1.482-123.296c-4.097-41.216-12.578-82.084-23.218-122.474
				c-10.837-40.362-24.004-80.277-38.901-119.729c-15.117-39.381-31.672-78.361-48.65-117.455l-0.039-0.09
				c-1.653-3.809,0.093-8.238,3.904-9.892C2534.514,2342.474,2538.459,2343.755,2540.41,2346.821z"/>
		</g>
		<g>
			<path style="fill:#000070;" d="M1355.776,3177.841c-5.701-13.519-10.02-26.113-14.365-39.259
				c-4.138-13.062-7.974-26.175-11.382-39.379c-6.865-26.391-12.288-53.086-16.069-79.985l-1.499-10.065l-1.14-10.119
				c-0.713-6.749-1.575-13.47-2.158-20.222c-0.876-13.542-2.161-27.014-2.253-40.571c-1.135-27.046,0.42-54.107,2.551-80.951
				c0.217-2.752,2.625-4.806,5.378-4.588c2.615,0.208,4.597,2.391,4.602,4.969v0.217c-0.024,26.531,0.513,53.002,3.682,79.262
				c1.108,13.154,3.398,26.187,5.261,39.223c1.077,6.502,2.427,12.964,3.625,19.438l1.86,9.696l2.214,9.628
				c5.681,25.699,12.922,51.019,21.479,75.793c4.25,12.396,8.896,24.631,13.789,36.718c4.966,11.897,10.374,24.214,15.923,34.938
				l0.208,0.4c4.446,8.594,1.084,19.166-7.51,23.613c-8.594,4.447-19.165,1.084-23.613-7.51
				C1356.155,3178.686,1355.95,3178.247,1355.776,3177.841z"/>
		</g>
		<g>
			<path style="fill:#000070;" d="M1957.197,3194.053l145.933,3.695l0.247,0.007c4.146,0.105,7.419,3.55,7.314,7.696
				c-0.095,3.798-2.998,6.864-6.67,7.272l-145.667,16.312c-9.634,1.079-18.318-5.856-19.397-15.49
				c-1.079-9.634,5.857-18.318,15.491-19.397c0.774-0.087,1.541-0.121,2.297-0.108L1957.197,3194.053z"/>
		</g>
		<g>
			<path style="fill:#000070;" d="M2623.258,2573.93c-8.096,0-15.366-5.654-17.104-13.896c-1.992-9.453,4.058-18.735,13.516-20.732
				c1.704-0.361,171.953-36.826,288.95-108.701c52.891-32.485,80.337-70.273,77.29-106.396
				c-3.262-38.638-41.445-74.556-107.524-101.138c-143.584-57.769-426.143,10.078-428.979,10.771
				c-9.38,2.31-18.853-3.467-21.147-12.856c-2.29-9.39,3.467-18.857,12.856-21.147c12.021-2.935,296.406-71.162,450.337-9.238
				c78.97,31.768,124.902,78.174,129.331,130.664c4.219,49.98-29.111,99.399-93.843,139.165
				c-122.246,75.098-292.852,111.606-300.054,113.125C2625.67,2573.803,2624.454,2573.93,2623.258,2573.93z"/>
		</g>
		<g>
			<path style="fill:#000070;" d="M1223.809,2738.422c-7.49,0-14.424-4.849-16.729-12.383
				c-49.463-161.631-36.152-202.598-16.611-221.357c23.682-22.749,60.244-9.897,89.619,0.425
				c9.116,3.203,13.911,13.188,10.708,22.31c-3.203,9.116-13.193,13.916-22.31,10.708c-18.164-6.382-45.615-16.025-53.779-8.193
				c-7.212,6.924-19.136,38.896,25.84,185.864c2.827,9.243-2.373,19.028-11.611,21.855
				C1227.227,2738.173,1225.504,2738.422,1223.809,2738.422z"/>
		</g>
		<g>
			<path style="fill:#000070;" d="M1000.631,2782.68c-1.68,0-3.389-0.244-5.083-0.757c-9.248-2.803-14.473-12.573-11.67-21.826
				c24.536-80.952,51.836-119.414,85.903-121.04c34.517-1.66,65.625,34.771,98.413,114.59c3.672,8.94-0.596,19.165-9.536,22.837
				c-8.945,3.667-19.165-0.596-22.837-9.536c-36.802-89.595-59.824-93.188-64.37-92.93c-4.219,0.2-26.665,5.786-54.077,96.235
				C1015.084,2777.807,1008.14,2782.68,1000.631,2782.68z"/>
		</g>
		<g>
			<path style="fill:#000070;" d="M937.232,2770.673c-8.755,0-16.313-6.553-17.358-15.454
				c-13.188-112.08-37.246-122.993-41.934-124.038c-4.116-0.947-26.69-1.563-74.478,75.127c-5.122,8.208-15.918,10.698-24.111,5.596
				c-8.198-5.112-10.708-15.908-5.596-24.111c43.208-69.321,78.701-98.184,111.826-90.771
				c35.679,7.983,57.622,56.953,69.048,154.106c1.133,9.6-5.732,18.296-15.332,19.424
				C938.604,2770.634,937.911,2770.673,937.232,2770.673z"/>
		</g>
		<g>
			<path style="fill:#02BAF3;" d="M1728.272,2301.092l-198.471,179.531l-141.964,128.474l-9.392,8.51
				c-10.896-6.486-23.038-14.373-36.01-23.557c-101.233-71.502-252.849-220.938-259.75-387.653
				c-2.542-61.28,8.406-102.634,30.458-127.281l0.623-0.623c45.765-50.072,138.488-29.472,256.896,33.208
				C1547.08,2205.1,1728.272,2301.092,1728.272,2301.092z"/>
		</g>
		<g style="opacity:0.7;">
			<g>
				<path style="fill:#FFFFFF;" d="M1090.168,2123.571c0,0,21.11-90.998,239.66,12.778
					c218.55,103.775,336.267,155.663,339.189,145.285c2.922-10.377-256.844-140.097-346.35-180.31
					c-89.506-40.213-72.734-55.779-132.359-41.51c-59.625,14.269-76.541,18.679-76.541,18.679"/>
			</g>
		</g>
		<g>
			<path style="fill:#000070;" d="M1724.744,2307.719c-51.316-22.427-101.848-46.331-151.921-71.105
				c-25.107-12.25-49.939-25.021-74.856-37.635l-74.375-38.541c-12.378-6.458-24.834-12.77-37.148-19.348l-36.819-19.41
				c-24.343-12.566-49.185-23.863-74.341-33.466c-25.137-9.455-50.94-16.916-76.248-19.348
				c-25.146-2.206-49.763,1.487-66.211,15.812c-8.325,6.988-15.024,16.315-19.8,27.242c-4.827,10.897-7.949,23.109-10.029,35.723
				c-1.819,12.736-2.734,25.826-2.795,39.103c-0.044,6.618,0.212,13.357,0.43,19.974c0.62,6.528,0.728,13.085,1.726,19.588
				c3.228,26.069,10.088,51.778,19.604,76.611c9.707,24.794,22.029,48.688,35.981,71.707c13.975,23.021,29.91,44.99,47.146,65.963
				c17.2,21.004,35.415,41.306,54.844,60.469c19.282,19.307,39.604,37.635,60.669,55.021c20.808,17.771,41.514,35.443,61.677,55.081
				c3.054,2.97,3.12,7.853,0.151,10.906c-2.09,2.148-5.137,2.812-7.817,1.987c-13.97-4.341-26.921-10.695-39.514-17.568
				c-12.537-6.974-24.521-14.82-35.945-23.374c-22.761-17.229-44.221-36.067-64.98-55.677
				c-41.138-39.574-78.425-83.718-108.384-133.237c-15.024-24.699-28.03-50.82-38.328-78.182
				c-10.146-27.415-17.385-56.148-20.762-85.544c-1.047-7.316-1.184-14.761-1.794-22.135c-0.2-7.33-0.42-14.557-0.327-21.894
				c0.166-14.648,1.255-29.457,3.506-44.352c2.554-14.896,6.377-29.951,12.952-44.561c6.555-14.518,16.072-28.759,29.146-39.775
				c12.957-11.112,28.972-18.438,44.861-21.796c15.947-3.502,31.77-3.825,46.975-2.649c30.388,2.691,58.774,10.737,85.95,20.567
				c27.183,9.892,53.228,21.835,78.542,34.799c25.278,13.037,49.57,26.031,74.204,39.424l73.677,39.87
				c24.434,13.524,48.953,26.891,73.193,40.777c48.63,27.501,96.799,55.871,144.182,85.718c3.516,2.214,4.57,6.858,2.356,10.372
				C1732.112,2308.028,1728.096,2309.188,1724.744,2307.719z"/>
		</g>
		<g>
			<path style="fill:#000070;" d="M1271.492,2242.284c-9.692,42.858-41.718,72.136-71.532,65.395
				c-29.814-6.742-51.731-53.538-42.039-96.396c9.692-42.858,47.321-65.55,77.136-58.807
				C1264.871,2159.217,1281.184,2199.426,1271.492,2242.284z"/>
		</g>
		<g style="opacity:0.2;">
			<path style="fill:#000070;" d="M1577.331,2485.293c0,0-24.388,164.121-189.494,123.804c-14.062-3.477-29.214-8.406-45.402-15.047
				c-101.233-71.502-252.849-220.938-259.75-387.653c-2.542-61.28,8.406-102.634,30.458-127.281l0.623-0.623
				c0,0-87.949,342.459,416.035,402.13C1545.109,2482.491,1560.934,2483.996,1577.331,2485.293z"/>
		</g>
		<g style="opacity:0.2;">
			<path style="fill:#000070;" d="M2477.842,3117.701c-99.313,70.308-235.311,93.242-364.304,87.535
				c-29.264,29.265-49.086,123.804,114.153,159.555h-123.855c-27.033,0-53.393-9.028-74.511-25.892
				c-27.708-22.208-58.581-61.072-63.147-125.724c-0.052-0.468-0.052-0.986-0.104-1.453c0,0-9.755-0.156-24.128-0.675h-0.363
				c-21.585-2.024-43.69-4.358-66.313-6.901c-11.935-1.297-24.076-2.646-36.321-4.099c0,0-3.632,59.463-22.52,110.158
				c-12.245,32.741-43.377,54.586-78.298,54.586h-254.354c7.887-0.364,16.604-0.675,26.1-0.882
				c307.901-6.901,135.322-235.155,135.322-235.155c-90.18-66.883-107.615-154.003-107.615-154.003
				c393.88,276.769,1217.598,172.994,1035.835-545.34l41.666,114.672c0,0,5.396,12.09,14.062,31.496
				C2703.865,2814.469,2627.382,3011.694,2477.842,3117.701z"/>
		</g>
		<g style="opacity:0.2;">
			<path style="fill:#000070;" d="M1875.789,3206.48c-14.424-1.609-27.604-3.684-36.84-6.434
				c12.245,1.453,24.387,2.802,36.321,4.099C1875.426,3204.924,1875.634,3205.702,1875.789,3206.48z"/>
		</g>
		<g>
			<g>
				<g>
					<g>
						<path style="fill:#000070;" d="M2234.021,1379.318c66.98-3.356,124.739,72.759,129.008,170.006
							c4.269,97.248-46.568,178.803-113.549,182.159c-66.979,3.356-124.74-72.758-129.009-170.006
							C2116.202,1464.23,2167.042,1382.673,2234.021,1379.318z"/>
					</g>
				</g>
			</g>
			<g>
				<g>
					<g>
						<path style="fill:#FFFFFF;" d="M2236.611,1420.095c20.775,9.958,28.217,43.368,16.622,74.621
							c-11.594,31.253-37.833,48.515-58.609,38.555c-20.774-9.958-28.217-43.367-16.622-74.619
							C2189.597,1427.398,2215.836,1410.135,2236.611,1420.095z"/>
					</g>
				</g>
			</g>
			<g>
				<g>
					<g>
						<path style="fill:#B098C4;" d="M2297.333,1631.82c9.669,7.958,9.954,26.181,0.64,40.7
							c-9.314,14.521-24.702,19.841-34.369,11.882c-9.668-7.957-9.954-26.18-0.64-40.698
							C2272.277,1629.183,2287.667,1623.864,2297.333,1631.82z"/>
					</g>
				</g>
			</g>
		</g>
		<g>
			<g>
				<g>
					<g>
						
							<ellipse transform="matrix(0.0383 -0.9993 0.9993 0.0383 75.2919 3189.0305)" style="fill:#000070;" cx="1694.383" cy="1555.4" rx="176.255" ry="121.426"/>
					</g>
				</g>
			</g>
			<g>
				<g>
					<g>
						<path style="fill:#FFFFFF;" d="M1699.522,1420.095c-20.775,9.958-28.217,43.368-16.622,74.621
							c11.594,31.253,37.834,48.515,58.609,38.555c20.774-9.958,28.217-43.367,16.622-74.619
							C1746.536,1427.398,1720.297,1410.135,1699.522,1420.095z"/>
					</g>
				</g>
			</g>
			<g>
				<g>
					<g>
						<path style="fill:#B098C4;" d="M1638.8,1631.82c-9.669,7.958-9.954,26.181-0.64,40.7
							c9.314,14.521,24.702,19.841,34.369,11.882c9.668-7.957,9.954-26.18,0.64-40.698
							C1663.856,1629.183,1648.466,1623.864,1638.8,1631.82z"/>
					</g>
				</g>
			</g>
		</g>
		<g>
			<g>
				<path style="fill:#FFFFFF;" d="M1136.479,1071.597c19.311-37.365,27.017-81.109,19.177-125.733
					c-19.029-108.31-122.257-180.687-230.567-161.658c-108.31,19.029-180.687,122.257-161.658,230.567
					c19.029,108.31,122.257,180.687,230.567,161.658c30.127-5.293,57.459-17.117,80.832-33.735l93.387,14.021L1136.479,1071.597z"/>
			</g>
			<g style="opacity:0.5;">
				<g>
					<path style="fill:#FFFFFF;" d="M980.016,820.57c102.013,12.081,176.81,99.28,175.682,199.732
						c1.557-6.845,2.809-13.822,3.653-20.95c12.932-109.206-65.112-208.218-174.318-221.151
						c-109.206-12.933-208.219,65.112-221.151,174.318c-0.848,7.159-1.282,14.27-1.365,21.32
						C784.844,875.85,877.969,808.485,980.016,820.57z"/>
				</g>
			</g>
			<g>
				<path style="fill:#000070;" d="M959.088,1195.847c-43.857,0-86.587-13.401-123.242-39.099
					c-47.124-33.042-78.564-82.458-88.521-139.146c-20.561-117.019,57.915-228.948,174.932-249.507
					c117.021-20.554,228.95,57.918,249.507,174.939c7.803,44.402,1.758,89.009-17.485,129.482l29.268,78.484
					c2.021,5.427,1.025,11.521-2.622,16.018c-3.652,4.497-9.404,6.716-15.132,5.874l-87.007-13.064
					c-24.805,16.514-52.339,27.507-81.953,32.712C984.234,1194.753,971.612,1195.847,959.088,1195.847z M959.635,797.541
					c-10.469,0-21.06,0.903-31.714,2.776c-99.253,17.436-165.815,112.371-148.379,211.626
					c17.437,99.255,112.398,165.815,211.626,148.376c27.007-4.744,51.968-15.159,74.185-30.955
					c3.447-2.454,7.739-3.474,11.904-2.847l65.938,9.9l-22.041-59.107c-1.611-4.324-1.323-9.126,0.796-13.225
					c18.491-35.776,24.575-75.679,17.598-115.391C1123.98,860.097,1046.651,797.541,959.635,797.541z"/>
			</g>
			<g style="opacity:0.2;">
				<path style="fill:#000070;" d="M1137.457,1069.609c-51.099,49.914-124.596,75.438-200.345,62.253
					c-84.006-14.622-149.324-73.109-176.667-147.816c0.203,10.151,1.175,20.415,2.986,30.726
					c19.029,108.31,122.257,180.687,230.567,161.658c30.126-5.293,57.459-17.116,80.832-33.735l93.388,14.021l-31.739-85.119
					C1136.818,1070.941,1137.125,1070.269,1137.457,1069.609z"/>
			</g>
			<g>
				<path style="fill:#FF0068;" d="M1024.074,924.356L1024.074,924.356c-17.232-17.232-45.17-14.144-62.402,3.088l-2.682,2.682
					l-2.682-2.682c-17.232-17.232-45.17-20.319-62.402-3.088l0,0c-17.232,17.232-17.232,45.17,0,62.402l2.682,2.682l54.176,54.177
					c4.543,4.543,11.908,4.543,16.451,0l54.177-54.177l2.682-2.682C1041.306,969.526,1041.306,941.588,1024.074,924.356z"/>
			</g>
		</g>
	</g>
</g>
</svg>
