<?xml version="1.0" encoding="utf-8"?>
<!-- Generator: Adobe Illustrator 27.5.0, SVG Export Plug-In . SVG Version: 6.00 Build 0)  -->
<svg version="1.1" id="Layer_1" xmlns="http://www.w3.org/2000/svg" xmlns:xlink="http://www.w3.org/1999/xlink" x="0px" y="0px"
	 viewBox="0 0 4000 4000" style="enable-background:new 0 0 4000 4000;" xml:space="preserve">
<g>
	<g>
		<rect style="fill:#9FDAFF;" width="4000" height="4000"/>
	</g>
	<g>
		<g style="opacity:0.1;">
			<ellipse style="fill:#112570;" cx="2216.458" cy="3468.592" rx="888.697" ry="92.048"/>
		</g>
		<g>
			<g>
				<path style="fill:#FFD8CC;" d="M2845.273,2768.225c0,0,72.232,0.141,77.692,14.945c5.459,14.803,0.004,108.215,0.004,108.215
					s81.194-30.295,98.867,0c17.672,30.296,27.771,136.33,12.623,141.379c-15.148,5.049-121.182-10.098-174.199-78.263
					C2807.242,2886.335,2845.273,2768.225,2845.273,2768.225z"/>
			</g>
			<g>
				<path style="fill:#112570;" d="M3026.539,3048.075c-36.807,0-128.721-21.382-177.861-84.565
					c-57.124-73.442-19.023-194.658-17.373-199.78c1.953-6.064,7.598-10.176,13.967-10.176c0.01,0,0.02,0,0.029,0
					c82.439,0.161,89.207,18.506,91.431,24.536c4.714,12.783,3.533,59.722,2.004,92.803c29.6-8.228,78.586-16.367,95.774,13.101
					c17.2,29.482,28.228,121.147,17.876,148.613c-3.438,9.121-9.124,12.69-13.286,14.077
					C3036.39,3047.587,3032.091,3048.075,3026.539,3048.075z M2856.381,2783.105c-7.319,29.067-23.501,112.295,15.461,162.388
					c44.189,56.812,130.52,73.911,154.072,73.623c4.565-20.649-2.795-96.406-16.755-120.337
					c-6.714-11.519-48.118-5.894-81.067,6.357c-4.646,1.738-9.856,0.991-13.84-1.953c-3.987-2.944-6.221-7.705-5.93-12.651
					c2.312-39.619,3.352-86.938,1.304-100.161C2902.262,2786.904,2879.901,2783.901,2856.381,2783.105z M2859.24,2772.724h0.051
					H2859.24z"/>
			</g>
			<g>
				<g>
					<path style="fill:#FFD8CC;" d="M1574.532,817.495c0,0,108.62-130.11,303.647-211.53
						c195.027-81.419,268.873-73.845,231.004,149.584c0,0,365.44-128.756,405.203-22.722
						c39.763,106.034-26.509,289.701-26.509,289.701s323.784,71.952,325.677,162.838c1.893,90.887-176.093,382.481-176.093,382.481
						s179.88,94.674,191.241,181.773c11.361,87.1-204.495,223.43-204.495,223.43s128.756,77.632,109.822,142.01
						c-18.935,64.378-289.701,164.732-289.701,164.732s-191.24,106.034-297.275,30.295
						c-106.034-75.739-22.804-1083.065-188.441-1259.158C1792.973,874.838,1574.532,817.495,1574.532,817.495z"/>
				</g>
				<g style="opacity:0.6;">
					<path style="fill:#FFFFFF;" d="M1597.946,801.222c0,0,232.266-142.871,349.661-184.528
						c117.395-41.656,163.352-13.25,163.352-13.25s-6.825-53.815-97.712-44.897S1673.684,692.893,1597.946,801.222z"/>
				</g>
				<g style="opacity:0.6;">
					<path style="fill:#FFFFFF;" d="M2107.289,769.435c0,0,44.553,0,94.544-9.467s209.86-55.162,264.584-29.664
						c54.724,25.497,60.41,99.152,60.41,99.152s11.512-97.321-34.232-122.221c-45.744-24.899-135.355-12.818-197.531-2.449
						S2110.445,751.762,2107.289,769.435z"/>
				</g>
				<g style="opacity:0.6;">
					<path style="fill:#FFFFFF;" d="M2477.779,1030.734c0,0,27.771,27.771,83.944,47.337
						c56.173,19.566,217.118,77.632,229.741,111.715c12.623,34.083,0,65.64,0,65.64s35.205-48.599,5.61-99.092
						c-29.594-50.493-199.416-104.016-202.075-104.836c-2.66-0.821-99.797-27.276-99.797-27.276L2477.779,1030.734z"/>
				</g>
				<g style="opacity:0.2;">
					<path style="fill:#112570;" d="M1703.98,807.304c0,0,263.824-63.116,342.087-145.166c0,0,36.34,2.525,24.482,72.583
						c-11.859,70.058-16.548,113.414,16.092,128.343c32.64,14.929,310.349,45.225,391.137-48.186c0,0,20.197,39.132-22.722,147.691
						s-45.752,116.112-36.607,155.265c9.145,39.153,201.97,137.592,328.202,97.198c0,0-15.148,80.788-89.624,214.593
						s-92.149,193.134-53.017,275.184c39.132,82.05,161.576,102.247,161.576,102.247s-197.426,130.018-197.174,169.15
						c0.252,39.132,120.172,88.362,110.074,135.068c-10.098,46.706-344.612,161.576-344.612,161.576l-142.499,15.714
						c0,0-84.403,15.844-88.347-118.593l-32.48-544.575c0,0-20.736-343.982-67.421-493.306
						c-46.685-149.325-306.262-267.534-306.262-267.534l-78.847-32.927L1703.98,807.304z"/>
				</g>
				<g>
					<path style="fill:#112570;" d="M2243.683,2352.104c-37.451,0-74.326-8.052-105.161-30.078
						c-50.588-36.133-61.062-218.438-73.962-512.898c-12.778-291.655-28.679-654.634-116.638-748.145
						c-160.889-171.042-374.971-228.733-377.114-229.294c-4.856-1.277-8.726-4.946-10.254-9.729
						c-1.526-4.783-0.503-10.015,2.715-13.87c4.529-5.425,113.171-133.806,309.258-215.667
						c104.88-43.782,183.586-65.901,226.809-31.55c32.498,25.833,41.375,79.675,28.069,173.137
						c33.562-10.833,99.192-30.727,166.641-43.984c135.935-26.711,214.695-14.05,234.082,37.649
						c34.724,92.598-5.93,236.724-21.206,284.277c27.827,6.792,88.184,22.461,148.074,44.111
						c115.63,41.802,172.295,83.999,173.23,128.999c1.748,83.797-135.144,318.438-170.325,377.305
						c43.479,24.731,174.958,105.664,185.354,185.354c10.508,80.569-136.301,187.673-192.202,225.298
						c38.113,26.311,114.312,87.507,97.053,146.184c-19.854,67.51-249.028,155.903-297.664,173.975
						C2438.182,2299.848,2339.081,2352.104,2243.683,2352.104z M1601.188,810.195c61.113,19.873,231.094,85.017,368.11,230.681
						c95.425,101.448,110.916,455.019,124.583,766.968c9.922,226.467,20.181,460.647,61.702,490.3
						c97.214,69.443,279.8-30.176,281.633-31.187c0.645-0.356,1.321-0.669,2.012-0.923
						c102.019-37.822,268.447-113.379,280.723-155.112c12.849-43.687-72.432-106.682-103.32-125.305
						c-4.355-2.627-7.041-7.324-7.095-12.412c-0.054-5.088,2.534-9.841,6.836-12.561c80.386-50.796,205.166-152.493,197.781-209.126
						c-8.503-65.188-135.364-145.313-183.525-170.686c-3.586-1.887-6.233-5.176-7.31-9.082c-1.077-3.909-0.491-8.088,1.619-11.545
						c48.884-80.093,175.427-303.511,173.948-374.531c-1.204-57.788-193.354-121.951-314.189-148.821
						c-4.116-0.913-7.639-3.557-9.67-7.251c-2.034-3.694-2.38-8.084-0.95-12.051c0.642-1.787,63.962-179.868,26.572-279.573
						c-25.291-67.427-250.54-16.521-386.587,31.411c-4.907,1.736-10.354,0.732-14.329-2.617c-3.977-3.347-5.884-8.55-5.015-13.674
						c15.92-93.935,11.458-149.297-13.643-169.248c-33.945-26.98-118.752,2.886-197.239,35.659
						C1735.58,681.398,1637.272,772.914,1601.188,810.195z"/>
				</g>
			</g>
			<g>
				<g>
					<path style="fill:#5A9DFD;" d="M2845.172,2833.289c0,0,69.367,71.981,136.27,116.162
						c66.903,44.181,124.969,59.329,102.247,136.33c-22.722,77.001-209.544,56.804-280.234,0S2740.46,2858.507,2845.172,2833.289z"
						/>
				</g>
				<g>
					<g style="opacity:0.2;">
						<path style="fill:#112570;" d="M2833.75,3002.849c-34.085-27.391-49.885-81.201-45.43-132.42
							c-47.212,60.27-39.361,171.56,15.135,215.351c70.69,56.804,257.511,77.001,280.235,0c5.995-20.322,6.32-36.308,2.386-49.684
							C3025.788,3071.062,2891.297,3049.091,2833.75,3002.849z"/>
					</g>
				</g>
				<g>
					<path style="fill:#112570;" d="M2974.711,3150.795c-64.495,0-139.377-20.571-180.447-53.574
						c-41.88-33.652-61.577-105.864-46.836-171.704c12.603-56.279,46.978-95.098,94.309-106.494
						c5.046-1.206,10.388,0.342,13.999,4.082c0.684,0.708,69.065,71.353,133.792,114.102c11.597,7.656,22.893,14.404,33.818,20.933
						c51.687,30.874,96.328,57.544,74.419,131.792c-7.2,24.404-27.622,42.505-59.055,52.349
						C3020.157,3148.085,2998.114,3150.795,2974.711,3150.795z M2840.844,2849.819c-32.058,11.001-55.449,40.464-64.775,82.109
						c-12.427,55.503,2.957,115.396,36.58,142.412c48.792,39.219,156.428,58.989,217.29,39.932
						c21.968-6.88,35.317-17.861,39.678-32.646c14.841-50.303-8.074-66.484-61.321-98.291
						c-11.204-6.694-22.791-13.613-34.939-21.636C2916.769,2924.325,2859.542,2868.598,2840.844,2849.819z"/>
				</g>
			</g>
			<g>
				<g>
					<path style="fill:#5A9DFD;" d="M2203.856,2169.972v78.134c0,0,265.086-45.945,484.729,156.657
						c219.643,202.602,147.691,562.361,147.691,562.361s-3.787,417.668-60.591,467.688c-56.804,50.019-185.56,45.443-210.175-13.254
						c-24.615-58.698-39.806-168.519-39.806-168.519l-124.926,11.361c0,0,7.574,168.519-94.674,183.667
						c-102.247,15.148-181.773-17.042-204.495-75.739s-30.295-100.354-30.295-100.354l-200.708-1.893
						c0,0-45.443,149.584-124.969,151.478c-79.526,1.894-157.158,9.467-198.814-94.674
						c-41.656-104.141-104.141-454.433-71.952-689.223c24.615-160.945,136.33-282.127,136.33-282.127l1.836-107.69
						C1613.036,2247.843,1917.942,2115.061,2203.856,2169.972z"/>
				</g>
				<g>
					<g style="opacity:0.6;">
						<path style="fill:#FFFFFF;" d="M2688.585,2404.762c-219.643-202.602-484.728-156.657-484.728-156.657v-78.134
							c0,0-17.088,44.318-11.274,45.444v78.134c0,0,265.086-45.945,484.729,156.657s147.69,562.361,147.69,562.361
							s-2.245,246.939-29.105,383.801c37.536-116.729,40.378-429.244,40.378-429.244S2908.228,2607.364,2688.585,2404.762z"/>
					</g>
					<g style="opacity:0.6;">
						<path style="fill:#FFFFFF;" d="M1600.487,2368.073c-27.238,33.28-98.682,129.791-122.497,251.882
							c38.549-128.449,121.936-218.98,121.936-218.98L1600.487,2368.073z"/>
					</g>
					<g style="opacity:0.6;">
						<path style="fill:#FFFFFF;" d="M2385.312,3372.107c7.641-21.532,11.596-44.157,13.593-63.12l-9.401,0.855
							C2389.503,3309.842,2390.757,3337.88,2385.312,3372.107z"/>
					</g>
				</g>
				<g>
					<path style="fill:#FFD8CC;" d="M1668.18,3175.969c0,0-115.678-57.367-120.727-302.256
						c-5.049-244.889,90.887-299.168,263.824-280.234c172.937,18.935,169.732,191.872,189.007,263.823
						s44.878,264.584,44.878,264.584l23.054,132.308l-2.11,17.068h-180.984c0,0-56.693-12.826-109.663-35.739
						C1722.488,3212.61,1668.18,3175.969,1668.18,3175.969z"/>
				</g>
				<g style="opacity:0.2;">
					<path style="fill:#112570;" d="M2203.856,2218.571c0,0-239.84,102.248-348.399,116.133
						c-108.559,13.885-243.279-36.58-243.279-36.58l-5.419-50.373c0,0,108.362-51.977,280.146-76.554s316.951-1.225,316.951-1.225
						V2218.571z"/>
				</g>
				<g style="opacity:0.2;">
					<path style="fill:#112570;" d="M1554.065,3343.14c0,0,50.507,49.393,129.086,0c78.579-49.393,28.171-137.06,28.171-137.06
						s-48.999-8.9-100.123-85.586c-51.124-76.686-118.756-13.904-107.03,42.357c0,0-48.839-221.226-37.492-423.071l3.028-54.214
						l5.164-47.908c0,0,18.935,263.192,212.069,401.416s350.598,39.05,350.598,39.05l42.613,230.074c0,0,82.05,94.423,185.56,41.406
						c103.51-53.017,70.69-223.429,93.411-280.234c22.721-56.804,238.734-9.517,363.546-119.289
						c124.812-109.771,105.16-296.078,105.16-296.078s33.462,142.811,7.701,352.934c0,0-14.058,357.138-53.519,420.434
						c-39.461,63.295-181.765,43.975-206.075,10.243c0,0,111.388,0.982,139.79-58.978c28.402-59.96-2.897-180.511-40.265-182.404
						c0,0-46.544,29.167-105.703,46.142c-59.159,16.974-159.513,21.392-159.513,21.392l-8.836,5.68c0,0-3.822,148.853-77.65,174.149
						c-73.828,25.296-148.985,1.9-188.092-26.796c-39.107-28.696-60.095-125.854-60.095-125.854l-13.094-18.975l-169.781-1.893
						l-25.877,1.893c0,0-37.825,134.267-108.221,147.922c-70.396,13.655-149.967-15.929-149.967-15.929
						S1561.94,3386.537,1554.065,3343.14z"/>
				</g>
				<g>
					<path style="fill:#112570;" d="M2668.517,3483.754c-15.544,0.005-30.466-1.621-43.723-4.668
						c-36.445-8.374-62.307-26.792-72.817-51.855c-20.066-47.852-33.755-126.509-38.74-158.325l-97.666,8.882
						c-0.637,43.223-10.774,170.493-107.314,184.795c-107.722,15.938-194.18-17.397-220.332-84.956
						c-16.033-41.426-24.658-74.38-28.513-91.094l-178.252-1.68c-12.595,35.879-58.513,149.546-135.173,151.372l-11.67,0.308
						c-77.517,2.114-157.712,4.316-201.118-104.199c-43.057-107.637-104.939-462.705-72.866-696.665
						c22.751-148.755,115.928-262.466,136.289-285.83l1.743-102.246c0.098-5.747,3.542-10.908,8.813-13.203
						c12.62-5.498,312.383-133.975,599.448-78.828c6.909,1.323,11.907,7.373,11.907,14.409v61.411
						c63.396-6.699,287.205-15.239,480.002,162.593c92.561,85.381,148.193,212.197,160.889,366.743
						c8.999,109.561-6.147,195.522-8.486,207.881c-0.708,73.872-7.17,425.815-65.554,477.227
						C2755.26,3472.348,2709.725,3483.754,2668.517,3483.754z M2525.717,3238.364c7.249,0,13.508,5.347,14.521,12.661
						c0.149,1.079,15.222,108.623,38.804,164.858c6.758,16.113,25.339,28.398,52.324,34.6
						c47.168,10.84,105.037-0.635,134.622-26.689c37.793-33.276,54.17-297.852,55.615-456.802c0.007-0.918,0.103-1.841,0.283-2.739
						c0.701-3.521,67.646-354.17-143.25-548.706c-211.443-195.029-469.702-153.428-472.288-152.979
						c-4.255,0.728-8.638-0.454-11.946-3.247c-3.306-2.788-5.222-6.89-5.222-11.216v-65.898
						c-248.14-42.974-511.086,55.249-561.638,75.527l-1.67,98.047c-0.061,3.594-1.445,7.046-3.877,9.692
						c-1.089,1.182-109.004,120-132.62,274.404c-31.399,229.043,29.004,576.392,71.072,681.558
						c35.806,89.517,99.419,87.769,173.064,85.762l11.775-0.308c56.538-1.348,99.495-102.295,111.277-141.079
						c1.88-6.187,7.583-10.405,14.038-10.405c0.049,0,0.095,0,0.142,0l200.708,1.895c7.031,0.063,13.03,5.122,14.297,12.041
						c0.073,0.405,7.671,41.177,29.543,97.69c20.691,53.442,96.526,80.176,188.662,66.519
						c87.915-13.022,82.231-166.948,82.163-168.501c-0.339-7.827,5.527-14.556,13.333-15.264l124.924-11.362
						C2524.823,3238.383,2525.272,3238.364,2525.717,3238.364z"/>
				</g>
				<g>
					<path style="fill:#112570;" d="M2218.531,2248.105c1.028,20.329-1.393,40.606-4.477,60.689
						c-0.963,6.743-2.96,13.486-8.976,20.229c-0.602,0.675-1.637,0.735-2.312,0.132c-11.009-12.495-9.375-26.038-11.865-40.591
						c-1.501-13.43-2.455-26.955-1.719-40.459C2190.637,2229.849,2217.127,2229.942,2218.531,2248.105L2218.531,2248.105z"/>
				</g>
				<g>
					<path style="fill:#112570;" d="M2525.685,3267.714c-7.122,0-13.372-5.19-14.487-12.446c-1.23-8.008,4.258-15.498,12.261-16.733
						l0,0c2.605-0.405,260.793-43.159,298.333-273.77c1.304-8.003,8.838-13.462,16.843-12.124
						c7.998,1.299,13.428,8.843,12.126,16.841c-17.002,104.429-78.372,189.141-177.48,244.98
						c-74.15,41.777-142.476,52.637-145.347,53.076C2527.177,3267.656,2526.425,3267.714,2525.685,3267.714z"/>
				</g>
				<g>
					<path style="fill:#112570;" d="M2386.103,3264.398c-1.027-26.112,1.384-52.184,4.477-78.105
						c0.963-8.678,2.96-17.356,8.976-26.035c0.563-0.845,1.881-0.845,2.443,0c11.056,16.541,9.24,33.894,11.734,52.07
						c1.503,17.314,2.454,34.7,1.719,52.07C2414.186,3282.893,2387.378,3282.814,2386.103,3264.398L2386.103,3264.398z"/>
				</g>
				<g>
					<path style="fill:#112570;" d="M2056.857,3274.492c-7.982-41.537-14.31-83.367-20.081-125.265
						c-4.832-42.43-14.191-83.763-10.217-126.983c0.097-1.202,1.91-1.578,2.408-0.419c9.551,19.796,15.147,40.282,19.73,60.944
						c13.938,61.904,27.189,123.993,37.073,186.684C2088.238,3288.245,2060.941,3293.077,2056.857,3274.492L2056.857,3274.492z"/>
				</g>
				<g>
					<path style="fill:#112570;" d="M1867.547,3284.431c-97.89-23.055-215.768-78.336-264.919-170.491
						c-6.68-14.054-11.584-28.939-13.418-44.192c-0.143-1.273,1.684-1.959,2.324-0.754c28.699,51.258,69.644,93.269,120.666,122.359
						c37.502,22.13,78.347,38.978,119.797,52.516c13.941,4.459,28.415,8.616,42.076,11.959
						C1892.383,3260.733,1886.336,3287.923,1867.547,3284.431L1867.547,3284.431z"/>
				</g>
			</g>
			<g>
				<g>
					<path style="fill:#5A9DFD;" d="M1597.946,2247.604c0,0-522.598,0.673-628.632-315.579
						c-118.184-352.487,7.574-502.401,108.559-641.256s199.446-537.746,757.388-484.729s681.65,464.532,727.093,795.258
						S2408.351,2262.752,1597.946,2247.604z"/>
				</g>
				<g style="opacity:0.6;">
					<path style="fill:#FFFFFF;" d="M1835.261,806.042c-557.943-53.017-656.404,345.874-757.388,484.728
						c-96.269,132.368-215.047,274.787-123.55,593.165c-68-286.831,43.922-421.824,135.484-547.722
						c61.35-84.355,121.788-264.668,284.861-381.34c13.016,27.209,103.618,24.976,206.386-5.671
						c96.289-28.715,169.97-72.448,175.582-102.438c28.788,0.228,58.897,1.711,90.56,4.72
						c434.624,41.299,605.738,300.139,681.634,568.87C2459.424,1136.013,2294.355,849.666,1835.261,806.042z"/>
				</g>
				<g>
					<g style="opacity:0.2;">
						<path style="fill:#112570;" d="M2562.353,1601.3c-24.207-176.172-70.635-375.257-193.063-530.879
							c65.7,129.806,96.341,274.652,114.479,406.647c45.444,330.726-154.002,661.453-964.407,646.305
							c0,0-366.299,0.425-547.77-185.038c110.864,309.879,626.354,309.271,626.354,309.271
							C2408.352,2262.752,2607.797,1932.026,2562.353,1601.3z"/>
					</g>
				</g>
				<g>
					<path style="fill:#112570;" d="M1273.531,1825.991c0,0,186.823-35.345,275.184-127.494c0,0,53.017,179.249-98.461,243.627
						C1298.777,2006.502,1272.269,1846.188,1273.531,1825.991z"/>
				</g>
				<g>
					<path style="fill:#F73753;" d="M1381.302,1957.199c0,0,0-152.667,176.402-191.799
						C1557.704,1765.4,1567.338,1953.339,1381.302,1957.199z"/>
				</g>
				<g>
					<path style="fill:#112570;" d="M1651.264,2262.787c-17.593,0-35.381-0.171-53.452-0.508c-7.324,0-135.288-0.596-278.291-39.717
						c-193.225-52.856-319.136-151.709-364.121-285.872c-115.779-345.32-2.112-500.564,98.174-637.537
						c4.172-5.698,8.323-11.365,12.432-17.014c16.655-22.903,33.347-53.306,52.676-88.513
						c48.457-88.257,108.76-198.096,217.446-282.673c128.752-100.195,292.463-139.28,500.522-119.522
						c252.537,23.997,443.079,124.812,566.338,299.641c115.864,164.341,154.741,368.762,173.906,508.23
						c22.361,162.747-16.594,305.911-112.651,414.011C2317.072,2178.94,2043.671,2262.778,1651.264,2262.787z M1597.96,2232.934
						c0.085,0,0.173,0,0.259,0c412.275,7.71,696.25-72.744,844.084-239.111c90.186-101.494,126.672-236.536,105.513-390.525
						c-46.333-337.204-169.355-730.898-713.945-782.646c-453.257-43.091-595.415,215.801-689.463,387.102
						c-19.81,36.082-36.919,67.241-54.668,91.648c-4.126,5.676-8.296,11.367-12.485,17.092
						c-96.079,131.223-204.978,279.956-94.028,610.867c101.36,302.302,608.901,305.574,614.692,305.574
						C1597.928,2232.929,1597.943,2232.929,1597.96,2232.934z"/>
				</g>
				<g>
					<ellipse style="fill:#112570;" cx="1913.716" cy="1337.476" rx="156.833" ry="198.309"/>
				</g>
				<g>
					<ellipse style="fill:#FFFFFF;" cx="1864.999" cy="1282.858" rx="74.474" ry="89.369"/>
				</g>
				<g style="opacity:0.6;">
					<circle style="fill:#FFFFFF;" cx="1958.611" cy="1422.682" r="34.684"/>
				</g>
				<g>
					<ellipse style="fill:#112570;" cx="1304.408" cy="1351.614" rx="151.542" ry="191.619"/>
				</g>
				<g>
					<ellipse style="fill:#FFFFFF;" cx="1257.335" cy="1298.839" rx="71.962" ry="86.354"/>
				</g>
				<g style="opacity:0.6;">
					
						<ellipse transform="matrix(0.2298 -0.9732 0.9732 0.2298 -357.456 2416.2268)" style="fill:#FFFFFF;" cx="1347.788" cy="1433.946" rx="33.514" ry="33.514"/>
				</g>
				<g>
					<path style="fill:#112570;" d="M1384.691,1972.043c-23.933,0-45.349-6.626-64.08-19.875
						c-50.74-35.894-62.827-109.473-61.726-127.092c0.417-6.694,5.325-12.253,11.914-13.503
						c1.824-0.344,183.293-35.598,267.324-123.23c3.621-3.774,8.977-5.334,14.058-4.104c5.081,1.235,9.121,5.083,10.605,10.098
						c0.566,1.919,54.858,192.593-106.792,261.294C1430.248,1966.572,1406.432,1972.043,1384.691,1972.043z M1289.049,1837.736
						c3.311,22.097,16.311,67.693,48.513,90.471c26.88,19.016,62.864,19.155,106.953,0.41
						c107.1-45.515,103.223-153.174,95.347-201.714C1458.905,1795.707,1330.131,1828.608,1289.049,1837.736z"/>
				</g>
				<g>
					<path style="fill:#112570;" d="M1273.531,1840.666c-21.468,0.412-42.108-4.815-60.402-16.19
						c-6.081-3.812-12.084-10.02-12.439-19.107c-0.039-0.92,0.712-1.69,1.632-1.677c15.128-0.185,22.629,3.952,36.26,5.016
						c11.31,1.245,24.586,1.67,35.653,2.672C1292.329,1813.34,1291.596,1839.63,1273.531,1840.666L1273.531,1840.666z"/>
				</g>
				<g>
					<path style="fill:#112570;" d="M1376.434,1652.577c-15.6-23.512,13.349-59.634,39.01-46.068
						c3.196,1.767,3.803,6.313,1.213,8.87c-3.912,3.824-7.328,7.688-8.899,10.449c-6.09,10.442-10.777,19.797-21.588,27.705
						C1383.305,1656.221,1378.573,1656.073,1376.434,1652.577L1376.434,1652.577z"/>
				</g>
				<g>
					<path style="fill:#112570;" d="M1213.415,1653.171c-10.256-8.304-13.871-15.618-22.501-23.919
						c-3.403-3.349-7.969-5.608-12.08-9.088c-8.439-9.718,11.672-15.32,19.229-14.087c7.204,0.46,14.566,4.106,19.721,9.239
						c10.31,10.228,13.476,25.138,5.412,37.621C1220.807,1656.483,1216.155,1656.079,1213.415,1653.171L1213.415,1653.171z"/>
				</g>
			</g>
		</g>
		<g>
			<path style="fill:#112570;" d="M2043.363,544.05c22.507,0.002,41.289,5.154,55.972,16.824
				c32.498,25.833,41.375,79.678,28.069,173.137c33.562-10.833,99.192-30.727,166.641-43.984
				c46.182-9.077,85.762-13.608,118.66-13.608c63.938,0.002,102.622,17.119,115.422,51.257
				c34.724,92.598-5.93,236.724-21.206,284.277c27.827,6.792,88.184,22.461,148.076,44.111
				c115.627,41.802,172.292,83.999,173.23,128.999c1.746,83.797-135.146,318.438-170.327,377.302
				c43.479,24.734,174.961,105.667,185.354,185.359c10.508,80.566-136.301,187.671-192.202,225.295
				c38.113,26.311,114.314,87.507,97.056,146.182c-15.503,52.71-158.589,118.145-243.738,152.905
				c63.518,24.856,130.52,63.162,194.165,121.87c91.155,84.082,146.401,208.416,160.188,359.783
				c69.753,2.024,75.916,18.65,78.01,24.336c4.717,12.778,3.533,59.717,2.004,92.795c13.792-3.835,31.792-7.651,48.826-7.651
				c19.519,0,37.771,5.012,46.951,20.75c10.457,17.932,18.621,58.84,21.096,94.336c35.762,24.622,59.277,53.586,42.156,111.609
				c-7.2,24.399-27.62,42.5-59.053,52.341c-18.55,5.811-40.596,8.521-63.999,8.521c-42.654,0-89.797-9.041-128.755-24.683
				c-6.831,128.032-22.878,286.519-60.576,319.712c-30.125,26.526-75.654,37.932-116.86,37.932c-15.542,0-30.469-1.621-43.723-4.668
				c-36.448-8.374-62.31-26.79-72.822-51.855c-20.066-47.856-33.752-126.514-38.738-158.328l-97.668,8.882
				c-0.635,43.223-10.771,170.491-107.314,184.795c-17.876,2.646-35.159,3.936-51.689,3.936c-83.037,0-146.829-32.546-168.64-88.894
				c-16.035-41.421-24.661-74.377-28.513-91.089l-178.254-1.682c-12.595,35.876-58.513,149.548-135.173,151.375l-11.677,0.305
				c-10.786,0.295-21.611,0.593-32.393,0.593c-66.729,0-131.353-11.375-168.718-104.795
				c-43.057-107.642-104.939-462.717-72.864-696.665c22.749-148.755,115.925-262.466,136.287-285.828l1.494-87.554
				c-0.103-0.002-0.203-0.002-0.303-0.005c-7.31,0-135.278-0.596-278.291-39.717c-193.225-52.854-319.136-151.707-364.119-285.872
				c-115.779-345.32-2.114-500.566,98.174-637.537c4.172-5.698,8.32-11.365,12.429-17.014
				c16.655-22.903,33.349-53.308,52.678-88.516c48.457-88.257,108.76-198.096,217.446-282.671
				c67.004-52.144,143.501-87.698,230.764-107.061c20.667-23.425,126.736-136.785,305.632-211.472
				C1941.779,563.513,1999.615,544.05,2043.363,544.05 M2043.363,525.002L2043.363,525.002c-41.196,0-94.483,14.907-178.176,49.841
				c-173.088,72.263-280.176,180.845-308.418,211.814c-86.873,20.129-165.017,56.875-232.339,109.265
				c-111.782,86.985-173.137,198.73-222.434,288.518c-19.023,34.651-35.444,64.563-51.396,86.497
				c-4.097,5.632-8.232,11.282-12.393,16.965c-49.565,67.693-105.742,144.419-133.144,246.973
				c-31.179,116.68-20.62,250.095,32.28,407.871c47.095,140.469,177.512,243.582,377.151,298.191
				c115.41,31.57,221.953,38.467,264.253,39.971l-1.055,61.765c-26.841,31.99-114.033,145.242-136.186,290.115
				c-0.015,0.095-0.029,0.193-0.044,0.291c-32.493,236.997,30.352,597.08,74.05,706.328
				c41.047,102.62,113.848,116.768,186.404,116.768c11.035,0,22.151-0.305,32.898-0.601l11.67-0.305
				c79.558-1.895,127.454-97.979,147.918-151.24l150.054,1.416c4.866,18.655,13.044,46.345,25.708,79.058
				c24.497,63.284,94.18,101.064,186.404,101.064c17.593,0,35.923-1.394,54.48-4.141c100.093-14.832,119.443-130.562,122.9-186.182
				l63.367-5.764c6.56,38.298,19.363,102.822,37.097,145.12c12.949,30.876,43.535,53.269,86.123,63.054
				c14.871,3.418,31.018,5.151,47.988,5.151c51.46,0,98.643-15.557,129.448-42.686c13.174-11.599,32.493-38.274,48.083-135.571
				c7.437-46.411,13.301-104.175,17.468-171.995c35.488,11.099,74.78,17.29,111.191,17.29c26.35,0,49.8-3.159,69.692-9.392
				c37.776-11.826,62.546-34.348,71.628-65.127c19.832-67.207-8.677-102.539-42.163-127.366
				c-3.127-33.501-11.055-73.245-22.903-93.564c-8.04-13.779-25.564-30.203-63.406-30.203c-8.926,0-18.572,0.889-28.848,2.651
				c1.726-59.524-2.432-70.784-4.114-75.344c-7.974-21.648-31.804-32.729-78.586-35.974
				c-16.672-148.767-73.389-271.445-164.565-355.549c-47.81-44.099-101.025-80.188-158.652-107.639
				c34.504-15.066,73.926-33.611,108.921-53.364c62.908-35.505,96.165-65.503,104.663-94.397
				c17.317-58.875-36.65-115.376-82.478-151.081c79.722-56.404,188.572-149.006,178.237-228.233
				c-10.237-78.499-117.437-153.254-178.074-189.658c56.55-95.886,164.88-290.447,163.203-370.938
				c-1.135-54.543-60.173-101.099-185.798-146.514c-48.86-17.664-97.661-31.331-130.447-39.785
				c19.324-65.645,47.529-190.464,14.937-277.38c-15.828-42.209-60.662-63.613-133.257-63.616c-34.023,0-75.183,4.7-122.334,13.965
				c-52.639,10.347-104.177,24.68-140.488,35.688c8.286-83.223-3.979-133.464-38.694-161.06
				C2093.688,532.055,2070.868,525.004,2043.363,525.002L2043.363,525.002z"/>
		</g>
	</g>
</g>
</svg>
