<?xml version="1.0" encoding="utf-8"?>
<!-- Generator: Adobe Illustrator 27.5.0, SVG Export Plug-In . SVG Version: 6.00 Build 0)  -->
<svg version="1.1" id="Layer_1" xmlns="http://www.w3.org/2000/svg" xmlns:xlink="http://www.w3.org/1999/xlink" x="0px" y="0px"
	 viewBox="0 0 4000 4000" style="enable-background:new 0 0 4000 4000;" xml:space="preserve">
<g>
	<g>
		<rect style="fill:#D8D0CA;" width="4000" height="4000"/>
	</g>
	<g>
		<g>
			<g style="opacity:0.15;">
				<ellipse style="fill:#2D0000;" cx="2101.006" cy="3149.472" rx="1324.523" ry="289.88"/>
			</g>
			<g>
				<g>
					<path style="fill:#FFC98F;" d="M3288.325,2448.806c0,0-235.192-58.566,0-378.498
						C3288.325,2070.308,3565.419,2337.518,3288.325,2448.806z"/>
				</g>
				<g>
					<path style="fill:#F4A75B;" d="M3231.09,2406.508c0,0-49.996-129.75,59.519-222.004c0,0,111.072,131.193,15.063,256.8
						C3305.672,2441.303,3262.337,2445.195,3231.09,2406.508z"/>
				</g>
				<g>
					<path style="fill:#2D0000;" d="M3288.326,2463.017c-1.15,0-2.305-0.139-3.435-0.422c-3.201-0.796-78.74-20.396-105.94-95.745
						c-27.59-76.436,5.357-179.041,97.925-304.961c2.427-3.301,6.162-5.396,10.247-5.742c4.087-0.349,8.118,1.087,11.069,3.931
						c6.101,5.884,149.141,145.535,124.692,270.85c-11.118,56.985-54.607,101.082-129.263,131.064
						C3291.929,2462.673,3290.13,2463.017,3288.326,2463.017z M3289.903,2092.396c-77.864,109.851-107.012,201.074-84.336,264.478
						c18.579,51.938,67.456,71.938,82.058,76.86c62.297-26.035,98.403-62.422,107.354-108.206
						C3412.769,2234.533,3322.576,2127.582,3289.903,2092.396z"/>
				</g>
			</g>
			<g>
				<g>
					<path style="fill:#FFC98F;" d="M2455.946,2258.097c0,0,130.28,6.073,158.541,68.949c28.261,62.876-80.39,176.488-80.39,176.488
						S2560.804,2383.748,2455.946,2258.097z"/>
				</g>
				<g style="opacity:0.5;">
					<path style="fill:#FFFFFF;" d="M2614.486,2327.046c-28.261-62.876-158.541-68.949-158.541-68.949
						c8.497,10.182,16.046,20.315,22.899,30.359c38.612,8.658,84.985,26.036,100.525,60.612
						c16.683,37.116-14.343,91.9-42.565,130.569c-0.783,15.148-2.708,23.897-2.708,23.897S2642.747,2389.922,2614.486,2327.046z"/>
				</g>
				<g>
					<path style="fill:#2D0000;" d="M2534.093,2516.777c-2.126,0-4.27-0.51-6.243-1.565c-5.242-2.805-7.971-8.757-6.677-14.558
						c0.239-1.108,23.657-115.381-75.396-234.072c-3.364-4.031-4.028-9.67-1.692-14.375c2.336-4.702,7.195-7.573,12.478-7.336
						c5.649,0.261,138.767,7.249,170.003,76.746c31.02,69.019-71.145,178.784-82.898,191.072
						C2541.104,2515.368,2537.623,2516.777,2534.093,2516.777z M2485.335,2274.479c54.053,75.737,64.814,146.626,65.166,189.661
						c30.869-39.243,67.192-97.656,51.907-131.665C2586.549,2297.192,2527.03,2280.792,2485.335,2274.479z"/>
				</g>
			</g>
			<g>
				<g>
					<path style="fill:#FFC98F;" d="M2517.092,2558.064c0,0,114.556-62.344,171.317-23.226
						c56.761,39.118,22.746,192.596,22.746,192.596S2671.897,2611.156,2517.092,2558.064z"/>
				</g>
				<g style="opacity:0.5;">
					<path style="fill:#FFFFFF;" d="M2688.409,2534.838c-56.762-39.118-171.317,23.226-171.317,23.226
						c8.639,2.963,16.864,6.15,24.797,9.475c38.551-14.792,96.399-29.844,131.789-5.455c37.021,25.513,35.423,99.656,29.836,148.154
						c5.403,10.637,7.641,17.197,7.641,17.197S2745.17,2573.956,2688.409,2534.838z"/>
				</g>
				<g>
					<path style="fill:#2D0000;" d="M2711.151,2740.676c-5.652,0-10.718-3.601-12.542-9.006
						c-0.369-1.072-39.58-110.925-185.815-161.079c-4.968-1.704-8.459-6.182-8.899-11.416c-0.442-5.234,2.253-10.232,6.865-12.742
						c4.971-2.705,122.432-65.735,185.164-22.498c62.307,42.939,31.841,189.763,28.162,206.365
						c-1.287,5.803-6.282,10.039-12.219,10.356C2711.627,2740.671,2711.387,2740.676,2711.151,2740.676z M2550.687,2556.823
						c85.5,36.748,131.463,91.797,154.077,128.42c6.052-49.561,6.833-118.343-23.87-139.502
						C2648.966,2523.74,2589.583,2540.59,2550.687,2556.823z"/>
				</g>
			</g>
			<g>
				<g>
					<path style="fill:#FFC98F;" d="M2770.395,2703.023c0,0,42.873-123.173,111.19-132.385
						c68.317-9.212,146.338,127.263,146.338,127.263S2920.678,2638.23,2770.395,2703.023z"/>
				</g>
				<g style="opacity:0.5;">
					<path style="fill:#FFFFFF;" d="M2885.156,2607.311c40.664-5.483,84.76,40.646,113.8,78.891
						c18.661,5.976,28.966,11.699,28.966,11.699s-78.021-136.475-146.337-127.263c-68.317,9.212-111.19,132.385-111.19,132.385
						c8.205-3.538,16.256-6.64,24.194-9.466C2813.621,2657.545,2844.981,2612.728,2885.156,2607.311z"/>
				</g>
				<g>
					<path style="fill:#2D0000;" d="M2770.396,2716.266c-3.286,0-6.523-1.221-9.023-3.547c-3.845-3.577-5.212-9.089-3.486-14.048
						c1.86-5.344,46.416-130.974,121.928-141.157c74.968-10.09,151.167,119.053,159.605,133.816
						c2.949,5.161,2.099,11.655-2.078,15.881c-4.182,4.226-10.669,5.149-15.857,2.263c-0.994-0.547-103.892-55.496-245.847,5.71
						C2773.948,2715.912,2772.166,2716.266,2770.396,2716.266z M2888.438,2583.427c-1.714,0-3.403,0.11-5.083,0.337
						c-38.335,5.168-70.986,57.566-88.899,95.742c87.988-30.281,159.006-20.439,200.364-8.535
						C2967.286,2632.067,2924.417,2583.427,2888.438,2583.427z"/>
				</g>
			</g>
			<g>
				<g>
					<path style="fill:#FFC98F;" d="M3097.65,2673.475c0,0-65.821-112.594-28.459-170.526
						c37.362-57.933,191.81-28.631,191.81-28.631S3145.978,2517.117,3097.65,2673.475z"/>
				</g>
				<g style="opacity:0.5;">
					<path style="fill:#FFFFFF;" d="M3077.524,2534.057c23.236-36.03,91.749-38.314,140.242-34.894
						c24.987-18.024,43.235-24.845,43.235-24.845s-154.448-29.301-191.809,28.631c-18.681,28.967-11.566,71.599,0.219,106.99
						C3064.027,2582.759,3064.095,2554.879,3077.524,2534.057z"/>
				</g>
				<g>
					<path style="fill:#2D0000;" d="M3097.647,2686.718c-4.668,0-9.038-2.466-11.431-6.558
						c-2.854-4.885-69.45-120.354-28.157-184.39c41.013-63.591,188.704-37.632,205.408-34.463
						c5.84,1.108,10.227,5.972,10.728,11.895s-3.005,11.455-8.577,13.528c-1.062,0.401-109.666,42.957-155.317,190.657
						c-1.55,5.017-5.92,8.645-11.138,9.246C3098.656,2686.691,3098.15,2686.718,3097.647,2686.718z M3178.558,2480.075
						c-41.06,0-83.162,6.672-98.24,30.051c-21.01,32.581-2.351,91.423,15.063,129.807c34.111-86.584,87.729-134.212,123.643-157.935
						C3206.397,2480.849,3192.535,2480.075,3178.558,2480.075z"/>
				</g>
			</g>
			<g>
				<g>
					<path style="fill:#FF5050;" d="M3108.435,2372.165c0,0-0.442-0.309-1.28-0.839c-15.582-9.976-171.451-104.927-275.32,27.766
						c0,0-92.744-160.327-250.511-43.613c0,0-76.191-146.51-226.895-158.341c-9.844-0.795-20.085-0.971-30.591-0.53l13.817-55.311
						c0,0,25.294,0.794,63.125-2.737c87.006-8.122,240.402-39.199,306.264-155.825c13.552-23.926,23.396-51.515,28.207-83.21
						C2735.25,1899.527,3030.214,2063.077,3108.435,2372.165z"/>
				</g>
				<g>
					<path style="fill:#BC3131;" d="M3107.156,2371.348c-15.582-9.976-171.451-104.928-275.32,27.766
						c0,0-92.744-160.327-250.511-43.613c0,0-46.085-88.639-137.506-133.621c-26.088-12.802-55.929-22.072-89.389-24.72
						c14.479-19.511,29.973-39.243,46.35-58.577c7.593,9.005,21.056,14.964,38.581,18.098
						c87.491,15.759,275.628-38.802,330.498-135.96c8.873,2.781-0.662-6.533,8.166-2.031
						c182.796,93.098,275.496,262.077,322.773,342.019C3103.006,2364.461,3105.125,2367.993,3107.156,2371.348z"/>
				</g>
				<g>
					<path style="fill:#992020;" d="M3100.799,2360.709c-4.679,0.53-8.961-1.059-12.537-5.209
						c-25.029-29.002-246.406-231.706-258.015-222.392c-11.433,9.182,2.913,199.217,3.311,204.956
						c-1.28-5.121-43.437-170.171-77.427-167.832c-34.078,2.339-134.239,139.182-136.887,142.802
						c0.883-3.09,36.683-122.673,20.571-130.928c-16.333-8.299-195.995,39.773-195.995,39.773s-2.869-26.618-4.458-65.199
						c87.491,15.759,275.628-38.802,330.498-135.96c8.873,2.781-0.662-6.533,8.166-2.031
						C2960.822,2111.787,3053.522,2280.766,3100.799,2360.709z"/>
				</g>
				<g style="opacity:0.35;">
					<path style="fill:#FFFFFF;" d="M2861.479,2004.757c0,0,37.575,97.36,47.059,123.971l114.929,117.988
						c0,0-28.071-104.677-48.902-142.963C2953.733,2065.466,2861.479,2004.757,2861.479,2004.757z"/>
				</g>
				<g>
					<path style="fill:#2D0000;" d="M2345.457,2134.974c135.734,22.713,342.839,23.217,411.608-120.414
						c3.459-7.285,12.385-10.31,19.482-6.376c103.725,70.064,198.243,153.895,276.006,252.219
						c25.655,32.949,48.424,68.239,68.506,105.195c3.747,6.895,1.195,15.521-5.7,19.268c-6.895,3.747-15.522,1.195-19.269-5.7
						c-67.412-124.994-172.363-226.052-284.553-311.434c-16.128-12.204-32.872-24.099-49.365-35.039l20.482-5.766
						c-19.063,37.551-49.23,69.333-85.492,90.36c-70.676,41.364-155.681,49.002-235.674,45.686
						c-40.003-1.98-79.512-6.693-118.848-15.186c-3.54-0.764-5.79-4.253-5.025-7.793
						C2338.381,2136.426,2341.924,2134.191,2345.457,2134.974L2345.457,2134.974z"/>
				</g>
				<g>
					<path style="fill:#2D0000;" d="M2831.834,2413.305c-0.186,0-0.371-0.002-0.559-0.01c-7.842-0.303-13.953-6.907-13.65-14.749
						c0.083-2.175,7.591-219.197-60.737-372.004c-3.203-7.166,0.007-15.569,7.173-18.775c7.161-3.203,15.571,0.005,18.774,7.173
						c71.077,158.96,63.545,375.564,63.188,384.707C2845.726,2407.302,2839.427,2413.305,2831.834,2413.305z"/>
				</g>
				<g>
					<path style="fill:#2D0000;" d="M2581.317,2369.699c-3.162,0-6.345-1.05-8.984-3.208c-6.077-4.966-6.978-13.918-2.012-19.995
						c1.428-1.748,143.254-176.484,181.216-320.454c1.999-7.59,9.79-12.131,17.363-10.117c7.59,1.999,12.119,9.775,10.117,17.363
						c-39.543,149.98-180.701,323.865-186.689,331.191C2589.517,2367.917,2585.433,2369.699,2581.317,2369.699z"/>
				</g>
				<g>
					<path style="fill:#2D0000;" d="M2337.761,2137.496c155.479-15.014,353.269-62.568,384.736-241.355
						c1.755-8.406,11.898-12.696,19.156-8.14c23.155,13.371,44.317,27.853,65.688,43.471
						c63.03,46.382,120.566,100.122,170.271,160.689c66.453,80.723,117.762,175.096,143.644,276.76
						c3.267,11.316-10.051,21.103-19.788,14.446c-9.863-6.428-21.375-12.405-32.299-17.437
						c-81.293-37.785-169.49-33.87-226.946,41.305c-5.547,7.249-17.359,6.39-21.829-1.528c-5.516-9.072-13.083-18.65-20.398-26.761
						c-29.64-33.183-72.734-57.008-117.862-52.204c-34.2,3.062-65.102,18.969-92.956,39.361c-6.411,4.847-15.934,2.629-19.571-4.527
						c-5.474-10.758-12.732-22.068-19.776-32.212c-22.135-31.434-49.119-59.934-80.74-81.913
						c-42.099-29.876-93.169-46.157-144.985-45.022c-3.238,0.099-5.959-2.496-5.982-5.745c-0.031-3.109,2.402-5.672,5.472-5.853
						c97.632-7.75,188.543,48.015,246.018,123.984c8.63,11.251,16.198,22.02,23.424,34.578c0,0-19.566-4.52-19.566-4.52
						c82.125-62.193,175.044-62.308,246.084,16.331c8.933,9.982,16.521,19.54,23.698,31.279c0,0-21.827-1.526-21.827-1.526
						c75.4-98.356,197.236-90.483,294.416-29.739c0-0.001-20.188,14.183-20.188,14.183c-7.257-27.334-15.877-54.414-26.477-80.683
						c-66.405-160.759-192.833-293.658-340.348-383.631c-0.001,0.001,19.456-9.565,19.456-9.565l-2.686,16.485
						c-23.997,135.79-153.518,205.031-279.326,223.372c-42.603,6.338-85.842,8.405-128.759,3.727
						c-2.095-0.247-3.594-2.145-3.347-4.24C2334.391,2138.987,2335.941,2137.594,2337.761,2137.496L2337.761,2137.496z"/>
				</g>
			</g>
			<g>
				<g>
					<path style="fill:#FF5050;" d="M1684.34,3095.292c0,0-211.18-3.929-390.753,21.939c-18.584,2.649-36.86,5.65-54.473,9.005
						c-188.049,35.711-186.857-134.504-214.27-239.255c-20.968-80.296-53.81-202.528-68.024-255.234
						c-0.485-1.722-0.927-3.399-1.368-4.988c-3.443-12.757,4.9-25.514,17.878-27.854c60.079-10.771,88.418,44.055,88.418,44.055
						c61.271,11.08,108.592,46.438,135.695,71.644c0,0,0.044,0.044,0.088,0.088c16.554,15.406,25.515,27.06,25.515,27.06
						c77.603-41.715,163.682-72.041,238.284-93.318c107.355-30.591,190.874-42.377,190.874-42.377
						C1696.436,2747.092,1684.34,3095.292,1684.34,3095.292z"/>
				</g>
				<g>
					<path style="fill:#BC3131;" d="M1295.75,3095.248c-1.059,12.802-10.859,23.175-23.528,25.206
						c-5.959,0.971-11.875,1.942-17.701,2.958c-5.165,0.883-10.329,1.854-15.406,2.825
						c-188.049,35.711-186.857-134.504-214.27-239.255c-7.46-28.516-16.377-62.33-25.471-96.408
						c-4.105-15.406-8.255-30.856-12.272-45.953c-0.839-3.134-1.633-6.268-2.516-9.314c-1.06-4.149-2.163-8.299-3.267-12.36
						c-0.883-3.267-1.721-6.489-2.604-9.667c-0.971-3.752-1.987-7.46-2.958-11.124c-0.883-3.311-1.766-6.577-2.649-9.8
						c-0.883-3.311-1.766-6.577-2.604-9.755c-0.353-1.281-0.662-2.516-1.015-3.752c-0.971-3.708-1.942-7.328-2.913-10.859
						c-1.236-4.414-2.34-8.696-3.443-12.757c-0.353-1.324-0.662-2.605-1.015-3.841c-0.839-3.046-1.633-5.959-2.384-8.74
						c0-0.088,0-0.177-0.044-0.221c-0.486-1.898-1.016-3.752-1.501-5.518c-0.441-1.766-0.927-3.487-1.368-5.165
						c-0.485-1.722-0.927-3.399-1.368-4.988c-3.443-12.757,4.9-25.514,17.878-27.854c45.07-8.078,72.262,20.703,83.033,35.624
						c3.929,5.429,9.8,9.138,16.333,10.682c55.973,13.022,99.277,45.688,124.748,69.393c0,0,0.044,0.044,0.088,0.088
						c3.002,3.531,97.291,116.184,100.469,314.872C1298.31,3050.487,1297.648,3072.426,1295.75,3095.248z"/>
				</g>
				<g>
					<path style="fill:#DD2626;" d="M1684.34,3095.292c0,0-211.18-3.929-390.753,21.939c-7.195,1.016-14.303,2.119-21.365,3.223
						c12.669-2.031,22.469-12.404,23.528-25.206c1.898-22.822,2.56-44.761,2.251-65.685c28.001-1.34,57.878-3.364,87.267-5.511
						c56.75-4.146,97.341-56.65,86.858-112.578c-13.385-71.407-24.515-169.67-10.797-263.041
						c107.355-30.591,190.874-42.377,190.874-42.377C1696.436,2747.092,1684.34,3095.292,1684.34,3095.292z"/>
				</g>
				<g>
					<path style="fill:#992020;" d="M1295.75,3095.248c-1.059,12.802-10.859,23.175-23.528,25.206
						c-5.959,0.971-11.875,1.942-17.701,2.958c-5.209,0.927-10.329,1.854-15.406,2.825
						c-188.049,35.711-186.857-134.504-214.27-239.255c-7.46-28.516-16.377-62.33-25.471-96.408
						c-4.105-15.406-8.211-30.9-12.272-45.953c-0.839-3.134-1.633-6.268-2.516-9.314c-1.06-4.149-2.163-8.299-3.267-12.36
						c-0.883-3.267-1.721-6.489-2.604-9.667c-0.971-3.752-1.987-7.46-2.958-11.124c-0.883-3.311-1.766-6.577-2.649-9.8
						c-0.883-3.311-1.766-6.577-2.604-9.755c-0.353-1.281-0.662-2.516-1.015-3.752c-0.971-3.708-1.942-7.328-2.913-10.859
						c-1.192-4.414-2.34-8.696-3.443-12.757c-0.353-1.324-0.662-2.605-1.015-3.841c-0.839-3.046-1.589-5.959-2.384-8.74
						c0-0.088,0-0.177-0.044-0.221c-0.486-1.898-1.016-3.752-1.501-5.518c-0.441-1.766-0.927-3.487-1.368-5.165
						c0,0,12.404-22.866,31.165-9.491c18.761,13.419,24.941,25.691,24.941,25.691s29.973,2.869,63.875,51.073
						c33.946,48.248,67.409,288.69,82.15,316.946c17.083,32.746,65.641,17.128,139.05,13.596
						C1298.31,3050.487,1297.648,3072.426,1295.75,3095.248z"/>
				</g>
				<g style="opacity:0.35;">
					<path style="fill:#FFFFFF;" d="M1227.695,2766c0,0,260.691-90.171,310.687-91.956c49.996-1.785-36.604-34.34-36.604-34.34
						S1222.338,2706.184,1227.695,2766z"/>
				</g>
				<g>
					<path style="fill:#2D0000;" d="M1059.677,2656.983c-7.577,0.072-15.04-0.359-22.488-0.881c-0.802-0.1-5.969-0.547-6.641-0.458
						c-4.807,0.369-8.806,4.931-8.21,9.796c0,0,0.345,2.888,0.345,2.888c0.444,3.654,1.593,13.553,2.024,17.339
						c3.399,30.925,6.423,61.869,8.282,92.967c0.256,4.228-2.964,7.863-7.192,8.119c-3.712,0.225-6.965-2.233-7.878-5.696
						c-3.983-15.073-7.772-30.182-11.166-45.357c-5.195-23.177-10.893-46.464-14.797-69.918c-2.07-19.528,13.026-38.7,32.513-41.526
						c13.231-1.405,26.452,2.36,39.372,4.611C1080.932,2633.065,1077.067,2657.873,1059.677,2656.983L1059.677,2656.983z"/>
				</g>
				<g>
					<path style="fill:#2D0000;" d="M1207.327,2704.383c29.831,34.274,48.879,76.021,64.7,118.1c-0.001,0,6.157,17.862,6.157,17.862
						c1.666,4.834-0.901,10.103-5.735,11.77c-4.748,1.646-9.91-0.833-11.674-5.455l-7.093-16.841
						c-15.893-35.458-34.843-70.206-60.64-99.373c-1.843-2.002-4.073-4.381-5.527-5.685
						C1173.433,2711.344,1193.449,2690.65,1207.327,2704.383L1207.327,2704.383z"/>
				</g>
				<g>
					<path style="fill:#2D0000;" d="M1191.783,3145.253c-128.691,0.012-151.985-116.323-169.507-203.75
						c-3.64-18.159-7.078-35.313-11.167-50.957c-21.536-82.407-55.693-209.365-69.38-260.125c-2.646-9.814-1.042-20.366,4.399-28.95
						c5.51-8.694,14.512-14.729,24.7-16.558c50.818-9.116,85.549,22.793,99.966,45.298c80.286,16.829,136.006,71.555,155.723,93.611
						c187.688-97.649,421.297-131.533,423.677-131.868c6.902-0.981,13.467,3.179,15.549,9.817
						c44.465,141.741,33.281,479.673,32.783,493.99c-0.271,7.756-6.819,13.64-14.465,13.716
						c-2.556-0.049-257.857-4.319-442.285,30.703C1223.551,3143.639,1206.927,3145.251,1191.783,3145.253z M988.548,2611.728
						c-4.026,0-8.254,0.361-12.695,1.16c-3.252,0.583-4.978,2.632-5.72,3.799c-0.698,1.106-1.755,3.396-0.962,6.338
						c13.694,50.791,47.876,177.832,69.439,260.334c4.297,16.44,7.813,33.984,11.533,52.559
						c20.098,100.273,40.867,203.994,186.331,176.338c162.188-30.796,377.458-31.677,434.038-31.34
						c1.582-63.884,5.908-331.936-28.469-458.902c-50.852,8.44-251.438,45.752-412.256,132.232
						c-6.121,3.289-13.733,1.667-17.979-3.833c-0.586-0.752-60.583-76.878-152.573-93.501c-4.341-0.784-8.069-3.538-10.095-7.456
						C1048.272,2647.819,1028.673,2611.728,988.548,2611.728z"/>
				</g>
			</g>
			<g>
				<g>
					<path style="fill:#FF5050;" d="M1759.163,1858.98c1.81,71.203-28.34,156.796-62.065,229.323
						c-41.23,88.639-87.712,157.899-87.712,157.899l-407.748-566.84c-9.491-1.192-18.01-3.399-25.603-6.268
						c-54.34-20.615-61.888-77.692-61.888-77.692c-53.545,5.121-81.974-8.078-97.115-23.352c-3.002-3.046-5.474-6.136-7.504-9.182
						c-8.255-12.36-3.178-29.178,10.594-34.829c31.959-13.199,69.613-31.43,69.613-31.43s-0.044,0-0.132-0.044
						c-10.815-3.664-20.526-7.46-29.223-11.433c-59.417-27.104-72.792-60.52-73.586-83.739
						c-0.53-14.788,12.492-26.442,27.148-24.146c47.719,7.548,128.191,15.803,128.191,15.803
						c-29.62-62.859-23.175-101.176-11.698-122.717c7.681-14.479,27.722-16.333,38.36-3.929
						c49.043,57.033,148.894,177.852,148.894,177.852c17.392-32.401,36.815-45.776,53.59-50.323
						c20.35-5.474,39.066,12.978,33.902,33.416c-5.562,21.762-10.947,47.321-10.947,47.321s0.044,0.441,0.132,1.236
						c4.37,35.182-2.869,74.469-2.869,74.469l298.671,250.688l28.34,23.793L1759.163,1858.98z"/>
				</g>
				<g>
					<path style="fill:#BC3131;" d="M1405.181,1427.351c-5.562,21.762-10.947,47.321-10.947,47.321s0.044,0.441,0.132,1.236
						c1.28,14.258,10.33,148.938-109.695,188.225c-28.384,9.27-64.007,13.199-108.636,8.961
						c-54.34-20.615-61.888-77.692-61.888-77.692c-10.241,0.971-19.599,1.28-28.075,1.016c-1.059-0.044-2.075-0.044-3.09-0.133
						c-12.757-0.53-23.573-2.428-32.71-5.209c-0.795-0.221-1.589-0.485-2.384-0.75c-0.397-0.089-0.75-0.221-1.104-0.353
						c-1.589-0.53-3.09-1.104-4.547-1.677c-1.501-0.574-2.914-1.192-4.282-1.854c-1.324-0.618-2.604-1.236-3.84-1.898
						c-0.044,0-0.088-0.044-0.088-0.044c-1.28-0.662-2.472-1.369-3.664-2.075c-0.353-0.177-0.662-0.353-0.927-0.574
						c-0.662-0.397-1.324-0.795-1.942-1.236c-4.061-2.693-7.504-5.606-10.462-8.564c-3.002-3.046-5.474-6.136-7.504-9.182
						c-8.255-12.36-3.178-29.178,10.594-34.829c31.959-13.199,69.613-31.43,69.613-31.43s-0.044,0-0.132-0.044
						c-10.815-3.664-20.526-7.504-29.223-11.433c-0.044-0.044-0.132-0.044-0.177-0.088c-59.24-27.104-72.615-60.476-73.409-83.651
						c-0.53-14.788,12.492-26.442,27.148-24.146c47.719,7.548,128.191,15.803,128.191,15.803
						c-29.62-62.859-23.175-101.176-11.698-122.717c7.681-14.479,27.722-16.333,38.36-3.929
						c49.043,57.033,148.894,177.852,148.894,177.852c17.392-32.401,36.815-45.776,53.59-50.323
						C1391.629,1388.461,1410.345,1406.913,1405.181,1427.351z"/>
				</g>
				<g>
					<path style="fill:#DD2626;" d="M1718.507,1824.858c-6.577,78.663-16.597,199.879-21.409,263.445
						c-41.23,88.639-87.712,157.899-87.712,157.899l-407.748-566.84c-9.491-1.192-18.01-3.399-25.603-6.268
						c44.628,4.238,80.252,0.309,108.636-8.961c3.355,4.414,218.375,287.636,264.063,286.973
						c30.944-0.441,99.631-90.714,141.434-150.042L1718.507,1824.858z"/>
				</g>
				<g>
					<path style="fill:#992020;" d="M1284.626,1664.089c0,0,0,0,0.044,0.044c-28.384,9.27-64.007,13.199-108.636,8.961
						c-54.34-20.615-61.888-77.692-61.888-77.692c-10.241,0.971-19.599,1.28-28.075,1.016c-1.059-0.044-2.075-0.044-3.09-0.133
						c-12.757-0.53-23.573-2.428-32.71-5.209c-0.795-0.221-1.589-0.485-2.384-0.75c-0.397-0.089-0.75-0.221-1.104-0.353
						c-1.589-0.53-3.09-1.104-4.547-1.677c-1.501-0.574-2.914-1.192-4.282-1.854c-1.324-0.618-2.604-1.236-3.84-1.898
						c-0.044,0-0.088-0.044-0.088-0.044c-1.28-0.662-2.516-1.369-3.664-2.075c-0.353-0.177-0.662-0.353-0.927-0.574
						c-0.662-0.397-1.324-0.795-1.942-1.236c-4.061-2.693-7.504-5.606-10.462-8.564c-1.413-7.416-0.75-11.654,2.339-11.875
						c31.562-2.339,99.41-44.673,96.408-51.382c-2.958-6.709-26.045-12.184-26.045-12.184s-0.044,0-0.132-0.044
						c-1.192-0.177-11.477-2.075-29.223-11.433c-0.044-0.044-0.132-0.044-0.177-0.088c-8.255-4.414-18.187-10.374-29.531-18.584
						c-37.478-27.016-28.561-63.433-14.258-59.858c14.258,3.576,149.336,17.525,149.336,17.525s-16.024-14.567-34.476-67.539
						c-18.452-52.972,14.876-70.805,24.985-61.667c10.153,9.182,133.267,160.327,133.267,160.327
						C1215.675,1555.056,1284.626,1664.089,1284.626,1664.089z"/>
				</g>
				<g>
					<path style="fill:#2D0000;" d="M1153.902,1385.106c12.805,22.976,27.959,45.326,45.073,65.424
						c2.399,2.73,2.103,6.907-0.662,9.268c-2.42,2.07-5.919,2.058-8.317,0.139c-10.888-8.7-21.259-18.06-31.133-27.9
						c-10.068-10.046-19.362-19.976-28.547-31.07C1117.854,1384.542,1143.36,1367.34,1153.902,1385.106L1153.902,1385.106z"/>
				</g>
				<g>
					<path style="fill:#2D0000;" d="M1324.094,1456.908c-27.51,13.51-52.499,38.938-55.05,70.732
						c-0.088,0.685-0.541,6.894-0.599,7.323c-0.307,3.759-3.604,6.556-7.363,6.249c-3.265-0.267-5.803-2.793-6.213-5.914
						c-3.508-20.35,0.901-42.52,12.027-60.12c11.18-18,26.225-32.891,44.478-43.693
						C1328.838,1422.302,1341.948,1448.412,1324.094,1456.908L1324.094,1456.908z"/>
				</g>
				<g>
					<path style="fill:#2D0000;" d="M1255.929,1458.48c-38.276,25.625-68.384,61.677-81.16,106.379
						c-1.975,7.241-12.68,6.069-12.941-1.414c-2.378-39.85,22.41-77.483,54.925-98.768c10.859-7.104,22.193-12.841,35.03-16.262
						c2.923-0.779,5.925,0.959,6.704,3.883C1259.15,1454.773,1257.998,1457.226,1255.929,1458.48L1255.929,1458.48z"/>
				</g>
				<g>
					<path style="fill:#2D0000;" d="M1409.051,1523.446c-1.948,29.905-12.328,60.997-35.623,80.924
						c-9.015,7.653-21.837-3.56-15.624-13.465c13.847-20.044,21.859-44.217,22.848-68.527
						C1381.728,1503.575,1409.38,1504.581,1409.051,1523.446L1409.051,1523.446z"/>
				</g>
				<g>
					<path style="fill:#2D0000;" d="M1609.395,2260.387c-4.568,0-8.862-2.197-11.536-5.913l-404.27-561.995
						c-56.289-9.827-82.217-52.249-90.732-82.026c-62.62,2.925-91.694-19.58-105.161-39.736c-6.311-9.446-8.035-21.091-4.729-31.953
						c3.303-10.854,11.213-19.561,21.707-23.884c13.037-5.374,27.141-11.653,39.17-17.153
						c-64.575-29.634-80.281-67.58-81.257-95.869c-0.393-11.35,4.248-22.168,12.732-29.675c8.442-7.466,19.675-10.75,30.83-8.982
						c30.813,4.871,76.011,10.105,103.474,13.132c-20.767-55.627-12.959-91.611-1.736-112.712
						c5.752-10.815,16.504-18.083,28.765-19.446c12.468-1.394,24.775,3.455,32.927,12.944
						c38.179,44.414,107.871,128.33,136.392,162.747c14.763-21.062,32.065-34.365,51.616-39.643
						c14.48-3.914,29.504,0.044,40.193,10.574c10.691,10.535,14.868,25.501,11.172,40.034c-4.448,17.497-8.857,37.715-10.308,44.448
						c3.169,27.058,0.09,55.623-1.86,69.373l361.521,303.43c3.12,2.617,4.966,6.45,5.071,10.522
						c4.087,160.891-145.798,385.994-152.182,395.496c-2.593,3.865-6.917,6.211-11.568,6.287
						C1609.547,2260.387,1609.471,2260.387,1609.395,2260.387z M1114.151,1581.188c7.048,0,13.13,5.222,14.072,12.344
						c0.359,2.529,9.7,63.408,75.188,71.69c3.916,0.496,7.449,2.598,9.753,5.801l395.549,549.873
						c34.292-54.905,136.055-228.491,136.321-355.242l-362.678-304.402c-3.916-3.286-5.764-8.43-4.839-13.459
						c0.068-0.383,6.963-38.538,2.639-71.282c-0.21-1.599-0.149-3.22,0.186-4.797c0.222-1.055,5.518-26.065,11.064-47.886
						c1.699-6.687-1.934-11.169-3.574-12.786c-1.641-1.616-6.179-5.183-12.837-3.384c-16.694,4.509-31.763,19.075-44.792,43.296
						c-2.241,4.167-6.409,6.946-11.116,7.41c-4.697,0.459-9.338-1.438-12.351-5.085c-0.999-1.208-100.342-121.362-148.711-177.634
						c-2.932-3.411-6.741-3.386-8.24-3.22c-1.741,0.193-4.944,1.04-6.807,4.541c-9.634,18.115-15.376,51.909,11.987,110.017
						c2.183,4.636,1.702,10.09-1.262,14.27c-2.964,4.182-7.949,6.455-13.044,5.92c-0.811-0.083-81.431-8.386-128.95-15.901
						c-3.721-0.579-6.343,1.123-7.559,2.2c-1.238,1.094-3.296,3.513-3.162,7.405c1.162,33.599,33.423,62.043,93.291,82.258
						c5.466,1.846,9.275,6.816,9.636,12.576c0.361,5.757-2.795,11.165-7.988,13.679c-1.555,0.752-38.425,18.579-70.425,31.768
						c-3.538,1.458-4.868,4.309-5.347,5.881c-0.479,1.575-0.964,4.692,1.172,7.888c14.397,21.548,46.02,30.662,91.46,26.326
						C1113.245,1581.21,1113.702,1581.188,1114.151,1581.188z"/>
				</g>
			</g>
			<g>
				<g>
					<path style="fill:#FF5050;" d="M3293.13,2549.155c-1.457,12.537-3.134,24.853-5.032,36.904
						c-1.368,8.961-2.869,17.745-4.458,26.441c0,0.088,0,0.132-0.044,0.177c-7.372,39.552-16.995,76.411-28.561,110.711
						c-184.915,548.652-870.764,448.095-870.764,448.095c-3.267,0.662-6.533,1.28-9.756,1.942
						c-1221.612,237.092-874.604-700.107-836.597-931.637c38.095-232.104,115.478-312.311,115.478-312.311
						c118.082-44.585,310.678-12.051,476.965,51.382c132.87,50.72,248.922,121.128,296.729,187.74
						c26.883,37.433,51.206,80.34,72.571,123.644c64.052,130.134,101.264,263.798,101.264,263.798s130.928,119.628,348.773,83.916
						c214.447-35.138,342.373-324.627,346.302-333.676c0.044-0.088,0.044-0.133,0.088-0.221
						C3303.062,2395.935,3301.605,2476.673,3293.13,2549.155z"/>
				</g>
				<g>
					<path style="fill:#FFC98F;" d="M3293.13,2549.155c-7.504,64.36-20.526,122.188-38.095,174.232
						c-1.059,3.134-2.119,6.268-3.222,9.358c-6.533,18.54-13.64,36.374-21.321,53.457c-0.706,1.545-1.368,3.09-2.119,4.635
						c-0.883,2.031-1.81,4.061-2.781,6.048c-4.9,10.462-10.021,20.615-15.318,30.503c-1.413,2.648-2.825,5.253-4.282,7.901
						c-8.961,16.156-18.452,31.606-28.428,46.35c-1.28,1.854-2.561,3.752-3.841,5.606c-11.477,16.598-23.573,32.269-36.197,47.101
						c-1.633,1.898-3.267,3.796-4.944,5.695c-3.929,4.502-7.902,8.917-11.963,13.243c-1.457,1.633-2.958,3.222-4.502,4.812
						c-11.565,12.183-23.528,23.705-35.8,34.608c-1.501,1.369-3.002,2.693-4.547,4.017c-10.904,9.491-22.027,18.496-33.372,27.06
						c-1.854,1.413-3.752,2.825-5.65,4.194c-2.34,1.722-4.679,3.443-7.063,5.121c-9.447,6.798-19.026,13.243-28.649,19.379
						c-4.812,3.09-9.712,6.092-14.567,9.005c-2.472,1.501-4.9,2.958-7.372,4.37c-2.428,1.413-4.9,2.825-7.372,4.238
						c-12.802,7.284-25.78,14.082-38.802,20.394c-2.031,1.015-4.061,1.987-6.136,2.958c-6.048,2.913-12.139,5.694-18.187,8.343
						c-4.061,1.81-8.122,3.575-12.183,5.297c-5.385,2.251-10.727,4.414-16.068,6.533c-3.973,1.589-7.946,3.09-11.919,4.591
						c-4.282,1.633-8.52,3.178-12.801,4.723c-12.713,4.547-25.427,8.74-38.095,12.581c-1.81,0.574-3.664,1.104-5.474,1.633
						c-5.121,1.545-10.241,3.002-15.318,4.414c-3.267,0.927-6.489,1.81-9.755,2.649c-4.371,1.192-8.741,2.295-13.111,3.399
						c-5.076,1.28-10.109,2.472-15.141,3.664c-4.017,0.927-8.034,1.854-12.007,2.693c-4.458,1.015-8.873,1.942-13.287,2.825
						c-4.105,0.839-8.167,1.633-12.228,2.428c-0.309,0.089-0.662,0.133-0.971,0.177c-4.326,0.839-8.608,1.633-12.89,2.384
						c-0.353,0.044-0.662,0.132-0.971,0.176c-4.105,0.707-8.21,1.413-12.272,2.075c-4.326,0.706-8.608,1.413-12.89,2.031
						c-3.752,0.574-7.46,1.104-11.212,1.633c-0.574,0.088-1.148,0.177-1.722,0.221c-6.577,0.971-13.111,1.81-19.599,2.56
						c-1.766,0.221-3.531,0.441-5.297,0.618c-2.869,0.353-5.783,0.662-8.652,0.971c-1.324,0.132-2.604,0.309-3.884,0.441
						c-3.311,0.309-6.621,0.662-9.844,0.971c-16.774,1.589-33.063,2.781-48.645,3.576c-5.562,0.309-10.992,0.574-16.377,0.75
						c-2.693,0.132-5.341,0.22-7.99,0.309c-2.781,0.088-5.518,0.177-8.255,0.221c-92.7,2.384-155.471-6.842-155.471-6.842
						c-3.267,0.662-6.533,1.28-9.756,1.898v0.044c-1221.612,237.092-874.604-700.107-836.597-931.637
						c38.095-232.104,115.478-312.311,115.478-312.311c118.082-44.585,310.678-12.051,476.965,51.382
						c25.735,28.87,46.615,55.002,46.615,55.002s-97.732,63.036-112.918,363.076c-9.403,185.532,43.746,314.254,43.304,453.524
						c-0.177,56.282,173.57,123.954,388.723,141.611c68.333,5.606,140.816,6.136,213.21-0.309
						c263.843-23.484,526.758-140.021,583.791-444.564C3293.086,2549.199,3293.086,2549.199,3293.13,2549.155z"/>
				</g>
				<g>
					<path style="fill:#F4A75B;" d="M3255.035,2723.388c-1.059,3.134-2.119,6.268-3.222,9.358
						c-6.533,18.54-13.64,36.374-21.321,53.457c-0.706,1.545-1.368,3.09-2.119,4.635c-0.883,2.031-1.81,4.061-2.781,6.048
						c-4.9,10.462-10.021,20.615-15.318,30.503c-1.413,2.648-2.825,5.253-4.282,7.901c-8.961,16.156-18.452,31.606-28.428,46.35
						c-1.28,1.854-2.561,3.752-3.841,5.606c-11.477,16.598-23.573,32.269-36.197,47.101c-1.633,1.898-3.267,3.796-4.944,5.695
						c-3.929,4.502-7.902,8.917-11.963,13.243c-1.457,1.633-2.958,3.222-4.502,4.812c-11.565,12.183-23.528,23.705-35.8,34.608
						c-1.501,1.369-3.002,2.693-4.547,4.017c-10.904,9.491-22.027,18.496-33.372,27.06c-1.854,1.413-3.752,2.825-5.65,4.194
						c-2.34,1.722-4.679,3.443-7.063,5.121c-9.447,6.798-19.026,13.243-28.649,19.379c-4.812,3.09-9.712,6.092-14.567,9.005
						c-2.472,1.501-4.9,2.958-7.372,4.37c-2.428,1.413-4.9,2.825-7.372,4.238c-12.802,7.284-25.78,14.082-38.802,20.394
						c-2.031,1.015-4.061,1.987-6.136,2.958c-6.048,2.913-12.139,5.694-18.187,8.343c-4.061,1.81-8.122,3.575-12.183,5.297
						c-5.385,2.251-10.727,4.414-16.068,6.533c-3.973,1.589-7.946,3.09-11.919,4.591c-4.282,1.633-8.52,3.178-12.801,4.723
						c-12.713,4.547-25.427,8.74-38.095,12.581c-1.81,0.574-3.664,1.104-5.474,1.633c-5.121,1.545-10.241,3.002-15.318,4.414
						c-3.267,0.927-6.489,1.81-9.755,2.649c-4.371,1.192-8.741,2.295-13.111,3.399c-5.076,1.28-10.109,2.472-15.141,3.664
						c-4.017,0.927-8.034,1.854-12.007,2.693c-4.458,1.015-8.873,1.942-13.287,2.825c-4.105,0.839-8.167,1.633-12.228,2.428
						c-0.309,0.089-0.662,0.133-0.971,0.177c-4.326,0.839-8.608,1.633-12.89,2.384c-0.353,0.044-0.662,0.132-0.971,0.176
						c-4.105,0.707-8.21,1.413-12.272,2.075c-4.326,0.706-8.608,1.413-12.89,2.031c-3.752,0.574-7.46,1.104-11.212,1.633
						c-0.574,0.088-1.148,0.177-1.722,0.221c-6.577,0.971-13.111,1.81-19.599,2.56c-1.766,0.221-3.531,0.441-5.297,0.618
						c-2.869,0.353-5.783,0.662-8.652,0.971c-1.324,0.132-2.604,0.309-3.884,0.441c-3.311,0.309-6.621,0.662-9.844,0.971
						c-16.774,1.589-33.063,2.781-48.645,3.576c-5.518,0.309-10.992,0.574-16.377,0.75c-2.693,0.132-5.341,0.22-7.99,0.309
						c-2.781,0.088-5.518,0.177-8.255,0.221c-92.7,2.384-155.471-6.842-155.471-6.842c-3.267,0.662-6.533,1.28-9.756,1.942v-0.044
						c34.52-46.262,81.047-111.814,121.57-179.309c68.333,5.606,140.816,6.136,213.21-0.309
						c28.163,14.302,62.109,22.513,102.897,20.261C2974.948,3005.02,3176.195,2923.576,3255.035,2723.388z"/>
				</g>
				<g>
					<path style="fill:#F4A75B;" d="M1478.298,2534.568c0,0,1.9,359.061,236.331,372.323s377.305-222.431,377.305-222.431
						s25.351,240.977,143.584,306.333c118.233,65.356-391.211,279.791-617.382,101.005
						C1391.966,2913.011,1478.298,2534.568,1478.298,2534.568z"/>
				</g>
				<g>
					<g>
						<path style="fill:#D88248;" d="M1581.071,2098.598c42.288,75.635,124.142,123.284,208.057,138.246
							c99.152,17.63,200.558-2.377,294.819-34.881c12.407-4.179,19.462,14.263,6.788,19.144
							c-102.637,36.823-215.624,58.749-323.942,35.483c-78.972-17.376-153.479-61.893-199.37-129.489
							c-3.716-5.693-6.937-10.598-10.187-16.952C1549.537,2094.068,1573.085,2082.471,1581.071,2098.598L1581.071,2098.598z"/>
					</g>
					<g>
						<path style="fill:#D88248;" d="M1823.35,2529.765c-83.713,0-147.842-18.293-193.677-39.058
							c-91.172-41.306-131.294-100.037-132.959-102.515c-4.075-6.074-2.454-14.302,3.621-18.376
							c6.074-4.065,14.285-2.454,18.362,3.601c0.54,0.793,38.679,55.911,123.447,93.857c78.64,35.205,214.812,62.466,416.96-7.6
							c6.917-2.4,14.453,1.265,16.848,8.176c2.395,6.909-1.265,14.453-8.176,16.848
							C1972.857,2517.599,1891.593,2529.765,1823.35,2529.765z"/>
					</g>
					<g>
						<path style="fill:#D88248;" d="M1780.614,2800.81c-66.799,0-121.714-11.968-164.226-26.895
							c-106.382-37.351-159.355-99.512-161.557-102.139c-4.697-5.605-3.962-13.958,1.641-18.657
							c5.601-4.697,13.941-3.962,18.643,1.624l0,0c0.503,0.595,51.436,59.963,151.531,94.699
							c92.48,32.097,247.292,49.16,459.602-51.816c6.604-3.137,14.502-0.334,17.649,6.272c3.139,6.606,0.332,14.507-6.272,17.646
							C1972.921,2780.854,1866.864,2800.81,1780.614,2800.81z"/>
					</g>
					<g>
						<path style="fill:#D88248;" d="M2607.374,3187.885c-4.944,0-9.685-2.781-11.958-7.537c-3.154-6.599-0.362-14.507,6.238-17.659
							c77.534-37.048,53.196-162.097,52.942-163.354c-1.453-7.166,3.174-14.155,10.337-15.613
							c7.17-1.462,14.148,3.157,15.613,10.317c1.221,5.964,28.752,146.567-67.471,192.546
							C2611.231,3187.467,2609.288,3187.885,2607.374,3187.885z"/>
					</g>
					<g>
						<path style="fill:#D88248;" d="M2899.151,3119.111c-1.77,0-3.569-0.359-5.295-1.113c-6.702-2.927-9.76-10.735-6.831-17.437
							c21.223-48.572,17.983-146.453,17.947-147.437c-0.261-7.31,5.452-13.447,12.761-13.708
							c7.356-0.188,13.447,5.454,13.708,12.761c0.151,4.26,3.467,104.951-20.149,158.989
							C2909.119,3116.142,2904.256,3119.111,2899.151,3119.111z"/>
					</g>
					<g>
						<path style="fill:#D88248;" d="M3108.448,2979.233c-1.853,0-3.733-0.391-5.527-1.216c-6.643-3.057-9.553-10.92-6.496-17.566
							c17.842-38.792,12.996-114.35,12.944-115.107c-0.491-7.297,5.024-13.611,12.319-14.104c7.341-0.535,13.611,5.02,14.106,12.314
							c0.227,3.369,5.359,83.032-15.307,127.966C3118.255,2976.371,3113.46,2979.233,3108.448,2979.233z"/>
					</g>
				</g>
				<g style="opacity:0.35;">
					<path style="fill:#FFFFFF;" d="M3296,2306.281c-219.523,635.482-685.408,318.403-685.408,318.403l4.282,38.581
						c-31.739-117.597-148.011-327.585-148.011-327.585l32.798-43.437c64.052,130.134,101.264,263.798,101.264,263.798
						s130.928,119.628,348.773,83.916C3164.145,2604.82,3292.071,2315.33,3296,2306.281z"/>
				</g>
				<g>
					<path style="fill:#DD2626;" d="M2709.295,2993.763c-72.394,6.445-144.877,5.915-213.21,0.309
						c39.419-65.685,73.101-133.179,84.445-186.725C2580.531,2807.348,2606.045,2941.41,2709.295,2993.763z"/>
				</g>
				<g>
					<path style="fill:#2D0000;" d="M2106.199,2164.746c-13.375,87.087-30.782,173.848-31.443,262.132
						c-1.899,88.435,12.667,175.383,28.039,262.492c8.929,52.02,17.067,105.655,17.498,159.238
						c-1.353,27.038,44.406,49.196,66.127,60.091c155.596,67.586,347.906,83.799,516.089,71.251
						c212.372-16.238,445.372-103.98,538.162-309.712c18.276-39.15,31.185-80.841,39.411-123.52
						c1.385-7.182,8.329-11.881,15.51-10.496c7.144,1.377,11.83,8.262,10.517,15.403c-8.223,44.636-21.379,88.626-40.399,130.19
						c-96.74,216.476-337.979,310.196-560.802,326.647c-175.506,12.458-367.748-3.705-530.029-75.578
						c-31.284-16.032-78.18-39.855-80.553-79.927c-0.134-9.392-0.259-19.344-0.595-28.694
						c-4.179-88.103-25.665-175.036-35.464-263.172c-10.745-89.143-8.539-180.129,5.361-268.81
						c7.099-44.317,17.903-88.362,36.673-129.325c0.726-1.558,2.578-2.233,4.136-1.507
						C2105.715,2162.044,2106.394,2163.42,2106.199,2164.746L2106.199,2164.746z"/>
				</g>
				<g>
					<path style="fill:#2D0000;" d="M2612.883,2546.456c5.587,41.975,8.911,83.923,10.483,126.166
						c0.151,4.203-3.134,7.733-7.337,7.883c-3.942,0.143-7.295-2.744-7.816-6.565c-5.874-40.965-13.515-81.959-23.245-122.117
						C2580.937,2532.474,2609.422,2526.939,2612.883,2546.456L2612.883,2546.456z"/>
				</g>
				<g>
					<path style="fill:#2D0000;" d="M2025.133,3225.4c-204.521,0-355.591-49.319-451.062-147.676
						c-194.705-200.586-113.103-556.931-69.265-748.372c8.198-35.808,15.281-66.733,19.08-89.883
						c38.367-233.809,115.977-316.487,119.263-319.89c1.46-1.516,3.24-2.686,5.208-3.43
						c100.161-37.805,258.953-25.762,435.659,33.049c162.087,53.945,301.287,136.797,354.631,211.077
						c101.343,141.113,165.083,354.094,174.756,387.722c20.129,16.499,143.328,109.177,333.987,77.93
						c207.764-34.06,334.395-322.59,335.649-325.5c2.588-6.003,8.933-9.465,15.381-8.394c6.445,1.072,11.331,6.401,11.836,12.917
						c23.691,304.761-46.75,536.316-209.368,688.235c-142.563,133.184-330.493,178.364-463.044,192.813
						c-133.005,14.5-235.728,2.195-253.174-0.142C2250.772,3212.228,2130.799,3225.4,2025.133,3225.4z M1661.678,1941.53
						c-12.048,14.409-76.392,99.282-109.746,302.544c-3.943,24.026-11.116,55.352-19.421,91.624
						c-42.634,186.179-121.992,532.727,61.953,722.231c137.949,142.119,402.744,175.623,787.036,99.583
						c1.589-0.315,3.213-0.354,4.817-0.12c4.299,0.62,433.118,59.971,695.291-185.09
						c146.413-136.858,214.763-342.571,203.503-611.982c-47.363,87.905-162.769,265.727-333.123,293.655
						c-29.414,4.822-57.302,6.921-83.503,6.924c-171.616,0.012-272.341-89.976-277.16-94.377c-1.968-1.797-3.391-4.111-4.107-6.68
						c-0.654-2.351-66.694-236.833-171.658-382.988c-50.081-69.734-183.743-148.508-340.522-200.686
						C1908.9,1920.871,1754.825,1908.019,1661.678,1941.53z"/>
				</g>
			</g>
			<g>
				<g>
					<path style="fill:#FF5050;" d="M2262.26,3236.329c-119.627,126.779-317.829,148.232-399.979,137.505
						c-13.949-1.81-27.06-5.783-39.375-11.477c-0.044-0.044-0.088-0.044-0.133-0.044
						c-131.546-61.359-172.819-325.996-180.986-374.156c-5.165-30.503-23.616-63.389-38.228-85.681
						c-8.034-12.228,1.81-28.119,16.377-26.707c45.732,4.502,73.321,24.279,73.321,24.279c-1.015-10.021-1.545-19.732-1.633-28.914
						c-0.265-20.217,1.324-37.963,3.134-51.206c1.722-12.448,15.671-19.026,26.354-12.36
						c53.899,33.637,125.984,99.322,125.984,99.322c2.472-11.433,4.988-26.707,7.063-40.612
						c2.163-14.391,19.952-19.864,29.841-9.182c7.769,8.387,15.759,16.995,22.513,24.323v0.044c0,0,0.044,0.044,0.177,0.132
						c3.885,4.282,7.416,8.078,10.197,11.124l0.044,0.044c4.105,4.503,6.666,7.284,6.666,7.284l71.423-33.328
						c65.464-198.775,239.255-223.76,239.255-223.76s95.834-35.138,189.109-7.901c111.461,32.489,149.556,142.405,149.556,142.405
						c2.825,10.153,5.342,20.085,7.593,29.797c0,0.044,0,0.088,0,0.088C2675.129,3217.612,2262.26,3236.329,2262.26,3236.329z"/>
				</g>
				<g>
					<path style="fill:#BC3131;" d="M1996.52,3277.249c-12.493,70.894-57.916,117.332-173.614,85.108
						c-0.044-0.044-0.088-0.044-0.133-0.044c-131.546-61.359-172.819-325.996-180.986-374.156
						c-5.165-30.503-23.616-63.389-38.228-85.681c-8.034-12.228,1.81-28.119,16.377-26.707
						c45.732,4.502,73.321,24.279,73.321,24.279c-1.015-9.976-1.545-19.644-1.633-28.825c0-0.044,0-0.044,0-0.089
						c-0.265-20.217,1.324-37.963,3.134-51.206c1.722-12.448,15.671-19.026,26.354-12.36
						c53.899,33.637,125.984,99.322,125.984,99.322c2.472-11.433,4.988-26.707,7.063-40.612
						c2.163-14.391,19.952-19.864,29.841-9.182c7.769,8.387,15.759,16.995,22.513,24.323v0.044c0,0,0.044,0.044,0.177,0.132
						c0.883,0.574,4.547,3.267,10.197,11.124l0.044,0.044c11.521,16.112,31.386,53.766,52.398,138.741
						C1985.528,3097.058,2009.983,3201.235,1996.52,3277.249z"/>
				</g>
				<g>
					<path style="fill:#DD2626;" d="M2262.26,3236.329c-119.627,126.779-317.829,148.232-399.979,137.505
						c-13.949-1.81-27.06-5.783-39.375-11.477c115.699,32.224,161.122-14.214,173.614-85.108
						c94.775-23.97,272.715-88.771,252.498-234.487c0,0,311.826,98.174,331.513-235.414
						C2675.129,3217.612,2262.26,3236.329,2262.26,3236.329z"/>
				</g>
				<g>
					<path style="fill:#992020;" d="M1996.52,3277.249c-12.493,70.894-57.916,117.332-173.614,85.108
						c-0.044-0.044-0.088-0.044-0.133-0.044c-131.546-61.359-172.819-325.996-180.986-374.156
						c-5.165-30.503-23.616-63.389-38.228-85.681c0,0,33.019,1.589,56.856,17.083c23.793,15.494,53.678,48.16,52.354,37.036
						c-1.324-11.124-19.644-44.761-20.835-77.515c-0.088-2.649-0.177-5.297-0.309-7.857c0-0.044,0-0.044,0-0.089
						c-1.059-28.825-1.898-50.367,3.134-51.206c5.518-0.971,94.201,88.86,114.419,111.814c20.262,22.91,38.934,26.53,37.919,12.228
						c-0.971-14.346,7.946-52.133,9.093-57.033c1.06-4.326,94.687,201.027,89.919,350.275
						c-0.883,26.574,23.528,46.791,49.352,40.302C1995.813,3277.426,1996.166,3277.337,1996.52,3277.249z"/>
				</g>
				<g style="opacity:0.35;">
					<path style="fill:#FFFFFF;" d="M1940.727,2952.65c0,0,53.967-52.733,122.213-39.639c68.246,13.094,165.24,65.424,165.24,65.424
						s-86.299-90.077-155.402-112.776c-69.103-22.698-145.762,41.232-145.762,41.232L1940.727,2952.65z"/>
				</g>
				<g style="opacity:0.35;">
					<path style="fill:#FFFFFF;" d="M2052.027,2771.357c0,0,118.876-125.83,296.842-97.881
						c189.42,29.748,226.881,114.391,226.881,114.391s-46.417-131.28-165.587-156.031
						C2290.994,2607.085,2121.961,2659.759,2052.027,2771.357z"/>
				</g>
				<g>
					<path style="fill:#2D0000;" d="M2235.175,2649.174c-110.438,40.749-189.063,108.186-226.665,221.988
						c-1.27,3.856-4.083,6.828-7.49,8.432l-71.421,33.33c-5.764,2.689-12.426,1.183-16.495-3.285
						c-7.459-8.116-27.862-30.241-35.149-38.165c0,0-2.929-3.181-2.929-3.181l-1.451-1.573c-0.145-0.081-0.261-0.181-0.358-0.309
						c-1.244-1.081-3.151-0.816-4.198,0.289c-0.888,0.669-0.935,2.94-1.199,3.956c0,0-0.754,4.355-0.754,4.355l-6.057,34.842
						c-1.497,10.585-15.336,15.234-22.987,7.981c-37.954-33.805-77.406-67.351-119.855-95.273c-6.314-4.125-5.153-3.293-6.526-3.415
						c-1.032,0.099-2.089,0.855-2.45,1.669c-0.162-1.03-1.128,6.955-1.632,11.919c-2.221,21.922-2.403,44.084-0.168,65.854
						c1.667,11.722-12.792,20.05-22.137,13.198c-17.544-11.326-38.64-17.925-59.328-20.99c0,0-4.005-0.481-4.005-0.481l-2.002-0.243
						c-0.592-0.068-1.583-0.213-1.526-0.143c-2.548-0.341-4.35,2.719-2.952,4.712c17.662,27.712,33.161,55.372,39.972,89.203
						c19.504,116.46,70.805,354.341,208.249,375.788c94.922,9.018,194.277-12.221,279.786-54.089
						c40.351-20.254,77.652-46.486,108.469-78.97c2.643-2.788,6.128-4.267,9.692-4.444c12.382-0.75,25.939-2.627,38.855-4.838
						c120.83-21.034,235.581-86.539,268.794-211.25c1.865-9.196,4.694-19.318,6.168-28.562c0.762-4.981,2.604-19.911,3.268-24.256
						c0.427-4.384,0.413-10.445,0.749-14.738c2.776-39.525-3.719-79.419-9.032-118.661c-2.411-13.177-4.508-26.457-5.736-40.092
						c-0.662-4.864,2.92-9.352,7.809-9.776c3.814-0.344,7.275,1.854,8.721,5.185c22.18,51.285,28.822,108.211,27.204,164.67
						c-0.105,3.908-0.472,12.083-0.651,15.933c0,0-0.644,5.299-0.644,5.299l-2.61,21.203c-1.205,10.192-4.627,21.337-6.491,31.505
						c-0.001,0-3.239,10.273-3.239,10.273c-37.872,129.573-163.195,200.548-289.5,221.379c-14.307,2.295-27.647,4.229-42.378,5.117
						l9.691-4.443c-66.828,70.194-158.196,111.596-251.589,131.567c-52.545,10.5-107.026,16.409-161.124,10.153
						c-12.473-2.274-25.61-4.921-37.147-10.231c-119.813-52.272-166.278-237.055-189.225-354.133
						c0.002-0.001-6.041-34.438-6.041-34.438c-5.188-27.133-20.356-54.958-35.94-79.006c-14.077-21.016,3.35-50.553,28.572-48.434
						c15.88,1.345,31.341,4.77,46.423,9.963c12.537,4.47,23.763,9.441,35.027,16.982c0,0-22.426,12.999-22.426,12.999
						c-2.762-26.888-2.147-53.895,1.189-80.564c0.184-1.997,1.035-8.406,3.481-12.873c7.032-14.499,25.401-21.355,40.113-14.984
						c10.453,5.284,15.427,9.577,24.382,15.46c38.315,27.036,73.531,56.66,108.4,87.847c0,0-23.473,7.54-23.473,7.54
						c0.649-4.341,6.32-36.055,6.884-39.7c3.916-26.981,38.582-36.387,55.776-15.257c1.61,1.743,12.772,13.871,14.694,15.954
						c0,0,23.511,25.529,23.511,25.529l-16.493-3.285l71.421-33.33l-7.488,8.432c18.595-56.301,49.19-109.961,92.845-150.728
						c32.556-30.709,71.708-55.06,114.604-67.987c14.428-4.008,28.873-6.932,44.415-6.877c3.518,0.012,6.36,2.875,6.348,6.393
						C2239.712,2645.983,2237.787,2648.336,2235.175,2649.174L2235.175,2649.174z"/>
				</g>
				<g>
					<path style="fill:#2D0000;" d="M2323.285,2623.458c71.351-24.486,166.801,7.11,203.528,74.38
						c2.669,4.847-3.966,9.701-7.744,5.639c-37.143-39.286-88.439-57.816-140.929-64.476c-17.523-2.717-35.45-4.874-53.722-7.558
						C2320.128,2631.169,2319.189,2624.893,2323.285,2623.458L2323.285,2623.458z"/>
				</g>
				<g>
					<path style="fill:#2D0000;" d="M1707.187,2897.259c1.01,3.075,2.719,9.614,3.723,13.042c3.629,14.87,9.7,28.266,10.843,43.976
						c0.43,3.685-3.814,6.458-7.007,4.624c-10.408-5.595-17-14.688-22.927-24.38c-5.804-10-10.445-20.063-12.502-31.688
						C1676.739,2884.761,1702.582,2879.72,1707.187,2897.259L1707.187,2897.259z"/>
				</g>
				<g>
					<path style="fill:#2D0000;" d="M1861.318,2906.891c-2.488,17.479-6.004,34.313-11.455,51.104
						c-1.284,3.888-5.477,5.999-9.365,4.715c-3.279-1.082-5.295-4.239-5.074-7.528c0.366-8.03,0.221-16.14-0.243-24.253
						c-0.47-7.913-1.188-16.311-2.285-24.039C1830.925,2885.158,1863.282,2885.145,1861.318,2906.891L1861.318,2906.891z"/>
				</g>
				<g>
					<path style="fill:#2D0000;" d="M1936.09,2893.289c28.344,56.067,44.324,116.54,54.487,178.146
						c5.634,33.211,8.721,68.729,8.871,102.365c0.128,13.663-0.768,27.372-1.462,41.014c-0.537,7.371-11.437,7.843-12.465,0.416
						c-4.625-39.484-9.084-80.46-16.298-119.603c-8.093-45.735-19.931-90.987-35.675-134.671
						c-6.548-18.332-14.349-37.749-22.741-54.721C1903.039,2889.586,1926.999,2877.147,1936.09,2893.289L1936.09,2893.289z"/>
				</g>
				<g>
					<path style="fill:#2D0000;" d="M1988.994,2853.842c34.37-14.116,74.994-7.893,106.322,10.627
						c8.229,5.227,16.052,11.332,22.999,18.09c2.19,2.02,2.327,5.434,0.307,7.624c-1.539,1.668-3.886,2.145-5.885,1.385
						c-5.105-1.93-9.947-4.239-14.843-6.197c-9.243-3.466-18.774-6.94-28.427-8.973c-22.892-5.442-47.55-4.835-69.503,3.597
						C1982.899,2886.05,1972.758,2861.772,1988.994,2853.842L1988.994,2853.842z"/>
				</g>
				<g>
					<path style="fill:#2D0000;" d="M2180.3,2926.392c64.309,28.397,93.406,106.755,84.157,173.307
						c-0.289,2.513-4.044,2.608-4.414,0.063c-8.402-47.25-21.855-94.083-50.508-133.209c-9.188-12.844-19.564-25.202-31.392-36.31
						C2176.132,2928.794,2177.974,2925.379,2180.3,2926.392L2180.3,2926.392z"/>
				</g>
			</g>
			<g>
				<g>
					<g>
						<path style="fill:#FF5050;" d="M1689.474,1143.337l-57.205,146.049l-29.96,76.406
							c-51.875-26.406-154.884-35.439-154.884-35.439c86.03-95.161-15.449-187.016-15.449-187.016
							c86.228-53.899,42.892-168.014,23.346-209.474c-4.59-9.724-7.897-15.449-7.897-15.449
							C1638.636,984.948,1689.474,1143.337,1689.474,1143.337z"/>
					</g>
					<g>
						<path style="fill:#BC3131;" d="M1641.054,1252.614c-4.393,12.833-7.157,25.074-8.786,36.772l-29.96,76.406
							c-51.875-26.406-154.884-35.439-154.884-35.439c86.03-95.161-15.449-187.016-15.449-187.016
							c86.228-53.899,42.892-168.014,23.346-209.474c27.937,26.258,69.348,73.247,110.413,149.406
							C1637.6,1216.534,1679.8,1139.437,1641.054,1252.614z"/>
					</g>
					<g>
						<path style="fill:#992020;" d="M1489.576,1039.961c0,0,73.803,102.372,95.23,165.462l-143.524-57.733l40.557,57.733
							c0,0,43.114,18.595,62.03,38.759s-16.344,50.757-16.344,50.757s101.142-68.991,100.341-102.466
							c-0.801-33.475-146.349-233.677-146.349-233.677L1489.576,1039.961z"/>
					</g>
					<g style="opacity:0.35;">
						<path style="fill:#FFFFFF;" d="M1543.869,965.918c0,0,15.392,64.52,16.856,96.66c1.464,32.14,65.149,111.895,65.149,111.895
							s14.285-95.23-5.952-134.512C1599.686,1000.679,1543.869,965.918,1543.869,965.918z"/>
					</g>
					<g>
						<path style="fill:#2D0000;" d="M1458.449,908.499c78.352,91.245,171.475,214.641,199.906,332.577
							c3.152,12.67-11.955,22.973-22.549,15.522c-30.695-20.734-63.334-40.165-96.029-57.964
							c-32.941-18.003-66.783-34.338-101.422-48.797c-9.797-4.127-4.269-18.865,5.855-15.452
							c72.347,25.562,141.536,58.447,207.731,97.38c0.007,0.001-22.545,15.522-22.544,15.523
							c-14.028-59.626-45.499-116.536-78.562-168.122c-34.139-52.775-73.099-103.619-114.388-150.844
							C1423.565,913.624,1444.911,893.999,1458.449,908.499L1458.449,908.499z"/>
					</g>
					<g>
						<path style="fill:#2D0000;" d="M1650.341,1257.503c-63.948,26.623-129.024,49.748-195.103,70.195
							c-2.549,0.785-5.253-0.645-6.038-3.194c-0.737-2.392,0.511-4.933,2.768-5.885c31.656-13.223,62.976-27.159,93.93-41.805
							c30.799-14.585,61.731-29.918,91.625-46.014C1655.797,1221.632,1668.993,1248.917,1650.341,1257.503L1650.341,1257.503z"/>
					</g>
					<g>
						<path style="fill:#2D0000;" d="M1602.332,1380.617c-2.312,0-4.614-0.54-6.719-1.611
							c-48.721-24.812-148.46-33.813-149.46-33.901c-5.598-0.493-10.435-4.109-12.488-9.341c-2.053-5.229-0.972-11.172,2.798-15.339
							c74.905-82.864-10.769-162.754-14.453-166.116c-3.423-3.12-5.198-7.673-4.78-12.288c0.42-4.612,2.961-8.774,6.887-11.228
							c93.303-58.315,11.331-203.547,10.491-205.007c-3.079-5.359-2.505-12.068,1.441-16.826s10.427-6.56,16.267-4.534
							c195.896,68.193,249.08,227.644,251.247,234.397c1.043,3.247,0.933,6.753-0.313,9.927l-87.131,222.461
							c-1.524,3.892-4.619,6.956-8.525,8.44C1605.894,1380.297,1604.112,1380.617,1602.332,1380.617z M1475.206,1318.595
							c30.635,4.011,81.543,12.405,119.004,27.353l79.417-202.766c-9.492-24.207-59.485-135.496-196.321-196.987
							c24.619,60.522,38.464,147.998-22.747,199.063C1487.21,1182.34,1519.466,1250.397,1475.206,1318.595z"/>
					</g>
				</g>
				<g>
					<g>
						<path style="fill:#FFC98F;" d="M2429.212,933.445c0,0,129.64-66.778,192.096-21.607
							c62.456,45.171,20.53,215.871,20.53,215.871S2600.91,996.729,2429.212,933.445z"/>
					</g>
					<g>
						<path style="fill:#2D0000;" d="M2641.834,1142.516c-6.455,0-12.192-4.194-14.128-10.391
							c-0.383-1.208-41.423-125.01-203.613-184.788c-5.51-2.031-9.299-7.126-9.661-12.988c-0.359-5.859,2.778-11.379,8.001-14.07
							c5.625-2.898,138.53-70.376,207.553-20.439c68.56,49.582,30.767,212.937,26.233,231.401
							c-1.584,6.455-7.278,11.062-13.921,11.267C2642.144,1142.514,2641.988,1142.516,2641.834,1142.516z M2466.832,932.926
							c94.622,43.252,144.59,105.947,168.933,147.456c8.027-55.249,10.649-132.114-23.132-156.548
							C2577.586,898.485,2510.758,915.788,2466.832,932.926z"/>
					</g>
				</g>
				<g>
					<g>
						<path style="fill:#FFC98F;" d="M2621.309,1136.962c0,0,145.67,6.79,177.269,77.094
							c31.599,70.304-89.886,197.337-89.886,197.337S2738.554,1277.456,2621.309,1136.962z"/>
					</g>
					<g style="opacity:0.5;">
						<path style="fill:#FFFFFF;" d="M2783.594,1244.57c9.554,21.256,5.068,47.7-5.778,74.25
							c20.328-35.871,34.008-75.294,20.762-104.764c-31.599-70.304-177.269-77.094-177.269-77.094
							c9.882,11.842,18.637,23.627,26.535,35.299C2693.433,1179.77,2762.92,1198.575,2783.594,1244.57z"/>
					</g>
					<g>
						<path style="fill:#2D0000;" d="M2708.687,1426.2c-2.378,0-4.775-0.571-6.98-1.75c-5.86-3.135-8.914-9.793-7.469-16.279
							c0.271-1.238,26.453-129.009-84.299-261.721c-3.762-4.509-4.504-10.815-1.892-16.074c2.612-5.256,8.091-8.523,13.95-8.203
							c6.321,0.293,155.159,8.105,190.085,85.816c34.688,77.17-79.551,199.9-92.69,213.64
							C2716.527,1424.626,2712.633,1426.2,2708.687,1426.2z M2654.173,1155.277c60.435,84.685,72.468,163.948,72.861,212.068
							c34.514-43.88,75.129-109.192,58.037-147.219C2767.34,1180.676,2700.789,1162.34,2654.173,1155.277z"/>
					</g>
				</g>
				<g>
					<g>
						<path style="fill:#FFC98F;" d="M1809.696,882.14c0,0,55.902-189.667,231.593-281.505c0,0-15.972,191.663-15.972,305.463
							L1809.696,882.14z"/>
					</g>
					<g style="opacity:0.7;">
						<path style="fill:#FFFFFF;" d="M1879.507,831.207c0,0,64.715-152.524,153.287-218.589c0,0-55.269,95.245-76.644,218.589
							H1879.507z"/>
					</g>
					<g>
						<path style="fill:#2D0000;" d="M1860.424,758.701c44.131-9.333,91.592-5.031,131.481,16.26
							c4.419,2.401,2.114,9.401-2.842,8.717c-21.151-2.001-41.554-4.687-62.587-5.201c-20.453-0.578-41.591,0.591-61.682,3.438
							C1850.049,783.601,1846.123,762.499,1860.424,758.701L1860.424,758.701z"/>
					</g>
					<g>
						<path style="fill:#2D0000;" d="M1911.701,687.188c36.231-7.662,75.198-4.131,107.947,13.35
							c3.636,1.898,1.678,7.778-2.334,7.157c-33.561-3.828-67.928-6.677-101.278-1.548
							C1903.587,708.427,1899.509,690.51,1911.701,687.188L1911.701,687.188z"/>
					</g>
					<g>
						<path style="fill:#2D0000;" d="M2025.316,920.905c-0.545,0-1.089-0.029-1.636-0.09l-215.62-23.957
							c-4.353-0.483-8.269-2.871-10.696-6.519c-2.424-3.647-3.11-8.184-1.873-12.385c2.356-7.991,59.739-196.768,238.936-290.442
							c4.785-2.498,10.552-2.2,15.051,0.786c4.497,2.988,7.014,8.186,6.565,13.567c-0.159,1.909-15.92,192.363-15.92,304.233
							c0,4.211-1.794,8.225-4.932,11.033C2032.462,919.574,2028.941,920.905,2025.316,920.905z M1829.849,869.482l180.762,20.083
							c1.035-86.843,9.604-208.23,13.726-262.295C1903.155,701.662,1846.988,824.789,1829.849,869.482z"/>
					</g>
				</g>
				<g>
					<g>
						<path style="fill:#FF5050;" d="M2729.425,1673.359c-6.489,32.71-16.951,67.141-33.284,101.087
							c-46.748,97.159-141.302,190.388-327.497,227.954c-22.778,4.591-44.982,11.786-65.905,21.807
							c-41.848,19.997-120.29,54.914-205.309,79.546c-74.425,21.674-153.927,35.403-218.287,24.499
							c-172.996-29.267-255.499-212.901-298.097-274.172c-18.231-26.221-51.427-69.084-80.164-124.395
							c-38.405-73.851-68.907-169.862-44.982-277.571c0.574-2.693,1.192-5.297,1.854-7.902
							c32.93-136.843,107.973-164.344,178.867-263.622c0,0-4.017-106.782,9.976-152.69
							c13.949-45.909,107.488-92.214,150.086-144.082c0,0,0.794-8.255,4.944-19.423c6.93-18.628,24.676-31.077,44.54-32.224
							c31.165-1.766,87.535-2.251,158.65,8.917c10.506,1.589,19.599,8.122,24.543,17.525l1.28,2.472l2.163,4.061
							c0,0,370.404-47.763,557.084,187.696c183.723,231.618,141.125,431.277,141.125,431.277S2749.951,1570.197,2729.425,1673.359z"
							/>
					</g>
					<g>
						<path style="fill:#BC3131;" d="M2348.868,1959.141c-19.114,27.016-46.527,51.338-83.872,71.865
							c-62.507,34.343-120.157,53.324-167.567,72.748c-74.425,21.674-153.927,35.403-218.287,24.499
							c-172.996-29.267-255.499-212.901-298.097-274.172c-18.231-26.221-51.427-69.084-80.164-124.395
							c-3.09-28.428-3.62-59.152,0.485-90.581c10.197-78.839,49.573-161.872,150.66-222.922
							c261.106-157.678,351.775-100.955,441.209-54.428C2172.12,1402.763,2492.156,1756.701,2348.868,1959.141z"/>
					</g>
					<g>
						
							<ellipse transform="matrix(0.3481 -0.9374 0.9374 0.3481 -66.6303 2461.3643)" style="fill:#2D0000;" cx="1736.534" cy="1278.593" rx="118.486" ry="98.842"/>
					</g>
					<g style="opacity:0.35;">
						<path style="fill:#FFFFFF;" d="M1797.822,892.95c0,0,20.892-20.445,47.675-27.78s183.696,13.89,183.696,13.89
							s23.593-12.893-10.712-27.178c-34.306-14.285-156.914-18.451-188.459-8.928C1798.478,852.478,1797.822,892.95,1797.822,892.95
							z"/>
					</g>
					<g style="opacity:0.35;">
						<path style="fill:#FFFFFF;" d="M2729.425,1673.359c-17.922-10.285-25.073-40.7-16.156-98.306
							c52.398-338.091-212.69-591.441-422.007-656.626c-155.406-48.396-262.077-18.407-262.077-18.407s0.486-15.583,1.457-38.934
							l2.163,4.061c0,0,370.404-47.763,557.084,187.696c183.723,231.618,141.125,431.277,141.125,431.277
							S2749.951,1570.197,2729.425,1673.359z"/>
					</g>
					<g>
						<g>
							<path style="fill:#BC3131;" d="M2283.469,1675.745c0,0-148.739,75.867-237.582,88.844
								c-57.749,8.435-124.354-23.618-163.904-47.089c-23.3-13.828-49.751-21.543-76.842-22.01
								c-126.99-2.188-161.664-50.279-172.528-143.527c-11.979-102.819,27.618-148.406,27.618-148.406
								c35.271-24.623,117.127-58.564,117.127-58.564s101.782-43.038,217.598-24.513
								c115.816,18.524,172.298,112.868,223.626,208.856C2264.861,1615.881,2269.773,1670.431,2283.469,1675.745z"/>
						</g>
						<g>
							<path style="fill:#992020;" d="M1652.012,1416.186c0,0-60.238,253.933,178.615,232.425
								c12.093-1.089,24.21,1.664,34.723,7.738c27.023,15.613,83.942,44.406,139.062,46.352
								c75.886,2.678,233.908-63.387,251.764-62.495c17.856,0.893,54.459,27.985,46.425,69.345
								c-8.035,41.359-116.061,132.901-116.061,132.901l48.979-143.743c0,0-139.15,66.596-238.249,58.952
								c-99.098-7.643-116.425-59.562-192.129-62.172s-140.814-31.137-161.38-89.188S1623.691,1462.677,1652.012,1416.186z"/>
						</g>
						<g>
							<path style="fill:#992020;" d="M1738.81,1476.381c0,0,42.822,54.459,45.293,78.118c2.471,23.659-66.273-3.571-62.255-55.799
								L1738.81,1476.381z"/>
						</g>
						<g>
							<path style="fill:#992020;" d="M1963.184,1571.898c0,0,98.366-24.541,111.757-9.81
								c13.392,14.731-14.284,45.978-76.332,38.836C1936.561,1593.782,1942.89,1582.478,1963.184,1571.898z"/>
						</g>
						<g>
							<path style="fill:#DD2626;" d="M1500.882,1729.686c-38.405-73.851-68.907-169.862-44.982-277.571
								c0.574-2.693,1.192-5.297,1.854-7.902c0,0,2.472,96.497,43.613,194.891
								C1497.263,1670.534,1497.792,1701.258,1500.882,1729.686z"/>
						</g>
						<g>
							<path style="fill:#992020;" d="M2696.141,1774.447c-46.748,97.159-141.302,190.388-327.497,227.954
								c-22.778,4.591-44.982,11.786-65.905,21.807c-41.848,19.997-120.29,54.914-205.309,79.546
								c47.409-19.423,105.06-38.405,167.567-72.748c37.345-20.526,64.758-44.849,83.872-71.865
								c155.78-70.187,287.459-151.013,330.719-178.779C2686.959,1775.639,2692.389,1773.785,2696.141,1774.447z"/>
						</g>
						<g>
							<path style="fill:#992020;" d="M2348.868,1959.141c-19.114,27.016-46.527,51.338-83.872,71.865
								c-62.507,34.343-120.157,53.324-167.567,72.748c-74.425,21.674-153.927,35.403-218.287,24.499
								c-172.996-29.267-255.499-212.901-298.097-274.172c-18.231-26.221-51.427-69.084-80.164-124.395
								c-3.09-28.428-3.62-59.152,0.485-90.581c14.435,34.696,33.725,69.614,59.372,100.602
								c98.439,119.054,139.403,304.057,288.474,330.587C1991.84,2095.675,2183.862,2033.389,2348.868,1959.141z"/>
						</g>
						<g>
							<path style="fill:#2D0000;" d="M2235.518,1698.709c-13.277,40.177-37.265,118.458-79.812,188.941
								c-43.78,72.556-107.254,136.721-198.813,142.15c-180.452,10.661-237.41-93.187-237.706-163.719
								c-0.247-70.532,0-183.018,0-183.018c24.728,12.29,64.905,11.599,64.905,11.599c60.019,0.938,89.831,18.361,150.985,49.901
								c61.204,31.49,110.265,24.926,161.893,8.144C2148.649,1735.925,2235.518,1698.709,2235.518,1698.709z"/>
						</g>
						<g>
							<path style="fill:#FF8080;" d="M2155.707,1887.65c-43.78,72.556-107.254,136.721-198.813,142.15
								c-180.452,10.661-237.41-93.187-237.706-163.719c0,0,102.072-80.502,213.916-36.624
								C1933.104,1829.457,2082.805,1785.134,2155.707,1887.65z"/>
						</g>
						<g style="opacity:0.35;">
							<path style="fill:#FFFFFF;" d="M1695.285,1389.666c0,0,76.461-41.713,199.315-36.935
								c183.646,7.142,355.243,167.013,355.243,167.013s-96.337-139.456-207.042-189.392
								c-110.704-49.936-297.762,15.493-353.327,56.879"/>
						</g>
						<g>
							<path style="fill:#2D0000;" d="M1727.318,1696.181c2.381,38.797,5.082,75.931,6.013,112.778
								c1.911,36.287-4.252,74.589,11.329,109.002c19.715,47.897,66.745,79.823,116.374,90.877
								c32.46,8.221,67.396,9.29,100.869,7.148c111.469-9.111,179.956-113.987,221.264-208.281
								c16.09-36.442,28.983-74.132,41.633-112.565l15.189,13.941c-41.818,18.037-83.532,35.595-126.726,51.162
								c-77.045,28.778-133.453,26.555-205.52-14.195c-39.081-20.529-77.974-37.109-122.259-36.428
								c-21.939-0.013-45.047-1.906-66.047-9.701c0,0-1.175-0.43-1.175-0.43c0.235,0.096,0.92,0.293,1.487,0.34
								C1722.227,1700.236,1725.866,1698.614,1727.318,1696.181L1727.318,1696.181z M1711.092,1669.915
								c4.993-1.708,13.231-1.592,18.736,1.036c0,0,0.816,0.304,0.816,0.304l1.63,0.615c17.058,6.075,35.081,7.564,53.401,7.909
								c24.208,0.568,48.374,4.315,71.226,12.294c64.82,22.431,112.228,70.844,185.074,60.428
								c21.093-2.33,42.115-8.455,63.209-15.575c42.232-14.49,84.302-31.423,125.88-48.621c8.472-4.029,18.4,4.938,15.264,13.738
								c-44.26,142.412-122.039,335.695-297.852,341.236c-31.217,1.133-63.297-0.225-93.881-7.82
								c-82.075-17.429-149.664-83.252-150.052-170.789C1703.902,1800.465,1707.244,1732.839,1711.092,1669.915L1711.092,1669.915z"
								/>
						</g>
						<g>
							<path style="fill:#2D0000;" d="M1711.505,1856.315c59.616-44.441,139.785-67.966,212.645-45.81
								c0,0,14.578,4.606,14.578,4.606l-10.025-0.434c80.619-20.44,187.547-10.035,233.1,68.651
								c4.172,7.687-5.984,15.217-12.065,8.853c-47.829-54.636-115.693-65.399-184.459-53.99
								c-9.087,1.507-19.242,3.568-27.806,6.088c-3.398,0.873-6.822,0.674-9.91-0.388c-0.062-0.025-12.332-4.217-12.418-4.247
								c-28.873-9.683-60.534-10.958-90.559-5.248c-34.672,6.511-68.811,21.055-97.682,41.442
								C1713.86,1885.776,1698.676,1866.853,1711.505,1856.315L1711.505,1856.315z"/>
						</g>
						<g>
							<g>
								<path style="fill:#FFFFFF;" d="M1689.463,1668.818c0,0,3.377,82.129,35.321,81.463
									c31.944-0.665,47.916-53.073,47.916-53.073S1714.874,1692.078,1689.463,1668.818z"/>
							</g>
							<g>
								<path style="fill:#2D0000;" d="M1724.347,1762.624c-41.279,0-46.57-77.654-47.212-93.298
									c-0.205-4.981,2.607-9.595,7.126-11.697c4.517-2.099,9.856-1.277,13.535,2.087c18.255,16.709,61.05,23.855,76.001,25.2
									c3.699,0.332,7.058,2.314,9.133,5.398c2.075,3.081,2.654,6.936,1.572,10.488c-1.902,6.24-19.727,60.989-59.463,61.814
									C1724.81,1762.621,1724.576,1762.624,1724.347,1762.624z M1704.241,1692.565c3.887,24.446,11.655,45.378,20.176,45.378
									c0.036,0,0.073,0,0.11,0c13.323-0.278,24.377-16.97,30.886-30.637C1741.783,1705.011,1721.795,1700.588,1704.241,1692.565z"
									/>
							</g>
						</g>
						<g>
							<g>
								<path style="fill:#FFFFFF;" d="M1975.485,1757.661c0,0,9.674,85.571,41.618,84.785
									c31.944-0.786,50.744-74.978,50.744-74.978S2000.896,1785.123,1975.485,1757.661z"/>
							</g>
							<g>
								<path style="fill:#2D0000;" d="M2016.61,1855.859c-40.366,0-51.873-73.909-54.448-96.692
									c-0.652-5.757,2.471-11.282,7.739-13.696c5.271-2.412,11.489-1.167,15.425,3.083c16.204,17.517,63.74,9.971,79.116,5.947
									c4.585-1.201,9.475,0.11,12.844,3.452c3.367,3.342,4.724,8.213,3.557,12.81c-3.555,14.036-23.33,84.102-63.411,85.085
									C2017.159,1855.856,2016.881,1855.859,2016.61,1855.859z M1993.409,1782.78c6.099,26.201,15.508,46.345,23.364,46.262
									c10.596-0.261,23.12-22.161,31.479-44.19C2032.642,1786.933,2011.766,1787.931,1993.409,1782.78z"/>
							</g>
						</g>
						<g>
							<path style="fill:#2D0000;" d="M1941.061,1842.696c-35.997,19.94-66.418,50.987-86.505,87.01
								c-3.409,6.456-13.266,2.037-10.65-4.806c13.951-37.24,37.561-70.633,67.145-97.235c4.471-3.915,8.549-7.46,14.056-11.401
								C1943.535,1804.194,1960.367,1831.967,1941.061,1842.696L1941.061,1842.696z"/>
						</g>
						<g>
							<path style="fill:#2D0000;" d="M1822.115,1334.214c-41.158,19.988-124.581,59.642-152.414,77.569
								c-34.766,52.584-29.659,150.165-4.988,206.135c22.874,50.826,82.664,61.085,133.431,62.532
								c31.111-0.144,62.331,7.349,89.38,22.88c39.139,22.778,82.228,42.135,127.3,46.021c17.94,1.585,34.261-1.294,51.856-5.365
								c35.755-8.358,71.448-21.058,106.86-34.192c35.511-13.149,71.078-26.979,106.989-40.071c3.503-1.277,7.378,0.527,8.655,4.03
								c1.098,3.011-0.086,6.298-2.663,7.973c-32.54,21.15-66.711,39.008-102.006,54.921
								c-45.159,19.455-91.127,37.715-140.447,44.53c-61.611,6.057-120.102-21.583-171.539-51.746
								c-20.534-12.115-44.134-18.791-67.969-19.127c-52.653-1.212-112.942-8.792-149.617-51.97
								c-49.507-58.382-53.638-204.131-3.929-263.296c26.547-18.092,55.278-27.755,84.216-39.73
								c27.683-10.529,55.533-20.304,83.889-28.816C1823.969,1325.154,1826.637,1331.962,1822.115,1334.214L1822.115,1334.214z"/>
						</g>
						<g>
							<path style="fill:#2D0000;" d="M2265.954,1643.967c21.463-5.335,44.697,13.178,44.882,35.049
								c1.017,9.656-7.416,30.271-18.813,19.035c-3.571-4.304-5.6-9.29-8.369-13.409c-3.719-6.187-5.855-9.461-10.859-14.669
								c-2.45-2.56-6.555-5.727-8.748-8.367c0,0-3.253-4.732-3.253-4.732C2257.378,1652.129,2260.251,1645.055,2265.954,1643.967
								L2265.954,1643.967z"/>
						</g>
						<g>
							<path style="fill:#2D0000;" d="M1877.854,1316.256c99.613-32.561,228.141,3.489,280.709,97.922
								c0.951,1.703,0.342,3.853-1.359,4.804c-1.483,0.83-3.31,0.471-4.381-0.759c-50.607-58.373-122.604-84.595-197.92-90.681
								c-24.838-2.59-50.132-3.783-75.729-4.39C1875.305,1323.321,1874.08,1317.548,1877.854,1316.256L1877.854,1316.256z"/>
						</g>
						<g>
							<path style="fill:#2D0000;" d="M1777.585,1548.454c3.635,2.173,7.882-1.659,6.097-5.499
								c-10.419-22.41-32.808-67.367-46.254-70.852c-17.968-4.659-35.937,43.257,15.972,61.891L1777.585,1548.454z"/>
						</g>
						<g>
							<path style="fill:#2D0000;" d="M1967.145,1576.578c-4.506-0.342-5.52-6.513-1.343-8.241
								c30.619-12.662,95.729-36.981,112.361-22.365c20.775,18.257,2.245,51.402-64.042,36.339
								c-8.69-1.975-17.485-3.494-26.371-4.169L1967.145,1576.578z"/>
						</g>
						<g>
							<path style="fill:#FFFFFF;" d="M1733.004,1927.303c0,0,12.91-24.956,34.871-21.462c21.961,3.494,9.504,78.453,9.504,78.453
								S1748.045,1963.24,1733.004,1927.303z"/>
							<path style="fill:#2D0000;" d="M1777.379,1996.632c-2.542,0-5.066-0.786-7.195-2.314
								c-1.314-0.942-32.359-23.538-48.562-62.249c-1.411-3.369-1.257-7.192,0.422-10.435c6.316-12.209,23.506-31.831,47.768-27.979
								c5.952,0.945,11.106,4.231,14.9,9.5c14.068,19.534,7.261,68.591,4.839,83.162c-0.701,4.207-3.521,7.751-7.461,9.38
								C1780.572,1996.325,1778.973,1996.632,1777.379,1996.632z M1747.027,1928.363c6.096,12.473,13.979,22.771,20.947,30.432
								c1.399-19.434,0.366-36.226-3.005-40.886C1756.983,1917.218,1750.606,1923.671,1747.027,1928.363z"/>
						</g>
						<g>
							<path style="fill:#FFFFFF;" d="M1929.103,2030.548c0,0,38.51-104.576,88.877-14.069
								C2017.979,2016.479,1975.974,2033.968,1929.103,2030.548z"/>
							<path style="fill:#2D0000;" d="M1941.534,2043.334c-4.377,0-8.828-0.151-13.33-0.479c-3.865-0.283-7.373-2.363-9.473-5.622
								c-2.1-3.257-2.546-7.312-1.208-10.95c2.117-5.747,21.677-56.248,55.994-58.911c19.898-1.604,38.469,12.962,55.244,43.105
								c1.711,3.074,2.029,6.729,0.876,10.049c-1.155,3.32-3.669,5.991-6.914,7.344
								C2021.063,2028.561,1985.035,2043.334,1941.534,2043.334z M1976.28,1991.945c-0.283,0-0.562,0.01-0.84,0.032
								c-9.924,0.757-20.034,13.916-27.09,26.531c20.591-0.832,39.033-5.178,50.95-8.701
								C1991.056,1998.163,1983.106,1991.945,1976.28,1991.945z"/>
						</g>
					</g>
					<g>
						
							<ellipse transform="matrix(0.3481 -0.9374 0.9374 0.3481 -33.731 2485.1052)" style="fill:#FFFFFF;" cx="1770.056" cy="1266.807" rx="49.398" ry="41.209"/>
					</g>
					<g style="opacity:0.35;">
						
							<ellipse transform="matrix(0.9874 -0.1585 0.1585 0.9874 -187.3225 285.0489)" style="fill:#FFFFFF;" cx="1693.593" cy="1317.035" rx="28.68" ry="34.38"/>
					</g>
					<g>
						
							<ellipse transform="matrix(0.2756 -0.9613 0.9613 0.2756 320.9299 3287.2292)" style="fill:#2D0000;" cx="2341.526" cy="1430.679" rx="136.555" ry="113.916"/>
					</g>
					<g>
						
							<ellipse transform="matrix(0.2756 -0.9613 0.9613 0.2756 363.9437 3311.3235)" style="fill:#FFFFFF;" cx="2379.01" cy="1414.188" rx="56.932" ry="47.493"/>
					</g>
					<g style="opacity:0.35;">
						
							<ellipse transform="matrix(0.9724 -0.2334 0.2334 0.9724 -281.6672 576.4975)" style="fill:#FFFFFF;" cx="2295.561" cy="1478.631" rx="33.054" ry="39.623"/>
					</g>
					<g>
						<path style="fill:#2D0000;" d="M1707.724,1069.192c53.183-68.591,161.113-53.749,180.921,34.761
							c0.629,2.74-2.892,4.799-4.957,2.923c-59.39-53.322-94.84-56.655-172.457-33.119
							C1708.561,1074.881,1705.925,1071.468,1707.724,1069.192L1707.724,1069.192z"/>
					</g>
					<g>
						<path style="fill:#2D0000;" d="M2296.854,1179.87c35.486-29.277,85.866-38.681,130.043-21.967
							c44.165,16.567,73.666,63.918,72.985,109.785c0.071,3.245-4.435,4.696-6.255,2.034
							c-56.126-80.815-98.44-92.159-193.991-83.891C2296.354,1186.476,2294.225,1181.951,2296.854,1179.87L2296.854,1179.87z"/>
					</g>
					<g>
						<path style="fill:#2D0000;" d="M2047.248,868.384c-5.99,21.159-7.706,44.074-8.204,66.153
							c-0.151,7.684,0.053,15.391,0.367,23.126c0.15,3.7-2.728,6.821-6.428,6.97c-3.273,0.133-6.092-2.107-6.803-5.186
							c-3.6-15.542-6.376-31.404-7.848-47.535c-1.337-16.882-2.053-33.13,0.044-50.228
							C2022.218,840.585,2053.088,847.709,2047.248,868.384L2047.248,868.384z"/>
					</g>
					<g>
						<path style="fill:#2D0000;" d="M1927.72,2146.877c-17.703,0-34.785-1.248-51.013-3.994
							c-152.466-25.803-235.462-162.495-285.049-244.165c-8.767-14.436-16.335-26.904-22.778-36.162
							c-3.306-4.756-7.112-10.063-11.297-15.903c-50.664-70.708-156.089-217.837-116.116-397.727
							c22.439-100.972,67.014-147.527,114.209-196.816c21.648-22.61,44.006-45.96,65.969-76.069
							c-0.618-22.361-2.117-110.1,10.776-152.466c9.424-30.972,45.398-58.721,83.484-88.101
							c24.468-18.872,49.724-38.357,66.758-58.042c0.769-4.15,2.268-10.593,5.085-18.181c8.892-23.933,31.489-40.361,57.571-41.853
							c34.856-1.995,91.223-2.046,161.821,9.043c14.143,2.224,26.665,10.725,33.994,22.944c27.478-2.598,106.684-7.756,202.402,6.68
							c155.471,23.445,279.263,88.308,357.993,187.576c175.471,221.248,149.543,412.527,144.58,440.337
							c5.061,25.686,33.569,195.146-61.57,341.17c-64.011,98.247-169.312,162.764-312.974,191.75
							c-22.056,4.453-43.069,11.406-62.456,20.667C2235.692,2072.641,2064.124,2146.867,1927.72,2146.877z M1882.357,845.985
							c-13.513,0-25.349,0.405-35.342,0.977c-14.343,0.82-26.707,9.692-31.504,22.6c-3.35,9.023-4.119,15.723-4.126,15.789
							c-0.315,2.852-1.46,5.628-3.279,7.844c-19.133,23.318-47.083,44.878-74.111,65.727c-32.727,25.247-66.57,51.353-73.242,73.274
							c-13.098,43.039-9.39,146.821-9.351,147.866c0.122,3.269-0.842,6.489-2.744,9.155c-24.136,33.811-48.259,59.006-71.592,83.372
							c-46.169,48.223-86.045,89.868-106.687,182.761c-37.104,166.97,63.115,306.836,111.279,374.053
							c4.273,5.962,8.157,11.384,11.533,16.24c6.968,10.015,14.758,22.847,23.779,37.703
							c46.961,77.344,125.559,206.794,264.678,230.337c132.939,22.498,334.294-64.429,414.697-102.844
							c21.584-10.31,44.922-18.037,69.363-22.971c135.461-27.334,234.331-87.439,293.862-178.645
							c94.309-144.492,57.363-320.21,56.98-321.968c-0.449-2.061-0.459-4.202-0.02-6.262c0.4-1.909,38.484-196.172-138.203-418.95
							c-179.268-226.035-540.022-182.654-543.645-182.188c-6.125,0.806-12.117-2.317-14.995-7.793l-3.447-6.555
							c-2.749-5.227-7.869-8.894-13.696-9.81C1954.874,848.207,1914.029,845.985,1882.357,845.985z"/>
					</g>
				</g>
				<g>
					<g>
						<path style="fill:#FFC98F;" d="M2443.722,988.942c0,0,144.755-166.411,355.174-179.673c0,0-108.021,186.514-163.205,301.552
							L2443.722,988.942z"/>
					</g>
					<g style="opacity:0.5;">
						<path style="fill:#FFFFFF;" d="M2500.578,983.612c0,0,132.498-135.974,294.017-166.884c0,0-142.918,80.687-210.77,215.496
							L2500.578,983.612z"/>
					</g>
					<g>
						<path style="fill:#2D0000;" d="M2551.01,887.444c46.058,10.428,89.755,36.879,116.773,75.922c3,4.363-2.341,9.948-6.808,7.162
							c-9.842-5.863-18.88-12.182-28.374-17.764c-27.293-17.08-56.997-31.172-87.683-40.457
							C2529.81,907.281,2535.349,884.896,2551.01,887.444L2551.01,887.444z"/>
					</g>
					<g>
						<path style="fill:#2D0000;" d="M2634.188,838.322c38.062,8.693,73.557,30.192,95.871,62.333
							c2.556,3.61-2.181,8.309-5.755,5.78c-15.529-9.621-30.196-19.44-46.265-27.715c-15.557-8.091-32.405-14.979-49.027-20.04
							C2616.521,854.495,2621.257,836.058,2634.188,838.322L2634.188,838.322z"/>
					</g>
					<g>
						<path style="fill:#2D0000;" d="M2635.692,1126.864c-3.015,0-6.003-0.852-8.599-2.5l-191.97-121.877
							c-3.948-2.505-6.604-6.607-7.278-11.233c-0.674-4.626,0.703-9.314,3.772-12.842c6.089-7.002,151.624-171.628,366.27-185.156
							c5.888-0.396,11.535,2.539,14.651,7.566c3.113,5.032,3.208,11.367,0.242,16.489c-1.077,1.858-108.342,187.297-162.622,300.447
							c-1.982,4.136-5.64,7.224-10.049,8.486C2638.658,1126.659,2637.171,1126.864,2635.692,1126.864z M2468.829,985.878
							l160.298,101.768c43.074-87.344,110.2-206.472,140.33-259.297C2618.329,849.245,2505.743,949.133,2468.829,985.878z"/>
					</g>
				</g>
				<g>
					<g>
						<path style="fill:#FF5050;" d="M2341.367,1027.884c0,0,104.816-57.898,142.749-49.912s143.747,82.854,151.733,111.803
							c7.986,28.949-23.958,114.798-23.958,114.798S2443.521,1082.122,2341.367,1027.884z"/>
					</g>
					<g style="opacity:0.35;">
						<path style="fill:#FFFFFF;" d="M2378.784,1016.749c0,0,68.446-16.665,133.917,22.617
							c65.47,39.282,107.702,87.492,108.608,101.777c0.906,14.284-2.765,44.2-2.765,44.2s38.172-84.016,4.938-114.436
							s-139.366-92.936-139.366-92.936S2391.283,996.513,2378.784,1016.749z"/>
					</g>
					<g>
						<path style="fill:#2D0000;" d="M2336.894,1019.786c35.62-27.555,112.94-74.284,159.098-58.787
							c46.809,16.783,125.481,72.307,151.382,114.802c1.205,2.368,2.562,5.379,3.332,7.956c1.314,3.502,1.18,7.227,1.847,10.678
							c-0.007,3.895,0.123,9.267-0.431,13.137c-4.232,35.257-17.465,68.106-31.542,100.233c-2.126,4.67-7.636,6.733-12.306,4.607
							c-4.267-1.939-6.354-6.714-5.068-11.072c4.968-18.242,9.458-36.932,13.237-55.274c2.774-15.392,5.931-30.675,5.006-46.045
							c-0.096-7.433-4.462-11.52-12.742-20.25c-6.168-6.111-13.105-12.069-20.284-17.795
							c-31.759-24.453-67.067-49.592-104.299-63.756c-10.505-3.225-19.532-0.155-31.609,2.358
							c-35.322,9.176-71.266,23.999-106.673,35.403C2336.091,1039.458,2328.703,1026.22,2336.894,1019.786L2336.894,1019.786z"/>
					</g>
				</g>
				<g>
					<g>
						<path style="fill:#FFC98F;" d="M2102.786,1083.287c0,0-20.464-100.741,77.364-123.242
							C2180.15,960.044,2232.558,1039.364,2102.786,1083.287z"/>
					</g>
					<g style="opacity:0.7;">
						<path style="fill:#FFFFFF;" d="M2095.029,1042.937c0,0,29.908-20.088,46.425-18.302c16.516,1.786,12.052,31.247,12.052,31.247
							l31.694-48.21c0,0,0-3.571-1.339-8.481c-1.339-4.91-12.052-23.659-41.961-11.606
							C2111.992,999.637,2098.154,1021.957,2095.029,1042.937z"/>
					</g>
					<g>
						<path style="fill:#2D0000;" d="M2102.787,1098.095c-2.564,0-5.112-0.667-7.383-1.973c-3.687-2.119-6.282-5.72-7.129-9.888
							c-8.071-39.736,0.049-120.264,88.557-140.62c5.996-1.379,12.266,1.111,15.672,6.27c0.888,1.34,21.57,33.301,8.706,70.825
							c-11.04,32.202-42.556,57.302-93.677,74.604C2105.987,1097.836,2104.385,1098.095,2102.787,1098.095z M2172.178,977.668
							c-49.59,16.853-56.697,60.183-56.45,84.883c30.947-13.162,50.637-29.963,57.356-49.129
							C2177.994,999.421,2175.252,986.176,2172.178,977.668z"/>
					</g>
				</g>
				<g>
					<g>
						<path style="fill:#FFC98F;" d="M2414.994,809.968c-0.265,4.679-0.574,9.579-1.015,14.7
							c-2.119,24.897-6.798,54.384-16.465,81.444c0,0-73.454-12.537-157.811,20.482c-10.153,3.973-20.261-5.606-16.774-15.936
							c2.958-8.917,7.107-19.555,12.713-30.9c20.129-40.92,59.46-91.552,133.665-108.062
							C2393.541,766.31,2416.319,785.159,2414.994,809.968z"/>
					</g>
					<g style="opacity:0.7;">
						<path style="fill:#FFFFFF;" d="M2414.994,809.968c-0.265,4.679-0.574,9.579-1.015,14.7
							c-50.323-22.071-177.455,58.931-177.455,58.931s-0.353-1.412-0.883-3.84c20.129-40.92,59.46-91.552,133.665-108.062
							C2393.541,766.31,2416.319,785.159,2414.994,809.968z"/>
					</g>
					<g>
						<path style="fill:#2D0000;" d="M2234.903,942.323c-6.914,0-13.65-2.622-18.902-7.612c-7.832-7.444-10.566-18.455-7.134-28.74
							c0,0,0,0,0-0.003c15.325-45.896,56.125-126.25,157.224-148.728c16.233-3.616,32.803,0.452,45.437,11.157
							c12.483,10.576,19.136,26.018,18.252,42.368c-1.421,26.365-5.759,65.171-18.34,100.322
							c-2.419,6.765-9.353,10.803-16.431,9.607c-0.681-0.117-70.723-11.316-149.9,19.683
							C2241.768,941.684,2238.314,942.323,2234.903,942.323z M2236.959,915.346L2236.959,915.346c0-0.003,0.002-0.005,0.002-0.005
							L2236.959,915.346z M2377.65,785.58c-1.699,0-3.418,0.186-5.129,0.566c-83.962,18.669-119.797,84.619-134.148,125.095
							c65.576-24.707,123.86-23.43,148.833-21.26c8.608-28.755,11.841-59.229,13.005-80.813c0.378-7.017-2.473-13.643-7.825-18.176
							C2388.206,787.45,2383.023,785.58,2377.65,785.58z"/>
					</g>
				</g>
				<g>
					<g>
						<path style="fill:#FF5050;" d="M2938.668,1669.786c0,0-114.707,4.787-137.708,98.814c0,0-85.882-14.511-144.766-38.499
							c-0.691-0.247-1.333-0.493-2.024-0.79c-146.395-60.71-109.525-249.157-109.525-249.157s248.861-107.847,512.185-0.198
							c0.148,0.099,0.296,0.148,0.444,0.198C3057.274,1480.153,2924.354,1516.234,2938.668,1669.786z"/>
					</g>
					<g>
						<path style="fill:#BC3131;" d="M2938.668,1669.786c0,0-114.707,4.787-137.708,98.814c0,0-85.882-14.511-144.766-38.499
							c-4.788-33.711-34.896-87.116-34.896-87.116c42.349-15.745,7.453-47.087,7.453-47.087
							c18.904-22.951-18.855-58.884-18.855-58.884s0,0,129.12-30.503c98.518-23.247,251.083-26.357,317.814-26.554
							c0.148,0.099,0.296,0.148,0.444,0.198C3057.274,1480.153,2924.354,1516.234,2938.668,1669.786z"/>
					</g>
					<g>
						<path style="fill:#992020;" d="M2639.801,1600.378c0,0,196.681,70.803,229.416,96.83l42.854-44.422
							C2912.07,1652.785,2699.645,1593.582,2639.801,1600.378z"/>
					</g>
					<g>
						<path style="fill:#992020;" d="M2632.928,1535.751c0,0,260.096-2.381,331.519,7.142l63.09-57.143
							C3027.536,1485.751,2787.677,1485.755,2632.928,1535.751z"/>
					</g>
					<g style="opacity:0.35;">
						<path style="fill:#FFFFFF;" d="M2559.72,1475.042c0,0,219.624-21.648,393.716,13.727l83.028-8.813
							C3036.464,1479.956,2856.123,1383.979,2559.72,1475.042z"/>
					</g>
					<g>
						<path style="fill:#2D0000;" d="M2655.989,1722.013c51.182,1.762,100.526,17.127,148.677,33.376
							c0,0.002-17.004,9.936-17.004,9.936c15.319-68.083,85.1-105.008,150.414-109.223c-0.001-0.001-13.072,14.955-13.072,14.955
							c-1.957-21.225-1.379-42.982,2.651-64.401c7.742-43.18,32.639-83.165,67.743-109.313
							c17.697-13.304,37.025-23.866,58.286-30.426c0,0-1.601,25.897-1.601,25.897c-120.238-46.03-252.261-56.47-378.993-35.264
							c-42.421,6.919-84.679,15.725-127.003,25.876c-1.961,0.57-4.053-0.63-4.518-2.629c-0.378-1.576,0.345-3.161,1.669-3.948
							c38.775-22.361,81.638-35.618,125.165-44.783c87.264-17.597,178.248-20.164,265.975-3.671
							c43.985,8.153,87.069,21.366,128.091,39.066c7.167,2.793,10.663,11.013,7.587,18.09c-2.841,6.794-8.992,7.575-15.236,9.851
							c-15.29,5.748-29.838,13.871-42.838,23.751c-30.052,22.468-50.756,55.808-57.417,92.658
							c-3.461,18.436-4.042,37.583-2.28,56.71c0.695,7.54-4.854,14.216-12.394,14.91c-34.24,2.762-69.897,14.24-95.584,37.511
							c-15.03,13.486-25.126,31.252-30.031,50.898c-1.84,7.099-8.865,11.479-15.966,10.134c-25.2-4.834-49.999-11.464-74.62-18.609
							c-24.47-7.199-48.559-14.736-71.345-26.771C2645.26,1732.934,2648.033,1721.846,2655.989,1722.013L2655.989,1722.013z"/>
					</g>
					<g>
						<path style="fill:#2D0000;" d="M3057.457,1493.089c-71.598,0.418-143.727,3.419-215.154,9.501
							c-71.196,6.409-143.03,14.747-211.724,34.699c-3.11,0.975-6.433-0.786-7.363-3.912c-0.908-3.035,0.772-6.231,3.751-7.234
							c104.066-33.033,213.318-43.519,321.546-52.712c36.142-2.719,72.158-4.957,108.578-6.245
							c7.151-0.253,13.153,5.339,13.406,12.49C3070.777,1487.019,3064.804,1493.156,3057.457,1493.089L3057.457,1493.089z"/>
					</g>
					<g>
						<path style="fill:#2D0000;" d="M2932.957,1683.46c-69.948-30.404-143.887-54.226-218.607-70.37
							c-25.055-5.58-50.416-9.45-75.879-12.886c-2.418-0.259-4.17-2.476-3.837-4.891c0.306-2.269,2.332-3.889,4.583-3.745
							c51.908,3.052,103.56,10.569,154.371,21.722c51.269,11.195,101.11,24.939,150.743,42.827
							c7.692,2.799,11.659,11.303,8.86,18.995C2950.271,1683.269,2940.777,1687.167,2932.957,1683.46L2932.957,1683.46z"/>
					</g>
					<g>
						<path style="fill:#2D0000;" d="M2790.234,1778.782c-43.181-48.292-89.81-95.335-144.034-131.337
							c-5.396-3.449-0.741-11.786,5.066-8.874c44.519,23.294,84.527,54.075,122.852,86.327c12.76,10.86,25.165,21.772,37.585,33.486
							c5.958,5.619,6.233,15.004,0.614,20.963C2806.342,1785.761,2795.875,1785.48,2790.234,1778.782L2790.234,1778.782z"/>
					</g>
				</g>
			</g>
			<g>
				<g>
					<path style="fill:#FF5050;" d="M3153.065,1753.391v0.044c0.574,34.829-46.748,84.887-118.568,116.979
						c0,0-2.781,98.483-110.357,119.98c-0.177,0.044-0.397,0.044-0.574,0.088c-14.346,2.869-30.547,4.326-48.866,4.017
						c0,0-233.296,180.633-289.269,223.496c-21.321,16.333-45.953,37.698-68.245,57.871c-0.044,0.044-0.088,0.044-0.088,0.044
						c-36.153,32.71-66.17,62.286-66.17,62.286c-146.996,78.574-324.363-189.241-324.363-189.241s32.71-119.053,158.915-176.793
						c101.308-46.35,360.648-168.714,360.648-168.714s-0.53-8.784-1.324-20.747c-0.221-3.973-0.53-8.299-0.839-12.802
						c0-0.044,0-0.044,0-0.044c-1.324-19.158-2.913-40.921-4.061-49.44c0,0-4.149-13.287-9.402-29.311
						c0-0.044-0.044-0.133-0.044-0.177c-3.002-9.138-6.313-19.114-9.447-28.031c-6.18-17.525,3.841-36.506,21.718-41.495
						c27.148-7.504,67.45-1.986,102.941,69.525c0,0,53.987-107.93,83.828-174.453c17.701-39.42,73.807-41.494,93.053-2.825
						c3.84,7.725,6.533,16.995,7.504,28.207c6.224,72.306-18.76,126.779-18.76,126.779s47.542-49.043,82.459-91.597
						c22.91-27.898,67.186-24.897,84.71,6.621c6.136,10.992,9.844,24.367,8.696,40.347c-4.37,61.491-66.744,122.144-68.686,124.042
						c2.384-1.015,95.967-40.921,122.276-19.599C3148.915,1735.071,3152.888,1743.635,3153.065,1753.391z"/>
				</g>
				<g>
					<path style="fill:#BC3131;" d="M3153.065,1753.435v0.044c0.265,18.584-13.066,41.539-36.506,63.742
						c-2.737,2.56-5.606,5.165-8.608,7.725c-19.467,16.598-44.452,32.49-73.454,45.468c0,0-2.781,98.483-110.357,119.98
						c-0.177,0.044-0.397,0.044-0.574,0.088c-250.953,34.123-279.16-216.653-279.602-220.582c0-0.044,0-0.044,0-0.044
						c-1.324-19.158-2.913-40.921-4.061-49.44c0,0-4.149-13.287-9.402-29.311c0-0.044-0.044-0.133-0.044-0.177
						c-3.002-9.138-6.313-19.114-9.447-28.031c-6.18-17.525,3.841-36.506,21.718-41.495c27.148-7.504,67.45-1.986,102.941,69.525
						c0,0,53.987-107.93,83.828-174.453c17.701-39.42,73.807-41.494,93.053-2.825c3.84,7.725,6.533,16.995,7.504,28.207
						c6.224,72.306-18.76,126.779-18.76,126.779s47.542-49.043,82.459-91.597c22.91-27.898,67.186-24.897,84.71,6.621
						c6.136,10.992,9.844,24.367,8.696,40.347c-4.37,61.491-66.744,122.144-68.686,124.042
						c2.384-1.015,95.967-40.921,122.276-19.599C3148.959,1735.115,3152.888,1743.635,3153.065,1753.435z"/>
				</g>
				<g style="opacity:0.35;">
					<path style="fill:#FFFFFF;" d="M2169.279,2077.37c0,0,72.017-51.781,151.772-89.278
						c79.755-37.497,334.564-147.711,334.564-147.711l-11.973-36.965l-335.72,158.411
						C2307.921,1961.827,2192.491,2004.757,2169.279,2077.37z"/>
				</g>
				<g>
					<path style="fill:#DD2626;" d="M2923.565,1990.482c-14.346,2.869-30.547,4.326-48.866,4.017
						c0,0-233.296,180.633-289.269,223.496c-21.321,16.333-45.953,37.698-68.245,57.871c-0.044,0.044-0.088,0.044-0.088,0.044
						l-72.836,59.769c0,0-9.535-47.63,59.505-107.135c43.909-37.845,131.634-117.845,189.681-171.073
						c32.447-29.752,40.001-77.919,18.28-116.209c-18.87-33.263-40.061-73.737-52.004-106.738
						c-7.24-19.997-11.83-36.904-14.92-51.824c-7.593-36.595-6.401-61.447-14.302-91.597c5.253,16.024,9.402,29.311,9.402,29.311
						c1.148,8.52,2.737,30.282,4.061,49.44c0,0,0,0,0,0.044C2644.405,1773.829,2672.613,2024.605,2923.565,1990.482z"/>
				</g>
				<g>
					<path style="fill:#992020;" d="M3153.065,1753.479c0.265,18.584-13.066,41.539-36.506,63.742
						c-2.737,2.56-5.606,5.165-8.608,7.725c-19.467,16.598-44.452,32.49-73.454,45.468c0,0-2.781,98.483-110.357,119.98
						c-0.177,0.044-0.397,0.044-0.574,0.088c-250.953,34.123-279.16-216.653-279.602-220.582c0-0.044,0-0.044,0-0.044
						c-1.324-19.158-2.913-40.921-4.061-49.44c0,0-4.149-13.287-9.402-29.311c0-0.044-0.044-0.133-0.044-0.177
						c-11.036-42.377-9.976-70.982,34.608-66.656c0,0-27.722,6.401-18.938,30.812c8.829,24.411,21.453,65.464,21.453,65.464
						s-1.368,191.051,164.565,229.455s173.085-104.442,173.085-104.442S3125.74,1801.462,3153.065,1753.479z"/>
				</g>
				<g style="opacity:0.35;">
					<path style="fill:#FFFFFF;" d="M2772.966,1635.679c-0.764,1.562,63.07-80.733,101.459-83.858
						c38.389-3.125,54.906,39.282,54.906,39.282s2.977-100.482-40.493-102.288
						C2815.055,1485.751,2772.966,1635.679,2772.966,1635.679z"/>
				</g>
				<g style="opacity:0.35;">
					<path style="fill:#FFFFFF;" d="M2959.685,1619.077c0,0,59.519-19.637,82.731,4.764c23.212,24.401,19.641,61.897,19.641,61.897
						s49.952-97.015-4.783-117.252C3002.539,1548.25,2959.685,1619.077,2959.685,1619.077z"/>
				</g>
				<g style="opacity:0.35;">
					<path style="fill:#FFFFFF;" d="M3074.407,1733.055c0,0,49.549,1.747,46.425,64.707
						C3120.832,1797.762,3200.289,1698.683,3074.407,1733.055z"/>
				</g>
				<g>
					<path style="fill:#2D0000;" d="M2110.37,2129.096c15.663-53.813,56.883-95.043,99.863-128.652
						c36.607-29.44,99.774-55.234,142.367-75.678c85.505-39.714,203.418-95.056,287.894-133.327
						c-0.002-0.006-7.574,12.797-7.569,12.769c-0.873-13.694-3.175-48.821-4.251-62.041c-0.557-6.781-1.133-13.821-1.902-20.005
						l0.481,2.166l-9.426-29.418l-9.991-29.837c-11.958-49.869,41.272-70.371,81.347-53.983
						c32.676,13.205,53.648,44.733,68.369,73.948c0,0-23.707-0.035-23.707-0.035c17.362-34.845,34.53-69.882,51.367-104.986
						c10.436-21.81,20.914-44.005,30.862-66.022c2.29-5.1,5.068-10.717,8.486-15.198c21.852-30.88,70.621-35.402,97.35-8.304
						c16.951,16.313,21.629,40.585,22.119,62.993c1.402,41.183-4.928,82.422-20.692,120.645c0,0-21.546-14.74-21.546-14.74
						c23.403-24.376,46.491-49.454,68.504-75.022l8.165-9.648l4.031-4.849c8.209-10.344,19.469-18.353,32.147-22.216
						c45.238-13.975,84.794,21.299,85.896,66.674c0.667,38.749-17.315,72.188-38.304,102.361
						c-10.498,14.57-21.537,27.89-34.632,40.933l-14.404-21.723c13.35-5.597,26.371-10.331,39.946-14.661
						c27.792-7.739,67.281-21.283,94.379-4.283c31.995,23.234,17.141,65.551-3.318,89.703
						c-27.507,34.082-65.173,58.005-104.295,75.806c0,0,7.837-11.718,7.837-11.718c-0.158,3.363-0.416,5.657-0.769,8.359
						c-6.122,48.988-38.338,93.939-84.235,113.087c-27.721,11.97-58.646,16.084-88.267,15.517c0,0,8.333-2.769,8.333-2.769
						c-61.669,49.987-151.618,118.883-214.96,168.426c-30.69,23.801-77.889,58.568-107.093,83.406
						c-34.641,28.777-66.148,61.419-103.633,87.706c-4.029,2.903-9.688,1.964-12.538-2.117
						c-14.232-12.368,84.554-95.895,97.351-107.635c29.822-25.918,76.165-60.429,107.523-85.304
						c63.987-49.683,153.334-117.63,217.134-165.425c2.506-1.871,5.456-2.772,8.362-2.769c26.65,0.452,52.929-2.955,77.181-13.304
						c23.332-10.116,42.951-27.558,54.89-50.126c7.001-12.993,11.705-27.472,13.688-42.126c0.248-2.162,0.534-4.41,0.572-5.968
						c0.265-5.137,3.435-9.445,7.823-11.424c35.528-16.16,69.763-37.757,94.291-68.01c11.417-15.048,25.271-37.203,9.077-51.506
						c-23.522-11.988-83.654,11.531-108.796,21.457c-13.443,5.522-24.522-11.756-14.432-21.699
						c11.115-11.045,22.001-24.063,31.425-37.217c23.507-33.146,51.843-88.116,17.672-121.602
						c-15.961-13.835-42.994-10.174-55.414,7.014c-2.313,2.858-9.987,11.877-12.527,14.889
						c-22.538,26.17-45.712,51.339-69.589,76.212c-10.188,10.612-27.466-1.23-21.694-14.407c3.43-7.856,6.524-17.433,8.907-25.998
						c8.517-31.248,11.634-64.337,8.623-96.531c-1.16-11.408-5.391-23.956-13.281-31.484
						c-17.445-18.009-52.045-11.421-61.651,12.215c-26.787,59.04-55.358,117.188-84.179,175.231
						c-4.443,9.736-19.344,9.55-23.707-0.035c-8.799-17.599-19.359-34.325-32.686-46.811
						c-14.098-13.597-32.917-21.193-52.067-16.534c-11.108,1.506-19.425,13.212-15.839,24.096c0,0,9.761,29.101,9.761,29.101
						l9.542,29.782c2.116,13.512,3.027,30.925,4.095,44.489c0,0,2.73,41.675,2.73,41.675c0.417,5.579-2.761,10.59-7.568,12.782
						c-82.921,40.684-201.974,96.58-286.685,136.256c-39.835,18.824-103.412,43.873-138.09,71.305
						c-30.966,22.418-56.847,50.862-79.748,81.306c-7.759,10.25-15.544,21.048-22.643,31.367c-2.496,3.62-7.454,4.532-11.074,2.036
						C2110.724,2135.713,2109.555,2132.242,2110.37,2129.096L2110.37,2129.096z"/>
				</g>
				<g>
					<path style="fill:#2D0000;" d="M2659.347,1802.381c2,33.565,16.026,65.8,34.293,93.795c3.774,5.942-4.529,12.191-9.181,6.887
						c-24.551-28.083-44.438-61.513-51.517-98.611C2630.387,1785.28,2658.886,1783.011,2659.347,1802.381L2659.347,1802.381z"/>
				</g>
				<g>
					<path style="fill:#2D0000;" d="M2901.788,2006.744c-24.153,5.18-49.291-0.104-71.494-9.795
						c-7.22-3.136-14.027-7.122-20.463-11.517c-2.782-1.901-3.498-5.697-1.597-8.479c1.438-2.107,3.952-3.019,6.303-2.533
						c27.708,5.375,55.567,8.275,83.631,6.295C2914.076,1980.269,2917.103,2002.912,2901.788,2006.744L2901.788,2006.744z"/>
				</g>
				<g>
					<path style="fill:#2D0000;" d="M2783.481,1732.409c29.864,33.026,50.295,88.919,22.388,128.782
						c-1.385,1.926-4.598,0.413-4-1.87c8.084-42.776-9.593-82.887-26.419-121.196
						C2772.869,1733.14,2779.653,1728.328,2783.481,1732.409L2783.481,1732.409z"/>
				</g>
			</g>
			<g>
				<g>
					<path style="fill:#FE4B20;" d="M1714.629,1831.936c0,0-108.324,39.282-201.173,19.046
						c-92.849-20.236-109.514-85.707-329.733-104.753c0,0,79.755,28.569,98.801,77.374c0,0-84.347-19.449-174.39-27.379
						c-81.827-7.206-176.175-16.07-339.851,53.567c0,0,137.488-16.665,170.818,48.21c51.517,100.274-44.639,192.245-437.462,113.681
						c0,0,197.602,409.488,733.269,199.982c0,0-1.19,52.376-51.186,82.731C1183.723,2294.395,1559.881,2246.185,1714.629,1831.936z"
						/>
				</g>
				<g>
					<path style="fill:#FFA034;" d="M1714.629,1831.936c0,0-60.709,48.805-191.65,44.044s-176.175-21.858-176.175-21.858
						l9.523,34.952c0,0-166.652-21.427-316.639-35.711c0,0,47.615,71.422,16.665,147.606
						c-30.95,76.184-247.597,102.323-247.597,102.323s113.085,203.603,490.433,0c0,0,10.713,63.139-23.807,103.612
						C1275.382,2206.903,1609.876,2080.723,1714.629,1831.936z"/>
				</g>
				<g>
					<path style="fill:#FFDD58;" d="M1714.629,1831.936c0,0-48.335,53.567-167.012,74.993
						c-118.677,21.427-154.388,6.316-154.388,6.316l30.95,28.205c0,0-234.343-15.639-301.164-34.521
						c0,0,88.088,104.653-89.278,196.362c0,0,128.589,59.568,310.687-66.611c0,0,7.142,61.899-7.142,96.42
						C1337.281,2133.1,1639.636,1981.923,1714.629,1831.936z"/>
				</g>
				<g>
					<path style="fill:#FCFBCB;" d="M1714.629,1831.936c0,0-50.591,74.101-241.645,115.168l23.212,13.392
						c0,0-133.917,36.604-211.589,36.604c0,0,100.884,12.499,155.344,0c0,0-34.818,54.459-52.674,73.208
						C1387.277,2070.308,1664.336,1932.82,1714.629,1831.936z"/>
				</g>
				<g>
					<path style="fill:#5B0B0B;" d="M1692.247,1842.651c-89.015,25.968-178.288,32.915-261.065-15.877
						c-38.463-21-77.568-38.085-120.081-48.076c-41.928-10.164-85.189-15.331-128.601-18.312l6.017-27.536
						c11.153,4.19,20.977,8.749,31.085,13.971c20.356,10.749,39.658,23.245,55.758,40.374c9.111,10.454,34.401,39.523,12.519,49.63
						c-2.831,1.131-5.78,1.282-8.547,0.625c-41.984-9.258-85.044-16.693-127.896-22.211
						c-146.151-19.494-240.756-10.534-377.588,47.629c0-0.001-7.273-27.185-7.273-27.185c32.336-3.176,63.452-2.908,95.479,2.403
						c57.36,9.594,96.68,37.186,103.643,98.85c4.558,37.204-19.68,71.429-51.136,87.731
						c-69.231,36.251-157.332,32.613-232.828,27.727c-61.703-4.966-122.581-14.821-182.878-26.778l15.585-20.111
						c15.408,29.443,35.758,57.3,57.587,82.528c171.998,198.358,427.861,202.93,657.706,110.393
						c7.245-2.994,15.577,0.554,18.429,7.859c2.23,6.965-0.021,14.061-1.021,20.75c-2.908,14.021-8.181,27.414-15.7,39.637
						c-9.951,16.344-24.177,30.078-40.342,39.869l-10.1-26.094c57.629-13.113,113.877-36.029,166.598-62.953
						c164.438-83.057,286.173-221.091,365.136-386.34c0.509-1.013,1.743-1.424,2.757-0.917c0.922,0.461,1.344,1.526,1.033,2.477
						c-59.153,175.53-194.754,320.692-356.596,408.125c-54.87,29.283-112.637,53.529-173.478,67.503
						c-15.363,3.133-23.552-17.404-10.626-25.761c19.25-11.457,33.759-29.456,40.634-50.677c2.179-6.343,3.802-14.032,4.245-20.563
						c0,0,19.383,13.558,19.383,13.558c-199.058,80.338-433.99,93.787-611.34-44.674c-42.698-32.742-80.323-71.885-111.347-115.829
						c-10.529-15.194-20.011-29.699-28.556-46.538c-3.505-6.946-0.715-15.419,6.232-18.923c3.019-1.518,6.277-1.852,9.354-1.188
						c88.908,17.358,179.036,31.282,269.516,28.929c62.61-2.015,187.868-16.713,159.3-106.277
						c-5.917-18.943-16.857-33.505-36.144-42.235c-38.662-17.576-85.485-17.865-127.313-14.244
						c-15.961,1.673-21.97-20.811-7.067-27.206c81.706-34.845,170.062-59.836,259.646-59.453
						c88.857,1.224,176.508,13.789,263.349,32.493c0,0.001-16.431,19.014-16.431,19.014c-16.232-35.379-56.717-55.282-91.231-69.521
						c-15.08-6.261-9.162-28.871,6.894-27.177c66.465,7.315,134.187,19.499,195.653,47.564
						c40.475,17.592,75.773,45.536,117.202,59.373c62.172,19.834,129.699,12.034,192.506-3.317c1.94-0.509,3.928,0.664,4.418,2.61
						C1695.203,1840.187,1694.094,1842.103,1692.247,1842.651L1692.247,1842.651z"/>
				</g>
			</g>
		</g>
	</g>
</g>
</svg>
