<?xml version="1.0" encoding="utf-8"?>
<!-- Generator: Adobe Illustrator 27.5.0, SVG Export Plug-In . SVG Version: 6.00 Build 0)  -->
<svg version="1.1" id="Layer_1" xmlns="http://www.w3.org/2000/svg" xmlns:xlink="http://www.w3.org/1999/xlink" x="0px" y="0px"
	 viewBox="0 0 4000 4000" style="enable-background:new 0 0 4000 4000;" xml:space="preserve">
<g>
	<g>
		<rect style="fill:#67E9FF;" width="4000" height="4000"/>
	</g>
	<g>
		<g>
			<g>
				<path style="fill-rule:evenodd;clip-rule:evenodd;fill:#FF6F6A;" d="M3181.721,1342.171c0,0,127.284,179.444,154.451,246.676
					c27.166,67.236-25.879,108.114,0,186.939c25.878,78.825,58.445,66.197,55.043,143.954
					c-3.396,77.757-33.249,66.245-55.043,124.178c-21.789,57.933,23.081,149.601,0,237.112
					c-23.077,87.511-61.297,71.025-98.373,121.785c-37.075,50.762,1.293,148.694-37.075,195.5
					c-38.369,46.804-225.866,97.877-225.866,97.877l-410.444-415.162c0,0,167.717-228.864,247.103-295.079
					c79.381-66.212,99.931-32.331,143.249-66.212c43.317-33.881,15.386-101.346,43.317-122.648
					c27.938-21.306,61.177-15.675,88.348-76.679c27.166-61.011-24.668-127.577,0-184.376
					C3111.099,1479.238,3181.721,1342.171,3181.721,1342.171L3181.721,1342.171z"/>
			</g>
			<g>
				<path style="fill:#390176;" d="M2974.862,2720.031c-6.287,0-12.417-2.488-16.956-7.08l-410.444-415.161
					c-8.235-8.328-9.199-21.404-2.278-30.852c6.919-9.441,170.369-231.99,251.062-299.294
					c51.379-42.854,81.958-48.059,106.528-52.241c15.015-2.554,24.077-4.097,37.305-14.443c14.6-11.418,16.97-29.858,18.918-56.682
					c1.707-23.501,3.643-50.137,24.631-66.143c10.471-7.986,21.201-12.822,30.669-17.09c19.529-8.804,34.956-15.757,50.356-50.332
					c10.762-24.167,5.017-51.929-1.062-81.321c-6.609-31.946-14.099-68.152,0.972-102.852
					c24.727-56.931,94.102-189.785,97.043-195.413c3.85-7.371,11.262-12.2,19.561-12.747c8.345-0.522,16.279,3.269,21.064,10.068
					c5.22,7.419,128.171,182.483,156.045,251.467c16.299,40.337,8.574,73.503,1.758,102.769
					c-6.26,26.882-12.173,52.273-1.211,85.664c11.018,33.564,22.395,55.833,32.429,75.481
					c12.773,25.005,23.804,46.599,23.804,75.908c0,33.237-13.945,55.581-28.708,79.236c-9.648,15.457-19.624,31.438-27.861,53.337
					c-7.839,20.84-2.908,52.534,2.314,86.087c7.134,45.854,15.22,97.825-1.985,150.085c-7.393,22.456-28.394,45.054-52.71,71.221
					c-15.977,17.19-34.082,36.675-49.053,57.173c-13.762,18.838-13.613,52.036-13.472,84.14
					c0.181,40.401,0.366,82.173-24.421,112.412c-41.111,50.152-205.5,96.902-238.037,105.764
					C2979.056,2719.758,2976.949,2720.031,2974.862,2720.031z M2595.743,2278.808l386.204,390.642
					c70.632-20.266,177.427-58.298,200.339-86.25c13.904-16.96,13.765-48.54,13.616-81.97
					c-0.176-39.812-0.359-80.979,22.646-112.478c16.633-22.769,35.757-43.35,52.632-61.507
					c18.789-20.217,38.218-41.125,42.349-53.672c13.616-41.36,6.775-85.325,0.159-127.844c-6.213-39.922-12.08-77.632,0.171-110.205
					c9.907-26.338,21.667-45.176,32.041-61.797c12.932-20.72,21.477-34.412,21.477-53.989c0-17.837-6.995-31.531-18.584-54.219
					c-10.291-20.144-23.096-45.215-35.271-82.297c-15.127-46.074-7.051-80.754,0.076-111.353
					c6.211-26.672,11.118-47.739,0.471-74.092c-19.028-47.095-91.201-155.115-128.389-209.443
					c-22.83,44.36-60.984,119.441-77.38,157.2c-9.053,20.842-3.938,45.569,1.985,74.199c7,33.835,14.934,72.185-2.073,110.376
					c-22.795,51.179-51.365,64.058-74.321,74.404c-8.167,3.682-15.22,6.86-21.348,11.536c-3.904,2.976-5.159,20.251-5.989,31.682
					c-2.007,27.637-4.758,65.488-37.1,90.786c-22.72,17.771-41.824,21.023-58.679,23.892c-20.884,3.552-42.478,7.229-83.987,41.851
					C2762.62,2057.781,2635.418,2225.629,2595.743,2278.808z"/>
			</g>
			<g>
				<path style="fill-rule:evenodd;clip-rule:evenodd;fill:#FFB3B0;" d="M2127.486,2670.563c0,0,27.006,238.933,162.422,261.767
					c135.42,22.84,178.293-220.046,178.293-220.046L2127.486,2670.563L2127.486,2670.563z"/>
			</g>
			<g>
				<path style="fill:#390176;" d="M2308.355,2957.763c-7.212,0-14.673-0.62-22.412-1.926
					c-151.382-25.525-180.962-272.112-182.146-282.595c-0.82-7.251,1.726-14.477,6.909-19.614c5.188-5.132,12.444-7.6,19.678-6.729
					l340.715,41.719c6.492,0.796,12.373,4.223,16.265,9.482s5.452,11.885,4.314,18.325
					C2489.854,2726.76,2447.388,2957.763,2308.355,2957.763z M2156.136,2698.091c11.902,61.274,48.03,195.605,137.737,210.73
					c87.751,14.783,131.089-119.28,145.347-176.069L2156.136,2698.091z"/>
			</g>
			<g>
				<path style="fill-rule:evenodd;clip-rule:evenodd;fill:#FFB3B0;" d="M3169.358,2851.858c7.431,36.883,11.395,61.6,11.395,61.6
					c-33.084,0-59.728-25.873-59.728-25.873c-0.826,43.819-32.479,102.777-32.479,102.777
					c-44.645-24.663-65.013-76.904-65.013-76.904c-4.789,38.699-47.342,76.904-47.342,76.904
					c-50.7-45.856-63.086-146.65-63.086-146.65c-193.166,114.832-350.111-84.61-350.111-84.61
					c-165.312,32.919-309.76,32.313-434.721,11.174c-8.588-1.431-17.121-3.027-25.543-4.678
					c-27.855-5.395-54.664-11.891-80.482-19.212c-67.16-18.992-127.548-43.875-181.496-71.949
					c-249.536-129.585-361.341-326.825-361.341-326.825c-240.508,41.837-435.327,196.195-510.193,263.078
					c-5.34,5.065-13.266,6.332-19.872,3.193c-6.661-3.193-10.735-10.074-10.24-17.45c2.478-35.837,5.505-79.931,5.505-79.931
					c-21.083,4.844-52.297,14.698-76.628,22.46c-7.762,2.478-16.294,0.44-22.075-5.285c-5.836-5.725-7.982-14.202-5.615-21.964
					c0.935-3.302,1.872-6.495,2.863-9.578c12.055-39.03,26.479-60.223,26.479-60.223c-18.827,0-45.636,0-67.876-0.165
					c-8.202,0-15.744-4.569-19.487-11.835c-3.798-7.267-3.193-16.075,1.486-22.736c85.601-117.529,225.645-178.358,353.799-209.736
					c13.707-3.358,27.304-6.386,40.626-9.028c139.219-28.35,254.821-23.671,254.821-23.671s305.246-0.33,1069.435-0.33
					c98.592,0,183.037-13.707,255.372-37.543c488.063-160.963,422.941-784.667,422.941-784.667
					c5.835,11.23,11.395,22.516,16.625,33.91c0.165,0.33,0.33,0.661,0.44,1.046c3.743,8.202,7.376,16.46,10.79,24.772
					c198.671,476.943-116.319,1070.536-151.495,1134.227c-2.037,3.688-3.138,5.615-3.138,5.615
					C3109.685,2588.339,3150.641,2758.826,3169.358,2851.858z"/>
			</g>
			<g style="opacity:0.6;">
				<path style="fill-rule:evenodd;clip-rule:evenodd;fill:#FFFFFF;" d="M1230.103,2194.528c0,0-333.414,32.572-447.457,214.167
					c0,0-15.851,54.662,55.375,33.196C838.021,2441.891,914.605,2290.491,1230.103,2194.528z"/>
			</g>
			<g style="opacity:0.6;">
				<path style="fill-rule:evenodd;clip-rule:evenodd;fill:#FFFFFF;" d="M2670.418,2052.588c0,0,229.509,51.062,258.078,458.349
					c0,0,168.086-76.479,252.268,402.507c0,0-87.659-355.365-252.998-369.93C2927.767,2543.515,2795.568,2101.455,2670.418,2052.588
					z"/>
			</g>
			<g style="opacity:0.6;">
				<path style="fill-rule:evenodd;clip-rule:evenodd;fill:#FFFFFF;" d="M2797.833,2194.189l-40.02-67.325
					c488.063-160.963,422.941-784.667,422.941-784.667c5.835,11.23,11.395,22.516,16.625,33.91c0.165,0.33,0.33,0.661,0.44,1.046
					c3.743,8.202,7.376,16.46,10.79,24.772C3219.618,1607.588,3194.13,2047.979,2797.833,2194.189z"/>
			</g>
			<g style="opacity:0.2;">
				<path style="fill-rule:evenodd;clip-rule:evenodd;fill:#390176;" d="M3057.113,2536.153
					c-27.744-22.901-69.362-39.801-128.594-25.212c0,0-6.826-144.724-63.417-247.335c3.468,1.046,132.117,40.185,219.37-69.417
					c85.051-106.85,243.481-522.139,113.346-817.035C3418.289,1858.061,3092.895,2471.361,3057.113,2536.153z"/>
			</g>
			<g style="opacity:0.2;">
				<path style="fill-rule:evenodd;clip-rule:evenodd;fill:#390176;" d="M1811.191,2380.31
					c172.028,117.254,194.983,132.833,197.46,134.484c0,0-102.556,54.443-167.899,159.642
					c-249.536-129.585-361.341-326.825-361.341-326.825c-240.508,41.837-435.327,196.195-510.193,263.078
					c-5.34,5.065-13.266,6.332-19.872,3.193c-6.661-3.193-10.735-10.074-10.24-17.45c2.478-35.837,5.505-79.931,5.505-79.931
					c-21.083,4.844-52.297,14.698-76.628,22.46c-7.762,2.478-16.294,0.44-22.075-5.285c-5.836-5.725-7.982-14.202-5.615-21.964
					c0.935-3.302,1.872-6.495,2.863-9.578c55.984-21.414,137.071-54.553,192.286-86.427
					c85.876-49.544,216.672-132.393,102.116-218.269c-8.202-6.166-17.671-12.331-28.515-18.496c0,0,26.203,3.028,69.141,9.468
					C1320.651,2209.714,1647.366,2268.671,1811.191,2380.31z"/>
			</g>
			<g style="opacity:0.2;">
				<path style="fill-rule:evenodd;clip-rule:evenodd;fill:#390176;" d="M3180.753,2913.458c-33.084,0-59.728-25.873-59.728-25.873
					c-0.826,43.819-32.479,102.777-32.479,102.777c-44.645-24.663-65.013-76.904-65.013-76.904
					c-4.789,38.699-47.342,76.904-47.342,76.904c-50.7-45.856-63.086-146.65-63.086-146.65
					c-193.166,114.832-350.111-84.61-350.111-84.61c-165.312,32.919-309.76,32.313-434.721,11.174
					c16.019-31.488,25.102-115.712,25.102-115.712s177.698-32.259,189.864-132.008c0,0-66.389-34.515-189.864-68.921
					c0,0,243.536-122.209,302.273-110.263c58.737,11.946,235.444,50.37,271.116,224.16
					c35.672,173.734,185.9,220.141,280.749,134.979c0,0,23.726,81.692-29.561,137.843v60.169l34.846-60.169
					c0,0,6.936,49.599,44.589,60.169l27.084-81.362c0,0,50.15,37.488,84.885,32.698
					C3176.789,2888.741,3180.753,2913.458,3180.753,2913.458z"/>
			</g>
			<g>
				<path style="fill:#390176;" d="M3088.524,3014.177c-3.992,0-7.957-1.001-11.514-2.964
					c-21.326-11.763-37.788-28.603-49.832-44.492c-14.565,22.534-32.009,38.623-35.059,41.36c-9.08,8.152-22.854,8.125-31.909-0.059
					c-37.551-33.945-56.179-91.824-64.631-128.311c-78.213,35.451-161.118,30.652-241.614-14.443
					c-48.794-27.332-83.94-62.381-99.993-80.115c-172.617,32.656-336.511,31.499-487.334-3.467
					c-124.202-28.796-239.751-80.425-343.44-153.452c-145.667-102.593-225.667-217.1-251.118-257.481
					c-227.458,44.79-414.014,193.074-484.924,256.023c-12.92,11.882-31.458,14.695-47.331,7.151
					c-15.991-7.598-25.542-23.921-24.326-41.587l0,0l3.04-44.104c-14.956,4.424-31.008,9.517-45.066,14.041
					c-15.867,5.078-33.069,1.016-44.951-10.574c-11.892-11.609-16.37-28.716-11.699-44.651c4.368-16.101,9.329-29.937,14.058-41.316
					c-10.623-0.027-21.379-0.073-31.172-0.156c-16.572,0-31.814-9.239-39.573-24.109c-7.766-14.856-6.638-32.644,2.952-46.406
					c81.287-112.678,223.357-192.183,411.077-230.237c136.816-27.732,249.595-24.304,259.294-23.952
					c14.002-0.015,327.217-0.291,1068.982-0.291c207.937,0,369.944-62.727,481.526-186.438
					c209.399-232.168,173.474-605.767,173.086-609.514c-1.177-11.377,5.894-21.995,16.848-25.288
					c10.959-3.286,22.71,1.655,27.998,11.792c62.837,120.352,95.076,259.863,95.825,414.656
					c0.593,122.947-18.582,255.774-56.997,394.793c-54.644,197.747-131.453,349.106-157.324,397.17
					c73.552,87.158,116.045,341.535,120.906,371.924c1.101,6.895-0.874,13.924-5.403,19.233c-4.529,5.313-11.16,8.372-18.14,8.372
					c-15.808,0-30.134-4.231-42.009-9.658c-9.841,37.651-28.196,72.07-29.236,74.004c-3.018,5.608-8.149,9.775-14.255,11.574
					C3093.055,3013.854,3090.784,3014.177,3088.524,3014.177z M2913.084,2819.844c3.586,0,7.18,0.808,10.5,2.436
					c7.229,3.548,12.18,10.503,13.162,18.496c2.703,21.646,14.69,77.603,40.078,114.087c10.371-12.705,21.199-29.387,23.054-44.353
					c1.343-10.835,9.875-19.373,20.71-20.723c10.825-1.375,21.201,4.829,25.164,15.005c0.117,0.295,11.208,27.737,33.545,49.173
					c8.484-20.154,17.515-46.611,17.886-66.844c0.173-9.5,5.972-17.99,14.758-21.609c8.782-3.616,18.884-1.67,25.696,4.954
					c0.054,0.049,5.149,4.829,13.069,9.597c-18.701-99.36-61.157-277.451-112.039-320.012c-8.867-7.414-11.133-20.129-5.381-30.154
					c0.974-1.702,98.259-172.661,161.777-403.094c49.844-180.815,87.109-431.255,11.667-661.489
					c-5.857,136.838-40.288,357.537-187.161,520.544c-121.011,134.309-295,202.407-517.131,202.407
					c-755.437,0-1066.353,0.288-1069.407,0.291c-0.322,0-0.657-0.008-0.981-0.02c-4.446-0.173-444.729-14.79-626.624,229.404
					c21.587,0.152,46.458,0.152,64.207,0.152c8.84,0,16.956,4.893,21.084,12.71c4.126,7.817,3.589,17.278-1.399,24.578
					c-0.09,0.136-14.209,21.465-25.273,59.846c26.121-8.372,54.712-17.227,75.193-21.973c7.366-1.701,15.095,0.181,20.85,5.083
					c5.752,4.903,8.838,12.241,8.318,19.78l-4.521,65.637c81.409-70.818,277.913-221.555,516.013-262.939
					c9.998-1.729,19.995,3.039,24.924,11.914c0.759,1.362,79.155,139.717,247.639,257.791
					c225.357,157.934,496.502,206.78,805.901,145.212c8.801-1.755,17.839,1.587,23.389,8.64
					c5.884,7.429,146.589,181.423,319.148,78.821C2904.644,2820.966,2908.861,2819.844,2913.084,2819.844z M862.723,2519.953
					c-0.005,0.015-0.01,0.034-0.015,0.049C862.713,2519.985,862.718,2519.97,862.723,2519.953z M799.91,2417.9
					c0.015,0,0.032,0,0.046,0C799.942,2417.9,799.925,2417.9,799.91,2417.9z"/>
			</g>
			<g>
				<path style="fill-rule:evenodd;clip-rule:evenodd;fill:#FFB3B0;" d="M2179.634,2740.164c0,0-4.679,15.359-12.496,35.892
					c-15.689,41.452-43.984,103.823-71.563,101.95c-41.177-2.863-31.268-137.843-31.268-137.843s-64.627,106.245-117.804,86.262
					c-53.232-20.038,0-130.356,0-130.356s-91.326,92.152-125.071,65.399c-50.425-39.965,92.262-267.097,274.144-262.803
					l84.39-37.378l254.271-112.63C2434.235,2348.657,2519.505,2691.392,2179.634,2740.164z"/>
			</g>
			<g style="opacity:0.6;">
				<path style="fill-rule:evenodd;clip-rule:evenodd;fill:#FFFFFF;" d="M2075.185,2497.082
					c-78.821,11.847-200.046,62.278-264.003,251.277c0,0,6.371,25.951,41.759,16.515c0,0,36.154-184.577,226.378-251.251
					C2089.185,2510.165,2085.522,2495.528,2075.185,2497.082z"/>
			</g>
			<g style="opacity:0.2;">
				<path style="fill-rule:evenodd;clip-rule:evenodd;fill:#390176;" d="M2179.634,2740.164c0,0-4.679,15.359-12.496,35.892
					c-20.471,72.275-58.792,104.098-71.563,101.95c11.513-22.632,36.336-128.159,49.388-185.729
					c5.049-22.267,21.739-40.018,43.673-46.362c37.654-10.891,96.402-32.927,129.794-70.878
					c20.307-23.079,11.556-59.472-16.86-71.198c-27.518-11.356-68.359-26.685-121.605-42.551l254.271-112.63
					C2434.235,2348.657,2519.505,2691.392,2179.634,2740.164z"/>
			</g>
			<g>
				<path style="fill-rule:evenodd;clip-rule:evenodd;fill:#390176;" d="M2098.012,2854.436c-0.864-1.326-1.976-3.161-2.603-4.625
					c-4.25-9.925-6.446-23.351-7.801-37.092c-3.402-34.416-0.655-70.902-0.655-70.902c0.771-10.458-5.725-20.082-15.711-23.28
					c-9.991-3.199-20.869,0.86-26.319,9.822c0,0-24.552,40.565-55.083,64.23c-11.532,8.935-23.483,16.917-35.324,12.458
					c-4.679-1.762-6.684-5.77-7.74-10.29c-1.871-8.014-1.195-17.423,0.319-26.881c4.91-30.706,19.972-61.852,19.972-61.852
					c4.855-10.058,1.723-22.154-7.393-28.597c-9.121-6.442-21.569-5.352-29.424,2.581c0,0-25.383,25.635-53.656,45.008
					c-11.093,7.595-22.559,14.351-32.931,17.341c-2.224,0.645-4.348,1.111-6.363,1.199c-0.628,0.03-1.25,0.452-1.707,0.094
					c-2.548-2.01-1.839-5.896-1.652-10.268c0.314-7.266,2.279-15.612,5.461-24.705c11.874-33.97,40.422-76.105,79.1-112.431
					c9.639-9.057,19.906-17.738,30.634-25.99c10.547-8.115,21.475-15.821,32.908-22.862c34.043-20.94,71.756-36.321,113.274-38.291
					c5.764,0.137,10.553-4.432,10.685-10.195c0.137-5.76-4.427-10.548-10.19-10.685c-2.697-0.067-5.388,0.038-8.064-0.046
					c-25.02-0.792-49.302,0.39-72.961,6.099c-17.803,4.301-34.924,10.746-51.334,18.673c-27.551,13.317-52.737,31.114-74.855,50.813
					c-55.6,49.515-90.952,112.017-98.471,154.058c-5.054,28.235,2.306,49.666,17.185,61.501
					c15.937,12.679,40.269,12.491,66.262,0.258c9.309-4.381,18.949-10.211,28.307-16.624c-1.734,11.223-2.411,22.392-1.26,32.517
					c2.763,24.237,14.28,43.456,37.83,52.296c20.809,7.806,43.036,3.578,64.055-8.764c14.004-8.225,27.469-20.281,39.271-32.816
					c1.04,15.138,2.968,30.625,6.342,43.87c7.712,30.21,24.975,48.982,45.9,50.396c9.264,0.621,18.728-1.882,27.937-7.827
					c10.178-6.58,20.594-18.181,30.007-32.83c20.092-31.258,36.998-77.246,44.645-99.749
					c118.916-20.501,186.379-76.48,224.324-140.305c72.643-122.175,34.692-276.377,34.692-276.377
					c-2.935-11.796-14.891-18.986-26.682-16.052c-11.797,2.928-18.986,14.887-16.052,26.682c0,0,34.185,135.803-29.831,243.207
					c-34.037,57.103-96.551,105.182-206.583,120.866c-8.566,1.229-15.645,7.299-18.171,15.579c0,0-11.996,39.182-29.248,74.882
					c-6.974,14.439-14.753,28.34-23.065,38.272c-2.125,2.535-4.255,4.771-6.436,6.554
					C2099.13,2853.709,2098.568,2854.089,2098.012,2854.436L2098.012,2854.436z"/>
			</g>
			<g>
				<path style="fill-rule:evenodd;clip-rule:evenodd;fill:#390176;" d="M2581.964,2746.534c0,0-15.403-16.454-32.897-53.458
					c-7.976-16.885-16.415-37.395-24.133-62.459c-1.068-5.086-6.067-8.352-11.153-7.282c-5.093,1.067-8.356,6.072-7.283,11.158
					c3.996,34.494,10.564,61.886,16.988,83.141c11.356,37.599,23.373,55.49,23.373,55.49c7.339,9.689,21.161,11.598,30.85,4.26
					C2587.398,2770.046,2589.302,2756.222,2581.964,2746.534L2581.964,2746.534z"/>
			</g>
			<g>
				<path style="fill:#390176;" d="M3057.386,2567.358c-4.849,0-9.739-1.475-13.965-4.534
					c-56.372-40.83-108.821-28.833-109.346-28.708c-6.597,1.587-13.569,0.286-19.15-3.579c-5.583-3.867-9.253-9.929-10.088-16.667
					c-34.214-276.165-141.729-473.413-310.92-570.422c-127.744-73.242-247.52-64.692-248.726-64.595
					c-13.108,1.03-24.604-8.723-25.674-21.829c-1.067-13.103,8.652-24.597,21.755-25.691c5.383-0.457,133.645-10.115,273.95,69.377
					c82.166,46.55,151.335,114.126,205.586,200.85c63.816,102.014,106.936,230.876,128.298,383.335
					c27.939-0.669,74.602,4.78,122.283,39.312c10.664,7.725,13.047,22.629,5.325,33.293
					C3072.052,2563.938,3064.769,2567.358,3057.386,2567.358z"/>
			</g>
			<g>
				<path style="fill-rule:evenodd;clip-rule:evenodd;fill:#390176;" d="M2905.855,2504.287c0,0,5.086,28.707,6.49,68.943
					c0.743,21.232,0.666,45.294-1.729,70.171c-0.947,5.109,2.429,10.029,7.542,10.982s10.035-2.427,10.982-7.541
					c7.013-25.186,11.488-49.946,14.604-71.953c6.056-42.819,6.006-74.141,6.006-74.141c-0.974-12.109-11.604-21.155-23.72-20.176
					C2913.92,2481.547,2904.875,2492.17,2905.855,2504.287L2905.855,2504.287z"/>
			</g>
			<g>
				<path style="fill-rule:evenodd;clip-rule:evenodd;fill:#390176;" d="M2921.632,2863.679c0,0,25.873-15.535,51.845-51.586
					c11.676-16.212,23.644-36.151,33.063-61.027c2.295-4.664,0.369-10.316-4.294-12.612c-4.668-2.298-10.316-0.37-12.612,4.298
					c-12.634,20.501-26.65,36.212-39.806,48.625c-26.01,24.535-48.564,33.255-48.564,33.255c-10.773,5.62-14.956,18.931-9.336,29.71
					C2897.548,2865.115,2910.859,2869.299,2921.632,2863.679L2921.632,2863.679z"/>
			</g>
			<g>
				<path style="fill-rule:evenodd;clip-rule:evenodd;fill:#FF6763;" d="M1109.043,1958.911
					c-68.481,23.175-340.753,30.827-481.403-160.908c-76.683-104.593-67.16-243.151-44.149-344.441
					c18.001-78.885,44.149-135.201,44.149-135.201c71.453,216.673,190.469,234.564,277.171,250.583
					c11.34,2.093,21.964,5.065,31.873,8.643c65.508,23.726,98.538,73.985,98.538,73.985L1109.043,1958.911z"/>
			</g>
			<g style="opacity:0.2;">
				<path style="fill-rule:evenodd;clip-rule:evenodd;fill:#390176;" d="M1109.043,1958.911
					c-68.481,23.175-340.753,30.827-481.403-160.908c-76.683-104.593-67.16-243.151-44.149-344.441
					c13.322,134.052,49.725,226.062,132.283,245.078c102.807,23.679,183.643-65.178,220.911-121.052
					c65.508,23.726,98.538,73.985,98.538,73.985L1109.043,1958.911z"/>
			</g>
			<g style="opacity:0.6;">
				<path style="fill-rule:evenodd;clip-rule:evenodd;fill:#FFFFFF;" d="M1109.043,1958.911
					c-11.836,4.018-29.781,7.542-52.076,9.634l-62.536-260.437c0,0-43.764-66.554-130.411-82.573
					c-82.794-15.359-195.039-32.368-267.208-222.507c15.304-51.361,30.827-84.666,30.827-84.666
					c71.453,216.673,190.469,234.564,277.171,250.583c86.702,16.074,130.411,82.629,130.411,82.629L1109.043,1958.911z"/>
			</g>
			<g>
				<path style="fill:#390176;" d="M1009.1,1994.35c-117.561,0-292.898-35.342-400.679-182.268
					c-143.179-195.176-8.211-491.289-2.395-503.799c4.124-8.867,13.254-14.346,23.008-13.748
					c9.766,0.569,18.191,7.046,21.252,16.333c65.635,199.067,169.937,218.279,253.743,233.713l5.11,0.942
					c95.593,17.688,143.994,89.88,146.008,92.947c1.511,2.3,2.615,4.846,3.257,7.522l73.843,307.375
					c2.881,11.995-3.862,24.204-15.547,28.154C1096.788,1988.254,1057.926,1994.35,1009.1,1994.35z M627.686,1384.968
					c-30.449,91.34-72.71,273.65,19.182,398.911c122.463,166.943,349.131,172.632,433.479,157.576l-67.205-279.736
					c-9.273-12.136-47.603-57.268-112.681-69.309l-5.068-0.935C817.598,1577.146,703.817,1556.191,627.686,1384.968z"/>
			</g>
			<g>
				<path style="fill-rule:evenodd;clip-rule:evenodd;fill:#FF6763;" d="M1158.917,1383.539l-65.618,169.386
					c-2.092,0-201.094-0.441-275.63-169.386c-46.021-104.262-5.89-214.581,37.103-290.162c32.369-57.031,66.444-94.3,66.444-94.3
					c-0.825,80.592-22.294,134.1,111.639,226.582c45.415,31.323,74.536,59.563,93.143,83.178
					C1162.385,1354.969,1158.917,1383.539,1158.917,1383.539z"/>
			</g>
			<g style="opacity:0.2;">
				<path style="fill-rule:evenodd;clip-rule:evenodd;fill:#390176;" d="M1158.917,1383.539l-65.618,169.386
					c-2.092,0-201.094-0.441-275.63-169.386c-46.021-104.262-5.89-214.581,37.103-290.162
					c-8.753,74.866-12.111,160.798,10.404,199.332c41.892,71.674,140.815,111.033,260.822,16.129
					C1162.385,1354.969,1158.917,1383.539,1158.917,1383.539z"/>
			</g>
			<g style="opacity:0.6;">
				<path style="fill-rule:evenodd;clip-rule:evenodd;fill:#FFFFFF;" d="M1158.917,1383.539l-65.618,169.386
					c-0.551,0-14.698-0.055-36.608-3.138l47.948-123.915c0,0,7.982-65.397-126.007-157.88
					c-114.667-79.105-115.492-129.751-112.85-193.277c28.681-46.351,55.434-75.638,55.434-75.638
					c-0.825,80.592-22.294,134.1,111.639,226.582C1166.844,1318.086,1158.917,1383.539,1158.917,1383.539z"/>
			</g>
			<g>
				<path style="fill:#390176;" d="M1093.223,1576.76c-10.767,0-217.466-2.493-297.366-183.589
					c-85.999-194.89,99.814-401.499,107.766-410.198c6.67-7.295,17.148-9.714,26.34-6.096c9.194,3.626,15.2,12.546,15.098,22.427
					c-0.107,10.22-0.525,19.858-0.93,29.177c-2.715,62.537-4.507,103.85,102.29,177.544
					c141.76,97.822,137.139,172.239,136.145,180.403c-0.239,1.96-0.723,3.884-1.436,5.728l-65.583,169.373
					c-3.547,9.163-12.351,15.21-22.175,15.232C1093.328,1576.76,1093.277,1576.76,1093.223,1576.76z M895.975,1072.063
					c-45.742,69.351-105.415,190.996-56.494,301.86c56.062,127.068,191.431,150.083,237.857,154.241l57.666-148.926
					c-1.216-11.348-12.507-62.786-115.662-133.97C919.446,1176.34,898.795,1124.533,895.975,1072.063z M1158.9,1383.547h0.049
					H1158.9z"/>
			</g>
			<g>
				<path style="fill-rule:evenodd;clip-rule:evenodd;fill:#FF6763;" d="M1612.355,1155.527l-379.948,179.129
					c-180.23-286.035-73.765-441.602-4.183-504.193c25.267-22.79,45.691-33.25,45.691-33.25
					c-30.057,106.024,66.554,191.681,153.807,222.783c15.469,5.505,31.268,13.322,46.792,22.515
					C1546.461,1084.844,1612.355,1155.527,1612.355,1155.527z"/>
			</g>
			<g style="opacity:0.2;">
				<path style="fill-rule:evenodd;clip-rule:evenodd;fill:#390176;" d="M1612.355,1155.527l-379.948,179.129
					c-180.23-286.035-73.765-441.602-4.183-504.193c-20.809,54.553-51.203,113.078-33.525,159.477
					c22.97,60.286,158.1,148.246,279.814,52.572C1546.461,1084.844,1612.355,1155.527,1612.355,1155.527z"/>
			</g>
			<g style="opacity:0.6;">
				<path style="fill-rule:evenodd;clip-rule:evenodd;fill:#FFFFFF;" d="M1612.355,1155.527l-57.581,27.139
					c-17.836-18.442-103.602-104.317-181.331-132.007c-83.454-29.727-175.386-109.383-156.999-209.021
					c30.387-30.552,57.471-44.425,57.471-44.425c-30.057,106.024,66.554,191.681,153.807,222.783
					C1514.973,1051.099,1612.355,1155.527,1612.355,1155.527z"/>
			</g>
			<g>
				<path style="fill:#390176;" d="M1232.42,1358.488c-7.964,0-15.686-4.001-20.181-11.133
					c-91.443-145.093-122.322-275.271-91.782-386.912c35.003-127.966,138.169-182.212,142.544-184.46
					c8.442-4.333,18.647-3.252,25.996,2.764c7.341,6.011,10.42,15.808,7.834,24.939c-27.041,95.52,70.833,169.592,138.875,193.843
					c91.665,32.671,189.963,137.3,194.104,141.738c5.193,5.569,7.415,13.284,5.979,20.762c-1.438,7.478-6.36,13.818-13.247,17.065
					l-379.968,179.116C1239.302,1357.754,1235.838,1358.488,1232.42,1358.488z M1244.788,847.756
					c-27.688,24.854-62.363,66.106-78.56,126.077c-25.283,93.613,0.049,204.602,75.31,330.151l329.963-155.542
					c-33.049-31.504-95.579-85.959-151.804-106.001C1329.893,1010.434,1250.799,937.016,1244.788,847.756z"/>
			</g>
			<g>
				<path style="fill-rule:evenodd;clip-rule:evenodd;fill:#FF6763;" d="M3103.905,2108.864c0,0-111.419,360.405-754.28,219.59
					l79.766-276.786c0,0,59.948-24.387,152.651-24.442c54.113,0,119.401,8.257,190.469,34.516
					C2965.237,2133.03,3030.635,2155.986,3103.905,2108.864z"/>
			</g>
			<g style="opacity:0.2;">
				<path style="fill-rule:evenodd;clip-rule:evenodd;fill:#390176;" d="M3103.905,2108.864c0,0-111.419,360.405-754.28,219.59
					l79.766-276.786c0,0,59.948-24.387,152.651-24.442c11.283,36.936,22.966,79.125,31.201,118.958
					c11.774,56.948,61.549,98.328,119.683,99.755C2840.841,2248.586,3004.294,2229.654,3103.905,2108.864z"/>
			</g>
			<g style="opacity:0.6;">
				<path style="fill-rule:evenodd;clip-rule:evenodd;fill:#FFFFFF;" d="M3103.905,2108.864c0,0-10.515,33.965-43.654,76.958
					c-61.82,19.927-134.099-5.946-294.126-65.068c-192.726-71.233-343.12-10.073-343.12-10.073l-63.361,219.92
					c-3.303-0.716-6.661-1.431-10.019-2.147l79.766-276.786c0,0,150.339-61.159,343.12,10.074
					C2965.237,2133.03,3030.635,2155.986,3103.905,2108.864z"/>
			</g>
			<g>
				<path style="fill:#390176;" d="M2625.682,2385.273c-85.286,0-179.114-11.16-281.184-33.513
					c-6.44-1.411-12.007-5.423-15.381-11.086c-3.374-5.664-4.253-12.471-2.427-18.804l79.766-276.785
					c2.024-7.021,7.156-12.727,13.923-15.481c6.492-2.642,161.23-63.813,360.371,9.8c194.819,72.012,248.335,89.207,310.283,49.404
					c8.425-5.415,19.338-4.99,27.312,1.074c7.974,6.057,11.311,16.455,8.352,26.023c-1.238,4.009-31.658,99.043-145.579,175.366
					C2887.647,2353.894,2768.677,2385.273,2625.682,2385.273z M2379.608,2310.434c243.042,49.226,440.466,29.698,572.07-56.848
					c49.805-32.754,81.851-69.729,101.602-98.997c-66.714,11.726-146.467-17.754-289.063-70.464
					c-153.674-56.802-279.185-25.464-315.359-13.994L2379.608,2310.434z"/>
			</g>
			<g>
				<path style="fill-rule:evenodd;clip-rule:evenodd;fill:#FF6763;" d="M3103.905,1645.242c0,0-17.506,370.974-613.961,358.698
					l-96.721-325.339c0,0,71.839-40.516,164.376-48.663c41.507-3.633,87.197-0.716,132.448,15.304
					c139.659,49.489,299.246,88.848,400.426,11.285C3095.097,1653.003,3099.556,1649.26,3103.905,1645.242z"/>
			</g>
			<g style="opacity:0.6;">
				<path style="fill-rule:evenodd;clip-rule:evenodd;fill:#FFFFFF;" d="M3103.905,1645.242c0,0-1.707,36.497-22.515,86.206
					c-101.455,68.646-255.812,30.277-391.342-17.781c-115.988-41.121-235.114,4.184-279.098,24.552l-17.726-59.618
					c0,0,150.834-85.105,296.824-33.359C2836.037,1696.987,3003.826,1737.614,3103.905,1645.242z"/>
			</g>
			<g style="opacity:0.2;">
				<path style="fill-rule:evenodd;clip-rule:evenodd;fill:#390176;" d="M3103.905,1645.242c0,0-17.506,370.974-613.961,358.698
					l-96.721-325.339c0,0,71.839-40.516,164.376-48.663c58.425,48.841,101.834,108.001,128.794,150.756
					c22.718,36.027,64.76,55.222,106.758,48.135c198.873-33.559,271.57-122.182,297.321-172.302
					C3095.097,1653.003,3099.556,1649.26,3103.905,1645.242z"/>
			</g>
			<g>
				<path style="fill:#390176;" d="M2518.048,2028.054c-9.387,0-18.921-0.098-28.606-0.298
					c-10.366-0.212-19.407-7.102-22.361-17.041l-96.731-325.305c-3.169-10.659,1.45-22.095,11.138-27.559
					c6.545-3.689,162.078-89.8,316.519-35.061c132.905,47.102,297.307,90.234,389.751,4.949c7.102-6.56,17.468-8.171,26.243-4.084
					c8.765,4.089,14.192,13.069,13.735,22.732c-0.195,4.124-5.73,102.083-89.109,198.413
					C2965.56,1929.211,2816.275,2028.054,2518.048,2028.054z M2507.791,1980.332c227.852,1.877,398.711-55.747,494.783-166.738
					c36.208-41.831,55.574-83.823,65.894-115.54c-110.615,54.036-261.653,13.889-386.389-30.322
					c-106.643-37.803-218.638,4.351-260.298,23.354L2507.791,1980.332z"/>
			</g>
			<g>
				<path style="fill-rule:evenodd;clip-rule:evenodd;fill:#FF6763;" d="M2913.766,1282.085c0,0-0.22,2.587-0.991,7.211
					c-7.707,46.241-68.371,297.98-472.98,259.666l-208.966-255.262c0,0,75.087-31.157,166.413-30.112
					c34.571,0.386,71.509,5.395,107.621,18.497C2636.099,1329.812,2784.731,1355.354,2913.766,1282.085z"/>
			</g>
			<g style="opacity:0.2;">
				<path style="fill-rule:evenodd;clip-rule:evenodd;fill:#390176;" d="M2912.775,1289.296
					c-7.707,46.241-68.371,297.98-472.98,259.666l-208.966-255.262c0,0,75.087-31.157,166.413-30.112
					c72.011,45.116,128.777,109.041,159.097,147.359c16.971,21.448,43.247,33.616,70.549,31.988
					C2793.769,1432.983,2876.157,1346.548,2912.775,1289.296z"/>
			</g>
			<g style="opacity:0.6;">
				<path style="fill-rule:evenodd;clip-rule:evenodd;fill:#FFFFFF;" d="M2913.766,1282.085c0,0-2.147,23.341-14.588,56.315
					c-127.438,68.646-273.208,43.213-402.187-3.688c-88.464-32.148-182.157-15.689-233.848-1.542l-32.314-39.47
					c0,0,142.797-59.288,274.034-11.615C2636.099,1329.812,2784.731,1355.354,2913.766,1282.085z"/>
			</g>
			<g>
				<path style="fill:#390176;" d="M2520.45,1576.787c-26.543,0-54.165-1.355-82.896-4.072c-6.335-0.601-12.17-3.708-16.201-8.635
					l-208.967-255.278c-4.775-5.833-6.511-13.584-4.678-20.896c1.833-7.314,7.017-13.33,13.979-16.221
					c6.184-2.566,152.959-62.285,291.335-11.99c160.779,58.44,288.013,58.987,388.977,1.675c7.727-4.382,17.249-4.111,24.707,0.708
					c7.461,4.819,11.624,13.389,10.801,22.231c-0.435,4.666-11.799,115.2-113.789,199.695
					C2749.249,1545.7,2647.462,1576.787,2520.45,1576.787z M2451.903,1526.125c148.364,12.471,263.193-14.05,341.399-78.84
					c48.845-40.466,73.311-88.005,85.388-122.063c-104.915,41.252-230.488,34.338-381.956-20.713
					c-85.654-31.135-178.459-12.678-225.557,0.84L2451.903,1526.125z"/>
			</g>
			<g>
				<path style="fill-rule:evenodd;clip-rule:evenodd;fill:#FFA29F;" d="M1907.628,1032.344
					c444.255,72.451,726.871,558.179,664.314,999.931c-80.834,570.842-698.967,439.769-1052.706,324.415
					c-353.734-115.361-762.835-382.888-645.944-707.553C990.177,1324.462,1381.37,946.519,1907.628,1032.344L1907.628,1032.344z"/>
			</g>
			<g>
				<path style="fill-rule:evenodd;clip-rule:evenodd;fill:#FFB3B0;" d="M965.057,1505.281
					c165.526-281.228,516.474-546.239,965.948-472.937c358.379,58.446,611.577,385.84,663.091,742.17l-0.137,1.934
					c-9.518,261.068-136.004,470.469-539.585,510.021c-407.582,39.949-1027.151-259.215-1091.559-510.021
					C944.766,1706.165,952.693,1596.711,965.057,1505.281L965.057,1505.281z"/>
			</g>
			<g>
				<g style="opacity:0.2;">
					<path style="fill-rule:evenodd;clip-rule:evenodd;fill:#390176;" d="M1537.385,2309.636
						c353.744,115.327,948.487,246.403,1029.355-324.399c2.832-19.965,4.909-40.018,6.336-60.112
						c-49.963,188.936-195.401,329.682-518.678,361.327c-407.582,39.965-1027.157-259.171-1091.565-510.029
						c-5.086-19.786-8.052-42.752-9.497-67.482c-8.971-51.305-7.338-117.598-1.377-182.104c1.808-3.058,3.728-6.26,5.732-9.569
						c-52.877,87.162-31.29,79.493-63.995,140.484c-19.195,35.795-27.655,72.635-27.187,109.857
						C912.5,1990.08,1251.902,2216.505,1537.385,2309.636z"/>
				</g>
			</g>
			<g style="opacity:0.6;">
				<path style="fill-rule:evenodd;clip-rule:evenodd;fill:#FFFFFF;" d="M2594.097,1774.497l-0.11,1.927
					c-3.028,82.078-17.561,159.091-48.718,227.296c16.405-52.956,24.717-110.043,26.919-169.825l0.11-1.927
					c-51.526-356.331-304.696-683.707-663.064-742.169c-17.34-2.808-34.516-5.12-51.526-6.936c1.541,2.972,2.312,6.055,2.312,9.193
					c0,24.827-48.113,44.919-107.455,44.919c-59.398,0-107.511-20.092-107.511-44.919c0-2.532,0.496-5.065,1.542-7.487
					c-308.329,39.196-549.443,235.94-685.084,448.538c1.101-9.413,2.312-18.716,3.523-27.799
					c165.532-281.245,516.468-546.25,965.998-472.98C2289.401,1090.79,2542.571,1418.165,2594.097,1774.497z"/>
			</g>
			<g>
				<path style="fill-rule:evenodd;clip-rule:evenodd;fill:#390176;" d="M1476.455,1772.229c0,0,122.935,125.606,313.487,78.384
					c0,0-69.043,232.973-230.853,174.814c-138.932-49.94-54.427-226.027-54.427-226.027"/>
			</g>
			<g>
				<path style="fill:#390176;" d="M1609.647,2058.635c-19.06,0.002-38.63-3.589-58.621-10.772
					c-41.079-14.768-69.421-40.579-84.241-76.716c-25.246-61.567-2.307-135.425,9.92-166.843
					c-10.322-8.398-16.221-14.309-17.288-15.4c-9.209-9.409-9.048-24.502,0.364-33.713c9.395-9.204,24.475-9.043,33.684,0.334
					c4.915,4.961,116.621,115.081,290.742,71.948c8.296-2.056,17.065,0.488,22.969,6.667c5.908,6.179,8.054,15.049,5.625,23.247
					c-1.658,5.591-41.66,137.505-134.661,184.607C1656.246,2053.086,1633.343,2058.635,1609.647,2058.635z M1517.149,1832.609
					c-10.005,29.126-22.715,80.459-6.199,120.569c9.631,23.386,28.015,39.68,56.204,49.814
					c32.419,11.653,61.638,10.518,89.333-3.479c47.334-23.911,78.977-79.651,95.881-117.527
					C1648.699,1895.691,1567.542,1862.988,1517.149,1832.609z"/>
			</g>
			<g>
				<path style="fill-rule:evenodd;clip-rule:evenodd;fill:#FB7CA5;" d="M1511.682,1996.372c5.07-32.341,37.995-57.202,77.74-57.202
					c43.522,0,78.857,29.804,78.857,66.516c0,5.434-0.77,10.718-2.455,15.711c-29.693,14.692-65.15,18.975-106.734,4.03
					C1538.82,2018.139,1523.307,2008.17,1511.682,1996.372L1511.682,1996.372z"/>
			</g>
			<g>
				<path style="fill:#390176;" d="M1609.581,2058.628c-19.028,0-38.582-3.587-58.555-10.767
					c-22.683-8.154-41.636-19.846-56.326-34.756c-5.305-5.381-7.744-12.961-6.572-20.427c6.914-44.097,50.461-77.349,101.294-77.349
					c56.628,0,102.698,40.535,102.698,90.356c0,8.191-1.247,16.042-3.706,23.333c-2.024,5.994-6.348,10.94-12.017,13.745
					C1655.03,2053.337,1632.691,2058.628,1609.581,2058.628z M1539.261,1988.676c7.898,5.688,17.234,10.483,27.896,14.316
					c27.8,9.99,53.191,10.569,77.268,1.704c-0.679-23.076-25.093-41.687-55.002-41.687
					C1567.503,1963.01,1547.755,1973.635,1539.261,1988.676z"/>
			</g>
			<g>
				<path style="fill:#390176;" d="M1242.471,1579.974c5.06-19.211,12.797-36.859,22.546-54.028
					c9.814-17.041,21.675-33.374,36.752-47.788c7.495-7.196,15.903-13.905,25.267-19.628c4.6-2.963,9.664-5.435,14.703-7.927
					c5.287-2.144,10.578-4.287,16.255-5.751c11.194-3.087,23.244-4.636,35.127-3.669c11.806,0.909,23.542,3.525,34.011,7.957
					c5.488,1.875,10.226,4.746,15.239,7.266c5.013,2.99,10.333,6.255,14.96,10.337c9.514,7.871,17.288,17.998,22.744,28.711
					c10.928,21.786,12.426,44.446,11.017,64.962c-1.496,20.706-6.536,40.038-13.134,58.411
					c-6.747,18.39-14.797,35.712-25.434,52.245c-2.397,3.726-7.36,4.803-11.086,2.406c-2.947-1.896-4.237-5.397-3.461-8.622
					l0.103-0.414c8.511-35.125,15.261-71.563,13.616-104.684c-0.966-16.379-4.23-31.909-11.18-43.002
					c-3.354-5.636-7.583-10.127-12.507-13.915c-2.39-2.029-5.16-3.456-8.135-5.146c-3.381-1.436-6.653-3.398-10.021-4.424
					c-13.406-5.164-26.595-6.104-40.081-2.988c-6.744,1.471-13.578,4.08-20.355,7.557c-6.736,3.507-13.583,7.565-20.086,12.577
					c-26.425,19.613-50.045,47.644-72.416,76.19l-0.308,0.392c-2.745,3.503-7.811,4.117-11.314,1.372
					C1242.684,1586.326,1241.681,1582.988,1242.471,1579.974z"/>
			</g>
			<g>
				<path style="fill:#390176;" d="M1907.781,1801.635c-0.823-21.09,1.693-41.444,6.475-61.938
					c4.884-20.377,12.31-40.676,24.045-59.76c11.545-18.939,28.298-37.086,50.641-48.441c22.327-11.514,48.777-14.036,71.913-9.866
					l8.822,1.715c2.925,0.731,5.839,1.704,8.747,2.573c1.451,0.46,2.909,0.879,4.348,1.387l4.267,1.768
					c2.814,1.256,5.722,2.246,8.422,3.777c11.133,5.439,21.022,13.243,29.58,21.796c17.214,17.441,27.22,38.881,33.497,59.792
					c6.041,21.091,8.475,42.289,8.433,63.086c-0.076,20.873-1.973,41.143-6.929,61.5c-1.046,4.297-5.377,6.931-9.674,5.885
					c-3.453-0.84-5.833-3.802-6.091-7.164l-0.033-0.463c-2.886-38.247-9.089-77.085-22.871-109.761
					c-3.569-8.077-7.513-15.728-12.157-22.587c-4.487-6.965-9.712-13.027-15.455-18.036c-11.329-10.267-24.958-16.168-40.49-18.486
					c-7.733-1.124-15.59-1.506-22.821-0.48c-7.304,0.884-14.312,2.659-20.961,5.759c-13.21,6.202-25.707,16.602-36.254,30.326
					c-10.723,13.512-19.922,29.501-27.981,46.442c-8.073,16.885-15.226,35.062-21.697,53.11l-0.167,0.466
					c-1.499,4.181-6.104,6.355-10.286,4.856C1909.925,1807.753,1907.908,1804.813,1907.781,1801.635z"/>
			</g>
			<g>
				<path style="fill:#390176;" d="M2073.48,2481.071c-150.523,0-330.339-33.914-538.257-101.716
					c-242.175-78.979-538.381-239.888-643.44-454.641c-45.745-93.501-51.646-188.936-17.546-283.652
					c65.364-181.558,201.113-354.255,372.444-473.811c143.433-100.083,379.26-208.809,688.162-158.438
					c216.799,35.356,408.035,167.539,538.479,372.195c123.914,194.412,176.985,433.008,145.603,654.609
					c-23.85,168.432-95.537,290.984-213.069,364.253C2319.01,2454.011,2207.93,2481.071,2073.48,2481.071z M1777.55,1043.535
					c-461.387,0-767.295,360.479-858.45,613.679c-29.565,82.119-24.348,165.071,15.513,246.548
					c98.523,201.389,382.493,354.307,615.393,430.261c379.609,123.792,659.072,132.329,830.625,25.385
					c105.012-65.464,169.302-176.653,191.082-330.476c64.001-451.926-237.19-906.626-644.546-973.059
					C1875.67,1047.475,1825.726,1043.535,1777.55,1043.535z"/>
			</g>
			<g>
				<path style="fill-rule:evenodd;clip-rule:evenodd;fill:#E1719A;" d="M2115.127,1921.328c49.153,0,89.053,29.409,89.053,65.631
					c0,36.216-39.9,65.629-89.053,65.629c-49.147,0-89.047-29.413-89.047-65.629
					C2026.08,1950.736,2065.98,1921.328,2115.127,1921.328L2115.127,1921.328z"/>
			</g>
			<g>
				<path style="fill-rule:evenodd;clip-rule:evenodd;fill:#E1719A;" d="M1246.593,1674.645
					c39.822,28.801,54.922,76.011,33.695,105.363c-21.222,29.352-70.787,29.797-110.615,0.996
					c-39.828-28.801-54.928-76.018-33.701-105.365C1157.199,1646.287,1206.765,1645.844,1246.593,1674.645L1246.593,1674.645z"/>
			</g>
		</g>
		<g style="opacity:0.2;">
			<ellipse style="fill-rule:evenodd;clip-rule:evenodd;fill:#390176;" cx="2003.562" cy="3313.834" rx="995.962" ry="106.166"/>
		</g>
		<g>
			<g>
				<path style="fill:#FFFFFF;" d="M2528.236,1011.617c-22.609-36.991-33.756-81.395-28.987-127.85
					c11.577-112.755,112.367-194.775,225.122-183.198c112.755,11.577,194.775,112.368,183.198,225.122
					c-11.577,112.755-112.367,194.775-225.122,183.198c-31.363-3.22-60.335-13.36-85.589-28.723l-94.976,21.3L2528.236,1011.617z"/>
			</g>
			<g style="opacity:0.5;">
				<g>
					<path style="fill:#FFFFFF;" d="M2720.34,739.835c-105.329-10.814-200.193,60.055-221.672,161.347
						c-0.026-7.235,0.286-14.535,1.042-21.895c11.577-112.755,112.367-194.775,225.122-183.198
						c112.755,11.577,194.775,112.367,183.198,225.122c-0.759,7.391-1.923,14.642-3.427,21.752
						C2904.206,839.376,2825.703,750.653,2720.34,739.835z"/>
				</g>
			</g>
			<g>
				<path style="fill:#390176;" d="M2703.582,1133.816c-7.798,0-15.647-0.398-23.569-1.211
					c-30.901-3.174-60.129-12.29-87.034-27.136l-85.879,19.26c-8.245,1.858-16.838-0.798-22.612-6.958
					c-5.771-6.16-7.859-14.912-5.481-23.013l23.474-80.037c-22.434-40.813-31.741-86.702-26.948-133.389
					c12.9-125.652,125.613-217.397,251.272-204.48c60.869,6.25,115.662,35.828,154.282,83.288
					c38.621,47.458,56.448,107.117,50.198,167.983C2919.198,1045.854,2819.459,1133.803,2703.582,1133.816z M2596.859,1056.325
					c4.338,0,8.628,1.184,12.39,3.472c23.105,14.058,48.552,22.595,75.632,25.376c99.451,10.215,188.755-62.422,198.972-161.917
					c4.949-48.198-9.167-95.439-39.751-133.02c-30.581-37.581-73.967-61.004-122.166-65.952
					c-99.485-10.247-188.757,62.419-198.972,161.917c-4.087,39.812,4.771,78.882,25.613,112.986
					c3.508,5.737,4.429,12.688,2.534,19.141l-14.963,51.023l55.493-12.446C2593.367,1056.516,2595.115,1056.325,2596.859,1056.325z"
					/>
			</g>
			<g style="opacity:0.2;">
				<path style="fill:#390176;" d="M2527.084,1009.646c56.214,47.548,133.657,68.37,210.561,49.229
					c85.287-21.227,148.127-86.172,170.729-164.994c0.54,10.451,0.298,21.075-0.804,31.809
					c-11.577,112.755-112.368,194.775-225.122,183.198c-31.363-3.22-60.335-13.36-85.589-28.723l-94.977,21.3l26.354-89.85
					C2527.84,1010.968,2527.474,1010.3,2527.084,1009.646z"/>
			</g>
			<g>
				<path style="fill:#FF0068;" d="M2637.784,847.098L2637.784,847.098c17.761-17.761,46.558-14.579,64.319,3.182l2.764,2.764
					l2.764-2.764c17.761-17.761,46.558-20.944,64.319-3.182l0,0c17.761,17.761,17.761,46.558,0,64.319l-2.764,2.764l-55.841,55.841
					c-4.682,4.682-12.274,4.682-16.956,0l-55.841-55.841l-2.764-2.764C2620.022,893.656,2620.022,864.86,2637.784,847.098z"/>
			</g>
		</g>
	</g>
</g>
</svg>
