<?xml version="1.0" encoding="utf-8"?>
<!-- Generator: Adobe Illustrator 27.5.0, SVG Export Plug-In . SVG Version: 6.00 Build 0)  -->
<svg version="1.1" id="Layer_1" xmlns="http://www.w3.org/2000/svg" xmlns:xlink="http://www.w3.org/1999/xlink" x="0px" y="0px"
	 viewBox="0 0 4000 4000" style="enable-background:new 0 0 4000 4000;" xml:space="preserve">
<g>
	<g>
		<rect style="fill:#D9E6ED;" width="4000" height="4000"/>
	</g>
	<g>
		<g>
			<g>
				<g>
					<path style="fill:#C4612B;" d="M987.268,2058.753c59.84,52.252,67.637,106.669,60.666,139.021
						c-5.519,25.612-17.101,49.557-47.936,65.509c-32.503,16.814-94.931,22.952-154.828-7.695
						c-24.435-12.502-54.578-30.6-96.718-27.5c-3.597-8.832,1.933-18.824,12.034-28.771c-18.28-13.167-41.154-26.194-79.829-38.459
						c-0.395-0.125,34.96-105.008,203.503-131.562c-1.282-24.3,13.513-37.31,34.295-38.488
						C926.407,2033.252,947.137,2023.711,987.268,2058.753z"/>
				</g>
				<g>
					<path style="fill:#C4612B;" d="M999.984,2263.274c-32.482,16.814-94.919,22.981-154.798-7.683
						c-24.379-12.44-54.384-30.506-96.328-27.545c-0.146-0.016-0.319,0-0.434,0.011c-0.531-1.343-0.888-2.701-1.016-4.081
						c-0.347-3.738,0.687-7.602,2.755-11.564c2.298-4.301,5.892-8.695,10.328-13.078c-18.301-13.177-41.17-26.222-79.827-38.469
						c-0.011-0.115,0.68-2.354,2.388-6.136c0.26-0.633,0.604-1.303,0.969-2.062c1.188-2.517,2.766-5.504,4.71-8.933
						c0.401-0.675,0.797-1.407,1.25-2.145c0.959-1.539,1.94-3.167,3.055-4.894c0.48-0.769,1.016-1.544,1.553-2.319
						c3.567-5.318,7.926-11.145,13.211-17.318c27.582-32.133,80.4-72.609,176.363-87.771c-1.267-24.297,13.504-37.294,34.299-38.498
						c7.939,42.468,28.656,32.921,68.818,67.965c49.508,43.282,63.396,87.982,62.722,120.433c0.005,0.057,0.005,0.057,0.037,0.083
						c-0.129,6.739-0.886,12.956-2.11,18.521C1042.389,2223.387,1030.837,2247.336,999.984,2263.274z"/>
				</g>
				<g>
					<path style="fill:#666566;" d="M999.984,2263.274c-32.482,16.814-94.919,22.981-154.798-7.683
						c-24.379-12.44-54.384-30.506-96.328-27.545c-0.146-0.016-0.319,0-0.434,0.011c-0.531-1.343-0.888-2.701-1.016-4.081
						c-0.347-3.738,0.687-7.602,2.755-11.564c2.298-4.301,5.892-8.695,10.328-13.078c-18.301-13.177-41.17-26.222-79.827-38.469
						c-0.011-0.115,0.68-2.354,2.388-6.136c0.26-0.633,0.604-1.303,0.969-2.062c1.188-2.517,2.766-5.504,4.71-8.933
						c0.401-0.675,0.797-1.407,1.25-2.145c0.959-1.539,1.94-3.167,3.055-4.894c0.48-0.769,1.016-1.544,1.553-2.319
						c3.567-5.318,7.926-11.145,13.211-17.318c27.582-32.133,80.4-72.609,176.363-87.771c-0.038-0.721-0.07-1.385-0.077-2.081
						c-0.157-8.887,1.952-16.158,5.748-21.816c0.282-0.403,0.538-0.775,0.819-1.178c5.747-7.753,14.82-12.161,25.708-13.258
						c0.69-0.064,1.38-0.128,2.102-0.166c7.939,42.468,28.656,32.921,68.818,67.965c49.508,43.282,63.396,87.982,62.722,120.433
						c0.005,0.057,0.005,0.057,0.037,0.083c-0.129,6.739-0.886,12.956-2.11,18.521c-1.317,6.125-2.989,12.166-5.201,18.025
						C1035.754,2234.383,1023.42,2251.156,999.984,2263.274z"/>
				</g>
				<g style="opacity:0.4;">
					<path style="fill:#FFFFFF;" d="M884.081,2027.2c-0.284,0.693-0.564,1.438-0.791,2.232c0.286-0.039,0.597-0.104,0.883-0.143
						C884.116,2028.584,884.111,2027.878,884.081,2027.2z"/>
				</g>
				<g style="opacity:0.4;">
					<path style="fill:#FFFFFF;" d="M1042.731,2215.816c-3.377-11.72-7.059-21.093-9.001-33.903
						c-4.636-30.915-22.794-72.58-52.232-98.296c-37.266-32.587-59.875-25.619-78.493-64.11c-12.29,0.676-15.586-0.787-18.917,7.698
						c-0.157-8.887,1.952-16.158,5.748-21.816c0.282-0.403,0.538-0.775,0.819-1.178c5.747-7.753,14.82-12.161,25.708-13.258
						c0.664-0.033,1.354-0.096,2.076-0.135l0.026-0.031c7.939,42.468,28.656,32.921,68.818,67.965
						c49.508,43.282,63.396,87.982,62.722,120.433c0.005,0.057,0.005,0.057,0.037,0.083c-0.129,6.739-0.886,12.956-2.11,18.521
						C1046.615,2203.916,1044.942,2209.957,1042.731,2215.816z"/>
				</g>
				<g style="opacity:0.4;">
					<path style="fill:#FFFFFF;" d="M707.826,2117.052c-20.7,24.088-27.224,43.417-27.18,43.808
						c2.334,0.734,4.591,1.498,6.821,2.237c4.191-6.986,10.018-15.43,17.828-24.563c27.616-32.135,80.367-72.623,176.374-87.739
						c-0.464-8.742-0.071-15.848,1.621-21.363C787.864,2044.678,735.317,2085.053,707.826,2117.052z"/>
				</g>
				<g>
					<path style="fill:#515151;" d="M999.984,2263.274c-32.482,16.814-94.919,22.981-154.798-7.683
						c-24.379-12.44-54.384-30.506-96.328-27.545c-0.146-0.016-0.319,0-0.434,0.011c-0.531-1.343-0.888-2.701-1.016-4.081
						c-0.347-3.738,0.655-7.629,2.755-11.564c2.298-4.301,5.892-8.695,10.328-13.078c-18.301-13.177-41.17-26.222-79.827-38.469
						c-0.011-0.115,0.68-2.354,2.388-6.136c0.26-0.633,0.604-1.303,0.969-2.062c1.188-2.517,2.766-5.504,4.71-8.933
						c0.401-0.675,0.797-1.407,1.25-2.145c0.959-1.539,1.94-3.167,3.055-4.894c0.48-0.769,1.016-1.544,1.553-2.319
						c3.567-5.318,7.926-11.145,13.211-17.318c-5.885,18.784,0.523,29.412,19.711,32.765c38.362,6.71,73.143,2.401,107.427,20.038
						c-20.473,19.652,27.072,46.476,42.826,46.969c61.748,1.932,87.909-57.464,118.439-64.537
						c39.504-9.152,53.806,26.952,53.838,26.978c-0.129,6.739-0.886,12.956-2.11,18.521
						C1042.389,2223.387,1030.837,2247.336,999.984,2263.274z"/>
				</g>
				<g>
					<path style="fill:#363D56;" d="M934.279,2292.619c-29.992,0-63.438-6.774-96.055-23.461c-2.16-1.105-4.367-2.256-6.621-3.43
						c-22.445-11.695-47.875-24.938-82.031-22.438c-6.516,0.487-12.742-3.33-15.234-9.453c-2.984-7.322-4.059-17.992,3.883-31.115
						c-14.023-8.674-33-18.084-62.172-27.334c-6.738-2.137-11.125-8.647-10.594-15.698c0.422-5.586,11.887-35.123,43.57-66.219
						c27.492-26.985,77.363-61.649,160.668-77.156c4.008-23.439,21.977-39.258,47.898-40.727
						c7.719-0.471,14.438,4.879,15.848,12.412c3.785,20.199,9.184,23.287,25.219,32.459c10.25,5.865,23.012,13.168,38.637,26.811
						l0,0c77.047,67.277,69.645,134.662,65.543,153.713c-4.891,22.685-15.996,55.226-55.836,75.838
						C988.408,2286.441,962.919,2292.619,934.279,2292.619z M768.56,2212.908c32.398,2.475,57.727,15.674,77.129,25.781
						c2.188,1.14,4.328,2.254,6.426,3.328c53.824,27.539,110.758,23.307,140.879,7.727c22.207-11.488,34.18-27.992,40.039-55.182
						c3.215-14.927,8.695-68.015-55.793-124.326l0,0c-13.34-11.65-24.168-17.846-33.723-23.31
						c-14.953-8.555-28.219-16.145-35.965-37.82c-5.98,3.492-8.668,9.916-8.168,19.389c0.41,7.799-5.137,14.646-12.852,15.861
						c-122.692,19.33-169.82,80.408-185.008,107.492c33.844,12.302,53.883,25.025,67.871,35.101
						c3.645,2.625,5.945,6.725,6.289,11.201c0.344,4.479-1.305,8.881-4.504,12.031
						C770.204,2211.143,769.333,2212.051,768.56,2212.908z"/>
				</g>
				<g>
					<path style="fill:#363D56;" d="M898.674,2024.634c1.424,19.447,2.552,39.731,9.371,58.228
						c-15.759-13.637-27.016-31.549-38.399-48.903C869.646,2033.958,898.674,2024.634,898.674,2024.634L898.674,2024.634z"/>
				</g>
				<g>
					<path style="fill:#363D56;" d="M751.663,2186.887c25.2-10.628,52.527-20.652,80.053-16.647
						c-24.756,5.905-44.994,24.041-62.406,41.508C769.31,2211.748,751.663,2186.887,751.663,2186.887L751.663,2186.887z"/>
				</g>
			</g>
			<g>
				<path style="fill:#FFFFFF;" d="M1318.414,2368.79c-32.869,58.515-126.705,143.604-207.108,74.941
					c-72.545-73.151,44.659-181.029-46.127-262.722c-37.605-31.42-76.163-23.195-83.678,2.703
					c-9.422,32.47,32.079,42.668,31.372,85.271c-2.474,65.548-45.416,146.13,2.768,229.706
					c53.074,96.292,222.679,147.039,348.897,32.527L1318.414,2368.79z"/>
			</g>
			<g>
				<path style="fill:#C2C6D2;" d="M984.273,2208.375c8.863,16.837,29.094,30.749,28.586,60.606
					c-2.46,65.526-45.424,146.109,2.799,229.702c53.057,96.275,222.662,147.042,348.88,32.53l-46.102-162.437
					c-22.139,39.358-71.803,90.761-126.429,99.286c-26.592,4.156-54.372-1.866-80.71-24.344
					c-72.525-73.16,44.66-181.014-46.102-262.699c-37.619-31.427-76.172-23.199-83.679,2.672
					C978.674,2193.446,980.412,2201.165,984.273,2208.375z"/>
			</g>
			<g>
				<path style="fill:#A1ACC6;" d="M1012.858,2268.982c-2.46,65.526-45.424,146.109,2.799,229.702
					c53.057,96.275,222.662,147.042,348.88,32.53l-46.102-162.437c-22.139,39.358-71.803,90.761-126.429,99.286
					c-2.545,14.42-3.138,33.972,4.284,55.39c12.384,35.711-104.715,46.907-157.984-37.831
					c-57.383-91.355,44.193-222.323-35.329-275.677c-6.022-4.029-12.257-4.369-18.703-1.569
					C993.136,2225.213,1013.367,2239.124,1012.858,2268.982z"/>
			</g>
			<g>
				<path style="fill:#363D56;" d="M1200.525,2612.297c-13.824,0-27.754-1.153-41.734-3.481
					c-67.82-11.302-127.789-50.681-156.5-102.769c-36.961-64.106-24.496-125.485-13.496-179.637
					c4.203-20.701,8.176-40.254,8.844-58.002c0.254-15.531-7.109-25.18-15.637-36.351c-9.816-12.858-22.027-28.858-15.141-52.594
					c4.398-15.156,16.055-26.636,31.98-31.496c23.195-7.072,51.649,0.9,76.109,21.344c0.145,0.119,0.285,0.24,0.422,0.365
					c54.152,48.727,43.066,105.699,33.289,155.967c-8.145,41.85-15.18,78.022,13.031,106.91
					c21.129,17.842,44.621,24.617,69.867,20.121c45.402-8.078,91.5-52.07,113.566-91.351l26.578,14.934
					c-24.785,44.119-77.539,96.246-134.805,106.435c-34.344,6.113-67.375-3.351-95.492-27.369c-0.32-0.274-0.629-0.559-0.926-0.857
					c-40.082-40.416-30.344-90.477-21.75-134.645c9.41-48.371,17.539-90.16-23.543-127.293
					c-19.387-16.105-37.215-18.525-47.449-15.4c-4.231,1.291-9.68,4.219-11.598,10.832c-2.391,8.232,0.688,13.277,10.094,25.598
					c9.418,12.338,22.316,29.238,21.879,55.679c-0.774,20.553-4.984,41.289-9.441,63.242
					c-10.41,51.242-21.172,104.229,10.176,158.594c24.457,44.371,76.113,77.865,134.953,87.67
					c68.453,11.412,136.105-9.477,190.492-58.818l20.484,22.582C1324.38,2588.231,1263.685,2612.293,1200.525,2612.297z"/>
			</g>
		</g>
		<g>
			<g>
				<g>
					<path style="fill:#FFFFFF;" d="M2579.479,2208.088c0,130.619-10.784,314.825-26.83,504.037
						c-10.232,120.682-22.561,243.388-35.627,355.458c-26.941,231.537-56.826,417.915-76.958,448.021
						c-45.417,58.961-225.096,124.767-493.474,124.767c-268.341,0-448.021-65.806-493.437-124.767
						c-20.132-30.106-50.017-216.484-76.995-448.021c-13.029-112.07-25.395-234.776-35.627-355.458
						c-16.01-189.212-26.793-373.418-26.793-504.037c0,0,531.346,8.392,632.853,8.392
						C2048.134,2216.48,2579.479,2208.088,2579.479,2208.088z"/>
				</g>
				<g>
					<path style="fill:#FFFFFF;" d="M2579.473,2208.086c0,61.648-2.392,135.22-6.625,215.637
						c-4.711,89.987-11.741,188.513-20.206,288.4c-10.231,120.682-22.561,243.388-35.627,355.457
						c-26.941,231.537-56.826,417.915-76.958,448.021c-45.417,58.961-225.096,124.767-493.474,124.767
						c-268.341,0-448.021-65.806-493.437-124.767c-20.132-30.106-50.017-216.483-76.995-448.021
						c-13.029-112.07-25.395-234.775-35.627-355.457c-8.465-99.887-15.458-198.413-20.169-288.4
						c-4.233-80.417-6.625-153.99-6.625-215.637c0,0,531.346,8.391,632.853,8.391
						C2048.127,2216.477,2579.473,2208.086,2579.473,2208.086z"/>
				</g>
				<g>
					<path style="fill:#EAE9E8;" d="M2542.411,2245.479c-1.693,118.179-10.931,280.671-26.426,463.552
						c-10.121,119.246-22.414,241.769-35.516,354.28c-35.001,300.766-61.279,412.762-70.775,431.348
						c-34.596,41.884-177.213,98.379-399.696,107.616c-20.464,0.846-41.626,1.288-63.414,1.288
						c-258.698,0-425.276-63.156-463.074-108.905c191.319,82.052,523.617,82.209,523.617-138.863c0.037-0.147,0.037-0.331,0-0.515
						c1.509-109.493,4.048-235.88,1.398-372.792c-6.22-322.591,1.656-729.869,76.516-730.826
						c29.075-0.368,91.018-19.985,172.539-51.379C2369.798,2223.985,2483.634,2246.399,2542.411,2245.479z"/>
				</g>
				<g>
					<path style="fill:#EAE9E8;" d="M2542.411,2245.479c-1.693,118.179-10.931,280.671-26.426,463.552
						c-10.121,119.246-22.414,241.769-35.516,354.28c-35.001,300.766-61.279,412.762-70.775,431.348
						c-34.596,41.884-177.213,98.379-399.696,107.616c-20.464,0.846-41.626,1.288-63.414,1.288
						c-258.698,0-425.276-63.156-463.074-108.905c191.319,82.052,523.617,82.209,523.617-138.863c0.037-0.147,0.037-0.331,0-0.515
						c1.509-109.493,4.048-235.88,1.398-372.792c-6.22-322.591,1.656-729.869,76.516-730.826
						c29.075-0.368,91.018-19.985,172.539-51.379C2369.798,2223.985,2483.634,2246.399,2542.411,2245.479z"/>
				</g>
				<g>
					<path style="fill:#EAE9E8;" d="M2201.824,3132.335c109.604-15.274,208.203-41.332,279.198-73.719
						c-0.184,1.583-0.368,3.128-0.552,4.711c-35.001,300.766-61.28,412.762-70.775,431.348
						c-34.597,41.884-177.214,98.378-399.697,107.616c-20.464,0.847-41.626,1.288-63.414,1.288
						c-258.699,0-425.276-63.157-463.074-108.905c191.31,82.037,523.617,82.184,523.617-138.863c0.037-0.147,0.037-0.332,0-0.515
						c0.368-27.346,0.81-55.759,1.215-85.092c72.763-16.268,136.213-61.096,176.403-126.681l5.889-9.643L2201.824,3132.335z"/>
				</g>
				<g>
					<path style="fill:#EAE9E8;" d="M2510.098,2775.847c-8.281,91.496-17.666,183.434-27.603,269.924
						c-70.628,33.271-170.515,60.065-282.18,75.633l-16.378,2.282l-8.613,14.06c-38.129,62.199-98.047,105.003-166.834,121.086
						c1.177-85.092,1.95-177.986,0.037-276.328c-1.546-79.24-2.209-163.596-1.252-245.78
						c63.451,14.759,120.24,52.409,158.554,106.77l12.182,17.298l20.979-2.797
						C2320.813,2841.874,2430.675,2812.835,2510.098,2775.847z"/>
				</g>
				<g>
					<path style="fill:#EAE9E8;" d="M2542.413,2245.495c-1.693,118.179-10.931,280.67-26.426,463.552
						c-1.509,17.96-3.092,35.995-4.711,54.029c-78.798,37.835-189.91,67.61-313.721,83.988l-14.353,1.914l-8.355-11.851
						c-40.337-57.268-100.403-96.722-167.423-111.665c3.349-247.989,21.972-473.084,77.62-473.784
						c29.076-0.368,91.017-19.985,172.539-51.379C2369.8,2224.001,2483.636,2246.415,2542.413,2245.495z"/>
				</g>
				<g>
					<path style="fill:#C69073;" d="M2513.74,2735.125c-9.68,110.966-21.126,223.882-33.271,328.185
						c-0.883,7.729-1.803,15.347-2.687,22.856c-24.144,10.342-51.453,20.206-81.706,29.333c-3.165,0.957-6.367,1.914-9.606,2.834
						c-2.576,0.736-5.189,1.509-7.839,2.245c-9.569,2.687-19.433,5.337-29.591,7.876c-2.466,0.626-4.969,1.251-7.471,1.84
						c-5.705,1.399-11.52,2.76-17.408,4.122c-3.313,0.773-6.625,1.509-10.011,2.245c-3.054,0.663-6.183,1.325-9.274,1.988
						c-2.024,0.442-4.049,0.883-6.11,1.288c-2.76,0.589-5.557,1.141-8.354,1.693c-11.005,2.208-22.303,4.343-33.823,6.331
						c-2.981,0.515-5.962,1.031-8.98,1.546c-3.717,0.626-7.435,1.251-11.226,1.84c-3.386,0.552-6.809,1.067-10.231,1.619
						c0,0-0.037,0-0.074,0c-3.423,0.515-6.882,1.03-10.379,1.546c-3.496,0.515-6.993,1.031-10.526,1.509
						c-1.435,2.355-2.907,4.674-4.417,6.956c-0.589,0.92-1.178,1.804-1.803,2.687c-1.251,1.95-2.576,3.901-3.975,5.852
						c-0.221,0.368-0.515,0.773-0.81,1.141c-1.288,1.877-2.613,3.717-4.012,5.558c-0.479,0.662-0.957,1.325-1.472,1.988
						c-1.767,2.355-3.57,4.711-5.447,6.993c-1.73,2.172-3.496,4.306-5.337,6.441c-0.957,1.178-1.951,2.355-2.981,3.496
						c-0.847,0.994-1.73,1.987-2.65,2.981c-1.215,1.362-2.429,2.723-3.717,4.048c-0.442,0.552-0.957,1.068-1.509,1.619
						c-1.178,1.288-2.429,2.576-3.68,3.865c-2.024,2.098-4.122,4.159-6.22,6.22c-2.098,2.024-4.233,4.012-6.404,5.963
						c-1.803,1.656-3.607,3.275-5.447,4.858c-1.693,1.509-3.423,2.981-5.189,4.38c-0.111,0.147-0.221,0.258-0.368,0.331
						c-1.509,1.288-3.092,2.54-4.637,3.791c-1.914,1.509-3.865,3.018-5.815,4.49c-2.723,2.061-5.447,4.049-8.207,5.999
						c-2.429,1.73-4.895,3.386-7.398,5.042c-0.552,0.405-1.141,0.773-1.693,1.104c-1.84,1.215-3.68,2.429-5.558,3.533
						c-0.773,0.515-1.509,0.993-2.282,1.398c-1.84,1.141-3.644,2.245-5.521,3.275c-1.104,0.699-2.245,1.362-3.349,1.988
						c-2.135,1.177-4.27,2.355-6.404,3.496c-1.619,0.883-3.275,1.73-4.932,2.54c-1.288,0.699-2.613,1.362-3.938,1.987
						c-4.343,2.135-8.686,4.159-13.102,6.073c-1.951,0.846-3.938,1.656-5.926,2.466c-1.362,0.552-2.687,1.104-4.048,1.62
						c-2.245,0.883-4.527,1.729-6.809,2.576c-0.662,0.258-1.362,0.479-2.024,0.736c-1.251,0.442-2.503,0.884-3.791,1.288
						c-1.509,0.552-3.055,1.031-4.601,1.546c-0.994,0.331-2.024,0.625-3.018,0.957c-1.251,0.405-2.539,0.773-3.828,1.141
						c-2.724,0.847-5.447,1.583-8.17,2.319c-1.251,0.331-2.503,0.662-3.754,0.957c-1.582,0.405-3.165,0.81-4.784,1.178
						c-0.773,0.184-1.583,0.368-2.355,0.552c-1.656,0.368-3.313,0.736-5.005,1.104c-0.258,0.037-0.515,0.074-0.773,0.147
						c1.362-94.624,2.687-199.885,0.515-312.212c-1.766-90.797-2.392-188.292-0.736-281.554
						c76.811,15.752,142.985,60.543,186.636,122.412C2334.098,2804.833,2442.855,2771.82,2513.74,2735.125z"/>
				</g>
				<g>
					<path style="fill:#EAE9E8;" d="M2579.473,2208.086c0,61.648-2.392,135.22-6.625,215.637
						c-116.008,58.777-335.877,106.991-626.228,106.991c-290.387,0-510.257-48.214-626.265-106.991
						c-4.233-80.417-6.625-153.99-6.625-215.637c0,0,531.346,8.391,632.853,8.391
						C2048.127,2216.477,2579.473,2208.086,2579.473,2208.086z"/>
				</g>
				<g>
					<g>
						<circle style="fill:#E5AD88;" cx="1946.605" cy="2997.833" r="303.075"/>
					</g>
				</g>
				<g>
					<path style="fill:#AF815F;" d="M2552.649,2712.125c-10.232,120.682-22.561,243.388-35.627,355.458
						c-69.009,36.436-175.153,69.413-311.844,88.441c-53.293,86.932-149.168,144.899-258.588,144.899
						c-109.42,0-205.259-57.967-258.515-144.899c-136.728-19.028-242.909-52.042-311.918-88.441
						c-13.029-112.07-25.395-234.776-35.627-355.458c66.395,45.49,189.764,88.919,358.255,111.223
						c54.839-77.804,145.378-128.595,247.804-128.595s192.966,50.79,247.841,128.595
						C2362.848,2801.045,2486.254,2757.615,2552.649,2712.125z"/>
				</g>
				<g>
					<path style="fill:#C69073;" d="M2513.74,2735.125c-9.68,110.966-21.126,223.882-33.271,328.185
						c-0.883,7.729-1.803,15.347-2.687,22.856c-24.144,10.342-51.453,20.206-81.706,29.333c-3.165,0.957-6.367,1.914-9.606,2.834
						c-2.576,0.736-5.189,1.509-7.839,2.245c-9.569,2.687-19.433,5.337-29.591,7.876c-2.466,0.626-4.969,1.251-7.471,1.84
						c-5.705,1.399-11.52,2.76-17.408,4.122c-3.313,0.773-6.625,1.509-10.011,2.245c-3.054,0.663-6.183,1.325-9.274,1.988
						c-2.024,0.442-4.049,0.883-6.11,1.288c-2.76,0.589-5.557,1.141-8.354,1.693c-11.005,2.208-22.303,4.343-33.823,6.331
						c-2.981,0.515-5.962,1.031-8.98,1.546c-3.717,0.626-7.435,1.251-11.226,1.84c-3.386,0.552-6.809,1.067-10.231,1.619
						c0,0-0.037,0-0.074,0c-3.423,0.515-6.882,1.03-10.379,1.546c-3.496,0.515-6.993,1.031-10.526,1.509
						c-1.435,2.355-2.907,4.674-4.417,6.956c-0.589,0.92-1.178,1.804-1.803,2.687c-1.251,1.95-2.576,3.901-3.975,5.852
						c-0.221,0.368-0.515,0.773-0.81,1.141c-1.288,1.877-2.613,3.717-4.012,5.558c-0.479,0.662-0.957,1.325-1.472,1.988
						c-1.767,2.355-3.57,4.711-5.447,6.993c-1.73,2.172-3.496,4.306-5.337,6.441c-0.957,1.178-1.951,2.355-2.981,3.496
						c-0.847,0.994-1.73,1.987-2.65,2.981c-1.215,1.362-2.429,2.723-3.717,4.048c-0.442,0.552-0.957,1.068-1.509,1.619
						c-1.178,1.288-2.429,2.576-3.68,3.865c-2.024,2.098-4.122,4.159-6.22,6.22c-2.098,2.024-4.233,4.012-6.404,5.963
						c-1.803,1.656-3.607,3.275-5.447,4.858c-1.693,1.509-3.423,2.981-5.189,4.38c-0.111,0.147-0.221,0.258-0.368,0.331
						c-1.509,1.288-3.092,2.54-4.637,3.791c-1.914,1.509-3.865,3.018-5.815,4.49c-2.723,2.061-5.447,4.049-8.207,5.999
						c-2.429,1.73-4.895,3.386-7.398,5.042c-0.552,0.405-1.141,0.773-1.693,1.104c-1.84,1.215-3.68,2.429-5.558,3.533
						c-0.773,0.515-1.509,0.993-2.282,1.398c-1.84,1.141-3.644,2.245-5.521,3.275c-1.104,0.699-2.245,1.362-3.349,1.988
						c-2.135,1.177-4.27,2.355-6.404,3.496c-1.619,0.883-3.275,1.73-4.932,2.54c-1.288,0.699-2.613,1.362-3.938,1.987
						c-4.343,2.135-8.686,4.159-13.102,6.073c-1.951,0.846-3.938,1.656-5.926,2.466c-1.362,0.552-2.687,1.104-4.048,1.62
						c-2.245,0.883-4.527,1.729-6.809,2.576c-0.662,0.258-1.362,0.479-2.024,0.736c-1.251,0.442-2.503,0.884-3.791,1.288
						c-1.509,0.552-3.055,1.031-4.601,1.546c-0.994,0.331-2.024,0.625-3.018,0.957c-1.251,0.405-2.539,0.773-3.828,1.141
						c-2.724,0.847-5.447,1.583-8.17,2.319c-1.251,0.331-2.503,0.662-3.754,0.957c-1.582,0.405-3.165,0.81-4.784,1.178
						c-0.773,0.184-1.583,0.368-2.355,0.552c-1.656,0.368-3.313,0.736-5.005,1.104c-0.258,0.037-0.515,0.074-0.773,0.147
						c1.362-94.624,2.687-199.885,0.515-312.212c-1.766-90.797-2.392-188.292-0.736-281.554
						c76.811,15.752,142.985,60.543,186.636,122.412C2334.098,2804.833,2442.855,2771.82,2513.74,2735.125z"/>
				</g>
				<g>
					<path style="fill:#E5AD88;" d="M2552.642,2712.123c-10.231,120.682-22.561,243.388-35.627,355.457
						c-11.961,6.331-25.064,12.551-39.233,18.586c-67.5,28.855-159.621,54.139-272.611,69.855
						c-43.061,70.223-113.873,121.528-197.161,138.679c1.362-94.624,2.687-199.885,0.515-312.212
						c-1.766-90.797-2.392-188.292-0.736-281.554c76.811,15.752,142.985,60.543,186.636,122.412
						c139.673-18.513,248.43-51.526,319.315-88.22C2528.351,2727.581,2541.307,2719.889,2552.642,2712.123z"/>
				</g>
				<g>
					<path style="fill:#966E53;" d="M2552.642,2712.123c-10.231,120.682-22.561,243.388-35.627,355.457
						c-11.961,6.331-25.064,12.551-39.233,18.586c-67.5,28.855-159.621,54.139-272.611,69.855
						c-43.061,70.223-113.873,121.528-197.161,138.679c1.362-94.624,2.687-199.885,0.515-312.212
						c-1.766-90.797-2.392-188.292-0.736-281.554c76.811,15.752,142.985,60.543,186.636,122.412
						c139.673-18.513,248.43-51.526,319.315-88.22C2528.351,2727.581,2541.307,2719.889,2552.642,2712.123z"/>
				</g>
				<g>
					<path style="fill:#966E53;" d="M2552.642,2712.138c-10.232,120.682-22.561,243.388-35.626,355.458
						c-11.961,6.33-25.064,12.55-39.234,18.586c-67.499,28.854-159.621,54.139-272.61,69.855
						c-43.062,70.223-113.873,121.528-197.162,138.679c0.479-33.161,0.957-67.646,1.252-103.273
						c11.446-7.729,21.346-17.776,29.627-30.069c19.359-28.744,23.739-60.138,14.722-93.52
						c-2.907-10.747-8.502-20.353-12.661-30.584c-7.214-17.777-9.385-36.216-6.551-55.28c1.988-13.323,7.177-25.395,12.808-37.43
						c10.931-23.334,14.243-47.846,7.95-72.799c-7.803-30.99-23.997-53.992-48.288-69.009c0.037-34.154,0.332-68.235,0.92-101.801
						c76.811,15.752,142.986,60.543,186.636,122.411c139.673-18.512,248.43-51.526,319.315-88.22
						C2528.351,2727.596,2541.307,2719.904,2552.642,2712.138z"/>
				</g>
				<g>
					<path style="fill:#FFF2EB;" d="M1715.259,2861.012l-21.098-2.814c-127.48-16.883-241.816-47.895-321.934-87.323l-0.504-0.279
						c-10.098-6.305-19.883-10.637-29.09-12.875l2.703-11.109c10.316,2.51,21.145,7.264,32.195,14.131
						c79.02,38.832,191.988,69.416,318.133,86.121l14.234,1.898l8.277-11.742c52.289-74.226,137.672-118.541,228.406-118.541v11.434
						c-87.019,0-168.91,42.502-219.063,113.694L1715.259,2861.012z"/>
				</g>
				<g>
					<path style="fill:#FFF2EB;" d="M1946.583,3277.194c-97.957,0-187.039-49.934-238.289-133.57l-5.84-9.547l-11.121-1.541
						c-115.305-16.063-218.387-44.088-290.254-78.912c-11.016-4.746-21.871-10.414-32.035-16.744l6.047-9.703
						c9.68,6.027,20.024,11.43,30.746,16.053c71.051,34.424,172.918,62.08,287.07,77.982l16.477,2.283l8.66,14.16
						c49.156,80.215,134.59,128.106,228.539,128.106V3277.194z"/>
				</g>
				<g>
					<path style="fill:#FFE3D4;" d="M2177.931,2861.012l-12.262-17.406c-50.152-71.191-132.043-113.694-219.062-113.694v-11.434
						c90.734,0,176.117,44.315,228.406,118.541l8.277,11.742l14.234-1.896c126.148-16.707,239.113-47.291,318.137-86.123
						c11.051-6.869,21.883-11.621,32.195-14.131l2.703,11.109c-9.203,2.238-18.992,6.57-29.094,12.875l-0.504,0.279
						c-80.117,39.428-194.449,70.44-321.934,87.324L2177.931,2861.012z"/>
				</g>
				<g>
					<path style="fill:#FFE3D4;" d="M1946.607,3277.194v-11.434c93.953,0,179.387-47.891,228.539-128.11l8.664-14.156l16.48-2.283
						c114.145-15.902,216.012-43.558,286.84-77.877c10.938-4.724,21.281-10.125,30.977-16.16l6.039,9.707
						c-10.176,6.334-21.027,12.002-32.258,16.847c-71.645,34.719-174.726,62.744-290.023,78.807l-11.125,1.541l-5.844,9.545
						C2133.65,3227.26,2044.568,3277.194,1946.607,3277.194z"/>
				</g>
				<g>
					<g>
						<path style="fill:#FFE3D4;" d="M2178.029,2860.804l-12.199-17.31c-50.186-71.244-132.14-113.777-219.22-113.777v-11.042
							c90.667,0,175.993,44.284,228.249,118.457l8.339,11.839l14.352-1.912c126.174-16.709,239.164-47.299,318.208-86.142
							c11.038-6.865,21.853-11.613,32.146-14.115l2.609,10.725c-9.223,2.246-19.028,6.584-29.149,12.903l-0.485,0.27
							c-80.104,39.421-194.417,70.425-321.874,87.303L2178.029,2860.804z"/>
					</g>
				</g>
				<g>
					<g>
						<path style="fill:#FFE3D4;" d="M1946.61,3276.996v-11.041c94.017,0,179.515-47.925,228.705-128.205l8.612-14.071l16.389-2.275
							c114.162-15.901,216.054-43.565,286.899-77.893c10.941-4.727,21.296-10.132,30.993-16.17l5.837,9.374
							c-10.164,6.329-21.011,11.994-32.236,16.832c-71.636,34.72-174.695,62.736-289.972,78.792l-11.218,1.56l-5.887,9.622
							C2133.514,3227.098,2044.497,3276.996,1946.61,3276.996z"/>
					</g>
				</g>
				<g>
					<g>
						<path style="fill:#E2CBC0;" d="M2511.276,2763.076c-0.367,4.269-0.773,8.539-1.177,12.771
							c-79.424,36.989-189.285,66.027-311.108,82.147l-20.979,2.797l-12.182-17.298c-38.314-54.36-95.103-92.011-158.554-106.77
							c0.037-3.754,0.074-7.508,0.147-11.262c67.021,14.943,127.086,54.397,167.423,111.665l8.355,11.851l14.353-1.914
							C2321.365,2830.686,2432.478,2800.911,2511.276,2763.076z"/>
					</g>
					<g>
						<path style="fill:#FFF2EB;" d="M1946.622,2718.689c20.647,0,41.037,2.319,60.801,6.772c-0.074,3.754-0.111,7.508-0.147,11.262
							c-19.69-4.601-40.043-6.993-60.654-6.993V2718.689z"/>
					</g>
					<g>
						<path style="fill:#FFE3D4;" d="M2550.51,2757.518c-9.237,2.245-19.028,6.588-29.149,12.918l-0.478,0.258
							c-3.533,1.73-7.14,3.459-10.784,5.153c0.405-4.232,0.81-8.502,1.177-12.771c1.509-0.699,3.018-1.436,4.49-2.172
							c11.041-6.845,21.826-11.594,32.131-14.096L2550.51,2757.518z"/>
					</g>
				</g>
				<g>
					<g>
						<path style="fill:#E2CBC0;" d="M2482.495,3045.771c-0.479,4.306-0.994,8.538-1.472,12.808v0.037
							c-70.996,32.388-169.595,58.446-279.198,73.719l-11.188,1.546l-5.889,9.643c-40.19,65.585-103.641,110.413-176.403,126.681
							c0.074-3.791,0.11-7.582,0.147-11.373c68.787-16.083,128.705-58.887,166.834-121.086l8.613-14.06l16.378-2.282
							C2311.98,3105.836,2411.867,3079.042,2482.495,3045.771z"/>
					</g>
					<g>
						<path style="fill:#FFF2EB;" d="M1946.622,3265.972c21.162,0,41.884-2.429,61.869-7.14c-0.037,3.791-0.074,7.582-0.147,11.373
							c-19.985,4.49-40.632,6.809-61.721,6.809V3265.972z"/>
					</g>
					<g>
						<path style="fill:#FFF2EB;" d="M2524.047,3036.717c-10.158,6.33-21.015,11.998-32.24,16.82
							c-3.533,1.693-7.104,3.386-10.784,5.042c0.479-4.27,0.994-8.502,1.472-12.808c1.583-0.736,3.165-1.509,4.711-2.245
							c10.931-4.748,21.31-10.158,30.99-16.194L2524.047,3036.717z"/>
					</g>
				</g>
				<g>
					<path style="fill:#363D56;" d="M1946.607,3655.604c-278.164,0-457.047-67.75-505.539-130.703l-0.594-0.824
						c-49.094-73.395-141.973-934.323-141.973-1315.99V2192.6l15.484,0.244c5.313,0.084,532.383,8.379,632.621,8.379
						c100.234,0,627.308-8.295,632.617-8.379l15.484-0.244v15.486c0,381.668-92.879,1242.596-141.973,1315.99l-0.594,0.824
						C2403.65,3587.854,2224.767,3655.604,1946.607,3655.604z M1465.564,3506.736c44.953,57.473,228.457,118.383,481.043,118.383
						s436.086-60.91,481.039-118.383c40.492-63.418,134.074-889.615,136.527-1283.166c-88.461,1.379-526.879,8.141-617.566,8.141
						c-90.691,0-529.109-6.762-617.57-8.141C1331.49,2617.121,1425.072,3443.319,1465.564,3506.736z"/>
				</g>
				<g>
					<path style="fill:#E5AD88;" d="M1946.605,2161.922c244.739,0,532.109-127.751,647.946-88.168
						c15.658,7.335,33.034,18.52,41.958,32.329c18.872,29.202,39.207,136.88,23.386,171.272
						c-39.367,85.582-307.465,179.756-713.291,179.756s-673.924-94.174-713.291-179.756c-15.82-34.392,4.514-142.07,23.387-171.272
						c8.924-13.808,26.3-24.993,41.958-32.329C1414.496,2034.171,1701.866,2161.922,1946.605,2161.922z"/>
				</g>
				<g>
					<path style="fill:#AF815F;" d="M1946.605,2161.922c244.739,0,532.109-127.751,647.946-88.168
						c15.658,7.335,33.034,18.52,41.958,32.329c18.872,29.202,39.207,136.88,23.386,171.272
						c-39.367,85.582-307.465,179.756-713.291,179.756s-673.924-94.174-713.291-179.756c-15.82-34.392,4.514-142.07,23.387-171.272
						c8.924-13.808,26.3-24.993,41.958-32.329C1414.496,2034.171,1701.866,2161.922,1946.605,2161.922z"/>
				</g>
				<g style="opacity:0.5;">
					<path style="fill:#FFFFFF;" d="M1931.972,2265.906c-87.742,19.838-181.004,26.058-269.593,20.058
						c-0.037,0.147-0.037,0.258-0.074,0.405c-6.036,31.615-58.924,48.03-118.142,36.731c-59.255-11.299-102.39-46.079-96.354-77.694
						c0.147-0.663,0.294-1.362,0.442-1.988c-75.744-27.309-136.766-66.506-171.619-116.008
						c52.594,43.024,119.283,72.689,189.396,93.189c62.531,18.255,127.785,29.186,188.292,35.774
						c60.764,6.625,116.67,8.796,160.21,9.532C1814.529,2265.906,1916.845,2265.611,1931.972,2265.906z"/>
				</g>
				<g>
					<path style="fill:#966E53;" d="M1946.604,2420.307c-428.962,0-654.458-103.124-679.854-158.331
						c186.654,128.562,627.51,143.283,718.114,98.518c41.11-20.312,76.089-56.753-3.5-163.845
						c-76.639-103.122,267.376-252.505,382.153-279.048c87.048-20.131,118.92,185.351,175.672,185.351
						c16.928,0,30.921,1.693,41.642,5.039c14.064,6.858,22.108,13.953,24.764,18.064c4.532,7.012,13.457,32.923,19.128,68.595
						c6.746,42.458,3.418,63.38,1.718,67.362C2601.062,2317.186,2375.57,2420.307,1946.604,2420.307z"/>
				</g>
				<g>
					<path style="fill:#363D56;" d="M1946.607,2472.356c-238.973,0-402.809-31.729-498.168-58.346
						c-125.066-34.91-206.387-81.18-228.973-130.283c-18.316-39.815,2.656-152.219,24.43-185.918
						c11.664-18.052,32.699-30.552,48.293-37.859l1.539-0.621c64.359-21.98,172.641,3.059,298.031,32.057
						c112.066,25.918,239.086,55.293,354.848,55.293c115.758,0,242.777-29.375,354.84-55.291
						c125.399-28.998,233.691-54.045,298.035-32.059l1.539,0.621c15.59,7.307,36.629,19.807,48.293,37.859
						c21.773,33.699,42.746,146.104,24.43,185.918c-22.586,49.103-103.902,95.373-228.973,130.283
						C2349.412,2440.627,2185.579,2472.356,1946.607,2472.356z M1304.365,2087.918c-16.32,7.756-29,17.365-34.859,26.438
						c-16.422,25.408-35.734,127.518-22.344,156.629c18.238,39.65,96.547,82.139,209.473,113.66
						c93.527,26.104,254.449,57.223,489.973,57.223c235.519,0,396.441-31.119,489.969-57.223
						c112.926-31.521,191.234-74.01,209.473-113.66c13.391-29.111-5.922-131.221-22.344-156.629
						c-5.859-9.073-18.539-18.682-34.859-26.438c-56.285-18.694-160.242,5.353-280.528,33.172
						c-113.652,26.285-242.472,56.076-361.711,56.076c-119.242,0-248.063-29.791-361.715-56.076
						C1464.607,2093.273,1360.658,2069.223,1304.365,2087.918z"/>
				</g>
				<g>
					<path style="fill:#AF815F;" d="M1946.605,1967.492c244.739,0,475.499-126.157,591.337-86.574
						c33.816,37.324,56.61,140.904,56.61,192.836c-11.464,64.657-242.12,153.159-647.946,153.159s-636.482-88.502-647.946-153.159
						c0-51.932,22.793-155.512,56.61-192.836C1471.106,1841.335,1701.866,1967.492,1946.605,1967.492z"/>
				</g>
				<g style="opacity:0.5;">
					<path style="fill:#FFFFFF;" d="M1926.157,2025.536c-42.251,19.322-156.861,23.371-272.868,12.072
						c-5.005,18.034-43.797,26.278-88.22,18.439c-43.687-7.692-76.958-28.229-76.59-46.631
						c-75.891-20.206-132.238-49.318-138.053-87.411C1424.696,2006.775,1755.246,2030.468,1926.157,2025.536z"/>
				</g>
				<g>
					<path style="fill:#966E53;" d="M1946.604,2190.11c-222.737,0-369.551-26.478-453.489-48.694
						c-112.773-29.843-151.116-61.806-157.573-73.002c109.396,80.287,476.521,97.309,559.669,77.502
						c0,0-39.443-107.978,51.393-141.621c124.197,0,242.036-30.513,346.005-57.435c76.312-19.761,142.218-36.826,192.116-36.826
						c11.868,0,22.457,1.015,31.615,3.026c21.202,32.078,39.964,108.03,41.326,155.353c-6.455,11.196-44.802,43.159-157.573,73.002
						C2316.155,2163.632,2169.34,2190.11,1946.604,2190.11z"/>
				</g>
				<g>
					<path style="fill:#363D56;" d="M1946.607,2242.158c-396.586,0-648.512-84.271-662.961-165.742l-0.23-1.32v-1.342
						c0-55.547,23.59-162.269,60.555-203.07l2.645-2.918l3.723-1.273c63.594-21.73,156.141,2.23,263.309,29.982
						c100.957,26.143,215.391,55.773,332.961,55.773c117.57,0,232-29.631,332.957-55.773
						c107.168-27.748,199.73-51.705,263.309-29.982l3.723,1.273l2.644,2.918c36.965,40.801,60.555,147.523,60.555,203.07v1.342
						l-0.23,1.32C2595.115,2157.887,2343.189,2242.158,1946.607,2242.158z M1313.908,2072.207
						c4.433,17.432,43.566,54.309,164.883,87.676c85.891,23.625,236.777,51.787,467.816,51.787
						c231.035,0,381.922-28.162,467.816-51.787c121.313-33.367,160.445-70.244,164.879-87.676
						c-0.434-49.162-21.203-142.258-50.129-178.092c-55.176-16.496-141.902,5.965-241.965,31.873
						c-102.723,26.6-219.148,56.748-340.601,56.748c-121.457,0-237.883-30.148-340.605-56.748
						c-100.055-25.91-186.785-48.373-241.965-31.873C1335.111,1929.949,1314.341,2023.045,1313.908,2072.207z"/>
				</g>
				<g>
					<ellipse style="fill:#C97043;" cx="1946.605" cy="1904.316" rx="602.549" ry="121.289"/>
				</g>
				<g>
					<ellipse style="fill:#AF815F;" cx="1946.605" cy="1904.316" rx="602.549" ry="121.289"/>
				</g>
				<g>
					<path style="fill:#363D56;" d="M1563.633,1997.959c-64.012-3.563-129.175-11.97-188.073-39.018
						c-57.685-27.011-64.794-75.027-6.748-108.578c46.87-26.528,97.373-37.358,148.752-47.758
						c253.022-47.814,746.92-56.185,984.793,36.611c35.166,14.491,83.677,47.777,55.141,91.194
						c-57.244,78.285-332.366,100.393-429.849,106.282c-101.39,5.12-203.093,6.621-304.27-2.492
						c-50.535-4.381-100.93-11.08-150.591-21.812c50.791-0.495,101.171-0.221,151.518-0.429
						c150.517-0.731,301.519-2.892,450.771-23.372c49.527-6.572,98.879-14.921,146.646-27.389
						c34.29-9.49,69.856-19.669,98.161-40.081c6.216-4.678,12.083-10.742,12.4-17.167c-0.932-6.612-7.268-13.151-13.697-17.815
						c-8.425-6.407-18.854-11.899-29.612-16.775c-67.946-28.79-142.607-40.7-215.903-51.16
						c-198.709-25.26-401.615-25.948-600.944-6.556c-74.376,8.114-148.594,19.675-220.112,40.931
						c-24.431,7.678-89.763,27.913-92.368,52.832C1371.275,1947.954,1519.743,1983.562,1563.633,1997.959L1563.633,1997.959z"/>
				</g>
				<g>
					<ellipse style="fill:#AF815F;" cx="1946.605" cy="1896.979" rx="493.202" ry="81.165"/>
				</g>
				<g>
					<path style="fill:#966E53;" d="M2439.8,1896.978c0,10.931-13.176,21.383-37.025,30.879
						c-26.058-37.651-220.348-66.91-456.154-66.91c-235.917,0-430.207,29.26-456.154,66.947
						c-23.886-9.533-37.062-19.948-37.062-30.916c0-44.828,220.827-81.154,493.217-81.154S2439.8,1852.15,2439.8,1896.978z"/>
				</g>
				<g>
					<path style="fill:#363D56;" d="M1946.62,1872.379c-104.331-2.494-209.22-0.839-312.972,11.787
						c-34.553,4.404-69.089,9.945-102.535,20.148c32.856-12.021,67.248-19.491,101.664-25.798
						c103.587-18.378,208.733-25.778,313.843-29.004C1946.62,1849.513,1946.62,1872.379,1946.62,1872.379L1946.62,1872.379z"/>
				</g>
				<g>
					<path style="fill:#363D56;" d="M1946.607,1993.389c-132.543,0-257.277-8.516-351.223-23.977
						c-140.926-23.191-157.223-52.445-157.223-72.434s16.297-49.242,157.223-72.434c93.945-15.461,218.68-23.975,351.223-23.975
						s257.273,8.514,351.219,23.975c140.926,23.191,157.223,52.445,157.223,72.434s-16.297,49.242-157.223,72.434
						C2203.88,1984.873,2079.15,1993.389,1946.607,1993.389z M1468.775,1896.979c1.676,2.85,18.348,24.576,139.508,43.629
						c91.41,14.377,211.563,22.293,338.324,22.293s246.91-7.916,338.32-22.293c121.16-19.053,137.832-40.779,139.508-43.629
						c-1.676-2.848-18.348-24.576-139.508-43.629c-91.406-14.375-211.559-22.291-338.32-22.291s-246.914,7.916-338.324,22.291
						C1487.122,1872.402,1470.45,1894.131,1468.775,1896.979z"/>
				</g>
				<g>
					<path style="fill:#363D56;" d="M1276.647,2127.406c37.395,28.432,80.919,47.155,124.42,63.843
						c31.515,11.399,67.839,22.408,100.408,30.22c19.167,5.183,40.381,8.847,59.796,13.306
						c36.421,6.76,76.132,12.506,112.719,17.492c20.574,2.21,49.291,5.053,70.064,7.434c23.442,1.813,46.926,3.565,70.484,6.19
						c-23.564,1.614-47.203,2.354-70.885,3.157c-118.286-0.29-238.891-16.687-348.145-64.069
						C1352.577,2185.498,1309.165,2162.148,1276.647,2127.406L1276.647,2127.406z"/>
				</g>
			</g>
			<g>
				<g>
					<path style="fill:#FFF2EB;" d="M1938.192,2870.382c0.021,5.446,3.561,9.361,8.424,9.34c4.863-0.021,8.372-3.957,8.372-9.392
						c0.01-5.404-3.571-9.361-8.424-9.34C1941.691,2861.011,1938.161,2864.968,1938.192,2870.382z M1938.192,2870.382
						c0.021,5.446,3.561,9.361,8.424,9.34c4.863-0.021,8.372-3.957,8.372-9.392c0.01-5.404-3.571-9.361-8.424-9.34
						C1941.691,2861.011,1938.161,2864.968,1938.192,2870.382z M1938.192,2870.382c0.021,5.446,3.561,9.361,8.424,9.34
						c4.863-0.021,8.372-3.957,8.372-9.392c0.01-5.404-3.571-9.361-8.424-9.34
						C1941.691,2861.011,1938.161,2864.968,1938.192,2870.382z M1938.192,2870.382c0.021,5.446,3.561,9.361,8.424,9.34
						c4.863-0.021,8.372-3.957,8.372-9.392c0.01-5.404-3.571-9.361-8.424-9.34
						C1941.691,2861.011,1938.161,2864.968,1938.192,2870.382z M1935.631,2785.749c-7.476,0.541-14.848,1.916-21.908,4.353
						c-40.401,13.901-66.235,41.453-76.002,83.145c-5.873,25.094-2.687,49.585,8.934,72.628
						c9.267,18.368,14.848,37.35,13.568,58.155c-0.979,16.056-6.164,30.686-13.255,44.93c-13.214,26.573-15.525,54.271-6.956,82.635
						c16.431,54.364,72.076,87.799,127.846,76.835c30.051-5.904,53.969-21.7,71.045-47.044
						c19.357-28.739,23.709-60.154,14.692-93.537c-2.905-10.746-8.497-20.346-12.641-30.561c-7.216-17.806-9.392-36.226-6.55-55.301
						c1.989-13.318,7.164-25.407,12.808-37.444c10.912-23.314,14.244-47.825,7.945-72.784
						c-11.058-43.837-38.912-71.691-82.655-83.613c-4.457-1.218-9.257-0.823-13.443-3.093h-14.963
						C1941.347,2786.113,1938.411,2784.926,1935.631,2785.749z M1871.343,3044.033c-1.624-1.364-2.312-2.582-1.406-4.925
						c3.738-9.715,6.154-19.784,6.883-30.197c0.146-2.166,0.989-2.812,3.082-2.739c4.009,0.135,8.028,0.073,12.047,0.021
						c1.489-0.021,2.26,0.271,2.135,2.072c-1.093,14.807-3.436,29.364-8.059,43.504c-0.083,0.25-0.302,0.448-0.479,0.687
						C1880.433,3050.291,1875.623,3047.615,1871.343,3044.033z M1902.883,3054.727c4.477-14.869,7.393-30.051,7.986-45.607
						c0.083-2.385,0.937-2.999,3.217-2.957c6.914,0.135,13.849,0.188,20.763-0.021c2.822-0.083,3.405,0.875,3.384,3.509
						c-0.094,22.012-0.052,44.024-0.052,66.026c0,22.012-0.052,44.025,0.063,66.037c0.01,2.999-0.385,3.863-3.801,3.509
						c-10.36-1.083-20.44-3.197-30.29-6.539c-1.895-0.646-2.874-1.51-3.322-3.603c-4.144-19.128-4.769-38.37-2.509-57.78
						c0.26-2.156,1.01-2.468,2.884-2.072c4.863,1.02,9.736,1.989,14.63,2.874c5.675,1.021,10.079-1.729,10.985-6.758
						c0.885-4.842-1.999-8.59-7.726-9.84c-4.582-1-9.184-2.01-13.818-2.666C1902.331,3058.423,1902.123,3057.257,1902.883,3054.727z
						 M1852.83,3094.649c-1.125-2.624-0.26-5.227,0.042-7.757c1.114-9.247,3.686-18.108,7.435-26.646
						c0.781-1.781,1.354-2.364,3.134-0.958c4.915,3.874,10.402,6.81,16.202,9.111c2.03,0.802,2.634,1.729,2.332,3.947
						c-2.031,14.734-2.489,29.52-1.052,44.337c0.333,3.509,1.281,6.977,0.875,10.881
						C1868.719,3119.316,1858.806,3108.737,1852.83,3094.649z M1857.953,3130.927c8.549,7.362,17.816,13.515,27.968,18.336
						c1.073,0.51,1.624,1.323,1.989,2.458c3.342,10.35,7.601,20.304,13.224,29.718
						C1880.444,3169.963,1866.064,3153.157,1857.953,3130.927z M1908.443,3157.885c7.487,1.104,14.598,3.249,21.981,3.978
						c7.778,0.781,7.757,0.979,7.757,9.049v20.658C1927.634,3189.185,1914.493,3174.264,1908.443,3157.885z M1955.352,3191.767
						c-0.771-2.957-0.281-5.935-0.333-8.84c-0.083-5.956-0.042-11.912-0.01-17.858c0.01-1.156-0.427-2.582,1.562-2.728
						c9.371-0.656,18.607-2.208,28.322-4.592C1977.76,3175.336,1967.035,3187.633,1955.352,3191.767z M1992.702,3181.355
						c-0.135-0.188-0.437-0.49-0.385-0.573c5.519-9.101,9.85-18.753,13.078-28.895c0.365-1.145,0.885-1.947,1.958-2.457
						c10.1-4.842,19.315-11.027,27.916-18.888C2030.125,3149.502,2012.694,3170.161,1992.702,3181.355z M2032.936,3060.35
						c4.217,9.996,7.07,20.305,7.882,31.165c0.073,1,0.042,1.916-0.333,2.822c-5.852,14.307-15.952,24.865-29.041,33.237
						c-0.427-3.707,0.479-6.914,0.791-10.163c1.437-14.807,1.073-29.572-0.958-44.295c-0.354-2.572,0.052-3.873,2.728-4.894
						c5.55-2.103,10.767-4.988,15.473-8.663C2031.135,3058.257,2031.958,3058.038,2032.936,3060.35z M2007.915,3006.215
						c8.403-0.01,8.257,0.01,9.392,8.476c1.114,8.226,3.02,16.296,5.998,24.043c0.937,2.458,0.354,3.853-1.416,5.331
						c-3.738,3.113-7.934,5.456-12.256,7.653c-1.874,0.948-2.541,0.542-3.072-1.364c-3.863-13.734-6.466-27.677-7.237-41.952
						c-0.094-1.625,0.271-2.281,1.947-2.208C2003.49,3006.277,2005.697,3006.215,2007.915,3006.215z M1979.312,3006.163
						c2.26-0.052,3.041,0.531,3.155,2.916c0.812,15.515,3.363,30.769,7.841,45.67c0.739,2.447,0.635,3.749-2.353,4.134
						c-4.103,0.521-8.153,1.479-12.224,2.26c-4.03,0.771-7.455,2.385-8.413,6.841c-1.322,6.144,3.644,11.162,10.1,10.131
						c4.779-0.76,9.507-1.76,14.234-2.77c1.905-0.406,2.916-0.479,3.217,2.062c2.228,19.274,1.604,38.391-2.509,57.384
						c-0.479,2.197-1.416,3.228-3.499,3.946c-10.246,3.54-20.784,5.571-31.55,6.643c-3.499,0.354-2.26-2.01-2.27-3.405
						c-0.062-22.158-0.042-44.316-0.042-66.474c0-21.887,0.052-43.764-0.063-65.641c-0.021-2.843,0.604-3.821,3.613-3.728
						C1965.463,3006.371,1972.397,3006.298,1979.312,3006.163z M1901.102,2814.144c-5.55,9.455-9.881,19.388-13.193,29.759
						c-0.365,1.146-0.927,1.937-1.999,2.447c-10.163,4.8-19.388,11.006-27.958,18.326
						C1866.033,2842.424,1880.485,2825.67,1901.102,2814.144z M1938.203,2900.235c-0.083,4.155-0.125,8.309,0.021,12.464
						c0.073,2.062-0.417,2.832-2.676,2.947c-11.475,0.604-22.866,1.885-34.049,4.686c-1.885,0.479-2.895,0.406-3.186-2.104
						c-2.218-19.274-1.624-38.381,2.468-57.373c0.479-2.208,1.354-3.228,3.467-3.936c28.229-9.476,56.426-9.465,84.654,0.021
						c1.885,0.635,2.957,1.427,3.405,3.52c2.52,11.818,3.717,23.772,3.978,38.423c-0.365,4.738-1,12.037-1.447,19.357
						c-0.125,2.145-0.927,2.53-2.843,2.062c-11.318-2.812-22.856-4.082-34.466-4.696c-1.947-0.094-2.635-0.614-2.572-2.624
						c0.135-4.29,0.115-8.58,0.01-12.87c-0.125-5.435-3.405-8.965-8.236-9.059
						C1941.753,2890.958,1938.328,2894.581,1938.203,2900.235z M1860.306,2935.315c-4.353-9.934-7.112-20.263-7.945-31.103
						c-0.115-1.489,0.292-2.676,0.833-3.957c5.873-13.817,15.775-24.032,29.041-32.519c-1.562,12.152-2.437,23.574-2.062,35.059
						c0.219,6.924,0.989,13.786,1.843,20.638c0.26,2.01-0.135,2.978-2.031,3.728c-5.914,2.343-11.547,5.29-16.566,9.226
						C1861.503,2937.887,1861.024,2936.95,1860.306,2935.315z M1885.484,2989.398c-7.945,0-7.976,0-9.153-7.872
						c-1.239-8.361-3.061-16.566-6.216-24.417c-0.979-2.437-0.698-4.019,1.385-5.654c3.832-2.999,7.986-5.394,12.328-7.549
						c1.729-0.864,2.333-0.281,2.801,1.354c3.999,13.703,6.466,27.677,7.435,41.921c0.104,1.572-0.229,2.312-1.947,2.239
						C1889.909,2989.315,1887.691,2989.388,1885.484,2989.398z M1914.108,2989.44c-2.26,0.042-3.155-0.531-3.238-2.936
						c-0.594-15.546-3.499-30.707-7.966-45.576c-0.739-2.478-0.604-3.488,2.332-4.144c10.017-2.228,20.117-3.509,30.332-4.217
						c2.53-0.177,2.655,0.833,2.645,2.77c-0.063,8.58-0.031,17.15-0.031,25.73c0,8.434-0.073,16.868,0.052,25.302
						c0.031,2.291-0.531,3.134-2.968,3.082C1928.217,2989.294,1921.157,2989.315,1914.108,2989.44z M2009.581,2943.874
						c1.145,0.75,2.489,1.177,3.696,1.843c11.079,6.102,11.11,6.164,7.705,18.17c-1.999,7.06-3.644,14.203-4.092,21.523
						c-0.208,3.405-1.51,4.582-4.79,4.019c-1.343-0.229-2.759-0.031-4.144-0.031c-8.549,0-8.726-0.01-8.132-8.361
						c0.864-12.162,3.478-24.022,6.727-35.757C2007.051,2943.489,2007.696,2942.656,2009.581,2943.874z M1990.474,2940.355
						c-4.634,15.129-7.174,30.634-8.018,46.409c-0.115,2.228-0.875,2.707-2.947,2.676c-7.195-0.115-14.38-0.146-21.575,0.01
						c-2.405,0.052-3.02-0.729-2.988-3.051c0.125-8.58,0.052-17.149,0.052-25.719c0-8.445-0.01-16.879,0-25.313
						c0.01-1.458-0.448-3.02,2.166-2.843c10.496,0.687,20.888,1.874,31.154,4.248
						C1990.724,2937.335,1991.14,2938.21,1990.474,2940.355z M2040.538,2901.505c0.968,2.416,0.073,4.957-0.239,7.362
						c-1.281,9.902-4.03,19.409-8.559,28.697c-6.06-4.561-12.495-8.268-19.43-11.016c-2.02-0.802-1.177-2.239-1.01-3.468
						c1.885-14.734,2.405-29.499,0.948-44.295c-0.333-3.436-0.75-6.852-1.198-10.944
						C2024.596,2876.38,2034.748,2887.032,2040.538,2901.505z M2035.55,2865.311c-8.851-8.039-17.931-14.234-27.979-18.982
						c-1.406-0.667-1.947-1.781-2.384-3.134c-3.186-10.006-7.383-19.555-13.162-28.583
						C2006.311,2819.881,2027.97,2841.654,2035.55,2865.311z M1969.097,2812.79c3.093,3.186,5.862,6.633,8.257,10.371
						c2.822,4.415,5.342,8.997,7.549,14.578c-25.605-6.352-50.845-6.508-76.845,0.271c4.707-10.736,10.1-19.992,18.399-27.198
						C1940.556,2798.577,1956.06,2799.368,1969.097,2812.79z M1954.988,2870.33c0.01-5.404-3.571-9.361-8.424-9.34
						c-4.873,0.021-8.403,3.978-8.372,9.392c0.021,5.446,3.561,9.361,8.424,9.34
						C1951.479,2879.701,1954.988,2875.765,1954.988,2870.33z M1938.192,2870.382c0.021,5.446,3.561,9.361,8.424,9.34
						c4.863-0.021,8.372-3.957,8.372-9.392c0.01-5.404-3.571-9.361-8.424-9.34
						C1941.691,2861.011,1938.161,2864.968,1938.192,2870.382z M1938.192,2870.382c0.021,5.446,3.561,9.361,8.424,9.34
						c4.863-0.021,8.372-3.957,8.372-9.392c0.01-5.404-3.571-9.361-8.424-9.34
						C1941.691,2861.011,1938.161,2864.968,1938.192,2870.382z M1938.192,2870.382c0.021,5.446,3.561,9.361,8.424,9.34
						c4.863-0.021,8.372-3.957,8.372-9.392c0.01-5.404-3.571-9.361-8.424-9.34
						C1941.691,2861.011,1938.161,2864.968,1938.192,2870.382z M1938.192,2870.382c0.021,5.446,3.561,9.361,8.424,9.34
						c4.863-0.021,8.372-3.957,8.372-9.392c0.01-5.404-3.571-9.361-8.424-9.34
						C1941.691,2861.011,1938.161,2864.968,1938.192,2870.382z"/>
				</g>
				<g>
					<path style="fill:#FFF2EB;" d="M1946.547,2860.976c-4.858,0.037-8.392,3.975-8.355,9.422c0.037,5.447,3.57,9.348,8.428,9.311
						c4.858,0,8.355-3.938,8.355-9.385C1955.012,2864.914,1951.405,2860.976,1946.547,2860.976z M1946.547,2860.976
						c-4.858,0.037-8.392,3.975-8.355,9.422c0.037,5.447,3.57,9.348,8.428,9.311c4.858,0,8.355-3.938,8.355-9.385
						C1955.012,2864.914,1951.405,2860.976,1946.547,2860.976z M1946.547,2860.976c-4.858,0.037-8.392,3.975-8.355,9.422
						c0.037,5.447,3.57,9.348,8.428,9.311c4.858,0,8.355-3.938,8.355-9.385C1955.012,2864.914,1951.405,2860.976,1946.547,2860.976z
						 M1946.547,2860.976c-4.858,0.037-8.392,3.975-8.355,9.422c0.037,5.447,3.57,9.348,8.428,9.311
						c4.858,0,8.355-3.938,8.355-9.385C1955.012,2864.914,1951.405,2860.976,1946.547,2860.976z M1946.547,2860.976
						c-4.858,0.037-8.392,3.975-8.355,9.422c0.037,5.447,3.57,9.348,8.428,9.311c4.858,0,8.355-3.938,8.355-9.385
						C1955.012,2864.914,1951.405,2860.976,1946.547,2860.976z M1946.547,2860.976c-4.858,0.037-8.392,3.975-8.355,9.422
						c0.037,5.447,3.57,9.348,8.428,9.311c4.858,0,8.355-3.938,8.355-9.385C1955.012,2864.914,1951.405,2860.976,1946.547,2860.976z
						 M2007.348,3149.412c0.736-0.368,1.472-0.699,2.208-1.104c0.184-31.394,0.147-63.598-0.11-96.501
						c-1.73,0.81-2.392,0.368-2.871-1.435c-3.864-13.765-6.477-27.677-7.25-41.957c-0.11-1.619,0.257-2.282,1.95-2.208
						c2.209,0.073,4.417,0,6.625,0h1.031c-0.074-5.594-0.184-11.226-0.295-16.857c-0.221,0.037-0.441,0.037-0.662,0.037
						c-8.575,0-8.759,0-8.134-8.355c0.847-12.145,3.459-24.033,6.699-35.737c0.294-1.067,0.662-1.803,1.324-1.914
						c-0.515-32.02-0.846-64.665-0.957-97.458c-0.92-0.663-1.361-1.583-1.73-2.723c-3.165-10.011-7.361-19.543-13.139-28.597
						c4.416,1.656,9.569,4.858,14.795,9.274c0-7.03,0-14.096,0.037-21.126c-10.084-6.257-21.53-11.115-34.375-14.611
						c-4.454-1.215-9.238-0.81-13.434-3.092h-14.979c-2.724,1.067-5.668-0.111-8.465,0.699c-7.471,0.552-14.832,1.914-21.899,4.343
						c-40.411,13.912-66.211,41.479-76.001,83.141c-5.852,25.101-2.687,49.612,8.944,72.652
						c9.274,18.365,14.832,37.356,13.581,58.151c-0.994,16.047-6.184,30.695-13.287,44.938
						c-13.213,26.573-15.495,54.25-6.956,82.626c16.451,54.36,72.099,87.779,127.859,76.811
						c15.495-3.018,29.333-8.686,41.405-16.967c0.073-7.324,0.147-14.722,0.184-22.156c-5.19,4.674-10.858,8.796-16.746,12.072
						c-0.147-0.184-0.442-0.479-0.368-0.589c5.521-9.091,9.827-18.734,13.066-28.892
						C2005.765,3150.737,2006.28,3149.927,2007.348,3149.412z M1926.452,2810.811c14.096-12.219,29.591-11.446,42.656,1.987
						c3.092,3.165,5.852,6.625,8.244,10.379c2.834,4.417,5.337,8.98,7.545,14.575c-25.616-6.367-50.827-6.515-76.847,0.258
						C1912.76,2827.263,1918.171,2818.025,1926.452,2810.811z M1901.093,2814.16c-5.557,9.422-9.863,19.359-13.176,29.738
						c-0.368,1.141-0.92,1.951-2.024,2.466c-10.158,4.785-19.359,11.005-27.935,18.329
						C1866.018,2842.426,1880.483,2825.68,1901.093,2814.16z M1869.92,3039.109c3.754-9.717,6.183-19.801,6.883-30.18
						c0.147-2.172,0.993-2.834,3.091-2.76c4.012,0.147,8.024,0.074,12.072,0.037c1.472-0.037,2.245,0.257,2.135,2.061
						c-1.104,14.795-3.46,29.37-8.06,43.503c-0.11,0.258-0.331,0.442-0.479,0.699c-5.115-2.171-9.937-4.858-14.206-8.428
						C1869.735,3042.679,1869.036,3041.465,1869.92,3039.109z M1871.502,2951.441c3.827-2.981,7.987-5.374,12.329-7.545
						c1.73-0.846,2.319-0.257,2.797,1.362c4.012,13.691,6.478,27.677,7.435,41.92c0.11,1.583-0.221,2.319-1.951,2.245
						c-2.208-0.111-4.416-0.037-6.625-0.037c-7.949,0-7.986,0-9.164-7.876c-1.214-8.355-3.055-16.562-6.22-24.401
						C1869.147,2954.68,1869.405,2953.097,1871.502,2951.441z M1860.314,2935.321c-4.343-9.937-7.103-20.279-7.95-31.1
						c-0.11-1.509,0.295-2.687,0.847-3.975c5.852-13.802,15.752-24.033,29.039-32.499c-1.583,12.146-2.466,23.555-2.061,35.038
						c0.221,6.919,0.957,13.802,1.84,20.647c0.258,2.025-0.147,2.981-2.061,3.717c-5.889,2.356-11.519,5.3-16.562,9.238
						C1861.491,2937.897,1861.013,2936.94,1860.314,2935.321z M1852.88,3086.882c1.104-9.238,3.68-18.108,7.434-26.646
						c0.773-1.767,1.362-2.356,3.128-0.957c4.895,3.901,10.416,6.809,16.194,9.127c2.024,0.81,2.65,1.73,2.355,3.938
						c-2.061,14.722-2.502,29.517-1.068,44.349c0.332,3.496,1.289,6.956,0.883,10.857c-13.102-8.244-23.003-18.807-28.965-32.903
						C1851.702,3092.034,1852.585,3089.421,1852.88,3086.882z M1857.958,3130.936c8.539,7.361,17.814,13.507,27.972,18.329
						c1.067,0.515,1.619,1.325,1.987,2.466c3.349,10.342,7.582,20.279,13.213,29.701
						C1880.446,3169.949,1866.055,3153.166,1857.958,3130.936z M1938.192,3191.553c-10.563-2.355-23.702-17.298-29.738-33.676
						c7.471,1.104,14.575,3.239,21.972,3.975c7.766,0.773,7.766,0.994,7.766,9.054V3191.553z M1938.229,3141.72
						c0.037,2.981-0.368,3.865-3.791,3.496c-10.342-1.067-20.427-3.202-30.29-6.514c-1.877-0.663-2.871-1.546-3.313-3.607
						c-4.159-19.138-4.784-38.387-2.503-57.783c0.258-2.171,0.994-2.466,2.871-2.098c4.859,1.03,9.753,1.987,14.648,2.871
						c5.668,1.031,10.048-1.693,10.968-6.735c0.883-4.858-1.987-8.612-7.728-9.827c-4.564-1.031-9.164-2.024-13.802-2.687
						c-2.944-0.405-3.166-1.583-2.393-4.122c4.454-14.869,7.398-30.032,7.987-45.601c0.074-2.392,0.92-2.981,3.202-2.944
						c6.919,0.11,13.839,0.184,20.758-0.037c2.834-0.074,3.423,0.883,3.386,3.533c-0.074,22.009-0.037,44.018-0.037,66.027
						S1938.118,3119.711,1938.229,3141.72z M1938.229,2986.368c0.037,2.282-0.515,3.128-2.944,3.092
						c-7.066-0.184-14.133-0.147-21.163-0.037c-2.282,0.073-3.165-0.515-3.239-2.908c-0.589-15.568-3.496-30.732-7.987-45.601
						c-0.736-2.466-0.589-3.46,2.356-4.122c10.011-2.245,20.095-3.533,30.327-4.232c2.502-0.184,2.65,0.846,2.65,2.76
						c-0.074,8.612-0.037,17.151-0.037,25.763C1938.192,2969.512,1938.118,2977.94,1938.229,2986.368z M1955.343,3191.774
						c-0.773-2.981-0.257-5.926-0.331-8.833c-0.074-5.962-0.037-11.925,0-17.887c0-1.141-0.442-2.576,1.546-2.724
						c9.385-0.662,18.623-2.208,28.339-4.564C1977.757,3175.323,1967.047,3187.615,1955.343,3191.774z M1992.368,3134.801
						c-0.478,2.172-1.435,3.202-3.496,3.938c-10.269,3.533-20.795,5.558-31.578,6.625c-3.496,0.368-2.245-1.988-2.245-3.386
						c-0.073-22.156-0.036-44.313-0.036-66.469c0-21.899,0.036-43.76-0.074-65.659c-0.037-2.834,0.589-3.828,3.607-3.717
						c6.919,0.221,13.839,0.147,20.757,0.037c2.282-0.073,3.055,0.515,3.166,2.908c0.809,15.531,3.349,30.768,7.839,45.674
						c0.736,2.429,0.626,3.754-2.355,4.122c-4.086,0.515-8.134,1.472-12.219,2.282c-4.048,0.773-7.471,2.355-8.428,6.809
						c-1.324,6.146,3.644,11.188,10.121,10.158c4.785-0.773,9.496-1.767,14.244-2.76c1.877-0.442,2.908-0.479,3.202,2.061
						C1997.079,3096.671,1996.453,3115.81,1992.368,3134.801z M1955.012,2960.679c0-8.428-0.037-16.893,0-25.321
						c0-1.436-0.479-3.018,2.134-2.834c10.526,0.699,20.905,1.877,31.174,4.232c2.392,0.589,2.834,1.472,2.171,3.607
						c-4.637,15.127-7.177,30.622-8.023,46.41c-0.111,2.208-0.883,2.687-2.945,2.65c-7.214-0.111-14.39-0.147-21.604,0.037
						c-2.392,0.037-3.018-0.736-2.981-3.055C1955.085,2977.83,1955.012,2969.254,1955.012,2960.679z M1994.834,2918.243
						c-0.11,2.135-0.92,2.54-2.833,2.061c-11.336-2.834-22.856-4.085-34.486-4.711c-1.951-0.073-2.613-0.589-2.576-2.613
						c0.147-4.306,0.147-8.576,0.037-12.882c-0.147-5.41-3.423-8.943-8.244-9.054c-4.969-0.073-8.392,3.533-8.539,9.201
						c-0.074,4.159-0.111,8.281,0.037,12.44c0.074,2.061-0.405,2.834-2.687,2.944c-11.484,0.626-22.856,1.914-34.044,4.711
						c-1.877,0.479-2.908,0.405-3.202-2.098c-2.208-19.285-1.619-38.387,2.466-57.378c0.479-2.208,1.362-3.239,3.497-3.938
						c28.229-9.496,56.421-9.459,84.65,0c1.877,0.662,2.944,1.435,3.386,3.533c2.539,11.814,3.717,23.776,3.975,38.424
						C1995.901,2903.632,1995.276,2910.919,1994.834,2918.243z M1946.547,2860.976c-4.858,0.037-8.392,3.975-8.355,9.422
						c0.037,5.447,3.57,9.348,8.428,9.311c4.858,0,8.355-3.938,8.355-9.385C1955.012,2864.914,1951.405,2860.976,1946.547,2860.976z
						 M1946.547,2860.976c-4.858,0.037-8.392,3.975-8.355,9.422c0.037,5.447,3.57,9.348,8.428,9.311
						c4.858,0,8.355-3.938,8.355-9.385C1955.012,2864.914,1951.405,2860.976,1946.547,2860.976z M1946.547,2860.976
						c-4.858,0.037-8.392,3.975-8.355,9.422c0.037,5.447,3.57,9.348,8.428,9.311c4.858,0,8.355-3.938,8.355-9.385
						C1955.012,2864.914,1951.405,2860.976,1946.547,2860.976z M1946.547,2860.976c-4.858,0.037-8.392,3.975-8.355,9.422
						c0.037,5.447,3.57,9.348,8.428,9.311c4.858,0,8.355-3.938,8.355-9.385C1955.012,2864.914,1951.405,2860.976,1946.547,2860.976z
						 M1946.547,2860.976c-4.858,0.037-8.392,3.975-8.355,9.422c0.037,5.447,3.57,9.348,8.428,9.311
						c4.858,0,8.355-3.938,8.355-9.385C1955.012,2864.914,1951.405,2860.976,1946.547,2860.976z"/>
				</g>
				<g>
					<path style="fill:#E2CBC0;" d="M2040.95,3037.269c-7.214-17.777-9.385-36.216-6.551-55.28
						c1.988-13.323,7.177-25.395,12.808-37.43c10.931-23.334,14.243-47.846,7.95-72.799c-7.803-30.99-23.997-53.992-48.288-69.009
						c-0.037,7.03-0.037,14.096-0.037,21.126c11.557,9.68,23.482,25.137,28.708,41.442c-8.833-8.06-17.924-14.243-27.971-18.991
						c-0.257-0.111-0.479-0.258-0.663-0.405c0.111,32.793,0.442,65.438,0.957,97.458c0.405-0.147,0.957,0,1.73,0.479
						c1.141,0.773,2.467,1.177,3.68,1.84c11.078,6.109,11.115,6.183,7.693,18.181c-1.988,7.066-3.644,14.206-4.085,21.531
						c-0.184,3.386-1.509,4.564-4.785,4.012c-1.104-0.184-2.319-0.074-3.46-0.074c0.11,5.631,0.221,11.262,0.295,16.857
						c7.398,0,7.287,0.405,8.392,8.502c1.104,8.207,3.018,16.268,5.999,24.033c0.92,2.466,0.331,3.828-1.435,5.337
						c-3.717,3.091-7.913,5.447-12.256,7.656c-0.074,0.037-0.147,0.073-0.184,0.073c0.257,32.903,0.294,65.107,0.11,96.501
						c9.275-4.637,17.74-10.49,25.727-17.777c-3.644,13.36-13.397,27.603-25.837,38.755c-0.037,7.434-0.111,14.832-0.184,22.156
						c11.446-7.729,21.346-17.776,29.627-30.069c19.359-28.744,23.739-60.138,14.722-93.52
						C2050.704,3057.107,2045.109,3047.501,2040.95,3037.269z M2012.316,2926.561c-2.024-0.81-1.177-2.245-1.03-3.497
						c1.914-14.722,2.429-29.48,0.957-44.276c-0.331-3.423-0.736-6.845-1.177-10.931c13.544,8.539,23.665,19.175,29.48,33.639
						c0.957,2.429,0.073,4.969-0.258,7.361c-1.288,9.9-4.012,19.433-8.539,28.708
						C2025.676,2933.002,2019.236,2929.285,2012.316,2926.561z M2040.472,3094.353c-5.852,14.28-15.937,24.843-29.039,33.234
						c-0.404-3.717,0.479-6.919,0.81-10.158c1.436-14.832,1.067-29.591-0.957-44.313c-0.368-2.576,0.037-3.865,2.724-4.895
						c5.557-2.098,10.747-5.005,15.458-8.649c1.656-1.325,2.503-1.546,3.459,0.773c4.232,10.011,7.066,20.316,7.876,31.173
						C2040.876,3092.512,2040.876,3093.433,2040.472,3094.353z"/>
				</g>
				<g>
					<path style="fill:#FFF2EB;" d="M1944.096,3151.959c-2.723,1.414-5.605,0.912-8.462,0.7c-0.127-0.272-0.077-0.505,0.151-0.7
						C1938.555,3151.959,1941.326,3151.959,1944.096,3151.959z"/>
				</g>
			</g>
		</g>
		<g>
			<g>
				<path style="fill:#C2C6D2;" d="M1471.502,1702.116c101.203-71.815,245.492,182.611,245.492,182.611
					s-119.411,81.302-111.908,167.683c10.885,124.145,206.608,147.043,166.592,305.2c-42.298,149.9-425.041,63.976-493.499-208.281
					C1249.185,2034.017,1278.164,1839.312,1471.502,1702.116z"/>
			</g>
			<g>
				<path style="fill:#C2C6D2;" d="M1471.502,1702.116c101.203-71.815,245.492,182.611,245.492,182.611
					s-119.411,81.302-111.908,167.683c10.885,124.145,206.608,147.043,166.592,305.2c-42.298,149.9-425.041,63.976-493.499-208.281
					C1249.185,2034.017,1278.164,1839.312,1471.502,1702.116z"/>
			</g>
			<g>
				<path style="fill:#FFFFFF;" d="M1771.676,2357.627c-14.368,50.953-68.103,74.657-135.443,73.057
					c5.611-23.39,36.128-32.965,50.305-31.746c-2.363-0.915-31.593-17.13-19.284-47.371c11.188-27.484,54.154-23.933,56.974-23.285
					c-2.706-1.715-28.887-23.171-17.683-46.037c8.155-16.616,39.482-15.626,65.435-1.144
					C1778.383,2302.862,1779.221,2327.824,1771.676,2357.627z"/>
			</g>
			<g>
				<path style="fill:#A1ACC6;" d="M1605.104,2052.411c-108.951-82.986-134.04-217.96-284.772-183.786
					c31.949-58.743,80.612-116.468,151.158-166.522c101.22-71.799,245.505,182.624,245.505,182.624
					S1597.596,1966.015,1605.104,2052.411z"/>
			</g>
		</g>
		<g>
			<g>
				<path style="fill:#363D56;" d="M1642.72,2445.99c-1.379,0-2.754-0.01-4.148-0.029c-72.316-1.037-152.813-28.851-220.852-76.308
					c-55.246-38.537-126.863-107.396-154.324-216.608c-17.094-67.982-12.113-149.664,13.668-224.103
					c32.301-93.273,96.484-176.008,185.617-239.258l0,0c20.262-14.381,43.211-18.855,68.219-13.289
					c96.695,21.51,195.207,193.5,199.356,200.813c3.914,6.902,1.879,15.654-4.684,20.121
					c-1.113,0.758-111.934,77.348-105.297,153.764c4.199,47.9,40.723,79.945,79.391,113.869
					c52.348,45.932,111.688,97.99,86.789,196.387c-0.031,0.135-0.07,0.267-0.105,0.402
					C1771.204,2415.422,1718.958,2445.99,1642.72,2445.99z M1480.322,1714.547c-83.918,59.551-144.242,137.137-174.449,224.371
					c-23.891,68.979-28.594,144.314-12.906,206.693c41.289,164.215,211.77,267.939,346.043,269.865
					c63.508,0.969,106.484-21.614,117.941-61.815c20.191-80.168-25.035-119.846-77.394-165.783
					c-41.488-36.398-84.387-74.037-89.656-134.137c-6.785-78.113,75.602-149.129,106.899-173.121
					c-23.43-38.297-102.063-158.809-172.531-174.469C1507.802,1702.49,1493.431,1705.238,1480.322,1714.547L1480.322,1714.547z"/>
			</g>
		</g>
		<g>
			<path style="fill:#C2C6D2;" d="M2259.57,1958.52c72.903,97.606,22.884,196.789,28.715,297.85
				c1.95,67.258,33.073,145.701,129.576,140.95c125.644-10.871,221.399-282.028,118.488-496.397L2259.57,1958.52z"/>
		</g>
		<g>
			<path style="fill:#A1ACC6;" d="M2366.467,2318.877c33.08,52.211,106.213,29.84,149.62,10.213
				c-27.401,39.673-61.51,65.054-98.21,68.217c-96.533,4.764-127.631-73.667-129.612-140.931
				c-5.831-101.068,44.208-200.269-28.697-297.868l276.794-57.584c20.198,42.073,32.737,86.319,38.872,130.374
				c-38.555,65.258-137.006,57.318-197.029,114.483C2338.717,2183.388,2326.724,2256.125,2366.467,2318.877z"/>
		</g>
		<g>
			<path style="fill:#A1ACC6;" d="M2516.08,2329.083c-0.686,0.991-1.334,1.944-2.058,2.896
				c-27.02,37.996-60.366,62.233-96.152,65.32c-70.58,3.468-106.174-37.5-121-86.091c14.444-13.796,33.956-29.612,50.915-33.689
				c4.001,13.948,10.137,27.896,18.674,41.35c4.078,6.441,8.766,11.738,13.948,16.082c-0.038,6.936-0.419,11.624-0.419,11.624
				s1.258-3.735,3.735-9.07c18.903,13.758,43.369,15.625,67.722,11.928c-0.229,3.392-0.534,5.755-0.61,6.365
				c0.229-0.61,1.181-3.087,2.744-6.669c21.684-3.621,43.102-11.433,60.29-19.055
				C2514.632,2329.73,2515.356,2329.425,2516.08,2329.083z"/>
		</g>
		<g>
			<path style="fill:#FFFFFF;" d="M2514.022,2331.941c0,0,0,0,0,0.038v0.038c-27.02,37.996-60.366,62.195-96.152,65.282
				c-70.58,3.468-106.174-37.5-121-86.091c17.073-16.311,41.121-35.366,59.795-34.68c29.04,1.067,23.323,70.046,23.323,70.046
				s16.273-48.705,48.095-46.228c29.497,2.325,23.171,52.21,22.752,55.45c1.143-3.049,19.626-52.478,46.837-50.687
				C2508.343,2305.835,2512.879,2316.849,2514.022,2331.941z"/>
		</g>
		<g>
			<path style="fill:#E2EEF2;" d="M2514.022,2331.979v0.038c-27.02,37.996-60.366,62.195-96.152,65.282
				c-70.58,3.468-106.174-37.5-121-86.091c14.444-13.796,33.956-29.612,50.915-33.689c4.001,13.948,10.137,27.896,18.674,41.35
				c4.078,6.441,8.766,11.738,13.948,16.082c-0.038,6.936-0.419,11.624-0.419,11.624s1.258-3.735,3.735-9.07
				c18.903,13.758,43.369,15.625,67.722,11.928c-0.229,3.392-0.534,5.755-0.61,6.365c0.229-0.61,1.181-3.087,2.744-6.669
				c21.684-3.621,43.102-11.433,60.29-19.055C2513.946,2330.683,2513.983,2331.331,2514.022,2331.979z"/>
		</g>
		<g>
			<path style="fill:#363D56;" d="M2409.552,2412.771c-35.64,0.002-65.34-10.773-88.394-32.092
				c-39.707-36.717-47.192-93.133-48.106-123.646c-1.875-32.938,1.906-65.476,5.566-96.943
				c7.793-67.012,15.152-130.307-31.266-192.447c-5.035-6.746-3.652-16.299,3.094-21.336c6.742-5.039,16.297-3.654,21.336,3.09
				c53.676,71.861,45.258,144.228,37.121,214.215c-3.516,30.242-7.152,61.516-5.402,91.881c0.008,0.145,0.016,0.289,0.02,0.434
				c0.746,25.682,6.719,73.131,38.336,102.369c18.684,17.275,43.941,25.281,74.965,23.815c35.77-3.227,70.781-31.852,98.617-80.639
				c51.34-89.986,75.48-251.65,7.168-393.949c-3.645-7.59-0.445-16.697,7.145-20.34c7.602-3.645,16.699-0.445,20.34,7.145
				c73.067,152.203,46.984,325.578-8.172,422.254c-33.016,57.867-76.605,91.936-122.746,95.928
				c-0.188,0.016-0.375,0.029-0.563,0.039C2415.552,2412.698,2412.529,2412.771,2409.552,2412.771z"/>
		</g>
		<g>
			<path style="fill:#C2C6D2;" d="M1317.702,2389.652c-84.484,20.167-204.831,78.237-228.032,212.623
				c-26.677,154.521,63.834,291.555,275.166,356.389c135.332,41.518,221.218,17.884,256.032-35.538
				c44.264-81.869,9.33-145.02-136.902-249.607c0,0-105.93-76.325-156.757-131.167L1317.702,2389.652z"/>
		</g>
		<g style="opacity:0.4;">
			<path style="fill:#FFFFFF;" d="M1631.781,2898.188c11.198-135.024-304.576-236.016-367.229-403.396l61.891,35.519l0.762,12.043
				c50.839,54.841,156.747,131.175,156.747,131.175c131.708,94.17,173.134,154.765,147.753,225.688
				C1631.704,2898.874,1631.752,2898.532,1631.781,2898.188z"/>
		</g>
		<g>
			<path style="fill:#A1ACC6;" d="M1327.205,2542.354c0,0-83.575-102.973-193.866-41.616
				c48.667-64.33,125.268-96.99,184.377-111.091L1327.205,2542.354z"/>
		</g>
		<g>
			<path style="fill:#A1ACC6;" d="M1631.781,2899.027c-2.82,7.889-6.479,15.892-10.899,24.085
				c-34.833,53.43-120.695,77.059-256.062,35.557c-211.32-64.825-301.832-201.869-275.155-356.406
				c0.8-4.611,1.715-9.146,2.744-13.567c4.23,73.515,38.415,199.202,205.871,287.388
				C1441.154,2951.352,1556.285,2932.297,1631.781,2899.027z"/>
		</g>
		<g>
			<path style="fill:#E2EEF2;" d="M1631.773,2899.019c-2.82,7.888-6.479,15.892-10.899,24.085
				c-24.581,37.729-74.658,60.595-149.62,56.136c3.391-28.964,62.043-28.164,62.043-28.164s-19.513-8.117-26.677-23.095
				C1555.667,2926.115,1597.741,2914.034,1631.773,2899.019z"/>
		</g>
		<g>
			<path style="fill:#FFFFFF;" d="M1620.874,2923.142c-24.619,37.729-74.658,60.557-149.62,56.098
				c3.391-28.964,62.043-28.164,62.043-28.164s-39.673-16.502-26.677-45.923c12.728-28.697,59.871-15.739,62.195-15.092
				c-1.868-1.296-38.987-27.515-19.932-54.574c15.854-22.523,62.577-7.546,87.196,2.439
				C1642.635,2865.787,1637.033,2893.188,1620.874,2923.142z"/>
		</g>
		<g>
			<path style="fill:#E2EEF2;" d="M1631.773,2899.019c-2.82,7.888-6.479,15.892-10.899,24.085
				c-24.581,37.729-74.658,60.595-149.62,56.136c3.391-28.964,62.043-28.164,62.043-28.164s-19.513-8.117-26.677-23.095
				C1555.667,2926.115,1597.741,2914.034,1631.773,2899.019z"/>
		</g>
		<g>
			<path style="fill:#363D56;" d="M1490.111,2995.135c-38.277,0-81.945-7.235-129.746-21.899
				c-208.258-63.891-315.066-203.537-285.719-373.557c27.258-157.848,176.578-209.832,239.516-224.855
				c4.379-1.047,8.988-0.101,12.609,2.574c3.613,2.678,5.863,6.817,6.145,11.307l9.164,147.201
				c50.524,52.791,149.777,124.508,150.797,125.244c131.047,93.727,196.219,167.844,141.402,269.225
				c-0.199,0.367-0.41,0.725-0.641,1.074C1606.185,2973.576,1556.177,2995.135,1490.111,2995.135z M1303.638,2409.131
				c-63.43,18.373-177.004,68.644-198.945,195.736c-26.887,155.742,69.563,279.383,264.617,339.221
				c114.277,35.066,203.348,24.299,238.453-28.775c34.613-64.451,23.359-117.802-132.664-229.396
				c-4.418-3.184-107.797-77.881-159.07-133.205c-2.391-2.578-3.816-5.904-4.035-9.414L1303.638,2409.131z"/>
		</g>
		<g>
			<path style="fill:#C97043;" d="M2576.486,2369.945c-53.145,119.78-310.706,254.118-279.265,397.983
				c20.008,100.992,164.826,89.082,248.546,32.633C2808.849,2618.346,2697.377,2331.567,2576.486,2369.945z"/>
		</g>
		<g>
			<path style="fill:#C2C6D2;" d="M2545.775,2800.55c-83.728,56.479-228.546,68.369-248.554-32.622
				c-1.944-8.842-2.782-17.607-2.63-26.372c0,0,0,0,0-0.038c2.058-133.919,232.014-259.148,281.9-371.573
				c2.553-0.8,5.145-1.486,7.698-1.982C2701.95,2343.725,2803.247,2622.233,2545.775,2800.55z"/>
		</g>
		<g>
			<path style="fill:#A1ACC6;" d="M2706.676,2532.065c-0.038,4.23-0.153,8.498-0.419,12.805
				c-12.271-110.976-88.53-138.987-147.753-143.637c7.317-10.519,13.415-20.961,17.988-31.288
				C2643.375,2348.717,2707.362,2426.995,2706.676,2532.065z"/>
		</g>
		<g style="opacity:0.4;">
			<path style="fill:#FFFFFF;" d="M2294.591,2741.518c2.058-133.919,232.014-259.148,281.9-371.573
				c2.553-0.8,5.145-1.486,7.698-1.982C2608.649,2470.89,2392.375,2544.869,2294.591,2741.518z"/>
		</g>
		<g>
			<path style="fill:#A1ACC6;" d="M2706.676,2532.065c-0.572,84.833-43.369,187.083-160.901,268.486
				c-83.728,56.479-228.546,68.369-248.554-32.622c-6.098-27.896-1.334-55.45,10.709-82.585c0.343,37.5,14.292,76.944,63.606,96.8
				C2509.608,2837.708,2666.508,2703.408,2706.676,2532.065z"/>
		</g>
		<g>
			<path style="fill:#E2EEF2;" d="M2476.293,2832.936c-77.478,23.171-163.95,11.357-179.079-65.016
				c-4.535-20.808-3.049-41.463,3.011-61.853c2.896-0.686,5.945-1.334,9.108-1.944c4.573,31.288,21.075,61.472,62.196,78.011
				c14.634,5.907,29.459,9.642,44.322,11.433c-4.23,5.64-8.231,9.337-8.231,9.337s55.26-19.97,67.645,22.637
				C2475.988,2828.019,2476.293,2830.497,2476.293,2832.936z"/>
		</g>
		<g>
			<path style="fill:#FFFFFF;" d="M2476.293,2832.936c-77.478,23.171-163.95,11.357-179.079-65.016
				c-1.944-8.841-2.782-17.606-2.629-26.372c0,0,0,0,0-0.038c0.19-11.89,2.172-23.704,5.678-35.443
				c24.199-5.602,58.842-10.328,69.246,5.145c11.357,16.959-10.099,43.216-11.166,44.512c1.638-0.876,39.978-21.456,60.214-1.867
				c20.694,19.969-10.938,49.048-10.938,49.048s55.26-19.97,67.645,22.637C2475.988,2828.019,2476.293,2830.497,2476.293,2832.936z"
				/>
		</g>
		<g>
			<path style="fill:#E2EEF2;" d="M2476.293,2832.936c-77.478,23.171-163.95,11.357-179.079-65.016
				c-4.535-20.808-3.049-41.463,3.011-61.853c2.896-0.686,5.945-1.334,9.108-1.944c4.573,31.288,21.075,61.472,62.196,78.011
				c14.634,5.907,29.459,9.642,44.322,11.433c-4.23,5.64-8.231,9.337-8.231,9.337s55.26-19.97,67.645,22.637
				C2475.988,2828.019,2476.293,2830.497,2476.293,2832.936z"/>
		</g>
		<g>
			<path style="fill:#363D56;" d="M2407.505,2858.889c-21.883,0-43.102-3.445-62.125-11.285
				c-34.133-14.07-55.957-40.597-63.113-76.713c-21.039-96.254,70.309-182.836,158.648-266.568
				c52.602-49.86,102.289-96.951,121.637-140.559c1.77-3.989,5.164-7.028,9.32-8.348c48.57-15.422,98.535,12.391,127.258,70.867
				c25.828,52.582,29.887,119.719,11.137,184.195c-22.559,77.57-76.438,147.633-155.82,202.613
				C2515.513,2839.344,2459.626,2858.889,2407.505,2858.889z M2587.251,2382.856c-23.387,46.938-72.988,93.951-125.359,143.594
				c-82.203,77.916-167.207,158.483-149.781,238.225c5.211,26.283,20.293,44.604,44.891,54.742
				c47.23,19.469,124.727,5.936,180.242-31.494c73.406-50.844,123.168-115.184,143.75-185.957
				c16.652-57.266,13.289-116.399-9.227-162.238C2655.388,2406.377,2624.931,2375.004,2587.251,2382.856z"/>
		</g>
		<g>
			<polygon style="fill:#363D56;" points="1264.561,2494.791 1336.427,2530.209 1317.992,2554.492 1264.561,2494.791 			"/>
		</g>
		<g>
			<g>
				<g>
					<g>
						<g>
							<path style="fill:#C2C6D2;" d="M3484.472,1445.926c-65.52,146.1-189.141,207.746-273.634,316.836
								c-121.696,157.123-120.667,298.738-298.107,291.027c-388.042-16.862-225.555-623.215-248.212-803.924l-60.677-209.167
								c170.151-213.196,444.734-346.038,633.016-298.822C3464.642,798.999,3598.548,1191.554,3484.472,1445.926z"/>
						</g>
						<g>
							<path style="fill:#C2C6D2;" d="M3484.472,1445.926c-65.52,146.1-189.141,207.746-273.634,316.836
								c-121.696,157.123-120.667,298.738-298.107,291.027c-388.042-16.862-225.555-623.215-248.212-803.924l-60.677-209.167
								c170.151-213.196,444.734-346.038,633.016-298.822C3464.642,798.999,3598.548,1191.554,3484.472,1445.926z"/>
						</g>
						<g style="opacity:0.4;">
							<path style="fill:#FFFFFF;" d="M3524.327,1192.696c-31.213-182.452-134.532-362.344-277.102-398.129
								c-185.31-46.459-456.603,94.222-627.307,301.47l-16.059-55.339c170.125-213.202,444.694-346.042,632.978-298.844
								C3396.348,781.845,3509.84,986.365,3524.327,1192.696z"/>
						</g>
						<g>
							<path style="fill:#363D56;" d="M2926.208,2069.332c-4.594,0-9.305-0.104-14.137-0.313
								c-78.816-3.426-141.648-30.857-186.742-81.533c-112.43-126.34-94.27-374.715-81.012-556.072
								c5.403-73.91,10.074-137.838,5.223-178.48l-60.336-207.988c-1.379-4.756-0.363-9.885,2.727-13.756
								c84.172-105.467,196.066-194.723,315.074-251.322c121.109-57.602,239.578-76.342,333.563-52.777
								c93.945,23.56,177.102,101.289,234.156,218.869c79.136,163.094,88.422,361.789,23.66,506.205l0,0
								c-42.105,93.891-107.23,153.738-170.211,211.617c-38.168,35.078-74.223,68.211-105.285,108.314
								c-36.297,46.863-61.73,92.811-84.172,133.348C3088.247,1996.619,3047.99,2069.332,2926.208,2069.332z M2620.697,1044.08
								l58.465,201.539c0.222,0.77,0.386,1.555,0.484,2.35c5.465,43.58,0.652,109.426-4.922,185.67
								c-12.864,175.928-30.477,416.873,73.379,533.578c39.965,44.91,94.031,68.246,165.289,71.342
								c114.156,5.004,147.707-55.846,198.652-147.881c22.973-41.498,49.008-88.535,86.742-137.25
								c32.636-42.141,71.336-77.703,108.758-112.096c60.707-55.789,123.484-113.48,163.02-201.645l13.91,6.238l-13.91-6.238
								c61.227-136.527,52.094-325.104-23.27-480.418c-53.047-109.326-129.098-181.279-214.141-202.607
								c-87.148-21.846-198.32-3.832-313.054,50.736C2807.493,860.955,2701.454,944.826,2620.697,1044.08z"/>
						</g>
						<g>
							<path style="fill:#F9ACBC;" d="M3484.438,1445.931c-65.454,146.098-189.11,207.768-273.64,316.808
								c-20.288,26.199-37.161,51.997-52.048,76.731c-74.234,123.486-98.121,220.716-246.009,214.289
								c-362.117-15.662-244.889-544.693-245.977-762.245l20.632-1.093c0,0,228.495-427.157,502.233-431.064
								c190.225-2.786,294.854,216.554,335.934,397.177l0.043,0.064l-0.01,0.054c-0.266,9.186-0.799,18.32-1.548,27.412
								C3519.606,1340.967,3506.773,1396.088,3484.438,1445.931z"/>
						</g>
						<g>
							<path style="fill:#E26F8A;" d="M3158.75,1839.47c-74.234,123.486-98.121,220.716-246.009,214.289
								c-362.117-15.662-244.889-544.693-245.977-762.245l20.632-1.093c0,0,228.495-427.157,502.233-431.064
								c190.225-2.786,294.854,216.554,335.934,397.177l0.043,0.064l-0.01,0.054c-0.266,9.186-0.799,18.32-1.548,27.412
								c-24.869-36.447-245.429-295.708-429.238-211.201c-166.616,76.602-166.994,279.253-167.552,511.749
								c-0.206,86.065-59.018,219.923-10.64,300.19C2945.651,1932.974,3052.632,1979.111,3158.75,1839.47z"/>
						</g>
						<g>
							<path style="fill:#363D56;" d="M2926.208,2069.316c-4.598,0-9.309-0.104-14.141-0.313
								c-78.816-3.418-141.648-30.844-186.746-81.517c-112.438-126.336-94.285-374.73-81.031-556.1
								c3.988-54.564,7.434-101.688,7.242-139.777c-0.043-8.131,6.304-14.863,14.426-15.299l12.145-0.65
								c14.82-26.471,67.652-117,146.152-209.188c124.203-145.863,247.063-220.682,365.168-222.373
								c1.281-0.019,2.602-0.029,3.875-0.029c235.313,0,324.902,311.668,347.004,408.578c0.418,1.559,0.594,3.18,0.508,4.795
								c-2.285,71.48-16.566,136.992-42.445,194.715c-42.094,93.916-107.238,153.773-170.234,211.66
								c-38.164,35.066-74.211,68.189-105.262,108.275c-36.301,46.871-61.73,92.818-84.168,133.357
								C3088.243,1996.613,3047.997,2069.316,2926.208,2069.316z M2681.931,1305.986c-0.59,36.736-3.828,81.041-7.234,127.623
								c-12.855,175.941-30.465,416.902,73.399,533.607c39.965,44.906,94.035,68.238,165.293,71.326
								c114.105,4.988,147.703-55.838,198.637-147.855c22.969-41.5,49.004-88.539,86.742-137.264
								c32.629-42.123,71.32-77.674,108.734-112.057c60.727-55.797,123.516-113.494,163.043-201.68c0-0.002,0-0.002,0-0.002
								c24.047-53.637,37.414-114.703,39.739-181.543c-21.414-93.205-105.969-386.58-320.422-383.559
								c-261.715,3.75-486.805,418.842-489.047,423.035c-2.516,4.699-7.301,7.744-12.625,8.031L2681.931,1305.986z"/>
						</g>
					</g>
					<g style="opacity:0.4;">
						<path style="fill:#FFFFFF;" d="M3158.116,1651.548c22.546,28.886,297.627-214.514,280.183-390.206
							c-7.528-75.819-45.753,53.855-113.292,166.685C3257.468,1540.857,3145.124,1634.902,3158.116,1651.548z"/>
					</g>
				</g>
				<g>
					<g>
						<path style="fill:#C2C6D2;" d="M871.264,943c6.613,159.982,98.522,263.109,136.49,395.767
							c54.685,191.068,1.167,322.185,168.793,380.885c366.581,128.369,440.757-494.979,528.868-654.371l133.977-171.704
							c-78.866-261.121-284.529-486.389-476.887-512.428C1129.793,349.646,859.751,664.458,871.264,943z"/>
					</g>
					<g>
						<path style="fill:#C2C6D2;" d="M871.264,943c6.613,159.982,98.522,263.109,136.49,395.767
							c54.685,191.068,1.167,322.185,168.793,380.885c366.581,128.369,440.757-494.979,528.868-654.371l133.977-171.704
							c-78.866-261.121-284.529-486.389-476.887-512.428C1129.793,349.646,859.751,664.458,871.264,943z"/>
					</g>
					<g style="opacity:0.4;">
						<path style="fill:#FFFFFF;" d="M928.246,693.067c96.703-157.834,259.411-286.528,405.079-266.839
							c189.316,25.64,389.015,256.966,470.602,512.769l35.452-45.426c-78.84-261.117-284.491-486.377-476.843-512.435
							C1199.575,359.065,1018.28,506.851,928.246,693.067z"/>
					</g>
					<g>
						<path style="fill:#363D56;" d="M1270.74,1752.108c-31.688,0-64.82-6.02-99.23-18.07
							c-125.551-43.965-136.227-128.715-149.746-236.014c-5.789-45.971-12.355-98.076-28.664-155.063
							c-13.957-48.768-35.137-92.916-57.563-139.656c-36.996-77.119-75.254-156.863-79.504-259.676
							c-6.535-158.139,75.836-339.197,209.855-461.266c96.621-88.002,202.688-129.316,298.664-116.32
							c96.02,12.998,199.066,74.369,290.148,172.81c89.496,96.729,160.27,221.141,199.285,350.315
							c1.43,4.742,0.473,9.881-2.574,13.785l-133.223,170.736c-19.594,35.938-38.981,97.033-61.395,167.668
							c-55.004,173.324-130.332,410.697-281.617,486.283C1342.536,1743.947,1307.619,1752.108,1270.74,1752.108z M886.493,942.371
							c3.992,96.541,40.867,173.41,76.531,247.746c21.984,45.826,44.719,93.211,59.387,144.453
							c16.953,59.242,23.672,112.582,29.601,159.643c13.149,104.371,21.836,173.324,129.574,211.051
							c67.313,23.572,126.184,21.971,179.961-4.896c139.754-69.822,212.828-300.094,266.184-468.23
							c23.125-72.865,43.094-135.793,64.344-174.232c0.387-0.701,0.828-1.371,1.32-2.002l129.094-165.441
							c-38.149-122.137-105.484-239.375-190.168-330.902c-86.289-93.256-182.836-151.252-271.863-163.305
							c-86.883-11.766-184.207,26.824-274.039,108.648C958.79,621.151,880.314,792.867,886.493,942.371z"/>
					</g>
					<g>
						<path style="fill:#F9ACBC;" d="M871.294,943.018c6.552,159.956,98.486,263.117,136.506,395.743
							c9.115,31.858,15.207,62.076,19.85,90.568c23.098,142.218,9.191,241.369,148.9,290.291
							c342.063,119.862,429.566-414.89,511.324-616.498l-18.752-8.672c0,0-53.628-481.453-306.362-586.682
							c-175.603-73.191-354.168,91.646-459.355,244.119l-0.064,0.043l-0.01,0.054c-3.163,8.628-6.057,17.308-8.737,26.029
							C877.596,832.499,869.054,888.445,871.294,943.018z"/>
					</g>
					<g>
						<path style="fill:#E26F8A;" d="M1027.65,1429.329c23.098,142.218,9.191,241.369,148.9,290.291
							c342.063,119.862,429.566-414.89,511.324-616.498l-18.752-8.672c0,0-53.628-481.453-306.362-586.682
							c-175.603-73.191-354.168,91.646-459.355,244.119l-0.064,0.043l-0.01,0.054c-3.163,8.628-6.057,17.308-8.737,26.029
							c36.62-24.613,337.653-183.49,476.967-36.797c126.282,132.972,51.417,321.288-34.359,537.383
							c-31.753,79.994-26.825,226.118-101.54,282.696C1190.821,1595.248,1074.358,1598.382,1027.65,1429.329z"/>
					</g>
					<g>
						<path style="fill:#363D56;" d="M1270.767,1752.104c-31.691,0-64.836-6.025-99.25-18.08
							c-125.563-43.971-136.23-128.705-149.738-235.982c-5.789-45.973-12.348-98.08-28.66-155.078
							c-13.953-48.744-35.133-92.879-57.555-139.605c-37.008-77.129-75.281-156.9-79.512-259.725l0,0
							c-2.613-63.256,8.465-129.449,32.922-196.746c0.535-1.506,1.297-2.918,2.262-4.185
							c56.895-82.342,257.594-340.578,477.383-249.025c109.035,45.406,195.352,160.48,256.543,342.025
							c38.676,114.738,54.133,218.412,58.07,248.492l11.035,5.111c7.375,3.42,10.774,12.027,7.715,19.561
							c-14.313,35.297-28.605,80.332-45.156,132.479c-55.008,173.332-130.348,410.721-281.644,486.301
							C1342.544,1743.947,1307.642,1752.104,1270.767,1752.104z M916.997,759.051c-22.656,62.938-32.91,124.602-30.484,183.324
							v0.002c3.973,96.559,40.863,173.441,76.539,247.791c21.981,45.813,44.715,93.184,59.379,144.406
							c16.953,59.254,23.672,112.596,29.598,159.658c13.137,104.348,21.817,173.285,129.567,211.018
							c67.316,23.584,126.18,21.98,179.961-4.881c139.766-69.816,212.848-300.102,266.211-468.248
							c14.129-44.518,27.566-86.859,40.652-121.189l-5.688-2.635c-4.832-2.24-8.149-6.846-8.738-12.141
							c-0.531-4.727-55.633-473.781-297.098-574.336C1159.068,439.416,971.478,680.453,916.997,759.051z"/>
					</g>
				</g>
			</g>
			<g style="opacity:0.4;">
				<path style="fill:#FFFFFF;" d="M1097.989,1255.066c-31.657,18.455-196.747-309.659-115.339-466.326
					c35.132-67.609,22.496,66.99,43.332,196.828C1046.818,1115.406,1116.231,1244.431,1097.989,1255.066z"/>
			</g>
		</g>
		<g>
			<g>
				<g>
					<path style="fill:#C2C6D2;" d="M2013.736,2047.302c111.395,21.439,651.9,136.261,801.569-143.808
						c63.214-118.29,20.447-232.277,16.21-248.954c44.58-164.958,111.854-442.249,32.789-647.519
						c-95.202-247.167-298.184-378.79-567.487-430.619c-269.3-51.828-506.636-4.947-686.776,189.229
						c-149.606,161.262-190.057,443.714-209.888,613.436c-10.125,13.913-92.145,103.884-77.351,237.187
						C1357.828,1931.869,1902.342,2025.864,2013.736,2047.302z"/>
				</g>
				<g>
					<path style="fill:#C2C6D2;" d="M2838.835,1844.829c-5.301,19.12-12.946,38.842-23.525,58.649
						c-149.665,280.106-690.189,165.26-801.555,143.827c-111.406-21.441-655.946-115.421-690.955-431.068
						c-2.398-21.858-2.26-42.579-0.232-61.964c10.427-98.815,69.128-163.58,77.566-175.208
						c19.854-169.7,60.32-452.181,209.927-613.443c180.133-194.168,417.464-241.048,686.776-189.217
						c269.273,51.823,472.251,183.443,567.488,430.607c79.066,205.271,11.755,482.586-32.795,647.533
						C2835.024,1668.386,2865.279,1749.745,2838.835,1844.829z"/>
				</g>
				<g>
					<path style="fill:#A1ACC6;" d="M2838.835,1844.829c-5.301,19.12-12.946,38.842-23.525,58.649
						c-149.665,280.106-690.189,165.26-801.555,143.827c-111.406-21.441-655.946-115.421-690.955-431.068
						c-2.398-21.858-2.26-42.579-0.232-61.964c-0.008,0.039,0.032,0.047,0.024,0.086c26.98,134.381,204.47,262.838,345.394,200.808
						c102.183-44.969,120.191-126.116,197.502-169.875c48.469-27.386,235.773,6.068,235.773,6.068s186.341,38.456,221.183,81.876
						c55.547,69.328,42.15,151.362,120.343,231.045c107.834,109.905,320.284,56.494,395.254-58.266
						C2838.317,1845.621,2838.556,1845.221,2838.835,1844.829z"/>
				</g>
			</g>
			<g>
				<g>
					<path style="fill:#363D56;" d="M2374.615,2103.985c-149.84,0-289.977-27.332-352.82-39.588l-21.883-4.211
						c-68.609-13.029-229.274-43.537-380.09-110.057c-192.082-84.719-297.109-196.484-312.172-332.193
						c-9.484-85.475,16.359-167.408,76.809-243.525c0.371-0.467,0.719-0.904,1.047-1.316
						c24.496-207.816,71.156-464.549,213.359-617.83c88.898-95.826,195.676-160.178,317.355-191.268
						c113.121-28.902,242.141-29.764,383.476-2.563c141.34,27.201,260.824,75.889,355.137,144.713
						c101.453,74.031,176.715,173.418,223.695,295.396c75.152,195.107,23.188,450.822-31.195,652.887
						c0.148,0.504,0.309,1.039,0.48,1.607c27.887,93.117,21.473,178.791-19.063,254.643
						c-64.355,120.424-203.363,185.223-413.168,192.598C2401.888,2103.758,2388.2,2103.985,2374.615,2103.985z M2016.619,2032.334
						l11.012,2.139c67.519,13.168,225.629,44.006,386.883,38.336c198.16-6.965,328.484-66.348,387.348-176.5
						c36.605-68.496,42.242-146.395,16.746-231.525c-0.844-2.822-1.492-5.004-1.867-6.486l-0.984-3.875l1.043-3.857
						c34.43-127.398,115.063-425.744,33.277-638.064c-86.699-225.106-273.813-366.793-556.141-421.129
						c-282.293-54.32-508.652,7.783-672.719,184.627c-154.746,166.805-190.609,473.762-205.922,604.838l-0.465,3.969l-2.351,3.23
						c-0.899,1.238-2.309,3.025-4.145,5.334c-55.266,69.592-78.945,144.016-70.379,221.203
						c13.774,124.131,112.75,227.643,294.168,307.66c147.629,65.113,305.894,95.166,373.477,108L2016.619,2032.334z"/>
				</g>
			</g>
			<g>
				<g>
					<path style="fill:#C2C6D2;" d="M1913.905,1522.921c0,0,90.431-57.948,208.161-38.509
						c116.538,25.648,179.002,113.021,179.002,113.021"/>
				</g>
				<g>
					<path style="fill:#363D56;" d="M1913.905,1522.921c51.111-39.045,118.352-56.554,182.197-52.811
						c8.082,0.176,19.934,2.224,28.126,3.075c7.951,2.283,19.643,4.742,27.258,7.585c60.677,20.222,116.611,61.436,149.583,116.663
						c-25.469-25.075-53.881-46.641-84.766-64.077c-29.847-17.296-63.014-30.013-96.396-37.716
						C2050.587,1484.651,1978.634,1495.802,1913.905,1522.921L1913.905,1522.921z"/>
				</g>
			</g>
			<g>
				<path style="fill:#C2C6D2;" d="M1891.798,1567.33c-90.393,45.836-173.622,250.596-72.953,400.255
					c32.455,48.25,125.026,147.779,306.205,141.921c127.959-4.136,243.89-95.96,272.026-80.09
					c9.127,5.148,13.062,48.503,73.564,57.894c53.385,8.286,116.404-29.398,105.248-125.501c0,0,47.383-12.316,57.487-61.1
					c10.103-48.784-36.354-99.592-106.92-72.626c-5.398,2.063-17.152-28.852-90.963-42.623
					c-46.001-8.583-92.045-0.215-114.557,10.595c1.632-8.481,16.694-86.741-27.962-151.518"/>
			</g>
			<g>
				<path style="fill:#C2C6D2;" d="M1818.824,1967.581c32.49,48.273,125.043,147.781,306.217,141.921
					c127.958-4.137,243.887-95.97,272.031-80.073c9.107,5.151,13.063,48.507,73.567,57.902
					c53.399,8.267,116.41-29.428,105.232-125.527c0,0,2.364-0.598,6.096-2.081c13.161-5.22,43.545-21.101,51.417-59.022
					c10.107-48.786-36.348-99.603-106.92-72.6c-5.414,2.021-17.178-28.863-90.96-42.632c-46.018-8.569-92.043-0.198-114.555,10.593
					c1.634-8.491,16.698-86.762-27.978-151.546c0,0-56.737-98.847-178.175-122.218c-121.438-23.371-223.006,45.009-223.006,45.009
					c-36.705,18.636-72.234,63.486-94.726,120.178C1764.117,1770.402,1759.069,1878.693,1818.824,1967.581z"/>
			</g>
			<g style="opacity:0.4;">
				<path style="fill:#FFFFFF;" d="M1966.918,1586.265c53.439-6.61,61.337-24.459,137.196-9.859
					c75.858,14.599,76.614,34.114,123.782,60.086c0,0-29.102-78.128-117.052-95.054
					C2022.894,1524.51,1966.918,1586.265,1966.918,1586.265z"/>
			</g>
			<g style="opacity:0.4;">
				<path style="fill:#FFFFFF;" d="M2428.151,1817.871c-11.759-3.959-56.803-14.257-121.387,14.271
					c-106.182,46.903-133.74-76.243-154.292-76.256c-20.552-0.013-37.538,157.354,70.498,131.572
					c23.447-5.596,119.989-37.241,167.554-40.556c35.035-2.441,59.308,2.028,62.326-8.034
					C2455.313,1830.655,2441.777,1822.458,2428.151,1817.871z"/>
			</g>
			<g style="opacity:0.4;">
				<path style="fill:#FFFFFF;" d="M2599.975,1893.523c0,0,8.273-19.556-7.6-32.236c-38.545-30.791-100.079,21.523-92.713,32.236
					C2504.908,1901.153,2552.703,1864.197,2599.975,1893.523z"/>
			</g>
			<g>
				<path style="fill:#363D56;" d="M2525.759,1967.991c0,0-0.309,50.42-26.969,50.73c-26.659,0.31-16.406-51.52-16.406-51.52
					L2525.759,1967.991z"/>
			</g>
			<g>
				<path style="fill:#A1ACC6;" d="M1818.824,1967.581c32.49,48.273,125.043,147.781,306.217,141.921
					c127.958-4.137,243.887-95.97,272.031-80.073c9.107,5.151,13.063,48.507,73.567,57.902
					c53.399,8.267,116.41-29.428,105.232-125.527c0,0,2.364-0.598,6.096-2.081l-31.14,3.148c0,0,3.732,88.779-52.167,90.273
					c-80.495,2.216-70.896-102.614-89.819-115.206c-29.489-19.602-95.515,61.112-255.464,85.75
					c-182.975,28.151-400.966-122.586-356.313-336.203C1764.117,1770.402,1759.069,1878.693,1818.824,1967.581z"/>
			</g>
			<g>
				<path style="fill:#363D56;" d="M1891.799,1567.33c-64.278,47.347-96.823,143.727-102.103,220.732
					c-10.432,146.059,88.913,262.523,228.246,295.94c128.078,29.241,208.032-4.9,322.066-57.337
					c18.368-7.114,45.616-21.552,65.527-9.919c10.416,7.159,13.679,22.174,21.146,30.738c14.23,18.975,40.27,26.688,63.528,25.521
					c24.081-1.436,46.433-14.596,58.617-35.504c12.864-21.744,14.782-48.677,11.92-73.932c-0.854-7.674,4.15-14.563,11.308-16.512
					c83.778-30.915,47.859-138.747-40.147-104.735c-4.228,1.692-9.419,1.329-13.286-0.511c-4.065-2.125-5.972-3.861-8.364-6.142
					c-38.209-36.817-107.736-44.825-158.298-33.798c-8.775,1.94-17.337,4.629-24.595,8.007c-10.848,5.47-24.005-5.023-21.397-16.704
					c14.017-48.495,11.935-103.698-12.993-148.635c26.305,31.218,39.831,71.833,43.128,112.355
					c1.1,13.831,1.226,27.728-0.196,42.043l-21.567-16.623c64.878-28.411,166.795-18.539,218.456,32.625
					c-0.649-0.798-4.23-1.94-5.979-1.977c-1.549-0.171-4.231,0.212-5.788,0.877c0,0,0.241-0.085,0.241-0.085
					c36.949-15.148,85.036-10.509,110.903,22.859c40.606,51.22,7.021,123.213-52.446,139.949c0.001,0,11.307-16.51,11.307-16.51
					c3.551,31.363,0.728,64.844-15.996,93.022c-21.042,36.851-66.305,56.586-107.746,49.12c-39.002-6.1-63.126-26.179-79.811-61.051
					c-0.074-0.103-0.19-0.296-0.122-0.174c0.028,0.031,0.035,0.025,0.359,0.381c0.143,0.142,0.235,0.201,0.449,0.377
					c0.434,0.452,0.99,0.692,1.499,1.027c-9.581-0.069-26.357,7.188-37.601,11.913c-52.505,23.39-106.234,49.323-163.531,61.792
					c-87.448,18.765-182.003,6.748-261.871-33.916c-112.917-58.591-182.081-168.001-168.57-296.962
					C1765.303,1704.196,1811.692,1598.953,1891.799,1567.33L1891.799,1567.33z"/>
			</g>
			<g>
				<path style="fill:#363D56;" d="M2539.519,1961.981c-0.108,21.977-0.883,48.68-19.963,63.962
					c-15.747,11.461-39.705,3.256-48.239-12.889c-4.367-7.476-6.339-15.389-7.161-23.175c-1.065-12.318-0.131-32.992,13.635-38.139
					c18.703-5.87,36.113-0.135,54.353-0.349c34.851,0.211,74.175-18.707,89.735-50.441c2.823-5.648,9.692-7.938,15.339-5.113
					c5.745,2.861,8.001,9.94,4.98,15.6c-6.891,13.356-16.854,25.187-28.58,34.384c-22.104,17.104-49.04,26.391-76.719,27.604
					c-14.966,0.022-30.65-3.061-44.982-3.106c-2.715,0.006-5.496,0.399-6.228,0.726c-0.413,0.142,0.19-0.005,0.91-1.085
					c-4.582,10.767-4.094,36.331,11.15,41.527c9.709,3.368,15.636-2.97,19.2-12.638c4.055-10.809,5.467-24.312,5.432-36.573
					C2522.635,1951.139,2538.884,1950.882,2539.519,1961.981L2539.519,1961.981z"/>
			</g>
			<g>
				<path style="fill:#363D56;" d="M2328.392,1809.352c-19.562,8.24-42.651,19.081-65.353,17.017
					c-29.135-1.757-55.467-23.536-61.78-51.583c10.649,23.715,36.225,39.058,61.653,35.56c19.74-3.408,33.957-15.837,50.608-27.617
					C2332.532,1770.411,2348.888,1799.578,2328.392,1809.352L2328.392,1809.352z"/>
			</g>
			<g>
				<path style="fill:#363D56;" d="M2228.061,1814.167c-37.642-12.799-78.525-17.145-117.58-10.775
					c-40.044,6.139-74.783,28.437-91.261,67.113c1.035-10.484,4.147-20.87,8.956-30.633c36.689-69.85,143.775-72.656,204.206-34.197
					C2237.073,1808.738,2233.296,1816.19,2228.061,1814.167L2228.061,1814.167z"/>
			</g>
			<g>
				<path style="fill:#363D56;" d="M2351.692,1797.799c-42.769,21.932-94.394,51.05-100.075,103.562
					c-1.442,16.443,2.93,33.44,9.439,49.981c-41.82-51.512-14.066-109.856,37.994-140.182c15.64-9.424,32.534-16.465,50.101-20.547
					C2353.506,1789.579,2355.754,1795.882,2351.692,1797.799L2351.692,1797.799z"/>
			</g>
			<g>
				<path style="fill:#363D56;" d="M2535.44,1840.398c-16.43,6.743-40.464,14.731-55.77,23.337
					c9.25-15.115,26.626-33.952,37.798-47.966c5.523-6.805,15.561-7.8,22.307-2.2
					C2549.035,1820.837,2546.392,1836.43,2535.44,1840.398L2535.44,1840.398z"/>
			</g>
			<g>
				<g>
					<path style="fill:#C2C6D2;" d="M2396.587,1964.566c0,0-4.182,58.855,20.661,95.483"/>
				</g>
				<g>
					<path style="fill:#363D56;" d="M2396.587,1964.565c1.696,16.365,5.391,32.611,10.744,47.996
						c5.116,14.215,12.349,28.394,22.532,38.931c5.877,6.186,5.625,15.965-0.561,21.841c-7.317,7.197-20.171,4.829-24.522-4.412
						c-8.408-17.116-11.67-35.205-12.436-53.57C2391.84,1998.205,2393.195,1981.219,2396.587,1964.565L2396.587,1964.565z"/>
				</g>
			</g>
			<g>
				<g>
					<path style="fill:#C2C6D2;" d="M1933.082,1671.834c0,0,68.778-44.073,158.318-29.289
						c88.635,19.507,136.142,85.959,136.142,85.959"/>
				</g>
				<g>
					<path style="fill:#363D56;" d="M1933.082,1671.834c43.882-36.251,104.733-49.271,160.48-40.516
						c27.868,6.435,54.967,18.181,77.989,35.119c22.68,16.501,42.855,37.266,55.991,62.067
						c-25.039-22.753-52.831-41.542-83.199-55.899c-17.571-8.152-36.512-14.534-55.102-18.832
						C2036.88,1645.444,1982.786,1653.334,1933.082,1671.834L1933.082,1671.834z"/>
				</g>
			</g>
			<g>
				<g>
					<path style="fill:#363D56;" d="M1774.559,951.284c17.511-36.362,120.325-148.653,182.806-78.827
						c22.026,24.614,6.049,78.191-31.867,80.417C1870.226,956.117,1860.311,947.06,1774.559,951.284z"/>
				</g>
			</g>
			<g>
				<path style="fill:#363D56;" d="M2671.179,1123.843c-2.764-40.263-56.555-182.694-140.49-141.047
					c-29.588,14.681-34.639,70.36-0.257,86.5C2580.551,1092.823,2593.12,1088.093,2671.179,1123.843z"/>
			</g>
			<g>
				<g>
					<g>
						
							<ellipse transform="matrix(0.1897 -0.9819 0.9819 0.1897 546.7177 3695.3875)" style="fill:#363D56;" cx="2512.111" cy="1516.479" rx="192.272" ry="166.498"/>
					</g>
				</g>
				<g>
					<g>
						
							<ellipse transform="matrix(0.1897 -0.9819 0.9819 0.1897 479.7692 3673.8425)" style="fill:#FFFFFF;" cx="2465.583" cy="1546.266" rx="68.721" ry="54.285"/>
					</g>
				</g>
				<g style="opacity:0.2;">
					<g>
						
							<ellipse transform="matrix(0.1897 -0.9819 0.9819 0.1897 655.1719 3744.9722)" style="fill:#FFFFFF;" cx="2596.379" cy="1475.567" rx="46.507" ry="30.065"/>
					</g>
				</g>
			</g>
			<g>
				<g>
					<g>
						
							<ellipse transform="matrix(0.1883 -0.9821 0.9821 0.1883 91.6738 2860.7534)" style="fill:#363D56;" cx="1776.544" cy="1374.916" rx="192.15" ry="166.392"/>
					</g>
				</g>
				<g>
					<g>
						
							<ellipse transform="matrix(0.1883 -0.9821 0.9821 0.1883 73.6281 2928.7651)" style="fill:#FFFFFF;" cx="1808.668" cy="1419.839" rx="68.677" ry="54.25"/>
					</g>
				</g>
				<g style="opacity:0.2;">
					<g>
						
							<ellipse transform="matrix(0.1883 -0.9821 0.9821 0.1883 108.5053 2742.6731)" style="fill:#FFFFFF;" cx="1713.52" cy="1305.693" rx="46.478" ry="30.046"/>
					</g>
				</g>
			</g>
		</g>
	</g>
</g>
</svg>
