<?xml version="1.0" encoding="utf-8"?>
<!-- Generator: Adobe Illustrator 27.5.0, SVG Export Plug-In . SVG Version: 6.00 Build 0)  -->
<svg version="1.1" id="Layer_1" xmlns="http://www.w3.org/2000/svg" xmlns:xlink="http://www.w3.org/1999/xlink" x="0px" y="0px"
	 viewBox="0 0 4000 4000" style="enable-background:new 0 0 4000 4000;" xml:space="preserve">
<g>
	<g>
		<rect style="fill:#75DCFF;" width="4000" height="4000"/>
	</g>
	<g>
		<g>
			<g>
				<path style="fill:#3472E0;" d="M1714.985,1672.931c-141.181,227.848-250.969,445.826-115.775,586.779
					c19.653,20.49,50.016,26.515,76.078,15.25c97.869-42.303,182.581-123.194,251.708-249.794"/>
			</g>
			<g>
				<path style="fill:#020076;" d="M1722.421,1677.538c-73.835,148.565-247.699,414.482-111.136,562.702
					c6.243,7.978,14.559,14.227,24.399,17.117c10.307,3.006,21.648,2.402,31.59-1.796c2.135-1.057,15.911-7.08,18.403-8.281
					c59.232-27.996,110.271-69.839,153.712-119.35c29.394-32.963,54.841-69.696,78.746-107.603
					c2.904-4.853,9.274-6.384,14.057-3.354c4.41,2.781,5.911,8.453,3.663,13.03c-10.182,20.543-20.625,41.089-32.822,60.698
					c-23.996,39.863-52.24,77.053-85.309,110.004c-33.24,33.575-71.694,61.836-113.671,83.724
					c-11.635,5.542-23.101,11.99-35.775,14.925c-29.966,7.491-63.263-2.18-84.777-24.395c-7.803-8.35-15.839-17.346-22.509-26.625
					c-104.049-144.93-8.708-332.864,70.867-466.219c23.825-39.002,49.054-76.908,75.689-113.792
					C1713.844,1659.942,1727.385,1667.712,1722.421,1677.538L1722.421,1677.538z"/>
			</g>
			<g>
				<path style="fill:#4599F4;" d="M3308.734,1764.699c-29.473,60.317-134.404,101.94-359.656,57.762
					c1.371,19.69,2.492,39.256,3.24,58.572c5.982,147.427-5.608,284.261-31.965,408.633c-0.063,0.187-0.063,0.312-0.125,0.499
					c-106.053,499.668-450.879,799.755-856.334,786.359c-48.478-1.558-90.911,31.28-101.255,78.636
					c-7.726,35.579-17.26,68.977-28.289,99.946c-58.883,165.185-161.695,262.888-278.715,274.478
					c-51.593,5.109-93.03-42.496-80.817-92.905c39.38-162.506-66.423-329,39.567-430.566c7.477-7.228,16.076-14.082,25.859-20.625
					c-6.293-2.43-12.213-5.047-17.759-7.789c-156.898-77.763-25.797-277.967-44.49-435.738
					c-5.795-48.851,38.196-88.979,86.425-79.321c26.046,5.234,50.16,12.711,72.467,22.245
					c128.547,54.896,197.587,178.769,223.633,340.278c6.542,40.564,41.25,68.292,79.633,68.354
					c9.284,0.063,18.756-1.558,28.102-4.985c68.043-24.862,112.47-76.517,119.324-170.482
					c5.297-71.782-14.768-142.878-53.213-203.631c-195.032-308.25-512.566-512.878-869.481-696.881
					c-319.279-161.883-431.251-267.935-409.816-468.388c0.81-7.29,1.744-14.705,2.866-22.245
					c-39.567-73.34-34.645-130.79-10.219-167.74c30.096-45.736,89.914-60.192,132.597-34.956
					c82.749,47.543,131.974,74.773,189.05,40.751c0.063-0.499,0.124-0.935,0.249-1.433c2.119-13.522,4.611-26.794,7.477-39.941
					c148.984-693.703,1252.94-893.284,1606.988,198.958c276.036,88.419,486.583,248.868,526.088,367.632
					C3319.327,1717.717,3319.327,1743.077,3308.734,1764.699z"/>
			</g>
			<g style="opacity:0.6;">
				<path style="fill:#FFFFFF;" d="M1185.191,1170.537c-24.987,75.52-111.723,83.434-205.811,25.921
					c-94.089-57.45-131.662-5.546-131.662-5.546v-28.04c30.096-45.736,89.914-60.192,132.597-34.956
					c82.749,47.543,131.974,74.773,189.05,40.751c0.063-0.499,0.124-0.935,0.249-1.433c2.119-13.522,4.611-26.794,7.477-39.941
					C1186.562,1141.064,1190.114,1155.645,1185.191,1170.537z"/>
			</g>
			<g>
				<path style="fill:#3472E0;" d="M3308.734,1764.699c-29.473,60.317-134.404,101.94-359.656,57.762
					c1.371,19.69,2.492,39.256,3.24,58.572c-7.353-6.979-11.652-12.026-11.901-14.082c-1.184-9.222-23.429-102.563-37.075-159.39
					c0,0,402.713,137.021,406.826-17.385C3319.327,1717.717,3319.327,1743.077,3308.734,1764.699z"/>
			</g>
			<g>
				<path style="fill:#3472E0;" d="M2920.228,2290.164c-106.053,499.668-450.879,799.755-856.334,786.359
					c-48.478-1.558-90.911,31.28-101.255,78.636c-7.726,35.579-17.26,68.977-28.289,99.946
					c-58.883,165.185-161.695,262.888-278.715,274.478c-51.593,5.109-93.03-42.496-80.817-92.905
					c39.38-162.506-66.423-329,39.567-430.566l26.233,2.866c0,0-57.824,263.2,70.722,341.711
					c97.204,59.382,188.053-176.837,226.561-295.414c12.026-37.137,46.172-62.435,85.179-63.557
					C2214.997,2986.359,2770.122,2915.761,2920.228,2290.164z"/>
			</g>
			<g>
				<path style="fill:#3472E0;" d="M1732.34,2507.191c0,0-252.347,382.685,0,431.937c0,0-37.573,38.882-109.854,38.57
					c-156.898-77.763-25.797-277.967-44.49-435.738c-5.795-48.851,38.196-88.979,86.425-79.321
					c26.046,5.234,50.16,12.711,72.467,22.245L1732.34,2507.191z"/>
			</g>
			<g style="opacity:0.6;">
				<path style="fill:#FFFFFF;" d="M3308.734,1764.699c-44.49-247.498-587.027-399.535-587.027-399.535
					c-265.099-805.999-1219.163-1038.43-1538.56-267.628c-16.179,39.045,24.522,84.377-13.533,65.991l0,0
					c114.34-725.606,1253.688-953.912,1614.466,159.016C3124.17,1431.524,3364.876,1649.798,3308.734,1764.699z"/>
			</g>
			<g>
				<path style="fill:#EDEFF9;" d="M2042.522,2903.923c0,0-0.872-3.739-2.368-10.406c9.284,0.063,18.756-1.558,28.102-4.985
					c68.043-24.862,112.47-76.517,119.324-170.482c4.985-67.358-12.4-134.155-46.359-192.353c-2.243-3.801-4.486-7.54-6.854-11.278
					c-53.026-83.87-115.15-160.013-184.688-230.175c-185.997-187.866-424.958-332.738-684.793-466.706
					c-319.279-161.883-431.251-267.935-409.816-468.388c12.213-8.163,20.064-13.397,20.064-13.397
					c144.872,178.894,319.155,280.273,550.638,230.923c242.139,107.548,451.876,263.511,607.715,431.688
					c110.664,119.325,194.159,244.818,242.886,363.519C2380.183,2614.552,2326.782,2836.689,2042.522,2903.923z"/>
			</g>
			<g>
				<path style="fill:#020076;" d="M1648.295,3552.458c-28.128,0-55.227-12.222-73.941-33.733
					c-20.837-23.955-28.833-56.609-21.384-87.351c15.388-63.503,7.08-128.599-0.955-191.553
					c-11.462-89.812-23.269-182.354,46.44-249.619c-101.502-60.645-79.082-176.011-59.087-278.879
					c11.006-56.611,22.385-115.154,16.262-166.721c-3.606-30.359,7.261-59.714,29.812-80.54
					c22.724-20.984,53.123-29.543,83.403-23.469c89.697,17.976,162.324,62.278,215.862,131.675
					c48.491,62.859,81.467,146.731,98.013,249.287c2.822,17.49,13.135,32.612,28.291,41.492c15.027,8.804,33.081,10.396,49.529,4.38
					c65.593-24.016,98.835-72.009,104.622-151.042c4.773-65.229-12.454-130.913-49.814-189.954
					c-202.922-320.659-549.014-528.186-860.801-688.896c-183.809-93.191-284.192-160.691-346.35-232.913
					c-66.043-76.738-88.872-161.419-73.569-273.726c-41.702-81.677-37.207-158.306,12.473-206.052
					c40.051-38.496,99.529-46.729,144.648-20.017c77.212,44.368,115.962,64.714,157.217,45.535
					c28.667-167.971,111.343-315.742,239.575-427.917c124.124-108.581,284.722-175.735,452.209-189.089
					c195.108-15.579,384.841,39.724,548.682,159.863c184.072,134.98,322.815,340.671,412.49,611.465
					c253.289,83.406,467.839,231.965,523.945,363.516c16.787,39.365,17.856,76.15,3.093,106.375
					c-23.347,47.795-100.566,119.265-355.586,75.261c11.567,205.867-9.812,397.378-63.635,569.68
					c-53.53,171.357-136.455,316.172-246.475,430.417c-155.544,161.521-358.513,249.519-573.972,249.529
					c-8.701,0-17.388-0.142-26.128-0.43c-37.532-1.199-70.569,24.395-78.535,60.938
					c-50.173,230.156-172.327,376.704-326.763,392.017C1654.672,3552.301,1651.476,3552.458,1648.295,3552.458z M1649.938,2483.708
					c-12.49,0-24.487,4.663-33.965,13.416c-11.833,10.928-17.539,26.299-15.654,42.17c6.953,58.557-5.11,120.608-16.775,180.618
					c-24.6,126.543-34.629,206.055,64.844,244.575c7.83,3.032,13.32,10.171,14.241,18.516c0.918,8.347-2.886,16.511-9.866,21.174
					c-78.743,52.607-68.755,130.869-56.111,229.949c8.154,63.877,17.395,136.279,0.054,207.844
					c-4.082,16.843,0.147,34.055,11.602,47.219c11.44,13.154,27.859,19.714,45.122,18.015c63.24-6.27,122.764-40.811,172.131-99.888
					c52.302-62.585,92.102-151.431,115.102-256.934c12.593-57.766,64.788-98.228,123.982-96.328l0,0
					c8.201,0.271,16.416,0.405,24.583,0.405c203.169,0.01,394.658-83.132,541.624-235.742
					c219.946-228.396,324.998-581.638,295.798-994.656c-0.493-6.987,2.295-13.806,7.544-18.445
					c5.247-4.636,12.349-6.567,19.231-5.222c264.902,51.968,323.464-21.743,335.103-45.574c8.984-18.394,7.622-41.597-4.053-68.97
					c-44.023-103.22-232.393-253.796-507.239-341.875c-6.895-2.207-12.305-7.6-14.539-14.487
					c-192.114-592.588-600.361-776.643-918.369-751.279c-334.38,26.663-602.786,269.368-652.715,590.22
					c-1.03,6.624-4.961,12.444-10.72,15.874c-69.333,41.269-129.094,6.926-211.816-40.608
					c-27.59-16.333-65.671-10.552-90.793,13.594c-35.583,34.197-35.789,93.599-0.549,158.901c2.31,4.282,3.169,9.197,2.451,14.009
					c-29.114,194.907,55.759,295.349,394.844,467.266c317.297,163.55,669.661,375.137,878.347,704.902
					c42.551,67.244,62.148,142.385,56.665,217.302c-7.031,96.096-52.126,160.027-134.026,190.012
					c-29.106,10.652-61.084,7.813-87.747-7.808c-26.787-15.691-45.002-42.354-49.971-73.152
					c-31.887-197.651-125.518-313.391-278.293-344.009C1656.64,2484.04,1653.271,2483.708,1649.938,2483.708z"/>
			</g>
			<g>
				<path style="fill:#020076;" d="M1464.306,1531.631c-9.419,11.135-7.093,25.385-0.42,36.665
					c2.375,4.38,8.032,9.321,12.988,12.814c7.143,5.459,8.507,15.675,3.048,22.817c-11.652,13.679-35.535,3.719-46.715-6.97
					c-21.203-20.205-24.267-55.714-4.71-78.15c9.615-11.367,35.426-23.946,41.796-3.493
					C1472.058,1521.786,1468.38,1527.24,1464.306,1531.631L1464.306,1531.631z"/>
			</g>
			<g>
				<path style="fill:#020076;" d="M874.733,1299.881c91.998,132.865,235.484,238.583,397.262,263.582
					c53.527,7.822,108.75,5.247,161.541-10.013c5.347-1.546,10.933,1.536,12.479,6.882c1.436,4.964-1.121,10.14-5.773,12.087
					c-26.773,11.361-55.284,18.912-84.289,23.161c-117.032,16.445-235.528-24.003-332.253-88.214
					c-72.773-48.522-136.094-111.322-182.57-185.785C828.088,1299.203,859.539,1278.632,874.733,1299.881L874.733,1299.881z"/>
			</g>
			<g>
				<path style="fill:#4599F4;" d="M2014.075,1865.733c-141.181,227.848-250.969,445.826-115.775,586.779
					c19.653,20.49,50.016,26.515,76.078,15.25c97.869-42.303,182.581-123.194,251.708-249.794"/>
			</g>
			<g>
				<path style="fill:#020076;" d="M2021.511,1870.34c-73.835,148.565-247.699,414.482-111.136,562.702
					c6.243,7.978,14.559,14.227,24.399,17.117c10.307,3.006,21.648,2.402,31.59-1.796c2.135-1.057,15.911-7.08,18.403-8.281
					c59.232-27.996,110.271-69.839,153.712-119.35c29.394-32.963,54.841-69.696,78.746-107.603
					c2.904-4.853,9.274-6.384,14.057-3.354c4.41,2.781,5.91,8.453,3.663,13.03c-10.183,20.543-20.626,41.089-32.822,60.698
					c-23.996,39.864-52.24,77.053-85.309,110.004c-33.239,33.575-71.694,61.836-113.671,83.724
					c-11.635,5.541-23.101,11.99-35.775,14.925c-29.966,7.491-63.263-2.18-84.777-24.395c-7.803-8.35-15.839-17.346-22.509-26.625
					c-104.049-144.93-8.708-332.864,70.867-466.219c23.825-39.002,49.054-76.908,75.689-113.792
					C2012.935,1852.744,2026.475,1860.515,2021.511,1870.34L2021.511,1870.34z"/>
			</g>
			<g>
				
					<ellipse transform="matrix(0.5 -0.866 0.866 0.5 -273.7261 2195.8289)" style="fill:#020076;" cx="1764.781" cy="1334.968" rx="147.073" ry="120.947"/>
			</g>
			<g>
				
					<ellipse transform="matrix(0.5 -0.866 0.866 0.5 -197.9449 2209.0342)" style="fill:#FFFFFF;" cx="1814.103" cy="1275.942" rx="35.341" ry="38.975"/>
			</g>
			<g>
				<path style="fill:#020076;" d="M2006.822,913.596c53.896,1.11,110.426,31.773,130.905,83.882
					c6.983,17.5,9.018,36.053,7.009,53.034c-1.492,12.606-12.921,21.616-25.526,20.124c-33.656-4.663-8.067-58.529-101.741-85.111
					c-4.597-1.374-9.506-2.589-14.131-3.812c-0.454-0.131-1.409-0.321-1.119-0.409
					C1957.504,976.618,1961.835,912.206,2006.822,913.596L2006.822,913.596z"/>
			</g>
		</g>
		<g>
			<g>
				<path style="fill:#46A0F2;" d="M1357.641,2808.268c-75.97-69.474-134.024-95.658-219.771-107.832
					c-19.357-2.756-38.434-8.142-55.8-17.078c-91.721-47.314-102.236-153.774-52.363-216.819
					c34.61-43.8,98.371-66.706,184.316-34.441c75.417,31.903,132.014,100.516,159.298,174.059
					C1400.457,2679.156,1398.63,2756.903,1357.641,2808.268z"/>
			</g>
			<g>
				<path style="fill:#3582D8;" d="M1357.641,2808.268c-75.97-69.474-134.024-95.658-219.771-107.832
					c-19.357-2.756-38.434-8.142-55.8-17.078c-91.721-47.314-102.236-153.774-52.363-216.819l7.197,2.841
					c0,0-47.284,111.144,123.401,164.004c140.057,43.426,197.116-7.63,213.017-27.227
					C1400.457,2679.156,1398.63,2756.903,1357.641,2808.268z"/>
			</g>
			<g style="opacity:0.6;">
				<path style="fill:#FFFFFF;" d="M1380.54,2767.005c5.299-104.976-65.244-233.336-177.218-280.678
					c-105.19-39.517-177.114,3.661-203.158,66.613c0.186-87.771,80.184-171.012,213.86-120.841
					C1346.336,2488.034,1420.765,2657.099,1380.54,2767.005z"/>
			</g>
			<g>
				<path style="fill:#020076;" d="M1357.672,2830.79c-5.601,0-11.02-2.09-15.183-5.896
					c-70.352-64.333-122.778-90.112-207.771-102.161c-23.242-3.296-44.431-9.819-62.976-19.39
					c-93.208-48.091-110.786-147.749-80-217.104c30.603-68.958,113.65-118.95,230.164-75.203c0.288,0.107,0.571,0.222,0.855,0.342
					c87.234,36.882,157.043,121.375,182.19,220.503c18.75,73.926,7.927,143.342-29.697,190.449
					c-3.887,4.868-9.617,7.905-15.825,8.391C1358.842,2830.768,1358.256,2830.79,1357.672,2830.79z M1136.994,2439.264
					c-54.221,0-88.535,30.117-104.121,65.232c-22.439,50.552-9.209,123.406,59.504,158.857c14.053,7.253,30.422,12.239,48.66,14.824
					c85.884,12.175,143.913,37.979,211.97,95.959c17.817-34.927,20.969-81.343,8.323-131.191
					c-21.382-84.299-82.456-158.801-155.671-189.941C1179.994,2443.417,1157.118,2439.264,1136.994,2439.264z"/>
			</g>
		</g>
		<g>
			<g>
				<path style="fill:#46A0F2;" d="M1007.456,2870.203c-23.554,19.136-28.411,45.343-20.86,67.5
					c13.763,40.383,65.346,50.717,97.194,22.327c33.262-29.651,79.208-48.613,136.643-57.892
					c-46.695-46.618-109.372-61.156-188.029-43.616C1023.339,2860.544,1014.665,2864.346,1007.456,2870.203z"/>
			</g>
			<g style="opacity:0.6;">
				<path style="fill:#FFFFFF;" d="M1220.466,2902.15c-8.054,1.331-15.893,2.817-23.51,4.521
					c-40.003-20.51-88.31-24.449-144.736-11.844c-9.084,1.998-17.754,5.823-24.968,11.689
					c-19.628,15.958-26.301,36.878-23.514,56.183c-7.545-6.255-13.595-14.638-17.118-24.997
					c-7.586-22.145-2.699-48.397,20.85-67.496c7.213-5.866,15.884-9.691,24.906-11.679
					C1111.046,2840.97,1173.763,2855.508,1220.466,2902.15z"/>
			</g>
			<g>
				<path style="fill:#020076;" d="M1041.854,2998.627c-7.204,0-14.455-0.918-21.599-2.795
					c-26.26-6.907-46.292-25.447-54.956-50.869c-11.443-33.572-0.725-68.909,27.969-92.222l0,0
					c9.619-7.815,21.138-13.257,34.238-16.179c86.292-19.238,156.55-2.532,208.823,49.653c5.982,5.969,8.113,14.79,5.518,22.834
					c-2.598,8.042-9.482,13.953-17.825,15.3c-53.806,8.694-95.95,26.35-125.259,52.476
					C1082.812,2991.046,1062.543,2998.627,1041.854,2998.627z M1021.642,2887.667L1021.642,2887.667
					c-20.022,16.27-16.287,35.337-13.75,42.778c5.083,14.912,17.1,20.1,23.809,21.865c13.025,3.423,26.902,0.032,37.119-9.077
					c25.884-23.074,59.082-40.601,99.06-52.349c-35.537-18.608-78.662-21.975-130.579-10.403
					C1031.156,2881.852,1025.741,2884.337,1021.642,2887.667z"/>
			</g>
		</g>
	</g>
</g>
</svg>
