<?xml version="1.0" encoding="utf-8"?>
<!-- Generator: Adobe Illustrator 27.5.0, SVG Export Plug-In . SVG Version: 6.00 Build 0)  -->
<svg version="1.1" xmlns="http://www.w3.org/2000/svg" xmlns:xlink="http://www.w3.org/1999/xlink" x="0px" y="0px"
	 viewBox="0 0 500 500" style="enable-background:new 0 0 500 500;" xml:space="preserve">
<g id="BACKGROUND">
	<rect style="fill:#FFFFFF;" width="500" height="500"/>
</g>
<g id="OBJECTS">
	<g>
		<g>
			<g>
				<circle style="fill:#F3929E;" cx="388.234" cy="67.979" r="49.694"/>
				<g>
					<path style="fill:#933642;" d="M357.529,107.037c4.98-1.27,11.042-4.025,10.367-9.882
						c-1.129-9.788-13.929-13.929-18.447-23.341c-3.167-6.599,0.141-24.656-2.785-33.054c-5.13,7.82-8.124,17.167-8.124,27.218
						C338.54,83.831,345.971,97.938,357.529,107.037z"/>
					<path style="fill:#933642;" d="M390.861,41.438c9.035,13.176,27.859,22.588,25.6,34.635
						c-1.94,10.344-10.263,28.461,7.922,25.986c8.392-8.898,13.545-20.883,13.545-34.08c0-16.003-7.573-30.23-19.321-39.319
						C394.311,19.584,382.973,29.935,390.861,41.438z"/>
				</g>
				<path style="fill:#933642;" d="M379.567,63.743c-16.091-13.842-14.198-35.926,1.232-44.902
					c-4.217,0.633-8.261,1.796-12.061,3.419c-3.132,4.043-5.617,9.152-7.053,15.602c-7.224,32.429,22.4,35.953,23.906,52.894
					c0.867,9.749-5.745,18.867-11.517,24.859c4.489,1.333,9.239,2.059,14.16,2.059c0.488,0,0.971-0.023,1.456-0.037
					C407.042,92.164,398.842,80.323,379.567,63.743z"/>
				<g>
					
						<path style="fill:none;stroke:#933642;stroke-width:0.75;stroke-linecap:round;stroke-linejoin:round;stroke-miterlimit:10;" d="
						M402.517,20.373c-28.02,0.964-28.867,19.599-18.138,29.199c10.729,9.6,26.824,18.918,22.306,35.012
						c-4.518,16.094-5.784,27.425,2.238,28.583"/>
					
						<path style="fill:none;stroke:#933642;stroke-width:0.75;stroke-linecap:round;stroke-linejoin:round;stroke-miterlimit:10;" d="
						M355.175,30.881c2.099,10.221-3.171,23.723,1.346,35.89c4.518,12.167,15.089,13.114,19.012,25.531
						c2.482,7.856-1.085,15.933-9.201,20.296"/>
				</g>
			</g>
			<path style="fill:#F3929E;" d="M437.172,59.445c-9.071,20.716-30.416,34.869-52.579,37.005
				c-15.846,1.528-31.767-3.947-43.892-13.947c6.214,20.358,25.141,35.169,47.531,35.169c27.445,0,49.694-22.249,49.694-49.694
				c0-2.917-0.266-5.771-0.748-8.551C437.177,59.434,437.175,59.44,437.172,59.445z"/>
			<path style="opacity:0.53;fill:#F3929E;" d="M345.923,61.555c4.595,5.095,17.458,0.985,28.729-9.18s16.684-22.536,12.088-27.631
				c-4.595-5.095-17.458-0.985-28.729,9.18C346.74,44.089,341.327,56.46,345.923,61.555z"/>
		</g>
		<g>
			<g>
				<g>
					<g>
						<path style="fill:#4978C2;" d="M298.069,197.493c11.294,3.388,18.07,32.753,12.8,60.988
							c-5.271,28.235-13.929,28.988-17.694,13.553s-9.788-37.27-21.835-43.294C259.293,222.716,298.069,197.493,298.069,197.493z"/>
						<path style="opacity:0.46;fill:#4978C2;" d="M299.347,282.025c6.091-12.429,6.641-48.992-9.887-78.511
							c-10.646,7.854-26.407,21.082-18.121,25.225c12.047,6.024,18.071,27.859,21.835,43.294
							C294.648,278.073,296.872,281.619,299.347,282.025z"/>
						
							<path style="fill:none;stroke:#233993;stroke-width:0.75;stroke-linecap:round;stroke-linejoin:round;stroke-miterlimit:10;" d="
							M303.261,212.947c7.425,18.177,6.207,61.814-3.914,69.078"/>
					</g>
					<path style="opacity:0.56;fill:#4978C2;" d="M290.482,237.908c1.809-8.381,5.585-15.748,11.328-22.102
						c2.155-1.828,4.311-3.657,6.466-5.486c-2.554-6.864-6.076-11.588-10.207-12.827c0,0-38.776,25.223-26.729,31.247
						c7.128,3.564,12.147,12.665,15.837,22.7C287.976,246.817,289.116,242.265,290.482,237.908z"/>
				</g>
				<g>
					<g>
						<g>
							<path style="fill:#4978C2;" d="M328.563,143.658c16.565-14.306,39.179-26.353,36.531-35.012
								c-2.648-8.659-29.378-7.529-29.378-7.529s-9.788-37.647-40.282-37.647c-30.494,0-70.212,14.338-101.459,70.4
								c-24.659,44.243-62.117,134.4-36.141,247.341c0,0-26.259,36.988-27.388,59.012c-1.129,22.023,3.388,34.165,5.929,33.035
								s3.671-9.6,11.012-19.2c7.341-9.6,26.541-28.8,27.388-36.423c0,0,13.553,7.624,27.671,9.882
								c14.118,2.259,27.106,9.6,30.777,14.4c3.671,4.8,7.059-11.012-1.977-24.847c-9.035-13.835-47.718-41.223-47.718-41.223
								s-0.282-57.129,42.635-92.518c41.416-34.15,70.21-67.598,82.324-88.166c0,0,11.605,14.943,24.405,12.872
								c12.8-2.07,10.447-16.847,5.647-28.141C333.74,168.599,328.563,143.658,328.563,143.658z"/>
							<path style="opacity:0.6;fill:#4978C2;" d="M235.378,93.825c12.209-6.15,24.315-9.443,37.732-11.915
								c12.759-2.351,25.579-2.67,38.459-0.854c6.528,0.921,12.554,2.819,18.079,5.586c-5.9-10.612-16.596-23.173-34.214-23.173
								c-26.185,0-59.17,10.573-87.753,49.056C216.305,105.392,225.302,98.901,235.378,93.825z"/>
							<path style="opacity:0.46;fill:#4978C2;" d="M252.328,101.116c-15.901,7.888-17.129,23.718-14.118,43.482
								c3.012,19.765-10.729,23.718-12.988,38.4c0,0-14.588,13.553-34.071,24.565c-19.482,11.012-47.059,81.412-27.482,171.012
								l1.129,4.329c0,0-12.424,10.874-23.341,41.412c-8.954,25.046-7.777,42.806-4.573,48.595c2.217-1.97,3.67-9.919,10.502-18.854
								c7.341-9.6,26.541-28.8,27.388-36.423c0,0,13.553,7.624,27.671,9.882c14.118,2.259,27.106,9.6,30.777,14.4
								c3.671,4.8,7.059-11.012-1.977-24.847c-9.035-13.835-47.718-41.223-47.718-41.223s-0.282-57.129,42.635-92.517
								c41.416-34.15,70.21-67.598,82.324-88.166c0,0,11.605,14.943,24.405,12.872c12.8-2.071,10.447-16.847,5.647-28.141
								c-4.8-11.294-9.976-36.235-9.976-36.235c16.565-14.306,39.179-26.353,36.53-35.012c-2.648-8.659-29.378-7.529-29.378-7.529
								c-13.929,1.318-36.141,2.447-53.459,10.541C282.257,111.658,269.262,92.716,252.328,101.116z"/>
							<g style="opacity:0.34;">
								<path style="fill:#4978C2;" d="M263.057,147.422c-14.187-3.547-5.397,52.998,23.445,77.469
									c9.771-11.423,17.19-21.589,21.985-29.73C293.551,179.046,281.128,151.94,263.057,147.422z"/>
								<path style="fill:#4978C2;" d="M183.528,375.845c0,12.424-0.847,32.471-5.647,39.529
									c-4.416,6.493,15.049-3.038,17.537-30.761C188.565,379.414,183.528,375.845,183.528,375.845z"/>
							</g>
							
								<path style="fill:none;stroke:#233993;stroke-width:0.75;stroke-linecap:round;stroke-linejoin:round;stroke-miterlimit:10;" d="
								M177.232,410.418c6.677-3.388,6.296-34.573,6.296-34.573"/>
						</g>
						<g>
							<g>
								<path style="fill:#933642;" d="M346.069,114.669c-14.463,2.818-60.784,19.501-71.642,13.213
									c0.986,0.478,12.535,6.344,20.818,22.552c8.659,16.941,14.494,33.129,31.435,43.482
									c16.941,10.353,11.859-14.023,11.859-14.023c-4.8-11.294-9.976-36.235-9.976-36.235
									c10.964-9.469,24.571-17.947,31.756-25.109C361.286,114.158,356.995,112.541,346.069,114.669z"/>
								<path style="fill:#4E1D23;" d="M356.144,115.266c0.24-0.525,0.319-0.976,0.263-1.361c-2.35-0.354-5.752-0.129-10.338,0.764
									c-14.463,2.818-60.784,19.501-71.642,13.213c0.827,0.401,9.088,4.598,16.618,15.507c3.182,2.173,6.161,5.182,8.816,10.484
									c6.4,12.781,18.361,38.816,28.663,30.034c10.302-8.783-21.6-45.227-21.6-45.227
									C321.345,139.936,351.257,125.98,356.144,115.266z"/>
							</g>
							<g>
								<g>
									<path style="fill:#F3929E;" d="M289.975,138.01c12.988,2.259,17.882,32.941,29.929,44.047
										c12.047,11.106,13.929-3.012,12.988-20.034c-0.941-17.022-2.259-27.966-20.206-24.201
										C306.062,132.169,298.298,133.4,289.975,138.01z"/>
								</g>
								<g style="opacity:0.42;">
									<path style="fill:#F3929E;" d="M303.412,134.064c-3.118-0.13-6.391,0.674-9.774,2.14
										C297.012,134.855,300.281,134.079,303.412,134.064z"/>
									<path style="fill:#F3929E;" d="M317.856,137.12c-1.208,0.061-2.516,0.214-3.936,0.469c0.04,0.031,0.082,0.055,0.122,0.086
										C315.405,137.415,316.667,137.237,317.856,137.12z"/>
									<path style="fill:#F3929E;" d="M321.689,180.177c-12.701-10.617-17.902-39.842-31.508-42.276
										c-0.069,0.038-0.137,0.071-0.206,0.109c12.988,2.259,17.882,32.941,29.929,44.047c5.417,4.994,8.774,4.877,10.748,1.701
										C328.536,184.448,325.626,183.468,321.689,180.177z"/>
								</g>
								
									<path style="fill:none;stroke:#933642;stroke-width:0.75;stroke-linecap:round;stroke-linejoin:round;stroke-miterlimit:10;" d="
									M311.956,136.796c8.941,9.6,6.254,24.556,11.525,34.156"/>
								<path style="opacity:0.52;fill:#F3929E;" d="M312.687,137.822c-5.46-4.66-11.696-4.635-18.379-1.903
									c8.562-2.209,14.202,0.902,17.649,12.9c3.812,13.27,12,26.682,12.565,19.059c0.565-7.624-1.835-18.635-2.824-26.259
									c-0.225-1.733-0.823-3.222-1.598-4.504C318.01,136.997,315.564,137.219,312.687,137.822z"/>
							</g>
							<path style="fill:#FFFFFF;" d="M346.069,114.669c-11.172,2.176-41.342,12.618-59.503,14.363
								c8.67,2.174,20.05-0.18,32.873-4.535c16.094-5.466,36.423-12.666,37.694-5.89c0.192,1.026,0.421,1.767,0.67,2.278
								c0.62,2.095,1.529,0.795,2.517-2.336C361.286,114.158,356.995,112.541,346.069,114.669z"/>
						</g>
					</g>
					<g>
						<path style="opacity:0.56;fill:#4978C2;" d="M213.839,196.477L158.83,223.5c-1.931,7.927-3.65,16.18-5.088,24.742
							C198.09,237.73,213.839,196.477,213.839,196.477z"/>
						<path style="opacity:0.46;fill:#4978C2;" d="M365.282,109.81c-0.021-0.394-0.072-0.783-0.189-1.164
							c-1.659-5.423-12.761-7.006-20.828-7.432c-1.162,0.313-2.349,0.666-3.563,1.075c-15.617,5.26-38.205,12.79-38.205,12.79
							c11.482,1.694,27.671-3.3,43.106-6.074C358.707,106.65,363.024,105.57,365.282,109.81z"/>
						<path style="opacity:0.37;fill:#4978C2;" d="M276.722,164.871c4.932,8.054,9.024,16.63,12.899,25.228
							c3.148,6.985,5.521,14.402,7.279,21.972c4.789-6.268,8.676-11.964,11.589-16.91c-14.596-15.748-26.796-41.979-44.207-47.383
							C269.219,152.751,273.127,159.001,276.722,164.871z"/>
					</g>
				</g>
				<g>
					
						<path style="fill:none;stroke:#233993;stroke-width:0.75;stroke-linecap:round;stroke-linejoin:round;stroke-miterlimit:10;" d="
						M282.257,111.658c-7.529,3.2-8.659,10.541-8.659,10.541"/>
					
						<path style="fill:none;stroke:#233993;stroke-width:0.75;stroke-linecap:round;stroke-linejoin:round;stroke-miterlimit:10;" d="
						M249.274,117.673c0-6.189,5.017-11.206,11.206-11.206c6.189,0,11.206,5.017,11.206,11.206"/>
				</g>
				<g>
					<circle style="fill:#FFFFFF;" cx="260.48" cy="117.729" r="8.725"/>
					<path style="fill:#230D11;" d="M264.513,115.723c-1.541,0-2.791-1.249-2.791-2.791c0-0.692,0.261-1.317,0.678-1.804
						c-0.61-0.179-1.253-0.279-1.921-0.279c-3.769,0-6.824,3.055-6.824,6.824s3.055,6.824,6.824,6.824s6.824-3.055,6.824-6.824
						c0-1.055-0.246-2.05-0.674-2.941C266.118,115.333,265.365,115.723,264.513,115.723z"/>
				</g>
				<g>
					<path style="fill:#4978C2;" d="M225.222,182.999c-9.506,21.741-61.459,49.412-88.565,58.165
						c-27.106,8.753-8.471-8.753,5.647-23.153c14.118-14.4,33.882-37.27,54.494-41.506S225.222,182.999,225.222,182.999z"/>
					<path style="opacity:0.46;fill:#4978C2;" d="M128.72,243.24c2.033-0.341,4.645-1.014,7.938-2.077
						c26.098-8.428,75.224-34.392,87.325-55.716c-7.988,1.137-21.674,7.946-37.066,20.14
						C165.301,222.71,142.853,227.559,128.72,243.24z"/>
					
						<path style="fill:none;stroke:#233993;stroke-width:0.75;stroke-linecap:round;stroke-linejoin:round;stroke-miterlimit:10;" d="
						M213.839,183.125c-16.941,1.976-23.435,17.826-50.541,31.219c-27.106,13.393-40.528,27.956-37.553,28.426"/>
				</g>
			</g>
			<g>
				<g>
					<path style="fill:#C6E0FF;" d="M199.811,286.534c29.365,5.829,34.635,39.463,45.553,36.387
						c10.918-3.076-1.591-30.777,3.911-31.985c5.501-1.208,27.43,4.862,28.136-9.82c0.706-14.682-25.692-20.186-25.692-20.186
						l-5.084,4.939c0,0,17.365,5.647,16.8,11.718c-0.565,6.071-20.41-0.847-24.817,6.353c-4.407,7.2,4.11,27.641,0,22.87
						C232.657,299.892,216.846,284.081,199.811,286.534z"/>
					<path style="fill:#C6E0FF;" d="M266.634,302.34c2.13,6.177,26.353,3.953,23.341-3.2
						C286.963,291.987,264.752,296.881,266.634,302.34z"/>
					<path style="fill:#C6E0FF;" d="M269.019,256.222c-3.503,4.694,11.916,11.21,13.424,6.922
						C283.952,258.857,271.969,252.269,269.019,256.222z"/>
					<path style="fill:none;stroke:#C6E0FF;stroke-miterlimit:10;" d="M247.787,289.383c-8.161,4.706,2.244,11.154,5.863,28.43
						c3.619,17.276-15.906,13.17-21.365-9.418"/>
					<path style="fill:none;stroke:#C6E0FF;stroke-miterlimit:10;" d="M280.192,303.972c-1.731,8.654,16.376,6.212,15.812,0
						C295.439,297.76,281.039,299.736,280.192,303.972z"/>
				</g>
				<g>
					<path style="fill:#C6E0FF;" d="M141.175,258.951c-19.2,12.141-51.67,11.576-51.953,29.647
						c-0.282,18.071,51.953,11.294,51.953,11.294s-12.456,16.565,2.541,22.306c13.617,5.213,38.965-19.482,38.965-19.482
						s-20.251,11.017-33.702,9.038c-13.451-1.979-0.062-14.693-0.062-14.693l0.238-8.154c0,0-47.497,10.974-49.768-2.373
						C97.614,276.112,130.268,273.069,141.175,258.951z"/>
					<path style="fill:#C6E0FF;" d="M108.14,259.94c2.503-6.674-22.023-10.588-22.729-3.671
						C84.705,263.187,106.022,265.587,108.14,259.94z"/>
					<path style="fill:#C6E0FF;" d="M120.589,316.269c-4.8-7.482-29.348-5.845-24.141,4.376
						C100.259,328.128,123.937,321.489,120.589,316.269z"/>
					<path style="fill:none;stroke:#C6E0FF;stroke-miterlimit:10;" d="M85.394,280.819c9.654-10.113-17.813-11.012-22.613-3.106
						C57.98,285.619,78.925,287.595,85.394,280.819z"/>
					<path style="fill:none;stroke:#C6E0FF;stroke-miterlimit:10;" d="M79.627,280.725c-10.085,1.478-16.901,11.859-4.874,9.412
						C86.78,287.689,84.763,279.972,79.627,280.725z"/>
					<path style="fill:none;stroke:#C6E0FF;stroke-miterlimit:10;" d="M141.368,302.56c-18.635,22.4,3.577,32.296,30.118,8.148"/>
					<path style="fill:none;stroke:#C6E0FF;stroke-miterlimit:10;" d="M91.862,288.254c-5.27,18.635,37.366,19.716,47.273,17.201"/>
					<path style="fill:none;stroke:#C6E0FF;stroke-miterlimit:10;" d="M120.577,326.028c1.833,4.424,9.031,3.644,7.072-2.174
						C125.691,318.035,118.401,320.775,120.577,326.028z"/>
				</g>
			</g>
		</g>
	</g>
</g>
</svg>
