<?xml version="1.0" encoding="utf-8"?>
<!-- Generator: Adobe Illustrator 27.5.0, SVG Export Plug-In . SVG Version: 6.00 Build 0)  -->
<svg version="1.1" xmlns="http://www.w3.org/2000/svg" xmlns:xlink="http://www.w3.org/1999/xlink" x="0px" y="0px"
	 viewBox="0 0 500 500" style="enable-background:new 0 0 500 500;" xml:space="preserve">
<g id="BACKGROUND">
	<g>
		<rect style="fill:#F7EAFF;" width="500" height="500"/>
		<g style="opacity:0.5;">
			<path style="fill:#F7EAFF;" d="M500,500h-87.9c-1.99-4.01-3.98-8.02-6.06-11.96c-9.23-17.55-21.27-34.97-39.35-43.11
				c-20.24-9.11-43.89-4.79-65.01,2.03c-21.12,6.83-42.03,16.07-64.22,16.46c-30.13,0.52-59.88-17.03-74-43.65
				c-10.99-20.72-13.18-46.16-28.48-63.94c-24.05-27.93-68.29-24.66-100.43-42.69C19.62,304.76,8.3,292.35,0,277.71V0h140.84
				c7.43,6.17,13.96,13.17,18.47,21.69c3.72,7.02,5.88,14.78,9.43,21.9c12.17,24.42,40.2,38.45,67.49,38.72
				c27.47,0.26,57.06-11.1,81.13,2.16c19.68,10.84,27.98,34.28,41.87,51.94c15.08,19.2,38.01,32.05,62.27,34.89
				c13.48,1.58,27.17,0.2,40.65,1.74c13.51,1.55,26.24,6.06,37.85,12.76V500z"/>
		</g>
	</g>
</g>
<g id="OBJECTS">
	<g>
		<path style="fill:#3286F8;stroke:#3A006E;stroke-linecap:round;stroke-linejoin:round;stroke-miterlimit:10;" d="M200.088,77.16
			l-63.282,45.642c-21.887-13.763-33.602-29.656-39.284-39.561c-2.956-5.154-0.237-11.651,5.451-13.366
			C146.325,56.802,200.088,77.16,200.088,77.16z"/>
		<path style="opacity:0.32;fill:#3286F8;" d="M181.179,73.956c-2.52,1.318-4.941,2.843-7.414,4.247
			c-5.086,2.888-10.21,5.713-15.228,8.719c-5.005,2.998-9.919,6.175-14.523,9.765c-2.024,1.578-3.951,3.277-5.973,4.855
			c-1.31,1.022-2.706,2.011-4.338,2.432c-1.756,0.454-3.592,0.199-5.322-0.246c-1.995-0.513-3.955-1.216-5.93-1.809
			c-3.966-1.192-7.925-2.418-11.792-3.906c-1.385-0.533-2.763-1.099-4.123-1.708c6.749,8.327,16.493,17.833,30.27,26.497
			l63.282-45.642c0,0-5.983-2.264-15.559-4.797C183.396,72.858,182.276,73.383,181.179,73.956z"/>
		<path style="fill:#3286F8;stroke:#3A006E;stroke-linecap:round;stroke-linejoin:round;stroke-miterlimit:10;" d="M229.593,272.19
			c14.91-4.141,39.487-16.945,51.728-56.518l-19.252-43.571c0,0-46.708,5.051-38.713,79.041c0.493,4.564,0.263,9.186-0.866,13.636
			c-0.021,0.084-0.043,0.169-0.065,0.253C221.286,269.409,225.236,273.401,229.593,272.19z"/>
		<path style="fill:#3286F8;stroke:#3A006E;stroke-linecap:round;stroke-linejoin:round;stroke-miterlimit:10;" d="M348.114,218.655
			c-1.65-0.5-3.29-1.05-4.87-1.73c-1.52-0.65-3.14-1.15-4.78-1.52c-7.48-1.73-15.31-0.81-22.4,2.13
			c-21.12,8.77-68.59,20.3-91.27,25.57c-14.06,3.27-27.07,10.2-37.27,20.42c-18.99,19.03-32.61,52.76,29.85,97.24
			c22.91-67.52,81.9-37.78,81.9-37.78c-11.94,1.22-19.74,19.99-19.74,19.99c-3.6,7.98-7.99,13.85-12.48,18.17
			c-12.26,11.79-25.3,12.05-25.3,12.05c14.2,8.3,13.89,27.35,12.89,36.12c-0.25,2.26-0.79,4.46-1.42,6.63
			c-3.08,10.62,1.2,26.47,1.2,26.47c-52.4-14.13-37.53-70.93-37.53-70.93c-52.166-8.653-81.843-42.68-98.566-75.35
			c-21.768-42.526-24.736-92.495-7.992-137.238C132.654,99.26,182.327,68.96,250.764,58.775
			c86.031-10.476,132.1,49.713,118.217,121.858c0.001,0.004,0.002,0.008,0.003,0.012
			C394.914,212.945,384.244,229.595,348.114,218.655z"/>
		<g>
			<path style="fill:#3286F8;stroke:#3A006E;stroke-linecap:round;stroke-linejoin:round;stroke-miterlimit:10;" d="M230.09,68.708
				c0.099,0.436-0.252,0.94-0.963,1.483c-1.743,1.338-5.664,2.874-10.356,3.929c-1.712,0.382-3.363,0.673-4.861,0.848
				c-2.568,0.313-4.724,0.329-6.092,0.054c-0.925-0.183-1.49-0.497-1.598-0.948c-0.336-1.506,4.731-3.929,11.327-5.404
				c0.176-0.038,0.344-0.076,0.52-0.107C224.427,67.187,229.762,67.241,230.09,68.708z"/>
			<path style="fill:#3A006E;stroke:#3A006E;stroke-linecap:round;stroke-linejoin:round;stroke-miterlimit:10;" d="M229.127,70.191
				c-1.743,1.338-5.664,2.874-10.356,3.929c-1.712,0.382-3.363,0.673-4.861,0.848c-2.568,0.313-4.724,0.329-6.092,0.054
				c1.743-1.338,5.664-2.866,10.364-3.921c0.176-0.038,0.344-0.076,0.52-0.107C223.112,70.038,227.033,69.771,229.127,70.191z"/>
		</g>
		<path style="opacity:0.32;fill:#3286F8;" d="M181.191,161.583c-2.975-0.846-5.992-1.514-9.036-1.998
			c3.271,0.594,6.512,1.334,9.722,2.206C181.648,161.724,181.421,161.648,181.191,161.583z"/>
		<path style="fill:#FFFFFF;stroke:#3A006E;stroke-linecap:round;stroke-linejoin:round;stroke-miterlimit:10;" d="M368.984,180.645
			c0.02-0.11,0.04-0.23,0.06-0.34c-21.82-20.14-54.06-31.3-86.67-31.3c-57.55,0-143.51,53.51-143.51,111.06
			c0,48.973,33.794,90.046,79.329,101.205v-2.794c-0.276,0.756-0.553,1.507-0.819,2.289c-62.46-44.48-48.84-78.21-29.85-97.24
			c10.2-10.22,23.21-17.15,37.27-20.42c22.68-5.27,70.15-16.8,91.27-25.57c7.09-2.94,14.92-3.86,22.4-2.13
			c1.64,0.37,3.26,0.87,4.78,1.52c1.58,0.68,3.22,1.23,4.87,1.73C384.244,229.595,394.914,212.945,368.984,180.645z"/>
		<path style="opacity:0.32;fill:#3286F8;" d="M175.904,316.425c-11.79-16.88-18.7-37.4-18.7-59.55
			c0-13.88,5.007-27.523,13.405-40.24c0.466-0.111,0.936-0.205,1.398-0.329c2.133-0.573,4.183-1.338,6.242-2.129
			c3.72-1.43,7.243-3.358,10.523-5.615c3.164-2.177,6.257-4.669,8.873-7.49c4.285-4.62,7.777-10.104,10.492-15.776
			c1.263-2.639,2.334-5.384,3.093-8.213c18.84-12.814,40.39-22.544,60.854-27.537c-21.046,2.103-44.727,10.346-66.225,22.634
			c-0.885-0.486-1.767-0.978-2.66-1.45c-0.825-0.436-1.654-0.864-2.486-1.286c-13.176-5.492-27.3-9.924-41.67-10.273
			c-0.294-0.007-0.445-0.219-0.469-0.446c-0.088,0.003-0.176,0.005-0.265,0.008c-1.289,0.958-2.602,1.884-3.94,2.772
			c-6.101,4.051-12.63,7.524-18.161,12.375c-2.877,2.523-5.307,5.386-7.538,8.487c-2.208,3.068-4.295,6.226-6.202,9.491
			c-3.878,6.641-7.294,13.967-8.216,21.681c-0.298,2.495-0.469,5.427,0.848,7.689c0.907,1.559,2.509,2.344,4.253,2.571
			c2.081,0.272,4.228-0.072,6.264-0.496c2.337-0.487,4.632-1.153,6.935-1.777c6.692-1.814,13.521-2.439,20.426-2.826
			c0.014-0.001,0.028-0.002,0.042-0.002c-8.851,13.035-14.156,27.076-14.156,41.368c0,48.97,33.79,90.05,79.33,101.21v-2.8
			c-0.28,0.76-0.55,1.51-0.82,2.29C194.504,344.475,181.834,329.635,175.904,316.425z"/>
		<path style="fill:#3286F8;stroke:#3A006E;stroke-linecap:round;stroke-linejoin:round;stroke-miterlimit:10;" d="M219.103,164.558
			c0,0-0.935,46.972-75.34,45.496c-4.59-0.091-9.174,0.544-13.507,2.059c-0.082,0.029-0.164,0.058-0.247,0.087
			c-4.26,1.519-8.583-2.065-7.76-6.512c2.817-15.216,13.417-40.821,51.762-56.486"/>
		<path style="fill:#3286F8;stroke:#3A006E;stroke-linecap:round;stroke-linejoin:round;stroke-miterlimit:10;" d="M370.254,140.845
			c1.21,3.4,6.04,8.34,18.43,15.46c0.46,0.26,0.9,0.53,1.34,0.79c20.02,12.05,13.97,21.27,7.28,26.24
			c-3.64,2.71-7.94,4.38-12.41,5.19c-6,1.08-11.77,1.49-17.27,1.39c-16.64-0.29-30.73-5.19-40.65-10.02
			c-24.349-8.374-32.778-31.131-32.778-31.131"/>
		<path style="fill:#F2005B;stroke:#3A006E;stroke-linecap:round;stroke-linejoin:round;stroke-miterlimit:10;" d="M371.704,209.655
			c-1.03,0.68-2.25,0.99-3.49,1.03c-15.13,0.47-34.68-22.49-41.24-30.79c9.92,4.83,24.01,9.73,40.65,10.02
			C377.324,203.015,374.364,207.895,371.704,209.655z"/>
		<g>
			<path style="fill:#FFFFFF;stroke:#3A006E;stroke-linecap:round;stroke-linejoin:round;stroke-miterlimit:10;" d="
				M287.487,132.311c-1.66,14.326,2.868,26.631,10.111,27.473c1.82,0.211,3.634-0.315,5.361-1.458
				c5.162-3.396,9.539-12.231,10.785-22.973c0.365-3.179,0.431-6.254,0.222-9.127c-0.697-10.093-4.694-17.691-10.342-18.349
				C296.374,107.033,289.15,117.976,287.487,132.311z"/>
			<path style="fill:#3A006E;stroke:#3A006E;stroke-linecap:round;stroke-linejoin:round;stroke-miterlimit:10;" d="
				M295.459,131.802c-0.428,1.649-0.751,3.393-0.962,5.213c-1.289,11.1,2.215,20.629,7.836,21.278
				c0.208,0.021,0.42,0.034,0.625,0.034c5.162-3.396,9.539-12.231,10.785-22.973c0.365-3.179,0.431-6.254,0.222-9.127
				c-1.348-4.638-3.829-7.777-6.97-8.139c-3.696-0.432-7.378,3.081-9.836,8.692l8.539,6.012L295.459,131.802z"/>
		</g>
		<path style="fill:#FFFFFF;stroke:#3A006E;stroke-linecap:round;stroke-linejoin:round;stroke-miterlimit:10;" d="M268.255,151.192
			c7.072-3.253,16.973-4.619,25.831,0.246c8.859,4.865,12.294,10.419,12.642,17.859"/>
		<ellipse style="fill:#F2005B;" cx="285.032" cy="160.962" rx="13.363" ry="6.256"/>
		<g>
			<g>
				<path style="opacity:0.2;fill:#FFFFFF;" d="M320.146,82.472c-1.533,7.67-15.093,3.534-33.968,2.197
					c-18.882-1.324-35.961,0.635-34.418-7.018c1.521-7.661,21.133-14.496,40.027-13.144
					C310.683,65.831,321.659,74.823,320.146,82.472z"/>
			</g>
			<g>
				<path style="opacity:0.2;fill:#FFFFFF;" d="M159.464,82.905c-1.253,6.269-12.337,2.889-27.765,1.795
					c-15.434-1.082-29.394,0.519-28.133-5.736c1.243-6.262,17.274-11.849,32.717-10.743
					C151.729,69.303,160.701,76.653,159.464,82.905z"/>
			</g>
			<g>
				<path style="opacity:0.2;fill:#FFFFFF;" d="M146.47,197.195c-2.496-7.413,11.32-10.591,28.346-18.845
					c17.027-8.27,30.853-18.486,33.332-11.083c2.502,7.399-11.087,23.105-28.138,31.356
					C162.972,206.9,148.974,204.58,146.47,197.195z"/>
			</g>
			<g>
				<path style="opacity:0.2;fill:#FFFFFF;" d="M236.153,364.573c-2.785-5.091,6.089-9.306,16.384-17.678
					c10.293-8.384,18.132-17.758,20.904-12.672c2.787,5.08-4.081,18.443-14.393,26.817
					C248.749,369.431,238.939,369.642,236.153,364.573z"/>
			</g>
		</g>
	</g>
	<g>
		<g>
			<g>
				<g>
					<path style="fill:#F7EAFF;stroke:#3A006E;stroke-linecap:round;stroke-linejoin:round;stroke-miterlimit:10;" d="
						M90.485,287.29c0,10.01-8.116,18.126-18.125,18.126c-10.009,0-18.125-8.116-18.125-18.126c0-10.009,8.116-18.124,18.125-18.124
						C82.369,269.166,90.485,277.281,90.485,287.29z"/>
					<path style="fill:#F7EAFF;" d="M88.57,295.383c-2.96,5.95-9.11,10.03-16.21,10.03c-10.01,0-18.13-8.11-18.13-18.12
						c0-6.26,3.18-11.79,8.01-15.04c-1.22,2.43-1.91,5.18-1.91,8.09c0,10.01,8.12,18.13,18.13,18.13
						C82.201,298.473,85.69,297.333,88.57,295.383z"/>
					<path style="fill:#F7EAFF;" d="M58.317,292.144c-0.001-0.762,0.185-1.519,0.629-2.276c0.958-1.645,2.722-2.075,4.368-1.13
						c2.073,1.189,2.759,3.758,5.255,4.574c2.313,0.755,5.417,0.371,6.849,2.75c1.111,1.843-0.091,3.493-1.625,4.382
						c-2.149,1.243-4.48,1.205-6.868,0.78c-3.507-0.622-6.566-3.156-7.97-6.408C58.569,293.917,58.317,293.029,58.317,292.144z"/>
					<path style="fill:#FFFFFF;" d="M84.953,280.93c-0.615,3.21-5.306,4.569-10.469,3.046c-5.166-1.517-8.857-5.349-8.239-8.551
						c0.612-3.207,5.295-4.576,10.463-3.046C81.877,273.896,85.562,277.728,84.953,280.93z"/>
				</g>
			</g>
		</g>
		<g>
			<g>
				<g>
					<path style="fill:#F7EAFF;stroke:#3A006E;stroke-linecap:round;stroke-linejoin:round;stroke-miterlimit:10;" d="
						M432.319,318.166c0,10.01-8.116,18.126-18.125,18.126c-10.009,0-18.125-8.116-18.125-18.126
						c0-10.009,8.116-18.124,18.125-18.124C424.203,300.042,432.319,308.157,432.319,318.166z"/>
					<path style="fill:#F7EAFF;" d="M430.404,326.259c-2.96,5.95-9.11,10.03-16.21,10.03c-10.01,0-18.13-8.11-18.13-18.12
						c0-6.26,3.18-11.79,8.01-15.04c-1.22,2.43-1.91,5.18-1.91,8.09c0,10.01,8.12,18.13,18.13,18.13
						C424.034,329.349,427.524,328.209,430.404,326.259z"/>
					<path style="fill:#F7EAFF;" d="M400.151,323.02c-0.001-0.762,0.185-1.519,0.629-2.276c0.958-1.645,2.722-2.075,4.368-1.13
						c2.073,1.189,2.759,3.758,5.255,4.574c2.313,0.755,5.417,0.371,6.849,2.75c1.111,1.843-0.091,3.493-1.625,4.382
						c-2.148,1.243-4.48,1.205-6.868,0.78c-3.507-0.622-6.566-3.156-7.969-6.408C400.402,324.793,400.151,323.905,400.151,323.02z"
						/>
					<path style="fill:#FFFFFF;" d="M426.787,311.806c-0.615,3.21-5.306,4.569-10.47,3.047c-5.166-1.517-8.857-5.349-8.239-8.551
						c0.612-3.207,5.295-4.576,10.463-3.046C423.711,304.773,427.396,308.604,426.787,311.806z"/>
				</g>
			</g>
		</g>
		<g>
			<g>
				<g>
					<path style="fill:#F7EAFF;stroke:#3A006E;stroke-linecap:round;stroke-linejoin:round;stroke-miterlimit:10;" d="
						M309.626,393.855c0,10.01-8.116,18.126-18.125,18.126c-10.009,0-18.125-8.116-18.125-18.126
						c0-10.009,8.116-18.124,18.125-18.124C301.51,375.731,309.626,383.846,309.626,393.855z"/>
					<path style="fill:#F7EAFF;" d="M307.711,401.948c-2.96,5.95-9.11,10.03-16.21,10.03c-10.01,0-18.13-8.11-18.13-18.12
						c0-6.26,3.18-11.79,8.01-15.04c-1.22,2.43-1.91,5.18-1.91,8.09c0,10.01,8.12,18.13,18.13,18.13
						C301.341,405.038,304.831,403.898,307.711,401.948z"/>
					<path style="fill:#F7EAFF;" d="M277.458,398.709c-0.001-0.762,0.185-1.519,0.629-2.276c0.958-1.645,2.722-2.075,4.368-1.13
						c2.073,1.189,2.759,3.758,5.255,4.574c2.313,0.755,5.417,0.371,6.849,2.75c1.111,1.843-0.091,3.493-1.625,4.382
						c-2.149,1.243-4.48,1.205-6.868,0.78c-3.507-0.622-6.566-3.156-7.97-6.408C277.71,400.482,277.458,399.594,277.458,398.709z"/>
					<path style="fill:#FFFFFF;" d="M304.094,387.495c-0.615,3.21-5.306,4.569-10.469,3.047c-5.166-1.517-8.857-5.349-8.239-8.551
						c0.612-3.207,5.295-4.576,10.463-3.047C301.018,380.461,304.703,384.293,304.094,387.495z"/>
				</g>
			</g>
		</g>
		<g>
			<g>
				<g>
					<path style="fill:#F7EAFF;stroke:#3A006E;stroke-linecap:round;stroke-linejoin:round;stroke-miterlimit:10;" d="
						M403.491,348.754c0,5.645-4.577,10.222-10.221,10.222s-10.222-4.577-10.222-10.222c0-5.645,4.577-10.221,10.222-10.221
						S403.491,343.109,403.491,348.754z"/>
					<path style="fill:#F7EAFF;" d="M402.411,353.318c-1.669,3.355-5.137,5.656-9.141,5.656c-5.645,0-10.224-4.574-10.224-10.219
						c0-3.53,1.793-6.649,4.517-8.482c-0.688,1.37-1.077,2.921-1.077,4.562c0,5.645,4.579,10.224,10.224,10.224
						C398.819,355.06,400.787,354.417,402.411,353.318z"/>
					<path style="fill:#F7EAFF;" d="M385.35,351.491c0-0.429,0.104-0.857,0.355-1.284c0.54-0.928,1.535-1.17,2.464-0.637
						c1.169,0.671,1.556,2.12,2.964,2.58c1.305,0.426,3.055,0.209,3.862,1.551c0.626,1.039-0.051,1.97-0.917,2.471
						c-1.212,0.701-2.526,0.68-3.873,0.44c-1.978-0.351-3.703-1.78-4.494-3.614C385.492,352.491,385.35,351.99,385.35,351.491z"/>
					<path style="fill:#FFFFFF;" d="M400.371,345.167c-0.347,1.81-2.992,2.576-5.904,1.718c-2.913-0.855-4.995-3.016-4.646-4.822
						c0.345-1.808,2.986-2.581,5.9-1.718C398.636,341.201,400.714,343.361,400.371,345.167z"/>
				</g>
			</g>
		</g>
		<g>
			<g>
				<g>
					<path style="fill:#F7EAFF;stroke:#3A006E;stroke-linecap:round;stroke-linejoin:round;stroke-miterlimit:10;" d="
						M427.427,86.639c0,5.645-4.577,10.222-10.221,10.222c-5.644,0-10.221-4.577-10.221-10.222c0-5.645,4.577-10.221,10.221-10.221
						C422.85,76.418,427.427,80.994,427.427,86.639z"/>
					<path style="fill:#F7EAFF;" d="M426.348,91.203c-1.669,3.355-5.137,5.656-9.141,5.656c-5.645,0-10.224-4.574-10.224-10.218
						c0-3.53,1.793-6.649,4.517-8.482c-0.688,1.37-1.077,2.921-1.077,4.562c0,5.645,4.579,10.224,10.224,10.224
						C422.755,92.945,424.724,92.302,426.348,91.203z"/>
					<path style="fill:#F7EAFF;" d="M409.287,89.376c-0.001-0.429,0.104-0.857,0.355-1.284c0.54-0.928,1.535-1.17,2.464-0.637
						c1.169,0.671,1.556,2.119,2.964,2.58c1.305,0.426,3.055,0.209,3.862,1.551c0.626,1.039-0.051,1.97-0.917,2.471
						c-1.212,0.701-2.526,0.68-3.873,0.44c-1.978-0.351-3.703-1.78-4.494-3.614C409.429,90.376,409.287,89.875,409.287,89.376z"/>
					<path style="fill:#FFFFFF;" d="M424.308,83.052c-0.347,1.81-2.992,2.576-5.904,1.718c-2.913-0.855-4.995-3.016-4.647-4.822
						c0.345-1.808,2.986-2.581,5.901-1.718C422.573,79.086,424.651,81.246,424.308,83.052z"/>
				</g>
			</g>
		</g>
		<g>
			<g>
				<g>
					<path style="fill:#F7EAFF;stroke:#3A006E;stroke-linecap:round;stroke-linejoin:round;stroke-miterlimit:10;" d="
						M286.863,436.06c0,5.645-4.577,10.222-10.221,10.222c-5.645,0-10.221-4.577-10.221-10.222c0-5.644,4.577-10.221,10.221-10.221
						C282.286,425.84,286.863,430.416,286.863,436.06z"/>
					<path style="fill:#F7EAFF;" d="M285.784,440.624c-1.669,3.355-5.138,5.656-9.141,5.656c-5.645,0-10.224-4.573-10.224-10.219
						c0-3.53,1.793-6.649,4.517-8.482c-0.688,1.37-1.077,2.921-1.077,4.562c0,5.645,4.579,10.224,10.224,10.224
						C282.191,442.367,284.159,441.724,285.784,440.624z"/>
					<path style="fill:#F7EAFF;" d="M268.723,438.798c0-0.43,0.104-0.857,0.355-1.284c0.54-0.928,1.535-1.17,2.464-0.637
						c1.169,0.671,1.556,2.12,2.964,2.58c1.305,0.426,3.055,0.209,3.862,1.551c0.626,1.039-0.051,1.97-0.917,2.471
						c-1.212,0.701-2.526,0.68-3.873,0.44c-1.978-0.351-3.703-1.78-4.494-3.614C268.865,439.798,268.723,439.297,268.723,438.798z"
						/>
					<path style="fill:#FFFFFF;" d="M283.743,432.474c-0.347,1.81-2.992,2.576-5.904,1.718c-2.913-0.855-4.995-3.016-4.646-4.822
						c0.345-1.808,2.986-2.581,5.901-1.718C282.009,428.507,284.087,430.668,283.743,432.474z"/>
				</g>
			</g>
		</g>
		<g>
			<g>
				<g>
					<path style="fill:#F7EAFF;stroke:#3A006E;stroke-linecap:round;stroke-linejoin:round;stroke-miterlimit:10;" d="
						M69.89,346.261c0,3.639-2.951,6.589-6.589,6.589c-3.639,0-6.589-2.951-6.589-6.589c0-3.639,2.951-6.589,6.589-6.589
						C66.939,339.673,69.89,342.623,69.89,346.261z"/>
					<path style="fill:#F7EAFF;" d="M69.194,349.203c-1.076,2.163-3.312,3.646-5.893,3.646c-3.639,0-6.591-2.948-6.591-6.587
						c0-2.276,1.156-4.286,2.912-5.468c-0.444,0.883-0.694,1.883-0.694,2.941c0,3.639,2.952,6.591,6.591,6.591
						C66.878,350.327,68.147,349.912,69.194,349.203z"/>
					<path style="fill:#F7EAFF;" d="M58.196,348.026c0-0.277,0.067-0.552,0.229-0.827c0.348-0.598,0.99-0.754,1.588-0.411
						c0.753,0.432,1.003,1.366,1.91,1.663c0.841,0.274,1.969,0.135,2.49,1c0.404,0.67-0.033,1.27-0.591,1.593
						c-0.781,0.452-1.629,0.438-2.497,0.284c-1.275-0.226-2.387-1.147-2.897-2.33C58.287,348.671,58.195,348.348,58.196,348.026z"/>
					<path style="fill:#FFFFFF;" d="M67.879,343.949c-0.224,1.167-1.929,1.661-3.806,1.107c-1.878-0.551-3.22-1.944-2.995-3.108
						c0.222-1.166,1.925-1.664,3.804-1.107C66.76,341.392,68.1,342.785,67.879,343.949z"/>
				</g>
			</g>
		</g>
		<g>
			<g>
				<g>
					<path style="fill:#F7EAFF;stroke:#3A006E;stroke-linecap:round;stroke-linejoin:round;stroke-miterlimit:10;" d="
						M423.921,369.56c0,3.639-2.951,6.589-6.589,6.589c-3.639,0-6.589-2.951-6.589-6.589c0-3.639,2.951-6.589,6.589-6.589
						C420.97,362.972,423.921,365.922,423.921,369.56z"/>
					<path style="fill:#F7EAFF;" d="M423.225,372.503c-1.076,2.163-3.312,3.646-5.893,3.646c-3.639,0-6.591-2.948-6.591-6.587
						c0-2.276,1.156-4.286,2.912-5.468c-0.443,0.883-0.694,1.883-0.694,2.941c0,3.639,2.952,6.591,6.591,6.591
						C420.909,373.626,422.178,373.211,423.225,372.503z"/>
					<path style="fill:#F7EAFF;" d="M412.227,371.325c0-0.277,0.067-0.552,0.229-0.827c0.348-0.598,0.99-0.754,1.588-0.411
						c0.754,0.432,1.003,1.366,1.91,1.663c0.841,0.274,1.969,0.135,2.49,1c0.404,0.67-0.033,1.27-0.591,1.593
						c-0.781,0.452-1.629,0.438-2.497,0.284c-1.275-0.226-2.387-1.147-2.897-2.33C412.318,371.97,412.227,371.647,412.227,371.325z"
						/>
					<path style="fill:#FFFFFF;" d="M421.91,367.249c-0.224,1.167-1.929,1.661-3.806,1.107c-1.878-0.551-3.22-1.944-2.995-3.109
						c0.222-1.166,1.925-1.664,3.804-1.108C420.792,364.691,422.131,366.084,421.91,367.249z"/>
				</g>
			</g>
		</g>
		<g>
			<g>
				<g>
					<path style="fill:#F7EAFF;stroke:#3A006E;stroke-linecap:round;stroke-linejoin:round;stroke-miterlimit:10;" d="
						M446.512,245.395c0,7.031-5.701,12.732-12.731,12.732c-7.031,0-12.731-5.701-12.731-12.732c0-7.031,5.701-12.73,12.731-12.73
						C440.811,232.664,446.512,238.364,446.512,245.395z"/>
					<path style="fill:#F7EAFF;" d="M445.167,251.079c-2.079,4.179-6.399,7.045-11.386,7.045c-7.031,0-12.735-5.697-12.735-12.728
						c0-4.397,2.234-8.281,5.626-10.564c-0.857,1.707-1.342,3.638-1.342,5.682c0,7.031,5.704,12.735,12.735,12.735
						C440.693,253.249,443.145,252.449,445.167,251.079z"/>
					<path style="fill:#F7EAFF;" d="M423.917,248.804c-0.001-0.535,0.13-1.067,0.442-1.599c0.673-1.156,1.912-1.457,3.068-0.794
						c1.456,0.835,1.938,2.64,3.691,3.213c1.625,0.53,3.805,0.261,4.811,1.932c0.78,1.294-0.064,2.454-1.142,3.078
						c-1.509,0.873-3.146,0.847-4.824,0.548c-2.464-0.437-4.612-2.217-5.598-4.501C424.094,250.049,423.917,249.425,423.917,248.804
						z"/>
					<path style="fill:#FFFFFF;" d="M442.626,240.927c-0.432,2.255-3.727,3.209-7.354,2.14c-3.629-1.065-6.221-3.757-5.787-6.006
						c0.43-2.253,3.719-3.214,7.35-2.14C440.466,235.987,443.054,238.678,442.626,240.927z"/>
				</g>
			</g>
		</g>
		<g>
			<g>
				<g>
					<path style="fill:#F7EAFF;stroke:#3A006E;stroke-linecap:round;stroke-linejoin:round;stroke-miterlimit:10;" d="
						M426.527,272.452c0,5.645-4.577,10.222-10.221,10.222c-5.645,0-10.222-4.577-10.222-10.222c0-5.644,4.577-10.221,10.222-10.221
						C421.951,262.231,426.527,266.807,426.527,272.452z"/>
					<path style="fill:#F7EAFF;" d="M425.448,277.015c-1.669,3.355-5.138,5.656-9.141,5.656c-5.645,0-10.224-4.573-10.224-10.219
						c0-3.53,1.793-6.649,4.517-8.482c-0.688,1.37-1.077,2.921-1.077,4.562c0,5.645,4.579,10.224,10.224,10.224
						C421.856,278.758,423.824,278.115,425.448,277.015z"/>
					<path style="fill:#F7EAFF;" d="M408.387,275.189c-0.001-0.43,0.104-0.857,0.355-1.284c0.54-0.928,1.535-1.17,2.464-0.637
						c1.169,0.671,1.556,2.119,2.964,2.58c1.305,0.426,3.055,0.209,3.862,1.551c0.626,1.039-0.051,1.97-0.917,2.471
						c-1.212,0.701-2.526,0.68-3.873,0.44c-1.978-0.351-3.703-1.78-4.494-3.614C408.529,276.189,408.387,275.688,408.387,275.189z"
						/>
					<path style="fill:#FFFFFF;" d="M423.408,268.865c-0.347,1.81-2.992,2.576-5.904,1.718c-2.913-0.855-4.995-3.016-4.647-4.822
						c0.345-1.808,2.986-2.581,5.901-1.718C421.673,264.898,423.751,267.059,423.408,268.865z"/>
				</g>
			</g>
		</g>
		<g>
			<g>
				<g>
					<path style="fill:#F7EAFF;stroke:#3A006E;stroke-linecap:round;stroke-linejoin:round;stroke-miterlimit:10;" d="
						M413.115,243.159c0,3.639-2.951,6.59-6.589,6.59s-6.589-2.951-6.589-6.59c0-3.639,2.951-6.589,6.589-6.589
						S413.115,239.521,413.115,243.159z"/>
					<path style="fill:#F7EAFF;" d="M412.419,246.102c-1.076,2.163-3.312,3.646-5.893,3.646c-3.639,0-6.591-2.948-6.591-6.587
						c0-2.276,1.156-4.286,2.912-5.468c-0.443,0.883-0.694,1.883-0.694,2.941c0,3.639,2.952,6.591,6.591,6.591
						C410.103,247.225,411.372,246.81,412.419,246.102z"/>
					<path style="fill:#F7EAFF;" d="M401.42,244.924c0-0.277,0.067-0.552,0.229-0.827c0.348-0.598,0.99-0.754,1.588-0.411
						c0.754,0.432,1.003,1.366,1.91,1.663c0.841,0.274,1.969,0.135,2.49,1c0.404,0.67-0.033,1.27-0.591,1.593
						c-0.781,0.452-1.629,0.438-2.497,0.284c-1.275-0.226-2.387-1.147-2.897-2.33C401.512,245.569,401.42,245.246,401.42,244.924z"
						/>
					<path style="fill:#FFFFFF;" d="M411.103,240.847c-0.224,1.167-1.929,1.661-3.806,1.107c-1.878-0.551-3.22-1.944-2.995-3.108
						c0.222-1.166,1.925-1.664,3.804-1.108C409.985,238.29,411.325,239.683,411.103,240.847z"/>
				</g>
			</g>
		</g>
		<g>
			<g>
				<g>
					<path style="fill:#F7EAFF;stroke:#3A006E;stroke-linecap:round;stroke-linejoin:round;stroke-miterlimit:10;" d="
						M393.671,92.444c0,3.639-2.951,6.59-6.589,6.59c-3.639,0-6.589-2.951-6.589-6.59c0-3.639,2.951-6.589,6.589-6.589
						C390.72,85.855,393.671,88.805,393.671,92.444z"/>
					<path style="fill:#F7EAFF;" d="M392.975,95.386c-1.076,2.163-3.312,3.646-5.893,3.646c-3.639,0-6.591-2.948-6.591-6.587
						c0-2.276,1.156-4.286,2.912-5.468c-0.443,0.883-0.694,1.883-0.694,2.941c0,3.639,2.952,6.591,6.591,6.591
						C390.659,96.509,391.928,96.095,392.975,95.386z"/>
					<path style="fill:#F7EAFF;" d="M381.977,94.208c0-0.277,0.067-0.552,0.228-0.827c0.348-0.598,0.99-0.754,1.588-0.411
						c0.754,0.432,1.003,1.366,1.91,1.663c0.841,0.274,1.969,0.135,2.49,1c0.404,0.67-0.033,1.27-0.591,1.593
						c-0.781,0.452-1.628,0.438-2.497,0.284c-1.275-0.226-2.387-1.147-2.897-2.33C382.068,94.853,381.976,94.53,381.977,94.208z"/>
					<path style="fill:#FFFFFF;" d="M391.659,90.132c-0.224,1.167-1.929,1.661-3.806,1.108c-1.878-0.551-3.22-1.944-2.995-3.109
						c0.222-1.166,1.925-1.664,3.804-1.108C390.541,87.575,391.881,88.968,391.659,90.132z"/>
				</g>
			</g>
		</g>
		<g>
			<g>
				<g>
					<path style="fill:#F7EAFF;stroke:#3A006E;stroke-linecap:round;stroke-linejoin:round;stroke-miterlimit:10;" d="
						M416.708,60.306c0,3.639-2.951,6.59-6.589,6.59s-6.589-2.951-6.589-6.59c0-3.639,2.951-6.589,6.589-6.589
						S416.708,56.668,416.708,60.306z"/>
					<path style="fill:#F7EAFF;" d="M416.012,63.248c-1.076,2.163-3.312,3.646-5.893,3.646c-3.639,0-6.591-2.948-6.591-6.587
						c0-2.276,1.156-4.286,2.912-5.468c-0.444,0.883-0.694,1.883-0.694,2.941c0,3.639,2.952,6.591,6.591,6.591
						C413.696,64.372,414.965,63.957,416.012,63.248z"/>
					<path style="fill:#F7EAFF;" d="M405.013,62.071c0-0.277,0.067-0.552,0.229-0.827c0.348-0.598,0.99-0.754,1.588-0.411
						c0.753,0.432,1.003,1.366,1.91,1.663c0.841,0.274,1.969,0.135,2.49,1c0.404,0.67-0.033,1.27-0.591,1.593
						c-0.781,0.452-1.629,0.438-2.497,0.284c-1.275-0.226-2.387-1.147-2.897-2.33C405.105,62.715,405.013,62.392,405.013,62.071z"/>
					<path style="fill:#FFFFFF;" d="M414.697,57.994c-0.224,1.167-1.929,1.661-3.806,1.107c-1.878-0.551-3.22-1.944-2.995-3.109
						c0.222-1.166,1.925-1.664,3.804-1.107C413.578,55.437,414.918,56.83,414.697,57.994z"/>
				</g>
			</g>
		</g>
		<g>
			<g>
				<g>
					<path style="fill:#F7EAFF;stroke:#3A006E;stroke-linecap:round;stroke-linejoin:round;stroke-miterlimit:10;" d="
						M106.769,325.421c0,5.975-4.845,10.82-10.819,10.82c-5.975,0-10.82-4.845-10.82-10.82c0-5.975,4.845-10.819,10.82-10.819
						C101.925,314.602,106.769,319.446,106.769,325.421z"/>
					<path style="fill:#F7EAFF;" d="M105.627,330.252c-1.767,3.552-5.438,5.987-9.676,5.987c-5.975,0-10.822-4.841-10.822-10.816
						c0-3.737,1.898-7.038,4.781-8.978c-0.728,1.451-1.14,3.092-1.14,4.829c0,5.975,4.847,10.822,10.822,10.822
						C101.824,332.096,103.907,331.416,105.627,330.252z"/>
					<path style="fill:#F7EAFF;" d="M87.568,328.318c0-0.455,0.111-0.907,0.375-1.359c0.572-0.982,1.625-1.238,2.608-0.675
						c1.237,0.71,1.647,2.243,3.137,2.73c1.381,0.451,3.233,0.222,4.088,1.641c0.663,1.1-0.054,2.085-0.97,2.616
						c-1.283,0.742-2.674,0.72-4.1,0.466c-2.093-0.371-3.919-1.884-4.757-3.825C87.718,329.376,87.567,328.846,87.568,328.318z"/>
					<path style="fill:#FFFFFF;" d="M103.467,321.624c-0.367,1.916-3.167,2.727-6.249,1.819c-3.084-0.905-5.287-3.193-4.918-5.104
						c0.365-1.914,3.161-2.732,6.246-1.819C101.631,317.426,103.831,319.713,103.467,321.624z"/>
				</g>
			</g>
		</g>
		<g>
			<g>
				<g>
					<path style="fill:#F7EAFF;stroke:#3A006E;stroke-linecap:round;stroke-linejoin:round;stroke-miterlimit:10;" d="
						M415.615,113.862c0,5.975-4.845,10.82-10.819,10.82s-10.819-4.845-10.819-10.82c0-5.975,4.845-10.819,10.819-10.819
						S415.615,107.887,415.615,113.862z"/>
					<path style="fill:#F7EAFF;" d="M414.473,118.693c-1.767,3.552-5.438,5.987-9.676,5.987c-5.975,0-10.822-4.841-10.822-10.816
						c0-3.737,1.898-7.038,4.781-8.978c-0.728,1.451-1.14,3.092-1.14,4.829c0,5.975,4.847,10.822,10.822,10.822
						C410.67,120.537,412.754,119.857,414.473,118.693z"/>
					<path style="fill:#F7EAFF;" d="M396.414,116.759c-0.001-0.455,0.11-0.907,0.375-1.359c0.572-0.982,1.625-1.238,2.608-0.675
						c1.237,0.71,1.647,2.243,3.137,2.73c1.381,0.451,3.234,0.222,4.088,1.641c0.663,1.1-0.054,2.085-0.97,2.616
						c-1.283,0.742-2.674,0.72-4.1,0.466c-2.094-0.371-3.919-1.884-4.757-3.825C396.564,117.818,396.414,117.287,396.414,116.759z"
						/>
					<path style="fill:#FFFFFF;" d="M412.313,110.065c-0.367,1.916-3.167,2.727-6.25,1.819c-3.084-0.906-5.287-3.193-4.918-5.104
						c0.365-1.914,3.161-2.732,6.246-1.819C410.477,105.867,412.677,108.154,412.313,110.065z"/>
				</g>
			</g>
		</g>
		<g>
			<g>
				<g>
					<path style="fill:#F7EAFF;stroke:#3A006E;stroke-linecap:round;stroke-linejoin:round;stroke-miterlimit:10;" d="
						M53.979,313.441c-0.222,5.31-4.708,9.436-10.018,9.214c-5.31-0.222-9.436-4.708-9.214-10.018
						c0.222-5.31,4.708-9.435,10.018-9.213C50.075,303.646,54.201,308.131,53.979,313.441z"/>
					<path style="fill:#F7EAFF;" d="M52.784,317.692c-1.702,3.091-5.056,5.119-8.822,4.962c-5.31-0.222-9.438-4.705-9.216-10.015
						c0.139-3.321,1.949-6.184,4.583-7.801c-0.701,1.262-1.128,2.706-1.193,4.25c-0.222,5.31,3.906,9.798,9.216,10.02
						C49.336,319.19,51.213,318.663,52.784,317.692z"/>
					<path style="fill:#F7EAFF;" d="M36.806,315.303c0.016-0.404,0.132-0.802,0.384-1.194c0.545-0.852,1.49-1.04,2.343-0.503
						c1.073,0.677,1.38,2.055,2.686,2.543c1.21,0.452,2.866,0.317,3.572,1.611c0.548,1.002-0.125,1.851-0.959,2.289
						c-1.167,0.612-2.403,0.54-3.661,0.262c-1.847-0.408-3.413-1.82-4.086-3.576C36.9,316.249,36.786,315.772,36.806,315.303z"/>
					<path style="fill:#FFFFFF;" d="M51.185,309.945c-0.398,1.689-2.916,2.306-5.622,1.384c-2.707-0.919-4.58-3.034-4.181-4.719
						c0.396-1.688,2.91-2.31,5.618-1.384C49.709,306.145,51.579,308.259,51.185,309.945z"/>
				</g>
			</g>
		</g>
		<g>
			<g>
				<g>
					<path style="fill:#F7EAFF;stroke:#3A006E;stroke-linecap:round;stroke-linejoin:round;stroke-miterlimit:10;" d="
						M69.414,249.23c0,4.397-3.565,7.963-7.962,7.963c-4.397,0-7.962-3.565-7.962-7.963c0-4.397,3.566-7.962,7.962-7.962
						C65.849,241.268,69.414,244.833,69.414,249.23z"/>
					<path style="fill:#F7EAFF;" d="M68.573,252.785c-1.3,2.614-4.002,4.406-7.121,4.406c-4.397,0-7.964-3.563-7.964-7.96
						c0-2.75,1.397-5.179,3.519-6.607c-0.536,1.068-0.839,2.275-0.839,3.554c0,4.397,3.567,7.964,7.964,7.964
						C65.775,254.143,67.308,253.642,68.573,252.785z"/>
					<path style="fill:#F7EAFF;" d="M55.283,251.363c0-0.335,0.081-0.667,0.276-1c0.421-0.723,1.196-0.911,1.919-0.496
						c0.911,0.522,1.212,1.651,2.309,2.009c1.016,0.332,2.38,0.163,3.009,1.208c0.488,0.809-0.04,1.535-0.714,1.925
						c-0.944,0.546-1.968,0.529-3.017,0.343c-1.541-0.273-2.884-1.387-3.501-2.815C55.394,252.141,55.283,251.751,55.283,251.363z"
						/>
					<path style="fill:#FFFFFF;" d="M66.984,246.436c-0.27,1.41-2.331,2.007-4.599,1.338c-2.269-0.666-3.891-2.35-3.62-3.756
						c0.269-1.409,2.326-2.01,4.596-1.338C65.633,243.346,67.251,245.03,66.984,246.436z"/>
				</g>
			</g>
		</g>
	</g>
	<g>
		<g>
			<path style="fill:#9931ED;" d="M430.34,166.522c0,0.864-0.7,1.564-1.564,1.564c-0.864,0-1.564-0.7-1.564-1.564
				c0-0.864,0.7-1.564,1.564-1.564C429.639,164.958,430.34,165.658,430.34,166.522z"/>
			<path style="fill:#9931ED;" d="M367.121,394.263c0,0.864-0.7,1.564-1.564,1.564c-0.864,0-1.564-0.7-1.564-1.564
				s0.7-1.564,1.564-1.564C366.421,392.699,367.121,393.399,367.121,394.263z"/>
			<circle style="fill:#9931ED;" cx="383.533" cy="107.684" r="1.564"/>
			<circle style="fill:#9931ED;" cx="85.34" cy="144.603" r="1.564"/>
			<circle style="fill:#9931ED;" cx="323.556" cy="326.05" r="1.564"/>
		</g>
		<g>
			<path style="fill:#FFFFFF;" d="M185.725,429.341c3.353,10.448,2.4,10.014,12.13,5.024c-5.016,9.758-5.385,8.778,5.024,12.13
				c-10.447,3.353-10.014,2.4-5.024,12.13c-9.759-5.017-8.778-5.384-12.13,5.024c-3.353-10.447-2.399-10.014-12.13-5.024
				c5.017-9.758,5.384-8.777-5.024-12.13c10.448-3.353,10.014-2.399,5.024-12.13C183.354,439.382,182.373,439.75,185.725,429.341z"
				/>
			<path style="fill:#FFFFFF;" d="M56.501,143.39c5.008,15.605,3.584,14.957,18.118,7.505c-7.493,14.576-8.043,13.111,7.504,18.118
				c-15.605,5.009-14.957,3.584-7.504,18.118c-14.576-7.493-13.111-8.042-18.118,7.505c-5.008-15.605-3.584-14.958-18.118-7.505
				c7.493-14.576,8.042-13.111-7.505-18.118c15.605-5.008,14.958-3.584,7.505-18.118C52.959,158.388,51.494,158.937,56.501,143.39z"
				/>
			<path style="fill:#FFFFFF;" d="M326.473,347.517c2.705,8.428,1.936,8.078,9.785,4.053c-4.047,7.872-4.344,7.081,4.053,9.785
				c-8.428,2.705-8.078,1.936-4.053,9.785c-7.872-4.047-7.081-4.343-9.785,4.053c-2.705-8.428-1.936-8.078-9.785-4.053
				c4.047-7.872,4.343-7.081-4.053-9.785c8.428-2.705,8.078-1.936,4.053-9.785C324.56,355.617,323.769,355.914,326.473,347.517z"/>
			<path style="fill:#FFFFFF;" d="M363.083,32.006c3.53,11.001,2.527,10.544,12.772,5.29c-5.282,10.275-5.669,9.242,5.29,12.772
				c-11,3.531-10.544,2.527-5.29,12.772c-10.275-5.282-9.242-5.669-12.772,5.29c-3.531-11-2.526-10.544-12.772-5.29
				c5.282-10.275,5.669-9.242-5.29-12.772c11.001-3.531,10.544-2.527,5.29-12.772C360.586,42.578,359.553,42.965,363.083,32.006z"/>
			<path style="fill:#FFFFFF;" d="M468.587,236.346c0,1.755-1.423,3.178-3.178,3.178c-1.755,0-3.178-1.423-3.178-3.178
				c0-1.755,1.423-3.178,3.178-3.178C467.164,233.168,468.587,234.591,468.587,236.346z"/>
			<path style="fill:#FFFFFF;" d="M40.688,237.366c0.426,2.24-1.502,4.167-3.742,3.743c-1.244-0.236-2.261-1.254-2.497-2.497
				c-0.424-2.239,1.502-4.165,3.74-3.741C39.434,235.106,40.451,236.123,40.688,237.366z"/>
			<path style="fill:#FFFFFF;" d="M419.509,189.891c0.426,2.24-1.502,4.168-3.742,3.743c-1.244-0.236-2.261-1.253-2.497-2.497
				c-0.424-2.239,1.501-4.165,3.74-3.741C418.255,187.631,419.273,188.648,419.509,189.891z"/>
			<path style="fill:#9931ED;" d="M199.972,395.849c0.425,2.24-1.502,4.167-3.742,3.742c-1.244-0.236-2.261-1.253-2.497-2.497
				c-0.424-2.239,1.502-4.165,3.741-3.741C198.718,393.588,199.736,394.605,199.972,395.849z"/>
			<path style="fill:#9931ED;" d="M149.46,428.675c0.425,2.24-1.502,4.167-3.742,3.742c-1.244-0.236-2.261-1.253-2.497-2.497
				c-0.424-2.239,1.502-4.165,3.741-3.741C148.206,426.414,149.223,427.431,149.46,428.675z"/>
			<path style="fill:#EB6E00;" d="M369.402,301.919c1.2,7.926,4.943,11.631,12.839,12.836c-7.927,1.202-11.632,4.945-12.838,12.841
				c-1.202-7.927-4.945-11.632-12.841-12.838C364.49,313.557,368.195,309.814,369.402,301.919z"/>
			<path style="fill:#EB6E00;" d="M205.169,302.44c0.96,6.341,3.955,9.305,10.272,10.27c-6.342,0.961-9.307,3.956-10.271,10.274
				c-0.962-6.342-3.956-9.307-10.274-10.271C201.239,311.751,204.203,308.757,205.169,302.44z"/>
			<path style="fill:#EB6E00;" d="M458.849,99.608c0.96,6.341,3.955,9.305,10.272,10.27c-6.342,0.961-9.307,3.956-10.271,10.274
				c-0.962-6.342-3.956-9.307-10.274-10.271C454.919,108.919,457.883,105.924,458.849,99.608z"/>
			<path style="fill:#EB6E00;" d="M101.182,119.837c0.779,5.145,3.209,7.55,8.335,8.332c-5.146,0.78-7.551,3.21-8.333,8.335
				c-0.78-5.146-3.21-7.551-8.335-8.333C97.994,127.391,100.399,124.961,101.182,119.837z"/>
			<path style="fill:#EB6E00;" d="M159.391,393.511c0.721,4.765,2.972,6.992,7.719,7.717c-4.766,0.722-6.993,2.973-7.718,7.72
				c-0.722-4.766-2.973-6.993-7.72-7.718C156.438,400.507,158.665,398.257,159.391,393.511z"/>
			<path style="fill:#FFFFFF;" d="M80.232,204.013c1.2,7.926,4.943,11.631,12.84,12.836c-7.927,1.202-11.632,4.945-12.838,12.841
				c-1.202-7.927-4.945-11.632-12.841-12.838C75.32,215.651,79.025,211.908,80.232,204.013z"/>
			<path style="fill:#FFFFFF;" d="M437.396,121.768c0.847,5.596,3.49,8.211,9.065,9.062c-5.597,0.848-8.213,3.491-9.064,9.066
				c-0.848-5.597-3.491-8.212-9.066-9.063C433.928,129.984,436.544,127.341,437.396,121.768z"/>
			<path style="fill:#FFFFFF;" d="M360.103,369.63c0.419,2.767,1.726,4.061,4.483,4.482c-2.768,0.42-4.061,1.726-4.482,4.483
				c-0.419-2.768-1.727-4.061-4.483-4.482C358.388,373.694,359.681,372.387,360.103,369.63z"/>
			<path style="fill:#FFFFFF;" d="M321.386,282.783c0.725,4.79,2.988,7.029,7.76,7.758c-4.791,0.726-7.03,2.988-7.759,7.76
				c-0.726-4.791-2.989-7.03-7.761-7.759C318.417,289.816,320.656,287.553,321.386,282.783z"/>
		</g>
	</g>
	<g>
		<g>
			<defs>
				<rect id="SVGID_1_" x="288.961" y="391.978" width="211.039" height="108.022"/>
			</defs>
			<clipPath id="SVGID_00000140011881966637764110000018354903286934155675_">
				<use xlink:href="#SVGID_1_"  style="overflow:visible;"/>
			</clipPath>
			<g style="clip-path:url(#SVGID_00000140011881966637764110000018354903286934155675_);">
				<g>
					<path style="fill:#EB6E00;stroke:#3A006E;stroke-linecap:round;stroke-linejoin:round;stroke-miterlimit:10;" d="
						M488.397,474.995c-2.868-2.455-5.9-5.704-5.261-9.418c0.237-1.465,1.052-2.764,1.764-4.054c1.702-3.012,3.064-6.21,4.054-9.531
						c0.031-0.093,0.052-0.196,0.083-0.31c0.32-1.351,0.268-3.105-1.031-3.476c-0.578-0.165-1.207,0.052-1.754,0.299
						c-0.237,0.113-0.464,0.217-0.681,0.32c-2.744,1.382-5.096,3.507-6.777,6.076c-0.433,0.671-0.805,1.372-1.145,2.094
						c-0.867,1.888-1.423,3.951-2.785,5.519c-1.702,2.001-4.281,2.754-6.963,3.084c-1.135,0.144-2.269,0.196-3.383,0.247
						c-1.898,0.072-3.868,0.144-5.673-0.443c-1.815-0.598-3.476-2.001-3.827-3.868c0.743-0.134,1.485-0.289,2.228-0.474
						c1.681-0.402,3.342-0.949,4.931-1.609c2.372-0.98,4.642-2.218,6.736-3.713c1.382-0.959,2.692-2.032,3.909-3.198
						c0.794-0.774,1.619-1.846,1.217-2.888c-0.341-0.825-1.351-1.165-2.249-1.176c-1.991-0.041-3.806,0.99-5.57,1.929
						c-2.104,1.135-4.487,2.249-6.88,1.258c-0.31-0.134-0.609-0.32-0.877-0.536c-0.846-0.681-1.341-1.754-1.124-2.837
						c0.082-0.423,0.237-0.774,0.433-1.073c0.939-1.382,3.033-1.743,4.673-2.455c1.269-0.557,2.331-1.403,3.342-2.342
						c1.743-1.64,3.29-3.548,5.384-4.673c2.146-1.166,4.735-1.434,6.911-2.414c1.052-0.485,2.022-1.145,2.785-2.146
						c0.712-0.928,0.691-2.3-0.237-3.022c-0.144-0.103-0.289-0.186-0.433-0.237c-1.444-0.588-3.27,0.97-4.848,0.526
						c-0.196-0.052-0.371-0.144-0.526-0.247c-0.774-0.495-1.217-1.496-1.238-2.434c-0.062-1.155,0.32-2.259,0.598-3.373
						c0.289-1.124,0.433-2.29,0.464-3.456c0.062-1.269-0.052-2.548-0.299-3.806c-0.206-1.001-0.598-2.125-1.434-2.661
						c-0.134-0.083-0.258-0.144-0.402-0.196c-1.042-0.351-2.187,0.237-2.909,1.073c-0.98,1.135-1.331,2.486-1.413,3.951
						c-0.155,2.62,0.578,5.601,0.144,8.273c-0.578,3.456-3.425,6.416-6.849,7.097c-0.619-0.887-1.021-1.836-1.269-2.847
						c-0.753-2.94-0.258-6.313-0.206-9.531c0.01-0.516,0.01-1.021,0-1.516c-0.031-0.732-0.103-1.475-0.289-2.197
						c-0.33-1.403-1.011-2.651-2.352-3.373c-1.207-0.639-2.764-0.444-3.569,0.65c-1.712,2.331,1.857,5.333-1.124,7.582
						c-0.712,0.536-1.599,0.794-2.486,0.856c-2.032,0.144-4.043,0.268-6.086,0.402c0.083-3.507,0.124-7.138-1.3-10.346
						c-1.434-3.198-4.724-5.849-8.2-5.353c-0.547,0.072-1.114,0.248-1.444,0.681c-0.402,0.495-0.371,1.217-0.31,1.836
						c0.31,3.146,1.073,6.23,2.259,9.139c1.011,2.445,2.331,4.91,1.743,7.602c-0.33,1.547-1.423,2.888-2.971,3.187
						c-2.238,0.464-3.816-1.516-4.25-3.507c-0.351-1.64-0.144-3.352-0.196-5.044c-0.072-2.259-0.66-4.497-1.712-6.499
						c-0.598-1.145-1.506-2.341-2.806-2.486c-1.413-0.165-2.702,1.042-3.125,2.383c-0.433,1.351-0.227,2.826,0,4.229
						c0.98,6.55,2.146,13.461,5.993,18.732c0.712,0.97,0.66,2.311-0.155,3.177c-0.021,0.01-0.052,0.041-0.062,0.052
						c-1.042,1.062-2.868,0.918-3.744-0.299c-3.693-5.096-9.985-8.273-16.298-8.077c-1.351,0.052-2.94,0.413-3.136,1.939
						c-0.145,1.258,0.763,2.383,1.98,2.764c6.705,2.063,13.461,5.673,17.133,11.728c2.95,4.889,3.569,10.789,4.116,16.473
						c0.237,2.352,0.454,4.776-0.103,7.076c-0.578,2.3-2.094,4.508-4.343,5.24c-4.147-6.983-0.928-16.721-6.437-23.229
						c-1.073-1.289-2.94-1.754-4.363-0.856c-3.806,2.434,2.197,9.232-3.022,10.81c-1.269,0.382-2.63-0.031-3.714-0.805
						c-1.506-1.063-3.641-1.248-5.333-0.485c-0.33-1.258-0.526-2.527-0.867-3.765c-0.609-2.28-1.743-4.394-3.27-6.189
						c-1.083-1.289-2.527-2.496-4.477-1.836c-1.289,0.444-2.228,1.568-2.589,2.857c-0.753,2.682,0.464,5.25,1.589,7.654
						c3.621,7.777,6.612,16.37,4.322,24.89c-0.681,2.517-2.785,4.528-5.405,4.621c-3.61,0.113-5.281-3.466-6.313-6.55
						c-2.991-8.861-5.436-17.907-7.334-27.056c-0.371-1.888-0.722-3.992,0.258-5.653c0.598-0.98,1.547-1.661,2.434-2.362
						c4.704-3.827,7.819-9.562,8.5-15.596c0.186-1.619,0.217-3.373,1.165-4.714c0.743-1.011,1.877-1.64,3.002-2.249
						c3.455-1.836,6.921-3.652,10.387-5.498c4.302-2.28,8.871-4.848,11.017-9.242c0.217-0.433,0.392-0.918,0.278-1.372
						c-0.155-0.598-0.722-0.928-1.269-1.166c-4.353-1.857-9.232,0.598-13.389,2.878c-4.157,2.259-9.315,4.374-13.389,1.98
						c-1.609-0.928-2.775-2.445-3.961-3.858c-2.796-3.342-5.952-6.333-9.408-8.984c-1.444-1.093-3.775-2.022-4.858-0.557
						c-0.443,0.619-0.474,1.434-0.433,2.197c0.32,5.147,2.548,10.16,6.158,13.863c1.836,1.836,4.012,3.404,5.24,5.694
						c2.269,4.105,0.825,9.17-0.65,13.626c-0.774,2.259-1.558,4.59-3.043,6.457c-1.506,1.857-3.889,3.187-6.241,2.785
						c1.599-8.314,0.639-17.102-2.672-24.88c-0.547-1.289-1.444-2.733-2.847-2.703c-1.114,0.031-1.96,1.052-2.383,2.104
						c-0.928,2.311-0.536,4.91-0.196,7.396c0.413,2.981,0.66,6.251-1.578,8.634c-1.258,1.331-3.28,1.815-4.838,0.856
						c-2.527-1.537-1.743-4.838-1.867-7.551c-0.237-4.714-3.755-8.685-4.384-13.348c-0.598-4.497,1.516-9.304-1.062-13.41
						c-0.753-1.238-2.383-1.815-3.641-1.042c-2.032,1.228-0.66,4.466-2.001,6.313c-0.877,1.155-2.579,1.351-3.94,0.887
						c-1.351-0.454-2.496-1.382-3.683-2.197c-2.507-1.733-5.415-2.899-8.438-3.404c-1.465-0.258-3.229-0.237-4.167,0.897
						c-0.877,1.042-0.691,2.672-0.041,3.879c2.496,4.631,9.232,4.25,13.781,6.89c3.806,2.197,6.014,6.87,5.312,11.202
						c-5.766,1.444-11.336-2.527-16.978-4.425c-2.548-0.866-5.529-1.279-7.695,0.629c-1.279,1.124-1.743,3.043-0.815,4.487
						c1.98,3.033,7.086,0.175,8.396,4.662c0.33,1.073,0.227,2.228-0.093,3.301c-0.732,2.445-1.465,4.858-2.208,7.303
						c-4.074-1.64-8.324-3.291-12.719-3.043c-4.394,0.258-8.974,2.95-9.923,7.252c-0.144,0.681-0.196,1.413,0.155,1.991
						c0.402,0.712,1.248,0.98,2.022,1.186c3.817,1.021,7.777,1.496,11.728,1.392c3.322-0.103,6.787-0.567,9.696,1.32
						c1.661,1.073,2.764,2.94,2.424,4.889c-0.454,2.837-3.476,3.806-6.003,3.435c-2.084-0.31-4.013-1.32-6.014-2.001
						c-2.672-0.908-5.57-1.197-8.376-0.856c-1.619,0.175-3.414,0.732-4.147,2.176c-0.835,1.589,0.01,3.641,1.403,4.724
						c1.393,1.114,3.218,1.516,4.951,1.877c8.139,1.754,16.752,3.445,24.643,1.248c1.444-0.392,3.012,0.258,3.651,1.599
						c0.01,0.031,0.031,0.072,0.041,0.103c0.784,1.692-0.186,3.744-2.012,4.25c-7.613,2.084-14.121,8.066-16.69,15.555
						c-0.536,1.599-0.804,3.652,0.898,4.549c1.403,0.722,3.136,0.144,4.116-1.114c5.384-6.952,12.615-13.275,21.352-14.916
						c7.035-1.289,14.224,0.588,21.156,2.455c2.857,0.774,5.797,1.589,8.231,3.27c2.465,1.692,4.384,4.446,4.25,7.417
						c-10.037,1.764-20.042-6.313-30.12-2.744c-1.98,0.691-3.363,2.682-2.929,4.745c1.176,5.56,11.8,1.516,11.357,8.345
						c-0.01,0.175-0.041,0.361-0.072,0.547h9.397c1.702-1.331,3.806-2.187,5.952-2.568c3.486-0.609,7.045-0.124,10.511,0.464
						c3.043,0.536,6.117,1.145,9.077,2.104h28.418c-4.425-3.837-9.593-6.839-15.163-8.685l1.919-16.875
						c3.713-0.227,7.354-1.506,10.428-3.621c0.702,0.691,1.32,1.475,1.826,2.321c1.424,2.424,2.084,5.219,2.599,7.963
						c0.805,4.126,1.403,8.355,0.774,12.502c-0.33,2.228-1.021,4.384-2.022,6.395h12.368c0.062-0.774,0.103-1.527,0.103-2.3
						c0.01-0.588,0.01-1.197-0.01-1.784l5.487-1.382l7.633-1.939c1.217,2.723,3.208,5.106,5.673,6.787
						c0.33,0.227,0.66,0.433,1.011,0.619h4.683c0.464-0.402,0.784-0.959,0.856-1.568c0.361-2.96-4.549-3.662-5.498-6.447
						c-0.516-1.454,0.258-3.074,1.372-4.147c1.094-1.073,2.507-1.764,3.755-2.672c1.527-1.093,2.795-2.527,3.693-4.167
						c0.34-0.609,0.639-1.289,0.701-1.991c0.052-0.64-0.093-1.279-0.598-1.877c-0.67-0.825-1.785-1.217-2.847-1.124
						c-0.299,0.021-0.588,0.072-0.846,0.155c-1.568,0.423-2.796,1.558-3.951,2.703c-0.145,0.175-0.299,0.33-0.454,0.485
						c-1.3,1.32-2.641,2.62-4.054,3.806c-3.848,3.301-8.19,5.91-13.317,6.426c-0.609,0.051-1.238,0.01-1.815-0.145
						c-1.382-0.34-2.579-1.248-3.136-2.589c-1.114-2.672,1.083-4.92,3.095-6.571c5.756-4.714,11.821-9.088,18.113-13.069
						c1.31-0.815,2.785-1.661,4.301-1.393c0.887,0.165,1.671,0.681,2.445,1.145c3.064,1.784,6.653,2.641,10.212,2.486
						c1.289-0.041,2.579-0.227,3.816-0.536c1.258-0.33,2.579-0.784,3.827-0.464c0.98,0.279,1.774,0.939,2.527,1.609
						c2.352,2.063,4.693,4.147,7.035,6.199c2.899,2.579,6.117,5.271,9.985,5.622c0.382,0.041,0.805,0.041,1.114-0.165
						c0.392-0.289,0.485-0.815,0.516-1.289C494.463,480.4,491.255,477.461,488.397,474.995z M368.743,466.754
						c-0.299,2.012-0.918,4.178-2.6,5.323c-1.65,1.104-3.961,0.887-5.632-0.175c-1.692-1.073-2.806-2.847-3.517-4.704
						c-0.681-1.754-1.063-3.6-1.784-5.333c-0.691-1.743-1.815-3.414-3.487-4.25c-1.661-0.836-3.992-0.578-5.054,0.959
						c-0.928,1.341-0.691,3.177-0.114,4.683c0.588,1.516,1.496,2.94,1.795,4.539c0.309,1.599-0.175,3.528-1.65,4.208
						c-1.815,0.856-3.817-0.588-5.292-1.949c-3.713-3.425-7.107-7.014-10.057-11.12c-2.403-3.342-4.704-6.302-5.023-10.635
						c-0.279-4.023,1.423-10.624,5.518-12.471c2.744-1.259,5.972,0.629,7.829,3.022c1.846,2.403,2.95,5.343,5.034,7.52
						c3.208,3.373,8.108,4.322,12.584,5.549c4.487,1.248,9.325,3.352,11.047,7.664C369.227,461.833,369.124,464.36,368.743,466.754z
						 M454.543,436.035c-0.196,0.732-0.505,1.444-0.887,2.063c-1.279,2.073-3.167,3.703-4.198,5.89
						c-1.609,3.332-0.959,7.272-0.598,10.944c0.155,1.733,0.175,3.59-0.093,5.323c-0.341,1.949-1.073,3.744-2.527,5.065
						c-0.33,0.31-0.681,0.567-1.042,0.794c-1.248,0.784-2.723,1.238-4.188,1.527c-1.578,0.34-3.373,0.495-4.693-0.433
						c-1.31-0.918-1.774-2.702-1.465-4.26c0.33-1.558,1.351-2.878,2.527-3.94c1.104-1,2.372-1.805,3.476-2.837
						c1.093-1.001,2.043-2.311,2.197-3.806c0.155-1.465-0.712-3.136-2.156-3.487c-1.259-0.32-2.558,0.382-3.518,1.238
						c-0.969,0.867-1.784,1.939-2.878,2.61c-1.114,0.691-2.682,0.866-3.61-0.041c-1.135-1.124-0.639-3.012-0.041-4.497
						c1.516-3.744,3.239-7.282,5.467-10.635c1.816-2.733,3.383-5.281,6.519-6.736c2.424-1.104,6.519-1.692,9.304-0.444
						c0.588,0.248,1.124,0.609,1.568,1.052C454.884,432.6,455.018,434.375,454.543,436.035z"/>
				</g>
			</g>
		</g>
		<g>
			<defs>
				
					<rect id="SVGID_00000031174356991603986800000013395056355487223175_" x="-51.509" y="51.509" transform="matrix(-1.836970e-16 1 -1 -1.836970e-16 159.5303 51.5085)" width="211.039" height="108.022"/>
			</defs>
			<clipPath id="SVGID_00000083773914366318266000000012693497549695383170_">
				<use xlink:href="#SVGID_00000031174356991603986800000013395056355487223175_"  style="overflow:visible;"/>
			</clipPath>
			<g style="clip-path:url(#SVGID_00000083773914366318266000000012693497549695383170_);">
				<g>
					<path style="fill:#EB6E00;stroke:#3A006E;stroke-linecap:round;stroke-linejoin:round;stroke-miterlimit:10;" d="
						M3.832,123.572c2.901-2.415,6.613-4.86,10.166-3.607c1.404,0.479,2.549,1.501,3.701,2.419c2.684,2.183,5.608,4.061,8.717,5.594
						c0.086,0.046,0.185,0.084,0.291,0.133c1.279,0.542,3.016,0.785,3.6-0.434c0.26-0.542,0.152-1.198-0.001-1.779
						c-0.072-0.253-0.136-0.494-0.201-0.725c-0.903-2.937-2.603-5.611-4.854-7.7c-0.588-0.539-1.218-1.023-1.872-1.48
						c-1.716-1.171-3.656-2.066-4.974-3.671c-1.688-2.013-1.997-4.682-1.873-7.381c0.048-1.143,0.187-2.27,0.323-3.377
						c0.247-1.883,0.506-3.838,1.388-5.519c0.894-1.689,2.556-3.092,4.455-3.124c0.008,0.755,0.036,1.513,0.094,2.276
						c0.115,1.725,0.375,3.454,0.76,5.131c0.568,2.503,1.408,4.948,2.532,7.263c0.714,1.523,1.552,2.995,2.497,4.39
						c0.629,0.913,1.549,1.906,2.643,1.684c0.871-0.197,1.376-1.137,1.536-2.02c0.375-1.956-0.338-3.918-0.968-5.815
						c-0.766-2.265-1.465-4.8-0.087-6.994c0.184-0.283,0.417-0.546,0.676-0.775c0.813-0.72,1.953-1.028,2.985-0.633
						c0.403,0.152,0.723,0.364,0.985,0.607c1.205,1.157,1.21,3.282,1.637,5.018c0.336,1.344,0.992,2.533,1.748,3.687
						c1.325,1.993,2.946,3.839,3.704,6.091c0.789,2.311,0.62,4.908,1.221,7.218c0.302,1.118,0.79,2.185,1.648,3.105
						c0.796,0.857,2.152,1.067,3.019,0.273c0.126-0.125,0.232-0.254,0.307-0.387c0.822-1.325-0.408-3.386,0.294-4.868
						c0.084-0.185,0.205-0.342,0.332-0.477c0.618-0.68,1.679-0.949,2.607-0.812c1.149,0.133,2.173,0.694,3.225,1.155
						c1.06,0.473,2.185,0.811,3.329,1.037c1.24,0.274,2.521,0.376,3.803,0.343c1.021-0.036,2.195-0.234,2.864-0.967
						c0.104-0.118,0.186-0.23,0.261-0.364c0.52-0.968,0.133-2.196-0.57-3.048c-0.954-1.156-2.228-1.729-3.658-2.055
						c-2.557-0.592-5.619-0.37-8.18-1.244c-3.31-1.149-5.751-4.452-5.848-7.942c0.978-0.461,1.981-0.699,3.019-0.773
						c3.024-0.25,6.267,0.804,9.431,1.394c0.507,0.097,1.005,0.181,1.495,0.254c0.727,0.092,1.472,0.146,2.214,0.084
						c1.438-0.09,2.783-0.552,3.72-1.753c0.833-1.083,0.901-2.651-0.042-3.628c-2.011-2.079-5.569,0.936-7.286-2.379
						c-0.41-0.792-0.515-1.709-0.427-2.594c0.198-2.027,0.414-4.031,0.624-6.067c3.444,0.669,7.016,1.319,10.417,0.453
						c3.393-0.878,6.558-3.677,6.653-7.187c0.02-0.551-0.057-1.14-0.429-1.538c-0.421-0.48-1.138-0.57-1.758-0.613
						c-3.153-0.222-6.322,0.013-9.389,0.695c-2.579,0.587-5.231,1.475-7.787,0.444c-1.47-0.585-2.609-1.887-2.644-3.463
						c-0.082-2.285,2.135-3.508,4.17-3.602c1.676-0.071,3.329,0.42,5.005,0.652c2.239,0.307,4.544,0.103,6.694-0.599
						c1.229-0.398,2.561-1.092,2.921-2.349c0.4-1.365-0.574-2.839-1.825-3.481c-1.26-0.654-2.748-0.698-4.169-0.709
						c-6.622-0.132-13.63-0.141-19.472,2.768c-1.075,0.539-2.389,0.264-3.106-0.685c-0.007-0.022-0.032-0.058-0.041-0.07
						c-0.873-1.205-0.424-2.981,0.923-3.641c5.643-2.786,9.829-8.457,10.694-14.713c0.176-1.341,0.086-2.967-1.386-3.417
						c-1.216-0.353-2.477,0.353-3.057,1.489c-3.158,6.264-7.85,12.32-14.434,14.925c-5.315,2.089-11.235,1.71-16.93,1.296
						c-2.358-0.16-4.784-0.353-6.959-1.288c-2.171-0.955-4.093-2.82-4.438-5.16c7.58-2.917,16.64,1.888,23.98-2.451
						c1.451-0.841,2.222-2.604,1.575-4.158c-1.762-4.16-9.47,0.618-10.15-4.792c-0.164-1.315,0.471-2.588,1.416-3.526
						c1.3-1.306,1.841-3.38,1.372-5.176c1.296-0.115,2.58-0.095,3.857-0.223c2.349-0.218,4.624-0.982,6.65-2.186
						c1.453-0.852,2.885-2.073,2.561-4.106c-0.221-1.345-1.172-2.459-2.383-3.031c-2.518-1.192-5.254-0.423-7.812,0.283
						c-8.274,2.266-17.247,3.774-25.263,0.088c-2.367-1.093-3.997-3.505-3.65-6.103c0.493-3.578,4.302-4.625,7.516-5.125
						c9.237-1.464,18.565-2.357,27.903-2.695c1.923-0.049,4.056-0.042,5.529,1.202c0.866,0.754,1.378,1.804,1.92,2.796
						c2.984,5.278,8.116,9.311,13.951,10.994c1.566,0.455,3.289,0.779,4.452,1.939c0.872,0.902,1.302,2.126,1.714,3.336
						c1.231,3.714,2.44,7.436,3.679,11.162c1.526,4.623,3.292,9.558,7.265,12.41c0.391,0.286,0.839,0.54,1.306,0.504
						c0.616-0.052,1.036-0.556,1.362-1.055c2.56-3.98,0.958-9.202-0.593-13.682c-1.53-4.477-2.75-9.916,0.292-13.531
						c1.185-1.431,2.875-2.326,4.467-3.258c3.763-2.196,7.242-4.806,10.434-7.768c1.32-1.24,2.626-3.383,1.364-4.696
						c-0.536-0.541-1.334-0.708-2.093-0.795c-5.128-0.548-10.444,0.809-14.7,3.747c-2.118,1.502-4.028,3.385-6.492,4.211
						c-4.428,1.549-9.179-0.724-13.324-2.925c-2.097-1.141-4.264-2.305-5.856-4.082c-1.578-1.796-2.49-4.368-1.699-6.619
						c7.928,2.97,16.753,3.497,24.976,1.537c1.363-0.323,2.937-0.965,3.142-2.354c0.156-1.103-0.709-2.108-1.675-2.702
						c-2.122-1.303-4.751-1.352-7.258-1.433c-3.008-0.093-6.273-0.397-8.247-3.003c-1.101-1.464-1.24-3.538-0.033-4.913
						c1.939-2.234,5.062-0.907,7.757-0.575c4.687,0.556,9.192-2.246,13.894-2.084c4.534,0.164,8.918,3.055,13.398,1.201
						c1.346-0.535,2.189-2.045,1.637-3.415c-0.869-2.209-4.293-1.4-5.888-3.031c-0.992-1.058-0.9-2.769-0.214-4.033
						c0.674-1.256,1.781-2.229,2.783-3.262c2.129-2.181,3.765-4.853,4.77-7.748c0.5-1.401,0.775-3.143-0.186-4.259
						c-0.88-1.039-2.518-1.129-3.817-0.691c-4.984,1.685-5.737,8.389-9.103,12.431c-2.804,3.384-7.781,4.777-11.934,3.359
						c-0.457-5.927,4.392-10.752,7.209-15.996c1.281-2.366,2.188-5.236,0.67-7.692c-0.894-1.449-2.708-2.229-4.287-1.556
						c-3.322,1.444-1.361,6.957-6.004,7.496c-1.113,0.146-2.234-0.15-3.239-0.645c-2.287-1.132-4.544-2.259-6.83-3.401
						c2.3-3.742,4.639-7.655,5.132-12.028c0.482-4.375-1.404-9.342-5.485-10.998c-0.647-0.256-1.36-0.43-1.988-0.181
						c-0.769,0.277-1.175,1.066-1.509,1.794c-1.646,3.591-2.778,7.417-3.339,11.329c-0.455,3.292-0.579,6.786-2.927,9.338
						c-1.336,1.457-3.362,2.233-5.226,1.57c-2.72-0.923-3.17-4.065-2.38-6.494c0.654-2.002,1.974-3.734,2.981-5.593
						c1.343-2.482,2.113-5.291,2.248-8.114c0.099-1.626-0.15-3.489-1.451-4.453c-1.426-1.09-3.591-0.6-4.893,0.591
						c-1.332,1.186-2.034,2.919-2.681,4.567c-3.093,7.729-6.205,15.937-5.361,24.085c0.144,1.489-0.759,2.926-2.188,3.332
						c-0.032,0.005-0.076,0.018-0.109,0.023c-1.799,0.489-3.66-0.811-3.852-2.695c-0.778-7.854-5.585-15.274-12.537-19.061
						c-1.486-0.797-3.465-1.405-4.635,0.122c-0.947,1.262-0.668,3.067,0.408,4.244c5.951,6.474,10.973,14.662,11.125,23.55
						c0.092,7.152-2.964,13.925-5.967,20.445c-1.242,2.687-2.538,5.449-4.603,7.567c-2.081,2.147-5.118,3.577-8.024,2.947
						c-0.056-10.19,9.583-18.7,7.754-29.234c-0.349-2.068-2.08-3.765-4.187-3.683C3.192-24.339,5.398-13.187-1.26-14.769
						c-0.171-0.04-0.349-0.101-0.527-0.163l-1.575,9.264c1.026,1.901,1.518,4.119,1.534,6.298c0.015,3.539-1.059,6.966-2.22,10.285
						c-1.039,2.91-2.154,5.838-3.596,8.596l-4.764,28.016c4.525-3.719,8.35-8.311,11.104-13.493l16.315,4.721
						c-0.399,3.699,0.252,7.503,1.821,10.888c-0.799,0.576-1.675,1.054-2.594,1.411c-2.628,0.997-5.495,1.179-8.286,1.228
						C1.75,52.383-2.52,52.264-6.502,50.948c-2.141-0.699-4.151-1.742-5.966-3.065l-2.073,12.193
						c0.752,0.191,1.488,0.358,2.25,0.487c0.578,0.109,1.178,0.211,1.761,0.289l0.443,5.641l0.632,7.85
						c-2.889,0.743-5.572,2.306-7.642,4.455c-0.279,0.287-0.538,0.578-0.78,0.893l-0.785,4.617c0.319,0.525,0.814,0.934,1.402,1.107
						c2.858,0.852,4.373-3.871,7.277-4.339c1.52-0.265,2.987,0.77,3.858,2.047c0.874,1.258,1.319,2.767,2.004,4.15
						c0.822,1.688,2.023,3.179,3.489,4.339c0.543,0.438,1.164,0.847,1.845,1.025c0.622,0.158,1.277,0.123,1.951-0.275
						c0.926-0.522,1.499-1.555,1.586-2.618c0.03-0.298,0.027-0.592-0.011-0.86c-0.154-1.617-1.067-3.017-2.002-4.348
						c-0.149-0.172-0.275-0.35-0.402-0.529c-1.084-1.503-2.14-3.042-3.073-4.635c-2.609-4.346-4.454-9.065-4.103-14.205
						c0.051-0.609,0.197-1.222,0.447-1.766c0.567-1.306,1.663-2.333,3.078-2.657c2.82-0.651,4.669,1.893,5.959,4.152
						c3.682,6.465,6.977,13.177,9.848,20.048c0.584,1.428,1.17,3.024,0.652,4.474c-0.312,0.847-0.951,1.533-1.539,2.218
						c-2.273,2.721-3.719,6.116-4.163,9.651c-0.175,1.278-0.209,2.58-0.111,3.852c0.114,1.296,0.34,2.674-0.184,3.851
						c-0.439,0.919-1.223,1.592-2.01,2.222c-2.428,1.973-4.875,3.932-7.291,5.896c-3.028,2.425-6.222,5.147-7.216,8.901
						c-0.105,0.369-0.176,0.786-0.024,1.126c0.219,0.435,0.722,0.615,1.185,0.725C-2.513,128.646,0.923,125.976,3.832,123.572z
						 M32.016,6.992c-1.933-0.632-3.965-1.605-4.812-3.455c-0.811-1.812-0.211-4.053,1.117-5.523
						c1.341-1.488,3.277-2.289,5.227-2.679c1.843-0.377,3.727-0.444,5.557-0.865c1.834-0.389,3.67-1.217,4.774-2.725
						c1.102-1.497,1.239-3.839-0.098-5.144c-1.166-1.14-3.016-1.214-4.598-0.897c-1.594,0.326-3.149,0.982-4.775,1.009
						c-1.628,0.037-3.448-0.764-3.872-2.332c-0.54-1.933,1.219-3.664,2.809-4.89c3.999-3.087,8.106-5.831,12.648-8.051
						c3.698-1.809,7.002-3.581,11.326-3.169c4.013,0.4,10.236,3.184,11.369,7.531c0.781,2.916-1.621,5.782-4.292,7.212
						c-2.679,1.417-5.762,2.013-8.257,3.702c-3.863,2.597-5.62,7.268-7.581,11.476c-1.983,4.214-4.868,8.631-9.408,9.606
						C36.786,8.295,34.312,7.77,32.016,6.992z M47.916,96.729c-0.689-0.316-1.339-0.74-1.885-1.22
						c-1.83-1.609-3.12-3.743-5.103-5.126c-3.015-2.145-7.008-2.165-10.689-2.424c-1.734-0.138-3.568-0.429-5.232-0.984
						c-1.865-0.662-3.512-1.685-4.569-3.34c-0.25-0.377-0.445-0.767-0.608-1.16c-0.564-1.362-0.764-2.892-0.803-4.385
						c-0.071-1.613,0.077-3.408,1.214-4.554c1.125-1.138,2.962-1.296,4.445-0.73c1.48,0.586,2.611,1.814,3.461,3.152
						c0.801,1.256,1.382,2.642,2.214,3.903c0.803,1.246,1.935,2.401,3.384,2.804c1.418,0.398,3.211-0.176,3.799-1.541
						c0.526-1.187,0.053-2.586-0.631-3.675c-0.692-1.101-1.613-2.084-2.09-3.275c-0.494-1.214-0.405-2.789,0.646-3.552
						c1.299-0.93,3.076-0.125,4.441,0.713c3.437,2.123,6.636,4.414,9.568,7.173c2.391,2.248,4.639,4.221,5.548,7.556
						c0.682,2.575,0.575,6.71-1.122,9.247c-0.343,0.538-0.788,1.006-1.3,1.369C51.246,97.64,49.474,97.475,47.916,96.729z"/>
				</g>
			</g>
		</g>
		<g>
			<g>
				<defs>
					
						<rect id="SVGID_00000023243972083914456910000003909521842142386876_" y="335.264" transform="matrix(-1 -1.224647e-16 1.224647e-16 -1 144.3313 835.2644)" width="144.331" height="164.736"/>
				</defs>
				<clipPath id="SVGID_00000079464095024874495790000017946682945426650793_">
					<use xlink:href="#SVGID_00000023243972083914456910000003909521842142386876_"  style="overflow:visible;"/>
				</clipPath>
				<g style="clip-path:url(#SVGID_00000079464095024874495790000017946682945426650793_);">
					<g>
						<g>
							<path style="fill:#46C233;stroke:#3A006E;stroke-linecap:round;stroke-linejoin:round;stroke-miterlimit:10;" d="
								M29.132,371.236c-0.423-2.654-0.465-5.404,0.24-7.997c0.744-2.739,2.327-5.244,4.481-7.093
								c1.391-1.193,3.093-2.138,4.925-2.191c1.552-0.046,3.12,0.59,4.175,1.728c1.056,1.139,1.571,2.768,1.327,4.301
								c-0.268,1.679-1.362,3.099-2.504,4.359c-1.595,1.759-3.165,3.545-4.88,5.188c-3.698,3.545-5.754,9.504-5.754,9.504
								C30.35,376.467,29.555,373.889,29.132,371.236z"/>
							<path style="fill:#46C233;stroke:#3A006E;stroke-linecap:round;stroke-linejoin:round;stroke-miterlimit:10;" d="
								M36.843,389.179c0.177-2.608,0.737-5.224,1.97-7.529c1.302-2.435,3.349-4.465,5.794-5.747
								c1.578-0.828,3.398-1.353,5.146-1.004c1.481,0.295,2.829,1.239,3.581,2.548c0.753,1.309,0.887,2.966,0.321,4.366
								c-0.62,1.533-1.966,2.642-3.323,3.587c-1.895,1.32-3.773,2.671-5.756,3.855c-4.278,2.555-7.525,7.756-7.525,7.756
								C36.858,394.404,36.666,391.787,36.843,389.179z"/>
							<path style="fill:#46C233;stroke:#3A006E;stroke-linecap:round;stroke-linejoin:round;stroke-miterlimit:10;" d="
								M39.495,409.78c0.177-2.608,0.737-5.224,1.97-7.529c1.302-2.435,3.349-4.465,5.794-5.747
								c1.578-0.828,3.398-1.353,5.146-1.004c1.481,0.295,2.829,1.239,3.582,2.548s0.887,2.966,0.321,4.366
								c-0.619,1.533-1.966,2.642-3.323,3.587c-1.895,1.32-3.773,2.671-5.756,3.855c-4.278,2.555-7.525,7.756-7.525,7.756
								C39.51,415.005,39.318,412.388,39.495,409.78z"/>
							<path style="fill:#46C233;stroke:#3A006E;stroke-linecap:round;stroke-linejoin:round;stroke-miterlimit:10;" d="
								M42.285,429.138c0.535-2.558,1.451-5.073,2.991-7.185c1.626-2.231,3.933-3.959,6.532-4.892
								c1.677-0.602,3.552-0.87,5.235-0.284c1.427,0.497,2.631,1.617,3.195,3.019c0.564,1.401,0.468,3.06-0.286,4.369
								c-0.825,1.433-2.312,2.345-3.787,3.093c-2.06,1.046-4.106,2.124-6.234,3.023c-4.59,1.94-8.524,6.642-8.524,6.642
								C41.578,434.315,41.75,431.697,42.285,429.138z"/>
							<path style="fill:#46C233;stroke:#3A006E;stroke-linecap:round;stroke-linejoin:round;stroke-miterlimit:10;" d="
								M40.835,450.039c1.175-2.745,2.767-5.355,4.967-7.375c2.324-2.133,5.297-3.55,8.418-4.01c2.014-0.297,4.175-0.176,5.928,0.86
								c1.486,0.878,2.583,2.404,2.9,4.1c0.317,1.696-0.164,3.533-1.303,4.829c-1.247,1.419-3.118,2.106-4.938,2.613
								c-2.542,0.708-5.077,1.456-7.663,1.984c-5.578,1.14-11.043,5.522-11.043,5.522C38.879,455.678,39.66,452.784,40.835,450.039z
								"/>
							<path style="fill:#46C233;stroke:#3A006E;stroke-linecap:round;stroke-linejoin:round;stroke-miterlimit:10;" d="
								M34.827,499.123c0.456-3.232,1.389-6.441,3.133-9.201c1.842-2.915,4.574-5.259,7.736-6.636
								c2.041-0.889,4.355-1.378,6.501-0.787c1.819,0.501,3.412,1.798,4.231,3.497c0.819,1.699,0.837,3.775,0.005,5.468
								c-0.91,1.854-2.688,3.113-4.463,4.168c-2.48,1.473-4.941,2.986-7.518,4.283c-5.559,2.796-10.074,8.981-10.074,8.981
								C34.374,505.633,34.371,502.355,34.827,499.123z"/>
							<path style="fill:#46C233;stroke:#3A006E;stroke-linecap:round;stroke-linejoin:round;stroke-miterlimit:10;" d="
								M36.249,479.885c0.389-2.763,1.187-5.505,2.678-7.864c1.574-2.492,3.91-4.495,6.612-5.672
								c1.744-0.76,3.722-1.178,5.556-0.672c1.554,0.428,2.916,1.537,3.616,2.989c0.7,1.452,0.715,3.226,0.005,4.673
								c-0.778,1.585-2.297,2.66-3.815,3.562c-2.12,1.259-4.223,2.552-6.426,3.66c-4.751,2.39-8.61,7.676-8.61,7.676
								C35.861,485.449,35.859,482.648,36.249,479.885z"/>
							<path style="fill:#46C233;stroke:#3A006E;stroke-linecap:round;stroke-linejoin:round;stroke-miterlimit:10;" d="
								M30.314,376.216c-1.195-2.325-2.745-4.506-4.79-6.134c-2.16-1.72-4.843-2.774-7.596-2.984
								c-1.777-0.135-3.656,0.103-5.123,1.115c-1.244,0.858-2.107,2.257-2.28,3.758c-0.173,1.501,0.36,3.075,1.434,4.137
								c1.176,1.163,2.851,1.647,4.472,1.978c2.263,0.462,4.522,0.959,6.812,1.261c4.94,0.652,9.981,4.143,9.981,4.143
								C32.368,381.019,31.508,378.54,30.314,376.216z"/>
							<path style="fill:#46C233;stroke:#3A006E;stroke-linecap:round;stroke-linejoin:round;stroke-miterlimit:10;" d="
								M34.803,394.05c-0.956-2.433-2.28-4.758-4.151-6.583c-1.977-1.928-4.541-3.245-7.259-3.729
								c-1.755-0.313-3.648-0.263-5.209,0.597c-1.323,0.729-2.323,2.035-2.645,3.511c-0.322,1.476,0.05,3.095,1.013,4.259
								c1.054,1.275,2.672,1.924,4.251,2.416c2.206,0.686,4.404,1.407,6.652,1.937c4.85,1.144,9.516,5.121,9.516,5.121
								C36.367,399.035,35.759,396.483,34.803,394.05z"/>
							<path style="fill:#46C233;stroke:#3A006E;stroke-linecap:round;stroke-linejoin:round;stroke-miterlimit:10;" d="
								M38.89,417.604c-0.457-2.573-1.297-5.114-2.771-7.272c-1.558-2.28-3.811-4.077-6.381-5.088
								c-1.659-0.653-3.524-0.978-5.225-0.443c-1.441,0.453-2.678,1.537-3.285,2.92c-0.607,1.383-0.561,3.044,0.153,4.376
								c0.782,1.457,2.24,2.414,3.691,3.207c2.027,1.108,4.04,2.248,6.139,3.211c4.529,2.078,8.319,6.897,8.319,6.897
								C39.44,422.8,39.348,420.177,38.89,417.604z"/>
							<path style="fill:#46C233;stroke:#3A006E;stroke-linecap:round;stroke-linejoin:round;stroke-miterlimit:10;" d="
								M38.633,439.246c-1.092-2.78-2.603-5.437-4.741-7.523c-2.258-2.203-5.187-3.709-8.292-4.263
								c-2.005-0.358-4.168-0.302-5.952,0.68c-1.512,0.832-2.655,2.324-3.023,4.01c-0.369,1.686,0.056,3.536,1.156,4.867
								c1.203,1.457,3.052,2.2,4.856,2.761c2.52,0.785,5.031,1.609,7.599,2.216c5.54,1.308,10.87,5.854,10.87,5.854
								C40.418,444.943,39.725,442.025,38.633,439.246z"/>
							<path style="fill:#46C233;stroke:#3A006E;stroke-linecap:round;stroke-linejoin:round;stroke-miterlimit:10;" d="
								M32.451,495.764c-0.33-3.248-1.138-6.49-2.774-9.315c-1.727-2.984-4.367-5.433-7.473-6.931
								c-2.005-0.967-4.298-1.546-6.465-1.038c-1.837,0.43-3.479,1.665-4.364,3.331c-0.885,1.666-0.983,3.739-0.217,5.464
								c0.837,1.888,2.565,3.215,4.298,4.338c2.421,1.568,4.822,3.176,7.346,4.571c5.447,3.01,9.718,9.365,9.718,9.365
								C32.651,502.286,32.781,499.012,32.451,495.764z"/>
							<path style="fill:#46C233;stroke:#3A006E;stroke-linecap:round;stroke-linejoin:round;stroke-miterlimit:10;" d="
								M36.683,466.465c-0.33-3.248-1.138-6.49-2.774-9.315c-1.728-2.984-4.367-5.432-7.473-6.931
								c-2.005-0.967-4.298-1.546-6.465-1.038c-1.837,0.43-3.479,1.665-4.364,3.331c-0.885,1.666-0.983,3.739-0.217,5.464
								c0.837,1.888,2.565,3.215,4.298,4.338c2.421,1.568,4.822,3.176,7.346,4.571c5.447,3.01,9.718,9.365,9.718,9.365
								C36.883,472.988,37.013,469.713,36.683,466.465z"/>
							<path style="fill:#46C233;stroke:#3A006E;stroke-linecap:round;stroke-linejoin:round;stroke-miterlimit:10;" d="
								M29.837,520.146c-0.266-3.253-1.011-6.511-2.591-9.368c-1.669-3.017-4.26-5.517-7.336-7.076
								c-1.985-1.006-4.267-1.63-6.444-1.164c-1.845,0.394-3.511,1.596-4.428,3.245c-0.917,1.649-1.055,3.719-0.324,5.458
								c0.8,1.904,2.502,3.264,4.213,4.421c2.39,1.615,4.758,3.27,7.256,4.714c5.387,3.116,9.533,9.554,9.533,9.554
								C29.909,526.671,30.103,523.399,29.837,520.146z"/>
						</g>
						<path style="fill:#46C233;stroke:#3A006E;stroke-linecap:round;stroke-linejoin:round;stroke-miterlimit:10;" d="
							M38.886,441.961c-0.357,26.409-8.184,52.02-9.425,78.386c-0.39,8.826-0.066,17.728,1.621,26.378
							c-0.93-8.759-0.791-17.551,0.062-26.259c2.142-22.441,8.481-44.304,10.539-66.793c2.41-26.89-1.629-54.424-11.64-79.51
							c-1.226-3.072-1.952-3.486-0.922-0.342C36.063,394.989,39.329,423.658,38.886,441.961z"/>
					</g>
					<g>
						<g>
							<path style="fill:#46C233;stroke:#3A006E;stroke-linecap:round;stroke-linejoin:round;stroke-miterlimit:10;" d="
								M104.354,356.052c-0.043-2.687,0.305-5.415,1.37-7.883c1.125-2.606,3.047-4.862,5.441-6.386
								c1.546-0.984,3.365-1.678,5.186-1.471c1.543,0.175,3.004,1.026,3.888,2.302c0.884,1.277,1.163,2.962,0.704,4.446
								c-0.503,1.624-1.787,2.875-3.096,3.96c-1.828,1.516-3.636,3.061-5.566,4.445c-4.163,2.985-7.042,8.593-7.042,8.593
								C104.819,361.404,104.397,358.739,104.354,356.052z"/>
							<path style="fill:#46C233;stroke:#3A006E;stroke-linecap:round;stroke-linejoin:round;stroke-miterlimit:10;" d="
								M108.58,375.816c0.545-2.557,1.469-5.067,3.016-7.174c1.634-2.225,3.947-3.945,6.55-4.868
								c1.68-0.596,3.555-0.858,5.236-0.265c1.425,0.502,2.625,1.627,3.184,3.03c0.56,1.403,0.457,3.062-0.301,4.368
								c-0.83,1.43-2.321,2.336-3.798,3.08c-2.063,1.038-4.114,2.109-6.244,3.001c-4.597,1.923-8.548,6.611-8.548,6.611
								C107.854,380.991,108.035,378.373,108.58,375.816z"/>
							<path style="fill:#46C233;stroke:#3A006E;stroke-linecap:round;stroke-linejoin:round;stroke-miterlimit:10;" d="
								M108.286,396.585c0.545-2.556,1.469-5.067,3.016-7.174c1.634-2.225,3.948-3.945,6.55-4.868
								c1.68-0.596,3.556-0.857,5.236-0.265c1.425,0.502,2.625,1.627,3.184,3.03c0.56,1.403,0.458,3.062-0.301,4.368
								c-0.831,1.43-2.321,2.336-3.798,3.08c-2.063,1.038-4.114,2.109-6.244,3.001c-4.597,1.923-8.548,6.611-8.548,6.611
								C107.561,401.759,107.742,399.141,108.286,396.585z"/>
							<path style="fill:#46C233;stroke:#3A006E;stroke-linecap:round;stroke-linejoin:round;stroke-miterlimit:10;" d="
								M106.546,417.519c0.892-2.457,2.155-4.816,3.978-6.689c1.926-1.979,4.455-3.362,7.16-3.917
								c1.746-0.358,3.64-0.358,5.223,0.461c1.342,0.694,2.375,1.974,2.735,3.441c0.36,1.467,0.03,3.095-0.902,4.284
								c-1.02,1.302-2.621,1.993-4.187,2.525c-2.187,0.743-4.366,1.521-6.599,2.109c-4.818,1.27-9.379,5.367-9.379,5.367
								C105.112,422.543,105.653,419.976,106.546,417.519z"/>
							<path style="fill:#46C233;stroke:#3A006E;stroke-linecap:round;stroke-linejoin:round;stroke-miterlimit:10;" d="
								M103.909,436.628c1.553-2.551,3.498-4.909,5.961-6.597c2.602-1.783,5.746-2.764,8.901-2.777
								c2.036-0.009,4.158,0.418,5.747,1.691c1.347,1.079,2.216,2.745,2.29,4.469c0.074,1.724-0.663,3.474-1.974,4.596
								c-1.436,1.228-3.385,1.643-5.258,1.887c-2.617,0.341-5.232,0.721-7.867,0.878c-5.683,0.338-11.714,3.902-11.714,3.902
								C101.173,441.933,102.357,439.179,103.909,436.628z"/>
							<path style="fill:#46C233;stroke:#3A006E;stroke-linecap:round;stroke-linejoin:round;stroke-miterlimit:10;" d="
								M97.342,456.605c2.09-2.133,4.519-3.989,7.301-5.075c2.939-1.147,6.223-1.39,9.299-0.688
								c1.985,0.453,3.955,1.349,5.214,2.949c1.067,1.356,1.536,3.176,1.218,4.872c-0.319,1.696-1.433,3.234-2.964,4.029
								c-1.677,0.871-3.669,0.833-5.549,0.647c-2.626-0.261-5.26-0.483-7.861-0.927c-5.612-0.958-12.293,1.146-12.293,1.146
								C93.475,461.153,95.252,458.738,97.342,456.605z"/>
							<path style="fill:#46C233;stroke:#3A006E;stroke-linecap:round;stroke-linejoin:round;stroke-miterlimit:10;" d="
								M88.663,474.317c2.285-2.331,4.94-4.361,7.981-5.547c3.212-1.254,6.803-1.519,10.164-0.752c2.17,0.495,4.323,1.475,5.7,3.224
								c1.167,1.483,1.679,3.472,1.331,5.326c-0.348,1.854-1.566,3.535-3.24,4.405c-1.833,0.952-4.011,0.911-6.066,0.707
								c-2.871-0.286-5.749-0.528-8.593-1.013c-6.134-1.048-13.438,1.253-13.438,1.253
								C84.436,479.288,86.379,476.648,88.663,474.317z"/>
							<path style="fill:#46C233;stroke:#3A006E;stroke-linecap:round;stroke-linejoin:round;stroke-miterlimit:10;" d="
								M103.953,362.059c-0.854-2.471-2.079-4.849-3.872-6.751c-1.894-2.009-4.401-3.432-7.097-4.03
								c-1.74-0.386-3.634-0.416-5.229,0.378c-1.353,0.673-2.406,1.936-2.789,3.397c-0.384,1.461-0.079,3.095,0.834,4.298
								c0.999,1.318,2.589,2.035,4.146,2.591c2.175,0.778,4.341,1.59,6.565,2.214c4.798,1.346,9.293,5.515,9.293,5.515
								C105.306,367.105,104.806,364.529,103.953,362.059z"/>
							<path style="fill:#46C233;stroke:#3A006E;stroke-linecap:round;stroke-linejoin:round;stroke-miterlimit:10;" d="
								M105.87,380.349c-0.602-2.544-1.583-5.033-3.177-7.105c-1.684-2.188-4.035-3.856-6.657-4.72
								c-1.693-0.558-3.574-0.777-5.241-0.148c-1.413,0.534-2.588,1.685-3.116,3.101c-0.528,1.415-0.389,3.071,0.399,4.36
								c0.862,1.411,2.372,2.284,3.866,2.994c2.086,0.992,4.16,2.017,6.31,2.86c4.639,1.819,8.694,6.418,8.694,6.418
								C106.712,385.506,106.472,382.893,105.87,380.349z"/>
							<path style="fill:#46C233;stroke:#3A006E;stroke-linecap:round;stroke-linejoin:round;stroke-miterlimit:10;" d="
								M106.579,404.245c-0.088-2.612-0.559-5.246-1.713-7.591c-1.219-2.477-3.195-4.576-5.595-5.941
								c-1.549-0.881-3.35-1.467-5.109-1.178c-1.491,0.245-2.869,1.142-3.666,2.425c-0.797,1.283-0.987,2.934-0.469,4.353
								c0.567,1.553,1.876,2.707,3.2,3.697c1.85,1.384,3.68,2.797,5.622,4.048c4.189,2.699,7.258,8.007,7.258,8.007
								C106.387,409.466,106.668,406.857,106.579,404.245z"/>
							<path style="fill:#46C233;stroke:#3A006E;stroke-linecap:round;stroke-linejoin:round;stroke-miterlimit:10;" d="
								M102.097,423.285c-0.687-2.906-1.807-5.751-3.627-8.118c-1.923-2.501-4.609-4.406-7.604-5.395
								c-1.934-0.638-4.083-0.889-5.988-0.17c-1.615,0.609-2.957,1.925-3.561,3.541c-0.604,1.617-0.445,3.509,0.454,4.982
								c0.985,1.612,2.71,2.61,4.416,3.422c2.383,1.134,4.752,2.305,7.209,3.27c5.299,2.08,9.931,7.336,9.931,7.336
								C103.057,429.177,102.784,426.191,102.097,423.285z"/>
							<path style="fill:#46C233;stroke:#3A006E;stroke-linecap:round;stroke-linejoin:round;stroke-miterlimit:10;" d="
								M94.926,443.843c-0.851-2.862-2.131-5.639-4.082-7.899c-2.062-2.388-4.852-4.137-7.899-4.954
								c-1.967-0.527-4.127-0.656-5.988,0.17c-1.577,0.7-2.843,2.089-3.354,3.738c-0.511,1.648-0.245,3.528,0.737,4.948
								c1.075,1.554,2.854,2.452,4.603,3.165c2.444,0.996,4.875,2.032,7.383,2.855c5.409,1.776,10.332,6.759,10.332,6.759
								C96.219,449.671,95.777,446.706,94.926,443.843z"/>
							<path style="fill:#46C233;stroke:#3A006E;stroke-linecap:round;stroke-linejoin:round;stroke-miterlimit:10;" d="
								M86.165,465.559c0.133-3.262-0.207-6.586-1.426-9.614c-1.287-3.199-3.553-5.996-6.415-7.92
								c-1.847-1.242-4.036-2.139-6.253-1.944c-1.879,0.166-3.68,1.155-4.792,2.679c-1.112,1.524-1.502,3.562-0.989,5.378
								c0.562,1.988,2.084,3.546,3.641,4.903c2.175,1.896,4.323,3.827,6.625,5.566c4.965,3.751,8.293,10.648,8.293,10.648
								C85.439,472.044,86.031,468.82,86.165,465.559z"/>
						</g>
						<path style="fill:#46C233;stroke:#3A006E;stroke-linecap:round;stroke-linejoin:round;stroke-miterlimit:10;" d="
							M100.295,435.939c-9.719,33.265-28.33,63.681-54.338,86.614c20.997-15.66,37.774-37.089,48.701-60.941
							c14.882-32.332,18.162-68.592,9.785-103.17c-0.439-1.812-2.031-1.184-1.739,0.657
							C106.052,380.259,107.795,410.268,100.295,435.939z"/>
					</g>
				</g>
			</g>
		</g>
	</g>
</g>
</svg>
