<svg xmlns="http://www.w3.org/2000/svg" viewBox="0 0 200 200" width="300" height="300">
  <style>
    .body { fill: #5F3820; color: #5F3820; }
    .belly { fill: #7A4A2B; color: #7A4A2B; }
    .head { fill: #FFFFFF; color: #FFFFFF; }
    .neck { fill: #FFFFFF; color: #FFFFFF; }
    .wing { fill: #3E2410; color: #3E2410; }
    .wing-feather { fill: #1E1E1E; color: #1E1E1E; }
    .tail { fill: #FFFFFF; color: #FFFFFF; }
    .tail-line { fill: #888880; color: #888880; }
    .beak-top { fill: #E8B445; color: #E8B445; }
    .beak-bottom { fill: #E8B445; color: #E8B445; }
    .brow { fill: #3E2410; color: #3E2410; }
    .leg-left { fill: #E8B445; color: #E8B445; }
    .leg-right { fill: #E8B445; color: #E8B445; }
    .talon { fill: #1E1E1E; color: #1E1E1E; }
    .eye { fill: #1E1E1E; color: #1E1E1E; }
    .eye-white { fill: #F5EDD4; color: #F5EDD4; }
  </style>
  
  <g class="animal animal-eagle">
<!-- Tail feathers -->
    <path class="tail" d="M40,140 L10,130 L10,165 L40,158 Z"/>
    <path class="tail-line" d="M15,135 L38,142 M15,148 L38,150 M15,160 L38,156"
          fill="none" stroke="currentColor" stroke-width="1" stroke-linecap="round"/>
    <!-- Body -->
    <ellipse class="body" cx="95" cy="120" rx="48" ry="40"/>
    <!-- Belly (lighter) -->
    <ellipse class="belly" cx="95" cy="135" rx="30" ry="22"/>
    <!-- Wing (folded, layered feathers) -->
    <path class="wing" d="M75,90 Q130,85 138,135 Q120,148 78,138 Q68,115 75,90 Z"/>
    <!-- Wing feather lines -->
    <path class="wing-feather" d="M82,100 Q108,98 128,118 M80,115 Q108,115 132,128 M82,128 Q108,128 130,138"
          fill="none" stroke="currentColor" stroke-width="1.5" stroke-linecap="round"/>
    <!-- Neck (white) -->
    <path class="neck" d="M118,75 Q138,68 148,80 Q142,95 122,92 Z"/>
    <!-- Head (white bald-eagle style) -->
    <circle class="head" cx="145" cy="68" r="22"/>
    <!-- Beak (hooked, yellow) -->
    <path class="beak-top" d="M163,68 L182,72 Q186,75 183,80 L168,76 Z"/>
    <path class="beak-bottom" d="M168,76 L182,80 Q180,82 170,82 Z"/>
    <!-- Eye (fierce) -->
    <circle class="eye-white" cx="150" cy="62" r="5"/>
    <circle class="eye" cx="151" cy="62" r="3"/>
    <!-- Brow ridge -->
    <path class="brow" d="M142,55 Q152,52 158,57" fill="none" stroke="currentColor" stroke-width="2" stroke-linecap="round"/>
    <!-- Legs (yellow, scaly) -->
    <rect class="leg-left"  x="82" y="155" width="5" height="22" rx="1"/>
    <rect class="leg-right" x="103" y="155" width="5" height="22" rx="1"/>
    <!-- Talons -->
    <path class="talon" d="M78,177 L82,182 M85,177 L86,184 M89,177 L92,182"
          fill="none" stroke="currentColor" stroke-width="2" stroke-linecap="round"/>
    <path class="talon" d="M99,177 L103,182 M106,177 L107,184 M110,177 L113,182"
          fill="none" stroke="currentColor" stroke-width="2" stroke-linecap="round"/>
  </g>
</svg>