<?xml version="1.0" encoding="utf-8"?>
<!-- Generator: Adobe Illustrator 27.5.0, SVG Export Plug-In . SVG Version: 6.00 Build 0)  -->
<svg version="1.1" id="Layer_2" xmlns="http://www.w3.org/2000/svg" xmlns:xlink="http://www.w3.org/1999/xlink" x="0px" y="0px"
	 viewBox="0 0 239.358 400" style="enable-background:new 0 0 239.358 400;" xml:space="preserve">
<g>
	<g>
		<g>
			<g>
				<path style="fill:#FED09E;" d="M190.952,285.148c0,0-30.086-8.743-40.372-13.629c-10.286-4.886-14.4-5.4-12.6-40.372h-36.983
					c1.8,34.972-2.314,35.486-12.6,40.372c-10.286,4.886-40.372,13.629-40.372,13.629s-6.524,64.596,72.307,64.596
					S190.952,285.148,190.952,285.148z"/>
			</g>
			<g style="opacity:0.5;">
				<path style="fill:#FED09E;" d="M100.627,257.341c2.155-1.952,4.52-3.676,6.989-5.199c3.939-2.429,8.163-4.381,12.494-5.999
					c4.491-1.677,9.116-2.993,13.799-4.014c1.227-0.268,2.458-0.513,3.694-0.74c0.055-3.04,0.181-6.436,0.377-10.242h-36.983
					C101.645,243.745,101.526,251.871,100.627,257.341z"/>
			</g>
		</g>
		<path style="fill:#A1B343;" d="M195.37,277.534c-12.84,0.571-9.986,28.248-9.986,28.248c0.003,0.035,0.003,0.071,0.005,0.106
			c-13.669,19.251-37.982,32.066-65.71,32.066c-27.727,0-52.041-12.815-65.71-32.066c0.002-0.035,0.003-0.071,0.005-0.106
			c0,0,2.853-27.677-9.986-28.248c-12.84-0.571-39.375,8.56-37.949,47.935c1.414,39.021,38.971,39.091,55.198,31.313
			C73.104,376.674,94.834,390,119.679,390s46.575-13.326,58.442-33.218c16.227,7.777,53.785,7.707,55.198-31.313
			C234.745,286.094,208.21,276.963,195.37,277.534z"/>
		<path style="fill:#99D4C0;" d="M185.381,316.202c-13.67,19.245-37.98,32.055-65.702,32.055c-27.727,0-52.041-12.815-65.71-32.066
			c0.022,34.647,7.268,40.591,7.268,40.591C73.104,376.674,94.834,390,119.679,390s46.575-13.326,58.442-33.218
			C178.121,356.782,184.614,352.354,185.381,316.202z"/>
	</g>
	<g>
		<g>
			<path style="fill:#FED09E;" d="M196.811,175.145c-0.833,3.261-2.388,6.307-4.359,9.023c-1.819,2.507-4.024,4.819-6.538,6.639
				c-1.835,1.329-4.442,2.872-6.778,1.972c-1.286-0.496-2.068-1.704-2.569-2.929c-0.626-1.529-0.92-3.171-0.937-4.82
				c-0.034-3.293,0.914-6.523,1.998-9.601c1.051-2.984,2.412-6.049,4.826-8.187c0.017-0.015,0.038-0.024,0.057-0.034
				c0.447-0.577,0.948-1.112,1.509-1.59c2.043-1.741,4.693-2.426,7.334-1.994c2.307,0.377,4.31,1.713,5.28,3.877
				C197.716,169.909,197.447,172.658,196.811,175.145z"/>
			<path style="opacity:0.27;fill:#FED09E;" d="M177.629,175.43c1.051-2.984,2.412-6.049,4.826-8.187
				c0.017-0.015,0.038-0.024,0.057-0.034c0.447-0.577,0.948-1.112,1.509-1.59c1.035-0.882,2.225-1.492,3.491-1.824
				c-0.262,2.503-0.601,4.997-1.029,7.477c-0.954,5.523-2.341,10.966-4.141,16.274c-0.627,1.847-1.306,3.675-2.025,5.487
				c-0.398-0.027-0.793-0.104-1.18-0.253c-1.286-0.496-2.068-1.704-2.569-2.929c-0.626-1.529-0.92-3.171-0.937-4.82
				C175.597,181.738,176.545,178.508,177.629,175.43z"/>
			<path style="fill:#92422B;" d="M195.415,171.734c-1.431-2.862-5.51-0.823-7.341,0.47c-3.007,2.122-5.056,5.425-6.24,8.856
				c-0.709,2.053-1.123,4.201-1.3,6.364c-0.014,0.166,0.252,0.113,0.271-0.018c0.176-1.221,0.405-2.436,0.705-3.631
				c0.365,0.296,1.017,0.348,1.414,0.31c0.703-0.067,1.389-0.355,2-0.699c1.172-0.659,2.26-1.55,3.181-2.529
				c0.081-0.086-0.07-0.12-0.131-0.059c-0.873,0.874-1.902,1.639-2.991,2.221c-0.562,0.3-1.164,0.585-1.802,0.673
				c-0.265,0.037-0.539,0.04-0.8-0.028c-0.29-0.076-0.465-0.273-0.723-0.396c-0.005-0.003-0.011-0.003-0.017-0.004
				c0.555-2.062,1.331-4.058,2.43-5.91c1.581-2.663,3.932-5.133,6.906-6.195c1.438-0.513,3.145-0.668,4.126,0.735
				C195.199,172.028,195.493,171.89,195.415,171.734z"/>
		</g>
		<path style="fill:#FED09E;" d="M119.456,239.69c0,0,63.07-3.71,63.07-101.654c0-84.649-49.327-67.319-62.718-61.055h-0.06
			c-13.391-6.264-62.718-23.595-62.718,61.055c0,97.944,63.07,101.654,63.07,101.654"/>
		<radialGradient id="SVGID_1_" cx="156.8779" cy="187.4183" r="16.2896" gradientUnits="userSpaceOnUse">
			<stop  offset="1.799800e-04" style="stop-color:#DF7469"/>
			<stop  offset="1" style="stop-color:#FFFFFF"/>
		</radialGradient>
		<circle style="opacity:0.3;fill:url(#SVGID_1_);" cx="156.878" cy="187.418" r="16.29"/>
		
			<radialGradient id="SVGID_00000108297957903591498340000004462753861550263181_" cx="82.0862" cy="187.4183" r="16.2896" gradientUnits="userSpaceOnUse">
			<stop  offset="1.799800e-04" style="stop-color:#DF7469"/>
			<stop  offset="1" style="stop-color:#FFFFFF"/>
		</radialGradient>
		
			<circle style="opacity:0.3;fill:url(#SVGID_00000108297957903591498340000004462753861550263181_);" cx="82.086" cy="187.418" r="16.29"/>
		<g>
			<path style="fill:#D64F25;" d="M74.714,55.411c0,0-12.364-23.016,14.266-29.292c0,0,8.75-23.586,39.754-13.695
				c0,0,16.358-6.848,23.396,14.266c0,0,25.869,4.755,11.222,28.912L74.714,55.411z"/>
			<g>
				<path style="fill:#D64F25;" d="M125.746,13.92c-7.835,2.86-14.126,9.099-14.883,17.671c-0.264,2.948-0.032,5.917,0.503,8.887
					c0.02,0.111-0.054,0.218-0.166,0.238c-0.101,0.018-0.198-0.042-0.23-0.136c-0.921-2.717-1.387-5.617-1.299-8.537
					c0.15-7.583,5.117-14.02,11.893-17.073c1.316-0.601,2.659-1.12,4.078-1.444C125.887,13.478,126.004,13.833,125.746,13.92
					L125.746,13.92z"/>
				<path style="fill:#D64F25;" d="M89.171,26.191c-1.49,6.298-2.073,14.408,4.119,18.348c0.205,0.123,0.037,0.46-0.185,0.364
					c-5.605-2.024-6.948-8.511-5.893-13.794c0.322-1.751,0.818-3.455,1.577-5.063C88.894,25.828,89.241,25.948,89.171,26.191
					L89.171,26.191z"/>
				<path style="fill:#D64F25;" d="M146.358,43.367c4.29-5.341,6.625-12.409,4.626-19.145c-0.071-0.233,0.283-0.373,0.384-0.142
					c2.344,4.921,1.414,10.888-1.395,15.424c-0.924,1.525-2.014,2.935-3.324,4.15C146.462,43.824,146.184,43.562,146.358,43.367
					L146.358,43.367z"/>
			</g>
		</g>
		<g>
			<path style="fill:#E1A566;" d="M124.572,198.291c0,2.748-2.228,4.975-4.975,4.975c-2.748,0-4.975-2.228-4.975-4.975
				c0-2.748,2.228-10.548,4.975-10.548C122.344,187.742,124.572,195.543,124.572,198.291z"/>
			<g style="opacity:0.5;">
				<path style="fill:#E1A566;" d="M119.596,201.603c-2.496,0-4.556-1.84-4.914-4.236c-0.04,0.347-0.061,0.659-0.061,0.924
					c0,2.748,2.228,4.975,4.975,4.975c2.748,0,4.975-2.228,4.975-4.975c0-0.265-0.021-0.577-0.061-0.924
					C124.153,199.763,122.092,201.603,119.596,201.603z"/>
			</g>
			<path style="fill:#E1A566;" d="M115.014,200.15c-0.008,0.009-0.013,0.018-0.02,0.027c0.551,1.344,1.673,2.392,3.065,2.844
				C117.648,202.124,116.08,198.943,115.014,200.15z"/>
			<path style="fill:#E1A566;" d="M124.183,200.15c0.008,0.009,0.013,0.018,0.02,0.027c-0.551,1.344-1.673,2.392-3.065,2.844
				C121.549,202.124,123.117,198.943,124.183,200.15z"/>
		</g>
		<g>
			<path style="fill:#DF7469;" d="M118.971,223.987c9.839,0,13.14-9.331,13.14-9.331c-7.935-7.935-13.14-2.793-13.14-2.793h0.081
				c0,0-5.205-5.142-13.14,2.793c0,0,3.301,9.331,13.14,9.331"/>
			<path style="fill:#DF7469;" d="M105.949,214.561c8.538,2.275,17.583,2.214,26.128-0.002c0.115-0.037,0.189,0.15,0.066,0.194
				c-1.043,0.394-2.086,0.819-3.16,1.125c-5.378,1.595-11.169,1.813-16.678,0.797c-2.207-0.404-4.379-1.013-6.432-1.924
				c-0.051-0.023-0.075-0.083-0.052-0.135C105.844,214.567,105.899,214.545,105.949,214.561L105.949,214.561z"/>
			<g>
				<path style="fill:#DF7469;" d="M132.049,214.537c0,0.398,0.79,0.559,1.228,0.559s0.793-0.322,0.793-0.72
					c0-0.398-0.355-0.72-0.793-0.72S132.049,214.139,132.049,214.537z"/>
				<path style="fill:#DF7469;" d="M105.966,214.537c0,0.398-0.79,0.559-1.228,0.559c-0.438,0-0.793-0.322-0.793-0.72
					c0-0.398,0.355-0.72,0.793-0.72C105.175,213.655,105.966,214.139,105.966,214.537z"/>
			</g>
		</g>
		<path style="fill:#D64F25;" d="M68.891,154.579c0,0,3.198-4.713,15.148-4.965c11.95-0.252,14.643,3.535,18.851,2.188
			C107.097,150.456,84.459,137.664,68.891,154.579z"/>
		<path style="fill:#D64F25;" d="M168.34,154.579c0,0-3.198-4.713-15.148-4.965c-11.95-0.252-14.643,3.535-18.851,2.188
			S152.771,137.664,168.34,154.579z"/>
		<g>
			<path style="fill:#FFFFFF;" d="M99.94,182.128c0,0,6.54-16.553-8.277-22.889c-14.816-6.335-20.334,9.298-18.393,14.714
				C75.212,179.369,82.263,186.419,99.94,182.128z"/>
			<path style="fill:#844E3D;" d="M73.463,173.884c2.246,4.995,7.081,7.818,12.361,8.622c3.391,0.578,6.905,0.423,10.317,0.065
				c1.27-0.109,2.519-0.356,3.792-0.482c0.044-0.008,0.062,0.065,0.016,0.077c-1.759,0.572-3.763,1.088-5.6,1.401
				c-0.521,0.114-1.381,0.188-1.918,0.251c-6.057,0.715-13.014-0.536-17.073-5.478l-0.592-0.792
				c-0.737-1.089-1.336-2.271-1.688-3.526C73.017,173.786,73.358,173.652,73.463,173.884L73.463,173.884z"/>
			<path style="fill:#231F20;" d="M101.047,178.054c0,0,1.13-12.486-8.265-17.005c-9.395-4.519-20.454,2.735-19.443,12.13
				c0,0-5.708-2.438-9.276-8.978c0,0,2.438,2.378,7.016,2.438c0,0-4.341-1.843-6.838-6.243c0,0,3.806,2.616,9.216,2.557
				c0,0-3.627-1.368-5.47-6.303c0,0,3.865,3.151,7.73,3.508c0,0-2.616-2.616-2.438-6.422c0,0,2.497,4.281,6.422,4.995
				c0,0,7.662-5.077,16.411,2.497C104.079,168.124,101.047,178.054,101.047,178.054z"/>
			<g>
				<circle style="fill:#8B5E3C;" cx="90.154" cy="171.533" r="9.03"/>
				<path style="fill:#231F20;" d="M84.976,171.533c0,2.86,2.318,5.178,5.178,5.178c2.86,0,5.178-2.318,5.178-5.178
					c0-2.86-2.318-5.178-5.178-5.178C87.294,166.355,84.976,168.673,84.976,171.533z"/>
				<path style="fill:#FFFFFF;" d="M91.567,169.691c0,1.799,1.459,3.258,3.258,3.258c1.799,0,3.258-1.458,3.258-3.258
					c0-1.799-1.459-3.258-3.258-3.258C93.026,166.433,91.567,167.892,91.567,169.691z"/>
			</g>
		</g>
		<g>
			<path style="fill:#FFFFFF;" d="M138.057,182.128c0,0-6.54-16.553,8.277-22.889c14.816-6.335,20.334,9.298,18.393,14.714
				C162.785,179.369,155.734,186.419,138.057,182.128z"/>
			<path style="fill:#844E3D;" d="M164.919,174.022c-2.508,8.218-11.627,10.755-19.353,9.796c-0.289-0.036-1.156-0.126-1.443-0.163
				c-1.29-0.247-2.988-0.543-4.234-0.941c-0.617-0.176-1.231-0.359-1.841-0.549c-0.044-0.012-0.029-0.086,0.019-0.077
				c3.755,0.521,7.538,0.961,11.328,0.745c4.909-0.326,9.953-1.882,13.161-5.798c0.782-0.954,1.454-2.008,1.979-3.152
				C164.624,173.661,164.994,173.779,164.919,174.022L164.919,174.022z"/>
			<path style="fill:#231F20;" d="M136.95,178.054c0,0-1.13-12.486,8.265-17.005c9.395-4.519,20.454,2.735,19.443,12.13
				c0,0,5.708-2.438,9.276-8.978c0,0-2.438,2.378-7.016,2.438c0,0,4.341-1.843,6.838-6.243c0,0-3.805,2.616-9.216,2.557
				c0,0,3.627-1.368,5.47-6.303c0,0-3.865,3.151-7.73,3.508c0,0,2.616-2.616,2.438-6.422c0,0-2.497,4.281-6.422,4.995
				c0,0-7.662-5.077-16.411,2.497C133.918,168.124,136.95,178.054,136.95,178.054z"/>
			<g>
				<circle style="fill:#8B5E3C;" cx="147.843" cy="171.533" r="9.03"/>
				<path style="fill:#231F20;" d="M142.665,171.533c0,2.86,2.318,5.178,5.178,5.178c2.86,0,5.178-2.318,5.178-5.178
					c0-2.86-2.318-5.178-5.178-5.178C144.984,166.355,142.665,168.673,142.665,171.533z"/>
				<path style="fill:#FFFFFF;" d="M149.257,169.691c0,1.799,1.458,3.258,3.258,3.258c1.799,0,3.258-1.458,3.258-3.258
					c0-1.799-1.458-3.258-3.258-3.258C150.715,166.433,149.257,167.892,149.257,169.691z"/>
			</g>
		</g>
		<path style="fill:#D64F25;" d="M117.173,97.848c0,0-9.233,32.585,20.802,39.669C137.976,137.517,99.629,135.96,117.173,97.848z"/>
		<path style="fill:#D64F25;" d="M73.999,148.157c0,0-2.82-16.292,15.196-24.595c18.015-8.303,22.903-11.638,27.979-25.714
			c0,0-4.637,10.989-17.952,15.845C85.905,118.549,68.986,122.309,73.999,148.157z"/>
		<path style="fill:#A1B343;" d="M88.215,48.641c0,0-4.91-1.995-0.46-4.91c4.45-2.915,15.803-6.904,35.75-5.984
			c19.946,0.921,36.21,6.751,27.004,11.507L88.215,48.641z"/>
		<g>
			<path style="fill:#FED09E;" d="M40.812,175.145c0.833,3.261,2.388,6.307,4.359,9.023c1.819,2.507,4.024,4.819,6.538,6.639
				c1.835,1.329,4.442,2.872,6.778,1.972c1.286-0.496,2.068-1.704,2.569-2.929c0.626-1.529,0.92-3.171,0.937-4.82
				c0.034-3.293-0.914-6.523-1.998-9.601c-1.051-2.984-2.412-6.049-4.826-8.187c-0.017-0.015-0.038-0.024-0.058-0.034
				c-0.446-0.577-0.948-1.112-1.509-1.59c-2.043-1.741-4.693-2.426-7.334-1.994c-2.308,0.377-4.31,1.713-5.28,3.877
				C39.907,169.909,40.176,172.658,40.812,175.145z"/>
			<path style="opacity:0.27;fill:#FED09E;" d="M59.994,175.43c-1.051-2.984-2.412-6.049-4.826-8.187
				c-0.017-0.015-0.038-0.024-0.057-0.034c-0.446-0.577-0.948-1.112-1.509-1.59c-1.035-0.882-2.225-1.492-3.491-1.824
				c0.262,2.503,0.6,4.997,1.029,7.477c0.953,5.523,2.341,10.966,4.141,16.274c0.627,1.847,1.306,3.675,2.025,5.487
				c0.398-0.027,0.793-0.104,1.18-0.253c1.286-0.496,2.068-1.704,2.569-2.929c0.626-1.529,0.92-3.171,0.937-4.82
				C62.026,181.738,61.078,178.508,59.994,175.43z"/>
			<path style="fill:#92422B;" d="M42.208,171.734c1.431-2.862,5.51-0.823,7.341,0.47c3.007,2.122,5.056,5.425,6.24,8.856
				c0.709,2.053,1.123,4.201,1.3,6.364c0.014,0.166-0.252,0.113-0.271-0.018c-0.176-1.221-0.405-2.436-0.705-3.631
				c-0.365,0.296-1.017,0.348-1.415,0.31c-0.703-0.067-1.389-0.355-2-0.699c-1.172-0.659-2.261-1.55-3.181-2.529
				c-0.081-0.086,0.07-0.12,0.131-0.059c0.873,0.874,1.902,1.639,2.991,2.221c0.562,0.3,1.164,0.585,1.802,0.673
				c0.265,0.037,0.539,0.04,0.8-0.028c0.29-0.076,0.465-0.273,0.723-0.396c0.005-0.003,0.011-0.003,0.017-0.004
				c-0.555-2.062-1.331-4.058-2.43-5.91c-1.581-2.663-3.932-5.133-6.906-6.195c-1.438-0.513-3.145-0.668-4.126,0.735
				C42.424,172.028,42.13,171.89,42.208,171.734z"/>
		</g>
		<path style="fill:#D64F25;" d="M62.084,148.178c0,0-13.946,14.778-8.742,29.349c5.204,14.57,17.484,26.227,12.697,34.344
			c-4.787,8.118-13.53,25.394,8.326,33.928c0,0-9.575-5.828-6.661-17.901c2.914-12.072,10.824-17.692,0.624-31.43
			C58.13,182.73,52.509,170.449,62.084,148.178z"/>
		<path style="fill:#D64F25;" d="M176.878,149.112c0,0,13.946,14.778,8.742,29.349c-5.204,14.57-17.484,26.226-12.697,34.344
			c4.787,8.118,13.53,25.394-8.326,33.928c0,0,9.575-5.828,6.661-17.9c-2.914-12.072-10.824-17.693-0.624-31.43
			C180.833,183.665,186.453,171.384,176.878,149.112z"/>
		<g>
			<path style="fill:#D64F25;" d="M117.173,97.848c0,0-3.156,47.112,57.481,44.858c0,0,9.017,26.374,0.902,43.956
				c0,0,38.772-40.575,28.853-83.855c-9.918-43.28-50.268-59.961-90.167-59.961c-27.928,0-59.212,13.675-73.661,38.521
				c-8.284,14.245-7.688,31.557-4.877,47.243c2.703,15.088,7.385,29.118,15.289,42.313c2.245,3.747,4.664,7.386,7.157,10.972
				c2.254,3.242,5.868,6.785,7.402,10.403c0-0.001-9.467-22.317-4.508-39.899c4.959-17.582,12.859-31.375,29.99-37.912
				C108.166,107.95,117.173,97.848,117.173,97.848z"/>
			<g>
				<g>
					<path style="fill:#D64F25;" d="M74.201,82.196c-2.178-3.569-3.001-7.92-2.473-12.057c1.08-8.505,7.985-14.924,15.149-18.819
						c3.609-1.997,7.43-3.541,11.324-4.791c0.107-0.035,0.223,0.025,0.257,0.132c0.033,0.101-0.021,0.211-0.117,0.252
						c-6.493,2.781-12.922,5.954-18.104,10.801c-6.982,6.317-9.65,15.512-5.685,24.273C74.679,82.181,74.36,82.437,74.201,82.196
						L74.201,82.196z"/>
					<path style="fill:#D64F25;" d="M81.212,53.491c-19.192,15.35-41.064,40.216-32.202,66.523c1.174,3.553,2.889,6.928,4.85,10.178
						c0.058,0.097,0.027,0.222-0.069,0.281c-0.09,0.054-0.204,0.031-0.267-0.05c-1.791-2.244-3.385-4.684-4.685-7.256
						c-9.952-19.658,0.812-40.625,14.701-55.178c3.958-4.165,8.219-8.019,12.778-11.505c1.514-1.165,3.062-2.278,4.663-3.33
						c0.094-0.062,0.221-0.036,0.283,0.058C81.323,53.305,81.3,53.427,81.212,53.491L81.212,53.491z"/>
					<path style="fill:#D64F25;" d="M148.906,67.504c1.982-6.302,1.144-12.704-3.899-17.252c-1.533-1.454-3.311-2.682-5.177-3.811
						c-0.097-0.059-0.128-0.185-0.07-0.282c0.051-0.084,0.154-0.119,0.243-0.088c2.089,0.723,4.085,1.781,5.864,3.183
						c4.719,3.573,6.771,9.744,4.84,15.389c-0.351,1.076-0.804,2.106-1.44,3.05C149.137,67.891,148.816,67.726,148.906,67.504
						L148.906,67.504z"/>
					<path style="fill:#D64F25;" d="M165.872,89.579c10.02-4.585,12.539-12.147,7.754-21.918c-1.556-3.267-3.579-6.272-5.689-9.27
						c-0.065-0.092-0.043-0.22,0.049-0.285c0.084-0.059,0.196-0.047,0.265,0.025c2.278,2.354,4.352,4.931,6.072,7.775
						c3.574,5.717,5.342,13.62,0.319,19.136c-1.152,1.286-2.509,2.355-3.986,3.164c-1.471,0.82-3.032,1.437-4.674,1.767
						C165.742,90.013,165.636,89.671,165.872,89.579L165.872,89.579z"/>
					<path style="fill:#D64F25;" d="M175.251,103.463c11.391-2.118,15.228-9.565,12.377-20.47c-0.758-3.082-1.894-6.084-3.126-9.056
						c-0.043-0.104,0.006-0.224,0.111-0.267c0.097-0.04,0.207,0,0.257,0.089c1.764,3.172,3.299,6.553,4.231,10.105
						c1.698,6.049,1.185,13.344-4.417,17.203c-2.071,1.473-4.47,2.327-6.952,2.669c-0.818,0.111-1.633,0.17-2.466,0.136
						c-0.113-0.005-0.201-0.1-0.196-0.213C175.074,103.555,175.153,103.475,175.251,103.463L175.251,103.463z"/>
					<path style="fill:#D64F25;" d="M173.27,142.662c8.891-1.328,16.322-5.639,19.221-14.485c2.082-6.444,1.638-13.382,0.633-19.995
						c-0.016-0.112,0.062-0.215,0.174-0.231c0.107-0.015,0.206,0.056,0.228,0.159c0.672,2.864,1.156,5.767,1.396,8.702
						c0.494,6.886-0.72,14.364-5.491,19.651c-4.006,4.503-10.156,7.043-16.165,6.607
						C173.031,143.033,173.007,142.698,173.27,142.662L173.27,142.662z"/>
					<path style="fill:#D64F25;" d="M134.937,107.498c12.444,7.075,34.697,17.822,48.34,9.821c2.07-1.212,3.828-2.92,5.354-4.854
						c0.069-0.091,0.201-0.108,0.29-0.037c0.079,0.063,0.1,0.172,0.053,0.258c-1.19,2.21-2.889,4.218-5.016,5.68
						c-11.997,8.15-31.581-0.244-42.889-6.598c-2.166-1.233-4.301-2.511-6.357-3.929c-0.093-0.064-0.116-0.191-0.052-0.284
						C134.723,107.465,134.845,107.441,134.937,107.498L134.937,107.498z"/>
					<path style="fill:#D64F25;" d="M55.487,133.577c0.651-9.541,8.641-16.876,16.965-20.502c2.818-1.234,5.755-2.154,8.745-2.747
						c0.111-0.022,0.219,0.05,0.241,0.161c0.02,0.102-0.039,0.201-0.135,0.234c-2.864,0.979-5.667,2.09-8.325,3.463
						c-7.917,3.934-14.772,10.734-17.085,19.428C55.862,133.846,55.48,133.837,55.487,133.577L55.487,133.577z"/>
				</g>
			</g>
		</g>
	</g>
</g>
</svg>
