<?xml version="1.0" encoding="utf-8"?>
<!-- Generator: Adobe Illustrator 27.5.0, SVG Export Plug-In . SVG Version: 6.00 Build 0)  -->
<svg version="1.1" id="Layer_1" xmlns="http://www.w3.org/2000/svg" xmlns:xlink="http://www.w3.org/1999/xlink" x="0px" y="0px"
	 viewBox="0 0 267.377 400" style="enable-background:new 0 0 267.377 400;" xml:space="preserve">
<g>
	<g>
		<g>
			<g>
				<path style="fill:#F6B897;" d="M260.692,390c-0.442-11.998-1.575-24.25-5.26-35.739c-3.761-11.725-10.633-21.8-21.43-28.017
					c-14.334-8.254-30.85-8.823-46.586-12.474c-7.967-1.848-14.629-5.327-19.87-11.634c-15.739-18.942-14.454-50.155-10.372-73.163
					h-46.973c4.082,23.008,5.367,54.221-10.372,73.163c-5.24,6.307-11.903,9.786-19.87,11.634
					c-15.736,3.651-32.252,4.22-46.586,12.474c-10.797,6.217-17.67,16.292-21.43,28.017C8.259,365.75,7.126,378.002,6.684,390
					H260.692z"/>
			</g>
			<g style="opacity:0.4;">
				<path style="fill:#F6B897;" d="M192.468,377.564c-22.689,2.686-45.542,3.621-68.371,4.126
					c-20.818,0.461-41.697,1.12-62.474-0.619c-18.061-1.511-36.334-4.605-53.19-11.475c-1.027,6.76-1.499,13.622-1.748,20.403
					h254.008c-0.324-8.803-1.025-17.741-2.828-26.416C236.693,370.74,214.629,374.941,192.468,377.564z"/>
			</g>
			<path style="opacity:0.4;fill:#F6B897;" d="M133.818,264.691c4.137,0,11.813-2.229,20.706-5.938
				c-0.132-10.366,1.042-20.711,2.651-29.78h-46.973c1.604,9.044,2.776,19.356,2.652,29.692c8.981,3.761,16.746,6.026,20.916,6.026
				H133.818z"/>
			<g>
				<path style="fill:#71ABC5;" d="M213.819,318.84c-6.658-1.504-13.471-2.49-20.214-3.776
					c-2.956,16.364-11.329,31.024-26.027,40.374c-11.545,7.345-26.251,12.729-40.06,10.345c-5.816-1.004-11.521-2.569-16.985-4.814
					c-16.612-6.826-29.527-19.865-34.834-37.198c-0.872-2.849-1.54-5.753-2.034-8.687c-6.708,1.276-13.484,2.26-20.107,3.756
					c0.066,20.302-1.326,53.013-9.993,71.16h180.247C215.145,371.854,213.753,339.142,213.819,318.84z"/>
				<path style="fill:#71ABC5;" d="M213.819,318.84c-6.658-1.504-13.471-2.49-20.214-3.776
					c-2.956,16.364-11.329,31.024-26.027,40.374c-11.545,7.345-26.251,12.729-40.06,10.345c-5.816-1.004-11.521-2.569-16.985-4.814
					c-16.612-6.826-29.527-19.865-34.834-37.198c-0.872-2.849-1.54-5.753-2.034-8.687c-6.708,1.276-13.484,2.26-20.107,3.756
					c0.066,20.302-1.326,53.013-9.993,71.16h180.247C215.145,371.854,213.753,339.142,213.819,318.84z"/>
				<path style="opacity:0.3;fill:#71ABC5;" d="M192.468,377.564c-22.689,2.686-45.542,3.621-68.371,4.126
					c-20.818,0.461-41.697,1.12-62.474-0.619c-4.735-0.396-9.484-0.903-14.218-1.556c-1.087,3.829-2.354,7.374-3.84,10.484h180.247
					c-2.218-4.644-3.957-10.246-5.32-16.347C209.864,375.254,201.174,376.534,192.468,377.564z"/>
			</g>
		</g>
		<g>
			<g>
				<path style="fill:#FED294;" d="M84.341,209.527c0,0-24.067-1.685-18.853,27.432c0,0-3.9-5.4-3.001-12.923
					c0,0-5.498,17.383,9.796,27.456c0,0-27.194,8.406-7.416,31.477c0,0-1.779,1.487-1.006,3.734c0,0-10.578-0.375-12.168,11.686
					c-1.59,12.061,5.683,14.477,5.683,14.477s-2.116,0.997-2.412,2.559c0,0-10.993,0.235-11.36,10.78
					c-0.367,10.546,8.324,11.299,8.324,11.299s-1.571,1.182-1.474,2.45c0,0-2.585,0.203-5.008,1.288
					c-1.212,0.542-2.382,1.305-3.17,2.374c-0.787,1.069-1.19,2.444-0.866,4.212c0.897,4.527,5.597,7.802,10.877,9.207
					c-5.019,1.267-8.831,4.493-11.123,8.333c-0.694,1.382-1.109,2.838-1.064,4.322c0.045,1.483,0.551,2.993,1.701,4.48
					c0,0-0.524-2.588,0.442-5.228c0.322-0.879,0.813-1.76,1.562-2.532c0,0-0.417,1.611-0.684,3.979
					c-0.133,1.185-0.234,2.552-0.237,3.988c-0.011,4.306,0.853,9.225,4.352,11.678c0,0-2.955-7.662-1.85-11.932
					c0,0,1.712,13.898,4.886,15.879c0,0,3.624-2.313,6.343-6.651c0.68-1.084,1.303-2.295,1.798-3.628
					c0.514-1.328,0.965-2.745,1.295-4.221c0,0-0.037,1.595-0.56,3.819c-0.215,1.132-0.568,2.407-1.144,3.684
					c-0.576,1.277-1.377,2.555-2.486,3.694c0,0,2.403-0.752,4.925-2.882c0.841-0.71,1.695-1.574,2.477-2.613
					c4.75-7.06,7.593-15.653,1.345-22.425c7.672-0.753,12.142-6.985,15.162-12.619c0.659-1.161,1.235-2.399,1.681-3.664
					c1.784-5.062,1.478-10.649-4.002-13.457c7.672-0.753,9.936-7.476,12.419-12.477c0.781-1.381,1.647-2.768,2.2-4.259
					c-0.329,1.503-0.873,2.998-1.471,4.492c-0.294,1.496-1.293,2.965-1.846,4.457c1.472-1.825,2.472-3.294,3.801-5.096
					c0.698-0.839,1.344-1.703,1.892-2.594c1.644-2.671,2.408-5.576,1.28-8.672c-0.787-1.559-2.547-2.027-4.78-2.14
					c9.825,0.495,11.462-10.058,12.536-16.299c0.335-1.197,0.589-2.393,0.715-3.578c0.38-3.556-0.386-7.013-3.536-10.02
					c6.858-1.934,10.856-7.81,12.238-13.801c0.327-1.199,0.525-2.385,0.582-3.559c0.287-5.868-3.176-11.529-7.332-16.17
					c6.991-3.826,7.575-12.153,6.213-18.299c-0.21-1.008-0.547-1.992-0.996-2.943c-3.144-6.657-11.773-11.679-20.493-11.593
					c-1.294,0.171-2.409,0.563-3.325,1.013C85.374,208.397,84.341,209.527,84.341,209.527z"/>
				<path style="opacity:0.5;fill:#FED294;" d="M105.29,239.257c7.507-3.764,8.511-11.69,7.176-18.215
					c-0.265-1.01-0.651-1.997-1.143-2.95c-3.443-6.672-12.072-11.694-20.792-11.608c-1.294,0.171-2.409,0.563-3.325,1.013
					c-1.832,0.9-2.864,2.031-2.864,2.031s-9.312-0.65-15.096,5.865c1.354,0.302,2.691,0.658,4.002,1.074
					c2.625,0.834,5.154,1.903,7.491,3.216c0.785,0.432,1.548,0.892,2.295,1.37c0.942,0.473,1.823,1.001,2.643,1.578
					c0.823,0.577,1.586,1.202,2.294,1.869c6.622,6.864,12.572,17.868,7.143,26.172c-0.773,1.188-1.778,2.321-3.043,3.381
					c-2.17,1.177-4.876,1.421-7.454,1.041c-0.938-0.106-1.856-0.318-2.729-0.647c0.738,0.565,1.443,1.163,2.108,1.792
					c3.72,4.578,8.761,9.39,8.363,15.068c-0.226,3.217-2.224,6.155-5.073,8.433c-0.95,0.759-1.994,1.445-3.098,2.044
					c-2.503,1.14-4.369,2.186-7.076,2.429c4.413,0.982,14.106,3.369,9.321,7.686c-3.812,3.227-9.379-0.472-13.765-1.833
					c3.905,4.233,5.387,10.569,3.253,15.519c-0.427,0.99-0.998,1.925-1.724,2.776c-3.041,3.28-8.113,5.303-13.069,4.725
					c-1.554-0.074-3.055-0.292-4.535-0.594c0.473,0.266,0.783,0.371,0.783,0.371s-0.12,0.057-0.305,0.163
					c0.751,0.253,1.495,0.52,2.269,0.746c2.591,1.584,7.584,0.695,7.845,3.367c0.208,3.429-5.519,2.001-8.145,1.109
					c4.594,4.789,16.281,10.696,8.684,16.771c-3.339,2.871-9.038,1.064-13.504,0.839c0.775,0.672,1.675,1.15,2.65,1.503
					c0.975,0.356,2.026,0.586,3.101,0.763c3.888,0.878,11.954,0.905,10.322,5.001c-1.105,2.983-7.252,1.154-11.245,0.573
					c1.654,1.982,4.148,4.767,1.808,6.169c-5.178,3.538-15.711,0.348-18.746-4.748c-0.08-0.37-0.105-0.754-0.08-1.139
					c-0.62,1.01-0.909,2.267-0.621,3.84c0.11,2.973,2.63,5.379,5.65,7.05c4.727,2.897,11.585,0.963,14.84,5.685
					c2.441,3.541,2.122,8.083-2.083,10.531c-0.473,0.356-0.867-0.423-1.287-0.824c-1.525,2.582-2.158,5.209-2.995,8.292
					c-0.387,1.44-0.877,2.862-1.413,4.267c-0.862,2.259-1.883,4.478-3.079,6.626c1.372-1.045,4.282-3.558,6.314-7.383
					c0.508-0.956,0.961-1.995,1.326-3.112c0.399-1.104,0.75-2.26,1.024-3.452c0,0-0.037,1.595-0.56,3.819
					c-0.215,1.133-0.568,2.407-1.144,3.684c-0.576,1.277-1.377,2.555-2.486,3.694c0,0,2.403-0.752,4.925-2.882
					c0.841-0.71,1.695-1.574,2.477-2.613c4.75-7.06,7.593-15.653,1.345-22.425c7.672-0.753,12.142-6.985,15.162-12.619
					c0.659-1.161,1.235-2.399,1.681-3.664c1.784-5.062,1.478-10.649-4.002-13.457c7.672-0.753,9.936-7.476,12.419-12.477
					c0.781-1.381,1.647-2.768,2.2-4.259c-0.329,1.503-0.873,2.998-1.471,4.492c-0.294,1.496-1.293,2.965-1.846,4.457
					c1.472-1.825,2.472-3.294,3.801-5.096c0.698-0.839,1.344-1.703,1.892-2.594c1.644-2.671,2.408-5.576,1.28-8.672
					c-0.787-1.559-2.547-2.027-4.78-2.14c9.825,0.495,11.462-10.058,12.536-16.299c0.335-1.197,0.589-2.393,0.715-3.578
					c0.38-3.556-0.386-7.013-3.536-10.02c8.145-1.109,10.935-8.945,11.902-14.795c0.256-0.971,0.461-1.956,0.589-2.946
					c0.64-4.948-0.682-10.028-4.913-13.414C106.932,240.551,106.021,239.694,105.29,239.257z"/>
			</g>
			<g>
				<path style="fill:#FED294;" d="M183.035,209.527c0,0,24.067-1.685,18.853,27.432c0,0,3.9-5.4,3.001-12.923
					c0,0,5.498,17.383-9.796,27.456c0,0,27.193,8.406,7.416,31.477c0,0,1.779,1.487,1.006,3.734c0,0,10.578-0.375,12.168,11.686
					c1.59,12.061-5.683,14.477-5.683,14.477s2.116,0.997,2.412,2.559c0,0,10.993,0.235,11.36,10.78
					c0.367,10.546-8.324,11.299-8.324,11.299s1.571,1.182,1.474,2.45c0,0,2.585,0.203,5.008,1.288
					c1.212,0.542,2.382,1.305,3.17,2.374c0.787,1.069,1.19,2.444,0.866,4.212c-0.897,4.527-5.597,7.802-10.877,9.207
					c5.019,1.267,8.83,4.493,11.123,8.333c0.694,1.382,1.109,2.838,1.064,4.322c-0.045,1.483-0.551,2.993-1.701,4.48
					c0,0,0.524-2.588-0.442-5.228c-0.322-0.879-0.813-1.76-1.562-2.532c0,0,0.417,1.611,0.684,3.979
					c0.133,1.185,0.234,2.552,0.237,3.988c0.011,4.306-0.853,9.225-4.352,11.678c0,0,2.955-7.662,1.85-11.932
					c0,0-1.712,13.898-4.886,15.879c0,0-3.624-2.313-6.343-6.651c-0.68-1.084-1.303-2.295-1.798-3.628
					c-0.514-1.328-0.965-2.745-1.295-4.221c0,0,0.037,1.595,0.56,3.819c0.215,1.132,0.568,2.407,1.144,3.684
					c0.576,1.277,1.377,2.555,2.486,3.694c0,0-2.403-0.752-4.925-2.882c-0.841-0.71-1.695-1.574-2.477-2.613
					c-4.75-7.06-7.593-15.653-1.345-22.425c-7.672-0.753-12.143-6.985-15.162-12.619c-0.659-1.161-1.235-2.399-1.681-3.664
					c-1.784-5.062-1.478-10.649,4.002-13.457c-7.672-0.753-9.936-7.476-12.419-12.477c-0.781-1.381-1.647-2.768-2.199-4.259
					c0.329,1.503,0.873,2.998,1.471,4.492c0.294,1.496,1.293,2.965,1.846,4.457c-1.473-1.825-2.472-3.294-3.801-5.096
					c-0.698-0.839-1.344-1.703-1.892-2.594c-1.644-2.671-2.408-5.576-1.28-8.672c0.787-1.559,2.547-2.027,4.78-2.14
					c-9.825,0.495-11.462-10.058-12.536-16.299c-0.335-1.197-0.589-2.393-0.716-3.578c-0.38-3.556,0.386-7.013,3.536-10.02
					c-6.858-1.934-10.856-7.81-12.238-13.801c-0.327-1.199-0.525-2.385-0.582-3.559c-0.287-5.868,3.175-11.529,7.332-16.17
					c-6.991-3.826-7.575-12.153-6.213-18.299c0.209-1.008,0.547-1.992,0.996-2.943c3.144-6.657,11.773-11.679,20.493-11.593
					c1.294,0.171,2.409,0.563,3.325,1.013C182.003,208.397,183.035,209.527,183.035,209.527z"/>
				<path style="opacity:0.5;fill:#FED294;" d="M162.087,239.257c-7.507-3.764-8.511-11.69-7.176-18.215
					c0.265-1.01,0.651-1.997,1.143-2.95c3.443-6.672,12.072-11.694,20.792-11.608c1.294,0.171,2.409,0.563,3.325,1.013
					c1.832,0.9,2.864,2.031,2.864,2.031s9.312-0.65,15.096,5.865c-1.354,0.302-2.691,0.658-4.002,1.074
					c-2.625,0.834-5.154,1.903-7.491,3.216c-0.785,0.432-1.548,0.892-2.295,1.37c-0.942,0.473-1.823,1.001-2.643,1.578
					c-0.823,0.577-1.586,1.202-2.294,1.869c-6.622,6.864-12.572,17.868-7.143,26.172c0.773,1.188,1.777,2.321,3.043,3.381
					c2.17,1.177,4.876,1.421,7.454,1.041c0.938-0.106,1.855-0.318,2.729-0.647c-0.738,0.565-1.442,1.163-2.108,1.792
					c-3.72,4.578-8.761,9.39-8.363,15.068c0.226,3.217,2.224,6.155,5.073,8.433c0.95,0.759,1.994,1.445,3.098,2.044
					c2.503,1.14,4.37,2.186,7.076,2.429c-4.413,0.982-14.105,3.369-9.321,7.686c3.812,3.227,9.379-0.472,13.765-1.833
					c-3.905,4.233-5.386,10.569-3.253,15.519c0.427,0.99,0.998,1.925,1.724,2.776c3.041,3.28,8.113,5.303,13.069,4.725
					c1.554-0.074,3.055-0.292,4.535-0.594c-0.473,0.266-0.783,0.371-0.783,0.371s0.12,0.057,0.305,0.163
					c-0.751,0.253-1.495,0.52-2.269,0.746c-2.592,1.584-7.584,0.695-7.845,3.367c-0.208,3.429,5.518,2.001,8.145,1.109
					c-4.594,4.789-16.281,10.696-8.684,16.771c3.339,2.871,9.038,1.064,13.504,0.839c-0.775,0.672-1.675,1.15-2.65,1.503
					c-0.975,0.356-2.026,0.586-3.101,0.763c-3.888,0.878-11.954,0.905-10.322,5.001c1.105,2.983,7.252,1.154,11.245,0.573
					c-1.654,1.982-4.148,4.767-1.808,6.169c5.178,3.538,15.711,0.348,18.746-4.748c0.08-0.37,0.105-0.754,0.08-1.139
					c0.62,1.01,0.909,2.267,0.621,3.84c-0.11,2.973-2.63,5.379-5.65,7.05c-4.727,2.897-11.585,0.963-14.84,5.685
					c-2.441,3.541-2.122,8.083,2.083,10.531c0.473,0.356,0.867-0.423,1.287-0.824c1.526,2.582,2.158,5.209,2.995,8.292
					c0.387,1.44,0.877,2.862,1.413,4.267c0.862,2.259,1.883,4.478,3.079,6.626c-1.372-1.045-4.281-3.558-6.314-7.383
					c-0.508-0.956-0.961-1.995-1.327-3.112c-0.398-1.104-0.75-2.26-1.024-3.452c0,0,0.037,1.595,0.56,3.819
					c0.215,1.133,0.568,2.407,1.144,3.684c0.576,1.277,1.377,2.555,2.486,3.694c0,0-2.403-0.752-4.925-2.882
					c-0.841-0.71-1.695-1.574-2.477-2.613c-4.75-7.06-7.593-15.653-1.345-22.425c-7.672-0.753-12.143-6.985-15.162-12.619
					c-0.659-1.161-1.235-2.399-1.681-3.664c-1.784-5.062-1.478-10.649,4.002-13.457c-7.672-0.753-9.936-7.476-12.419-12.477
					c-0.781-1.381-1.647-2.768-2.199-4.259c0.329,1.503,0.873,2.998,1.471,4.492c0.294,1.496,1.293,2.965,1.846,4.457
					c-1.473-1.825-2.472-3.294-3.801-5.096c-0.698-0.839-1.344-1.703-1.892-2.594c-1.644-2.671-2.408-5.576-1.28-8.672
					c0.787-1.559,2.547-2.027,4.78-2.14c-9.825,0.495-11.462-10.058-12.536-16.299c-0.335-1.197-0.589-2.393-0.716-3.578
					c-0.38-3.556,0.386-7.013,3.536-10.02c-8.145-1.109-10.935-8.945-11.902-14.795c-0.256-0.971-0.461-1.956-0.589-2.946
					c-0.64-4.948,0.682-10.028,4.913-13.414C160.445,240.551,161.356,239.694,162.087,239.257z"/>
			</g>
		</g>
	</g>
	<g>
		<path style="fill:#F6B897;" d="M227.991,99.732c0,0-11.133,92.306-26.241,111.435c-15.109,19.129-56.458,37.651-68.386,37.651
			h-0.049c-11.928,0-53.277-18.522-68.386-37.651c-12.396-15.695-22.115-80.646-25.206-103.465
			c-1.706-12.596,2.179-25.333,11.45-35.832c12.303-13.931,36.724-27.862,85.201-27.862
			C233.33,44.008,227.991,99.732,227.991,99.732z"/>
		
			<radialGradient id="SVGID_1_" cx="-5614.1362" cy="2487.1533" r="77.9997" gradientTransform="matrix(0.3991 0 0 0.3991 2333.7969 -817.7202)" gradientUnits="userSpaceOnUse">
			<stop  offset="1.799800e-04" style="stop-color:#DF7469"/>
			<stop  offset="1" style="stop-color:#FFFFFF"/>
		</radialGradient>
		<circle style="opacity:0.3;fill:url(#SVGID_1_);" cx="93.195" cy="174.903" r="31.13"/>
		
			<radialGradient id="SVGID_00000103244693265616970050000004518156762137615285_" cx="-5407.0234" cy="2487.1533" r="77.9996" gradientTransform="matrix(0.3991 0 0 0.3991 2333.7969 -817.7202)" gradientUnits="userSpaceOnUse">
			<stop  offset="1.799800e-04" style="stop-color:#DF7469"/>
			<stop  offset="1" style="stop-color:#FFFFFF"/>
		</radialGradient>
		
			<circle style="opacity:0.3;fill:url(#SVGID_00000103244693265616970050000004518156762137615285_);" cx="175.854" cy="174.903" r="31.13"/>
		<g>
			<g>
				<path style="fill:#FED294;" d="M135.751,43.694c0,0-4.757,54.82-64.691,60.15c0,0,27.589-6.599,35.2-23.349
					c0,0-27.351,21.827-42.097,23.349c0,0-17.124,32.74-10.227,61.673c0,0-34.486-11.167-29.016-46.445
					c0,0-10.703-33.501,17.362-58.627c0,0-0.951-20.811,23.308-37.308C89.849,6.64,127.902,4.102,134.086,24.66L135.751,43.694z"/>
				<path style="fill:#FED294;" d="M135.751,43.694c0,0-4.757,54.82-64.691,60.15c0,0,27.589-6.599,35.2-23.349
					c0,0-27.351,21.827-42.097,23.349c0,0-17.124,32.74-10.227,61.673c0,0-34.486-11.167-29.016-46.445
					c0,0-10.703-33.501,17.362-58.627c0,0-0.951-20.811,23.308-37.308C89.849,6.64,127.902,4.102,134.086,24.66L135.751,43.694z"/>
				<path style="opacity:0.5;fill:#FED294;" d="M97.119,87.277c-0.317,0.094-0.633,0.188-0.951,0.28
					c-1.898,0.55-3.793,1.114-5.692,1.663c-22.889,6.611-49.682,10.124-65.712,30.97c-4.577,34.394,29.171,45.328,29.171,45.328
					c-6.897-28.933,10.227-61.673,10.227-61.673C73.476,102.883,87.815,93.823,97.119,87.277z"/>
			</g>
			<g>
				<path style="fill:#FED294;" d="M131.625,43.694c0,0,4.757,54.82,64.692,60.15c0,0-27.589-6.599-35.2-23.349
					c0,0,27.351,21.827,42.097,23.349c0,0,17.124,32.74,10.227,61.673c0,0,34.486-11.167,29.016-46.445
					c0,0,10.703-33.501-17.362-58.627c0,0,0.951-20.811-23.308-37.308C177.528,6.64,139.474,4.102,133.29,24.66L131.625,43.694z"/>
				<path style="fill:#FED294;" d="M131.625,43.694c0,0,4.757,54.82,64.692,60.15c0,0-27.589-6.599-35.2-23.349
					c0,0,27.351,21.827,42.097,23.349c0,0,17.124,32.74,10.227,61.673c0,0,34.486-11.167,29.016-46.445
					c0,0,10.703-33.501-17.362-58.627c0,0,0.951-20.811-23.308-37.308C177.528,6.64,139.474,4.102,133.29,24.66L131.625,43.694z"/>
				<path style="opacity:0.5;fill:#FED294;" d="M170.258,87.277c0.317,0.094,0.633,0.188,0.951,0.28
					c1.898,0.55,3.793,1.114,5.692,1.663c22.889,6.611,49.682,10.124,65.712,30.97c4.577,34.394-29.171,45.328-29.171,45.328
					c6.897-28.933-10.227-61.673-10.227-61.673C193.901,102.883,179.561,93.823,170.258,87.277z"/>
			</g>
		</g>
		<g>
			<g>
				<path style="fill:#F6B897;" d="M59.393,163.016c-2.029-5.541-4.383-10.991-8.337-15.458c-7.253-8.195-20.618-4.34-24.432,5.339
					c-3.013,7.645,0.235,16.453,4.036,23.218c3.499,6.226,8.097,12.573,14.994,15.396c5.748,2.352,16.253,3.157,18.54-4.391
					c1.891-6.243-1.396-14.471-3.453-20.321C60.299,165.54,59.854,164.276,59.393,163.016z"/>
				<path style="fill:#F6B897;" d="M50.41,164.299c0,0-5.044-2.67-5.34,3.461s5.143,9.593,5.143,9.593s-15.032,2.571-16.515-13.153
					C32.214,148.476,47.443,149.861,50.41,164.299z"/>
			</g>
			<g>
				<path style="fill:#F6B897;" d="M207.984,163.016c2.029-5.541,4.383-10.991,8.337-15.458c7.253-8.195,20.618-4.34,24.432,5.339
					c3.013,7.645-0.235,16.453-4.036,23.218c-3.499,6.226-8.097,12.573-14.994,15.396c-5.748,2.352-16.253,3.157-18.54-4.391
					c-1.891-6.243,1.396-14.471,3.453-20.321C207.078,165.54,207.522,164.276,207.984,163.016z"/>
				<path style="fill:#F6B897;" d="M216.966,164.299c0,0,5.044-2.67,5.34,3.461c0.297,6.132-5.143,9.593-5.143,9.593
					s15.032,2.571,16.516-13.153C235.163,148.476,219.933,149.861,216.966,164.299z"/>
			</g>
		</g>
		<g>
			<g>
				<g>
					<path style="fill:#FED294;" d="M64.013,125.006c0,0,5.186-7.643,24.566-8.052s23.747,5.732,30.571,3.548
						C125.974,118.319,89.262,97.574,64.013,125.006z"/>
					<g>
						<path style="fill:#FFFFFF;" d="M111.39,170.008c0,0,9.467-23.963-11.982-33.134c-21.449-9.171-29.437,13.461-26.626,21.301
							C75.593,166.015,85.799,176.221,111.39,170.008z"/>
						<path style="fill:#844E3D;" d="M73.061,158.075c3.251,7.232,10.251,11.318,17.894,12.481
							c4.909,0.837,9.997,0.611,14.935,0.095c1.839-0.158,3.646-0.516,5.49-0.698c0.064-0.011,0.089,0.095,0.024,0.111
							c-2.546,0.829-5.447,1.575-8.106,2.028c-0.755,0.165-1.999,0.272-2.777,0.364c-8.768,1.035-18.839-0.776-24.716-7.93
							l-0.857-1.147c-1.067-1.577-1.935-3.288-2.444-5.104C72.415,157.932,72.909,157.738,73.061,158.075L73.061,158.075z"/>
						<path style="fill:#231F20;" d="M112.992,164.112c0,0,1.635-18.076-11.965-24.618s-29.61,3.96-28.147,17.56
							c0,0-8.263-3.529-13.428-12.997c0,0,3.529,3.443,10.157,3.529c0,0-6.284-2.668-9.899-9.038c0,0,5.509,3.787,13.342,3.701
							c0,0-5.251-1.98-7.919-9.124c0,0,5.595,4.562,11.19,5.079c0,0-3.787-3.787-3.529-9.296c0,0,3.615,6.197,9.296,7.23
							c0,0,11.092-7.349,23.757,3.615C117.382,149.737,112.992,164.112,112.992,164.112z"/>
						<g>
							<circle style="fill:#44C8F5;" cx="95.88" cy="154.672" r="14.98"/>
							<circle style="fill:#231F20;" cx="95.88" cy="154.672" r="10.899"/>
							<path style="fill:#FFFFFF;" d="M98.225,151.616c0,2.985,2.42,5.404,5.404,5.404c2.985,0,5.404-2.42,5.404-5.404
								s-2.419-5.404-5.404-5.404C100.644,146.211,98.225,148.631,98.225,151.616z"/>
						</g>
					</g>
				</g>
				<g>
					<path style="fill:#FED294;" d="M203.363,125.006c0,0-5.186-7.643-24.566-8.052c-19.38-0.409-23.747,5.732-30.571,3.548
						C141.402,118.319,178.115,97.574,203.363,125.006z"/>
					<g>
						<path style="fill:#FFFFFF;" d="M155.986,170.008c0,0-9.467-23.963,11.982-33.134c21.449-9.171,29.436,13.461,26.626,21.301
							C191.784,166.015,181.577,176.221,155.986,170.008z"/>
						<path style="fill:#844E3D;" d="M194.316,158.075c-3.251,7.232-10.251,11.318-17.894,12.481
							c-4.909,0.837-9.997,0.611-14.935,0.095c-1.839-0.158-3.646-0.516-5.49-0.698c-0.064-0.011-0.089,0.095-0.023,0.111
							c2.546,0.829,5.447,1.575,8.106,2.028c0.755,0.165,1.999,0.272,2.777,0.364c8.768,1.035,18.839-0.776,24.716-7.93l0.857-1.147
							c1.067-1.577,1.935-3.288,2.444-5.104C194.961,157.932,194.468,157.738,194.316,158.075L194.316,158.075z"/>
						<path style="fill:#231F20;" d="M154.385,164.112c0,0-1.635-18.076,11.965-24.618s29.61,3.96,28.147,17.56
							c0,0,8.263-3.529,13.428-12.997c0,0-3.529,3.443-10.157,3.529c0,0,6.284-2.668,9.899-9.038c0,0-5.509,3.787-13.342,3.701
							c0,0,5.251-1.98,7.919-9.124c0,0-5.595,4.562-11.19,5.079c0,0,3.787-3.787,3.529-9.296c0,0-3.615,6.197-9.296,7.23
							c0,0-11.092-7.349-23.757,3.615C149.995,149.737,154.385,164.112,154.385,164.112z"/>
						<g>
							<circle style="fill:#44C8F5;" cx="171.497" cy="154.672" r="14.98"/>
							<circle style="fill:#231F20;" cx="171.497" cy="154.672" r="10.899"/>
							<path style="fill:#FFFFFF;" d="M169.152,151.616c0,2.985-2.419,5.404-5.404,5.404c-2.985,0-5.404-2.42-5.404-5.404
								s2.419-5.404,5.404-5.404C166.732,146.211,169.152,148.631,169.152,151.616z"/>
						</g>
					</g>
				</g>
			</g>
			<g>
				<path style="opacity:0.5;fill:#F6B897;" d="M133.623,191.202c0.186,0,0.371-0.042,0.542-0.116c2.923-1.26,5.648-1,8.304-1.419
					c2.734-0.432,1.853-5.994,1.853-5.994h0.047c0,0,2.636,6.754-0.494,10.295c-3.13,3.542-10.168,2.389-10.168,2.389h-0.121
					c0,0-7.038,1.153-10.168-2.389c-3.13-3.542-0.494-10.295-0.494-10.295s-0.881,5.563,1.853,5.994
					c2.656,0.419,5.381,0.16,8.304,1.419C133.252,191.16,133.437,191.202,133.623,191.202L133.623,191.202z"/>
				<g>
					<path style="fill:#754C29;" d="M129.988,194.494c-0.063,0.008-0.326-0.266-0.375-0.304c-0.353-0.273-0.722-0.526-1.101-0.761
						c-1.465-0.907-3.245-1.648-5.002-1.384c0.095-0.014,0.59,0.509,0.672,0.573c0.425,0.325,0.866,0.631,1.335,0.888
						C126.862,194.245,128.449,194.694,129.988,194.494z"/>
					<path style="fill:#754C29;" d="M137.305,194.494c0.063,0.008,0.326-0.266,0.375-0.304c0.353-0.273,0.722-0.526,1.101-0.761
						c1.465-0.907,3.245-1.648,5.002-1.384c-0.095-0.014-0.59,0.509-0.672,0.573c-0.425,0.325-0.865,0.631-1.335,0.888
						C140.431,194.245,138.845,194.694,137.305,194.494z"/>
				</g>
				<g>
					<path style="fill:#F6B687;" d="M144.369,183.672c3.818,9.41-0.947,14.498-10.691,12.864c-1.546,0.186-3.736,0.401-5.529,0.11
						c-7.1-1.122-7.496-7.335-5.225-12.975c-1.231,3.92-1.725,9.716,2.837,11.575c2.437,0.956,5.195,1.253,7.795,0.928
						c2.66,0.288,5.457,0.005,7.936-1.016C146.008,193.304,145.51,187.588,144.369,183.672L144.369,183.672z"/>
					<path style="fill:#F6B687;" d="M144.369,183.672c3.818,9.41-0.947,14.498-10.691,12.864c-1.546,0.186-3.736,0.401-5.529,0.11
						c-7.1-1.122-7.496-7.335-5.225-12.975c-1.231,3.92-1.725,9.716,2.837,11.575c2.437,0.956,5.195,1.253,7.795,0.928
						c2.66,0.288,5.457,0.005,7.936-1.016C146.008,193.304,145.51,187.588,144.369,183.672L144.369,183.672z"/>
				</g>
			</g>
			<g>
				<path style="fill:#DF7469;" d="M133.913,223.076c16.06,0,21.414-13.795,21.414-13.795c1.853-0.824,4.324-3.294,4.324-3.294
					c-5.868,2.162-20.899-1.647-22.443-1.441c-1.544,0.206-3.5,2.471-3.5,2.471h-0.037c0,0-1.956-2.265-3.5-2.471
					c-1.544-0.206-16.575,3.603-22.443,1.441c0,0,2.471,2.471,4.324,3.294c0,0,5.354,13.795,21.414,13.795"/>
				<g>
					<path style="fill:#DF7469;" d="M155.031,209.356l-10.658,2.762l-5.3,1.49c-1.664,0.452-3.284,1.204-5.018,1.41
						c-1.085,0.108-2.144-0.378-3.106-0.68c-2.608-0.818-5.29-1.519-7.937-2.224c-3.534-0.988-7.284-1.789-10.718-2.849
						c3.262,0.493,7.414,1.762,10.812,2.488c2.687,0.659,5.355,1.299,8.013,2.075c0.982,0.33,1.932,0.615,2.908,0.657
						c1.698-0.185,3.271-0.886,4.928-1.303l5.329-1.398l10.714-2.577C155.09,209.181,155.133,209.339,155.031,209.356
						L155.031,209.356z"/>
					<path style="fill:#DF7469;" d="M155.031,209.356l-10.658,2.762l-5.3,1.49c-1.664,0.452-3.284,1.204-5.018,1.41
						c-1.085,0.108-2.144-0.378-3.106-0.68c-2.608-0.818-5.29-1.519-7.937-2.224c-3.534-0.988-7.284-1.789-10.718-2.849
						c3.262,0.493,7.414,1.762,10.812,2.488c2.687,0.659,5.355,1.299,8.013,2.075c0.982,0.33,1.932,0.615,2.908,0.657
						c1.698-0.185,3.271-0.886,4.928-1.303l5.329-1.398l10.714-2.577C155.09,209.181,155.133,209.339,155.031,209.356
						L155.031,209.356z"/>
				</g>
			</g>
		</g>
	</g>
</g>
</svg>
