<?xml version="1.0" encoding="utf-8"?>
<!-- Generator: Adobe Illustrator 27.5.0, SVG Export Plug-In . SVG Version: 6.00 Build 0)  -->
<svg version="1.1" id="Layer_1" xmlns="http://www.w3.org/2000/svg" xmlns:xlink="http://www.w3.org/1999/xlink" x="0px" y="0px"
	 viewBox="0 0 192.258 378.57" style="enable-background:new 0 0 192.258 378.57;" xml:space="preserve">
<g>
	<g>
		<g>
			<path style="fill:#FFCD95;" d="M9.796,140.542c1.514,5.075,4.152,9.768,7.422,13.915c3.018,3.828,6.63,7.326,10.698,10.03
				c2.97,1.975,7.166,4.237,10.782,2.675c1.992-0.861,3.145-2.81,3.856-4.767c0.888-2.443,1.247-5.045,1.17-7.638
				c-0.154-5.18-1.847-10.199-3.745-14.972c-1.84-4.626-4.172-9.361-8.102-12.571c-0.028-0.023-0.061-0.035-0.092-0.05
				c-0.738-0.879-1.56-1.689-2.473-2.406c-3.322-2.61-7.532-3.52-11.658-2.676c-3.605,0.737-6.67,2.964-8.06,6.428
				C8.045,132.366,8.641,136.671,9.796,140.542z"/>
			<path style="opacity:0.35;fill:#FFCD95;" d="M39.978,139.786c-1.84-4.626-4.172-9.361-8.102-12.571
				c-0.028-0.023-0.061-0.035-0.092-0.05c-0.738-0.879-1.56-1.689-2.473-2.406c-1.682-1.322-3.592-2.206-5.604-2.648
				c0.569,3.919,1.258,7.82,2.087,11.693c1.846,8.625,4.369,17.098,7.534,25.331c1.101,2.865,2.284,5.697,3.529,8.502
				c0.624-0.067,1.24-0.213,1.84-0.472c1.992-0.861,3.145-2.81,3.856-4.767c0.888-2.443,1.247-5.045,1.17-7.638
				C43.57,149.578,41.876,144.559,39.978,139.786z"/>
			<path style="fill:#746556;" d="M11.778,135.092c2.071-4.59,8.612-1.64,11.574,0.278c4.862,3.148,8.291,8.213,10.368,13.534
				c1.243,3.184,2.029,6.536,2.444,9.926c0.032,0.259-0.389,0.193-0.427-0.012c-0.353-1.909-0.79-3.806-1.336-5.666
				c-0.555,0.489-1.578,0.611-2.205,0.576c-1.11-0.062-2.207-0.471-3.189-0.973c-1.884-0.963-3.652-2.296-5.162-3.777
				c-0.132-0.13,0.102-0.194,0.202-0.101c1.427,1.32,3.094,2.457,4.843,3.305c0.903,0.437,1.867,0.847,2.876,0.945
				c0.419,0.041,0.85,0.029,1.256-0.094c0.451-0.137,0.714-0.458,1.112-0.669c0.008-0.004,0.018-0.004,0.026-0.008
				c-1.002-3.208-2.348-6.298-4.193-9.141c-2.653-4.089-6.505-7.825-11.249-9.309c-2.293-0.717-4.988-0.852-6.442,1.415
				C12.136,135.54,11.666,135.341,11.778,135.092z"/>
		</g>
		<g>
			<path style="fill:#FFCD95;" d="M182.462,140.542c-1.514,5.075-4.152,9.768-7.422,13.915c-3.018,3.828-6.63,7.326-10.698,10.03
				c-2.97,1.975-7.166,4.237-10.782,2.675c-1.992-0.861-3.145-2.81-3.856-4.767c-0.888-2.443-1.247-5.045-1.17-7.638
				c0.153-5.18,1.847-10.199,3.745-14.972c1.84-4.626,4.172-9.361,8.102-12.571c0.028-0.023,0.061-0.035,0.092-0.05
				c0.738-0.879,1.56-1.689,2.473-2.406c3.322-2.61,7.532-3.52,11.658-2.676c3.605,0.737,6.67,2.964,8.06,6.428
				C184.213,132.366,183.617,136.671,182.462,140.542z"/>
			<path style="opacity:0.35;fill:#FFCD95;" d="M152.28,139.786c1.839-4.626,4.172-9.361,8.102-12.571
				c0.028-0.023,0.061-0.035,0.092-0.05c0.738-0.879,1.56-1.689,2.473-2.406c1.682-1.322,3.592-2.206,5.604-2.648
				c-0.569,3.919-1.258,7.82-2.087,11.693c-1.846,8.625-4.369,17.098-7.534,25.331c-1.101,2.865-2.284,5.697-3.529,8.502
				c-0.624-0.067-1.24-0.213-1.84-0.472c-1.992-0.861-3.145-2.81-3.856-4.767c-0.888-2.443-1.247-5.045-1.17-7.638
				C148.688,149.578,150.382,144.559,152.28,139.786z"/>
			<path style="fill:#746556;" d="M180.48,135.092c-2.071-4.59-8.612-1.64-11.574,0.278c-4.862,3.148-8.291,8.213-10.368,13.534
				c-1.243,3.184-2.029,6.536-2.444,9.926c-0.032,0.259,0.389,0.193,0.427-0.012c0.353-1.909,0.79-3.806,1.336-5.666
				c0.555,0.489,1.578,0.611,2.205,0.576c1.11-0.062,2.207-0.471,3.189-0.973c1.884-0.963,3.652-2.296,5.162-3.777
				c0.132-0.13-0.102-0.194-0.202-0.101c-1.427,1.32-3.094,2.457-4.843,3.305c-0.903,0.437-1.867,0.847-2.876,0.945
				c-0.419,0.041-0.85,0.029-1.256-0.094c-0.451-0.137-0.714-0.458-1.112-0.669c-0.008-0.004-0.018-0.004-0.026-0.008
				c1.002-3.208,2.348-6.298,4.193-9.141c2.653-4.089,6.505-7.825,11.249-9.309c2.293-0.717,4.988-0.852,6.442,1.415
				C180.122,135.54,180.592,135.341,180.48,135.092z"/>
		</g>
	</g>
	<path style="fill:#F99D1C;" d="M22.034,122.866c0,0,0.975,43.447-7.557,53.63c-8.533,10.183-18.284,31.906,3.901,39.147
		c0,0-9.264-5.205-7.801-17.424c1.463-12.219,16.334-13.803,17.065-30.549c0,0-1.707,19.461,6.826,31.227
		c8.533,11.767-2.682,21.271,2.682,38.921c5.363,17.65,0.244,26.928,0.244,26.928s12.433-4.978,13.896-21.045
		c0,0-5.119,19.46,0.975,23.76c0,0-0.975-6.789,8.776-14.03c0,0,2.925,14.935,20.965,14.708c0,0-18.04-9.051-8.776-30.775
		c0,0,11.946,12.446,9.264,24.213c0,0,5.851-4.752,1.463-18.103c0,0,9.264,14.482,5.119,25.344c0,0,8.045-5.657,5.607-22.176
		c0,0,4.632,19.008,20.478,16.745c0,0-13.652,0-11.945-21.723c0,0,3.413,27.607,29.254,21.271c0,0-13.652-1.584-11.702-14.709
		c0,0,14.627,9.278,14.139,16.519c0,0,2.256-4.825-1.365-12.732c0,0,4.046,10.675,9.796,9.983c0,0-6.176-1.087-4.366-15.715
		c1.81-14.628,17.995-20.855,15.546-35.681c0,0,1.491,7.611-0.426,13.047c0,0,4.579-8.994,1.491-20.064
		c-3.088-11.07-5.005-12.651-0.958-19.372c4.046-6.721,4.685-12.849,4.579-16.21c0,0-0.639,10.378,10.009,19.867
		c10.648,9.488,6.069,22.733,2.023,25.105c0,0,9.59-3.128,8.864-18.972c-0.726-15.843-19.066-19.888-13.619-44.159
		c5.447-24.271,22.334-26.967,20.882-55.283c-1.453-28.316-61.011-56.295-108.222-56.295C31.93,38.265,9.596,57.142,22.034,122.866z
		"/>
	<path style="opacity:0.4;fill:#F99D1C;" d="M166.482,149.843c5.447-24.271,22.334-26.967,20.882-55.283
		c-1.453-28.316-61.011-56.295-108.222-56.295c-47.211,0-69.546,18.877-57.107,84.601c0,0,0.975,43.447-7.557,53.63
		c-8.533,10.183-18.284,31.906,3.901,39.148c0,0-9.264-5.205-7.801-17.424c1.433-11.971,15.733-13.737,17.001-29.549
		c-0.127,2.483-0.279,9.262,1.239,16.486c0.005,0.002,0.01,0.004,0.015,0.007c1.303,0.567,2.554,1.254,3.771,1.985
		c2.569,1.542,5.024,3.292,7.35,5.18c5.202,4.224,8.849,10.097,11.174,16.331c2.484,6.662,3.534,13.884,3.225,20.981
		c-0.185,4.249-0.843,8.489-1.669,12.656c-0.452,2.28-0.923,4.578-1.537,6.821c-0.442,1.618-1.03,3.203-1.647,4.766
		c-0.529,5.426-0.299,11.418,2.764,13.579c0,0-0.975-6.789,8.776-14.03c0,0,2.925,14.935,20.965,14.709
		c0,0-18.04-9.051-8.776-30.775c0,0,11.945,12.446,9.264,24.213c0,0,5.851-4.752,1.463-18.103c0,0,9.264,14.482,5.119,25.344
		c0,0,8.045-5.657,5.607-22.176c0,0,4.632,19.008,20.478,16.745c0,0-13.652,0-11.945-21.723c0,0,3.413,27.607,29.254,21.271
		c0,0-13.652-1.584-11.702-14.709c0,0,14.627,9.278,14.139,16.519c0,0,0.451-0.969,0.625-2.746c-1.395-2.9-2.7-5.842-3.827-8.859
		c-2.25-6.025-3.785-12.414-3.578-18.882c0.106-3.3,0.668-6.583,1.695-9.722c0.912-2.789,2.247-5.373,3.762-7.878
		c2.891-4.782,6.464-9.245,10.771-12.827c2.869-2.386,6.119-4.383,9.65-5.56c-2.018-6.529-2.669-8.597,0.62-14.06
		c3.705-6.155,4.551-11.805,4.586-15.296c0.12,2.728,1.234,11.139,10.002,18.953c10.648,9.488,6.069,22.733,2.023,25.105
		c0,0,9.59-3.128,8.864-18.971C179.374,178.158,161.034,174.113,166.482,149.843z"/>
	<g>
		<g>
			<g>
				<path style="fill:#73A17F;" d="M18.722,204.748c0,0-9.142-30.933,11.906-29.02C30.628,175.728,53.589,187.315,18.722,204.748z"
					/>
				<path style="opacity:0.5;fill:#73A17F;" d="M32.868,182.053c-0.558-0.798-1.156-1.568-1.735-2.35
					c-0.402-0.543-0.832-1.154-1.005-1.816c0.01-0.331,0.014-0.667-0.036-0.992c0.005-0.023,0.007-0.045,0.013-0.068
					c0.027-0.111-0.011-0.176-0.078-0.211c-0.016-0.058-0.026-0.117-0.047-0.173c-0.096-0.253-0.564-0.015-0.594,0.178
					c-0.031,0.202-0.038,0.403-0.037,0.603c-0.017,0.173-0.012,0.343,0.006,0.512c0.001,0.068,0.003,0.135,0.002,0.204
					c-0.007,0.512-0.046,1.024-0.114,1.531c-0.11,0.821-0.296,1.63-0.535,2.423c-0.264-0.076-0.565-0.064-0.835-0.079
					c-0.439-0.025-0.88-0.032-1.319-0.025c-0.901,0.014-1.801,0.092-2.69,0.243c-1.722,0.292-3.407,0.834-4.969,1.617
					c-0.193,0.096-0.085,0.287,0.107,0.208c1.572-0.647,3.205-1.101,4.89-1.328c0.812-0.11,1.632-0.174,2.451-0.18
					c0.433-0.004,0.866,0.011,1.299,0.038c0.304,0.019,0.6,0.067,0.898,0.039c-0.604,1.807-1.487,3.501-2.456,5.137
					c-0.035,0.058-0.07,0.116-0.105,0.174c-1.5,0.458-2.98,1.222-4.33,2.008c-0.677,0.394-1.343,0.814-1.983,1.266
					c-0.62,0.438-1.34,0.906-1.818,1.503c-0.136,0.17,0.068,0.273,0.219,0.192c0.659-0.355,1.245-0.867,1.866-1.284
					c0.657-0.442,1.324-0.864,2.013-1.252c1.161-0.654,2.362-1.165,3.577-1.685c-1.827,2.956-3.879,5.796-5.175,9.04
					c-0.758,1.897-1.328,3.963-1.122,6.019c0.021,0.206,0.398,0.078,0.411-0.081c0.154-1.887,0.512-3.73,1.187-5.503
					c0.692-1.818,1.65-3.523,2.674-5.172c0.377-0.606,0.764-1.207,1.153-1.807c0.1,1.154,0.521,2.31,0.84,3.397
					c0.432,1.468,0.791,2.949,0.977,4.471c0.029,0.234,0.405,0.051,0.418-0.124c0.11-1.5-0.267-2.951-0.66-4.386
					c-0.385-1.403-0.967-2.897-0.892-4.371c0.001-0.012-0.006-0.019-0.007-0.03c0.935-1.447,1.852-2.904,2.634-4.432
					c0.066,0.421,0.191,0.843,0.293,1.198c0.24,0.836,0.555,1.649,0.818,2.478c0.537,1.692,0.89,3.43,1.35,5.141
					c0.052,0.193,0.373,0.059,0.367-0.109c-0.063-1.694-0.456-3.364-0.941-4.985c-0.243-0.813-0.538-1.608-0.79-2.417
					c-0.132-0.425-0.249-0.856-0.322-1.296c-0.066-0.398-0.021-0.838-0.126-1.221c-0.009-0.031-0.023-0.054-0.038-0.075
					c0.232-0.521,0.45-1.049,0.641-1.592c0.359-1.022,0.635-2.077,0.786-3.151c0.003-0.023,0.005-0.046,0.008-0.069
					c0.036,0.056,0.07,0.113,0.107,0.167c0.585,0.868,1.261,1.678,1.884,2.519c1.233,1.665,2.327,3.374,3.114,5.298
					c0.059,0.145,0.372,0.002,0.341-0.137C35.032,185.341,33.98,183.64,32.868,182.053z"/>
			</g>
			<g>
				<path style="fill:#FFE050;" d="M34.491,174.893c0,1.999-1.621,3.62-3.62,3.62s-3.62-1.621-3.62-3.62
					c0-1.999,1.621-3.62,3.62-3.62S34.491,172.894,34.491,174.893z"/>
				<g style="opacity:0.5;">
					<path style="fill:#FFE050;" d="M30.871,176.814c-1.706,0-3.133-1.182-3.516-2.771c-0.066,0.273-0.104,0.556-0.104,0.85
						c0,1.999,1.621,3.62,3.62,3.62s3.62-1.621,3.62-3.62c0-0.293-0.039-0.577-0.104-0.85
						C34.004,175.632,32.577,176.814,30.871,176.814z"/>
				</g>
			</g>
			<path style="fill:#B29FD9;" d="M36.131,161.364c-0.73-0.293-1.535-0.421-2.292-0.585c-0.191-0.041-0.429,0.084-0.512,0.328
				c-1.165,3.414-2.279,6.939-3.003,10.527c-0.055,0.088-0.08,0.191-0.047,0.297c0.198,0.635,0.609,0.984,1.111,1.181
				c0.437,0.172,1.081,0.363,1.549,0.189c0.595-0.22,0.726-1.108,0.932-1.75c0.315-0.985,0.627-1.972,0.937-2.96
				c0.596-1.905,1.285-3.828,1.759-5.781C36.72,162.166,36.673,161.581,36.131,161.364z"/>
		</g>
		<g>
			<g>
				<path style="fill:#73A17F;" d="M173.536,204.748c0,0,9.142-30.933-11.906-29.02C161.63,175.728,138.669,187.315,173.536,204.748
					z"/>
				<path style="opacity:0.5;fill:#73A17F;" d="M159.39,182.053c0.558-0.798,1.156-1.568,1.735-2.35
					c0.402-0.543,0.832-1.154,1.005-1.816c-0.01-0.331-0.014-0.667,0.036-0.992c-0.005-0.023-0.007-0.045-0.013-0.068
					c-0.027-0.111,0.011-0.176,0.078-0.211c0.016-0.058,0.026-0.117,0.047-0.173c0.096-0.253,0.564-0.015,0.594,0.178
					c0.031,0.202,0.038,0.403,0.037,0.603c0.017,0.173,0.012,0.343-0.006,0.512c-0.001,0.068-0.002,0.135-0.002,0.204
					c0.007,0.512,0.046,1.024,0.114,1.531c0.11,0.821,0.296,1.63,0.535,2.423c0.264-0.076,0.565-0.064,0.835-0.079
					c0.439-0.025,0.88-0.032,1.319-0.025c0.901,0.014,1.801,0.092,2.69,0.243c1.722,0.292,3.407,0.834,4.969,1.617
					c0.193,0.096,0.085,0.287-0.107,0.208c-1.572-0.647-3.205-1.101-4.89-1.328c-0.812-0.11-1.632-0.174-2.451-0.18
					c-0.433-0.004-0.866,0.011-1.299,0.038c-0.304,0.019-0.6,0.067-0.898,0.039c0.604,1.807,1.487,3.501,2.456,5.137
					c0.034,0.058,0.07,0.116,0.105,0.174c1.5,0.458,2.98,1.222,4.33,2.008c0.677,0.394,1.343,0.814,1.983,1.266
					c0.62,0.438,1.34,0.906,1.818,1.503c0.136,0.17-0.068,0.273-0.219,0.192c-0.659-0.355-1.245-0.867-1.866-1.284
					c-0.657-0.442-1.324-0.864-2.013-1.252c-1.161-0.654-2.363-1.165-3.577-1.685c1.827,2.956,3.879,5.796,5.174,9.04
					c0.758,1.897,1.328,3.963,1.122,6.019c-0.021,0.206-0.398,0.078-0.411-0.081c-0.154-1.887-0.512-3.73-1.187-5.503
					c-0.692-1.818-1.65-3.523-2.675-5.172c-0.377-0.606-0.764-1.207-1.152-1.807c-0.1,1.154-0.521,2.31-0.84,3.397
					c-0.432,1.468-0.791,2.949-0.977,4.471c-0.029,0.234-0.405,0.051-0.418-0.124c-0.11-1.5,0.267-2.951,0.66-4.386
					c0.385-1.403,0.967-2.897,0.892-4.371c-0.001-0.012,0.006-0.019,0.007-0.03c-0.935-1.447-1.852-2.904-2.634-4.432
					c-0.066,0.421-0.191,0.843-0.293,1.198c-0.24,0.836-0.555,1.649-0.818,2.478c-0.537,1.692-0.89,3.43-1.35,5.141
					c-0.052,0.193-0.373,0.059-0.367-0.109c0.063-1.694,0.456-3.364,0.94-4.985c0.243-0.813,0.538-1.608,0.79-2.417
					c0.133-0.425,0.249-0.856,0.322-1.296c0.066-0.398,0.021-0.838,0.126-1.221c0.009-0.031,0.023-0.054,0.038-0.075
					c-0.232-0.521-0.45-1.049-0.641-1.592c-0.359-1.022-0.635-2.077-0.786-3.151c-0.003-0.023-0.005-0.046-0.008-0.069
					c-0.036,0.056-0.07,0.113-0.107,0.167c-0.585,0.868-1.261,1.678-1.884,2.519c-1.233,1.665-2.327,3.374-3.114,5.298
					c-0.059,0.145-0.372,0.002-0.341-0.137C157.226,185.341,158.278,183.64,159.39,182.053z"/>
			</g>
			<g>
				<path style="fill:#FFE050;" d="M157.767,174.893c0,1.999,1.621,3.62,3.62,3.62c1.999,0,3.62-1.621,3.62-3.62
					c0-1.999-1.621-3.62-3.62-3.62C159.388,171.273,157.767,172.894,157.767,174.893z"/>
				<g style="opacity:0.5;">
					<path style="fill:#FFE050;" d="M161.388,176.814c1.706,0,3.133-1.182,3.516-2.771c0.066,0.273,0.104,0.556,0.104,0.85
						c0,1.999-1.621,3.62-3.62,3.62s-3.62-1.621-3.62-3.62c0-0.293,0.039-0.577,0.104-0.85
						C158.255,175.632,159.681,176.814,161.388,176.814z"/>
				</g>
			</g>
			<path style="fill:#B29FD9;" d="M156.127,161.364c0.73-0.293,1.535-0.421,2.292-0.585c0.191-0.041,0.429,0.084,0.512,0.328
				c1.165,3.414,2.279,6.939,3.003,10.527c0.055,0.088,0.08,0.191,0.047,0.297c-0.198,0.635-0.609,0.984-1.111,1.181
				c-0.437,0.172-1.081,0.363-1.549,0.189c-0.595-0.22-0.726-1.108-0.932-1.75c-0.315-0.985-0.627-1.972-0.936-2.96
				c-0.596-1.905-1.285-3.828-1.759-5.781C155.538,162.166,155.585,161.581,156.127,161.364z"/>
		</g>
	</g>
	<g>
		<path style="fill:#FED09E;" d="M112.452,199.796c-1.049,8.479-1.157,17.219-0.166,25.703c1.822,15.596,7.638,26.625,23.668,30.688
			c22.351,5.666,47.01,12.204,48.477,39.58c1.734,32.376-1.445,54.292-1.445,54.292s-31.903,19.046-86.976,19.046h0.24
			c-55.073,0-86.976-19.046-86.976-19.046s-3.18-21.916-1.445-54.292c1.467-27.376,26.126-33.914,48.477-39.58
			c16.03-4.064,21.845-15.092,23.668-30.688c0.991-8.484,0.883-17.224-0.166-25.703H112.452z"/>
		<path style="opacity:0.8;fill:#FED09E;" d="M96.408,239.634c6.188,0,12.161-1.641,17.783-4.348
			c-0.882-3.015-1.495-6.284-1.905-9.786c-0.991-8.484-0.883-17.224,0.166-25.703H79.806c1.049,8.479,1.157,17.219,0.166,25.703
			c-0.409,3.502-1.022,6.772-1.905,9.786c5.622,2.707,11.595,4.348,17.783,4.348H96.408z"/>
		<path style="opacity:0.6;fill:#FED09E;" d="M164.828,310.679c-1.546-5.165-6.208-8.821-11.593-9.08
			c-32.745-1.571-56.472,26.892-57.103,27.657c0.008,0.01,0.015,0.018,0.015,0.018h-0.03c0,0,0.006-0.008,0.015-0.018
			c-0.632-0.765-24.359-29.227-57.104-27.657c-5.385,0.258-10.048,3.914-11.593,9.08c-2.519,8.419-4.458,23.799,1.647,47.901
			c14.842,5.064,37.634,10.51,67.048,10.525c29.416-0.015,52.209-5.461,67.051-10.526
			C169.286,334.476,167.347,319.098,164.828,310.679z"/>
		<g>
			<path style="fill:#EF8FC7;" d="M48.305,301.972c0,0-13.22-26.615-12.89-40.39c-1.84,0.656-3.644,1.359-5.399,2.12
				c0.892,14.208,12.843,38.27,12.843,38.27H48.305z"/>
			<path style="fill:#EF8FC7;" d="M139.613,301.972c0,0,13.22-26.615,12.89-40.39c1.84,0.656,3.644,1.359,5.399,2.12
				c-0.892,14.208-12.843,38.27-12.843,38.27H139.613z"/>
			<path style="fill:#EF8FC7;" d="M160.181,308.057c-1.441-4.816-5.788-8.225-10.809-8.466
				c-30.53-1.464-52.652,25.073-53.241,25.786c0.008,0.01,0.014,0.017,0.014,0.017h-0.028c0,0,0.006-0.007,0.014-0.017
				c-0.589-0.713-22.711-27.251-53.241-25.786c-5.021,0.241-9.368,3.65-10.809,8.466c-2.639,8.821-4.604,25.826,3.998,53.367
				c14.447,4.068,33.982,7.669,57.893,7.681c26.639-0.013,47.85-4.482,62.64-9.087C164.71,333.307,162.775,316.726,160.181,308.057z
				"/>
			<g style="opacity:0.7;">
				<path style="fill:#EF8FC7;" d="M71.118,367.961c-25.973-7.485-36.786-26.298-41.203-38.906
					c0.377,8.581,2.076,19.283,6.163,32.369C45.607,364.107,57.365,366.58,71.118,367.961z"/>
				<path style="fill:#EF8FC7;" d="M121.965,367.391c13.855-1.721,25.484-4.52,34.646-7.373c4.338-14.308,5.796-25.706,5.817-34.542
					C158.957,337.511,149.104,358.755,121.965,367.391z"/>
			</g>
		</g>
	</g>
	<g>
		<path style="fill:#FED09E;" d="M162.55,103.141c2.611,31.118,0.588,64.141-18.832,89.765
			c-10.975,14.48-28.111,30.265-47.311,30.265h-0.557c-19.199,0-36.336-15.784-47.311-30.265
			c-19.42-25.624-21.443-58.647-18.832-89.765c0,0,6.026-69.634,67.175-69.634S162.55,103.141,162.55,103.141z"/>
		<radialGradient id="SVGID_1_" cx="58.7913" cy="163.6245" r="23.3618" gradientUnits="userSpaceOnUse">
			<stop  offset="1.799800e-04" style="stop-color:#DF7469"/>
			<stop  offset="1" style="stop-color:#FFFFFF"/>
		</radialGradient>
		<circle style="opacity:0.3;fill:url(#SVGID_1_);" cx="58.791" cy="163.624" r="23.362"/>
		
			<radialGradient id="SVGID_00000180331667368081845770000014214193298643241106_" cx="133.1765" cy="163.6245" r="23.3619" gradientUnits="userSpaceOnUse">
			<stop  offset="1.799800e-04" style="stop-color:#DF7469"/>
			<stop  offset="1" style="stop-color:#FFFFFF"/>
		</radialGradient>
		
			<circle style="opacity:0.3;fill:url(#SVGID_00000180331667368081845770000014214193298643241106_);" cx="133.177" cy="163.624" r="23.362"/>
		<g>
			<g>
				<path style="fill:#FED09E;" d="M96.134,166.603L96.134,166.603c-0.002,0-0.003,0-0.005,0c-0.002,0-0.003,0-0.005,0v0
					c-3.998,0.006-11.399,3.689-8.87,8.524c2.349,4.492,8.023,5.655,8.826,5.799v0.017c0,0,0.02-0.003,0.049-0.008
					c0.03,0.005,0.049,0.008,0.049,0.008v-0.017c0.803-0.144,6.477-1.307,8.826-5.799
					C107.533,170.292,100.132,166.609,96.134,166.603z"/>
				<path style="opacity:0.7;fill:#FED09E;" d="M103.618,169.549c0.168,1.008-0.143,2.008-0.728,2.882
					c-1.042,1.559-2.99,2.309-4.781,2.533c-1.88,0.236-3.843-0.055-5.543-0.902c-1.698-0.847-3.244-2.478-3.1-4.498
					c0.017-0.244,0.057-0.498,0.114-0.752c-2.232,1.539-3.66,3.766-2.326,6.316c2.349,4.492,8.023,5.655,8.826,5.799l0,0.017
					c0,0,0.02-0.003,0.049-0.008c0.03,0.005,0.049,0.008,0.049,0.008l0-0.017c0.803-0.144,6.477-1.307,8.826-5.799
					C106.138,172.96,105.274,171.026,103.618,169.549z"/>
				<g>
					<path style="fill:#754C29;" d="M92.98,177.341c0,0-2.543-3.014-3.579-1.554C88.365,177.247,92.98,177.341,92.98,177.341z"/>
					<path style="fill:#754C29;" d="M99.278,177.341c0,0,2.543-3.014,3.579-1.554C103.893,177.247,99.278,177.341,99.278,177.341z"
						/>
				</g>
			</g>
			<g>
				<path style="fill:#DF7469;" d="M96.199,202.674c-7.914-0.096-12.38-3.753-14.544-6.635c-2.22-3.002-2.138-5.228-2.235-5.254
					c11.531-1.414,16.202,2.385,16.765,2.709c-0.034,0-0.068,0-0.102,0c0.564-0.325,5.233-4.124,16.765-2.714
					c-0.096,0.026-0.014,2.252-2.233,5.254c-2.164,2.882-6.628,6.54-14.543,6.639"/>
				<path style="fill:#DF7469;" d="M79.498,190.738c9.443,7.338,23.825,7.29,33.275-0.009c0.126-0.1,0.28-0.009,0.148,0.102
					c-1.118,0.955-2.287,1.874-3.581,2.644c-6.445,3.986-15.129,4.761-22.311,1.996c-2.88-1.068-5.535-2.656-7.688-4.639
					c-0.054-0.05-0.06-0.109-0.015-0.133C79.37,190.677,79.444,190.695,79.498,190.738L79.498,190.738z"/>
				<g>
					<path style="fill:#DF7469;" d="M112.731,190.731c0.138,0.3,1.155-0.091,1.677-0.402c0.525-0.305,0.814-0.798,0.653-1.081
						c-0.161-0.283-0.697-0.259-1.203,0.035C113.356,189.581,112.597,190.436,112.731,190.731z"/>
					<path style="fill:#DF7469;" d="M79.527,190.731c-0.139,0.3-1.154-0.091-1.678-0.402c-0.524-0.305-0.814-0.798-0.652-1.081
						c0.161-0.283,0.697-0.259,1.203,0.035C78.902,189.581,79.661,190.436,79.527,190.731z"/>
				</g>
			</g>
			<g>
				<g>
					<g>
						<path style="fill:#FFFFFF;" d="M79.4,151.201c0-0.002,0.718-17.116-12.657-20.136c-13.376-3.021-20.856,5.609-26.753-1.726
							c0,0,0.719,8.63,8.342,10.787c-0.26-0.074-0.374,5.657-0.338,6.008c0.413,3.991,2.324,7.625,5.871,9.669
							c4.414,2.544,10.027,2.617,14.923,1.767c2.039-0.354,4.069-0.945,5.903-1.918C75.982,154.966,79.328,152.909,79.4,151.201z"/>
						<g>
							<path style="fill:#231F20;" d="M44.92,147.264c0,0,9.452,16.658,30.884,7.768c0,0-8.61,7.393-22.367,2.433
								C45.779,154.704,44.92,147.264,44.92,147.264z"/>
							<path style="fill:#231F20;" d="M50.981,155.402c0,0-2.142,0.47-3.186,4.388c0,0,1.672-2.716,5.119-2.925
								c0,0-1.201,0.94-0.784,3.082c0,0,2.09-2.089,3.97-2.298L50.981,155.402z"/>
						</g>
						<g>
							<path style="fill:#006F92;" d="M52.865,146.232c1.269,6.402,7.488,10.564,13.89,9.295c6.402-1.269,10.563-7.487,9.295-13.89
								s-7.488-10.564-13.89-9.295C55.758,133.611,51.596,139.83,52.865,146.232z"/>
							<path style="fill:#231F20;" d="M57.81,145.252c0.728,3.671,4.293,6.057,7.965,5.329c3.671-0.728,6.057-4.293,5.329-7.964
								c-0.728-3.671-4.293-6.057-7.964-5.33C59.469,138.015,57.083,141.581,57.81,145.252z"/>
							<path style="fill:#FFFFFF;" d="M65.803,144.374c0.458,2.31,2.701,3.811,5.011,3.353c2.31-0.458,3.811-2.701,3.353-5.011
								c-0.458-2.31-2.701-3.811-5.011-3.353C66.847,139.821,65.345,142.064,65.803,144.374z"/>
						</g>
						<path style="fill:#231F20;" d="M66.743,131.064c-13.376-3.021-20.856,5.609-26.753-1.726c0,0,0.719,8.63,8.342,10.787
							c0,0,4.826-9.546,18.85-5.731c6.316,1.718,9.787,6.385,11.695,10.997C77.872,140.13,74.981,132.924,66.743,131.064z"/>
						<path style="fill:#D1D3D4;" d="M48.091,142.101c0.975-0.7,1.994-1.329,3.146-1.722c1.751-0.597,3.607-0.881,5.452-0.945
							c3.23-0.113,6.48,0.431,9.47,1.663c2.827,1.165,5.372,2.883,7.696,4.855c1.173,0.995,2.301,2.051,3.393,3.134
							c0.769,0.763,1.471,1.591,2.084,2.483c0.036-0.124,0.062-0.247,0.067-0.368c0-0.002,0.718-17.116-12.657-20.136
							c-13.376-3.021-20.856,5.609-26.753-1.726c0,0,0.719,8.63,8.342,10.787C48.229,140.096,48.148,140.992,48.091,142.101z"/>
					</g>
					<path style="fill:#F99D1C;" d="M37.739,118.997c13.333-6.932,31.389-8.371,43.951,0.93c0.209,0.164,0.021,0.528-0.244,0.404
						c-10.185-4.833-21.629-5.486-32.601-3.531c-3.669,0.639-7.33,1.504-10.921,2.629c-0.125,0.039-0.257-0.03-0.296-0.155
						C37.594,119.165,37.643,119.05,37.739,118.997L37.739,118.997z"/>
				</g>
				<g>
					<g>
						<path style="fill:#FFFFFF;" d="M112.858,151.201c0-0.002-0.718-17.116,12.657-20.136c13.376-3.021,20.856,5.609,26.753-1.726
							c0,0-0.719,8.63-8.342,10.787c0.26-0.074,0.374,5.657,0.338,6.008c-0.413,3.991-2.324,7.625-5.871,9.669
							c-4.414,2.544-10.027,2.617-14.923,1.767c-2.039-0.354-4.069-0.945-5.903-1.918
							C116.276,154.966,112.93,152.909,112.858,151.201z"/>
						<g>
							<path style="fill:#231F20;" d="M147.338,147.264c0,0-9.452,16.658-30.884,7.768c0,0,8.61,7.393,22.367,2.433
								C146.479,154.704,147.338,147.264,147.338,147.264z"/>
							<path style="fill:#231F20;" d="M141.277,155.402c0,0,2.142,0.47,3.187,4.388c0,0-1.672-2.716-5.119-2.925
								c0,0,1.201,0.94,0.783,3.082c0,0-2.089-2.089-3.97-2.298L141.277,155.402z"/>
						</g>
						<g>
							<path style="fill:#006F92;" d="M139.393,146.232c-1.269,6.402-7.488,10.564-13.89,9.295
								c-6.402-1.269-10.564-7.487-9.295-13.89c1.269-6.402,7.487-10.564,13.89-9.295
								C136.501,133.611,140.662,139.83,139.393,146.232z"/>
							<path style="fill:#231F20;" d="M134.448,145.252c-0.728,3.671-4.293,6.057-7.964,5.329s-6.057-4.293-5.33-7.964
								c0.728-3.671,4.293-6.057,7.964-5.33C132.789,138.015,135.175,141.581,134.448,145.252z"/>
							<path style="fill:#FFFFFF;" d="M137.613,144.374c-0.458,2.31-2.701,3.811-5.011,3.353c-2.31-0.458-3.811-2.701-3.353-5.011
								c0.458-2.31,2.701-3.811,5.011-3.353C136.569,139.821,138.07,142.064,137.613,144.374z"/>
						</g>
						<path style="fill:#231F20;" d="M125.515,131.064c13.376-3.021,20.856,5.609,26.753-1.726c0,0-0.719,8.63-8.342,10.787
							c0,0-4.826-9.546-18.851-5.731c-6.316,1.718-9.787,6.385-11.695,10.997C114.386,140.13,117.277,132.924,125.515,131.064z"/>
						<path style="fill:#D1D3D4;" d="M144.167,142.101c-0.975-0.7-1.994-1.329-3.146-1.722c-1.751-0.597-3.607-0.881-5.452-0.945
							c-3.23-0.113-6.48,0.431-9.47,1.663c-2.827,1.165-5.372,2.883-7.696,4.855c-1.173,0.995-2.301,2.051-3.393,3.134
							c-0.769,0.763-1.471,1.591-2.084,2.483c-0.036-0.124-0.061-0.247-0.066-0.368c0-0.002-0.718-17.116,12.657-20.136
							c13.376-3.021,20.856,5.609,26.753-1.726c0,0-0.719,8.63-8.342,10.787C144.029,140.096,144.11,140.992,144.167,142.101z"/>
					</g>
					<path style="fill:#F99D1C;" d="M154.519,118.997c-13.333-6.932-31.389-8.371-43.951,0.93c-0.209,0.164-0.021,0.528,0.244,0.404
						c10.185-4.833,21.629-5.486,32.602-3.531c3.669,0.639,7.33,1.504,10.921,2.629c0.124,0.039,0.257-0.03,0.296-0.155
						C154.664,119.165,154.615,119.05,154.519,118.997L154.519,118.997z"/>
				</g>
			</g>
		</g>
	</g>
	<g>
		<path style="fill:#F99D1C;" d="M65.819,79.78c0,0,5.572,40.953,48.475,35.102c0,0-34.545-12.537-38.446-51.261
			c0,0,13.372,46.525,51.261,46.525c37.888,0,33.988-10.029,33.988-10.029s-5.293,25.073,2.229,40.117
			c7.522,15.044,8.915,27.302-2.786,33.71c0,0,10.865-2.229,12.815-13.93c1.95-11.701-9.472-23.402-3.064-31.481
			c6.408-8.079,25.909-29.531,6.129-66.305c0,0,1.393-25.352-22.009-42.067C131.009,3.446,105.1,9.296,97.578,17.654
			c0,0-24.795-18.944-56.275,4.179S20.409,64.179,20.409,64.179S4.529,75.044,7.594,102.624
			c3.065,27.58,20.616,26.745,20.894,40.396c0.279,13.651-11.144,20.616,1.393,28.138c0,0-6.337-8.138-0.248-16.933
			c6.089-8.795,3.89-49.386,3.89-49.386S58.539,103.262,65.819,79.78z"/>
		<path style="opacity:0.4;fill:#F99D1C;" d="M180.967,72.11c-1.034,1.446-2.163,2.824-3.383,4.114
			c-3.511,3.71-7.823,6.365-12.458,8.458c-11.044,4.985-23.411,6.083-35.377,5.084c-11.685-0.976-23.203-4.012-33.193-10.319
			c-4.476-2.826-8.502-6.35-12.051-10.272c-2.919-3.226-6.296-7.367-6.68-11.906c-0.667,0.984-1.346,1.96-2.049,2.919
			c-5.619,7.667-12.664,15.298-21.668,18.902c-6.749,2.701-14.669,3.387-21.55,0.756c-3.319-1.269-6.313-3.325-8.587-6.065
			c-2.139-2.578-3.603-5.666-4.452-8.904c-3.302,2.788-14.548,14.148-11.926,37.747c3.065,27.58,20.616,26.745,20.894,40.396
			c0.279,13.651-11.144,20.616,1.393,28.138c0,0-6.337-8.138-0.249-16.933c6.089-8.795,3.89-49.386,3.89-49.386
			s25.017-1.576,32.297-25.058c0,0,5.572,40.953,48.475,35.102c0,0-34.545-12.537-38.445-51.261c0,0,13.372,46.525,51.261,46.525
			c24.753,0,31.668-4.28,33.489-7.249c-1.117,6.94-3.275,25.331,2.727,37.336c7.522,15.044,8.915,27.302-2.786,33.709
			c0,0,10.865-2.229,12.815-13.93c1.95-11.701-9.472-23.401-3.064-31.481C176.101,121.207,192.678,102.883,180.967,72.11z"/>
	</g>
	<g>
		<path style="fill:#FED09E;" d="M96.249,369.106c-0.04,0-0.08-0.001-0.12-0.001c-0.04,0-0.08,0.001-0.12,0.001H96.249z"/>
	</g>
</g>
</svg>
