<?xml version="1.0" encoding="utf-8"?>
<!-- Generator: Adobe Illustrator 27.5.0, SVG Export Plug-In . SVG Version: 6.00 Build 0)  -->
<svg version="1.1" id="_x2018_ëîé_x5F_1" xmlns="http://www.w3.org/2000/svg" xmlns:xlink="http://www.w3.org/1999/xlink"
	 x="0px" y="0px" viewBox="0 0 3200 2000" style="enable-background:new 0 0 3200 2000;" xml:space="preserve">
<rect style="fill:#FFFFFF;" width="3200" height="2000"/>
<g>
	<path style="fill:#EBF3FA;" d="M3111.76,1113.955c-3.289,111.285-28.196,268.026-77.711,386.009
		c-1.619,3.854-3.264,7.67-4.933,11.439c-9.724,21.942-20.347,42.384-31.894,60.749c-3.217,5.138-6.518,10.119-9.891,14.921
		c-15.988,22.783-33.61,41.592-52.899,55.084c-6.506,4.573-13.204,8.522-20.106,11.8c-0.071,0.048-0.156,0.084-0.228,0.107
		c-0.156,0.084-0.313,0.156-0.468,0.229c-0.24,0.12-0.492,0.228-0.732,0.336c-3.338,1.561-6.71,2.953-10.119,4.178l-186.498,0.996
		l-263.969,1.404l-58.938,0.312l-649.665-1.884l-936.021-2.677l-3.769-0.013l-512.658-1.464c0,0-129.325-82.717-181.721-231.38
		c-1.344-3.829-2.653-7.706-3.889-11.619c-11.788-37.043-18.665-77.963-17.693-122.52c3.229-148.388,46.298-461.631,497.605-534.852
		c423.267-68.672,310.723-505.539,934.844-462.615c246.264,16.937,355.532,185.07,545.859,140.273
		c509.26-119.843,766.855-6.002,902.687,190.615v0.012l0.948,1.356c4.514,6.602,8.907,13.288,13.168,20.058
		c17.706,28.136,33.13,57.761,46.646,88.478c9.506,21.606,18.064,43.741,25.795,66.295c1.128,3.301,2.244,6.614,3.337,9.927
		c0.024,0.072,0.048,0.144,0.072,0.216c0.012,0.012,0.012,0.036,0.012,0.048c10.107,30.585,18.749,61.878,26.216,93.495
		c1.272,5.39,2.509,10.791,3.709,16.193v0.012c1.776,7.958,3.48,15.917,5.113,23.899v0.012c1.188,5.773,2.341,11.535,3.457,17.309
		c1.177,6.085,2.316,12.171,3.422,18.257c2.424,13.408,4.692,26.804,6.817,40.199c1.717,10.804,2.941,23.348,3.661,37.344
		C3112.229,1073.66,3112.372,1092.997,3111.76,1113.955z"/>
	<path style="fill:#F8FCFF;" d="M2369.25,732.197c0,0,22.594-50.581,76.621-44.96c0,0,78.438-84.304,162.083-11.24
		c0,0,88.913-18.104,154.761,15.675c43.902,22.521,58.403,46.146,58.403,46.146L2369.25,732.197z"/>
	<path style="fill:#F8FCFF;" d="M1324.274,561.181c0,0,26.094-50.994,88.491-45.328c0,0,90.59-84.993,187.193-11.332
		c0,0,102.688-18.251,178.737,15.803c50.703,22.705,67.451,46.523,67.451,46.523L1324.274,561.181z"/>
	<path style="fill:#F8FCFF;" d="M1708.726,694.519c0,0,17.251-33.712,58.503-29.967c0,0,59.89-56.189,123.756-7.492
		c0,0,67.888-12.066,118.165,10.447c33.521,15.011,44.592,30.757,44.592,30.757L1708.726,694.519z"/>
	<path style="fill:#A8D29F;" d="M761.965,1656.947l-481.302-1.467c0,0-121.417-82.719-170.603-231.385
		c177.36,50.274,239.671,182.891,301.732,161.479C477.812,1562.799,756.109,1562.778,761.965,1656.947z"/>
	<path style="fill:#A8D29F;" d="M3097.428,960.695c-2.461,27.248-5.894,59.957-9.975,96.124c-2.041,18.113-4.249,37.091-6.59,56.681
		c-13.864,116.302-32.182,254.354-46.814,361.81c-1.691,12.472-3.348,24.535-4.933,36.095c-12.448,28.088-26.36,53.716-41.784,75.67
		c-15.988,22.783-33.61,41.592-52.899,55.084c-6.506,4.573-13.204,8.522-20.106,11.8h-324.299l-126.864-0.012h-421.059
		c0,0-19.722-75.995,105.271-79.632c220.192-6.41,97.061-109.604,230.924-112.953c11.619-0.3,25.195,0.168,41.111,1.513
		c15.101,1.272,29.697,0.66,43.753-1.584c3.134-0.492,6.242-1.068,9.315-1.729c2.688-0.576,5.354-1.201,7.994-1.909
		c0.324-0.072,0.66-0.156,0.984-0.252c4.645-1.225,9.242-2.641,13.756-4.226c0.924-0.323,1.86-0.647,2.772-0.984
		c6.638-2.437,13.12-5.209,19.446-8.318c5.557-2.712,11.007-5.677,16.324-8.87c2.641-1.585,5.258-3.217,7.838-4.909
		c0.984-0.637,1.957-1.285,2.93-1.945c0.947-0.636,1.896-1.284,2.844-1.944c7.19-5.005,14.141-10.395,20.826-16.12
		c0.528-0.444,1.045-0.9,1.561-1.356c0.517-0.433,1.032-0.889,1.537-1.333c1.44-1.272,2.868-2.557,4.285-3.853
		c2.328-2.137,4.621-4.298,6.865-6.506c5.138-5.018,10.083-10.203,14.849-15.545c3.757-4.189,7.382-8.462,10.899-12.819
		c11.055-13.685,20.982-28.064,29.697-42.589c35.902-59.945,51.099-122.424,39.695-148.351c-0.061-0.145-0.133-0.301-0.192-0.444
		c0-0.013-0.013-0.013-0.013-0.024c-3.433-7.454-9.146-11.764-17.284-11.943c-15.929-0.348-33.91-1.465-51.903-4.657
		c-61.83-10.947-123.805-46.394-103.218-159.563c26.587-146.095,141.737-114.693,179.608-177.484
		c37.883-62.802,89.953-138.688,225.905-124.296c49.719,5.258,89.294,15.905,119.231,33.97
		c9.506,21.606,18.064,43.741,25.795,66.295c1.128,3.301,2.244,6.614,3.337,9.927c0.024,0.072,0.048,0.144,0.072,0.216
		c0.012,0.012,0.012,0.036,0.012,0.048c10.107,30.585,18.749,61.878,26.216,93.495c1.272,5.39,2.509,10.791,3.709,16.193v0.012
		c1.776,7.958,3.48,15.917,5.113,23.899v0.012C3095.159,949.159,3096.312,954.921,3097.428,960.695z"/>
	<g>
		<g>
			<path style="fill:#F9DDBF;" d="M2608.189,1057.527v597.102h304.709c0.24-0.108,0.492-0.216,0.732-0.336
				c0.155-0.072,0.312-0.145,0.468-0.229h20.334v-0.107h-20.106c6.902-3.277,13.601-7.227,20.106-11.8
				c19.289-13.492,36.911-32.301,52.899-55.084c15.424-21.954,29.336-47.582,41.784-75.67c1.669-3.77,3.313-7.586,4.933-11.439
				v-442.437H2608.189z"/>
			<path style="fill:#FFF3E9;" d="M3111.76,1113.955c-3.289,111.285-28.196,268.026-77.711,386.009v-442.437l4.515-0.049l48.89-0.66
				l23.875-0.323C3112.229,1073.66,3112.372,1092.997,3111.76,1113.955z"/>
			<path style="fill:#ED9F4A;" d="M3085.148,903.27c1.272,5.39,2.509,10.791,3.709,16.193v0.012l-3.156,6.494l-63.896,131.559
				l-14.548,29.948l-4.502,9.255v0.012h-423.891l29.324-37.991l0.948-1.224l189.596-248.064l1.128,1.056l127.777-0.384l72.189-0.228
				l59.093-0.18c0.012,0.012,0.012,0.036,0.012,0.048C3069.04,840.36,3077.682,871.653,3085.148,903.27z"/>
			<path style="fill:#F9DDBF;" d="M3093.971,943.373v0.012l-55.407,114.093l-0.036,0.049l-4.479,9.23v0.012l-14.56,29.961h-423.903
				l12.592-16.313l0.012-0.013l17.669-22.878l182.069-235.797l8.666-11.224l111.104-0.336l72.178-0.216l59.057-0.18
				c10.107,30.585,18.749,61.878,26.216,93.495c1.272,5.39,2.509,10.791,3.709,16.193v0.012
				C3090.634,927.433,3092.338,935.392,3093.971,943.373z"/>
			<g>
				<path style="fill:#ED9F4A;" d="M3111.328,1056.495c-0.72-13.996-1.944-26.54-3.661-37.344
					c-2.125-13.396-4.394-26.792-6.817-40.199c-1.105-6.086-2.245-12.172-3.422-18.257c-1.116-5.774-2.269-11.536-3.457-17.309
					v-0.012c-1.633-7.982-3.337-15.94-5.113-23.899v-0.012c-1.2-5.402-2.437-10.803-3.709-16.193
					c-7.467-31.617-16.108-62.91-26.216-93.495c0-0.012,0-0.036-0.012-0.048c-0.024-0.072-0.048-0.144-0.072-0.216l-132.074-0.012
					l-128.041-0.036l0.948,1.284l8.246,10.983l176.859,235.797l22.471,29.948l6.938,9.255l11.968,15.94l7.886,0.12l46.814,0.708
					l30.896,0.456C3112.372,1092.997,3112.229,1073.66,3111.328,1056.495z"/>
			</g>
			<g>
				<path style="fill:#EFCDAF;" d="M2740.258,990.977h-6.111c-20.76,0-37.589,16.829-37.589,37.588v95.521h80.068v-96.74
					C2776.626,1007.26,2760.344,990.977,2740.258,990.977z"/>
				<path style="fill:#FFF3E9;" d="M2740.264,988.651h-6.109c-22.015,0-39.924,17.91-39.924,39.912v97.853h84.732v-99.064
					C2778.963,1006.008,2761.606,988.651,2740.264,988.651z M2774.294,1121.746h-35.53v-87.278h35.53V1121.746z M2698.888,1034.468
					h33.886v87.278h-33.886V1034.468z M2774.294,1028.599h-75.406v-0.036c0-19.434,15.821-35.254,35.267-35.254h6.109
					c18.762,0,34.03,15.269,34.03,34.042V1028.599z"/>
			</g>
			<g>
				<path style="fill:#EFCDAF;" d="M2864.526,990.977h-6.112c-20.76,0-37.588,16.829-37.588,37.588v95.521h80.068v-96.74
					C2900.895,1007.26,2884.611,990.977,2864.526,990.977z"/>
				<path style="fill:#FFF3E9;" d="M2864.524,988.651h-6.11c-22.014,0-39.924,17.91-39.924,39.912v97.853h84.745v-99.064
					C2903.235,1006.008,2885.866,988.651,2864.524,988.651z M2898.566,1121.746h-35.53v-87.278h35.53V1121.746z M2823.16,1034.468
					h33.874v87.278h-33.874V1034.468z M2898.566,1028.599h-75.406v-0.036c0-19.434,15.809-35.254,35.254-35.254h6.11
					c18.773,0,34.042,15.269,34.042,34.042V1028.599z"/>
			</g>
		</g>
		<g>
			<polygon style="fill:#ED9F4A;" points="2770.385,1176.969 2671.046,1381.488 2369.25,1381.488 2526.592,1177.715 			"/>
			<g>
				<polygon style="fill:#F9DDBF;" points="2779.427,1176.969 2680.088,1381.488 2378.292,1381.488 2535.635,1177.715 				"/>
				<polygon style="fill:#F9DDBF;" points="2679.43,1381.486 2679.43,1654.068 2378.297,1654.659 2378.297,1381.486 				"/>
				<path style="fill:#FFF3E9;" d="M2934.433,1381.489v260.668c-6.506,4.573-13.204,8.522-20.106,11.8h20.106v0.107H2679.43
					v-272.575H2934.433z"/>
				<polygon style="fill:#ED9F4A;" points="2962.453,1393.581 2688.515,1393.581 2526.588,1177.71 2608.189,1177.724 
					2795.819,1177.765 				"/>
				<path style="fill:#EFCDAF;" d="M2590.029,1426.892v227.768h-126.868v-225.674c0-18.799,8.04-35.723,20.878-47.499
					c11.472-10.556,26.781-16.981,43.603-16.981c16.561,0,31.623,6.455,42.774,16.981
					C2582.498,1392.855,2590.029,1408.994,2590.029,1426.892z"/>
				<polygon style="fill:#E58638;" points="2962.453,1393.581 2944.585,1393.581 2696.558,1177.724 2795.819,1177.765 				"/>
			</g>
		</g>
		<path style="fill:#FFF3E9;" d="M2527.31,1372.486h-0.028c-30.265,0-54.799,24.534-54.799,54.799v218.378h107.847v-220.157
			C2580.329,1396.224,2556.592,1372.486,2527.31,1372.486z"/>
		<path style="fill:#F9DDBF;" d="M2573.219,1426.24v1.903h-93.248v-0.359c0-26.169,21.217-47.387,47.387-47.387h0.02
			C2552.701,1380.397,2573.219,1400.926,2573.219,1426.24z"/>
		<g>
			<path style="fill:#EFCDAF;" d="M2571.291,1407.393c-5.138-11.907-14.98-21.33-27.188-25.903
				c-5.209-1.969-10.851-3.037-16.745-3.037c-5.978,0-11.715,1.068-17.021,3.037c-18.846,6.95-32.302,25.075-32.302,46.298v2.305
				h97.133v-3.854C2575.168,1419.553,2573.787,1413.179,2571.291,1407.393z M2481.937,1426.202
				c0.433-12.52,5.954-23.767,14.549-31.737c0.948-0.876,1.932-1.716,2.952-2.508c7.707-6.026,17.417-9.615,27.944-9.615
				c9.783,0,18.81,3.217,26.12,8.63c1.044,0.78,2.052,1.609,3.013,2.461h0.012v0.013c5.09,4.525,9.123,10.215,11.667,16.637
				c1.993,4.993,3.073,10.431,3.086,16.12H2481.937z M2569.238,1407.513c-0.024-0.048-0.048-0.096-0.061-0.144
				c-0.312-0.672-0.636-1.333-0.972-1.993c-0.276-0.54-0.553-1.067-0.853-1.584c-0.096-0.181-0.216-0.372-0.324-0.564
				c-0.107-0.192-0.216-0.372-0.324-0.552c-0.035-0.061-0.061-0.108-0.096-0.168c-0.012-0.012-0.012-0.024-0.024-0.036
				c-0.155-0.265-0.323-0.528-0.504-0.792c-0.252-0.408-0.516-0.816-0.792-1.213c-0.264-0.408-0.553-0.792-0.84-1.188
				c-0.181-0.252-0.373-0.504-0.564-0.756c-0.265-0.36-0.541-0.708-0.828-1.057c-0.252-0.324-0.528-0.648-0.805-0.972
				c-0.276-0.336-0.563-0.66-0.852-0.973c-0.276-0.3-0.553-0.601-0.841-0.9c-0.204-0.216-0.396-0.42-0.601-0.624
				c-0.312-0.313-0.636-0.636-0.96-0.937c-0.265-0.252-0.528-0.504-0.804-0.744c-0.168-0.156-0.337-0.313-0.505-0.456l-1.164,1.572
				v0.013c5.09,4.525,9.123,10.215,11.667,16.637c0.528-0.444,1.045-0.9,1.561-1.356
				C2569.586,1408.317,2569.418,1407.909,2569.238,1407.513z"/>
		</g>
		<path style="fill:#EFCDAF;" d="M2558.337,1541.416c0-1.838,1.489-3.328,3.327-3.328s3.328,1.49,3.328,3.328
			s-1.49,3.328-3.328,3.328S2558.337,1543.254,2558.337,1541.416z"/>
		<g>
			<polygon style="fill:#EFCDAF;" points="2557.765,1391.768 2556.521,1393.438 2532.022,1426.201 2529.119,1430.085 
				2527.255,1430.085 2523.904,1426.201 2496.482,1394.468 2495.182,1392.963 2498.114,1390.428 2499.435,1391.952 
				2528.031,1425.045 2553.502,1390.981 2554.657,1389.438 			"/>
		</g>
		<rect x="2469.427" y="1434.995" style="fill:#EFCDAF;" width="119.437" height="8.872"/>
		<g>
			<path style="fill:#EFCDAF;" d="M2480.473,1452.189v185.106h92.271v-185.106H2480.473z M2571.759,1636.323h-90.302v-183.149
				h90.302V1636.323z"/>
		</g>
	</g>
	<g>
		<path style="fill:#82B378;" d="M2997.223,1572.152c-3.217,5.138-6.518,10.119-9.891,14.921
			c-15.988,22.783-33.61,41.592-52.899,55.084c-6.506,4.573-13.204,8.522-20.106,11.8c-0.071,0.048-0.156,0.084-0.228,0.107
			c-0.156,0.084-0.313,0.156-0.468,0.229c-0.24,0.12-0.492,0.228-0.732,0.336c-3.338,1.561-6.71,2.953-10.119,4.178l-186.498,0.996
			c6.961-32.098,25.219-54.496,50.847-69.608c0.012,0,0.012-0.013,0.024-0.013c4.789-2.82,9.807-5.389,15.076-7.706h0.012
			c1.608-0.72,3.229-1.416,4.897-2.076c2.833-1.152,5.701-2.232,8.654-3.253h0.013c2.484-0.864,5.005-1.681,7.574-2.449
			c5.713-1.729,11.631-3.252,17.704-4.573c24.464-5.329,51.628-7.514,79.907-7.514c16.793,0,33.971,0.768,51.207,2.101
			C2969.063,1565.995,2983.539,1568.804,2997.223,1572.152z"/>
		<g>
			<path style="fill:#82B378;" d="M2803.449,1602.525c0,0-31.652-115.867-55.829-109.762
				C2723.442,1498.869,2803.449,1602.525,2803.449,1602.525z"/>
			<path style="fill:#82B378;" d="M2813.5,1613.61c0,0-81.74-88.008-100.336-71.394C2694.568,1558.83,2813.5,1613.61,2813.5,1613.61
				z"/>
			<path style="fill:#82B378;" d="M2821.753,1633.117c0,0,5.23-119.998-19.656-121.565
				C2777.209,1509.985,2821.753,1633.117,2821.753,1633.117z"/>
		</g>
	</g>
	<g>
		<path style="fill:#F9DDBF;" d="M1062.216,850.951c0,0,75.411,131.784,60.286,177.232c-15.125,45.449-65.729,48.352-65.729,48.352
			L1062.216,850.951z"/>
		<path style="fill:#233862;" d="M1101.321,1661.957H996.039c-7.544-5.115,2.035-55.129,2.035-55.129s28.734-10.902,33.697,11.27
			c4.978,22.155,36.599,29.201,53.334,31.903C1096.557,1651.864,1100.176,1658.155,1101.321,1661.957z"/>
		<path style="fill:#233862;" d="M945.177,1661.957H839.894c-7.543-5.115,2.035-55.129,2.035-55.129s28.734-10.902,33.697,11.27
			c4.978,22.155,36.6,29.201,53.334,31.903C940.413,1651.864,944.032,1658.155,945.177,1661.957z"/>
		<path style="fill:#2B478B;" d="M1072.995,1151.74c0,0-4.732,59.04-10.294,130.011c-7.56,96.407-27.949,335.436-27.949,335.436
			s-13.368,11.405-42.976,5.165c0,0-25.202-82.46-32.739-176.576c-0.117-1.543-0.233-3.097-0.351-4.65
			c-7.01-95.812-17.912-297.564-17.912-297.564L1072.995,1151.74z"/>
		<path style="fill:#233862;" d="M1074.61,1131.339c0,0-6.347,79.441-11.909,150.412l-103.663,164.024
			c-0.117-1.543-0.233-3.097-0.351-4.65c-7.01-95.812-17.912-297.564-17.912-297.564L1074.61,1131.339z"/>
		<path style="fill:#2B478B;" d="M1044.396,1131.339c0,0-75.183,187.146-99.218,258.086c-17.121,50.532-65.403,227.8-65.403,227.8
			s-20.996,6.39-38.642-5.962c0,0-17.963-181.108,18.322-232.176c19.25-27.094,4.783-281.64,82.837-283.819
			C1020.344,1093.089,1044.396,1131.339,1044.396,1131.339z"/>
		<path style="fill:#FFB27D;" d="M1010.813,855.453c-11.478,6.045-22.679,6.423-32.39,4.36c-8.884-1.869-16.511-5.79-21.944-9.262
			c-5.575-3.564-8.853-6.668-8.853-6.668s0.388-0.562,1.042-1.664c3.39-5.8,13.673-26.651,9.098-60.154
			c-0.061-0.439,3.257,0.184,8.271,1.369c14.919,3.533,44.909,12.039,46.237,12.417c0.03,0,0.051,0,0.051,0
			s0.368,7.046,1.603,19.677c0.102,1.113,0.214,2.277,0.337,3.482c0.153,1.481,0.306,3.053,0.49,4.667
			C1016.143,836.807,1010.813,855.453,1010.813,855.453z"/>
		<path style="fill:#ED975D;" d="M1013.927,815.527c-22.271,5.105-55.508-27.775-55.508-27.775c2.43-1.808,4.983-3.237,7.617-4.319
			c14.919,3.533,44.909,12.039,46.237,12.417c0.03,0,0.051,0,0.051,0S1012.692,802.896,1013.927,815.527z"/>
		<path style="fill:#F9DDBF;" d="M1084.751,1099.818c-1.62,21.455-6.155,36.811-16.091,36.811c0,0-44.167,15.552-96.958,15.971
			c-10.318,0.074-24.938-1.938-37.053-3.967c-12.375-2.096-22.182-4.209-22.182-4.209c-10.616-2.449-22.331-9.005-20.756-21.11
			c0.829-6.444,1.434-14.714,1.844-24.296c0.028-0.614,0.056-1.229,0.083-1.854c1.164-28.039,0.978-66.665,1.118-103.644
			c0.103-22.712,0.326-44.792,1.089-63.416c0,0-10.42-73.156,1.146-85.16c13.559-14.043,53.358-18.354,55.854-17.814
			c0.745-0.158,1.5-0.345,2.263-0.475c0,0,34.613,18.891,59.802,4.755c0,0,36.737,8.366,47.306,19.541
			c3.65,3.846,18.206,27.461,18.606,53.396c0.549,36.159-0.866,77.235-0.866,77.244c0.382,5.876,1.015,13.447,1.704,22.088
			c0.736,9.21,1.555,19.611,2.245,30.46c0.344,5.467,0.661,11.044,0.922,16.622
			C1085.608,1067.98,1085.85,1085.301,1084.751,1099.818z"/>
		<path style="fill:#F2CCAA;" d="M953.013,827.167c0,0,37.512,38.691,64.331,30.765c0,0,3.573-5.225-8.505-6.9
			C996.759,849.356,983.722,850.042,953.013,827.167z"/>
		<g>
			<path style="fill:#FFB27D;" d="M1021.494,794.069c0,0-9.158,3.287-20.833,4.857c-17.074,2.305-39.524,0.946-46.577-19.711
				c-11.88-34.77-27.054-55.618,7.904-69.816c18.714-7.601,30.686-8.004,38.818-5.103c7.065,2.503,11.23,7.504,14.384,12.452
				C1021.978,727.39,1035.634,787.983,1021.494,794.069z"/>
			<path style="fill:#163560;" d="M1017.837,695.749c7.896,1.918,11.449,14.357,3.932,19.529
				c-13.475,9.272-29.943,5.633-36.01,8.332c-8.694,3.862-10.256,18.446-10.413,23.075c-0.156,4.638-0.766,8.547-12.573,5.773
				c-1.935-0.453-3.329-0.319-4.288,0.256c-4.898,2.906,1.361,16.991,3.249,20.039c0,0,2.717,10.089-3.312,15.001
				c-0.729,0.587-12.573,5.764-41.114-37.914c-4.486-6.856-8.769-22.302-1.84-37.172c6.919-14.871,28.321-33.286,54.004-33.289
				C989.792,679.377,1001.127,691.688,1017.837,695.749z"/>
			<path style="fill:#FFFFFF;" d="M1021.759,771.622c0,0,0.732,4.501-9.733,8.093c0,0-8.786,3.017-10.391-1.599
				C1001.635,778.116,1008.614,771.47,1021.759,771.622z"/>
		</g>
		<path style="fill:#ED975D;" d="M983.89,1074.209c0,0,28.215,18.616,39.11,19.809c7.408,0.812,36.68-0.385,36.841-4.084
			c0.227-5.226-17.881-10.744-22.57-12.844c-4.688-2.1-8.36-4.52-8.328-6.543s18.14,4.677,16.187,0.26
			c-1.953-4.416-18.684-12.105-22.726-12.846c-4.042-0.739-17.079,3.684-22.146,1.342
			C995.192,1056.961,983.89,1074.209,983.89,1074.209z"/>
		<path style="fill:#F2CCAA;" d="M996.273,1057.877c3.753,7.041-12.384,16.332-12.384,16.332s-44.606,21.208-90.335,24.809
			c0.028-0.614,0.056-1.229,0.083-1.854c1.164-28.039,0.978-66.665,1.118-103.644C894.756,993.52,990.087,1046.269,996.273,1057.877
			z"/>
		<path style="fill:#F9DDBF;" d="M906.768,838.144c0,0-19.322,8.162-42.292,51.081c-22.97,42.919-44.698,133.8-35.386,148.578
			c9.312,14.778,87.734,48.608,156.098,39.591c0,0,16.958-15.444,13.538-21.398c0,0-114.624-46.729-114.695-52.316
			c-0.071-5.587,40.892-53.743,43.22-77.718C929.579,901.986,906.768,838.144,906.768,838.144z"/>
		<g>
			<path style="fill:#FFB27D;" d="M1020.181,946.708c0,0-1.361,14.703,0,18.514c1.361,3.812,40.401,4.667,41.385,1.089
				c0.983-3.578,2.45-14.43,0-16.336C1059.115,948.07,1020.181,946.708,1020.181,946.708z"/>
			<path style="fill:#FFB27D;" d="M1045.945,1083.227h-8.773c-21.73,0-39.509-17.779-39.509-39.51v-37.856
				c0-21.731,0.472-41.038,23.834-48.213l41.071,3.1c35.479,9.794,22.887,23.382,22.887,45.113v37.856
				C1085.454,1065.447,1067.675,1083.227,1045.945,1083.227z"/>
			<g>
				<path style="fill:#FFB27D;" d="M1061.607,960.214c0,0,9.682,2.482,16.601-1.337c9.977-5.507,21.917-8.591,24.004-11.108
					c3.535-4.262,20.758-21.808,20.758-21.808l8.276,5.526c0,0-7.972,32.411-14.426,38.199
					c-6.454,5.788-18.015,26.341-37.497,29.251C1069.202,1000.449,1061.607,960.214,1061.607,960.214z"/>
				<path style="fill:#FFB27D;" d="M1122.971,925.961c0,0-3.023-8.15-0.527-9.219s3.951,4.866,3.951,4.866
					s6.499-13.485,13.105-7.662c6.606,5.823-8.253,17.542-8.253,17.542L1122.971,925.961z"/>
			</g>
			<g>
				<path style="fill:#FFB27D;" d="M1020.008,958.089c0,0-9.682,2.482-16.601-1.337c-9.978-5.507-21.918-8.591-24.005-11.108
					c-3.535-4.262-20.758-21.808-20.758-21.808l-8.276,5.526c0,0,7.972,32.411,14.426,38.199
					c6.455,5.788,18.015,26.341,37.498,29.251C1012.413,998.324,1020.008,958.089,1020.008,958.089z"/>
				<path style="fill:#FFB27D;" d="M958.644,923.836c0,0,3.023-8.15,0.527-9.219s-3.952,4.866-3.952,4.866
					s-6.498-13.485-13.105-7.662c-6.606,5.823,8.253,17.542,8.253,17.542L958.644,923.836z"/>
			</g>
			<g>
				<path style="fill:#FFB27D;" d="M1078.53,1028.184c0,0,22.979,10.078,35.104,13.642c11.307,3.323,25.284,11.256,25.576,12.54
					c0.291,1.284,0.438,12.504-5.291,14.703c-5.728,2.2-67.915,11.091-77.146,7.467
					C1056.773,1076.535,1063.406,1031.953,1078.53,1028.184z"/>
				<path style="fill:#FFFFFF;" d="M1138.349,1031.014c0,0-10.958,0.77-17.404,8.815c0,0-2.624,3.502-7.312,1.996
					c0,0-17.248,11.013-6.258,31.808c0,0,23.237-1.451,26.543-4.564C1137.225,1065.955,1138.349,1031.014,1138.349,1031.014z"/>
				<path style="fill:#AFCDFB;" d="M1133.919,1069.068c0,0,11.604-2.745,13.695-14.359c2.091-11.615-0.064-22.604-7.71-23.57
					c-7.646-0.966-12.47,3.167-14.566,8.707C1123.241,1045.385,1117.091,1069.623,1133.919,1069.068z"/>
			</g>
			<path style="fill:#FFB27D;" d="M1044.685,868.296c0,0,23.175-1.04,32.007,20.989c8.833,22.029,10.567,59.909-9.92,65.881
				c-13.975,4.073-29.021,1.2-42.507-3.965c-7.121-2.728-9.544-8.73-13.613-13.478C984.515,907.23,992.955,871.019,1044.685,868.296
				z"/>
			<path style="fill:#FFFFFF;" d="M997.662,1022.707c0,0,45.544,9.766,87.743,0c0,0,4.823,8.226,5.447,10.682
				c1.325,5.216-1.063,13.775-10.448,24.672c-13.805,16.028-60.969,27.99-77.511,17.738
				C988.394,1066.813,985.127,1036.225,997.662,1022.707z"/>
			<g>
				<path style="fill:#FFB27D;" d="M1048.633,1042.105c8.466,2.949,20.735,9.798,31.771,15.955
					c10.292,5.743,22.168,16.571,22.168,17.888c0,1.317-2.339,12.291-8.413,13.169c-6.073,0.878-68.686-4.211-76.886-9.787
					c0,0-9.479-2.715-10.705-13.537C1004.786,1050.052,1012.516,1029.526,1048.633,1042.105z"/>
				<path style="fill:#FFFFFF;" d="M1106.899,1052.985c0,0-10.857-1.674-18.923,4.746c0,0-3.334,2.835-7.572,0.329
					c0,0-19.256,6.924-13.14,29.635c0,0,22.982,3.727,26.895,1.422S1106.899,1052.985,1106.899,1052.985z"/>
				<path style="fill:#AFCDFB;" d="M1094.159,1089.117c0,0,11.924-0.109,16.533-10.974s4.938-22.058-2.305-24.691
					s-12.862,0.329-16.132,5.268C1088.986,1063.657,1077.625,1085.935,1094.159,1089.117z"/>
			</g>
			<path style="fill:#FFFFFF;" d="M1053.952,934.625c0,0,4.675,5.51,10.819,3.507c6.144-2.002,7.093-8.679,7.093-8.679
				S1062.908,929.453,1053.952,934.625z"/>
			<path style="fill:#ED975D;" d="M1024.538,920.576c0,0-8.985-7.88-11.844-2.163c-2.859,5.718,3.676,14.088,8.985,14.191
				C1026.988,932.707,1028.071,923.094,1024.538,920.576z"/>
			<path style="fill:#FFB27D;" d="M1025.871,920.268c0,0-6.86-6.017-9.044-1.651c-2.183,4.366,2.807,10.757,6.86,10.835
				C1027.742,929.531,1028.568,922.19,1025.871,920.268z"/>
			<path style="fill:#FF9843;" d="M1017.792,879.856c0,0,11.121,15.12,34.499,14.564c0,0,9.185-1.329,13.081-7.274
				c0,0-7.375,2.961-11.272,1.708c0,0,22.038-3.366,21.759-9.258c-0.278-5.893-11.844-12.497-20.284-13.508
				c-6.718-0.805-27.027-0.671-33.177,2.698C1016.249,872.155,1016.067,877.889,1017.792,879.856z"/>
			<path style="fill:#FF9843;" d="M1027.708,867.098c0,0-25.508,4.143-30.046,24.477c-1.826,8.18,2.034,20.114,2.034,20.114
				s-0.514-24.205,19.88-25.219c14.842-0.738,24.564-2.246,24.564-2.246L1027.708,867.098z"/>
			<path style="fill:#ED975D;" d="M1031.378,988.978c0,0.846-0.686,1.531-1.532,1.531s-1.531-0.686-1.531-1.531
				s0.686-1.532,1.531-1.532S1031.378,988.132,1031.378,988.978z"/>
			<path style="fill:#ED975D;" d="M1069.734,988.978c0,0.846-0.686,1.531-1.532,1.531c-0.846,0-1.531-0.686-1.531-1.531
				s0.685-1.532,1.531-1.532C1069.048,987.446,1069.734,988.132,1069.734,988.978z"/>
		</g>
		<path style="fill:#ED975D;" d="M1101.899,1017.964c-1.198-4.565-4.416-8.327-8.698-10.31c-5.454-2.526-13.185-5.914-16.707-6.554
			c-5.744-1.044-17.487-7.95-18.445-4.362c-0.958,3.588,8.288,7.746,8.334,11.7c0.046,3.953-25.966,13.632-25.274,17.733
			c0.692,4.102,8.108,13.279,18.188,10.829c10.079-2.45,35.116-8.319,40.893-9.94
			C1103.252,1026.2,1102.945,1021.945,1101.899,1017.964z"/>
	</g>
	<g>
		<path style="fill:#2C3A64;" d="M1387.669,1593.9c0,0-4.158,7.409-0.97,15.596c2.008,5.157,2.223,10.571,0.528,15.154
			c-1.433,3.872-6.643,4.503-8.926,1.063l-24.092-36.309c-2.052-3.093-0.985-7.275,2.297-9.008c2.869-1.514,6.189-3.31,8.673-4.78
			c5.422-3.211,13.128-0.76,13.128-0.76L1387.669,1593.9z"/>
		<path style="fill:#35488B;" d="M1454.713,1520.573c-6.384,20.038-64.742,83.047-64.742,83.047s-24.965-18.331-24.363-31.595
			c0,0,30.741-57.23,31.06-64.254c0.076-1.666-3.417-8.527-8.746-18.115c-0.72-1.301-1.478-2.65-2.266-4.042l0-0.005
			c-9.212-16.358-22.469-38.793-32.859-57.5c-0.248-0.449-0.496-0.894-0.738-1.337c-9.299-16.832-16.082-30.379-15.146-33.285
			c2.725-8.47,82.749-19.881,82.749-19.881S1461.087,1500.535,1454.713,1520.573z"/>
		<path style="fill:#2C3A64;" d="M1385.657,1485.609c-9.212-16.358-22.469-38.793-32.859-57.5c-0.248-0.449-0.496-0.894-0.738-1.337
			l0.037-19.996l27.732-4.242L1385.657,1485.609z"/>
		<path style="fill:#2C3A64;" d="M1284.764,1613.498c0,0-4.371,18.153,0.065,25.737c2.794,4.777,3.857,10.09,2.904,14.882
			c-0.806,4.05-5.853,5.492-8.648,2.453l-29.5-32.07c-2.512-2.731-2.116-7.03,0.853-9.257c2.595-1.946,5.592-4.241,7.814-6.084
			c4.85-4.023,12.845-2.814,12.845-2.814L1284.764,1613.498z"/>
		<path style="fill:#35488B;" d="M1380.604,1385.412c0,0-31.05,108.008-42.611,135.171c-8.048,18.907-46.895,106.291-46.895,106.291
			s-38.771-11.823-36.153-23.779c0,0,24.749-89.605,29.182-99.735c5.752-13.143,2.142-102.613,24.005-118.728
			S1380.604,1385.412,1380.604,1385.412z"/>
		<path style="fill:#FFB27D;" d="M1380.415,1236.326c0,0,49.063-51.637,51.76-58.398c2.697-6.763,12.923-66.049,12.923-66.049
			l12.751,0.499c0,0,3.35,69.804-0.847,83.803s-61.824,76.816-61.824,76.816L1380.415,1236.326z"/>
		<path style="fill:#FFB27D;" d="M1371.246,1221.124c-1.543-2.302-2.683-4.868-3.51-7.526c-1.865-6.009-2.152-12.474-1.996-17.3
			c0.152-4.466,0.677-7.527,0.677-7.527l-33.791-13.918c1.313,8.432,1.471,16.13,1.056,22.79
			c-0.998,15.838-5.277,25.809-5.277,25.809l0.581,1.525c-3.766,0.711-7.762,1.533-12.008,2.483l43.71,23.093l25.274-26.27
			C1385.963,1224.283,1382.399,1221.797,1371.246,1221.124z"/>
		<path style="fill:#EA9C68;" d="M1367.736,1213.598c-18.474,1.033-34.053-15.955-34.053-15.955l32.058-1.345
			C1365.584,1201.124,1365.871,1207.589,1367.736,1213.598z"/>
		<path style="fill:#FFB27D;" d="M1306.208,1238.258c0,0-40.653-44.509-59.745-57.786c0,0-29.43-58.25-31.744-62.057
			c-2.314-3.808-14.403,4.523-14.403,4.523s13.824,57.847,24.729,74.432c10.905,16.585,45.087,72.446,65.989,72.895
			C1311.937,1270.714,1306.208,1238.258,1306.208,1238.258z"/>
		<g>
			<path style="fill:#FFB27D;" d="M1375.828,1202.588c0,0-35.967,12.75-51.07-15.439c-16.299-30.424-3.184-54.656,9.175-57.24
				c24.644-5.152,39.893,3.146,45.099,12.82S1395.688,1195.734,1375.828,1202.588z"/>
			<path style="fill:#FFFFFF;" d="M1358.118,1187.209c0,0,4.216,5.257,13.74,2.325c0,0,8.69-2.323,6.125-8.138
				C1377.983,1181.396,1367.608,1180.132,1358.118,1187.209z"/>
			<g>
				<path style="fill:#2C3A64;" d="M1332.169,1196.835c0,0-5.361-12.299-5.403-19.097c0,0-10.608-11.442-5.268-14.933
					c5.34-3.49,8.956,3.499,10.12,1.972c1.164-1.526,1.175-25.734,8.027-25.537c6.854,0.198,32.616,5.904,42.843-4.503
					c10.227-10.407-19.559-45.302-63.648-27.225C1274.75,1125.591,1288.159,1175.165,1332.169,1196.835z"/>
				<path style="fill:#2C3A64;" d="M1298.137,1129.103c0,0-2.557-5.947-0.717-10.498c0,0,0.606,6.009,3.191,8.491
					S1298.137,1129.103,1298.137,1129.103z"/>
				<path style="fill:#2C3A64;" d="M1298.726,1124.747c0,0-5.653-0.172-7.941,4.354c0,0,3.724-2.994,7.947-0.495L1298.726,1124.747z
					"/>
			</g>
		</g>
		<g>
			<path style="fill:#F99746;" d="M1416.917,1400.086c-43.362,14.502-100.314,13.097-114.367,12.485
				c-2.099-0.088-3.239-0.164-3.239-0.164c-4.982-0.657-8.638-4.334-9.002-8.727c-0.046-0.564-0.031-1.146,0.033-1.731l7.681-66.81
				l-7.136-32.634l-4.06-18.606l-9.273-42.485c18.23-10.263,35.081-16.341,50.708-19.691c6.508,5.09,19.129,12.323,32.354,9.648
				c9.94-2.017,11.829-6.914,11.227-12.061c21.248,1.381,32.657,5.85,32.657,5.85l26.421,153.335
				C1432.516,1387.709,1426.667,1396.823,1416.917,1400.086z"/>
			<path style="fill:#F99746;" d="M1255.359,1249.193c0,0,27.299,15.598,30.322,29.454c0,0,37.828-30.238,42.581-56.925
				c0,0-8.142,0.033-18.044,3.859c0,0-5.101-1.861-10.349-1.568l-20.957-14.303
				C1278.913,1209.711,1256.401,1217.607,1255.359,1249.193z"/>
			<path style="fill:#F99746;" d="M1371.844,1219.311c0,0,11.006-1.883,15.058-1.245c0,0,1.86-1.687,6.472-2.319l22.718-17.383
				c0,0,17.358,15.018,15.044,38.06c0,0-18.917,13.79-18.891,16.794c0.026,3.005,0.542,20.03,0.542,20.03L1371.844,1219.311z"/>
		</g>
		<path style="fill:#FFB27D;" d="M1445.098,1111.879c0,0-0.203-5.492-2.352-9.949s-2.098-16.497,0.216-16.012
			c2.314,0.486,1.659,4.864,4.143,4.149c2.484-0.714,5.376-14.94,8.765-13.949s6.164,5.467,5.989,15.654
			c-0.174,10.187-4.01,20.605-4.01,20.605L1445.098,1111.879z"/>
		<path style="fill:#FFB27D;" d="M1214.431,1118.341c0,0-1.828-5.905-1.205-11.437s-3.911-18.294-6.187-16.917
			c-2.276,1.376,0.048,5.78-2.855,5.946c-2.903,0.166-11.266-13.861-14.494-11.549c-3.228,2.313-4.51,8.097-0.534,18.847
			c3.975,10.75,11.923,20.383,11.923,20.383L1214.431,1118.341z"/>
	</g>
	<g>
		<g>
			<path style="fill:#FFB27D;" d="M1653.198,1184.854c0,0-17.984,1.222-25.317,5.762c-7.333,4.539-13.968,6.285-12.658,8.381
				c1.309,2.095,14.143-2.357,14.404,0c0.262,2.356-11.332,9.429-14.571,9.952c-3.238,0.523-10.571,1.571-9.262,5.762
				s13.726,5.5,23.624,5.762c9.899,0.262,33.994-15.714,33.994-15.714L1653.198,1184.854z"/>
			<path style="fill:#F9DDBF;" d="M1666.293,1207.378c18.208-0.009,78.278-40.146,98.467-56.357
				c2.189-1.757,3.886-3.236,4.992-4.365c7.526-7.668,33.484-45.51,51.908-79.211c10.605-19.411,18.716-37.446,19.358-47.551
				c2.295-36.078-16.683-86.529-16.683-86.529c-56.139,19.538-62.043,64.36-62.043,64.36l-28.771,107.074
				c-1.53,5.695-4.787,10.777-9.322,14.548l-76.065,63.237C1645.567,1193.414,1660.222,1207.381,1666.293,1207.378z"/>
			<path style="fill:#F2CCAA;" d="M1764.76,1151.021c2.189-1.757,3.886-3.236,4.992-4.365c7.526-7.668,33.484-45.51,51.908-79.211
				c2.385-20.367,0.748-39.472-7.646-52.828C1814.014,1014.616,1766.291,1098.589,1764.76,1151.021z"/>
			<path style="fill:#FFB27D;" d="M1797.102,1484.732l9.544,39.796l5.905,24.634l19.662,81.992c0,0,16.83,5.187,34.321,0
				c0,0,6.479-27.131,6.663-60.974c0.104-17.699-1.523-37.242-6.694-55.691c-2.099-7.509-4.796-14.826-8.195-21.777
				C1830.569,1436.056,1797.102,1484.732,1797.102,1484.732z"/>
			<path style="fill:#2B478B;" d="M1780.809,1655.109h92.397c0,0,1.461-13.98-2.609-27.354c-0.599-1.987-1.324-3.958-2.194-5.873
				c0,0-20.628,4.676-38.415,0c0,0-16.726,14.244-26.836,18.608C1793.049,1644.863,1781.877,1642.485,1780.809,1655.109z"/>
			<path style="fill:#E8945B;" d="M1806.646,1524.528l5.905,24.634c10.047,6.407,31.72,18.018,60.646,21.019
				c0.104-17.699-1.523-37.242-6.694-55.691c-8.499-4.31-17.149-6.567-24.515-5.282
				C1823.65,1512.406,1812.75,1519.109,1806.646,1524.528z"/>
			<path style="fill:#1F396D;" d="M1828.799,1655.109h44.407c0,0,1.461-13.98-2.609-27.354
				C1859.449,1631.227,1836.763,1639.932,1828.799,1655.109z"/>
			<path style="fill:#FFB27D;" d="M1870.757,1484.732l9.544,39.796l5.904,24.634l19.663,81.992c0,0,16.829,5.187,34.321,0
				c0,0,6.479-27.131,6.662-60.974c0.104-17.699-1.523-37.242-6.694-55.691c-2.099-7.509-4.796-14.826-8.195-21.777
				C1904.224,1436.056,1870.757,1484.732,1870.757,1484.732z"/>
			<path style="fill:#2B478B;" d="M1942.059,1621.879c0,0-20.627,4.682-38.417,0c0,0-16.726,14.248-26.834,18.615
				c-10.107,4.367-21.279,1.993-22.343,14.618h92.396C1946.861,1655.112,1948.789,1636.668,1942.059,1621.879z"/>
			<path style="fill:#E8945B;" d="M1880.301,1524.528l5.904,24.634c10.047,6.407,31.72,18.018,60.646,21.019
				c0.104-17.699-1.523-37.242-6.694-55.691c-8.499-4.31-17.149-6.567-24.514-5.282
				C1897.306,1512.406,1886.405,1519.109,1880.301,1524.528z"/>
			<path style="fill:#F99746;" d="M1783.781,1530.167c34.513,21.915,178.286,6.243,179.462-14.968c0,0-7.11-53.138-9.536-75.394
				c-1.006-9.248-1.469-16.646-0.886-20.508c14.954-98.95,27.506-215.503,25.982-237.782c-0.216-3.137-0.367-4.757-0.367-4.757
				s-10.789-0.909-27.203-1.548c-47.712-1.883-142.951-1.556-158.774,29.646c-16.12,31.783-16.517,216.43-16.517,216.43
				C1775.942,1472.072,1783.781,1530.167,1783.781,1530.167z"/>
			<path style="fill:#ED7D2B;" d="M1953.707,1439.806c-1.006-9.248-1.469-16.646-0.886-20.508
				c14.954-98.95,27.506-215.503,25.982-237.782c-0.216-3.137-0.367-4.757-0.367-4.757s-10.789-0.909-27.203-1.548
				c-24.682,14.539-40.745,39.309-40.745,39.309S1915.46,1399.691,1953.707,1439.806z"/>
			<path style="fill:#BBD2EF;" d="M1887.701,789.998c0-12.872-7.399-22.162-21.672-23.048c-10.467-0.65-24.941,5.698-24.941,18.57
				c0,12.872,10.435,27.785,23.307,27.785S1887.701,802.871,1887.701,789.998z"/>
			<path style="fill:#D5E5FB;" d="M1867.82,883.035c0,0,56.024-50.456,12.918-89.225c-4.177-3.756-9.262-6.356-14.75-7.553
				c-15.082-3.289-48.592-7.911-65.541,10.816c-18.252,20.167-25.468,35.507-10.251,53.894S1867.82,883.035,1867.82,883.035z"/>
			<path style="fill:#FFB27D;" d="M1940.976,1217.206c0,0-2.501,9.716-1.478,21.251c1.442,16.237,4.41,25.143,14.938,30.418
				c0,0,12.165,8.321,14.029-2.492c1.864-10.813-1.827-11.191,1.108-26.354c2.937-15.164,0.721-26.698-8.003-33.524
				L1940.976,1217.206z"/>
			<path style="fill:#FFB27D;" d="M1817.315,882.519c0,0,0.758,8.315,2.171,19.55c0.686,5.49,1.523,11.683,2.514,17.939
				c0.702,4.493,1.484,9.025,2.338,13.358l19.088,64.468l44.822-72.536c0,0-10.533-8.714-24.809-55.946
				c-0.136-0.503-0.232-0.774-0.232-0.774L1817.315,882.519z"/>
			<path style="fill:#F9DDBF;" d="M1791.197,1200.571c-0.582,7.245,1.253,8.562,1.253,8.562s27.563,9.991,96.875,6.536
				c7.501-0.375,14.563-0.759,21.163-1.149c44.671-2.633,68.563-5.387,68.563-5.387s36.588-84.45-32.15-188.499
				c-7.772-11.763-16.894-23.78-27.563-35.949c-11.132-12.696-13.59-29.685-17.803-45.828c-1.205-4.628,2.282-5.649,0.542-10.015
				c0,0-12.536-3.543-13.829-3.543c-7.118,6.272-16.51,18.465-39.819,20.875c-15.76,1.644-21.929-7.237-24.171-12.56
				c-6.009,2.17-12.232,5.921-17.332,8.371c-42.237,20.277-46.115,59.601-46.115,59.601s38.813,127.629,41.224,143.565
				C1803.111,1152.237,1794.206,1163.258,1791.197,1200.571z"/>
			<path style="fill:#E8945B;" d="M1819.486,902.069c0.686,5.49,1.523,11.683,2.514,17.939
				c48.96-19.055,42.731-45.732,41.439-50.656c-0.136-0.503-0.232-0.774-0.232-0.774S1838.095,886.405,1819.486,902.069z"/>
			<g>
				<path style="fill:#FFB27D;" d="M1809.313,908.448c0,0,54.819,1.759,55.39-32.397c0.569-34.156,8.029-56.932-26.948-59.5
					c-34.977-2.567-41.996,10.353-44.959,21.707C1789.831,849.612,1795.066,907.11,1809.313,908.448z"/>
			</g>
			<path style="fill:#D5E5FB;" d="M1804.524,811.435c0,0,3.44,65.081,70.271,58.963
				C1874.796,870.398,1873.374,783.368,1804.524,811.435z"/>
			<path style="fill:#D5E5FB;" d="M1817.315,817.104c0,0-19.81,12.088-25.964,31.469
				C1791.352,848.573,1769.261,817.785,1817.315,817.104z"/>
			<path style="fill:#F2CCAA;" d="M1910.488,1214.52c44.671-2.633,68.563-5.387,68.563-5.387s36.588-84.45-32.15-188.499
				C1932.983,1053.072,1900.162,1139.765,1910.488,1214.52z"/>
			<path style="fill:#F9DDBF;" d="M1888.248,925.299c0,0,53.035,10.882,76.661,38.241c18.104,20.964,37.909,123.462,37.909,140.399
				c0,16.183-18.604,102.23-30.217,118.728c-0.807,1.146-2.152,1.779-3.546,1.632l-29.867-3.167
				c-2.492-0.265-4.259-2.558-3.876-5.035l16.782-108.771l-58.903-104.472C1893.191,1002.854,1858.458,961.686,1888.248,925.299z"/>
			<path style="fill:#FFB27D;" d="M1940.766,1224.32c0,0-7.856,22.604-5.762,24.699c2.096,2.096,7.596-7.07,7.596-7.07
				L1940.766,1224.32z"/>
		</g>
		<path style="fill:#FFFFFF;" d="M1802.506,885.414c0,0,1.625,5.587,4.244,6.111c2.619,0.524,6.81,1.397,10.477,0
			c3.666-1.396,4.714-4.365,4.714-4.365S1813.626,884.017,1802.506,885.414z"/>
	</g>
	<g>
		<g>
			<path style="fill:#F4A671;" d="M810.318,1223.979l-14.455,2.675c0,0-39.556-60.982-40.692-79.575
				c-1.095-17.757-36.742-95.466,4.989-143.983c1.88-2.2,3.925-4.338,6.146-6.404c0.072-0.083,0.155-0.155,0.237-0.227
				c0,0,0.073,0.113,0.207,0.341c0.847,1.415,4.163,7.406,8.047,20.648c6.084,20.7,13.604,59.126,15.381,125.493
				C790.178,1142.947,799.886,1199.768,810.318,1223.979z"/>
			<path style="fill:#F4A671;" d="M810.318,1223.979c0,0,13.166,14.651,13.569,20.001c0.533,7.081-4.948,18.744-8.522,17.611
				c-3.579-1.136-4.014-6.874-5.047-11.263c-1.033-4.388-5.726-9.102-5.453-7.117c0.273,1.984,3.023,9.793,2.173,11.042
				c-0.85,1.248-1.883,1.018-3.912-2.723c-2.436-4.49-7.697-10.756-7.011-15.382c0.739-4.978,0.838-6.048-1.039-12.047
				c-1.878-5.999-5.023-13.199-5.023-13.199l11.165-2.382L810.318,1223.979z"/>
		</g>
		<g>
			<g>
				<path style="fill:#FFB27D;" d="M500.404,1633.575l-17.262,8.947c0,0-10.327-13.452-19.55-29.698
					c-6.454-11.378-12.383-24.135-13.835-34.586c-3.525-25.381-30.393-67.089-27.597-74.193c2.795-7.104,56.076-19.39,56.076-19.39
					s10.415,71.309,17.342,117.405C497.6,1615.513,499.318,1626.818,500.404,1633.575z"/>
				<path style="fill:#FFFFFF;" d="M500.404,1633.575l-17.262,8.947c0,0-10.327-13.452-19.55-29.698
					c7.184-0.544,19.665-2.698,31.986-10.764C497.6,1615.513,499.318,1626.818,500.404,1633.575z"/>
				<path style="fill:#FFB27D;" d="M461.18,1500.947c0,0-21.811,30.775-35.022,74.023c-3.107,10.193-13.701,22.879-24.411,34.149
					c-10.389,10.941-20.885,20.547-24.767,25.274l-17.582-8.457c0,0,6.178-17.726,15.321-33.812
					c3.392-5.982,7.185-11.733,11.235-16.265c5.6-6.268,3.757-85.419,9.33-90.636C400.866,1480.009,461.18,1500.947,461.18,1500.947
					z"/>
				<path style="fill:#FFB27D;" d="M411.694,1359.787l0.087,0.05C411.706,1359.874,411.694,1359.787,411.694,1359.787z"/>
				<path style="fill:#FFB27D;" d="M456.772,1386.986l-44.991-27.149c0.249-0.1,1.159-1.458,4.522-11.188
					c1.433-4.149,2.193-7.75,2.567-10.604c0.038-0.286,0.075-0.561,0.1-0.835c0.461-4.148,0.125-6.541,0.125-6.541l9.855,3.563
					l18.228,6.604c-0.212,4.622,0.436,7.874,1.42,10.104c2.379,5.42,6.815,5.457,6.94,5.457L456.772,1386.986z"/>
				<path style="fill:#ED985F;" d="M448.599,1350.94c-17.618,1.495-27.536-9.992-29.728-12.896c-0.324-0.424-0.486-0.66-0.486-0.66
					s0.212-0.063,0.585-0.175c1.433-0.424,5.32-1.595,9.98-2.978l18.228,6.604C446.967,1345.458,447.615,1348.71,448.599,1350.94z"
					/>
				<path style="fill:#FFB27D;" d="M449.481,1344.613c0,0-39.14,4.299-39.941-22.167c-0.801-26.465-6.588-38.576,20.494-40.935
					c27.081-2.357,33.478,7.396,35.074,16.351C470.092,1325.835,460.508,1343.426,449.481,1344.613z"/>
				<path style="fill:#D35C2B;" d="M376.481,1254.768c-0.546-1.223-0.935-2.02-0.935-2.02
					C375.954,1253.313,376.259,1253.998,376.481,1254.768z"/>
				<path style="fill:#FFB27D;" d="M462.064,1359.048c0,0,37.53-28.836,41.537-38.384c4.006-9.548,21.235-44.492,25.687-48.053
					c0,0,9.33-1.199,10.665,5.257c1.335,6.457-8.885,44.791-16.007,56.364c-7.122,11.573-41.248,50.809-52.454,56.504
					L462.064,1359.048z"/>
				<path style="fill:#FFB27D;" d="M553.271,1254.947c-0.619,3.342-1.98,6.931-3.589,8.787c-2.104,2.476-5.445,7.426-7.549,10.644
					c-1.361,1.98-2.228,3.466-2.228,3.466l-10.643-5.198c0,0-0.248-18.068,6.807-21.905c0.248-0.124,0.371-0.248,0.619-0.248
					c2.97-1.608,5.817-2.722,8.292-3.465c3.342-0.866,5.941-0.99,7.426-0.123C553.766,1247.646,554.014,1251.235,553.271,1254.947z"
					/>
				<path style="fill:#2B478B;" d="M432.137,1294.44c-13.85-3.507-8.554,21.031-12.053,19.352c-3.916-1.88-10.644-1.851-9.583,2.876
					c1.061,4.728,2.594,6.419,3.393,9.37c0.799,2.952-0.006,8.797-3.226,7.619c-3.22-1.179-33.172-35.379-12.024-62.02
					c21.148-26.642,84.211-10.229,64.353,17.637C459.505,1294.175,441.999,1296.937,432.137,1294.44z"/>
				<path style="fill:#F99746;" d="M498.043,1552.128c0,0-38.506,8.072-56.858,5.588c-24.715-3.347-46.624-3.912-69.755-16.392
					c0,0,12.291-61.058,13.048-64.021c1.086-4.273,8.947-37.079,16.211-67.437c6.642-27.758,12.784-53.468,12.784-53.468
					s18.33,13.024,29.013,8.431c10.683-4.603,9.312-9.793,9.312-9.793s6.988-2.821,10.265-1.78
					c3.276,1.033,12.579-4.237,12.579-4.237s10.273,7.94,10.665,24.989c0.063,2.52-0.089,5.252-0.534,8.181l-7.415,8.547
					C477.356,1390.735,494.099,1492.97,498.043,1552.128z"/>
				<path style="fill:#AA443E;" d="M528.99,1654.772h-51.54c0,0-0.983-8.387,0.201-15.553c0.142-0.873,0.596-1.656,1.273-2.351
					c3.018,1.023,7.451,1.745,12.383-0.026c4.042-1.451,7.033-3.659,9.116-5.671c0.534,0.517,11.182,10.665,16.104,10.665
					C521.574,1641.837,529.284,1644.268,528.99,1654.772z"/>
				<path style="fill:#FFFFFF;" d="M401.748,1609.12c-10.389,10.941-20.885,20.547-24.767,25.274l-17.582-8.457
					c0,0,6.178-17.726,15.321-33.812C377.862,1597.022,386.115,1607.091,401.748,1609.12z"/>
				<path style="fill:#AA443E;" d="M380.79,1629.849c0,0-0.643,11.189,3.087,12.674c3.73,1.483,10.683,5.151,10.683,12.252h-25.817
					c0,0-17.805-8.758-20.179-12.478c-2.374-3.721,11.862-19.602,11.862-19.602S369.173,1632.367,380.79,1629.849z"/>
				<path style="fill:#FFB27D;" d="M423.505,1447.996c0,0,11.304-2.11,15.726,0.783c4.422,2.893,5.729,7.424,2.545,9.274
					c-9.978,5.8-20.092-0.612-20.092-0.612L423.505,1447.996z"/>
				<path style="fill:#FFB27D;" d="M413.928,1359.938c0,0-34.818,7.371-48.55,61.499c-1.344,5.298,0.045,10.949,3.707,15.007
					c6.313,6.998,20.233,17.23,52.6,20.998c3.534,0.411,4.009-8.556,4.009-8.556c-0.352,0.715-21.988-13.979-31.197-21.876
					c-1.666-1.428-1.595-4.426-0.393-6.261c3.112-4.749,8.332-12.959,10.087-17.172
					C406.752,1397.432,423.659,1362.728,413.928,1359.938z"/>
				<path style="fill:#F99746;" d="M413.476,1356.397c0,0-20.471,1.456-37.163,23.712c0,0,5.648,20.473,32.165,25.938
					C408.478,1406.047,424.822,1369.186,413.476,1356.397z"/>
				<path style="fill:#2B478B;" d="M408.478,1263.508c0,0-19.692-5.361-32.933,9.016c-13.24,14.376,6.043,40.73-12.473,55.16
					c-18.515,14.431-11.195,25.201-3.674,28.714c16.915,7.901,42.758-1.934,37.5-15.27c-10.108-25.636,4.849-45.158,4.849-45.158
					L408.478,1263.508z"/>
			</g>
			<g>
				<path style="fill:#F99746;" d="M676.029,1488.792c0.018,0.171,0.036,0.333,0.054,0.495c0.036,0.297,0.072,0.566,0.081,0.8
					c2.041,19.332,6.268,38.916,11.312,57.115c13.155,47.476,32.1,83.658,32.1,83.658l15.708-1.457c0,0-8.587-36.533-9.333-86.148
					c-0.513-34.698,2.805-75.781,15.573-115.246c7.472-23.09,13.389-45.075,18.055-65.675
					c15.223-67.212,17.183-119.57,16.814-146.833c-0.18-13.451-0.926-20.798-0.926-20.798l-88.298,12.463l-4.118,0.584
					c0.594,40.679,0.863,95.923,0.98,139.119c0.027,10.412,0.045,20.132,0.063,28.772c0.018,11.986,0.027,21.913,0.027,28.773
					c0,6.645,0,10.412,0,10.412c-5.036,11.555-7.778,24.512-8.812,38.206C674.447,1464.569,674.797,1476.627,676.029,1488.792z"/>
				<path style="fill:#FFB27D;" d="M709.92,1614.159c-0.386-2.057-0.929-4.666-1.55-7.522
					c-6.366-14.967-14.346-35.799-20.888-59.433c22.24,1.857,33.197-1.136,38.472-3.952c0.287,19.259,1.756,36.544,3.448,50.489
					c2.32,8.693,6.586,22.577,11.471,28.395c7.775,9.26,16.342,17.224,26.679,22.461c1.157,0.583-25.875,10.091-39.696,8.641
					c-13.822-1.449-25.238-3.904-23.974-12.456c0.441-3.014,1.216-6.108,2.414-8.846
					C708.516,1626.905,711.069,1620.276,709.92,1614.159z"/>
				<path style="fill:#E07D32;" d="M676.029,1488.792c-1.403-16.185,26.229-72.076,26.229-72.076l-18.136-12.301
					c0,6.645,0,10.412,0,10.412c-5.036,11.555-7.778,24.512-8.812,38.206C674.447,1464.569,674.797,1476.627,676.029,1488.792z"/>
				<path style="fill:#1C468A;" d="M728.94,1655.663c13.879-0.729,9.996,2.527,29.271,4.013c19.274,1.486,26.327-4.471,27.434-7.168
					c0.987-2.394-8.175-5.038-17.962-8.086l-0.13,0.175c0,0-12.842,5.883-28.628,3.283c-12.867-2.114-25.738-8.354-34.61-9.886
					c-0.755,2.891-1.513,5.849-1.478,8.895C702.925,1655.533,715.061,1656.393,728.94,1655.663z"/>
				<path style="fill:#E07D32;" d="M683.052,1207.75c0.594,40.679,0.863,95.923,0.98,139.119
					c0.027,10.412,18.211,61.203,18.228,69.844c14.702-20.95,27.426-165.8,47.783-202.45c-0.18-13.451,25.425-19.56,25.425-19.56
					l-88.298,12.463L683.052,1207.75z"/>
				<path style="fill:#233862;" d="M669.096,828.344c-0.523-1.83-7.171-22.465-39.358-15.616c0,0,16.117-2.03,20.535,4.178
					c0,0-12.774-5.85-20.773-0.955c-7.999,4.895-9.313,21.371-8.119,26.385c1.194,5.014,10.029,19.938,15.879,19.938
					c2.216,0,4.584-0.737,6.674-1.652c-0.896,2.653-1.704,5.535-2.376,8.696c-6.212,29.235,13.228,51.456,23.281,45.964
					c6.447-3.522,11.327,7.76,11.327,7.76l53.5-70.917C729.665,852.125,692.383,807.328,669.096,828.344z"/>
				<path style="fill:#FFB27D;" d="M753.147,1172.996c-24.276-77.599,2.328-94.469-0.201-133.301s-32.593-80.584-32.593-80.584
					s-1.531-0.155-4.127-0.39c-2.018-1.063-2.555-9.506-2.531-18.415c0.024-10.689,0.845-22.037,0.845-22.037l-36.057-7.14
					l-2.145-0.422c0.09,25.097-6.518,41.574-11.305,45.409c-4.506,0.516-23.713,2.934-35.549,7.883
					c-4.463,1.862-7.867,4.086-9.057,6.694c-9.902,21.772-19.787,76.718-26.735,115.913c-3.872,21.846-6.825,38.802-8.368,42.396
					c-4.298,10.024-17.432,65.184-28.654,92.402l10.176,12.502c0,0,51.432-86.644,55.73-107.054
					c1.403-6.645,4.84-19.942,8.852-34.84c0.607-2.254,1.227-4.546,1.853-6.856c7.083,19.211,10.701,28.102,10.503,36.401
					c-0.279,11.812-8.288,22.428-25.028,59.971C609.509,1202.273,777.932,1252.251,753.147,1172.996z"/>
				<path style="fill:#E8945B;" d="M714.54,923.986c0,0-0.82,11.348-0.845,22.037c-20.177-0.569-30.842-18.975-35.212-29.177
					L714.54,923.986z"/>
				<path style="fill:#233862;" d="M674.759,912.921c0,0-10.573-16.707-13.111-30.993c-1.812-10.199,3.383-48.004,41.373-42.56
					c0,0,11.034,1.087,21.406,8.092c8.248,5.571,20.152,17.598,6.842,50.587l-3.458,11.144L674.759,912.921z"/>
				<path style="fill:#FFB27D;" d="M721.278,934.108c0,0-47.738,0.788-47.771-28.949c-0.033-29.736-6.216-49.661,24.262-51.421
					c30.478-1.76,36.413,9.58,38.837,19.503C739.032,883.164,733.695,933.137,721.278,934.108z"/>
				<path style="fill:#F99746;" d="M697.4,1429.336c-3.032,5.687-33.073,41.801-63.246,81.789c-2.585,3.417-5.267,7.106-8.01,10.98
					c-17.781,25.045-38.252,57.698-50.486,73.595c-11.121,14.451-21.111-3.646-15.502-16.554
					c8.85-20.366,16.352-55.973,24.923-82.175c1.972-6.064,4.014-11.62,6.134-16.37c9.228-20.638,24.789-49.523,46.654-71.905
					c3.794-3.882-29.293-90.288-26.928-161.754c0.929-28.323,4.873-53.229,13.899-68.407l89.816,4.452
					C714.655,1182.987,726.941,1373.872,697.4,1429.336z"/>
				<path style="fill:#233862;" d="M735.187,856.707c-7.367-8.929-12.937-6.988-16.064-4.306
					c-25.596-14.198-42.921,6.878-42.921,6.878c-3.193,21.336-18.58,33.559-18.58,33.559s8.701,5.375,28.76,0.216
					c6.121-1.574,11.589-5.918,16.236-11.192c-8.117,13.597-19.155,23.392-19.155,23.392c23.96-11.076,33.581-44.401,34.54-47.925
					c2.915,2.617,8.659,8.302,10.41,13.874c2.38,7.572,3.451,23.161,7.994,22.63C736.406,893.833,746.254,870.121,735.187,856.707z"
					/>
				<path style="fill:#FFB27D;" d="M557.85,1218.845c0,0-4.358,10.268-8.895,13.133c-4.537,2.865-7.371,8.844-6.177,14.335
					c1.194,5.492-1.225,15.034,4.505,15.034s19.102-25.311,20.773-30.086c1.671-4.775,3.104-5.73,3.104-5.73L557.85,1218.845z"/>
				<path style="fill:#FFFFFF;" d="M607.5,1213.92c-0.156,3.091,0.008,5.563,0.558,7.33c1.911,6.142,8.474,8.939,24.339,7.264
					c9.697-1.03,14.02-17.627,15.948-31.785c5.824,20.258,13.978,31.626,24.519,34.014c15.381,3.494,98.491,9.369,103.569-28.298
					c5.586-41.429-16.663-111.027-17.581-150.579c2.28-14.025,3.06-26.198,2.814-36.653c-0.648-28.176-8.745-43.968-14.971-50.327
					c-1.763-1.382-3.527-2.246-10.607-3.485c-3.618-0.628-8.629-1.356-15.733-2.312c0,0-3.055-0.401-2.99-0.292
					c1.313,2.396,15.435,23.63,14.065,30.617c-1.435,7.314-55.731,6.259-60.029,2.238c-4.298-4.022-15.516-34.357-15.516-34.357
					s-22.067,2.463-32.862,10.48c0,0,0.041,0.05,0.115,0.143c-1.304,0.955-2.28,1.969-2.838,3.05
					c-11.518,22.394-23.019,78.911-31.107,119.227c19.606,11.033,36.734,7.749,42.05,6.292
					C624.293,1142.916,608.534,1192.766,607.5,1213.92z"/>
				<path style="fill:#FFFFFF;" d="M707.561,916.551c0,0,0.908,3.661,10.034,2.986c0,0,7.662-0.564,7.379-4.596
					C724.975,914.941,717.506,912.159,707.561,916.551z"/>
				<path style="fill:#FFB27D;" d="M626.144,1522.105c-17.781,25.045-38.252,57.698-50.486,73.595
					c-11.121,14.451-21.111-3.646-15.502-16.554c8.85-20.366,16.352-55.973,24.923-82.175
					C590.837,1505.727,602.597,1517.031,626.144,1522.105z"/>
				<path style="fill:#FFB27D;" d="M565.952,1229.063c0,0,2.622,11.363,0.716,14.934c-1.906,3.569-0.625,8.214-4.457,6.904
					C558.379,1249.593,565.952,1229.063,565.952,1229.063z"/>
				<path style="fill:#FFB27D;" d="M538.226,1585.171c-7.243,4.721-1.446,15.417,6.627,26.729
					c8.073,11.313,3.24,9.788,12.345,26.842c9.104,17.054,17.917,19.801,20.787,19.285c2.549-0.454-0.144-9.602-2.833-19.494
					c-0.342-1.242-0.672-2.495-1.002-3.749c-2.926-11.212,0.839-21.783,2.623-33.742c1.689-11.327,18.047-33.761,18.047-33.761
					l-11.715-23.695c0,0-14.373,20.633-20.868,28.987c-3.82,4.914-10.477,7.395-15.715,9.064
					C543.677,1582.555,540.775,1583.505,538.226,1585.171z"/>
				<path style="fill:#1C468A;" d="M544.852,1611.9c8.073,11.313,3.24,9.788,12.345,26.842
					c9.104,17.054,17.917,19.801,20.787,19.285c2.549-0.454-0.144-9.602-2.833-19.494l-0.217-0.016c0,0-11.862-7.669-18.152-22.379
					c-5.131-11.987-6.786-26.195-10.261-34.501c-2.844,0.917-5.746,1.867-8.295,3.533
					C530.983,1589.892,536.779,1600.588,544.852,1611.9z"/>
			</g>
		</g>
		<path style="fill:#FFFFFF;" d="M740.443,962.264c0,0,14.382-0.066,24.429,19.266c10.047,19.332,25.18,82.181,25.18,82.181
			s-17.648,19.684-38.329,15.188C731.042,1074.403,740.443,962.264,740.443,962.264z"/>
	</g>
	<g>
		<g>
			<path style="fill:#233862;" d="M2068.371,1653.894l-1.502-442.801c0,0-3.381-31.911-31.2-32.076
				c-29.686-0.177-31.579,31.703-31.579,31.703s0.411,2.759,3.456,2.776c3.191,0.02,3.733-2.734,3.733-2.734
				s1.46-24.577,24.347-24.441c21.447,0.128,24.054,24.729,24.054,24.729l-2.631,442.776L2068.371,1653.894z"/>
			<path style="fill:#233862;" d="M2053.232,1653.804l18.463,0.11l-1.53-19.316c0,0,0.174-2.681-3.556-2.855
				c-3.466-0.161-10.308-0.696-10.971,1.396C2055.056,1634.977,2053.232,1653.804,2053.232,1653.804z"/>
		</g>
		<path style="fill:#FFB27D;" d="M2035.581,1155.551l-1.299,6.325c0,0-31.305-0.305-38.823,33.198c0,0-2.069,13.948,8.014,11.027
			c10.083-2.92,8.559-10.052,22.833-13.87s23.578-6.752,25.801-17.113l2.398-11.53L2035.581,1155.551z"/>
		<path style="fill:#F99746;" d="M2147.908,881.675c0,0-8.475,32.531-15.795,62.276c-2.947,11.982-5.703,23.506-7.652,32.272
			c-1.988,9.007-3.124,15.106-2.706,15.785c6.15,10.116-5.56,71.514-14.665,93.78c-0.803,1.975-1.907,4.287-3.232,6.854
			c-12.695,24.526-46.391,72.611-46.391,72.611s-9.431,0.93-15.582-1.433c-5.13-1.98-8.608-8.287-8.608-8.287
			c3.018-4.792,15.444-61.525,31.187-93.283c6.735-13.585,17.288-139.941,30.276-156.885
			C2105.573,891.232,2147.908,881.675,2147.908,881.675z"/>
		<path style="fill:#ED7D2B;" d="M2121.755,992.009c6.15,10.116-5.56,71.514-14.665,93.78c-0.803,1.975-1.907,4.287-3.232,6.854
			c-11.677-53.119,8.644-128.151,8.644-128.151c4.948,1.995,8.884,6.105,11.96,11.732
			C2122.473,985.231,2121.337,991.329,2121.755,992.009z"/>
		<path style="fill:#0F2949;" d="M2205,1605.932c0,0,2.904,48.03-6.166,48.648c-1.207,0.082-45.986-0.184-45.986-0.184
			l-57.761-0.346c0,0,1.057-14.098,17.782-16.91c16.727-2.813,44.764-14.389,55.017-36.413
			C2178.672,1577.559,2205,1605.932,2205,1605.932z"/>
		<path style="fill:#163560;" d="M2291.875,1606.448c0,0,2.904,48.03-6.166,48.647c-1.207,0.083-45.986-0.184-45.986-0.184
			l-57.761-0.346c0,0,1.057-14.097,17.783-16.909c16.726-2.813,44.763-14.39,55.016-36.413
			C2265.548,1578.074,2291.875,1606.448,2291.875,1606.448z"/>
		<path style="fill:#2B478B;" d="M2208.423,1490.226c1.302,20.312,4.042,46.435,2.871,69.96
			c-1.641,32.896-2.847,60.639-2.847,60.639c-21.739,7.248-61.49-1.938-61.49-1.938s-13.626-83.238-24.861-149.688
			c-5.04-29.773-9.216-55.529-10.762-67.688c-4.999-39.304,7.045-248.045,7.045-248.045s58.925-37.275,83.064-17.732
			c24.131,19.536,38.946,38.58-1.393,250.819C2196.988,1402.652,2205.509,1444.731,2208.423,1490.226z"/>
		<path style="fill:#233862;" d="M2208.423,1490.226c1.302,20.312,3.727,52.817,2.556,76.344
			c-20.28-21.719-60.228-67.524-88.883-97.37c-5.04-29.773-9.216-55.529-10.762-67.688c-4.999-39.304,7.045-248.045,7.045-248.045
			s58.925-37.275,83.064-17.732c24.131,19.536,38.946,38.58-1.393,250.819C2196.988,1402.652,2205.509,1444.731,2208.423,1490.226z"
			/>
		<path style="fill:#2B478B;" d="M2171.402,1158.027c0,0,4.03,209.053,12.036,247.855c8.007,38.802,49.944,216.466,49.944,216.466
			s40.277,3.91,61.394-4.986c0,0-0.854-82.171-7.712-130.486c-6.408-45.136-18.135-86.439-16.321-102.727
			c23.913-214.708,7.677-232.556-17.89-250.185C2227.287,1116.335,2171.402,1158.027,2171.402,1158.027z"/>
		<path style="fill:#FFB27D;" d="M2250.959,1176.8c0,0-14.13,27.937,12.584,49.508c0,0,11.591,8.03,13.436-2.304
			s-0.234-6.743,2.661-21.232c2.895-14.49-0.609-29.513-8.916-36.093L2250.959,1176.8z"/>
		<path style="fill:#FFB27D;" d="M2135.289,834.236c0,0,15.77,25.588,12.419,48.43l23.71,56.606l42.29-65.023
			c0,0-21.453-25.377-29.738-59.155L2135.289,834.236z"/>
		<path style="fill:#FFB27D;" d="M2128.098,855.096c0,0,58.674,2.89,59.95-32.336c1.276-35.226,17.276-58.569-26.603-61.927
			c-36.083-2.76-48.173,12.221-51.459,23.875C2106.701,796.362,2106.356,853.078,2128.098,855.096z"/>
		<path style="fill:#F99746;" d="M2269.918,1168.685c-12.616,1.1-29.983,2.449-51.055,3.648c-4.209,0.238-8.562,0.477-13.058,0.698
			c-63.615,3.183-88.833-7.266-88.833-7.266s-1.678-1.373-1.099-8.837c2.991-38.443,11.226-49.754,10.283-57.069
			c-2.115-16.438-41.171-150.723-41.171-150.723s-0.516-42.348,46.695-61.942c4.868-2.026,10.231-3.801,16.157-5.264
			c2.03,5.493,7.629,14.68,22.1,13.08c21.394-2.365,36.689-14.875,43.255-21.303c1.182,0.007,1.648,0.047,1.648,0.047
			c1.569,4.511,2.783,9.216,3.861,13.995c3.763,16.667,5.917,34.19,16.055,47.341c10.003,12.985,18.554,25.781,25.842,38.29
			c6.066,10.41,11.26,20.627,15.695,30.575C2317.436,1096.344,2284.764,1167.38,2269.918,1168.685z"/>
		<path style="fill:#ED7D2B;" d="M2269.918,1168.685c-12.616,1.1-29.983,2.449-51.055,3.648
			c-5.527-103.551,37.242-202.72,37.242-202.72c1.582,1.124,3.08,2.382,4.494,3.768c7.305,7.18,12.361,17.802,15.695,30.575
			C2288.58,1050.967,2277.61,1127.16,2269.918,1168.685z"/>
		<path style="fill:#D5E5FB;" d="M2109.378,821.378c0,0-11.694,45.259,7.657,51.758c19.351,6.499,70.854,1.69,71.163-53.881
			c0,0-27.107,15.949-40.009,15.465c-12.9-0.484-21.184-7.979-33.143-2.233C2115.047,832.487,2110.686,832.171,2109.378,821.378z"/>
		<path style="fill:#F99746;" d="M2214.837,873.749c0,0,41.019,1.167,62.526,29.498c16.48,21.709,33.349,137.77,33.244,155.229
			c-0.104,17.46-19.374,113.704-29.906,124.111c0,0-6.786,1.706-15.817-0.094c-9.587-1.911-15.207-7.496-15.207-7.496
			s5.848-107.246,5.907-117.309c0.087-14.568-44.93-104.013-44.93-104.013S2187.285,911.096,2214.837,873.749z"/>
		<path style="fill:#D5E5FB;" d="M2185.59,771.934c-0.965-3.603-5.385-5.519-5.385-5.519c-32.97-14.593-57.212,1.016-57.212,1.016
			c20.421-27.075,69.282-21.075,79.436,3.516c16.578,40.15-14.23,48.308-14.23,48.308s-30.638-13.089-12.755-29.164
			c5.925-5.326,8.803-10.076,9.772-14.217l0,0l0,0C2185.539,774.493,2185.651,773.179,2185.59,771.934z"/>
		<path style="fill:#FFFFFF;" d="M2118.971,839.781c0,0,3.871,6.112,10.632,5.893s9.939-5.893,9.939-5.893
			S2128.134,837.599,2118.971,839.781z"/>
	</g>
	<path style="fill:#2E3552;" d="M3084.703,1662.152H125.252c-1.79,0-3.254-1.465-3.254-3.255v-0.869c0-1.79,1.464-3.254,3.254-3.254
		h2959.451c1.79,0,3.255,1.464,3.255,3.254v0.869C3087.958,1660.688,3086.493,1662.152,3084.703,1662.152z"/>
</g>
</svg>
