<?xml version="1.0" encoding="utf-8"?>
<!-- Generator: Adobe Illustrator 27.5.0, SVG Export Plug-In . SVG Version: 6.00 Build 0)  -->
<svg version="1.1" xmlns="http://www.w3.org/2000/svg" xmlns:xlink="http://www.w3.org/1999/xlink" x="0px" y="0px"
	 viewBox="0 0 499.999 500" style="enable-background:new 0 0 499.999 500;" xml:space="preserve">
<g id="BACKGROUND">
	
		<radialGradient id="XMLID_00000114790790010490752570000000792802664080748941_" cx="210" cy="192" r="677.6285" gradientUnits="userSpaceOnUse">
		<stop  offset="0" style="stop-color:#BCBEC0"/>
		<stop  offset="1" style="stop-color:#000000"/>
	</radialGradient>
	
		<rect id="XMLID_178_" style="opacity:0.8;fill:url(#XMLID_00000114790790010490752570000000792802664080748941_);" width="500" height="500"/>
	<g id="XMLID_2_">
	</g>
	<rect id="XMLID_83_" style="fill:#FFFFFF;" width="500" height="500"/>
	<rect id="XMLID_642_" style="fill:#FFFFFF;" width="500" height="500"/>
</g>
<g id="OBJECTS">
	<g id="XMLID_1342_">
	</g>
	<g id="XMLID_312_">
		<g id="XMLID_188_">
			<g id="XMLID_93_">
				<g id="XMLID_302_">
					<path id="XMLID_400_" style="fill:#FAAF3E;" d="M202.216,114.998c0,0-4.125,43.106-4.125,67.208s-8.708,95.945-8.708,95.945
						s57.822,7.879,75.551,7.879c12.862,0,46.814-7.879,46.814-7.879s-5.054-166.919-21.553-184.068
						c-7.307-7.595-37.214-15.198-55.157-9.907C212.467,90.83,202.216,114.998,202.216,114.998z"/>
				</g>
			</g>
			<g id="XMLID_308_">
				<path id="XMLID_315_" style="fill:#FFC476;" d="M202.551,264.393c-0.971,0-1.883-0.19-2.646-0.666
					c-1.631-1.02-2.297-3.149-1.979-6.327c1.196-11.958,4.806-124.389,4.842-125.524l0.868,0.028
					c-0.037,1.135-3.648,113.595-4.846,125.581c-0.282,2.822,0.248,4.674,1.575,5.504c2.928,1.832,8.921-1.488,10.082-2.165
					l4.551-119.276l9.221,0.845l2.017,114.608l24.516-0.389l-13.32-105.753l23.118-1.261l2.018,101.75l19.661-0.386l-14.085-93.766
					l12.095-14.687l10.957,116.059l8.442-1.101c-0.37-7.399-5.706-112.812-10.486-125.12l0.81-0.314
					c4.98,12.822,10.338,121.185,10.564,125.791l0.019,0.4l-10.129,1.321l-0.042-0.448l-10.802-114.413l-10.512,12.765
					l14.176,94.361l-21.518,0.422l-0.009-0.433L259.7,150.515l-21.29,1.162l13.325,105.789l-26.352,0.418l-0.008-0.433
					l-2.011-114.264l-7.533-0.69l-4.534,118.827l-0.197,0.122C210.859,261.596,206.276,264.393,202.551,264.393z"/>
			</g>
			<g id="XMLID_104_">
				<g id="XMLID_117_">
					<g id="XMLID_301_">
						<path id="XMLID_399_" style="fill:#F9AEB2;" d="M262.326,180.065L250,184.681l-12.327-4.354l-18.687,3.016
							c0,0,2.492,39.209,7.212,54.42h22.948h1.705h22.949c4.721-15.212,7.212-54.42,7.212-54.42L262.326,180.065z"/>
					</g>
				</g>
				<g id="XMLID_169_">
					<g id="XMLID_232_">
						<path id="XMLID_731_" style="fill:#FFFFFF;" d="M251.492,198.918c-2.052,0-3.778-0.797-4.97-2.277
							c-0.969,0.952-2.721,1.783-5.788,1.016c-2.884-0.721-4.588-2.51-4.796-5.036c-0.028-0.338-0.028-0.677-0.006-1.013
							c-0.365,0.128-0.746,0.219-1.135,0.259c-1.157,0.119-2.81-0.165-4.133-2.216c-0.846-1.309-1.063-2.633-0.647-3.935
							c1.024-3.203,5.595-5.052,5.789-5.129c0.317-0.126,0.677,0.028,0.804,0.347c0.126,0.317-0.028,0.678-0.346,0.804
							c-0.042,0.017-4.223,1.712-5.067,4.358c-0.302,0.945-0.135,1.888,0.508,2.884c1.006,1.558,2.329,2.034,3.934,1.414
							c0.186-0.072,0.364-0.154,0.534-0.242c0.455-1.752,1.43-3.188,2.198-3.522c0.417-0.18,0.833-0.104,1.116,0.206
							c0.185,0.204,0.45,0.665,0.144,1.468c-0.306,0.803-1.188,1.879-2.366,2.644c-0.086,0.458-0.128,0.939-0.101,1.426
							c0.113,2.095,1.416,3.468,3.872,4.082c2.19,0.549,3.82,0.244,4.79-0.875c-1.099-2.051-1.162-4.491-0.51-5.543
							c0.356-0.573,0.823-0.629,1.079-0.617c0.304,0.019,0.874,0.192,1.273,1.134c0.489,1.154,0.625,3.331-0.363,5.065
							c0.778,1.09,2.141,2.135,4.399,2.056c2.032-0.062,3.19-1.008,3.443-2.813c0.105-0.748,0.041-1.503-0.108-2.18
							c-1.246-0.905-2.218-1.983-2.188-2.785c0.013-0.385,0.24-0.702,0.602-0.847c0.261-0.106,0.793-0.19,1.398,0.412
							c0.491,0.488,0.97,1.397,1.27,2.465c0.591,0.398,1.287,0.78,2.049,1.072c1.352,0.519,3.268,0.879,4.712-0.338
							c0.805-0.678,1.069-1.667,0.785-2.941c-0.16-0.714-0.472-1.433-0.846-2.09c-1.559-0.627-2.839-1.533-3.13-2.588
							c-0.255-0.929,0.147-1.26,0.41-1.376c1.329-0.585,3.53,2.898,3.552,2.933c0.005,0.007,0.01,0.015,0.014,0.023
							c0.739,0.267,1.56,0.478,2.379,0.593c1.692,0.238,3.015,0.018,3.372-0.563c0.282-0.461,0.017-1.313-0.745-2.4
							c-2.022-2.882-6.585-2.91-6.678-2.91c0,0,0,0-0.001,0c0,0-0.001,0-0.003,0c-0.341,0-0.618-0.275-0.619-0.616
							c-0.001-0.342,0.275-0.62,0.617-0.622c0.227-0.001,5.302,0.022,7.698,3.437c1.095,1.559,1.359,2.824,0.787,3.757
							c-0.879,1.435-3.26,1.332-4.6,1.142c-0.462-0.065-0.939-0.16-1.41-0.279c0.93,2.253,0.669,4.223-0.782,5.445
							c-1.696,1.429-4.122,1.489-6.833,0.165c-0.145-0.071-0.29-0.146-0.435-0.225c0.07,0.912-0.018,1.847-0.346,2.677
							c-0.466,1.18-1.595,2.604-4.323,2.689C251.656,198.916,251.574,198.918,251.492,198.918z M246.346,190.71
							c-0.244,0.398-0.392,1.867,0.211,3.491c0.002,0.006,0.004,0.011,0.006,0.017C247.073,192.63,246.665,191.072,246.346,190.71z"
							/>
					</g>
				</g>
			</g>
			<g id="XMLID_187_">
				<g id="XMLID_194_">
					<g id="XMLID_256_">
						<path id="XMLID_398_" style="fill:#F2C5B1;" d="M158.857,242.196c0,0,1.158,5.251,0.948,5.684
							c-0.21,0.432-0.994,0.61-1.733-1.028c-0.738-1.639-1.151-4.667-1.151-4.667L158.857,242.196z"/>
					</g>
				</g>
				<g id="XMLID_191_">
					<g id="XMLID_254_">
						<path id="XMLID_397_" style="fill:#F9D3C0;" d="M157.075,243.052c0,0,1.902,5.03,1.756,5.488
							c-0.145,0.458-0.896,0.747-1.863-0.768c-0.967-1.515-1.81-4.452-1.81-4.452L157.075,243.052z"/>
					</g>
				</g>
				<g id="XMLID_189_">
					<g id="XMLID_248_">
						<path id="XMLID_396_" style="fill:#FDDECC;" d="M182.611,230.025l-18.176,8.658l-7.048-1.256
							c-0.848-0.28-1.775,0.07-2.219,0.845c-0.95,1.654-2.446,4.299-2.455,4.567c-0.014,0.393,3.637,6.647,4.647,6.032
							c0.88-0.536-1.215-5.208-1.215-5.208s4.172,1.718,5.701,1.623c1.529-0.095,23.778-8.924,23.778-8.924L182.611,230.025z"/>
					</g>
				</g>
				<g id="XMLID_190_">
					<g id="XMLID_242_">
						<path id="XMLID_395_" style="fill:#FDDECC;" d="M159.412,244.695c0,0-1.298,3.247-0.801,3.621
							c0.497,0.374,1.659,0.485,3.379-3.243L159.412,244.695z"/>
					</g>
				</g>
				<g id="XMLID_113_">
					<g id="XMLID_241_">
						<path id="XMLID_394_" style="fill:#F9AEB2;" d="M219.225,183.409l-21.637,37.57l-23.604,11.015l4.098,8.835
							c0,0,28.423-9.36,31.57-10.933c3.147-1.574,17.31-24.391,17.31-24.391L219.225,183.409z"/>
					</g>
				</g>
			</g>
			<g id="XMLID_172_">
				<g id="XMLID_246_">
					<g id="XMLID_240_">
						<path id="XMLID_393_" style="fill:#EAC1B0;" d="M339.842,195.68c0,0,6.437,1.928,6.337,2.442
							c-0.101,0.515-1.373,0.7-2.261,0.46c-0.888-0.241-5.374-1.218-5.374-1.218L339.842,195.68z"/>
					</g>
				</g>
				<g id="XMLID_222_">
					<g id="XMLID_239_">
						<path id="XMLID_392_" style="fill:#F4CFBD;" d="M341.94,195.319c0,0,6.437,1.928,6.337,2.443
							c-0.101,0.515-1.373,0.7-2.261,0.459c-0.888-0.241-5.374-1.218-5.374-1.218L341.94,195.319z"/>
					</g>
				</g>
				<g id="XMLID_168_">
					<g id="XMLID_122_">
						<g id="XMLID_271_">
							<g id="XMLID_238_">
								
									<rect id="XMLID_391_" x="332.709" y="195.67" transform="matrix(0.9697 -0.2444 0.2444 0.9697 -37.1917 93.1461)" style="fill:#4A4138;" width="48.151" height="1.572"/>
							</g>
						</g>
					</g>
					<g id="XMLID_167_">
						<g id="XMLID_116_">
							<g id="XMLID_237_">
								<polygon id="XMLID_390_" style="fill:#FFD03C;" points="379.963,180.224 382.907,186.558 389.84,185.715 384.726,190.472 
									387.67,196.806 381.566,193.413 376.452,198.17 377.793,191.315 371.688,187.921 378.622,187.079 								"/>
							</g>
						</g>
					</g>
				</g>
				<g id="XMLID_270_">
					<g id="XMLID_221_">
						<path id="XMLID_389_" style="fill:#FDDECC;" d="M345.639,195.333c-0.943-0.405-2.911-1.118-4.279-1.31
							c-0.885-0.124-1.73,0.393-2.028,1.235L336,201.594l-17.986,9.045l3.156,6.266c0,0,20.62-12.157,21.633-13.306
							c0.309-0.351,0.667-1.04,1.015-1.828c-0.107-0.198-0.179-0.412-0.146-0.659c0.185-1.396,0.303-2.831,0.806-4.158
							c0.012-0.031,0.027-0.049,0.039-0.078c1.296,0.288,2.795,0.627,3.27,0.755c0.888,0.241,2.16,0.055,2.261-0.46
							C350.112,196.843,347.527,195.944,345.639,195.333z"/>
					</g>
				</g>
				<g id="XMLID_196_">
					<g id="XMLID_220_">
						<path id="XMLID_388_" style="fill:#FDDECC;" d="M341.685,201.049c0,0,4.822-2.893,5.902-2.199
							c1.08,0.694-5.285,5.131-5.285,5.131l-0.926-2.777"/>
					</g>
				</g>
				<g id="XMLID_165_">
					<g id="XMLID_219_">
						<path id="XMLID_387_" style="fill:#F9AEB2;" d="M280.793,183.306l23.669,30.461l23.998-10.36l3.016,8.786
							c0,0-26.35,16.179-29.767,15.343c-3.418-0.837-23.562-20.968-23.562-20.968L280.793,183.306z"/>
					</g>
				</g>
			</g>
			<g id="XMLID_119_">
				<g id="XMLID_5_">
					<path id="XMLID_386_" style="fill:#FAAF3E;" d="M250.238,181.079"/>
				</g>
			</g>
			<g id="XMLID_307_">
				<g id="XMLID_309_">
					<path id="XMLID_385_" style="fill:#FDDECC;" d="M256.011,180.182v-16.326c0-2.527-2.049-4.576-4.576-4.576h-2.739
						c-2.527,0-4.576,2.049-4.576,4.576v16.471h-6.381c0,0,1.442,8.196,11.343,9.179c9.9,0.983,13.31-9.442,13.31-9.442
						L256.011,180.182z"/>
				</g>
				<g id="XMLID_300_">
					<defs>
						<path id="XMLID_383_" d="M256.011,180.182v-16.326c0-2.527-2.049-4.576-4.576-4.576h-2.739c-2.527,0-4.576,2.049-4.576,4.576
							v16.471h-6.381c0,0,1.442,8.196,11.343,9.179c9.9,0.983,13.31-9.442,13.31-9.442L256.011,180.182z"/>
					</defs>
					<clipPath id="XMLID_00000089566640155023689760000016386919899863610786_">
						<use xlink:href="#XMLID_383_"  style="overflow:visible;"/>
					</clipPath>
					<g id="XMLID_112_" style="opacity:0.4;clip-path:url(#XMLID_00000089566640155023689760000016386919899863610786_);">
						<g id="XMLID_264_">
							<path id="XMLID_384_" style="fill:#FDDECC;" d="M265.238,94.591l-13.354-0.138l0.001-0.036l-1.753,0.018l-1.753-0.018
								l0.001,0.036l-13.354,0.138c-28.505,4.693-33.372,48.668-20.51,65.18c12.696,16.299,34.956,19.386,35.601,19.463
								c0,0,0.013,0.002,0.015,0.002c0.002,0,0.015-0.002,0.015-0.002c0.645-0.077,22.905-3.164,35.601-19.463
								C298.61,143.258,293.743,99.284,265.238,94.591z"/>
						</g>
					</g>
				</g>
			</g>
			<g id="XMLID_14_">
				<g id="XMLID_106_">
					<g id="XMLID_224_">
						<g id="XMLID_305_">
							<path id="XMLID_382_" style="fill:#FFFFFF;" d="M263.759,71.976"/>
						</g>
					</g>
					<g id="XMLID_225_">
						<g id="XMLID_226_">
							<g id="XMLID_304_">
								<path id="XMLID_381_" style="fill:#FFFFFF;" d="M263.759,72.44c0.598,0,0.599-0.929,0-0.929
									C263.161,71.512,263.16,72.44,263.759,72.44L263.759,72.44z"/>
							</g>
						</g>
					</g>
				</g>
				<g id="XMLID_67_">
					<g id="XMLID_284_">
						<path id="XMLID_380_" style="fill:#FAAF3E;" d="M250.914,79.829c0,0,1.506,17.092-18.193,30.533
							c-16.715,11.406-24.102,12.051-24.102,12.051l-6.829-2.151c0,0,0.572-19.402,11.464-28.904
							C224.147,81.857,250.914,79.829,250.914,79.829z"/>
					</g>
				</g>
				<g id="XMLID_311_">
					<g id="XMLID_7_">
						<g id="XMLID_66_">
							<g id="XMLID_299_">
								<path id="XMLID_379_" style="fill:#FDDECC;" d="M210.457,135.543c0,0-12.796,3.799-14.395-7.398
									c-1.599-11.196,13.795-9.397,14.995-1.799C212.257,133.943,210.457,135.543,210.457,135.543z"/>
							</g>
						</g>
						<g id="XMLID_70_">
							<g id="XMLID_234_">
								<path id="XMLID_378_" style="fill:#FDDECC;" d="M209.81,132.451c-0.628-2.93-1.902-5.001-3.786-6.156
									c-2.718-1.665-5.846-0.859-5.877-0.85l-0.323-1.195c0.148-0.041,3.654-0.958,6.832,0.981c2.193,1.336,3.66,3.678,4.363,6.96
									L209.81,132.451z"/>
							</g>
						</g>
					</g>
					<g id="XMLID_82_">
						<g id="XMLID_89_">
							<g id="XMLID_298_">
								<path id="XMLID_377_" style="fill:#FDDECC;" d="M290.122,135.543c0,0,12.796,3.799,14.395-7.398
									c1.599-11.196-13.795-9.397-14.995-1.799C288.322,133.943,290.122,135.543,290.122,135.543z"/>
							</g>
						</g>
						<g id="XMLID_86_">
							<g id="XMLID_233_">
								<path id="XMLID_376_" style="fill:#FDDECC;" d="M290.769,132.451l-1.212-0.26c0.704-3.282,2.172-5.624,4.365-6.961
									c3.177-1.936,6.686-1.021,6.832-0.981l-0.323,1.195c-0.031-0.007-3.16-0.813-5.875,0.85
									C292.671,127.449,291.397,129.521,290.769,132.451z"/>
							</g>
						</g>
					</g>
					<g id="XMLID_68_">
						<g id="XMLID_228_">
							<path id="XMLID_375_" style="fill:#FDDECC;" d="M265.172,91.765l-13.354-0.138l0.001-0.036l-1.753,0.018l-1.753-0.018
								l0.001,0.036l-13.354,0.138c-28.505,4.693-33.372,48.668-20.51,65.18c12.696,16.299,34.956,19.386,35.601,19.463
								c0,0,0.013,0.002,0.015,0.002c0.002,0,0.015-0.002,0.015-0.002c0.645-0.077,22.905-3.164,35.601-19.463
								C298.544,140.432,293.678,96.458,265.172,91.765z"/>
						</g>
					</g>
					<g id="XMLID_131_">
						<g id="XMLID_124_">
							<g id="XMLID_297_">
								<path id="XMLID_374_" style="fill:#FDDECC;" d="M244.01,140.921c0,0-0.067,0.384-0.184,1.056
									c-0.058,0.334-0.116,0.742-0.17,1.206c-0.053,0.457-0.103,0.999-0.042,1.504c0.014,0.122,0.046,0.24,0.082,0.304
									c0.002,0.008,0.032,0.041,0.009,0.012l0.076,0.087c0.052,0.064,0.102,0.11,0.148,0.148c0.181,0.17,0.449,0.373,0.692,0.563
									c0.506,0.387,1.088,0.737,1.689,1.078c0.602,0.34,1.257,0.618,1.917,0.841c0.656,0.221,1.362,0.325,1.97,0.277
									c0.424-0.033,0.684-0.083,1.03-0.172c0.34-0.085,0.678-0.2,1.008-0.332c0.668-0.25,1.315-0.566,1.914-0.919
									c0.602-0.344,1.173-0.716,1.648-1.115c0.24-0.186,0.472-0.411,0.581-0.563c0.11-0.18,0.123-0.429,0.151-0.708
									c0.071-1.117-0.003-2.103-0.028-2.777c-0.035-0.682-0.054-1.071-0.054-1.071s0.108,0.376,0.298,1.034
									c0.166,0.668,0.41,1.604,0.52,2.817c0.006,0.295,0.041,0.679-0.117,1.071c-0.188,0.401-0.41,0.656-0.652,0.926
									c-0.493,0.519-1.051,0.996-1.672,1.438c-0.627,0.431-1.308,0.833-2.051,1.167c-0.374,0.16-0.763,0.304-1.171,0.417
									c-0.398,0.119-0.904,0.21-1.253,0.241c-0.943,0.081-1.793-0.117-2.579-0.39c-0.786-0.274-1.48-0.679-2.121-1.093
									c-0.642-0.416-1.199-0.898-1.706-1.38c-0.257-0.25-0.47-0.485-0.701-0.789c-0.06-0.077-0.112-0.15-0.147-0.213l-0.06-0.099
									c-0.056-0.098-0.068-0.13-0.092-0.193c-0.073-0.219-0.081-0.4-0.081-0.567c0.023-0.661,0.182-1.177,0.311-1.645
									c0.138-0.463,0.288-0.853,0.41-1.173C243.838,141.272,244.01,140.921,244.01,140.921z"/>
							</g>
						</g>
					</g>
					<g id="XMLID_139_">
						<defs>
							<path id="XMLID_370_" d="M268.625,151.785c-0.738-2.085-3.429-1.53-8.187,0.784c-5.154,2.507-14.242,3.115-20.715,0.488
								c-4.903-1.989-7.338-2.19-8.214-0.397c-0.877,1.793,4.569,12.353,14.893,13.631c1.931,0.239,4.866,0.323,7.987-0.188
								C264.657,164.421,269.44,154.085,268.625,151.785z"/>
						</defs>
						<clipPath id="XMLID_00000160169219110360944150000009291114973929964691_">
							<use xlink:href="#XMLID_370_"  style="overflow:visible;"/>
						</clipPath>
						<g id="XMLID_149_" style="clip-path:url(#XMLID_00000160169219110360944150000009291114973929964691_);">
							<g id="XMLID_150_">
								<g id="XMLID_296_">
									<path id="XMLID_373_" style="fill:#7F3322;" d="M268.625,151.785c-0.738-2.085-3.429-1.53-8.187,0.784
										c-5.154,2.507-14.242,3.115-20.715,0.488c-4.903-1.989-7.338-2.19-8.214-0.397c-0.877,1.793,4.569,12.353,14.893,13.631
										c1.931,0.239,4.866,0.323,7.987-0.188C264.657,164.421,269.44,154.085,268.625,151.785z"/>
								</g>
							</g>
						</g>
						<g id="XMLID_146_" style="clip-path:url(#XMLID_00000160169219110360944150000009291114973929964691_);">
							<g id="XMLID_147_">
								<g id="XMLID_148_">
									<g id="XMLID_295_">
										<path id="XMLID_372_" style="fill:#FFFFFF;" d="M235.962,150.367c0,0,0.173,7.348,12.957,7.572
											c12.783,0.224,16.55-3.366,16.605-8.443L235.962,150.367z"/>
									</g>
								</g>
							</g>
						</g>
						<g id="XMLID_143_" style="clip-path:url(#XMLID_00000160169219110360944150000009291114973929964691_);">
							<g id="XMLID_144_">
								<g id="XMLID_145_">
									<g id="XMLID_294_">
										<path id="XMLID_371_" style="fill:#EE676B;" d="M240.682,164.959c0,0,8.795-5.633,22.398-0.353l-10.507,7.25
											L240.682,164.959z"/>
									</g>
								</g>
							</g>
						</g>
					</g>
					<g id="XMLID_152_">
						<g id="XMLID_151_">
							<g id="XMLID_292_">
								<path id="XMLID_369_" style="fill:#F6ACB1;" d="M221.537,142.038c-1.907-0.722-4.271-1.083-6.122-0.015
									c-1.894,1.093-2.584,3.444-1.642,5.399c1.266,2.63,7.99,6.701,12.038,3.454C229.993,147.52,224.554,143.181,221.537,142.038
									z"/>
							</g>
						</g>
						<g id="XMLID_153_">
							<g id="XMLID_291_">
								<path id="XMLID_368_" style="fill:#F6ACB1;" d="M278.594,142.038c1.906-0.722,4.271-1.083,6.122-0.015
									c1.894,1.093,2.584,3.444,1.642,5.399c-1.266,2.63-7.99,6.701-12.038,3.454C270.138,147.52,275.577,143.181,278.594,142.038
									z"/>
							</g>
						</g>
					</g>
					<g id="XMLID_154_">
						<g id="XMLID_155_">
							<g id="XMLID_286_">
								<path id="XMLID_367_" style="fill:#4A4138;" d="M214.851,120.038c0,0-0.031-0.399,0.073-1.072
									c0.043-0.341,0.127-0.744,0.25-1.204c0.145-0.445,0.276-0.981,0.528-1.508c0.226-0.544,0.52-1.112,0.883-1.687
									c0.34-0.593,0.809-1.144,1.281-1.73c0.534-0.527,1.048-1.131,1.712-1.584c0.322-0.237,0.64-0.49,0.976-0.718l1.075-0.59
									c0.711-0.411,1.508-0.637,2.268-0.895c0.763-0.251,1.562-0.308,2.305-0.43c0.751-0.074,1.484-0.01,2.162,0.009
									c0.681,0.007,1.307,0.219,1.879,0.33c0.571,0.14,1.085,0.264,1.517,0.482c0.438,0.18,0.807,0.374,1.109,0.525
									c0.601,0.308,0.921,0.524,0.921,0.524s-0.396,0.1-1.048,0.204c-0.326,0.049-0.717,0.12-1.152,0.158
									c-0.436,0.023-0.924,0.169-1.44,0.258c-0.514,0.121-1.072,0.129-1.63,0.312c-0.559,0.164-1.15,0.263-1.733,0.441
									c-0.571,0.226-1.179,0.361-1.755,0.608c-0.562,0.28-1.18,0.439-1.717,0.784l-0.847,0.426
									c-0.261,0.179-0.535,0.337-0.802,0.504c-0.557,0.3-1.025,0.72-1.55,1.047c-0.464,0.398-0.977,0.734-1.4,1.131
									c-0.448,0.373-0.869,0.743-1.247,1.105c-0.781,0.706-1.424,1.354-1.883,1.819
									C215.118,119.765,214.851,120.038,214.851,120.038z"/>
							</g>
						</g>
						<g id="XMLID_157_">
							<g id="XMLID_285_">
								<path id="XMLID_366_" style="fill:#4A4138;" d="M285.281,120.038c0,0-0.267-0.273-0.735-0.752
									c-0.459-0.466-1.101-1.113-1.883-1.819c-0.379-0.363-0.799-0.732-1.247-1.105c-0.423-0.396-0.935-0.732-1.4-1.131
									c-0.524-0.327-0.993-0.747-1.55-1.047c-0.267-0.167-0.541-0.325-0.802-0.504l-0.847-0.426
									c-0.537-0.345-1.155-0.504-1.717-0.784c-0.576-0.247-1.184-0.382-1.755-0.608c-0.583-0.179-1.174-0.277-1.733-0.441
									c-0.559-0.183-1.116-0.191-1.63-0.312c-0.516-0.089-1.004-0.235-1.44-0.258c-0.435-0.038-0.827-0.109-1.152-0.158
									c-0.652-0.104-1.048-0.204-1.048-0.204s0.32-0.216,0.921-0.524c0.301-0.151,0.671-0.345,1.109-0.525
									c0.432-0.218,0.947-0.342,1.517-0.482c0.572-0.111,1.197-0.323,1.879-0.33c0.678-0.019,1.411-0.083,2.162-0.009
									c0.743,0.122,1.542,0.178,2.305,0.43c0.76,0.257,1.557,0.484,2.268,0.895l1.075,0.59c0.336,0.227,0.654,0.48,0.976,0.718
									c0.664,0.453,1.178,1.057,1.711,1.584c0.472,0.586,0.941,1.137,1.281,1.73c0.364,0.575,0.658,1.143,0.883,1.687
									c0.252,0.527,0.383,1.063,0.528,1.508c0.123,0.46,0.206,0.863,0.25,1.204C285.312,119.64,285.281,120.038,285.281,120.038z"
									/>
							</g>
						</g>
					</g>
					<g id="XMLID_159_">
						<g id="XMLID_88_">
							<g id="XMLID_109_">
								<g id="XMLID_107_">
									<g id="XMLID_17_">
										<g id="XMLID_282_">
											<path id="XMLID_365_" style="fill:#F7F5EB;" d="M228.133,121.548c-1.518-0.376-3.322-0.639-5.399-0.639
												c0,0-7.527,8.08-1.771,15.829c0,0,5.203,3.985,14.501,1.107c0,0,3.653-1.467,3.238-5.617
												c-0.13-1.297-0.646-2.575-1.294-3.72C235.428,125.016,232.028,122.513,228.133,121.548z"/>
										</g>
									</g>
									<g id="XMLID_105_">
										<g id="XMLID_281_">
											<path id="XMLID_364_" style="fill:#F7F5EB;" d="M220.962,136.738c0,0,5.203,3.985,14.501,1.107
												c0,0,3.653-1.467,3.238-5.617c-0.13-1.297-0.646-2.575-1.294-3.72c-1.406-2.482-3.531-4.465-6.042-5.75"/>
										</g>
									</g>
									<g id="XMLID_102_">
										<g id="XMLID_137_">
											<circle id="XMLID_363_" style="fill:#4A4138;" cx="230.067" cy="131.978" r="6.185"/>
										</g>
									</g>
									<g id="XMLID_101_">
										<g id="XMLID_280_">
											<path id="XMLID_362_" style="fill:#F7F5EB;" d="M234.508,131.729c0,2.04-1.654,3.694-3.694,3.694
												s-3.694-1.654-3.694-3.694s1.654-3.694,3.694-3.694S234.508,129.689,234.508,131.729z"/>
										</g>
									</g>
								</g>
								<g id="XMLID_103_">
									<g id="XMLID_132_">
										<path id="XMLID_360_" style="fill:#4A4138;" d="M231.364,122.757c-1.436-0.465-2.858-0.751-4.305-0.911
											c-1.445-0.161-2.888-0.203-4.325-0.157l0.571-0.249c-0.401,0.495-0.813,1.083-1.184,1.652
											c-0.379,0.574-0.714,1.176-1.016,1.789c-0.312,0.606-0.605,1.228-0.818,1.871c-0.119,0.319-0.228,0.64-0.311,0.966
											c-0.08,0.326-0.211,0.647-0.252,0.981l-0.17,0.997l-0.071,1.008c-0.05,0.34,0.023,0.673,0.027,1.013
											c0.012,0.341,0.023,0.684,0.106,1.016c0.065,0.336,0.116,0.68,0.194,1.018l0.318,0.999
											c0.092,0.345,0.238,0.667,0.395,0.988l0.44,0.997c-0.459-0.55-1.021-1.069-1.378-1.72l-0.564-0.975
											c-0.155-0.342-0.268-0.703-0.404-1.058c-0.148-0.354-0.241-0.723-0.301-1.101c-0.054-0.376-0.176-0.753-0.171-1.136
											l-0.053-1.153l0.107-1.146c0.023-0.387,0.136-0.752,0.201-1.131c0.061-0.382,0.186-0.742,0.307-1.103
											c0.223-0.731,0.53-1.428,0.86-2.108c0.344-0.675,0.733-1.323,1.162-1.943c0.423-0.634,0.877-1.203,1.434-1.785
											l0.248-0.259l0.324,0.01c1.531,0.047,3.06,0.275,4.528,0.691C228.731,121.215,230.159,121.861,231.364,122.757z"/>
									</g>
								</g>
							</g>
							<g id="XMLID_110_">
								<g id="XMLID_163_">
									<g id="XMLID_277_">
										<path id="XMLID_359_" style="fill:#4A4138;" d="M220.081,126.299c-0.133-0.016-0.322-0.05-0.536-0.094
											c-0.433-0.075-0.963-0.241-1.43-0.501c-0.471-0.254-0.907-0.605-1.215-0.921c-0.314-0.307-0.52-0.554-0.52-0.554
											s-0.004,0.331,0.197,0.773c0.191,0.439,0.602,0.995,1.204,1.312c0.591,0.338,1.293,0.377,1.761,0.283
											c0.24-0.018,0.426-0.123,0.555-0.163c0.129-0.052,0.198-0.09,0.198-0.09S220.216,126.321,220.081,126.299z"/>
									</g>
								</g>
								<g id="XMLID_160_">
									<g id="XMLID_276_">
										<path id="XMLID_358_" style="fill:#4A4138;" d="M217.78,121.5c0,0,0.053,0.35,0.184,0.822
											c0.046,0.24,0.161,0.5,0.258,0.774c0.123,0.264,0.234,0.551,0.413,0.798c0.318,0.513,0.755,0.96,1.141,1.26
											c0.188,0.156,0.356,0.285,0.479,0.37c0.12,0.09,0.188,0.152,0.188,0.152s-0.087-0.003-0.239-0.027
											c-0.146-0.034-0.38-0.039-0.62-0.154c-0.248-0.093-0.537-0.23-0.812-0.435c-0.27-0.21-0.527-0.483-0.725-0.795
											c-0.41-0.628-0.515-1.381-0.472-1.908C217.609,121.821,217.78,121.5,217.78,121.5z"/>
									</g>
								</g>
								<g id="XMLID_161_">
									<g id="XMLID_275_">
										<path id="XMLID_357_" style="fill:#4A4138;" d="M218.866,120.103c0,0,0.007,0.354,0.073,0.839
											c0.013,0.243,0.093,0.517,0.153,0.801c0.087,0.278,0.158,0.578,0.303,0.846c0.246,0.551,0.621,1.051,0.964,1.4
											c0.165,0.18,0.315,0.329,0.425,0.43c0.107,0.105,0.166,0.176,0.166,0.176s-0.086-0.015-0.233-0.058
											c-0.14-0.053-0.371-0.09-0.594-0.235c-0.234-0.125-0.502-0.299-0.747-0.539c-0.24-0.244-0.458-0.548-0.613-0.884
											c-0.322-0.676-0.327-1.437-0.214-1.954C218.654,120.398,218.866,120.103,218.866,120.103z"/>
									</g>
								</g>
							</g>
						</g>
						<g id="XMLID_162_">
							<g id="XMLID_175_">
								<g id="XMLID_179_">
									<g id="XMLID_185_">
										<g id="XMLID_274_">
											<path id="XMLID_356_" style="fill:#F7F5EB;" d="M271.998,121.548c1.518-0.376,3.322-0.639,5.399-0.639
												c0,0,7.527,8.08,1.771,15.829c0,0-5.203,3.985-14.501,1.107c0,0-3.653-1.467-3.238-5.617
												c0.13-1.297,0.646-2.575,1.294-3.72C264.703,125.016,268.103,122.513,271.998,121.548z"/>
										</g>
									</g>
									<g id="XMLID_184_">
										<g id="XMLID_272_">
											<path id="XMLID_355_" style="fill:#F7F5EB;" d="M279.169,136.738c0,0-5.203,3.985-14.501,1.107
												c0,0-3.653-1.467-3.238-5.617c0.13-1.297,0.646-2.575,1.294-3.72c1.406-2.482,3.531-4.465,6.042-5.75"/>
										</g>
									</g>
									<g id="XMLID_183_">
										<g id="XMLID_128_">
											<circle id="XMLID_354_" style="fill:#4A4138;" cx="270.064" cy="131.978" r="6.185"/>
										</g>
									</g>
									<g id="XMLID_182_">
										<g id="XMLID_269_">
											<path id="XMLID_353_" style="fill:#F7F5EB;" d="M265.623,131.729c0,2.04,1.654,3.694,3.694,3.694
												s3.694-1.654,3.694-3.694s-1.654-3.694-3.694-3.694S265.623,129.689,265.623,131.729z"/>
										</g>
									</g>
								</g>
								<g id="XMLID_177_">
									<g id="XMLID_32_">
										<path id="XMLID_351_" style="fill:#4A4138;" d="M268.767,122.757c1.436-0.465,2.858-0.751,4.305-0.911
											c1.445-0.161,2.888-0.203,4.325-0.157l-0.571-0.249c0.401,0.495,0.813,1.083,1.184,1.652
											c0.379,0.574,0.714,1.176,1.016,1.789c0.312,0.606,0.605,1.228,0.818,1.871c0.119,0.319,0.229,0.64,0.311,0.966
											c0.08,0.326,0.211,0.647,0.252,0.981l0.17,0.997l0.071,1.008c0.05,0.34-0.023,0.673-0.027,1.013
											c-0.012,0.341-0.023,0.684-0.106,1.016c-0.066,0.336-0.116,0.68-0.194,1.018l-0.318,0.999
											c-0.092,0.345-0.238,0.667-0.395,0.988l-0.44,0.997c0.459-0.55,1.021-1.069,1.379-1.72l0.564-0.975
											c0.155-0.342,0.268-0.703,0.404-1.058c0.148-0.354,0.241-0.723,0.301-1.101c0.054-0.376,0.176-0.753,0.172-1.136
											l0.053-1.153l-0.107-1.146c-0.023-0.387-0.136-0.752-0.201-1.131c-0.061-0.382-0.186-0.742-0.307-1.103
											c-0.223-0.731-0.53-1.428-0.86-2.108c-0.344-0.675-0.733-1.323-1.162-1.943c-0.423-0.634-0.877-1.203-1.434-1.785
											l-0.248-0.259l-0.324,0.01c-1.531,0.047-3.06,0.275-4.529,0.691C271.4,121.215,269.973,121.861,268.767,122.757z"/>
									</g>
								</g>
							</g>
							<g id="XMLID_164_">
								<g id="XMLID_174_">
									<g id="XMLID_267_">
										<path id="XMLID_350_" style="fill:#4A4138;" d="M280.05,126.299c0.134-0.016,0.322-0.05,0.536-0.094
											c0.433-0.075,0.963-0.241,1.43-0.501c0.471-0.254,0.908-0.605,1.215-0.921c0.314-0.307,0.52-0.554,0.52-0.554
											s0.004,0.331-0.197,0.773c-0.191,0.439-0.602,0.995-1.204,1.312c-0.591,0.338-1.292,0.377-1.761,0.283
											c-0.24-0.018-0.426-0.123-0.555-0.163c-0.129-0.052-0.198-0.09-0.198-0.09S279.916,126.321,280.05,126.299z"/>
									</g>
								</g>
								<g id="XMLID_173_">
									<g id="XMLID_266_">
										<path id="XMLID_349_" style="fill:#4A4138;" d="M282.352,121.5c0,0-0.053,0.35-0.184,0.822
											c-0.046,0.24-0.161,0.5-0.258,0.774c-0.123,0.264-0.234,0.551-0.413,0.798c-0.318,0.513-0.755,0.96-1.141,1.26
											c-0.188,0.156-0.356,0.285-0.479,0.37c-0.12,0.09-0.188,0.152-0.188,0.152s0.087-0.003,0.239-0.027
											c0.146-0.034,0.38-0.039,0.62-0.154c0.248-0.093,0.537-0.23,0.812-0.435c0.271-0.21,0.527-0.483,0.725-0.795
											c0.41-0.628,0.515-1.381,0.472-1.908C282.522,121.821,282.352,121.5,282.352,121.5z"/>
									</g>
								</g>
								<g id="XMLID_171_">
									<g id="XMLID_265_">
										<path id="XMLID_348_" style="fill:#4A4138;" d="M281.266,120.103c0,0-0.007,0.354-0.073,0.839
											c-0.013,0.243-0.093,0.517-0.153,0.801c-0.087,0.278-0.158,0.578-0.303,0.846c-0.246,0.551-0.621,1.051-0.964,1.4
											c-0.165,0.18-0.315,0.329-0.425,0.43c-0.107,0.105-0.166,0.176-0.166,0.176s0.086-0.015,0.233-0.058
											c0.14-0.053,0.371-0.09,0.594-0.235c0.234-0.125,0.502-0.299,0.747-0.539c0.24-0.244,0.458-0.548,0.613-0.884
											c0.323-0.676,0.327-1.437,0.214-1.954C281.477,120.398,281.266,120.103,281.266,120.103z"/>
									</g>
								</g>
							</g>
						</g>
					</g>
				</g>
				<g id="XMLID_91_">
					<g id="XMLID_319_">
						<path id="XMLID_347_" style="fill:#FAAF3E;" d="M200.17,163.551c1.603-5.751,4.457-10.982,8.178-15.522
							c4.526-32.997,41.886-59.134,41.886-59.134s-37.772,3.052-46.102,21.595c-4.822,10.734-5.232,35.425-4.722,54.318
							C199.661,164.389,199.902,163.963,200.17,163.551z"/>
					</g>
				</g>
				<g id="XMLID_71_">
					<g id="XMLID_283_">
						<path id="XMLID_346_" style="fill:#FAAF3E;" d="M241.876,83.48c0,0,6.257,14.253,29.201,25.724
							c22.943,11.472,20.467,13.731,20.467,13.731s1.608-1.521,2.651-1.738c0,0,0.637-10.603-2.607-24.044
							S243.846,74.094,241.876,83.48z"/>
					</g>
				</g>
				<g id="XMLID_231_">
					<path id="XMLID_314_" style="fill:#FFC476;" d="M295.375,120.782c-19.024-8.41-45.376-32.937-45.639-33.184l0.593-0.634
						c0.263,0.246,26.509,24.673,45.397,33.024L295.375,120.782z"/>
				</g>
				<g id="XMLID_306_">
					<path id="XMLID_313_" style="fill:#FFC476;" d="M295.641,115.573c-7.705-24.006-42.331-32.329-42.679-32.41l0.197-0.846
						c0.354,0.083,35.452,8.514,43.31,32.991L295.641,115.573z"/>
				</g>
			</g>
			<g id="XMLID_18_">
				<path id="XMLID_230_" style="fill:#FFC476;" d="M202.322,156.052l-0.865-0.079c4.513-49.337,45.958-68.696,46.377-68.885
					l0.359,0.79C247.78,88.066,206.788,107.23,202.322,156.052z"/>
			</g>
			<g id="XMLID_310_">
				<path id="XMLID_215_" style="fill:#FFC476;" d="M204.236,130.143l-0.857-0.138c6.234-38.608,35.176-44.707,35.467-44.765
					l0.167,0.853C238.728,86.149,210.37,92.156,204.236,130.143z"/>
			</g>
			<g id="XMLID_92_">
				<g id="XMLID_100_">
					<g id="XMLID_166_">
						<polygon id="XMLID_345_" style="fill:#FFD03C;" points="239.916,82.189 235.969,60.198 243.487,66.4 245.931,57.566 
							251.381,65.648 254.953,55.687 258.9,64.145 264.163,55.123 263.411,81.312 						"/>
					</g>
				</g>
				<g id="XMLID_97_">
					<g id="XMLID_99_">
						<g id="XMLID_290_">
							<path id="XMLID_344_" style="fill:#F9F9F9;" d="M243.092,67.447c0,0,0.291,0.758,0.571,1.914
								c0.289,1.155,0.574,2.707,0.765,4.27c0.182,1.564,0.271,3.139,0.26,4.33c-0.001,1.19-0.107,1.995-0.107,1.995
								s-0.292-0.758-0.572-1.914c-0.29-1.155-0.574-2.707-0.763-4.27c-0.182-1.564-0.269-3.14-0.259-4.33
								C242.987,68.252,243.092,67.447,243.092,67.447z"/>
						</g>
					</g>
					<g id="XMLID_98_">
						<g id="XMLID_289_">
							<path id="XMLID_343_" style="fill:#F9F9F9;" d="M248.893,72.882c0,0-0.582,0.257-1.47,0.486
								c-0.887,0.238-2.079,0.455-3.281,0.577c-1.202,0.114-2.414,0.134-3.331,0.072c-0.916-0.053-1.536-0.193-1.536-0.193
								s0.582-0.258,1.47-0.488c0.887-0.239,2.079-0.454,3.281-0.576c1.203-0.113,2.415-0.132,3.331-0.07
								C248.273,72.743,248.893,72.882,248.893,72.882z"/>
						</g>
					</g>
				</g>
				<g id="XMLID_94_">
					<g id="XMLID_96_">
						<g id="XMLID_288_">
							<path id="XMLID_342_" style="fill:#F9F9F9;" d="M260.003,62.384c0,0,0.262,0.516,0.499,1.309
								c0.246,0.792,0.474,1.859,0.606,2.938c0.125,1.08,0.156,2.171,0.102,2.998c-0.044,0.826-0.179,1.39-0.179,1.39
								s-0.263-0.516-0.5-1.309c-0.247-0.792-0.473-1.859-0.605-2.938c-0.124-1.08-0.154-2.171-0.1-2.998
								C259.869,62.947,260.003,62.384,260.003,62.384z"/>
						</g>
					</g>
					<g id="XMLID_95_">
						<g id="XMLID_287_">
							<path id="XMLID_341_" style="fill:#F9F9F9;" d="M264.008,66.136c0,0-0.396,0.239-1.004,0.44
								c-0.608,0.211-1.428,0.392-2.257,0.477c-0.83,0.078-1.67,0.061-2.307-0.029c-0.636-0.08-1.071-0.239-1.071-0.239
								s0.395-0.24,1.004-0.442c0.608-0.212,1.428-0.391,2.258-0.475c0.83-0.077,1.67-0.059,2.307,0.03
								C263.573,65.979,264.008,66.136,264.008,66.136z"/>
						</g>
					</g>
				</g>
			</g>
		</g>
		<g id="XMLID_278_" style="opacity:0.6;">
			<g id="XMLID_120_">
				<g id="XMLID_229_">
					<path id="XMLID_340_" style="fill:#DDDBDB;" d="M433.132,415.398c0,4.131-81.991,7.48-183.132,7.48
						s-183.132-3.349-183.132-7.48c0-4.131,81.991-7.48,183.132-7.48S433.132,411.267,433.132,415.398z"/>
				</g>
			</g>
		</g>
		<g id="XMLID_262_">
			<g id="XMLID_115_">
				<g id="XMLID_303_">
					<path id="XMLID_339_" style="fill:#EDA4AB;" d="M211.685,242.55c0,0-18.252,0.273-44.454,29.308
						c-14.556,16.129-9.114-11.212-9.114-23.997l-55.011,133.166c0,0,60.584,29.112,114.873,1.574L211.685,242.55z"/>
				</g>
			</g>
			<g id="XMLID_114_">
				<g id="XMLID_118_">
					<g id="XMLID_263_">
						<path id="XMLID_338_" style="fill:#F9AEB2;" d="M147.259,407.193c-0.003-0.001-0.026-0.004-0.026-0.004
							S147.241,407.197,147.259,407.193z"/>
					</g>
				</g>
				<g id="XMLID_186_">
					<g id="XMLID_261_">
						<path id="XMLID_337_" style="fill:#F9AEB2;" d="M346.777,329.558c-11.54-79.729-65.328-91.794-65.328-91.794l-20.696-4.721
							h-21.506l-20.696,4.721c0,0-53.788,12.064-65.328,91.794c-10.818,74.742-13.338,77.574-13.611,77.635
							c0.527,0.083,40.979,14.297,110.388,11.669c69.409,2.628,109.861-11.586,110.388-11.669
							C360.115,407.131,357.594,404.3,346.777,329.558z"/>
					</g>
				</g>
			</g>
			<g id="XMLID_121_">
				<g id="XMLID_204_">
					<g id="XMLID_138_">
						<g id="XMLID_217_">
							<path id="XMLID_336_" style="fill:#FFFFFF;" d="M151.036,402.862"/>
						</g>
					</g>
					<g id="XMLID_257_">
						<g id="XMLID_258_">
							<g id="XMLID_216_">
								<path id="XMLID_335_" style="fill:#FFFFFF;" d="M151.036,404.719c2.391,0,2.394-3.715,0-3.715
									C148.645,401.004,148.641,404.719,151.036,404.719L151.036,404.719z"/>
							</g>
						</g>
					</g>
				</g>
				<g id="XMLID_205_">
					<g id="XMLID_136_">
						<g id="XMLID_211_">
							<path id="XMLID_334_" style="fill:#FFFFFF;" d="M178.574,409.156"/>
						</g>
					</g>
					<g id="XMLID_253_">
						<g id="XMLID_255_">
							<g id="XMLID_210_">
								<path id="XMLID_333_" style="fill:#FFFFFF;" d="M178.574,411.014c2.391,0,2.395-3.715,0-3.715
									C176.183,407.298,176.179,411.014,178.574,411.014L178.574,411.014z"/>
							</g>
						</g>
					</g>
				</g>
				<g id="XMLID_206_">
					<g id="XMLID_135_">
						<g id="XMLID_202_">
							<path id="XMLID_332_" style="fill:#FFFFFF;" d="M206.505,411.517"/>
						</g>
					</g>
					<g id="XMLID_251_">
						<g id="XMLID_252_">
							<g id="XMLID_199_">
								<path id="XMLID_331_" style="fill:#FFFFFF;" d="M206.505,413.374c2.391,0,2.395-3.715,0-3.715
									C204.115,409.659,204.111,413.374,206.505,413.374L206.505,413.374z"/>
							</g>
						</g>
					</g>
				</g>
				<g id="XMLID_207_">
					<g id="XMLID_134_">
						<g id="XMLID_170_">
							<path id="XMLID_330_" style="fill:#FFFFFF;" d="M233.65,413.483"/>
						</g>
					</g>
					<g id="XMLID_249_">
						<g id="XMLID_250_">
							<g id="XMLID_158_">
								<path id="XMLID_329_" style="fill:#FFFFFF;" d="M233.65,415.341c2.391,0,2.395-3.715,0-3.715
									C231.26,411.626,231.256,415.341,233.65,415.341L233.65,415.341z"/>
							</g>
						</g>
					</g>
				</g>
				<g id="XMLID_208_">
					<g id="XMLID_133_">
						<g id="XMLID_156_">
							<path id="XMLID_328_" style="fill:#FFFFFF;" d="M263.155,413.877"/>
						</g>
					</g>
					<g id="XMLID_245_">
						<g id="XMLID_247_">
							<g id="XMLID_85_">
								<path id="XMLID_327_" style="fill:#FFFFFF;" d="M263.155,415.734c2.391,0,2.395-3.715,0-3.715
									C260.765,412.019,260.761,415.734,263.155,415.734L263.155,415.734z"/>
							</g>
						</g>
					</g>
				</g>
				<g id="XMLID_209_">
					<g id="XMLID_130_">
						<g id="XMLID_76_">
							<path id="XMLID_326_" style="fill:#FFFFFF;" d="M292.267,413.09"/>
						</g>
					</g>
					<g id="XMLID_243_">
						<g id="XMLID_244_">
							<g id="XMLID_75_">
								<path id="XMLID_325_" style="fill:#FFFFFF;" d="M292.267,414.948c2.391,0,2.395-3.715,0-3.715
									C289.876,411.232,289.872,414.948,292.267,414.948L292.267,414.948z"/>
							</g>
						</g>
					</g>
				</g>
				<g id="XMLID_212_">
					<g id="XMLID_129_">
						<g id="XMLID_74_">
							<path id="XMLID_324_" style="fill:#FFFFFF;" d="M318.625,409.943"/>
						</g>
					</g>
					<g id="XMLID_223_">
						<g id="XMLID_273_">
							<g id="XMLID_73_">
								<path id="XMLID_323_" style="fill:#FFFFFF;" d="M318.625,411.8c2.391,0,2.395-3.715,0-3.715
									C316.234,408.085,316.23,411.8,318.625,411.8L318.625,411.8z"/>
							</g>
						</g>
					</g>
				</g>
				<g id="XMLID_214_">
					<g id="XMLID_192_">
						<g id="XMLID_72_">
							<path id="XMLID_322_" style="fill:#FFFFFF;" d="M346.556,405.222"/>
						</g>
					</g>
					<g id="XMLID_195_">
						<g id="XMLID_213_">
							<g id="XMLID_69_">
								<path id="XMLID_321_" style="fill:#FFFFFF;" d="M346.556,407.08c2.391,0,2.395-3.715,0-3.715
									C344.166,403.364,344.162,407.08,346.556,407.08L346.556,407.08z"/>
							</g>
						</g>
					</g>
				</g>
			</g>
		</g>
		<g id="XMLID_227_">
			<g id="XMLID_197_">
				<g id="XMLID_193_">
					<g id="XMLID_260_">
						<path id="XMLID_320_" style="fill:#D18893;" d="M153.883,359.981c0,0,87.303-18.621,97.747-122.217l-30.412-7.606
							C221.218,230.158,136.481,277.366,153.883,359.981z"/>
					</g>
				</g>
				<g id="XMLID_198_">
					<g id="XMLID_259_">
						<path id="XMLID_318_" style="fill:#D18893;" d="M346.117,359.981c0,0-87.304-18.621-97.747-122.217l30.412-7.606
							C278.781,230.158,363.518,277.366,346.117,359.981z"/>
					</g>
				</g>
			</g>
			<g id="XMLID_200_">
				<g id="XMLID_127_">
					<path id="XMLID_317_" style="fill:#F9AEB2;" d="M155.452,346.172l-0.964-2.281c70.36-29.74,92.437-106.641,95.004-116.508
						l-6.151-2.342c-32.524,70.411-88.775,102.269-89.343,102.583l-1.203-2.165c0.563-0.313,56.684-32.129,88.777-102.502
						l0.482-1.057l10.352,3.944l-0.24,1.05c-0.05,0.217-5.123,22.01-19.504,47.443C219.377,297.835,195.197,329.372,155.452,346.172
						z"/>
				</g>
			</g>
			<g id="XMLID_203_">
				<g id="XMLID_126_">
					<path id="XMLID_316_" style="fill:#F9AEB2;" d="M343.32,349.319c-39.745-16.798-63.925-48.336-77.21-71.834
						c-14.38-25.435-19.455-47.228-19.505-47.444l-0.239-1.05l10.353-3.944l0.483,1.057c32.092,70.375,88.213,102.19,88.776,102.503
						l-1.202,2.165c-0.567-0.314-56.82-32.172-89.343-102.584l-6.151,2.343c2.571,9.87,24.675,86.782,95.004,116.508L343.32,349.319
						z"/>
				</g>
			</g>
		</g>
		<g id="XMLID_201_">
			<g id="XMLID_218_">
				<path id="XMLID_10_" style="fill:none;stroke:#F9AEB2;stroke-width:2;stroke-miterlimit:10;" d="M247.026,226.224"/>
			</g>
		</g>
	</g>
</g>
<g id="DESIGNED_BY_FREEPIK">
	<g id="XMLID_1033_">
		<g id="XMLID_1745_">
			<g id="XMLID_1768_">
				<path id="XMLID_1776_" style="fill:#FFFFFF;" d="M260.104,465.466c-0.433,0.443-0.804,0.932-1.108,1.453l-0.465-0.241
					c-0.067-0.297-0.349-0.502-0.659-0.466c-0.331,0.039-0.567,0.339-0.529,0.67c0.039,0.331,0.339,0.567,0.67,0.528
					c0.065-0.007,0.127-0.025,0.184-0.052l0.451,0.234c-0.251,0.554-0.433,1.139-0.539,1.743l0.747,0.132
					c0.229-1.306,0.85-2.507,1.792-3.473L260.104,465.466z"/>
				<path id="XMLID_1775_" style="fill:#FFFFFF;" d="M265.591,463.164c-0.171,0-0.341,0.006-0.509,0.017l-0.074-0.626
					c0.188-0.149,0.296-0.389,0.266-0.645c-0.046-0.393-0.402-0.674-0.795-0.628c-0.393,0.046-0.675,0.402-0.628,0.796
					c0.03,0.254,0.189,0.461,0.404,0.563l0.073,0.624c-0.714,0.116-1.402,0.332-2.06,0.646l0.327,0.685
					c0.935-0.447,1.941-0.674,2.995-0.674c0.497,0,0.993,0.053,1.476,0.158l0.16-0.741
					C266.692,463.223,266.142,463.164,265.591,463.164z"/>
				<path id="XMLID_1774_" style="fill:#FFFFFF;" d="M272.194,465.711c0.331-0.04,0.566-0.341,0.525-0.672
					c-0.04-0.331-0.341-0.566-0.672-0.525c-0.31,0.038-0.535,0.304-0.53,0.608l-0.416,0.363c-0.418-0.43-0.89-0.813-1.407-1.14
					l-0.404,0.642c1.135,0.715,2.02,1.727,2.563,2.925l0.69-0.313c-0.251-0.554-0.567-1.071-0.942-1.545l0.402-0.351
					C272.065,465.716,272.128,465.72,272.194,465.711z"/>
				<path id="XMLID_1773_" style="fill:#FFFFFF;" d="M265.044,473.372c-0.386,0.023-0.775,0.035-1.157,0.035
					c-0.88,0-1.733-0.061-2.479-0.18c-0.391-0.061-0.846-0.154-1.27-0.292c1.047,1.861,3.069,3.125,5.389,3.125
					c2.855,0,5.263-1.916,5.949-4.503c-0.682,0.449-1.505,0.825-2.458,1.122C267.838,473.048,266.463,473.287,265.044,473.372z"/>
				<path id="XMLID_1769_" style="fill:#FFFFFF;" d="M265.591,464.681c-3.352,0-6.079,2.666-6.079,5.943
					c0,0.425,0.046,0.849,0.137,1.261c0.674,0.483,2.706,0.891,5.348,0.731c2.88-0.174,5.297-0.958,6.672-2.159
					c-0.005-0.194-0.02-0.39-0.045-0.581C271.243,466.914,268.65,464.681,265.591,464.681z M263.432,471.195
					c-1.02,0-1.85-0.83-1.85-1.85c0-1.021,0.83-1.85,1.85-1.85c1.019,0,1.849,0.83,1.849,1.85
					C265.281,470.365,264.451,471.195,263.432,471.195z M268.169,470.287c-0.75,0-1.36-0.61-1.36-1.36s0.61-1.36,1.36-1.36
					s1.36,0.61,1.36,1.36S268.919,470.287,268.169,470.287z"/>
			</g>
			<path id="XMLID_1765_" style="fill:#FFFFFF;" d="M281.595,466.548c-0.295-0.116-0.806-0.31-1.383-0.238
				c-0.551,0.069-0.844,0.341-0.844,1.007v0.866h2.229v1.717h-2.229v5.455h-1.932V469.9h-1.339v-1.717h1.339v-0.889
				c0-1.68,0.896-2.782,2.568-2.782c0.643,0,1.157,0.121,1.59,0.308V466.548z"/>
			<path id="XMLID_1763_" style="fill:#FFFFFF;" d="M286.297,469.879c-0.177-0.029-0.357-0.046-0.525-0.046
				c-0.896,0-1.51,0.548-1.51,1.613v3.908h-1.933v-7.172h1.873v0.784c0.451-0.673,1.14-0.977,2.021-0.977
				c0.414,0,0.848,0.128,1.095,0.337L286.297,469.879z"/>
			<path id="XMLID_1759_" style="fill:#FFFFFF;" d="M293.965,471.758c0,0.222-0.016,0.488-0.037,0.651h-5.085
				c0.207,1.036,0.933,1.487,1.843,1.487c0.622,0,1.295-0.252,1.813-0.689l1.133,1.243c-0.814,0.748-1.851,1.089-3.057,1.089
				c-2.198,0-3.724-1.496-3.724-3.753c0-2.258,1.48-3.797,3.627-3.797C292.543,467.99,293.957,469.522,293.965,471.758z
				 M288.851,471.092h3.175c-0.178-0.918-0.733-1.436-1.562-1.436C289.554,469.655,289.021,470.203,288.851,471.092z"/>
			<path id="XMLID_1756_" style="fill:#FFFFFF;" d="M301.618,471.758c0,0.222-0.016,0.488-0.037,0.651h-5.085
				c0.207,1.036,0.933,1.487,1.843,1.487c0.622,0,1.296-0.252,1.814-0.689l1.133,1.243c-0.814,0.748-1.851,1.089-3.058,1.089
				c-2.198,0-3.723-1.496-3.723-3.753c0-2.258,1.481-3.797,3.627-3.797C300.197,467.99,301.611,469.522,301.618,471.758z
				 M296.504,471.092h3.175c-0.178-0.918-0.733-1.436-1.562-1.436C297.207,469.655,296.674,470.203,296.504,471.092z"/>
			<path id="XMLID_1752_" style="fill:#FFFFFF;" d="M309.964,471.765c0,2.154-1.495,3.775-3.472,3.775
				c-0.962,0-1.643-0.378-2.109-0.933v3.708h-1.925v-10.133h1.888v0.792c0.467-0.585,1.154-0.984,2.139-0.984
				C308.469,467.99,309.964,469.611,309.964,471.765z M304.286,471.765c0,1.133,0.748,1.977,1.844,1.977
				c1.14,0,1.85-0.881,1.85-1.977c0-1.095-0.71-1.976-1.85-1.976C305.034,469.789,304.286,470.633,304.286,471.765z"/>
			<path id="XMLID_1749_" style="fill:#FFFFFF;" d="M313.068,465.836c0,0.696-0.541,1.229-1.236,1.229
				c-0.696,0-1.229-0.533-1.229-1.229c0-0.695,0.532-1.243,1.229-1.243C312.527,464.593,313.068,465.141,313.068,465.836z
				 M312.808,475.354h-1.932v-7.172h1.932V475.354z"/>
			<path id="XMLID_1747_" style="fill:#FFFFFF;" d="M316.031,470.736l2.702-2.554h2.368l-3.478,3.375l3.501,3.797h-2.376
				l-2.717-2.901v2.901H314.1v-10.658h1.932V470.736z"/>
		</g>
		<g id="XMLID_1715_">
			<path id="XMLID_1742_" style="fill:#FFFFFF;" d="M184.412,475.29v-1.055c-0.527,0.718-1.391,1.23-2.387,1.23
				c-1.846,0-3.149-1.406-3.149-3.706c0-2.256,1.289-3.721,3.149-3.721c0.952,0,1.816,0.469,2.387,1.245v-3.765h1.099v9.771H184.412
				z M184.412,473.371v-3.208c-0.395-0.615-1.245-1.143-2.124-1.143c-1.42,0-2.27,1.172-2.27,2.739c0,1.567,0.85,2.725,2.27,2.725
				C183.167,474.484,184.017,473.986,184.412,473.371z"/>
			<path id="XMLID_1739_" style="fill:#FFFFFF;" d="M186.931,471.745c0-2.051,1.465-3.706,3.486-3.706
				c2.139,0,3.398,1.67,3.398,3.794v0.278h-5.727c0.088,1.333,1.025,2.446,2.549,2.446c0.806,0,1.626-0.322,2.182-0.894l0.527,0.718
				c-0.703,0.703-1.655,1.084-2.812,1.084C188.44,475.466,186.931,473.957,186.931,471.745z M190.403,468.947
				c-1.509,0-2.256,1.274-2.314,2.358h4.643C192.717,470.251,192.014,468.947,190.403,468.947z"/>
			<path id="XMLID_1737_" style="fill:#FFFFFF;" d="M194.607,474.353l0.571-0.791c0.469,0.542,1.362,1.011,2.329,1.011
				c1.084,0,1.67-0.513,1.67-1.216c0-1.714-4.38-0.659-4.38-3.281c0-1.099,0.952-2.036,2.636-2.036c1.202,0,2.051,0.454,2.623,1.025
				l-0.513,0.762c-0.424-0.513-1.201-0.893-2.109-0.893c-0.966,0-1.567,0.483-1.567,1.113c0,1.553,4.379,0.527,4.379,3.281
				c0,1.186-0.952,2.139-2.783,2.139C196.306,475.466,195.324,475.114,194.607,474.353z"/>
			<path id="XMLID_1734_" style="fill:#FFFFFF;" d="M201.477,466.472c0-0.41,0.337-0.747,0.732-0.747
				c0.41,0,0.747,0.337,0.747,0.747c0,0.41-0.337,0.732-0.747,0.732C201.814,467.204,201.477,466.882,201.477,466.472z
				 M201.667,475.29v-7.075h1.099v7.075H201.667z"/>
			<path id="XMLID_1729_" style="fill:#FFFFFF;" d="M204.582,477.107l0.556-0.82c0.586,0.703,1.289,0.967,2.3,0.967
				c1.172,0,2.27-0.571,2.27-2.124v-1.011c-0.513,0.718-1.377,1.26-2.373,1.26c-1.846,0-3.149-1.377-3.149-3.662
				c0-2.271,1.289-3.677,3.149-3.677c0.952,0,1.802,0.469,2.373,1.245v-1.069h1.099v6.87c0,2.344-1.641,3.076-3.369,3.076
				C206.237,478.161,205.416,477.926,204.582,477.107z M209.708,473.254v-3.091c-0.381-0.615-1.23-1.143-2.109-1.143
				c-1.421,0-2.27,1.128-2.27,2.695c0,1.553,0.849,2.695,2.27,2.695C208.478,474.411,209.327,473.869,209.708,473.254z"/>
			<path id="XMLID_1727_" style="fill:#FFFFFF;" d="M217.413,475.29v-4.629c0-1.245-0.63-1.641-1.582-1.641
				c-0.864,0-1.685,0.527-2.094,1.099v5.171h-1.099v-7.075h1.099v1.025c0.497-0.586,1.464-1.201,2.519-1.201
				c1.479,0,2.256,0.747,2.256,2.285v4.966H217.413z"/>
			<path id="XMLID_1724_" style="fill:#FFFFFF;" d="M219.932,471.745c0-2.051,1.465-3.706,3.486-3.706
				c2.139,0,3.398,1.67,3.398,3.794v0.278h-5.727c0.088,1.333,1.025,2.446,2.548,2.446c0.806,0,1.626-0.322,2.182-0.894l0.527,0.718
				c-0.703,0.703-1.655,1.084-2.813,1.084C221.441,475.466,219.932,473.957,219.932,471.745z M223.403,468.947
				c-1.509,0-2.256,1.274-2.314,2.358h4.643C225.718,470.251,225.015,468.947,223.403,468.947z"/>
			<path id="XMLID_1721_" style="fill:#FFFFFF;" d="M233.35,475.29v-1.055c-0.527,0.718-1.392,1.23-2.388,1.23
				c-1.845,0-3.149-1.406-3.149-3.706c0-2.256,1.289-3.721,3.149-3.721c0.952,0,1.817,0.469,2.388,1.245v-3.765h1.098v9.771H233.35z
				 M233.35,473.371v-3.208c-0.396-0.615-1.245-1.143-2.124-1.143c-1.421,0-2.271,1.172-2.271,2.739c0,1.567,0.85,2.725,2.271,2.725
				C232.105,474.484,232.954,473.986,233.35,473.371z"/>
			<path id="XMLID_1718_" style="fill:#FFFFFF;" d="M239.692,475.29v-9.771h1.099v3.765c0.571-0.776,1.421-1.245,2.388-1.245
				c1.845,0,3.149,1.465,3.149,3.721c0,2.3-1.304,3.706-3.149,3.706c-0.996,0-1.86-0.513-2.388-1.23v1.055H239.692z M242.9,474.484
				c1.436,0,2.285-1.157,2.285-2.725c0-1.567-0.85-2.739-2.285-2.739c-0.864,0-1.729,0.527-2.109,1.143v3.208
				C241.171,473.986,242.035,474.484,242.9,474.484z"/>
			<path id="XMLID_1716_" style="fill:#FFFFFF;" d="M247.528,477.063c0.161,0.073,0.425,0.117,0.601,0.117
				c0.483,0,0.806-0.161,1.055-0.747l0.469-1.069l-2.959-7.148h1.187l2.358,5.801l2.344-5.801h1.2l-3.544,8.511
				c-0.425,1.024-1.143,1.421-2.08,1.436c-0.234,0-0.601-0.044-0.806-0.103L247.528,477.063z"/>
		</g>
	</g>
	<g id="XMLID_1_">
		<g id="XMLID_38_">
			<g id="XMLID_57_">
				<path id="XMLID_65_" style="fill:#1D262D;" d="M260.104,465.466c-0.433,0.443-0.804,0.932-1.108,1.453l-0.465-0.241
					c-0.067-0.297-0.349-0.502-0.659-0.466c-0.331,0.039-0.567,0.339-0.529,0.67c0.039,0.331,0.339,0.567,0.67,0.528
					c0.065-0.007,0.127-0.025,0.184-0.052l0.451,0.234c-0.251,0.554-0.433,1.139-0.539,1.743l0.747,0.132
					c0.229-1.306,0.85-2.507,1.792-3.473L260.104,465.466z"/>
				<path id="XMLID_64_" style="fill:#1D262D;" d="M265.591,463.164c-0.171,0-0.341,0.006-0.509,0.017l-0.074-0.626
					c0.188-0.149,0.296-0.389,0.266-0.645c-0.046-0.393-0.402-0.674-0.795-0.628c-0.393,0.046-0.675,0.402-0.628,0.796
					c0.03,0.254,0.189,0.461,0.404,0.563l0.073,0.624c-0.714,0.116-1.402,0.332-2.06,0.646l0.327,0.685
					c0.935-0.447,1.941-0.674,2.995-0.674c0.497,0,0.993,0.053,1.476,0.158l0.16-0.741
					C266.692,463.223,266.142,463.164,265.591,463.164z"/>
				<path id="XMLID_63_" style="fill:#1D262D;" d="M272.194,465.711c0.331-0.04,0.566-0.341,0.525-0.672
					c-0.04-0.331-0.341-0.566-0.672-0.525c-0.31,0.038-0.535,0.304-0.53,0.608l-0.416,0.363c-0.418-0.43-0.89-0.813-1.407-1.14
					l-0.404,0.642c1.135,0.715,2.02,1.727,2.563,2.925l0.69-0.313c-0.251-0.554-0.567-1.071-0.942-1.545l0.402-0.351
					C272.065,465.716,272.128,465.72,272.194,465.711z"/>
				<path id="XMLID_62_" style="fill:#1D262D;" d="M265.044,473.372c-0.386,0.023-0.775,0.035-1.157,0.035
					c-0.88,0-1.733-0.061-2.479-0.18c-0.391-0.061-0.846-0.154-1.27-0.292c1.047,1.861,3.069,3.125,5.389,3.125
					c2.855,0,5.263-1.916,5.949-4.503c-0.682,0.449-1.505,0.825-2.458,1.122C267.838,473.048,266.463,473.287,265.044,473.372z"/>
				<path id="XMLID_58_" style="fill:#1D262D;" d="M265.591,464.681c-3.352,0-6.079,2.666-6.079,5.943
					c0,0.425,0.046,0.849,0.137,1.261c0.674,0.483,2.706,0.891,5.348,0.731c2.88-0.174,5.297-0.958,6.672-2.159
					c-0.005-0.194-0.02-0.39-0.045-0.581C271.243,466.914,268.65,464.681,265.591,464.681z M263.432,471.195
					c-1.02,0-1.85-0.83-1.85-1.85c0-1.021,0.83-1.85,1.85-1.85c1.019,0,1.849,0.83,1.849,1.85
					C265.281,470.365,264.451,471.195,263.432,471.195z M268.169,470.287c-0.75,0-1.36-0.61-1.36-1.36s0.61-1.36,1.36-1.36
					s1.36,0.61,1.36,1.36S268.919,470.287,268.169,470.287z"/>
			</g>
			<path id="XMLID_55_" style="fill:#1D262D;" d="M281.595,466.548c-0.295-0.116-0.806-0.31-1.383-0.238
				c-0.551,0.069-0.844,0.341-0.844,1.007v0.866h2.229v1.717h-2.229v5.455h-1.932V469.9h-1.339v-1.717h1.339v-0.889
				c0-1.68,0.896-2.782,2.568-2.782c0.643,0,1.157,0.121,1.59,0.308V466.548z"/>
			<path id="XMLID_53_" style="fill:#1D262D;" d="M286.297,469.879c-0.177-0.029-0.357-0.046-0.525-0.046
				c-0.896,0-1.51,0.548-1.51,1.613v3.908h-1.933v-7.172h1.873v0.784c0.451-0.673,1.14-0.977,2.021-0.977
				c0.414,0,0.848,0.128,1.095,0.337L286.297,469.879z"/>
			<path id="XMLID_50_" style="fill:#1D262D;" d="M293.965,471.758c0,0.222-0.016,0.488-0.037,0.651h-5.085
				c0.207,1.036,0.933,1.487,1.843,1.487c0.622,0,1.295-0.252,1.813-0.689l1.133,1.243c-0.814,0.748-1.851,1.089-3.057,1.089
				c-2.198,0-3.724-1.496-3.724-3.753c0-2.258,1.48-3.797,3.627-3.797C292.543,467.99,293.957,469.522,293.965,471.758z
				 M288.851,471.092h3.175c-0.178-0.918-0.733-1.436-1.562-1.436C289.554,469.655,289.021,470.203,288.851,471.092z"/>
			<path id="XMLID_47_" style="fill:#1D262D;" d="M301.618,471.758c0,0.222-0.016,0.488-0.037,0.651h-5.085
				c0.207,1.036,0.933,1.487,1.843,1.487c0.622,0,1.296-0.252,1.814-0.689l1.133,1.243c-0.814,0.748-1.851,1.089-3.058,1.089
				c-2.198,0-3.723-1.496-3.723-3.753c0-2.258,1.481-3.797,3.627-3.797C300.197,467.99,301.611,469.522,301.618,471.758z
				 M296.504,471.092h3.175c-0.178-0.918-0.733-1.436-1.562-1.436C297.207,469.655,296.674,470.203,296.504,471.092z"/>
			<path id="XMLID_44_" style="fill:#1D262D;" d="M309.964,471.765c0,2.154-1.495,3.775-3.472,3.775
				c-0.962,0-1.643-0.378-2.109-0.933v3.708h-1.925v-10.133h1.888v0.792c0.467-0.585,1.154-0.984,2.139-0.984
				C308.469,467.99,309.964,469.611,309.964,471.765z M304.286,471.765c0,1.133,0.748,1.977,1.844,1.977
				c1.14,0,1.85-0.881,1.85-1.977c0-1.095-0.71-1.976-1.85-1.976C305.034,469.789,304.286,470.633,304.286,471.765z"/>
			<path id="XMLID_41_" style="fill:#1D262D;" d="M313.068,465.836c0,0.696-0.541,1.229-1.236,1.229
				c-0.696,0-1.229-0.533-1.229-1.229c0-0.695,0.532-1.243,1.229-1.243C312.527,464.593,313.068,465.141,313.068,465.836z
				 M312.808,475.354h-1.932v-7.172h1.932V475.354z"/>
			<path id="XMLID_39_" style="fill:#1D262D;" d="M316.031,470.736l2.702-2.554h2.368l-3.478,3.375l3.501,3.797h-2.376l-2.717-2.901
				v2.901H314.1v-10.658h1.932V470.736z"/>
		</g>
		<g id="XMLID_3_">
			<path id="XMLID_35_" style="fill:#1D262D;" d="M184.412,475.29v-1.055c-0.527,0.718-1.391,1.23-2.387,1.23
				c-1.846,0-3.149-1.406-3.149-3.706c0-2.256,1.289-3.721,3.149-3.721c0.952,0,1.816,0.469,2.387,1.245v-3.765h1.099v9.771H184.412
				z M184.412,473.371v-3.208c-0.395-0.615-1.245-1.143-2.124-1.143c-1.42,0-2.27,1.172-2.27,2.739c0,1.567,0.85,2.725,2.27,2.725
				C183.167,474.484,184.017,473.986,184.412,473.371z"/>
			<path id="XMLID_31_" style="fill:#1D262D;" d="M186.931,471.745c0-2.051,1.465-3.706,3.486-3.706c2.139,0,3.398,1.67,3.398,3.794
				v0.278h-5.727c0.088,1.333,1.025,2.446,2.549,2.446c0.806,0,1.626-0.322,2.182-0.894l0.527,0.718
				c-0.703,0.703-1.655,1.084-2.812,1.084C188.44,475.466,186.931,473.957,186.931,471.745z M190.403,468.947
				c-1.509,0-2.256,1.274-2.314,2.358h4.643C192.717,470.251,192.014,468.947,190.403,468.947z"/>
			<path id="XMLID_29_" style="fill:#1D262D;" d="M194.607,474.353l0.571-0.791c0.469,0.542,1.362,1.011,2.329,1.011
				c1.084,0,1.67-0.513,1.67-1.216c0-1.714-4.38-0.659-4.38-3.281c0-1.099,0.952-2.036,2.636-2.036c1.202,0,2.051,0.454,2.623,1.025
				l-0.513,0.762c-0.424-0.513-1.201-0.893-2.109-0.893c-0.966,0-1.567,0.483-1.567,1.113c0,1.553,4.379,0.527,4.379,3.281
				c0,1.186-0.952,2.139-2.783,2.139C196.306,475.466,195.324,475.114,194.607,474.353z"/>
			<path id="XMLID_26_" style="fill:#1D262D;" d="M201.477,466.472c0-0.41,0.337-0.747,0.732-0.747c0.41,0,0.747,0.337,0.747,0.747
				c0,0.41-0.337,0.732-0.747,0.732C201.814,467.204,201.477,466.882,201.477,466.472z M201.667,475.29v-7.075h1.099v7.075H201.667z
				"/>
			<path id="XMLID_23_" style="fill:#1D262D;" d="M204.582,477.107l0.556-0.82c0.586,0.703,1.289,0.967,2.3,0.967
				c1.172,0,2.27-0.571,2.27-2.124v-1.011c-0.513,0.718-1.377,1.26-2.373,1.26c-1.846,0-3.149-1.377-3.149-3.662
				c0-2.271,1.289-3.677,3.149-3.677c0.952,0,1.802,0.469,2.373,1.245v-1.069h1.099v6.87c0,2.344-1.641,3.076-3.369,3.076
				C206.237,478.161,205.416,477.926,204.582,477.107z M209.708,473.254v-3.091c-0.381-0.615-1.23-1.143-2.109-1.143
				c-1.421,0-2.27,1.128-2.27,2.695c0,1.553,0.849,2.695,2.27,2.695C208.478,474.411,209.327,473.869,209.708,473.254z"/>
			<path id="XMLID_21_" style="fill:#1D262D;" d="M217.413,475.29v-4.629c0-1.245-0.63-1.641-1.582-1.641
				c-0.864,0-1.685,0.527-2.094,1.099v5.171h-1.099v-7.075h1.099v1.025c0.497-0.586,1.464-1.201,2.519-1.201
				c1.479,0,2.256,0.747,2.256,2.285v4.966H217.413z"/>
			<path id="XMLID_16_" style="fill:#1D262D;" d="M219.932,471.745c0-2.051,1.465-3.706,3.486-3.706c2.139,0,3.398,1.67,3.398,3.794
				v0.278h-5.727c0.088,1.333,1.025,2.446,2.548,2.446c0.806,0,1.626-0.322,2.182-0.894l0.527,0.718
				c-0.703,0.703-1.655,1.084-2.813,1.084C221.441,475.466,219.932,473.957,219.932,471.745z M223.403,468.947
				c-1.509,0-2.256,1.274-2.314,2.358h4.643C225.718,470.251,225.015,468.947,223.403,468.947z"/>
			<path id="XMLID_12_" style="fill:#1D262D;" d="M233.35,475.29v-1.055c-0.527,0.718-1.392,1.23-2.388,1.23
				c-1.845,0-3.149-1.406-3.149-3.706c0-2.256,1.289-3.721,3.149-3.721c0.952,0,1.817,0.469,2.388,1.245v-3.765h1.098v9.771H233.35z
				 M233.35,473.371v-3.208c-0.396-0.615-1.245-1.143-2.124-1.143c-1.421,0-2.271,1.172-2.271,2.739c0,1.567,0.85,2.725,2.271,2.725
				C232.105,474.484,232.954,473.986,233.35,473.371z"/>
			<path id="XMLID_4_" style="fill:#1D262D;" d="M239.692,475.29v-9.771h1.099v3.765c0.571-0.776,1.421-1.245,2.388-1.245
				c1.845,0,3.149,1.465,3.149,3.721c0,2.3-1.304,3.706-3.149,3.706c-0.996,0-1.86-0.513-2.388-1.23v1.055H239.692z M242.9,474.484
				c1.436,0,2.285-1.157,2.285-2.725c0-1.567-0.85-2.739-2.285-2.739c-0.864,0-1.729,0.527-2.109,1.143v3.208
				C241.171,473.986,242.035,474.484,242.9,474.484z"/>
			<path id="XMLID_6_" style="fill:#1D262D;" d="M247.528,477.063c0.161,0.073,0.425,0.117,0.601,0.117
				c0.483,0,0.806-0.161,1.055-0.747l0.469-1.069l-2.959-7.148h1.187l2.358,5.801l2.344-5.801h1.2l-3.544,8.511
				c-0.425,1.024-1.143,1.421-2.08,1.436c-0.234,0-0.601-0.044-0.806-0.103L247.528,477.063z"/>
		</g>
	</g>
</g>
</svg>
