<?xml version="1.0" encoding="utf-8"?>
<!-- Generator: Adobe Illustrator 27.5.0, SVG Export Plug-In . SVG Version: 6.00 Build 0)  -->
<svg version="1.1" xmlns="http://www.w3.org/2000/svg" xmlns:xlink="http://www.w3.org/1999/xlink" x="0px" y="0px"
	 viewBox="0 0 500 500" style="enable-background:new 0 0 500 500;" xml:space="preserve">
<g id="BACKGROUND">
	<rect style="fill:#FFFFFF;" width="500" height="500"/>
</g>
<g id="OBJECTS">
	<g>
		<path style="fill:#DF6886;" d="M155.303,231.457c0,0,0.68-15.253-13.177-16.037c-10.245-0.579-23.629,14.153-29.914,21.876
			c5.359-8.395,15.138-25.723,11.371-35.265c-5.096-12.909-19.363-7.474-19.363-7.474s-14.268-5.435-19.364,7.474
			c-3.767,9.543,6.013,26.872,11.372,35.266c-6.285-7.723-19.669-22.457-29.915-21.877c-13.856,0.784-13.177,16.037-13.177,16.037
			s-9.641,11.839,1.014,20.731c7.098,5.923,23.653,3.388,33.922,1.034c-9.696,4.14-24.468,11.787-26.723,20.712
			c-3.4,13.456,11.357,17.373,11.357,17.373s8.41,12.743,20.084,5.238c9.053-5.82,11.007-27.304,11.428-36.662
			c0.421,9.358,2.375,30.842,11.428,36.662c11.674,7.505,20.084-5.238,20.084-5.238s14.757-3.918,11.357-17.373
			c-2.255-8.925-17.027-16.572-26.723-20.712c10.27,2.353,26.825,4.889,33.922-1.034
			C164.944,243.296,155.303,231.457,155.303,231.457z"/>
		<g>
			<g>
				<path style="fill:#FFC9D8;" d="M106,232.741c0-0.983-0.797-1.78-1.78-1.78c-0.983,0-1.78,0.797-1.78,1.78
					c0,0.788,0.515,1.448,1.224,1.683v10.054h1.113v-10.054C105.485,234.189,106,233.529,106,232.741z"/>
				<path style="fill:#FFC9D8;" d="M102.44,265.06c0,0.983,0.797,1.78,1.78,1.78c0.983,0,1.78-0.797,1.78-1.78
					c0-0.788-0.515-1.448-1.224-1.682v-10.055h-1.113v10.055C102.955,263.612,102.44,264.272,102.44,265.06z"/>
				<path style="fill:#FFC9D8;" d="M120.379,250.681c0.983,0,1.78-0.797,1.78-1.78c0-0.983-0.797-1.78-1.78-1.78
					c-0.788,0-1.448,0.515-1.683,1.224h-10.054v1.112h10.054C118.931,250.166,119.591,250.681,120.379,250.681z"/>
				<path style="fill:#FFC9D8;" d="M88.06,247.121c-0.983,0-1.78,0.797-1.78,1.78c0,0.983,0.797,1.78,1.78,1.78
					c0.788,0,1.448-0.515,1.683-1.224h10.054v-1.112H89.743C89.508,247.636,88.848,247.121,88.06,247.121z"/>
				<path style="fill:#FFC9D8;" d="M94.052,236.216c-0.695-0.695-1.822-0.695-2.517,0c-0.695,0.695-0.695,1.822,0,2.517
					c0.557,0.557,1.388,0.66,2.055,0.324l7.11,7.11l0.787-0.787l-7.11-7.11C94.712,237.604,94.609,236.773,94.052,236.216z"/>
				<path style="fill:#FFC9D8;" d="M114.387,261.586c0.695,0.695,1.822,0.695,2.517,0s0.695-1.822,0-2.517
					c-0.557-0.557-1.388-0.66-2.055-0.324l-7.109-7.11l-0.787,0.787l7.11,7.11C113.728,260.198,113.83,261.029,114.387,261.586z"/>
				<path style="fill:#FFC9D8;" d="M116.905,238.733c0.695-0.695,0.695-1.822,0-2.517c-0.695-0.695-1.822-0.695-2.517,0
					c-0.557,0.557-0.66,1.388-0.324,2.055l-7.11,7.11l0.787,0.787l7.109-7.11C115.517,239.393,116.348,239.29,116.905,238.733z"/>
				<path style="fill:#FFC9D8;" d="M91.535,259.068c-0.695,0.695-0.695,1.822,0,2.517c0.695,0.695,1.822,0.695,2.517,0
					c0.557-0.557,0.66-1.388,0.324-2.055l7.11-7.11l-0.787-0.787l-7.11,7.11C92.923,258.409,92.092,258.511,91.535,259.068z"/>
				<path style="fill:#FFC9D8;" d="M112.051,234.654c0.377-0.908-0.055-1.95-0.963-2.326c-0.908-0.376-1.95,0.055-2.326,0.963
					c-0.301,0.727-0.079,1.535,0.486,2.023l-3.85,9.288l1.028,0.426l3.85-9.288C111.021,235.795,111.75,235.382,112.051,234.654z"/>
				<path style="fill:#FFC9D8;" d="M96.388,263.147c-0.376,0.908,0.055,1.949,0.963,2.326c0.908,0.376,1.95-0.055,2.326-0.963
					c0.302-0.728,0.079-1.535-0.486-2.023l3.85-9.288l-1.028-0.426l-3.85,9.288C97.418,262.006,96.69,262.419,96.388,263.147z"/>
				<path style="fill:#FFC9D8;" d="M118.466,256.732c0.908,0.376,1.949-0.055,2.326-0.963c0.376-0.908-0.055-1.95-0.963-2.326
					c-0.728-0.301-1.535-0.079-2.023,0.486l-9.288-3.85l-0.426,1.028l9.288,3.85C117.325,255.702,117.738,256.431,118.466,256.732z"
					/>
				<path style="fill:#FFC9D8;" d="M89.973,241.069c-0.908-0.376-1.949,0.055-2.326,0.963c-0.376,0.908,0.055,1.95,0.963,2.326
					c0.727,0.301,1.535,0.079,2.023-0.486l9.288,3.85l0.426-1.028l-9.288-3.85C91.114,242.099,90.701,241.37,89.973,241.069z"/>
				<path style="fill:#FFC9D8;" d="M99.684,233.289c-0.376-0.908-1.417-1.34-2.326-0.964c-0.908,0.376-1.34,1.417-0.964,2.326
					c0.301,0.728,1.03,1.141,1.774,1.087l3.846,9.29l1.028-0.426l-3.846-9.29C99.762,234.824,99.985,234.017,99.684,233.289z"/>
				<path style="fill:#FFC9D8;" d="M108.755,264.512c0.376,0.908,1.417,1.34,2.326,0.964c0.908-0.376,1.34-1.417,0.964-2.326
					c-0.301-0.728-1.029-1.141-1.774-1.087l-3.845-9.29l-1.028,0.426l3.846,9.29C108.677,262.977,108.454,263.784,108.755,264.512z"
					/>
				<path style="fill:#FFC9D8;" d="M119.831,244.365c0.908-0.376,1.34-1.417,0.964-2.326c-0.376-0.908-1.417-1.34-2.325-0.964
					c-0.728,0.301-1.141,1.03-1.087,1.774l-9.29,3.846l0.425,1.028l9.29-3.846C118.296,244.443,119.103,244.666,119.831,244.365z"/>
				<path style="fill:#FFC9D8;" d="M88.608,253.436c-0.908,0.376-1.34,1.417-0.964,2.326c0.376,0.908,1.417,1.34,2.326,0.964
					c0.728-0.301,1.141-1.03,1.087-1.774l9.29-3.846l-0.425-1.028l-9.29,3.846C90.143,253.358,89.336,253.135,88.608,253.436z"/>
			</g>
			
				<ellipse transform="matrix(0.1606 -0.987 0.987 0.1606 -158.1874 311.7959)" style="fill:#FFC9D8;" cx="104.22" cy="248.901" rx="8.215" ry="8.215"/>
		</g>
	</g>
	<g>
		<g>
			<path style="fill:#9873D3;" d="M431.745,430.133c0.334-3.529-1.868-7.418-5.03-11.087c4.81,0.573,9.266,0.227,12.006-2.022
				c7.555-6.199,4.535-12.858,12.141-17.575c-7.913-4.18-5.361-11.031-13.326-16.694c-2.889-2.054-7.358-2.091-12.117-1.188
				c2.901-3.879,4.83-7.911,4.252-11.408c-1.592-9.642-8.868-10.357-9.15-19.302c-7.577,4.763-12.234-0.873-21.12,3.194
				c-3.223,1.475-5.491,5.327-7.087,9.9c-1.909-4.452-4.436-8.138-7.754-9.387c-9.146-3.443-13.403,2.501-21.29-1.727
				c0.336,8.943-6.873,10.159-7.795,19.888c-0.334,3.529,1.868,7.418,5.03,11.087c-4.81-0.573-9.266-0.227-12.006,2.022
				c-7.554,6.199-4.535,12.858-12.141,17.575c7.913,4.18,5.361,11.031,13.326,16.694c2.889,2.054,7.358,2.092,12.117,1.188
				c-2.901,3.879-4.83,7.911-4.252,11.408c1.592,9.642,8.868,10.357,9.149,19.302c7.577-4.763,12.234,0.873,21.12-3.193
				c3.223-1.475,5.49-5.327,7.087-9.9c1.909,4.452,4.437,8.138,7.754,9.387c9.146,3.443,13.403-2.501,21.29,1.727
				C423.614,441.078,430.823,439.862,431.745,430.133z"/>
			<g>
				<path style="fill:#8052D8;" d="M412.081,366.721c-3.865,2.855-9.355,11.723-14.079,21.654
					c-4.724,9.93-4.391,13.055-4.391,13.055s2.778-1.469,8.375-10.935C407.584,381.029,411.872,371.522,412.081,366.721z"/>
				<path style="fill:#8052D8;" d="M393.611,401.429c-3.865,2.855-9.355,11.723-14.079,21.654
					c-4.724,9.93-4.391,13.055-4.391,13.055s2.778-1.469,8.375-10.935C389.113,415.737,393.402,406.23,393.611,401.429z"/>
			</g>
			<g>
				<path style="fill:#8052D8;" d="M354.317,402.787c4.405,1.92,14.83,2.24,25.792,1.366c10.962-0.874,13.501-2.725,13.501-2.725
					s-2.661-1.671-13.657-1.786C368.957,399.528,358.58,400.568,354.317,402.787z"/>
				<path style="fill:#8052D8;" d="M393.611,401.429c4.405,1.92,14.83,2.24,25.792,1.366c10.962-0.874,13.501-2.725,13.501-2.725
					s-2.661-1.671-13.657-1.786C408.251,398.17,397.873,399.21,393.611,401.429z"/>
			</g>
			<g>
				<path style="fill:#8052D8;" d="M414.434,434.779c-4.053-2.582-10.142-11.049-15.541-20.629
					c-5.399-9.58-5.282-12.721-5.282-12.721s2.873,1.274,9.11,10.33C408.959,420.816,413.894,430.004,414.434,434.779z"/>
				<path style="fill:#8052D8;" d="M393.611,401.429c-4.053-2.582-10.142-11.049-15.541-20.629
					c-5.399-9.58-5.282-12.721-5.282-12.721s2.873,1.274,9.11,10.33C388.136,387.466,393.071,396.654,393.611,401.429z"/>
			</g>
		</g>
		<g>
			<g>
				<path style="fill:#FFC9D8;" d="M395.634,383.06c0-1.118-0.906-2.023-2.023-2.023c-1.117,0-2.023,0.906-2.023,2.023
					c0,0.895,0.585,1.646,1.391,1.913v11.43h1.265v-11.43C395.049,384.706,395.634,383.955,395.634,383.06z"/>
				<path style="fill:#FFC9D8;" d="M391.587,419.798c0,1.118,0.906,2.023,2.023,2.023c1.117,0,2.023-0.906,2.023-2.023
					c0-0.895-0.585-1.646-1.391-1.913v-11.43h-1.265v11.43C392.173,418.152,391.587,418.903,391.587,419.798z"/>
				<path style="fill:#FFC9D8;" d="M411.98,403.453c1.118,0,2.023-0.906,2.023-2.024c0-1.117-0.906-2.023-2.023-2.023
					c-0.895,0-1.646,0.585-1.913,1.391h-11.429v1.265h11.429C410.334,402.867,411.085,403.453,411.98,403.453z"/>
				<path style="fill:#FFC9D8;" d="M375.242,399.406c-1.118,0-2.023,0.906-2.023,2.023c0,1.118,0.906,2.024,2.023,2.024
					c0.895,0,1.646-0.585,1.913-1.391h11.43v-1.265h-11.43C376.888,399.991,376.137,399.406,375.242,399.406z"/>
				<path style="fill:#FFC9D8;" d="M382.053,387.009c-0.79-0.79-2.071-0.79-2.862,0c-0.79,0.79-0.79,2.071,0,2.862
					c0.633,0.633,1.578,0.75,2.336,0.369l8.082,8.082l0.894-0.894l-8.082-8.082C382.803,388.587,382.686,387.642,382.053,387.009z"
					/>
				<path style="fill:#FFC9D8;" d="M405.169,415.849c0.79,0.79,2.071,0.79,2.862,0c0.79-0.79,0.79-2.071,0-2.862
					c-0.633-0.633-1.578-0.75-2.336-0.369l-8.082-8.082l-0.894,0.894l8.082,8.082C404.419,414.271,404.536,415.216,405.169,415.849z
					"/>
				<path style="fill:#FFC9D8;" d="M408.031,389.871c0.79-0.79,0.79-2.071,0-2.862c-0.79-0.79-2.071-0.79-2.862,0
					c-0.633,0.633-0.75,1.578-0.369,2.336l-8.082,8.082l0.894,0.894l8.082-8.082C406.453,390.621,407.398,390.504,408.031,389.871z"
					/>
				<path style="fill:#FFC9D8;" d="M379.191,412.987c-0.79,0.79-0.79,2.071,0,2.862c0.79,0.79,2.071,0.79,2.862,0
					c0.633-0.633,0.75-1.578,0.369-2.336l8.082-8.082l-0.894-0.894l-8.082,8.082C380.769,412.237,379.824,412.354,379.191,412.987z"
					/>
				<path style="fill:#FFC9D8;" d="M402.514,385.234c0.428-1.032-0.062-2.216-1.094-2.644c-1.032-0.428-2.216,0.062-2.644,1.094
					c-0.343,0.827-0.09,1.745,0.553,2.299l-4.376,10.559l1.168,0.484l4.376-10.558C401.343,386.531,402.171,386.061,402.514,385.234
					z"/>
				<path style="fill:#FFC9D8;" d="M384.708,417.624c-0.428,1.032,0.062,2.216,1.094,2.644c1.032,0.428,2.216-0.062,2.644-1.094
					c0.343-0.827,0.09-1.745-0.553-2.3l4.376-10.559l-1.168-0.484l-4.376,10.559C385.879,416.327,385.051,416.797,384.708,417.624z"
					/>
				<path style="fill:#FFC9D8;" d="M409.805,410.332c1.032,0.428,2.216-0.062,2.644-1.094c0.428-1.032-0.062-2.216-1.094-2.644
					c-0.827-0.343-1.745-0.09-2.3,0.553l-10.558-4.376l-0.484,1.168l10.559,4.376C408.509,409.161,408.978,409.989,409.805,410.332z
					"/>
				<path style="fill:#FFC9D8;" d="M377.416,392.526c-1.032-0.428-2.216,0.062-2.644,1.094c-0.428,1.032,0.062,2.216,1.094,2.644
					c0.827,0.343,1.745,0.09,2.3-0.553l10.558,4.376l0.484-1.168l-10.559-4.376C378.713,393.697,378.243,392.869,377.416,392.526z"
					/>
				<path style="fill:#FFC9D8;" d="M388.455,383.683c-0.427-1.033-1.611-1.523-2.643-1.096c-1.033,0.427-1.523,1.611-1.096,2.643
					c0.342,0.827,1.17,1.297,2.017,1.235l4.371,10.56l1.168-0.484l-4.371-10.56C388.544,385.427,388.797,384.51,388.455,383.683z"/>
				<path style="fill:#FFC9D8;" d="M398.767,419.175c0.427,1.033,1.611,1.523,2.643,1.096c1.033-0.427,1.523-1.611,1.096-2.643
					c-0.342-0.827-1.17-1.297-2.017-1.235l-4.371-10.56l-1.169,0.484l4.371,10.56C398.678,417.431,398.425,418.348,398.767,419.175z
					"/>
				<path style="fill:#FFC9D8;" d="M411.357,396.273c1.033-0.428,1.523-1.611,1.096-2.644c-0.427-1.033-1.611-1.523-2.643-1.096
					c-0.827,0.342-1.297,1.17-1.235,2.017l-10.56,4.371l0.484,1.169l10.56-4.371C409.613,396.362,410.53,396.615,411.357,396.273z"
					/>
				<path style="fill:#FFC9D8;" d="M375.865,406.585c-1.033,0.428-1.523,1.611-1.096,2.644c0.427,1.032,1.611,1.523,2.643,1.096
					c0.827-0.342,1.297-1.17,1.235-2.017l10.561-4.371l-0.484-1.169l-10.56,4.371C377.609,406.496,376.692,406.243,375.865,406.585z
					"/>
			</g>
			<circle style="fill:#FFC9D8;" cx="393.611" cy="401.429" r="9.339"/>
		</g>
	</g>
	<g>
		<path style="fill:#FFC9D8;" d="M304.354,382.367c-4.74,0.18-11.132-1.084-11.132-1.084s4.523-4.69,8.515-7.251
			c-8.158-4.041-32.37-6.491-51.031,14.458c14.891-24.293,5.197-46.96-1.151-53.585c-1.248,4.576-4.368,10.296-4.368,10.296
			s-3.12-5.72-4.368-10.296c-6.348,6.625-16.042,29.291-1.151,53.584c-18.661-20.948-42.873-18.499-51.031-14.458
			c3.992,2.561,8.515,7.251,8.515,7.251s-6.392,1.264-11.131,1.084c4.354,7.922,22.593,23.608,49.563,17.439
			c-25.207,12.065-29.62,35.917-28.03,44.863c3.577-3.114,9.347-6.142,9.347-6.142s-0.578,6.49-2.079,10.989
			c8.34-1.852,26.811-13.664,30.198-38.267c2.957,24.447,21.025,36.573,29.283,38.603c-1.399-4.532-1.831-11.033-1.831-11.033
			s5.7,3.157,9.206,6.351c1.783-8.868-2.045-32.641-26.674-45.316C281.857,405.893,300.011,390.269,304.354,382.367z"/>
		<g>
			<path style="fill:#F9E1DF;" d="M247.355,376.139c0-1.197-0.971-2.168-2.168-2.168c-1.197,0-2.168,0.971-2.168,2.168
				c0,0.959,0.627,1.763,1.49,2.049v12.245h1.355v-12.245C246.727,377.902,247.355,377.098,247.355,376.139z"/>
			<path style="fill:#F9E1DF;" d="M243.019,415.498c0,1.197,0.971,2.168,2.168,2.168c1.197,0,2.168-0.97,2.168-2.168
				c0-0.959-0.627-1.763-1.49-2.049v-12.245h-1.355v12.245C243.646,413.735,243.019,414.539,243.019,415.498z"/>
			<path style="fill:#F9E1DF;" d="M264.866,397.986c1.197,0,2.168-0.97,2.168-2.168c0-1.197-0.97-2.168-2.168-2.168
				c-0.959,0-1.764,0.627-2.049,1.49h-12.245v1.355h12.245C263.103,397.359,263.907,397.986,264.866,397.986z"/>
			<path style="fill:#F9E1DF;" d="M225.507,393.651c-1.197,0-2.168,0.97-2.168,2.168c0,1.197,0.971,2.168,2.168,2.168
				c0.959,0,1.763-0.627,2.049-1.49h12.245v-1.355h-12.245C227.271,394.278,226.466,393.651,225.507,393.651z"/>
			<path style="fill:#F9E1DF;" d="M232.804,380.37c-0.847-0.847-2.219-0.847-3.066,0c-0.846,0.847-0.847,2.219,0,3.066
				c0.678,0.678,1.69,0.803,2.503,0.395l8.658,8.658l0.958-0.958l-8.658-8.658C233.608,382.061,233.482,381.048,232.804,380.37z"/>
			<path style="fill:#F9E1DF;" d="M257.569,411.267c0.847,0.847,2.219,0.847,3.066,0c0.846-0.846,0.847-2.219,0-3.066
				c-0.678-0.678-1.69-0.804-2.503-0.395l-8.658-8.658l-0.958,0.958l8.658,8.658C256.766,409.577,256.891,410.589,257.569,411.267z"
				/>
			<path style="fill:#F9E1DF;" d="M260.635,383.436c0.847-0.847,0.847-2.219,0-3.066c-0.847-0.846-2.219-0.847-3.066,0
				c-0.678,0.678-0.803,1.69-0.395,2.503l-8.658,8.658l0.958,0.958l8.658-8.658C258.945,384.239,259.957,384.114,260.635,383.436z"
				/>
			<path style="fill:#F9E1DF;" d="M229.738,408.201c-0.847,0.847-0.847,2.219,0,3.066c0.847,0.846,2.219,0.847,3.066,0
				c0.678-0.678,0.804-1.69,0.395-2.503l8.658-8.658l-0.958-0.958l-8.658,8.658C231.429,407.398,230.417,407.523,229.738,408.201z"
				/>
			<path style="fill:#F9E1DF;" d="M252.724,382.108c0.362-0.874-0.053-1.876-0.927-2.239c-0.874-0.362-1.876,0.053-2.238,0.927
				c-0.29,0.7-0.076,1.477,0.468,1.947l-3.705,8.939l0.989,0.41l3.705-8.939C251.733,383.205,252.434,382.808,252.724,382.108z"/>
			<path style="fill:#F9E1DF;" d="M237.649,409.53c-0.362,0.874,0.053,1.876,0.927,2.238c0.874,0.362,1.876-0.052,2.238-0.927
				c0.29-0.7,0.076-1.477-0.468-1.947l3.705-8.939l-0.989-0.41l-3.705,8.939C238.641,408.432,237.94,408.829,237.649,409.53z"/>
			<path style="fill:#F9E1DF;" d="M258.898,403.356c0.874,0.362,1.876-0.053,2.238-0.927c0.362-0.874-0.053-1.876-0.927-2.238
				c-0.7-0.29-1.477-0.076-1.947,0.468l-8.939-3.705l-0.41,0.989l8.939,3.705C257.8,402.365,258.198,403.066,258.898,403.356z"/>
			<path style="fill:#F9E1DF;" d="M231.476,388.281c-0.874-0.362-1.876,0.053-2.238,0.927c-0.362,0.874,0.052,1.876,0.927,2.238
				c0.7,0.29,1.477,0.076,1.947-0.468l8.939,3.705l0.41-0.989l-8.939-3.705C232.573,389.272,232.176,388.571,231.476,388.281z"/>
			<path style="fill:#F9E1DF;" d="M240.822,380.794c-0.362-0.874-1.364-1.29-2.238-0.928c-0.874,0.362-1.29,1.364-0.928,2.238
				c0.29,0.7,0.991,1.098,1.708,1.046l3.701,8.941l0.989-0.409l-3.701-8.941C240.897,382.271,241.111,381.494,240.822,380.794z"/>
			<path style="fill:#F9E1DF;" d="M249.552,410.843c0.362,0.874,1.364,1.29,2.238,0.928c0.874-0.362,1.29-1.364,0.928-2.238
				c-0.29-0.7-0.991-1.098-1.708-1.046l-3.701-8.941l-0.989,0.41l3.701,8.941C249.477,409.366,249.262,410.143,249.552,410.843z"/>
			<path style="fill:#F9E1DF;" d="M260.212,391.453c0.874-0.362,1.29-1.364,0.928-2.238c-0.362-0.874-1.364-1.29-2.238-0.928
				c-0.7,0.29-1.098,0.991-1.046,1.708l-8.941,3.701l0.41,0.989l8.941-3.701C258.735,391.528,259.511,391.743,260.212,391.453z"/>
			<path style="fill:#F9E1DF;" d="M230.162,400.184c-0.874,0.362-1.29,1.364-0.928,2.238c0.362,0.874,1.364,1.289,2.238,0.928
				c0.7-0.29,1.098-0.991,1.046-1.708l8.941-3.701l-0.41-0.989l-8.941,3.701C231.639,400.109,230.862,399.894,230.162,400.184z"/>
			<circle style="fill:#F9E1DF;" cx="245.187" cy="395.819" r="10.005"/>
		</g>
	</g>
	<g>
		<path style="fill:#FFF6AC;" d="M147.24,76.756c-4.36-1.255-9.477-1.663-14.77,0.177c-5.411,1.881-10.604,4.445-14.998,7.537
			c1.725-5.577,2.524-11.91,2.44-18.221c-0.075-5.603-2.203-10.274-4.869-13.945c-5.313-7.314-16.333-7.314-21.647,0
			c-2.666,3.67-4.795,8.342-4.87,13.945c-0.084,6.311,0.716,12.644,2.44,18.221c-4.394-3.092-9.587-5.656-14.998-7.537
			c-5.292-1.84-10.41-1.432-14.77-0.177c-8.687,2.501-12.445,12.861-7.381,20.349c2.541,3.758,6.207,7.352,11.449,9.332
			c5.888,2.225,12.096,3.63,17.913,3.916c-4.857,3.634-9.374,8.581-13.088,14.046c-3.15,4.634-4.083,9.682-4.002,14.218
			c0.162,9.039,9.193,15.354,17.739,12.406c4.289-1.48,8.71-4.088,11.982-8.637c3.662-5.09,6.621-10.699,8.408-16.223
			c1.787,5.524,4.746,11.133,8.408,16.223c3.272,4.549,7.694,7.157,11.982,8.637c8.546,2.948,17.576-3.367,17.739-12.406
			c0.081-4.536-0.852-9.584-4.001-14.218c-3.714-5.465-8.231-10.412-13.089-14.046c5.817-0.286,12.025-1.691,17.913-3.916
			c5.242-1.981,8.908-5.574,11.449-9.332C159.685,89.616,155.927,79.257,147.24,76.756z"/>
		<path style="fill:#F1C47C;" d="M109.22,103.559c0-0.198-0.037-0.386-0.058-0.579c7.529-2.683,27.523-9.959,32.683-13.36
			c-6.169,0.701-26.342,8.001-33.757,10.739c-0.629-0.796-1.48-1.394-2.466-1.713c0.049-5.466,0.185-30.655-1.401-37.283
			c-1.575,6.581-1.452,31.468-1.402,37.169c-1.099,0.265-2.048,0.882-2.749,1.723c-7.626-2.813-27.38-9.942-33.474-10.635
			c5.081,3.349,24.543,10.454,32.325,13.233c-0.032,0.233-0.071,0.464-0.071,0.706c0,1.243,0.455,2.368,1.184,3.261
			c-4.188,5.902-17.185,24.432-19.534,30.392c4.791-4.251,17.736-22.812,21.844-28.773c0.533,0.185,1.096,0.306,1.692,0.306
			c0.708,0,1.382-0.144,1.997-0.401c4.038,5.861,17.093,24.595,21.909,28.868c-2.382-6.042-15.711-25.01-19.705-30.633
			C108.849,105.727,109.22,104.689,109.22,103.559z"/>
	</g>
	<g>
		<path style="fill:#FFDEA2;" d="M299.324,99.287c-0.072-4.17-3.765-7.344-7.898-6.789l-23.717,2.343l22.828-6.846
			c4.035-1.057,6.245-5.396,4.726-9.281c-1.651-3.83-6.273-5.363-9.886-3.278l-21.639,11.494l18.945-15.539
			c3.316-2.53,3.683-7.386,0.785-10.385c-2.999-2.898-7.855-2.531-10.385,0.785l-15.114,18.427l11.301-20.982
			c2.106-3.6,0.6-8.231-3.221-9.904c-3.876-1.541-8.228,0.644-9.308,4.672l-7.174,23.429l2.408-24.384
			c0.556-4.134-2.618-7.827-6.789-7.898c-4.17,0.072-7.344,3.765-6.789,7.898l2.343,23.716l-6.846-22.828
			c-1.057-4.035-5.396-6.245-9.281-4.726c-3.83,1.651-5.363,6.273-3.278,9.886l11.494,21.639l-15.539-18.945
			c-2.53-3.316-7.386-3.683-10.385-0.785c-2.898,2.999-2.531,7.855,0.785,10.385l18.427,15.114l-20.982-11.301
			c-3.6-2.106-8.231-0.6-9.904,3.221c-1.541,3.876,0.644,8.228,4.672,9.308l23.428,7.174l-24.384-2.409
			c-4.134-0.556-7.827,2.618-7.898,6.789c0.072,4.17,3.765,7.344,7.898,6.789l23.717-2.343l-22.828,6.846
			c-4.035,1.057-6.245,5.396-4.726,9.281c1.651,3.83,6.273,5.363,9.886,3.278l21.639-11.494l-18.945,15.539
			c-3.316,2.53-3.683,7.386-0.785,10.385c2.999,2.898,7.855,2.531,10.385-0.785l15.114-18.426l-11.301,20.982
			c-2.106,3.6-0.6,8.231,3.221,9.904c3.876,1.541,8.228-0.644,9.308-4.672l7.174-23.429l-2.409,24.384
			c-0.556,4.134,2.618,7.827,6.789,7.898c4.17-0.072,7.344-3.765,6.789-7.898l-2.342-23.717l6.846,22.828
			c1.057,4.035,5.396,6.245,9.281,4.726c3.83-1.651,5.363-6.273,3.278-9.886l-11.494-21.639l15.539,18.945
			c2.53,3.316,7.386,3.683,10.385,0.785c2.898-2.999,2.531-7.855-0.785-10.385l-18.427-15.114l20.982,11.301
			c3.6,2.106,8.231,0.6,9.904-3.221c1.541-3.876-0.644-8.228-4.672-9.308l-23.428-7.174l24.383,2.409
			C295.559,106.632,299.253,103.458,299.324,99.287z"/>
		
			<ellipse transform="matrix(0.232 -0.9727 0.9727 0.232 91.7331 314.7557)" style="fill:#E29437;" cx="245.187" cy="99.287" rx="22.277" ry="22.277"/>
		<path style="fill:#F9AC42;" d="M245.187,77.011c-11.493,0-20.947,8.705-22.143,19.881c1.196,11.175,10.651,19.881,22.143,19.881
			s20.948-8.705,22.143-19.881C266.134,85.716,256.68,77.011,245.187,77.011z"/>
	</g>
	<g>
		<path style="fill:#FF998D;" d="M280.967,216.639c-3.38-0.856-7.005-1.032-10.667,0.018c-0.645,0.185-1.27,0.417-1.886,0.671
			c0.268-2.051,0.248-4.123-0.153-6.166c-0.732-3.738-2.541-6.886-4.841-9.505c-9.756-11.107-26.71-11.107-36.467,0
			c-2.301,2.619-4.109,5.767-4.841,9.505c-0.4,2.043-0.421,4.114-0.153,6.166c-0.615-0.253-1.24-0.486-1.886-0.671
			c-3.662-1.05-7.288-0.873-10.667-0.018c-14.331,3.629-22.051,18.723-16.604,32.467c1.285,3.241,3.264,6.284,6.258,8.639
			c2.307,1.813,5.001,2.995,7.864,3.666c-1.314,1.408-2.427,2.983-3.266,4.732c-1.648,3.435-2.08,7.039-1.801,10.514
			c1.18,14.736,14.771,24.872,29.232,21.801c3.41-0.724,6.742-2.166,9.564-4.725c1.859-1.686,3.306-3.731,4.402-5.983
			c1.096,2.252,2.543,4.297,4.402,5.983c2.822,2.559,6.154,4.001,9.564,4.725c14.461,3.071,28.052-7.065,29.232-21.801
			c0.278-3.475-0.154-7.079-1.802-10.514c-0.829-1.729-1.926-3.29-3.22-4.685c2.944-0.662,5.717-1.854,8.081-3.712
			c2.995-2.354,4.974-5.398,6.258-8.639C303.018,235.363,295.298,220.268,280.967,216.639z"/>
		<g>
			<g>
				<path style="fill:#CE685C;" d="M245.187,236.557c0,0,1.796-18.588,0-29.807C243.391,217.969,245.187,236.557,245.187,236.557z"
					/>
				<path style="fill:#CE685C;" d="M246.713,237.282c0,0,5.207-15.503,5.516-25.722
					C248.385,220.704,246.713,237.282,246.713,237.282z"/>
				<path style="fill:#CE685C;" d="M247.549,240.059c0,0,7.519-14.092,9.406-24.068C251.76,224.133,247.549,240.059,247.549,240.059
					z"/>
				<path style="fill:#CE685C;" d="M243.661,237.282c0,0-1.672-16.578-5.516-25.722
					C238.454,221.779,243.661,237.282,243.661,237.282z"/>
				<path style="fill:#CE685C;" d="M242.825,240.059c0,0-4.212-15.926-9.406-24.068
					C235.306,225.967,242.825,240.059,242.825,240.059z"/>
			</g>
		</g>
		<g>
			<g>
				<path style="fill:#CE685C;" d="M254.396,246.401c0,0,18.047-4.803,27.933-10.4C271.189,238.232,254.396,246.401,254.396,246.401
					z"/>
				<path style="fill:#CE685C;" d="M254.249,248.084c0,0,16.346-0.529,26.03-3.806C270.369,243.866,254.249,248.084,254.249,248.084
					z"/>
				<path style="fill:#CE685C;" d="M251.939,249.836c0,0,15.83,2.13,25.837,0.417C268.333,248.226,251.939,249.836,251.939,249.836z
					"/>
				<path style="fill:#CE685C;" d="M253.184,245.224c0,0,14.953-7.351,22.181-14.144
					C265.896,234.935,253.184,245.224,253.184,245.224z"/>
				<path style="fill:#CE685C;" d="M250.29,245.409c0,0,13.456-9.504,19.274-17.213C260.874,233.445,250.29,245.409,250.29,245.409z
					"/>
			</g>
		</g>
		<g>
			<g>
				<path style="fill:#CE685C;" d="M250.788,259.114c0,0,10.776,15.252,19.462,22.576
					C264.285,272.02,250.788,259.114,250.788,259.114z"/>
				<path style="fill:#CE685C;" d="M249.159,259.561c0,0,6.178,15.142,12.617,23.083
					C258.717,273.21,249.159,259.561,249.159,259.561z"/>
				<path style="fill:#CE685C;" d="M246.713,258.004c0,0,3.506,15.583,8.591,24.371
					C253.921,272.817,246.713,258.004,246.713,258.004z"/>
				<path style="fill:#CE685C;" d="M251.47,257.569c0,0,12.091,11.465,20.972,15.881C265.536,265.911,251.47,257.569,251.47,257.569
					z"/>
				<path style="fill:#CE685C;" d="M250.29,254.92c0,0,13.589,9.313,22.839,12.088C265.187,260.684,250.29,254.92,250.29,254.92z"/>
			</g>
		</g>
		<g>
			<g>
				<path style="fill:#CE685C;" d="M236.155,246.401c0,0-18.047-4.803-27.933-10.4C219.362,238.232,236.155,246.401,236.155,246.401
					z"/>
				<path style="fill:#CE685C;" d="M236.302,248.084c0,0-16.346-0.529-26.03-3.806C220.182,243.866,236.302,248.084,236.302,248.084
					z"/>
				<path style="fill:#CE685C;" d="M238.612,249.836c0,0-15.83,2.13-25.837,0.417C222.217,248.226,238.612,249.836,238.612,249.836z
					"/>
				<path style="fill:#CE685C;" d="M237.367,245.224c0,0-14.953-7.351-22.181-14.144
					C224.655,234.935,237.367,245.224,237.367,245.224z"/>
				<path style="fill:#CE685C;" d="M240.26,245.409c0,0-13.456-9.504-19.274-17.213C229.677,233.445,240.26,245.409,240.26,245.409z
					"/>
			</g>
		</g>
		<g>
			<g>
				<path style="fill:#CE685C;" d="M239.763,259.114c0,0-10.776,15.252-19.462,22.576
					C226.266,272.02,239.763,259.114,239.763,259.114z"/>
				<path style="fill:#CE685C;" d="M241.392,259.561c0,0-6.178,15.142-12.617,23.083
					C231.834,273.21,241.392,259.561,241.392,259.561z"/>
				<path style="fill:#CE685C;" d="M243.838,258.004c0,0-3.506,15.583-8.591,24.371C236.63,272.817,243.838,258.004,243.838,258.004
					z"/>
				<path style="fill:#CE685C;" d="M239.081,257.569c0,0-12.091,11.465-20.972,15.881
					C225.015,265.911,239.081,257.569,239.081,257.569z"/>
				<path style="fill:#CE685C;" d="M240.26,254.92c0,0-13.589,9.313-22.839,12.088C225.364,260.684,240.26,254.92,240.26,254.92z"/>
			</g>
		</g>
		<circle style="fill:#FBC751;" cx="245.187" cy="249.23" r="13.975"/>
	</g>
	<g>
		<path style="fill:#E35764;" d="M433.117,206.661c-15.422-4.043-32.44,9.9-38.01,31.145c-0.738,2.814-1.221,5.611-1.497,8.362
			c2.751-0.275,5.548-0.759,8.362-1.497C423.217,239.1,437.161,222.083,433.117,206.661z"/>
		<path style="fill:#E35764;" d="M354.104,285.673c15.422,4.043,32.44-9.9,38.01-31.145c0.738-2.814,1.221-5.611,1.497-8.362
			c-2.751,0.275-5.548,0.759-8.362,1.497C364.005,253.234,350.061,270.251,354.104,285.673z"/>
		<path style="fill:#E35764;" d="M433.117,285.673c4.044-15.422-9.9-32.44-31.144-38.01c-2.814-0.738-5.611-1.221-8.362-1.497
			c0.275,2.751,0.759,5.548,1.497,8.362C400.677,275.773,417.695,289.717,433.117,285.673z"/>
		<path style="fill:#E35764;" d="M354.104,206.661c-4.043,15.422,9.9,32.44,31.145,38.01c2.814,0.738,5.611,1.221,8.362,1.497
			c-0.275-2.751-0.759-5.548-1.497-8.362C386.544,216.561,369.527,202.617,354.104,206.661z"/>
		<path style="fill:#E48C98;" d="M393.611,190.296c-13.764,8.046-15.938,29.939-4.854,48.899c1.468,2.511,3.104,4.831,4.854,6.971
			c1.751-2.14,3.386-4.46,4.854-6.971C409.549,220.236,407.375,198.343,393.611,190.296z"/>
		<path style="fill:#E48C98;" d="M393.611,302.038c13.764-8.046,15.938-29.939,4.854-48.899c-1.468-2.511-3.104-4.831-4.854-6.971
			c-1.751,2.14-3.386,4.46-4.854,6.971C377.673,272.098,379.846,293.991,393.611,302.038z"/>
		<path style="fill:#E48C98;" d="M449.482,246.167c-8.046-13.765-29.939-15.938-48.9-4.854c-2.511,1.468-4.831,3.104-6.971,4.854
			c2.14,1.75,4.46,3.386,6.971,4.854C419.542,262.105,441.435,259.931,449.482,246.167z"/>
		<path style="fill:#E48C98;" d="M337.74,246.167c8.046,13.764,29.939,15.938,48.9,4.854c2.511-1.468,4.831-3.104,6.971-4.854
			c-2.14-1.751-4.46-3.386-6.971-4.854C367.679,230.229,345.786,232.402,337.74,246.167z"/>
		
			<ellipse transform="matrix(0.2779 -0.9606 0.9606 0.2779 44.5673 558.8659)" style="fill:#FBB232;" cx="393.996" cy="249.79" rx="14.713" ry="14.713"/>
	</g>
	<g>
		<path style="fill:#F6DA69;" d="M393.611,45.15c-6.501,0-26.388,16.062-19.313,35.184c5.937,16.045,19.313,21.416,19.313,21.416
			s13.376-5.371,19.313-21.416C419.999,61.212,400.112,45.15,393.611,45.15z"/>
		<path style="fill:#F6DA69;" d="M449.593,83.57c-2.26-6.096-24.234-19.158-39.703-5.876c-12.98,11.144-13.366,25.553-13.366,25.553
			s9.686,10.675,26.794,10.663C443.706,113.896,451.853,89.666,449.593,83.57z"/>
		<path style="fill:#FBB232;" d="M409.89,77.693c-9.198,7.897-12.062,17.409-12.956,22.296c4.356-2.675,11.92-8.656,15.99-19.655
			c0.709-1.915,1.136-3.798,1.344-5.638C412.768,75.494,411.301,76.482,409.89,77.693z"/>
		<path style="fill:#F6DA69;" d="M337.629,83.57c2.26-6.096,24.234-19.158,39.703-5.876c12.98,11.144,13.366,25.553,13.366,25.553
			s-9.686,10.675-26.794,10.663C343.515,113.896,335.369,89.666,337.629,83.57z"/>
		<path style="fill:#FBB232;" d="M377.332,77.693c-1.411-1.212-2.878-2.199-4.378-2.998c0.208,1.841,0.635,3.723,1.344,5.638
			c4.07,11,11.634,16.98,15.99,19.655C389.394,95.103,386.53,85.591,377.332,77.693z"/>
		<path style="fill:#F6DA69;" d="M429.511,151.551c5.186-3.92,11.365-28.725-5.809-39.713c-14.411-9.22-28.321-5.439-28.321-5.439
			s-7.432,12.351-2.493,28.73C398.775,154.649,424.324,155.471,429.511,151.551z"/>
		<path style="fill:#FBB232;" d="M399.367,105.779c4.035,3.156,12.256,8.139,23.951,8.131c1.008-0.001,1.978-0.076,2.927-0.19
			c-0.788-0.661-1.626-1.295-2.544-1.882C413.987,105.622,404.518,105.319,399.367,105.779z"/>
		<path style="fill:#F6DA69;" d="M357.711,151.551c-5.186-3.92-11.365-28.725,5.809-39.713c14.411-9.22,28.321-5.439,28.321-5.439
			s7.432,12.351,2.493,28.73C388.447,154.649,362.898,155.471,357.711,151.551z"/>
		<path style="fill:#FBB232;" d="M392.888,135.129c0.213,0.708,0.46,1.384,0.723,2.043c0.263-0.659,0.509-1.335,0.723-2.043
			c3.279-10.872,1.109-19.943-0.723-24.831C391.78,115.186,389.61,124.257,392.888,135.129z"/>
		<path style="fill:#FBB232;" d="M363.521,111.838c-0.918,0.587-1.755,1.221-2.544,1.882c0.949,0.114,1.919,0.19,2.927,0.19
			c11.695,0.008,19.916-4.975,23.951-8.131C382.703,105.319,373.235,105.622,363.521,111.838z"/>
		<circle style="fill:#C5570C;" cx="394.471" cy="103.567" r="11.569"/>
	</g>
	<g>
		<g>
			<path style="fill:#F16A44;" d="M138.635,367.014c-1.636-23.614-23.317-20.454-30.98,3.693
				c-1.756,5.534-3.278,18.898-2.169,22.412l4.341,2.703l2.703,4.341c3.515,1.109,16.878-0.412,22.412-2.169
				C159.089,390.331,162.249,368.65,138.635,367.014z"/>
			<path style="fill:#F16A44;" d="M69.805,435.844c1.636,23.614,23.316,20.454,30.98-3.693c1.756-5.534,3.278-18.898,2.169-22.412
				l-4.341-2.703l-2.703-4.341c-3.514-1.109-16.878,0.413-22.412,2.169C49.35,412.527,46.191,434.208,69.805,435.844z"/>
			<path style="fill:#F16A44;" d="M138.635,435.844c23.614-1.636,20.455-23.316-3.693-30.98c-5.534-1.756-18.898-3.278-22.412-2.169
				l-2.703,4.341l-4.341,2.703c-1.109,3.515,0.412,16.878,2.169,22.412C115.318,456.298,136.999,459.458,138.635,435.844z"/>
			<path style="fill:#F16A44;" d="M69.805,367.014c-23.614,1.636-20.454,23.316,3.693,30.98c5.534,1.756,18.898,3.278,22.412,2.169
				l2.703-4.341l4.341-2.703c1.109-3.515-0.412-16.878-2.169-22.412C93.121,346.56,71.441,343.4,69.805,367.014z"/>
		</g>
		<circle style="fill:#F6DA69;" cx="104.22" cy="401.429" r="14.518"/>
	</g>
</g>
<g id="DESIGNED_BY_FREEPIK">
	<g>
		<g id="XMLID_319_">
			<g id="XMLID_338_">
				<path id="XMLID_346_" style="fill:#9FB8C8;" d="M261.442,464.892c-0.49,0.502-0.91,1.054-1.255,1.646l-0.527-0.273
					c-0.076-0.337-0.396-0.569-0.746-0.528c-0.375,0.044-0.643,0.384-0.599,0.759c0.044,0.375,0.384,0.643,0.758,0.599
					c0.074-0.009,0.144-0.029,0.208-0.059l0.511,0.265c-0.284,0.627-0.49,1.289-0.611,1.975l0.845,0.149
					c0.26-1.479,0.962-2.839,2.029-3.932L261.442,464.892z"/>
				<path id="XMLID_345_" style="fill:#9FB8C8;" d="M267.656,462.285c-0.194,0-0.386,0.007-0.577,0.019l-0.083-0.709
					c0.212-0.169,0.335-0.44,0.301-0.73c-0.052-0.445-0.456-0.763-0.901-0.711c-0.445,0.052-0.763,0.455-0.711,0.901
					c0.034,0.288,0.214,0.522,0.458,0.638l0.083,0.707c-0.808,0.132-1.589,0.376-2.332,0.732l0.37,0.774
					c1.058-0.506,2.199-0.762,3.392-0.762c0.562,0,1.124,0.06,1.67,0.178l0.182-0.839
					C268.903,462.352,268.279,462.285,267.656,462.285z"/>
				<path id="XMLID_344_" style="fill:#9FB8C8;" d="M275.133,465.17c0.375-0.046,0.641-0.387,0.595-0.761
					c-0.046-0.375-0.387-0.641-0.761-0.595c-0.35,0.043-0.606,0.344-0.6,0.689l-0.471,0.411c-0.473-0.487-1.007-0.92-1.594-1.29
					l-0.458,0.726c1.284,0.809,2.288,1.955,2.903,3.313l0.782-0.354c-0.284-0.627-0.643-1.214-1.067-1.75l0.455-0.397
					C274.986,465.175,275.059,465.179,275.133,465.17z"/>
				<path id="XMLID_343_" style="fill:#9FB8C8;" d="M267.036,473.845c-0.437,0.026-0.878,0.039-1.31,0.039
					c-0.997,0-1.962-0.069-2.807-0.203c-0.442-0.07-0.958-0.176-1.438-0.331c1.185,2.107,3.476,3.539,6.102,3.539
					c3.233,0,5.959-2.17,6.737-5.1c-0.772,0.509-1.705,0.935-2.784,1.271C270.201,473.478,268.643,473.749,267.036,473.845z"/>
				<path id="XMLID_339_" style="fill:#9FB8C8;" d="M267.656,464.002c-3.796,0-6.884,3.019-6.884,6.73
					c0,0.482,0.052,0.962,0.155,1.428c0.763,0.547,3.064,1.008,6.055,0.828c3.261-0.196,5.998-1.084,7.556-2.444
					c-0.006-0.221-0.023-0.442-0.051-0.659C274.056,466.531,271.12,464.002,267.656,464.002z M265.211,471.38
					c-1.155,0-2.095-0.94-2.095-2.095c0-1.155,0.94-2.095,2.095-2.095c1.155,0,2.095,0.94,2.095,2.095
					C267.306,470.44,266.366,471.38,265.211,471.38z M270.576,470.351c-0.849,0-1.54-0.691-1.54-1.54
					c0-0.849,0.691-1.541,1.54-1.541c0.849,0,1.541,0.691,1.541,1.541C272.116,469.66,271.425,470.351,270.576,470.351z"/>
			</g>
			<path id="XMLID_336_" style="fill:#9FB8C8;" d="M285.779,466.116c-0.334-0.131-0.912-0.35-1.565-0.269
				c-0.624,0.078-0.956,0.386-0.956,1.14v0.981h2.523v1.945h-2.523v6.177h-2.188v-6.177h-1.517v-1.945h1.517v-1.006
				c0-1.902,1.014-3.151,2.908-3.151c0.728,0,1.31,0.138,1.8,0.349L285.779,466.116z"/>
			<path id="XMLID_334_" style="fill:#9FB8C8;" d="M291.104,469.89c-0.2-0.034-0.405-0.052-0.596-0.052
				c-1.014,0-1.71,0.62-1.71,1.827v4.425h-2.188v-8.122h2.12v0.888c0.511-0.763,1.291-1.106,2.288-1.106
				c0.469,0,0.96,0.144,1.239,0.381L291.104,469.89z"/>
			<path id="XMLID_331_" style="fill:#9FB8C8;" d="M299.786,472.017c0,0.251-0.017,0.553-0.042,0.738h-5.758
				c0.235,1.173,1.056,1.685,2.087,1.685c0.704,0,1.467-0.285,2.053-0.779l1.282,1.408c-0.922,0.846-2.095,1.232-3.461,1.232
				c-2.489,0-4.216-1.693-4.216-4.249c0-2.556,1.676-4.3,4.107-4.3C298.177,467.75,299.778,469.485,299.786,472.017z
				 M293.995,471.262h3.595c-0.201-1.039-0.83-1.626-1.768-1.626C294.791,469.636,294.187,470.257,293.995,471.262z"/>
			<path id="XMLID_328_" style="fill:#9FB8C8;" d="M308.453,472.017c0,0.251-0.017,0.553-0.042,0.738h-5.758
				c0.235,1.173,1.056,1.685,2.087,1.685c0.704,0,1.467-0.285,2.053-0.779l1.282,1.408c-0.922,0.846-2.095,1.232-3.461,1.232
				c-2.489,0-4.216-1.693-4.216-4.249c0-2.556,1.676-4.3,4.107-4.3C306.843,467.75,308.444,469.485,308.453,472.017z
				 M302.661,471.262h3.596c-0.201-1.039-0.83-1.626-1.768-1.626C303.457,469.636,302.854,470.257,302.661,471.262z"/>
			<path id="XMLID_325_" style="fill:#9FB8C8;" d="M317.903,472.025c0,2.439-1.693,4.275-3.931,4.275
				c-1.09,0-1.861-0.428-2.389-1.056v4.199h-2.179v-11.474h2.137v0.897c0.528-0.662,1.307-1.115,2.422-1.115
				C316.21,467.75,317.903,469.586,317.903,472.025z M311.475,472.025c0,1.282,0.846,2.238,2.087,2.238
				c1.291,0,2.095-0.997,2.095-2.238c0-1.24-0.805-2.238-2.095-2.238C312.321,469.787,311.475,470.742,311.475,472.025z"/>
			<path id="XMLID_322_" style="fill:#9FB8C8;" d="M321.418,465.311c0,0.788-0.612,1.391-1.4,1.391
				c-0.788,0-1.391-0.603-1.391-1.391c0-0.788,0.604-1.408,1.391-1.408C320.806,463.903,321.418,464.524,321.418,465.311z
				 M321.124,476.09h-2.188v-8.122h2.188V476.09z"/>
			<path id="XMLID_320_" style="fill:#9FB8C8;" d="M324.775,470.86l3.059-2.892h2.682l-3.939,3.822l3.964,4.3h-2.69l-3.076-3.285
				v3.285h-2.188v-12.069h2.188V470.86z"/>
		</g>
		<g>
			<path style="fill:#9FB8C8;" d="M175.729,476.016v-1.194c-0.597,0.813-1.576,1.393-2.704,1.393c-2.09,0-3.566-1.592-3.566-4.196
				c0-2.555,1.46-4.213,3.566-4.213c1.078,0,2.057,0.531,2.704,1.41v-4.263h1.244v11.064H175.729z M175.729,473.843v-3.633
				c-0.448-0.697-1.41-1.294-2.405-1.294c-1.609,0-2.571,1.327-2.571,3.102c0,1.775,0.962,3.085,2.571,3.085
				C174.319,475.104,175.281,474.54,175.729,473.843z"/>
			<path style="fill:#9FB8C8;" d="M178.582,472.002c0-2.322,1.659-4.197,3.948-4.197c2.422,0,3.848,1.891,3.848,4.296v0.316h-6.486
				c0.1,1.509,1.161,2.77,2.886,2.77c0.912,0,1.841-0.365,2.471-1.012l0.597,0.813c-0.796,0.796-1.874,1.227-3.185,1.227
				C180.29,476.215,178.582,474.507,178.582,472.002z M182.513,468.834c-1.709,0-2.555,1.443-2.621,2.67h5.258
				C185.134,470.31,184.337,468.834,182.513,468.834z"/>
			<path style="fill:#9FB8C8;" d="M187.273,474.955l0.647-0.895c0.531,0.614,1.543,1.145,2.637,1.145
				c1.228,0,1.891-0.581,1.891-1.377c0-1.94-4.96-0.746-4.96-3.716c0-1.244,1.078-2.306,2.985-2.306c1.36,0,2.323,0.514,2.969,1.161
				l-0.581,0.863c-0.481-0.581-1.36-1.012-2.389-1.012c-1.095,0-1.775,0.547-1.775,1.261c0,1.758,4.96,0.597,4.96,3.716
				c0,1.344-1.078,2.422-3.151,2.422C189.197,476.215,188.086,475.817,187.273,474.955z"/>
			<path style="fill:#9FB8C8;" d="M195.053,466.031c0-0.464,0.382-0.846,0.829-0.846c0.465,0,0.846,0.381,0.846,0.846
				c0,0.465-0.381,0.829-0.846,0.829C195.434,466.86,195.053,466.495,195.053,466.031z M195.268,476.016v-8.012h1.244v8.012H195.268
				z"/>
			<path style="fill:#9FB8C8;" d="M198.569,478.073l0.63-0.929c0.663,0.796,1.46,1.095,2.604,1.095c1.327,0,2.571-0.647,2.571-2.405
				v-1.145c-0.581,0.813-1.559,1.427-2.687,1.427c-2.09,0-3.566-1.559-3.566-4.147c0-2.571,1.46-4.163,3.566-4.163
				c1.078,0,2.04,0.531,2.687,1.41v-1.211h1.244v7.78c0,2.654-1.858,3.483-3.815,3.483
				C200.443,479.267,199.514,479.002,198.569,478.073z M204.374,473.711v-3.5c-0.432-0.697-1.393-1.294-2.389-1.294
				c-1.609,0-2.571,1.277-2.571,3.052c0,1.758,0.962,3.052,2.571,3.052C202.981,475.021,203.943,474.408,204.374,473.711z"/>
			<path style="fill:#9FB8C8;" d="M213.099,476.016v-5.242c0-1.41-0.713-1.858-1.791-1.858c-0.979,0-1.908,0.597-2.372,1.244v5.855
				h-1.244v-8.012h1.244v1.161c0.564-0.663,1.658-1.36,2.853-1.36c1.675,0,2.555,0.846,2.555,2.588v5.623H213.099z"/>
			<path style="fill:#9FB8C8;" d="M215.952,472.002c0-2.322,1.659-4.197,3.948-4.197c2.422,0,3.848,1.891,3.848,4.296v0.316h-6.486
				c0.099,1.509,1.161,2.77,2.886,2.77c0.912,0,1.841-0.365,2.472-1.012l0.597,0.813c-0.796,0.796-1.874,1.227-3.185,1.227
				C217.66,476.215,215.952,474.507,215.952,472.002z M219.883,468.834c-1.708,0-2.555,1.443-2.621,2.67h5.258
				C222.503,470.31,221.707,468.834,219.883,468.834z"/>
			<path style="fill:#9FB8C8;" d="M231.146,476.016v-1.194c-0.597,0.813-1.576,1.393-2.704,1.393c-2.09,0-3.566-1.592-3.566-4.196
				c0-2.555,1.46-4.213,3.566-4.213c1.078,0,2.057,0.531,2.704,1.41v-4.263h1.244v11.064H231.146z M231.146,473.843v-3.633
				c-0.448-0.697-1.41-1.294-2.405-1.294c-1.609,0-2.571,1.327-2.571,3.102c0,1.775,0.962,3.085,2.571,3.085
				C229.736,475.104,230.697,474.54,231.146,473.843z"/>
			<path style="fill:#9FB8C8;" d="M238.327,476.016v-11.064h1.244v4.263c0.647-0.879,1.609-1.41,2.704-1.41
				c2.09,0,3.566,1.659,3.566,4.213c0,2.604-1.476,4.196-3.566,4.196c-1.128,0-2.107-0.581-2.704-1.393v1.194H238.327z
				 M241.96,475.104c1.626,0,2.588-1.31,2.588-3.085c0-1.775-0.962-3.102-2.588-3.102c-0.979,0-1.957,0.597-2.388,1.294v3.633
				C240.003,474.54,240.981,475.104,241.96,475.104z"/>
			<path style="fill:#9FB8C8;" d="M247.201,478.023c0.182,0.083,0.481,0.133,0.68,0.133c0.547,0,0.912-0.182,1.194-0.846
				l0.531-1.211l-3.351-8.095h1.344l2.671,6.569l2.654-6.569h1.36l-4.014,9.637c-0.481,1.161-1.294,1.609-2.356,1.625
				c-0.265,0-0.68-0.05-0.912-0.116L247.201,478.023z"/>
		</g>
	</g>
</g>
</svg>
