<?xml version="1.0" encoding="utf-8"?>
<!-- Generator: Adobe Illustrator 27.5.0, SVG Export Plug-In . SVG Version: 6.00 Build 0)  -->
<svg version="1.1" xmlns="http://www.w3.org/2000/svg" xmlns:xlink="http://www.w3.org/1999/xlink" x="0px" y="0px"
	 viewBox="0 0 500 500" style="enable-background:new 0 0 500 500;" xml:space="preserve">
<g id="BACKGROUND">
	<rect style="fill-rule:evenodd;clip-rule:evenodd;fill:#FFFFFF;" width="500" height="500"/>
</g>
<g id="OBJECTS">
	<path style="fill:#F4EAEA;" d="M347.333,406.56c0,4.844-43.577,8.771-97.333,8.771s-97.333-3.927-97.333-8.771
		c0-4.843,43.577-8.77,97.333-8.77S347.333,401.718,347.333,406.56z"/>
	<g>
		
			<path style="fill:#FF2D8B;stroke:#9A0514;stroke-width:1.5638;stroke-linecap:round;stroke-linejoin:round;stroke-miterlimit:10;" d="
			M328.059,239.895c-8.69,0-40.681,46.391-78.298,46.391c-37.618,0-69.605-46.391-78.296-46.391
			c-42.041,0-59.919,74.11-53.974,91.804c9.006,26.803,41.153,13.639,41.153,13.639s9.708,30.759,47.367,19.282h87.502
			c37.659,11.477,47.367-19.282,47.367-19.282s32.147,13.164,41.154-13.639C387.978,314.006,370.1,239.895,328.059,239.895z"/>
		
			<path style="fill:#FFB481;stroke:#9A0514;stroke-width:1.7856;stroke-linecap:round;stroke-linejoin:round;stroke-miterlimit:10;" d="
			M248.839,346.626l-0.052,56.04c0,0,31.727,5.024,32.788-1.683c0.84-5.302-2.056-8.121-18.631-11.764l13.249-40.555
			L248.839,346.626z"/>
		
			<path style="fill:#FF2D8B;stroke:#9A0514;stroke-width:1.5638;stroke-linecap:round;stroke-linejoin:round;stroke-miterlimit:10;" d="
			M270.56,391.109c0.226,1.103,0.154,2.237-0.419,3.234c-1.383,2.401-4.474,2.517-6.947,2.546c-3.083,0.036-6.172-0.347-9.179-1.024
			c-1.691-0.381-3.617-0.836-5.221-1.724l-0.008,8.524c0,0,31.727,5.024,32.788-1.683
			C282.265,396.629,280.427,393.948,270.56,391.109z"/>
		
			<path style="fill:#FFB481;stroke:#9A0514;stroke-width:1.7856;stroke-linecap:round;stroke-linejoin:round;stroke-miterlimit:10;" d="
			M247.997,346.626l0.052,56.04c0,0-31.727,5.024-32.789-1.683c-0.838-5.302,2.057-8.121,18.632-11.764l-13.249-40.555
			L247.997,346.626z"/>
		
			<path style="fill:#FF2D8B;stroke:#9A0514;stroke-width:1.5638;stroke-linecap:round;stroke-linejoin:round;stroke-miterlimit:10;" d="
			M226.276,391.109c-0.226,1.103-0.155,2.237,0.419,3.234c1.382,2.401,4.474,2.517,6.946,2.546c3.083,0.036,6.173-0.347,9.179-1.024
			c1.692-0.381,3.617-0.836,5.221-1.724l0.008,8.524c0,0-31.727,5.024-32.789-1.683
			C214.571,396.629,216.409,393.948,226.276,391.109z"/>
		<path style="fill:#EA271C;stroke:#9A0514;stroke-width:2;stroke-linecap:round;stroke-linejoin:round;stroke-miterlimit:10;" d="
			M340.102,175.262c0-6.796-7.409-12.262-16.551-12.262c-0.007,0-0.016,0-0.022,0c0.013,0,0.022-0.523,0.022-0.766
			c0-8.773-8.556-15.907-19.257-15.907C294.688,146.328,263,154,250,154h-3c-13,0-44.795-7.694-54.402-7.694
			c-10.701,0-19.37,7.155-19.37,15.927c0,0.242,0.015,0.767,0.028,0.767c-0.008,0-0.015,0-0.023,0
			c-9.14,0-16.551,5.466-16.551,12.262c0,6.706,7.22,12.135,16.196,12.276c-1.574,3.466-2.414,7.083-2.414,10.818
			c0,21.945,28.848,40.152,66.743,43.737c3.47,1.141,7.134,1.762,10.928,1.762c3.716,0,7.308-0.601,10.714-1.697
			c38.255-3.419,67.473-21.727,67.473-43.813c0-3.735-0.84-7.341-2.413-10.808C332.884,187.397,340.102,181.968,340.102,175.262z"/>
		
			<path style="fill:#FFB481;stroke:#9A0514;stroke-width:1.7856;stroke-linecap:round;stroke-linejoin:round;stroke-miterlimit:10;" d="
			M277.338,221.823c0.029-0.001,0.073-0.002,0.093,0c0.029,0.001,0.065,0.004,0.109,0.005c0.062,0,0.136-0.001,0.218-0.003
			c0.338-0.004,0.883-0.024,1.585-0.061c1.413-0.079,3.489-0.23,5.991-0.534c1.249-0.152,2.605-0.335,4.036-0.563
			c1.431-0.226,2.935-0.497,4.482-0.813c1.545-0.32,3.141-0.671,4.737-1.088c1.605-0.403,3.208-0.875,4.807-1.368
			c1.582-0.516,3.162-1.056,4.677-1.653c0.756-0.3,1.515-0.59,2.234-0.917c0.366-0.157,0.729-0.314,1.09-0.47
			c0.353-0.167,0.704-0.331,1.051-0.496c0.348-0.164,0.693-0.329,1.035-0.491c0.333-0.174,0.662-0.345,0.989-0.516
			c0.327-0.17,0.651-0.338,0.972-0.506c0.31-0.178,0.615-0.353,0.919-0.525c0.304-0.174,0.604-0.345,0.898-0.514
			c0.285-0.179,0.567-0.355,0.844-0.528c0.552-0.349,1.099-0.677,1.582-1.031c0.491-0.347,0.981-0.667,1.418-0.997
			c0.434-0.334,0.845-0.651,1.231-0.949c0.769-0.602,1.324-1.26,1.929-1.624c3.468-2.088,6.95-1.321,9.799-0.067
			c8.61,3.791,8.385,11.179,1.289,11.179c-1.458,0-1.488-0.112-1.263,0.488c0.545,1.453,0.052,2.982-1.103,3.415
			c-1.154,0.433-2.531-0.394-3.076-1.847c-0.145-0.389-0.215-0.782-0.22-1.16c-0.474,0.517-0.996,1.024-1.531,1.575
			c-0.539,0.566-1.135,1.099-1.745,1.668c-0.308,0.281-0.619,0.568-0.938,0.86c-0.325,0.276-0.656,0.559-0.991,0.844
			c-0.337,0.286-0.679,0.575-1.024,0.869c-0.354,0.278-0.711,0.561-1.073,0.845c-0.363,0.285-0.732,0.572-1.103,0.862
			c-0.381,0.276-0.762,0.555-1.148,0.835c-0.388,0.279-0.777,0.561-1.172,0.845c-0.401,0.27-0.803,0.542-1.208,0.816
			c-0.809,0.559-1.647,1.078-2.491,1.607c-1.688,1.058-3.439,2.048-5.208,3.01c-1.774,0.935-3.566,1.841-5.354,2.661
			c-1.784,0.839-3.562,1.592-5.293,2.3c-1.732,0.701-3.422,1.342-5.035,1.913c-1.614,0.575-3.153,1.082-4.583,1.531
			c-2.86,0.9-5.296,1.543-7.048,1.973c-0.881,0.214-1.581,0.373-2.095,0.48c-0.131,0.027-0.245,0.05-0.346,0.071
			c-0.118,0.021-0.22,0.041-0.3,0.056c-0.13,0.026-0.196,0.039-0.196,0.039l-2.517-22.028
			C277.294,221.823,277.309,221.823,277.338,221.823z"/>
		
			<path style="fill:#FFDBEF;stroke:#9A0514;stroke-width:1.7856;stroke-linecap:round;stroke-linejoin:round;stroke-miterlimit:10;" d="
			M294.468,222.691c3.583,1.576,4.924-0.898,6.318-4.065c1.393-3.169,0.824-6.484-1.271-7.405c-2.095-0.921-4.923,0.899-6.317,4.067
			C291.806,218.454,290.886,221.114,294.468,222.691z"/>
		
			<path style="fill:#FFDBEF;stroke:#9A0514;stroke-width:1.7856;stroke-linecap:round;stroke-linejoin:round;stroke-miterlimit:10;" d="
			M295.98,230.565c1.418-3.648,4.116-2.846,7.341-1.592c3.225,1.255,5.167,4,4.337,6.134c-0.829,2.133-4.115,2.846-7.341,1.591
			C297.092,235.444,294.56,234.213,295.98,230.565z"/>
		
			<path style="fill:#FFDBEF;stroke:#9A0514;stroke-width:1.7856;stroke-linecap:round;stroke-linejoin:round;stroke-miterlimit:10;" d="
			M297.467,226.602c1.77,3.491,4.376,2.428,7.463,0.863c3.086-1.566,4.748-4.488,3.713-6.53c-1.034-2.041-4.375-2.428-7.462-0.861
			C298.095,221.639,295.696,223.11,297.467,226.602z"/>
		
			<path style="fill:#FF86CC;stroke:#9A0514;stroke-width:1.7856;stroke-linecap:round;stroke-linejoin:round;stroke-miterlimit:10;" d="
			M269.968,234.438c2.106,8.64,10.816,13.934,19.456,11.827c8.639-2.106,13.934-10.818,11.827-19.456
			c-2.108-8.64-10.818-13.935-19.456-11.828C273.155,217.088,267.859,225.799,269.968,234.438z"/>
		
			<path style="fill:#FFB481;stroke:#9A0514;stroke-width:1.7856;stroke-linecap:round;stroke-linejoin:round;stroke-miterlimit:10;" d="
			M223.025,221.823c-0.031-0.001-0.073-0.002-0.094,0c-0.029,0.001-0.066,0.004-0.109,0.005c-0.062,0-0.134-0.001-0.217-0.003
			c-0.338-0.004-0.883-0.024-1.585-0.061c-1.414-0.079-3.49-0.23-5.992-0.534c-1.25-0.152-2.606-0.335-4.036-0.563
			c-1.431-0.226-2.935-0.497-4.482-0.813c-1.545-0.32-3.141-0.671-4.738-1.088c-1.605-0.403-3.208-0.875-4.807-1.368
			c-1.582-0.516-3.161-1.056-4.675-1.653c-0.757-0.3-1.515-0.59-2.237-0.917c-0.365-0.157-0.729-0.314-1.088-0.47
			c-0.353-0.167-0.704-0.331-1.051-0.496c-0.348-0.164-0.693-0.329-1.036-0.491c-0.332-0.174-0.662-0.345-0.988-0.516
			c-0.328-0.17-0.652-0.338-0.971-0.506c-0.311-0.178-0.617-0.353-0.919-0.525c-0.304-0.174-0.604-0.345-0.899-0.514
			c-0.285-0.179-0.566-0.355-0.843-0.528c-0.551-0.349-1.099-0.677-1.582-1.031c-0.491-0.347-0.98-0.667-1.417-0.997
			c-0.434-0.334-0.846-0.651-1.232-0.949c-0.769-0.602-1.325-1.26-1.929-1.624c-3.468-2.088-6.95-1.321-9.798-0.067
			c-8.61,3.791-8.386,11.179-1.29,11.179c1.46,0,1.489-0.112,1.263,0.488c-0.545,1.453-0.052,2.982,1.102,3.415
			c1.154,0.433,2.532-0.394,3.076-1.847c0.146-0.389,0.215-0.782,0.22-1.16c0.474,0.517,0.996,1.024,1.531,1.575
			c0.54,0.566,1.134,1.099,1.745,1.668c0.307,0.281,0.619,0.568,0.937,0.86c0.326,0.276,0.657,0.559,0.992,0.844
			c0.337,0.286,0.679,0.575,1.024,0.869c0.354,0.278,0.712,0.561,1.074,0.845c0.364,0.285,0.732,0.572,1.104,0.862
			c0.379,0.276,0.761,0.555,1.146,0.835c0.388,0.279,0.779,0.561,1.173,0.845c0.4,0.27,0.803,0.542,1.209,0.816
			c0.809,0.559,1.646,1.078,2.49,1.607c1.689,1.058,3.44,2.048,5.209,3.01c1.774,0.935,3.567,1.841,5.353,2.661
			c1.784,0.839,3.562,1.592,5.293,2.3c1.732,0.701,3.422,1.342,5.035,1.913c1.614,0.575,3.153,1.082,4.583,1.531
			c2.861,0.9,5.295,1.543,7.047,1.973c0.879,0.214,1.581,0.373,2.095,0.48c0.13,0.027,0.246,0.05,0.344,0.071
			c0.12,0.021,0.221,0.041,0.301,0.056c0.13,0.026,0.196,0.039,0.196,0.039l2.516-22.028
			C223.068,221.823,223.054,221.823,223.025,221.823z"/>
		
			<path style="fill:#FFDBEF;stroke:#9A0514;stroke-width:1.7856;stroke-linecap:round;stroke-linejoin:round;stroke-miterlimit:10;" d="
			M207.635,220.82c-2.691,2.842-4.885,1.081-7.399-1.298c-2.512-2.379-3.274-5.656-1.701-7.318c1.574-1.662,4.887-1.081,7.4,1.298
			C208.448,215.882,210.326,217.977,207.635,220.82z"/>
		
			<path style="fill:#FFDBEF;stroke:#9A0514;stroke-width:1.7856;stroke-linecap:round;stroke-linejoin:round;stroke-miterlimit:10;" d="
			M204.019,231.981c-1.419-3.648-4.116-2.846-7.341-1.592c-3.225,1.255-5.167,4-4.338,6.134c0.831,2.133,4.117,2.846,7.343,1.591
			C202.907,236.86,205.437,235.63,204.019,231.981z"/>
		
			<path style="fill:#FFDBEF;stroke:#9A0514;stroke-width:1.7856;stroke-linecap:round;stroke-linejoin:round;stroke-miterlimit:10;" d="
			M204.183,226.465c-1.175,3.735-3.919,3.111-7.22,2.072c-3.3-1.039-5.419-3.652-4.732-5.834c0.688-2.183,3.92-3.11,7.22-2.071
			C202.751,221.671,205.358,222.732,204.183,226.465z"/>
		
			<path style="fill:#FF86CC;stroke:#9A0514;stroke-width:1.7856;stroke-linecap:round;stroke-linejoin:round;stroke-miterlimit:10;" d="
			M230.031,234.438c-2.107,8.64-10.818,13.934-19.457,11.827c-8.639-2.106-13.934-10.818-11.827-19.456
			c2.107-8.64,10.818-13.935,19.456-11.828C226.844,217.088,232.138,225.799,230.031,234.438z"/>
		<path style="fill:#FF2D8B;stroke:#9A0514;stroke-width:2;stroke-linecap:round;stroke-linejoin:round;stroke-miterlimit:10;" d="
			M286.21,265.31c0,0-12.21,18.74-34.21,19.841v0.05c-1,0-0.66,0-1-0.01c-0.35,0.01-1,0.01-1,0.01v-0.05
			c-23-1.101-34.59-19.841-34.59-19.841l4.435-14.189l1.737-5.7L229,222h43.24l7.31,22.93l1.675,5.01L286.21,265.31z"/>
		<path style="fill:#E50C74;stroke:#9A0514;stroke-width:2;stroke-linecap:round;stroke-linejoin:round;stroke-miterlimit:10;" d="
			M286.21,265.31c0,0-12.21,18.74-34.21,19.841v0.05c-1,0-0.66,0-1-0.01c-0.35,0.01-1,0.01-1,0.01v-0.05
			c-23-1.101-34.59-19.841-34.59-19.841l4.435-14.189l0.137,0.11c0,0,33.978,13.27,60.987-1.23h0.17L286.21,265.31z"/>
		
			<path style="fill:#FF86CC;stroke:#9A0514;stroke-width:1.7856;stroke-linecap:round;stroke-linejoin:round;stroke-miterlimit:10;" d="
			M401.033,320.685c-10.286,30.608-46.989,15.575-46.989,15.575s-11.086,35.122-54.088,22.018c0,0-15.279,21.593-48.019,22.765
			v0.043c-0.363,0.003-0.73,0.012-1.102,0.012c-0.282,0-0.559-0.009-0.838-0.009c-0.276,0-0.555,0.009-0.837,0.009
			c-0.371,0-0.734-0.009-1.102-0.012v-0.043c-32.74-1.172-48.017-22.765-48.017-22.765c-43,13.105-54.086-22.018-54.086-22.018
			s-36.708,15.032-46.99-15.575c-6.656-19.813,12.849-101.576,58.882-104.721c0.022-0.003,0.047-0.003,0.073-0.008
			c0.879-0.06,1.773-0.089,2.674-0.089c9.923,0,46.447,52.97,89.4,52.97c41.864,0,77.625-50.314,88.599-52.868
			c0.287-0.068,0.556-0.102,0.808-0.102C387.406,215.868,407.821,300.483,401.033,320.685z"/>
		
			<path style="fill:#FF86CC;stroke:#9A0514;stroke-width:1.7856;stroke-linecap:round;stroke-linejoin:round;stroke-miterlimit:10;" d="
			M401.033,320.685c-10.286,30.608-46.989,15.575-46.989,15.575s-11.086,35.122-54.088,22.018c0,0-15.279,21.593-48.019,22.765
			v0.043c-0.363,0.003-0.73,0.012-1.102,0.012c-0.282,0-0.559-0.009-0.838-0.009c-0.276,0-0.555,0.009-0.837,0.009
			c-0.371,0-0.734-0.009-1.102-0.012v-0.043c-32.74-1.172-48.017-22.765-48.017-22.765c-43,13.105-54.086-22.018-54.086-22.018
			s-36.708,15.032-46.99-15.575c-6.656-19.813,12.849-101.576,58.882-104.721c0.022-0.003,0.047-0.003,0.073-0.008
			c0.879-0.06,1.773-0.089,2.674-0.089c9.923,0,46.447,52.97,89.4,52.97c41.864,0,77.625-50.314,88.599-52.868
			c0.287-0.068,0.556-0.102,0.808-0.102C387.406,215.868,407.821,300.483,401.033,320.685z"/>
		<path style="fill:#FFDBEF;stroke:#9A0514;stroke-width:2;stroke-linecap:round;stroke-linejoin:round;stroke-miterlimit:10;" d="
			M401.03,320.69c-10.28,30.6-46.99,15.569-46.99,15.569s-11.05,35.12-54.05,22.021c0,0-14.99,21.59-47.99,22.76v0.05
			c0,0-0.76,0.01-1.14,0.01c-0.28,0-0.57-0.01-0.85-0.01c-0.27,0-0.59,0.01-0.87,0.01c-0.37,0-1.14-0.01-1.14-0.01v-0.05
			c-33-1.17-47.99-22.76-47.99-22.76c-43,13.1-54.07-22.021-54.07-22.021s-36.705,15.03-46.985-15.569
			C97.695,316.93,97,310.94,98,303.68c0-0.01,0-0.01,0-0.02c28,28.62,79.768,49.035,154.495,51.09
			c48.452,1.332,120.423-20.41,149.763-46.56C402.428,313.42,402.02,317.74,401.03,320.69z"/>
		
			<path style="fill:#FFDBEF;stroke:#9A0514;stroke-width:1.7856;stroke-linecap:round;stroke-linejoin:round;stroke-miterlimit:10;" d="
			M249.967,228.992c0,6.461-5.44,11.699-12.15,11.699c-6.71,0-12.148-5.238-12.148-11.699c0-6.462,5.438-11.7,12.148-11.7
			C244.526,217.292,249.967,222.53,249.967,228.992z"/>
		
			<path style="fill:#FFDBEF;stroke:#9A0514;stroke-width:1.7856;stroke-linecap:round;stroke-linejoin:round;stroke-miterlimit:10;" d="
			M274.916,228.992c0,6.461-5.439,11.699-12.149,11.699c-6.71,0-12.15-5.238-12.15-11.699c0-6.462,5.44-11.7,12.15-11.7
			C269.477,217.292,274.916,222.53,274.916,228.992z"/>
		<g>
			
				<path style="fill:#FF8D71;stroke:#9A0514;stroke-width:1.6933;stroke-linecap:round;stroke-linejoin:round;stroke-miterlimit:10;" d="
				M216.094,189.636c0,5.671-4.375,10.27-9.769,10.27c-5.395,0-9.77-4.598-9.77-10.27c0-5.672,4.374-10.27,9.77-10.27
				C211.719,179.366,216.094,183.964,216.094,189.636z"/>
			
				<path style="fill:#FF8D71;stroke:#9A0514;stroke-width:1.6933;stroke-linecap:round;stroke-linejoin:round;stroke-miterlimit:10;" d="
				M303.536,191.173c0,5.671-4.374,10.27-9.768,10.27c-5.396,0-9.769-4.598-9.769-10.27c0-5.671,4.373-10.27,9.769-10.27
				C299.162,180.904,303.536,185.502,303.536,191.173z"/>
			
				<path style="fill:#FFB481;stroke:#9A0514;stroke-width:1.7856;stroke-linecap:round;stroke-linejoin:round;stroke-miterlimit:10;" d="
				M293.769,185.936c0,24.147-19.575,43.721-43.722,43.721c-24.148,0-43.722-19.574-43.722-43.721
				c0-24.146,2.026-45.093,43.722-45.093S293.769,161.79,293.769,185.936z"/>
			<path style="fill:#9A0514;" d="M235.666,188.926c0,3.303-1.992,5.98-4.45,5.98c-2.457,0-4.45-2.678-4.45-5.98
				c0-3.303,1.993-5.98,4.45-5.98C233.675,182.946,235.666,185.623,235.666,188.926z"/>
			<path style="fill:#9A0514;" d="M274.755,188.926c0,3.303-1.992,5.98-4.45,5.98c-2.457,0-4.45-2.678-4.45-5.98
				c0-3.303,1.993-5.98,4.45-5.98C272.763,182.946,274.755,185.623,274.755,188.926z"/>
			<g>
				<path style="fill:#FFB481;" d="M247.136,190.636c0-1.607,1.304-2.911,2.911-2.911s2.91,1.304,2.91,2.911"/>
				<path style="fill:#9A0514;" d="M247.136,190.636c0,0-0.06-0.149-0.136-0.408c-0.045-0.125-0.078-0.285-0.06-0.498
					c-0.002-0.213,0.013-0.467,0.102-0.7c0.058-0.256,0.175-0.514,0.343-0.77c0.15-0.269,0.396-0.49,0.645-0.721
					c0.278-0.195,0.577-0.403,0.93-0.504c0.339-0.153,0.717-0.158,1.086-0.202l0.117,0.007l0.026,0.003l0.053,0.006l0.106,0.013
					l0.212,0.025c0.117,0.001,0.331,0.068,0.527,0.133c0.415,0.113,0.696,0.324,0.977,0.516c0.25,0.232,0.496,0.452,0.646,0.721
					c0.168,0.257,0.286,0.514,0.343,0.771c0.091,0.239,0.1,0.478,0.097,0.682c0.017,0.199-0.012,0.371-0.057,0.512
					c-0.075,0.277-0.137,0.414-0.137,0.414s-0.091-0.146-0.216-0.367c-0.049-0.112-0.142-0.235-0.246-0.364
					c-0.096-0.132-0.204-0.268-0.345-0.393c-0.12-0.137-0.283-0.247-0.442-0.359c-0.144-0.125-0.346-0.191-0.509-0.29
					c-0.19-0.062-0.381-0.148-0.52-0.159c-0.072-0.02-0.126-0.05-0.296-0.055l-0.213-0.017l-0.107-0.009l-0.053-0.004l-0.026-0.003
					l-0.014-0.001l-0.006-0.001l-0.003-0.001c0.039,0.002-0.092-0.005,0.087,0.004c-0.195,0.033-0.4,0.007-0.587,0.072
					c-0.201,0.023-0.374,0.112-0.567,0.171c-0.164,0.099-0.366,0.165-0.51,0.29c-0.159,0.112-0.322,0.222-0.442,0.36
					c-0.143,0.131-0.245,0.252-0.34,0.375c-0.103,0.115-0.199,0.251-0.249,0.378C247.224,190.501,247.136,190.636,247.136,190.636z"
					/>
			</g>
			<g>
				<path style="fill:#9A0514;" d="M226.472,182.071c0,0,0.002-0.585,0.456-1.267c0.21-0.354,0.55-0.705,0.982-1.009
					c0.437-0.296,0.982-0.52,1.554-0.607c0.284-0.047,0.574-0.038,0.854-0.036c0.276,0.031,0.547,0.085,0.8,0.146
					c0.245,0.087,0.476,0.184,0.688,0.28c0.207,0.106,0.382,0.246,0.544,0.362c0.332,0.218,0.531,0.509,0.679,0.686
					c0.141,0.188,0.208,0.307,0.208,0.307s-0.146,0.01-0.375,0.006c-0.231,0.004-0.533-0.045-0.884-0.044
					c-0.35-0.022-0.73-0.021-1.111-0.034c-0.191,0.014-0.381,0.027-0.572,0.023c-0.187,0.04-0.379,0.027-0.563,0.069
					c-0.739,0.105-1.485,0.354-2.127,0.616C226.977,181.831,226.471,182.071,226.472,182.071z"/>
			</g>
			<g>
				<path style="fill:#9A0514;" d="M274.114,182.071c0,0-0.505-0.24-1.132-0.501c-0.642-0.262-1.388-0.512-2.127-0.617
					c-0.184-0.042-0.376-0.029-0.563-0.069c-0.191,0.004-0.381-0.009-0.572-0.023c-0.382,0.013-0.762,0.011-1.11,0.034
					c-0.353,0-0.653,0.048-0.885,0.044c-0.229,0.004-0.375-0.006-0.375-0.006s0.066-0.119,0.207-0.307
					c0.147-0.177,0.347-0.468,0.679-0.686c0.162-0.116,0.337-0.257,0.544-0.362c0.212-0.097,0.442-0.193,0.688-0.28
					c0.253-0.061,0.523-0.114,0.801-0.146c0.28-0.001,0.569-0.011,0.854,0.036c0.571,0.087,1.116,0.311,1.554,0.607
					c0.432,0.304,0.772,0.655,0.981,1.009C274.112,181.486,274.114,182.071,274.114,182.071z"/>
			</g>
			<g>
				
					<path style="fill:#C80006;stroke:#9A0514;stroke-width:1.7856;stroke-linecap:round;stroke-linejoin:round;stroke-miterlimit:10;" d="
					M260.619,202.654c0,1.525-0.304,2.977-0.858,4.285c-1.551,3.704-5.062,6.288-9.146,6.288c-4.079,0-7.591-2.585-9.142-6.288
					c-0.556-1.308-0.858-2.76-0.858-4.285c0-3.614,0.05-5.874,2.426-7.074c1.465-0.744,3.815-1.081,7.574-1.081
					c3.194,0,5.369,0.244,6.852,0.773C260.556,196.37,260.619,198.707,260.619,202.654z"/>
				
					<path style="fill:#FF4E6C;stroke:#9A0514;stroke-width:1.7856;stroke-linecap:round;stroke-linejoin:round;stroke-miterlimit:10;" d="
					M259.761,206.939c-1.551,3.704-5.062,6.288-9.146,6.288c-4.079,0-7.591-2.585-9.142-6.288c1.039-3.602,4.738-6.268,9.142-6.268
					C255.019,200.671,258.722,203.337,259.761,206.939z"/>
			</g>
			<path style="opacity:0.5;fill:#FF7D99;" d="M233.521,205.811c0,4.817-3.905,8.722-8.722,8.722c-4.817,0-8.722-3.905-8.722-8.722
				c0-4.817,3.905-8.723,8.722-8.723C229.616,197.089,233.521,200.994,233.521,205.811z"/>
			<path style="opacity:0.5;fill:#FF7D99;" d="M284.641,205.811c0,4.817-3.904,8.722-8.723,8.722c-4.816,0-8.722-3.905-8.722-8.722
				c0-4.817,3.906-8.723,8.722-8.723C280.736,197.089,284.641,200.994,284.641,205.811z"/>
		</g>
		
			<path style="fill:#FFB481;stroke:#9A0514;stroke-width:1.7856;stroke-linecap:round;stroke-linejoin:round;stroke-miterlimit:10;" d="
			M167.04,205.809c-0.251,0.099-0.5,0.2-0.743,0.307c-8.61,3.791-8.386,11.179-1.29,11.179c1.46,0,1.489-0.112,1.263,0.488
			c-0.545,1.453-0.052,2.982,1.102,3.415c1.154,0.433,2.532-0.394,3.076-1.847c0.146-0.389,0.215-0.782,0.22-1.16
			c0.177,0.192,0.365,0.385,0.554,0.578"/>
		
			<path style="fill:#FFB481;stroke:#9A0514;stroke-width:1.786;stroke-linecap:round;stroke-linejoin:round;stroke-miterlimit:10;" d="
			M322.253,224.958c0.045-0.034,0.091-0.07,0.137-0.106c0.362-0.284,0.72-0.566,1.073-0.845c0.346-0.294,0.688-0.583,1.024-0.869
			c0.335-0.285,0.666-0.567,0.991-0.844c0.318-0.292,0.63-0.579,0.938-0.86c0.61-0.569,1.206-1.102,1.745-1.668
			c0.535-0.551,1.058-1.059,1.531-1.575c0.005,0.378,0.074,0.771,0.22,1.16c0.545,1.453,1.922,2.279,3.076,1.847
			c1.154-0.434,1.647-1.962,1.103-3.415c-0.226-0.601-0.195-0.488,1.263-0.488c6.941,0,7.285-7.06-0.763-10.917"/>
		
			<path style="fill:#F13725;stroke:#9A0514;stroke-width:1.7856;stroke-linecap:round;stroke-linejoin:round;stroke-miterlimit:10;" d="
			M310.877,144.627c0.115-1.275-2.501-19.982-22.099-27.44c-30.283-11.523-41.643,7.262-41.643,7.262s-13.9-15.663-36.853-8.264
			c-21.282,6.861-24.44,27.133-24.322,28.442c-21.913-0.167-25.982,32.135-3.027,28.674c0,0-4.841,16.895,10.983,17.104
			c7.76,0.103,17.868-14.33,17.169-22.046c4.161,12.7,29.327,6.785,24.514-10.747c2.448,7.394,9.001,7.523,12.82,3.526
			c3.819,3.997,10.371,3.868,12.819-3.526c-4.813,17.532,20.354,23.446,24.515,10.747c-0.7,7.716,9.408,22.149,17.168,22.046
			c15.823-0.209,10.982-17.104,10.982-17.104C336.858,176.762,332.789,144.46,310.877,144.627z"/>
		
			<path style="fill:#FFCF05;stroke:#9A0514;stroke-width:1.7856;stroke-linecap:round;stroke-linejoin:round;stroke-miterlimit:10;" d="
			M236.873,129.92c0,0,14.102,5.32,25.693,0.07l11.792-28.674l-15.004,6.152l-8.189-22.276l-9.808,22.03l-12.142-6.613
			L236.873,129.92z"/>
		
			<path style="fill:none;stroke:#9A0514;stroke-width:1.6933;stroke-linecap:round;stroke-linejoin:round;stroke-miterlimit:10;" d="
			M299.955,358.278c1.957-3.909,1.87-5.168,2.616-8.427"/>
		
			<path style="fill:none;stroke:#9A0514;stroke-width:1.6933;stroke-linecap:round;stroke-linejoin:round;stroke-miterlimit:10;" d="
			M200.077,358.278c-1.957-3.909-2.298-4.986-2.943-8.984"/>
		<path style="opacity:0.3;fill:#FF2D8B;" d="M340.604,216.773c0,0-39.422,73.1-90.842,72.57
			c-29.616-0.304-72.698-24.777-93.08-73.279c0,0,0.402-0.035,1.166-0.099c0.022-0.003,0.047-0.003,0.073-0.008
			c0.879-0.06,1.773-0.089,2.674-0.089c1.215,0,2.829,0.794,4.804,2.188c0.717,0.506,1.162,2.487,1.973,3.142
			c0.707,0.571,1.769-0.202,2.544,0.469c15.895,13.748,45.959,47.172,80.079,47.172c34.449,0,64.766-34.068,80.538-47.56
			c0.639-0.546,2.249,0.531,2.84,0.056c0.549-0.442,0.08-2.441,0.586-2.815c1.843-1.364,3.397-2.26,4.635-2.548
			C339.313,216.225,339.985,216.495,340.604,216.773z"/>
	</g>
</g>
<g id="DESIGNED_BY_FREEPIK">
	<g>
		<g id="XMLID_319_">
			<g id="XMLID_338_">
				<path id="XMLID_346_" style="fill:#1D262D;" d="M260.103,465.465c-0.432,0.443-0.803,0.932-1.107,1.453l-0.465-0.241
					c-0.068-0.297-0.35-0.502-0.66-0.466c-0.33,0.039-0.566,0.339-0.529,0.67c0.039,0.331,0.34,0.567,0.67,0.528
					c0.066-0.007,0.127-0.025,0.184-0.052l0.451,0.234c-0.25,0.554-0.432,1.139-0.539,1.743l0.748,0.132
					c0.229-1.306,0.85-2.507,1.791-3.473L260.103,465.465z"/>
				<path id="XMLID_345_" style="fill:#1D262D;" d="M265.592,463.163c-0.172,0-0.342,0.006-0.51,0.017l-0.074-0.626
					c0.188-0.149,0.297-0.389,0.266-0.645c-0.045-0.393-0.402-0.674-0.795-0.628c-0.393,0.046-0.674,0.402-0.627,0.796
					c0.029,0.254,0.189,0.461,0.404,0.564l0.072,0.624c-0.713,0.116-1.402,0.332-2.059,0.646l0.326,0.685
					c0.936-0.447,1.941-0.674,2.996-0.674c0.496,0,0.992,0.053,1.475,0.158l0.16-0.741
					C266.691,463.222,266.143,463.163,265.592,463.163z"/>
				<path id="XMLID_344_" style="fill:#1D262D;" d="M272.193,465.71c0.332-0.04,0.566-0.341,0.525-0.672
					c-0.039-0.331-0.34-0.566-0.672-0.525c-0.309,0.038-0.535,0.304-0.529,0.608l-0.416,0.363c-0.418-0.43-0.891-0.813-1.408-1.14
					l-0.404,0.642c1.135,0.715,2.021,1.727,2.564,2.925l0.69-0.313c-0.25-0.554-0.566-1.071-0.941-1.545l0.402-0.351
					C272.064,465.715,272.129,465.719,272.193,465.71z"/>
				<path id="XMLID_343_" style="fill:#1D262D;" d="M265.045,473.371c-0.387,0.023-0.775,0.035-1.158,0.035
					c-0.879,0-1.732-0.061-2.478-0.18c-0.391-0.062-0.846-0.154-1.27-0.292c1.047,1.861,3.068,3.125,5.389,3.125
					c2.855,0,5.262-1.916,5.949-4.503c-0.682,0.449-1.506,0.825-2.459,1.122C267.838,473.047,266.463,473.286,265.045,473.371z"/>
				<path id="XMLID_339_" style="fill:#1D262D;" d="M265.592,464.68c-3.352,0-6.08,2.666-6.08,5.943
					c0,0.425,0.047,0.849,0.137,1.261c0.674,0.483,2.707,0.891,5.348,0.731c2.881-0.174,5.297-0.958,6.672-2.159
					c-0.004-0.194-0.02-0.39-0.045-0.581C271.244,466.913,268.65,464.68,265.592,464.68z M263.432,471.194
					c-1.02,0-1.85-0.83-1.85-1.85c0-1.021,0.83-1.851,1.85-1.851c1.02,0,1.85,0.83,1.85,1.851
					C265.281,470.364,264.451,471.194,263.432,471.194z M268.17,470.286c-0.75,0-1.361-0.61-1.361-1.36s0.611-1.36,1.361-1.36
					s1.359,0.61,1.359,1.36S268.92,470.286,268.17,470.286z"/>
			</g>
			<path id="XMLID_336_" style="fill:#1D262D;" d="M281.596,466.547c-0.295-0.116-0.807-0.31-1.383-0.238
				c-0.551,0.069-0.844,0.341-0.844,1.007v0.866h2.229v1.717h-2.229v5.455h-1.932v-5.455h-1.34v-1.717h1.34v-0.889
				c0-1.68,0.895-2.782,2.568-2.782c0.642,0,1.156,0.121,1.59,0.308V466.547z"/>
			<path id="XMLID_334_" style="fill:#1D262D;" d="M286.297,469.878c-0.176-0.029-0.357-0.046-0.525-0.046
				c-0.894,0-1.51,0.548-1.51,1.613v3.908h-1.932v-7.172h1.873v0.784c0.451-0.673,1.139-0.977,2.02-0.977
				c0.414,0,0.848,0.128,1.096,0.337L286.297,469.878z"/>
			<path id="XMLID_331_" style="fill:#1D262D;" d="M293.965,471.757c0,0.222-0.016,0.488-0.037,0.651h-5.084
				c0.207,1.036,0.932,1.487,1.842,1.487c0.623,0,1.295-0.252,1.815-0.689l1.133,1.243c-0.814,0.748-1.852,1.089-3.057,1.089
				c-2.199,0-3.725-1.496-3.725-3.753c0-2.258,1.48-3.797,3.627-3.797C292.543,467.989,293.957,469.522,293.965,471.757z
				 M288.852,471.091h3.174c-0.178-0.918-0.732-1.436-1.561-1.436C289.555,469.654,289.021,470.202,288.852,471.091z"/>
			<path id="XMLID_328_" style="fill:#1D262D;" d="M301.619,471.757c0,0.222-0.016,0.488-0.037,0.651h-5.086
				c0.207,1.036,0.934,1.487,1.844,1.487c0.621,0,1.295-0.252,1.813-0.689l1.133,1.243c-0.814,0.748-1.85,1.089-3.057,1.089
				c-2.199,0-3.723-1.496-3.723-3.753c0-2.258,1.48-3.797,3.627-3.797C300.197,467.989,301.611,469.522,301.619,471.757z
				 M296.504,471.091h3.176c-0.178-0.918-0.734-1.436-1.563-1.436C297.207,469.654,296.674,470.202,296.504,471.091z"/>
			<path id="XMLID_325_" style="fill:#1D262D;" d="M309.965,471.764c0,2.154-1.496,3.775-3.473,3.775
				c-0.961,0-1.643-0.378-2.109-0.933v3.708h-1.924v-10.133h1.887v0.792c0.467-0.585,1.154-0.984,2.139-0.984
				C308.469,467.989,309.965,469.61,309.965,471.764z M304.287,471.764c0,1.133,0.748,1.977,1.844,1.977
				c1.139,0,1.85-0.881,1.85-1.977c0-1.095-0.711-1.976-1.85-1.976C305.035,469.788,304.287,470.632,304.287,471.764z"/>
			<path id="XMLID_322_" style="fill:#1D262D;" d="M313.068,465.835c0,0.696-0.541,1.23-1.236,1.23c-0.697,0-1.229-0.533-1.229-1.23
				c0-0.695,0.531-1.243,1.229-1.243C312.527,464.592,313.068,465.14,313.068,465.835z M312.809,475.353h-1.932v-7.172h1.932
				V475.353z"/>
			<path id="XMLID_320_" style="fill:#1D262D;" d="M316.031,470.735l2.703-2.554h2.367l-3.479,3.375l3.502,3.797h-2.377
				l-2.717-2.901v2.901H314.1v-10.658h1.932V470.735z"/>
		</g>
		<g>
			<path style="fill:#1D262D;" d="M184.412,475.289v-1.055c-0.527,0.718-1.391,1.23-2.387,1.23c-1.846,0-3.149-1.406-3.149-3.706
				c0-2.256,1.289-3.721,3.149-3.721c0.952,0,1.816,0.469,2.387,1.245v-3.765h1.099v9.771H184.412z M184.412,473.37v-3.208
				c-0.395-0.615-1.245-1.143-2.124-1.143c-1.42,0-2.27,1.172-2.27,2.739c0,1.567,0.85,2.725,2.27,2.725
				C183.167,474.483,184.017,473.985,184.412,473.37z"/>
			<path style="fill:#1D262D;" d="M186.932,471.744c0-2.051,1.465-3.706,3.486-3.706c2.139,0,3.398,1.67,3.398,3.794v0.278h-5.727
				c0.088,1.333,1.025,2.446,2.549,2.446c0.806,0,1.626-0.322,2.182-0.894l0.527,0.718c-0.703,0.703-1.655,1.084-2.812,1.084
				C188.44,475.465,186.932,473.956,186.932,471.744z M190.403,468.946c-1.509,0-2.256,1.274-2.314,2.358h4.643
				C192.718,470.25,192.015,468.946,190.403,468.946z"/>
			<path style="fill:#1D262D;" d="M194.607,474.352l0.571-0.791c0.469,0.542,1.362,1.011,2.329,1.011c1.085,0,1.67-0.513,1.67-1.216
				c0-1.714-4.38-0.659-4.38-3.281c0-1.099,0.952-2.036,2.636-2.036c1.202,0,2.051,0.454,2.623,1.025l-0.513,0.762
				c-0.424-0.513-1.201-0.894-2.109-0.894c-0.966,0-1.567,0.483-1.567,1.113c0,1.553,4.379,0.527,4.379,3.281
				c0,1.186-0.952,2.139-2.783,2.139C196.306,475.465,195.325,475.113,194.607,474.352z"/>
			<path style="fill:#1D262D;" d="M201.477,466.471c0-0.41,0.337-0.747,0.732-0.747c0.41,0,0.747,0.337,0.747,0.747
				c0,0.41-0.337,0.732-0.747,0.732C201.814,467.203,201.477,466.881,201.477,466.471z M201.667,475.289v-7.075h1.099v7.075H201.667
				z"/>
			<path style="fill:#1D262D;" d="M204.582,477.105l0.556-0.82c0.586,0.703,1.289,0.967,2.3,0.967c1.172,0,2.27-0.571,2.27-2.124
				v-1.011c-0.513,0.718-1.377,1.26-2.373,1.26c-1.846,0-3.149-1.377-3.149-3.662c0-2.271,1.289-3.677,3.149-3.677
				c0.952,0,1.802,0.469,2.373,1.245v-1.069h1.099v6.87c0,2.344-1.641,3.076-3.369,3.076
				C206.237,478.16,205.416,477.925,204.582,477.105z M209.708,473.253v-3.091c-0.381-0.615-1.23-1.143-2.109-1.143
				c-1.421,0-2.27,1.128-2.27,2.695c0,1.553,0.849,2.695,2.27,2.695C208.478,474.41,209.328,473.868,209.708,473.253z"/>
			<path style="fill:#1D262D;" d="M217.413,475.289v-4.629c0-1.245-0.63-1.641-1.582-1.641c-0.864,0-1.685,0.527-2.094,1.099v5.171
				h-1.099v-7.075h1.099v1.025c0.498-0.586,1.464-1.201,2.519-1.201c1.48,0,2.256,0.747,2.256,2.285v4.966H217.413z"/>
			<path style="fill:#1D262D;" d="M219.932,471.744c0-2.051,1.465-3.706,3.486-3.706c2.139,0,3.398,1.67,3.398,3.794v0.278h-5.727
				c0.088,1.333,1.025,2.446,2.548,2.446c0.806,0,1.626-0.322,2.183-0.894l0.527,0.718c-0.703,0.703-1.655,1.084-2.813,1.084
				C221.441,475.465,219.932,473.956,219.932,471.744z M223.404,468.946c-1.509,0-2.256,1.274-2.314,2.358h4.643
				C225.718,470.25,225.015,468.946,223.404,468.946z"/>
			<path style="fill:#1D262D;" d="M233.35,475.289v-1.055c-0.527,0.718-1.392,1.23-2.388,1.23c-1.845,0-3.149-1.406-3.149-3.706
				c0-2.256,1.289-3.721,3.149-3.721c0.952,0,1.817,0.469,2.388,1.245v-3.765h1.098v9.771H233.35z M233.35,473.37v-3.208
				c-0.396-0.615-1.245-1.143-2.124-1.143c-1.421,0-2.27,1.172-2.27,2.739c0,1.567,0.85,2.725,2.27,2.725
				C232.105,474.483,232.954,473.985,233.35,473.37z"/>
			<path style="fill:#1D262D;" d="M239.692,475.289v-9.771h1.099v3.765c0.571-0.776,1.421-1.245,2.388-1.245
				c1.845,0,3.149,1.465,3.149,3.721c0,2.3-1.304,3.706-3.149,3.706c-0.996,0-1.86-0.513-2.388-1.23v1.055H239.692z M242.9,474.483
				c1.436,0,2.285-1.157,2.285-2.725c0-1.567-0.85-2.739-2.285-2.739c-0.864,0-1.729,0.527-2.109,1.143v3.208
				C241.171,473.985,242.036,474.483,242.9,474.483z"/>
			<path style="fill:#1D262D;" d="M247.528,477.061c0.161,0.073,0.425,0.117,0.601,0.117c0.483,0,0.806-0.161,1.055-0.747
				l0.469-1.069l-2.959-7.148h1.186l2.358,5.801l2.344-5.801h1.201l-3.545,8.511c-0.425,1.024-1.143,1.421-2.08,1.436
				c-0.234,0-0.601-0.044-0.806-0.104L247.528,477.061z"/>
		</g>
	</g>
</g>
</svg>
