<?xml version="1.0" encoding="utf-8"?>
<!-- Generator: Adobe Illustrator 27.5.0, SVG Export Plug-In . SVG Version: 6.00 Build 0)  -->
<svg version="1.1" xmlns="http://www.w3.org/2000/svg" xmlns:xlink="http://www.w3.org/1999/xlink" x="0px" y="0px"
	 viewBox="0 0 500 500" style="enable-background:new 0 0 500 500;" xml:space="preserve">
<g id="BACKGROUND">
	<rect style="fill:#FFFFFF;" width="500" height="500"/>
</g>
<g id="OBJECTS">
	<g>
		<g>
			<g>
				<path style="fill:#773B27;" d="M419.421,322.258c-0.486-1.971-0.884-4.173-1.21-6.427c-1.24-8.576-0.748-17.28,0.844-25.798
					c1.146-6.128,0.547-11.528-0.697-15.94c-2.736-9.704-10.659-17.242-20.588-18.996c-6.843-1.209-12.377,0.564-16.018,2.447
					c-3.024,1.564-6.615,1.564-9.639,0c-3.641-1.883-9.175-3.656-16.018-2.447c-9.929,1.754-17.852,9.292-20.589,18.996
					c-1.244,4.412-1.843,9.813-0.697,15.94c1.592,8.518,2.084,17.222,0.844,25.798c-0.326,2.254-0.724,4.456-1.21,6.427
					c-1.108,4.493-1.692,9.108-1.449,13.729c0.775,14.749,7.358,40.564,43.938,40.564c36.58,0,43.163-25.814,43.938-40.564
					C421.112,331.366,420.528,326.751,419.421,322.258z"/>
				<path style="fill:#6D3624;" d="M420.872,335.987c-0.777,14.751-7.357,40.561-43.937,40.561s-43.17-25.81-43.937-40.561
					c-0.115-2.11-0.058-4.22,0.153-6.311c1.304,14.972,8.929,38.403,43.784,38.403c34.835,0,42.46-23.412,43.784-38.384
					C420.92,331.786,420.977,333.886,420.872,335.987z"/>
			</g>
			<g>
				<path style="fill:#FEBF27;" d="M388.84,242.381c0,0-4.476,1.079-7.273,5.635c0,0-0.24-7.193-4.636-10.311
					c-4.396,3.117-4.636,10.311-4.636,10.311c-2.797-4.556-7.273-5.635-7.273-5.635c1.454,3.622,1.975,11.202,2.136,14.433
					c0.049,0.981,0.601,1.876,1.473,2.327c0.043,0.022,0.087,0.045,0.13,0.067c5.162,2.619,11.177,2.619,16.339,0
					c0.043-0.022,0.087-0.044,0.13-0.067c0.872-0.451,1.424-1.346,1.473-2.327C386.865,253.583,387.386,246.003,388.84,242.381z"/>
				<path style="fill:#FEB11F;" d="M386.785,255.411c-0.029,0.527-0.058,0.997-0.077,1.4c-0.048,0.988-0.604,1.88-1.477,2.331
					c-0.038,0.019-0.086,0.048-0.134,0.067c-5.16,2.618-11.174,2.618-16.334,0c-0.048-0.019-0.086-0.048-0.134-0.067
					c-0.873-0.451-1.419-1.343-1.467-2.331c-0.019-0.403-0.048-0.863-0.077-1.381c0.259,0.585,0.7,1.074,1.276,1.371
					c0.048,0.019,0.096,0.038,0.134,0.067c5.333,2.705,11.538,2.705,16.871,0c0.048-0.029,0.086-0.048,0.134-0.067
					C386.084,256.495,386.526,256.005,386.785,255.411z"/>
			</g>
		</g>
		<g>
			<g>
				<g>
					<path style="fill:#FDD3B3;" d="M356.305,337.476c0,0-11.298,9.177-20.389,24.726c-0.619,1.058-1.574,1.882-2.729,2.293
						c-5.194,1.853-20.16,7.765-21.606,14.85c0,0-0.031,0.143-0.058,0.391c-0.505,4.657,4.901,7.502,8.609,4.639
						c1.463-1.129,3.074-2.888,4.422-5.619c0,0,6.821-2.957,13.482-5.281c4.818-1.681,9.057-4.689,12.235-8.681
						c2.998-3.766,6.755-8.369,9.637-11.517C359.909,353.279,362.417,342.863,356.305,337.476z"/>
					<path style="fill:#FDBA9C;" d="M359.91,353.28c-2.887,3.146-6.637,7.75-9.639,11.519c-3.175,3.99-7.414,7.002-12.238,8.68
						c-6.656,2.321-13.476,5.275-13.476,5.275c-1.352,2.733-2.964,4.489-4.422,5.62c-2.609,2.014-6.062,1.208-7.692-1.065
						c1.602,0.547,3.482,0.365,5.055-0.854c1.458-1.132,3.069-2.887,4.422-5.621c0,0,6.819-2.954,13.476-5.275
						c4.824-1.678,9.064-4.69,12.238-8.68c3.002-3.769,6.752-8.373,9.639-11.519c0,0,1.87-7.788-1.573-13.38
						c0.393-0.336,0.604-0.508,0.604-0.508C362.413,342.863,359.91,353.28,359.91,353.28z"/>
				</g>
				<g>
					<path style="fill:#EDF933;" d="M368.643,327.472c0,0-12.709-0.242-20.263,8.858c-2.476,2.983-3.347,6.991-2.421,10.755
						c0.434,1.765,1.089,3.746,2.075,5.596c1.97,3.696,6.268,5.549,10.348,4.603c0.074-0.017,0.149-0.035,0.224-0.053
						c9.835-2.382,15.652-12.505,13.257-22.336C371.242,332.354,370.237,329.768,368.643,327.472z"/>
					<path style="fill:#D8E233;" d="M358.606,357.231c-0.077,0.019-0.154,0.038-0.221,0.057c-4.086,0.94-8.383-0.911-10.349-4.604
						c-0.173-0.336-0.345-0.671-0.499-1.007c2.216,1.909,5.294,2.695,8.268,2.014c0.077-0.019,0.144-0.038,0.221-0.058
						c9.841-2.379,15.653-12.507,13.255-22.338c-0.307-1.276-0.719-2.561-1.247-3.817c0.393-0.01,0.614-0.01,0.614-0.01
						c1.592,2.302,2.599,4.882,3.213,7.424C374.258,344.724,368.437,354.853,358.606,357.231z"/>
				</g>
			</g>
			<g>
				<g>
					<path style="fill:#FDD3B3;" d="M397.429,337.476c0,0,11.298,9.177,20.389,24.726c0.619,1.058,1.574,1.882,2.729,2.293
						c5.194,1.853,20.16,7.765,21.607,14.85c0,0,0.031,0.143,0.058,0.391c0.505,4.657-4.901,7.502-8.609,4.639
						c-1.463-1.129-3.074-2.888-4.422-5.619c0,0-6.821-2.957-13.482-5.281c-4.818-1.681-9.057-4.689-12.235-8.681
						c-2.998-3.766-6.755-8.369-9.637-11.517C393.825,353.279,391.317,342.863,397.429,337.476z"/>
					<path style="fill:#FDBA9C;" d="M393.824,353.28c2.887,3.146,6.637,7.75,9.639,11.519c3.175,3.99,7.414,7.002,12.238,8.68
						c6.656,2.321,13.476,5.275,13.476,5.275c1.352,2.733,2.964,4.489,4.422,5.62c2.609,2.014,6.062,1.208,7.692-1.065
						c-1.602,0.547-3.482,0.365-5.055-0.854c-1.458-1.132-3.069-2.887-4.422-5.621c0,0-6.819-2.954-13.476-5.275
						c-4.824-1.678-9.064-4.69-12.238-8.68c-3.002-3.769-6.752-8.373-9.639-11.519c0,0-1.87-7.788,1.573-13.38
						c-0.393-0.336-0.604-0.508-0.604-0.508C391.321,342.863,393.824,353.28,393.824,353.28z"/>
				</g>
				<g>
					<path style="fill:#EDF933;" d="M385.091,327.472c0,0,12.709-0.242,20.264,8.858c2.476,2.983,3.347,6.991,2.421,10.755
						c-0.434,1.765-1.089,3.746-2.075,5.596c-1.97,3.696-6.268,5.549-10.348,4.603c-0.074-0.017-0.149-0.035-0.224-0.053
						c-9.835-2.382-15.652-12.505-13.257-22.336C382.492,332.354,383.497,329.768,385.091,327.472z"/>
					<path style="fill:#D8E233;" d="M395.129,357.231c0.077,0.019,0.153,0.038,0.221,0.057c4.086,0.94,8.383-0.911,10.349-4.604
						c0.173-0.336,0.345-0.671,0.499-1.007c-2.216,1.909-5.294,2.695-8.268,2.014c-0.077-0.019-0.144-0.038-0.22-0.058
						c-9.841-2.379-15.653-12.507-13.255-22.338c0.307-1.276,0.719-2.561,1.247-3.817c-0.393-0.01-0.614-0.01-0.614-0.01
						c-1.592,2.302-2.599,4.882-3.213,7.424C379.476,344.724,385.298,354.853,395.129,357.231z"/>
				</g>
			</g>
		</g>
		<g>
			<g>
				<path style="fill:#BACE33;" d="M390.95,363.83c-6.354,1.893-13.625,2.37-14.079,2.395c-0.454-0.026-7.699-0.503-14.053-2.395
					c0,0-23.91,29.613-30.851,76.07c0,0,7.636,9.052,22.214,5.375c0,0,7.968,8.135,22.691,3.051
					c14.723,5.084,22.691-3.051,22.691-3.051c14.578,3.677,22.214-5.375,22.214-5.375C414.834,393.443,390.95,363.83,390.95,363.83z
					"/>
				<path style="fill:#A6C233;" d="M421.773,439.898c0,0-7.635,9.054-22.213,5.381c0,0-7.97,8.133-22.693,3.05
					c-14.723,5.083-22.683-3.05-22.683-3.05c-14.579,3.673-22.213-5.381-22.213-5.381c0.863-5.812,1.995-11.366,3.309-16.622
					c0.786,4.335,4.028,8.038,8.546,9.054c2.11,0.48,4.556,0.681,7.328,0.403c2.379-0.24,4.805,0.173,6.887,1.333
					c3.05,1.698,8.498,3.568,16.113,1.678c1.784-0.441,3.654-0.441,5.438,0c7.615,1.889,13.063,0.019,16.113-1.678
					c2.081-1.16,4.508-1.573,6.877-1.333c2.781,0.278,5.227,0.077,7.337-0.403c4.508-1.017,7.75-4.7,8.536-9.025
					C419.778,428.552,420.91,434.095,421.773,439.898z"/>
			</g>
			<g>
				<path style="fill:#BACE33;" d="M389.056,330.863c-1.168-1.109-2.486-2.255-3.957-3.39h-8.189h-0.08h-8.189
					c-1.471,1.135-2.788,2.281-3.956,3.39c-8.341,7.92-10.132,20.689-3.693,30.219c1.215,1.798,2.21,2.748,2.21,2.748
					c4.781,1.935,12.824,2.356,13.628,2.394v0.004c0,0,0.029-0.001,0.04-0.002c0.011,0,0.04,0.002,0.04,0.002v-0.004
					c0.804-0.038,8.847-0.459,13.628-2.394c0,0,0.995-0.95,2.21-2.748C399.188,351.551,397.397,338.783,389.056,330.863z"/>
				<path style="fill:#A6C233;" d="M392.75,361.077c-1.218,1.803-2.216,2.753-2.216,2.753c-2.388,0.969-5.592,1.563-8.306,1.909
					c-2.705,0.355-4.92,0.47-5.314,0.489c0,0-0.029,0-0.048,0c-0.009,0-0.038,0-0.038,0c-0.806-0.038-8.843-0.46-13.629-2.398
					c0,0-0.988-0.949-2.206-2.753c-2.829-4.191-4.076-9.006-3.856-13.763c0.393,3.587,1.63,7.107,3.769,10.272
					c0.029,0.048,0.067,0.105,0.096,0.154c1.237,1.794,3.098,3.06,5.208,3.577c4.585,1.132,9.965,1.41,10.617,1.439v0.01
					c0,0,0.029-0.01,0.038-0.01c0.019,0,0.048,0.01,0.048,0.01v-0.01c0.652-0.029,6.033-0.307,10.617-1.439
					c2.11-0.518,3.961-1.774,5.199-3.568c0.038-0.058,0.077-0.105,0.115-0.163c2.1-3.117,3.347-6.589,3.769-10.138
					C396.798,352.157,395.561,356.924,392.75,361.077z"/>
			</g>
			<g>
				<path style="fill:#D8E233;" d="M421.773,439.898c0,0-7.635,9.054-22.213,5.381c0,0-7.97,8.133-22.693,3.05
					c-14.723,5.083-22.683-3.05-22.683-3.05c-14.579,3.673-22.213-5.381-22.213-5.381c0.134-0.873,0.269-1.746,0.412-2.599
					c0.192-1.16,0.393-2.302,0.604-3.434c2.522,2.254,9.697,7.27,21.197,4.364c0,0,7.961,8.143,22.683,3.06
					c14.723,5.083,22.693-3.06,22.693-3.06c11.5,2.906,18.674-2.11,21.197-4.364c0.211,1.132,0.412,2.273,0.604,3.434
					C421.505,438.152,421.639,439.025,421.773,439.898z"/>
				<path style="fill:#EDF933;" d="M421.361,437.299c-1.765,1.765-9.179,8.124-21.801,4.939c0,0-7.97,8.133-22.693,3.05
					c-14.723,5.083-22.683-3.05-22.683-3.05c-12.622,3.184-20.036-3.175-21.801-4.939c0.192-1.16,0.393-2.302,0.604-3.434
					c2.522,2.254,9.697,7.27,21.197,4.364c0,0,7.961,8.143,22.683,3.06c14.723,5.083,22.693-3.06,22.693-3.06
					c11.5,2.906,18.674-2.11,21.197-4.364C420.968,434.997,421.169,436.138,421.361,437.299z"/>
			</g>
			<g>
				<g>
					<path style="fill:#EDF933;" d="M390.559,363.83c0,0,23.232,12.387,25.62,30.8c1.668,12.86-12.727,21.25-23.29,13.728
						c-8.159-5.81-16.037-17.737-16.037-42.13C376.851,366.228,386.363,365.388,390.559,363.83z"/>
					<path style="fill:#D8E233;" d="M416.153,398.828c-1.535,10.368-13.898,16.2-23.268,9.534
						c-8.152-5.812-16.036-17.744-16.036-42.134c0,0,0.834-0.077,2.129-0.221c1.046,20.918,8.354,31.536,15.912,36.917
						C402.447,408.304,411.962,405.542,416.153,398.828z"/>
				</g>
				<g>
					<path style="fill:#EDF933;" d="M363.176,363.83c0,0-23.232,12.387-25.619,30.8c-1.668,12.86,12.727,21.25,23.29,13.728
						c8.159-5.81,16.037-17.737,16.037-42.13C376.883,366.228,367.372,365.388,363.176,363.83z"/>
					<path style="fill:#D8E233;" d="M337.582,398.828c1.534,10.368,13.898,16.2,23.268,9.534
						c8.152-5.812,16.036-17.744,16.036-42.134c0,0-0.835-0.077-2.129-0.221c-1.046,20.918-8.354,31.536-15.912,36.917
						C351.287,408.304,341.773,405.542,337.582,398.828z"/>
				</g>
			</g>
			<g>
				<path style="fill:#FDD3B3;" d="M385.404,316.852v8.536c0,0.489-0.038,0.969-0.115,1.429c-0.691,4.028-4.191,7.098-8.421,7.098
					c-4.23,0-7.74-3.079-8.411-7.126c-0.077-0.451-0.115-0.921-0.115-1.4v-8.536H385.404z"/>
				<path style="fill:#FDBA9C;" d="M385.404,316.852v8.536c0,0.489-0.038,0.969-0.115,1.429c-2.561,0.451-5.342,0.729-8.354,0.729
					c-3.06,0-5.889-0.288-8.479-0.758c-0.077-0.451-0.115-0.921-0.115-1.4v-8.536H385.404z"/>
			</g>
		</g>
		<g>
			<g>
				<g>
					<path style="fill:#FDD3B3;" d="M399.571,297.011c0,0,4.496-6.264,10.984-6.987c7.125-0.794,12.368,6.876,8.336,12.804
						c-2.036,2.993-6.414,5.225-15.483,3.934L399.571,297.011z"/>
					<g>
						<path style="fill:#FDBA9C;" d="M415.254,301.257c-0.786,1.17-2.139,2.148-4.402,2.551c-1.41,0.24-3.184,0.259-5.4-0.057
							l-2.427-6.177c0,0,1.707-2.379,4.393-3.664c0.777-0.374,1.64-0.652,2.561-0.758
							C414.487,292.653,417.805,297.507,415.254,301.257z"/>
						<path style="fill:#FD9786;" d="M412.971,301.976c-0.48,0.71-1.161,1.343-2.12,1.832c-1.41,0.24-3.184,0.259-5.4-0.057
							l-2.427-6.177c0,0,1.707-2.379,4.393-3.664c0.096-0.019,0.182-0.029,0.278-0.038
							C412.214,293.373,415.523,298.226,412.971,301.976z"/>
					</g>
				</g>
				<g>
					<path style="fill:#FDD3B3;" d="M354.292,297.011c0,0-4.496-6.264-10.984-6.987c-7.125-0.794-12.368,6.876-8.336,12.804
						c2.036,2.993,6.414,5.225,15.483,3.934L354.292,297.011z"/>
					<g>
						<path style="fill:#FDBA9C;" d="M338.608,301.257c0.787,1.17,2.139,2.148,4.402,2.551c1.41,0.24,3.184,0.259,5.4-0.057
							l2.427-6.177c0,0-1.707-2.379-4.393-3.664c-0.777-0.374-1.64-0.652-2.561-0.758
							C339.376,292.653,336.057,297.507,338.608,301.257z"/>
						<path style="fill:#FD9786;" d="M340.891,301.976c0.48,0.71,1.161,1.343,2.12,1.832c1.41,0.24,3.184,0.259,5.4-0.057
							l2.427-6.177c0,0-1.707-2.379-4.393-3.664c-0.096-0.019-0.182-0.029-0.278-0.038
							C341.649,293.373,338.34,298.226,340.891,301.976z"/>
					</g>
				</g>
			</g>
			<path style="fill:#FDD3B3;" d="M406.337,305.938c-0.108-2.097-0.372-3.891-0.645-5.274c-0.402-2.043-0.433-4.128-0.194-6.196
				c0.827-7.145-0.594-25.35-0.594-25.35H376.93h-27.974c0,0-1.421,18.205-0.594,25.35c0.239,2.069,0.208,4.153-0.194,6.196
				c-0.272,1.383-0.536,3.178-0.645,5.274c-0.304,5.886,2.798,11.365,7.98,14.172c4.869,2.638,12.076,5.275,21.427,5.275
				c9.351,0,16.558-2.638,21.427-5.275C403.539,317.303,406.641,311.823,406.337,305.938z"/>
			<g>
				<g>
					<path style="fill:#773B27;" d="M352.812,289.031c-0.186,0-0.375-0.036-0.557-0.113c-0.732-0.308-1.077-1.152-0.769-1.884
						c0.043-0.103,1.087-2.525,3.7-3.562c1.877-0.744,4.017-0.594,6.362,0.446c0.726,0.322,1.054,1.172,0.732,1.899
						c-0.322,0.725-1.174,1.054-1.899,0.732c-1.612-0.715-3.003-0.85-4.134-0.401c-1.479,0.586-2.103,1.988-2.108,2.002
						C353.907,288.7,353.373,289.031,352.812,289.031z"/>
				</g>
				<g>
					<path style="fill:#773B27;" d="M361.769,302.742L361.769,302.742c-2.488,0-4.504-2.017-4.504-4.504v-3.033
						c0-2.487,2.017-4.504,4.504-4.504l0,0c2.487,0,4.504,2.017,4.504,4.504v3.033C366.273,300.726,364.257,302.742,361.769,302.742
						z"/>
				</g>
				<g>
					<circle style="fill:#FFFFFF;" cx="366.78" cy="292.31" r="3.539"/>
				</g>
				<g>
					<path style="fill:#773B27;" d="M392.134,302.742L392.134,302.742c2.487,0,4.504-2.017,4.504-4.504v-3.033
						c0-2.487-2.017-4.504-4.504-4.504l0,0c-2.488,0-4.504,2.017-4.504,4.504v3.033C387.63,300.726,389.647,302.742,392.134,302.742
						z"/>
				</g>
				<g>
					<circle style="fill:#FFFFFF;" cx="387.123" cy="292.31" r="3.539"/>
				</g>
				<g>
					<path style="fill:#773B27;" d="M401.049,289.031c-0.558,0-1.088-0.327-1.322-0.871c-0.019-0.043-0.671-1.456-2.143-2.025
						c-1.126-0.434-2.506-0.296-4.104,0.413c-0.727,0.323-1.577-0.006-1.899-0.732c-0.322-0.726,0.005-1.576,0.732-1.899
						c2.345-1.04,4.486-1.19,6.362-0.446c2.613,1.036,3.657,3.459,3.701,3.562c0.308,0.732-0.036,1.576-0.769,1.884
						C401.424,288.995,401.235,289.031,401.049,289.031z"/>
				</g>
				
					<path style="fill:none;stroke:#773B27;stroke-width:1.9182;stroke-linecap:round;stroke-linejoin:round;stroke-miterlimit:10;" d="
					M372.814,306.203v0.999c0,2.273,1.843,4.116,4.116,4.116l0,0c2.273,0,4.116-1.843,4.116-4.116v-0.999"/>
				<path style="fill:#F79C97;" d="M400.059,303.046c0,1.744-2.076,3.157-4.636,3.157c-2.56,0-4.636-1.413-4.636-3.157
					c0-1.744,2.076-3.157,4.636-3.157C397.983,299.888,400.059,301.302,400.059,303.046z"/>
				<path style="fill:#F79C97;" d="M363.073,303.046c0,1.744-2.076,3.157-4.636,3.157c-2.56,0-4.636-1.413-4.636-3.157
					c0-1.744,2.076-3.157,4.636-3.157C360.997,299.888,363.073,301.302,363.073,303.046z"/>
				<path style="fill:#773B27;" d="M396.282,293.445c0,0,1.028,1.887,3.565,2.267c0,0-1.898,1.213-3.637,0.137L396.282,293.445z"/>
				<path style="fill:#773B27;" d="M357.578,293.445c0,0-1.028,1.887-3.565,2.267c0,0,1.898,1.213,3.637,0.137L357.578,293.445z"/>
			</g>
			<g>
				<path style="fill:#773B27;" d="M411.3,282.544c0,0-6.393-1.919-19.049-2.907c-1.818-0.142-3.318-1.509-3.571-3.315
					c-0.247-1.765-0.366-3.346-0.411-4.691c-0.051-1.526-2.145-1.926-2.73-0.516c-0.668,1.609-1.12,3.324-1.425,4.868
					c-0.364,1.837-2.011,3.144-3.884,3.115c-1.083-0.017-2.194-0.026-3.334-0.026c-1.142,0-2.255,0.009-3.339,0.026
					c-1.873,0.029-3.52-1.278-3.884-3.116c-0.306-1.544-0.759-3.26-1.428-4.869c-0.586-1.41-2.679-1.008-2.729,0.517
					c-0.044,1.345-0.161,2.925-0.406,4.688c-0.251,1.807-1.752,3.177-3.572,3.319c-12.663,0.988-19.055,2.907-19.055,2.907
					c0-0.403,0-0.786,0.019-1.18c0.46-11.605,10.589-20.429,22.204-20.055c6.973,0.23,12.162,2.532,12.162,2.532h0.048
					c0,0,5.189-2.302,12.171-2.532c11.605-0.374,21.734,8.45,22.194,20.055C411.3,281.758,411.309,282.142,411.3,282.544z"/>
				<path style="fill:#6D3624;" d="M411.3,282.544c0,0-6.397-1.918-19.048-2.906c-1.822-0.144-3.319-1.506-3.568-3.318
					c-0.249-1.765-0.374-3.347-0.412-4.69c-0.057-1.525-2.148-1.928-2.733-0.518c-0.662,1.611-1.122,3.328-1.419,4.872
					c-0.364,1.832-2.014,3.146-3.884,3.117c-1.084-0.019-2.196-0.029-3.338-0.029c-1.141,0-2.254,0.01-3.338,0.029
					c-1.87,0.029-3.52-1.285-3.884-3.117c-0.307-1.544-0.758-3.261-1.429-4.872c-0.585-1.41-2.676-1.007-2.733,0.518
					c-0.038,1.343-0.154,2.925-0.403,4.69c-0.249,1.803-1.755,3.175-3.568,3.318c-12.66,0.988-19.058,2.906-19.058,2.906
					c0-0.403,0-0.786,0.019-1.18c0.038-0.921,0.134-1.822,0.297-2.695c3.223-0.508,9.486-1.458,14.982-2.024
					c1.554-0.163,2.81-1.295,3.194-2.81c0.643-2.503,2.225-6.292,6.129-8.632c0,0,2.839,2.398,4.815,7.759
					c0.499,1.333,1.736,2.254,3.156,2.369c0.729,0.057,1.439,0.096,1.822,0.096c0.374,0,1.084-0.038,1.822-0.096
					c1.419-0.115,2.657-1.036,3.146-2.369c1.976-5.362,4.824-7.759,4.824-7.759c3.894,2.34,5.477,6.129,6.119,8.632
					c0.393,1.515,1.64,2.647,3.194,2.81c5.505,0.566,11.769,1.515,14.982,2.024c0.163,0.873,0.259,1.774,0.297,2.695
					C411.3,281.758,411.309,282.142,411.3,282.544z"/>
			</g>
		</g>
	</g>
	<g>
		<g>
			<g>
				<path style="fill:#773B27;" d="M166.38,97.656c-1.028-1.668-1.927-3.551-2.707-5.485c-2.96-7.341-3.519-15.389-2.14-23.183
					c0.647-3.659,0.928-7.215,0.988-10.479c0.297-16.251-13.104-29.427-29.332-28.506c-5.88,0.334-10.109,1.713-10.109,1.713
					s-4.229-1.379-10.109-1.713c-16.228-0.921-29.629,12.254-29.332,28.506c0.06,3.264,0.34,6.82,0.987,10.479
					c1.379,7.794,0.82,15.842-2.14,23.183c-0.78,1.934-1.679,3.817-2.707,5.485c0,0-9.912,14.507,1.238,21.94
					c0,0-3.717,20.741,16.425,19.302c0,0,0.921,18.703,25.637,14.387c24.717,4.316,25.637-14.387,25.637-14.387
					c20.141,1.439,16.425-19.302,16.425-19.302C176.292,112.163,166.38,97.656,166.38,97.656z"/>
				<path style="fill:#6D3624;" d="M165.137,119.591c0,0,3.721,20.746-16.42,19.307c0,0-0.921,18.703-25.637,14.387
					c-24.716,4.316-25.637-14.387-25.637-14.387c-20.142,1.439-16.42-19.307-16.42-19.307c-11.155-7.424-1.247-21.935-1.247-21.935
					c0.518-0.834,0.998-1.717,1.448-2.628c-1.276,4.354-3.299,15.001,5.016,20.535c0,0-6.733,18.156,12.44,16.785
					c0,0,0.873,17.801,24.4,13.696c23.518,4.105,24.391-13.696,24.391-13.696c19.173,1.372,13.687-17.293,13.687-17.293
					c7.673-5.112,5.879-14.32,4.307-19.019c0.288,0.556,0.595,1.103,0.921,1.621C166.384,97.656,176.292,112.167,165.137,119.591z"
					/>
			</g>
			<g>
				<path style="fill:#FEBF27;" d="M135.11,20.806c0,0-4.476,1.079-7.273,5.635c0,0-0.24-7.193-4.636-10.31
					c-4.396,3.117-4.636,10.31-4.636,10.31c-2.797-4.556-7.273-5.635-7.273-5.635c1.454,3.622,1.975,11.202,2.136,14.433
					c0.049,0.98,0.601,1.875,1.473,2.326c0.043,0.022,0.087,0.045,0.13,0.067c5.162,2.619,11.177,2.619,16.339,0
					c0.044-0.022,0.087-0.044,0.13-0.067c0.872-0.451,1.425-1.346,1.473-2.326C133.135,32.008,133.656,24.428,135.11,20.806z"/>
				<path style="fill:#FEB11F;" d="M133.103,33.126c-0.058,0.815-0.096,1.535-0.125,2.11c-0.058,0.988-0.604,1.88-1.477,2.331
					c-0.048,0.019-0.086,0.048-0.134,0.067c-5.16,2.618-11.174,2.618-16.334,0c-0.048-0.019-0.086-0.048-0.134-0.067
					c-0.873-0.451-1.42-1.343-1.467-2.331c-0.029-0.576-0.067-1.285-0.125-2.081c0.259,0.585,0.71,1.084,1.285,1.381
					c0.048,0.019,0.086,0.038,0.134,0.067c5.352,2.714,11.596,2.714,16.948,0c0.048-0.029,0.096-0.048,0.134-0.067
					C132.403,34.229,132.853,33.721,133.103,33.126z"/>
			</g>
		</g>
		<g>
			<g>
				<path style="fill:#FDD3B3;" d="M133.99,108.065c0,0,11.972,8.853,28.117,31.86c0.704,1.003,3.563,2.584,4.718,2.995
					c5.194,1.852,20.16,7.765,21.606,14.85c0,0,0.031,0.144,0.058,0.391c0.505,4.657-4.901,7.502-8.61,4.639
					c-1.463-1.129-3.073-2.888-4.422-5.619c0,0-6.821-2.957-13.482-5.281c-4.818-1.681-8.986-4.747-12.235-8.681
					c-6.836-8.278-14.58-17.56-17.462-20.708C132.279,122.513,127.878,113.452,133.99,108.065z"/>
				<path style="fill:#FDBA9C;" d="M187.802,161.38c-1.525,2.542-5.179,3.539-7.922,1.419c-1.458-1.132-3.069-2.887-4.422-5.62
					c0,0-6.819-2.954-13.485-5.275c-4.815-1.678-8.987-4.748-12.229-8.68c-6.839-8.277-14.579-17.562-17.466-20.707
					c0,0-4.402-9.064,1.717-14.454c0,0,0.125,0.086,0.365,0.278c-3.107,5.313,0.202,12.133,0.202,12.133
					c2.877,3.146,10.617,12.43,17.456,20.708c3.251,3.932,7.424,7.002,12.238,8.68c6.656,2.331,13.485,5.285,13.485,5.285
					c1.343,2.733,2.954,4.489,4.422,5.62C183.927,162.128,186.085,162.195,187.802,161.38z"/>
			</g>
			<g>
				<path style="fill:#FDD3B3;" d="M112.285,108.065c0,0-11.972,8.853-28.117,31.86c-0.704,1.003-3.563,2.584-4.718,2.995
					c-5.194,1.852-20.16,7.765-21.606,14.85c0,0-0.031,0.144-0.058,0.391c-0.505,4.657,4.901,7.502,8.609,4.639
					c1.463-1.129,3.074-2.888,4.422-5.619c0,0,6.821-2.957,13.482-5.281c4.818-1.681,8.986-4.747,12.235-8.681
					c6.836-8.278,14.58-17.56,17.462-20.708C113.996,122.513,118.397,113.452,112.285,108.065z"/>
				<path style="fill:#FDBA9C;" d="M58.473,161.38c1.525,2.542,5.179,3.539,7.922,1.419c1.458-1.132,3.069-2.887,4.422-5.62
					c0,0,6.819-2.954,13.485-5.275c4.815-1.678,8.987-4.748,12.229-8.68c6.838-8.277,14.579-17.562,17.466-20.707
					c0,0,4.402-9.064-1.717-14.454c0,0-0.125,0.086-0.365,0.278c3.108,5.313-0.201,12.133-0.201,12.133
					c-2.877,3.146-10.618,12.43-17.456,20.708c-3.251,3.932-7.424,7.002-12.238,8.68c-6.656,2.331-13.485,5.285-13.485,5.285
					c-1.343,2.733-2.954,4.489-4.422,5.62C62.348,162.128,60.19,162.195,58.473,161.38z"/>
			</g>
		</g>
		<g>
			<g>
				<path style="fill:#FFFFFF;" d="M142.867,126.756c0,4.422-1.256,8.853-3.884,12.747c-1.218,1.803-2.206,2.753-2.206,2.753
					c-0.297,0.125-0.614,0.24-0.93,0.345c-0.643,0.221-1.333,0.412-2.033,0.595c-0.355,0.096-0.71,0.173-1.074,0.249
					c-0.355,0.077-0.719,0.154-1.084,0.221c-0.355,0.067-0.719,0.134-1.084,0.192c-0.537,0.086-1.074,0.173-1.592,0.24
					c-0.173,0.019-0.336,0.048-0.508,0.067c-0.374,0.048-0.729,0.096-1.074,0.134c-0.259,0.029-0.508,0.058-0.748,0.077
					c-0.566,0.057-1.084,0.105-1.544,0.144c-0.144,0.01-0.278,0.019-0.412,0.029c-0.029,0.01-0.058,0.01-0.086,0.01
					c-0.221,0.019-0.413,0.029-0.595,0.048h-0.048c-0.086,0.01-0.173,0.01-0.249,0.019c-0.259,0.01-0.451,0.019-0.547,0.029
					c-0.01,0-0.019,0-0.019,0c-0.01,0-0.019,0-0.019,0c-0.201-0.01-0.863-0.048-1.822-0.115c-0.115-0.01-0.221-0.019-0.336-0.038
					c-0.134-0.01-0.259-0.019-0.393-0.029h-0.038c-0.115-0.019-0.24-0.029-0.355-0.038c-0.01,0-0.019,0-0.019,0h-0.038
					c-0.125-0.019-0.249-0.029-0.384-0.048c0,0-0.01,0-0.019,0h-0.029c-0.134-0.01-0.278-0.029-0.422-0.048
					c-0.153-0.01-0.307-0.029-0.46-0.048c0,0-0.01,0-0.019,0h-0.029c-0.144-0.019-0.288-0.038-0.441-0.058c0,0-0.01,0-0.019,0
					s-0.019-0.01-0.029,0c-0.144-0.029-0.297-0.048-0.451-0.067c-0.01,0-0.01,0-0.019,0c-0.163-0.019-0.326-0.038-0.489-0.067
					c-0.009,0-0.019,0-0.019,0c-0.173-0.019-0.355-0.048-0.528-0.077c-0.173-0.019-0.336-0.048-0.508-0.077c-0.01,0-0.019,0-0.019,0
					c-0.182-0.029-0.364-0.057-0.537-0.086h-0.029c-0.163-0.029-0.326-0.057-0.499-0.096c0,0-0.01,0-0.019,0
					c-0.173-0.029-0.355-0.067-0.537-0.096c-0.173-0.038-0.355-0.067-0.527-0.105c-0.01,0-0.01,0-0.019,0
					c-0.365-0.077-0.719-0.153-1.074-0.24c-0.182-0.038-0.355-0.086-0.537-0.125c-0.144-0.038-0.297-0.077-0.441-0.115
					c-0.048-0.01-0.096-0.029-0.144-0.038c-0.326-0.086-0.643-0.182-0.959-0.278c-0.499-0.153-0.969-0.326-1.42-0.508
					c0,0-0.988-0.949-2.206-2.753c-4.824-7.136-5.026-16.084-1.324-23.46c-0.01,0.039-0.029,0.077-0.038,0.115
					c1.247-2.513,2.945-4.843,5.074-6.867c1.17-1.113,2.484-2.254,3.952-3.395h16.382c1.467,1.141,2.781,2.283,3.952,3.395
					c2.091,1.985,3.779,4.287,5.016,6.752c0.01,0.01,0.01,0.019,0.01,0.029c0.057,0.105,0.115,0.221,0.163,0.326
					c0.154,0.307,0.288,0.614,0.422,0.921c0.019,0.038,0.029,0.077,0.048,0.115c0.144,0.317,0.269,0.643,0.393,0.969
					c0.278,0.748,0.518,1.515,0.729,2.283c0.048,0.201,0.105,0.403,0.144,0.595c0.077,0.307,0.144,0.604,0.201,0.911
					c0.067,0.326,0.125,0.652,0.173,0.988c0.057,0.355,0.105,0.71,0.134,1.065c0.058,0.48,0.096,0.969,0.115,1.458
					C142.857,126.055,142.867,126.401,142.867,126.756z"/>
				<g>
					<g>
						<path style="fill:#F79C97;" d="M168.044,218.323c0,0-7.309,8.67-21.283,5.601c-0.307-0.067-0.614-0.144-0.93-0.221
							c0,0-0.24,0.249-0.719,0.623c-2.206,1.765-9.438,6.378-21.062,2.724c-0.297-0.086-0.604-0.192-0.911-0.297
							c-0.307,0.106-0.614,0.211-0.911,0.297c-11.625,3.654-18.847-0.959-21.053-2.724c-0.48-0.374-0.719-0.623-0.719-0.623
							c-0.317,0.077-0.623,0.153-0.93,0.221c-13.974,3.069-21.283-5.601-21.283-5.601c0.221-1.477,0.46-2.925,0.71-4.364
							c0.125-0.719,0.259-1.439,0.393-2.148c0.134-0.71,0.269-1.41,0.412-2.12c0.125-0.595,0.249-1.199,0.374-1.784
							c0.345-1.65,0.719-3.271,1.103-4.863c0.125-0.518,0.259-1.036,0.384-1.544c0.105-0.432,0.211-0.863,0.326-1.295
							c6.34-24.352,16.564-42.336,22.491-51.38c2.695-3.606,4.594-6.004,4.968-6.484c2.11,0.604,4.287,1.065,6.282,1.41
							c0.671,0.105,1.324,0.211,1.937,0.297c1.976,0.288,3.626,0.451,4.594,0.527c0.211,0.029,0.384,0.038,0.527,0.048
							c0.23,0.019,0.355,0.029,0.355,0.029h0.067c0,0,0.048,0,0.134-0.01c0.038,0,0.086-0.01,0.144-0.01
							c0.048,0,0.096-0.01,0.154-0.01c0.144-0.01,0.316-0.029,0.518-0.038c0.978-0.086,2.599-0.249,4.546-0.537
							c0.623-0.077,1.266-0.182,1.938-0.297c1.985-0.336,4.172-0.796,6.273-1.4c0.403,0.508,2.34,2.973,5.103,6.647
							c0,0.019,0.019,0.038,0.038,0.058c5.937,9.121,16.046,26.999,22.319,51.14c0.134,0.528,0.278,1.065,0.403,1.602
							c0.317,1.247,0.614,2.513,0.911,3.798c0.096,0.441,0.201,0.882,0.297,1.333c0.144,0.652,0.288,1.304,0.412,1.957
							c0.096,0.422,0.173,0.844,0.259,1.266c0.125,0.595,0.24,1.189,0.345,1.784c0.134,0.7,0.259,1.4,0.384,2.1
							C167.593,215.455,167.823,216.884,168.044,218.323z"/>
						<path style="fill:#F78686;" d="M168.044,218.323c0,0-7.309,8.67-21.283,5.601c-0.307-0.067-0.614-0.144-0.93-0.221
							c0,0-0.24,0.249-0.719,0.623c-2.206,1.765-9.438,6.378-21.062,2.724c-0.297-0.086-0.604-0.192-0.911-0.297
							c-0.307,0.106-0.614,0.211-0.911,0.297c-11.625,3.654-18.847-0.959-21.053-2.724c-0.48-0.374-0.719-0.623-0.719-0.623
							c-0.317,0.077-0.623,0.153-0.93,0.221c-13.974,3.069-21.283-5.601-21.283-5.601c0.221-1.477,0.46-2.925,0.71-4.364
							c0.125-0.719,0.259-1.439,0.393-2.148c0.134-0.71,0.269-1.41,0.412-2.12c0.125-0.595,0.249-1.199,0.374-1.784
							c0.345-1.65,0.719-3.271,1.103-4.863c0.125-0.518,0.259-1.036,0.384-1.544c-0.288,1.276-0.556,2.58-0.806,3.894
							c-0.997,5.131,1.861,10.349,6.819,11.98c2.666,0.882,5.985,1.381,9.927,0.911c0.815-0.096,1.64-0.086,2.446,0.019
							c0.643,0.086,1.276,0.23,1.899,0.432c0.71,0.23,1.41,0.537,2.072,0.911c3.108,1.755,8.747,3.712,16.67,1.678
							c0.499-0.134,1.017-0.22,1.535-0.268c0.633-0.067,1.285-0.067,1.918,0c0.518,0.048,1.036,0.134,1.535,0.268
							c7.922,2.033,13.562,0.077,16.679-1.678c0.662-0.374,1.362-0.681,2.072-0.911c0.614-0.201,1.247-0.345,1.889-0.432
							c0.806-0.105,1.63-0.115,2.446-0.019c3.721,0.441,6.886,0.019,9.466-0.767c5.189-1.573,8.325-6.819,7.289-12.133
							c-0.23-1.209-0.48-2.407-0.739-3.587c0.317,1.247,0.614,2.513,0.911,3.798c0.096,0.441,0.201,0.882,0.297,1.333
							c0.144,0.652,0.288,1.304,0.412,1.957c0.096,0.422,0.173,0.844,0.259,1.266c0.125,0.595,0.24,1.189,0.345,1.784
							c0.134,0.7,0.259,1.4,0.384,2.1C167.593,215.455,167.823,216.884,168.044,218.323z"/>
					</g>
					<g>
						<g>
							<path style="fill:#F76A68;" d="M117.622,144.049c-0.009,0.086-0.038,0.173-0.077,0.249
								c-9.131,18.54-14.138,60.022-15.643,74.438c-0.326,3.098-0.489,4.949-0.499,5.045c-0.019,0.211-0.106,0.403-0.23,0.547
								c-0.48-0.374-0.719-0.623-0.719-0.623c-0.317,0.077-0.623,0.153-0.93,0.221c-0.029-0.096-0.038-0.201-0.029-0.307
								c0.029-0.393,0.201-2.302,0.508-5.314c1.525-14.665,6.426-55.456,15.682-74.553c0.048-0.105,0.096-0.211,0.144-0.307
								c0.23-0.47,0.806-0.671,1.276-0.432C117.507,143.205,117.699,143.636,117.622,144.049z"/>
						</g>
						<g>
							<path style="fill:#F76A68;" d="M146.789,223.617c0.01,0.105,0,0.211-0.029,0.307c-0.307-0.067-0.614-0.144-0.93-0.221
								c0,0-0.24,0.249-0.719,0.623c-0.125-0.144-0.211-0.336-0.23-0.547c-0.01-0.096-0.173-1.947-0.499-5.045
								c-1.516-14.416-6.512-55.898-15.643-74.438c-0.038-0.077-0.067-0.163-0.077-0.249c-0.086-0.412,0.115-0.844,0.508-1.036
								c0.48-0.24,1.055-0.038,1.285,0.432c0.048,0.096,0.096,0.201,0.144,0.307c9.255,19.096,14.157,59.888,15.672,74.553
								C146.588,221.315,146.751,223.224,146.789,223.617z"/>
						</g>
						<g>
							<path style="fill:#F76A68;" d="M124.125,144.653l-0.029,76.404v5.697c0,0.106-0.019,0.202-0.048,0.297
								c-0.297-0.086-0.604-0.192-0.911-0.297c-0.307,0.106-0.614,0.211-0.911,0.297c-0.029-0.096-0.048-0.192-0.048-0.297v-5.697
								l0.029-76.404c0-0.029,0-0.048,0.01-0.077c0.038-0.489,0.451-0.882,0.95-0.882c0,0,0,0,0.01,0
								c0.508,0,0.911,0.393,0.94,0.892C124.125,144.605,124.125,144.634,124.125,144.653z"/>
						</g>
					</g>
				</g>
			</g>
			<g>
				<g>
					<g>
						<path style="fill:#E65154;" d="M142.867,126.756c0,4.422-1.256,8.853-3.884,12.747c-1.218,1.803-2.206,2.753-2.206,2.753
							c-0.297,0.125-0.614,0.24-0.93,0.345c-0.643,0.221-1.333,0.412-2.033,0.595c-0.355,0.086-0.71,0.173-1.074,0.249
							c-0.355,0.077-0.719,0.154-1.084,0.221c-0.355,0.067-0.719,0.134-1.084,0.192c-0.537,0.086-1.074,0.173-1.592,0.24
							c-0.173,0.019-0.336,0.048-0.508,0.067c-0.374,0.048-0.729,0.096-1.074,0.134c-0.259,0.029-0.508,0.058-0.748,0.077
							c-0.566,0.057-1.084,0.105-1.544,0.144c-0.144,0.01-0.278,0.019-0.412,0.029c-0.029,0.01-0.058,0.01-0.086,0.01
							c-0.221,0.019-0.413,0.029-0.595,0.048h-0.048c-0.086,0.01-0.173,0.01-0.249,0.019c-0.259,0.01-0.451,0.019-0.547,0.029
							c-0.01,0-0.019,0-0.019,0c-0.01,0-0.019,0-0.019,0c0-0.451,0-0.892,0.01-1.333v-0.585c0-0.153,0.01-0.317,0.01-0.47v-0.249
							c0-0.163,0.01-0.326,0.01-0.48c0.566-26.309,8.181-35.641,8.181-35.641c1.467,1.141,2.781,2.283,3.952,3.395
							c2.091,1.985,3.779,4.287,5.016,6.752c0.01,0.01,0.01,0.019,0.01,0.029c0.057,0.105,0.115,0.221,0.163,0.326
							c0.154,0.307,0.288,0.614,0.422,0.921c0.019,0.038,0.029,0.077,0.048,0.115c0.144,0.317,0.269,0.643,0.393,0.969
							c0.278,0.748,0.518,1.515,0.729,2.283c0.048,0.201,0.105,0.403,0.144,0.595c0.077,0.307,0.144,0.604,0.201,0.911
							c0.067,0.326,0.125,0.652,0.173,0.988c0.057,0.355,0.105,0.71,0.134,1.065c0.058,0.48,0.096,0.969,0.115,1.458
							C142.857,126.055,142.867,126.401,142.867,126.756z"/>
						<path style="fill:#E63D4A;" d="M142.867,126.756c0,4.422-1.256,8.853-3.884,12.747c-1.218,1.803-2.206,2.753-2.206,2.753
							c-0.297,0.125-0.614,0.24-0.93,0.345c-0.643,0.221-1.333,0.412-2.033,0.595c-0.355,0.086-0.71,0.173-1.074,0.249
							c-0.355,0.077-0.719,0.154-1.084,0.221c-0.355,0.067-0.719,0.134-1.084,0.192c-0.537,0.086-1.074,0.173-1.592,0.24
							c-0.173,0.019-0.336,0.048-0.508,0.067c-0.374,0.048-0.729,0.096-1.074,0.134c-0.259,0.029-0.508,0.058-0.748,0.077
							c-0.566,0.057-1.084,0.105-1.544,0.144c-0.144,0.01-0.278,0.019-0.412,0.029c-0.029,0.01-0.058,0.01-0.086,0.01
							c-0.221,0.019-0.413,0.029-0.595,0.048h-0.048c-0.086,0.01-0.173,0.01-0.249,0.019c-0.259,0.01-0.451,0.019-0.547,0.029
							c-0.01,0-0.019,0-0.019,0c-0.01,0-0.019,0-0.019,0c0-0.451,0-0.892,0.01-1.333v-0.585c0-0.153,0.01-0.317,0.01-0.47v-0.249
							c0-0.163,0.01-0.326,0.01-0.48c1.966-0.144,5.764-0.508,9.15-1.324c2.177-0.527,4.105-1.841,5.361-3.693
							c0.01-0.019,0.029-0.038,0.038-0.057c4.163-6.167,4.892-13.706,2.609-20.391c0.057,0.105,0.115,0.221,0.163,0.326
							c0.154,0.307,0.288,0.614,0.422,0.921c0.019,0.038,0.029,0.077,0.048,0.115c0.144,0.317,0.269,0.643,0.393,0.969
							c0.278,0.748,0.518,1.515,0.729,2.283c0.048,0.201,0.105,0.403,0.144,0.595c0.077,0.307,0.144,0.604,0.201,0.911
							c0.067,0.326,0.125,0.652,0.173,0.988c0.057,0.355,0.105,0.71,0.134,1.065c0.058,0.48,0.096,0.969,0.115,1.458
							C142.857,126.055,142.867,126.401,142.867,126.756z"/>
					</g>
					<g>
						<path style="fill:#E65154;" d="M123.166,144.653c-0.01,0-0.019,0-0.019,0c-0.01,0-0.019,0-0.019,0
							c-0.201-0.01-0.863-0.048-1.822-0.115c-0.115-0.01-0.221-0.019-0.336-0.038c-0.134-0.01-0.259-0.019-0.393-0.029
							c-0.125-0.019-0.259-0.029-0.393-0.038c-0.01,0-0.019,0-0.019,0c-0.134-0.019-0.278-0.029-0.422-0.048c0,0-0.01,0-0.019,0
							h-0.029c-0.134-0.01-0.278-0.029-0.422-0.048c-0.153-0.019-0.307-0.029-0.46-0.048c0,0-0.01,0-0.019,0
							c-0.153-0.019-0.307-0.038-0.47-0.058c0,0-0.01,0-0.019,0c-0.153-0.029-0.316-0.048-0.479-0.067c-0.01,0-0.01,0-0.019,0
							c-0.163-0.019-0.326-0.048-0.489-0.067c-0.009,0-0.019,0-0.019,0c-0.173-0.019-0.355-0.048-0.528-0.077
							c-0.173-0.029-0.336-0.048-0.508-0.077c-0.01,0-0.019,0-0.019,0c-0.182-0.029-0.364-0.057-0.537-0.086
							c-0.173-0.029-0.345-0.067-0.528-0.096c0,0-0.01,0-0.019,0c-0.173-0.029-0.355-0.067-0.537-0.096
							c-0.173-0.038-0.355-0.077-0.527-0.105c-0.01,0-0.01,0-0.019,0c-0.365-0.077-0.719-0.153-1.074-0.24
							c-0.182-0.038-0.355-0.086-0.537-0.125c-0.144-0.038-0.297-0.077-0.441-0.115c-0.048-0.01-0.096-0.029-0.144-0.038
							c-0.326-0.086-0.643-0.182-0.959-0.278c-0.489-0.163-0.959-0.326-1.4-0.508c0,0-0.988-0.949-2.206-2.753
							c-4.796-7.097-5.026-15.988-1.381-23.345c1.247-2.513,2.945-4.843,5.074-6.867c1.17-1.113,2.484-2.254,3.952-3.395
							c0,0,7.702,9.438,8.191,36.121v0.182C123.157,143.003,123.166,143.818,123.166,144.653z"/>
						<path style="fill:#E63D4A;" d="M123.147,144.653c-0.01,0-0.019,0-0.019,0c-0.201-0.01-0.863-0.048-1.822-0.115
							c-0.115-0.01-0.221-0.019-0.336-0.038c-0.134-0.01-0.259-0.019-0.393-0.029h-0.038c-0.115-0.019-0.24-0.029-0.355-0.038
							c-0.01,0-0.019,0-0.019,0h-0.038c-0.125-0.019-0.249-0.029-0.384-0.048c0,0-0.01,0-0.019,0h-0.029
							c-0.134-0.01-0.278-0.029-0.422-0.048c-0.153-0.01-0.307-0.029-0.46-0.048c0,0-0.01,0-0.019,0h-0.029
							c-0.144-0.019-0.288-0.038-0.441-0.058c0,0-0.01,0-0.019,0s-0.019-0.01-0.029,0c-0.144-0.029-0.297-0.048-0.451-0.067
							c-0.01,0-0.01,0-0.019,0c-0.163-0.019-0.326-0.038-0.489-0.067c-0.009,0-0.019,0-0.019,0
							c-0.173-0.019-0.355-0.048-0.528-0.077c-0.173-0.019-0.336-0.048-0.508-0.077c-0.01,0-0.019,0-0.019,0
							c-0.182-0.029-0.364-0.057-0.537-0.086h-0.029c-0.163-0.029-0.326-0.057-0.499-0.096c0,0-0.01,0-0.019,0
							c-0.173-0.029-0.355-0.067-0.537-0.096c-0.173-0.038-0.355-0.067-0.527-0.105c-0.01,0-0.01,0-0.019,0
							c-0.365-0.077-0.719-0.153-1.074-0.24c-0.182-0.038-0.355-0.086-0.537-0.125c-0.144-0.038-0.297-0.077-0.441-0.115
							c-0.048-0.01-0.096-0.029-0.144-0.038c-0.326-0.086-0.643-0.182-0.959-0.278c-0.499-0.153-0.969-0.326-1.42-0.508
							c0,0-0.988-0.949-2.206-2.753c-4.824-7.136-5.026-16.084-1.324-23.46c-0.01,0.039-0.029,0.077-0.038,0.115
							c-2.244,6.666-1.515,14.166,2.638,20.305c0.01,0.019,0.029,0.038,0.038,0.057c1.257,1.851,3.184,3.165,5.362,3.693
							c3.386,0.815,7.184,1.18,9.15,1.324c0.01,0.393,0.01,0.796,0.019,1.199v0.585
							C123.147,143.761,123.147,144.202,123.147,144.653z"/>
					</g>
				</g>
				<g>
					<path style="fill:#E65154;" d="M169.051,197.242c0,0-1.65,1.717-4.719,2.954c-2.964,1.208-7.251,1.976-12.632,0.326
						c0,0-5.63,8.709-17.101,3.434c0,0-0.576,1.18-2.302,2.359c-1.717,1.17-4.585,2.359-9.16,2.359h-0.01
						c-9.14-0.01-11.462-4.719-11.462-4.719c-11.471,5.275-17.101-3.434-17.101-3.434c-5.381,1.65-9.658,0.882-12.622-0.317
						c-3.069-1.247-4.719-2.964-4.719-2.964c0.451-11.346,18.252-36.466,27.21-48.417c2.695-3.606,4.594-6.004,4.968-6.484
						c0.048-0.057,0.067-0.086,0.067-0.086c4.959,1.573,11.672,2.225,13.274,2.369c0.23,0.019,0.355,0.029,0.355,0.029h0.067
						c0,0,0.048,0,0.134-0.01c0.038,0,0.086-0.01,0.144-0.01c0.048,0,0.096-0.01,0.154-0.01c1.726-0.153,8.306-0.825,13.197-2.369
						c0,0,0.029,0.029,0.077,0.096c0.403,0.508,2.34,2.973,5.103,6.647c0,0.019,0.019,0.038,0.038,0.058
						C151.019,161.092,168.6,185.962,169.051,197.242z"/>
					<path style="fill:#E63D4A;" d="M169.051,197.242c0,0-1.65,1.717-4.719,2.954c-2.964,1.208-7.251,1.976-12.632,0.326
						c0,0-5.63,8.709-17.101,3.434c0,0-0.576,1.18-2.302,2.359c-1.717,1.17-4.585,2.359-9.16,2.359h-0.01
						c-9.14-0.01-11.462-4.719-11.462-4.719c-11.471,5.275-17.101-3.434-17.101-3.434c-5.381,1.65-9.658,0.882-12.622-0.317
						c-3.069-1.247-4.719-2.964-4.719-2.964c0.163-4.134,2.628-10.09,6.138-16.574c-1.046,2.225-1.909,4.335-2.503,6.244
						c-0.94,3.012,0.48,6.301,3.405,7.51c0.029,0.019,0.067,0.029,0.096,0.048c2.206,0.892,5.17,1.525,8.805,0.997
						c1.765-0.259,3.578,0.154,4.939,1.314c2.024,1.726,5.697,3.731,11.049,2.359c1.794-0.451,3.693-0.115,5.198,0.969
						c1.602,1.141,4.335,2.331,8.776,2.331h0.01c4.307,0,7.002-1.122,8.622-2.225c0.058-0.029,0.105-0.067,0.154-0.105
						c1.515-1.084,3.405-1.42,5.208-0.969c5.352,1.362,9.016-0.633,11.04-2.359c1.362-1.161,3.175-1.573,4.939-1.314
						c3.635,0.528,6.608-0.115,8.814-1.007c0.029-0.01,0.058-0.019,0.086-0.038c2.925-1.199,4.354-4.498,3.405-7.51
						c-0.623-1.976-1.515-4.153-2.609-6.465C166.355,187.017,168.878,193.06,169.051,197.242z"/>
				</g>
			</g>
		</g>
		<g>
			<path style="fill:#FDD3B3;" d="M131.674,95.277v8.536c0,0.691-0.077,1.352-0.24,1.995c-0.892,3.75-4.268,6.532-8.296,6.532
				c-4.019,0-7.395-2.781-8.287-6.532c-0.154-0.643-0.24-1.304-0.24-1.995v-8.536H131.674z"/>
			<path style="fill:#FDBA9C;" d="M131.674,95.277v8.536c0,0.691-0.077,1.352-0.24,1.995c-2.542,0.451-5.313,0.719-8.296,0.719
				s-5.745-0.269-8.287-0.719c-0.154-0.643-0.24-1.304-0.24-1.995v-8.536H131.674z"/>
		</g>
		<g>
			<g>
				<g>
					<path style="fill:#FDD3B3;" d="M145.782,75.436c0,0,4.496-6.264,10.984-6.987c7.125-0.795,12.368,6.876,8.336,12.804
						c-2.036,2.993-6.413,5.225-15.483,3.934L145.782,75.436z"/>
					<g>
						<path style="fill:#FDBA9C;" d="M161.465,79.682c-0.786,1.17-2.139,2.148-4.402,2.551c-1.41,0.24-3.184,0.259-5.4-0.058
							l-2.427-6.177c0,0,1.707-2.379,4.393-3.664c0.777-0.374,1.64-0.652,2.561-0.758C160.698,71.079,164.016,75.932,161.465,79.682
							z"/>
						<path style="fill:#FD9786;" d="M159.182,80.401c-0.48,0.71-1.161,1.343-2.12,1.832c-1.41,0.24-3.184,0.259-5.4-0.058
							l-2.427-6.177c0,0,1.707-2.379,4.393-3.664c0.096-0.019,0.182-0.029,0.278-0.038
							C158.425,71.798,161.734,76.651,159.182,80.401z"/>
					</g>
				</g>
				<g>
					<path style="fill:#FDD3B3;" d="M100.503,75.436c0,0-4.496-6.264-10.984-6.987c-7.125-0.795-12.368,6.876-8.336,12.804
						c2.036,2.993,6.413,5.225,15.483,3.934L100.503,75.436z"/>
					<g>
						<path style="fill:#FDBA9C;" d="M84.819,79.682c0.787,1.17,2.139,2.148,4.402,2.551c1.41,0.24,3.184,0.259,5.4-0.058
							l2.427-6.177c0,0-1.707-2.379-4.393-3.664c-0.777-0.374-1.64-0.652-2.561-0.758C85.587,71.079,82.268,75.932,84.819,79.682z"
							/>
						<path style="fill:#FD9786;" d="M87.102,80.401c0.48,0.71,1.161,1.343,2.12,1.832c1.41,0.24,3.184,0.259,5.4-0.058l2.427-6.177
							c0,0-1.707-2.379-4.393-3.664c-0.096-0.019-0.182-0.029-0.278-0.038C87.86,71.798,84.551,76.651,87.102,80.401z"/>
					</g>
				</g>
			</g>
			<path style="fill:#FDD3B3;" d="M152.548,84.363c-0.108-2.097-0.372-3.891-0.645-5.274c-0.402-2.043-0.433-4.128-0.194-6.197
				c0.827-7.145-0.594-20.075-0.594-20.075h-27.974H95.167c0,0-1.421,12.93-0.594,20.075c0.239,2.069,0.208,4.153-0.194,6.197
				c-0.272,1.383-0.536,3.177-0.645,5.274c-0.304,5.886,2.798,11.365,7.98,14.172c4.869,2.638,12.076,5.275,21.427,5.275
				c9.352,0,16.558-2.638,21.427-5.275C149.75,95.728,152.852,90.248,152.548,84.363z"/>
			<g>
				<g>
					<path style="fill:#773B27;" d="M99.023,67.457c-0.186,0-0.375-0.037-0.557-0.113c-0.732-0.308-1.077-1.152-0.769-1.884
						c0.043-0.103,1.087-2.525,3.7-3.562c1.877-0.744,4.017-0.594,6.362,0.446c0.726,0.322,1.054,1.172,0.731,1.899
						c-0.322,0.726-1.174,1.054-1.899,0.731c-1.612-0.715-3.003-0.85-4.134-0.401c-1.479,0.586-2.103,1.988-2.108,2.002
						C100.118,67.125,99.584,67.457,99.023,67.457z"/>
				</g>
				<g>
					<path style="fill:#773B27;" d="M107.98,81.167L107.98,81.167c-2.487,0-4.504-2.017-4.504-4.504V73.63
						c0-2.488,2.017-4.504,4.504-4.504l0,0c2.488,0,4.504,2.017,4.504,4.504v3.033C112.484,79.151,110.468,81.167,107.98,81.167z"/>
				</g>
				<g>
					<circle style="fill:#FFFFFF;" cx="112.991" cy="70.735" r="3.539"/>
				</g>
				<g>
					<path style="fill:#773B27;" d="M138.345,81.167L138.345,81.167c2.488,0,4.504-2.017,4.504-4.504V73.63
						c0-2.488-2.017-4.504-4.504-4.504l0,0c-2.488,0-4.504,2.017-4.504,4.504v3.033C133.841,79.151,135.858,81.167,138.345,81.167z"
						/>
				</g>
				<g>
					<circle style="fill:#FFFFFF;" cx="133.334" cy="70.735" r="3.539"/>
				</g>
				<g>
					<path style="fill:#773B27;" d="M147.26,67.457c-0.558,0-1.088-0.327-1.322-0.871c-0.019-0.043-0.671-1.456-2.143-2.025
						c-1.126-0.434-2.506-0.296-4.104,0.413c-0.727,0.323-1.577-0.006-1.899-0.731c-0.322-0.726,0.005-1.576,0.732-1.899
						c2.345-1.04,4.486-1.19,6.362-0.446c2.613,1.036,3.657,3.459,3.701,3.562c0.308,0.732-0.036,1.576-0.769,1.884
						C147.635,67.42,147.446,67.457,147.26,67.457z"/>
				</g>
				
					<path style="fill:none;stroke:#773B27;stroke-width:1.9182;stroke-linecap:round;stroke-linejoin:round;stroke-miterlimit:10;" d="
					M119.025,84.628v0.999c0,2.273,1.843,4.116,4.116,4.116l0,0c2.273,0,4.116-1.843,4.116-4.116v-0.999"/>
				<path style="fill:#F79C97;" d="M146.27,81.471c0,1.744-2.076,3.157-4.636,3.157c-2.56,0-4.636-1.413-4.636-3.157
					c0-1.744,2.076-3.157,4.636-3.157C144.194,78.314,146.27,79.727,146.27,81.471z"/>
				<path style="fill:#F79C97;" d="M109.284,81.471c0,1.744-2.076,3.157-4.636,3.157c-2.56,0-4.636-1.413-4.636-3.157
					c0-1.744,2.076-3.157,4.636-3.157C107.208,78.314,109.284,79.727,109.284,81.471z"/>
				<path style="fill:#773B27;" d="M142.493,71.87c0,0,1.028,1.887,3.565,2.267c0,0-1.898,1.213-3.637,0.137L142.493,71.87z"/>
				<path style="fill:#773B27;" d="M103.79,71.87c0,0-1.028,1.887-3.565,2.267c0,0,1.898,1.213,3.637,0.137L103.79,71.87z"/>
			</g>
			<g>
				<path style="fill:#6D3624;" d="M154.913,58.658c0.019,2.935-0.719,5.927-2.379,8.728c-0.192,0.336-0.403,0.671-0.623,1.007
					c0,0,0.978-12.056-13.667-12.056c0,0-9.812,1.189-15.125-3.501c-5.323,4.69-15.135,3.501-15.135,3.501
					c-14.646,0-13.667,12.056-13.667,12.056c-0.221-0.336-0.422-0.671-0.623-1.007c-1.659-2.801-2.398-5.793-2.379-8.718
					c0.058-8.527,6.618-16.506,16.046-17.571c8.114-0.911,15.72,0.211,15.72,0.211l0.038,6.474l0.029-6.474
					c0,0,7.615-1.122,15.72-0.211C148.286,42.151,154.846,50.131,154.913,58.658z"/>
				<path style="fill:#773B27;" d="M154.913,58.658c-2.11-3.165-6.158-6.033-13.917-6.033c0,0-11.596,1.41-17.878-4.134
					c-6.292,5.544-17.888,4.134-17.888,4.134c-7.769,0-11.816,2.877-13.917,6.042c0.058-8.527,6.618-16.506,16.046-17.571
					c8.114-0.911,15.72,0.211,15.72,0.211l0.038,6.474l0.029-6.474c0,0,7.615-1.122,15.72-0.211
					C148.286,42.151,154.846,50.131,154.913,58.658z"/>
			</g>
		</g>
	</g>
	<g>
		<g>
			<g>
				<path style="fill:#773B27;" d="M413.472,87.885c4.681-16.919,2.513-30.414,2.513-30.414c-0.144-1.515-0.393-2.954-0.738-4.297
					c-0.115-0.633-0.259-1.256-0.422-1.87c-1.909-7.261-6.417-11.116-12.219-12.967c-2.072-0.662-4.47-0.959-7.193-0.604
					c0,0-4.259-3.827-12.824-5.755c-7.827-1.765-16.037-1.113-23.556,1.698c-7.376,2.753-16.295,8.172-19.921,18.703
					c-0.547,1.583-0.969,3.271-1.247,5.093c0,0-0.048,0.307-0.115,0.882c-0.048,0.345-0.096,0.786-0.134,1.314
					c-0.038,0.355-0.067,0.748-0.096,1.189c-0.115,1.765-0.211,4.163-0.125,7.03c0.019,0.604,0.038,1.228,0.067,1.87
					c0.01,0.173,0.019,0.345,0.029,0.518c0.067,1.237,0.173,2.542,0.317,3.913c0.048,0.46,0.096,0.93,0.153,1.41
					c0.057,0.441,0.115,0.882,0.173,1.343c0.038,0.278,0.086,0.575,0.125,0.863c0.46,3.146,1.141,6.541,2.12,10.08
					c0,0-7.146,5.122-7.184,13.284c-0.029,6.359,5.122,11.721,11.462,11.27c0.288-0.019,0.585-0.058,0.882-0.096
					c0,0-0.058,2.858,2.043,5.822c3.175,4.479,9.313,5.812,14.185,3.299c1.448-0.758,2.973-1.841,4.45-3.405
					c0,0,1.419,9.275,10.589,9.275h0.24c9.169,0,10.589-9.275,10.589-9.275c1.467,1.563,3.002,2.647,4.45,3.405
					c4.872,2.513,11.001,1.18,14.176-3.299c2.1-2.964,2.053-5.822,2.053-5.822c0.297,0.038,0.585,0.077,0.873,0.096
					c6.34,0.451,11.5-4.911,11.471-11.27C420.617,93.007,413.472,87.885,413.472,87.885z"/>
				<path style="fill:#6D3624;" d="M420.656,101.169c0.029,6.359-5.131,11.721-11.471,11.27c-0.288-0.019-0.575-0.058-0.873-0.096
					c0,0,0.048,2.858-2.053,5.822c-3.175,4.479-9.303,5.812-14.176,3.299c-1.448-0.758-2.983-1.841-4.45-3.405
					c0,0-1.42,9.275-10.589,9.275h-0.24c-9.169,0-10.589-9.275-10.589-9.275c-1.477,1.563-3.002,2.647-4.45,3.405
					c-4.872,2.513-11.011,1.18-14.185-3.299c-2.1-2.964-2.043-5.822-2.043-5.822c-0.297,0.038-0.595,0.077-0.882,0.096
					c-6.34,0.451-11.49-4.911-11.462-11.27c0.038-8.162,7.184-13.284,7.184-13.284c-0.978-3.539-1.659-6.934-2.12-10.08
					c-0.038-0.288-0.086-0.585-0.125-0.863c-0.058-0.46-0.115-0.902-0.173-1.343c-0.058-0.48-0.105-0.95-0.153-1.41
					c-0.144-1.372-0.249-2.676-0.317-3.913c-0.01-0.173-0.019-0.345-0.029-0.518c-0.029-0.643-0.048-1.266-0.067-1.87
					c-0.086-2.743,0-5.064,0.115-6.8c2.475,2.359,5.64,3.999,9.035,4.21c4.383,0.278,8.651-1.841,11.893-4.815
					c3.242-2.964,6.388-6.417,8.728-10.138c0.288,1.525,0.595,3.079,1.371,4.422c0.777,1.343,2.12,2.455,3.664,2.532
					c1.055,0.048,2.091-0.384,2.944-1.007c0.854-0.623,1.554-1.439,2.244-2.235c0.873-1.007,2.158-2.014,3.021-3.021
					c0.192,2.542,2.379,4.671,4.863,5.237c2.484,0.556,5.141-0.249,7.203-1.746c2.072-1.496,3.645-3.223,4.911-5.438
					c0.978,3.175,1.976,6.397,3.817,9.169c1.842,2.762,4.671,5.055,7.961,5.457c1.88,0.221,3.769-0.173,5.649-0.269
					c0.537-0.029,1.093-0.029,1.64,0.019c0.163,5.525-0.201,14.368-2.983,24.419C413.472,87.885,420.617,93.007,420.656,101.169z"/>
			</g>
			<g>
				<path style="fill:#FEBF27;" d="M388.837,20.279c0,0-4.476,1.079-7.273,5.635c0,0-0.24-7.193-4.636-10.311
					c-4.396,3.117-4.636,10.311-4.636,10.311c-2.797-4.556-7.273-5.635-7.273-5.635c1.454,3.622,1.975,11.202,2.136,14.433
					c0.049,0.981,0.601,1.875,1.473,2.326c0.043,0.022,0.087,0.045,0.13,0.067c5.162,2.619,11.177,2.619,16.339,0
					c0.044-0.022,0.087-0.044,0.13-0.067c0.872-0.451,1.424-1.346,1.473-2.326C386.862,31.48,387.383,23.901,388.837,20.279z"/>
				<path style="fill:#FEB11F;" d="M386.773,33.466c-0.029,0.46-0.048,0.882-0.067,1.247c-0.058,0.978-0.604,1.87-1.477,2.321
					c-0.048,0.029-0.086,0.048-0.134,0.067c-5.16,2.628-11.174,2.628-16.334,0c-0.048-0.019-0.086-0.038-0.134-0.067
					c-0.873-0.451-1.419-1.343-1.467-2.321c-0.019-0.364-0.048-0.786-0.077-1.256c0.23,0.633,0.7,1.17,1.314,1.487
					c0.048,0.019,0.086,0.048,0.134,0.067c5.304,2.695,11.49,2.695,16.794,0c0.048-0.019,0.086-0.048,0.134-0.067
					C386.073,34.626,386.543,34.099,386.773,33.466z"/>
			</g>
			<path style="fill:#5E2D1F;" d="M420.656,101.169c0.029,6.359-5.131,11.721-11.471,11.27c-0.288-0.019-0.575-0.058-0.873-0.096
				c0,0,0.048,2.858-2.053,5.822c-3.175,4.479-9.303,5.812-14.176,3.299c-1.448-0.758-2.983-1.841-4.45-3.405
				c0,0-1.42,9.275-10.589,9.275h-0.24c-9.169,0-10.589-9.275-10.589-9.275c-1.477,1.563-3.002,2.647-4.45,3.405
				c-4.872,2.513-11.011,1.18-14.185-3.299c-2.1-2.964-2.043-5.822-2.043-5.822c-0.297,0.038-0.595,0.077-0.882,0.096
				c-6.34,0.451-11.49-4.911-11.462-11.27c0.029-6.263,4.249-10.742,6.206-12.469c-1.765,2.168-3.625,5.41-3.645,9.438
				c-0.019,5.985,4.824,11.03,10.79,10.608c0.278-0.019,0.556-0.058,0.834-0.086c0,0-0.058,2.686,1.918,5.477
				c2.992,4.22,8.776,5.477,13.361,3.108c1.362-0.71,2.801-1.736,4.182-3.204c0,0,1.343,8.728,9.975,8.728h0.221
				c8.632,0,9.975-8.728,9.975-8.728c1.381,1.468,2.82,2.494,4.182,3.204c4.594,2.369,10.359,1.113,13.351-3.108
				c1.976-2.791,1.928-5.477,1.928-5.477c0.278,0.029,0.547,0.067,0.825,0.086c5.966,0.422,10.819-4.623,10.8-10.608
				c-0.019-4.047-1.899-7.299-3.673-9.467C416.369,90.388,420.627,94.877,420.656,101.169z"/>
		</g>
		<g>
			<g>
				<g>
					<path style="fill:#FDD3B3;" d="M366.019,108.064c0,0-11.972,8.853-28.117,31.86c-0.704,1.003-3.563,2.584-4.718,2.995
						c-5.194,1.852-20.16,7.765-21.607,14.85c0,0-0.031,0.144-0.058,0.391c-0.505,4.657,4.901,7.502,8.609,4.639
						c1.463-1.129,3.074-2.888,4.422-5.619c0,0,6.821-2.957,13.482-5.281c4.818-1.681,8.986-4.747,12.235-8.681
						c6.836-8.277,14.58-17.56,17.462-20.707C367.731,122.512,372.131,113.451,366.019,108.064z"/>
					<path style="fill:#FDBA9C;" d="M367.731,122.509c-2.887,3.146-10.627,12.43-17.466,20.707
						c-3.242,3.933-7.414,7.002-12.229,8.68c-6.666,2.331-13.485,5.285-13.485,5.285c-1.352,2.734-2.964,4.489-4.422,5.62
						c-2.877,2.216-6.771,1.007-8.133-1.822c1.726,0.854,3.932,0.815,5.736-0.576c1.458-1.132,3.069-2.887,4.422-5.62
						c0,0,6.819-2.954,13.485-5.285c4.815-1.678,8.987-4.748,12.229-8.68c6.839-8.277,14.579-17.562,17.466-20.707
						c0,0,3.175-6.532,0.374-11.807c0.201-0.163,0.307-0.24,0.307-0.24C372.134,113.455,367.731,122.509,367.731,122.509z"/>
				</g>
				<g>
					<path style="fill:#FEBF27;" d="M362.295,128.791c0,0-6.705,2.171-12.611-4.241c0,0-3.946,1.102-3.327,4.059
						c0,0-1.162,0.345-2.133,1.101c-1.379,1.074-1.004,3.277,0.651,3.837c2.798,0.947,8.409,2.229,13.662-0.286L362.295,128.791z"/>
					<path style="fill:#FEB11F;" d="M359.876,131.669l-1.343,1.592c-5.246,2.513-10.857,1.237-13.658,0.288
						c-1.659-0.566-2.033-2.762-0.652-3.837c0.192-0.144,0.384-0.278,0.575-0.384c-0.249,1.046,0.288,2.235,1.439,2.618
						C349.029,132.897,354.63,134.182,359.876,131.669z"/>
				</g>
			</g>
			<g>
				<g>
					<path style="fill:#FDD3B3;" d="M387.715,108.064c0,0,11.972,8.853,28.117,31.86c0.704,1.003,3.563,2.584,4.718,2.995
						c5.194,1.852,20.16,7.765,21.607,14.85c0,0,0.031,0.144,0.058,0.391c0.505,4.657-4.901,7.502-8.609,4.639
						c-1.463-1.129-3.074-2.888-4.422-5.619c0,0-6.821-2.957-13.482-5.281c-4.818-1.681-8.986-4.747-12.235-8.681
						c-6.836-8.277-14.58-17.56-17.462-20.707C386.004,122.512,381.603,113.451,387.715,108.064z"/>
					<path style="fill:#FDBA9C;" d="M386.003,122.509c2.887,3.146,10.627,12.43,17.466,20.707c3.242,3.933,7.414,7.002,12.229,8.68
						c6.666,2.331,13.485,5.285,13.485,5.285c1.352,2.734,2.964,4.489,4.422,5.62c2.877,2.216,6.771,1.007,8.133-1.822
						c-1.726,0.854-3.932,0.815-5.736-0.576c-1.458-1.132-3.069-2.887-4.422-5.62c0,0-6.819-2.954-13.485-5.285
						c-4.815-1.678-8.987-4.748-12.229-8.68c-6.839-8.277-14.579-17.562-17.466-20.707c0,0-3.175-6.532-0.374-11.807
						c-0.201-0.163-0.307-0.24-0.307-0.24C381.601,113.455,386.003,122.509,386.003,122.509z"/>
				</g>
				<g>
					<path style="fill:#FEBF27;" d="M391.439,128.791c0,0,6.705,2.171,12.611-4.241c0,0,3.946,1.102,3.327,4.059
						c0,0,1.162,0.345,2.133,1.101c1.379,1.074,1.004,3.277-0.652,3.837c-2.798,0.947-8.409,2.229-13.662-0.286L391.439,128.791z"/>
					<path style="fill:#FEB11F;" d="M393.858,131.669l1.343,1.592c5.246,2.513,10.857,1.237,13.658,0.288
						c1.659-0.566,2.033-2.762,0.652-3.837c-0.192-0.144-0.384-0.278-0.576-0.384c0.249,1.046-0.288,2.235-1.439,2.618
						C404.706,132.897,399.105,134.182,393.858,131.669z"/>
				</g>
			</g>
		</g>
		<g>
			<g>
				<g>
					<path style="fill:#FEE259;" d="M390.947,142.253c-6.354,1.893-13.625,2.37-14.079,2.395c-0.453-0.026-7.699-0.503-14.053-2.395
						c0,0-22.484,27.848-30.176,71.9c-0.506,2.898,0.794,5.841,3.319,7.35c3.65,2.181,9.768,4.327,18.219,2.195
						c0,0,7.968,8.135,22.691,3.051c14.723,5.084,22.691-3.051,22.691-3.051c8.451,2.131,14.569-0.015,18.219-2.195
						c2.525-1.509,3.825-4.452,3.319-7.35C413.408,170.102,390.947,142.253,390.947,142.253z"/>
					<path style="fill:#FED34C;" d="M417.779,221.5c-3.654,2.187-9.764,4.326-18.223,2.196c0,0-7.961,8.133-22.683,3.05
						c-14.723,5.083-22.693-3.05-22.693-3.05c-8.45,2.129-14.569-0.01-18.223-2.196c-2.522-1.506-3.817-4.45-3.319-7.347
						c1.324-7.596,3.088-14.703,5.103-21.273c-1.295,4.776-2.446,9.831-3.366,15.116c-0.489,2.791,0.767,5.62,3.194,7.069
						c3.501,2.091,9.38,4.153,17.504,2.11c0,0,7.654,7.807,21.801,2.925c14.138,4.882,21.801-2.925,21.801-2.925
						c8.114,2.043,13.994-0.019,17.504-2.11c2.427-1.448,3.673-4.278,3.184-7.069c-0.921-5.285-2.072-10.339-3.367-15.116
						c2.014,6.57,3.779,13.677,5.103,21.273C421.605,217.05,420.301,219.995,417.779,221.5z"/>
				</g>
				<g>
					
						<path style="fill:none;stroke:#FEC940;stroke-width:1.9182;stroke-linecap:round;stroke-linejoin:round;stroke-miterlimit:10;" d="
						M354.178,223.699c0,0,4.932-54.878,16.235-77.825"/>
					
						<path style="fill:none;stroke:#FEC940;stroke-width:1.9182;stroke-linecap:round;stroke-linejoin:round;stroke-miterlimit:10;" d="
						M399.559,223.699c0,0-4.932-54.878-16.235-77.825"/>
					
						<line style="fill:none;stroke:#FEC940;stroke-width:1.9182;stroke-linecap:round;stroke-linejoin:round;stroke-miterlimit:10;" x1="376.898" y1="146.656" x2="376.868" y2="226.75"/>
				</g>
			</g>
			<g>
				<path style="fill:#FEBF27;" d="M420.941,196.483c-4.99-26.403-30.303-54.331-30.303-54.331c-1.06,0.381-2.206,0.707-3.37,0.985
					c-6.826,1.632-13.973,1.632-20.799,0c-1.163-0.278-2.31-0.604-3.37-0.985c0,0-25.313,27.928-30.303,54.331
					c-0.832,4.402,2.253,8.643,6.7,9.187c4.989,0.61,11.612,0.33,17.167-3.643c0,0,5.5,11.584,20.207,11.584
					c14.707,0,20.207-11.584,20.207-11.584c5.555,3.973,12.178,4.253,17.167,3.643C418.688,205.127,421.773,200.886,420.941,196.483
					z"/>
				<path style="fill:#FEB11F;" d="M414.239,205.675c-4.987,0.604-11.605,0.326-17.168-3.645c0,0-5.496,11.577-20.199,11.577
					c-14.713,0-20.209-11.577-20.209-11.577c-5.553,3.971-12.181,4.249-17.168,3.645c-4.45-0.547-7.529-4.786-6.695-9.188
					c0.547-2.906,1.343-5.822,2.321-8.718c0,0.125,0.01,1.132,0.249,2.513c0.969,5.62,6.484,9.121,12.008,7.682
					c3.894-1.026,8.469-3.414,11.202-8.881c0,0,1.391,9.802,11.078,15.01c4.498,2.407,9.975,2.407,14.473,0
					c9.687-5.208,11.078-15.01,11.078-15.01c2.743,5.467,7.309,7.855,11.212,8.881c5.515,1.439,11.04-2.062,11.999-7.682
					c0.201-1.17,0.24-2.072,0.249-2.398c0.949,2.858,1.736,5.736,2.273,8.603C421.768,200.889,418.69,205.128,414.239,205.675z"/>
			</g>
			<g>
				<path style="fill:#FEBF27;" d="M389.053,109.286c-1.168-1.109-2.486-2.255-3.956-3.39h-8.189h-0.08h-8.189
					c-1.471,1.135-2.789,2.281-3.957,3.39c-8.341,7.92-10.132,20.689-3.693,30.219c1.215,1.798,2.21,2.748,2.21,2.748
					c4.78,1.935,12.824,2.356,13.628,2.394v0.004c0,0,0.029-0.001,0.04-0.002c0.011,0,0.04,0.002,0.04,0.002v-0.004
					c0.804-0.038,8.847-0.459,13.628-2.394c0,0,0.995-0.95,2.21-2.748C399.185,129.975,397.394,117.206,389.053,109.286z"/>
				<g>
					<g>
						<path style="fill:#FEA413;" d="M390.645,142.152c0.288-0.297,1.132-1.199,2.11-2.647c6.436-9.534,4.642-22.3-3.693-30.222
							c-1.16-1.093-2.465-2.235-3.923-3.347c-0.949,3.693-4.287,6.407-8.268,6.407C376.872,112.343,372.278,135.429,390.645,142.152
							z"/>
						<path style="fill:#FE9506;" d="M392.803,139.428c-0.01,0.029-0.029,0.048-0.048,0.077c-0.978,1.448-1.822,2.35-2.11,2.647
							c-18.367-6.723-13.773-29.81-13.773-29.81c0.873,0,1.717-0.134,2.513-0.384C378.771,117.704,378.454,133.712,392.803,139.428z
							"/>
					</g>
					<g>
						<path style="fill:#FEA413;" d="M363.09,142.152c-0.288-0.297-1.132-1.199-2.11-2.647c-6.436-9.534-4.642-22.3,3.693-30.222
							c1.161-1.093,2.465-2.235,3.923-3.347c0.95,3.693,4.287,6.407,8.268,6.407C376.863,112.343,381.457,135.429,363.09,142.152z"
							/>
						<path style="fill:#FE9506;" d="M360.931,139.428c0.01,0.029,0.029,0.048,0.048,0.077c0.978,1.448,1.822,2.35,2.11,2.647
							c18.367-6.723,13.773-29.81,13.773-29.81c-0.873,0-1.717-0.134-2.513-0.384C374.964,117.704,375.28,133.712,360.931,139.428z"
							/>
					</g>
				</g>
			</g>
			<g>
				<path style="fill:#FDD3B3;" d="M385.398,95.28v8.527c0,0.786-0.105,1.535-0.307,2.254c-0.978,3.625-4.287,6.282-8.22,6.282
					s-7.251-2.657-8.229-6.282c-0.202-0.719-0.307-1.467-0.307-2.254V95.28H385.398z"/>
				<path style="fill:#FDBA9C;" d="M385.398,95.28v8.527c0,0.786-0.105,1.535-0.307,2.254c-2.522,0.441-5.266,0.71-8.22,0.71
					s-5.707-0.269-8.229-0.71c-0.202-0.719-0.307-1.467-0.307-2.254V95.28H385.398z"/>
			</g>
		</g>
		<g>
			<g>
				<g>
					<path style="fill:#FDD3B3;" d="M399.508,75.435c0,0,4.496-6.264,10.984-6.987c7.125-0.795,12.368,6.876,8.336,12.804
						c-2.036,2.993-6.413,5.225-15.483,3.934L399.508,75.435z"/>
					<g>
						<path style="fill:#FDBA9C;" d="M415.191,79.68c-0.786,1.17-2.139,2.148-4.402,2.551c-1.41,0.24-3.184,0.259-5.4-0.058
							l-2.427-6.177c0,0,1.707-2.379,4.393-3.664c0.777-0.374,1.64-0.652,2.561-0.758C414.424,71.077,417.742,75.93,415.191,79.68z"
							/>
						<path style="fill:#FD9786;" d="M412.908,80.4c-0.479,0.71-1.16,1.343-2.12,1.832c-1.41,0.24-3.184,0.259-5.4-0.058
							l-2.427-6.177c0,0,1.707-2.379,4.393-3.664c0.096-0.019,0.182-0.029,0.278-0.038C412.151,71.796,415.46,76.649,412.908,80.4z"
							/>
					</g>
				</g>
				<g>
					<path style="fill:#FDD3B3;" d="M354.229,75.435c0,0-4.496-6.264-10.984-6.987c-7.125-0.795-12.368,6.876-8.336,12.804
						c2.036,2.993,6.414,5.225,15.483,3.934L354.229,75.435z"/>
					<g>
						<path style="fill:#FDBA9C;" d="M338.546,79.68c0.786,1.17,2.139,2.148,4.402,2.551c1.41,0.24,3.184,0.259,5.4-0.058
							l2.427-6.177c0,0-1.707-2.379-4.393-3.664c-0.777-0.374-1.64-0.652-2.561-0.758C339.313,71.077,335.994,75.93,338.546,79.68z"
							/>
						<path style="fill:#FD9786;" d="M340.828,80.4c0.48,0.71,1.161,1.343,2.12,1.832c1.41,0.24,3.184,0.259,5.4-0.058l2.427-6.177
							c0,0-1.707-2.379-4.393-3.664c-0.096-0.019-0.182-0.029-0.278-0.038C341.586,71.796,338.277,76.649,340.828,80.4z"/>
					</g>
				</g>
			</g>
			<path style="fill:#FDD3B3;" d="M406.274,84.361c-0.108-2.097-0.372-3.891-0.645-5.274c-0.402-2.043-0.433-4.128-0.194-6.197
				c0.827-7.145-0.594-21.537-0.594-21.537l-27.974-3.813l-27.974,3.813c0,0-1.421,14.392-0.594,21.537
				c0.239,2.069,0.208,4.153-0.194,6.197c-0.272,1.383-0.536,3.178-0.645,5.274c-0.304,5.886,2.798,11.365,7.98,14.172
				c4.869,2.638,12.076,5.275,21.427,5.275c9.352,0,16.558-2.638,21.427-5.275C403.476,95.726,406.578,90.247,406.274,84.361z"/>
			<g>
				<g>
					<path style="fill:#773B27;" d="M352.749,67.455c-0.186,0-0.375-0.036-0.557-0.113c-0.732-0.308-1.077-1.152-0.768-1.884
						c0.043-0.103,1.087-2.525,3.7-3.562c1.877-0.744,4.017-0.594,6.362,0.446c0.726,0.322,1.054,1.172,0.732,1.899
						c-0.322,0.725-1.174,1.054-1.899,0.731c-1.612-0.715-3.003-0.85-4.134-0.401c-1.478,0.586-2.103,1.988-2.108,2.002
						C353.844,67.124,353.31,67.455,352.749,67.455z"/>
				</g>
				<g>
					<path style="fill:#773B27;" d="M361.706,81.166L361.706,81.166c-2.488,0-4.504-2.017-4.504-4.504v-3.033
						c0-2.488,2.016-4.504,4.504-4.504l0,0c2.487,0,4.504,2.016,4.504,4.504v3.033C366.21,79.149,364.194,81.166,361.706,81.166z"/>
				</g>
				<g>
					<circle style="fill:#FFFFFF;" cx="366.717" cy="70.734" r="3.539"/>
				</g>
				<g>
					<path style="fill:#773B27;" d="M392.072,81.166L392.072,81.166c2.487,0,4.504-2.017,4.504-4.504v-3.033
						c0-2.488-2.017-4.504-4.504-4.504l0,0c-2.487,0-4.504,2.016-4.504,4.504v3.033C387.568,79.149,389.584,81.166,392.072,81.166z"
						/>
				</g>
				<g>
					<circle style="fill:#FFFFFF;" cx="387.06" cy="70.734" r="3.539"/>
				</g>
				<g>
					<path style="fill:#773B27;" d="M400.986,67.455c-0.558,0-1.088-0.327-1.322-0.871c-0.019-0.043-0.671-1.456-2.143-2.025
						c-1.126-0.434-2.506-0.296-4.104,0.413c-0.727,0.323-1.577-0.006-1.899-0.731c-0.322-0.726,0.005-1.576,0.732-1.899
						c2.345-1.04,4.486-1.19,6.362-0.446c2.613,1.036,3.657,3.459,3.701,3.562c0.308,0.732-0.036,1.576-0.769,1.884
						C401.361,67.419,401.172,67.455,400.986,67.455z"/>
				</g>
				
					<path style="fill:none;stroke:#773B27;stroke-width:1.9182;stroke-linecap:round;stroke-linejoin:round;stroke-miterlimit:10;" d="
					M372.751,84.626v0.999c0,2.273,1.843,4.116,4.116,4.116l0,0c2.273,0,4.116-1.843,4.116-4.116v-0.999"/>
				<path style="fill:#F79C97;" d="M399.996,81.469c0,1.744-2.076,3.157-4.636,3.157c-2.56,0-4.636-1.413-4.636-3.157
					c0-1.744,2.076-3.157,4.636-3.157C397.921,78.312,399.996,79.725,399.996,81.469z"/>
				<path style="fill:#F79C97;" d="M363.01,81.469c0,1.744-2.076,3.157-4.636,3.157c-2.56,0-4.636-1.413-4.636-3.157
					c0-1.744,2.076-3.157,4.636-3.157C360.934,78.312,363.01,79.725,363.01,81.469z"/>
				<path style="fill:#773B27;" d="M396.219,71.869c0,0,1.028,1.887,3.565,2.267c0,0-1.898,1.213-3.637,0.137L396.219,71.869z"/>
				<path style="fill:#773B27;" d="M357.516,71.869c0,0-1.028,1.887-3.565,2.267c0,0,1.898,1.213,3.637,0.137L357.516,71.869z"/>
			</g>
			<path style="fill:#773B27;" d="M407.171,61.221c-0.038,0.681-0.086,1.333-0.144,1.957c-0.336,3.865-0.94,6.512-0.94,6.512
				c-4.94-2.216-8.498-6.982-9.371-12.325c-2.542,0.691-4.422,2.753-6.34,4.565c-1.918,1.803-4.316,3.52-6.935,3.213
				c-1.429-0.173-2.781-0.988-3.597-2.177c-0.815-1.189-1.324-2.839-0.959-4.239c-1.304,3.002-4.019,5.361-7.174,6.234
				c-1.784,0.489-3.923,0.422-5.218-0.892c-0.854-0.863-1.199-2.12-1.18-3.328c0.01-0.921-0.038-1.88,0.086-2.801
				c-1.228,5.467-5.477,10.186-10.809,11.931c-1.803,0.595-3.741,0.863-5.62,0.556c-1.88-0.307-3.693-1.218-4.882-2.695
				c-0.786-0.969-1.266-2.129-1.515-3.347c-0.278-1.333-0.269-2.743-0.086-4.086c0.46-3.299,2.484-6.149,4.949-8.384
				c15.029-13.6,32.246-13.687,43.899-10.417C401.09,44.243,407.717,51.103,407.171,61.221z"/>
			<path style="fill:#6D3624;" d="M407.027,63.178c-0.336,3.865-0.94,6.512-0.94,6.512c-4.94-2.216-8.498-6.982-9.371-12.325
				c-2.542,0.691-4.422,2.753-6.34,4.565c-1.918,1.803-4.316,3.52-6.935,3.213c-1.429-0.173-2.781-0.988-3.597-2.177
				c-0.815-1.189-1.324-2.839-0.959-4.239c-1.304,3.002-4.019,5.361-7.174,6.234c-1.784,0.489-3.923,0.422-5.218-0.892
				c-0.854-0.863-1.199-2.12-1.18-3.328c0.01-0.921-0.038-1.88,0.086-2.801c-1.228,5.467-5.477,10.186-10.809,11.931
				c-1.803,0.595-3.741,0.863-5.62,0.556c-1.88-0.307-3.693-1.218-4.882-2.695c-0.786-0.969-1.266-2.129-1.515-3.347
				c1.266,0.508,2.599,0.825,3.971,0.911c4.383,0.278,8.651-1.841,11.893-4.815c3.242-2.964,6.388-6.417,8.728-10.138
				c0.288,1.525,0.595,3.079,1.371,4.422c0.777,1.343,2.12,2.455,3.664,2.532c1.055,0.048,2.091-0.384,2.944-1.007
				c0.854-0.623,1.554-1.439,2.244-2.235c0.873-1.007,2.158-2.014,3.021-3.021c0.192,2.542,2.379,4.671,4.863,5.237
				c2.484,0.556,5.141-0.249,7.203-1.746c2.072-1.496,3.645-3.223,4.911-5.438c0.978,3.175,1.976,6.397,3.817,9.169
				C402.634,60.397,404.658,62.257,407.027,63.178z"/>
		</g>
	</g>
	<g>
		<g>
			<g>
				<g>
					<path style="fill:#FDD3B3;" d="M112.291,328.874c0,0-11.972,8.853-28.117,31.86c-0.704,1.003-3.563,2.584-4.718,2.995
						c-5.194,1.853-20.16,7.765-21.606,14.85c0,0-0.031,0.143-0.058,0.391c-0.505,4.657,4.901,7.502,8.61,4.639
						c1.463-1.129,3.074-2.888,4.422-5.619c0,0,6.821-2.957,13.482-5.281c4.818-1.681,8.986-4.747,12.235-8.681
						c6.836-8.277,14.58-17.56,17.462-20.707C114.003,343.321,118.403,334.26,112.291,328.874z"/>
					<path style="fill:#FDBA9C;" d="M114.007,343.319c-2.887,3.146-10.627,12.43-17.466,20.707
						c-3.251,3.932-7.414,7.002-12.238,8.68c-6.656,2.331-13.476,5.285-13.476,5.285c-1.352,2.734-2.964,4.489-4.422,5.62
						c-3.079,2.369-7.328,0.815-8.392-2.446c1.803,1.448,4.546,1.717,6.714,0.048c1.458-1.132,3.069-2.887,4.422-5.62
						c0,0,6.819-2.954,13.476-5.285c4.824-1.678,8.987-4.748,12.238-8.68c6.838-8.277,14.579-17.561,17.465-20.707
						c0,0,3.05-6.292,0.528-11.5C118.112,334.85,114.007,343.319,114.007,343.319z"/>
				</g>
				<g>
					<path style="fill:#7988CC;" d="M112.291,328.874c0,0-11.722,1.233-20.02,14.275c-0.951,1.494-0.811,3.43,0.292,4.815
						c1.503,1.886,4.281,4.059,9.09,4.014c0,0-0.418,4.177,3.744,5.006c0,0,4.804-7.564,10.138-11.64
						C115.535,345.343,119.419,332.306,112.291,328.874z"/>
					<path style="fill:#6A7CBD;" d="M107.216,354.358c-1.141,1.554-1.822,2.628-1.822,2.628c-4.162-0.834-3.741-5.007-3.741-5.007
						c-4.805,0.038-7.587-2.129-9.093-4.019c-1.103-1.381-1.237-3.318-0.288-4.815c0.988-1.554,2.024-2.935,3.088-4.172
						c-0.364,0.508-0.719,1.036-1.074,1.592c-0.95,1.496-0.806,3.434,0.297,4.815c1.496,1.889,4.278,4.067,9.092,4.019
						C103.677,349.4,103.264,353.438,107.216,354.358z"/>
				</g>
			</g>
			<g>
				<g>
					<path style="fill:#FDD3B3;" d="M133.984,328.874c0,0,11.972,8.853,28.117,31.86c0.704,1.003,3.563,2.584,4.718,2.995
						c5.194,1.853,20.16,7.765,21.607,14.85c0,0,0.031,0.143,0.058,0.391c0.505,4.657-4.901,7.502-8.609,4.639
						c-1.463-1.129-3.074-2.888-4.422-5.619c0,0-6.821-2.957-13.482-5.281c-4.818-1.681-8.986-4.747-12.235-8.681
						c-6.836-8.277-14.58-17.56-17.462-20.707C132.272,343.321,127.871,334.26,133.984,328.874z"/>
					<path style="fill:#FDBA9C;" d="M132.268,343.319c2.887,3.146,10.627,12.43,17.466,20.707c3.251,3.932,7.414,7.002,12.238,8.68
						c6.656,2.331,13.476,5.285,13.476,5.285c1.352,2.734,2.964,4.489,4.421,5.62c3.079,2.369,7.328,0.815,8.392-2.446
						c-1.803,1.448-4.546,1.717-6.714,0.048c-1.458-1.132-3.069-2.887-4.422-5.62c0,0-6.819-2.954-13.476-5.285
						c-4.824-1.678-8.987-4.748-12.238-8.68c-6.839-8.277-14.579-17.561-17.466-20.707c0,0-3.05-6.292-0.528-11.5
						C128.163,334.85,132.268,343.319,132.268,343.319z"/>
				</g>
				<g>
					<path style="fill:#7988CC;" d="M133.984,328.874c0,0,11.722,1.233,20.02,14.275c0.951,1.494,0.811,3.43-0.292,4.815
						c-1.503,1.886-4.281,4.059-9.09,4.014c0,0,0.418,4.177-3.744,5.006c0,0-4.804-7.564-10.138-11.64
						C130.74,345.343,126.856,332.306,133.984,328.874z"/>
					<path style="fill:#6A7CBD;" d="M139.059,354.358c1.141,1.554,1.822,2.628,1.822,2.628c4.163-0.834,3.741-5.007,3.741-5.007
						c4.805,0.038,7.587-2.129,9.092-4.019c1.103-1.381,1.237-3.318,0.288-4.815c-0.988-1.554-2.024-2.935-3.088-4.172
						c0.365,0.508,0.719,1.036,1.074,1.592c0.949,1.496,0.806,3.434-0.297,4.815c-1.496,1.889-4.278,4.067-9.093,4.019
						C142.598,349.4,143.01,353.438,139.059,354.358z"/>
				</g>
			</g>
		</g>
		<g>
			<g>
				<path style="fill:#9FA6EA;" d="M135.325,330.096c-1.168-1.109-2.486-2.255-3.956-3.39h-8.188h-0.08h-8.189
					c-1.471,1.135-2.788,2.281-3.956,3.39c-8.341,7.92-10.132,20.689-3.693,30.219c1.215,1.798,2.21,2.748,2.21,2.748
					c4.78,1.935,12.824,2.356,13.628,2.394v0.004c0,0,0.029-0.001,0.04-0.002c0.011,0,0.04,0.002,0.04,0.002v-0.004
					c0.804-0.038,8.847-0.459,13.627-2.394c0,0,0.995-0.95,2.21-2.748C145.457,350.784,143.666,338.016,135.325,330.096z"/>
				<path style="fill:#929AE2;" d="M142.819,349.553c-0.316,3.75-1.563,7.443-3.798,10.761c-1.218,1.803-2.215,2.753-2.215,2.753
					c-4.776,1.928-12.823,2.35-13.629,2.388v0.01c0,0-0.029-0.01-0.038-0.01s-0.038,0.01-0.038,0.01v-0.01
					c-0.806-0.038-8.843-0.46-13.629-2.388c0,0-0.988-0.949-2.206-2.753c-2.235-3.309-3.482-7.011-3.798-10.761
					c3.923,6.8,11.26,11.375,19.672,11.375C131.559,360.928,138.896,356.353,142.819,349.553z"/>
				<path style="fill:#FDD3B3;" d="M131.674,316.09v8.527c0,0.7-0.086,1.381-0.249,2.033c-0.902,3.731-4.268,6.503-8.287,6.503
					c-4.009,0-7.376-2.772-8.277-6.503c-0.163-0.652-0.249-1.333-0.249-2.033v-8.527H131.674z"/>
				<path style="fill:#FDBA9C;" d="M131.674,316.09v8.527c0,0.7-0.086,1.381-0.249,2.033c-2.542,0.451-5.304,0.719-8.287,0.719
					c-2.973,0-5.736-0.269-8.277-0.719c-0.163-0.652-0.249-1.333-0.249-2.033v-8.527H131.674z"/>
			</g>
			<g>
				<g>
					<path style="fill:#9FA6EA;" d="M137.219,363.063c-6.354,1.893-13.625,2.37-14.079,2.395c-0.453-0.026-7.699-0.503-14.053-2.395
						c0,0-22.484,27.848-30.176,71.9c-0.506,2.898,0.794,5.841,3.319,7.35c3.65,2.181,9.768,4.327,18.219,2.195
						c0,0,7.968,8.135,22.691,3.051c14.723,5.084,22.691-3.051,22.691-3.051c8.451,2.131,14.569-0.015,18.219-2.195
						c2.525-1.509,3.825-4.452,3.319-7.35C159.68,390.911,137.219,363.063,137.219,363.063z"/>
					<path style="fill:#929AE2;" d="M164.054,442.31c-3.654,2.187-9.773,4.326-18.223,2.196c0,0-7.97,8.133-22.693,3.05
						c-14.722,5.083-22.683-3.05-22.683-3.05c-8.46,2.129-14.569-0.01-18.223-2.196c-2.523-1.506-3.827-4.45-3.319-7.347
						c0.125-0.7,0.249-1.391,0.384-2.081c0.547,1.439,1.554,2.695,2.935,3.52c3.654,2.177,9.764,4.326,18.223,2.196
						c0,0,7.961,8.133,22.683,3.05c14.723,5.083,22.693-3.05,22.693-3.05c8.45,2.129,14.569-0.019,18.223-2.196
						c1.372-0.825,2.388-2.072,2.944-3.51c0.125,0.69,0.249,1.381,0.374,2.072C167.871,437.86,166.576,440.804,164.054,442.31z"/>
				</g>
				<g>
					<g>
						<path style="fill:#7988CC;" d="M123.14,365.459c0,0,6.76,53.909,15.791,79.225c1.071,3.002,3.825,5.061,7.007,5.246
							c5.128,0.299,13.447-0.199,22.257-4.752c2.404-1.242,3.723-3.899,3.367-6.581c-1.73-13.023-8.938-52.321-34.754-75.534
							C136.808,363.063,130.34,365.459,123.14,365.459z"/>
						<path style="fill:#6A7CBD;" d="M168.197,445.178c-8.814,4.556-17.13,5.055-22.261,4.748c-3.184-0.182-5.937-2.235-7.001-5.237
							c-9.035-25.321-15.797-79.233-15.797-79.233c2.148,0,4.23-0.211,6.09-0.508c2.388,16.65,7.826,50.968,14.502,69.671
							c1.065,3.002,3.817,5.055,7.002,5.237c4.776,0.288,12.325-0.125,20.458-3.875c0.144,0.959,0.269,1.841,0.374,2.618
							C171.918,441.284,170.595,443.94,168.197,445.178z"/>
					</g>
					<g>
						<path style="fill:#7988CC;" d="M123.134,365.459c0,0-6.76,53.909-15.791,79.225c-1.071,3.002-3.825,5.061-7.006,5.246
							c-5.128,0.299-13.447-0.199-22.257-4.752c-2.404-1.242-3.723-3.899-3.367-6.581c1.731-13.023,8.938-52.321,34.754-75.534
							C109.467,363.063,115.934,365.459,123.134,365.459z"/>
						<path style="fill:#6A7CBD;" d="M78.078,445.178c8.814,4.556,17.13,5.055,22.261,4.748c3.184-0.182,5.937-2.235,7.002-5.237
							c9.035-25.321,15.797-79.233,15.797-79.233c-2.148,0-4.23-0.211-6.09-0.508c-2.388,16.65-7.826,50.968-14.502,69.671
							c-1.065,3.002-3.817,5.055-7.002,5.237c-4.776,0.288-12.325-0.125-20.458-3.875c-0.144,0.959-0.269,1.841-0.374,2.618
							C74.356,441.284,75.68,443.94,78.078,445.178z"/>
					</g>
				</g>
			</g>
		</g>
		<g>
			<g>
				<path style="fill:#FEBF27;" d="M155.249,267.99c-0.441,0.556-0.95,1.055-1.487,1.506c-11.164,9.236-32.668,6.589-40.523-5.774
					c-1.765-2.781-2.82-6.071-3.367-9.303c-0.134-0.767-0.153-1.554-0.058-2.331c0.326-3.146,2.331-6.138,5.237-7.472
					c3.606-1.659,8.277-0.585,10.8,2.475c4.067-3.769,10.368-5.17,15.519-3.117c5.15,2.052,8.91,7.222,9.275,12.756
					c3.261-0.24,6.196,2.455,6.503,5.716C157.33,264.441,156.534,266.407,155.249,267.99z"/>
				<path style="fill:#FEB11F;" d="M155.249,267.99c-0.441,0.556-0.95,1.055-1.487,1.506c-11.164,9.236-32.668,6.589-40.523-5.774
					c-1.765-2.781-2.82-6.071-3.367-9.303c-0.134-0.767-0.153-1.554-0.058-2.331c0.873-1.151,2.005-2.091,3.319-2.695
					c3.616-1.659,8.277-0.585,10.809,2.475c4.057-3.769,10.358-5.17,15.509-3.117c5.15,2.052,8.91,7.222,9.275,12.756
					c3.261-0.24,6.206,2.455,6.503,5.716C155.249,267.481,155.258,267.74,155.249,267.99z"/>
			</g>
			<g>
				<path style="fill:#FEBF27;" d="M161.293,289.934c0,0,1.061-4.021,0.995-9.386c-0.161-13.105-10.873-23.607-23.974-23.957
					c-1.031-0.028-2.101-0.02-3.205,0.032c0,0-11.468-9.135-30.518-3.617c-11.922,3.453-20.5,14.202-20.602,26.614
					c-0.004,0.43,0.001,0.866,0.015,1.309c0.173,5.687,1.288,11.33,3.58,16.538c1.433,3.255,3.469,6.794,6.137,8.902l58.842-0.357
					C152.563,306.012,157.478,301.304,161.293,289.934z"/>
				<path style="fill:#FEB11F;" d="M162.145,284.496c-0.278,3.271-0.854,5.438-0.854,5.438c-3.817,11.366-8.728,16.075-8.728,16.075
					l-58.842,0.365c-2.666-2.11-4.709-5.649-6.138-8.91c-1.707-3.875-2.753-7.98-3.251-12.171c0.844-0.384,1.65-0.902,2.35-1.477
					c2.225-1.841,3.827-4.316,5.832-6.388c5.083-5.227,12.919-7.625,20.055-6.138c4.259,0.892,8.277,3.06,12.632,3.146
					c5.477,0.115,11.413-3.731,13.389-8.843c-0.412,3.952,2.311,7.644,5.64,9.812c3.328,2.168,7.241,3.203,10.915,4.709
					C157.695,281.168,160.236,282.549,162.145,284.496z"/>
			</g>
			<g>
				<g>
					<g>
						<path style="fill:#FDD3B3;" d="M145.78,296.77c0,0,4.496-6.264,10.984-6.987c7.125-0.795,12.368,6.876,8.336,12.804
							c-2.036,2.993-6.413,5.225-15.483,3.934L145.78,296.77z"/>
						<g>
							<path style="fill:#FDBA9C;" d="M161.463,301.016c-0.787,1.17-2.139,2.148-4.402,2.551c-1.41,0.24-3.184,0.259-5.4-0.058
								l-2.427-6.177c0,0,1.707-2.379,4.393-3.664c0.777-0.374,1.64-0.652,2.561-0.758
								C160.696,292.413,164.014,297.266,161.463,301.016z"/>
							<path style="fill:#FD9786;" d="M159.181,301.735c-0.48,0.71-1.161,1.343-2.12,1.832c-1.41,0.24-3.184,0.259-5.4-0.058
								l-2.427-6.177c0,0,1.707-2.379,4.393-3.664c0.096-0.019,0.182-0.029,0.278-0.038
								C158.423,293.132,161.732,297.985,159.181,301.735z"/>
						</g>
					</g>
					<g>
						<path style="fill:#FDD3B3;" d="M100.501,296.77c0,0-4.496-6.264-10.984-6.987c-7.125-0.795-12.368,6.876-8.336,12.804
							c2.036,2.993,6.413,5.225,15.483,3.934L100.501,296.77z"/>
						<g>
							<path style="fill:#FDBA9C;" d="M84.817,301.016c0.786,1.17,2.139,2.148,4.402,2.551c1.41,0.24,3.184,0.259,5.4-0.058
								l2.427-6.177c0,0-1.707-2.379-4.393-3.664c-0.777-0.374-1.64-0.652-2.561-0.758
								C85.585,292.413,82.266,297.266,84.817,301.016z"/>
							<path style="fill:#FD9786;" d="M87.1,301.735c0.48,0.71,1.161,1.343,2.12,1.832c1.41,0.24,3.184,0.259,5.4-0.058l2.427-6.177
								c0,0-1.707-2.379-4.393-3.664c-0.096-0.019-0.182-0.029-0.278-0.038C87.858,293.132,84.549,297.985,87.1,301.735z"/>
						</g>
					</g>
				</g>
				<path style="fill:#FDD3B3;" d="M152.546,305.697c-0.108-2.097-0.372-3.891-0.645-5.274c-0.402-2.043-0.433-4.128-0.194-6.197
					c0.827-7.145-0.594-21.537-0.594-21.537l-27.974-3.813l-27.974,3.813c0,0-1.421,14.392-0.594,21.537
					c0.239,2.069,0.208,4.153-0.194,6.197c-0.272,1.383-0.536,3.178-0.645,5.274c-0.304,5.886,2.798,11.365,7.98,14.172
					c4.869,2.638,12.076,5.275,21.427,5.275c9.351,0,16.558-2.638,21.427-5.275C149.748,317.062,152.85,311.583,152.546,305.697z"/>
				<g>
					<g>
						<path style="fill:#773B27;" d="M99.021,288.791c-0.186,0-0.375-0.036-0.557-0.113c-0.732-0.308-1.077-1.152-0.769-1.884
							c0.043-0.103,1.087-2.525,3.7-3.562c1.877-0.744,4.017-0.594,6.362,0.446c0.726,0.322,1.054,1.172,0.731,1.899
							c-0.322,0.725-1.174,1.054-1.899,0.731c-1.612-0.715-3.003-0.85-4.134-0.401c-1.479,0.586-2.103,1.988-2.108,2.002
							C100.116,288.46,99.582,288.791,99.021,288.791z"/>
					</g>
					<g>
						<path style="fill:#773B27;" d="M107.978,302.501L107.978,302.501c-2.488,0-4.504-2.017-4.504-4.504v-3.033
							c0-2.488,2.017-4.504,4.504-4.504l0,0c2.488,0,4.504,2.016,4.504,4.504v3.033
							C112.482,300.485,110.466,302.501,107.978,302.501z"/>
					</g>
					<g>
						<circle style="fill:#FFFFFF;" cx="112.989" cy="292.069" r="3.539"/>
					</g>
					<g>
						<path style="fill:#773B27;" d="M138.344,302.501L138.344,302.501c2.488,0,4.504-2.017,4.504-4.504v-3.033
							c0-2.488-2.016-4.504-4.504-4.504l0,0c-2.488,0-4.504,2.016-4.504,4.504v3.033
							C133.839,300.485,135.856,302.501,138.344,302.501z"/>
					</g>
					<g>
						<circle style="fill:#FFFFFF;" cx="133.332" cy="292.069" r="3.539"/>
					</g>
					<g>
						<path style="fill:#773B27;" d="M147.258,288.791c-0.558,0-1.088-0.327-1.322-0.871c-0.019-0.043-0.671-1.456-2.143-2.025
							c-1.126-0.434-2.506-0.296-4.104,0.413c-0.727,0.323-1.577-0.006-1.899-0.731c-0.322-0.726,0.005-1.576,0.731-1.899
							c2.345-1.04,4.486-1.19,6.362-0.446c2.613,1.036,3.657,3.459,3.701,3.562c0.308,0.733-0.036,1.576-0.769,1.884
							C147.633,288.754,147.444,288.791,147.258,288.791z"/>
					</g>
					
						<path style="fill:none;stroke:#773B27;stroke-width:1.9182;stroke-linecap:round;stroke-linejoin:round;stroke-miterlimit:10;" d="
						M119.023,305.962v0.999c0,2.273,1.843,4.116,4.116,4.116l0,0c2.273,0,4.116-1.843,4.116-4.116v-0.999"/>
					<ellipse style="fill:#F79C97;" cx="141.632" cy="302.805" rx="4.636" ry="3.157"/>
					<path style="fill:#F79C97;" d="M109.282,302.805c0,1.744-2.076,3.157-4.636,3.157c-2.56,0-4.636-1.414-4.636-3.157
						s2.076-3.157,4.636-3.157C107.206,299.648,109.282,301.061,109.282,302.805z"/>
					<path style="fill:#773B27;" d="M142.491,293.205c0,0,1.028,1.887,3.565,2.267c0,0-1.898,1.213-3.637,0.137L142.491,293.205z"/>
					<path style="fill:#773B27;" d="M103.788,293.205c0,0-1.028,1.887-3.565,2.267c0,0,1.898,1.213,3.637,0.137L103.788,293.205z"/>
				</g>
				<path style="fill:#FEBF27;" d="M94.028,288.027c0.49-2.542,1.899-4.896,3.907-6.529c3.472-2.824,8.309-3.303,12.765-2.877
					c4.456,0.426,8.833,1.632,13.308,1.711c4.475,0.079,9.306-1.21,12.032-4.76c-0.105,2.07,1.734,4.007,3.549,5.005
					c1.816,0.999,3.89,1.41,5.814,2.181c3.54,1.42,6.555,4.111,8.367,7.468v-15.894c0-3.556-2.883-6.439-6.439-6.439h-46.863
					c-3.556,0-6.439,2.883-6.439,6.439V288.027z"/>
				<path style="fill:#FEB11F;" d="M153.772,279.576v10.656c-1.813-3.357-4.824-6.052-8.373-7.471
					c-1.918-0.777-3.99-1.18-5.812-2.187c-1.813-0.997-3.654-2.935-3.549-4.997c-2.724,3.549-7.558,4.834-12.027,4.757
					c-4.479-0.077-8.853-1.285-13.313-1.717c-4.45-0.422-9.294,0.057-12.766,2.877c-2.005,1.64-3.414,3.99-3.904,6.532v-11.999
					c5.045-4.249,12.075-6.081,18.54-4.738c4.259,0.892,8.277,3.06,12.632,3.146c4.613,0.096,9.562-2.618,12.181-6.541h1.314
					c0.585,3.05,2.858,5.764,5.534,7.51C147.144,277.303,150.511,278.338,153.772,279.576z"/>
			</g>
			<g>
				<path style="fill:#C2C7EA;" d="M135.109,241.614c0,0-4.476,1.079-7.273,5.635c0,0-0.24-7.193-4.636-10.311
					c-4.396,3.117-4.636,10.311-4.636,10.311c-2.797-4.556-7.273-5.635-7.273-5.635c1.454,3.622,1.975,11.202,2.136,14.433
					c0.049,0.981,0.601,1.875,1.473,2.326c0.043,0.023,0.087,0.045,0.13,0.067c5.162,2.619,11.177,2.619,16.339,0
					c0.043-0.022,0.087-0.044,0.13-0.067c0.872-0.451,1.424-1.346,1.473-2.326C133.134,252.816,133.655,245.236,135.109,241.614z"/>
				<path style="fill:#A6B0EA;" d="M133.045,254.802c-0.029,0.46-0.048,0.882-0.067,1.247c-0.058,0.978-0.604,1.87-1.477,2.321
					c-0.048,0.029-0.086,0.048-0.134,0.067c-5.16,2.628-11.174,2.628-16.334,0c-0.048-0.019-0.086-0.038-0.134-0.067
					c-0.873-0.451-1.42-1.343-1.467-2.321c-0.019-0.364-0.048-0.786-0.077-1.256c0.23,0.633,0.7,1.17,1.314,1.487
					c0.048,0.019,0.086,0.048,0.134,0.067c5.304,2.695,11.49,2.695,16.794,0c0.048-0.019,0.086-0.048,0.134-0.067
					C132.345,255.962,132.815,255.435,133.045,254.802z"/>
			</g>
		</g>
	</g>
	<g>
		<g>
			<g>
				
					<text transform="matrix(1 0 0 1 193.0403 273.1176)" style="fill:#773B27; font-family:'Montserrat-Bold'; font-size:16.785px;">COLLECTION</text>
			</g>
		</g>
		<path style="fill:#FEBF27;" d="M319.165,257.938h-137.97c-1.925,0-3.134-2.076-2.184-3.75l4.574-8.058
			c0.402-0.709,0.435-1.569,0.089-2.306l-5.112-10.892c-0.781-1.665,0.434-3.578,2.273-3.578h138.33
			c1.813,0,3.029,1.863,2.298,3.523l-4.297,9.757c-0.284,0.645-0.284,1.379,0,2.024l4.297,9.757
			C322.194,256.074,320.978,257.938,319.165,257.938z"/>
		<g>
			
				<text transform="matrix(1 0 0 1 190.7063 251.5873)" style="fill:#FFFFFF; font-family:'Montserrat-Bold'; font-size:22.4471px;">PRINCESS</text>
		</g>
	</g>
</g>
<g id="DESIGNED_BY_FREEPIK">
	<g id="XMLID_2_">
		<g id="XMLID_39_">
			<g id="XMLID_60_">
				<path id="XMLID_68_" style="fill:#1C1C1B;" d="M260.104,465.465c-0.433,0.443-0.804,0.932-1.108,1.453l-0.465-0.241
					c-0.067-0.297-0.35-0.502-0.659-0.466c-0.331,0.039-0.567,0.339-0.529,0.67c0.039,0.331,0.339,0.567,0.67,0.528
					c0.065-0.007,0.127-0.025,0.184-0.052l0.451,0.234c-0.251,0.554-0.433,1.139-0.539,1.743l0.747,0.132
					c0.229-1.306,0.85-2.507,1.792-3.473L260.104,465.465z"/>
				<path id="XMLID_67_" style="fill:#1C1C1B;" d="M265.591,463.164c-0.171,0-0.341,0.006-0.509,0.017l-0.074-0.626
					c0.188-0.149,0.296-0.389,0.266-0.645c-0.046-0.393-0.402-0.674-0.795-0.628c-0.394,0.046-0.675,0.402-0.628,0.796
					c0.03,0.254,0.189,0.461,0.404,0.563l0.073,0.624c-0.714,0.116-1.402,0.332-2.06,0.646l0.327,0.685
					c0.935-0.447,1.941-0.674,2.995-0.674c0.497,0,0.993,0.053,1.476,0.158l0.16-0.741
					C266.692,463.222,266.142,463.164,265.591,463.164z"/>
				<path id="XMLID_66_" style="fill:#1C1C1B;" d="M272.194,465.711c0.331-0.04,0.566-0.341,0.525-0.672
					c-0.04-0.331-0.341-0.566-0.672-0.525c-0.31,0.038-0.535,0.304-0.53,0.608l-0.416,0.363c-0.418-0.43-0.89-0.813-1.407-1.14
					l-0.404,0.642c1.135,0.715,2.021,1.727,2.564,2.925l0.69-0.313c-0.251-0.554-0.567-1.071-0.942-1.545l0.402-0.351
					C272.065,465.715,272.128,465.719,272.194,465.711z"/>
				<path id="XMLID_65_" style="fill:#1C1C1B;" d="M265.044,473.372c-0.386,0.023-0.775,0.035-1.157,0.035
					c-0.88,0-1.733-0.061-2.479-0.18c-0.391-0.062-0.846-0.154-1.271-0.292c1.047,1.861,3.069,3.125,5.389,3.125
					c2.855,0,5.263-1.916,5.949-4.503c-0.682,0.449-1.505,0.825-2.458,1.122C267.838,473.047,266.463,473.287,265.044,473.372z"/>
				<path id="XMLID_61_" style="fill:#1C1C1B;" d="M265.591,464.68c-3.351,0-6.079,2.666-6.079,5.943
					c0,0.425,0.046,0.849,0.137,1.261c0.674,0.483,2.706,0.891,5.348,0.731c2.88-0.174,5.297-0.958,6.672-2.159
					c-0.005-0.194-0.02-0.39-0.045-0.581C271.244,466.914,268.65,464.68,265.591,464.68z M263.432,471.195
					c-1.02,0-1.85-0.83-1.85-1.85c0-1.021,0.83-1.851,1.85-1.851c1.02,0,1.85,0.83,1.85,1.851
					C265.282,470.365,264.452,471.195,263.432,471.195z M268.169,470.287c-0.75,0-1.36-0.61-1.36-1.36s0.61-1.36,1.36-1.36
					s1.36,0.61,1.36,1.36S268.919,470.287,268.169,470.287z"/>
			</g>
			<path id="XMLID_58_" style="fill:#1C1C1B;" d="M281.595,466.547c-0.295-0.116-0.806-0.31-1.383-0.238
				c-0.551,0.069-0.844,0.341-0.844,1.007v0.866h2.229v1.717h-2.229v5.455h-1.932v-5.455h-1.339v-1.717h1.339v-0.889
				c0-1.68,0.896-2.782,2.568-2.782c0.643,0,1.157,0.121,1.59,0.308V466.547z"/>
			<path id="XMLID_56_" style="fill:#1C1C1B;" d="M286.297,469.878c-0.177-0.029-0.357-0.046-0.525-0.046
				c-0.896,0-1.51,0.548-1.51,1.613v3.908h-1.933v-7.172h1.873v0.784c0.451-0.673,1.14-0.977,2.021-0.977
				c0.414,0,0.848,0.128,1.095,0.337L286.297,469.878z"/>
			<path id="XMLID_53_" style="fill:#1C1C1B;" d="M293.965,471.757c0,0.222-0.016,0.488-0.037,0.651h-5.085
				c0.207,1.036,0.933,1.487,1.843,1.487c0.622,0,1.295-0.252,1.813-0.689l1.133,1.243c-0.814,0.748-1.851,1.089-3.057,1.089
				c-2.198,0-3.724-1.496-3.724-3.753c0-2.258,1.48-3.797,3.627-3.797C292.543,467.99,293.958,469.522,293.965,471.757z
				 M288.851,471.091h3.175c-0.178-0.918-0.732-1.437-1.561-1.437C289.554,469.655,289.021,470.203,288.851,471.091z"/>
			<path id="XMLID_50_" style="fill:#1C1C1B;" d="M301.619,471.757c0,0.222-0.016,0.488-0.037,0.651h-5.085
				c0.207,1.036,0.933,1.487,1.843,1.487c0.622,0,1.296-0.252,1.814-0.689l1.133,1.243c-0.815,0.748-1.851,1.089-3.058,1.089
				c-2.198,0-3.723-1.496-3.723-3.753c0-2.258,1.48-3.797,3.627-3.797C300.197,467.99,301.611,469.522,301.619,471.757z
				 M296.504,471.091h3.175c-0.178-0.918-0.733-1.437-1.561-1.437C297.208,469.655,296.674,470.203,296.504,471.091z"/>
			<path id="XMLID_47_" style="fill:#1C1C1B;" d="M309.964,471.764c0,2.154-1.495,3.775-3.472,3.775
				c-0.962,0-1.644-0.378-2.109-0.933v3.708h-1.925v-10.133h1.888v0.792c0.467-0.585,1.154-0.984,2.139-0.984
				C308.469,467.99,309.964,469.611,309.964,471.764z M304.287,471.764c0,1.133,0.748,1.977,1.844,1.977
				c1.14,0,1.85-0.881,1.85-1.977c0-1.095-0.71-1.976-1.85-1.976C305.035,469.789,304.287,470.632,304.287,471.764z"/>
			<path id="XMLID_43_" style="fill:#1C1C1B;" d="M313.068,465.836c0,0.696-0.541,1.229-1.236,1.229
				c-0.696,0-1.229-0.533-1.229-1.229c0-0.695,0.532-1.243,1.229-1.243C312.527,464.592,313.068,465.14,313.068,465.836z
				 M312.808,475.354h-1.932v-7.172h1.932V475.354z"/>
			<path id="XMLID_40_" style="fill:#1C1C1B;" d="M316.032,470.736l2.702-2.554h2.368l-3.478,3.375l3.501,3.797h-2.376l-2.717-2.901
				v2.901H314.1v-10.658h1.932V470.736z"/>
		</g>
		<g id="XMLID_6_">
			<path id="XMLID_36_" style="fill:#1C1C1B;" d="M184.412,475.29v-1.055c-0.527,0.718-1.391,1.23-2.387,1.23
				c-1.846,0-3.149-1.406-3.149-3.706c0-2.256,1.289-3.721,3.149-3.721c0.952,0,1.816,0.469,2.387,1.245v-3.765h1.099v9.771H184.412
				z M184.412,473.371v-3.208c-0.395-0.615-1.245-1.143-2.124-1.143c-1.42,0-2.27,1.172-2.27,2.739c0,1.567,0.85,2.725,2.27,2.725
				C183.167,474.484,184.017,473.986,184.412,473.371z"/>
			<path id="XMLID_33_" style="fill:#1C1C1B;" d="M186.932,471.745c0-2.051,1.465-3.706,3.486-3.706c2.139,0,3.398,1.67,3.398,3.794
				v0.278h-5.727c0.088,1.333,1.025,2.446,2.549,2.446c0.806,0,1.626-0.322,2.182-0.894l0.527,0.718
				c-0.703,0.703-1.655,1.084-2.812,1.084C188.44,475.465,186.932,473.957,186.932,471.745z M190.403,468.947
				c-1.509,0-2.256,1.274-2.314,2.358h4.644C192.718,470.25,192.015,468.947,190.403,468.947z"/>
			<path id="XMLID_31_" style="fill:#1C1C1B;" d="M194.607,474.352l0.571-0.791c0.469,0.542,1.362,1.011,2.329,1.011
				c1.084,0,1.67-0.513,1.67-1.216c0-1.714-4.38-0.659-4.38-3.281c0-1.099,0.952-2.036,2.636-2.036c1.202,0,2.051,0.454,2.623,1.025
				l-0.513,0.762c-0.424-0.513-1.201-0.894-2.109-0.894c-0.966,0-1.567,0.483-1.567,1.113c0,1.553,4.379,0.527,4.379,3.281
				c0,1.187-0.952,2.139-2.783,2.139C196.306,475.465,195.325,475.114,194.607,474.352z"/>
			<path id="XMLID_11_" style="fill:#1C1C1B;" d="M201.477,466.471c0-0.41,0.337-0.747,0.732-0.747c0.41,0,0.747,0.337,0.747,0.747
				c0,0.41-0.337,0.732-0.747,0.732C201.814,467.204,201.477,466.881,201.477,466.471z M201.667,475.29v-7.075h1.099v7.075H201.667z
				"/>
			<path id="XMLID_8_" style="fill:#1C1C1B;" d="M204.582,477.106l0.556-0.82c0.586,0.703,1.289,0.967,2.3,0.967
				c1.172,0,2.27-0.571,2.27-2.124v-1.011c-0.513,0.718-1.377,1.26-2.373,1.26c-1.846,0-3.149-1.377-3.149-3.662
				c0-2.271,1.289-3.677,3.149-3.677c0.952,0,1.802,0.469,2.373,1.245v-1.069h1.099v6.87c0,2.344-1.641,3.076-3.369,3.076
				C206.237,478.161,205.416,477.925,204.582,477.106z M209.708,473.253v-3.091c-0.381-0.615-1.23-1.143-2.109-1.143
				c-1.421,0-2.27,1.128-2.27,2.695c0,1.553,0.849,2.695,2.27,2.695C208.478,474.411,209.328,473.869,209.708,473.253z"/>
			<path id="XMLID_7_" style="fill:#1C1C1B;" d="M217.413,475.29v-4.629c0-1.245-0.63-1.641-1.582-1.641
				c-0.864,0-1.685,0.527-2.094,1.099v5.171h-1.099v-7.075h1.099v1.025c0.497-0.586,1.464-1.201,2.519-1.201
				c1.48,0,2.256,0.747,2.256,2.285v4.966H217.413z"/>
			<path id="XMLID_19_" style="fill:#1C1C1B;" d="M219.932,471.745c0-2.051,1.465-3.706,3.486-3.706c2.139,0,3.398,1.67,3.398,3.794
				v0.278h-5.727c0.088,1.333,1.025,2.446,2.548,2.446c0.806,0,1.626-0.322,2.183-0.894l0.527,0.718
				c-0.703,0.703-1.655,1.084-2.813,1.084C221.441,475.465,219.932,473.957,219.932,471.745z M223.404,468.947
				c-1.509,0-2.256,1.274-2.314,2.358h4.643C225.718,470.25,225.015,468.947,223.404,468.947z"/>
			<path id="XMLID_22_" style="fill:#1C1C1B;" d="M233.35,475.29v-1.055c-0.527,0.718-1.392,1.23-2.388,1.23
				c-1.845,0-3.149-1.406-3.149-3.706c0-2.256,1.289-3.721,3.149-3.721c0.952,0,1.817,0.469,2.388,1.245v-3.765h1.098v9.771H233.35z
				 M233.35,473.371v-3.208c-0.396-0.615-1.245-1.143-2.124-1.143c-1.421,0-2.27,1.172-2.27,2.739c0,1.567,0.85,2.725,2.27,2.725
				C232.105,474.484,232.954,473.986,233.35,473.371z"/>
			<path id="XMLID_25_" style="fill:#1C1C1B;" d="M239.692,475.29v-9.771h1.099v3.765c0.571-0.776,1.421-1.245,2.388-1.245
				c1.845,0,3.149,1.465,3.149,3.721c0,2.3-1.304,3.706-3.149,3.706c-0.996,0-1.86-0.513-2.388-1.23v1.055H239.692z M242.9,474.484
				c1.436,0,2.285-1.157,2.285-2.725c0-1.567-0.85-2.739-2.285-2.739c-0.864,0-1.729,0.527-2.109,1.143v3.208
				C241.171,473.986,242.036,474.484,242.9,474.484z"/>
			<path id="XMLID_28_" style="fill:#1C1C1B;" d="M247.528,477.062c0.161,0.073,0.425,0.117,0.6,0.117
				c0.483,0,0.806-0.161,1.055-0.747l0.469-1.069l-2.959-7.148h1.187l2.358,5.801l2.344-5.801h1.2l-3.544,8.511
				c-0.425,1.024-1.143,1.421-2.08,1.436c-0.234,0-0.6-0.044-0.806-0.104L247.528,477.062z"/>
		</g>
	</g>
</g>
</svg>
