<?xml version="1.0" encoding="utf-8"?>
<!-- Generator: Adobe Illustrator 27.5.0, SVG Export Plug-In . SVG Version: 6.00 Build 0)  -->
<svg version="1.1" xmlns="http://www.w3.org/2000/svg" xmlns:xlink="http://www.w3.org/1999/xlink" x="0px" y="0px"
	 viewBox="0 0 500 500" style="enable-background:new 0 0 500 500;" xml:space="preserve">
<g id="BACKGROUND">
	<rect style="fill:#FFFFFF;" width="500" height="500"/>
</g>
<g id="OBJECTS">
	<path style="fill:#F5F8FF;" d="M438.299,158.486c-11.718-35.381-36.185-66.121-67.167-86.838
		C339.904,50.765,302.994,39.9,265.393,40.965c-30.488,0.864-63.637,5.792-92.799,14.623c-27.022,8.183-52.975,22.385-70.571,44.465
		c-20.258,25.42-27.654,58.748-30.501,91.127c-2.953,33.592-1.519,68.187,10.169,99.818c20.252,54.81,71.656,95.974,128.989,107.252
		c57.333,11.279,118.876-6.306,164.014-43.411c28.248-23.221,50.542-53.952,62.323-88.57
		C448.797,231.652,449.796,193.198,438.299,158.486z"/>
	<g>
		<g>
			<path style="fill:#93D8C3;" d="M415.24,399.934c2.613-5.12,7.132-9.59,12.775-10.691c4.014-0.783,8.281,0.168,12.185-1.048
				c4.246-1.323,7.29-4.937,10.337-8.176c3.048-3.239,6.777-6.446,11.224-6.499c4.102-0.049,7.689,2.601,10.869,5.192
				c3.18,2.591,6.599,5.373,10.69,5.67c-6.881,0.97-13.289,4.919-17.249,10.628c-1.679,2.421-2.926,5.121-4.611,7.537
				c-1.685,2.417-3.944,4.614-6.795,5.358c-5.2,1.357-10.7-2.424-15.917-1.136c-5.96,1.472-8.605,8.639-13.958,11.644
				c-3.449,1.936-10.984,2.194-13.397-1.79c-1.165-1.923,0.144-5.206,0.597-7.196C412.735,406.16,413.712,402.928,415.24,399.934z"
				/>
			<path style="fill:#C1EADC;" d="M412.327,417.749c1.003-3.976,2.395-7.912,4.602-11.423c3.715-5.911,10.978-11.279,18.829-9.951
				c0.818,0.138,1.632,0.348,2.42,0.551c1.6,0.413,3.111,0.802,4.651,0.642c3.645-0.38,6.264-3.72,8.14-6.588l0.4-0.614
				c2.002-3.08,4.072-6.265,7.505-7.605c2.739-1.069,5.867-0.666,8.38-0.342c3.262,0.42,6.666,0.712,9.958,0.994
				c0.997,0.085,2.004,0.173,3.015,0.264c0.991,0.373,2.018,0.626,3.094,0.704c-0.721,0.102-1.436,0.243-2.145,0.409
				c-1.357-0.126-2.714-0.245-4.051-0.359c-3.303-0.283-6.719-0.576-10.002-0.999c-2.523-0.325-5.382-0.694-7.878,0.281
				c-3.126,1.22-5.105,4.265-7.019,7.21l-0.401,0.616c-1.999,3.057-4.816,6.62-8.889,7.045c-1.722,0.18-3.395-0.252-5.012-0.669
				c-0.767-0.198-1.56-0.402-2.335-0.533c-7.387-1.25-14.259,3.864-17.794,9.487c-2.213,3.521-3.592,7.516-4.582,11.552
				C412.893,418.222,412.598,417.997,412.327,417.749z"/>
		</g>
		<g>
			<path style="fill:#93D8C3;" d="M59.864,412.086c-5.774-1.799-11.72-4.097-15.625-8.716c-1.564-1.85-2.74-4.593-1.411-6.618
				c1.39-2.117,4.479-2.015,6.978-1.609c8.019,1.304,15.933,3.254,23.64,5.825c-13.853-3.75-26.48-11.901-35.602-22.981
				c-1.972-2.395-3.818-5.873-1.996-8.384c1.801-2.483,5.619-1.859,8.51-0.833c8.168,2.898,15.932,6.932,22.999,11.949
				c-10.006-6.792-18.097-16.372-23.118-27.374c-1.122-2.458-2.028-5.55-0.368-7.682c1.432-1.839,4.271-2.034,6.392-1.066
				c2.121,0.968,3.684,2.821,5.151,4.633c6.641,8.206,12.828,16.779,18.522,25.669c-2.881-7.472-5.143-15.183-6.755-23.027
				c-0.556-2.702-0.905-5.888,1.011-7.873c1.825-1.891,5.067-1.735,7.257-0.283c2.19,1.452,3.528,3.873,4.572,6.285
				c4.396,10.16,4.986,21.497,5.513,32.555c-0.363-6.876,0.468-13.814,2.445-20.41c0.619-2.067,1.511-4.292,3.436-5.267
				c1.614-0.818,3.635-0.514,5.179,0.43c1.543,0.945,2.669,2.447,3.547,4.03c3.691,6.655,3.426,14.754,2.435,22.299
				c-1.212,9.223-3.363,18.322-6.405,27.113c-1.302,3.762-1.916,7.882-6.61,7.691c-4.631-0.189-9.458-1.348-13.985-2.288
				C70.276,415.054,65.03,413.697,59.864,412.086z"/>
			<path style="fill:#C1EADC;" d="M95.3,356.711c-0.368-0.122-0.746-0.207-1.128-0.255c2.227,16.742-0.273,34.456-7.134,49.784
				c-3.075-5.832-6.313-11.57-9.707-17.213c-0.022-0.135-0.093-0.251-0.198-0.335c-0.01-0.016-0.019-0.032-0.028-0.048
				c0.984-15.906-0.606-31.662-4.617-45.987c-0.382-0.044-0.762-0.047-1.139-0.021c3.911,13.823,5.54,29.007,4.753,44.377
				C67,372.105,56.799,357.878,45.547,344.433c-0.344,0.142-0.67,0.318-0.965,0.543c11.465,13.681,21.838,28.174,31.065,43.374
				c-14.573-2.575-28.554-8.989-40.057-18.331c-0.191,0.346-0.324,0.706-0.401,1.078c11.84,9.534,26.239,16.025,41.212,18.497
				c3.995,6.643,7.761,13.427,11.312,20.331c-15.929-1.001-31.598-5.437-45.122-12.687c-0.156,0.346-0.268,0.702-0.309,1.072
				c13.799,7.358,29.788,11.823,46.014,12.749c1.193,2.341,2.353,4.7,3.497,7.068c0.356-0.134,0.669-0.314,0.958-0.52
				c-1.172-2.426-2.361-4.842-3.585-7.24c-0.009-0.027-0.026-0.05-0.039-0.076c-0.479-0.938-0.956-1.876-1.443-2.809
				C94.841,391.913,97.5,373.824,95.3,356.711z"/>
		</g>
		<g>
			<path style="fill:#A9B3FF;" d="M385.776,394.646c-1.798-5.013-3.336-10.411-2.161-15.606c0.471-2.081,1.775-4.362,3.904-4.501
				c2.225-0.146,3.792,2.079,4.832,4.052c3.337,6.328,6.163,12.926,8.443,19.707c-4.711-11.727-5.679-24.925-2.728-37.213
				c0.638-2.657,2.103-5.799,4.835-5.85c2.7-0.051,4.287,2.964,5.099,5.539c2.295,7.279,3.577,14.875,3.799,22.504
				c-0.533-10.635,1.911-21.404,6.981-30.768c1.133-2.092,2.826-4.369,5.204-4.333c2.052,0.031,3.695,1.924,4.139,3.928
				c0.444,2.004-0.029,4.086-0.525,6.078c-2.246,9.02-4.991,17.916-8.22,26.633c3.724-5.988,7.945-11.667,12.603-16.961
				c1.605-1.824,3.659-3.759,6.07-3.465c2.297,0.28,3.907,2.641,4.048,4.951c0.141,2.31-0.851,4.534-1.993,6.547
				c-4.81,8.478-12.467,14.906-19.959,21.141c4.641-3.902,9.958-6.997,15.643-9.106c1.781-0.661,3.818-1.214,5.525-0.378
				c1.431,0.701,2.29,2.283,2.444,3.868c0.154,1.586-0.304,3.174-0.951,4.63c-2.72,6.124-8.554,10.233-14.383,13.538
				c-7.126,4.04-14.663,7.353-22.455,9.878c-3.335,1.081-6.557,2.833-8.912-0.567c-2.324-3.355-4.069-7.363-5.809-11.044
				C389.212,403.539,387.384,399.132,385.776,394.646z"/>
			<path style="fill:#999FBC;" d="M443.494,390.186c-0.109-0.323-0.251-0.634-0.419-0.928
				c-10.587,10.445-24.364,18.082-38.777,21.389c2.468-5.254,4.785-10.574,6.951-15.952c0.083-0.087,0.128-0.198,0.131-0.317
				c0.006-0.015,0.013-0.03,0.019-0.045c11.703-7.744,21.935-17.218,29.876-27.635c-0.172-0.292-0.371-0.56-0.589-0.812
				c-7.642,10.08-17.451,19.278-28.673,26.877c5.651-14.304,10.241-29.02,13.724-44.06c-0.283-0.166-0.579-0.303-0.893-0.39
				c-3.536,15.315-8.221,30.293-14.012,44.84c-5.919-11.609-8.825-24.839-8.36-37.879c-0.344,0.05-0.668,0.147-0.97,0.29
				c-0.423,13.379,2.652,26.943,8.855,38.779c-2.551,6.332-5.322,12.576-8.291,18.734c-7.744-11.728-12.936-25.094-15.013-38.446
				c-0.326,0.074-0.635,0.184-0.917,0.351c2.147,13.602,7.488,27.21,15.442,39.106c-1.012,2.08-2.056,4.147-3.114,6.207
				c0.283,0.179,0.575,0.304,0.874,0.397c1.083-2.111,2.152-4.228,3.187-6.36c0.015-0.021,0.022-0.045,0.033-0.067
				c0.405-0.834,0.812-1.667,1.209-2.504C418.507,408.534,432.632,400.808,443.494,390.186z"/>
		</g>
	</g>
	<g>
		<path style="fill:#FFC9A1;" d="M306.503,197.008c0,0-3.317-3.204-7.235-4.413c-3.918-1.209-9.339-1.232-10.468,1.745
			c-1.129,2.976-2.376,8.159,0.505,10.416s11.639,0.649,15.738-1.283C309.143,201.541,306.503,197.008,306.503,197.008z"/>
		<g>
			<path style="fill:#FFC9A1;" d="M221.092,186.17c0,0,3.317-3.204,7.235-4.413s9.339-1.232,10.468,1.745s2.376,8.159-0.505,10.416
				c-2.881,2.258-11.639,0.649-15.738-1.283C218.452,190.704,221.092,186.17,221.092,186.17z"/>
			<path style="fill:#FFC9A1;" d="M72.389,140.469c-0.631,0-1.273-0.104-1.901-0.325c-2.992-1.05-4.567-4.327-3.518-7.32
				l19.226-54.8c1.05-2.992,4.328-4.568,7.32-3.517c2.992,1.05,4.567,4.327,3.518,7.32l-19.226,54.8
				C76.979,138.99,74.76,140.469,72.389,140.469z"/>
			<path style="fill:#EFAD9C;" d="M114.803,160.09c-1.04,0-2.097-0.193-3.121-0.603l-42.417-16.939
				c-4.32-1.726-6.425-6.627-4.699-10.947c1.726-4.321,6.629-6.424,10.947-4.699l42.417,16.939c4.32,1.726,6.425,6.627,4.699,10.947
				C121.313,158.084,118.148,160.09,114.803,160.09z"/>
			<path style="fill:#FFC9A1;" d="M92.134,86.396c0,0,16.386-0.688,17.296-2.101s-10.108-3.35-10.108-3.35
				s8.835-24.316,7.497-25.108c-1.338-0.792-5.691,9.685-5.691,9.685s3.245-12.368,1.747-12.893c-1.358-0.476-5.5,12.13-5.5,12.13
				s1.973-13.314,0.616-12.952c-1.358,0.362-4.095,12.262-4.095,12.262s0.232-10.891-0.667-10.569
				c-0.898,0.322-3.225,11.2-3.225,11.2c-1.952,4.891-4.776,10.407-5.382,12.847C82.212,87.242,92.134,86.396,92.134,86.396z"/>
			<path style="fill:#383D84;" d="M130.542,135.728c0,0-42.715-3.468-45.494-7.731c-2.779-4.264,10.374-35.898,10.374-35.898
				s-6.601-4.21-17.667-5.956c0,0-17.161,28.591-19.199,49.447c-1.402,14.35,58.173,30.249,58.173,30.249L130.542,135.728z"/>
			<path style="fill:#4D52A8;" d="M72.524,95.694c3.506,1.922,8.396,2.921,10.991,3.993c2.575,1.063,5.089,2.271,7.537,3.602
				c2.314-6.242,4.37-11.191,4.37-11.191s-6.601-4.21-17.667-5.956C77.755,86.142,75.496,89.91,72.524,95.694z"/>
			<path style="fill:#FFC9A1;" d="M173.935,222.812c-2.067,0-4.065-1.12-5.092-3.078c-1.472-2.81-0.389-6.28,2.421-7.753
				l51.231-26.85c2.808-1.47,6.28-0.388,7.753,2.421c1.472,2.809,0.389,6.28-2.421,7.753l-51.231,26.85
				C175.745,222.6,174.833,222.812,173.935,222.812z"/>
			<path style="fill:#383D84;" d="M162.604,139.551c0,0,5.775,1.956,8.675,4.931c10.564,10.837,7.97,53.075,11.212,54.001
				c3.242,0.926,28.9-10.779,28.9-10.779s6.113,6.147,7.04,13.372c0,0-35.939,27.71-45.202,26.684
				c-9.263-1.026-9.257-14.827-9.257-14.827L162.604,139.551z"/>
			<g>
				<path style="fill:#FFC9A1;" d="M138.338,249.86l44.161,178.13c1.055,4.253-1.538,8.555-5.791,9.609
					c-4.079,1.011-8.211-1.357-9.472-5.303l-55.451-174.945c-2.303-7.266,1.72-15.024,8.987-17.327
					C128.324,237.598,136.456,242.158,138.338,249.86L138.338,249.86z"/>
				<path style="fill:#162A45;" d="M212.901,439.958c-0.736-2.896-3.126-6.975-10.608-7.292
					c-11.706-0.491-21.222-10.811-21.222-10.811c-7.253,1.145-16.055,3.194-16.055,3.194c-3.856,7.273-0.869,17.815-0.869,17.815
					h9.7v-3.52l8.485,3.52h30.896C213.226,442.863,213.323,441.603,212.901,439.958z"/>
			</g>
			<g>
				<path style="fill:#FFC9A1;" d="M170.142,254.685l-9.35,81.653l-0.09,0.789c-0.193,1.689-0.851,3.253-1.796,4.527l-55.208,73.937
					c-5.875,7.361-16.942-0.209-12.156-8.383c0,0,49.483-77.885,49.483-77.885l-1.886,5.316l3.498-82.112
					c0.324-7.617,6.762-13.528,14.379-13.204C164.98,239.628,171.076,246.774,170.142,254.685L170.142,254.685z"/>
				<path style="fill:#162A45;" d="M121.256,445.72c1.219-2.728,1.876-7.409-3.796-12.3c-8.876-7.647-9.462-23.286-9.462-23.286
					c-6.398-3.602-13.494-7.595-13.494-7.595c-7.536,3.312-13.289,15.213-13.289,15.213l7.607,6.017l2.184-2.761l4.471,8.025
					l24.232,19.167C119.709,448.201,120.566,447.273,121.256,445.72z"/>
			</g>
			<g>
				<path style="fill:#C9285A;" d="M107.916,234.833v9.829c0,9.5,1.493,18.94,4.423,27.977l44.348,136.756l23.913-3.859
					l-43.748-175.789L107.916,234.833z"/>
				<path style="fill:#C9285A;" d="M170.689,235.585L170.689,235.585c1.052,15.578,0.695,31.219-1.067,46.733l-7.018,61.786
					l-42.981,56.336l-17.973-11.787l37.652-64.927l-7.177-96.791L170.689,235.585z"/>
				<g>
					<path style="fill:#771237;" d="M145.831,375.821c0.14-0.044,0.217-0.194,0.172-0.333l-11.387-35.735
						c-0.043-0.139-0.194-0.222-0.333-0.172c-0.14,0.044-0.217,0.193-0.172,0.333l9.337,29.299l0.147-0.193l2.207,6.805
						C145.811,375.824,145.821,375.824,145.831,375.821z"/>
					<polygon style="fill:#771237;" points="125.004,393.387 125.326,392.965 106.524,380.25 106.257,380.71 					"/>
					<path style="fill:#771237;" d="M158.016,400.8l20.587-3.289l-0.129-0.516l-20.624,3.295l-37.265-114.899
						c-4.244-13.082-7.986-25.919-8.469-38.195c7.542-4.07,7.482-14.228,7.479-14.416l-0.531,0.094
						c-0.007,0.959-0.264,9.908-6.969,13.726c-0.132-4.296,0.143-8.523,0.942-12.667l-0.561,0.099
						c-0.799,4.235-1.057,8.553-0.9,12.939c-0.009,0.028,0.003,0.056,0.003,0.086c0.459,12.386,4.227,25.32,8.501,38.5
						l37.239,114.819l-3.382,0.54l0.166,0.51l3.382-0.54l2.583,7.964l0.53-0.086L158.016,400.8z"/>
					<path style="fill:#771237;" d="M144.302,231.665c-0.147,0-0.266,0.119-0.266,0.266v23.973c0,0.147,0.119,0.266,0.266,0.266
						c0.147,0,0.265-0.119,0.265-0.266v-3.632c2.018-0.139,3.621-1.807,3.621-3.86v-15.632c0-0.147-0.119-0.265-0.265-0.265
						c-0.147,0-0.265,0.119-0.265,0.265v15.632c0,1.76-1.365,3.191-3.09,3.329v-19.809
						C144.567,231.784,144.449,231.665,144.302,231.665z"/>
					<path style="fill:#771237;" d="M162.382,334.63c0.02,0,0.041-0.003,0.063-0.008c0.142-0.035,0.23-0.178,0.195-0.321
						l-17.645-72.928c-0.035-0.142-0.178-0.226-0.321-0.195c-0.142,0.035-0.23,0.178-0.195,0.321l17.645,72.928
						C162.154,334.549,162.262,334.63,162.382,334.63z"/>
					<path style="fill:#771237;" d="M169.327,246.416c0.049,0.043,0.111,0.064,0.172,0.064c0.075,0,0.15-0.032,0.202-0.094
						c0.095-0.111,0.081-0.278-0.03-0.374c-3.138-2.673-3.448-9.01-3.447-11.428l-0.534-0.12
						C165.666,236.855,165.921,243.515,169.327,246.416z"/>
					<path style="fill:#771237;" d="M121.362,254.806c0.001,0.146,0.12,0.264,0.265,0.264h0.001c0.094-0.001,0.187-0.001,0.28-0.001
						c8.386,0,15.68,1.399,22.287,4.273c0.035,0.015,0.07,0.022,0.106,0.022c0.102,0,0.2-0.06,0.243-0.16
						c0.059-0.135-0.003-0.291-0.137-0.349c-6.751-2.938-14.173-4.36-22.781-4.317C121.48,254.54,121.362,254.659,121.362,254.806z"
						/>
				</g>
			</g>
			<g>
				<path style="fill:#383D84;" d="M168.265,170.656l3.014,71.951c-20.04,2.173-41.469,1.473-63.641-0.763l1.925-78.59l8.94-25.696
					l25.419-3.864l18.682,5.856L168.265,170.656z"/>
			</g>
			<g>
				<path style="fill:#1C2147;" d="M170.648,225.958c-0.129,0-0.234-0.102-0.239-0.231c-0.021-0.621-2.088-62.199-3.368-70.975
					c-0.02-0.131,0.071-0.252,0.202-0.27c0.138-0.021,0.253,0.072,0.27,0.202c1.285,8.801,3.354,70.406,3.374,71.027
					c0.004,0.132-0.1,0.242-0.231,0.247C170.653,225.958,170.651,225.958,170.648,225.958z"/>
				<path style="fill:#1C2147;" d="M168.445,171.787c-0.045,0-0.09-0.013-0.131-0.039c-0.11-0.072-0.142-0.22-0.069-0.331
					c2.701-4.145,3.283-10.366,3.289-10.429c0.012-0.131,0.108-0.229,0.26-0.217c0.132,0.012,0.229,0.128,0.217,0.26
					c-0.006,0.063-0.598,6.401-3.365,10.647C168.599,171.749,168.523,171.787,168.445,171.787z"/>
				<path style="fill:#1C2147;" d="M110.995,162.328c-0.059,0-0.119-0.022-0.165-0.066c-0.096-0.091-0.1-0.243-0.008-0.338
					c3.809-3.983,6.929-8.782,9.022-13.877c0.051-0.122,0.193-0.18,0.313-0.131c0.122,0.051,0.181,0.191,0.131,0.313
					c-2.148,5.224-5.216,9.942-9.12,14.025C111.121,162.304,111.059,162.328,110.995,162.328z"/>
			</g>
			<g>
				<g>
					<path style="fill:#FFC9A1;" d="M134.384,117.808l-1.241,17.763c0,0,10.136,5.049,16.849,1.117l-0.235-13.48L134.384,117.808z"
						/>
					<path style="fill:#222328;" d="M149.91,131.986c-8.91-0.756-12.042-5.619-12.042-5.619l11.959,0.843L149.91,131.986z"/>
				</g>
				<g>
					<path style="fill:#222328;" d="M120.606,99.816c-1.002-6.008,0.476-12.833,5.164-16.516c3.798-2.983,9.364-3.345,13.525-0.878
						c1.063-3.031,3.864-5.327,6.972-5.716c3.108-0.39,6.382,1.145,8.15,3.821c1.255-2.258,4.103-3.422,6.531-2.668
						s4.195,3.351,4.051,5.954c2.034-0.356,4.134,1.207,4.715,3.252c0.581,2.045-0.219,4.344-1.737,5.778
						c-1.518,1.433-3.646,2.059-5.711,2.007c-2.064-0.052-4.077-0.73-5.95-1.636c-0.552,2.367-2.61,4.271-4.955,4.583
						c-2.344,0.313-4.822-0.987-5.965-3.127c-0.23,2.472-1.887,4.738-4.128,5.644c-2.241,0.906-4.963,0.409-6.779-1.236
						c0.381,2.536,0.744,5.097,0.589,7.655c-0.192,3.163-2.047,9.618-6.091,9.548c-1.504-0.026-2.364-1.627-3.032-2.802
						c-1.124-1.976-2.156-4.031-3.052-6.126C121.87,104.937,121.04,102.42,120.606,99.816z"/>
					<path style="fill:#FFC9A1;" d="M152.362,88.207c-16.585-2.057-25.292,5.921-23.888,21.413
						c1.117,12.333,8.278,20.007,19.938,20.044c10.741,0.035,12.484-8.731,12.629-17.927
						C161.247,98.628,162.21,89.429,152.362,88.207z"/>
					<g>
						<path style="fill:#222328;" d="M160.625,105.408c0,0-4.151-0.705-6.713-0.248
							C155.311,103.225,159.014,104.161,160.625,105.408z"/>
						<path style="fill:#222328;" d="M140.523,105.408c0,0,4.151-0.705,6.713-0.248
							C145.838,103.225,142.135,104.161,140.523,105.408z"/>
						<path style="fill:#CE8E63;" d="M151.849,117.022c-0.188,0-0.355-0.134-0.392-0.326c-0.04-0.216,0.103-0.423,0.319-0.464
							c0.469-0.087,0.794-0.254,0.916-0.47c0.079-0.143,0.076-0.321-0.01-0.549c-0.096-0.253-0.333-0.648-0.563-1.031
							c-0.267-0.446-0.52-0.866-0.644-1.2c-0.076-0.206,0.028-0.435,0.234-0.512c0.206-0.075,0.435,0.028,0.512,0.234
							c0.099,0.265,0.344,0.673,0.58,1.067c0.259,0.433,0.504,0.84,0.625,1.16c0.215,0.566,0.097,0.976-0.041,1.22
							c-0.242,0.432-0.749,0.729-1.465,0.863C151.897,117.019,151.872,117.022,151.849,117.022z"/>
						<path style="fill:#FFFFFF;" d="M154.763,118.934c-2.654,0.189-5.433,0.066-8.312-0.301
							C147.933,121.941,153.848,121.361,154.763,118.934z"/>
						<g>
							<path style="fill:#222328;" d="M155.181,108.777c0,0.577,0.713,1.045,1.592,1.045c0.879,0,1.592-0.468,1.592-1.045
								c0-0.577-0.713-1.045-1.592-1.045C155.893,107.731,155.181,108.199,155.181,108.777z"/>
						</g>
						<g>
							<path style="fill:#222328;" d="M142.783,108.777c0,0.577,0.713,1.045,1.592,1.045c0.879,0,1.592-0.468,1.592-1.045
								c0-0.577-0.713-1.045-1.592-1.045C143.496,107.731,142.783,108.199,142.783,108.777z"/>
						</g>
					</g>
					<g>
						<path style="fill:#FFC9A1;" d="M131.231,111.916c0.983,2.43,0.276,4.774-1.483,5.486c-1.759,0.712-3.982-0.68-4.965-3.11
							c-0.983-2.43-0.354-4.977,1.406-5.689C127.947,107.891,130.248,109.487,131.231,111.916z"/>
						<path style="fill:#CE8E63;" d="M129.534,115.065c-0.044,0-0.09-0.008-0.134-0.023c-0.648-0.231-1.322-0.844-1.366-1.689
							c-0.019-0.355,0.095-0.651,0.195-0.912c0.067-0.176,0.131-0.342,0.141-0.499c0.019-0.293-0.099-0.601-0.313-0.824
							c-0.212-0.22-0.586-0.451-0.941-0.399c-0.486,0.079-0.749,0.619-0.749,1.088c0,0.22-0.178,0.397-0.397,0.397
							c-0.22,0-0.398-0.178-0.398-0.397c0-0.816,0.486-1.723,1.417-1.873c0.561-0.089,1.171,0.146,1.641,0.632
							c0.367,0.381,0.567,0.914,0.536,1.427c-0.018,0.279-0.111,0.521-0.193,0.735c-0.082,0.213-0.152,0.397-0.143,0.584
							c0.024,0.478,0.452,0.844,0.839,0.981c0.207,0.074,0.314,0.302,0.241,0.509C129.851,114.963,129.697,115.065,129.534,115.065z
							"/>
					</g>
					<path style="fill:#222328;" d="M136.227,96.417c1.448,1.021,3.419,1.25,5.062,0.59c1.643-0.66,2.907-2.19,3.246-3.929
						c-0.001,2.772,2.334,5.35,5.094,5.621c2.759,0.271,5.551-1.803,6.09-4.522c0.782,2.132,2.638,3.941,4.885,4.273
						c2.246,0.332,4.733-1.096,5.239-3.309c0.424-1.854-0.52-3.769-1.783-5.191c-1.843-2.077-4.372-3.46-7.025-4.279
						c-2.653-0.819-5.44-1.104-8.213-1.251c-4.137-0.219-8.34-0.133-12.34,0.948c-4,1.081-7.81,3.231-10.302,6.541
						c-2.812,3.736-3.558,8.732-1.494,12.979c0.75,1.542,2.187,3.807,4.18,3.716c2.061-0.094,3.591-3.03,4.506-4.579
						C134.757,101.681,135.741,99.097,136.227,96.417z"/>
				</g>
			</g>
			<path style="fill:#4D52A8;" d="M147.569,131.395c-4.498,1.193-8.786,0.749-13.057-1.041c-1.922-0.806-4.191,0.869-4.71,2.674
				c-0.632,2.199,0.777,3.914,2.674,4.71c5.463,2.29,11.422,2.554,17.128,1.041C154.363,137.516,152.345,130.128,147.569,131.395z"
				/>
			<path style="fill:#4D52A8;" d="M211.39,187.704c0,0-3.8,1.733-8.656,3.811c1.078,1.177,2.197,2.271,2.847,3.184
				c2.512,3.526,4.541,7.393,6.045,11.453c4.101-2.994,6.803-5.077,6.803-5.077C217.504,193.851,211.39,187.704,211.39,187.704z"/>
		</g>
		<g>
			<path style="fill:#222328;" d="M386.991,135.652c-0.116-5.484,0.544-11.154-1.319-16.313
				c-2.204-6.103-8.068-10.717-14.518-11.423c-5.381-0.589-11.508,1.278-15.41,5.093c-4.303,1.258-6.135,6.219-6.908,10.242
				c-0.935,4.868-0.383,9.883-0.559,14.836c-0.176,4.954-1.251,10.204-4.741,13.725c6.841,5.835,15.883,9.025,24.871,8.776
				c8.988-0.249,17.839-3.935,24.347-10.139C388.355,147.171,387.107,141.137,386.991,135.652z"/>
			<g>
				<path style="fill:#FFC9A1;" d="M400.401,255.707L341.349,429.24c-2.091,5.716-10.586,3.377-9.349-2.681
					c0,0,41.879-178.456,41.879-178.456c1.743-7.426,9.176-12.033,16.602-10.291C398.381,239.617,403.047,248.055,400.401,255.707
					L400.401,255.707z"/>
				<path style="fill:#162A45;" d="M344.341,421.868c0,0-6.348-0.235-11.671-1.112c0,0-9.899,16.805-18.491,17.181
					c-5.491,0.243-7.245,3.365-7.786,5.581c-0.31,1.259-0.239,2.224-0.239,2.224h17.954c3.489,0,6.798-1.548,9.034-4.226
					l5.887-7.051c0,0-0.281,6.458-1.001,11.277h4.149C342.178,445.742,347.675,432.427,344.341,421.868z"/>
			</g>
			<g>
				<path style="fill:#FFC9A1;" d="M373.843,250.756l3.148,86.381l-3.025-6.276l53.593,57.233c1.839,1.964,1.738,5.047-0.226,6.887
					c-1.814,1.699-4.584,1.741-6.445,0.19l-60.285-50.135c-1.982-1.619-2.846-3.899-3.025-6.276c0,0-11.229-85.706-11.229-85.706
					c-0.991-7.563,4.337-14.497,11.899-15.487C366.259,236.471,373.588,242.682,373.843,250.756L373.843,250.756z"/>
				<path style="fill:#162A45;" d="M419.703,379.693c0,0-2.351,5.901-4.963,10.622c0,0,12.51,14.963,9.981,23.183
					c-1.614,5.255,0.739,7.954,2.646,9.207c1.082,0.714,2.015,0.971,2.015,0.971l6.024-16.913c1.171-3.287,0.823-6.924-0.95-9.929
					l-4.667-7.912c0,0,5.989,2.432,10.287,4.727l1.392-3.909C441.468,389.741,430.77,380.095,419.703,379.693z"/>
			</g>
			<path style="fill:#FFC9A1;" d="M343.071,222.675l-39.344-18.779c-4.523-2.254-1.82-9.05,3.005-7.594
				c0,0,41.54,13.227,41.54,13.227c3.728,1.187,5.789,5.173,4.601,8.901C351.615,222.5,346.897,224.533,343.071,222.675
				L343.071,222.675z"/>
			<path style="fill:#FFC9A1;" d="M345.68,221.958c-0.432,0-0.87-0.04-1.31-0.123c-3.838-0.719-6.365-4.412-5.646-8.249
				l8.968-47.847c0.719-3.837,4.416-6.367,8.249-5.646c3.838,0.719,6.365,4.412,5.646,8.249l-8.968,47.847
				C351.983,219.587,349.015,221.958,345.68,221.958z"/>
			<g>
				<path style="fill:#FFC9A1;" d="M425.25,206.258c0,0,0.641,10.693,1.333,22.241c0.813,13.557,1.696,28.293,1.696,28.293
					c0.186,5.104-7.094,5.97-8.11,0.968c0,0-8.957-49.826-8.957-49.826C409.93,198.083,424.164,196.361,425.25,206.258
					L425.25,206.258z"/>
				<path style="fill:#FFC9A1;" d="M418.295,213.869c-2.377,0-4.697-1.198-6.032-3.373l-24.839-40.483
					c-2.041-3.327-0.999-7.68,2.329-9.722c3.326-2.042,7.678-0.999,9.722,2.329l24.839,40.483c2.041,3.327,0.999,7.68-2.329,9.722
					C420.832,213.532,419.555,213.869,418.295,213.869z"/>
				<g>
					<path style="fill:#FFC9A1;" d="M420.303,255.683c0,0-3.097,11.191-2.972,13.513c0.125,2.322,2.035,14.103,2.853,14.211
						c0.818,0.108,0.196-9.204,0.196-9.204s1.537,9.569,2.553,9.654c1.016,0.085-0.071-9.563-0.071-9.563s1.114,8.214,2.188,8.223
						c1.074,0.009,0.24-7.99,0.24-7.99s1.125,6.581,2.005,6.569c0.879-0.013-0.065-9.328-0.065-9.328s4.747-7.791,1.717-14.572
						C425.916,250.415,420.303,255.683,420.303,255.683z"/>
				</g>
			</g>
			<g>
				<g>
					<g>
						<g>
							<g>
								<polygon style="fill:#FFB552;" points="368.735,153.901 384.844,155.966 393.449,173.509 390.06,220.24 354.032,220.24 
									350.026,177.105 354.64,157.495 								"/>
							</g>
						</g>
					</g>
				</g>
			</g>
			<g>
				<g>
					<path style="fill:#FFC9A1;" d="M374.021,139.433l1.026,15.778c0,0-6.881,4.436-12.434,0.944l0.194-11.974L374.021,139.433z"/>
					<path style="fill:#222328;" d="M362.724,149.374c7.206,0.559,11.146-4.091,11.146-4.091H362.79L362.724,149.374z"/>
				</g>
				<g>
					<path style="fill:#FFC9A1;" d="M362.728,113.027c12.411-1.849,18.926,5.322,17.876,19.247
						c-0.836,11.085-7.749,17.231-16.366,15.844c-6.821-1.098-11.132-6.51-11.838-14.746
						C351.394,121.619,355.359,114.125,362.728,113.027z"/>
					<path style="fill:#222328;" d="M383.934,126.641c-0.225-1.112-0.541-2.196-0.93-3.246c-1.577-4.258-4.438-7.903-8.037-9.98
						c-4.44-2.563-9.812-2.791-14.392-0.577c-0.229,0.11-0.294,0.381-0.247,0.601c-0.152,0.087-0.261,0.265-0.204,0.508
						c1.091,4.718,3.437,9.034,6.67,12.189c3.377,3.297,7.648,5.255,12.057,5.601c1.113,0.087,2.256,0.099,3.364-0.069
						c0.838-0.126,1.734-0.507,1.998-1.533C384.486,129.074,384.147,127.69,383.934,126.641z"/>
					<g>
						<path style="fill:#FFC9A1;" d="M378.851,133.083c-0.785,1.942-0.221,3.814,1.185,4.384c1.406,0.569,3.182-0.543,3.967-2.485
							c0.785-1.942,0.283-3.977-1.123-4.546C381.474,129.867,379.636,131.142,378.851,133.083z"/>
						<path style="fill:#CE8E63;" d="M380.206,135.679c-0.163,0-0.316-0.102-0.375-0.265c-0.073-0.207,0.034-0.435,0.241-0.509
							c0.284-0.102,0.599-0.367,0.617-0.712c0.007-0.133-0.047-0.273-0.109-0.436c-0.067-0.176-0.144-0.376-0.159-0.61
							c-0.026-0.432,0.142-0.881,0.451-1.2c0.391-0.407,0.906-0.604,1.38-0.529c0.788,0.128,1.2,0.89,1.2,1.576
							c0,0.22-0.178,0.398-0.397,0.398c-0.22,0-0.398-0.178-0.398-0.398c0-0.342-0.186-0.734-0.532-0.791
							c-0.213-0.04-0.475,0.082-0.68,0.296c-0.157,0.163-0.243,0.386-0.229,0.599c0.007,0.112,0.054,0.234,0.107,0.375
							c0.083,0.216,0.177,0.46,0.161,0.762c-0.032,0.617-0.492,1.188-1.145,1.421C380.296,135.671,380.25,135.679,380.206,135.679z"
							/>
					</g>
					<g>
						<path style="fill:#222328;" d="M353.438,126.146c0,0,3.79-0.644,6.128-0.227C358.289,124.153,354.909,125.008,353.438,126.146
							z"/>
						<path style="fill:#222328;" d="M371.79,126.146c0,0-3.79-0.644-6.128-0.227C366.938,124.153,370.318,125.008,371.79,126.146z"
							/>
						<path style="fill:#CE8E63;" d="M361.45,136.783c-0.023,0-0.048-0.003-0.073-0.007c-0.663-0.124-1.134-0.403-1.36-0.806
							c-0.129-0.23-0.24-0.613-0.04-1.143c0.112-0.295,0.336-0.669,0.573-1.064c0.216-0.359,0.439-0.73,0.527-0.969
							c0.076-0.206,0.309-0.309,0.512-0.234c0.206,0.077,0.311,0.307,0.234,0.512c-0.115,0.308-0.346,0.693-0.591,1.102
							c-0.209,0.348-0.425,0.708-0.512,0.937c-0.11,0.292-0.035,0.426-0.011,0.47c0.105,0.185,0.4,0.337,0.814,0.413
							c0.216,0.041,0.358,0.249,0.318,0.465C361.806,136.65,361.639,136.783,361.45,136.783z"/>
						<path style="fill:#FFFFFF;" d="M358.789,138.494c2.423,0.173,4.96,0.06,7.588-0.275
							C365.026,141.24,359.625,140.71,358.789,138.494z"/>
						<g>
							<path style="fill:#222328;" d="M358.252,130.124c0,0.577-0.713,1.045-1.592,1.045s-1.592-0.468-1.592-1.045
								c0-0.577,0.713-1.045,1.592-1.045S358.252,129.547,358.252,130.124z"/>
						</g>
						<g>
							<path style="fill:#222328;" d="M369.182,129.762c0,0.577-0.713,1.045-1.592,1.045s-1.592-0.468-1.592-1.045
								s0.713-1.045,1.592-1.045S369.182,129.185,369.182,129.762z"/>
						</g>
					</g>
				</g>
			</g>
			<path style="fill:#FFB552;" d="M354.64,157.495c0,0-7.391,1.56-8.969,11.44c-1.578,9.88-4.913,34.637-8.618,33.991
				c-3.705-0.645-20.131-7.191-20.131-7.191s-8.645,6.618-6.793,23.316c0,0,23.668,6.755,36.658,5.984
				c12.99-0.771,12.743-38.477,12.743-38.477L354.64,157.495z"/>
			<path style="fill:#FFB552;" d="M384.844,155.966c0,0,11.183,0.433,15.444,5.991s23.435,36.217,25.38,39.829
				c1.945,3.612,7.595,39.274,7.595,39.274s-9.621,6.542-22.971,1.999c0,0,0.912-26.832-1.238-35.962
				c-1.941-8.239-19.189-29.077-18.993-29.514L384.844,155.966z"/>
			<path style="fill:#FFB552;" d="M351.192,174.419c-2.179,3.573-4.657,7.449-4.383,12.651c0.359,6.813,6.663,10.143,6.663,10.143
				l12.905-12.175L351.192,174.419z"/>
			<path style="fill:#4D52A8;" d="M354.032,220.24c0,0-8.765,17.637-9.506,33.493s6.357,62.177,4.753,72.177
				c-1.604,10-13.645,42.234-13.645,42.234s18.012,16.488,41.703,13.153c23.691-3.335,41.193-27.356,41.193-27.356
				s-15.896-35.816-17.378-45.202c-2.059-13.039,2.56-32.005,1.729-48.042c-1.297-25.014-12.821-40.457-12.821-40.457H354.032z"/>
			<path style="fill:#F78721;" d="M373.279,151.459c-2.509,1.708-5.556,2.159-8.342,0.785c-3.303-1.629-6.216,3.322-2.898,4.959
				c4.555,2.247,9.884,2.111,14.139-0.785C379.216,154.35,376.346,149.372,373.279,151.459z"/>
			<path style="fill:#F78721;" d="M331.363,218.182c0.45-3.522-4.286-6.121-3.849-9.645c0.251-2.024,2.06-3.308,3.366-4.68
				c0.575-0.605,1.095-1.436,1.46-2.33c-6.183-2.114-15.415-5.793-15.415-5.793s-8.645,6.618-6.793,23.316
				c0,0,8.376,2.39,17.896,4.165c0.029-0.039,0.051-0.081,0.08-0.12C329.312,221.506,331.11,220.161,331.363,218.182z"/>
			<path style="fill:#F78721;" d="M429.915,221.206c-1.023,0.092-2.022,0.364-2.942,0.85c-1.623,0.858-2.875,2.263-4.297,3.424
				c-1.422,1.161-3.206,2.125-5.018,1.828c-1.876-0.308-3.254-1.853-4.782-2.985c-0.851-0.631-1.493-1.14-2.478-1.511
				c0.281,9.996-0.107,20.246-0.107,20.246c13.351,4.544,22.971-1.998,22.971-1.998S431.688,231.121,429.915,221.206z"/>
			<path style="fill:#F78721;" d="M390.435,215.067c-2.78,0.723-5.807,0.471-8.415-0.735c-1.999-0.924-3.894-2.411-6.094-2.34
				c-2.373,0.076-4.271,1.939-6.497,2.765c-2.576,0.956-5.455,0.473-8.094-0.292c-2.639-0.765-5.241-1.807-7.984-1.952
				c-0.012-0.001-0.024,0.001-0.036,0l0.718,7.726h36.028L390.435,215.067z"/>
			<g>
				<path style="fill:#CE640D;" d="M376.337,198.005c-0.135,0-0.272-0.001-0.409-0.004c-0.132-0.003-0.237-0.112-0.234-0.244
					c0.003-0.132,0.093-0.251,0.244-0.234c7.668,0.18,11.818-4.327,12.315-7.557c0.019-0.131,0.142-0.222,0.272-0.2
					c0.131,0.02,0.221,0.143,0.2,0.273C388.246,193.154,384.46,198.005,376.337,198.005z"/>
				<path style="fill:#CE640D;" d="M391.199,181.973c-0.101,0-0.193-0.064-0.228-0.164c-2.302-6.94-2.772-14.398-1.357-21.569
					c0.025-0.129,0.145-0.217,0.28-0.189c0.13,0.025,0.215,0.151,0.189,0.28c-1.397,7.091-0.933,14.466,1.344,21.327
					c0.041,0.125-0.026,0.261-0.152,0.303C391.25,181.969,391.225,181.973,391.199,181.973z"/>
				<path style="fill:#CE640D;" d="M350.152,176.406c-0.12,0-0.224-0.09-0.237-0.212c-0.542-4.733-0.48-8.837,0.192-12.914
					c0.022-0.13,0.135-0.214,0.275-0.197c0.13,0.021,0.219,0.145,0.197,0.275c-0.666,4.032-0.727,8.094-0.19,12.781
					c0.016,0.132-0.079,0.25-0.21,0.265C350.169,176.406,350.16,176.406,350.152,176.406z"/>
				<path style="fill:#CE640D;" d="M353.473,197.452c-0.038,0-0.076-0.009-0.111-0.027c-0.064-0.034-6.43-3.473-6.791-10.342
					c-0.27-5.115,2.112-9.016,4.215-12.457l0.202-0.332c0.068-0.113,0.217-0.146,0.329-0.079c0.112,0.068,0.148,0.216,0.079,0.329
					l-0.202,0.331c-2.167,3.548-4.407,7.216-4.145,12.183c0.347,6.594,6.474,9.911,6.536,9.943c0.116,0.063,0.161,0.207,0.1,0.323
					C353.642,197.406,353.559,197.452,353.473,197.452z"/>
				<path style="fill:#CE640D;" d="M353.884,218.892c-0.122,0-0.227-0.093-0.238-0.217l-2.098-22.586
					c-0.012-0.132,0.085-0.248,0.216-0.261c0.148-0.01,0.249,0.085,0.261,0.216l2.098,22.586c0.012,0.132-0.085,0.248-0.216,0.261
					C353.899,218.892,353.891,218.892,353.884,218.892z"/>
			</g>
			<path style="fill:#999FBC;" d="M395.561,308.784c-0.077-8.293,0.643-16.704,1.339-24.838c0.563-6.575,1.145-13.373,1.305-20.08
				c0.391-16.404-2.1-29.52-7.582-39.953c0.552-0.063,1.103-0.129,1.654-0.194c-1.321-2.275-2.218-3.479-2.218-3.479h-36.028
				c0,0-0.683,1.375-1.683,3.699c0.832,0.14,1.654,0.24,2.366,0.341c-4.786,10.68-5.784,24.436-5.939,31.942
				c-0.383,18.575,1.396,36.601,5.947,60.262l-1.066,3.233c-0.041,0.125,0.027,0.261,0.152,0.302
				c0.024,0.009,0.05,0.012,0.075,0.012c0.101,0,0.194-0.064,0.227-0.164l16.269-49.339c0.041-0.125-0.027-0.261-0.152-0.302
				c-0.122-0.043-0.262,0.026-0.302,0.152l-2.727,8.27c-1.137-4.733-0.787-9.665-0.433-14.444l2.896-39.111
				c1.621,0.001,3.241-0.016,4.861-0.057c1.857,25.045-1.823,52.659-10.98,82.193c-6.707,21.632-15.725,42.662-25.11,63.154
				c0.131,0.097,0.255,0.19,0.395,0.291c9.407-20.535,18.449-41.613,25.174-63.303c9.171-29.584,12.858-57.252,11-82.352
				c1.494-0.042,2.988-0.105,4.481-0.184c6.568,52.173-2.032,106.621-24.341,154.251c0.152,0.051,0.304,0.102,0.457,0.152
				c22.323-47.689,30.931-102.197,24.363-154.429c1.543-0.085,3.085-0.188,4.626-0.311c4.162,52.744,0.395,105.557-11.211,157.172
				c0.165-0.009,0.332-0.023,0.498-0.034c11.593-51.619,15.353-104.429,11.191-157.175c0.721-0.06,1.44-0.129,2.16-0.197
				c4.134,24.162,5.364,48.783,3.641,73.238c-0.399,5.659-0.965,11.403-1.511,16.958c-0.867,8.815-1.765,17.93-2.02,26.936
				c-0.387,13.663,0.858,25.384,3.78,35.575c0.146-0.07,0.293-0.138,0.438-0.209c-2.892-10.125-4.124-21.773-3.739-35.353
				c0.254-8.989,1.151-18.095,2.017-26.901c0.548-5.559,1.113-11.306,1.512-16.971c1.726-24.481,0.496-49.129-3.639-73.317
				c0.804-0.079,1.607-0.159,2.41-0.247c5.503,10.386,8.004,23.476,7.614,39.881c-0.159,6.693-0.74,13.483-1.303,20.051
				c-0.697,8.145-1.419,16.569-1.341,24.883c0.181,19.471,4.73,38.767,13.202,56.266c0.124-0.114,0.242-0.226,0.365-0.339
				C400.25,347.313,395.741,328.134,395.561,308.784z M362.815,224.969c0.468,0.018,0.935,0.024,1.403,0.039
				c-5.122,21.469-5.497,44.133-1.044,65.746c0.003,0.015,0.016,0.022,0.022,0.036l-4.511,13.681
				c-5.764-26.497-5.684-54.631,0.183-79.718C360.182,224.853,361.499,224.919,362.815,224.969z M349.255,256.232
				c0.154-7.5,1.156-21.264,5.957-31.884c1.054,0.154,2.114,0.268,3.175,0.358c-5.928,25.393-5.954,53.894-0.002,80.673
				l-3.352,10.167C350.611,292.341,348.877,274.547,349.255,256.232z M366.289,264.17c-0.371,5.011-0.755,10.192,0.577,15.175
				c0.011,0.043,0.04,0.075,0.07,0.104l-3.44,10.432c-4.28-21.344-3.855-43.686,1.212-64.861c1.492,0.041,2.983,0.065,4.475,0.07
				L366.289,264.17z"/>
		</g>
		<g>
			<path style="fill:#FFC9A1;" d="M311.504,306.562c3.101,3.744-14.035,10.223-17.262,11.213c-3.08,0.945-3.806-5.386-4.705-8.365
				c5.046-1.408,8.537-4.676,8.537-4.676S308.403,302.818,311.504,306.562z"/>
			<path style="fill:#FFC9A1;" d="M227.988,317.551c-1.888,4.48,16.388,5.737,19.764,5.753c3.222,0.016,2.089-6.255,2.09-9.368
				c-4.982-2.603-10.357-2.379-10.357-2.379S229.876,313.071,227.988,317.551z"/>
			<g>
				<path style="fill:#FFC9A1;" d="M273.977,266.087c0,0,9.092,15.533,13.553,23.462c4.46,7.929,10.743,15.426,10.743,15.426
					c-4.849,3.388-3.773,2.939-8.736,4.435c0,0-16.964-18.115-23.549-25.741l-16.146,30.268c0,0-5.277-0.18-10.357-2.379
					c0,0,7.801-28.57,10.495-41.597L273.977,266.087z"/>
			</g>
			<g>
				<path style="fill:#7B85E8;" d="M243.973,263.414l-9.435,34.487c0,0,14.076,8.572,32.886,7.328
					c18.809-1.244,30.015-10.322,30.015-10.322l-18.06-31.493H243.973z"/>
				<g>
					<path style="fill:#BEC6E5;" d="M253.457,265.63c-0.139-0.035-0.247,0.092-0.254,0.223c-0.818,12.561-2.38,25.133-4.639,37.555
						c0.152,0.039,0.305,0.077,0.459,0.115c2.266-12.45,3.838-25.05,4.657-37.638C253.689,265.752,253.589,265.638,253.457,265.63z"
						/>
					<path style="fill:#BEC6E5;" d="M270.812,263.414c5.6,12.277,10.769,24.879,15.433,37.591c0.151-0.06,0.297-0.121,0.445-0.181
						c-4.641-12.649-9.785-25.189-15.352-37.41H270.812z"/>
					<path style="fill:#BEC6E5;" d="M240.937,300.934l7.601-33.999c0.029-0.129-0.052-0.257-0.181-0.286
						c-0.135-0.031-0.258,0.052-0.286,0.181l-7.583,33.921C240.637,300.813,240.783,300.873,240.937,300.934z"/>
					<path style="fill:#BEC6E5;" d="M257.353,268.732c0.005-0.132-0.098-0.243-0.231-0.248c-0.121,0.008-0.243,0.098-0.248,0.231
						c-0.442,11.93-1.195,23.972-2.227,35.937c0.159,0.024,0.32,0.047,0.481,0.07C256.162,292.74,256.911,280.68,257.353,268.732z"
						/>
					<path style="fill:#BEC6E5;" d="M269.571,305.046l-5.726-40.754c-0.019-0.131-0.142-0.216-0.271-0.204
						c-0.131,0.019-0.222,0.14-0.204,0.271l5.723,40.736C269.254,305.08,269.411,305.062,269.571,305.046z"/>
					<path style="fill:#BEC6E5;" d="M261.855,305.319c0.709-7.75,0.266-15.622-0.166-23.298c-0.304-5.379-0.618-10.943-0.531-16.387
						c0.002-0.132-0.104-0.241-0.236-0.243c-0.001,0-0.003,0-0.004,0c-0.131,0-0.238,0.105-0.239,0.236
						c-0.087,5.461,0.227,11.033,0.532,16.422c0.433,7.665,0.871,15.526,0.161,23.252
						C261.533,305.307,261.693,305.314,261.855,305.319z"/>
					<path style="fill:#BEC6E5;" d="M274.707,263.414h-0.512c0.004,0.022-0.005,0.045,0.006,0.066l18.235,34.62
						c0.141-0.077,0.284-0.155,0.419-0.23L274.707,263.414z"/>
					<path style="fill:#BEC6E5;" d="M268.663,264.493c-0.034-0.128-0.166-0.202-0.293-0.169c-0.128,0.034-0.204,0.165-0.169,0.293
						c3.461,12.893,6.438,26.03,8.899,39.214c0.158-0.036,0.312-0.074,0.468-0.11C275.106,290.532,272.126,277.39,268.663,264.493z"
						/>
				</g>
			</g>
			<path style="fill:#222328;" d="M279.409,208.211c-3.324-4.897-4.896-10.755-8.481-15.491
				c-9.188-12.138-28.963-6.814-35.931,5.099c-0.751,1.284-1.359,2.65-1.797,4.072c-2.86,9.285,1.852,18.37,2.46,27.593
				c0.378,5.739-0.946,12.004-5.277,15.787c5.764,6.014,14.428,8.85,22.739,8.283c8.311-0.567,16.223-4.322,22.558-9.731
				c6.335-5.41,11.174-12.406,14.883-19.865c0.737-1.481,1.44-3.014,1.653-4.654c0.158-1.22,0.167-3.167-1.064-3.851
				c-0.992-0.552-2.659-0.279-3.778-0.66C284.056,213.661,281.345,211.062,279.409,208.211z"/>
			<path style="fill:#FFC9A1;" d="M295.156,191.006c-0.116-1.792-7.008-5.006-6.065-6.096c0.943-1.09,5.225,1.386,5.225,1.386
				s-3.168-10.332-2.077-11.004c1.091-0.672,4.442,7.49,4.442,7.49s-0.26-9.88,1.071-10.609c1.332-0.729,2.099,10.463,2.099,10.463
				s2.784-7.709,4.247-7.849c1.463-0.14-1.417,8.51-1.417,8.51s4.344-4.859,5.102-4.529c0.759,0.33-1.394,3.759-2.912,6
				c-1.518,2.241-1.7,5.16-4.033,7.674L295.156,191.006z"/>
			<path style="fill:#FFC9A1;" d="M235.694,183.084c-0.048-1.795,6.523-5.623,5.485-6.623c-1.038-1-5.077,1.856-5.077,1.856
				s2.214-10.578,1.066-11.147c-1.148-0.57-3.741,7.864-3.741,7.864s-0.641-9.862-2.033-10.467
				c-1.393-0.605-1.137,10.611-1.137,10.611s-3.475-7.424-4.945-7.429c-1.47-0.006,2.186,8.346,2.186,8.346
				s-4.768-4.443-5.494-4.045c-0.726,0.398,1.731,3.617,3.446,5.71c1.716,2.093,2.163,4.984,4.715,7.275L235.694,183.084z"/>
			<g>
				<g>
					<path style="fill:#FFC9A1;" d="M256.544,216.651l-0.553,11.263c0,0,6.728,1.895,10.992-0.823l-0.313-5.699L256.544,216.651z"/>
					<path style="fill:#222328;" d="M266.984,227.092c-5.806-0.274-7.959-3.357-7.959-3.357l7.789,0.256L266.984,227.092z"/>
				</g>
				<path style="fill:#FFC9A1;" d="M255.208,192.39c-9.306,2.016-12.216,9.689-10.957,17.603
					c1.829,11.496,11.488,18.489,21.125,15.601c4.495-1.347,8.409-3.614,10.359-8.112c2.083-4.806,0.942-9.569-1.284-13.97
					C269.133,192.999,262.818,190.742,255.208,192.39z"/>
				<path style="fill:#222328;" d="M271,196.776c0,0-3.362,0.365-5.179,1.4C266.327,196.083,269.414,196.036,271,196.776z"/>
				<path style="fill:#222328;" d="M252.304,202.899c0,0,3.548-1.867,6.001-2.211C256.467,199.352,253.393,201.294,252.304,202.899z
					"/>
				<path style="fill:#CE8E63;" d="M267.175,205.621c0.022-0.007,0.043-0.017,0.064-0.028c0.175-0.1,0.236-0.322,0.137-0.497
					c-0.15-0.264-0.321-0.564-0.6-0.792c-0.358-0.291-0.823-0.373-1.188-0.204c-0.298,0.137-0.472,0.4-0.599,0.591
					c-0.111,0.167-0.065,0.394,0.102,0.505c0.168,0.111,0.394,0.066,0.505-0.103c0.083-0.125,0.186-0.281,0.295-0.331
					c0.11-0.051,0.285-0.007,0.424,0.107c0.174,0.141,0.302,0.368,0.427,0.587C266.83,205.61,267.013,205.676,267.175,205.621z"/>
				<path style="fill:#66291F;" d="M266.838,207.444c-2.381,0.849-4.137,0.585-4.186,1.881c-0.039,1.043,2.79,3.258,5.436,1.96
					c2.647-1.299,2.404-4.038,1.889-4.589C269.327,205.999,267.928,207.055,266.838,207.444z"/>
				<path style="fill:#FFFFFF;" d="M270.132,206.954c-2.133,1.694-4.771,2.542-7.476,2.34c0.077-1.259,1.821-1.009,4.182-1.851
					c1.09-0.389,2.489-1.445,3.14-0.749C270.034,206.756,270.086,206.846,270.132,206.954z"/>
				<path style="fill:#C15146;" d="M266.267,209.212c1.155-0.144,2.512-0.012,3.431,0.701c-0.346,0.518-0.858,1.004-1.609,1.372
					c-1.848,0.907-3.781,0.1-4.768-0.824C264.138,209.769,265.171,209.35,266.267,209.212z"/>
				<g>
					<path style="fill:#FFC9A1;" d="M246.68,214.246c2.106,1.339,2.856,3.546,1.887,5.071c-0.969,1.525-3.462,1.677-5.568,0.339
						c-2.106-1.339-3.029-3.66-2.06-5.186C241.908,212.944,244.573,212.907,246.68,214.246z"/>
					<path style="fill:#CE8E63;" d="M247.004,217.66c0.183-0.062,0.287-0.258,0.234-0.445c-0.055-0.193-0.257-0.306-0.45-0.25
						c-0.38,0.108-0.921,0.06-1.208-0.301c-0.113-0.142-0.161-0.325-0.216-0.538c-0.054-0.21-0.116-0.448-0.256-0.672
						c-0.257-0.412-0.703-0.711-1.195-0.802c-0.628-0.118-1.229,0.037-1.608,0.414c-0.632,0.626-0.508,1.59-0.06,2.217
						c0.117,0.164,0.345,0.2,0.508,0.085c0.164-0.118,0.202-0.345,0.085-0.509c-0.263-0.368-0.359-0.94-0.019-1.276
						c0.247-0.244,0.672-0.269,0.961-0.215c0.294,0.054,0.559,0.231,0.709,0.471c0.081,0.129,0.123,0.294,0.169,0.469
						c0.066,0.256,0.142,0.546,0.351,0.809c0.498,0.626,1.353,0.725,1.978,0.547C246.993,217.664,246.999,217.662,247.004,217.66z"
						/>
				</g>
				<path style="fill:#222328;" d="M267.125,190.96c-4.276-3.258-10.28-4.092-15.283-2.125c-2.894,1.138-5.394,3.115-7.548,5.358
					c-2.316,2.413-4.319,5.243-5.146,8.484c-0.493,1.93-0.521,4.005,0.01,5.931c0.471,1.708,1.565,4.022,3.366,4.649
					c1.828,0.637,2.881-1.48,3.609-2.777c1.11-1.978,2.057-4.048,2.829-6.181c0.442-1.219,0.826-2.458,1.152-3.713
					c0.163-0.627,0.311-1.258,0.444-1.893c0.062-0.296,0.487-1.536,0.332-1.775c0.556,0.853,1.112,1.706,1.668,2.559
					c1.073-0.185,2.138-0.414,3.195-0.672c-0.269-1.668-0.404-3.357-0.394-5.046c0.765,1.513,1.531,3.026,2.296,4.54
					c0.409-0.118,0.815-0.245,1.221-0.374c-0.342-0.92-0.519-1.901-0.516-2.882c0.547,0.838,1.094,1.676,1.641,2.514
					c2.308-0.799,4.556-1.773,6.713-2.918c0.74-0.393,1.559-0.938,1.622-1.774C268.394,192.082,267.75,191.436,267.125,190.96z"/>
				<g>
					<path style="fill:#222328;" d="M268.225,201.181c0.219,0.534,1.055,0.698,1.869,0.365c0.814-0.333,1.296-1.036,1.077-1.57
						c-0.219-0.534-1.055-0.698-1.869-0.365C268.488,199.944,268.006,200.647,268.225,201.181z"/>
				</g>
				<g>
					<path style="fill:#222328;" d="M256.831,205.581c0.219,0.534,1.056,0.697,1.869,0.365c0.814-0.333,1.296-1.036,1.077-1.57
						c-0.219-0.534-1.055-0.698-1.869-0.365C257.095,204.344,256.613,205.047,256.831,205.581z"/>
				</g>
			</g>
			<path style="fill:#840D38;" d="M304.056,191.829l-10.135-1.413c0,0-2.42,11.805-8.479,22.639
				c-2.853,5.101-8.221,8.158-13.509,11.561c-5.261,3.386-11.726,4.398-17.739,2.671c-4.383-1.259-9.002-3.543-11.524-7.687
				c-7.525-12.363-6.976-36.517-6.976-36.517l-6.536,0.889c0,0-6.318,19.535-3.724,34.514c2.644,15.263,14.203,25.984,14.376,26.742
				c0.112,0.492,0.248,3.068,0.379,6.309c0.243,5.988-0.575,11.978-2.413,17.681c0,0,8.376,7.781,26.657,5.681
				c18.281-2.1,21.677-7.04,21.677-7.04l-2.007-4.555c-1.152-2.614-1.816-5.416-1.959-8.268c-0.139-4.23-0.97-13.666-0.97-13.666
				C297.981,232.017,303.353,213.881,304.056,191.829z"/>
			<g>
				<path style="fill:#C9285A;" d="M234.602,188.901c-0.455,0.403-0.739,0.963-1.135,1.424c-0.154-0.595-0.382-1.406-1.066-1.59
					c-0.564-0.151-1.021,0.216-1.196,0.738c-0.328,0.978,0.462,2.464,1.295,2.996c0.964,0.616,2.495-0.217,3.407-1.3
					c-0.057-0.961-0.1-1.857-0.132-2.683C235.369,188.444,234.919,188.621,234.602,188.901z"/>
				<path style="fill:#C9285A;" d="M232.7,208.865c-0.744-0.062-1.521,0.552-1.505,1.299c0.011,0.521,0.363,0.971,0.74,1.331
					c0.785,0.749,2.661,2.157,3.781,1.365c1.097-0.775,1.105-2.975,0.861-4.108c-0.079-0.366-0.214-0.751-0.524-0.961
					c-0.529-0.358-1.301,0.014-1.59,0.583c-0.29,0.57-0.236,1.245-0.175,1.882C234.07,209.542,233.445,208.927,232.7,208.865z"/>
				<path style="fill:#C9285A;" d="M251.645,247.744c-0.325,0.618-0.418,1.328-0.506,2.021c-0.174-0.753-0.367-1.543-0.892-2.11
					c-0.766-0.826-2.253-0.763-2.456,0.501c-0.268,1.665,2.448,4.417,4.075,4.503c2.089,0.11,3.782-3.224,2.991-4.971
					c-0.279-0.615-0.9-1.098-1.576-1.089C252.581,246.609,251.97,247.126,251.645,247.744z"/>
				<path style="fill:#C9285A;" d="M228.96,229.393c0.978,0.051,2.037-0.157,2.692-0.406c0.62-0.236,1.248-0.633,1.441-1.268
					c0.197-0.646-0.12-1.343-0.545-1.868c-0.525-0.648-1.246-1.158-2.062-1.328c-0.816-0.17-1.725,0.032-2.324,0.612
					c0.21-0.556,0.422-1.122,0.469-1.714c0.047-0.593-0.094-1.227-0.507-1.654c-0.414-0.427-1.135-0.576-1.622-0.235
					c-0.136,0.095-0.235,0.216-0.315,0.35C226.904,224.566,227.868,227.081,228.96,229.393z"/>
				<path style="fill:#C9285A;" d="M227.532,199.999c1.342,0.696,3.077-0.583,3.523-1.853c0.223-0.635,0.216-1.371-0.121-1.954
					c-0.337-0.583-1.033-0.969-1.695-0.846c-0.662,0.123-1.193,0.817-1.051,1.475c-0.425-0.466-0.537-1.128-0.782-1.709
					c-0.162-0.384-0.449-0.762-0.803-0.948c-0.264,1.319-0.52,2.724-0.752,4.192C226.279,199.049,226.85,199.645,227.532,199.999z"
					/>
				<path style="fill:#C9285A;" d="M256.61,270.348c-0.063-1.042-0.833-2.058-1.865-2.216c-0.956-0.147-1.906,0.443-2.466,1.233
					c-0.56,0.789-0.808,1.751-1.046,2.69c-0.177-0.682-0.365-1.385-0.798-1.941c-0.434-0.555-1.184-0.927-1.853-0.706
					c-0.79,0.262-1.133,1.189-1.229,2.016c-0.096,0.829-0.025,1.668,0.165,2.48c1.804,0.486,3.862,0.889,6.191,1.126
					c0.405-0.374,0.806-0.753,1.183-1.156C255.811,272.891,256.691,271.691,256.61,270.348z"/>
				<path style="fill:#C9285A;" d="M242.039,230.819c-0.712-0.288-1.659-0.065-2.002,0.623c-0.22,0.441-0.159,0.98,0.05,1.426
					c0.208,0.446,0.549,0.815,0.894,1.166c0.581,0.591,2.735,3.093,3.603,2.793c0.54-0.187,1.086-1.456,1.339-1.934
					c0.347-0.653,0.633-1.338,0.852-2.044c0.17-0.548,0.302-1.124,0.235-1.694c-0.067-0.571-0.361-1.14-0.867-1.412
					c-0.686-0.369-1.598-0.076-2.088,0.53c-0.49,0.606-0.612,1.442-0.514,2.214C243.244,231.779,242.752,231.106,242.039,230.819z"
					/>
				<path style="fill:#C9285A;" d="M292.097,229.934c-0.06-0.724-0.338-1.586-1.049-1.737c-0.646-0.138-1.262,0.461-1.394,1.109
					c-0.131,0.648,0.084,1.31,0.296,1.936c-0.231-0.367-0.467-0.741-0.802-1.017c-0.334-0.276-0.789-0.443-1.207-0.328
					c-0.493,0.135-0.82,0.637-0.885,1.143c-0.065,0.507,0.086,1.017,0.28,1.49c0.44,1.075,1.121,2.044,1.96,2.846
					c0.926-0.895,1.799-1.831,2.622-2.805C292.101,231.705,292.169,230.816,292.097,229.934z"/>
				<path style="fill:#C9285A;" d="M244.301,262.723c1.074-0.34,2.125-1.212,2.113-2.339c-0.01-0.919-0.781-1.724-1.676-1.934
					c-0.895-0.211-1.856,0.095-2.59,0.648c0.407-0.701,0.826-1.443,0.838-2.253c0.011-0.811-0.547-1.691-1.357-1.73
					c-0.592-0.029-1.069,0.331-1.453,0.815c-0.093,2.026-0.315,4.042-0.649,6.041C240.856,262.913,243.062,263.115,244.301,262.723z
					"/>
				<path style="fill:#C9285A;" d="M265.623,257.561c-0.159-0.594-0.582-1.144-1.171-1.321c-0.782-0.235-1.637,0.25-2.089,0.931
					c-0.452,0.681-0.592,1.515-0.723,2.321c-0.088-0.597-0.182-1.21-0.482-1.734c-0.3-0.523-0.858-0.945-1.46-0.902
					c-0.611,0.043-1.113,0.562-1.292,1.149c-0.178,0.586-0.087,1.222,0.084,1.81c0.435,1.496,1.914,4.104,3.776,3.961
					c1.822-0.14,2.959-2.892,3.306-4.39C265.711,258.786,265.782,258.154,265.623,257.561z"/>
				<path style="fill:#C9285A;" d="M292.365,214.388c-0.189-0.535-0.756-0.982-1.303-0.833c-0.343,0.094-0.598,0.399-0.718,0.733
					c-0.454,1.264-0.057,5.22,1.459,5.856c0.925,0.388,2.133-0.627,2.89-1.04c0.799-0.436,1.885-0.919,2.102-1.905
					c0.117-0.531-0.085-1.105-0.464-1.495c-0.379-0.39-0.914-0.605-1.456-0.658c-0.932-0.09-1.898,0.306-2.5,1.024
					C292.466,215.511,292.554,214.923,292.365,214.388z"/>
				<path style="fill:#C9285A;" d="M292.12,204.976c1.19-0.068,2.224-1.955,2.58-2.918c0.19-0.514,0.276-1.172-0.132-1.539
					c-0.383-0.344-1.025-0.215-1.394,0.144c-0.369,0.359-0.529,0.876-0.66,1.374c-0.022-0.663-0.312-1.344-0.865-1.71
					c-0.153-0.101-0.326-0.165-0.507-0.204c-0.345,0.998-0.726,2.044-1.142,3.121C290.477,204.132,291.257,205.026,292.12,204.976z"
					/>
				<path style="fill:#C9285A;" d="M286.109,267.86l-2.007-4.555c-0.276-0.626-0.52-1.264-0.739-1.91
					c-0.219,0.126-0.427,0.276-0.604,0.452c-0.792,0.784-1.221,1.919-1.145,3.031c-0.621-0.642-1.507-1.234-2.35-0.942
					c-0.669,0.232-1.055,0.983-1.045,1.691c0.01,0.708,0.343,1.372,0.74,1.958c0.681,1.004,1.584,1.853,2.615,2.489
					c0.239,0.147,0.488,0.291,0.743,0.425C285.29,269.044,286.109,267.86,286.109,267.86z"/>
				<path style="fill:#C9285A;" d="M298.632,195.151c0.179-0.003,0.451-0.406,0.564-0.528c0.204-0.22,0.402-0.446,0.593-0.677
					c0.361-0.435,0.699-0.888,1.014-1.358c0.201-0.299,0.393-0.609,0.505-0.951c0.02-0.06,0.033-0.122,0.047-0.184l-4.495-0.627
					c0.019,0.558,0.099,1.115,0.253,1.651c0.15,0.521,0.36,1.024,0.626,1.496C297.87,194.207,298.333,195.155,298.632,195.151z"/>
				<path style="fill:#C9285A;" d="M302.711,205.732c-0.548-0.119-1.099,0.295-1.328,0.807c-0.229,0.512-0.214,1.095-0.195,1.656
					c0.056-0.519-0.288-1.054-0.784-1.217c-0.496-0.163-1.091,0.062-1.354,0.513c-0.348,0.596-0.1,1.358,0.238,1.959
					c0.353,0.626,1.361,2.095,2.342,2.573c0.477-2.021,0.88-4.102,1.209-6.242C302.796,205.765,302.756,205.742,302.711,205.732z"/>
				<path style="fill:#C9285A;" d="M276.039,249.229c-0.702,0.611-1.037,1.541-1.233,2.45c-0.218-0.697-0.455-1.426-0.982-1.931
					c-0.528-0.505-1.443-0.685-1.978-0.187c-0.439,0.409-0.462,1.124-0.216,1.671c0.246,0.547,0.703,0.965,1.148,1.367
					c1.303,1.177,3.111,3.647,4.893,1.888c1.132-1.118,2.398-4.105,0.919-5.421C277.893,248.447,276.741,248.618,276.039,249.229z"
					/>
				<path style="fill:#C9285A;" d="M260.693,241.097c1,0.397,1.674-0.788,2.247-1.427c0.729-0.811,1.604-1.61,2.106-2.59
					c0.29-0.567,0.43-1.239,0.24-1.848c-0.244-0.784-1.063-1.348-1.883-1.296c-0.82,0.052-1.561,0.715-1.704,1.524
					c-0.149-0.852-0.312-1.73-0.787-2.453c-0.475-0.723-1.347-1.257-2.192-1.071c-0.781,0.172-1.337,0.92-1.493,1.704
					c-0.156,0.784,0.019,1.596,0.261,2.358c0,0.874,0.871,2.158,1.309,2.884C259.235,239.608,259.857,240.766,260.693,241.097z"/>
				<path style="fill:#C9285A;" d="M274.181,270.398c-0.132-0.472-0.461-0.915-0.928-1.062c-0.573-0.18-1.219,0.137-1.555,0.635
					c-0.335,0.498-0.405,1.132-0.349,1.73c-0.173-0.452-0.356-0.919-0.705-1.254c-0.349-0.335-0.913-0.498-1.325-0.244
					c-1.117,0.688-0.453,2.552,0.549,3.92c1.55-0.268,2.961-0.556,4.239-0.857C274.353,272.195,274.36,271.04,274.181,270.398z"/>
				<path style="fill:#C9285A;" d="M279.86,221.74c1.028,0.784,2.097,0.781,3.012-0.033c0.929-0.827,2.156-1.546,2.107-2.973
					c-0.025-0.722-0.523-1.448-1.232-1.586c-0.681-0.132-1.367,0.288-1.784,0.842c-0.368,0.49-0.582,1.093-0.604,1.705
					c-0.003-0.149-0.005-0.298-0.008-0.448c-0.083-0.327-0.174-0.656-0.306-0.964c-0.74,0.644-1.518,1.26-2.328,1.854
					C278.955,220.764,279.329,221.335,279.86,221.74z"/>
				<path style="fill:#C9285A;" d="M271.852,232.599c-0.148-0.693-0.314-1.421-0.79-1.947c-0.476-0.525-1.372-0.741-1.894-0.261
					c-0.357,0.328-0.432,0.882-0.303,1.35c0.34,1.226,2.273,3.59,3.678,3.478c1.582-0.126,3.054-2.419,2.621-3.894
					c-0.237-0.806-1.087-1.444-1.909-1.268c-0.517,0.111-0.94,0.514-1.166,0.992C271.865,231.527,271.816,232.072,271.852,232.599z"
					/>
			</g>
			<path style="fill:#C9285A;" d="M249.916,315.807c-1.799,0.719-4.028,0.941-5.848,1.042c-1.33,0.073-2.669,0.015-3.983-0.213
				c-2.513-0.435-4.96-1.583-6.806-3.313c-2.272,0.944-4.486,2.315-5.292,4.227c-1.888,4.48,16.388,5.737,19.763,5.753
				C250.411,323.316,250.104,319.048,249.916,315.807z"/>
			<path style="fill:#C9285A;" d="M249.784,312.806c-3.541-0.221-7.025-1.147-10.207-2.718c-1.101-0.544-2.072,1.107-0.966,1.653
				c3.499,1.728,7.278,2.737,11.173,2.979C251.014,314.797,251.01,312.883,249.784,312.806z"/>
			<path style="fill:#C9285A;" d="M311.504,306.562c-1.339-1.616-4.024-2.176-6.644-2.293c-0.452,1.704-1.543,3.24-2.943,4.334
				c-1.758,1.373-3.944,2.111-6.148,2.447c-1.896,0.29-3.82,0.297-5.74,0.267c0.752,3.146,1.697,7.229,4.214,6.457
				C297.469,316.785,314.605,310.305,311.504,306.562z"/>
			<path style="fill:#C9285A;" d="M297.609,303.362c-2.38,2.179-5.219,3.821-8.294,4.8c-1.169,0.372-0.67,2.221,0.509,1.846
				c3.395-1.082,6.51-2.887,9.139-5.292C299.873,303.882,298.516,302.531,297.609,303.362z"/>
		</g>
		<g>
			<path style="fill:#FFC9A1;" d="M292.225,192.06c0,0,6.006,0.633,5.715,2.995c-0.291,2.362-5.541,0.679-5.541,0.679
				s4.23,1.081,4.267,2.377c0.036,1.297-3.182,1.286-4.551,0.731c0,0,3.422,0.658,3.787,2.835c0.364,2.177-5.789,0-5.789,0
				s4.697,0.849,4.697,2.485c0,1.637-4.348,2.076-5.942,0.583c-1.594-1.493,1.136-10.061,1.136-10.061L292.225,192.06z"/>
			<path style="fill:#FFC9A1;" d="M303.923,194.951c0,0-1.419-2.242-3.117-3.122c-1.698-0.88-2.81-0.726-3.149,0
				c-0.34,0.726,1.822,2.702,2.995,3.906c1.173,1.204,2.19,5.712,3.272,6.546V194.951z"/>
			<path style="fill:#FFC9A1;" d="M236.601,181.514c0,0-7.236,0.342-6.945,2.704c0.291,2.362,5.541,0.679,5.541,0.679
				s-4.23,1.081-4.267,2.377c-0.036,1.297,3.182,1.286,4.551,0.731c0,0-3.422,0.658-3.787,2.835c-0.364,2.177,5.789,0,5.789,0
				s-4.697,0.849-4.697,2.485c0,1.637,4.348,2.076,5.942,0.583c1.595-1.493-1.136-10.061-1.136-10.061L236.601,181.514z"/>
			<path style="fill:#FFC9A1;" d="M223.672,184.113c0,0,1.419-2.242,3.117-3.122c1.698-0.88,2.81-0.726,3.149,0
				s-1.822,2.702-2.995,3.906c-1.173,1.204-2.19,5.712-3.272,6.546V184.113z"/>
		</g>
	</g>
</g>
</svg>
