<?xml version="1.0" encoding="utf-8"?>
<!-- Generator: Adobe Illustrator 27.5.0, SVG Export Plug-In . SVG Version: 6.00 Build 0)  -->
<svg version="1.1" xmlns="http://www.w3.org/2000/svg" xmlns:xlink="http://www.w3.org/1999/xlink" x="0px" y="0px"
	 viewBox="0 0 500 500" style="enable-background:new 0 0 500 500;" xml:space="preserve">
<g id="Background">
	<rect style="opacity:0.85;fill:#D1D1E5;" width="500" height="500"/>
</g>
<g id="Objects">
	<g>
		<g>
			<path style="fill:#75C4FF;" d="M31.533,97.295c0-32.188,25.814-61.508,54.975-61.508c28.683,0,52.744,28.523,52.744,61.508
				c0,34.42-23.583,61.668-52.744,61.668C57.507,158.962,31.533,130.439,31.533,97.295z M104.993,97.295
				c0-18.165-7.33-29.161-18.484-29.161c-12.27,0-20.875,12.27-20.875,29.161c0,16.094,7.967,26.293,20.875,26.293
				C97.822,123.587,104.993,113.389,104.993,97.295z"/>
		</g>
		<g>
			<path style="fill:#40A8F5;" d="M97.407,119.437c6.851-3.589,10.926-12.367,10.926-24.498c0-18.166-7.33-29.161-18.484-29.161
				c-4.443,0-8.402,1.616-11.649,4.471c2.499-1.369,5.293-2.114,8.309-2.114c11.154,0,18.484,10.995,18.484,29.161
				C104.993,107.299,102.221,115.022,97.407,119.437z"/>
			<path style="fill:#40A8F5;" d="M89.849,156.606c-29.001,0-54.975-28.523-54.975-61.668c0-20.342,10.316-39.529,25.265-50.903
				c-16.731,10.942-28.605,31.436-28.605,53.26c0,33.145,25.974,61.668,54.975,61.668c10.729,0,20.698-3.699,29.02-10.077
				C107.931,153.806,99.178,156.606,89.849,156.606z"/>
		</g>
		<g>
			<path style="fill:#FFFFFF;" d="M78.187,60.196c0,3.382-0.272,6.914,3.221,8.625c4.935,2.418,6.379-3.456,6.237-7.171
				c0.005,3.461,0,9.116,6.411,7.37c2.92-0.795,2.198-6.421,2.212-8.546L78.187,60.196z"/>
		</g>
		<path style="fill:#3B2A3D;" d="M115.662,52.277c0.059,0.058-0.457,0.751-1.631,1.756c-1.163,1.014-3.011,2.321-5.514,3.505
			c-2.497,1.19-5.627,2.279-9.199,3.037c-3.573,0.743-7.582,1.177-11.792,1.127c-8.427-0.072-16.002-2.134-20.831-4.884
			c-2.434-1.345-4.162-2.813-5.223-3.956c-0.555-0.555-0.89-1.038-1.122-1.37c-0.229-0.333-0.331-0.524-0.291-0.56
			c0.213-0.207,2.306,2.565,7.148,4.908c4.774,2.399,12.125,4.228,20.335,4.3c4.1,0.049,8.003-0.331,11.493-0.976
			c3.487-0.661,6.553-1.608,9.028-2.633C113.05,54.482,115.475,52.054,115.662,52.277z"/>
		<g>
			<g>
				<path style="fill:#FFFFFF;" d="M89.019,54.636c-0.596-4.907-0.991-15.018,6.68-14.478c7.748,0.545,6.79,9.655,7.08,14.363
					L89.019,54.636z"/>
			</g>
			<path style="fill:#5D839B;" d="M96.467,40.116c-2.154,4.793-1.987,9.672-0.326,14.607l6.817-0.184
				C102.958,54.539,104.031,40.215,96.467,40.116z"/>
			<path style="fill:#FFFFFF;" d="M97.907,47.165c0.026,0.356-0.343,0.7-0.93,0.858c-0.581,0.165-1.327,0.16-2.047,0.03
				c-0.728-0.133-1.285-0.336-1.658-0.546c-0.076-0.046-0.193-0.104-0.237-0.161c-0.05-0.052-0.097-0.139-0.195-0.18
				c-0.194-0.082-0.338-0.203-0.415-0.366c-0.077-0.162-0.08-0.35-0.02-0.55c0.03-0.1,0.155-0.213,0.296-0.322
				c0.15-0.107,0.262-0.175,0.435-0.258c0.633-0.281,1.468-0.324,2.249-0.181C96.974,45.817,97.829,46.477,97.907,47.165z"/>
		</g>
		<g>
			<g>
				<path style="fill:#FFFFFF;" d="M71.293,54.636c-0.595-4.907-0.99-15.018,6.68-14.478c7.748,0.545,6.79,9.655,7.081,14.363
					L71.293,54.636z"/>
			</g>
			<path style="fill:#5D839B;" d="M78.741,40.116c-2.154,4.793-1.987,9.672-0.325,14.607l6.816-0.184
				C85.232,54.539,86.305,40.215,78.741,40.116z"/>
			<path style="fill:#FFFFFF;" d="M80.181,47.165c0.026,0.356-0.343,0.7-0.93,0.858c-0.581,0.165-1.326,0.16-2.047,0.03
				c-0.728-0.133-1.284-0.336-1.658-0.546c-0.076-0.046-0.193-0.104-0.237-0.161c-0.05-0.052-0.097-0.139-0.195-0.18
				c-0.194-0.082-0.338-0.203-0.416-0.366c-0.077-0.162-0.08-0.35-0.02-0.55c0.03-0.1,0.155-0.213,0.296-0.322
				c0.149-0.107,0.262-0.175,0.435-0.258c0.633-0.281,1.467-0.324,2.249-0.181C79.248,45.817,80.103,46.477,80.181,47.165z"/>
		</g>
		<path style="fill:#FCA08B;" d="M62.379,50.339c-1.15-0.865-1.642-2.151-1.101-2.874c0.542-0.723,1.913-0.608,3.063,0.257
			c1.149,0.864,1.642,2.15,1.1,2.873C64.899,51.317,63.528,51.203,62.379,50.339z"/>
		<path style="fill:#FCA08B;" d="M114.39,47.721c0.962,1.059,0.588,3.042-1.118,4.508c-2.151,1.735-4.03,1.256-4.77,0.071
			c-0.77-1.23,0.409-3.151,1.444-4.079C111.376,46.994,113.419,46.654,114.39,47.721z"/>
		<path style="opacity:0.38;fill:#B7B7B7;" d="M87.575,64.695c-0.144-0.001-0.234-0.663-0.202-1.479
			c0.033-0.817,0.175-1.479,0.319-1.479c0.144,0,0.234,0.663,0.202,1.479C87.861,64.033,87.718,64.695,87.575,64.695z"/>
		<g>
			<path style="fill:#75C4FF;" d="M41.559,86.19c-8.749-1.155-14.574-4.806-17.316-10.851c-3.513-7.745-0.607-16.978,0.255-18.271
				l1.664,1.109l-0.832-0.555l0.836,0.548c-0.432,0.709-3.408,9.437,0.024,16.615c2.492,5.211,7.75,8.381,15.629,9.422L41.559,86.19
				z"/>
			<path style="fill:#75C4FF;" d="M23.007,49.886c0,0-3.752,8.129,2.084,8.963c5.837,0.833,6.045-6.879,6.045-6.879L23.007,49.886z"
				/>
			<path style="fill:#75C4FF;" d="M24.675,42.799c0.431,0.013,0.642,2.019,0.466,4.48c-0.289,2.413-0.872,4.326-1.3,4.275
				c-0.429-0.051-0.54-2.048-0.251-4.46C23.756,44.709,24.244,42.786,24.675,42.799z"/>
			<path style="fill:#75C4FF;" d="M30.094,41.131c0.396,0.217-0.453,2.853-1.571,6.186c-0.647,1.767-1.455,3.113-1.96,4.062
				c-0.503,1.019-0.831,1.702-1.054,1.635c-0.19-0.056-0.254-0.787-0.006-1.945c0.299-1.217,0.979-2.702,1.539-4.247
				C28.162,43.473,29.731,40.927,30.094,41.131z"/>
			<path style="fill:#75C4FF;" d="M33.847,41.965c0.193,0.017,0.275,0.874-0.174,2.096c-0.426,1.208-1.389,2.706-2.336,4.187
				c-0.119,0.199-0.236,0.396-0.352,0.59c-0.048,0.084-0.138,0.222-0.152,0.259l-0.154,0.293c-0.207,0.379-0.409,0.748-0.606,1.11
				c-0.396,0.702-0.771,1.325-1.107,1.837c-0.671,1.024-1.182,1.608-1.373,1.509c-0.191-0.099-0.027-0.863,0.392-2.018
				c0.21-0.578,0.484-1.253,0.809-1.992c0.171-0.375,0.346-0.758,0.525-1.151l0.142-0.3c0.08-0.165,0.117-0.214,0.179-0.328
				c0.114-0.197,0.229-0.396,0.346-0.597c1.055-1.651,2.061-2.899,2.696-3.892C33.324,42.602,33.611,41.932,33.847,41.965z"/>
			<path style="fill:#75C4FF;" d="M35.931,49.886c0.142,0.148-0.14,0.625-0.803,1.187c-0.316,0.236-0.776,0.543-1.182,0.776
				l-0.672,0.371c-0.248,0.152-0.495,0.305-0.75,0.462c-0.856,0.563-1.637,1.275-2.234,1.785c-0.611,0.507-1.071,0.771-1.238,0.631
				c-0.163-0.138-0.014-0.639,0.394-1.343c0.404-0.706,1.105-1.646,2.27-2.41c0.261-0.148,0.514-0.291,0.767-0.435
				c0.276-0.125,0.548-0.238,0.807-0.342c0.542-0.212,0.913-0.349,1.307-0.463C35.286,49.853,35.778,49.72,35.931,49.886z"/>
		</g>
		<path style="fill:#75C4FF;" d="M133.979,112.471l-0.34-1.971c0.596-0.104,14.563-2.741,13.323-19.28
			c-1.236-16.482-14.343-16.337-14.893-16.32l-0.059-1.999c0.154-0.003,15.564-0.259,16.946,18.17
			C150.336,109.451,134.143,112.442,133.979,112.471z"/>
	</g>
	<g>
		<g>
			<path style="fill:#9A50FD;" d="M417.213,37.692l22.627,2.39v118.555h-34.896V70.996h-22.469V37.692H417.213z"/>
		</g>
		<g>
			<polygon style="fill:#822EF2;" points="437,39.732 437,155 405,155 405,159 440,159 440,40.083 			"/>
		</g>
		<path style="fill:#3B2A3D;" d="M428.632,58.703c-0.086,0.025-0.328-0.463-0.482-1.384c-0.174-0.919-0.277-2.256-0.4-3.876
			c-0.138-1.611-0.284-3.549-0.893-5.491c-0.313-0.956-0.743-1.93-1.467-2.639c-0.087-0.091-0.162-0.197-0.259-0.278l-0.31-0.22
			c-0.208-0.139-0.401-0.333-0.632-0.397l-0.668-0.301c-0.302-0.063-0.605-0.126-0.911-0.19c-1.015-0.133-2.208-0.144-3.064,0.325
			c-0.893,0.425-1.574,1.167-2.079,2.003c-0.956,1.733-1.313,3.642-1.512,5.217c-0.372,3.186-0.27,5.231-0.522,5.245
			c-0.175,0.017-0.676-1.984-0.578-5.335c0.075-1.663,0.294-3.71,1.355-5.828c0.565-1.031,1.436-2.068,2.672-2.681
			c0.315-0.128,0.633-0.267,0.959-0.378c0.335-0.059,0.674-0.117,1.015-0.177c0.344-0.078,0.677-0.012,1.021-0.021l0.514,0.015
			l0.129,0.004l0.19,0.036l0.228,0.048c0.306,0.064,0.608,0.129,0.91,0.192c0.335,0.122,0.684,0.279,1.017,0.427
			c0.355,0.129,0.604,0.367,0.888,0.566l0.41,0.311c0.127,0.112,0.229,0.248,0.343,0.371c0.941,0.979,1.413,2.175,1.729,3.269
			c0.602,2.222,0.616,4.224,0.619,5.87c-0.017,1.65-0.082,2.962-0.097,3.867C428.721,58.176,428.755,58.673,428.632,58.703z"/>
		<path style="fill:#3B2A3D;" d="M410.708,58.099c-0.086,0.025-0.328-0.463-0.482-1.384c-0.174-0.919-0.277-2.256-0.401-3.876
			c-0.138-1.612-0.284-3.549-0.893-5.491c-0.313-0.956-0.743-1.93-1.467-2.639c-0.087-0.091-0.162-0.198-0.259-0.279l-0.31-0.22
			c-0.208-0.139-0.401-0.333-0.632-0.397l-0.668-0.301c-0.302-0.063-0.605-0.126-0.911-0.19c-1.015-0.133-2.207-0.144-3.064,0.325
			c-0.892,0.425-1.573,1.167-2.078,2.003c-0.956,1.733-1.314,3.642-1.513,5.217c-0.372,3.186-0.271,5.231-0.523,5.245
			c-0.176,0.017-0.676-1.984-0.578-5.335c0.075-1.663,0.294-3.71,1.356-5.828c0.564-1.031,1.436-2.068,2.671-2.681
			c0.314-0.129,0.633-0.267,0.959-0.379c0.336-0.058,0.674-0.117,1.015-0.177c0.344-0.078,0.678-0.012,1.021-0.021l0.514,0.015
			l0.129,0.004l0.19,0.036l0.229,0.048c0.306,0.064,0.609,0.129,0.91,0.192c0.335,0.122,0.684,0.279,1.017,0.427
			c0.355,0.129,0.605,0.367,0.889,0.566l0.409,0.311c0.128,0.112,0.228,0.248,0.343,0.371c0.941,0.979,1.413,2.175,1.729,3.269
			c0.603,2.222,0.616,4.224,0.619,5.87c-0.017,1.65-0.081,2.962-0.096,3.867C410.797,57.572,410.831,58.069,410.708,58.099z"/>
		<path style="fill:#FCA08B;" d="M439.179,58.723c0.962,1.059,0.588,3.042-1.119,4.508c-2.151,1.735-4.03,1.256-4.77,0.071
			c-0.771-1.231,0.408-3.151,1.443-4.079C436.164,57.996,438.208,57.656,439.179,58.723z"/>
		<g>
			<g>
				<g>
					<path style="fill:#9A50FD;" d="M413.659,115.622c-5.679,0-10.232-1.815-13.589-5.428c-5.779-6.221-5.953-15.874-5.546-17.371
						l1.857,0.503l-0.929-0.252l0.931,0.246c-0.188,0.807-0.259,10.012,5.287,15.763c4.026,4.177,10.038,5.526,17.864,4.006
						l0.367,1.889C417.69,115.408,415.607,115.622,413.659,115.622z"/>
				</g>
				<g>
					<path style="fill:#9A50FD;" d="M390.794,86.476c0,0-0.978,8.9,4.821,7.838c5.8-1.062,3.55-8.442,3.55-8.442L390.794,86.476z"/>
				</g>
				<g>
					<g>
						<path style="fill:#9A50FD;" d="M390.126,79.226c0.394-0.118,1.282,1.697,1.832,4.089c0.552,2.392,0.561,4.406,0.155,4.478
							c-0.412,0.073-1.079-1.795-1.62-4.139C389.955,81.31,389.726,79.345,390.126,79.226z"/>
					</g>
				</g>
				<g>
					<g>
						<path style="fill:#9A50FD;" d="M394.736,75.925c0.394,0.062,0.41,2.87,0.448,6.368c-0.036,1.879-0.416,3.407-0.576,4.515
							c-0.194,1.101-0.238,1.797-0.45,1.84c-0.195,0.044-0.538-0.676-0.612-1.886c-0.104-1.201,0.109-2.827,0.136-4.473
							C393.643,78.738,394.309,75.855,394.736,75.925z"/>
					</g>
				</g>
				<g>
					<g>
						<path style="fill:#9A50FD;" d="M398.559,75.524c0.193-0.045,0.538,0.744,0.482,2.04c-0.027,1.287-0.465,2.981-0.902,4.729
							c-0.214,0.847-0.317,1.736-0.478,2.523c-0.15,0.789-0.307,1.496-0.459,2.087c-0.306,1.182-0.598,1.902-0.803,1.873
							s-0.285-0.802-0.248-2.032c0.018-0.616,0.066-1.345,0.142-2.152c0.088-0.805,0.144-1.687,0.383-2.647
							c0.467-1.858,1.031-3.39,1.311-4.529C398.296,76.29,398.345,75.564,398.559,75.524z"/>
					</g>
				</g>
				<g>
					<g>
						<path style="fill:#9A50FD;" d="M403.049,82.374c0.181,0.092,0.085,0.668-0.397,1.372c-0.459,0.71-1.284,1.487-1.968,2.315
							c-0.668,0.836-1.14,1.758-1.552,2.435c-0.407,0.68-0.758,1.081-0.952,1.003c-0.19-0.077-0.198-0.592-0.037-1.391
							c0.167-0.788,0.525-1.927,1.371-2.99c0.863-1.033,1.763-1.629,2.361-2.098C402.488,82.575,402.861,82.274,403.049,82.374z"/>
					</g>
				</g>
			</g>
		</g>
		<g>
			<path style="fill:#FFFFFF;" d="M404.943,70.996c9.528,0.566,9.906-13.627,20.395-10.091c4.813,1.622,5.04,7.081,3.852,11.175
				c-1.302,4.485-5.14,8.53-9.636,10.293c-2.641,1.035-10.837,2.587-11.682-1.655l0.245-8.525L404.943,70.996z"/>
		</g>
		<path style="fill:#FC8F73;" d="M409.198,82.859c0,0,1.027-10.008,8.341-11.804c7.313-1.796,11.784,0.448,11.784,0.448
			s-1.441,7.837-10.758,11.356C412.791,85.04,409.198,82.859,409.198,82.859z"/>
	</g>
	<g>
		<g>
			<g>
				<path style="fill:#7468F8;" d="M131.694,298.373l-90.827,0.797l-2.901-27.387c21.287-9.552,53.297-34.955,53.177-52.004
					c-0.043-6.055-4.23-12.4-10.126-12.358c-7.171,0.05-13.007,8.537-13.745,16.987l-29.196-4.893
					c1.105-24.229,18.982-42.68,44.318-42.858c25.017-0.176,40.917,17.56,41.091,42.258c0.114,16.253-8.688,33.525-26.09,51.494
					l30.75-0.693L131.694,298.373z"/>
			</g>
		</g>
		<g>
			<path style="fill:#5446EB;" d="M94.023,216.309c-0.043-6.055-4.23-12.4-10.126-12.358c-4.061,0.028-7.691,2.765-10.213,6.666
				c2.121-1.96,4.632-3.177,7.333-3.196c5.896-0.041,10.083,6.303,10.126,12.358c0.037,5.188-2.913,11.15-7.62,17.204
				C89.879,229.762,94.066,222.487,94.023,216.309z"/>
			<path style="fill:#5446EB;" d="M43.747,295.7l-2.69-25.386c-1.049,0.52-2.086,1.017-3.092,1.469l2.901,27.387l90.827-0.797
				l-0.426-3.44L43.747,295.7z"/>
			<path style="fill:#5446EB;" d="M67.965,220.571l-27.009-4.527c0.444-9.739,3.603-18.54,8.861-25.601
				c-6.982,7.542-11.221,17.665-11.741,29.07l29.196,4.893C67.385,223.119,67.629,221.832,67.965,220.571z"/>
		</g>
		<g>
			<g>
				<path style="fill:#FFFFFF;" d="M100.391,201.596c0.561-4.911,0.885-15.024-6.782-14.43c-7.744,0.599-6.722,9.702-6.979,14.412
					L100.391,201.596z"/>
			</g>
			<path style="fill:#4F4D87;" d="M92.841,187.128c2.188,4.777,2.055,9.658,0.428,14.604l-6.817-0.136
				C86.452,201.597,85.279,187.281,92.841,187.128z"/>
			<path style="fill:#FFFFFF;" d="M91.451,194.188c0.073-0.689,0.923-1.355,2.509-1.695c0.781-0.148,1.616-0.111,2.25,0.166
				c0.174,0.081,0.286,0.148,0.437,0.255c0.142,0.107,0.268,0.22,0.298,0.319c0.062,0.2,0.06,0.388-0.016,0.551
				c-0.076,0.163-0.219,0.285-0.413,0.368c-0.098,0.042-0.145,0.128-0.195,0.181c-0.043,0.057-0.16,0.117-0.235,0.163
				c-0.372,0.212-0.927,0.419-1.654,0.558c-0.719,0.135-1.464,0.146-2.047-0.015C91.8,194.885,91.428,194.544,91.451,194.188z"/>
		</g>
		<g>
			<g>
				<path style="fill:#FFFFFF;" d="M82.386,202.115c0.561-4.911,0.885-15.024-6.782-14.431c-7.744,0.6-6.722,9.703-6.979,14.412
					L82.386,202.115z"/>
			</g>
			<path style="fill:#4F4D87;" d="M74.835,187.648c2.188,4.778,2.055,9.658,0.428,14.605l-6.818-0.136
				C68.446,202.116,67.273,187.8,74.835,187.648z"/>
			<path style="fill:#FFFFFF;" d="M73.446,194.708c0.073-0.689,0.923-1.355,2.509-1.695c0.78-0.148,1.616-0.112,2.25,0.165
				c0.173,0.082,0.286,0.148,0.437,0.255c0.142,0.107,0.268,0.22,0.298,0.319c0.062,0.2,0.06,0.388-0.016,0.551
				c-0.076,0.163-0.219,0.285-0.413,0.368c-0.098,0.042-0.145,0.128-0.195,0.181c-0.043,0.057-0.16,0.117-0.235,0.163
				c-0.372,0.212-0.927,0.419-1.654,0.558c-0.72,0.135-1.465,0.146-2.047-0.015C73.794,195.404,73.422,195.063,73.446,194.708z"/>
		</g>
		<path style="fill:#FCA08B;" d="M111.618,197.509c0.97,1.052,0.609,3.038-1.086,4.516c-2.139,1.75-4.021,1.285-4.77,0.105
			c-0.779-1.225,0.386-3.154,1.415-4.089C108.599,196.803,110.64,196.448,111.618,197.509z"/>
		<g>
			<g>
				<g>
					<path style="fill:#7468F8;" d="M120.644,221.2c5.312,2.006,8.931,5.313,10.795,9.879c3.208,7.861-0.039,16.953-0.948,18.21
						l-1.559-1.127l0.78,0.564l-0.783-0.559c0.461-0.689,3.779-9.275,0.623-16.614c-2.292-5.331-7.439-8.716-15.298-10.059
						l0.324-1.896C116.797,219.977,118.821,220.512,120.644,221.2z"/>
				</g>
				<g>
					<path style="fill:#7468F8;" d="M131.739,256.544c0,0,4.059-7.98-1.742-9.036c-5.8-1.056-6.303,6.643-6.303,6.643
						L131.739,256.544z"/>
				</g>
				<g>
					<g>
						<path style="fill:#7468F8;" d="M129.802,263.563c-0.411-0.029-0.6-2.041-0.269-4.473c0.329-2.433,1.032-4.32,1.436-4.244
							c0.411,0.078,0.376,2.061,0.054,4.445C130.698,261.674,130.219,263.593,129.802,263.563z"/>
					</g>
				</g>
				<g>
					<g>
						<path style="fill:#7468F8;" d="M124.323,265.022c-0.347-0.196,0.629-2.829,1.83-6.115c0.698-1.746,1.592-3.04,2.134-4.02
							c0.57-0.962,0.857-1.597,1.071-1.563c0.198,0.027,0.264,0.822-0.094,1.98c-0.328,1.161-1.101,2.606-1.707,4.138
							C126.34,262.777,124.699,265.238,124.323,265.022z"/>
					</g>
				</g>
				<g>
					<g>
						<path style="fill:#7468F8;" d="M120.605,264.047c-0.196-0.026-0.241-0.887,0.269-2.079c0.481-1.194,1.489-2.625,2.515-4.104
							c0.499-0.718,0.91-1.513,1.338-2.191c0.42-0.685,0.815-1.292,1.167-1.791c0.704-0.998,1.231-1.568,1.413-1.469
							c0.182,0.1-0.016,0.851-0.486,1.989c-0.235,0.568-0.538,1.234-0.894,1.963c-0.366,0.722-0.73,1.527-1.293,2.341
							c-1.093,1.573-2.162,2.808-2.827,3.773C121.122,263.424,120.82,264.085,120.605,264.047z"/>
					</g>
				</g>
				<g>
					<g>
						<path style="fill:#7468F8;" d="M118.824,256.052c-0.136-0.15,0.157-0.654,0.856-1.143c0.681-0.502,1.728-0.938,2.659-1.471
							c0.921-0.546,1.687-1.242,2.312-1.73c0.621-0.492,1.091-0.744,1.245-0.603c0.152,0.14-0.023,0.625-0.456,1.314
							c-0.435,0.678-1.173,1.617-2.339,2.314c-1.173,0.66-2.225,0.901-2.951,1.128C119.419,256.063,118.964,256.213,118.824,256.052
							z"/>
					</g>
				</g>
			</g>
		</g>
		<path style="fill:#3B2A3D;" d="M107.961,203.733c0.145,0.153-0.503,1.063-1.741,2.373c-1.24,1.295-3.099,3.026-5.587,4.384
			c-2.476,1.39-5.138,1.852-6.984,1.745c-0.942-0.071-1.693-0.194-2.156-0.374c-0.48-0.16-0.739-0.299-0.725-0.406
			c0.011-0.249,1.197-0.156,2.852-0.325c1.699-0.182,3.986-0.739,6.27-2.015c2.291-1.247,4.186-2.764,5.592-3.832
			C106.885,204.206,107.81,203.572,107.961,203.733z"/>
	</g>
	<g>
		<g>
			<path style="fill:#FDD587;" d="M459.981,256.294c0,23.743-19.122,42.387-43.343,42.387c-15.935,0-30.275-8.286-40.633-23.265
				l22.945-14.819c2.709,5.418,8.605,9.083,14.978,9.083c8.127,0,14.82-6.056,14.82-13.386c0-7.33-6.375-12.588-15.139-12.588
				c-6.533,0-11.791,2.549-13.703,6.692l-20.716-8.924l1.435-63.102h73.299v26.771H409.15l0.478,12.748
				c2.708-0.479,5.577-0.638,8.445-0.638C438.788,217.254,459.981,229.205,459.981,256.294z"/>
		</g>
		<g>
			<path style="fill:#F0BA4F;" d="M415.457,269.606c0.488,0.044,0.978,0.073,1.473,0.073c8.127,0,14.82-6.056,14.82-13.386
				c0-7.33-6.375-12.588-15.139-12.588c-0.525,0-1.038,0.022-1.546,0.055c8.005,0.549,13.685,5.616,13.685,12.533
				C428.75,263.159,422.879,268.905,415.457,269.606z"/>
			<path style="fill:#F0BA4F;" d="M400.491,249.357l-18.299-8.069L383.627,178h-3l-1.435,63.288l20.716,9.017
				C400.075,249.944,400.275,249.693,400.491,249.357z"/>
			<path style="fill:#F0BA4F;" d="M379.006,275.416l20.76-13.408c-0.293-0.457-0.571-0.924-0.814-1.411l-22.945,14.819
				c10.357,14.979,24.698,23.265,40.633,23.265c0.579,0,1.153-0.021,1.727-0.042C402.942,298.208,389.086,289.993,379.006,275.416z"
				/>
		</g>
		<path style="fill:#FCA08B;" d="M400.034,203.205c0.962,1.059,0.588,3.043-1.119,4.508c-2.15,1.735-4.03,1.256-4.77,0.072
			c-0.77-1.231,0.408-3.152,1.443-4.079C397.02,202.478,399.063,202.138,400.034,203.205z"/>
		<g>
			<g>
				<g>
					<path style="fill:#FDD587;" d="M402.874,237.511c-5.604-0.911-10.392,0.149-14.284,3.177
						c-6.702,5.212-8.423,14.713-8.262,16.255l1.913-0.199l-0.957,0.1l0.958-0.094c-0.056-0.826,1.352-9.924,7.748-14.71
						c4.645-3.477,10.796-3.843,18.276-1.087l0.665-1.805C406.818,238.37,404.797,237.824,402.874,237.511z"/>
				</g>
				<path style="fill:#FDD587;" d="M373.865,268.188c0.371,0.18,1.538-1.47,2.465-3.743c0.219-0.536,0.401-1.053,0.553-1.537
					l1.487,0.354c-0.056,0.555-0.115,1.121-0.199,1.694c-0.608,3.498-0.414,6.45,0.02,6.45c0.399,0.003,0.866-2.766,1.465-6.213
					c0.08-0.563,0.118-1.088,0.142-1.593l1.008,0.239c-0.028,0.538-0.044,1.104,0.007,1.716c0.163,1.909,0.474,3.512,0.568,4.681
					c0.122,1.161,0.054,1.886,0.259,1.959c0.184,0.075,0.651-0.648,0.804-1.936c0.18-1.274,0.02-3.018-0.132-4.813
					c-0.036-0.419-0.044-0.843-0.047-1.26l1.319,0.314c0.607,0.892,1.25,1.517,1.691,1.995c0.533,0.539,0.854,0.895,1.055,0.826
					c0.193-0.063,0.19-0.646-0.172-1.418c-0.34-0.774-1.029-1.674-1.57-2.601c-0.069-0.123-0.127-0.248-0.189-0.372
					c0.642-2.171,1.095-5.912-2.754-7.283c-4.88-1.739-5.829,4.953-5.988,6.601c-0.234,0.493-0.477,1.042-0.717,1.628
					C374.031,266.103,373.489,268.006,373.865,268.188z"/>
			</g>
		</g>
		<g>
			<g>
				<path style="fill:#FFFFFF;" d="M416.48,198.065c-0.595-4.907-0.99-15.018,6.681-14.478c7.747,0.545,6.79,9.655,7.08,14.363
					L416.48,198.065z"/>
			</g>
			<path style="fill:#684F6D;" d="M423.929,183.545c-2.153,4.793-1.986,9.672-0.325,14.607l6.816-0.184
				C430.42,197.968,431.492,183.644,423.929,183.545z"/>
			<path style="fill:#FFFFFF;" d="M425.368,190.594c0.026,0.356-0.344,0.7-0.93,0.858c-0.581,0.165-1.326,0.16-2.047,0.03
				c-0.728-0.134-1.284-0.336-1.657-0.546c-0.075-0.046-0.193-0.105-0.236-0.161c-0.051-0.053-0.098-0.139-0.196-0.18
				c-0.194-0.081-0.338-0.203-0.415-0.365c-0.077-0.162-0.08-0.35-0.02-0.55c0.029-0.1,0.155-0.213,0.296-0.322
				c0.149-0.108,0.262-0.176,0.436-0.258c0.633-0.282,1.468-0.324,2.249-0.182C424.436,189.246,425.29,189.906,425.368,190.594z"/>
		</g>
		<g>
			<g>
				<path style="fill:#FFFFFF;" d="M397.915,197.956c-0.596-4.907-0.99-15.018,6.68-14.478c7.748,0.545,6.79,9.655,7.081,14.362
					L397.915,197.956z"/>
			</g>
			<path style="fill:#684F6D;" d="M405.363,183.436c-2.154,4.793-1.987,9.672-0.325,14.607l6.816-0.184
				C411.854,197.859,412.927,183.535,405.363,183.436z"/>
			<path style="fill:#FFFFFF;" d="M406.803,190.484c0.026,0.356-0.344,0.7-0.93,0.858c-0.581,0.165-1.326,0.16-2.047,0.03
				c-0.729-0.133-1.284-0.337-1.658-0.546c-0.075-0.045-0.193-0.104-0.236-0.161c-0.051-0.052-0.098-0.139-0.196-0.18
				c-0.194-0.082-0.338-0.203-0.415-0.366c-0.077-0.162-0.08-0.35-0.02-0.55c0.029-0.1,0.155-0.213,0.296-0.322
				c0.15-0.107,0.263-0.175,0.436-0.258c0.633-0.281,1.468-0.324,2.249-0.181C405.87,189.137,406.725,189.797,406.803,190.484z"/>
		</g>
		<path style="fill:#3B2A3D;" d="M412.729,207.042c0.232-0.044,0.649,1.731,0.514,4.586c-0.082,1.429-0.216,3.13-0.84,5.02
			c-0.159,0.472-0.369,0.958-0.689,1.447c-0.314,0.464-0.811,1.046-1.668,1.197c-0.866,0.097-1.522-0.32-2.001-0.704l-0.359-0.328
			c-0.112-0.108-0.183-0.198-0.276-0.299l-0.134-0.148l-0.033-0.037c-0.057-0.065-0.034-0.044-0.056-0.07l-0.065-0.092l-0.264-0.37
			c-1.298-2.029-1.657-4.152-1.916-6.033c-0.234-1.894-0.225-3.604-0.126-5.031c0.186-2.869,0.886-4.559,1.076-4.491
			c0.223,0.063-0.072,1.754,0.028,4.516c0.043,1.378,0.147,3.021,0.446,4.803c0.304,1.756,0.745,3.763,1.783,5.359l0.2,0.284
			l0.049,0.071c-0.001,0.001,0.038,0.05,0.004,0.01l0.033,0.037l0.132,0.148c0.086,0.093,0.18,0.209,0.259,0.283l0.22,0.2
			c0.314,0.267,0.63,0.396,0.791,0.376c0.162-0.018,0.425-0.203,0.647-0.526c0.223-0.316,0.416-0.701,0.568-1.102
			c0.616-1.616,0.879-3.27,1.09-4.624C412.551,208.782,412.536,207.074,412.729,207.042z"/>
	</g>
	<g>
		<g>
			<g>
				<g>
					<path style="fill:#FEC563;" d="M45.209,383.785c-5.661,0-10.202-1.815-13.548-5.429c-5.762-6.22-5.935-15.874-5.529-17.37
						l1.851,0.504l-0.926-0.252l0.928,0.246c-0.187,0.807-0.258,10.012,5.271,15.763c4.015,4.177,10.009,5.526,17.812,4.006
						l0.365,1.889C49.229,383.571,47.152,383.785,45.209,383.785z"/>
				</g>
				<path style="fill:#FEC563;" d="M21.571,348.852c0.394-0.118,1.279,1.697,1.827,4.089c0.13,0.565,0.227,1.104,0.298,1.607
					l1.52-0.11c0.034-0.557,0.066-1.125,0.075-1.704c-0.039-3.551,0.625-6.433,1.052-6.364c0.393,0.063,0.41,2.87,0.447,6.368
					c-0.011,0.568-0.057,1.093-0.115,1.595l1.03-0.074c0.059-0.536,0.134-1.098,0.281-1.692c0.466-1.858,1.028-3.391,1.308-4.529
					c0.307-1.126,0.355-1.852,0.568-1.892c0.193-0.045,0.537,0.745,0.481,2.04c-0.027,1.287-0.463,2.982-0.899,4.729
					c-0.103,0.408-0.178,0.826-0.249,1.237l1.349-0.098c0.741-0.783,1.473-1.297,1.984-1.698c0.611-0.446,0.982-0.747,1.17-0.646
					c0.18,0.093,0.084,0.668-0.396,1.372c-0.458,0.71-1.281,1.486-1.962,2.315c-0.088,0.11-0.164,0.224-0.246,0.336
					c0.284,2.246,0.131,6.012-3.875,6.747c-5.081,0.934-4.944-5.824-4.836-7.478c-0.152-0.524-0.303-1.104-0.445-1.721
					C21.401,350.935,21.172,348.97,21.571,348.852z"/>
			</g>
		</g>
		<g>
			<g>
				<path style="fill:#FEC563;" d="M118.628,413.283c0,23.424-17.159,40.154-41.148,40.154c-26.532,0-43.532-20.715-44.326-42.387
					c-1.43-21.352,7.467-50.193,54.176-79.674l20.813,21.99c-7.467,3.347-17.794,10.677-26.85,19.918
					C103.853,375.676,118.628,391.611,118.628,413.283z M90.507,413.123c0-7.49-5.72-14.342-14.775-14.342
					c-6.673,0-14.616,3.506-15.093,12.588v1.117c0.158,9.719,8.738,15.137,15.888,15.137
					C84.311,427.623,90.507,420.932,90.507,413.123z"/>
			</g>
		</g>
		<g>
			<path style="fill:#F0A930;" d="M93.156,410.539c0-7.49-5.72-14.342-14.775-14.342c-4.575,0-9.745,1.649-12.698,5.611
				c2.907-2.104,6.641-3.027,10.05-3.027c9.056,0,14.775,6.852,14.775,14.342c0,3.414-1.185,6.614-3.168,9.136
				C90.869,419.588,93.156,415.274,93.156,410.539z"/>
			<path style="fill:#F0A930;" d="M80.128,450.853c-26.532,0-43.532-20.715-44.326-42.387c-1.049-15.664,3.482-35.36,24.401-56.382
				c-23.189,21.988-28.141,42.662-27.049,58.966c0.794,21.672,17.794,42.387,44.326,42.387c12.722,0,23.522-4.706,30.862-12.62
				C101.158,447.161,91.397,450.853,80.128,450.853z"/>
		</g>
		<g>
			<g>
				<path style="fill:#FFFFFF;" d="M61.972,384.326c0.525-4.345,0.874-13.298-5.898-12.819c-6.84,0.482-5.995,8.549-6.251,12.718
					L61.972,384.326z"/>
			</g>
			<path style="fill:#564A3B;" d="M55.396,371.469c1.902,4.244,1.754,8.564,0.287,12.934l-6.018-0.163
				C49.665,384.24,48.718,371.557,55.396,371.469z"/>
			<path style="fill:#FFFFFF;" d="M54.125,377.71c0.069-0.609,0.821-1.193,2.225-1.483c0.69-0.126,1.428-0.089,1.987,0.16
				c0.153,0.073,0.253,0.133,0.385,0.228c0.125,0.097,0.235,0.197,0.261,0.286c0.053,0.177,0.05,0.343-0.018,0.486
				c-0.068,0.144-0.196,0.252-0.368,0.323c-0.087,0.037-0.128,0.113-0.173,0.159c-0.038,0.051-0.142,0.104-0.208,0.143
				c-0.329,0.187-0.82,0.366-1.462,0.484c-0.636,0.115-1.294,0.12-1.808-0.026C54.428,378.329,54.102,378.026,54.125,377.71z"/>
		</g>
		<g>
			<g>
				<path style="fill:#FFFFFF;" d="M78.216,384.653c0.526-4.346,0.875-13.298-5.897-12.82c-6.84,0.483-5.995,8.55-6.251,12.719
					L78.216,384.653z"/>
			</g>
			<path style="fill:#564A3B;" d="M71.641,371.796c1.902,4.244,1.754,8.565,0.287,12.935l-6.017-0.163
				C65.91,384.567,64.963,371.884,71.641,371.796z"/>
			<path style="fill:#FFFFFF;" d="M70.37,378.038c0.069-0.609,0.822-1.194,2.225-1.484c0.69-0.127,1.428-0.09,1.988,0.16
				c0.153,0.073,0.252,0.134,0.385,0.229c0.124,0.096,0.235,0.197,0.261,0.285c0.053,0.178,0.05,0.344-0.019,0.487
				c-0.069,0.144-0.196,0.251-0.368,0.323c-0.087,0.036-0.128,0.112-0.173,0.159c-0.038,0.05-0.142,0.102-0.208,0.143
				c-0.329,0.186-0.819,0.365-1.462,0.483c-0.636,0.115-1.294,0.12-1.808-0.026C70.673,378.657,70.347,378.353,70.37,378.038z"/>
		</g>
		<path style="fill:#FF6950;" d="M47.924,383.608c0.854,0.936,0.527,2.69-0.98,3.988c-1.9,1.538-3.563,1.114-4.218,0.065
			c-0.684-1.089,0.356-2.79,1.268-3.609C45.256,382.966,47.063,382.664,47.924,383.608z"/>
		<path style="fill:#FF6950;" d="M85.854,387.584c-0.354,1.217-2.022,1.852-3.914,1.243c-2.301-0.822-2.803-2.461-2.25-3.567
			c0.573-1.15,2.566-1.149,3.74-0.798C85.013,384.973,86.211,386.357,85.854,387.584z"/>
		<g>
			<g>
				<g>
					<path style="fill:#FEC563;" d="M118.048,394.597c5.447,1.577,9.317,4.585,11.544,8.984c3.835,7.575,1.349,16.888,0.547,18.21
						l-1.643-0.999l0.821,0.5l-0.825-0.495c0.402-0.722,3-9.536-0.74-16.596c-2.715-5.127-8.112-8.092-16.038-8.807l0.168-1.914
						C114.121,393.683,116.178,394.056,118.048,394.597z"/>
				</g>
				<path style="fill:#FEC563;" d="M131.192,434.708c-0.412,0.003-0.764-1.985-0.634-4.434c0.03-0.578,0.085-1.123,0.154-1.624
					l-1.493-0.318c-0.185,0.524-0.372,1.062-0.54,1.615c-0.939,3.418-2.37,5.999-2.761,5.814c-0.362-0.17,0.395-2.868,1.32-6.236
					c0.166-0.543,0.356-1.033,0.549-1.499l-1.012-0.215c-0.204,0.498-0.431,1.016-0.736,1.546c-0.959,1.653-1.921,2.967-2.503,3.982
					c-0.604,0.996-0.85,1.679-1.066,1.657c-0.198-0.011-0.312-0.864,0.098-2.092c0.38-1.228,1.266-2.732,2.165-4.288
					c0.211-0.362,0.398-0.742,0.58-1.117l-1.325-0.281c-0.928,0.544-1.774,0.833-2.377,1.076c-0.71,0.258-1.151,0.442-1.303,0.295
					c-0.148-0.14,0.103-0.665,0.758-1.207c0.636-0.554,1.641-1.07,2.524-1.675c0.115-0.081,0.219-0.17,0.328-0.255
					c0.345-2.234,1.526-5.805,5.583-5.395c5.146,0.52,3.157,6.967,2.599,8.523c0.002,0.545-0.011,1.145-0.044,1.776
					C131.929,432.755,131.609,434.705,131.192,434.708z"/>
			</g>
		</g>
		<g>
			<path style="fill:#FFFFFF;" d="M73.774,389.436c0.585-0.352-0.277,6.842-2.689,7.448c-2.521,0.635-3.798-3.53-3.567-5.22
				c-0.592,2.082-0.497,6.111-3.71,5.674c-2.412-0.329-3.255-3.728-2.348-5.632c-0.843,1.696-0.759,6.225-3.94,5.246
				c-2.349-0.724-1.617-5.42-1.755-7.281C55.765,389.672,67.834,393.011,73.774,389.436z"/>
		</g>
		<path style="fill:#3B2A3D;" d="M78.989,386.692c0.05,0.081-0.287,0.372-0.947,0.833c-0.333,0.224-0.733,0.519-1.232,0.798
			c-0.522,0.27-1.099,0.567-1.728,0.891c-2.603,1.206-6.465,2.522-10.944,2.621c-9.022-0.433-15.316-4.177-15.117-4.458
			c0.041-0.086,0.478,0.013,1.235,0.266c0.401,0.143,0.855,0.305,1.366,0.487c0.548,0.148,1.153,0.313,1.813,0.493
			c0.653,0.205,1.416,0.36,2.22,0.551c0.801,0.195,1.668,0.387,2.586,0.582c0.439,0.089,0.966,0.232,1.364,0.284
			c0.486,0.074,0.982,0.15,1.486,0.228c0.251,0.037,0.508,0.085,0.762,0.114c0.247,0.007,0.496,0.013,0.747,0.019
			c0.5,0.017,1.008,0.034,1.522,0.051c4.212-0.091,7.964-1.195,10.581-2.139c0.642-0.249,1.23-0.477,1.764-0.683
			c0.519-0.207,0.945-0.427,1.313-0.575C78.508,386.746,78.939,386.611,78.989,386.692z"/>
		<path style="fill:#FFFFFF;" d="M55.8,389.823"/>
	</g>
	<g>
		<g>
			<g>
				<path style="fill:#FB7688;" d="M409.643,456.262l-20.875-21.99c9.721-4.621,21.99-14.82,29.799-24.539
					c-24.221-0.478-40.315-18.166-40.315-36.65c0-20.715,20.396-39.678,43.183-39.678c20.557,0,41.75,15.615,41.75,38.084v0.16
					C465.255,400.49,448.842,432.041,409.643,456.262z M420.318,386.467c8.605,0,13.386-6.533,13.386-13.545
					c0-8.924-7.489-12.906-13.863-12.906c-6.692,0-12.907,4.461-12.907,12.428C406.934,378.658,410.758,386.467,420.318,386.467z"/>
			</g>
		</g>
		<g>
			<path style="fill:#ED3D55;" d="M422.432,386.31c0.682,0.093,1.385,0.156,2.137,0.156c8.605,0,13.386-6.533,13.386-13.545
				c0-8.924-7.489-12.906-13.863-12.906c-0.704,0-1.4,0.061-2.087,0.158c5.789,0.8,11.7,4.819,11.7,12.748
				C433.704,379.334,429.696,385.329,422.432,386.31z"/>
			<path style="fill:#ED3D55;" d="M393.018,434.272c9.721-4.621,21.99-14.82,29.799-24.539
				c-24.221-0.478-40.315-18.166-40.315-36.65c0-20.06,19.126-38.475,41.027-39.621c-0.698-0.035-1.397-0.057-2.095-0.057
				c-22.786,0-43.183,18.963-43.183,39.678c0,18.484,16.095,36.172,40.315,36.65c-7.809,9.719-20.078,19.918-29.799,24.539
				l20.875,21.99c0.9-0.557,1.775-1.12,2.651-1.684L393.018,434.272z"/>
		</g>
		<g>
			<g>
				<path style="fill:#FB7688;" d="M453.899,414.94c-3.351,0.307-5.813-0.286-5.875-0.302l0.473-1.865
					c0.588,0.149,14.453,3.425,20.055-12.224c5.602-15.654-6.478-20.801-6.994-21.012l0.729-1.782
					c0.144,0.06,14.292,6.076,8.076,23.441C466.578,411.771,459.149,414.46,453.899,414.94z"/>
			</g>
		</g>
		<g>
			<g>
				<path style="fill:#FB7688;" d="M375.903,370.959c2.152-2.586,4.313-3.908,4.368-3.94l0.984,1.652
					c-0.521,0.311-12.642,7.798-5.537,22.824c7.107,15.03,19.288,10.128,19.803,9.912l0.745,1.775
					c-0.144,0.06-14.402,5.809-22.286-10.865C369.18,382.165,372.531,375.01,375.903,370.959z"/>
			</g>
		</g>
		<g>
			<path style="fill:#3B2A3D;" d="M437.323,356.207c-0.086,0.025-0.328-0.463-0.482-1.384c-0.174-0.919-0.277-2.256-0.4-3.876
				c-0.138-1.612-0.284-3.549-0.893-5.491c-0.313-0.956-0.743-1.931-1.467-2.64c-0.087-0.091-0.162-0.197-0.259-0.278l-0.31-0.22
				c-0.208-0.139-0.401-0.333-0.632-0.397l-0.668-0.302c-0.302-0.063-0.605-0.126-0.911-0.189c-1.015-0.134-2.207-0.144-3.065,0.325
				c-0.892,0.425-1.573,1.167-2.078,2.003c-0.956,1.733-1.313,3.642-1.513,5.217c-0.372,3.186-0.27,5.231-0.522,5.245
				c-0.175,0.018-0.676-1.983-0.578-5.335c0.075-1.663,0.294-3.71,1.356-5.828c0.565-1.031,1.436-2.068,2.671-2.681
				c0.315-0.129,0.633-0.268,0.959-0.379c0.336-0.059,0.674-0.117,1.015-0.177c0.344-0.077,0.678-0.012,1.021-0.022l0.514,0.016
				l0.129,0.004l0.19,0.036l0.228,0.048c0.306,0.064,0.609,0.128,0.91,0.191c0.335,0.122,0.684,0.279,1.017,0.427
				c0.355,0.129,0.605,0.366,0.889,0.566l0.409,0.311c0.128,0.112,0.229,0.248,0.343,0.371c0.941,0.979,1.413,2.175,1.728,3.269
				c0.603,2.222,0.616,4.224,0.619,5.869c-0.017,1.65-0.082,2.963-0.097,3.867C437.412,355.68,437.446,356.178,437.323,356.207z"/>
			<path style="fill:#3B2A3D;" d="M419.399,355.603c-0.086,0.025-0.328-0.463-0.482-1.384c-0.174-0.919-0.277-2.256-0.401-3.876
				c-0.138-1.611-0.283-3.549-0.893-5.491c-0.313-0.956-0.743-1.93-1.467-2.639c-0.087-0.091-0.162-0.197-0.259-0.278l-0.31-0.22
				c-0.208-0.14-0.401-0.334-0.632-0.397l-0.668-0.302c-0.302-0.063-0.605-0.126-0.91-0.189c-1.016-0.134-2.208-0.144-3.064,0.325
				c-0.893,0.425-1.574,1.166-2.079,2.002c-0.956,1.733-1.313,3.643-1.513,5.218c-0.372,3.185-0.27,5.23-0.522,5.244
				c-0.176,0.018-0.676-1.983-0.578-5.335c0.075-1.663,0.294-3.71,1.356-5.828c0.565-1.031,1.436-2.067,2.671-2.681
				c0.316-0.128,0.634-0.267,0.959-0.378c0.336-0.059,0.674-0.117,1.016-0.177c0.343-0.077,0.677-0.013,1.02-0.021l0.514,0.016
				l0.129,0.004l0.19,0.036l0.229,0.048c0.306,0.065,0.609,0.128,0.911,0.191c0.334,0.122,0.683,0.278,1.016,0.427
				c0.355,0.129,0.605,0.366,0.889,0.565l0.41,0.312c0.127,0.111,0.229,0.248,0.342,0.37c0.941,0.979,1.413,2.176,1.729,3.268
				c0.603,2.222,0.617,4.224,0.62,5.87c-0.017,1.649-0.082,2.962-0.097,3.866C419.488,355.075,419.522,355.573,419.399,355.603z"/>
		</g>
		<path style="fill:#3B2A3D;" d="M444.962,350.58c0.089,0.06-0.219,0.669-0.86,1.727c-0.308,0.536-0.806,1.12-1.337,1.832
			c-0.251,0.367-0.647,0.675-1.004,1.047c-0.378,0.345-0.758,0.789-1.217,1.066c-0.45,0.314-0.919,0.642-1.406,0.983
			c-0.597,0.357-1.112,0.602-1.707,0.924c-0.291,0.151-0.588,0.305-0.889,0.461c-0.314,0.131-0.632,0.264-0.954,0.398
			c-0.651,0.256-1.303,0.578-2.018,0.773c-2.8,0.971-6.036,1.525-9.408,1.714c-0.846,0.033-1.681,0.066-2.505,0.099
			c-0.811,0.005-1.611,0.01-2.398,0.015c-0.817-0.022-1.607-0.08-2.385-0.12c-0.772-0.084-1.522-0.212-2.255-0.315
			c-2.917-0.531-5.427-1.462-7.446-2.396c-1.979-1.01-3.508-2.055-4.433-2.859c-0.898-0.834-1.363-1.335-1.296-1.419
			c0.067-0.084,0.66,0.256,1.676,0.943c1.036,0.651,2.528,1.468,4.504,2.326c2,0.772,4.439,1.555,7.229,1.985
			c0.699,0.077,1.415,0.184,2.147,0.249c0.732,0.024,1.479,0.05,2.24,0.075c0.787-0.012,1.587-0.024,2.398-0.038
			c0.8-0.034,1.611-0.068,2.432-0.104c3.283-0.185,6.368-0.674,9.058-1.523c0.688-0.167,1.314-0.456,1.945-0.679
			c0.314-0.116,0.622-0.231,0.927-0.346c0.294-0.138,0.583-0.272,0.868-0.406c0.549-0.265,1.164-0.537,1.605-0.764
			c0.507-0.311,0.995-0.611,1.462-0.898c0.501-0.263,0.815-0.618,1.189-0.906c0.347-0.314,0.725-0.546,0.999-0.877
			c0.568-0.63,1.112-1.128,1.492-1.604C444.395,351.011,444.873,350.52,444.962,350.58z"/>
		<path style="fill:#3B2A3D;" d="M403.258,353.753c-0.008,0.22-0.239,0.43-0.485,0.615c-0.241,0.229-0.482,0.458-0.736,0.797
			c-0.242,0.357-0.433,0.741-0.619,1.005c-0.175,0.347-0.354,0.619-0.576,0.605c-0.209-0.013-0.422-0.23-0.526-0.666
			c-0.078-0.513,0.008-1.205,0.448-1.851c0.461-0.648,1.208-0.964,1.72-0.957C403.005,353.343,403.269,353.547,403.258,353.753z"/>
		<path style="fill:#3B2A3D;" d="M445.717,352.242c-0.215,0.015-0.44-0.125-0.611-0.285c-0.212-0.142-0.365-0.31-0.527-0.416
			c-0.156-0.113-0.302-0.21-0.436-0.362c-0.259-0.103-0.5-0.23-0.541-0.447c-0.04-0.207,0.047-0.445,0.329-0.637
			c0.411-0.193,1.063-0.197,1.592,0.203c0.54,0.399,0.662,0.991,0.643,1.352C446.102,352.029,445.93,352.228,445.717,352.242z"/>
		<path style="fill:#FCA08B;" d="M392.628,348.465c0-1.439,1.29-2.604,2.881-2.604s2.881,1.165,2.881,2.604
			c0,1.437-1.29,2.603-2.881,2.603S392.628,349.901,392.628,348.465z"/>
		<path style="fill:#FCA08B;" d="M447.212,348.465c0-1.439,1.29-2.604,2.881-2.604c1.591,0,2.881,1.165,2.881,2.604
			c0,1.437-1.29,2.603-2.881,2.603C448.502,351.067,447.212,349.901,447.212,348.465z"/>
	</g>
	<g>
		<g>
			<path style="fill:#F65690;" d="M241.403,258.365c0,23.902-20.875,41.431-49.717,41.431c-18.325,0-30.595-6.852-39.518-21.831
				l16.571-23.742c5.737,9.401,13.386,14.342,22.149,14.342c8.924,0,15.298-5.897,15.457-14.183
				c0.159-7.967-5.736-14.501-13.704-14.501c-5.258,0-9.401,1.116-15.138,4.94l-8.127-20.875l23.265-19.122l-37.446,0.478v-27.567
				l81.745-0.159l0.638,26.611l-21.672,14.66C230.09,224.106,241.403,240.678,241.403,258.365z"/>
		</g>
		<g>
			<path style="fill:#EB3677;" d="M209.243,251.516c0.159-7.968-5.736-14.501-13.704-14.501c-5.258,0-9.401,1.116-15.138,4.94
				l-7.983-20.506l-3.04,2.498l8.127,20.875c5.736-3.824,9.88-4.94,15.138-4.94c7.968,0,13.863,6.533,13.704,14.501
				c-0.061,3.197-1.056,6.032-2.757,8.316C207.038,260.177,209.152,256.237,209.243,251.516z"/>
			<path style="fill:#EB3677;" d="M194.582,296.93c-18.325,0-30.595-6.852-39.518-21.832l14.104-20.207
				c-0.142-0.225-0.288-0.438-0.429-0.668l-16.571,23.742c8.923,14.979,21.192,21.831,39.518,21.831
				c16.777,0,30.848-5.939,39.693-15.605C222.502,292.15,209.631,296.93,194.582,296.93z"/>
			<polygon style="fill:#EB3677;" points="195.492,201.958 158,202.436 158,177.73 155,177.736 155,205.303 191.92,204.833 			"/>
		</g>
		<path style="fill:#3B2A3D;" d="M201.157,185.178c0.085-0.027,0.335,0.458,0.504,1.376c0.188,0.917,0.313,2.252,0.463,3.87
			c0.163,1.609,0.34,3.544,0.98,5.476c0.327,0.951,0.774,1.918,1.508,2.615c0.088,0.09,0.166,0.195,0.263,0.274l0.313,0.215
			c0.21,0.136,0.407,0.327,0.638,0.388l0.673,0.29c0.303,0.058,0.607,0.116,0.914,0.175c1.017,0.117,2.209,0.109,3.059-0.374
			c0.885-0.439,1.555-1.191,2.046-2.036c0.929-1.748,1.255-3.662,1.429-5.24c0.322-3.191,0.187-5.235,0.439-5.252
			c0.175-0.02,0.708,1.973,0.663,5.325c-0.049,1.664-0.235,3.714-1.263,5.849c-0.548,1.04-1.403,2.09-2.628,2.722
			c-0.313,0.134-0.629,0.277-0.953,0.394c-0.335,0.064-0.672,0.128-1.012,0.193c-0.342,0.083-0.677,0.023-1.02,0.038l-0.514-0.007
			l-0.129-0.003l-0.191-0.033l-0.229-0.044c-0.306-0.06-0.611-0.119-0.913-0.177c-0.337-0.117-0.688-0.268-1.023-0.411
			c-0.358-0.124-0.611-0.357-0.897-0.552l-0.415-0.305c-0.129-0.109-0.232-0.244-0.348-0.365c-0.957-0.964-1.448-2.152-1.781-3.241
			c-0.638-2.212-0.684-4.213-0.713-5.859c-0.009-1.65,0.035-2.963,0.036-3.868C201.076,185.706,201.035,185.21,201.157,185.178z"/>
		<path style="fill:#3B2A3D;" d="M220.008,184.884c0.085-0.027,0.335,0.458,0.504,1.376c0.189,0.917,0.314,2.251,0.463,3.87
			c0.164,1.609,0.34,3.543,0.98,5.476c0.327,0.951,0.773,1.918,1.508,2.615c0.088,0.09,0.165,0.195,0.263,0.274l0.313,0.215
			c0.21,0.136,0.407,0.327,0.638,0.388l0.673,0.29c0.303,0.058,0.607,0.116,0.914,0.175c1.017,0.117,2.209,0.109,3.059-0.374
			c0.885-0.439,1.555-1.192,2.046-2.036c0.928-1.748,1.254-3.663,1.429-5.241c0.322-3.191,0.187-5.235,0.439-5.253
			c0.175-0.02,0.708,1.973,0.663,5.326c-0.048,1.664-0.234,3.714-1.263,5.849c-0.549,1.04-1.403,2.09-2.628,2.723
			c-0.313,0.133-0.629,0.277-0.953,0.394c-0.335,0.064-0.672,0.128-1.012,0.193c-0.342,0.083-0.677,0.023-1.02,0.038l-0.514-0.007
			l-0.129-0.002l-0.191-0.033l-0.229-0.044c-0.306-0.06-0.611-0.119-0.913-0.177c-0.337-0.117-0.688-0.268-1.023-0.411
			c-0.357-0.124-0.611-0.357-0.897-0.552l-0.415-0.305c-0.129-0.109-0.232-0.244-0.348-0.365c-0.957-0.964-1.448-2.152-1.781-3.241
			c-0.638-2.212-0.684-4.213-0.713-5.859c-0.009-1.65,0.035-2.963,0.035-3.868C219.927,185.413,219.885,184.916,220.008,184.884z"/>
		<g>
			<g>
				<g>
					<path style="fill:#F65690;" d="M179.682,235.413c-5.255,2.149-10.158,2.192-14.632,0.118
						c-7.703-3.57-11.518-12.44-11.707-13.979l1.909-0.237l-0.955,0.118l0.954-0.124c0.132,0.818,3.55,9.365,10.859,12.589
						c5.308,2.342,11.384,1.316,18.052-3.053l1.054,1.609C183.332,233.689,181.486,234.675,179.682,235.413z"/>
				</g>
				<g>
					<path style="fill:#F65690;" d="M147.487,217.089c0,0,2.463,8.608,7.429,5.431c4.966-3.178,0.09-9.157,0.09-9.157
						L147.487,217.089z"/>
				</g>
				<g>
					<g>
						<path style="fill:#F65690;" d="M144.125,210.631c0.321-0.259,1.83,1.085,3.244,3.092c1.416,2.005,2.186,3.866,1.838,4.085
							c-0.354,0.224-1.678-1.253-3.066-3.218C144.756,212.625,143.799,210.893,144.125,210.631z"/>
					</g>
				</g>
				<g>
					<g>
						<path style="fill:#F65690;" d="M147.143,205.831c0.389-0.092,1.466,2.501,2.825,5.725c0.678,1.753,0.905,3.311,1.175,4.397
							c0.238,1.093,0.459,1.753,0.28,1.873c-0.164,0.115-0.753-0.422-1.28-1.514c-0.55-1.073-0.969-2.658-1.568-4.191
							C147.195,208.848,146.721,205.929,147.143,205.831z"/>
					</g>
				</g>
				<g>
					<g>
						<path style="fill:#F65690;" d="M150.53,204.014c0.162-0.115,0.78,0.485,1.218,1.705c0.462,1.202,0.698,2.936,0.955,4.718
							c0.123,0.865,0.363,1.727,0.513,2.516c0.159,0.787,0.283,1.501,0.365,2.105c0.165,1.21,0.167,1.986-0.034,2.038
							c-0.201,0.052-0.568-0.634-0.999-1.787c-0.215-0.577-0.447-1.27-0.682-2.046c-0.224-0.778-0.505-1.616-0.648-2.595
							c-0.271-1.896-0.329-3.528-0.5-4.688C150.576,204.821,150.346,204.131,150.53,204.014z"/>
					</g>
				</g>
				<g>
					<g>
						<path style="fill:#F65690;" d="M157.279,208.654c0.202,0.017,0.331,0.586,0.151,1.42c-0.157,0.831-0.627,1.862-0.945,2.888
							c-0.303,1.026-0.39,2.059-0.515,2.841c-0.12,0.783-0.292,1.288-0.501,1.289c-0.206,0.001-0.408-0.473-0.561-1.273
							c-0.143-0.792-0.243-1.983,0.137-3.287c0.408-1.283,1.016-2.176,1.392-2.836C156.835,209.052,157.066,208.632,157.279,208.654
							z"/>
					</g>
				</g>
			</g>
		</g>
		<g>
			<g>
				<path style="fill:#F65690;" d="M234.111,247.286l-0.327-1.896c0.597-0.104,14.598-2.745,13.354-19.32
					c-1.239-16.522-17.5-16.38-18.058-16.355l-0.057-1.924c0.158,0.001,18.653-0.257,20.033,18.134
					C250.434,244.273,234.274,247.257,234.111,247.286z"/>
			</g>
		</g>
		<path style="fill:#3B2A3D;" d="M223.024,201.304c0.191,0.006,0.491,1.7,0.624,4.541c0.041,1.42,0.032,3.13-0.37,5.044
			c-0.221,0.948-0.508,1.975-1.186,2.936c-0.139,0.252-0.358,0.467-0.573,0.687l-0.327,0.327l-0.441,0.284l-0.457,0.265
			c-0.148,0.074-0.257,0.088-0.388,0.136l-0.379,0.118l-0.095,0.03l-0.024,0.007l-0.124,0.03l-0.058,0.007l-0.23,0.028
			c-1.215,0.209-2.637-0.223-3.501-1.09c-0.867-0.859-1.302-1.876-1.607-2.814c-0.567-1.898-0.645-3.617-0.662-5.041
			c0.019-2.854,0.342-4.558,0.527-4.561c0.246-0.004,0.316,1.759,0.577,4.503c0.15,1.363,0.353,3.006,0.923,4.642
			c0.294,0.804,0.702,1.604,1.293,2.159c0.595,0.534,1.358,0.787,2.263,0.652l0.167-0.019l0.042-0.004l0.005-0.001
			c0.089-0.021-0.116,0.029-0.092,0.023l0.012-0.003l0.024-0.007l0.095-0.03l0.379-0.117c0.116-0.042,0.274-0.071,0.355-0.122
			c0.068-0.055,0.136-0.105,0.207-0.151c0.07-0.046,0.142-0.088,0.218-0.128l0.216-0.221c0.145-0.146,0.302-0.276,0.408-0.472
			c0.514-0.679,0.807-1.556,1.036-2.391c0.436-1.699,0.567-3.346,0.665-4.721C222.694,203.067,222.784,201.299,223.024,201.304z"/>
		<path style="fill:#3B2A3D;" d="M201.851,191.665c-0.011,0.213-0.553,0.346-1.475,0.352c-0.889-0.105-2.257-0.439-3.31-1.539
			c-1.026-1.089-1.41-2.352-1.587-3.242c-0.107-0.86-0.04-1.412,0.163-1.47c0.211-0.062,0.526,0.405,0.898,1.164
			c0.406,0.682,0.883,1.653,1.646,2.459c0.764,0.804,1.718,1.19,2.43,1.549C201.365,191.188,201.862,191.449,201.851,191.665z"/>
		<path style="fill:#3B2A3D;" d="M201.851,189.182c-0.014,0.197-0.487,0.394-1.267,0.228c-0.773-0.153-1.77-0.801-2.384-1.83
			c-0.618-1.024-0.755-2.117-0.659-2.861c0.099-0.792,0.382-1.135,0.585-1.126c0.436,0.082,0.48,1.669,1.41,3.176
			c0.455,0.747,1.004,1.277,1.481,1.625C201.487,188.744,201.874,188.954,201.851,189.182z"/>
		<path style="fill:#3B2A3D;" d="M236.624,186.698c0.205-0.028,0.432,0.259,0.527,0.834c0.05,0.562-0.152,1.416-0.774,2.068
			c-0.628,0.633-1.398,0.905-2.008,0.924c-0.524-0.022-0.808-0.208-0.849-0.411c-0.045-0.22,0.256-0.434,0.635-0.673
			c0.284-0.237,0.706-0.534,1.09-0.917c0.37-0.397,0.599-0.803,0.813-1.153C236.223,187.02,236.405,186.725,236.624,186.698z"/>
		<path style="fill:#3B2A3D;" d="M237.867,190.734c0.186,0.098,0.213,0.456,0.026,0.974c-0.21,0.496-0.689,1.147-1.474,1.558
			c-0.79,0.395-1.613,0.401-2.18,0.26c-0.484-0.169-0.734-0.408-0.719-0.618c0.016-0.22,0.345-0.367,0.802-0.484
			c0.373-0.156,0.874-0.297,1.387-0.55c0.502-0.265,0.927-0.589,1.301-0.831C237.359,190.785,237.673,190.631,237.867,190.734z"/>
	</g>
	<g>
		<g>
			<path style="fill:#FFFEFF;" d="M356.066,269.839l-17.211-0.478l-0.158,28.364l-31.551,0.956l0.797-29.957l-39.996-0.956
				l-1.594-89.395l29.319-1.912v61.986l12.907,0.797l0.797-28.842l29.639-8.764l-0.16,39.359l17.211,0.956V269.839z"/>
		</g>
		<g>
			<polygon style="fill:#E8E7E8;" points="310.939,239.149 311.696,209.716 309.377,210.402 308.642,239.008 			"/>
			<polygon style="fill:#E8E7E8;" points="338.726,267.266 338.697,269.426 356,269.839 356,267.679 			"/>
			<polygon style="fill:#E8E7E8;" points="309.505,296.586 310.302,266.629 270.306,265.673 268.746,178.217 266.353,178.373 
				267.947,267.768 307.943,268.724 307.146,298.681 338.697,297.725 338.709,295.701 			"/>
		</g>
		<path style="fill:#3B2A3D;" d="M327.563,244.608c-0.073,0.021-0.277-0.392-0.408-1.171c-0.147-0.778-0.234-1.909-0.34-3.28
			c-0.116-1.363-0.239-3.003-0.755-4.646c-0.265-0.809-0.629-1.633-1.241-2.233c-0.074-0.077-0.138-0.167-0.22-0.235l-0.262-0.186
			c-0.176-0.118-0.34-0.282-0.534-0.337l-0.565-0.255c-0.256-0.053-0.513-0.107-0.771-0.161c-0.859-0.113-1.868-0.122-2.593,0.275
			c-0.755,0.36-1.332,0.987-1.76,1.695c-0.809,1.466-1.11,3.082-1.279,4.415c-0.315,2.696-0.229,4.427-0.441,4.438
			c-0.15,0.015-0.573-1.679-0.49-4.515c0.064-1.407,0.249-3.139,1.147-4.931c0.478-0.873,1.215-1.75,2.261-2.269
			c0.267-0.109,0.536-0.226,0.811-0.32c0.284-0.049,0.57-0.099,0.858-0.149c0.291-0.066,0.573-0.01,0.863-0.018l0.435,0.013
			l0.109,0.003l0.161,0.03l0.193,0.041c0.259,0.055,0.516,0.109,0.771,0.163c0.284,0.103,0.578,0.236,0.859,0.361
			c0.301,0.11,0.513,0.311,0.752,0.479l0.348,0.263c0.107,0.095,0.193,0.21,0.289,0.313c0.797,0.829,1.196,1.841,1.463,2.766
			c0.511,1.88,0.523,3.574,0.524,4.967c-0.015,1.396-0.069,2.507-0.082,3.272C327.638,244.162,327.667,244.583,327.563,244.608z"/>
		<path style="fill:#3B2A3D;" d="M290.378,245.271c-0.073,0.021-0.278-0.392-0.408-1.171c-0.147-0.778-0.235-1.909-0.339-3.28
			c-0.117-1.363-0.24-3.003-0.756-4.646c-0.264-0.809-0.629-1.633-1.241-2.233c-0.074-0.077-0.138-0.167-0.22-0.235l-0.261-0.186
			c-0.176-0.118-0.34-0.282-0.535-0.336l-0.565-0.255c-0.256-0.053-0.513-0.106-0.771-0.161c-0.859-0.113-1.868-0.122-2.593,0.275
			c-0.756,0.359-1.332,0.987-1.76,1.695c-0.809,1.466-1.11,3.082-1.279,4.415c-0.315,2.695-0.228,4.426-0.441,4.438
			c-0.149,0.014-0.573-1.679-0.49-4.515c0.063-1.407,0.248-3.139,1.147-4.931c0.478-0.873,1.215-1.751,2.261-2.269
			c0.267-0.108,0.536-0.227,0.81-0.32c0.285-0.049,0.571-0.1,0.859-0.149c0.291-0.066,0.573-0.01,0.864-0.018l0.435,0.013
			l0.108,0.004l0.161,0.03l0.194,0.041c0.258,0.055,0.515,0.109,0.77,0.163c0.284,0.103,0.579,0.236,0.859,0.361
			c0.301,0.109,0.513,0.31,0.752,0.479l0.348,0.263c0.107,0.095,0.193,0.21,0.289,0.314c0.798,0.828,1.195,1.84,1.464,2.766
			c0.51,1.88,0.522,3.574,0.523,4.967c-0.014,1.396-0.069,2.507-0.082,3.272C290.453,244.825,290.481,245.246,290.378,245.271z"/>
		<g>
			<path style="fill:#F68D6B;" d="M305.855,252.837c0,0,1.61,7.31,6.236,6.602c4.627-0.708,3.42-7.905,3.42-7.905L305.855,252.837z"
				/>
			<path style="fill:#C1654D;" d="M311.785,256.391c-0.369-0.039-0.579-1.081-0.872-2.287c-0.12-0.427-0.24-0.854-0.401-1.426
				c-0.007-0.184-0.17-0.365-0.189-0.505c-0.042-0.143-0.036-0.254,0.025-0.322c0.061-0.069,0.169-0.089,0.314-0.064
				c0.146,0.044,0.324,0.04,0.535,0.255c0.488,0.404,0.79,1.014,0.998,1.742C312.546,255.24,312.14,256.435,311.785,256.391z"/>
		</g>
		<path style="fill:#3B2A3D;" d="M326.874,245.408c0.051,0.05-0.386,0.636-1.38,1.486c-0.984,0.858-2.548,1.964-4.667,2.966
			c-2.112,1.007-4.761,1.929-7.783,2.57c-3.023,0.628-6.415,0.995-9.978,0.953c-7.131-0.062-13.54-1.806-17.626-4.133
			c-2.06-1.138-3.522-2.38-4.42-3.348c-0.469-0.47-0.752-0.878-0.949-1.159c-0.193-0.281-0.279-0.444-0.245-0.474
			c0.18-0.175,1.952,2.17,6.049,4.153c4.04,2.03,10.26,3.578,17.207,3.639c3.469,0.041,6.772-0.281,9.725-0.827
			c2.951-0.559,5.545-1.361,7.64-2.228C324.663,247.274,326.716,245.22,326.874,245.408z"/>
		<path style="fill:#FCA08B;" d="M276.164,248.831c-1.009-0.682-1.389-1.883-0.85-2.685c0.54-0.802,1.795-0.899,2.804-0.218
			c1.008,0.681,1.388,1.882,0.849,2.685C278.427,249.414,277.172,249.511,276.164,248.831z"/>
		<path style="fill:#FCA08B;" d="M332.081,244.63c0.711,0.981,0.398,2.47-0.935,3.38c-0.784,0.479-1.644,0.711-2.194,0.492
			c-0.598-0.163-1.094-0.542-1.345-1.097c-0.251-0.554-0.209-1.179,0.061-1.742c0.348-0.564,0.59-1.069,1.058-1.335
			C329.801,243.594,331.364,243.643,332.081,244.63z"/>
	</g>
	<g>
		<g>
			<g>
				<path style="fill:#F68D6B;" d="M230.587,363.725c-11.951,14.341-20.556,28.683-29.16,45.732
					c-5.259,10.517-10.836,24.858-18.484,47.645h-37.446c5.736-18.484,12.11-35.216,17.528-47.007
					c7.489-16.572,15.935-33.623,24.061-44.936l-43.501,1.275V335.68h86.207L230.587,363.725z"/>
			</g>
		</g>
		<path style="fill:#EB673D;" d="M149.906,455c5.736-18,12.11-35.04,17.528-46.831c7.489-16.572,15.938-33.535,24.063-44.849
			L148,364.684V336h-4v30.434l43.293-1.275c-8.126,11.314-16.675,28.314-24.165,44.886C157.71,421.835,151.232,439,145.496,457
			h37.446c0.2,0,0.393-1,0.591-2H149.906z"/>
		<g>
			<g>
				<path style="fill:#F68D6B;" d="M198.274,425.769c-3.365,0-5.762-0.814-5.823-0.836l0.64-1.814
					c0.573,0.202,14.082,4.728,21.085-10.346c7.005-15.079-4.555-21.305-5.051-21.562l0.888-1.708
					c0.138,0.072,13.679,7.353,5.908,24.079C211.188,423.768,203.545,425.769,198.274,425.769z"/>
			</g>
		</g>
		<g>
			<g>
				<path style="fill:#F68D6B;" d="M174.631,381.797c3.364,0,5.762,0.814,5.823,0.836l-0.64,1.814
					c-0.573-0.202-14.082-4.728-21.085,10.346c-7.005,15.079,4.555,21.304,5.051,21.561l-0.888,1.708
					c-0.137-0.072-13.679-7.353-5.907-24.079C161.717,383.798,169.36,381.797,174.631,381.797z"/>
			</g>
		</g>
		<g>
			<path style="fill:#3B2A3D;" d="M216.205,359.593c-0.086,0.025-0.328-0.463-0.482-1.384c-0.174-0.919-0.278-2.256-0.401-3.876
				c-0.138-1.611-0.284-3.549-0.893-5.491c-0.312-0.956-0.743-1.93-1.466-2.639c-0.087-0.091-0.163-0.197-0.259-0.278l-0.31-0.22
				c-0.208-0.14-0.401-0.334-0.632-0.398l-0.668-0.302c-0.301-0.063-0.605-0.126-0.911-0.189c-1.015-0.134-2.207-0.143-3.064,0.324
				c-0.892,0.426-1.574,1.167-2.079,2.003c-0.956,1.733-1.313,3.643-1.512,5.218c-0.373,3.185-0.27,5.23-0.522,5.244
				c-0.175,0.017-0.676-1.983-0.579-5.335c0.075-1.663,0.294-3.71,1.356-5.828c0.565-1.031,1.436-2.067,2.672-2.681
				c0.315-0.128,0.633-0.267,0.959-0.378c0.336-0.059,0.674-0.117,1.015-0.177c0.344-0.077,0.677-0.013,1.021-0.022l0.514,0.016
				l0.129,0.004l0.19,0.036l0.229,0.048c0.305,0.064,0.609,0.128,0.91,0.191c0.335,0.122,0.684,0.278,1.016,0.427
				c0.356,0.129,0.605,0.366,0.889,0.565l0.41,0.312c0.127,0.111,0.229,0.248,0.342,0.37c0.942,0.979,1.413,2.176,1.729,3.269
				c0.602,2.222,0.617,4.224,0.62,5.87c-0.017,1.649-0.082,2.962-0.097,3.866C216.294,359.065,216.328,359.564,216.205,359.593z"/>
			<path style="fill:#3B2A3D;" d="M198.28,358.989c-0.086,0.025-0.328-0.463-0.482-1.384c-0.174-0.919-0.278-2.256-0.401-3.876
				c-0.138-1.612-0.284-3.55-0.893-5.491c-0.312-0.956-0.743-1.931-1.466-2.64c-0.087-0.091-0.163-0.197-0.259-0.278l-0.31-0.22
				c-0.208-0.139-0.401-0.333-0.632-0.397l-0.669-0.302c-0.301-0.063-0.605-0.126-0.911-0.189c-1.015-0.134-2.208-0.144-3.064,0.325
				c-0.892,0.425-1.574,1.166-2.079,2.003c-0.956,1.733-1.313,3.642-1.512,5.217c-0.372,3.186-0.27,5.232-0.522,5.245
				c-0.175,0.017-0.677-1.983-0.579-5.335c0.075-1.663,0.294-3.71,1.355-5.828c0.565-1.031,1.436-2.068,2.672-2.681
				c0.314-0.129,0.633-0.268,0.958-0.379c0.336-0.059,0.674-0.117,1.015-0.177c0.344-0.077,0.677-0.013,1.02-0.021l0.514,0.016
				l0.129,0.004l0.19,0.036l0.229,0.048c0.305,0.064,0.609,0.128,0.91,0.191c0.335,0.122,0.684,0.279,1.016,0.427
				c0.356,0.129,0.605,0.367,0.889,0.566l0.41,0.311c0.127,0.112,0.229,0.248,0.343,0.371c0.941,0.979,1.413,2.175,1.729,3.268
				c0.603,2.222,0.617,4.224,0.62,5.869c-0.017,1.65-0.082,2.963-0.097,3.867C198.37,358.462,198.403,358.96,198.28,358.989z"/>
		</g>
		<path style="fill:#FFFFFF;" d="M186.036,366.948l37.094-3.929c0,0-8.389,29.975-39.86,7.818L186.036,366.948z"/>
		<path style="fill:#D34242;" d="M191.509,375.796c0,0,5.111-5.75,13.096-5.75c7.985,0,11.262,4.472,11.262,4.472
			s-3.624,4.455-12.22,4.472C197.921,379,191.509,375.796,191.509,375.796z"/>
	</g>
	<g>
		<g>
			<g>
				<path style="fill:#A069A8;" d="M269.625,373.938c3.329-0.487,5.819-0.028,5.883-0.016l-0.37,1.888
					c-0.597-0.117-14.618-2.639-19.365,13.29c-4.748,15.934,7.592,20.42,8.119,20.602l-0.631,1.819
					c-0.146-0.052-14.599-5.295-9.332-22.971C257.137,377.787,264.409,374.701,269.625,373.938z"/>
			</g>
		</g>
		<g>
			<g>
				<path style="fill:#A069A8;" d="M338.157,417.109c0,21.353-16.253,36.491-39.837,36.491c-24.061,0-43.502-15.775-43.502-34.42
					c0-11.791,7.648-22.786,21.193-30.275c-13.704-7.012-19.76-14.819-19.76-25.496c0-18.325,18.166-33.781,40.156-33.781
					c21.672,0,38.721,15.138,38.721,33.94c0,10.518-3.824,18.963-17.368,25.337C329.074,392.889,338.157,404.202,338.157,417.109z
					 M284.616,364.206c0,5.418,5.099,10.677,13.386,13.545c5.099-3.347,8.604-8.765,8.604-13.386c0-5.577-4.94-10.357-10.995-10.357
					C289.715,354.008,284.616,358.629,284.616,364.206z M310.111,417.269c0.319-6.533-5.099-12.27-13.703-14.5
					c-11.792,4.462-11.154,13.863-11.154,14.5c0.318,6.533,5.895,11.792,12.27,11.792
					C303.897,429.06,309.793,423.643,310.111,417.269z"/>
			</g>
		</g>
		<g>
			<path style="fill:#883894;" d="M312.739,415.157c0.319-6.533-5.099-12.27-13.703-14.5c-3.091,1.17-5.321,2.679-6.939,4.28
				c1.213-0.796,2.632-1.533,4.312-2.169c8.604,2.23,14.022,7.967,13.703,14.5c-0.147,2.954-1.502,5.694-3.538,7.794
				C310.026,422.94,312.535,419.25,312.739,415.157z"/>
			<path style="fill:#883894;" d="M300.961,375.409c4.916-3.36,8.273-8.636,8.273-13.155c0-5.577-4.941-10.357-10.995-10.357
				c-3.294,0-6.337,1.443-8.383,3.688c1.694-0.991,3.672-1.577,5.755-1.577c6.055,0,10.995,4.78,10.995,10.357
				C306.606,368.022,304.405,372.176,300.961,375.409z"/>
			<path style="fill:#883894;" d="M300.948,451.489c-24.061,0-43.502-15.775-43.502-34.42c0-8.813,4.275-17.18,12.09-23.972
				c-9.473,7.13-14.718,16.331-14.718,26.083c0,18.645,19.44,34.42,43.502,34.42c11.515,0,21.273-3.616,28.255-9.795
				C319.856,448.688,311.082,451.489,300.948,451.489z"/>
			<path style="fill:#883894;" d="M275.537,388.652c1.001-0.639,2.026-1.264,3.103-1.858c-13.704-7.012-19.76-14.819-19.76-25.496
				c0-8.927,4.318-17.166,11.282-23.276c-8.491,6.246-13.91,15.386-13.91,25.388C256.252,373.958,262.178,381.705,275.537,388.652z"
				/>
		</g>
		<g>
			<g>
				<g>
					<path style="fill:#A069A8;" d="M326.769,385.603c5.678,0,10.231-1.815,13.588-5.429c5.779-6.221,5.953-15.874,5.546-17.37
						l-1.856,0.503l0.929-0.252l-0.931,0.247c0.188,0.807,0.259,10.012-5.287,15.763c-4.026,4.177-10.038,5.526-17.864,4.006
						l-0.366,1.889C322.737,385.388,324.819,385.603,326.769,385.603z"/>
				</g>
				<path style="fill:#A069A8;" d="M350.477,350.668c-0.395-0.117-1.282,1.698-1.832,4.09c-0.13,0.564-0.228,1.104-0.299,1.605
					l-1.525-0.109c-0.033-0.557-0.065-1.126-0.074-1.704c0.039-3.551-0.627-6.433-1.055-6.364c-0.395,0.062-0.411,2.87-0.448,6.368
					c0.011,0.568,0.058,1.093,0.115,1.595l-1.033-0.074c-0.059-0.536-0.134-1.098-0.282-1.693c-0.467-1.857-1.031-3.39-1.313-4.528
					c-0.307-1.126-0.355-1.852-0.569-1.892c-0.193-0.045-0.539,0.744-0.482,2.04c0.027,1.287,0.465,2.981,0.902,4.728
					c0.103,0.408,0.179,0.825,0.249,1.236l-1.353-0.097c-0.743-0.783-1.477-1.297-1.99-1.698c-0.613-0.446-0.985-0.747-1.174-0.646
					c-0.181,0.093-0.084,0.668,0.397,1.372c0.46,0.71,1.285,1.486,1.968,2.315c0.088,0.109,0.165,0.224,0.246,0.336
					c-0.284,2.246-0.131,6.012,3.887,6.747c5.097,0.933,4.96-5.825,4.852-7.477c0.152-0.524,0.304-1.105,0.446-1.722
					C350.647,352.752,350.877,350.787,350.477,350.668z"/>
			</g>
		</g>
		<g>
			<g>
				<path style="fill:#FFFFFF;" d="M299.373,348.6c-0.536-4.411-0.892-13.5,6.004-13.015c6.965,0.49,6.103,8.679,6.364,12.91
					L299.373,348.6z"/>
			</g>
			<path style="fill:#83ACDD;" d="M306.067,335.547c-1.936,4.309-1.786,8.693-0.293,13.131l6.128-0.165
				C311.902,348.513,312.867,335.637,306.067,335.547z"/>
			<path style="fill:#FFFFFF;" d="M307.361,341.884c0.023,0.319-0.31,0.629-0.836,0.771c-0.522,0.148-1.192,0.144-1.84,0.026
				c-0.654-0.12-1.154-0.303-1.49-0.491c-0.068-0.041-0.174-0.094-0.212-0.146c-0.046-0.047-0.088-0.124-0.177-0.161
				c-0.175-0.073-0.304-0.183-0.373-0.328c-0.069-0.145-0.071-0.315-0.018-0.495c0.026-0.089,0.14-0.191,0.267-0.289
				c0.135-0.097,0.235-0.158,0.391-0.231c0.569-0.253,1.32-0.291,2.023-0.162C306.523,340.672,307.292,341.266,307.361,341.884z"/>
		</g>
		<g>
			<g>
				<path style="fill:#FFFFFF;" d="M282.877,348.935c-0.536-4.411-0.891-13.499,6.005-13.014c6.964,0.489,6.104,8.679,6.364,12.91
					L282.877,348.935z"/>
			</g>
			<path style="fill:#83ACDD;" d="M289.572,335.883c-1.937,4.308-1.787,8.694-0.293,13.13l6.128-0.165
				C295.407,348.848,296.37,335.972,289.572,335.883z"/>
			<path style="fill:#FFFFFF;" d="M290.866,342.219c0.023,0.32-0.31,0.629-0.836,0.771c-0.523,0.148-1.192,0.144-1.839,0.026
				c-0.655-0.12-1.155-0.303-1.491-0.491c-0.067-0.041-0.174-0.094-0.212-0.145c-0.046-0.048-0.088-0.125-0.177-0.162
				c-0.175-0.072-0.304-0.182-0.373-0.328c-0.069-0.146-0.072-0.314-0.018-0.495c0.026-0.088,0.14-0.191,0.266-0.288
				c0.136-0.097,0.235-0.158,0.392-0.232c0.569-0.253,1.318-0.291,2.021-0.163C290.028,341.007,290.796,341.602,290.866,342.219z"/>
		</g>
		<path style="fill:#3B2A3D;" d="M323.161,349.45c0.021,0.192-2.943,0.597-7.766,1.095c-4.814,0.648-11.514,0.737-18.907,0.909
			c-7.4-0.221-14.104-0.391-18.903-0.965c-4.814-0.463-7.783-0.846-7.771-1.039c0.013-0.192,3.008-0.16,7.839,0.048
			c4.834,0.322,11.493,0.331,18.841,0.552c7.353-0.173,14.02-0.103,18.83-0.495C320.143,349.311,323.14,349.258,323.161,349.45z"/>
	</g>
	<g>
		<g>
			<g>
				<path style="fill:#615FA3;" d="M176.813,68.066c0-7.276,5.759-13.104,12.932-13.208c5.069-0.069,10.276,2.793,11.794,8.828
					l-6,1.828c-0.621-1.794-2.725-3.76-5.725-3.76c-3.276,0-6.104,1.966-6.104,6.242c0,4.207,2.828,6.587,6.035,6.587
					c3.069,0,5.345-2.38,5.794-3.897l5.621,1.932c-0.828,4.966-6.173,8.862-11.69,8.862
					C182.503,81.48,176.813,75.273,176.813,68.066z"/>
				<path style="fill:#615FA3;" d="M215.093,81.239l-0.035-1.621c-1.241,1.069-3.207,1.759-5.138,1.759
					c-4.655,0-8.414-4.173-8.414-9.345c0-5.276,3.896-9.312,8.932-9.312c1.828,0,3.483,0.655,4.448,1.69v-1.483h5.725l0.793,18.312
					H215.093z M214.61,71.722c0-1.896-1.345-3.311-3.207-3.311c-2.035,0-3.793,1.655-3.793,3.621c0,1.861,1.69,3.655,3.483,3.655
					C212.955,75.688,214.61,73.825,214.61,71.722z"/>
				<path style="fill:#615FA3;" d="M237.716,64.997l-2.379,5.345c-0.655-0.896-1.621-1.379-2.725-1.379
					c-2.483,0-3.655,1.62-3.828,5.655v6.621h-6.414V62.858h6.414v1.587c1.172-1.035,2.828-1.725,4.379-1.759
					C234.819,62.652,236.509,63.514,237.716,64.997z"/>
				<path style="fill:#615FA3;" d="M253.408,78.343c-1.516,2.275-3.655,3.311-6.758,3.311c-4.759,0-6.897-2.587-6.069-9.38
					l0.482-3.966h-2.724l-0.241-5.449l3.655-0.068l0.483-4.035l6.138-0.311l-0.483,4.276l3.863-0.068l0.654,5.62h-5.172
					l-0.345,3.104c-0.276,2.311,0.483,3.862,1.828,3.862c1.172,0,1.931-0.448,2.967-1.725L253.408,78.343z"/>
				<path style="fill:#615FA3;" d="M252.996,71.618c0-6.001,5.346-9.105,9.656-9.105c5.965,0,9.793,3.587,9.793,9.139
					c0,5.552-4.242,9.725-9.689,9.725C257.238,81.377,252.996,76.791,252.996,71.618z M266.307,72.032
					c0-1.862-1.033-3.69-3.551-3.69c-2.07,0-3.586,1.587-3.586,3.587c0,2.068,1.586,3.586,3.793,3.586
					C264.859,75.515,266.307,74.239,266.307,72.032z"/>
				<path style="fill:#615FA3;" d="M272.93,71.618c0-6.001,5.346-9.105,9.656-9.105c5.965,0,9.793,3.587,9.793,9.139
					c0,5.552-4.24,9.725-9.689,9.725C277.172,81.377,272.93,76.791,272.93,71.618z M286.24,72.032c0-1.862-1.033-3.69-3.551-3.69
					c-2.07,0-3.586,1.587-3.586,3.587c0,2.068,1.586,3.586,3.793,3.586C284.793,75.515,286.24,74.239,286.24,72.032z"/>
				<path style="fill:#615FA3;" d="M311.141,69.066l-0.207,12.173h-6.311l0.035-8.104c0-3.517-1-4.656-2.656-4.656
					c-1.24,0-2.551,0.587-2.793,2.725l0.035,10.035h-6.242V62.858l6.174-0.103v1.759c1.551-1.034,3.793-1.793,5.932-1.931
					C308.797,62.307,311.244,64.583,311.141,69.066z"/>
			</g>
		</g>
		<g>
			<g>
				<path style="fill:#615FA3;" d="M188.79,90.298l-0.265,34.032h-8.552l-13.886-18.735l0.176,18.691l-8.552,0.309l-0.308-34.429
					l8.552,0.353l14.15,18.559l0.132-18.471L188.79,90.298z"/>
				<path style="fill:#615FA3;" d="M213.961,100.79v23.32h-8.376v-2.16c-1.455,1.675-3.879,2.733-6.524,2.733
					c-6.039,0-9.125-4.1-9.037-11.858l0.132-12.123h8.155l-0.044,11.682c0,2.469,1.278,3.835,3.482,3.835
					c2.469,0,3.879-2.204,3.879-5.069v0.044l0.044-10.403H213.961z"/>
				<path style="fill:#615FA3;" d="M251.344,124.33h-8.552l-0.044-12.255c0-3.218-0.617-4.276-2.557-4.276
					c-1.587,0-2.645,2.424-2.424,5.598l-0.044-0.132v10.933l-8.287,0.088l-0.088-12.211c0-2.733-1.058-4.276-2.865-4.276
					c-2.072,0-3.086,1.983-2.866,5.51l-0.044-0.088l0.353,11.153h-8.287v-23.231l7.582-0.265l0.044,1.764
					c1.367-1.058,3.351-1.719,5.686-1.852c2.998-0.132,5.335,0.573,6.833,2.072c1.499-1.631,3.791-2.292,7.626-2.292
					c5.466,0,7.847,4.056,7.892,13.71L251.344,124.33z"/>
				<path style="fill:#615FA3;" d="M278.676,112.427c0,6.657-4.408,12.211-9.742,12.211c-2.865,0-5.863-1.146-7.625-2.689v2.469
					h-8.598V89.504l8.816-0.706l-0.088,13.666c1.896-1.411,4.408-2.204,7.627-2.116
					C274.047,100.437,278.676,106.344,278.676,112.427z M270.742,112.383c0-2.513-2.16-4.673-4.586-4.673
					c-2.512,0-4.76,2.16-4.76,4.628c0,2.469,2.291,4.805,4.76,4.805C268.537,117.144,270.742,114.852,270.742,112.383z"/>
				<path style="fill:#615FA3;" d="M302.701,114.058l-15.605,0.177c0.662,1.807,1.939,3.306,3.703,3.438
					c2.381,0.176,4.1-0.573,5.113-2.072l6.305,1.808c-1.279,4.452-6.48,7.582-11.682,7.186c-6.48-0.441-11.727-6.524-11.197-13.886
					c0.441-6.304,5.996-10.492,12.871-10.007C299.439,101.186,303.23,106.344,302.701,114.058z M287.141,108.856l7.449,0.045
					c-0.221-1.808-1.631-2.689-2.996-2.777C289.256,105.947,287.846,107.093,287.141,108.856z"/>
				<path style="fill:#615FA3;" d="M323.377,103.567l-3.043,6.832c-0.838-1.146-2.07-1.763-3.482-1.763
					c-3.174,0-4.672,2.072-4.893,7.229v8.464h-8.199v-23.496h8.199v2.028c1.498-1.322,3.615-2.204,5.598-2.248
					C319.674,100.569,321.834,101.671,323.377,103.567z"/>
				<path style="fill:#615FA3;" d="M339.512,108.945c-2.645-1.499-4.584-2.116-6.478-2.116c-1.764,0-3.043,0.573-3.043,1.411
					c0,0.749,1.014,1.102,3.086,1.102c5.996,0,9.521,2.469,9.521,6.657c0,4.849-4.893,8.772-10.889,8.772
					c-3.879,0-7.67-1.543-9.742-3.968l4.453-5.025c1.41,1.234,3.307,1.94,5.201,1.94c1.852,0,3.262-0.706,3.262-1.587
					c0-0.706-0.748-0.97-2.688-0.97c-4.762,0.441-9.303-3.086-9.303-7.229c0-4.1,4.629-7.714,9.875-7.714
					c3.395,0,7.01,1.411,9.83,3.836L339.512,108.945z"/>
			</g>
		</g>
	</g>
</g>
<g id="Designed_by_freepik">
	<g>
		<g>
			<g>
				<path style="fill:#615FA3;" d="M179.649,485.7v-0.161c-0.22,0.249-0.436,0.452-0.65,0.608c-0.213,0.156-0.445,0.275-0.695,0.356
					c-0.249,0.082-0.522,0.122-0.818,0.122c-0.392,0-0.754-0.082-1.088-0.246c-0.333-0.164-0.622-0.399-0.865-0.704
					c-0.244-0.305-0.429-0.662-0.555-1.074c-0.125-0.412-0.189-0.857-0.189-1.335c0-1.014,0.25-1.804,0.75-2.37
					c0.499-0.565,1.156-0.848,1.972-0.848c0.471,0,0.869,0.08,1.192,0.239c0.324,0.161,0.64,0.408,0.947,0.739v-2.392
					c0-0.333,0.066-0.584,0.201-0.754c0.133-0.17,0.324-0.255,0.572-0.255c0.247,0,0.438,0.078,0.572,0.234
					c0.134,0.156,0.201,0.386,0.201,0.691v7.147c0,0.309-0.072,0.54-0.216,0.694c-0.144,0.153-0.329,0.232-0.557,0.232
					c-0.224,0-0.409-0.08-0.555-0.24C179.722,486.225,179.649,485.996,179.649,485.7z M176.431,483.319
					c0,0.439,0.069,0.814,0.207,1.122s0.326,0.541,0.566,0.697c0.24,0.156,0.501,0.235,0.785,0.235c0.288,0,0.55-0.075,0.788-0.224
					c0.238-0.147,0.427-0.376,0.569-0.682c0.142-0.308,0.212-0.691,0.212-1.15c0-0.432-0.071-0.803-0.212-1.114
					c-0.142-0.31-0.333-0.547-0.575-0.712c-0.242-0.163-0.507-0.245-0.794-0.245c-0.299,0-0.567,0.084-0.803,0.252
					c-0.236,0.168-0.418,0.409-0.548,0.724C176.496,482.539,176.431,482.903,176.431,483.319z"/>
				<path style="fill:#615FA3;" d="M186.862,483.729h-3.2c0.004,0.367,0.079,0.692,0.225,0.973c0.145,0.281,0.339,0.493,0.581,0.636
					c0.242,0.143,0.509,0.213,0.8,0.213c0.196,0,0.374-0.023,0.537-0.067c0.162-0.046,0.318-0.116,0.471-0.214
					c0.152-0.097,0.292-0.201,0.419-0.311c0.128-0.111,0.294-0.263,0.498-0.452c0.083-0.07,0.204-0.106,0.36-0.106
					c0.167,0,0.303,0.046,0.407,0.137c0.104,0.092,0.157,0.22,0.157,0.386c0,0.146-0.059,0.317-0.174,0.514
					c-0.117,0.196-0.292,0.384-0.525,0.564c-0.234,0.181-0.527,0.329-0.881,0.448c-0.354,0.119-0.76,0.179-1.22,0.179
					c-1.05,0-1.867-0.298-2.451-0.891c-0.583-0.594-0.874-1.4-0.874-2.416c0-0.479,0.072-0.924,0.215-1.332
					c0.145-0.41,0.354-0.762,0.629-1.055c0.275-0.293,0.615-0.517,1.019-0.674c0.403-0.156,0.851-0.233,1.342-0.233
					c0.639,0,1.188,0.133,1.645,0.4c0.458,0.267,0.801,0.612,1.028,1.035c0.228,0.424,0.342,0.855,0.342,1.294
					c0,0.408-0.118,0.672-0.353,0.793C187.622,483.669,187.29,483.729,186.862,483.729z M183.663,482.809h2.966
					c-0.039-0.554-0.191-0.969-0.452-1.243c-0.262-0.275-0.606-0.413-1.034-0.413c-0.408,0-0.742,0.14-1.004,0.418
					C183.877,481.85,183.719,482.263,183.663,482.809z"/>
				<path style="fill:#615FA3;" d="M194.316,484.506c0,0.447-0.109,0.831-0.33,1.149c-0.219,0.318-0.544,0.56-0.974,0.725
					c-0.429,0.164-0.952,0.246-1.567,0.246c-0.587,0-1.09-0.09-1.51-0.268c-0.419-0.178-0.729-0.401-0.928-0.667
					c-0.2-0.268-0.3-0.535-0.3-0.806c0-0.178,0.064-0.33,0.192-0.456c0.127-0.126,0.29-0.189,0.485-0.189
					c0.171,0,0.303,0.041,0.395,0.124c0.092,0.083,0.18,0.2,0.264,0.35c0.167,0.29,0.369,0.504,0.603,0.647
					c0.233,0.143,0.552,0.214,0.956,0.214c0.328,0,0.596-0.072,0.806-0.217c0.209-0.146,0.314-0.31,0.314-0.496
					c0-0.285-0.108-0.492-0.327-0.622c-0.218-0.131-0.576-0.256-1.076-0.375c-0.563-0.138-1.021-0.284-1.375-0.436
					c-0.354-0.151-0.636-0.353-0.848-0.602c-0.212-0.25-0.317-0.557-0.317-0.921c0-0.324,0.098-0.631,0.293-0.92
					c0.196-0.288,0.485-0.52,0.867-0.691c0.381-0.173,0.841-0.259,1.38-0.259c0.423,0,0.804,0.044,1.142,0.132
					c0.338,0.086,0.62,0.203,0.845,0.35c0.226,0.146,0.397,0.309,0.515,0.486c0.118,0.178,0.176,0.352,0.176,0.522
					c0,0.186-0.063,0.339-0.188,0.458c-0.126,0.117-0.305,0.178-0.537,0.178c-0.168,0-0.311-0.048-0.428-0.144
					c-0.118-0.095-0.253-0.236-0.405-0.427c-0.124-0.158-0.269-0.285-0.437-0.38c-0.168-0.096-0.395-0.143-0.684-0.143
					c-0.296,0-0.541,0.062-0.737,0.188c-0.196,0.124-0.294,0.279-0.294,0.465c0,0.171,0.072,0.31,0.215,0.419
					c0.144,0.109,0.337,0.2,0.581,0.271c0.244,0.071,0.579,0.157,1.007,0.261c0.507,0.123,0.921,0.27,1.243,0.439
					c0.321,0.17,0.565,0.371,0.731,0.603C194.234,483.945,194.316,484.209,194.316,484.506z"/>
				<path style="fill:#615FA3;" d="M195.988,479.283c-0.227,0-0.422-0.069-0.584-0.208c-0.162-0.138-0.243-0.334-0.243-0.588
					c0-0.23,0.083-0.418,0.249-0.567c0.165-0.148,0.359-0.223,0.578-0.223c0.212,0,0.399,0.067,0.563,0.202
					c0.164,0.135,0.246,0.33,0.246,0.588c0,0.249-0.08,0.444-0.24,0.585C196.397,479.212,196.207,479.283,195.988,479.283z
					 M196.797,480.957v4.683c0,0.325-0.078,0.571-0.234,0.737c-0.156,0.166-0.353,0.249-0.593,0.249
					c-0.24,0-0.434-0.085-0.584-0.256c-0.15-0.17-0.224-0.413-0.224-0.73v-4.636c0-0.32,0.074-0.561,0.224-0.725
					c0.15-0.162,0.345-0.243,0.584-0.243c0.24,0,0.438,0.081,0.593,0.243C196.719,480.442,196.797,480.668,196.797,480.957z"/>
				<path style="fill:#615FA3;" d="M203.963,481.224v4.707c0,0.539-0.059,1.002-0.175,1.39c-0.115,0.388-0.301,0.708-0.557,0.962
					c-0.256,0.253-0.59,0.441-1.003,0.564c-0.414,0.123-0.928,0.184-1.543,0.184c-0.563,0-1.066-0.077-1.51-0.233
					c-0.443-0.157-0.784-0.358-1.024-0.605c-0.239-0.248-0.36-0.502-0.36-0.764c0-0.197,0.068-0.359,0.204-0.483
					c0.136-0.125,0.3-0.188,0.491-0.188c0.24,0,0.449,0.105,0.629,0.314c0.087,0.107,0.178,0.216,0.273,0.324
					c0.094,0.109,0.198,0.202,0.311,0.279c0.114,0.076,0.251,0.134,0.41,0.172c0.16,0.037,0.344,0.057,0.552,0.057
					c0.423,0,0.752-0.059,0.986-0.176c0.234-0.116,0.398-0.28,0.492-0.49c0.094-0.208,0.148-0.433,0.164-0.673
					c0.016-0.24,0.028-0.624,0.036-1.155c-0.252,0.349-0.542,0.614-0.872,0.796c-0.329,0.183-0.722,0.273-1.177,0.273
					c-0.548,0-1.026-0.139-1.436-0.416c-0.409-0.277-0.724-0.664-0.943-1.163c-0.22-0.499-0.33-1.074-0.33-1.728
					c0-0.486,0.066-0.927,0.2-1.317c0.135-0.393,0.325-0.723,0.572-0.992c0.248-0.27,0.534-0.472,0.857-0.608
					c0.324-0.136,0.679-0.204,1.067-0.204c0.463,0,0.865,0.088,1.205,0.264c0.339,0.177,0.655,0.452,0.947,0.828v-0.22
					c0-0.281,0.069-0.498,0.21-0.653c0.14-0.153,0.32-0.232,0.539-0.232c0.316,0,0.525,0.103,0.629,0.306
					C203.911,480.546,203.963,480.84,203.963,481.224z M199.223,483.278c0,0.656,0.145,1.153,0.434,1.489
					c0.29,0.337,0.665,0.505,1.124,0.505c0.271,0,0.528-0.072,0.77-0.217c0.242-0.145,0.438-0.362,0.591-0.653
					c0.151-0.291,0.227-0.644,0.227-1.06c0-0.66-0.146-1.175-0.44-1.543c-0.294-0.368-0.68-0.552-1.16-0.552
					c-0.468,0-0.842,0.176-1.124,0.528C199.364,482.128,199.223,482.629,199.223,483.278z"/>
				<path style="fill:#615FA3;" d="M206.563,480.933v0.196c0.287-0.376,0.602-0.652,0.944-0.828
					c0.342-0.176,0.734-0.265,1.177-0.265c0.432,0,0.817,0.094,1.157,0.279c0.339,0.187,0.594,0.449,0.761,0.789
					c0.108,0.198,0.178,0.412,0.21,0.642c0.032,0.229,0.048,0.522,0.048,0.879v3.015c0,0.325-0.075,0.571-0.225,0.737
					c-0.15,0.166-0.344,0.249-0.584,0.249c-0.244,0-0.441-0.085-0.593-0.256c-0.152-0.17-0.227-0.413-0.227-0.73v-2.7
					c0-0.534-0.075-0.943-0.225-1.226c-0.15-0.283-0.448-0.425-0.896-0.425c-0.292,0-0.557,0.086-0.797,0.258
					c-0.24,0.173-0.415,0.409-0.527,0.71c-0.08,0.241-0.12,0.692-0.12,1.354v2.029c0,0.329-0.078,0.576-0.23,0.74
					c-0.154,0.164-0.353,0.246-0.596,0.246c-0.236,0-0.43-0.085-0.582-0.256c-0.152-0.17-0.227-0.413-0.227-0.73v-4.683
					c0-0.31,0.067-0.54,0.204-0.692c0.136-0.152,0.321-0.228,0.557-0.228c0.144,0,0.274,0.034,0.39,0.102
					c0.115,0.067,0.209,0.168,0.279,0.302C206.528,480.574,206.563,480.739,206.563,480.933z"/>
				<path style="fill:#615FA3;" d="M216.516,483.729h-3.2c0.004,0.367,0.079,0.692,0.225,0.973c0.145,0.281,0.339,0.493,0.581,0.636
					c0.241,0.143,0.508,0.213,0.799,0.213c0.196,0,0.374-0.023,0.537-0.067c0.161-0.046,0.318-0.116,0.47-0.214
					c0.151-0.097,0.291-0.201,0.42-0.311c0.127-0.111,0.293-0.263,0.497-0.452c0.084-0.07,0.204-0.106,0.36-0.106
					c0.167,0,0.304,0.046,0.407,0.137c0.104,0.092,0.156,0.22,0.156,0.386c0,0.146-0.058,0.317-0.174,0.514
					c-0.116,0.196-0.291,0.384-0.524,0.564c-0.234,0.181-0.527,0.329-0.881,0.448c-0.354,0.119-0.76,0.179-1.219,0.179
					c-1.051,0-1.868-0.298-2.452-0.891c-0.583-0.594-0.874-1.4-0.874-2.416c0-0.479,0.072-0.924,0.216-1.332
					c0.144-0.41,0.354-0.762,0.63-1.055c0.275-0.293,0.615-0.517,1.019-0.674c0.403-0.156,0.851-0.233,1.342-0.233
					c0.639,0,1.186,0.133,1.644,0.4c0.458,0.267,0.8,0.612,1.028,1.035c0.228,0.424,0.342,0.855,0.342,1.294
					c0,0.408-0.118,0.672-0.354,0.793C217.275,483.669,216.943,483.729,216.516,483.729z M213.316,482.809h2.966
					c-0.04-0.554-0.19-0.969-0.452-1.243c-0.262-0.275-0.606-0.413-1.034-0.413c-0.408,0-0.743,0.14-1.004,0.418
					C213.53,481.85,213.372,482.263,213.316,482.809z"/>
				<path style="fill:#615FA3;" d="M223.184,485.7v-0.161c-0.22,0.249-0.437,0.452-0.65,0.608c-0.214,0.156-0.445,0.275-0.695,0.356
					c-0.249,0.082-0.522,0.122-0.817,0.122c-0.392,0-0.754-0.082-1.088-0.246c-0.333-0.164-0.622-0.399-0.866-0.704
					c-0.244-0.305-0.428-0.662-0.554-1.074c-0.126-0.412-0.189-0.857-0.189-1.335c0-1.014,0.249-1.804,0.749-2.37
					c0.499-0.565,1.157-0.848,1.972-0.848c0.471,0,0.869,0.08,1.192,0.239c0.323,0.161,0.639,0.408,0.946,0.739v-2.392
					c0-0.333,0.067-0.584,0.201-0.754c0.133-0.17,0.325-0.255,0.572-0.255c0.248,0,0.438,0.078,0.572,0.234
					c0.133,0.156,0.201,0.386,0.201,0.691v7.147c0,0.309-0.072,0.54-0.216,0.694c-0.143,0.153-0.329,0.232-0.557,0.232
					c-0.224,0-0.408-0.08-0.555-0.24C223.257,486.225,223.184,485.996,223.184,485.7z M219.967,483.319
					c0,0.439,0.068,0.814,0.206,1.122c0.138,0.309,0.327,0.541,0.567,0.697c0.24,0.156,0.501,0.235,0.784,0.235
					c0.288,0,0.551-0.075,0.788-0.224c0.238-0.147,0.428-0.376,0.57-0.682c0.142-0.308,0.212-0.691,0.212-1.15
					c0-0.432-0.071-0.803-0.212-1.114c-0.142-0.31-0.334-0.547-0.576-0.712c-0.242-0.163-0.506-0.245-0.794-0.245
					c-0.299,0-0.567,0.084-0.803,0.252c-0.235,0.168-0.418,0.409-0.548,0.724C220.031,482.539,219.967,482.903,219.967,483.319z"/>
				<path style="fill:#615FA3;" d="M229.871,478.553v2.475c0.307-0.316,0.621-0.559,0.941-0.727
					c0.319-0.168,0.715-0.252,1.187-0.252c0.543,0,1.019,0.127,1.429,0.382c0.409,0.257,0.727,0.626,0.953,1.11
					c0.226,0.484,0.339,1.06,0.339,1.726c0,0.49-0.063,0.939-0.189,1.35c-0.126,0.409-0.309,0.765-0.548,1.065
					c-0.24,0.301-0.53,0.534-0.872,0.698c-0.342,0.164-0.719,0.246-1.13,0.246c-0.252,0-0.489-0.029-0.71-0.09
					c-0.222-0.059-0.411-0.137-0.566-0.234c-0.155-0.096-0.289-0.196-0.398-0.299c-0.11-0.103-0.255-0.258-0.435-0.464v0.161
					c0,0.304-0.074,0.535-0.222,0.691c-0.147,0.156-0.335,0.234-0.563,0.234c-0.231,0-0.416-0.078-0.554-0.234
					c-0.138-0.156-0.207-0.388-0.207-0.691v-7.077c0-0.328,0.067-0.576,0.2-0.744c0.134-0.168,0.321-0.252,0.561-0.252
					c0.252,0,0.445,0.08,0.582,0.239C229.802,478.027,229.871,478.255,229.871,478.553z M229.948,483.367
					c0,0.645,0.149,1.14,0.447,1.486c0.297,0.347,0.688,0.521,1.171,0.521c0.411,0,0.766-0.177,1.064-0.532
					c0.297-0.354,0.446-0.861,0.446-1.522c0-0.427-0.062-0.796-0.186-1.104c-0.124-0.309-0.299-0.547-0.527-0.715
					c-0.228-0.168-0.494-0.252-0.797-0.252c-0.311,0-0.59,0.084-0.833,0.252c-0.244,0.168-0.436,0.411-0.576,0.729
					C230.019,482.548,229.948,482.928,229.948,483.367z"/>
				<path style="fill:#615FA3;" d="M236.839,486.828l0.15-0.363l-2.014-5.021c-0.124-0.288-0.186-0.499-0.186-0.63
					c0-0.138,0.036-0.267,0.108-0.385c0.072-0.119,0.171-0.214,0.296-0.285c0.126-0.072,0.257-0.107,0.393-0.107
					c0.235,0,0.413,0.074,0.534,0.223c0.12,0.148,0.226,0.361,0.317,0.638l1.385,3.989l1.312-3.71
					c0.104-0.3,0.198-0.536,0.282-0.706c0.084-0.171,0.172-0.285,0.267-0.344c0.094-0.06,0.227-0.09,0.399-0.09
					c0.124,0,0.243,0.032,0.357,0.099c0.114,0.065,0.201,0.153,0.263,0.264c0.062,0.111,0.093,0.228,0.093,0.351
					c-0.017,0.074-0.041,0.182-0.078,0.32c-0.036,0.139-0.08,0.279-0.131,0.422l-2.133,5.532c-0.184,0.486-0.364,0.868-0.54,1.146
					c-0.176,0.276-0.408,0.49-0.698,0.638c-0.29,0.149-0.68,0.223-1.172,0.223c-0.479,0-0.839-0.051-1.078-0.153
					c-0.241-0.104-0.36-0.292-0.36-0.565c0-0.185,0.057-0.33,0.171-0.431c0.113-0.101,0.283-0.151,0.506-0.151
					c0.088,0,0.174,0.012,0.258,0.036c0.104,0.023,0.193,0.035,0.269,0.035c0.188,0,0.336-0.027,0.444-0.083
					c0.107-0.056,0.204-0.151,0.291-0.288C236.628,487.294,236.727,487.093,236.839,486.828z"/>
			</g>
			<g>
				<path style="fill:#615FA3;" d="M260.538,480.177h0.39v-0.486c0-0.509,0.063-0.911,0.193-1.211
					c0.129-0.3,0.351-0.517,0.661-0.653c0.31-0.136,0.733-0.204,1.272-0.204c0.958,0,1.434,0.229,1.434,0.696
					c0,0.149-0.05,0.278-0.151,0.385c-0.098,0.105-0.217,0.16-0.352,0.16c-0.063,0-0.176-0.012-0.332-0.037
					c-0.15-0.022-0.286-0.035-0.393-0.035c-0.295,0-0.483,0.088-0.571,0.26c-0.08,0.172-0.123,0.418-0.123,0.74v0.386h0.399
					c0.625,0,0.935,0.186,0.935,0.56c0,0.262-0.08,0.432-0.248,0.503c-0.165,0.071-0.394,0.106-0.686,0.106h-0.399v4.295
					c0,0.319-0.076,0.563-0.232,0.729c-0.152,0.171-0.35,0.254-0.595,0.254c-0.231,0-0.424-0.083-0.579-0.254
					c-0.154-0.167-0.23-0.41-0.23-0.729v-4.295h-0.45c-0.245,0-0.431-0.052-0.563-0.163c-0.132-0.106-0.198-0.25-0.198-0.424
					C259.716,480.369,259.989,480.177,260.538,480.177"/>
				<path style="fill:#615FA3;" d="M265.894,484.285v1.355c0,0.327-0.083,0.574-0.235,0.737c-0.156,0.166-0.353,0.246-0.592,0.246
					c-0.24,0-0.434-0.081-0.585-0.25c-0.148-0.165-0.227-0.41-0.227-0.733v-4.515c0-0.729,0.265-1.093,0.795-1.093
					c0.273,0,0.469,0.084,0.589,0.255c0.12,0.171,0.186,0.421,0.2,0.755c0.194-0.334,0.393-0.584,0.599-0.755
					c0.21-0.171,0.481-0.255,0.826-0.255c0.347,0,0.677,0.084,1,0.255c0.325,0.171,0.486,0.398,0.486,0.679
					c0,0.196-0.069,0.362-0.205,0.488c-0.139,0.13-0.287,0.194-0.445,0.194c-0.063,0-0.209-0.039-0.438-0.112
					c-0.23-0.071-0.434-0.108-0.607-0.108c-0.239,0-0.436,0.064-0.588,0.186c-0.152,0.128-0.272,0.311-0.355,0.555
					c-0.082,0.246-0.139,0.54-0.172,0.877C265.908,483.386,265.894,483.799,265.894,484.285"/>
				<path style="fill:#615FA3;" d="M273.415,483.728h-3.201c0.005,0.367,0.078,0.694,0.224,0.975
					c0.148,0.278,0.341,0.491,0.583,0.635c0.243,0.143,0.508,0.213,0.801,0.213c0.195,0,0.374-0.022,0.536-0.069
					c0.16-0.044,0.318-0.116,0.47-0.214c0.153-0.095,0.29-0.198,0.419-0.313c0.128-0.108,0.295-0.26,0.499-0.449
					c0.085-0.07,0.204-0.108,0.358-0.108c0.169,0,0.304,0.047,0.409,0.139c0.105,0.092,0.153,0.219,0.153,0.386
					c0,0.147-0.056,0.317-0.168,0.512c-0.119,0.199-0.293,0.386-0.528,0.566c-0.235,0.179-0.529,0.33-0.881,0.446
					c-0.354,0.119-0.762,0.179-1.219,0.179c-1.055,0-1.87-0.295-2.452-0.889c-0.583-0.595-0.878-1.401-0.878-2.417
					c0-0.479,0.073-0.924,0.219-1.334c0.142-0.412,0.352-0.761,0.631-1.055c0.275-0.295,0.611-0.519,1.017-0.674
					c0.402-0.156,0.85-0.234,1.343-0.234c0.638,0,1.186,0.134,1.645,0.403c0.456,0.265,0.804,0.61,1.027,1.034
					c0.228,0.426,0.342,0.855,0.342,1.297c0,0.405-0.118,0.668-0.354,0.791C274.174,483.667,273.843,483.728,273.415,483.728
					 M270.214,482.806h2.966c-0.039-0.553-0.188-0.968-0.45-1.241c-0.264-0.276-0.605-0.412-1.035-0.412
					c-0.407,0-0.742,0.137-1.005,0.418C270.429,481.849,270.269,482.261,270.214,482.806"/>
				<path style="fill:#615FA3;" d="M280.221,483.728h-3.201c0.004,0.367,0.079,0.694,0.224,0.975
					c0.146,0.278,0.341,0.491,0.581,0.635c0.242,0.143,0.509,0.213,0.803,0.213c0.194,0,0.374-0.022,0.533-0.069
					c0.163-0.044,0.318-0.116,0.473-0.214c0.153-0.095,0.29-0.198,0.419-0.313c0.126-0.108,0.293-0.26,0.497-0.449
					c0.085-0.07,0.206-0.108,0.358-0.108c0.17,0,0.306,0.047,0.411,0.139c0.104,0.092,0.151,0.219,0.151,0.386
					c0,0.147-0.055,0.317-0.173,0.512c-0.111,0.199-0.287,0.386-0.523,0.566c-0.233,0.179-0.53,0.33-0.881,0.446
					c-0.352,0.119-0.762,0.179-1.22,0.179c-1.052,0-1.867-0.295-2.453-0.889c-0.582-0.595-0.876-1.401-0.876-2.417
					c0-0.479,0.074-0.924,0.22-1.334c0.143-0.412,0.352-0.761,0.628-1.055c0.275-0.295,0.614-0.519,1.02-0.674
					c0.401-0.156,0.852-0.234,1.343-0.234c0.636,0,1.185,0.134,1.648,0.403c0.454,0.265,0.799,0.61,1.022,1.034
					c0.228,0.426,0.344,0.855,0.344,1.297c0,0.405-0.12,0.668-0.354,0.791C280.978,483.667,280.647,483.728,280.221,483.728
					 M277.02,482.806h2.967c-0.04-0.553-0.191-0.968-0.451-1.241c-0.266-0.276-0.607-0.412-1.036-0.412
					c-0.407,0-0.742,0.137-1.005,0.418C277.233,481.849,277.073,482.261,277.02,482.806"/>
				<path style="fill:#615FA3;" d="M285.891,486.624c-0.466,0-0.861-0.093-1.177-0.279c-0.317-0.183-0.62-0.458-0.91-0.816v2.434
					c0,0.71-0.262,1.068-0.784,1.068c-0.31,0-0.511-0.092-0.613-0.274c-0.096-0.187-0.147-0.452-0.147-0.807v-6.996
					c0-0.31,0.067-0.537,0.202-0.692c0.136-0.149,0.323-0.228,0.559-0.228c0.233,0,0.42,0.078,0.565,0.233
					c0.148,0.159,0.22,0.382,0.22,0.679 M283.804,480.945v0.194c0.308-0.376,0.628-0.651,0.962-0.828
					c0.327-0.178,0.706-0.267,1.125-0.267c0.501,0,0.969,0.13,1.392,0.386c0.424,0.259,0.757,0.635,1.003,1.129
					c0.246,0.497,0.37,1.081,0.37,1.759c0,0.497-0.071,0.957-0.212,1.376c-0.142,0.417-0.34,0.767-0.587,1.05
					c-0.248,0.281-0.539,0.501-0.876,0.653c-0.342,0.15-0.701,0.227-1.09,0.227 M287.012,483.3c0-0.428-0.067-0.796-0.198-1.102
					c-0.132-0.308-0.316-0.542-0.547-0.705c-0.231-0.164-0.493-0.248-0.777-0.248c-0.45,0-0.832,0.178-1.142,0.527
					c-0.311,0.355-0.466,0.872-0.466,1.559c0,0.642,0.154,1.146,0.464,1.504c0.308,0.358,0.685,0.536,1.144,0.536
					c0.271,0,0.523-0.078,0.755-0.232c0.234-0.158,0.42-0.392,0.558-0.704C286.941,484.121,287.012,483.742,287.012,483.3"/>
				<path style="fill:#615FA3;" d="M290.303,479.278c-0.229,0-0.423-0.071-0.583-0.209c-0.163-0.139-0.244-0.333-0.244-0.585
					c0-0.23,0.082-0.419,0.25-0.569c0.165-0.146,0.357-0.222,0.577-0.222c0.214,0,0.4,0.066,0.563,0.199
					c0.164,0.137,0.246,0.334,0.246,0.592c0,0.249-0.08,0.444-0.238,0.585C290.714,479.207,290.524,479.278,290.303,479.278
					 M291.112,480.953v4.689c0,0.322-0.078,0.567-0.233,0.732c-0.157,0.169-0.354,0.25-0.594,0.25c-0.24,0-0.432-0.083-0.585-0.254
					c-0.147-0.172-0.225-0.415-0.225-0.728v-4.643c0-0.318,0.077-0.559,0.225-0.721c0.153-0.166,0.345-0.245,0.585-0.245
					c0.24,0,0.436,0.079,0.594,0.245C291.034,480.44,291.112,480.667,291.112,480.953"/>
				<path style="fill:#615FA3;" d="M296.387,485.885l-1.441-2.353l-0.889,0.83v1.291c0,0.312-0.083,0.551-0.25,0.718
					c-0.162,0.171-0.357,0.254-0.571,0.254c-0.252,0-0.451-0.081-0.594-0.25c-0.143-0.165-0.217-0.41-0.217-0.733v-6.915
					c0-0.358,0.072-0.632,0.209-0.82c0.141-0.19,0.344-0.283,0.602-0.283c0.252,0,0.449,0.086,0.599,0.257
					c0.147,0.17,0.223,0.422,0.223,0.752v3.933l1.84-1.914c0.229-0.234,0.399-0.4,0.522-0.486c0.119-0.087,0.264-0.13,0.435-0.13
					c0.206,0,0.375,0.064,0.515,0.193c0.133,0.128,0.202,0.291,0.202,0.482c0,0.237-0.224,0.556-0.666,0.951l-0.868,0.789
					l1.678,2.614c0.122,0.196,0.214,0.34,0.267,0.441c0.053,0.1,0.082,0.2,0.082,0.289c0,0.258-0.072,0.459-0.216,0.609
					c-0.142,0.148-0.33,0.221-0.559,0.221c-0.199,0-0.355-0.05-0.463-0.159C296.719,486.356,296.569,486.162,296.387,485.885"/>
				<path style="fill:#615FA3;" d="M299.942,486.624c-0.247,0-0.459-0.078-0.64-0.237c-0.18-0.156-0.271-0.379-0.271-0.666
					c0-0.24,0.087-0.449,0.259-0.622c0.173-0.174,0.383-0.262,0.636-0.262c0.251,0,0.464,0.088,0.646,0.258
					c0.176,0.172,0.266,0.383,0.266,0.626c0,0.283-0.09,0.505-0.266,0.662C300.391,486.546,300.182,486.624,299.942,486.624"/>
				<path style="fill:#615FA3;" d="M308.08,484.618c0,0.2-0.061,0.418-0.184,0.646c-0.121,0.232-0.309,0.448-0.559,0.656
					c-0.249,0.207-0.563,0.376-0.943,0.502c-0.379,0.126-0.808,0.191-1.281,0.191c-1.014,0-1.804-0.293-2.371-0.875
					c-0.564-0.585-0.849-1.369-0.849-2.351c0-0.667,0.129-1.253,0.391-1.765c0.257-0.509,0.634-0.904,1.124-1.184
					c0.491-0.28,1.082-0.419,1.763-0.419c0.425,0,0.813,0.061,1.169,0.185c0.354,0.122,0.65,0.282,0.898,0.474
					c0.244,0.197,0.433,0.402,0.562,0.621c0.131,0.22,0.194,0.425,0.194,0.616c0,0.192-0.072,0.357-0.217,0.492
					c-0.148,0.135-0.325,0.203-0.529,0.203c-0.138,0-0.251-0.036-0.341-0.104c-0.091-0.069-0.192-0.181-0.303-0.338
					c-0.2-0.3-0.407-0.526-0.628-0.675c-0.216-0.152-0.492-0.227-0.829-0.227c-0.48,0-0.873,0.187-1.169,0.561
					c-0.295,0.373-0.443,0.888-0.443,1.534c0,0.306,0.039,0.587,0.115,0.843c0.073,0.254,0.184,0.472,0.328,0.652
					c0.146,0.179,0.318,0.315,0.522,0.408c0.204,0.097,0.429,0.142,0.671,0.142c0.329,0,0.609-0.075,0.843-0.226
					c0.237-0.15,0.443-0.38,0.623-0.688c0.1-0.183,0.206-0.324,0.32-0.428c0.115-0.102,0.259-0.155,0.427-0.155
					c0.2,0,0.366,0.076,0.496,0.227C308.013,484.287,308.08,484.449,308.08,484.618"/>
				<path style="fill:#615FA3;" d="M315.14,483.33c0,0.481-0.076,0.928-0.224,1.337c-0.156,0.408-0.373,0.758-0.662,1.049
					c-0.288,0.293-0.633,0.518-1.03,0.676c-0.403,0.154-0.852,0.234-1.349,0.234c-0.496,0-0.942-0.08-1.339-0.239
					c-0.393-0.156-0.738-0.384-1.025-0.677c-0.291-0.298-0.511-0.646-0.664-1.048c-0.145-0.402-0.221-0.847-0.221-1.332
					c0-0.491,0.078-0.941,0.226-1.349c0.153-0.409,0.372-0.758,0.656-1.046c0.284-0.288,0.626-0.511,1.028-0.669
					c0.406-0.155,0.852-0.233,1.339-0.233c0.494,0,0.944,0.078,1.349,0.238c0.402,0.157,0.746,0.385,1.037,0.675
					c0.289,0.297,0.507,0.644,0.656,1.045C315.064,482.398,315.14,482.842,315.14,483.33 M313.497,483.33
					c0-0.661-0.148-1.176-0.441-1.543c-0.292-0.372-0.688-0.555-1.182-0.555c-0.32,0-0.603,0.083-0.848,0.246
					c-0.244,0.164-0.43,0.406-0.561,0.728c-0.132,0.321-0.198,0.696-0.198,1.124c0,0.425,0.064,0.793,0.195,1.108
					c0.131,0.319,0.316,0.561,0.559,0.729c0.243,0.166,0.526,0.252,0.854,0.252c0.494,0,0.89-0.184,1.182-0.557
					C313.35,484.494,313.497,483.981,313.497,483.33"/>
				<path style="fill:#615FA3;" d="M321.381,483.449v2.154c0,0.342-0.076,0.595-0.233,0.767c-0.157,0.171-0.36,0.256-0.616,0.256
					c-0.248,0-0.45-0.085-0.601-0.256c-0.155-0.172-0.234-0.425-0.234-0.767v-2.582c0-0.408-0.013-0.727-0.04-0.953
					c-0.028-0.221-0.106-0.409-0.229-0.552c-0.124-0.147-0.321-0.22-0.587-0.22c-0.537,0-0.888,0.182-1.059,0.551
					c-0.168,0.36-0.256,0.884-0.256,1.567v2.188c0,0.336-0.077,0.591-0.229,0.765c-0.156,0.171-0.357,0.258-0.608,0.258
					c-0.249,0-0.452-0.087-0.609-0.258c-0.159-0.174-0.237-0.429-0.237-0.765v-4.637c0-0.306,0.07-0.538,0.211-0.695
					c0.145-0.16,0.332-0.238,0.562-0.238c0.225,0,0.411,0.077,0.563,0.223c0.149,0.148,0.224,0.354,0.224,0.614v0.153
					c0.286-0.334,0.59-0.582,0.911-0.737c0.326-0.162,0.683-0.241,1.081-0.241c0.41,0,0.764,0.082,1.059,0.243
					c0.296,0.163,0.538,0.41,0.732,0.735c0.277-0.33,0.573-0.576,0.89-0.737c0.316-0.161,0.664-0.241,1.049-0.241
					c0.445,0,0.834,0.089,1.157,0.262c0.321,0.174,0.563,0.425,0.724,0.747c0.14,0.295,0.208,0.756,0.208,1.386v3.164
					c0,0.342-0.077,0.595-0.231,0.767c-0.155,0.171-0.362,0.256-0.618,0.256c-0.249,0-0.45-0.087-0.608-0.258
					c-0.158-0.174-0.237-0.429-0.237-0.765v-2.726c0-0.35-0.015-0.627-0.044-0.837c-0.029-0.21-0.111-0.388-0.241-0.529
					c-0.134-0.142-0.335-0.215-0.602-0.215c-0.216,0-0.42,0.067-0.614,0.192c-0.193,0.124-0.345,0.298-0.454,0.508
					C321.443,482.272,321.381,482.756,321.381,483.449"/>
			</g>
			<g>
				<path style="fill:#615FA3;" d="M245.227,482.938c-0.001-0.003-0.001-0.006-0.001-0.011
					C245.226,482.932,245.226,482.935,245.227,482.938z"/>
				<path style="fill:#615FA3;" d="M245.31,483.456c0.001,0,0.001,0,0.001,0c-0.031-0.147-0.055-0.294-0.074-0.438
					C245.256,483.163,245.28,483.31,245.31,483.456z"/>
				<path style="fill:#615FA3;" d="M245.852,484.96c-0.004-0.006-0.007-0.014-0.011-0.02
					C245.845,484.946,245.848,484.954,245.852,484.96z"/>
				<path style="fill:#615FA3;" d="M245.8,484.86c-0.015-0.028-0.028-0.057-0.041-0.084
					C245.772,484.806,245.785,484.832,245.8,484.86z"/>
				<path style="fill:#615FA3;" d="M245.462,484.035c0.08,0.25,0.177,0.493,0.289,0.724c-0.114-0.235-0.208-0.478-0.286-0.724
					H245.462z"/>
				<path style="fill:#615FA3;" d="M251.56,476.728c0.316,0,0.55,0.025,0.817,0.069l0.076-0.477c0,0-0.739-0.225-1.71-0.147
					l-0.076-0.259c0.302-0.063,0.529-0.329,0.529-0.646c0-0.364-0.3-0.659-0.668-0.659c-0.368,0-0.666,0.295-0.666,0.659
					c0,0.317,0.226,0.583,0.527,0.646l0.084,0.289c-1.031,0.141-1.851,0.539-1.851,0.539l0.145,0.44
					c0.624-0.206,1.165-0.331,1.655-0.384C250.903,476.75,251.265,476.728,251.56,476.728z"/>
				<path style="fill:#615FA3;" d="M245.839,479.139l0.004-0.005c0.024-0.03,0.048-0.06,0.071-0.089l-0.197-0.141l-0.308-0.223
					c-0.018,0.023-0.502,0.465-0.884,1.279c-0.016-0.025-0.035-0.051-0.057-0.074c-0.115-0.124-0.275-0.188-0.479-0.184
					c-0.002,0-0.006,0-0.009,0c-0.126,0-0.212-0.042-0.269-0.092c0.056-0.071,0.09-0.16,0.09-0.259c0-0.23-0.189-0.418-0.422-0.418
					s-0.422,0.188-0.422,0.418c0,0.232,0.189,0.418,0.422,0.418c0.037,0,0.071-0.006,0.105-0.013
					c0.104,0.114,0.269,0.214,0.51,0.209c0.124-0.001,0.215,0.03,0.276,0.097c0.07,0.076,0.094,0.185,0.101,0.268
					c-0.001,0.001-0.001,0.003-0.001,0.003c-0.275,0.743-0.196,1.669-0.196,1.669l0.667,0.026c0.013-0.337,0.062-0.927,0.234-1.395
					C245.406,479.729,245.822,479.163,245.839,479.139z"/>
				<path style="fill:#615FA3;" d="M257.364,477.28c-0.232,0-0.423,0.186-0.423,0.418c0,0.036,0.006,0.07,0.016,0.103
					c-0.116,0.104-0.217,0.268-0.213,0.507c0.002,0.123-0.03,0.213-0.098,0.273c-0.054,0.047-0.12,0.071-0.186,0.088
					c-0.496-0.689-1.107-1.11-1.107-1.11l-0.479,0.509c0.362,0.326,0.731,0.734,1.091,1.244c0.248,0.352,0.504,0.806,0.717,1.259
					l0.646-0.304c0,0-0.296-0.723-0.711-1.37c0.072-0.024,0.146-0.064,0.209-0.12c0.126-0.112,0.189-0.272,0.185-0.474
					c-0.001-0.13,0.042-0.218,0.094-0.275c0.072,0.054,0.162,0.089,0.261,0.089c0.233,0,0.422-0.188,0.422-0.418
					C257.786,477.467,257.598,477.28,257.364,477.28z"/>
				<path style="fill:#615FA3;" d="M255.688,483.031c-0.89,0.429-2.352,0.996-4.278,1.263c-0.756,0.104-1.489,0.142-2.163,0.142
					c-0.877,0-1.653-0.064-2.248-0.139c-0.679-0.085-1.21-0.189-1.534-0.262c0.078,0.245,0.172,0.488,0.286,0.724
					c0.002,0.007,0.005,0.014,0.008,0.018c0.014,0.027,0.027,0.056,0.041,0.084c0.013,0.027,0.027,0.054,0.041,0.079
					c0.004,0.007,0.007,0.015,0.011,0.02c0.191,0.356,0.42,0.685,0.682,0.968c0.908,0.984,1.834,1.141,1.843,1.142l0.015,0.002
					l0.013,0.005c0.008,0.003,0.829,0.266,2.077,0.266c1.227,0,2.432-0.246,3.58-0.729c0.85-0.431,1.654-1.085,2.053-1.669
					c0.308-0.451,0.53-0.933,0.662-1.434c0.07-0.266,0.126-0.692,0.093-1.141C256.618,482.536,256.223,482.773,255.688,483.031z"/>
				<path style="fill:#615FA3;" d="M246.124,479.348c-0.026,0.037-0.412,0.578-0.716,1.408c-0.228,0.622-0.218,1.527-0.218,1.537
					v0.002c0,0.213,0.012,0.423,0.036,0.632c0,0.005,0,0.008,0.001,0.011c0.002,0.027,0.007,0.053,0.01,0.08
					c0.019,0.145,0.043,0.291,0.075,0.438c0.442,0.111,3.078,0.721,6.024,0.313c1.847-0.254,3.249-0.795,4.1-1.204
					c0.708-0.34,1.162-0.647,1.338-0.773c-0.175-0.643-0.657-1.65-1.1-2.279c-1.265-1.791-2.629-2.25-3.33-2.364
					c-0.267-0.044-0.48-0.068-0.784-0.068c-0.282,0-0.632,0.022-1.1,0.071c-0.469,0.048-0.991,0.17-1.597,0.372
					c-0.851,0.282-1.62,0.725-2.225,1.28l-0.021,0.019C246.527,478.904,246.34,479.076,246.124,479.348z M253.865,478.931
					c0.607,0,1.1,0.488,1.1,1.09c0,0.601-0.493,1.09-1.1,1.09c-0.606,0-1.099-0.489-1.099-1.09
					C252.767,479.419,253.259,478.931,253.865,478.931z M248.666,478.888c0.982,0,1.777,0.788,1.777,1.761
					c0,0.973-0.795,1.759-1.777,1.759c-0.981,0-1.777-0.786-1.777-1.759C246.889,479.676,247.685,478.888,248.666,478.888z"/>
			</g>
		</g>
	</g>
</g>
</svg>
