<?xml version="1.0" encoding="utf-8"?>
<!-- Generator: Adobe Illustrator 27.5.0, SVG Export Plug-In . SVG Version: 6.00 Build 0)  -->
<svg version="1.1" id="Layer_1" xmlns="http://www.w3.org/2000/svg" xmlns:xlink="http://www.w3.org/1999/xlink" x="0px" y="0px"
	 viewBox="0 0 4000 4000" style="enable-background:new 0 0 4000 4000;" xml:space="preserve">
<g>
	<g>
		<rect style="fill:#80B4FF;" width="4000" height="4000"/>
	</g>
	<g>
		<g>
			<g>
				<g>
					<path style="fill:#FF5831;" d="M2477.5,2707.5c49.337,88.807,45.123,201.956-41.466,315.427
						c-2.836,3.716-5.473,7.646-7.387,11.911c-18.071,40.256,22.667,64.201,63.343,46.55c11.393-4.944,24.667,1.274,27.936,13.256
						c12.92,47.346-47.902,102.856-112.426,102.856l-170-25v-280l45-305C2365.422,2606.816,2440.519,2635.164,2477.5,2707.5z"/>
				</g>
				<g style="opacity:0.25;">
					<path style="fill:#390075;" d="M2477.5,2707.5c49.337,88.807,45.123,201.956-41.466,315.427
						c-2.836,3.716-5.473,7.646-7.387,11.911c-18.071,40.256,22.667,64.201,63.343,46.55c11.393-4.944,24.667,1.274,27.936,13.256
						c12.92,47.346-47.902,102.856-112.426,102.856l-170-25v-280l45-305C2365.422,2606.816,2440.519,2635.164,2477.5,2707.5z"/>
				</g>
				<g>
					<path style="fill:#390075;" d="M2407.502,3215.001c-0.854,0-1.704-0.063-2.544-0.186l-170-25
						c-8.594-1.265-14.956-8.633-14.956-17.314v-280c0-0.854,0.063-1.709,0.186-2.554l45-305c0.718-4.839,3.423-9.16,7.466-11.914
						c4.048-2.749,9.072-3.667,13.818-2.578c82.822,19.297,165.142,48.257,206.475,128.813
						c56.709,102.324,41.04,224.146-43.003,334.272c-2.539,3.335-4.238,6.03-5.337,8.477c-4.15,9.238-3.833,16.382,0.942,21.216
						c6.597,6.689,22.29,9.561,39.473,2.1c10.151-4.399,21.689-4.175,31.675,0.615c9.902,4.756,17.236,13.54,20.112,24.092
						c6.201,22.729,0.142,47.661-17.075,70.205C2494.338,3193.507,2450.28,3215.001,2407.502,3215.001z M2255.002,3157.389
						l153.726,22.603c31.411-0.415,64.707-16.782,83.188-40.986c6.05-7.92,15.532-23.608,11.128-39.751
						c-0.219-0.791-0.723-1.382-1.499-1.753c-0.489-0.229-1.455-0.552-2.593-0.059c-28.809,12.515-60.278,8.638-78.311-9.614
						c-15.054-15.244-18.027-37.734-7.964-60.156c2.231-4.956,5.225-9.829,9.438-15.356
						c76.396-100.107,90.63-205.342,40.088-296.313c-0.098-0.176-0.19-0.356-0.283-0.537
						c-31.914-62.417-96.748-89.019-164.907-106.421l-42.012,284.741V3157.389z"/>
				</g>
				<g>
					<path style="fill:#FF5831;" d="M3085.55,2318.1c116.55,139.9,84.801,394.25-93.2,502.7c-9.7,5.9-19.85,11.4-30.4,16.4
						c-36.7,17.35-76.6,26.75-117.05,30.05c-145.75,11.85-262.8-24.35-361.55-103.85c-0.05,0-0.05-0.05-0.1-0.05
						c-31.4-25.2-61-54.9-89-88.75c-0.6-0.7-1.15-1.4-1.75-2.1c17.4,119.6,1.95,235-55,345c-26.85,103,2.45,169.95,95.1,157.6
						c13.55-1.8,24.6,8.1,25.95,20c0.4,4.15-0.3,8.5-2.45,12.7c-38.4,75-162.5,100.9-242.75,47.65c-1.5-0.95-2.949-1.95-4.399-3
						c0,0-0.05,0-0.05-0.05c-4.15-2.95-8.15-6.1-12.05-9.6c-11.2-9.8-21.1-21.55-29.35-35.3l-75,5c-98.8-58.85-141.2-246.7-190-420
						l-78.1-3.4l-8.65-0.35l-3.85-0.2l-10.7-0.45l-316.95-13.8l-375.9-16.35l-10.85-0.45c-82.8,10.15-154.75-1.95-211.8-31.1
						c-100.35-51.4-154.55-155.65-140.5-284.6c2.2-20.25,6.75-40.2,13.75-59.15c7.95-21.75,19.15-42.25,33.6-60.55
						c86.3-109.15,249.05-112.5,268.2,36.55c1.8,14.3-4.951,28.3-16.9,36.3c-6.55,4.35-14.05,6.5-21.5,6.5
						c-9.15,0-18.2-3.2-25.25-9.65c-10-9.15-19.85-16.4-29.55-20.8c-3.4-1.55-6.75-2.7-10.05-3.5c-40,25-60,130,40,155
						c71.15,9.5,132.7-39.95,190-115c-81-143.15-45-310,90-415c-75-155-71-356.85-5-485l70-115c-94.2-96-135-310,195-505
						c327.2-189.7,766.85-318.75,990.45-482.9c18.049-13.25,43.7-7.05,53.8,12.95c101.1,199.7,250.65,347.6,386.9,516.35
						c10.8,13.35,21.9,26.5,33.45,39.2c44.851,49.1,81.951,101.75,109.851,155.35c0,0,0,0,0.05,0.05
						c121.65,233.2,70.55,483.9-267.45,533c-2.35,0.35-4.7,0.7-7.05,1c-23.95,185.5-76.9,340.2-183.2,438.3
						c-0.6,0.6-1.2,1.15-1.8,1.7c35.7,46.45,59.7,80.9,64.3,127.2c3.25,32.8-4.6,65.8-20.95,94.45
						c-25.1,44.05-57.899,86.8-98.35,128.35c30.55,61.45,75.05,114.35,134.1,158.4c33.6,25.1,74,39.25,115.9,41.25
						c22.45,1.05,44.15,1.25,65,0.35c0.2-0.15,0.4-0.3,0.55-0.5c17.8-14.9,32.15-32.3,43-50.9v-0.05
						c43.8-74.85,31.851-169.7-33.55-208.55c-27.55-8.55-52.1,0.4-73.85,25.4c-13.25,15.25-34.6,21.85-53.199,13.95
						c-19.551-8.35-33.6-28.05-30.851-54.95c0.851-8.45,3.65-16.55,7.4-24.2c25.55-52.55,67.3-84.85,114.6-98.7
						C2959.35,2232.65,3037.05,2259.85,3085.55,2318.1z"/>
				</g>
				<g style="opacity:0.4;">
					<g>
						<path style="fill:#FFFFFF;" d="M2438.2,2709.6c-0.6-0.7-1.15-1.4-1.75-2.1c0.762,5.239,1.38,10.46,2.015,15.683
							c14.515,14.432,29.432,27.845,44.784,40.167c0.05,0,0.05,0.05,0.1,0.05c7.717,6.212,15.587,12.064,23.533,17.746
							C2482.953,2759.929,2460.08,2736.051,2438.2,2709.6z"/>
					</g>
					<g>
						<path style="fill:#FFFFFF;" d="M2458.55,3195.1c-1.35-11.9-12.4-21.8-25.95-20c-19.088,2.544-35.443,1.673-49.216-2.136
							c12.69,24.188,36.055,38.125,70.642,38.549c0.695-1.236,1.427-2.449,2.074-3.713
							C2458.25,3203.6,2458.95,3199.25,2458.55,3195.1z"/>
					</g>
					<g>
						<path style="fill:#FFFFFF;" d="M2886.6,2254c-47.301,13.85-89.05,46.15-114.6,98.7c-3.75,7.65-6.55,15.75-7.4,24.2
							c-2.75,26.9,11.3,46.6,30.851,54.95c4.939,2.098,10.071,3.145,15.194,3.307c-2.141-6.944-2.966-14.736-2.095-23.258
							c0.851-8.45,3.65-16.55,7.4-24.2c25.55-52.55,67.3-84.85,114.6-98.7c50.135-14.713,102.618-6.364,146.279,19.311
							C3028.059,2256.875,2955.138,2233.886,2886.6,2254z"/>
					</g>
					<g>
						<path style="fill:#FFFFFF;" d="M2891.45,2687.15c22.45,1.05,44.15,1.25,65,0.35c0.2-0.15,0.4-0.3,0.55-0.5
							c17.8-14.9,32.15-32.3,43-50.9v-0.05c43.8-74.85,31.851-169.7-33.55-208.55c-2.905-0.902-5.769-1.565-8.608-2.079
							c32.614,46.653,32.383,117.227-1.792,175.629v0.05c-10.85,18.6-25.2,36-43,50.9c-0.149,0.2-0.35,0.35-0.55,0.5
							c-20.85,0.9-42.55,0.7-65-0.35c-38.248-1.826-75.229-13.807-106.946-34.969c11.049,9.948,22.688,19.537,34.996,28.719
							C2809.15,2671,2849.55,2685.15,2891.45,2687.15z"/>
					</g>
					<g>
						<path style="fill:#FFFFFF;" d="M997.5,2522.5c-5.968-1.492-11.481-3.286-16.615-5.314
							c11.049,17.807,30.273,32.741,60.565,40.314c71.15,9.5,132.7-39.95,190-115c-16.228-30.367-45.924-96.195-41.82-182.703
							c6.169-130.025,84.277-213.586,105.37-234.797c-24.608-45.418-60.145-124.888-70-230c-11.234-119.816,16.362-214.721,35-265
							c26.667-46.667,53.333-93.333,80-140c-7.485-20.267-16.169-50.407-17.308-87.179
							c-1.374-44.384-17.021-220.433,258.758-380.321c327.2-189.7,766.85-318.75,990.45-482.9
							c5.436-3.991,11.564-6.186,17.745-6.802c-2.656-5.056-5.303-10.124-7.896-15.247c-10.1-20-35.75-26.2-53.8-12.95
							c-223.6,164.15-663.251,293.2-990.45,482.9c-330,195-289.2,409-195,505l-70,115c-66,128.15-70,330,5,485
							c-135,105-171,271.85-90,415C1130.2,2482.55,1068.65,2532,997.5,2522.5z"/>
					</g>
					<g>
						<path style="fill:#FFFFFF;" d="M1946.45,2827.5l-34.622-1.507c45.143,163.377,88.209,331.432,180.671,386.507l2.72-0.181
							C2024.671,3132.012,1987.855,2974.539,1946.45,2827.5z"/>
					</g>
					<g>
						<path style="fill:#FFFFFF;" d="M2211.45,3242.5l-13.861,0.924c3.669,3.241,7.419,6.21,11.311,8.976
							c0,0.05,0.05,0.05,0.05,0.05c1.45,1.05,2.9,2.05,4.399,3c4.227,2.805,8.599,5.341,13.05,7.711
							C2220.977,3256.845,2215.948,3249.997,2211.45,3242.5z"/>
					</g>
					<g>
						<path style="fill:#FFFFFF;" d="M789.15,2476.8c2.2-20.25,6.75-40.2,13.75-59.15c7.95-21.75,19.15-42.25,33.6-60.55
							c53.928-68.207,137.707-95.098,197.646-69.308c-54.038-72.629-172.376-53.24-241.596,34.308
							c-14.45,18.3-25.65,38.8-33.6,60.55c-7,18.95-11.55,38.9-13.75,59.15c-12.997,119.283,32.44,217.395,118.751,272.125
							C806.657,2656.858,778.578,2573.826,789.15,2476.8z"/>
					</g>
				</g>
				<g>
					<path style="fill:#390075;" d="M1718.271,2341.392c-44.393,147.072-212.459,144.65-270.322,6.588
						c-43.771-100.763-4.138-250.03,112.624-277.552c82.359-18.953,154.484,52.118,165.675,128.285c0.892,5.527-6.915,7.616-9,2.574
						c-23.871-60.754-82.432-117.408-149.996-100.897c-90.49,24.649-119.934,141.944-92.765,223.284
						c31.782,97.255,130.925,136.122,206.387,57.104c11.691-12.399,21.713-26.719,30.453-42.171
						C1713.323,2334.721,1719.502,2337.221,1718.271,2341.392L1718.271,2341.392z"/>
				</g>
				<g>
					<g>
						<path style="fill:#390075;" d="M1541.663,2175.344c5.602-8.854,15.388-14.101,25.757-14.895
							c11.543-0.884,21.796,4.392,31.016,10.898c16.816,11.865,28.886,30.411,34.817,49.94c6.821,22.462,7.594,47.83,3.348,70.88
							c-3.856,20.933-13.613,42.429-33.822,52.02c-10.602,5.032-22.984,5.729-34.132,2.197c-5.335-1.69-10.081-4.551-14.759-7.565
							c-4.714-3.038-10.102-4.387-14.852-7.15c-2.327-1.353-4.962,0.874-4.39,3.375c1.419,6.205,2.398,11.637,7.087,16.434
							c4.589,4.694,10.755,7.959,16.739,10.455c12.224,5.098,25.604,6.128,38.552,3.418c27.446-5.744,45.934-29.332,53.738-55.074
							c8.472-27.945,8.37-61.132,0.989-89.284c-6.608-25.203-21.229-49.792-44.498-62.79
							c-23.141-12.927-58.683-13.222-72.775,12.942C1531.934,2175.87,1538.798,2179.873,1541.663,2175.344L1541.663,2175.344z"/>
					</g>
				</g>
				<g>
					<g>
						<path style="fill:#390075;" d="M1608.719,2349.037c-2.974-2.243-6.68-2.543-10.112-3.811
							c-4.391-1.622-7.97-4.274-11.838-6.814c-7.411-4.868-13.548-11.896-17.968-19.53c-9.982-17.242-12.669-38.553-13.276-58.146
							c-0.638-20.607,0.861-43.64,8.928-62.87c3.515-8.379,9.317-16.525,17.843-20.353c8.697-3.905,17.839-1.516,25.802,2.937
							c4.024,2.25,7.808,4.906,11.462,7.712c3.24,2.488,7.165,5.382,11.364,3.134c8.328-4.458-1.238-12.897-5.366-16.035
							c-14.368-10.924-31.966-18.522-49.566-10.415c-17.388,8.01-25.822,26.482-29.843,44.176
							c-4.702,20.692-6.166,42.272-4.311,63.405c1.857,21.156,6.471,43.121,19.499,60.42c5.671,7.53,13.349,14.718,22.193,18.354
							c6.543,2.689,18.895,6.217,25.187,1.683C1610.165,2351.84,1610.113,2350.088,1608.719,2349.037L1608.719,2349.037z"/>
					</g>
				</g>
				<g>
					<path style="fill:#390075;" d="M2311.125,3301.109c-63.76,0-119.702-27.715-152.734-75.464l-64.727,4.316
						c-3.525,0.21-7.065-0.615-10.117-2.427c-94.805-56.47-137.72-212.266-183.159-377.217c-3.765-13.647-7.524-27.3-11.313-40.884
						l-790.894-34.39c-82.583,9.873-158.765-1.548-220.444-33.062c-108.447-55.547-164.492-168.472-149.932-302.08
						c5.249-48.569,22.891-93.062,51.016-128.652c52.876-66.88,133.833-99.204,201.499-80.435
						c53.809,14.927,89.448,60.708,97.788,125.601c2.627,20.864-6.768,41.187-24.517,53.076c-9.346,6.201-20.127,9.458-31.24,9.458
						c-13.862,0-27.022-5.059-37.061-14.243c-9.053-8.281-17.275-14.18-24.458-17.534c-12.324,12.432-21.602,37.593-17.715,62.202
						c3.096,19.561,15.63,45.059,57.671,55.903c54.038,6.787,106.89-24.941,165.864-99.463
						c-76.055-144.805-40.747-310.059,89.189-418.34c-69.057-153.235-69.033-351.812,1.104-487.988
						c0.191-0.369,0.391-0.732,0.61-1.086l63.11-103.689c-48.159-54.636-70.156-126.704-60.552-199.861
						c10.64-80.996,65.85-202.678,268.486-322.417c151.704-87.957,325.435-162.119,493.452-233.838
						c193.633-82.656,376.523-160.73,495.542-248.103c12.73-9.355,28.872-12.608,44.253-8.921
						c15.43,3.691,28.374,13.931,35.522,28.088c74.746,147.639,174.614,264.619,280.342,388.469
						c34.497,40.405,70.166,82.188,104.556,124.775c11.709,14.475,22.437,27.046,32.778,38.418
						c148.677,162.788,208.379,353.994,155.781,498.977c-29.785,82.102-109.16,185.61-317.729,217.629
						c-27.031,196.016-85.098,335.84-177.153,426.46c31.489,41.816,53.652,77.124,58.267,123.579
						c3.555,35.815-4.458,72.075-23.159,104.854c-23.818,41.792-54.829,83.047-92.271,122.759
						c29.17,54.497,70.596,101.987,123.281,141.289c30.615,22.871,67.363,35.938,106.274,37.798
						c5.273,0.249,10.522,0.449,15.723,0.591c31.035,0.923,60.229-15.015,76.011-41.509l0.459-0.781
						c0.132-0.254,0.273-0.508,0.42-0.757c39.883-68.159,28.301-149.946-25.591-183.574c-12.808-3.555-31.68-4.336-53.506,20.752
						c-18.848,21.699-48.271,29.18-73.242,18.569c-28.452-12.153-44.697-40.737-41.416-72.837c0.981-9.795,3.96-19.658,9.092-30.127
						c26.353-54.199,69.722-91.494,125.396-107.793c77.754-22.817,163.062,4.541,217.314,69.702
						c64.058,76.904,87.881,188.198,63.726,297.715c-24.561,111.343-95.01,201.88-193.286,248.394
						c-36.685,17.349-78.105,28.008-123.115,31.68c-174.819,14.229-313.047-36.772-430.815-159.834
						c6.489,106.26-14.136,206.572-61.548,298.911c-13.721,53.828-10.796,95.283,8.291,116.865
						c13.75,15.542,36.65,21.313,68.037,17.114c15.034-1.997,29.771,4.385,38.481,16.709c8.608,12.178,9.727,28.008,2.91,41.313
						c-25.337,49.492-85.435,82.939-153.105,85.21C2316.081,3301.065,2313.591,3301.109,2311.125,3301.109z M2167.507,3190.001
						c6.118,0,11.826,3.203,15,8.496c26.528,44.214,76.914,69.419,134.893,67.505c55.161-1.851,103.491-27.827,123.125-66.177
						c1.147-2.246,0.449-4.043-0.337-5.156c-0.708-0.996-2.3-2.603-5.259-2.227c-54.395,7.261-83.804-11.558-98.896-28.618
						c-27.671-31.284-33.018-83.408-15.464-150.737c0.327-1.26,0.796-2.476,1.392-3.633
						c53.516-103.364,70.923-212.759,53.223-334.434c-1.128-7.773,3.066-15.352,10.249-18.53c7.188-3.169,15.61-1.182,20.601,4.897
						c117.671,143.213,256.65,203.096,437.451,188.423c40.781-3.33,78.125-12.896,110.986-28.433
						c88.413-41.851,151.86-123.604,174.072-224.297c21.841-99.023,0.742-199.126-56.44-267.778v-0.005
						c-45.322-54.429-116.196-77.397-180.576-58.506c-45.957,13.452-81.841,44.424-103.789,89.561
						c-3.296,6.724-5.156,12.69-5.723,18.296c-1.743,17.07,5.85,30.933,20.313,37.109c10.913,4.634,24.233,0.889,33.11-9.331
						c33.56-38.574,68.691-37.949,92.251-30.64c1.313,0.405,2.573,0.967,3.75,1.67c71.685,42.578,89.619,146.338,40.176,231.641
						c-0.137,0.273-0.283,0.537-0.435,0.801l-1.045,1.772c-22.266,37.373-63.213,59.697-107.056,58.579
						c-5.41-0.151-10.884-0.361-16.396-0.62c-45.928-2.192-89.336-17.656-125.557-44.712
						c-60.591-45.2-107.461-100.591-139.292-164.629c-3.311-6.65-2.056-14.668,3.13-19.995
						c39.307-40.381,71.499-82.373,95.684-124.81c15.093-26.445,21.567-55.513,18.74-84.058
						c-4.165-41.89-26.763-74.023-60.762-118.262c-5.542-7.212-4.634-17.466,2.085-23.594
						c94.561-86.25,153.257-226.682,179.438-429.312c1.011-7.847,7.163-14.038,15.005-15.1
						c159.194-21.57,263.892-89.619,302.773-196.794c47.412-130.693-10.977-312.615-148.745-463.464
						c-10.825-11.899-21.987-24.973-34.136-39.993c-34.096-42.229-69.609-83.826-103.95-124.053
						c-102.417-119.963-208.32-244.014-284.961-395.4c-2.505-4.971-7.036-8.552-12.432-9.844
						c-5.454-1.301-10.903-0.198-15.396,3.096c-122.275,89.766-306.973,168.608-502.515,252.08
						c-167.051,71.306-339.785,145.042-489.512,231.853c-190.381,112.497-241.841,223.484-251.465,296.768
						c-12.49,95.137,37.92,158.157,60.176,180.837c5.61,5.715,6.621,14.512,2.456,21.355l-69.668,114.46
						c-66.016,128.74-63.735,325.779,5.474,468.818c3.599,7.432,1.509,16.367-5.01,21.436
						c-127.778,99.385-162.139,257.144-85.513,392.568c3.452,6.099,2.934,13.667-1.318,19.238
						c-70.557,92.407-136.089,131.035-206.226,121.729c-0.649-0.088-1.294-0.21-1.929-0.371
						c-47.197-11.797-78.071-42.646-84.712-84.634c-6.348-40.151,10.713-84.077,39.678-102.183
						c4.004-2.495,8.843-3.276,13.408-2.168c4.458,1.084,8.896,2.627,13.188,4.59c10.772,4.888,21.934,12.681,34.092,23.804
						c6.514,5.962,17.451,6.66,25.259,1.484c6.519-4.365,10.156-12.051,9.214-19.536c-6.543-50.942-32.266-85.151-72.422-96.294
						c-53.428-14.824-121.123,13.32-164.688,68.413c-24.028,30.41-39.131,68.701-43.677,110.723
						c-12.925,118.628,36.074,218.486,131.079,267.144c55.786,28.506,125.532,38.638,201.694,29.312
						c0.957-0.117,1.904-0.156,2.891-0.117l805,35c7.549,0.332,14.033,5.469,16.084,12.744c4.971,17.651,9.878,35.459,14.78,53.267
						c40.845,148.262,83.052,301.479,162.842,353.638l69.37-4.624C2166.725,3190.016,2167.116,3190.001,2167.507,3190.001z"/>
				</g>
				<g>
					<path style="fill:#390075;" d="M2811.748,1716.837c17.861-152.269,22.639-307.111-0.344-459.057
						c-9.91-69.11-26.745-137.071-50.156-202.963c-2.717-7.777,8.84-12.867,12.439-4.825
						c44.039,104.88,66.756,217.669,76.772,330.656c9.88,113.202,7.075,227.213-3.943,340.193
						c-0.938,9.62-9.497,16.659-19.116,15.721C2817.562,1735.623,2810.433,1726.627,2811.748,1716.837L2811.748,1716.837z"/>
				</g>
				<g>
					<path style="fill:#390075;" d="M1285.007,1453.294c191.375-313.842,525.443-560.789,842.774-737.588
						c109.809-60.333,224.037-113.272,343.056-152.361c2.354-0.773,4.888,0.508,5.659,2.861c0.713,2.168-0.327,4.493-2.334,5.448
						c-112.583,53.708-223.362,109.698-331.382,170.918c-121.339,68.766-238.411,145.798-349.148,230.461
						c-32.83,25.217-77.095,60.487-108.75,87.161c-140.724,119.57-272.045,253.869-369.876,411.129
						C1302.977,1490.302,1273.693,1473.845,1285.007,1453.294L1285.007,1453.294z"/>
				</g>
				<g>
					<path style="fill:none;stroke:#390075;stroke-width:35;stroke-linecap:round;stroke-linejoin:round;stroke-miterlimit:10;" d="
						M2439.508,2724.215"/>
				</g>
				<g>
					<path style="fill:#390075;" d="M2381.541,2778.575c3.812-66.535-4.491-135.906-41.609-192.571
						c-12.214-18.753-27.378-35.76-44.792-50.399c-3.668-3.017,0.626-8.96,4.658-6.251c41.375,24.812,73.284,63.805,91.34,108.486
						c18.738,44.741,25.609,93.624,25.403,141.684C2415.771,2803.238,2381.069,2802.438,2381.541,2778.575L2381.541,2778.575z"/>
				</g>
				<g>
					<path style="fill:#390075;" d="M2633.848,2439.121c-25.471,20.51-53.923,37.434-83.997,48.015
						c-2.729,0.96-5.718-0.474-6.68-3.202c-0.81-2.296,0.086-4.745,1.978-6.069c12.153-9.507,23.362-19.61,33.811-30.224
						c9.412-9.716,21.611-23.724,30.676-33.917C2627.133,2395.601,2652.808,2422.472,2633.848,2439.121L2633.848,2439.121z"/>
				</g>
				<g>
					<path style="fill:#390075;" d="M2659.763,2141.442c-9.463-12.637-18.899-24.906-28.977-35.886
						c-10.071-10.997-20.842-20.604-32.837-28.391c-4.019-2.609-5.161-7.982-2.551-12c2.68-4.183,8-4.917,12.102-2.664
						c14.993,6.234,29.333,15.087,42.62,25.298c13.315,10.203,25.667,21.52,37.676,32.687c7.134,6.635,7.539,17.797,0.906,24.932
						C2680.256,2154.589,2665.778,2151.94,2659.763,2141.442L2659.763,2141.442z"/>
				</g>
				<g>
					<path style="fill:#FFFFFF;" d="M1481.825,1929.852c-6.522-52.016-39.796-97.722-88.31-117.586
						c-84.141-34.453-176.016,18.984-206.016,120.234c-12.325,42.259-13.49,86.378-3.274,126.025
						c34.121,132.422,216.455,149.021,277.114,26.463C1484.841,2037.504,1488.775,1985.281,1481.825,1929.852z"/>
				</g>
				<g>
					<path style="fill:#390075;" d="M1183.787,2359.595c6.233,13.673,13.13,26.697,21.267,38.45
						c8.123,11.756,17.52,22.177,28.328,30.748c3.752,2.977,4.382,8.433,1.406,12.186c-3.06,3.907-8.415,4.136-12.288,1.52
						c-14.126-7.461-27.312-17.663-39.028-29.512c-11.75-11.842-22.092-25.195-31.531-38.872c-5.532-8.017-3.521-19,4.497-24.533
						C1166.61,2342.484,1180.145,2348.108,1183.787,2359.595L1183.787,2359.595z"/>
				</g>
				<g>
					<path style="fill:#FF5831;" d="M1462.079,2600.161l20.421,510.89l-165.556,47.313
						c-132.669,92.867-275.599-42.29-227.365-103.759c7.829-9.977,22.642-11.529,33.206-4.132
						c37.799,26.465,80.347-5.976,78.267-66.98c-0.972-28.513-12.49-55.709-30.755-78.435
						c-129.297-160.879-27.888-471.786,153.945-425.39L1462.079,2600.161z"/>
				</g>
				<g>
					<path style="fill:#390075;" d="M1322.798,2485.323c-97.423-15.042-163.544,71.19-184.247,157.586
						c-21.921,87.31-9.139,186.987,50.231,256.861c32.691,43.007,44.883,110.706,8.03,155.918
						c-20.681,25.159-57.685,29.606-84.559,9.814c-2.713-1.814-6.865-1.852-8.616,1.092l-0.791,1.081
						c-3.835,5.83-5.181,12.871-3.875,21.24c3.135,18.305,16.635,35.897,31.084,48.462c31.698,27.73,76.72,40.476,118.196,32.008
						c20.909-3.999,40.958-13,59.048-25.454c1.516-1.016,3.21-1.777,4.873-2.26l165.557-47.313l-12.578,17.386l-20.42-510.89
						c-0.421-22.629,33.065-24.526,34.695-1.386c0,0,20.422,510.889,20.422,510.889c0.325,8.165-5.056,15.238-12.578,17.387
						l-165.557,47.313c-0.01,0.007,5.226-2.493,5.176-2.463c-66.03,49.052-158.283,46.929-220.943-7.364
						c-26.54-22.872-49.627-57.256-43.25-94.702c5.227-30.692,33.604-52.781,63.91-38.946c3.199,1.484,6.34,3.593,9.294,5.534
						c34.339,18.738,50.748-29.383,46.613-59.205c-1.984-22.829-12.846-45.246-27.604-63.611
						c-88.264-112.893-77.194-310.383,27.174-409.633c18.996-17.375,42.665-30.631,68.166-36.344
						c25.537-5.604,52.227-3.318,75.435,5.689C1332.104,2476.664,1329.539,2486.138,1322.798,2485.323L1322.798,2485.323z"/>
				</g>
				<g>
					<path style="fill:#FF5831;" d="M1622.5,2657.5l20,530l-162.147,49.083c-129.937,96.341-269.924-43.871-222.683-107.64
						c7.668-10.35,22.176-11.96,32.522-4.287c37.021,27.455,78.693-6.199,76.655-69.485c-0.952-29.58-12.233-57.792-30.122-81.369
						c-126.634-166.896-27.313-489.433,150.775-441.301L1622.5,2657.5z"/>
				</g>
				<g>
					<path style="fill:#390075;" d="M1485.964,2538.179c-150.738-20.151-207.08,184.91-185.193,302.787
						c5.656,33.832,16.156,66.73,33.327,96.268c1.503,2.53,5.052,8.45,6.48,10.866c1.491,2.079,5.748,8.091,7.3,10.276
						c22.506,28.629,38.15,65.059,37.197,102.537c0.534,36.704-16.638,81.439-56.814,90.628
						c-10.843,2.073-22.444,1.187-32.698-3.009c0,0-5.793-2.528-5.793-2.528c-5.035-1.489-12.614-11.155-17.117-6.063
						c-9.978,13.739-5.325,33.017,3.262,47.924c15.418,27.25,43.066,47.663,72.861,57.221
						c41.208,13.919,86.707,2.925,121.108-22.531c1.626-1.196,3.54-2.149,5.398-2.722c0,0,162.146-49.082,162.146-49.082
						l-12.417,17.409l-20-530c-0.364-9.658,7.17-17.783,16.829-18.147c9.658-0.364,17.783,7.169,18.147,16.828l20,530
						c0.305,8.122-4.988,15.159-12.417,17.41l-162.148,49.082l5.354-2.691c-21.358,15.748-46.017,28.411-72.346,33.544
						c-53.449,11.407-111.051-7.25-149.768-45.396c-20.152-20.11-36.125-44.709-38.767-74.643
						c-3.642-40.85,30.792-81.271,71.456-54.277c24.207,18.515,43.345-10.841,45.956-33.981c4.946-31.39-4.596-63.052-23.339-88.979
						c-3.909-5.602-9.674-13.9-13.498-19.544c-9.017-15.034-17.567-31.035-23.752-47.455
						c-36.491-94.77-30.063-204.322,14.105-295.271c22.611-45.562,60.298-89.747,111.627-102.614
						c25.749-6.638,53.149-4.646,76.587,4.795C1495.488,2529.561,1492.74,2539.135,1485.964,2538.179L1485.964,2538.179z"/>
				</g>
				<g>
					<path style="fill:#FFFFFF;" d="M2344.663,2257.497c71.252-15.748,130.492-54.816,163.779-117.637
						c40.759-76.923,31.907-171.861-22.109-240.131c-20.44-25.834-45.527-47.684-73.466-64.72
						c-169.834-103.56-380.862,47.313-343.004,242.595c0.439,2.265,0.901,4.522,1.386,6.772
						C2097.814,2207.633,2221.547,2284.707,2344.663,2257.497z"/>
				</g>
				<g>
					<path style="fill:#390075;" d="M2188.745,2251.062c83.021,8.453,174.151,0.54,243.064-50.392
						c66.279-47.57,96.066-136.571,74.293-214.736c-26.833-99.919-128.063-167.199-228.47-174.582
						c-63.291-4.896-125.342,15.372-175.317,56.194c-3.01,2.427-7.42,1.953-9.846-1.059c-2.166-2.688-2.019-6.489,0.176-9
						c29.937-34.285,71.011-60.339,116.479-72.424c194.462-51.265,404.327,131.428,330.675,332.745
						c-39.548,106.364-143.911,160.331-252.739,160.073c-34.05-0.197-68.149-4.961-100.805-13.943
						C2178.448,2261.724,2180.677,2250.17,2188.745,2251.062L2188.745,2251.062z"/>
				</g>
				<g>
					<path style="fill:#390075;" d="M1357.322,2197.857c-154.782,13.688-229.195-141.876-186.183-275.651
						c19.415-64.284,71.261-122.177,139.775-134.788c50.964-10.421,105.023,8.513,139.133,46.637
						c11.197,11.98,20.464,25.375,27.781,39.552c1.692,3.277,0.408,7.305-2.871,8.996c-2.588,1.337-5.647,0.815-7.651-1.08
						c-11.067-10.517-22.179-20.395-33.813-29.082c-91.034-70.038-193.365-22.401-226.609,81.146
						c-26.461,80.219-8.116,178.973,68.48,224.467c24.086,15.088,52.467,23.702,82.316,29.088
						C1363.806,2188.071,1363.509,2197.319,1357.322,2197.857L1357.322,2197.857z"/>
				</g>
				<g>
					<path style="fill:#FF5831;" d="M2231.65,3229.85c-1.15,1.45-2.351,2.8-3.601,4.15c-6.2,6.55-12.5,12.65-18.899,18.15
						c-0.1,0.1-0.2,0.2-0.25,0.25c-152.6,132.45-352.8-19.3-371.4-209.9c-0.7,4.55-1.45,9.1-2.2,13.55
						c-1.3,7.35-2.65,14.6-4.05,21.75c-52.35,261.4-216.8,402.85-344.65,171.9c-4.25-7.7-7.7-15.85-10.1-24.25
						c-0.8-2.85-1.5-5.75-2.05-8.65c-1.151-5.8-1.7-11.7-1.7-17.65c0.05-10.65,1.799-20.3,5.05-28.35
						c4.399-10.6,11.45-18.55,21-22.7c5.25-2.25,11.2-3.35,17.85-3.15c4.9,0.1,10.15,0.95,15.85,2.55l35,10
						c-0.3-3.7-0.8-7.5-1.45-11.3c0.05-0.05,0.05-0.05,0-0.1c-9.7-58-54.8-128.6-73.55-203.6c-5.75-26.95-9.35-53.05-11-78.05
						c-2.05-31.9-0.95-62.05,2.75-90.15c23.9-178.85,155.45-273.6,263.25-191.8l90,25c153.4-168.25,438.95,74.85,265.65,448.15
						c-4.45,9.6-8.4,19.35-11.2,29.55c-23.25,84.55,23.949,99.5,75.55,57.3c26.95-15,52.1-9.8,66.7,7.4
						c5.199,6.05,9.05,13.55,11.2,22.2C2250.5,3192.35,2244.75,3213.75,2231.65,3229.85z"/>
				</g>
				<g>
					<path style="fill:#390075;" d="M1832.292,2602.753c96.937-114.112,242.831-55.707,302.192,64.082
						c60.591,118.027,42.098,261.251-9.201,379.087c-6.306,14.955-16.229,35.788-19.148,51.599
						c-2.926,14.019-5.93,33.25,0.344,44.897c9.729,15.601,39.279-4.456,50.061-13.313c8.507-5.652,18.219-9.162,28.719-11.44
						c29.821-7.039,63.365,11.204,73.737,40.077c11.163,27.053,5.386,58.232-11.867,80.895
						c-7.438,9.643-14.194,14.921-21.625,22.616c0,0-4.578,3.91-4.578,3.91c-13.344,11.909-28.996,22.587-44.615,31.283
						c-3.041,1.684-13.283,6.246-16.601,7.946c-10.785,4.677-23.729,8.46-35.193,11.354
						c-158.506,32.38-292.027-124.227-304.428-271.5c-0.112-0.144,34.709,0.984,34.704,0.936
						c-17.374,103.473-48.783,211.318-122.606,289.411c-76.082,75.962-161.714,59.428-225.136-22.237
						c-10.269-12.887-20.778-28.412-28.999-42.699c-4.127-6.935-9.662-16.127-12.72-23.618
						c-27.964-64.721,3.111-141.205,83.208-112.157c0-0.001,23.692,6.769,23.692,6.769c0.266-0.021-22.192,18.267-22.17,18.301
						c-6.328-46.889-31.459-90.686-49.213-134.76c-59.966-133.04-57.341-334.661,54.764-440.046
						c57.165-52.603,136.462-60.201,195.857-6.878c6.14,5.462-1.329,14.815-7.94,10.464c-93.79-59.606-179.57,6.627-217.123,96.584
						c-33.412,80.873-33.479,172.981-14.564,257.616c1.45,5.716,4.865,16.93,6.702,22.526
						c15.313,46.152,38.67,91.543,54.832,138.738c5.534,16.519,10.083,33.968,11.562,52.849c0.849,9.654-6.358,18.166-16.021,18.918
						c-2.165,0.169-4.33-0.085-6.301-0.659c-6.453-1.948-28.823-8.166-35.395-10.082c0,0-4.549-1.072-4.549-1.072l-4.348-0.575
						c-11.582-0.832-18.132,2.994-23.228,12.573c-9.196,19.167-4.229,47.558,7.061,66.489c-0.001,0,6.015,10.196,6.015,10.196
						c7.535,12.921,16.909,27.131,26.289,38.764c91.563,117.001,181.683,36.668,231.45-67.393
						c27.447-57.185,44.226-119.952,54.295-183.387c3.359-19.825,31.852-19.262,34.636,0.397
						c8.785,83.898,54.605,165.42,125.627,211.795c37.087,24.066,82.369,37.503,126.431,30.506c0,0,9.956-1.681,9.956-1.681
						c2.115-0.812,12.255-3.029,14.65-3.937c4.39-1.901,9.877-3.373,14.277-5.283c2.272-1.239,11.436-5.292,13.831-6.551
						c3.768-2.129,9.683-5.744,13.294-7.779c9.956-6.422,19.792-14.377,28.779-22.131c10.379-10.344,21.085-18.961,25.312-32.58
						c7.218-18.789-0.202-45.448-20.561-50.506c-9.023-2.559-20.083-0.054-30.525,5.557l2.544-1.728
						c-18.678,14.42-37.992,26.949-64.099,26.49c-47.425-2.956-50.601-56.952-40.905-92.402
						c3.796-17.724,13.999-40.545,21.567-57.155c41.753-93.51,61.331-201.221,33.598-301.189
						c-23.412-84.873-94.517-171.805-189.544-166.003c-36.731,2.414-69.96,21.041-96.369,46.612
						C1836.296,2618.725,1826.562,2609.489,1832.292,2602.753L1832.292,2602.753z"/>
				</g>
				<g>
					<path style="fill:#390075;" d="M1803.796,3118.696c28.465-99.607,28.905-207.633,10.316-309.39
						c-6.781-34.157-16.293-68.042-31.735-98.961c-1.475-2.899-0.307-6.453,2.605-7.906c2.749-1.373,6.072-0.365,7.639,2.215
						c18.826,31.187,31.487,65.477,40.771,100.307c18.431,69.957,25.272,142.57,21.629,214.876
						c-2.118,36.47-7.39,73.045-17.645,108.713C1830.321,3150.652,1797.793,3141.303,1803.796,3118.696L1803.796,3118.696z"/>
				</g>
				<g>
					<path style="fill:#390075;" d="M1557.825,3136.543c24.771,10.005,38.198,31.807,50.64,52.022
						c10.086,16.277,21.489,34.834,42.6,29.626c2.47-0.514,4.892,1.073,5.407,3.545c0.441,2.116-0.661,4.2-2.537,5.073
						c-5.281,2.586-11.44,4.536-18.14,4.473c-19.037,0.131-35.201-16.11-46.494-27.886c-12.904-13.581-26.184-27.084-42.068-33.493
						C1523.591,3162.278,1534.332,3128.58,1557.825,3136.543L1557.825,3136.543z"/>
				</g>
				<g>
					<g>
						<g>
							<g>
								
									<ellipse transform="matrix(0.0165 -0.9999 0.9999 0.0165 -654.1549 3339.2466)" style="fill:#390075;" cx="1370.28" cy="2002.134" rx="128.998" ry="103.618"/>
							</g>
						</g>
					</g>
					<g>
						<g>
							<g>
								<path style="fill:#FFFFFF;" d="M1383.192,1904.237c16.14,11.116,18.125,36.472,4.432,56.634
									c-13.692,20.162-37.875,27.494-54.015,16.377c-16.14-11.115-18.125-36.472-4.432-56.632
									C1342.869,1900.453,1367.052,1893.12,1383.192,1904.237z"/>
							</g>
						</g>
					</g>
					<g>
						<g>
							<g>
								<path style="fill:#B199C5;" d="M1407.129,2067.526c7.089,7.554,5.009,20.661-4.643,29.274
									c-9.652,8.615-23.223,9.474-30.31,1.92c-7.089-7.553-5.009-20.66,4.643-29.273
									C1386.47,2060.833,1400.042,2059.975,1407.129,2067.526z"/>
							</g>
						</g>
					</g>
				</g>
				<g>
					<g>
						<g>
							<g>
								<path style="fill:#390075;" d="M2245.21,1865.489c78.734,15.04,133.636,104.081,122.629,198.877
									c-11.006,94.797-83.756,159.453-162.49,144.413c-78.732-15.04-133.638-104.08-122.63-198.877
									C2093.727,1915.105,2166.478,1850.449,2245.21,1865.489z"/>
							</g>
						</g>
					</g>
					<g>
						<g>
							<g>
								<path style="fill:#FFFFFF;" d="M2241.529,1905.456c22.611,15.255,25.805,49.453,7.133,76.381
									c-18.672,26.929-52.138,36.391-74.75,21.134c-22.611-15.254-25.805-49.452-7.132-76.379
									C2185.452,1899.664,2218.917,1890.2,2241.529,1905.456z"/>
							</g>
						</g>
					</g>
					<g>
						<g>
							<g>
								<path style="fill:#B199C5;" d="M2277.594,2125.875c9.977,10.3,7.314,27.923-5.945,39.362
									c-13.259,11.441-32.096,12.365-42.07,2.065c-9.977-10.298-7.314-27.922,5.945-39.36
									C2248.781,2116.501,2267.619,2115.577,2277.594,2125.875z"/>
							</g>
						</g>
					</g>
				</g>
				<g style="opacity:0.25;">
					<g>
						<path style="fill:#390075;" d="M2580.879,643.738c174.063,279.485,264.031,610.607,255.336,939.749
							c-4.476,169.414-38.927,347.52-151.282,474.396c-10.385,11.727-22.209,23.431-37.417,27.183
							c-30.199,7.451-59.527-21.337-64.903-51.973c-5.376-30.637,5.954-61.439,16.544-90.685
							c75.775-209.261,123.173-430.007,125.493-652.552c2.32-222.546-41.389-447.052-140.025-646.559L2580.879,643.738z"/>
					</g>
				</g>
				<g style="opacity:0.25;">
					<g>
						<path style="fill:#390075;" d="M2820.35,1276.6l3.55,17.1C2822.55,1288,2821.4,1282.3,2820.35,1276.6z"/>
					</g>
				</g>
				<g style="opacity:0.25;">
					<g>
						<path style="fill:#390075;" d="M2844.55,1661.5c10.701-99.95,8.45-201.25-6.699-300.6l-13.95-67.2
							c11.65,52,32.85,103.2,73,137.65c44.5,38.2,117.05,48.25,161.051,9.45c23.4-20.65,35.449-51.1,43.9-81.1
							c21.1-74.95,24.5-154.75,10.15-231.2C3233.65,1361.7,3182.55,1612.4,2844.55,1661.5z"/>
					</g>
				</g>
				<g style="opacity:0.25;">
					<g>
						<path style="fill:#390075;" d="M2917.2,2653.95c-66.749,17.75-138.85,2.7-201-27.4c-62.15-30.15-116.15-74.5-169.45-118.35
							c-13.9-11.4-28.3-23.55-34.9-40.25c-13.6-34.25,10.15-70.9,32.1-100.5c32.7-44.05,64.7-90.2,79.399-143.05
							c14.7-52.85,9.2-114.3-26.899-155.6l10.699,5.7l18.75,10.05l14.05,7.5c4.9,2.7,9.7,5.6,14.35,8.75c-0.6,0.6-1.2,1.15-1.8,1.7
							c35.7,46.45,59.7,80.9,64.3,127.2c3.25,32.8-4.6,65.8-20.95,94.45c-25.1,44.05-57.899,86.8-98.35,128.35
							c30.55,61.45,75.05,114.35,134.1,158.4c33.6,25.1,74,39.25,115.9,41.25c22.45,1.05,44.15,1.25,65,0.35
							c0.2-0.15,0.4-0.3,0.55-0.5C2914.45,2652.65,2915.8,2653.3,2917.2,2653.95z"/>
					</g>
				</g>
				<g style="opacity:0.25;">
					<g>
						<path style="fill:#390075;" d="M2992.35,2820.8c-9.7,5.9-19.85,11.4-30.4,16.4c-36.7,17.35-76.6,26.75-117.05,30.05
							c-145.75,11.85-262.8-24.35-361.55-103.85c-0.05,0-0.05-0.05-0.1-0.05c-14.25-13.75-28.1-27.8-41.6-41.85
							c-42.5-44.3-86.15-93.8-93.45-154.75l-20.5-14.6c106.25,51.8,182.3,150.75,284,211.05
							C2725.15,2830.5,2860.85,2843.2,2992.35,2820.8z"/>
					</g>
				</g>
				<g style="opacity:0.25;">
					<g>
						<path style="fill:#390075;" d="M2456.1,3207.8c-38.4,75-162.5,100.9-242.75,47.65c7.6-7.4,13.75-16.1,18.301-25.6
							c4.1-8.3,6.949-17.2,8.5-26.35c0.05,0,0.05-0.05,0.05-0.05c0.05-0.25,0.1-0.55,0.1-0.8c0,0,0,0,0-0.05c0,0,0-0.05,0.05-0.05
							c2.699-16.05,1.449-32.7-4.2-47.95c-0.6-1.6-1.25-3.15-1.949-4.7c-2.85-6.35-6.75-12.2-12.401-16.1
							c-28.7-19.75-64.95,25.35-98.849,17.35c-21.35-5-32.35-30.35-29.901-52.1c2.45-21.8,14.55-41.05,24.901-60.4
							c49.5-92.75,62.2-204.55,34.7-306l-29.15-56.8c78.75,102.65,75.601,243.3,91.55,371.7c4.6,37.05,11.55,75.15,32.35,106.15
							c43.8,65.4,140.6,77.1,211.15,41.4C2458.95,3199.25,2458.25,3203.6,2456.1,3207.8z"/>
					</g>
				</g>
				<g style="opacity:0.25;">
					<g>
						<path style="fill:#390075;" d="M2242.55,3198.9c-0.75,1.55-1.55,3.05-2.35,4.55c0,0,0,0.05-0.05,0.05
							c-8.9,17.05-19.301,33.3-31,48.65c-0.05,0.1-0.1,0.2-0.2,0.3c0,0-0.05,0-0.05-0.05c-152.6,132.45-352.8-19.3-371.4-209.9
							c-0.7,4.55-1.45,9.1-2.2,13.55c-1.4,23.1-3.4,46.2-5.9,69.3c-0.1-0.75-0.15-1.5-0.2-2.25c-1.1-15.15,0.099-30.25,2.05-45.3
							c1.35-10.25,3.05-20.5,4.55-30.75c0.4-2.8,0.801-5.65,1.201-8.45c8.95-66.05,5.25-133.75-10.7-198.45
							c-3.85-15.8-8.45-31.4-13.8-46.8l-0.6-4.8l-2.65-21.3c0.45,0.6,0.9,1.15,1.3,1.75c4.901,6.5,9.5,13.2,13.85,20.1
							c28.95,46.1,45.7,99.45,59.65,152.35c16.25,61.55,29.65,124.45,57.6,181.6c27.999,57.15,73.049,109.15,133.3,129.65
							c39.55,13.45,85.85,9.85,121.9-9.9c17.55-9.6,32.699-23,43.45-40.15c0,0,0,0,0-0.05c0,0,0-0.05,0.05-0.05
							C2241.1,3201.35,2241.85,3200.15,2242.55,3198.9z"/>
					</g>
				</g>
				<g style="opacity:0.25;">
					<g>
						<path style="fill:#390075;" d="M1835.8,3047.05c-0.15,3-0.349,6-0.499,9c-1.4,23.1-3.4,46.2-5.9,69.3
							c-0.1-0.75-0.15-1.5-0.2-2.25c-1.1-15.15,0.099-30.25,2.05-45.3c-52.35,261.4-216.8,402.85-344.65,171.9
							c-4.25-7.7-7.7-15.85-10.1-24.25c-0.45,1.3-1,2.55-1.6,3.8c-0.85-2.35-1.8-4.7-2.8-7l2.35-5.45l5-11.65l15.95-37
							c-9.2,61.65,47.5,124.35,109.75,121.35c42.75-2.05,80.85-30.3,105-65.65c24.1-35.3,36.45-77.2,47.25-118.55
							c27.1-103.6,47.3-210.65,43.8-317.2c-0.7-21.5-2.4-43-5.15-64.45c5.45,15,10.25,30.1,14.5,45.35
							c1.85,6.55,3.55,13.15,5.2,19.75c4.15,17,7.65,34.15,10.55,51.4C1837.65,2907.9,1839.5,2977.3,1835.8,3047.05z"/>
					</g>
				</g>
				<g style="opacity:0.25;">
					<g>
						<path style="fill:#390075;" d="M1566.05,3146.1c0.05,0.05,0.05,0.05,0,0.1c0,1.2-0.1,2.4-0.25,3.6
							c-15.85-4.85-32.7-6.45-49.149-4.85c-3.85,0.4-7.65,0.95-11.45,1.65c-2.15,0.4-4.301,0.9-6.4,1.5
							c-5.3,1.55-10.35,3.85-14.15,7.8c-4.1,4.25-6.1,9.35-6.849,14.9c-1.5,10.5,1.25,22.8,1.65,34.35c0.15,2.4,0.099,4.8-0.05,7.1
							c-0.35,4.65-1.35,9.05-2.9,13.2c-0.45,1.3-1,2.55-1.6,3.8c-10.8,22.65-38.8,36.95-65.05,40.1
							c-51.2,6.2-104.9-16.85-135.649-58.2c-12.25-16.55-21.151-38.6-12.9-57.5l1.85-20.35c3.65,45.75,52.8,79.2,98.55,74.8
							c45.699-4.4,84.449-39.25,103.95-80.8c19.5-41.6,22.55-89,20.5-134.9c-2.1-45.85-8.9-91.6-7.9-137.5
							c1.1,3.2,2.2,6.35,3.25,9.55c22.7,66.2,45.35,132.4,67.95,198.6C1558.65,3089.95,1568,3117.85,1566.05,3146.1z"/>
					</g>
				</g>
				<g style="opacity:0.25;">
					<g>
						<path style="fill:#390075;" d="M1098.223,3071.057c7.734,17.772,22.983,31.433,39.958,40.787
							c46.585,25.669,114.551,15.396,140.138-31.234c13.816-25.179,13.567-55.582,10.521-84.141
							c-7.093-66.497-27.325-133.828-12.455-199.028c7.79,55.444,25.5,109.479,52.041,158.778
							c15.226,28.282,33.834,56.657,34.995,88.756c0.58,16.036-3.323,31.903-8.225,47.183
							c-4.532,14.126-10.338,28.553-21.499,38.326c-11.161,9.773-29.085,13.288-40.844,4.243
							c-7.365-5.665-12.282-15.773-21.51-16.86c-11.907-1.403-19.051,13.54-18.555,25.519c0.495,11.979,4.578,24.668-0.587,35.488
							c-9.642,20.197-39.901,15.304-59.526,4.545c-45.879-25.152-83.221-65.566-104.676-113.286L1098.223,3071.057z"/>
					</g>
				</g>
				<g style="opacity:0.25;">
					<g>
						<path style="fill:#390075;" d="M1107.15,2695.15c0.05,20.85,2.5,42.1,1.2,62.8l-10.85-0.45
							c-82.8,10.15-154.75-1.95-211.8-31.1c-100.35-51.4-154.55-155.65-140.5-284.6c2.2-20.25,6.75-40.2,13.75-59.15
							c-1.65,69.65,10.9,140.45,49.6,197.7c45.1,66.8,132.2,109.25,208.9,84.45c58.95-19.05,99.95-71.3,137.25-120.8
							C1123.9,2587.95,1107.05,2641.5,1107.15,2695.15z"/>
					</g>
				</g>
				<g style="opacity:0.25;">
					<g>
						<path style="fill:#390075;" d="M1595.744,2167.839c-15.37-0.982-28.539,11.129-36.709,24.184
							c-23.511,37.57-20.685,88.163,1.492,126.535c8.691,15.037,23.057,29.835,40.352,28.24
							c14.792-1.364,25.774-14.341,32.64-27.515c25.817-49.538,13.368-115.988-28.63-152.822c-2.668-2.34-8.246-3.539-8.503,0
							L1595.744,2167.839z"/>
					</g>
				</g>
				<g style="opacity:0.25;">
					<g>
						<path style="fill:#390075;" d="M1459.964,2270.094c3.239,22.234,6.606,44.89,16.547,65.039
							c19.682,39.89,65.818,64.708,110.048,59.987c44.23-4.721,83.793-38.188,96.608-80.782c1.997-6.639,3.46-13.595,7.227-19.415
							c3.767-5.82,10.624-10.337,17.406-8.903c6.328,1.338,10.622,7.31,12.967,13.337c5.362,13.785,3.613,29.583-2.041,43.251
							c-5.654,13.668-14.917,25.52-24.686,36.626c-28.896,32.853-67.118,62.335-110.87,62.564
							c-39.211,0.205-75.805-24.191-97.54-56.827c-21.735-32.636-30.298-72.463-32.398-111.618L1459.964,2270.094z"/>
					</g>
				</g>
				<g style="opacity:0.25;">
					<g>
						<path style="fill:#390075;" d="M1457.028,2352.127c7.465,18.581,17.063,36.303,28.546,52.707
							c20.385,29.123,47.662,54.599,81.13,66.583s73.589,8.604,100.943-14.1c14.458-12.001,24.55-28.393,33.283-45.03
							c10.951-20.863,20.406-44.496,15.219-67.48c-9.128,24.775-29.771,43.215-49.658,60.583
							c-16.414,14.335-33.719,29.144-54.911,34.224c-18.778,4.501-38.663,0.769-56.773-5.932
							c-42.131-15.588-77.904-47.681-97.958-87.879c-0.706-1.416-1.39-3.136-0.596-4.504s3.616-0.798,3.152,0.714L1457.028,2352.127
							z"/>
					</g>
				</g>
				<g style="opacity:0.25;">
					<g>
						<path style="fill:#390075;" d="M1170.896,2135.656c6.208,20.423,22.299,36.88,41.151,46.892s40.311,14.145,61.598,15.725
							c21.858,1.623,44.25,0.619,64.97-6.525c-33.338,4.001-63.858-17.523-90.035-38.551
							c-21.544-17.306-43.536-36.101-53.984-61.684c-10.588,14.869-19.384,31.013-26.137,47.971L1170.896,2135.656z"/>
					</g>
				</g>
				<g style="opacity:0.4;">
					<g>
						<path style="fill:#FFFFFF;" d="M2321.354,719.342c-141.404,73.761-284.579,148.745-402.264,256.383
							c-19.678,17.998-40.157,41.249-36.138,67.612c3.881,25.454,29.874,42.086,55.185,46.813
							c56.34,10.523,111.858-20.923,156.423-56.962c92.734-74.992,162.958-173.568,231.969-270.835
							c10.535-14.849,21.07-29.697,31.605-44.546c-16.865-6.915-38.23-0.05-47.912,15.393"/>
					</g>
				</g>
				<g style="opacity:0.4;">
					<g>
						<path style="fill:#FFFFFF;" d="M1786.127,1096.808c15.405-6.558,33.919-3.146,47.722,6.329
							c13.803,9.476,23.261,24.303,28.942,40.053c15.594,43.229,1.748,96.261-34.927,123.954s-93.757,25.416-126.1-7.231
							c-32.343-32.647-32.884-92.3,0.801-123.56c16.022-14.869,37.18-22.661,57.736-30.093c13.594-4.915,27.188-9.831,40.782-14.746
							"/>
					</g>
				</g>
				<g style="opacity:0.4;">
					<g>
						<path style="fill:#FFFFFF;" d="M1598.827,2670.834c-34.552,21.004-46.894,66.037-44.726,106.414
							c0.617,11.486,2.283,23.302,8.24,33.142c5.956,9.84,17.106,17.275,28.518,15.839c12.586-1.584,21.73-13.102,26.152-24.991
							c4.422-11.89,5.55-24.806,9.983-36.692c4.44-11.906,12.083-22.469,16-34.557c3.277-10.114,3.804-21.105,1.51-31.486
							c-2.709-12.261-10.257-24.35-22.125-28.452c-11.868-4.103-27.5,3.239-28.703,15.738"/>
					</g>
				</g>
				<g style="opacity:0.4;">
					<g>
						<path style="fill:#FFFFFF;" d="M1567.232,2891.842c-1.978,13.505-0.65,28.332,7.828,39.029
							c8.478,10.697,25.614,15.059,36.228,6.478c7.147-5.778,9.709-15.654,9.584-24.844c-0.222-16.2-9.02-33.245-24.3-38.63
							c-15.28-5.385-35.344,5.948-34.921,22.144"/>
					</g>
				</g>
				<g style="opacity:0.4;">
					<g>
						<path style="fill:#FFFFFF;" d="M1378.341,2636.025c-14.765,16.258-24.281,37.209-26.809,59.025
							c-1.081,9.328-0.805,19.239,3.729,27.463c4.534,8.224,14.294,14.122,23.372,11.718c10.073-2.667,15.239-13.544,19.108-23.22
							c7.01-17.531,14.019-35.062,21.029-52.593c6.801-17.009,11.404-40.935-4.624-49.803c-10.417-5.763-24.169-0.275-31.531,9.081
							s-9.904,21.508-12.232,33.183"/>
					</g>
				</g>
				<g style="opacity:0.4;">
					<g>
						<path style="fill:#FFFFFF;" d="M1351.363,2800.908c-3.338-3.729-8.318,2.983-8.246,7.988
							c0.143,9.852,3.386,19.995,10.521,26.789c7.135,6.794,18.533,9.454,27.249,4.86c9.419-4.965,13.372-16.452,14.282-27.06
							c1.11-12.945-2.188-27.846-13.426-34.365c-11.238-6.52-29.559,3.487-25.792,15.921"/>
					</g>
				</g>
				<g style="opacity:0.4;">
					<g>
						<path style="fill:#FFFFFF;" d="M2031.697,2645.334c45.893,30.508,68.876,91.723,54.4,144.896
							c-2.267,8.325-6.081,17.244-13.963,20.755c-13.824,6.157-28.441-8.921-31.727-23.694c-3.286-14.773-0.876-30.879-7.257-44.602
							c-12.078-25.974-50.077-32.476-60.474-59.167c-5.553-14.255-0.588-31.904,11.582-41.173s30.504-9.365,42.771-0.224"/>
					</g>
				</g>
				<g style="opacity:0.4;">
					<g>
						<path style="fill:#FFFFFF;" d="M2047.89,2865.071c9.583-7.589,24.287,0.113,30.539,10.616
							c7.836,13.163,7.706,31.449-2.509,42.864s-30.659,12.693-40.534,0.983c-11.641-13.805-4.339-34.946,5.255-50.245"/>
					</g>
				</g>
				<g style="opacity:0.4;">
					<g>
						<path style="fill:#FFFFFF;" d="M2278.075,2609.137c27.406,28.913,44.881,67.071,48.869,106.709
							c1.56,15.507,0.75,32.34-8.507,44.878s-29.421,17.795-40.731,7.073c-11.862-11.246-7.504-30.658-10.684-46.691
							c-3.593-18.116-17.238-32.215-28.291-47.012c-11.053-14.797-20.2-34.117-13.279-51.24
							c4.577-11.323,16.264-19.392,28.473-19.659c12.209-0.268,24.239,7.282,29.308,18.393"/>
					</g>
				</g>
			</g>
			<g style="opacity:0.2;">
				<ellipse style="fill:#390075;" cx="2097.5" cy="3550" rx="902.5" ry="85"/>
			</g>
		</g>
		<g>
			<g>
				<path style="fill:#B7FFFF;" d="M856.12,2008.36c-6.045,0-12.183-0.732-18.301-2.271c-40.176-10.103-64.648-51.001-54.556-91.177
					c10.103-40.176,51.006-64.663,91.177-54.551c40.176,10.095,64.648,50.996,54.556,91.172v0.005
					C920.431,1985.592,889.738,2008.36,856.12,2008.36z M856.135,1873.089c-26.909,0-51.47,18.225-58.32,45.481
					c-8.081,32.153,11.504,64.888,43.662,72.969c32.129,8.086,64.883-11.514,72.969-43.657l0,0
					c8.081-32.158-11.504-64.893-43.657-72.974C865.886,1873.678,860.973,1873.089,856.135,1873.089z"/>
			</g>
			<g>
				<g style="opacity:0.6;">
					
						<ellipse transform="matrix(0.8383 -0.5452 0.5452 0.8383 -907.9669 764.4987)" style="fill:#FFFFFF;" cx="834.861" cy="1912.962" rx="28.947" ry="17.42"/>
				</g>
				<g style="opacity:0.6;">
					
						<ellipse transform="matrix(0.8562 -0.5167 0.5167 0.8562 -853.6592 723.7028)" style="fill:#FFFFFF;" cx="873.083" cy="1895.191" rx="7.957" ry="7.957"/>
				</g>
			</g>
		</g>
		<g>
			<g>
				<path style="fill:#B7FFFF;" d="M1021.53,1876.056c-6.299,0-12.637-0.779-18.901-2.354
					c-19.951-5.012-36.753-17.493-47.314-35.144c-10.562-17.649-13.613-38.354-8.604-58.303
					c5.015-19.949,17.495-36.75,35.147-47.312c17.646-10.557,38.359-13.621,58.301-8.601c41.182,10.349,66.265,52.268,55.918,93.447
					c-5.015,19.949-17.495,36.75-35.147,47.312C1048.825,1872.342,1035.28,1876.056,1021.53,1876.056z M1021.281,1736.993
					c-11.069,0-21.973,2.991-31.724,8.823c-14.209,8.503-24.263,22.031-28.296,38.096c-4.038,16.062-1.577,32.734,6.924,46.946
					c8.506,14.212,22.036,24.26,38.096,28.298c16.064,4.028,32.729,1.58,46.948-6.929c14.209-8.503,24.263-22.031,28.296-38.096l0,0
					c4.038-16.06,1.577-32.732-6.929-46.946c-8.501-14.212-22.031-24.26-38.091-28.298
					C1031.457,1737.621,1026.354,1736.993,1021.281,1736.993z"/>
			</g>
			<g>
				<g style="opacity:0.6;">
					<path style="fill:#FFFFFF;" d="M1026.196,1762.099c-5.245-8.065-20.362-7.537-33.764,1.179
						c-13.402,8.716-20.014,22.32-14.769,30.385c5.245,8.065,20.362,7.537,33.764-1.179
						C1024.829,1783.767,1031.442,1770.164,1026.196,1762.099z"/>
				</g>
				<g style="opacity:0.6;">
					<path style="fill:#FFFFFF;" d="M1047.869,1762.049c-1.071,4.262-5.394,6.849-9.656,5.777c-4.262-1.071-6.848-5.394-5.777-9.656
						c1.071-4.262,5.394-6.849,9.656-5.777S1048.94,1757.787,1047.869,1762.049z"/>
				</g>
			</g>
		</g>
		<g>
			<g>
				<path style="fill:#B7FFFF;" d="M1002.883,1675.733c-3.945,0-7.949-0.481-11.938-1.484c-12.695-3.188-23.389-11.13-30.107-22.361
					c-6.724-11.23-8.667-24.407-5.479-37.102c3.193-12.693,11.133-23.384,22.363-30.105c11.235-6.719,24.424-8.665,37.1-5.474
					c12.695,3.188,23.389,11.13,30.107,22.363c6.724,11.23,8.667,24.407,5.479,37.102l0,0
					C1044.826,1660.882,1024.807,1675.733,1002.883,1675.733z M1002.819,1592.716c-6.069,0-12.051,1.638-17.393,4.836
					c-7.793,4.663-13.306,12.083-15.518,20.891c-2.217,8.806-0.864,17.949,3.799,25.742c4.663,7.793,12.08,13.303,20.889,15.518
					c18.208,4.57,36.694-6.506,41.26-24.688c2.217-8.809,0.864-17.949-3.799-25.745c-4.663-7.793-12.08-13.303-20.889-15.518
					C1008.4,1593.06,1005.602,1592.716,1002.819,1592.716z"/>
			</g>
			<g style="opacity:0.6;">
				
					<ellipse transform="matrix(0.129 -0.9916 0.9916 0.129 -734.1302 2394.3301)" style="fill:#FFFFFF;" cx="995.952" cy="1615.083" rx="13.065" ry="13.065"/>
			</g>
		</g>
		<g>
			<g>
				<path style="fill:#B7FFFF;" d="M872.936,1729.703c-3.242,0-6.509-0.4-9.732-1.213c-10.273-2.581-18.926-9.009-24.365-18.096
					c-5.439-9.089-7.012-19.753-4.429-30.024c2.583-10.271,9.009-18.923,18.096-24.363c9.092-5.44,19.766-7.019,30.024-4.429
					c10.273,2.581,18.926,9.006,24.365,18.096s7.012,19.751,4.429,30.022l0,0c-2.583,10.274-9.009,18.926-18.096,24.365
					C886.994,1727.792,880.016,1729.703,872.936,1729.703z M872.824,1665.372c-4.404,0-8.735,1.189-12.612,3.506
					c-5.649,3.381-9.648,8.762-11.25,15.146c-1.606,6.389-0.63,13.018,2.749,18.667c3.384,5.649,8.76,9.646,15.147,11.252
					c6.387,1.599,13.017,0.623,18.667-2.754c5.65-3.381,9.648-8.762,11.25-15.146v-0.002c1.607-6.387,0.63-13.015-2.749-18.665
					c-3.384-5.652-8.76-9.646-15.147-11.252C876.872,1665.621,874.841,1665.372,872.824,1665.372z"/>
			</g>
			<g style="opacity:0.6;">
				<path style="fill:#FFFFFF;" d="M876.345,1685.66c-1.138,4.528-5.731,7.276-10.259,6.138c-4.528-1.138-7.276-5.731-6.138-10.259
					c1.138-4.528,5.731-7.276,10.259-6.138C874.734,1676.539,877.483,1681.132,876.345,1685.66z"/>
			</g>
		</g>
		<g>
			<g>
				<g>
					<path style="fill:#B7FFFF;" d="M766.857,1248.944c-20.254,0.002-37.627-15.442-39.609-36.006
						c-2.104-21.86,13.97-41.355,35.825-43.459c10.562-1.011,20.942,2.148,29.146,8.914c8.208,6.768,13.291,16.326,14.307,26.914
						l0,0c2.104,21.855-13.97,41.35-35.825,43.455C769.411,1248.885,768.127,1248.944,766.857,1248.944z M766.94,1179.293
						c-0.967,0-1.939,0.046-2.91,0.142c-16.367,1.575-28.403,16.174-26.831,32.544c1.577,16.37,16.196,28.457,32.544,26.826
						c16.367-1.575,28.403-16.174,26.831-32.542l0,0c-0.762-7.93-4.57-15.088-10.713-20.154
						C780.466,1181.664,773.84,1179.293,766.94,1179.293z"/>
				</g>
			</g>
			<g style="opacity:0.6;">
				<path style="fill:#FFFFFF;" d="M772.531,1204.704c0.572,5.943-3.782,11.225-9.726,11.797
					c-5.943,0.572-11.225-3.782-11.797-9.726c-0.572-5.943,3.782-11.225,9.725-11.797
					C766.677,1194.406,771.959,1198.761,772.531,1204.704z"/>
			</g>
		</g>
		<g>
			<g>
				<path style="fill:#B7FFFF;" d="M783.776,1421.149c-8.291,0-16.255-2.849-22.734-8.191c-7.388-6.091-11.963-14.692-12.876-24.221
					c-0.923-9.529,1.929-18.845,8.018-26.233c6.089-7.385,14.692-11.958,24.224-12.876c9.541-0.923,18.838,1.926,26.23,8.02
					c7.388,6.091,11.963,14.692,12.876,24.221l0,0c1.895,19.67-12.568,37.214-32.241,39.111
					C786.105,1421.092,784.938,1421.149,783.776,1421.149z M783.888,1359.461c-0.835,0-1.68,0.039-2.524,0.122
					c-6.87,0.659-13.076,3.958-17.466,9.282s-6.44,12.041-5.781,18.911c0.664,6.873,3.96,13.074,9.287,17.464
					c5.322,4.39,12.036,6.455,18.911,5.784c14.18-1.365,24.609-14.016,23.247-28.198l0,0c-0.664-6.87-3.96-13.071-9.287-17.461
					C795.607,1361.515,789.865,1359.461,783.888,1359.461z"/>
			</g>
			<g style="opacity:0.6;">
				<path style="fill:#FFFFFF;" d="M788.813,1373.879c0.32,3.321-2.113,6.272-5.434,6.591s-6.272-2.113-6.591-5.434
					c-0.32-3.321,2.113-6.272,5.434-6.591C785.543,1368.125,788.494,1370.558,788.813,1373.879z"/>
			</g>
		</g>
		<g>
			<g>
				<g>
					<path style="fill:#B7FFFF;" d="M1001.769,2043.653c-2.744,0-5.532-0.337-8.316-1.035c-8.833-2.217-16.279-7.749-20.962-15.571
						c-4.678-7.822-6.03-16.997-3.809-25.835c2.222-8.838,7.754-16.284,15.571-20.962c7.822-4.688,16.987-6.04,25.835-3.813
						c18.247,4.585,29.36,23.164,24.775,41.411l0,0C1030.978,2033.312,1017.038,2043.653,1001.769,2043.653z M1001.73,1985.396
						c-4.307,0-8.55,1.162-12.339,3.433c-5.527,3.306-9.438,8.574-11.011,14.824c-1.572,6.245-0.615,12.729,2.695,18.262
						c3.306,5.527,8.569,9.438,14.815,11.006c12.935,3.242,26.035-4.619,29.277-17.515l0,0c3.242-12.896-4.619-26.03-17.52-29.272
						C1005.685,1985.641,1003.703,1985.396,1001.73,1985.396z"/>
				</g>
			</g>
			<g style="opacity:0.6;">
				<path style="fill:#FFFFFF;" d="M1010.81,2003.527c-1.345,5.351-6.773,8.599-12.124,7.254c-5.351-1.345-8.599-6.773-7.254-12.124
					c1.345-5.351,6.773-8.599,12.124-7.254S1012.155,1998.176,1010.81,2003.527z"/>
			</g>
		</g>
		<g>
			<g>
				<path style="fill:#B7FFFF;" d="M1146.042,1755.101c-2.378,0-4.795-0.291-7.202-0.896c-15.811-3.972-25.444-20.071-21.475-35.881
					c1.924-7.661,6.719-14.111,13.496-18.167c6.772-4.055,14.736-5.237,22.388-3.303c15.811,3.972,25.444,20.071,21.475,35.881
					v0.005C1171.349,1746.139,1159.269,1755.101,1146.042,1755.101z M1146.017,1710.956c-2.603,0-5.166,0.703-7.456,2.073
					c-3.34,1.997-5.698,5.176-6.646,8.948c-1.958,7.793,2.788,15.725,10.576,17.683c7.783,1.948,15.718-2.788,17.681-10.576l0,0
					c1.958-7.793-2.788-15.725-10.576-17.683C1148.41,1711.102,1147.209,1710.956,1146.017,1710.956z"/>
			</g>
			<g style="opacity:0.6;">
				<path style="fill:#FFFFFF;" d="M1153.665,1721.106c-1.109,4.411-5.583,7.089-9.994,5.98c-4.411-1.109-7.089-5.583-5.98-9.994
					s5.583-7.089,9.994-5.98S1154.774,1716.695,1153.665,1721.106z"/>
			</g>
		</g>
	</g>
</g>
</svg>
