<?xml version="1.0" encoding="utf-8"?>
<!-- Generator: Adobe Illustrator 27.5.0, SVG Export Plug-In . SVG Version: 6.00 Build 0)  -->
<svg version="1.1" id="Capa_1" xmlns="http://www.w3.org/2000/svg" xmlns:xlink="http://www.w3.org/1999/xlink" x="0px" y="0px"
	 viewBox="0 0 2122 2122" style="enable-background:new 0 0 2122 2122;" xml:space="preserve">
<g>
	<path style="fill:#EB5C8B;" d="M1883.195,837.856c-34.594-80.324-79.586-155.637-121.758-232.254
		c-24.047-43.688-47.457-88.535-58.121-137.246c-10.66-48.723-7.309-102.41,19.453-144.48c9.973-15.672,23.184-35.785,11.957-50.582
		c-2.328-3.074-5.207-5.191-8.43-6.484c-12.391-5.023-29.914,1.785-41.699,10.832c-72.219,55.387-92.094,159.059-73.543,248.156
		c18.563,89.102,68.387,167.938,114.707,246.285c46.32,78.332,90.988,161.563,97.301,252.356
		c7.57,108.852-43.629,217.621-124.836,290.531c-52.715,47.324-131.379,83.73-204.629,72.707
		c-92.176-13.871-147.305-108.031-91.891-189.863c6.875-10.176,14.477-19.797,22.375-29.18
		c17.008-20.191,35.469-39.285,51.395-60.348c74.555-98.609,86.828-236.559,45.215-352.969
		c-6.551-18.344-14.477-36.215-23.641-53.453c-2.594-4.891-5.297-9.73-8.102-14.504
		c-59.934-102.684-164.063-180.156-281.281-195.043c-27.082-3.469-54.836-3.574-82.91,0.109
		c-140.785,18.48-254.961,129.535-297.797,262.219c-9.379,29.074-15.336,59.18-17.394,89.582
		c-3.742,55.195,5.105,111.113,25.078,162.672c21.641,55.871,58.938,94.391,93.516,141.875c6.953,9.539,13.684,19.426,19.961,29.641
		l0.004-0.004c10.586,17.246,19.344,35.742,25.633,54.519c-16.773,9.742-35.855,16.59-57.93,19.734
		c-64.648,9.238-130.394-14.75-184.469-51.371c-90.379-61.168-155.891-161.977-163.199-270.859
		c-6.086-90.797,26.863-179.316,62.09-263.234c35.234-83.902,73.883-168.801,80.144-259.594
		c6.262-90.797-27.527-190.797-106.609-235.852c-12.836-7.313-30.992-11.672-42.594-5.152c-3.09,1.727-5.711,4.23-7.652,7.668
		c-9.105,16.176,6.723,34.316,18.723,48.477c32.231,38.047,42.863,90.781,38.918,140.496
		c-3.926,49.703-21.031,97.332-38.902,143.879c-31.371,81.641-65.707,162.383-89.059,246.656
		c-34.703,125.231-44.289,259.785-9.379,384.953c20.215,72.492,56.535,141.434,106.164,197.754
		c-97.754-28.223-205.551-29.191-295.973,16.285c-78.047,39.254-135.891,116.406-149.402,203.176
		c-6.648,42.664-0.605,96.883,35.367,125.344c2.938,2.316,6.305,4.504,9.855,5.422c1.93,0.504,3.902,0.633,5.871,0.215
		c9.672-2.055,11.961-14.531,12.851-24.391c8.719-96.504,86.203-182.723,181.242-201.66c66.035-13.148,134.785,3.785,196.414,30.91
		c27.898,12.266,55.086,26.68,82.313,40.898c-83.367,1.41-165.703,36.66-224.149,96.145
		c-58.992,60.043-92.922,143.992-92.203,228.168c0.066,8.523,1.289,18.484,8.629,22.828c13.734,8.125,26.801-11.496,31.086-26.859
		c11.309-40.508,24.914-81.449,50.875-114.531c30.633-39.023,75.941-63.809,122.141-81.883
		c32.438-12.695,66.156-22.664,100.793-26.402c116.742-12.621,233.418,45.84,349.539,28.426
		c57.184-8.574,111.023-38.668,149.781-81.309c2.273,2.922,4.563,5.82,6.82,8.777c29.367,38.496,54.203,85.773,45.625,133.434
		c-7.352,40.879-39.844,75.027-78.98,88.898c-39.152,13.871-83.613,8.742-121.012-9.328
		c-45.457-21.957-80.481-61.254-125.016-85.023c-74.922-39.988-174.164-28.348-237.793,27.883
		c-25.496,22.535-45.973,53.012-48.391,86.953c-0.602,8.25,0.547,17.762,6.344,23.227c0.766,0.723,1.598,1.367,2.535,1.945
		c14.637,8.977,29.699-9.871,40.285-23.398c39.891-50.965,120.512-46.574,178.023-16.895
		c57.531,29.672,103.703,78.309,161.707,107.016c96.969,47.969,222.512,30.344,302.516-42.48
		c46.91-42.703,78.695-106.508,68.766-169.16c-4.52-28.492-17.09-54.809-30.016-80.973c14.09,6.254,28.824,11.121,43.805,14.512
		c39.523,8.938,80.477,8.406,120.793,12.422c40.332,4.012,81.805,13.348,113.43,38.688c31.613,25.34,50.449,70.164,35.398,107.777
		c-19.137,47.813-78.422,62.316-129.145,71.195c-50.719,8.875-110.09,25.887-126.105,74.824
		c-3.438,10.504-1.465,24.922,5.844,31.309c2.563,2.23,5.77,3.5,9.629,3.254c7.32-0.461,12.859-6.473,18.082-11.645
		c55.086-54.504,144.297-46.156,218.398-68.836c71.355-21.828,135.648-85.313,133.359-159.887
		c-2.035-66.195-54.426-120.605-113.09-152.086c34.082-10.434,66.691-25.738,96.141-45.555
		c107.82-72.547,174.277-197.387,191.848-326.156C1962.41,1089.203,1934.609,957.211,1883.195,837.856z"/>
	<path style="fill:#D33F75;" d="M973.758,1232.93c-16.773,9.742-35.855,16.59-57.93,19.734
		c-64.648,9.238-130.394-14.75-184.469-51.371c-90.379-61.168-155.891-161.977-163.199-270.859
		c-6.086-90.797,26.863-179.316,62.09-263.234c35.234-83.902,73.883-168.801,80.144-259.594
		c6.262-90.797-27.527-190.797-106.609-235.852c-12.836-7.313-30.992-11.672-42.594-5.152c-3.09,1.727-5.711,4.23-7.652,7.668
		c-9.105,16.176,6.723,34.316,18.723,48.477c32.231,38.047,42.863,90.781,38.918,140.496
		c-3.926,49.703-21.031,97.332-38.902,143.879c-31.371,81.641-65.707,162.383-89.059,246.656
		c-34.703,125.231-44.289,259.785-9.379,384.953c20.215,72.492,56.535,141.434,106.164,197.754
		c9.258,2.672,18.426,5.574,27.477,8.719c47.918,16.648,93.664,39.277,142.109,54.273c48.465,14.977,101.289,22.016,149.664,6.762
		c19.051-6.008,34.406-14.387,46.633-24.5C989.035,1346.039,992.289,1288.27,973.758,1232.93z"/>
	<path style="fill:#D33F75;" d="M1769.938,1741.754c-2.035-66.195-54.426-120.605-113.09-152.086
		c-90.707,27.785-191.934,20.926-272.395-28.543c-30.891-18.992-58.277-45.313-78.551-75.703c-3.293-4.938-6.387-9.984-9.297-15.125
		c-3.863,19.094-6.445,38.258-5.133,57.402c0.066,0.984,0.098,1.965,0.184,2.949c3.125,34.625,19.215,65.949,34.793,97.492
		c14.09,6.254,28.824,11.121,43.805,14.512c39.523,8.938,80.477,8.406,120.793,12.422c40.332,4.012,81.805,13.348,113.43,38.688
		c31.613,25.34,50.449,70.164,35.398,107.777c-19.137,47.813-78.422,62.316-129.145,71.195
		c-50.719,8.875-110.09,25.887-126.105,74.824c-3.438,10.504-1.465,24.922,5.844,31.309c2.563,2.23,5.77,3.5,9.629,3.254
		c7.32-0.461,12.859-6.473,18.082-11.645c55.086-54.504,144.297-46.156,218.398-68.836
		C1707.934,1879.813,1772.227,1816.328,1769.938,1741.754z"/>
	<path style="fill:#F086AC;" d="M1441.906,1930.898c37.199-17.613,78.77-23.168,118.313-34.535
		c39.555-11.371,79.77-30.754,100.551-66.281c29.191-49.883,9.266-117.152-31.715-157.934
		c-15.695-15.609-34.406-28.559-55.43-35.484c-21.133-6.961-43.742-7.637-65.973-8.617c-48.289-2.086-97.789-6.172-141.441-26.922
		c-32.121-15.254-60.648-41.449-74.738-73.426c0.066,0.984,0.098,1.965,0.184,2.949c3.125,34.625,19.215,65.949,34.793,97.492
		c14.09,6.254,28.824,11.121,43.805,14.512c39.523,8.938,80.477,8.406,120.793,12.422c40.332,4.012,81.805,13.348,113.43,38.688
		c31.613,25.34,50.449,70.164,35.398,107.777c-19.137,47.813-78.422,62.316-129.145,71.195
		c-50.719,8.875-110.09,25.887-126.105,74.824c-3.438,10.504-1.465,24.922,5.844,31.309
		C1400.656,1960.148,1413.996,1944.105,1441.906,1930.898z"/>
	<path style="fill:#F086AC;" d="M749.59,1399.477c48.465,14.977,101.289,22.016,149.664,6.762
		c19.051-6.008,34.406-14.387,46.633-24.5c-11.078,0.813-22.188,3.074-33.211,4.73c-82.43,12.375-169.691-11.742-234.066-64.723
		c-26.852-22.102-49.672-48.734-70.32-76.727c-67.539-91.57-113.645-202.32-112.047-316.094
		c1.406-100.078,38.894-195.637,74.273-289.281c35.387-93.629,69.688-191.047,64.293-290.992
		c-3.609-67.125-28.461-132.926-73.617-182.051c-3.09,1.727-5.711,4.23-7.652,7.668c-9.105,16.176,6.723,34.316,18.723,48.477
		c32.231,38.047,42.863,90.781,38.918,140.496c-3.926,49.703-21.031,97.332-38.902,143.879
		c-31.371,81.641-65.707,162.383-89.059,246.656c-34.703,125.231-44.289,259.785-9.379,384.953
		c20.215,72.492,56.535,141.434,106.164,197.754c9.258,2.672,18.426,5.574,27.477,8.719
		C655.398,1361.852,701.144,1384.48,749.59,1399.477z"/>
	<path style="fill:#D33F75;" d="M1108.625,1516.188c-1.016-1.484-2.023-2.965-3.004-4.449
		c-30.547,26.969-67.453,47.082-105.731,61.629c-56.336,21.414-117.777,31.859-177.32,22.695
		c-58.383-8.988-111.269-35.816-164.027-63.379c-83.367,1.41-165.703,36.66-224.149,96.145
		c-58.992,60.043-92.922,143.992-92.203,228.168c0.066,8.523,1.289,18.484,8.629,22.828c13.734,8.125,26.801-11.496,31.086-26.859
		c11.309-40.508,24.914-81.449,50.875-114.531c30.633-39.023,75.941-63.809,122.141-81.883
		c32.438-12.695,66.156-22.664,100.793-26.402c116.742-12.621,233.418,45.84,349.539,28.426
		c57.184-8.574,111.023-38.668,149.781-81.309c-15.813-20.32-31.934-40.02-45.844-60.258L1108.625,1516.188z"/>
	<path style="fill:#F086AC;" d="M1448.328,750.871c-15.746,34.035-17.457,74.305-4.648,109.547
		c9.887,27.238,28.215,52.519,28.32,81.484c0.141,48.531-49.297,81.973-65.547,127.688c-13.406,37.703-4.316,74.836,17.629,99.043
		c17.008-20.191,35.469-39.285,51.395-60.348c74.555-98.609,86.828-236.559,45.215-352.969
		c-6.551-18.344-14.477-36.215-23.641-53.453C1475.52,709.703,1458.227,729.488,1448.328,750.871z"/>
	<path style="fill:#F086AC;" d="M1048.832,808.914c19.602-14.012,25.047-40.262,37.426-60.934
		c11.996-20.039,31.52-35.445,53.801-42.457c19.91-6.262,41.313-5.926,61.617-10.777c26.438-6.324,51.586-22.816,62.684-47.641
		c11.094-24.816,4.625-57.918-18.258-72.602c-29.559-18.977-69.84-2.047-103.223-12.973c-14.809-4.84-28.57-15.215-44.105-14.012
		c-20.813,1.613-34.098,23.082-39.875,43.145c-5.781,20.059-8.16,42.281-21.848,58.039c-18.73,21.563-51.047,23.047-77.356,34.164
		c-24.148,10.207-45.172,31.754-47.488,57.871C907.441,794.652,1008.898,837.465,1048.832,808.914z"/>
	<path style="fill:#F086AC;" d="M965.887,1151.895c10.004-35.711-18.59-50.043-44.055-66.117
		c-40.781-25.727-61.23-79.773-47.719-126.047c6.461-22.086,18.32-49.656,1.023-64.852c-4.738-4.156-10.894-6.285-16.148-9.77
		c-22.516-14.969-21.465-47.586-19.969-74.582c1.066-19.051-1.379-41.629-12.059-55.883c-9.379,29.074-15.336,59.18-17.394,89.582
		c-3.742,55.195,5.105,111.113,25.078,162.672c21.641,55.871,58.938,94.391,93.516,141.875c6.953,9.539,13.684,19.426,19.961,29.641
		l0.004-0.004C956.539,1171.16,963.055,1162.004,965.887,1151.895z"/>
	<path style="fill:#F086AC;" d="M1761.438,605.602c-24.047-43.688-47.457-88.535-58.121-137.246
		c-10.66-48.723-7.309-102.41,19.453-144.48c9.973-15.672,23.184-35.785,11.957-50.582c-2.328-3.074-5.207-5.191-8.43-6.484
		c-13.152,13.527-23.801,28.664-30.289,41.48c-27.93,55.227-26.578,121.531-11.613,180.238
		c15.738,61.73,45.844,118.645,73.875,175.836c30.23,61.73,58.316,124.527,84.176,188.211
		c22.98,56.594,44.293,114.234,55.73,174.227c11.453,60.043,12.832,122.016,4.043,182.523
		c-13.008,89.684-49.398,177.305-111.332,243.477c-61.93,66.164-150.582,109.125-241.188,107.313
		c-90.621-1.809-180.945-51.77-222.941-132.09c-14.535,15.395-21.023,36.176-20.855,57.398
		c20.273,30.391,47.66,56.711,78.551,75.703c80.461,49.469,181.688,56.328,272.395,28.543
		c34.082-10.434,66.691-25.738,96.141-45.555c107.82-72.547,174.277-197.387,191.848-326.156
		c17.574-128.754-10.227-260.746-61.641-380.102C1848.602,757.531,1803.609,682.219,1761.438,605.602z"/>
	<path style="fill:#D33F75;" d="M1251.34,551.984c12.766,3.352,26.219,2.363,39.367,3.586c47.828,4.43,90.871,41.582,102.266,88.246
		c5.137,21.07,7.008,47.34,26.605,56.59c21.512,10.16,47.211,2.879,69.371-13.047c-59.934-102.684-164.063-180.156-281.281-195.043
		C1207.254,518.629,1225.566,545.176,1251.34,551.984z"/>
	<path style="fill:#F086AC;" d="M668.879,1764.945c43.504-29.543,100.727-37.813,150.801-21.813
		c33.672,10.762,63.125,31.41,93.258,49.926c43.051,26.469,89.34,49.332,139.195,57.621c49.863,8.285,103.969,0.617,144.66-29.34
		c40.707-29.961,64.676-84.469,50.879-133.09c-7.168-25.309-23.297-46.922-37.773-68.879
		c-31.883-48.363-56.973-101.211-74.379-156.461c-0.855-2.723-0.879-6.938-2.586-9.285c-2.441-3.371-5.281,1.656-8.004,1.867
		c-3.527,0.277-5.965-4.035-9.496-4.293c-1.707-0.125-3.355,0.762-4.551,1.988c-1.969,2.016-3.078,4.852-4.574,7.211
		c-2.445,3.867-5.469,7.457-8.59,10.797c-6.574,7.012-14.25,12.914-22.395,17.988c-16.848,10.488-35.609,17.516-54.27,24.023
		c-55.484,19.344-112.824,37.699-171.547,35.785c-140.32-4.574-256.598-122.047-396.621-132.352
		c-76.273-5.613-154.438,23.359-208.641,77.316c-40.449,40.258-67.199,98.016-65.457,155.672
		c0.332,10.867,0.273,24.031,1.063,37.082c1.93,0.504,3.902,0.633,5.871,0.215c9.672-2.055,11.961-14.531,12.851-24.391
		c8.719-96.504,86.203-182.723,181.242-201.66c66.035-13.148,134.785,3.785,196.414,30.91c27.898,12.266,55.086,26.68,82.313,40.898
		c52.758,27.563,105.644,54.391,164.027,63.379c59.543,9.164,120.984-1.281,177.32-22.695
		c38.277-14.547,75.184-34.66,105.731-61.629c0.98,1.484,1.988,2.965,3.004,4.449l0.445-0.902c0.043,0.578,0.066,1.148,0.121,1.723
		c13.91,20.238,30.031,39.938,45.844,60.258c2.273,2.922,4.563,5.82,6.82,8.777c29.367,38.496,54.203,85.773,45.625,133.434
		c-7.352,40.879-39.844,75.027-78.98,88.898c-39.152,13.871-83.613,8.742-121.012-9.328
		c-45.457-21.957-80.481-61.254-125.016-85.023c-74.922-39.988-174.164-28.348-237.793,27.883
		c-25.496,22.535-45.973,53.012-48.391,86.953c-0.602,8.25,0.547,17.762,6.344,23.227
		C615.113,1817.051,637.715,1786.113,668.879,1764.945z"/>
	<path style="fill:#D33F75;" d="M1545.586,1503.793c23.066-0.352,46.426-5.066,66.422-16.57
		c19.992-11.504,36.34-30.27,42.109-52.598c0.906-3.5,1.547-7.227,0.508-10.684c-2.012-6.746-9.906-10.242-16.922-9.727
		c-7.016,0.523-13.398,4.043-19.652,7.258c-32.195,16.551-70.582,26.746-104.492,14.063c-13.195-4.934-25.121-13.129-38.73-16.762
		c-13.613-3.629-30.531-1.129-37.82,10.926c-5.965,9.871-3.363,23.098,3.281,32.527
		C1463.598,1495.293,1507.574,1504.379,1545.586,1503.793z"/>
	<path style="fill:#F086AC;" d="M1768.359,1411.414c28.285-19.352,50.34-48.02,61.16-80.59c2.801-8.438,4.879-17.637,2.285-26.145
		c-2.598-8.508-11.387-15.672-20.031-13.574c-3.531,0.863-6.566,3.094-9.281,5.512c-21.141,18.836-28.621,51.367-53.418,65.043
		c-8.793,4.848-18.898,6.726-28.117,10.703c-9.223,3.977-18.172,11.098-19.77,21.008
		C1694.555,1434.555,1750.082,1423.91,1768.359,1411.414z"/>
	<path style="fill:#D33F75;" d="M1655.648,521.398c-6.559-19.644-4.777-41.109-9.344-61.309c-0.813-3.566-2.141-7.504-5.438-9.086
		c-4.035-1.945-9.07,0.91-11.086,4.91c-2.012,4-1.82,8.711-1.57,13.184c1.793,31.555,4.539,63.047,8.223,94.43
		c4.34,37.008,39.023,32.473,34.07-2.266C1668.496,547.18,1660.152,534.887,1655.648,521.398z"/>
	<path style="fill:#044857;" d="M1090.941,996.375c-3.563-36.527-36.059-63.25-72.586-59.691
		c-36.524,3.563-63.25,36.059-59.688,72.586c3.562,36.527,36.059,63.25,72.586,59.688
		C1067.777,1065.398,1094.504,1032.895,1090.941,996.375z"/>
	<path style="fill:#FFFFFF;" d="M1011.953,1016.594c18.219,0,32.98-14.769,32.98-32.984c0-18.211-14.762-32.98-32.98-32.98
		c-18.215,0-32.977,14.769-32.977,32.98C978.977,1001.824,993.738,1016.594,1011.953,1016.594z"/>
	<path style="fill:#044857;" d="M1348.984,996.375c-3.563-36.527-36.059-63.25-72.586-59.691
		c-36.527,3.563-63.25,36.059-59.688,72.586c3.559,36.527,36.059,63.25,72.582,59.688
		C1325.82,1065.398,1352.543,1032.895,1348.984,996.375z"/>
	<path style="fill:#FFFFFF;" d="M1269.996,950.629c-18.219,0-32.98,14.769-32.98,32.98c0,18.215,14.762,32.984,32.98,32.984
		c18.215,0,32.98-14.769,32.98-32.984C1302.977,965.398,1288.211,950.629,1269.996,950.629z"/>
	<path style="fill:#044857;" d="M1297.387,869.152c-19.469-3.238-39.66-0.176-58.168,6.684
		c-11.441,4.246-22.938,10.461-29.063,21.02c-8.5,14.656-0.727,37.844,18.27,33.676c8.75-1.918,17.117-12.496,26.199-15.648
		c10.797-3.746,22.758-4.426,33.84-1.555c16.48,4.27,30.813,15.621,47.703,17.691c3.746,0.457,7.715,0.41,11.086-1.297
		c5.41-2.734,8.082-9.328,7.59-15.375c-0.496-6.047-3.617-11.578-7.305-16.391C1335.527,882.293,1316.859,872.394,1297.387,869.152z
		"/>
	<path style="fill:#044857;" d="M972.418,930.531c8.75-1.918,17.113-12.496,26.191-15.648c10.797-3.746,22.758-4.426,33.848-1.555
		c16.473,4.27,30.809,15.621,47.695,17.691c3.754,0.457,7.719,0.41,11.09-1.297c5.414-2.734,8.082-9.328,7.59-15.375
		c-0.496-6.047-3.613-11.578-7.305-16.391c-12.012-15.664-30.676-25.563-50.148-28.805c-19.473-3.238-39.66-0.176-58.172,6.684
		c-11.441,4.246-22.941,10.461-29.059,21.02C945.644,911.512,953.418,934.699,972.418,930.531z"/>
	<path style="fill:#D33F75;" d="M1199.805,1329.68c11.871-19.867,13.313-46.34,1.129-66.019c-2.227-3.598-5.059-7.094-8.992-8.656
		c-8.215-3.27-16.785,2.867-24.668,6.871c-14.461,7.34-32.273,7.707-47.023,0.957c-10.844-4.957-21.152-13.738-32.984-12.219
		c-16.207,2.086-23.43,21.867-23.195,38.207c0.23,16.344,4.18,33.793-3.367,48.293c-12.543,24.109-48.773,25.586-64.535,47.723
		c-31.813,44.676,38.23,94.355,72.215,51.617c11.293-14.203,10.586-35.527,22.676-49.063c12.809-14.34,34.551-14.668,53.258-19.109
		C1166.832,1362.938,1187.93,1349.547,1199.805,1329.68z"/>
	<path style="fill:#F086AC;" d="M1274.375,1553.152c0.672-3.789,0.809-7.75-0.336-11.426c-2.203-7.027-8.586-11.75-13.188-17.5
		c-8.238-10.285-10.754-23.996-11.449-37.152c-0.703-13.156,0.125-26.496-2.609-39.383c-2.246-10.621-8.211-21.867-18.73-24.531
		c-10.734-2.719-22.012,5.223-26.238,15.461c-4.223,10.23-2.867,21.914-0.023,32.613c2.852,10.699,7.117,21.066,8.625,32.031
		c1.426,10.422,0.305,21,0.418,31.52c0.105,10.516,1.629,21.48,7.613,30.125C1233.805,1587.082,1269.688,1579.672,1274.375,1553.152
		z"/>
	<path style="fill:#D33F75;" d="M289.449,1383.73c-7.238,5.836-11.824,14.383-18.75,20.59c-10.043,9-23.82,12.164-36.695,16.172
		c-12.871,4.004-26.398,10-32.742,21.898c-4.695,8.801-4.715,19.609-9.957,28.094c-4.031,6.535-10.684,10.914-16.52,15.914
		c-5.832,5-11.297,11.523-11.426,19.211c-0.539,33.844,44.496-6.906,49.508-18.23c6.484-14.656,11.551-31.555,25.203-39.941
		c7.848-4.824,17.32-5.949,26.371-7.641c12.527-2.332,25.098-6.078,35.363-13.629c10.258-7.547,17.941-19.461,17.836-32.203
		c-0.035-3.793-0.813-7.734-3.156-10.723C308.742,1375.926,296.695,1377.898,289.449,1383.73z"/>
	<path style="fill:#F086AC;" d="M928.051,1481.211c-20.727-5.367-41.445-10.738-62.172-16.105
		c-6.035-1.57-12.258-3.145-18.445-2.348c-9.836,1.262-17.992,8.27-27.551,10.93c-21.734,6.043-42.332-11.113-63.805-18.027
		c-6.695-2.156-13.98-3.313-20.758-1.426c-6.781,1.879-12.887,7.367-13.855,14.34c-3.352,24.117,42.285,41.484,59.906,44.875
		c12.211,2.355,25.512,1.457,36.094-5.082c6.766-4.176,12.152-10.461,19.289-13.977c14.836-7.313,32.398-0.922,47.98,4.633
		c15.586,5.555,34.551,9.699,47.359-0.77c3.715-3.031,6.625-8.391,4.133-12.477C934.563,1483.039,931.156,1482.016,928.051,1481.211
		z"/>
	<path style="fill:#F086AC;" d="M1213.824,1862.09c-4.766-0.797-9.617,0.859-13.891,3.121
		c-13.129,6.953-23.434,19.902-38.063,22.496c-14.063,2.492-27.777-5.383-41.98-6.867c-20.453-2.137-58.348,18.438-34.328,39.672
		c18.469,16.324,57.664,12.207,78.738,5.609c24.234-7.586,45.82-24.559,56.961-47.375c1.105-2.262,2.129-4.672,2.023-7.18
		C1223.098,1866.738,1218.594,1862.879,1213.824,1862.09z"/>
	<path style="fill:#044857;" d="M1216.191,1088.52c7.977-11.406-10.727-22.203-18.641-10.891
		c-20.891,29.871-62.469,27.793-81.172-2.879c-7.223-11.844-25.895-1.008-18.637,10.895
		C1125.348,1130.906,1186.121,1131.516,1216.191,1088.52z"/>
	<path style="fill:#F086AC;" d="M1261.012,738.227c-7.652-2.297-13.891-7.781-21.039-11.359c-7.145-3.57-16.711-4.813-22.43,0.77
		c-2.371,2.316-3.711,5.477-4.789,8.609c-4.938,14.375-6.992,32.059-20.254,39.481c-7.969,4.461-18.191,3.793-25.777,8.891
		c-37.441,25.16,27.301,68.566,53.652,64.211c43.867-7.25,35.078-54.512,68.414-66.316c12.082-4.277,25.68,1.813,38.156-1.09
		c11.43-2.66,20.414-13.535,20.871-25.258c0.461-11.723-7.648-23.266-18.832-26.805
		C1306.801,722.328,1283.305,744.914,1261.012,738.227z"/>
	<path style="fill:#F086AC;" d="M1060.66,1099.707c0-10.773-14.531-19.508-32.457-19.508c-17.918,0-32.453,8.734-32.453,19.508
		c0,10.777,14.535,19.512,32.453,19.512C1046.129,1119.219,1060.66,1110.484,1060.66,1099.707z"/>
	<path style="fill:#F086AC;" d="M1324.75,1099.707c0-10.773-14.535-19.508-32.461-19.508c-17.918,0-32.453,8.734-32.453,19.508
		c0,10.777,14.535,19.512,32.453,19.512C1310.215,1119.219,1324.75,1110.484,1324.75,1099.707z"/>
</g>
</svg>
