<?xml version="1.0" encoding="utf-8"?>
<!-- Generator: Adobe Illustrator 27.5.0, SVG Export Plug-In . SVG Version: 6.00 Build 0)  -->
<svg version="1.1" id="Layer_1" xmlns="http://www.w3.org/2000/svg" xmlns:xlink="http://www.w3.org/1999/xlink" x="0px" y="0px"
	 viewBox="0 0 2599 1733" style="enable-background:new 0 0 2599 1733;" xml:space="preserve">
<g>
	<rect style="fill:#E9F8FF;" width="2598.076" height="1732.051"/>
	<defs>
		<filter id="Adobe_OpacityMaskFilter" filterUnits="userSpaceOnUse" x="141.487" y="377.069" width="2312.584" height="808.568">
			<feColorMatrix  type="matrix" values="1 0 0 0 0  0 1 0 0 0  0 0 1 0 0  0 0 0 1 0"/>
		</filter>
	</defs>
	<mask maskUnits="userSpaceOnUse" x="141.487" y="377.069" width="2312.584" height="808.568" id="SVGID_1_">
		<g style="filter:url(#Adobe_OpacityMaskFilter);">
			
				<linearGradient id="SVGID_00000138558080511181078790000006470234605009338538_" gradientUnits="userSpaceOnUse" x1="1235.2157" y1="687.5135" x2="1235.2157" y2="1162.3673">
				<stop  offset="0" style="stop-color:#FFFFFF"/>
				<stop  offset="0.1726" style="stop-color:#CFCFCF"/>
				<stop  offset="0.5813" style="stop-color:#616161"/>
				<stop  offset="0.8639" style="stop-color:#1B1B1B"/>
				<stop  offset="0.9951" style="stop-color:#000000"/>
			</linearGradient>
			
				<rect x="-46.003" y="209.952" style="fill:url(#SVGID_00000138558080511181078790000006470234605009338538_);" width="2562.437" height="1261.617"/>
		</g>
	</mask>
	<g style="mask:url(#SVGID_1_);">
		<g>
			<g>
				<g>
					<path style="fill:#FE3E33;" d="M2232.924,1156.226c-7.954-17.857-16.094-35.458-24.53-52.624
						c-111.033-225.704-266.796-393.586-423.943-494.651c-148.787-95.574-303.422-139.072-447.123-148.155
						c-274.555-17.167-517.32,82.635-717.414,224.679C445.911,809.129,297.757,970.486,175.69,1156.226h-34.203
						c130.411-203.912,290.066-381.901,479.29-519.55c211.174-153.461,469.204-265.783,767.554-259.344
						c158.196,3.518,330.357,42.531,500.667,138.368c180.848,101.895,365.665,276.73,504.946,523.253
						c21.084,37.353,41.1,76.605,60.127,117.272H2232.924z"/>
					<path style="fill:#FFA400;" d="M2034.15,1156.226c-87.763-202.099-216.501-359.136-350.838-457.067
						c-129.114-94.015-267.24-140.938-397.083-154.745c-251.161-26.527-478.513,61.149-667.212,191.804
						c-157.995,109.515-293.971,253.444-407.112,420.008H175.69c122.067-185.74,270.221-347.098,444.223-470.752
						c200.094-142.044,442.859-241.846,717.414-224.679c143.701,9.083,298.336,52.581,447.123,148.155
						c157.147,101.066,312.91,268.948,423.943,494.651c8.437,17.166,16.577,34.767,24.53,52.624H2034.15z"/>
					<path style="fill:#FFE300;" d="M1853.885,1156.226c-68.491-157.306-164.949-284.683-268.467-369.753
						c-111.195-91.276-233.775-140.582-350.385-158.284c-228.194-34.466-439.978,41.522-616.95,160.832
						c-141.084,95.225-263.998,220.928-367.491,367.204h-38.689c113.141-166.564,249.118-310.494,407.112-420.008
						c188.698-130.654,416.051-218.33,667.212-191.804c129.843,13.807,267.969,60.73,397.083,154.745
						c134.337,97.931,263.075,254.968,350.838,457.067H1853.885z"/>
					<path style="fill:#66C232;" d="M1688.813,1156.226c-52.357-116.933-121.962-214.878-198.197-285.195
						c-94.939-87.472-202.883-138.133-306.874-158.909c-205.688-40.929-401.729,23.854-566.631,131.896
						c-123.096,80.75-231.77,187.467-324.683,312.208h-41.835c103.492-146.276,226.407-271.979,367.491-367.204
						c176.972-119.311,388.756-195.298,616.95-160.832c116.61,17.701,239.19,67.008,350.385,158.284
						c103.518,85.07,199.976,212.447,268.467,369.753H1688.813z"/>
					<path style="fill:#2ECFFF;" d="M1536.159,1156.226c-38.073-80.24-85.301-149.515-137.399-203.266
						c-80.255-82.714-174.436-133.706-266.407-156.747c-308.748-76.912-591.382,100.772-794.949,360.013h-44.977
						c92.912-124.741,201.586-231.458,324.683-312.208c164.903-108.042,360.943-172.825,566.631-131.896
						c103.991,20.776,211.935,71.437,306.874,158.909c76.235,70.317,145.84,168.261,198.197,285.195H1536.159z"/>
					<path style="fill:#0051DE;" d="M1393.021,1156.226c-24.51-46.763-52.641-88.547-83.304-123.846
						c-67.058-77.112-148.316-127.416-228.848-151.918c-259.622-78.601-507.465,58.931-693.035,275.764h-50.43
						c203.568-259.241,486.202-436.925,794.949-360.013c91.971,23.041,186.151,74.033,266.407,156.747
						c52.098,53.752,99.325,123.026,137.399,203.266H1393.021z"/>
					<path style="fill:#763DFF;" d="M1250.163,1156.226c-61.33-94.206-140.991-162.474-220.876-191.356
						c-210.338-75.646-419.507,21.157-584.126,191.356h-57.327c185.57-216.833,433.412-354.365,693.035-275.764
						c80.532,24.502,161.79,74.806,228.848,151.918c30.663,35.298,58.794,77.083,83.304,123.846H1250.163z"/>
				</g>
			</g>
		</g>
		<g>
			<g>
				<g>
					<path style="fill:#FFFFFF;" d="M1015.009,507.397c25.197,6.17,30.199,11.172,36.37,36.369
						c6.17-25.197,11.172-30.199,36.369-36.369c-25.197-6.17-30.198-11.172-36.369-36.369
						C1045.208,496.224,1040.207,501.227,1015.009,507.397z"/>
				</g>
			</g>
			<g>
				<g>
					<path style="fill:#FFFFFF;" d="M1725.843,665.446c27.487,6.731,32.943,12.188,39.674,39.674
						c6.731-27.487,12.188-32.943,39.674-39.674c-27.487-6.731-32.943-12.188-39.674-39.674
						C1758.786,653.259,1753.33,658.715,1725.843,665.446z"/>
				</g>
			</g>
			<g>
				<g>
					<path style="fill:#FFFFFF;" d="M1235.313,464.572c23.582,5.775,28.264,10.456,34.038,34.038
						c5.775-23.582,10.456-28.263,34.038-34.038c-23.582-5.775-28.263-10.456-34.038-34.038
						C1263.576,454.116,1258.895,458.797,1235.313,464.572z"/>
				</g>
			</g>
			<g>
				<g>
					<path style="fill:#FFFFFF;" d="M1113.93,964.047c7.89,1.932,9.456,3.498,11.389,11.389c1.932-7.891,3.499-9.456,11.389-11.389
						c-7.891-1.932-9.457-3.499-11.389-11.389C1123.386,960.548,1121.82,962.115,1113.93,964.047z"/>
				</g>
			</g>
			<g>
				<g>
					<path style="fill:#FFFFFF;" d="M1521.73,732.001c23.122,5.662,27.712,10.252,33.374,33.374
						c5.662-23.122,10.253-27.712,33.374-33.374c-23.122-5.662-27.712-10.252-33.374-33.375
						C1549.442,721.749,1544.852,726.339,1521.73,732.001z"/>
				</g>
			</g>
			<g>
				<g>
					<path style="fill:#FFFFFF;" d="M792.514,578.48c8.368,2.049,10.029,3.71,12.078,12.079c2.05-8.369,3.711-10.03,12.079-12.079
						c-8.368-2.049-10.029-3.711-12.079-12.079C802.543,574.769,800.882,576.431,792.514,578.48z"/>
				</g>
			</g>
			<g>
				<g>
					<path style="fill:#FFFFFF;" d="M494.034,1044.617c8.368,2.049,10.03,3.71,12.079,12.078c2.049-8.368,3.71-10.029,12.079-12.078
						c-8.369-2.05-10.03-3.711-12.079-12.079C504.064,1040.906,502.402,1042.567,494.034,1044.617z"/>
				</g>
			</g>
			<g>
				<g>
					<path style="fill:#FFFFFF;" d="M507.342,863.539c22.173,5.43,26.574,9.831,32.004,32.004
						c5.43-22.173,9.831-26.574,32.004-32.004c-22.173-5.43-26.574-9.831-32.004-32.003
						C533.916,853.708,529.514,858.11,507.342,863.539z"/>
				</g>
			</g>
			<g>
				<g>
					<path style="fill:#FFFFFF;" d="M892.484,866.818c28.139,6.891,33.725,12.477,40.616,40.617
						c6.891-28.14,12.477-33.726,40.617-40.617c-28.14-6.891-33.726-12.477-40.617-40.616
						C926.209,854.341,920.623,859.927,892.484,866.818z"/>
				</g>
			</g>
			<g>
				<g>
					<path style="fill:#FFFFFF;" d="M1134.55,740.497c12.047,2.951,14.439,5.342,17.39,17.39c2.95-12.047,5.342-14.439,17.389-17.39
						c-12.047-2.95-14.439-5.342-17.389-17.39C1148.989,735.156,1146.597,737.548,1134.55,740.497z"/>
				</g>
			</g>
			<g>
				<g>
					<path style="fill:#FFFFFF;" d="M248.801,1087.566c26.885,6.584,32.221,11.92,38.805,38.805
						c6.583-26.884,11.92-32.221,38.805-38.805c-26.885-6.584-32.222-11.921-38.805-38.805
						C281.023,1075.645,275.686,1080.982,248.801,1087.566z"/>
				</g>
			</g>
			<g>
				<g>
					<path style="fill:#FFFFFF;" d="M1293.691,640.192c20.329,4.979,24.364,9.014,29.343,29.343
						c4.978-20.329,9.013-24.364,29.342-29.343c-20.329-4.978-24.364-9.014-29.342-29.343
						C1318.055,631.178,1314.02,635.214,1293.691,640.192z"/>
				</g>
			</g>
			<g>
				<g>
					<path style="fill:#FFFFFF;" d="M2244.82,1115.895c8.481,2.077,10.164,3.761,12.242,12.242
						c2.077-8.481,3.76-10.164,12.241-12.242c-8.481-2.077-10.164-3.76-12.241-12.242
						C2254.984,1112.135,2253.301,1113.819,2244.82,1115.895z"/>
				</g>
			</g>
			<g>
				<g>
					<path style="fill:#FFFFFF;" d="M1928.609,818.136c8.15,1.996,9.768,3.614,11.763,11.764c1.996-8.15,3.614-9.768,11.764-11.764
						c-8.15-1.995-9.768-3.613-11.764-11.763C1938.376,814.523,1936.759,816.141,1928.609,818.136z"/>
				</g>
			</g>
			<g>
				<g>
					<path style="fill:#FFFFFF;" d="M1804.166,1051.927c11.024,2.7,13.214,4.888,15.913,15.913
						c2.7-11.025,4.888-13.214,15.913-15.913c-11.025-2.7-13.214-4.888-15.913-15.913
						C1817.38,1047.039,1815.19,1049.227,1804.166,1051.927z"/>
				</g>
			</g>
			<g>
				<g>
					<path style="fill:#FFFFFF;" d="M1453.313,916.185c7.189,1.761,8.617,3.188,10.377,10.378c1.761-7.19,3.188-8.617,10.377-10.378
						c-7.189-1.76-8.616-3.187-10.377-10.377C1461.93,912.997,1460.502,914.424,1453.313,916.185z"/>
				</g>
			</g>
			<g>
				<g>
					<path style="fill:#FFFFFF;" d="M2268.069,1001.141c21.105,5.169,25.294,9.358,30.462,30.462
						c5.168-21.104,9.358-25.293,30.462-30.462c-21.104-5.168-25.294-9.357-30.462-30.462
						C2293.363,991.784,2289.174,995.973,2268.069,1001.141z"/>
				</g>
			</g>
			<g>
				<g>
					<path style="fill:#FFFFFF;" d="M1456.08,1091.981c12.089,2.961,14.489,5.36,17.449,17.45c2.961-12.089,5.36-14.489,17.45-17.45
						c-12.089-2.96-14.489-5.36-17.45-17.449C1470.569,1086.621,1468.169,1089.021,1456.08,1091.981z"/>
				</g>
			</g>
			<g>
				<g>
					<path style="fill:#FFFFFF;" d="M1966.509,945.01c24.476,5.994,29.335,10.852,35.328,35.328
						c5.994-24.476,10.852-29.335,35.328-35.328c-24.476-5.994-29.335-10.852-35.328-35.328
						C1995.844,934.158,1990.985,939.016,1966.509,945.01z"/>
				</g>
			</g>
			<g>
				<g>
					<path style="fill:#FFFFFF;" d="M636.875,664.056c16.869,4.131,20.217,7.48,24.349,24.348
						c4.131-16.869,7.48-20.217,24.349-24.348c-16.869-4.131-20.218-7.48-24.349-24.349
						C657.092,656.576,653.743,659.925,636.875,664.056z"/>
				</g>
			</g>
			<g>
				<g>
					<path style="fill:#FFFFFF;" d="M1935.381,645.643c8.206,2.01,9.835,3.638,11.845,11.845c2.009-8.206,3.639-9.835,11.845-11.845
						c-8.206-2.009-9.835-3.638-11.845-11.845C1945.216,642.005,1943.588,643.634,1935.381,645.643z"/>
				</g>
			</g>
			<g>
				<g>
					<path style="fill:#FFFFFF;" d="M1971.992,1122.953c7.882,1.931,9.447,3.495,11.377,11.377
						c1.93-7.882,3.495-9.447,11.377-11.377c-7.882-1.93-9.447-3.495-11.377-11.377
						C1981.439,1119.458,1979.874,1121.023,1971.992,1122.953z"/>
				</g>
			</g>
			<g>
				<g>
					<path style="fill:#FFFFFF;" d="M1261.634,1092.466c20.853,5.106,24.992,9.246,30.099,30.099
						c5.107-20.853,9.246-24.993,30.099-30.099c-20.853-5.107-24.993-9.246-30.099-30.099
						C1286.626,1083.22,1282.486,1087.359,1261.634,1092.466z"/>
				</g>
			</g>
			<g>
				<g>
					<path style="fill:#FFFFFF;" d="M910.992,667.137c25.567,6.261,30.642,11.336,36.903,36.903
						c6.261-25.566,11.336-30.642,36.902-36.903c-25.566-6.261-30.642-11.336-36.902-36.902
						C941.634,655.801,936.559,660.876,910.992,667.137z"/>
				</g>
			</g>
			<g>
				<g>
					<path style="fill:#FFFFFF;" d="M1835.028,1175.409c7.086,1.735,8.493,3.142,10.228,10.228
						c1.736-7.086,3.142-8.493,10.228-10.228c-7.086-1.735-8.493-3.142-10.228-10.228
						C1843.521,1172.268,1842.115,1173.674,1835.028,1175.409z"/>
				</g>
			</g>
			<g>
				<g>
					<path style="fill:#FFFFFF;" d="M1530.2,471.013c15.649,3.832,18.755,6.938,22.587,22.587
						c3.832-15.649,6.938-18.755,22.587-22.587c-15.649-3.832-18.755-6.939-22.587-22.587
						C1548.955,464.074,1545.849,467.18,1530.2,471.013z"/>
				</g>
			</g>
			<g>
				<g>
					<path style="fill:#FFFFFF;" d="M362.685,994.115c15.648,3.832,18.755,6.938,22.586,22.587
						c3.832-15.649,6.939-18.755,22.587-22.587c-15.649-3.832-18.755-6.938-22.587-22.587
						C381.44,987.177,378.333,990.283,362.685,994.115z"/>
				</g>
			</g>
			<g>
				<g>
					<path style="fill:#FFFFFF;" d="M2146.667,893.825c8.301,2.033,9.949,3.681,11.982,11.982c2.033-8.302,3.681-9.95,11.982-11.982
						c-8.302-2.033-9.95-3.681-11.982-11.982C2156.615,890.144,2154.968,891.792,2146.667,893.825z"/>
				</g>
			</g>
			<g>
				<g>
					<path style="fill:#FFFFFF;" d="M679.6,795.327c24.714,6.052,29.621,10.958,35.673,35.673
						c6.052-24.715,10.958-29.621,35.672-35.673c-24.714-6.052-29.62-10.958-35.672-35.673
						C709.221,784.368,704.314,789.275,679.6,795.327z"/>
				</g>
			</g>
			<g>
				<g>
					<path style="fill:#FFFFFF;" d="M1583.123,948.574c25.293,6.194,30.314,11.215,36.508,36.508
						c6.194-25.293,11.215-30.315,36.508-36.508c-25.293-6.194-30.315-11.215-36.508-36.508
						C1613.438,937.359,1608.417,942.38,1583.123,948.574z"/>
				</g>
			</g>
			<g>
				<g>
					<path style="fill:#FFFFFF;" d="M1772.219,904.14c10.679,2.615,12.799,4.735,15.414,15.413
						c2.615-10.679,4.735-12.798,15.413-15.413c-10.678-2.615-12.798-4.735-15.413-15.413
						C1785.017,899.405,1782.898,901.525,1772.219,904.14z"/>
				</g>
			</g>
			<g>
				<g>
					<path style="fill:#FFFFFF;" d="M1626.044,1050.628c9.643,2.361,11.558,4.275,13.919,13.919
						c2.361-9.644,4.275-11.558,13.919-13.919c-9.644-2.362-11.558-4.276-13.919-13.919
						C1637.602,1046.352,1635.687,1048.267,1626.044,1050.628z"/>
				</g>
			</g>
			<g>
				<g>
					<path style="fill:#FFFFFF;" d="M1335.021,872.196c13.69,3.353,16.407,6.07,19.76,19.76c3.352-13.69,6.07-16.407,19.76-19.76
						c-13.69-3.352-16.408-6.07-19.76-19.76C1351.428,866.126,1348.711,868.844,1335.021,872.196z"/>
				</g>
			</g>
		</g>
	</g>
</g>
</svg>
