<svg xmlns="http://www.w3.org/2000/svg" viewBox="0 0 200 200" width="300" height="300">
  <style>
    .body { fill: #8E8E96; color: #8E8E96; }
    .belly { fill: #A8A8B0; color: #A8A8B0; }
    .head { fill: #8E8E96; color: #8E8E96; }
    .horn-big { fill: #D4CFC0; color: #D4CFC0; }
    .horn-small { fill: #D4CFC0; color: #D4CFC0; }
    .ear-left { fill: #8E8E96; color: #8E8E96; }
    .ear-right { fill: #8E8E96; color: #8E8E96; }
    .tail { fill: #8E8E96; color: #8E8E96; }
    .tail-tuft { fill: #3E3E44; color: #3E3E44; }
    .leg-front { fill: #8E8E96; color: #8E8E96; }
    .leg-back { fill: #8E8E96; color: #8E8E96; }
    .toenail { fill: #3E3E44; color: #3E3E44; }
    .skin-fold { fill: #5F5F66; color: #5F5F66; }
    .eye { fill: #1E1E1E; color: #1E1E1E; }
    .nostril { fill: #3E3E44; color: #3E3E44; }
    .mouth { fill: #3E3E44; color: #3E3E44; }
  </style>
  
  <g class="animal animal-rhino">
<!-- Tail -->
    <path class="tail" d="M40,130 q-10,5 -8,15" fill="none" stroke="currentColor" stroke-width="2.5"/>
    <path class="tail-tuft" d="M30,144 q3,3 0,7 q-4,-2 -3,-7 Z"/>
    <!-- Back legs -->
    <rect class="leg-back" x="55" y="145" width="18" height="38" rx="3"/>
    <rect class="leg-back" x="130" y="145" width="18" height="38" rx="3"/>
    <rect class="toenail" x="55" y="178" width="18" height="5" rx="1"/>
    <rect class="toenail" x="130" y="178" width="18" height="5" rx="1"/>
    <!-- Body -->
    <ellipse class="body" cx="100" cy="125" rx="60" ry="35"/>
    <!-- Belly -->
    <ellipse class="belly" cx="100" cy="143" rx="40" ry="15"/>
    <!-- Skin folds -->
    <path class="skin-fold" d="M60,140 q5,5 0,12 M140,140 q-5,5 0,12"
          fill="none" stroke="currentColor" stroke-width="2" stroke-linecap="round"/>
    <!-- Front legs -->
    <rect class="leg-front" x="78" y="145" width="18" height="38" rx="3"/>
    <rect class="leg-front" x="104" y="145" width="18" height="38" rx="3"/>
    <rect class="toenail" x="78" y="178" width="18" height="5" rx="1"/>
    <rect class="toenail" x="104" y="178" width="18" height="5" rx="1"/>
    <!-- Head (elongated forward) -->
    <ellipse class="head" cx="148" cy="92" rx="34" ry="26"/>
    <!-- Cheek connection -->
    <path class="head" d="M115,90 Q130,75 150,80 L150,105 Q130,110 115,105 Z"/>
    <!-- Horn (big front) -->
    <path class="horn-big" d="M168,78 Q180,55 174,50 Q162,55 160,80 Z"/>
    <!-- Horn (small back) -->
    <path class="horn-small" d="M150,78 Q156,62 152,58 Q144,62 144,80 Z"/>
    <!-- Ears -->
    <ellipse class="ear-left"  cx="128" cy="68" rx="6" ry="9" transform="rotate(-20 128 68)"/>
    <ellipse class="ear-right" cx="136" cy="62" rx="6" ry="9" transform="rotate(-10 136 62)"/>
    <!-- Eye -->
    <circle class="eye" cx="138" cy="88" r="2.5"/>
    <!-- Nostril -->
    <ellipse class="nostril" cx="176" cy="95" rx="3" ry="2"/>
    <!-- Mouth -->
    <path class="mouth" d="M165,105 Q172,108 178,105" fill="none" stroke="currentColor" stroke-width="1.5" stroke-linecap="round"/>
  </g>
</svg>