<?xml version="1.0" encoding="iso-8859-1"?>
<!-- Uploaded to: SVG Repo, www.svgrepo.com, Generator: SVG Repo Mixer Tools -->
<svg version="1.1" id="Layer_1" xmlns="http://www.w3.org/2000/svg" xmlns:xlink="http://www.w3.org/1999/xlink" 
	 viewBox="0 0 512 512" xml:space="preserve">
<path style="fill:#B8DE6F;" d="M318.34,159.17v68.214l-33.758,22.505v-90.72c0-69.148-56.264-125.412-125.412-125.412
	S33.758,90.022,33.758,159.17v90.72L0,227.384V159.17C0,71.264,71.264,0,159.17,0S318.34,71.264,318.34,159.17z"/>
<polygon style="fill:#FD6144;" points="302.003,276.356 290.647,512 224.234,512 224.234,472.615 190.475,472.615 190.475,512 
	127.865,512 127.865,472.615 94.107,472.615 94.107,512 27.693,512 16.879,276.356 "/>
<path style="fill:#B8DE6F;" d="M481.201,56.421l-49.625,22.505l-49.625-22.505c-16.935,0-30.787,13.852-30.787,30.799v103.593
	c0,16.935,12.198,35.412,27.119,41.061c14.91,5.649,27.119,10.263,27.119,10.263v156.346c-21.211,9.88-35.919,31.373-35.919,56.309
	v40.33c0,9.284,7.596,16.879,16.879,16.879h90.427c9.284,0,16.879-7.596,16.879-16.879v-40.33c0-24.936-14.707-46.429-35.919-56.309
	V242.137c0,0,12.209-4.614,27.13-10.263c14.91-5.649,27.119-24.126,27.119-41.061V87.22C512,70.273,498.137,56.421,481.201,56.421z
	 M459.911,454.791v23.451h-56.669v-23.451c0-15.619,12.716-28.334,28.334-28.334C447.207,426.457,459.911,439.172,459.911,454.791z"
	/>
<rect x="384.911" y="56.421" style="fill:#D9F2A7;" width="93.33" height="134.392"/>
<path style="fill:#FF8468;" d="M318.34,227.384v43.346c0,9.284-7.596,16.879-16.879,16.879H16.879C7.596,287.609,0,280.013,0,270.73
	v-43.346h33.758h250.824H318.34z"/>
</svg>