<?xml version="1.0" encoding="iso-8859-1"?>
<!-- Uploaded to: SVG Repo, www.svgrepo.com, Generator: SVG Repo Mixer Tools -->
<svg height="800px" width="800px" version="1.1" id="Layer_1" xmlns="http://www.w3.org/2000/svg" xmlns:xlink="http://www.w3.org/1999/xlink" 
	 viewBox="0 0 511.994 511.994" xml:space="preserve">
<path style="fill:#41D4D3;" d="M450.005,353.314h-39.498c-34.929,8.813-60.775,40.439-60.775,78.1c0,44.47,36.049,80.53,80.53,80.53
	c44.47,0,80.53-36.06,80.53-80.53C510.792,393.753,484.934,362.127,450.005,353.314z"/>
<path style="fill:#7BD288;" d="M150.133,367.91c-20.861-22.193-49.959-34.846-80.44-34.846c-4.64,0-8.399,3.761-8.399,8.399
	s3.759,8.399,8.399,8.399c26.93,0,52.593,11.658,70.406,31.984c1.596,1.82,3.897,2.863,6.317,2.863h140.783v-16.798H150.133V367.91z
	"/>
<path style="fill:#CFF2F2;" d="M396.667,16.792h-48.412v33.596h48.412c9.239,0,16.798,7.559,16.798,16.798v134.597h33.596V67.187
	C447.061,39.403,424.451,16.792,396.667,16.792z"/>
<path style="fill:#B8DE6F;" d="M410.518,179.387v33.596l-78.828,41.01c-20.303,10.572-37.516,34.671-40.909,57.315l-14.782,98.594
	l-168.854,0.403l8.589,33.193h166.805c12.319,0,23.887-9.967,25.712-22.14l15.757-105.066c1.825-12.184,12.263-26.81,23.193-32.487
	l63.318-32.958v180.568c0,10.896,8.836,19.743,19.743,19.743c10.896,0,19.743-8.847,19.743-19.743V179.387L410.518,179.387
	L410.518,179.387z"/>
<circle style="fill:#41D4D3;" cx="69.694" cy="443.503" r="68.491"/>
<circle style="fill:#B8DE6F;" cx="344.376" cy="33.596" r="33.596"/>
<path style="fill:#FFFFFF;" d="M69.697,408.658c19.206,0,34.839,15.633,34.839,34.839c0,19.217-15.633,34.85-34.839,34.85
	c-19.217,0-34.85-15.633-34.85-34.85C34.847,424.292,50.48,408.658,69.697,408.658z"/>
</svg>