<?xml version="1.0" encoding="iso-8859-1"?>
<!-- Uploaded to: SVG Repo, www.svgrepo.com, Generator: SVG Repo Mixer Tools -->
<svg version="1.1" id="Layer_1" xmlns="http://www.w3.org/2000/svg" xmlns:xlink="http://www.w3.org/1999/xlink" 
	 viewBox="0 0 511.197 511.197" xml:space="preserve">
<g>
	<rect x="159.196" y="142.084" style="fill:#FFB354;" width="16.605" height="44.281"/>
	<rect x="237.042" y="142.084" style="fill:#FFB354;" width="16.605" height="44.281"/>
</g>
<rect x="224.311" y="344.294" style="fill:#FE547B;" width="42.067" height="44.281"/>
<rect x="146.465" y="344.294" style="fill:#FE7F9C;" width="42.067" height="44.281"/>
<g>
	<rect x="146.465" y="175.284" style="fill:#FCE190;" width="42.067" height="157.94"/>
	<rect x="224.311" y="175.284" style="fill:#FCE190;" width="42.067" height="157.94"/>
</g>
<path style="fill:#FFB354;" d="M284.069,225.687v33.211c17.436,0,31.617,14.192,31.617,31.628c0,17.436-14.181,31.628-31.617,31.628
	H128.653c-17.447,0-31.628-14.192-31.628-31.628c0-17.436,14.181-31.628,31.628-31.628v-33.211
	c-35.757,0-64.839,29.082-64.839,64.839s29.082,64.839,64.839,64.839h155.416c35.746,0,64.828-29.082,64.828-64.839
	S319.814,225.687,284.069,225.687z"/>
<path style="fill:#FE7F9C;" d="M511.197,122.623v222.158c-24.742-50.846-76.905-85.728-137.249-85.728v-0.155l-22.141-25.201
	l22.141-25.201C434.292,208.495,486.455,173.468,511.197,122.623z"/>
<g>
	<path style="fill:#FECA72;" d="M186.44,150.381h-37.888c-4.585,0-8.303-3.717-8.303-8.303c0-4.585,3.717-8.303,8.303-8.303h37.888
		c4.585,0,8.303,3.717,8.303,8.303C194.743,146.664,191.025,150.381,186.44,150.381z"/>
	<path style="fill:#FECA72;" d="M264.294,150.381h-37.888c-4.585,0-8.303-3.717-8.303-8.303c0-4.585,3.717-8.303,8.303-8.303h37.888
		c4.585,0,8.303,3.717,8.303,8.303C272.596,146.664,268.879,150.381,264.294,150.381z"/>
	<polygon style="fill:#FECA72;" points="7.5,208.495 7.5,258.898 373.948,259.053 373.948,208.495 	"/>
</g>
<line style="fill:none;stroke:#FFB354;stroke-width:15;stroke-linecap:round;stroke-linejoin:round;stroke-miterlimit:10;" x1="7.5" y1="205.727" x2="7.5" y2="261.665"/>
</svg>