<?xml version="1.0" encoding="utf-8"?>
<!-- Generator: Adobe Illustrator 27.5.0, SVG Export Plug-In . SVG Version: 6.00 Build 0)  -->
<svg version="1.1" id="Layer_1" xmlns="http://www.w3.org/2000/svg" xmlns:xlink="http://www.w3.org/1999/xlink" x="0px" y="0px"
	 viewBox="0 0 4000 4000" style="enable-background:new 0 0 4000 4000;" xml:space="preserve">
<g>
	<g>
		<rect style="fill:#50DEFF;" width="4000" height="4000"/>
	</g>
	<g>
		<g style="opacity:0.2;">
			<ellipse style="fill:#512717;" cx="2080.455" cy="3575.292" rx="631.468" ry="162.593"/>
		</g>
		<g>
			<g>
				<path style="fill:#FD9D24;" d="M1480.332,2495.265c0,0-30.538,161.682-220.007,126.039
					c-206.875-38.917-165.908-290.908-77.322-513.603c47.887-120.382,78.499-270.571,35.468-403.614
					c-39.052-120.742-142.607-214.231-264.889-233.675c-217.102-34.521-388.844,109.775-392.41,251.716
					c-1.739,69.224,47.812,93.986,77.746,95.578c134.095,7.133,146.03-139.112,284.979-115.562
					c120.848,20.483,167.823,165.487,96.241,384.128c-94.193,287.704-88.641,427.394-12.067,550.421
					c97.439,156.548,420.382,216.237,565.127,44.865"/>
			</g>
			<g>
				<path style="fill:#FD9D24;" d="M638.911,1817.724c103.068,5.489,133.956-79.637,205.851-108.64
					c21.63-8.726,46.987-12.372,79.145-6.923c120.848,20.483,167.794,165.459,96.228,384.091
					c-94.179,287.741-88.65,427.432-12.044,550.452c97.415,156.528,420.346,216.215,565.118,44.857l-92.869-186.311
					c0,0-30.56,161.69-220.025,126.051c-206.875-38.917-165.91-290.895-77.301-513.583
					c47.888-120.397,78.489-270.576,35.476-403.632c-39.081-120.725-142.642-214.249-264.923-233.666
					c-61.039-9.709-118.473-5.284-169.597,9.258c-130.761,37.156-220.271,140.429-222.81,242.433
					C559.438,1791.342,608.965,1816.126,638.911,1817.724z"/>
			</g>
			<g>
				<path style="fill:#FD9D24;" d="M638.905,1817.703c103.098,5.505,133.97-79.597,205.862-108.603
					c21.634-8.759,47.001-12.396,79.118-6.94c120.856,20.486,167.81,165.465,96.254,384.106
					c-25.511,77.874-43.7,144.883-55.139,203.66c0,0,0,0,0,0.048c0,0.048,0,0.048,0,0.048
					c-30.824,158.381-12.779,256.98,43.077,346.677c97.451,156.514,420.339,216.2,565.127,44.849l-92.856-186.286
					c0,0-24.171,127.748-162.593,131.051c-17.326,0.479-36.376-1.053-57.436-5.026c-206.867-38.913-165.895-290.868-77.299-513.577
					c47.864-120.377,78.496-270.573,35.466-403.635c-39.056-120.712-142.633-214.238-264.925-233.67
					c-61.026-9.716-118.463-5.265-169.581,9.286c-130.763,37.142-220.269,140.432-222.805,242.43
					C559.451,1791.33,608.942,1816.124,638.905,1817.703z"/>
			</g>
			<g>
				<path style="fill:#FD9D24;" d="M638.905,1817.703c8.711,0.479,16.943,0.287,24.697-0.479
					c83.905-8.041,115.352-81.56,181.164-108.124c21.634-8.759,47.001-12.396,79.118-6.94
					c104.822,17.757,154.026,129.136,118.558,301.015c-5.409,26.325-12.828,54.038-22.305,83.091
					c-25.511,77.874-43.7,144.883-55.139,203.66c0,0,0,0,0,0.048c0,0.048,0,0.048,0,0.048
					c-30.824,158.381-12.779,256.98,43.077,346.677c97.451,156.514,420.339,216.2,565.127,44.849l-92.856-186.286
					c0,0-24.171,127.748-162.593,131.051c-17.326,0.479-36.376-1.053-57.436-5.026c-206.867-38.913-165.895-290.868-77.299-513.577
					c47.864-120.377,78.496-270.573,35.466-403.635c-39.056-120.712-142.633-214.238-264.925-233.67
					c-61.026-9.716-118.463-5.265-169.581,9.286c-130.763,37.142-220.269,140.432-222.805,242.43
					C559.451,1791.33,608.942,1816.124,638.905,1817.703z"/>
			</g>
			<g>
				<path style="fill:#FC7D27;" d="M663.602,1817.224c83.905-8.041,115.352-81.56,181.164-108.124
					c21.634-8.759,47.001-12.396,79.118-6.94c104.822,17.757,154.026,129.136,118.558,301.015
					c36.951-71.604,75.48-188.391,16.465-301.015c-76.869-146.75-234.293-87.734-280.769,0
					C747.028,1760.889,708.594,1803.152,663.602,1817.224z"/>
			</g>
			<g>
				<path style="fill:#FC7D27;" d="M1008.077,2636.698c97.451,156.514,420.339,216.2,565.127,44.849l-92.856-186.286
					c0,0-24.171,127.748-162.593,131.051c-41.785,28.91-101.615,47.241-183.031,23.214
					c-205.143-60.5-170.538-353.042-169.724-359.504C934.176,2448.403,952.22,2547.002,1008.077,2636.698z"/>
			</g>
			<g>
				<path style="fill:#512717;" d="M901.325,1698.462c27.209-1.575-10.469-172.271,148.788-195.138
					c-48.022-25.215-101.596-38.902-155.911-38.044C846.888,1570.423,890.869,1699.052,901.325,1698.462z"/>
			</g>
			<g>
				<path style="fill:#512717;" d="M1031.769,2047.58c39.941,11.47,111.017,24.784,139.037,91.844
					c3.933-10.61,8.03-21.179,12.208-31.707c0.164-0.369,0.286-0.738,0.409-1.106c9.545-24.006,18.352-49.199,26.054-75.171
					c-61.284-26.792-127.894-29.618-168.286-22.203C1038.488,2021.69,1035.374,2034.472,1031.769,2047.58z"/>
			</g>
			<g>
				<path style="fill:#512717;" d="M1045.861,2682.749c21.138,20.278,46.414,38.016,74.475,52.804
					c4.752-47.848,27.816-116.792,91.967-128.877c-37.319-16.591-62.964-42.973-79.145-76.318
					C1057.086,2574.108,1040.864,2637.769,1045.861,2682.749z"/>
			</g>
			<g>
				<path style="fill:#512717;" d="M968.167,1714.337c4.156,2.027,8.216,4.235,12.15,6.71c8.275,5.179,16.07,11.3,23.332,18.287
					c11.812,11.359,22.217,25.207,31.09,41.273c8.181-66.388,80.41-122.794,138.911-163.844c-0.704-1.385-1.37-2.777-2.109-4.116
					c-0.006-0.04-0.047-0.034-0.047-0.034c-6.391-9.19-13.255-17.936-20.493-26.418
					C1086.677,1592.866,1010.385,1627.72,968.167,1714.337z"/>
			</g>
			<g>
				<path style="fill:#512717;" d="M956.147,2502.665c36.623-36.213,97.375-40.802,157.144-41.703
					c-2.827-21.343-3.482-44.079-2.253-67.88c-52.6-23.514-120.93-18.475-160.216,5.694v0.041
					C948.814,2436.997,950.658,2471.203,956.147,2502.665z"/>
			</g>
			<g>
				<path style="fill:#512717;" d="M1251.835,2779.14c30.56,5.039,61.817,7.005,92.664,5.531
					c-6.145-62.472,10.692-132.318,41.088-172.259c-31.052,13.314-71.853,18.926-125.272,8.889
					c-6.104-1.147-11.962-2.458-17.615-4.015C1235.08,2665.297,1226.109,2733.996,1251.835,2779.14z"/>
			</g>
			<g>
				<path style="fill:#512717;" d="M970.116,2265.393c48.626-12.126,107.739,1.065,155.054,26.3
					c4.916-22.859,10.979-46.127,17.902-69.518v-0.041c-37.361-34.534-93.811-50.264-151.326-42.931
					C983.184,2209.762,975.974,2238.397,970.116,2265.393z"/>
			</g>
			<g>
				<path style="fill:#512717;" d="M1051.105,1948.854c-0.369,3.523-0.779,7.046-1.27,10.61
					c32.895-46.209,103.027-88.854,186.392-61.694c2.253-22.572,3.195-45.267,2.662-67.921
					c-61.612-22.203-133.711-15.854-190.53,8.398c2.335,12.003,3.932,24.743,4.793,38.139
					C1054.587,1898.712,1053.932,1922.923,1051.105,1948.854z"/>
			</g>
			<g>
				<path style="fill:#512717;" d="M638.911,1817.724c103.068,5.489,133.956-79.637,205.851-108.64
					c-101.471-39.941-102.782-173.693-60.793-229.406c-130.761,37.156-220.271,140.429-222.81,242.433
					C559.438,1791.342,608.965,1816.126,638.911,1817.724z"/>
			</g>
			<g>
				<path style="fill:#512717;" d="M1324.872,2799.828c-10.859,0-21.84-0.398-32.959-1.203
					c-127.436-9.232-243.734-69.754-296.287-154.185c-82.955-133.279-80.086-285.793,10.58-562.729
					c42.695-130.406,44.277-238.543,4.455-304.488c-20.313-33.639-50.328-54.035-89.215-60.625
					c-65.211-11.055-98.195,18.119-136.389,51.898c-35.824,31.684-76.379,67.588-146.918,63.848
					c-37.895-2.016-93.568-33.129-91.623-110.584c1.686-67.082,38.18-135.115,100.121-186.656
					c82.299-68.475,195.016-97.33,309.246-79.168c126.629,20.135,235.176,115.77,276.533,243.641
					c47.707,147.5,6.867,306.299-35.793,413.543c-74.842,188.141-91.379,336.596-46.568,418.016
					c22.519,40.916,59.475,65.699,112.98,75.763c172.311,32.406,201.729-108.381,202.898-114.391
					c1.541-7.931,9.201-13.138,17.152-11.619c7.936,1.519,13.149,9.158,11.649,17.097c-0.332,1.762-35.6,175.625-237.121,137.725
					c-61.781-11.623-106.611-42.051-133.242-90.441c-62.947-114.371-10.268-304.025,45.01-442.986
					c40.881-102.767,80.162-254.488,35.141-393.683c-37.996-117.48-137.4-205.291-253.244-223.711
					c-105.879-16.832-210.088,9.678-285.889,72.75c-55.447,46.135-88.092,106.223-89.565,164.857
					c-1.531,60.963,41.111,79.361,63.873,80.57c58.475,3.102,91.256-25.859,125.935-56.531
					c40.158-35.516,81.668-72.246,160.711-58.844c47.008,7.969,84.842,33.686,109.412,74.377
					c44.303,73.363,43.703,190.121-1.688,328.764c-88.688,270.887-92.234,411.703-13.553,538.115
					c47.762,76.736,155.121,131.861,273.514,140.438c111.262,8.063,208.941-27.399,267.969-97.285
					c5.225-6.181,14.471-6.965,20.658-1.74c6.183,5.224,6.963,14.472,1.74,20.658
					C1525.249,2761.045,1431.911,2799.824,1324.872,2799.828z"/>
			</g>
		</g>
		<g>
			<g>
				<g>
					<path style="fill:#FFFFFF;" d="M2703.152,2236.387c0,128.518-10.61,309.762-26.399,495.931
						c-10.067,118.741-22.198,239.474-35.054,349.741c-26.508,227.813-55.912,411.193-75.72,440.815
						c-44.686,58.013-221.476,122.761-485.538,122.761c-264.026,0-440.816-64.748-485.502-122.761
						c-19.808-29.622-49.213-213.002-75.757-440.815c-12.819-110.267-24.986-231-35.054-349.741
						c-15.752-186.169-26.363-367.413-26.363-495.931c0,0,522.801,8.256,622.675,8.256
						C2180.351,2244.644,2703.152,2236.387,2703.152,2236.387z"/>
				</g>
				<g>
					<path style="fill:#FFFFFF;" d="M2703.145,2236.385c0,60.656-2.354,133.045-6.518,212.169
						c-4.635,88.54-11.552,185.481-19.881,283.761c-10.067,118.741-22.198,239.474-35.054,349.741
						c-26.508,227.813-55.912,411.193-75.72,440.815c-44.686,58.012-221.476,122.76-485.538,122.76
						c-264.026,0-440.815-64.748-485.502-122.76c-19.808-29.622-49.213-213.002-75.757-440.815
						c-12.819-110.267-24.987-231-35.054-349.741c-8.329-98.281-15.209-195.222-19.844-283.761
						c-4.165-79.124-6.518-151.513-6.518-212.169c0,0,522.801,8.256,622.675,8.256
						C2180.344,2244.641,2703.145,2236.385,2703.145,2236.385z"/>
				</g>
				<g>
					<path style="fill:#EAE9E8;" d="M2666.679,2273.177c-1.666,116.279-10.755,276.157-26.001,456.097
						c-9.958,117.329-22.053,237.88-34.945,348.582c-34.438,295.929-60.294,406.124-69.637,424.411
						c-34.04,41.21-174.364,96.796-393.268,105.886c-20.135,0.833-40.957,1.267-62.395,1.267
						c-254.538,0-418.436-62.141-455.626-107.153c188.242,80.732,515.196,80.887,515.196-136.63c0.036-0.145,0.036-0.326,0-0.507
						c1.484-107.732,3.983-232.086,1.376-366.797c-6.12-317.403,1.63-718.131,75.286-719.073
						c28.608-0.362,89.554-19.663,169.764-50.552C2496.842,2252.028,2608.847,2274.082,2666.679,2273.177z"/>
				</g>
				<g>
					<path style="fill:#EAE9E8;" d="M2666.679,2273.177c-1.666,116.279-10.755,276.157-26.001,456.097
						c-9.958,117.329-22.053,237.88-34.945,348.582c-34.438,295.929-60.294,406.124-69.637,424.411
						c-34.04,41.21-174.364,96.796-393.268,105.886c-20.135,0.833-40.957,1.267-62.395,1.267
						c-254.538,0-418.436-62.141-455.626-107.153c188.242,80.732,515.196,80.887,515.196-136.63c0.036-0.145,0.036-0.326,0-0.507
						c1.484-107.732,3.983-232.086,1.376-366.797c-6.12-317.403,1.63-718.131,75.286-719.073
						c28.608-0.362,89.554-19.663,169.764-50.552C2496.842,2252.028,2608.847,2274.082,2666.679,2273.177z"/>
				</g>
				<g>
					<path style="fill:#EAE9E8;" d="M2331.57,3145.77c107.841-15.028,204.854-40.667,274.708-72.533
						c-0.181,1.557-0.362,3.078-0.543,4.635c-34.438,295.929-60.294,406.124-69.637,424.411
						c-34.04,41.21-174.364,96.796-393.269,105.885c-20.135,0.833-40.957,1.268-62.394,1.268
						c-254.538,0-418.436-62.141-455.626-107.153c188.233,80.718,515.196,80.863,515.196-136.63c0.036-0.145,0.036-0.326,0-0.507
						c0.363-26.906,0.797-54.862,1.195-83.723c71.592-16.006,134.023-60.113,173.566-124.644l5.794-9.488L2331.57,3145.77z"/>
				</g>
				<g>
					<path style="fill:#EAE9E8;" d="M2634.886,2795.015c-8.148,90.024-17.382,180.483-27.159,265.583
						c-69.492,32.736-167.773,59.099-277.642,74.417l-16.115,2.245l-8.474,13.833c-37.516,61.199-96.47,103.314-164.151,119.139
						c1.158-83.723,1.919-175.124,0.036-271.884c-1.521-77.966-2.173-160.965-1.231-241.827
						c62.43,14.521,118.306,51.567,156.004,105.052l11.986,17.02l20.641-2.752C2448.645,2859.98,2556.74,2831.408,2634.886,2795.015
						z"/>
				</g>
				<g>
					<path style="fill:#EAE9E8;" d="M2666.681,2273.192c-1.666,116.279-10.756,276.157-26.001,456.097
						c-1.485,17.672-3.042,35.416-4.635,53.16c-77.531,37.226-186.856,66.522-308.676,82.637l-14.123,1.883l-8.22-11.66
						c-39.689-56.347-98.788-95.167-164.731-109.869c3.295-244,21.619-465.476,76.372-466.164
						c28.608-0.362,89.553-19.663,169.764-50.553C2496.844,2252.044,2608.849,2274.097,2666.681,2273.192z"/>
				</g>
				<g>
					<path style="fill:#C69073;" d="M2638.469,2754.948c-9.524,109.181-20.786,220.281-32.736,322.907
						c-0.869,7.604-1.774,15.101-2.644,22.488c-23.755,10.176-50.625,19.881-80.392,28.862c-3.114,0.941-6.265,1.883-9.451,2.788
						c-2.535,0.724-5.106,1.485-7.713,2.209c-9.415,2.644-19.12,5.251-29.115,7.749c-2.427,0.616-4.889,1.231-7.351,1.811
						c-5.613,1.376-11.334,2.716-17.128,4.056c-3.259,0.76-6.518,1.485-9.85,2.209c-3.006,0.652-6.084,1.303-9.125,1.955
						c-1.992,0.435-3.983,0.869-6.011,1.268c-2.716,0.579-5.468,1.123-8.22,1.666c-10.828,2.173-21.945,4.273-33.279,6.229
						c-2.933,0.507-5.866,1.014-8.836,1.521c-3.657,0.616-7.315,1.231-11.045,1.811c-3.332,0.543-6.699,1.05-10.067,1.593
						c0,0-0.036,0-0.073,0c-3.368,0.507-6.772,1.014-10.212,1.521s-6.88,1.014-10.357,1.485c-1.412,2.317-2.861,4.599-4.346,6.844
						c-0.579,0.905-1.159,1.774-1.774,2.644c-1.231,1.919-2.535,3.839-3.911,5.758c-0.217,0.362-0.507,0.76-0.797,1.123
						c-1.268,1.847-2.571,3.657-3.947,5.468c-0.471,0.652-0.941,1.304-1.448,1.956c-1.738,2.317-3.513,4.635-5.36,6.88
						c-1.702,2.137-3.44,4.237-5.251,6.337c-0.942,1.159-1.919,2.318-2.933,3.44c-0.833,0.978-1.702,1.956-2.607,2.933
						c-1.195,1.34-2.39,2.68-3.657,3.983c-0.435,0.543-0.942,1.05-1.485,1.593c-1.159,1.268-2.39,2.535-3.621,3.803
						c-1.991,2.064-4.056,4.092-6.12,6.12c-2.064,1.992-4.165,3.947-6.301,5.867c-1.774,1.629-3.549,3.223-5.36,4.78
						c-1.666,1.485-3.368,2.933-5.106,4.309c-0.109,0.145-0.217,0.254-0.362,0.326c-1.485,1.267-3.042,2.499-4.563,3.73
						c-1.883,1.485-3.802,2.969-5.722,4.418c-2.68,2.028-5.359,3.983-8.075,5.903c-2.39,1.702-4.816,3.332-7.279,4.961
						c-0.543,0.398-1.123,0.76-1.666,1.086c-1.811,1.195-3.621,2.39-5.468,3.477c-0.76,0.507-1.484,0.978-2.245,1.376
						c-1.811,1.122-3.585,2.209-5.432,3.223c-1.086,0.688-2.209,1.34-3.295,1.956c-2.1,1.159-4.201,2.318-6.301,3.44
						c-1.593,0.869-3.223,1.702-4.853,2.499c-1.267,0.688-2.571,1.34-3.875,1.955c-4.273,2.1-8.546,4.092-12.892,5.975
						c-1.919,0.833-3.875,1.629-5.83,2.426c-1.34,0.543-2.644,1.086-3.983,1.593c-2.209,0.869-4.454,1.702-6.699,2.535
						c-0.652,0.253-1.34,0.471-1.992,0.724c-1.231,0.435-2.462,0.869-3.73,1.268c-1.485,0.543-3.005,1.014-4.527,1.521
						c-0.978,0.326-1.991,0.615-2.969,0.941c-1.231,0.398-2.499,0.761-3.766,1.123c-2.68,0.833-5.36,1.557-8.039,2.281
						c-1.231,0.326-2.462,0.652-3.694,0.942c-1.557,0.398-3.114,0.796-4.708,1.159c-0.76,0.181-1.557,0.362-2.318,0.543
						c-1.63,0.362-3.259,0.724-4.925,1.086c-0.253,0.036-0.507,0.073-0.76,0.145c1.34-93.103,2.644-196.67,0.507-307.191
						c-1.738-89.336-2.354-185.263-0.724-277.026c75.576,15.499,140.686,59.57,183.634,120.443
						C2461.716,2823.535,2568.724,2791.052,2638.469,2754.948z"/>
				</g>
				<g>
					<path style="fill:#EAE9E8;" d="M2703.145,2236.385c0,60.656-2.354,133.045-6.518,212.169
						c-114.142,57.832-330.476,105.27-616.156,105.27c-285.717,0-502.051-47.438-616.193-105.27
						c-4.165-79.124-6.518-151.513-6.518-212.169c0,0,522.801,8.256,622.675,8.256
						C2180.344,2244.641,2703.145,2236.385,2703.145,2236.385z"/>
				</g>
				<g>
					<g>
						<circle style="fill:#E5AD88;" cx="2080.455" cy="3013.431" r="298.201"/>
					</g>
				</g>
				<g>
					<path style="fill:#FF4848;" d="M2676.753,2732.318c-10.067,118.741-22.198,239.474-35.054,349.741
						c-67.898,35.85-172.336,68.297-306.829,87.019c-52.436,85.534-146.769,142.569-254.429,142.569
						c-107.66,0-201.958-57.035-254.357-142.569c-134.529-18.722-239.003-51.205-306.901-87.019
						c-12.819-110.267-24.986-231-35.054-349.741c65.328,44.759,186.712,87.49,352.493,109.434
						c53.957-76.553,143.04-126.527,243.819-126.527c100.779,0,189.862,49.973,243.855,126.527
						C2490.005,2819.807,2611.425,2777.077,2676.753,2732.318z"/>
				</g>
				<g>
					<path style="fill:#C69073;" d="M2638.469,2754.948c-9.524,109.181-20.786,220.281-32.736,322.907
						c-0.869,7.604-1.774,15.101-2.644,22.488c-23.755,10.176-50.625,19.881-80.392,28.862c-3.114,0.941-6.265,1.883-9.451,2.788
						c-2.535,0.724-5.106,1.485-7.713,2.209c-9.415,2.644-19.12,5.251-29.115,7.749c-2.427,0.616-4.889,1.231-7.351,1.811
						c-5.613,1.376-11.334,2.716-17.128,4.056c-3.259,0.76-6.518,1.485-9.85,2.209c-3.006,0.652-6.084,1.303-9.125,1.955
						c-1.992,0.435-3.983,0.869-6.011,1.268c-2.716,0.579-5.468,1.123-8.22,1.666c-10.828,2.173-21.945,4.273-33.279,6.229
						c-2.933,0.507-5.866,1.014-8.836,1.521c-3.657,0.616-7.315,1.231-11.045,1.811c-3.332,0.543-6.699,1.05-10.067,1.593
						c0,0-0.036,0-0.073,0c-3.368,0.507-6.772,1.014-10.212,1.521s-6.88,1.014-10.357,1.485c-1.412,2.317-2.861,4.599-4.346,6.844
						c-0.579,0.905-1.159,1.774-1.774,2.644c-1.231,1.919-2.535,3.839-3.911,5.758c-0.217,0.362-0.507,0.76-0.797,1.123
						c-1.268,1.847-2.571,3.657-3.947,5.468c-0.471,0.652-0.941,1.304-1.448,1.956c-1.738,2.317-3.513,4.635-5.36,6.88
						c-1.702,2.137-3.44,4.237-5.251,6.337c-0.942,1.159-1.919,2.318-2.933,3.44c-0.833,0.978-1.702,1.956-2.607,2.933
						c-1.195,1.34-2.39,2.68-3.657,3.983c-0.435,0.543-0.942,1.05-1.485,1.593c-1.159,1.268-2.39,2.535-3.621,3.803
						c-1.991,2.064-4.056,4.092-6.12,6.12c-2.064,1.992-4.165,3.947-6.301,5.867c-1.774,1.629-3.549,3.223-5.36,4.78
						c-1.666,1.485-3.368,2.933-5.106,4.309c-0.109,0.145-0.217,0.254-0.362,0.326c-1.485,1.267-3.042,2.499-4.563,3.73
						c-1.883,1.485-3.802,2.969-5.722,4.418c-2.68,2.028-5.359,3.983-8.075,5.903c-2.39,1.702-4.816,3.332-7.279,4.961
						c-0.543,0.398-1.123,0.76-1.666,1.086c-1.811,1.195-3.621,2.39-5.468,3.477c-0.76,0.507-1.484,0.978-2.245,1.376
						c-1.811,1.122-3.585,2.209-5.432,3.223c-1.086,0.688-2.209,1.34-3.295,1.956c-2.1,1.159-4.201,2.318-6.301,3.44
						c-1.593,0.869-3.223,1.702-4.853,2.499c-1.267,0.688-2.571,1.34-3.875,1.955c-4.273,2.1-8.546,4.092-12.892,5.975
						c-1.919,0.833-3.875,1.629-5.83,2.426c-1.34,0.543-2.644,1.086-3.983,1.593c-2.209,0.869-4.454,1.702-6.699,2.535
						c-0.652,0.253-1.34,0.471-1.992,0.724c-1.231,0.435-2.462,0.869-3.73,1.268c-1.485,0.543-3.005,1.014-4.527,1.521
						c-0.978,0.326-1.991,0.615-2.969,0.941c-1.231,0.398-2.499,0.761-3.766,1.123c-2.68,0.833-5.36,1.557-8.039,2.281
						c-1.231,0.326-2.462,0.652-3.694,0.942c-1.557,0.398-3.114,0.796-4.708,1.159c-0.76,0.181-1.557,0.362-2.318,0.543
						c-1.63,0.362-3.259,0.724-4.925,1.086c-0.253,0.036-0.507,0.073-0.76,0.145c1.34-93.103,2.644-196.67,0.507-307.191
						c-1.738-89.336-2.354-185.263-0.724-277.026c75.576,15.499,140.686,59.57,183.634,120.443
						C2461.716,2823.535,2568.724,2791.052,2638.469,2754.948z"/>
				</g>
				<g>
					<path style="fill:#E5AD88;" d="M2676.746,2732.315c-10.067,118.741-22.198,239.474-35.054,349.741
						c-11.769,6.229-24.661,12.348-38.603,18.287c-66.414,28.391-157.054,53.269-268.226,68.732
						c-42.369,69.093-112.042,119.573-193.991,136.449c1.34-93.103,2.644-196.67,0.507-307.191
						c-1.738-89.336-2.354-185.263-0.724-277.026c75.576,15.499,140.686,59.57,183.634,120.443
						c137.427-18.215,244.435-50.698,314.18-86.802C2652.846,2747.525,2665.593,2739.956,2676.746,2732.315z"/>
				</g>
				<g>
					<path style="fill:#E23737;" d="M2676.746,2732.315c-10.067,118.741-22.198,239.474-35.054,349.741
						c-11.769,6.229-24.661,12.348-38.603,18.287c-66.414,28.391-157.054,53.269-268.226,68.732
						c-42.369,69.093-112.042,119.573-193.991,136.449c1.34-93.103,2.644-196.67,0.507-307.191
						c-1.738-89.336-2.354-185.263-0.724-277.026c75.576,15.499,140.686,59.57,183.634,120.443
						c137.427-18.215,244.435-50.698,314.18-86.802C2652.846,2747.525,2665.593,2739.956,2676.746,2732.315z"/>
				</g>
				<g>
					<path style="fill:#F7B1A4;" d="M2266.895,3081.347c-0.941,26.906-11.914,47.402-31.505,63.589
						c-18.722,15.535-40.449,25.132-63.372,32.374c-9.85,3.114-19.772,5.903-29.767,8.148c0.108-10.61,0.145-21.365,0.181-32.193
						c24.154-5.106,47.511-12.783,69.818-24.117c17.02-8.655,32.338-19.7,44.976-34.221
						C2260.63,3091.016,2263.636,3086.816,2266.895,3081.347z"/>
				</g>
				<g>
					<path style="fill:#F7B1A4;" d="M2240.822,3096.375c-18.323,16.622-40.087,27.159-63.046,35.597
						c-11.552,4.237-23.212,7.713-35.307,10.429c0.145-46.388-0.145-94.515-1.087-144.053c-0.326-17.056-0.616-34.33-0.833-51.784
						c11.081,2.897,22.198,5.794,33.352,8.51c19.917,4.961,39.436,10.864,56.709,22.452c17.273,11.588,29.984,26.58,34.583,47.366
						C2271.566,3053.609,2262.079,3077.074,2240.822,3096.375z"/>
				</g>
				<g>
					<path style="fill:#E23737;" d="M2236.295,3077.907c-11.588,12.711-25.675,21.8-40.993,29.224
						c-15.209,7.351-33.352,13.616-52.798,18.143c0.036-41.065-0.29-83.47-1.123-126.925c-0.217-11.805-0.435-23.683-0.616-35.706
						c19.845,4.925,39.762,9.923,58.954,17.165c9.415,3.549,18.36,7.93,26.725,13.543
						C2252.772,3011.095,2260.739,3051.11,2236.295,3077.907z"/>
				</g>
				<g>
					<path style="fill:#E23737;" d="M2278.012,3087.468c-1.376,26-13.725,46.243-32.917,62.72
						c-22.452,19.337-48.815,31.469-76.916,39.87c-8.619,2.571-17.31,4.852-26,6.736c0.543-62.829,0.543-129.279-0.797-198.445
						c-0.398-20.895-0.76-42.151-1.014-63.625c7.098,2.028,14.304,3.766,21.474,5.577c21.402,5.432,42.839,10.9,62.829,20.605
						c23.43,11.407,41.174,28.029,49.213,53.594c2.535,8.076,3.694,16.332,3.947,24.733
						C2278.266,3055.311,2278.845,3071.389,2278.012,3087.468z"/>
				</g>
				<g>
					<path style="fill:#FFF3E9;" d="M1852.825,2878.797l-20.756-2.766c-125.43-16.612-237.922-47.125-316.748-85.918l-0.494-0.273
						c-9.941-6.205-19.572-10.467-28.627-12.67l2.652-10.91c10.146,2.467,20.801,7.144,31.678,13.902
						c77.746,38.207,188.898,68.301,313.018,84.738l14.016,1.869l8.144-11.561c51.447-73.029,135.457-116.629,224.727-116.629
						v11.227c-85.621,0-166.199,41.82-215.547,111.869L1852.825,2878.797z"/>
				</g>
				<g>
					<path style="fill:#FFF3E9;" d="M2080.435,3288.287c-96.381,0-184.025-49.127-234.447-131.416l-5.75-9.398l-10.949-1.518
						c-113.447-15.802-214.867-43.377-285.582-77.64c-10.834-4.668-21.514-10.244-31.518-16.475l5.934-9.531
						c9.531,5.934,19.709,11.25,30.254,15.799c69.914,33.869,170.146,61.082,282.459,76.727l16.207,2.248l8.521,13.926
						c48.363,78.928,132.428,126.053,224.871,126.053V3288.287z"/>
				</g>
				<g>
					<path style="fill:#FFE3D4;" d="M2308.068,2878.797l-12.063-17.119c-49.347-70.051-129.926-111.871-215.547-111.871v-11.227
						c89.27,0,173.279,43.6,224.727,116.631l8.145,11.559l14.008-1.867c124.125-16.44,235.279-46.533,313.025-84.74
						c10.877-6.758,21.531-11.435,31.678-13.902l2.652,10.91c-9.055,2.203-18.686,6.465-28.627,12.67l-0.494,0.273
						c-78.826,38.793-191.318,69.307-316.756,85.92L2308.068,2878.797z"/>
				</g>
				<g>
					<path style="fill:#FFE3D4;" d="M2080.458,3288.287v-11.226c92.441,0,176.506-47.125,224.873-126.057l8.52-13.922l16.209-2.248
						c112.311-15.644,212.543-42.857,282.232-76.625c10.771-4.652,20.949-9.967,30.475-15.9l5.938,9.531
						c-10.002,6.229-20.68,11.806-31.742,16.576c-70.49,34.162-171.912,61.737-285.355,77.539l-10.951,1.518l-5.748,9.394
						C2264.482,3239.16,2176.837,3288.287,2080.458,3288.287z"/>
				</g>
				<g>
					<g>
						<path style="fill:#FFE3D4;" d="M2308.157,2878.606l-12.002-17.031c-49.379-70.098-130.015-111.948-215.695-111.948v-10.864
							c89.209,0,173.163,43.572,224.578,116.552l8.204,11.649l14.121-1.881c124.145-16.441,235.318-46.539,313.09-84.756
							c10.86-6.755,21.501-11.426,31.629-13.887l2.567,10.552c-9.074,2.21-18.722,6.479-28.68,12.696l-0.477,0.265
							c-78.815,38.787-191.29,69.292-316.697,85.899L2308.157,2878.606z"/>
					</g>
				</g>
				<g>
					<g>
						<path style="fill:#FFE3D4;" d="M2080.46,3288.104v-10.864c92.505,0,176.628-47.154,225.027-126.143l8.473-13.845l16.126-2.239
							c112.326-15.645,212.579-42.865,282.284-76.641c10.765-4.65,20.953-9.969,30.494-15.91l5.743,9.223
							c-10.001,6.228-20.674,11.801-31.718,16.561c-70.484,34.161-171.886,61.727-285.308,77.524l-11.037,1.535l-5.793,9.467
							C2264.359,3239.009,2176.773,3288.104,2080.46,3288.104z"/>
					</g>
				</g>
				<g>
					<g>
						<path style="fill:#F7B1A4;" d="M2636.045,2782.449c-0.362,4.201-0.76,8.401-1.158,12.566
							c-78.146,36.394-186.241,64.965-306.104,80.826l-20.641,2.752l-11.986-17.02c-37.698-53.486-93.573-90.531-156.004-105.052
							c0.036-3.694,0.073-7.387,0.145-11.081c65.943,14.702,125.042,53.522,164.731,109.869l8.22,11.66l14.123-1.883
							C2449.189,2848.972,2558.514,2819.676,2636.045,2782.449z"/>
					</g>
					<g>
						<path style="fill:#FFF3E9;" d="M2080.472,2738.777c20.315,0,40.377,2.281,59.823,6.663c-0.073,3.694-0.109,7.387-0.145,11.081
							c-19.374-4.527-39.399-6.881-59.678-6.881V2738.777z"/>
					</g>
					<g>
						<path style="fill:#FFE3D4;" d="M2674.648,2776.981c-9.089,2.209-18.722,6.482-28.68,12.711l-0.47,0.253
							c-3.476,1.702-7.025,3.404-10.61,5.07c0.398-4.165,0.797-8.365,1.158-12.566c1.485-0.688,2.97-1.412,4.418-2.137
							c10.864-6.735,21.475-11.407,31.614-13.869L2674.648,2776.981z"/>
					</g>
				</g>
				<g>
					<g>
						<path style="fill:#F7B1A4;" d="M2607.727,3060.598c-0.471,4.237-0.978,8.401-1.449,12.602v0.036
							c-69.854,31.867-166.867,57.505-274.708,72.533l-11.008,1.521l-5.794,9.488c-39.544,64.531-101.974,108.638-173.566,124.644
							c0.073-3.73,0.109-7.46,0.145-11.19c67.681-15.825,126.635-57.94,164.151-119.139l8.474-13.833l16.115-2.245
							C2439.954,3119.697,2538.235,3093.334,2607.727,3060.598z"/>
					</g>
					<g>
						<path style="fill:#FFF3E9;" d="M2080.472,3277.257c20.822,0,41.21-2.39,60.874-7.025c-0.036,3.73-0.073,7.46-0.145,11.19
							c-19.664,4.418-39.979,6.699-60.729,6.699V3277.257z"/>
					</g>
					<g>
						<path style="fill:#FFF3E9;" d="M2648.611,3051.689c-9.994,6.229-20.677,11.805-31.722,16.549
							c-3.477,1.666-6.989,3.332-10.611,4.961c0.471-4.201,0.978-8.365,1.449-12.602c1.557-0.724,3.114-1.485,4.635-2.209
							c10.755-4.671,20.967-9.995,30.491-15.933L2648.611,3051.689z"/>
					</g>
				</g>
				<g>
					<path style="fill:#512717;" d="M2080.454,3660.6c-273.676,0-449.674-66.66-497.383-128.594l-0.584-0.813
						c-48.303-72.211-139.688-919.281-139.688-1294.809v-15.209l15.207,0.24c5.226,0.082,523.824,8.244,622.447,8.244
						c98.625,0,617.223-8.162,622.449-8.244l15.207-0.24v15.209c0,375.527-91.385,1222.597-139.688,1294.809l-0.584,0.813
						C2530.13,3593.94,2354.132,3660.6,2080.454,3660.6z M1607.124,3514.162c44.238,56.559,224.801,116.492,473.33,116.492
						c248.531,0,429.094-59.934,473.332-116.492c39.844-62.402,131.929-875.375,134.334-1262.57
						c-86.957,1.356-518.426,8.01-607.666,8.01c-89.24,0-520.707-6.654-607.664-8.01
						C1475.195,2638.787,1567.281,3451.76,1607.124,3514.162z"/>
				</g>
				<g>
					<path style="fill:#E5AD88;" d="M2080.455,2190.963c240.803,0,523.551-125.696,637.526-86.75
						c15.406,7.217,32.503,18.222,41.283,31.809c18.569,28.733,38.576,134.679,23.01,168.518
						c-38.734,84.205-302.52,176.865-701.82,176.865s-663.085-92.66-701.82-176.865c-15.566-33.839,4.442-139.785,23.01-168.518
						c8.78-13.586,25.877-24.591,41.283-31.809C1556.905,2065.267,1839.653,2190.963,2080.455,2190.963z"/>
				</g>
				<g>
					<path style="fill:#FF4848;" d="M2080.455,2190.963c240.803,0,523.551-125.696,637.526-86.75
						c15.406,7.217,32.503,18.222,41.283,31.809c18.569,28.733,38.576,134.679,23.01,168.518
						c-38.734,84.205-302.52,176.865-701.82,176.865s-663.085-92.66-701.82-176.865c-15.566-33.839,4.442-139.785,23.01-168.518
						c8.78-13.586,25.877-24.591,41.283-31.809C1556.905,2065.267,1839.653,2190.963,2080.455,2190.963z"/>
				</g>
				<g style="opacity:0.5;">
					<path style="fill:#FFFFFF;" d="M2066.058,2293.274c-86.331,19.519-178.093,25.639-265.257,19.736
						c-0.036,0.145-0.036,0.253-0.073,0.398c-5.939,31.107-57.976,47.257-116.242,36.14
						c-58.302-11.117-100.743-45.338-94.804-76.445c0.145-0.652,0.29-1.34,0.435-1.955
						c-74.525-26.87-134.566-65.436-168.859-114.142c51.748,42.333,117.365,71.52,186.35,91.69
						c61.525,17.961,125.73,28.716,185.264,35.198c59.787,6.518,114.794,8.655,157.633,9.379
						C1950.504,2293.274,2051.174,2292.985,2066.058,2293.274z"/>
				</g>
				<g>
					<path style="fill:#E23737;" d="M2080.455,2445.193c-422.063,0-643.933-101.466-668.921-155.785
						c183.652,126.494,617.418,140.979,706.565,96.933c40.449-19.985,74.865-55.84-3.444-161.21
						c-75.406-101.463,263.076-248.444,376.007-274.56c85.647-19.807,117.007,182.37,172.846,182.37
						c16.656,0,30.423,1.666,40.972,4.958c13.838,6.747,21.752,13.728,24.366,17.774c4.459,6.899,13.24,32.393,18.821,67.492
						c6.638,41.775,3.363,62.361,1.69,66.279C2724.387,2343.731,2502.522,2445.193,2080.455,2445.193z"/>
				</g>
				<g>
					<path style="fill:#512717;" d="M2080.454,2496.375c-235.125,0-396.322-31.217-490.146-57.406
						c-123.049-34.346-203.051-79.865-225.273-128.174c-18.018-39.168,2.613-149.748,24.037-182.898
						c11.48-17.761,32.17-30.055,47.506-37.24l1.51-0.609c63.311-21.629,169.854,3.01,293.225,31.541
						c110.264,25.502,235.24,54.404,349.143,54.404c113.9,0,238.879-28.902,349.143-54.404
						c123.377-28.531,229.926-53.174,293.225-31.541l1.512,0.609c15.336,7.185,36.025,19.479,47.506,37.238
						c21.424,33.153,42.055,143.733,24.037,182.903c-22.221,48.306-102.227,93.826-225.273,128.172
						C2476.779,2465.158,2315.581,2496.375,2080.454,2496.375z M1448.533,2118.123c-16.059,7.633-28.541,17.094-34.314,26.025
						c-16.156,25.002-35.16,125.484-21.981,154.135c17.947,39.02,95.002,80.83,206.121,111.846
						c92.022,25.686,250.359,56.305,482.096,56.305c231.738,0,390.076-30.619,482.098-56.305
						c111.119-31.016,188.174-72.826,206.121-111.846c13.18-28.65-5.824-129.133-21.982-154.137
						c-5.772-8.93-18.254-18.39-34.313-26.023c-55.391-18.389-157.676,5.266-276.035,32.638
						c-111.824,25.859-238.57,55.172-355.889,55.172c-117.318,0-244.064-29.313-355.891-55.174
						C1606.208,2123.389,1503.925,2099.727,1448.533,2118.123z"/>
				</g>
				<g>
					<path style="fill:#FF4848;" d="M2080.455,1999.661c240.803,0,467.852-124.128,581.826-85.182
						c33.272,36.724,55.699,138.638,55.699,189.735c-11.28,63.617-238.226,150.696-637.526,150.696s-626.246-87.079-637.526-150.696
						c0-51.097,22.427-153.011,55.699-189.735C1612.604,1875.532,1839.653,1999.661,2080.455,1999.661z"/>
				</g>
				<g style="opacity:0.5;">
					<path style="fill:#FFFFFF;" d="M2060.336,2056.771c-41.572,19.011-154.338,22.995-268.48,11.878
						c-4.925,17.744-43.093,25.856-86.801,18.143c-42.984-7.569-75.721-27.775-75.358-45.881
						c-74.67-19.881-130.112-48.525-135.833-86.005C1566.94,2038.311,1892.174,2061.623,2060.336,2056.771z"/>
				</g>
				<g>
					<path style="fill:#E23737;" d="M2080.455,2218.698c-219.155,0-363.607-26.052-446.196-47.911
						c-110.959-29.363-148.685-60.812-155.038-71.827c107.637,78.996,468.857,95.744,550.668,76.256
						c0,0-38.808-106.242,50.567-139.343c122.2,0,238.144-30.022,340.44-56.511c75.084-19.443,139.931-36.234,189.027-36.234
						c11.677,0,22.095,0.999,31.106,2.978c20.861,31.562,39.321,106.293,40.661,152.855c-6.351,11.016-44.081,42.465-155.039,71.827
						C2444.062,2192.646,2299.608,2218.698,2080.455,2218.698z"/>
				</g>
				<g>
					<path style="fill:#512717;" d="M2080.454,2269.881c-390.188,0-638.053-82.904-652.266-163.055l-0.231-1.297v-1.316
						c0-54.648,23.207-159.644,59.574-199.785l2.596-2.865l3.658-1.25c62.574-21.381,153.623,2.199,259.057,29.498
						c99.336,25.725,211.928,54.879,327.611,54.879s228.273-29.154,327.612-54.879c105.433-27.299,196.492-50.887,259.058-29.498
						l3.658,1.25l2.596,2.865c36.367,40.141,59.574,145.137,59.574,199.785v1.316l-0.23,1.297
						C2718.509,2186.977,2470.644,2269.881,2080.454,2269.881z M1457.906,2102.736c11.844,49.854,227.227,137.203,622.549,137.203
						s610.707-87.35,622.551-137.203c-0.414-48.365-20.857-140.027-49.334-175.297c-54.297-16.238-139.641,5.863-238.1,31.357
						c-101.068,26.172-215.621,55.834-335.117,55.834s-234.049-29.662-335.117-55.834c-98.461-25.496-183.803-47.588-238.098-31.357
						C1478.763,1962.709,1458.32,2054.373,1457.906,2102.736z"/>
				</g>
				<g>
					<ellipse style="fill:#C97043;" cx="2080.455" cy="1937.5" rx="592.858" ry="119.339"/>
				</g>
				<g>
					<ellipse style="fill:#FF4848;" cx="2080.455" cy="1937.5" rx="592.858" ry="119.339"/>
				</g>
				<g>
					<path style="fill:#512717;" d="M1703.642,2029.638c-63.642-3.423-148.583-14.019-202.735-48.708
						c-22.246-14.091-38.143-40.479-21.967-66.559c45.071-69.024,248.169-88.51,328.352-97.863
						c199.121-19.345,399.657-18.321,598.394,5.651c49.686,6.475,99.252,14.715,148.418,27.158
						c24.565,6.357,49.034,13.69,73.153,24.161c18.705,8.504,38.58,18.584,52.34,35.94
						c80.245,123.82-351.712,155.048-421.012,158.297c-99.758,5.042-199.825,6.518-299.374-2.44
						c-49.722-4.306-99.307-10.892-148.169-21.441c49.972-0.476,99.542-0.201,149.08-0.402
						c196.392-1.537,396.198-3.297,587.818-49.933c26.99-7.249,104.149-29.097,108.806-56.36
						c-6.413-28.088-83.649-49.676-110.654-57.113c-143.124-35.73-292.357-44.503-439.783-46.773
						c-147.771-0.465-296.828,5.815-441.706,35.438c-34.439,7.559-156.721,34.77-161.693,69.885
						C1513.818,1980.247,1660.72,2015.587,1703.642,2029.638L1703.642,2029.638z"/>
				</g>
				<g>
					<ellipse style="fill:#FF4848;" cx="2080.455" cy="1930.281" rx="485.27" ry="79.86"/>
				</g>
				<g>
					<path style="fill:#E23737;" d="M2565.719,1930.28c0,10.755-12.964,21.039-36.43,30.382
						c-25.639-37.045-216.805-65.834-448.818-65.834c-232.122,0-423.289,28.789-448.818,65.871
						c-23.502-9.379-36.466-19.627-36.466-30.419c0-44.107,217.275-79.849,485.284-79.849S2565.719,1886.173,2565.719,1930.28z"/>
				</g>
				<g>
					<path style="fill:#512717;" d="M2080.47,1906.056c-102.653-2.448-205.856-0.814-307.938,11.614
						c-33.998,4.335-67.978,9.788-100.886,19.83c32.328-11.826,66.167-19.175,100.03-25.378
						c101.921-18.078,205.376-25.353,308.794-28.522C2080.47,1883.6,2080.47,1906.056,2080.47,1906.056L2080.47,1906.056z"/>
				</g>
				<g>
					<path style="fill:#512717;" d="M2080.454,2025.111c-130.408,0-253.135-8.377-345.568-23.588
						c-138.639-22.816-154.672-51.586-154.672-71.242s16.033-48.426,154.672-71.242c92.434-15.211,215.16-23.588,345.568-23.588
						c130.41,0,253.135,8.377,345.568,23.588c138.639,22.816,154.672,51.586,154.672,71.242s-16.033,48.426-154.672,71.242
						C2333.589,2016.734,2210.865,2025.111,2080.454,2025.111z M1610.277,1930.281c1.613,2.77,17.887,24.17,137.227,42.945
						c89.949,14.15,208.193,21.943,332.951,21.943c124.76,0,243.004-7.793,332.951-21.943
						c119.34-18.775,135.613-40.176,137.227-42.945c-1.613-2.77-17.887-24.17-137.227-42.945
						c-89.947-14.15-208.191-21.943-332.951-21.943c-124.758,0-243.002,7.793-332.951,21.943
						C1628.163,1906.111,1611.89,1927.512,1610.277,1930.281z"/>
				</g>
				<g>
					<path style="fill:#512717;" d="M1421.273,2157.002c36.79,27.981,79.613,46.406,122.414,62.828
						c31.008,11.218,66.748,22.051,98.794,29.739c11.038,3.128,22.341,5.255,33.575,7.636c9.67,1.996,24.09,5.478,33.758,6.91
						c44.789,8.075,91.641,14.99,136.851,19.314c33.359,4.14,70.466,6.131,103.849,9.831c-23.185,1.584-46.444,2.311-69.745,3.098
						c-116.381-0.295-235.043-16.429-342.54-63.043C1496.066,2214.168,1453.192,2191.141,1421.273,2157.002L1421.273,2157.002z"/>
				</g>
			</g>
			<g>
				<g>
					<path style="fill:#FF4848;" d="M1882.495,2991.909c-0.072-10.586-1.052-27.099,2.222-43.438
						c5.349-26.696,15.605-50.739,37.928-67.786c18.936-14.461,40.742-21.837,64.351-23.98c21.498-1.951,42.274,0.638,61.526,11.048
						c10.539,5.699,19.87,13.228,29.358,20.493c11.547,8.841,22.467,18.588,35.458,25.386c15.231,7.97,31.91,11.585,48.393,15.788
						c21.397,5.455,42.806,10.914,62.8,20.637c23.433,11.395,41.184,28.023,49.219,53.587c2.533,8.058,3.693,16.306,3.936,24.73
						c0.464,16.076,1.035,32.142,0.196,48.232c-1.355,25.996-13.739,46.228-32.902,62.727
						c-22.452,19.33-48.813,31.454-76.927,39.871c-33.827,10.128-68.368,15.436-103.744,12.475
						c-55.562-4.651-103.998-25.127-142.581-66.286c-23.366-24.925-34.927-55.093-37.798-88.864
						C1882.833,3023.638,1882.401,3010.731,1882.495,2991.909z"/>
				</g>
				<g>
					<path style="fill:#E23737;" d="M2277.885,3076.604c-1.376,26-13.725,46.243-32.917,62.72
						c-22.452,19.337-48.814,31.469-76.915,39.87c-8.619,2.571-17.31,4.853-26.001,6.736c0.543-62.829,0.543-129.279-0.797-198.445
						c-0.398-20.895-0.76-42.151-1.014-63.625c7.098,2.028,14.304,3.766,21.474,5.577c21.402,5.432,42.84,10.9,62.829,20.605
						c23.43,11.407,41.174,28.029,49.213,53.594c2.535,8.076,3.694,16.332,3.947,24.733
						C2278.138,3044.447,2278.717,3060.525,2277.885,3076.604z"/>
				</g>
				<g>
					<path style="fill:#FFF8EE;" d="M2076.43,3138.718c-47.476-0.808-95.05-16.864-135.182-52.339
						c-27.696-24.482-42.372-55.939-46.56-92.389c-2.165-18.843-1.605-37.64,3.604-56.029c10.704-37.787,35.859-59.898,73.976-67.94
						c25.83-5.449,50.835-4.398,74.233,9.188c11.194,6.5,21.399,14.467,31.323,22.727c17.805,14.819,36.94,27.126,59.648,33.019
						c12.089,3.137,24.178,6.275,36.302,9.274c19.924,4.927,39.449,10.855,56.714,22.443c17.251,11.579,29.986,26.588,34.585,47.358
						c6.356,28.703-3.12,52.176-24.381,71.476c-18.307,16.618-40.089,27.173-63.05,35.594
						C2146.794,3132.411,2114.972,3138.413,2076.43,3138.718z"/>
				</g>
				<g>
					<path style="fill:#F7B1A4;" d="M2240.694,3085.512c-18.323,16.622-40.087,27.16-63.046,35.597
						c-11.552,4.237-23.212,7.713-35.307,10.429c0.145-46.388-0.145-94.515-1.087-144.053c-0.326-17.056-0.615-34.33-0.833-51.784
						c11.081,2.897,22.198,5.794,33.352,8.51c19.917,4.961,39.436,10.864,56.709,22.452c17.273,11.588,29.984,26.58,34.583,47.366
						C2271.439,3042.745,2261.951,3066.211,2240.694,3085.512z"/>
				</g>
				<g>
					<path style="fill:#FFF8EE;" d="M2266.771,3070.475c-0.957,26.91-11.931,47.403-31.501,63.615
						c-18.728,15.513-40.456,25.102-63.371,32.368c-32.848,10.417-66.336,16.754-100.966,14.637
						c-48.864-2.988-93.043-18.171-129.683-51.715c-24.596-22.518-40.052-50.268-45.53-83.347c-0.178-1.073-0.225-2.168-0.361-3.532
						c1.334,0.843,1.517,2.059,1.995,3.08c15.506,33.106,40.612,57.042,72.158,74.479c44.54,24.621,92.207,33.706,142.751,27.352
						c34.836-4.38,68.408-13.174,99.85-29.133c17.046-8.652,32.339-19.708,44.974-34.212
						C2260.49,3080.16,2263.498,3075.961,2266.771,3070.475z"/>
				</g>
				<g>
					<path style="fill:#F7B1A4;" d="M2266.767,3070.484c-0.942,26.906-11.914,47.402-31.505,63.589
						c-18.722,15.535-40.449,25.132-63.372,32.374c-9.85,3.114-19.772,5.903-29.767,8.148c0.109-10.61,0.145-21.365,0.181-32.193
						c24.154-5.106,47.511-12.783,69.818-24.117c17.02-8.655,32.338-19.7,44.976-34.221
						C2260.503,3080.153,2263.508,3075.952,2266.767,3070.484z"/>
				</g>
				<g>
					<path style="fill:#FF4848;" d="M2073.529,3122.507c-39.038-1.166-81.842-14.688-118.438-45.286
						c-27.846-23.282-42.211-53.447-44.963-89.464c-1.314-17.19-0.039-34.056,5.275-50.495c7.353-22.746,22.059-38.577,44.708-46.69
						c23.13-8.285,46.421-11.094,69.99-1.663c6.703,2.683,12.546,6.76,18.199,11.149c7.597,5.897,15.315,11.647,22.753,17.739
						c20.454,16.752,43.7,27.563,69.287,33.924c19.961,4.962,39.953,9.932,59.251,17.221c9.399,3.549,18.358,7.914,26.73,13.552
						c26.311,17.719,34.274,57.75,9.859,84.55c-11.591,12.723-25.679,21.793-40.996,29.218
						C2162.781,3111.971,2117.002,3122.567,2073.529,3122.507z"/>
				</g>
				<g>
					<path style="fill:#E23737;" d="M2236.168,3067.043c-11.588,12.711-25.675,21.8-40.993,29.224
						c-15.209,7.351-33.352,13.616-52.798,18.143c0.036-41.065-0.29-83.47-1.123-126.925c-0.217-11.805-0.434-23.683-0.615-35.706
						c19.845,4.925,39.761,9.923,58.954,17.165c9.415,3.549,18.36,7.93,26.725,13.543
						C2252.644,3000.231,2260.611,3040.246,2236.168,3067.043z"/>
				</g>
				<g>
					<path style="fill:#FDFDFD;" d="M1989.637,2941.644c11.045,0.117,20.357,2.839,28.329,9.379
						c13.898,11.4,14.342,29.383,1.081,41.533c-15.507,14.208-43.447,13.572-58.287-1.329
						c-11.067-11.112-11.144-26.731-0.116-37.828C1968.858,2945.135,1979.102,2941.929,1989.637,2941.644z"/>
				</g>
				<g>
					<path style="fill:#FF4848;" d="M1990.289,2989.85c-7.807-0.101-14.924-2.153-20.562-7.827
						c-5.944-5.982-5.824-13.723,0.103-19.705c10.133-10.226,31.14-10.321,41.356-0.186c6.267,6.218,6.213,14.144-0.138,20.306
						C2006.069,2987.27,1998.718,2989.888,1990.289,2989.85z"/>
				</g>
			</g>
		</g>
		<g>
			<g>
				<g>
					<path style="fill:#FD9D24;" d="M1613.879,1742.099c99.39-70.529,241.096,179.34,241.096,179.34s-117.273,79.846-109.905,164.68
						c10.691,121.921,202.907,144.41,163.609,299.734c-41.54,147.215-417.429,62.831-484.661-204.551
						C1395.543,2068.056,1424.003,1876.838,1613.879,1742.099z"/>
				</g>
				<g>
					<path style="fill:#FFF3E9;" d="M1908.677,2385.871c-26.012,92.109-182.946,93.531-313.232,16.131
						c-19.2-98.809,70.364-243.579,167.863-262.741C1812.75,2219.056,1941.501,2256.109,1908.677,2385.871z"/>
				</g>
				<g>
					<path style="fill:#FC7D27;" d="M1745.088,2086.121c-107-81.5-131.64-214.056-279.672-180.495
						c31.377-57.691,79.168-114.382,148.451-163.54c99.408-70.513,241.109,179.353,241.109,179.353
						S1737.715,2001.272,1745.088,2086.121z"/>
				</g>
				<g>
					<path style="fill:#512717;" d="M1482.627,2302.51c78.422-119.796,171.367-201.513,171.367-201.513
						s-160.131,49.904-218.161,117.702"/>
				</g>
				<g>
					<path style="fill:#512717;" d="M1415.742,2071.345c115.989-48.621,247.7-69.815,247.7-69.815s-135.766-40.832-229.349-22.857"
						/>
				</g>
				<g>
					<path style="fill:#512717;" d="M1492.794,1861.671c118.984,25.083,245.681,81.457,245.681,81.457
						s-103.195-122.214-189.365-147.239"/>
				</g>
			</g>
			<g>
				<g>
					<path style="fill:#512717;" d="M1782.033,2472.653c-1.354,0-2.707-0.01-4.076-0.029c-71.02-1.02-150.076-28.334-216.895-74.944
						c-54.256-37.846-124.594-105.473-151.563-212.727c-16.787-66.766-11.894-146.986,13.422-220.092
						c31.723-91.604,94.758-172.855,182.293-234.971l8.664,12.209l-8.664-12.209c19.904-14.123,42.451-18.502,66.998-13.053
						c94.967,21.125,191.715,190.035,195.787,197.217c3.844,6.779,1.844,15.373-4.598,19.76
						c-1.094,0.746-109.934,75.965-103.416,151.01c4.125,47.043,39.994,78.514,77.969,111.832
						c51.414,45.107,109.688,96.234,85.238,192.869c-0.033,0.131-0.068,0.264-0.106,0.395
						C1908.214,2442.631,1856.906,2472.65,1782.033,2472.653z M1652.38,1744.529c-10.775,0-20.623,3.24-29.838,9.779
						c-82.416,58.484-141.66,134.68-171.328,220.352c-23.459,67.742-28.08,141.73-12.676,202.992
						c40.553,161.273,207.98,263.141,339.848,265.031c62.424,0.928,104.576-21.227,115.83-60.705
						c19.828-78.732-24.586-117.701-76.008-162.816c-40.744-35.746-82.875-72.711-88.051-131.736
						c-6.664-76.711,74.248-146.455,104.986-170.019c-23.012-37.609-100.236-155.963-169.445-171.342
						C1661.099,1745.041,1656.667,1744.529,1652.38,1744.529z"/>
				</g>
			</g>
		</g>
		<g>
			<polygon style="fill:#512717;" points="1801.017,2340.317 1915.412,2363.208 1905.818,2391.572 1801.017,2340.317 			"/>
		</g>
		<g>
			<path style="fill:#512717;" d="M1743.689,2417.667c33.849,7.981,69.263,9.651,103.368,3.441
				c10.618-1.972,21.432-4.457,31.354-8.477c0,0,8.499,28.71,8.499,28.71C1838.22,2448.615,1787.811,2438.374,1743.689,2417.667
				L1743.689,2417.667z"/>
		</g>
		<g>
			<g>
				<path style="fill:#FFAD40;" d="M2387.833,1993.911c71.598,95.858,22.474,193.265,28.2,292.516
					c1.915,66.053,32.481,143.092,127.255,138.426c123.394-10.677,217.434-276.977,116.367-487.507L2387.833,1993.911z"/>
			</g>
			<g>
				<path style="fill:#FFAD40;" d="M2387.833,1993.911c71.598,95.858,22.474,193.265,28.2,292.516
					c1.915,66.053,32.481,143.092,127.255,138.426c123.394-10.677,217.434-276.977,116.367-487.507L2387.833,1993.911z"/>
			</g>
			<g>
				<path style="fill:#FFAD40;" d="M2387.833,1993.911c71.598,95.858,22.474,193.265,28.2,292.516
					c1.915,66.053,32.481,143.092,127.255,138.426c123.394-10.677,217.434-276.977,116.367-487.507L2387.833,1993.911z"/>
			</g>
			<g>
				<path style="fill:#FD9D24;" d="M2697.126,2201.914c-18.078,120.816-80.806,216.631-153.828,222.956
					c-94.767,4.641-125.345-72.385-127.254-138.445c-2.395-41.469,4.791-82.565,8.721-123.398
					c5.502-56.927,4.753-113.293-36.941-169.098l271.837-56.591C2700.907,2023.309,2709.665,2118.563,2697.126,2201.914z"/>
			</g>
			<g>
				<path style="fill:#FC7D27;" d="M2492.816,2347.815c32.487,51.276,104.311,29.306,146.941,10.031
					c-26.91,38.962-60.408,63.889-96.451,66.996c-94.804,4.678-125.345-72.348-127.291-138.407
					c-5.727-99.258,43.416-196.682-28.183-292.534l271.837-56.553c19.836,41.32,32.15,84.773,38.176,128.04
					c-37.864,64.089-134.552,56.291-193.5,112.433C2465.564,2214.752,2453.785,2286.186,2492.816,2347.815z"/>
			</g>
			<g>
				<path style="fill:#F9D3B7;" d="M2639.75,2357.838c-26.91,38.962-60.408,63.889-96.451,66.995
					c-94.804,4.678-125.345-72.347-127.291-138.407c-2.395-41.469,4.791-82.602,8.721-123.398
					c33.984-6.887,76.502-12.201,118.383-12.126c-13.923,7.148-27.097,15.794-38.775,26.91
					c-38.775,36.941-50.565,108.39-11.528,169.996C2525.296,2399.083,2597.12,2377.112,2639.75,2357.838z"/>
			</g>
			<g>
				<path style="fill:#FFF3E9;" d="M2697.126,2201.914c-18.078,120.816-80.806,216.631-153.828,222.956
					c-94.767,4.641-125.345-72.385-127.254-138.445c-2.395-41.469,4.791-82.565,8.721-123.398
					C2510.325,2145.698,2649.93,2138.25,2697.126,2201.914z"/>
			</g>
			<g>
				<path style="fill:#F9D3B7;" d="M2639.75,2357.838c-26.91,38.962-60.408,63.889-96.451,66.995
					c-94.804,4.678-125.345-72.347-127.291-138.407c-2.395-41.469,4.791-82.602,8.721-123.398
					c33.984-6.887,76.502-12.201,118.383-12.126c-13.923,7.148-27.097,15.794-38.775,26.91
					c-38.775,36.941-50.565,108.39-11.528,169.996C2525.296,2399.083,2597.12,2377.112,2639.75,2357.838z"/>
			</g>
			<g>
				<path style="fill:#512717;" d="M2535.126,2440.029c-35,0-64.166-10.582-86.809-31.519
					c-38.996-36.061-46.347-91.465-47.244-121.432c-1.84-32.347,1.875-64.305,5.469-95.209c7.652-65.811,14.879-127.971-30.703-189
					c-4.949-6.625-3.59-16.006,3.035-20.953c6.631-4.945,16.01-3.586,20.953,3.035c52.713,70.574,44.447,141.644,36.457,210.377
					c-3.455,29.701-7.025,60.414-5.307,90.238c0.01,0.143,0.016,0.285,0.02,0.428c0.732,25.219,6.596,71.816,37.65,100.533
					c18.346,16.965,43.096,24.828,73.621,23.387c35.129-3.168,69.514-31.279,96.848-79.191
					c50.422-88.375,74.131-247.145,7.043-386.899c-3.578-7.453-0.438-16.396,7.018-19.975c7.447-3.584,16.396-0.439,19.975,7.018
					c71.758,149.478,46.141,319.748-8.027,414.693c-32.424,56.83-75.234,90.289-120.545,94.209
					c-0.186,0.016-0.369,0.028-0.555,0.037C2541.021,2439.955,2538.05,2440.028,2535.126,2440.029z"/>
			</g>
			<g>
				<path style="fill:#512717;" d="M2701.967,2119.087c-71.842-53.891-204.729-38.175-204.729-38.175s114.279-62.256,194.604-49.301
					"/>
			</g>
			<g>
				<path style="fill:#512717;" d="M2524.617,2302.265c-4.608,19.479-10.283,38.658-17.387,57.475
					c-7.819,20.02-15.849,38.728-30.638,55.764c0,0-19.868-22.401-19.868-22.401
					C2486.613,2370.9,2506.623,2334.635,2524.617,2302.265L2524.617,2302.265z"/>
			</g>
			<g>
				<path style="fill:#512717;" d="M2608.469,2313.308c-3.807,44.417-13.458,93.419-50.147,123.39
					c-0.001,0-15.624-25.543-15.624-25.543c16.827-7.537,30.248-23.727,40.187-39.905
					C2593.844,2353.349,2602.292,2333.54,2608.469,2313.308L2608.469,2313.308z"/>
			</g>
		</g>
		<g>
			<g>
				<path style="fill:#FD9D24;" d="M1462.833,2417.322c-82.971,19.806-201.163,76.836-223.948,208.815
					c-26.199,151.754,62.691,286.334,270.238,350.006c132.908,40.774,217.256,17.564,251.447-34.901
					c43.471-80.403,9.163-142.423-134.451-245.137c0,0-104.033-74.958-153.949-128.818L1462.833,2417.322z"/>
			</g>
			<g style="opacity:0.4;">
				<path style="fill:#FFFFFF;" d="M1771.287,2916.751c10.997-132.606-299.121-231.789-360.652-396.171l60.782,34.883l0.748,11.827
					c49.929,53.858,153.94,128.826,153.94,128.826c129.35,92.484,170.034,151.993,145.107,221.646
					C1771.212,2917.425,1771.259,2917.089,1771.287,2916.751z"/>
			</g>
			<g>
				<path style="fill:#FC7D27;" d="M1472.166,2567.29c0,0-82.079-101.129-190.394-40.871
					c47.795-63.178,123.025-95.253,181.075-109.102L1472.166,2567.29z"/>
			</g>
			<g>
				<path style="fill:#FC7D27;" d="M1771.287,2917.575c-2.77,7.748-6.363,15.607-10.704,23.654
					c-34.209,52.474-118.533,75.679-251.476,34.92c-207.536-63.664-296.427-198.254-270.227-350.023
					c0.786-4.529,1.684-8.983,2.695-13.324c4.154,72.198,37.727,195.634,202.184,282.241
					C1584.074,2968.963,1697.143,2950.249,1771.287,2917.575z"/>
			</g>
			<g>
				<path style="fill:#F9D3B7;" d="M1771.28,2917.567c-2.77,7.747-6.362,15.607-10.704,23.654
					c-34.209,52.474-118.533,75.679-251.476,34.92c-0.861-0.262-1.722-0.524-2.545-0.786c-4.641-15.121-8.496-34.583-10.293-56.329
					C1612.362,2963.94,1706.643,2946.049,1771.28,2917.567z"/>
			</g>
			<g>
				<path style="fill:#FFF3E9;" d="M1760.576,2941.258c-34.209,52.436-118.533,75.642-251.439,34.883
					c-0.861-0.262-1.722-0.524-2.583-0.823c-21.371-69.503-25.825-229.619,109.551-286.546c6.325,4.678,10.031,7.336,10.031,7.336
					C1769.746,2798.809,1804.029,2860.826,1760.576,2941.258z"/>
			</g>
			<g>
				<path style="fill:#F9D3B7;" d="M1771.28,2917.567c-2.77,7.747-6.362,15.607-10.704,23.654
					c-34.209,52.474-118.533,75.679-251.476,34.92c-0.861-0.262-1.722-0.524-2.545-0.786c-4.641-15.121-8.496-34.583-10.293-56.329
					C1612.362,2963.94,1706.643,2946.049,1771.28,2917.567z"/>
			</g>
			<g>
				<path style="fill:#512717;" d="M1632.156,3011.965c-37.592,0-80.479-7.108-127.422-21.51
					c-204.531-62.746-309.43-199.893-280.601-366.865c26.766-155.024,173.416-206.076,235.225-220.83
					c4.301-1.022,8.832-0.102,12.383,2.529c3.553,2.629,5.762,6.691,6.035,11.103l9.002,144.566
					c49.641,51.869,147.092,122.277,148.096,123c128.701,92.047,192.703,164.834,138.867,264.404
					c-0.195,0.36-0.404,0.711-0.627,1.053C1746.15,2990.789,1697.042,3011.965,1632.156,3011.965z M1449.025,2436.453
					c-62.295,18.043-173.838,67.412-195.389,192.23c-26.404,152.951,68.316,274.379,259.879,333.146
					c112.232,34.434,199.707,23.865,234.184-28.261c33.996-63.299,22.943-115.695-130.287-225.285
					c-4.34-3.127-105.867-76.488-156.221-130.82c-2.348-2.531-3.746-5.799-3.961-9.246L1449.025,2436.453z"/>
			</g>
			<g>
				<path style="fill:#512717;" d="M1410.635,2928.458c5.07-110.666,65.266-221.332,65.266-221.332s-90.314,55.247-159.129,161.978"
					/>
			</g>
			<g>
				<path style="fill:#512717;" d="M1251.787,2771.737c43.526-109.482,180.137-165.708,180.137-165.708s-91.366-9.74-194.728,31.012
					"/>
			</g>
			<g>
				<path style="fill:#512717;" d="M1468.603,2509.793c-49.254-6.026-130.436-11.715-179.915,7.935l0.112-0.112l83.089-66.097
					c35.481,3.031,69.616,18.751,95.179,33.909L1468.603,2509.793z"/>
			</g>
			<g>
				<polygon style="fill:#512717;" points="1410.643,2520.578 1481.222,2555.362 1463.118,2579.21 1410.643,2520.578 				"/>
			</g>
			<g>
				<polygon style="fill:#512717;" points="1643.103,2860.059 1780.139,2888.649 1770.924,2917.137 1643.103,2860.059 				"/>
			</g>
			<g>
				<path style="fill:#512717;" d="M1609.418,2946.143c44.616,2.278,90.399,1.871,133.92-8.627c1.793-0.505,5.974-1.585,7.454-2.24
					c0,0,7.011,29.11,7.011,29.11c-2.288,0.359-3.736,0.447-5.494,0.601C1704.03,2967.683,1655.861,2958.235,1609.418,2946.143
					L1609.418,2946.143z"/>
			</g>
		</g>
		<g>
			<g>
				<g>
					<path style="fill:#FD9D24;" d="M2830.485,1102.336c78.853,18.855,346.731-31.098,329.134-297.074
						c-8.162-123.366-105.444-208.257-203.798-219.302c-166.659-18.714-218.406,158.632-286.191,222.217"/>
				</g>
				<g>
					<path style="fill:#FD9D24;" d="M2669.628,808.188l160.866,294.152c59.345,14.207,225.833-10.589,297.027-137.188
						c23.347-41.572,36.442-94.115,32.104-159.881c-8.157-123.372-105.461-208.266-203.816-219.326
						c-99.447-11.178-157.987,47.481-203.446,110.139C2721.671,738.422,2696.946,782.554,2669.628,808.188z"/>
				</g>
				<g>
					<path style="fill:#FD9D24;" d="M2669.634,808.172l160.867,294.153c44.946,10.767,151.304-0.854,231.249-62.101
						c25.588-19.62,48.483-44.372,65.778-75.087c23.347-41.573,36.441-94.116,32.104-159.882
						c-8.157-123.371-105.462-208.265-203.816-219.325c-99.446-11.178-157.987,47.481-203.447,110.139
						c-29.8,41.131-53.969,83.924-80.364,109.825C2671.219,806.69,2670.406,807.445,2669.634,808.172z"/>
				</g>
				<g>
					<path style="fill:#FC7D27;" d="M2669.634,808.172l160.867,294.153c37.854,9.068,119.268,2.256,191.777-36.708
						c13.585-7.3,14.609-69.946-35.619-82.597c-77.604-19.546-52.418-237.923-89.82-257.817
						c-87.673-46.657-83.155,105.034-218.094,81.542c-2.333-0.406-4.58-0.69-6.74-0.851
						C2671.219,806.69,2670.406,807.445,2669.634,808.172z"/>
				</g>
				<g>
					<path style="fill:#512717;" d="M2752.363,696.083c75.937-16.181,106.12,46.989,116.083,67.498
						c9.963,20.509,55.286,138.531,134.275,135.497c56.236-2.16,116.301-0.831,124.799,66.073
						c23.347-41.572,36.442-94.115,32.104-159.881c-8.157-123.372-105.461-208.266-203.816-219.326
						C2856.363,574.766,2797.823,633.425,2752.363,696.083z"/>
				</g>
				<g>
					<path style="fill:#512717;" d="M2867.445,1120.965c-15.697,0-29.469-1.445-40.441-4.068l6.965-29.121
						c40.391,9.658,148.746-0.059,227.98-66.941c60.916-51.42,88.75-123.615,82.732-214.584
						c-7.969-120.42-104.113-195.709-190.529-205.412c-112.209-12.58-168.184,70.92-217.584,144.604
						c-19.016,28.365-36.977,55.158-56.695,73.654l-20.484-21.836c17.232-16.166,34.271-41.582,52.311-68.49
						c51.467-76.771,115.541-172.354,245.793-157.685c98.48,11.057,208.023,96.541,217.064,233.189
						c6.588,99.565-25.672,182.361-93.293,239.441C3014.468,1100.098,2927.083,1120.965,2867.445,1120.965z"/>
				</g>
				<g>
					<path style="fill:#FFF8EE;" d="M3009.457,979.303c129.047-142.748,15.731-294.275-85.169-263.406
						c-70.346,24.528-107.662,128.956-161.206,173.751c0,0-33.066,73.151,62.282,126.551
						C2920.712,1069.6,3009.457,979.303,3009.457,979.303z"/>
				</g>
				<g>
					<path style="fill:#FFF8EE;" d="M2825.369,1016.184c4.514,2.508,9.008,4.726,13.48,6.652
						c90.075,38.429,170.61-43.525,170.61-43.525c28.041-31.033,44.639-62.479,52.426-92.373
						c27.927-107.653-58.648-195.236-137.592-171.056c-70.359,24.526-107.664,128.968-161.206,173.751
						C2763.087,889.633,2730.004,962.806,2825.369,1016.184z"/>
				</g>
				<g>
					<path style="fill:#F9D3B7;" d="M2825.369,1016.184c4.514,2.508,9.008,4.726,13.48,6.652
						c8.089-30.595,19.342-75.852,21.109-97.753c4.94-61.963,45.215-182.428,140.95-144.987
						c41.652,16.293,56.1,67.675,60.977,106.842c27.927-107.653-58.648-195.236-137.592-171.056
						c-70.359,24.526-107.664,128.968-161.206,173.751C2763.087,889.633,2730.004,962.806,2825.369,1016.184z"/>
				</g>
				<g>
					<path style="fill:#512717;" d="M3009.457,979.303c25.438-42.226,45.887-88.471,42.858-137.323
						c-1.802-44.561-28.703-89.509-70.09-106.208c-46.645-18.781-81.711,8.513-111.35,44.753
						c-32.49,38.96-57.546,87.516-98.187,120.607c0,0-19.213-22.966-19.213-22.966c8.383-7.639,16.022-16.707,23.406-26.331
						c46.044-59.135,87.114-157.347,174.915-157.929c75.9,1.057,131.234,75.722,130.208,147.257
						C3082.279,896.117,3052.183,947.556,3009.457,979.303L3009.457,979.303z"/>
				</g>
			</g>
			<g>
				<g>
					<path style="fill:#FD9D24;" d="M1731.082,910.933c-80.586-8.903-315.821-146.447-209.372-390.827
						c49.373-113.349,169.621-160.369,265.921-137.525c163.178,38.71,151.946,223.109,194.255,305.861"/>
				</g>
				<g>
					<path style="fill:#FD9D24;" d="M1981.883,688.453l-250.81,222.48c-60.655-6.685-208.968-86.287-233.188-229.497
						c-7.924-47.016-2.491-100.893,23.817-161.324c49.371-113.356,169.64-160.371,265.946-137.542
						c97.373,23.087,132.646,98.079,154.255,172.414C1956.479,605.205,1964.836,655.095,1981.883,688.453z"/>
				</g>
				<g>
					<path style="fill:#FD9D24;" d="M1981.883,688.436l-250.811,222.481c-45.941-5.056-142.113-51.937-196.656-136.598
						c-17.452-27.113-30.634-58.147-36.532-92.899c-7.924-47.017-2.49-100.893,23.817-161.325
						c49.371-113.356,169.64-160.371,265.946-137.541c97.373,23.087,132.646,98.079,154.255,172.415
						c14.146,48.782,22.432,97.225,38.52,130.523C1980.892,686.506,1981.402,687.491,1981.883,688.436z"/>
				</g>
				<g>
					<path style="fill:#FC7D27;" d="M1981.883,688.436l-250.811,222.481c-38.691-4.258-113.013-38.184-168.088-99.359
						c-10.319-11.462,9.889-70.768,61.437-65.7c79.644,7.831,129.741-206.21,171.665-212.293
						c98.283-14.283,42.766,126.957,177.705,150.449c2.333,0.406,4.544,0.899,6.631,1.477
						C1980.892,686.506,1981.402,687.491,1981.883,688.436z"/>
				</g>
				<g>
					<path style="fill:#512717;" d="M1941.901,554.984c-66.001-40.892-115.756,8.361-132.064,24.296
						c-16.308,15.936-98.85,111.697-172.167,82.146c-52.197-21.038-109.178-40.086-139.786,20.009
						c-7.924-47.016-2.491-100.893,23.817-161.324c49.371-113.356,169.64-160.371,265.946-137.542
						C1885.02,405.658,1920.292,480.649,1941.901,554.984z"/>
				</g>
				<g>
					<path style="fill:#512717;" d="M1729.437,925.815c-53.816-5.947-159.229-59.26-214.568-154.809
						c-44.35-76.574-46.731-165.4-6.883-256.879c54.689-125.553,186.682-168.986,283.1-146.111
						c127.553,30.258,155.549,141.826,178.041,231.473c7.885,31.424,15.332,61.104,26.088,82.141l-26.66,13.629
						c-12.307-24.072-20.158-55.359-28.469-88.482c-21.59-86.043-46.061-183.568-155.91-209.627
						c-84.623-20.078-200.547,18.291-248.74,128.936c-36.406,83.58-34.607,160.935,5.344,229.916
						c51.967,89.725,150.658,135.49,191.947,140.053L1729.437,925.815z"/>
				</g>
				<g>
					<path style="fill:#FFF8EE;" d="M1604.22,734.655c-73.212-177.961,84.645-282.277,169.177-219.125
						c57.918,46.859,57.747,157.753,93.002,218.008c0,0,6.4,80.021-101.386,98.057S1604.22,734.655,1604.22,734.655z"/>
				</g>
				<g>
					<path style="fill:#FFF8EE;" d="M1765.012,831.579c-5.096,0.835-10.075,1.403-14.935,1.705
						c-97.762,5.727-145.863-98.622-145.863-98.622c-15.904-38.683-20.898-73.888-18.124-104.656
						c10.097-110.757,121.178-163.928,187.305-114.492c57.93,46.861,57.745,157.765,93.002,218.008
						C1866.398,733.522,1872.806,813.57,1765.012,831.579z"/>
				</g>
				<g>
					<path style="fill:#F9D3B7;" d="M1765.012,831.579c-5.096,0.835-10.075,1.403-14.935,1.705
						c2.726-31.529,7.431-77.926,13.169-99.136c16.291-59.987,19.097-186.975-83.658-184.09
						c-44.708,1.258-75.67,44.734-93.497,79.948c10.097-110.757,121.178-163.928,187.305-114.492
						c57.93,46.861,57.745,157.765,93.002,218.008C1866.398,733.522,1872.806,813.57,1765.012,831.579z"/>
				</g>
				<g>
					<path style="fill:#512717;" d="M1604.22,734.655c-29.482-44.323-40.423-102.899-21.596-154.531
						c23.208-67.664,100.525-119.255,172.314-94.586c82.456,30.242,87.883,136.488,111.253,207.747
						c3.696,11.554,7.821,22.671,13.13,32.693l-25.844,15.121c-27.061-44.867-34.242-99.053-51.651-146.693
						c-15.743-44.222-39.297-81.588-89.674-79.75c-44.599,1.738-85.095,34.936-101.859,76.272
						C1590.938,635.894,1594.553,686.298,1604.22,734.655L1604.22,734.655z"/>
				</g>
			</g>
			<g>
				<path style="fill:#FD9D24;" d="M2916.748,1790.562c4.953,33.883,43.158,139.208-20.865,251.386
					c-83.04-46.393-111.612-48.353-130.233-47.138c-60.261,35.964-175.425,75.303-286.715,88.501
					c-331.516,39.313-703.194-26.783-958.651-272.363c-17.077-7.43-49.396-13.018-143.229,2.581
					c-22.345-127.214,24.449-253.746,40.562-283.962c-55.798-29.674-118.595-103.741-128.48-169.178
					c157.709-39.67,199.068-197.534,239.675-280.961c150.36-359.878,445.587-497.108,814.826-433.018
					c369.174,64.466,600.653,293.395,620.583,682.919c10.024,92.242-4.439,254.789,130.622,345.429
					C3063.425,1733.004,2979.292,1781.491,2916.748,1790.562z"/>
			</g>
			<g>
				<path style="fill:#FD9D24;" d="M2916.748,1790.562c4.953,33.883,43.158,139.208-20.865,251.386
					c-83.04-46.393-111.612-48.353-130.233-47.138c-60.261,35.964-175.425,75.303-286.715,88.501
					c-331.516,39.313-703.194-26.783-958.651-272.363c-17.077-7.43-49.396-13.018-143.229,2.581
					c-22.345-127.214,24.449-253.746,40.562-283.962c-55.798-29.674-118.595-103.741-128.48-169.178
					c157.709-39.67,199.068-197.534,239.675-280.961c150.36-359.878,445.587-497.108,814.826-433.018
					c369.174,64.466,600.653,293.395,620.583,682.919c10.024,92.242-4.439,254.789,130.622,345.429
					C3063.425,1733.004,2979.292,1781.491,2916.748,1790.562z"/>
			</g>
			<g>
				<path style="fill:#FD9D24;" d="M2916.757,1790.547c4.953,33.895,43.136,139.24-20.884,251.387
					c-83.019-46.389-111.592-48.348-130.221-47.128c-60.25,35.965-175.427,75.294-286.724,88.49
					c-331.522,39.329-703.187-26.761-958.639-272.344c-17.078-7.43-49.383-13.011-143.232,2.587
					c-22.363-127.227,24.432-253.752,40.548-283.988c-55.777-29.645-118.577-103.719-128.483-169.144
					c157.722-39.698,199.083-197.568,239.706-280.994c11.052-26.503,22.917-51.785,35.522-75.848
					c158.683-303.135,437.201-416.501,779.295-357.138c342.02,59.732,565.906,260.627,612.775,599.654
					c3.733,26.872,6.321,54.632,7.8,83.241c10.017,92.26-4.436,254.787,130.628,345.421
					C3063.427,1732.995,2979.298,1781.491,2916.757,1790.547z"/>
			</g>
			<g>
				<path style="fill:#FFF8EE;" d="M2916.757,1790.547c4.953,33.895,43.136,139.24-20.884,251.387
					c-83.019-46.389-111.592-48.348-130.221-47.128c-60.25,35.965-175.427,75.294-286.724,88.49
					c-331.522,39.329-703.187-26.761-958.639-272.344c-17.078-7.43-49.383-13.011-143.232,2.587
					c-22.363-127.227,24.432-253.752,40.548-283.988c-55.777-29.645-118.577-103.719-128.483-169.144
					c157.722-39.698,199.083-197.568,239.706-280.994c11.052-26.503,22.917-51.785,35.522-75.848c0.037,0,0.037,0.037,0.037,0.037
					c-0.185,18.297-3.807,39.587-11.866,64.427c-77.364,237.451,32.343,512.531,210.506,526.282
					c157.315,12.161,299.882-133.696,434.76-110.224c134.916,23.509,219.82,208.953,372.035,250.684
					c172.322,47.276,368.56-174.54,376.026-424.189c0.776-26.059,4.546-47.239,10.571-64.501c3.733,26.872,6.321,54.632,7.8,83.241
					c10.017,92.26-4.436,254.787,130.628,345.421C3063.427,1732.995,2979.298,1781.491,2916.757,1790.547z"/>
			</g>
			<g>
				<path style="fill:#FFF8EE;" d="M2916.742,1790.552c3.606,24.464,24.465,86.071,11.787,160.579
					c-4.871,28.814-14.797,59.525-32.644,90.793c-83.023-46.363-111.614-48.334-130.241-47.107
					c-60.232,35.953-175.415,75.289-286.73,88.488c-331.494,39.336-703.18-26.77-958.641-272.342
					c-17.066-7.436-49.375-13.013-143.216,2.566c-4.573-26.1-6.247-52.163-5.875-77.371c1.412-97.708,33.611-182.589,46.437-206.608
					c-55.807-29.632-118.603-103.731-128.493-169.131c157.717-39.708,199.06-197.573,239.698-281.004
					c11.043-26.509,22.903-51.791,35.544-75.847c0.037,0,0.037,0.037,0.037,0.037c-0.186,18.292-3.83,39.596-11.897,64.433
					c-77.334,237.43,32.346,512.522,210.512,526.279c157.307,12.158,299.891-133.698,434.78-110.238
					c134.887,23.498,219.806,208.95,372.021,250.703c172.327,47.255,368.562-174.559,376.035-424.22
					c0.781-26.026,4.536-47.218,10.559-64.47c3.754,26.844,6.32,54.617,7.807,83.245c10.001,92.243-4.424,254.755,130.613,345.4
					C3063.416,1732.998,2979.315,1781.48,2916.742,1790.552z"/>
			</g>
			<g>
				<path style="fill:#F9D3B7;" d="M2928.528,1951.131c-4.871,28.814-14.797,59.525-32.644,90.793
					c-83.023-46.363-111.614-48.334-130.241-47.107c-60.232,35.953-175.415,75.289-286.73,88.488
					c-331.494,39.336-703.18-26.77-958.641-272.342c-17.066-7.436-49.375-13.013-143.216,2.566
					c-4.573-26.1-6.247-52.163-5.875-77.371c10.597,3.569,23.423,4.35,38.556-0.297c40.637-12.418,31.788-68.15,31.788-68.15
					c348.238,412.777,1131.491,392.543,1402.903,235.682C2865.657,1948.826,2903.171,1985.15,2928.528,1951.131z"/>
			</g>
			<g>
				<path style="fill:#512717;" d="M1752.112,1582.713c-14.287-7.791-121.324-59.263-146.756-123.577
					c-25.019-63.271-22.247-198.319-22.247-198.319s-48.298,113.286-30.76,201.1
					C1571.614,1558.375,1719.061,1582.612,1752.112,1582.713z"/>
			</g>
			<g>
				<path style="fill:#512717;" d="M1648.625,1640.889c-14.287-7.791-136.898-75.881-163.909-149.717
					c-27.559-75.334,4.552-243.737,33.638-337.396c-60.106,108.984-129.374,297.326-92.133,368.41
					C1470.8,1607.279,1615.574,1640.787,1648.625,1640.889z"/>
			</g>
			<g>
				<path style="fill:#512717;" d="M2582.634,1726.81c16.077-2.523,134.197-14.93,179.807-66.918
					c44.871-51.145,87.753-179.233,87.753-179.233s7.313,122.935-38.781,199.708
					C2760.781,1764.698,2613.787,1737.848,2582.634,1726.81z"/>
			</g>
			<g>
				<path style="fill:#512717;" d="M2660.475,1816.447c16.077-2.523,154.458-25.33,204.763-85.752
					c51.325-61.648,77.821-231.025,81.985-329.007c19.88,122.862,21.654,323.53-37.355,377.915
					C2839.229,1844.704,2691.628,1827.485,2660.475,1816.447z"/>
			</g>
			<g>
				<path style="fill:#512717;" d="M1871.519,877.087c15.375-33.414,107.267-137.384,165.32-74.755
					c20.464,22.077,6.763,71.154-27.752,73.789C1958.772,879.961,1949.592,871.867,1871.519,877.087z"/>
			</g>
			<g>
				<path style="fill:#512717;" d="M2710.086,1023.012c-3.183-36.644-54.549-165.544-130.346-126.209
					c-26.719,13.866-30.404,64.686,1.192,78.826C2626.992,996.24,2638.367,991.723,2710.086,1023.012z"/>
			</g>
			<g>
				<g>
					<path style="fill:#FFF8EE;" d="M2528.112,1681.436c112.466,14.376,205.149-38.17,246.039-122.139
						c74.858-153.724-13.602-392.386-167.825-402.149c-166.13-10.517-238.579,176.675-241.92,312.792
						C2362.759,1590.846,2428.678,1668.74,2528.112,1681.436z"/>
				</g>
			</g>
			<g>
				<g>
					<g>
						<g>
							
								<ellipse transform="matrix(0.1727 -0.985 0.985 0.1727 657.1748 3727.4336)" style="fill:#512717;" cx="2547.407" cy="1472.522" rx="191.728" ry="166.027"/>
						</g>
					</g>
					<g>
						<g>
							
								<ellipse transform="matrix(0.1727 -0.985 0.985 0.1727 657.5049 3656.3428)" style="fill:#FFFFFF;" cx="2505.26" cy="1436.779" rx="68.527" ry="54.131"/>
						</g>
					</g>
					<g style="opacity:0.2;">
						<g>
							
								<ellipse transform="matrix(0.1727 -0.985 0.985 0.1727 667.1452 3828.4775)" style="fill:#FFFFFF;" cx="2612.542" cy="1517.109" rx="46.376" ry="29.98"/>
						</g>
					</g>
				</g>
			</g>
			<g>
				<g>
					<path style="fill:#FFF8EE;" d="M1820.266,1558.202c-110.708-24.478-180.179-105.255-190.286-198.102
						c-18.503-169.978,145.409-364.703,293.858-321.771c159.91,46.246,164.834,246.908,121.978,376.145
						C2006.506,1528.824,1918.141,1579.857,1820.266,1558.202z"/>
				</g>
			</g>
			<g>
				<g>
					<g>
						<g>
							
								<ellipse transform="matrix(0.1704 -0.9854 0.9854 0.1704 218.3937 2969.5137)" style="fill:#512717;" cx="1872.709" cy="1355.059" rx="191.728" ry="166.027"/>
						</g>
					</g>
					<g>
						<g>
							
								<ellipse transform="matrix(0.1704 -0.9854 0.9854 0.1704 280.4364 3004.4119)" style="fill:#FFFFFF;" cx="1924.456" cy="1335.662" rx="68.527" ry="54.131"/>
						</g>
					</g>
					<g style="opacity:0.2;">
						<g>
							
								<ellipse transform="matrix(0.1704 -0.9854 0.9854 0.1704 135.3715 2910.8071)" style="fill:#FFFFFF;" cx="1796.339" cy="1375.01" rx="46.376" ry="29.98"/>
						</g>
					</g>
				</g>
			</g>
			<g>
				<path style="fill:#512717;" d="M1451.139,1695.373c15.878,29.837,34.806,57.671,57.133,82.664
					c7.289,8.201,15.132,15.715,23.07,22.801l-22.087,20.216C1481.975,1783.342,1463.544,1739.758,1451.139,1695.373
					L1451.139,1695.373z"/>
			</g>
			<g>
				<path style="fill:#512717;" d="M2829.128,1935.278c-17.498,24.103-34.619,48.139-53.884,71.026c0,0-19.187-22.987-19.187-22.987
					C2781.047,1968.648,2805.169,1951.747,2829.128,1935.278L2829.128,1935.278z"/>
			</g>
			<g>
				<path style="fill:#512717;" d="M2299.671,2109.028c-313.5,0.01-593.859-100.166-787.689-285.301
					c-14.383-5.475-44.695-10.023-132.471,4.57l-14.633,2.434l-2.568-14.611c-20.92-119.098,16.813-236.285,35.93-280.523
					c-54.123-34.166-113.758-105.799-123.906-172.971l-2.031-13.439l13.182-3.316c125.74-31.627,174.395-145.27,209.922-228.248
					c6.828-15.949,13.283-31.023,19.758-44.361c74.955-179.193,186.701-307.932,332.143-382.646
					c140.518-72.191,308.367-92.029,498.892-58.955c190.498,33.266,341.772,108.66,449.635,224.092
					c111.639,119.471,173.313,278.402,183.316,472.387c1.588,14.752,2.566,31.129,3.604,48.459
					c5.386,90.09,12.763,213.473,120.431,285.73l11.287,7.576l-6.453,11.963c-32.012,59.346-111.395,106.352-173.676,120.605
					c0.27,1.23,0.551,2.498,0.836,3.797c10.178,46.121,31.354,142.094-26.293,243.099l-7.353,12.885l-12.949-7.235
					c-77.787-43.457-105.217-45.945-118.479-45.459c-57.322,33.238-170.809,74.555-289.406,88.619
					C2419.431,2105.444,2358.935,2109.025,2299.671,2109.028z M1473.408,1788.557c27.42,0,42.195,4.027,52.85,8.662l2.465,1.072
					l1.938,1.863c223.936,215.277,568.932,313.062,946.512,268.289c116.51-13.816,227.234-54.518,280.807-86.488l3.098-1.85
					l3.598-0.234c20.838-1.354,49.408,0.793,125.168,41.676c43.192-86.035,25.707-165.289,16.1-208.828
					c-1.725-7.816-3.215-14.568-4.008-19.99l-2.168-14.83l14.834-2.152c53.004-7.688,126.554-47.514,160.193-96.838
					c-108.807-81.063-116.361-207.42-121.928-300.525c-1.023-17.123-1.992-33.297-3.527-47.438l-0.068-0.852
					c-19.006-371.461-229.32-602.775-608.207-668.938c-378.945-65.785-655.049,80.855-798.435,424.043l-0.354,0.781
					c-6.221,12.779-12.594,27.666-19.342,43.426c-36.715,85.754-86.541,202.133-216.326,241.664
					c14.992,57.791,70.756,120.131,118.041,145.277l13.233,7.037l-7.051,13.225c-13.32,24.984-57.486,139.357-41.283,259.764
					C1426.494,1790.717,1453.339,1788.557,1473.408,1788.557z"/>
			</g>
			<g>
				<path style="fill:none;stroke:#512717;stroke-width:29.9421;stroke-linejoin:round;stroke-miterlimit:10;" d="M2343.715,646.414
					"/>
			</g>
			<g>
				<path style="fill:#512717;" d="M2523.369,971.185c-63.59-46.072-183.172-42.701-241.214,27.776l-0.011-0.155l-0.026,0.149
					c-30.81-85.946-142.217-129.531-217.635-107.661c94.71-87.095,218.057-26.441,236.037,2.182
					C2327.077,872.607,2463.666,857.207,2523.369,971.185z"/>
			</g>
			<g>
				<path style="fill:#512717;" d="M2277.11,1024.685l-0.032,0.186c-0.031-0.044-0.024-0.081-0.018-0.118
					C2277.066,1024.716,2277.066,1024.716,2277.11,1024.685z"/>
			</g>
			<g>
				<path style="fill:#512717;" d="M2277.06,1024.753c-0.044,0.031-0.05,0.068-0.094,0.099l0.032-0.186
					C2277.029,1024.71,2277.029,1024.71,2277.06,1024.753z"/>
			</g>
			<g>
				<path style="fill:#512717;" d="M2697.7,847.391c-127.851-84.574-308.66-116.414-387.323-10.59
					c-38.383-126.132-219.365-157.099-368.24-120.502c159.454-110.433,361.732-43.999,389.119,0.199
					C2371.932,684.109,2584.766,689.699,2697.7,847.391z"/>
			</g>
			<g>
				<g>
					<g>
						<path style="fill:#512717;" d="M2274.268,1539.855c-23.494,41.465-95.506,54.609-95.506,54.609s-63.332-36.707-71.431-83.672
							c-5.764-33.595,74.752-24.894,89.874-22.261C2212.327,1491.164,2291.048,1510.185,2274.268,1539.855z"/>
					</g>
					<g>
						<path style="fill:#512717;" d="M2171.696,1635.075l-0.059,0.339c0.012-0.068-0.016-0.107-0.004-0.175
							C2171.645,1635.171,2171.685,1635.143,2171.696,1635.075z"/>
					</g>
					<g>
						<path style="fill:#512717;" d="M2171.633,1635.238c-0.006,0.034-0.052,0.096-0.057,0.13l0.047-0.271
							C2171.617,1635.131,2171.639,1635.205,2171.633,1635.238z"/>
					</g>
					<g style="opacity:0.5;">
						<path style="fill:#FFFFFF;" d="M2229.002,1510.685c-8.493,10.026-36.514,4.936-36.514,4.936s-28.092-4.679-32.697-16.986
							c-3.282-8.802,29.954-4.359,36.223-3.267C2202.284,1496.46,2235.067,1503.51,2229.002,1510.685z"/>
					</g>
				</g>
			</g>
			<g>
				<g>
					<path style="fill:#512717;" d="M2291.689,1725.915c0,0-44.125,147.681-158.049,127.847
						c-113.924-19.834-105.544-173.738-105.544-173.738s-10.983-64.682,142.403-37.978
						C2323.885,1668.751,2291.689,1725.915,2291.689,1725.915z"/>
				</g>
				<g>
					<path style="fill:#FFA9A9;" d="M2236.735,1819.058c-24.706,24.616-58.558,42.457-103.079,34.706
						c-44.521-7.751-70.388-35.99-85.322-67.506c16.221-11.767,37.012-17.177,58.311-13.469
						c14.643,2.549,27.604,9.073,37.922,18.299c12.829-5.196,27.232-6.955,41.875-4.406
						C2207.743,1790.39,2225.445,1802.501,2236.735,1819.058z"/>
				</g>
				<g>
					<path style="fill:#512717;" d="M2154.331,1866.828c-7.242,0-14.77-0.639-22.617-2.004
						c-122.338-21.299-114.918-183.773-114.828-185.412c0.334-6.189,5.559-10.926,11.822-10.6c6.191,0.336,10.938,5.629,10.6,11.822
						c-0.309,5.869-6.412,144.189,96.258,162.064c102.666,17.861,143.672-114.369,145.367-120.006
						c1.783-5.938,8.047-9.307,13.979-7.527c5.935,1.779,9.31,8.027,7.535,13.965
						C2302.007,1730.602,2259.99,1866.828,2154.331,1866.828z"/>
				</g>
				<g>
					<path style="fill:#FFFFFF;" d="M2006.191,1676.072c0,0,9.425,80.77,22.24,81.044c12.814,0.274,40.12-74.661,40.12-74.661"/>
					<path style="fill:#512717;" d="M2028.456,1762.731c-0.051,0-0.098-0.002-0.146-0.002
						c-11.746-0.252-21.065-29.188-27.695-86.006l11.152-1.301c3.766,32.252,11.356,69.16,17.063,75.668
						c7.104-5.07,23.189-39.662,34.445-70.557l10.551,3.844C2060.787,1720.158,2042.353,1762.731,2028.456,1762.731z
						 M2027.97,1751.576L2027.97,1751.576L2027.97,1751.576z"/>
				</g>
				<g>
					<path style="fill:#FFFFFF;" d="M2313.301,1729.54c0,0-36.167,72.833-48.32,68.76c-12.153-4.073-12.528-83.827-12.528-83.827"/>
					<path style="fill:#512717;" d="M2265.542,1803.998c-0.814,0-1.596-0.125-2.344-0.377c-13.197-4.42-16.18-50.904-16.359-89.121
						l11.227-0.055c0.158,32.885,3.607,70.877,8.576,78.049c7.572-4.197,27.188-36.369,41.633-65.453l10.055,4.994
						C2294.597,1779.828,2276.861,1803.998,2265.542,1803.998z M2267.287,1793.242
						C2267.287,1793.242,2267.287,1793.24,2267.287,1793.242L2267.287,1793.242z"/>
				</g>
				<g>
					<path style="fill:#FFF8EE;" d="M2378.362,1671.019c-70.761,112.843-163.31,82.761-216.323,19.525
						c-71.265,41.599-168.535,38.635-196.997-91.483L2378.362,1671.019z"/>
				</g>
				<g>
					<path style="fill:#512717;" d="M2378.362,1671.019c-46.868,106.63-154.093,116.131-227.792,29.14
						c0,0.001,19.014,3.311,19.014,3.311c-20.436,11.82-43.091,20.38-67.123,23.417c-49.898,7.319-98.882-17.057-120.396-62.638
						c-10.293-20.799-15.384-43.077-17.023-65.188c2.22,5.13,3.873,10.363,6.257,15.343c28.801,70.718,81.369,104.76,155.86,76.333
						c13.094-4.736,26.229-12.299,38.224-19.522c26.455,34.006,64.708,64.982,109.516,63.511
						C2316.694,1733.95,2352.308,1701.841,2378.362,1671.019L2378.362,1671.019z"/>
				</g>
			</g>
			<g>
				<g>
					<g>
						<g>
							<path style="fill:#512717;" d="M2216.048,1583.313c-12.082,6.718-30.51,17.038-44.326,51.731
								c-0.012,0.068-0.052,0.096-0.063,0.163c0.006-0.034-0.016-0.107-0.01-0.141c-1.272-37.354-15.128-53.295-24.23-63.701
								l35.401-0.462l0.068,0.012L2216.048,1583.313z"/>
						</g>
						<g>
							<path style="fill:#512717;" d="M2171.723,1635.043l-0.059,0.339c0.012-0.068-0.016-0.108-0.004-0.175
								C2171.671,1635.139,2171.711,1635.111,2171.723,1635.043z"/>
						</g>
						<g>
							<path style="fill:#512717;" d="M2171.659,1635.207c-0.006,0.034-0.052,0.096-0.058,0.13l0.047-0.271
								C2171.643,1635.099,2171.665,1635.173,2171.659,1635.207z"/>
						</g>
					</g>
				</g>
			</g>
		</g>
		<g>
			<g>
				<path style="fill:#FD9D24;" d="M2699.074,2397.968c-52.193,117.635-305.141,249.567-274.264,390.856
					c19.649,99.183,161.874,87.487,244.095,32.049C2927.276,2641.921,2817.8,2360.278,2699.074,2397.968z"/>
			</g>
			<g>
				<path style="fill:#FC7D27;" d="M2826.932,2557.185c-0.037,4.155-0.15,8.346-0.412,12.576
					c-12.052-108.989-86.945-136.498-145.107-141.065c7.186-10.33,13.175-20.585,17.666-30.728
					C2764.765,2377.121,2827.606,2453.997,2826.932,2557.185z"/>
			</g>
			<g style="opacity:0.4;">
				<path style="fill:#FFFFFF;" d="M2422.228,2762.887c2.021-131.521,227.859-254.508,276.852-364.919
					c2.508-0.786,5.052-1.46,7.56-1.946C2730.662,2497.105,2518.26,2569.76,2422.228,2762.887z"/>
			</g>
			<g>
				<path style="fill:#FC7D27;" d="M2826.932,2557.185c-0.562,83.314-42.593,183.732-158.02,263.677
					c-82.228,55.468-224.453,67.145-244.103-32.038c-5.988-27.397-1.31-54.457,10.517-81.106
					c0.337,36.829,14.035,75.566,62.467,95.066C2633.394,2857.354,2787.484,2725.459,2826.932,2557.185z"/>
			</g>
			<g>
				<path style="fill:#FFF3E9;" d="M2725.721,2774.519c-16.543,15.982-35.406,31.514-56.815,46.335
					c-82.228,55.468-224.453,67.145-244.103-32.038c-17.142-78.486,53.297-154.089,128.227-225.95
					C2633.237,2600.93,2718.011,2671.331,2725.721,2774.519z"/>
			</g>
			<g>
				<path style="fill:#F9D3B7;" d="M2725.721,2774.519c-16.543,16.019-35.444,31.514-56.815,46.335
					c-82.228,55.468-224.453,67.145-244.103-32.038c-5.989-27.397-1.31-54.457,10.518-81.105
					c0.336,36.829,14.035,75.566,62.466,95.066c76.502,30.803,158.917,2.208,223.293-58.724
					C2723.363,2753.859,2724.972,2764.002,2725.721,2774.519z"/>
			</g>
			<g>
				<path style="fill:#512717;" d="M2533.12,2878.156c-21.492,0-42.33-3.383-61.012-11.084
					c-33.523-13.819-54.957-39.869-61.984-75.338c-20.662-94.531,69.051-179.565,155.811-261.797
					c51.658-48.965,100.453-95.215,119.455-138.041c1.736-3.916,5.07-6.9,9.154-8.197c47.703-15.15,96.77,12.168,124.979,69.6
					c25.365,51.639,29.352,117.572,10.938,180.895c-22.154,76.181-75.07,144.99-153.031,198.986
					C2639.195,2858.963,2584.306,2878.156,2533.12,2878.156z M2709.646,2410.648c-22.965,46.096-71.678,92.268-123.113,141.02
					c-80.731,76.521-164.211,155.646-147.098,233.961c5.117,25.813,19.93,43.805,44.084,53.762
					c46.398,19.119,122.498,5.828,177.018-30.93c72.09-49.933,120.959-113.121,141.172-182.629
					c16.355-56.238,13.053-114.314-9.061-159.334C2776.558,2433.746,2746.63,2402.904,2709.646,2410.648z"/>
			</g>
			<g>
				<path style="fill:#512717;" d="M2551.596,2732.682c-33.75,34.45-75.238,60.546-117.359,83.988c0,0-11.222-27.76-11.222-27.76
					c10.848-3.137,22.149-6.908,33.133-10.796C2489.357,2766.1,2522.036,2752.611,2551.596,2732.682L2551.596,2732.682z"/>
			</g>
			<g>
				<path style="fill:#512717;" d="M2606.334,2798.649c-30.752,30.037-64.934,57.638-104.587,75.221c0,0-7.905-28.88-7.905-28.88
					c1.716-0.172,4.382-0.735,6.659-1.22C2538.002,2835.091,2573.33,2818.406,2606.334,2798.649L2606.334,2798.649z"/>
			</g>
			<g>
				<path style="fill:#512717;" d="M2780.692,2707.711c7.166-102.065-111.163-195.01-111.163-195.01s125.382,7.486,150.903,100.418"
					/>
			</g>
			<g>
				<path style="fill:#512717;" d="M2822.52,2509.55c-32.286-72.952-120.113-80.126-120.113-80.126s49.25-13.723,82.682-1.695"/>
			</g>
		</g>
	</g>
</g>
</svg>
