<?xml version="1.0" encoding="utf-8"?>
<!-- Generator: Adobe Illustrator 27.5.0, SVG Export Plug-In . SVG Version: 6.00 Build 0)  -->
<svg version="1.1" id="Layer_1" xmlns="http://www.w3.org/2000/svg" xmlns:xlink="http://www.w3.org/1999/xlink" x="0px" y="0px"
	 viewBox="0 0 4000 4000" style="enable-background:new 0 0 4000 4000;" xml:space="preserve">
<g>
	<g>
		<rect style="fill:#97E0FD;" width="4000" height="4000"/>
	</g>
	<g>
		<g>
			<g>
				<g>
					<path style="fill:#66B3FF;" d="M2256.923,1507.19c0,0,5.009-243.162-240.66-333.408c0,0,190.675-187.323,481.311-90.246
						c0,0-160.437,49.472-145.396,400.76L2256.923,1507.19z"/>
				</g>
				<g>
					<g>
						<path style="fill:#FFFFFF;" d="M2117.219,1145.838c35.742,41.977,69.719,85.603,96.106,134.138
							c0.742,1.392,0.217,3.123-1.175,3.865c-1.331,0.713-2.982,0.257-3.765-1.002c-14.69-22.786-31.667-44.027-49.394-64.563
							c-17.773-20.378-36.478-40.387-55.747-59.237C2094.051,1149.686,2108.335,1136.079,2117.219,1145.838L2117.219,1145.838z"/>
					</g>
					<g>
						<path style="fill:#FFFFFF;" d="M2191.65,1115.275c24.778,42.632,46.194,86.814,62.783,133.197
							c5.332,15.477,9.98,31.196,13.586,47.163c0.332,1.469-0.591,2.926-2.058,3.258c-1.421,0.323-2.839-0.539-3.222-1.923
							c-4.649-15.405-10.291-30.475-16.589-45.272c-19.339-44.036-43.627-86.269-70.613-125.95
							C2168.206,1114.808,2184.542,1104.056,2191.65,1115.275L2191.65,1115.275z"/>
					</g>
					<g>
						<path style="fill:#FFFFFF;" d="M2303.405,1176.947c3.829,76.548,8.356,155.861,15.962,231.935
							c0.202,1.603-2.328,2.118-2.691,0.456c-9.034-37.939-13.801-76.793-16.33-115.669c-2.363-38.887-2.896-77.899,0.332-116.786
							C2300.789,1175.276,2303.362,1175.24,2303.405,1176.947L2303.405,1176.947z"/>
					</g>
					<g>
						<path style="fill:#FFFFFF;" d="M2344.018,1373.061c-1.703-62.679,4.536-125.389,14.393-187.068
							c0.522-3.525,5.983-3.026,5.707,0.647c-2.429,31.03-4.582,61.982-4.846,92.893c-0.334,30.908,1.096,61.746,3.933,92.425
							C2364.071,1385.025,2344.689,1386.238,2344.018,1373.061L2344.018,1373.061z"/>
					</g>
				</g>
				<g>
					<path style="fill:#000072;" d="M2256.921,1521.605c-3.257,0-6.45-1.104-9.038-3.186c-3.477-2.798-5.459-7.046-5.371-11.506l0,0
						c0.01-0.589,0.728-59.568-27.573-128.191c-37.603-91.184-106.123-155.583-203.648-191.409
						c-4.639-1.704-8.081-5.664-9.121-10.493c-1.04-4.831,0.464-9.856,3.989-13.32c2.031-1.992,50.659-49.204,136.265-84.568
						c78.911-32.59,205.376-60.62,359.717-9.067c5.942,1.985,9.922,7.578,9.849,13.84s-4.18,11.76-10.166,13.606
						c-0.269,0.088-37.324,12.617-72.285,65.393c-32.866,49.604-70.469,145.559-62.959,320.974
						c0.298,6.89-4.326,13.023-11.03,14.634l-95.259,22.896C2259.177,1521.473,2258.044,1521.605,2256.921,1521.605z
						 M2043.771,1169.234c116.357,50.161,171.963,135.225,198.286,199.641c20.786,50.852,26.851,96.05,28.599,120.19l66.675-16.025
						c-8.218-253.887,75.103-350.911,123.32-385.593c-105.39-28.374-208.213-22.466-306.084,17.664
						C2102.38,1126.512,2064.308,1153.021,2043.771,1169.234z"/>
				</g>
			</g>
			<g>
				<g>
					<path style="fill:#FFFFFF;" d="M2646.064,1137.395c-52.564,11.339-71.302-31.904-71.302-31.904s-18.93,31.904-63.998,33.826
						c-45.164,1.922-57.275-27.195-57.275-27.195s-31.231,35.748-85.62,42.186c-54.485,6.534-99.074-35.651-99.074-35.651
						s-21.237,39.495-83.314,58.234c-62.077,18.835-95.903-13.357-95.903-13.357s-8.458,40.552-56.406,60.347
						c-47.954,19.796-92.156-16.913-92.156-16.913c0,45.165-71.398,97.825-137.224,74.474c-39.686-14.03-59.482-55.255-58.715-95.23
						c0.481-26.426,9.898-52.276,28.638-69.477c46.989-43.243,97.824-24.408,97.824-24.408s-14.799-97.921,78.894-135.398
						c94.077-37.573,163.65,18.834,163.65,18.834s25.561-61.789,110.413-77.068c103.877-18.834,147.12,60.156,147.12,60.156
						s13.358-31.039,63.905-35.747c53.237-4.997,77.068,32,77.068,32c69.573-7.592,150.388-3.844,178.641,58.234
						c6.726,14.798,10.665,29.02,12.012,42.09C2707.663,1097.42,2686.138,1128.843,2646.064,1137.395z"/>
				</g>
				<g style="opacity:0.2;">
					<path style="fill:#000072;" d="M2646.064,1137.395c-52.564,11.339-71.302-31.904-71.302-31.904s-18.93,31.904-63.998,33.826
						c-45.164,1.922-57.275-27.195-57.275-27.195s-31.231,35.748-85.62,42.186c-54.485,6.534-99.074-35.651-99.074-35.651
						s-21.237,39.495-83.314,58.234c-62.077,18.835-95.903-13.357-95.903-13.357s-8.458,40.552-56.406,60.347
						c-47.954,19.796-92.156-16.913-92.156-16.913c0,45.165-71.398,97.825-137.224,74.474c-39.686-14.03-59.482-55.255-58.715-95.23
						c4.997,6.823,11.341,12.589,18.548,16.817c16.143,9.417,35.651,11.051,54.293,10.763c19.796-0.289,40.359-2.787,56.791-13.742
						c16.432-11.051,27.196-32.48,20.469-51.026c31.039,20.276,74.281,19.123,108.78,5.477
						c34.497-13.55,61.692-44.492,70.532-80.528c28.636,17.105,66.595,18.738,97.728,6.631
						c31.041-12.108,55.928-39.207,65.441-71.207c28.732,27.291,70.438,41.321,110.031,41.609
						c39.686,0.384,79.18-14.798,108.393-41.513c14.03,23.927,40.073,42.474,67.555,45.838c27.581,3.363,56.409-6.823,75.724-26.715
						c19.89,24.408,48.526,35.171,79.757,32.288c8.265-0.768,16.338-2.594,24.122-5.477
						C2707.663,1097.42,2686.138,1128.843,2646.064,1137.395z"/>
				</g>
				<g>
					<path style="fill:#000072;" d="M1837.497,1301.536c-13.125,0-26.138-2.153-38.511-6.545
						c-33.276-11.811-57.847-41.885-65.718-80.449c-8.369-40.994,3.682-83.543,30.698-108.399
						c34.419-31.665,70.674-34.077,92.476-31.653c0.884-33.552,12.676-100.537,88.667-130.933
						c76.426-30.569,137.622-4.092,164.024,11.543c13.984-21.306,47.197-58.762,112.759-70.627
						c80.991-14.641,129.106,26.018,150,50.464c11.26-10.906,30.669-23.213,62.285-26.189c46.279-4.368,73.657,18.809,84.775,31.186
						c99.858-9.372,160.518,12.72,185.396,67.446c16.841,37.048,18.472,72.629,4.59,100.183
						c-11.338,22.515-32.578,38.128-59.814,43.962c-36.494,7.817-61.577-6.765-75.801-22.537
						c-12.007,10.896-32.173,23.481-61.987,24.724c-30.811,1.294-49.351-9.914-59.722-20.171
						c-15.098,12.371-43.159,30.493-82.065,35.125c-42.852,5.088-79.536-15.945-97.989-29.316
						c-12.534,14.856-37.929,38.032-81.904,51.358c-43.608,13.215-75.249,3.782-93.125-5.413
						c-8.169,15.964-24.912,38.347-57.842,51.946c-35.2,14.534-68.018,3.513-87.774-6.868
						c-6.587,17.126-20.059,33.662-38.701,46.826C1889.538,1293.214,1863.297,1301.536,1837.497,1301.536z M1844.079,1102.586
						c-16.094,0-38.682,4.614-60.591,24.773c-19.736,18.159-28.364,50.117-21.973,81.416c5.918,28.999,23.091,50.522,47.114,59.048
						c27.881,9.895,60.376,4.592,86.958-14.172c18.862-13.323,31.055-31.636,31.055-46.653c0-5.588,3.232-10.674,8.291-13.047
						c5.054-2.373,11.03-1.616,15.332,1.958c0.342,0.276,38.34,30.818,77.417,14.688c40.401-16.685,47.725-49.68,47.793-50.012
						c1.074-5.117,4.829-9.255,9.819-10.811c4.99-1.555,10.435-0.293,14.224,3.315c1.069,0.969,29.238,25.942,81.777,10.032
						c54.932-16.648,74.067-50.007,74.854-51.419c2.168-3.884,6.035-6.599,10.435-7.273c4.39-0.669,8.887,0.674,12.114,3.733
						c0.376,0.351,40.61,37.468,87.441,31.877c47.896-5.701,76.26-37.124,76.538-37.439c3.296-3.716,8.296-5.469,13.179-4.678
						c4.897,0.818,9.043,4.075,10.952,8.655c0.273,0.559,9.502,19.753,43.325,18.333c36.24-1.509,51.699-25.864,52.339-26.899
						c2.822-4.573,7.91-7.28,13.354-6.855c5.356,0.393,10.088,3.674,12.217,8.608c1.45,3.196,15.747,31.983,55.039,23.574
						c18.799-4.028,32.666-13.965,40.107-28.74c9.878-19.607,8.071-46.343-5.088-75.288c-19.722-43.381-73.311-59.722-163.94-49.917
						c-5.391,0.571-10.713-1.936-13.667-6.526c-0.742-1.111-20.303-29.534-63.613-25.417c-40.542,3.816-51.694,26.357-52.148,27.314
						c-2.183,5.056-7.007,8.311-12.51,8.567c-5.601,0.234-10.615-2.756-13.262-7.585c-1.567-2.798-40.059-69.539-131.934-52.903
						c-75.42,13.648-98.726,66.262-99.678,68.494c-1.777,4.155-5.42,7.275-9.805,8.362c-4.385,1.084-9.043,0.09-12.559-2.756
						c-2.554-2.044-64.575-50.459-149.175-16.616c-81.621,32.649-70.566,116.34-70.054,119.885
						c0.723,5.032-1.255,10.095-5.21,13.289c-3.921,3.179-9.238,4.087-13.984,2.354
						C1865.69,1105.545,1856.964,1102.586,1844.079,1102.586z"/>
				</g>
			</g>
		</g>
		<g>
			<g>
				<path style="fill:#587CE8;" d="M3328.628,2150.621c-129.536,323.264-488.834,765.397-1289.787,739.066
					c-506.805-16.624-827.954-261.378-1002.56-544.09c-102.725-166.052-154.712-345.366-164.129-499.213
					c0,0-318.268,78.221-352.476-246.484c0,0,0,0,0.094,0.096c3.364,1.537,73.418,33.345,157.79,14.991
					c86.582-18.835,190.17-21.333,226.687,43.819c0,0,81.873-129.248,200.263-114.737c118.39,14.51,197.283-24.024,197.283-24.024
					s38.919,273.871-288.862,295.876c0,0,2.595,5.285,7.88,14.223c2.306,3.843,5.093,8.264,8.359,13.261c0,0,0,0.096,0.096,0.192
					c37.286,56.504,140.492,180.371,328.933,182.389c244.468,2.594,451.262-187.866,665.554-367.179
					c214.389-179.217,566.578-495.273,906.273-495.273c228.13,0,298.472,98.881,312.886,124.443
					c1.825,3.267,2.787,5.381,2.883,5.862c0.096,0.096,0.096,0.096,0.096,0.096s82.737-19.027,116.562,43.819
					c33.825,62.943,0,102.341,0,102.341s11.052,31.711,21.91,86.582C3408.868,1650.062,3432.795,1890.588,3328.628,2150.621z"/>
			</g>
			<g style="opacity:0.6;">
				<path style="fill:#FFFFFF;" d="M1301.792,1520.046c-37.671,55.447-131.553,76.107-213.427,64.864
					c-81.873-11.243-173.837,124.058-173.837,124.058c-78.99-99.65-201.222-46.99-288.477-50.161
					c-85.045-2.979-105.32-56.023-106.282-58.81c3.364,1.537,73.418,33.345,157.79,14.991
					c86.582-18.835,190.17-21.333,226.687,43.819c0,0,81.873-129.248,200.263-114.737
					C1222.899,1558.58,1301.792,1520.046,1301.792,1520.046z"/>
			</g>
			<g style="opacity:0.2;">
				<path style="fill:#000072;" d="M1012.93,1815.922c0,0,2.595,5.285,7.88,14.223c-3.172-1.73-4.805-2.691-4.805-2.691
					l-23.16-59.867c10.571-110.702,141.646-86.774,211.217-120.599c69.575-33.922,97.73-126.942,97.73-126.942
					S1340.711,1793.916,1012.93,1815.922z"/>
			</g>
			<g style="opacity:0.6;">
				<path style="fill:#FFFFFF;" d="M2905.906,1217.634c5.574,3.556,9.513,7.976,11.531,13.357
					c12.974,33.729-52.948,90.233-147.12,126.269c-94.174,36.132-181.044,38.054-193.921,4.324
					c-5.283-13.741,2.595-31.327,20.181-49.682c-1.44,0.769-2.787,1.538-4.228,2.307
					c-511.321,285.786-788.268,711.776-1128.157,752.616c-417.436,50.065-433.002-215.637-434.926-223.229
					c37.286,56.504,140.492,180.371,328.933,182.389c244.468,2.594,451.262-187.866,665.554-367.179
					c214.389-179.217,566.578-495.273,906.273-495.273c228.13,0,298.472,98.881,312.886,124.443
					c1.825,3.267,2.787,5.381,2.883,5.862C3241.183,1291.82,3108.282,1204.95,2905.906,1217.634z"/>
			</g>
			<g>
				<path style="fill:#FFFFFF;" d="M3328.628,2150.621c-129.536,323.264-488.834,765.397-1289.787,739.066
					c-506.805-16.624-827.954-261.378-1002.56-544.09c405.523,292.129,1035.138,239.565,1255.771,101.669
					c214.675-134.245,167.878-339.696,167.878-339.696c131.65,75.242,436.271-60.156,503.922-357.089
					c67.651-296.838,165.475-406.193,282.04-456.547c0,0,40.552-9.321,76.395,6.63c0,0,0,0,0.096,0.096
					c0.096-0.096,0.096-0.096,0.192,0c15.374,6.919,29.788,18.354,39.879,37.093c33.825,62.943,0,102.341,0,102.341
					s0.77,2.21,2.018,6.342C3379.462,1494.196,3466.91,1805.255,3328.628,2150.621z"/>
			</g>
			<g style="opacity:0.2;">
				<path style="fill:#000072;" d="M3362.453,1440.094c0,0,0.77,2.21,2.018,6.342c-20.563,9.802-44.01,17.97-65.92,29.213
					c-53.622,27.291-75.243,113.008-109.069,68.42c-33.826-44.588,7.496-111.47,56.409-134.917
					c48.815-23.543,102.629-90.137,76.491-108.492c0.096-0.096,0.096-0.096,0.192,0c15.374,6.919,29.788,18.354,39.879,37.093
					C3396.279,1400.696,3362.453,1440.094,3362.453,1440.094z"/>
			</g>
			<g>
				<path style="fill:#000072;" d="M2106.808,2905.23c-22.603,0-45.376-0.376-68.443-1.135
					c-238.96-7.839-451.851-66.479-632.759-174.287c-156.426-93.22-284.814-219.939-381.592-376.636
					c-93.696-151.458-152.017-324.624-165.098-489.475c-41.777,7.048-153.052,17.966-241.338-44.063
					c-63.955-44.929-101.719-118.352-112.241-218.223c-0.547-5.186,1.753-10.261,6.006-13.274c4.263-3.01,9.805-3.491,14.517-1.257
					c0.649,0.305,68.315,31.519,148.633,14.024c65.386-14.221,177.139-27.178,229.79,33.061
					c28.042-36.379,101.943-116.47,201.977-104.202c112.866,13.828,188.452-22.307,189.204-22.671
					c4.16-2.024,9.009-1.938,13.081,0.217c4.077,2.161,6.87,6.14,7.52,10.706c0.659,4.658,15.366,115.071-57.305,204.695
					c-48.227,59.48-122.852,94.954-222.017,105.605c31.406,49.683,132.378,181.248,321.606,183.257
					c1.611,0.017,3.247,0.027,4.854,0.027c219.414,0,406.738-157.864,605.015-324.939c15.4-12.976,30.82-25.972,46.284-38.909
					c13.652-11.414,27.861-23.379,42.588-35.781c218.872-184.314,549.629-462.852,872.934-462.852
					c226.24,0,303.511,95.078,323.77,128.904c26.016-3.25,90.322-4.756,121.348,52.898c29.922,55.669,12.749,95.876,3.223,111.477
					c7.217,22.974,29.15,99.91,37.939,210.994c9.556,120.774,4.428,306.006-74.297,502.588v0.002
					c-56.875,141.943-172.114,345.122-398.101,506.99C2719.303,2823.851,2437.912,2905.23,2106.808,2905.23z M872.15,1831.971
					c3.042,0,6.045,0.964,8.54,2.803c3.447,2.534,5.586,6.465,5.85,10.73c10.103,165.066,67.637,339.976,161.997,492.512
					c118.843,192.417,405.576,518.069,990.776,537.266c875.923,28.804,1184.116-500.906,1275.938-730.02l0,0
					c146.685-366.297,34.736-697.131,33.589-700.432c-1.689-4.849-0.669-10.229,2.676-14.126c1.01-1.231,26.606-33.345-1.758-86.128
					c-28.12-52.236-97.725-37.249-100.669-36.587c-6.953,1.565-14.023-2.168-16.621-8.804c0,0.003,0,0.005,0,0.005
					s-0.654-1.553-2.109-4.131c-11.03-19.558-77.334-117.112-300.332-117.112c-312.783,0-638.701,274.458-854.365,456.074
					c-14.756,12.427-28.989,24.414-42.666,35.845c-15.43,12.91-30.825,25.886-46.201,38.84
					c-193.555,163.098-393.672,331.709-623.755,331.721c-1.67,0-3.32-0.01-4.99-0.027c-130.869-1.392-221.221-60.53-273.97-109.895
					c-57.066-53.401-83.032-106.064-84.111-108.281c-2.095-4.312-1.909-9.387,0.493-13.535c2.407-4.148,6.719-6.829,11.504-7.151
					c102.139-6.855,177.568-39.399,224.194-96.724c48.13-59.17,53.179-130.696,52.529-164.006
					c-31.216,10.967-97.896,28.357-185.933,17.568c-107.749-13.179-185.571,106.941-186.343,108.154
					c-2.725,4.285-7.583,6.814-12.568,6.677c-5.068-0.142-9.692-2.93-12.173-7.356c-37.28-66.523-160.015-47.878-211.05-36.78
					c-60.874,13.257-114.282,1.941-143.53-7.273c12.612,79.263,45.205,137.815,97.06,174.246
					c97.993,68.84,233.203,36.675,234.556,36.343C869.845,1832.108,871.003,1831.971,872.15,1831.971z M3328.63,2150.621h0.049
					H3328.63z"/>
			</g>
			<g>
				<path style="fill:#000072;" d="M3245.9,1308.348c-4.165,0-8.267-1.802-11.094-5.198c-0.898-1.082-3.975-5.088-5.737-11.155
					c-2.041-7.029,1.509-14.468,8.257-17.305c6.733-2.844,14.541-0.176,18.14,6.204c2.49,4.409,3.643,7.261,3.848,7.788
					c2.578,6.587-0.005,14.068-6.094,17.664C3250.929,1307.696,3248.405,1308.348,3245.9,1308.348z"/>
			</g>
			<g>
				<path style="fill:#000072;" d="M2106.808,2905.23c-22.603,0-45.376-0.376-68.443-1.135
					c-238.96-7.839-451.851-66.477-632.759-174.287c-156.426-93.22-284.814-219.939-381.592-376.636
					c-3.613-5.85-2.588-13.435,2.441-18.12c5.024-4.685,12.666-5.176,18.252-1.147c177.783,128.088,422.529,202.446,689.16,209.377
					c220.107,5.745,436.133-36.775,550.503-108.257c203.701-127.31,161.948-322.295,161.504-324.25
					c-1.274-5.576,0.874-11.377,5.469-14.783c4.604-3.411,10.771-3.77,15.737-0.935c49.785,28.452,127.896,24.187,208.945-11.411
					c137.163-60.232,239.507-185.977,273.769-336.365c60.445-265.229,147.29-404.766,290.376-466.58
					c0.806-0.347,1.636-0.62,2.485-0.815c3.813-0.879,93.901-20.664,132.485,51.035c29.922,55.669,12.749,95.876,3.223,111.477
					c7.217,22.974,29.15,99.91,37.939,210.994c9.556,120.774,4.428,306.006-74.297,502.588v0.002
					c-56.875,141.943-172.114,345.122-398.101,506.99C2719.303,2823.851,2437.917,2905.23,2106.808,2905.23z M1087.687,2396.961
					c137.72,193.381,422.822,460.972,951.626,478.32c875.889,28.723,1184.141-500.93,1275.938-730.022
					c146.494-365.828,34.731-697.131,33.584-700.435c-1.68-4.849-0.659-10.229,2.681-14.121c1.01-1.231,26.606-33.345-1.758-86.128
					c-26.313-48.889-90.142-38.635-99.492-36.829c-93.975,40.967-199.575,126.577-272.363,445.938
					c-36.284,159.253-144.8,292.471-290.283,356.358c-77.324,33.953-153.462,41.343-209.932,21.382
					c1.831,22.649,1.992,57.773-7.114,98.782c-14.409,64.861-55.757,157.29-170.918,229.268
					c-118.843,74.277-341.221,118.503-566.538,112.627C1489.435,2565.767,1263.278,2504.031,1087.687,2396.961z M3328.63,2150.621
					h0.049H3328.63z"/>
			</g>
			<g>
				<path style="fill:#000072;" d="M3372.314,1450.608c-22.49,18.813-48.79,24.18-73.11,36.574
					c-22.833,11.016-42.614,26.855-59.773,45.598c-5.597,5.827-14.723-1.884-9.868-8.387c23.468-33.255,58.327-57.486,94.439-74.846
					c11.276-6.014,21.246-12.294,28.59-19.966C3366.878,1415.571,3387.255,1437.174,3372.314,1450.608L3372.314,1450.608z"/>
			</g>
			<g>
				<path style="fill:#000072;" d="M3277.57,1489.634c53.463,284.868,15.987,600.114-124.505,855.559
					c-78.656,143.55-192.488,266.679-327.063,359.458c-53.954,36.65-110.495,69.373-169.352,97.063
					c-1.365,0.641-2.988,0.056-3.631-1.307c-0.625-1.324-0.083-2.9,1.199-3.578c497.814-253.287,693.646-770.293,618.006-1306.084
					c-0.298-1.511,0.718-2.995,2.248-3.233C3275.91,1487.282,3277.265,1488.228,3277.57,1489.634L3277.57,1489.634z"/>
			</g>
			<g>
				<path style="fill:#000072;" d="M3146.992,1569.241c28.579,133.626,26.547,272.762,4.208,407.206
					c-34.786,211.267-134.422,410.549-280.291,567.254c-17.603,17.51-36.564,37.356-54.308,54.527
					c-13.142,11.493-44.405,40.184-57.573,50.986c-13.212,10.452-46.963,36.719-60.515,47.368
					c-19.068,12.813-54.565,38.56-73.862,50.665c-9.156,5.725-45.148,27.453-54.578,33.301
					c-25.881,15.879-63.098,33.874-89.912,48.543c-30.623,14.867-61.777,28.622-92.683,42.765c-1.367,0.626-2.986,0.024-3.613-1.345
					c-0.632-1.395-0.002-3.019,1.384-3.635c27.429-14.047,64.032-31.898,90.715-45.893c26.478-15.453,62.675-34.539,87.81-50.944
					c0-0.001,42.778-27.25,42.778-27.25c12.152-7.286,30.157-20.155,41.762-28.7c316.979-222.79,500.362-552.646,507.622-941.677
					c1.353-67.529-2.489-135.578-14.284-202.078c-0.263-1.483,0.725-2.898,2.207-3.16
					C3145.292,1566.919,3146.665,1567.841,3146.992,1569.241L3146.992,1569.241z"/>
			</g>
			<g>
				<path style="fill:#000072;" d="M3038.012,1791.58c3.175,81.013-7.297,162.115-24.309,241.195
					c-31.848,142.511-91.663,279.172-176.527,398.215c-12.039,16.156-24.637,32.51-36.874,48.567
					c-12.351,14.361-27.209,32.184-39.624,46.356c-12.261,12.673-30.046,31.349-42.246,43.972
					c-5.712,5.361-38.2,35.502-44.668,41.484c-16.888,14.919-38.915,32.122-56.357,46.585
					c-19.166,13.637-40.023,29.438-59.314,42.692c0,0-41.041,26.213-41.041,26.213c-11.969,8.198-29.236,17.519-41.995,24.574
					c0.001,0-42.599,23.483-42.599,23.483l-43.823,21.057c-25.125,12.944-62.912,27.651-89.134,38.584
					c-26.79,11.115-64.072,22.438-91.501,32.292c-30.906,9.473-62.146,17.829-93.213,26.57c-1.45,0.409-2.957-0.436-3.364-1.886
					c-0.409-1.473,0.459-2.976,1.919-3.376l45.91-14.977c26.143-7.82,65.027-21.821,90.928-32.104
					c25.763-9.093,63.324-25.959,88.857-37.147c24.773-10.352,61.812-30.342,86.35-42.411c14.423-8.265,48.655-28.134,62.421-36.08
					c13.18-8.126,46.73-30.531,60.377-39.282c18.836-13.244,39.263-28.981,57.993-42.64c0,0,18.44-15.339,18.44-15.339
					c199.784-160.621,336.885-394.395,386.652-645.353c12.817-62.82,20.974-127.02,21.292-191.126
					c0.007-1.506,1.235-2.72,2.742-2.712C3036.757,1788.994,3037.939,1790.146,3038.012,1791.58L3038.012,1791.58z"/>
			</g>
			<g>
				<g>
					
						<ellipse transform="matrix(0.964 -0.2658 0.2658 0.964 -437.3943 673.1801)" style="fill:#000072;" cx="2268.792" cy="1952.82" rx="100.386" ry="127.592"/>
				</g>
				<g>
					
						<ellipse transform="matrix(0.964 -0.2658 0.2658 0.964 -425.8214 675.3743)" style="fill:#FFFFFF;" cx="2282.683" cy="1911.151" rx="37.629" ry="47.828"/>
				</g>
				<g style="opacity:0.3;">
					
						<ellipse transform="matrix(0.964 -0.2658 0.2658 0.964 -451.0327 671.8099)" style="fill:#FFFFFF;" cx="2256.923" cy="2002.539" rx="26.3" ry="33.427"/>
				</g>
			</g>
			<g>
				<path style="fill:#000072;" d="M1000.37,1822.996c-9.006-22.842-15.657-47.507-14.939-72.007
					c0.071-2.402,2.078-4.293,4.48-4.222c1.988,0.058,3.635,1.448,4.092,3.289c5.862,22,17.764,41.169,31.487,58.793
					C1038.17,1827.027,1009.364,1843.28,1000.37,1822.996L1000.37,1822.996z"/>
			</g>
			<g style="opacity:0.2;">
				<path style="fill:#000072;" d="M3328.628,2150.621c-129.536,323.264-488.834,765.397-1289.787,739.066
					c-506.805-16.624-827.954-261.378-1002.56-544.09c-102.725-166.052-154.712-345.366-164.129-499.213
					c0,0-318.268,78.221-352.476-246.484c0,0,0,0,0.094,0.096c1.924,4.324,65.249,142.22,184.598,122.617
					c121.177-19.892,190.846,13.357,228.707,167.205c37.863,153.848,446.459,720.328,1177.164,685.254
					c729.651-34.978,893.78-544.186,925.203-663.344c-2.018,12.3-36.613,212.754-151.253,429.545
					c0,0,228.129-99.074,278.002-514.204c0,0-7.301,211.697-126.653,467.31c0,0,264.838-277.619,258.208-602.612
					c0,0,21.429,275.216-85.141,511.514c5.863-4.613,207.278-168.263,175.758-676.605
					C3408.868,1650.062,3432.795,1890.588,3328.628,2150.621z"/>
			</g>
		</g>
	</g>
</g>
</svg>
