<?xml version="1.0" encoding="utf-8"?>
<!-- Generator: Adobe Illustrator 27.5.0, SVG Export Plug-In . SVG Version: 6.00 Build 0)  -->
<svg version="1.1" id="Layer_1" xmlns="http://www.w3.org/2000/svg" xmlns:xlink="http://www.w3.org/1999/xlink" x="0px" y="0px"
	 viewBox="0 0 4000 4000" style="enable-background:new 0 0 4000 4000;" xml:space="preserve">
<g>
	<g>
		<rect style="fill:#3AA9FF;" width="4000" height="4000"/>
	</g>
	<g>
		<g>
			<g>
				<g>
					<g>
						<path style="fill:#7C7C7C;" d="M3111.755,2074.351l-153.6,17.8c-25.284-21.396-61.32-82-82.72-154.16
							c-13.204-44.4-20.84-93.16-17-139.84c0.88-11.16,2.476-22.2,4.796-33.04c15.48-72.44,50.48-58.68,76.44-24.72
							c18.68,24.48,30.56,45.68,58.36,74.4c33.36,34.48,106.124,65.72,127.04,134.88c2.044,6.68,3.564,13.764,4.524,21.2
							C3133.315,1999.031,3128.835,2032.871,3111.755,2074.351"/>
					</g>
					<g>
						<path style="fill:#606060;" d="M3111.755,2074.351l-153.6,17.8c-25.284-21.396-61.32-82-82.72-154.16
							c16.36,20.04,41.596,40.444,74.36,35.36c71.48-11.12,66.116-42.04,134.916-37.596c19.96,1.32,34.444,16.036,44.884,35.116
							C3133.315,1999.031,3128.835,2032.871,3111.755,2074.351"/>
					</g>
					<g style="opacity:0.5;">
						<g>
							<g>
								<path style="fill:#FFFFFF;" d="M3125.072,1949.671c-46.04-39.6-105.16-70.92-149.84-115.6
									c-39.32-39.32-49.796-80-69.72-89.6c-18.44-8.92-37.52,30.16-47.076,53.68c0.88-11.16,2.476-22.2,4.796-33.04
									c15.48-72.44,50.48-58.68,76.44-24.72c18.68,24.48,30.56,45.68,58.36,74.4
									C3031.392,1849.271,3104.156,1880.511,3125.072,1949.671"/>
							</g>
						</g>
					</g>
					<g>
						<path style="fill:#3A3A3A;" d="M2958.139,2112.139c-4.568,0-9.158-1.558-12.917-4.741
							c-51.062-43.252-130.352-211.836-101.563-346.465c8.445-39.492,24.204-62.095,46.843-67.183
							c21.292-4.766,44.395,7.463,65.049,34.485c5.825,7.617,11.006,14.924,16.016,21.99c11.538,16.274,22.434,31.643,40.845,50.679
							c8.823,9.126,21.802,18.767,35.542,28.972c56.768,42.17,142.559,105.901,82.283,252.112
							c-4.211,10.215-15.903,15.068-26.113,10.869c-10.212-4.209-15.078-15.903-10.869-26.113
							c48.408-117.427-11.357-161.821-69.155-204.758c-15.09-11.208-29.343-21.797-40.442-33.274
							c-20.525-21.223-32.825-38.572-44.722-55.352c-5.027-7.087-9.773-13.784-15.161-20.833
							c-12.324-16.121-21.992-20.315-24.504-19.749c-2.368,0.532-10.479,8.381-16.494,36.519
							c-26.223,122.629,48.455,273.828,88.301,307.583c8.428,7.139,9.473,19.756,2.334,28.184
							C2969.455,2109.736,2963.815,2112.139,2958.139,2112.139z"/>
					</g>
					<g>
						<path style="fill:#606060;" d="M1593.271,2321.64c-154.688,130.072-461.056,430.004-210.948,778.308
							c186.032,259.084,224.052-343.396,376.108-448"/>
					</g>
					<g>
						<path style="fill:#3A3A3A;" d="M1467.336,3184.111c-33.081,0.005-66.309-23.828-101.257-72.5
							c-112.903-157.227-129.089-322.524-48.113-491.304c50.491-105.239,136.333-207.939,262.434-313.975
							c8.45-7.109,21.067-6.021,28.179,2.437c7.109,8.452,6.018,21.069-2.437,28.179
							c-309.097,259.912-378.933,512.695-207.573,751.333c19.563,27.246,48.093,58.984,72.864,55.542
							c46.443-6.479,89.067-124.951,126.675-229.473c41.462-115.244,84.338-234.404,148.987-278.882
							c9.097-6.245,21.55-3.96,27.813,5.146c6.26,9.097,3.958,21.548-5.142,27.813c-54.041,37.173-96.531,155.269-134.018,259.463
							c-47.441,131.855-88.413,245.728-158.784,255.552C1473.754,3183.887,1470.544,3184.111,1467.336,3184.111z"/>
					</g>
					<g>
						<path style="fill:#7C7C7C;" d="M2329.474,2028.073c-7.96,138.796,68.24,126.72,134.4,218.636l-640.72-515.476
							c5.84,4,78.84,52.436,176.32,38.116c7.04-1.036,16.2-4.16,27-8.84c60.48-26.196,172.596-101.556,255.32-136.24
							c218.116-91.476,316.84-18.796,343.36,10.48c0.28,0.324,0.52,0.6,0.8,0.92c34.52,39.08-98.84,63.644-197.68,164.964
							C2362.634,1867.953,2332.194,1980.153,2329.474,2028.073"/>
					</g>
					<g style="opacity:0.5;">
						<g>
							<g>
								<path style="fill:#FFFFFF;" d="M2630.674,1653.033c-56.24-35.56-171.916-69.28-372.88,15.68
									c-59.68,25.28-132.12,80.64-235.96,93.76c1.48-0.6,3.04-1.28,4.64-1.96c60.48-26.2,172.6-101.56,255.32-136.24
									c218.12-91.48,316.84-18.8,343.36,10.48c0.28,0.32,0.52,0.6,0.8,0.92
									C2631.273,1641.673,2632.594,1647.353,2630.674,1653.033"/>
							</g>
						</g>
					</g>
					<g>
						<path style="fill:#606060;" d="M2329.474,2028.073c-7.96,138.796,68.24,126.72,134.4,218.636l-640.72-515.476
							c5.84,4,78.84,52.436,176.32,38.116c7.04-1.036,16.2-4.16,27-8.84c46.436,36.24,120.2,79.08,200.68,68.92
							c172.076-21.68,127.96-58.636,295.8-134.036c47.16-21.204,79.8-42.32,102.2-60.644c0.28,0.324,0.52,0.6,0.8,0.92
							c34.52,39.08-98.84,63.644-197.68,164.964C2362.634,1867.953,2332.194,1980.153,2329.474,2028.073"/>
					</g>
					<g>
						<path style="fill:#3A3A3A;" d="M2463.879,2266.719c-6.218,0-12.344-2.891-16.252-8.32
							c-20.828-28.95-42.434-46.587-63.33-63.638c-43.267-35.313-80.632-65.806-74.802-167.852
							c2.639-46.14,31.646-165.569,104.473-240.229c48.103-49.316,103.989-81.157,144.792-104.407
							c20.396-11.621,45.378-25.857,51.804-33.833c-16.26-18.115-103.372-96.982-321.035-5.708
							c-44.36,18.604-99.192,50.242-147.571,78.157c-68.84,39.722-112.412,64.268-139.57,68.254
							c-108.396,15.928-187.852-39.519-191.182-41.887c-9.002-6.401-11.111-18.887-4.71-27.888
							c6.387-8.989,18.845-11.104,27.849-4.739c0.942,0.657,70.381,48.428,162.232,34.939
							c20.976-3.079,74.057-33.706,125.391-63.325c49.404-28.508,105.4-60.818,152.092-80.4
							c244.768-102.642,348.586-4.185,366.912,16.599c10.647,12.07,11.362,23.73,10.088,31.387
							c-4.028,24.187-31.267,39.707-72.498,63.198c-40.896,23.303-91.792,52.302-135.962,97.583
							c-64.299,65.92-90.903,174.961-93.169,214.585c-4.668,81.67,19.731,101.587,60.156,134.575
							c21.841,17.827,46.597,38.027,70.51,71.27c6.45,8.965,4.412,21.465-4.556,27.915
							C2472.006,2265.498,2467.924,2266.719,2463.879,2266.719z"/>
					</g>
					<g>
						<path style="fill:#7C7C7C;" d="M3107.115,2094.952c-1.244,33.56-6.12,72.36-15.44,114.596
							c-66,298.884-353.88,768.68-1137.604,768.68c-396.916,0-714.636-171.116-937.68-364.956
							c-183.276-159.28-302.636-333.884-349.436-441.44c-39-89.56-65.564-213.88-10.76-279.2c19.196-22.88,48.356-38.52,90.4-42.92
							c14.84-1.56,28.4-5.04,41-10.2c108.88-44.24,149.72-210,377.76-294.88c298.036-110.92,528.44-21.32,816.44,215.48
							c75.756,62.28,144.88,118.24,209.276,166.84l0.044,0.04c26.4,19.92,52.04,38.64,77,56.04
							c186.36,129.92,336.64,187.96,508,147.56c204.08-48.08,218.36-172.96,293.68-162.48c7.16,1,13.52,5.756,18.916,13.84
							C3101.955,2001.912,3109.071,2041.952,3107.115,2094.952"/>
					</g>
					<g>
						<path style="fill:#606060;" d="M889.513,2532.39l-2.16,5.12C884.113,2533.39,884.713,2531.39,889.513,2532.39"/>
					</g>
					<g>
						<path style="fill:#606060;" d="M3107.115,2094.952c-1.244,33.56-6.12,72.36-15.44,114.596
							c-66,298.884-353.88,768.68-1137.604,768.68c-396.916,0-714.636-171.116-937.68-364.956c142,58.24,384,103.4,648.604-43.44
							l157.8,158.8c0,0,133.4,14.236,207-101.32c135.48,146.12,901.32,195.2,1015.2-489.084
							C3044.995,2138.228,3068.515,2120.512,3107.115,2094.952"/>
					</g>
					<g>
						<path style="fill:#606060;" d="M3091.674,2209.55c-66,298.884-353.88,768.68-1137.6,768.68c-5.64,0-11.28-0.04-16.88-0.116
							c-3.8-0.04-7.56-0.084-11.32-0.2c-2.28,0-4.56-0.084-6.84-0.12c-2.56-0.084-5.12-0.16-7.68-0.244
							c-3.72-0.08-7.44-0.24-11.16-0.4c-5.12-0.16-10.24-0.396-15.32-0.68c-3.64-0.16-7.24-0.356-10.8-0.6
							c-3.08-0.16-6.08-0.36-9.12-0.56c-1.24-0.08-2.48-0.16-3.68-0.236c-4.84-0.32-9.68-0.684-14.48-1.084
							c-1.6-0.076-3.16-0.236-4.76-0.356c-3.92-0.324-7.8-0.644-11.68-1.04c-1.76-0.124-3.52-0.284-5.28-0.48
							c-3.12-0.284-6.24-0.604-9.32-0.924c-3.44-0.32-6.84-0.68-10.28-1.076c-5.32-0.564-10.64-1.2-15.92-1.84
							c-10.68-1.32-21.28-2.724-31.84-4.284c-3.2-0.48-6.36-0.96-9.56-1.44c-7.76-1.2-15.48-2.436-23.16-3.756
							c-4.36-0.764-8.72-1.52-13.04-2.324c-0.52-0.08-1.04-0.196-1.56-0.28c-4.72-0.88-9.4-1.756-14.08-2.68
							c-0.48-0.076-1-0.16-1.48-0.28c-4.6-0.88-9.2-1.796-13.8-2.76c-0.72-0.16-1.4-0.28-2.12-0.44c-3.92-0.8-7.84-1.64-11.76-2.52
							c-7.24-1.556-14.48-3.2-21.68-4.876c-3.44-0.804-6.84-1.644-10.24-2.444c-15.44-3.756-30.68-7.756-45.76-12
							c-5.36-1.48-10.68-3.04-16-4.596c-4.12-1.204-8.2-2.444-12.28-3.68c-3.76-1.12-7.48-2.28-11.2-3.444
							c-3.8-1.196-7.56-2.396-11.32-3.6c-3.68-1.2-7.36-2.4-11.04-3.64c-1.32-0.4-2.64-0.84-3.92-1.276
							c-3.28-1.124-6.52-2.2-9.72-3.32c-1.92-0.68-3.84-1.324-5.76-2c-4.4-1.52-8.72-3.084-13.04-4.644
							c-5.12-1.84-10.24-3.68-15.28-5.6c-5.08-1.88-10.16-3.796-15.16-5.756c-5.04-1.964-10.04-3.924-15.04-5.924
							c-4.84-1.916-9.64-3.88-14.44-5.88c-5.08-2.076-10.16-4.236-15.24-6.396c-4.92-2.084-9.8-4.204-14.64-6.36
							c-4.52-2-9.04-4-13.52-6.044c-0.96-0.396-1.92-0.84-2.84-1.276c-4.2-1.924-8.4-3.84-12.56-5.8
							c-4.64-2.16-9.24-4.32-13.84-6.564c-19.44-9.316-38.52-19-57.24-29.04c-8.76-4.68-17.44-9.436-26.04-14.276
							c-5.08-2.844-10.08-5.684-15.08-8.564c-3.84-2.236-7.68-4.436-11.52-6.716c-3.72-2.16-7.4-4.36-11.08-6.604
							c-9.88-5.88-19.64-11.916-29.32-18c-3.44-2.2-6.88-4.36-10.28-6.556c-25.8-16.56-50.8-33.68-74.92-51.244
							c-3.72-2.68-7.4-5.4-11.08-8.116c-5.76-4.244-11.44-8.48-17.04-12.804c-3.04-2.28-6-4.556-9-6.876
							c-7.4-5.68-14.72-11.444-21.92-17.204c-3.36-2.68-6.72-5.4-10.04-8.116c-10.04-8.124-19.88-16.32-29.52-24.564
							c-2.24-1.88-4.44-3.796-6.64-5.68c-1.88-1.596-3.72-3.16-5.52-4.756c139.56,57.236,375.68,101.84,634.92-36
							c54.32,98.436,123.88,203.956,311.28,240.956c267,52.724,468.76,13.16,578.12-53.316c35.4-21.524,57.96-53.884,73.72-91.28
							c72.44-25.444,142.8-62.964,205.4-115.484c7.04,4.124,15.24,4.924,24.96,1.2
							C2955.154,2517.31,3028.473,2416.114,3091.674,2209.55"/>
					</g>
					<g style="opacity:0.5;">
						<g>
							<g>
								<path style="fill:#FFFFFF;" d="M3088.712,1981.952c-78.116,36.64-132.84,176.24-351.72,213.36
									c-300.716,51.04-542.396-263.764-545.876-268.32c26.396,19.92,52.036,38.64,77,56.04
									c186.356,129.92,336.64,187.96,508,147.56c204.076-48.08,218.356-172.96,293.68-162.48
									C3076.956,1969.112,3083.312,1973.868,3088.712,1981.952"/>
							</g>
						</g>
					</g>
					<g style="opacity:0.5;">
						<g>
							<g>
								<path style="fill:#FFFFFF;" d="M2268.115,1983.031c-144.32-67.84-488.44-405.28-755.64-421.32
									c-208.96-12.52-319.32,25.6-509.88,174.92c-94.08,73.72-171.16,96.28-215,102.88c108.88-44.24,149.72-210,377.76-294.88
									c298.036-110.92,528.44-21.32,816.44,215.484C2088.635,1847.951,2182.195,1923.151,2268.115,1983.031"/>
							</g>
						</g>
					</g>
					<g>
						<path style="fill:#FFFFFF;" d="M3091.674,2209.55c-66,298.884-353.88,768.68-1137.6,768.68
							c-723.04,0-1183.316-567.88-1287.12-806.4c-39-89.556-65.56-213.876-10.76-279.196c49.44,0.556,117.24,38.44,192.8,185.356
							c97.764,190.04,166.24,229.2,267.36,261.68c115.2,36.964,271.32-8.52,400.36,62.56c150.2,82.76,121.6,352,445.88,416
							c267,52.724,468.76,13.16,578.12-53.316c128.72-78.244,87.48-299.724,168.56-385.084c81.04-85.32,52.24,211.2,135.52,179.52
							C2955.154,2517.31,3028.473,2416.114,3091.674,2209.55"/>
					</g>
					<g>
						<path style="fill:#D3DDEA;" d="M3091.674,2209.55c-66,298.884-353.88,768.68-1137.6,768.68c-5.64,0-11.28-0.04-16.88-0.116
							c-3.8-0.04-7.56-0.084-11.32-0.2c-2.28,0-4.56-0.084-6.84-0.12c-2.56-0.084-5.12-0.16-7.68-0.244
							c-3.72-0.08-7.44-0.24-11.16-0.4c-5.12-0.16-10.24-0.396-15.32-0.68c-3.64-0.16-7.24-0.356-10.8-0.6
							c-3.08-0.16-6.08-0.36-9.12-0.56c-1.24-0.08-2.48-0.16-3.68-0.236c-4.84-0.32-9.68-0.684-14.48-1.084
							c-1.6-0.076-3.16-0.236-4.76-0.356c-3.92-0.324-7.8-0.644-11.68-1.04c-1.76-0.124-3.52-0.284-5.28-0.48
							c-3.12-0.284-6.24-0.604-9.32-0.924c-3.44-0.32-6.84-0.68-10.28-1.076c-5.32-0.564-10.64-1.2-15.92-1.84
							c-10.68-1.32-21.28-2.724-31.84-4.284c-3.2-0.48-6.36-0.96-9.56-1.44c-7.76-1.2-15.48-2.436-23.16-3.756
							c-4.36-0.764-8.72-1.52-13.04-2.324c-0.52-0.08-1.04-0.196-1.56-0.28c-4.72-0.88-9.4-1.756-14.08-2.68
							c-0.48-0.076-1-0.16-1.48-0.28c-4.6-0.88-9.2-1.796-13.8-2.76c-0.72-0.16-1.4-0.28-2.12-0.44c-3.92-0.8-7.84-1.64-11.76-2.52
							c-7.24-1.556-14.48-3.2-21.68-4.876c-3.44-0.804-6.84-1.644-10.24-2.444c-15.44-3.756-30.68-7.756-45.76-12
							c-5.36-1.48-10.68-3.04-16-4.596c-4.12-1.204-8.2-2.444-12.28-3.68c-3.76-1.12-7.48-2.28-11.2-3.444
							c-3.8-1.196-7.56-2.396-11.32-3.6c-3.68-1.2-7.36-2.4-11.04-3.64c-1.32-0.4-2.64-0.84-3.92-1.276
							c-3.28-1.124-6.52-2.2-9.72-3.32c-1.92-0.68-3.84-1.324-5.76-2c-4.4-1.52-8.72-3.084-13.04-4.644
							c-5.12-1.84-10.24-3.68-15.28-5.6c-5.08-1.88-10.16-3.796-15.16-5.756c-5.04-1.964-10.04-3.924-15.04-5.924
							c-4.84-1.916-9.64-3.88-14.44-5.88c-5.08-2.076-10.16-4.236-15.24-6.396c-4.92-2.084-9.8-4.204-14.64-6.36
							c-4.52-2-9.04-4-13.52-6.044c-0.96-0.396-1.92-0.84-2.84-1.276c-4.2-1.924-8.4-3.84-12.56-5.8
							c-4.64-2.16-9.24-4.32-13.84-6.564c-19.44-9.316-38.52-19-57.24-29.04c-8.76-4.68-17.44-9.436-26.04-14.276
							c-5.08-2.844-10.08-5.684-15.08-8.564c-3.84-2.236-7.68-4.436-11.52-6.716c-3.72-2.16-7.4-4.36-11.08-6.604
							c-9.88-5.88-19.64-11.916-29.32-18c-3.44-2.2-6.88-4.36-10.28-6.556c-25.8-16.56-50.8-33.68-74.92-51.244
							c-3.72-2.68-7.4-5.4-11.08-8.116c-5.76-4.244-11.44-8.48-17.04-12.804c-3.04-2.28-6-4.556-9-6.876
							c-7.4-5.68-14.72-11.444-21.92-17.204c-3.36-2.68-6.72-5.4-10.04-8.116c-10.04-8.124-19.88-16.32-29.52-24.564
							c-2.24-1.88-4.44-3.796-6.64-5.68c-1.88-1.596-3.72-3.16-5.52-4.756c139.56,57.236,375.68,101.84,634.92-36
							c54.32,98.436,123.88,203.956,311.28,240.956c267,52.724,468.76,13.16,578.12-53.316c35.4-21.524,57.96-53.884,73.72-91.28
							c72.44-25.444,142.8-62.964,205.4-115.484c7.04,4.124,15.24,4.924,24.96,1.2
							C2955.154,2517.31,3028.473,2416.114,3091.674,2209.55"/>
					</g>
					<g>
						<path style="fill:#3A3A3A;" d="M1954.059,2998.247L1954.059,2998.247c-399.827,0-703.652-172.954-888.125-318.042
							c-223.921-176.113-364.756-379.624-417.319-500.381c-18.542-42.588-74.831-188.765-20.676-281.609
							c23.169-39.722,62.393-62.732,116.58-68.394c58.665-6.13,94.138-46.741,143.237-102.947
							c57.808-66.179,129.751-148.54,270.622-200.972c325.679-121.235,569.79-0.22,836.121,218.76
							c322.08,264.824,531.897,424.199,777.019,366.47c111.44-26.255,163.555-76.479,201.606-113.154
							c30.891-29.775,57.583-55.466,99.424-49.675c40.327,5.601,60.381,67.151,53.643,164.641
							c-10.142,146.699-83.816,368.345-260.183,550.469c-98.23,101.436-218.459,181.235-357.346,237.188
							C2347.826,2965.391,2161.232,2998.247,1954.059,2998.247z M1409.785,1516.575c-76.902,0-154.624,15.986-237.451,46.814
							c-131.37,48.899-196.76,123.755-254.453,189.8c-50.928,58.303-94.912,108.652-169.207,116.418
							c-41.375,4.321-69.565,20.271-86.184,48.762c-35.496,60.854-11.497,166.714,22.8,245.488
							c50.708,116.499,187.3,313.394,405.371,484.907c179.509,141.187,475.017,309.482,863.399,309.482
							c378.723,0,675.879-108.56,883.215-322.661c168.875-174.385,239.358-385.747,249.011-525.4
							c6.138-88.833-13.433-121.458-19.241-122.263c-21.626-2.991-36.736,10.493-66.162,38.855
							c-41.389,39.888-98.069,94.521-220.193,123.291c-37.544,8.843-74.182,13.096-110.293,13.101
							c-217.258,0.024-416.987-153.838-701.304-387.607C1753.74,1598.494,1583.866,1516.575,1409.785,1516.575z"/>
					</g>
					<g>
						<path style="fill:#3A3A3A;" d="M1056.501,2172.237c1.696,79.604,67.604,142.764,147.212,141.072
							c79.604-1.696,142.764-67.608,141.068-147.212c-1.696-79.608-67.604-142.772-147.208-141.072
							C1117.961,2026.721,1054.801,2092.634,1056.501,2172.237"/>
					</g>
					<g>
						<path style="fill:#FFFFFF;" d="M1113.986,2106.085c0.388,18.128,15.4,32.512,33.528,32.124
							c18.124-0.384,32.508-15.396,32.124-33.524c-0.388-18.128-15.4-32.512-33.528-32.124
							C1127.986,2072.945,1113.602,2087.957,1113.986,2106.085"/>
					</g>
					<g>
						<path style="fill:#FFFFFF;" d="M1155.888,2202.5c0.764,36.096,30.652,64.736,66.748,63.964
							c36.096-0.764,64.732-30.652,63.968-66.748c-0.772-36.096-30.656-64.732-66.752-63.964
							C1183.756,2136.52,1155.12,2166.407,1155.888,2202.5"/>
					</g>
					<g>
						<path style="fill:#FFFFFF;" d="M1493.259,2314.066c-56.888-43.1-71.824-135.256-32.712-168.384
							c133.692-113.224,339.912,153.692,332.8,309.136C1789.451,2540.066,1554.199,2360.238,1493.259,2314.066"/>
					</g>
					<g>
						<path style="fill:#7C7C7C;" d="M3650.755,1846.472c-1.044,8.92-3.684,19.12-8.204,30.6c-9.88,25.48-28.88,57.36-59.88,95.76
							c-96.8,119.8-344.036,192.64-537.64,169.64l-11.52-101.48c0,0,1.764-8.24,6.964-21.604c0.036-0.076,0.076-0.196,0.12-0.276
							c18.36-46.96,78.68-156.12,251.076-192.88c123-26.2,169.604,22.4,302.924-22.4
							C3628.435,1792.472,3655.511,1806.352,3650.755,1846.472"/>
					</g>
					<g>
						<path style="fill:#606060;" d="M3642.552,1877.071c-9.88,25.48-28.88,57.36-59.88,95.76
							c-96.8,119.8-344.036,192.64-537.64,169.64c0,0-5.172-75.34,77.04-58.08
							C3335.392,2129.179,3564.956,1995.552,3642.552,1877.071"/>
					</g>
					<g style="opacity:0.5;">
						<g>
							<g>
								<path style="fill:#FFFFFF;" d="M3650.755,1846.472c-16.724-11.56-46.364-7.16-89.244,5.36
									c-94.916,27.76-132.6-7.08-257.076,13.52c-140.96,23.32-204.764,94.6-263.84,153.76
									c18.36-46.96,78.68-156.12,251.076-192.88c123-26.2,169.604,22.4,302.924-22.4
									C3628.435,1792.472,3655.511,1806.352,3650.755,1846.472"/>
							</g>
						</g>
					</g>
					<g>
						<path style="fill:#3A3A3A;" d="M3025.709,2039.312c1.484-8.544,3.452-16.024,5.964-23.744
							c2.42-7.656,5.348-15.112,8.572-22.448c6.368-14.712,14.248-28.744,23.124-42.144c9.028-13.288,19.02-25.976,30.06-37.716
							c11.068-11.708,23.068-22.548,35.808-32.416c25.444-19.824,53.92-35.432,83.516-47.592
							c29.752-12.024,60.384-20.636,91.888-26.456c15.8-2.796,31.856-4.616,47.94-5.404c16.072-0.752,32.148-0.44,47.88,0.452
							c31.544,1.876,61.332,5.3,90.452,4.144c29.108-1.012,57.832-6.408,86.068-15.148l10.556-3.408l2.96-0.956
							c1.104-0.36,2.22-0.7,3.356-1.008c2.252-0.652,4.568-1.208,6.932-1.68c9.396-1.868,19.836-2.508,30.908,0.34
							c5.5,1.42,11.1,3.864,16.18,7.416c5.056,3.564,9.488,8.228,12.696,13.36c6.528,10.364,8.448,21.496,8.66,31.272
							c0.184,9.904-1.36,18.944-3.444,27.528c-2.144,8.556-5.016,16.612-8.252,24.344c-6.468,15.476-14.42,29.692-22.948,43.344
							c-8.56,13.628-17.828,26.572-27.46,39.136c-9.428,12.332-20.212,25.172-31.756,36.668
							c-11.692,11.344-24.012,21.852-36.84,31.54c-12.956,9.472-26.144,18.592-39.904,26.6c-27.34,16.376-56.1,29.744-85.348,41.496
							c-29.292,11.68-59.316,21.16-89.692,29.092c-30.38,7.928-61.192,14.036-92.26,18.364c-7.76,1.124-15.552,2.032-23.36,2.792
							c-7.792,0.888-15.616,1.48-23.432,2.088c-15.66,0.912-31.348,1.516-47.04,1.264c-31.36-0.444-62.768-3.372-93.408-10.032
							c-4.336-0.944-7.092-5.224-6.144-9.56c0.824-3.796,4.204-6.38,7.948-6.328h0.08c30.484,0.384,60.68-0.188,90.816-2.084
							l22.56-1.716c7.508-0.788,15.024-1.304,22.504-2.304c7.496-0.792,14.992-1.552,22.46-2.616l11.204-1.504l11.176-1.716
							c29.816-4.476,59.38-10.672,88.44-18.588c29.052-7.92,57.7-17.308,85.436-28.724c27.684-11.468,54.748-24.424,80.032-39.948
							c12.792-7.548,24.9-16.004,36.736-24.716c11.676-8.896,22.74-18.432,33.1-28.544c10.192-10.288,19.208-21.052,28.432-33.176
							c9.032-11.876,17.632-24.008,25.38-36.468c7.72-12.444,14.736-25.224,20.072-38.168c5.312-12.82,9.136-26.252,9-37.412
							c-0.048-5.52-1.268-10.06-3.012-12.764c-1.736-2.696-3.812-4.3-7.736-5.404c-3.856-1.056-9.2-1.08-14.828,0.064
							c-1.408,0.276-2.836,0.604-4.284,1.02c-0.716,0.188-1.44,0.404-2.164,0.644l-2.532,0.8l-11.416,3.628
							c-30.544,9.336-62.812,15.316-95.224,16.288c-32.464,1.188-63.972-2.96-93.768-4.972c-14.964-1.004-29.684-1.428-44.344-0.904
							c-14.644,0.568-29.224,2.06-43.736,4.468c-29.024,5.044-57.984,12.876-85.38,23.648c-13.632,5.58-27.108,11.584-39.908,18.776
							c-6.552,3.336-12.72,7.304-19.04,11.028c-6.096,4.064-12.3,7.988-18.128,12.42c-23.768,17.108-45.148,37.536-63.256,60.716
							c-9.208,11.484-17.316,23.844-24.716,36.636c-3.64,6.424-7.096,12.976-10.232,19.66c-3.068,6.608-6.128,13.7-8.268,20.108
							l-0.172,0.528c-1.396,4.184-5.928,6.452-10.116,5.052C3027.253,2047,3025.037,2043.148,3025.709,2039.312"/>
					</g>
					<g>
						<path style="fill:#7C7C7C;" d="M2175.911,3193.71c-403.72,1.12-485.956-374.32-507.52-586.4
							c-1.36-13.16-2.48-25.716-3.4-37.48l364.804,57.48c-2.244,129.2,226.716,354.764,254.64,478.68
							C2296.391,3159.03,2271.511,3193.434,2175.911,3193.71"/>
					</g>
					<g>
						<path style="fill:#606060;" d="M2175.911,3193.71c-403.72,1.12-485.956-374.32-507.52-586.4c1.68,6.2,111,402.88,324.084,484
							c167.68,63.84,260.16,56.484,291.96,14.68C2296.391,3159.03,2271.511,3193.434,2175.911,3193.71"/>
					</g>
					<g>
						<path style="fill:#3A3A3A;" d="M1672.966,2569.206c5.864,33.216,11.164,66.264,17.22,99.084
							c3.072,16.404,6.16,32.772,9.696,49.024c3.304,16.3,7.052,32.484,11.048,48.584c15.896,64.356,38.232,127.124,70.052,184.432
							c31.928,57.108,74.256,108.044,126.328,146.204c25.872,19.296,54.648,34.388,84.548,46.44
							c14.804,6.464,30.476,10.724,45.896,15.552l23.676,5.572l5.92,1.4c1.976,0.444,4.004,0.676,6.004,1.028l12.04,1.944
							c15.956,3.152,32.292,4.152,48.516,5.812c4.048,0.512,8.156,0.468,12.244,0.628l12.268,0.368
							c8.14,0.152,16.468,0.756,24.396,0.392c15.98-0.336,31.804-1.728,46.18-5.26c3.708-0.728,6.932-2.06,10.4-3.06
							c1.636-0.612,3.168-1.32,4.764-1.96c0.784-0.332,1.608-0.628,2.36-0.988l2.132-1.168c5.808-3.012,10.604-6.644,13.82-10.948
							c3.284-4.268,5.376-9.212,6.368-15.14c0.992-5.9,0.824-12.64-0.148-19.644c-1.052-7.044-3.028-14.332-5.304-21.624
							c-2.544-7.3-5.212-14.656-8.528-21.948c-12.916-29.264-30.232-57.728-48.132-85.76
							c-36.14-56.096-76.008-110.664-112.688-168.052c-9.148-14.372-17.956-29.02-26.456-43.932
							c-8.244-15.048-16.312-30.3-23.228-46.228c-7.016-15.876-13.092-32.336-17.504-49.476c-4.312-17.092-6.82-35.192-5.06-53.312
							c0.428-4.404,4.352-7.636,8.76-7.208c3.86,0.376,6.816,3.432,7.204,7.148l0.032,0.34c1.644,15.644,5.612,31.052,11.504,46.056
							c1.412,3.768,2.84,7.52,4.488,11.232c1.528,3.728,3.24,7.412,4.98,11.088c3.392,7.376,7.056,14.684,10.892,21.916
							c7.744,14.436,15.88,28.788,24.636,42.852c8.516,14.204,17.552,28.184,26.688,42.14
							c36.484,55.948,76.768,110.004,114.244,166.948c18.604,28.608,36.86,57.732,51.544,90.072
							c3.72,8.036,6.972,16.488,9.972,25.104c2.792,8.776,5.304,17.784,6.784,27.432c1.38,9.668,1.884,19.964,0.14,30.708
							c-1.688,10.688-6.108,21.832-13.164,30.92c-6.976,9.212-16.092,15.872-25.156,20.64l-3.428,1.84
							c-1.148,0.552-2.3,1.004-3.452,1.504c-2.3,0.956-4.616,1.988-6.924,2.852c-4.6,1.432-9.256,3.2-13.824,4.156
							c-18.384,4.564-36.376,6.048-54.068,6.52c-8.928,0.412-17.452-0.172-26.168-0.304l-13.008-0.348
							c-4.336-0.156-8.672-0.108-13.004-0.628c-17.324-1.676-34.704-2.724-51.9-6.016l-12.916-2.136
							c-2.148-0.384-4.316-0.652-6.448-1.136l-6.388-1.524l-25.532-6.116c-16.728-5.252-33.652-9.992-49.784-17.056
							c-32.504-13.224-63.904-29.896-92.084-51.044c-28.296-20.924-54-45.216-76.492-72.016
							c-22.508-26.804-42.032-55.884-58.684-86.328c-33.148-61.06-55.692-126.74-71.496-193.356
							c-3.98-16.668-7.24-33.472-10.284-50.292c-2.796-16.86-5.336-33.752-7.164-50.712c-3.816-33.896-5.716-67.94-5.276-101.944
							c0.056-4.436,3.7-7.988,8.14-7.928c3.92,0.052,7.152,2.908,7.808,6.632V2569.206z"/>
					</g>
				</g>
			</g>
		</g>
		<g>
			<g>
				<g>
					<path style="fill:#B6FFFF;" d="M768.205,1649.07c-13.264,0-26.45-3.03-38.711-9.036
						c-21.145-10.361-36.992-28.337-44.619-50.613l0,0c-15.745-45.991,8.862-96.216,54.851-111.963
						c45.989-15.742,96.213,8.865,111.963,54.854c7.627,22.28,6.121,46.196-4.241,67.341
						c-10.359,21.147-28.335,36.992-50.615,44.619C787.472,1647.478,777.817,1649.07,768.205,1649.07z M768.224,1494.78
						c-7.082,0-14.282,1.147-21.348,3.567c-34.473,11.802-52.915,49.451-41.113,83.921v0.002
						c5.715,16.699,17.593,30.171,33.445,37.937c15.847,7.766,33.777,8.901,50.474,3.176c16.702-5.715,30.176-17.593,37.942-33.445
						c7.764-15.85,8.894-33.777,3.176-50.476C821.418,1512.056,795.698,1494.78,768.224,1494.78z"/>
				</g>
				<g>
					<g style="opacity:0.6;">
						
							<ellipse transform="matrix(0.4733 -0.8809 0.8809 0.4733 -936.5358 1505.3342)" style="fill:#FFFFFF;" cx="790.52" cy="1535.815" rx="19.864" ry="33.01"/>
					</g>
					<g style="opacity:0.6;">
						<path style="fill:#FFFFFF;" d="M736.809,1522.201c1.623,4.741,6.782,7.268,11.523,5.646c4.741-1.623,7.268-6.782,5.645-11.523
							c-1.623-4.741-6.782-7.268-11.523-5.645C737.713,1512.301,735.186,1517.46,736.809,1522.201z"/>
					</g>
				</g>
			</g>
			<g>
				<g>
					<path style="fill:#B6FFFF;" d="M567.619,1514.451c-13.581,0-27.09-3.103-39.646-9.255
						c-21.66-10.61-37.891-29.026-45.703-51.843l0,0c-7.81-22.817-6.27-47.312,4.341-68.97
						c10.613-21.66,29.023-37.891,51.843-45.703c47.1-16.118,98.547,9.077,114.675,56.182c7.81,22.82,6.269,47.314-4.343,68.975
						c-10.613,21.658-29.023,37.888-51.843,45.701C587.353,1512.82,577.468,1514.451,567.619,1514.451z M567.641,1355.884
						c-7.314,0-14.741,1.187-22.039,3.684c-17.239,5.901-31.147,18.164-39.165,34.526c-8.018,16.365-9.182,34.868-3.279,52.109l0,0
						c5.901,17.239,18.164,31.147,34.526,39.165c16.365,8.025,34.868,9.192,52.107,3.279c17.241-5.901,31.152-18.164,39.167-34.526
						c8.018-16.362,9.185-34.868,3.281-52.109C622.555,1373.721,596,1355.884,567.641,1355.884z"/>
				</g>
				<g>
					<g style="opacity:0.6;">
						
							<ellipse transform="matrix(0.4733 -0.8809 0.8809 0.4733 -922.1127 1254.2933)" style="fill:#FFFFFF;" cx="587.802" cy="1398.231" rx="19.864" ry="33.01"/>
					</g>
					<g style="opacity:0.6;">
						<path style="fill:#FFFFFF;" d="M534.091,1384.616c1.623,4.741,6.782,7.268,11.523,5.645c4.741-1.623,7.268-6.782,5.645-11.523
							c-1.623-4.741-6.782-7.268-11.523-5.645C534.996,1374.717,532.468,1379.876,534.091,1384.616z"/>
					</g>
				</g>
			</g>
			<g>
				<g>
					<path style="fill:#B6FFFF;" d="M572.27,1284.951c-8.779,0-17.51-2.007-25.627-5.981c-13.999-6.858-24.49-18.76-29.539-33.508
						c-5.049-14.749-4.053-30.581,2.808-44.58c6.858-13.999,18.757-24.49,33.508-29.539c14.746-5.051,30.581-4.053,44.578,2.808
						c13.999,6.858,24.49,18.757,29.539,33.508c5.049,14.746,4.053,30.579-2.805,44.578c-6.858,13.999-18.76,24.49-33.508,29.539
						C585.026,1283.896,578.635,1284.951,572.27,1284.951z M572.353,1190.256c-3.958,0-7.93,0.654-11.785,1.975
						c-9.17,3.137-16.567,9.661-20.833,18.364c-4.263,8.704-4.883,18.547-1.743,27.717c3.137,9.167,9.661,16.567,18.364,20.83
						c8.704,4.27,18.55,4.89,27.715,1.743c9.17-3.137,16.57-9.661,20.833-18.362c4.265-8.704,4.883-18.547,1.743-27.715
						c-3.137-9.172-9.661-16.57-18.362-20.835C583.239,1191.504,577.809,1190.256,572.353,1190.256z"/>
				</g>
				<g style="opacity:0.6;">
					<path style="fill:#FFFFFF;" d="M564.991,1217.49c2.665,7.785,11.136,11.935,18.92,9.27c7.784-2.665,11.935-11.136,9.27-18.92
						c-2.665-7.785-11.136-11.935-18.92-9.27C566.476,1201.234,562.326,1209.705,564.991,1217.49z"/>
				</g>
			</g>
			<g>
				<g>
					<path style="fill:#B6FFFF;" d="M726.132,1333.816c-19.834,0.002-38.398-12.468-45.171-32.256
						c-8.521-24.883,4.795-52.061,29.68-60.583c24.898-8.518,52.065,4.8,60.583,29.685c4.126,12.053,3.313,24.995-2.292,36.438
						c-5.608,11.443-15.334,20.017-27.39,24.143C736.445,1332.988,731.244,1333.816,726.132,1333.816z M726.071,1260.481
						c-2.747,0-5.537,0.447-8.279,1.384c-13.367,4.578-20.52,19.177-15.942,32.544v0.002c4.575,13.369,19.163,20.518,32.544,15.942
						c6.475-2.217,11.699-6.821,14.712-12.969c3.01-6.147,3.45-13.098,1.231-19.573
						C746.698,1267.183,736.725,1260.481,726.071,1260.481z"/>
				</g>
				<g style="opacity:0.6;">
					<path style="fill:#FFFFFF;" d="M721.726,1281.472c1.724,5.037,7.205,7.722,12.242,5.998c5.037-1.724,7.722-7.206,5.998-12.243
						c-1.724-5.037-7.206-7.722-12.243-5.998S720.002,1276.435,721.726,1281.472z"/>
				</g>
			</g>
			<g>
				<g>
					<g>
						<path style="fill:#B6FFFF;" d="M800.717,776.597c-0.195,0-0.388-0.003-0.586-0.005c-12.571-0.156-24.331-5.195-33.11-14.194
							c-8.779-8.999-13.53-20.879-13.374-33.45c0.154-12.573,5.195-24.331,14.194-33.113c9.002-8.779,21.013-13.508,33.45-13.374
							c12.571,0.156,24.331,5.195,33.11,14.194c8.779,8.999,13.53,20.879,13.374,33.45
							C847.46,755.859,826.403,776.594,800.717,776.597z M800.7,697.175c-8.489,0-16.494,3.257-22.581,9.194
							c-6.184,6.035-9.651,14.119-9.756,22.759l0,0c-0.22,17.837,14.111,32.527,31.948,32.747
							c17.749,0.315,32.529-14.114,32.747-31.951c0.107-8.64-3.157-16.804-9.192-22.991c-6.035-6.184-14.116-9.648-22.756-9.756
							C800.973,697.175,800.834,697.175,800.7,697.175z"/>
					</g>
				</g>
				<g style="opacity:0.6;">
					<path style="fill:#FFFFFF;" d="M793.877,725.045c-0.084,6.808,5.367,12.395,12.175,12.479
						c6.808,0.084,12.395-5.367,12.479-12.175c0.084-6.808-5.367-12.395-12.175-12.479
						C799.548,712.786,793.961,718.237,793.877,725.045z"/>
				</g>
			</g>
			<g>
				<g>
					<path style="fill:#B6FFFF;" d="M798.246,973.875c-0.178,0-0.357,0-0.537-0.002c-11.36-0.139-21.982-4.695-29.917-12.827
						c-7.932-8.13-12.222-18.865-12.083-30.222c0.139-11.36,4.695-21.983,12.825-29.915c8.132-7.932,18.772-12.268,30.222-12.085
						c11.36,0.139,21.982,4.695,29.915,12.825c7.934,8.13,12.224,18.865,12.085,30.222c-0.139,11.36-4.695,21.982-12.825,29.917
						C819.931,969.595,809.406,973.875,798.246,973.875z M798.224,903.538c-7.297,0-14.18,2.8-19.412,7.905
						c-5.317,5.186-8.294,12.134-8.386,19.561c-0.09,7.429,2.715,14.448,7.903,19.763c5.185,5.317,12.134,8.296,19.56,8.389
						c7.458,0.071,14.443-2.715,19.763-7.903c5.315-5.188,8.294-12.136,8.386-19.563c0.09-7.427-2.715-14.446-7.903-19.763
						c-5.185-5.317-12.134-8.293-19.56-8.386C798.459,903.538,798.342,903.538,798.224,903.538z"/>
				</g>
				<g style="opacity:0.6;">
					<path style="fill:#FFFFFF;" d="M791.491,918.839c-0.047,3.804,2.999,6.926,6.803,6.973c3.804,0.047,6.926-2.999,6.973-6.803
						c0.047-3.804-2.999-6.926-6.803-6.973C794.66,911.99,791.538,915.036,791.491,918.839z"/>
				</g>
			</g>
			<g>
				<g>
					<g>
						<path style="fill:#B6FFFF;" d="M610.011,1702.039c-6.101,0-12.17-1.394-17.813-4.158c-9.731-4.768-17.021-13.04-20.532-23.291
							l0,0c-3.511-10.251-2.817-21.257,1.951-30.989c4.768-9.731,13.039-17.021,23.291-20.532
							c10.247-3.508,21.252-2.82,30.986,1.951c9.732,4.768,17.021,13.04,20.532,23.291c7.244,21.16-4.08,44.272-25.239,51.521
							C618.879,1701.306,614.435,1702.039,610.011,1702.039z M610.026,1635.598c-2.771,0-5.586,0.449-8.352,1.396
							c-6.531,2.236-11.802,6.882-14.841,13.083c-3.037,6.199-3.479,13.21-1.24,19.741v0.002
							c2.236,6.533,6.882,11.804,13.083,14.841c6.199,3.037,13.206,3.481,19.744,1.243c13.484-4.617,20.698-19.346,16.082-32.83
							C630.832,1642.356,620.771,1635.598,610.026,1635.598z"/>
					</g>
				</g>
				<g style="opacity:0.6;">
					
						<ellipse transform="matrix(0.9424 -0.3346 0.3346 0.9424 -517.524 299.303)" style="fill:#FFFFFF;" cx="609.985" cy="1651.8" rx="11.393" ry="11.393"/>
				</g>
			</g>
			<g>
				<g>
					<path style="fill:#B6FFFF;" d="M429.919,1384.968c-15.054,0-29.146-9.465-34.287-24.48
						c-6.465-18.887,3.64-39.514,22.527-45.981c18.894-6.475,39.514,3.643,45.981,22.527c6.462,18.889-3.643,39.514-22.527,45.981
						C437.741,1384.338,433.798,1384.968,429.919,1384.968z M429.875,1334.631c-1.516,0-3.054,0.247-4.563,0.764
						c-7.371,2.522-11.316,10.571-8.792,17.939c2.522,7.371,10.571,11.321,17.942,8.792c7.368-2.522,11.311-10.571,8.789-17.942
						C441.247,1338.325,435.746,1334.631,429.875,1334.631z"/>
				</g>
				<g style="opacity:0.6;">
					<path style="fill:#FFFFFF;" d="M420.802,1344.46c1.68,4.907,7.02,7.523,11.927,5.843c4.907-1.68,7.523-7.02,5.843-11.927
						c-1.68-4.907-7.02-7.523-11.927-5.843C421.739,1334.213,419.123,1339.553,420.802,1344.46z"/>
				</g>
			</g>
		</g>
	</g>
</g>
</svg>
