<?xml version="1.0" encoding="utf-8"?>
<!-- Generator: Adobe Illustrator 27.5.0, SVG Export Plug-In . SVG Version: 6.00 Build 0)  -->
<svg version="1.1" id="Layer_2" xmlns="http://www.w3.org/2000/svg" xmlns:xlink="http://www.w3.org/1999/xlink" x="0px" y="0px"
	 viewBox="0 0 692.413 490.045" style="enable-background:new 0 0 692.413 490.045;" xml:space="preserve">
<g>
	<g>
		<g>
			<g>
				<path style="fill:#D7F7FF;" d="M392.84,324.99c-64.111,0.931-180.571-1.863-245.273,0c-64.7,1.863-97.638,23.762-57.642,41.002
					c39.997,17.239-107.638,25.625-64.7,59.173c42.937,33.547,128.813,14.443,195.276,43.331
					c66.466,28.887,90.582-19.104,181.751-15.376c91.168,3.727,203.509-3.262,160.574-34.013
					c-42.938-30.75,81.757-44.263,106.461-57.309c24.704-13.047-29.613-38.215-157.046-37.465
					C384.81,325.084,392.84,324.99,392.84,324.99z"/>
				<path style="fill:#A4E7FC;" d="M396.518,324.954c-58.445,0.881-164.609-1.764-223.59,0c-58.98,1.764-89.007,22.486-52.546,38.8
					c36.461,16.313-98.122,24.25-58.981,55.995c39.142,31.745,117.426,13.668,178.015,41.004
					c60.589,27.336,82.573-18.077,165.682-14.55c83.109,3.527,185.52-3.086,146.379-32.186
					c-39.143-29.099,74.529-41.886,97.048-54.231c22.52-12.345-26.994-36.163-143.162-35.453
					C389.198,325.043,396.518,324.954,396.518,324.954z"/>
				<path style="fill:#77D1F6;" d="M389.128,324.912c-51.532,0.824-145.142-1.649-197.148,0
					c-52.005,1.648-78.481,21.019-46.332,36.267c32.149,15.249-86.518,22.667-52.005,52.34
					c34.513,29.673,103.538,12.776,156.961,38.328s72.807-16.897,146.088-13.6c73.28,3.297,163.58-2.885,129.068-30.085
					s65.716-39.152,85.572-50.692c19.857-11.54-23.803-33.803-126.231-33.139C382.673,324.996,389.128,324.912,389.128,324.912z"/>
			</g>
			<path style="opacity:0.53;fill:#38ABED;" d="M308.189,359.983c-7.554-8.535-13.961-17.823-25.436-19.674
				c-11.476-1.851-14.183-9.174,0-8.075c14.183,1.099,17.485,3.081,26.55-2.306c9.065-5.387,14.864,11.098,34.342,5.053
				c19.48-6.044,26.728-6.32,33.347,0c6.619,6.32,8.454-2.457,8.454-2.457s4.154,6.842,20.858,3.825
				c16.704-3.017,13.869,9.621,0,15.117c-13.867,5.495-15.129,10.716-31.833,7.144c-16.706-3.572-20.804-4.397-32.937,0.275
				C329.401,363.556,318.837,372.013,308.189,359.983z"/>
			<path style="fill:#77D1F6;" d="M255.805,342.674c0,0,26.948-11.128,40.659,0c13.711,11.128,8.037,18.546,23.639,12.776
				c15.602-5.77,37.35-14.837,60.516-5.77c23.166,9.067,4.728-11.128,33.094-6.182c28.366,4.946,2.364-11.952,24.111-5.77
				c21.748,6.182,35.458,30.085-78.008,32.558C246.349,372.759,205.69,355.038,255.805,342.674z"/>
			<path style="opacity:0.61;fill:#A4E7FC;" d="M145.772,379.765c15.731,0-30.076,8.756-8.355,14.793
				c21.722,6.038-5.277,18.006,51.798,21.132c11.028,0.604,25.547,3.499,57.629,2.593c32.081-0.906-21.371,12.425-47.688,6.085
				c-26.317-6.34-47.37,6.567-61.656-12.68c-14.286-19.245-21.805-13.132-26.567-19.245
				C106.171,386.332,130.733,379.765,145.772,379.765z"/>
			<path style="opacity:0.61;fill:#A4E7FC;" d="M333.056,410.699c22.257-0.165,56.258,7.823,74.244-2.366
				c17.986-10.189,27.925-16.529,57.98-19.019c30.056-2.49,33.329-14.719,29.306-18.795c-4.024-4.075,39.091,10.158,5.014,21.659
				c-34.079,11.5-59.771,10.721-78.403,20.684c-18.63,9.962-34.723,14.037-60.992,9.736
				C333.937,418.296,302.527,410.925,333.056,410.699z"/>
			<path style="opacity:0.61;fill:#A4E7FC;" d="M465.701,326.869c0,0,27.883-1.45,46.858,0c18.976,1.451,9.784,3.728,21.679,6.836
				c11.897,3.107,4.532,12.636-25.772,18.644c-30.304,6.007,5.664-3.828,9.062-7.714c3.4-3.886,1.983-8.236-8.495-9.894
				C498.553,333.083,504.501,327.49,465.701,326.869z"/>
			<path style="opacity:0.61;fill:#A4E7FC;" d="M208.838,344.588c0,0-17.544,2.092-16.04,4.583c1.503,2.49,35.589,2.49,21.053,8.151
				c-14.538,5.66-2.757,9.963,15.038,11.095c17.795,1.132,38.347,7.698,67.671,8.83c29.323,1.132,40.101,12,70.427,5.886
				c30.328-6.113,34.839-5.886,57.396-2.49c22.557,3.397,33.34-8.788,25.07-12.184c0,0,18.291,4.939,18.791,9.468
				c0.502,4.529-9.524,11.321-45.616,8.151c-36.091-3.17-42.308,9.51-75.794,10.641c-33.483,1.133-43.509-16.076-73.585-13.585
				c-30.076,2.491-33.585-6.566-64.413-3.17c-30.828,3.397-37.846-9.126-28.321-14.751c9.524-5.626-3.259-8.279-13.034-8.991
				C157.708,355.51,157.708,342.043,208.838,344.588z"/>
			<path style="opacity:0.53;fill:#38ABED;" d="M151.321,379.765c14.837,0-28.367,7.969-7.879,13.464
				c20.487,5.495-4.978,16.387,48.854,19.232c10.401,0.55,16.704,6.594,46.962,5.77c30.258-0.824-12.765,7.899-37.586,2.129
				c-24.821-5.77-44.677,5.976-58.151-11.54c-13.474-17.515-20.566-11.952-25.057-17.515
				C113.972,385.741,137.138,379.765,151.321,379.765z"/>
			<path style="opacity:0.53;fill:#38ABED;" d="M335.468,410.675c22.231-0.15,52.005,3.503,69.971-5.77
				c17.966-9.273,27.894-15.043,57.915-17.309c30.021-2.267,34.276-14.837,30.258-18.546c-4.019-3.709,27.657,10.801-6.383,21.267
				c-34.04,10.467-49.298,9.642-67.908,18.709c-18.61,9.067-34.684,12.776-60.923,8.861
				C332.158,413.972,304.973,410.881,335.468,410.675z"/>
			<path style="opacity:0.53;fill:#38ABED;" d="M464.063,327.013c0,0,23.271-1.442,39.109,0c15.838,1.443,8.168,3.709,18.097,6.8
				c9.928,3.091,3.782,12.57-21.511,18.546c-25.294,5.976,4.728-3.807,7.564-7.673c2.837-3.866,1.655-8.194-7.092-9.842
				C491.483,333.195,496.448,327.631,464.063,327.013z"/>
			<path style="opacity:0.53;fill:#38ABED;" d="M213.491,344.685c0,0-16.547,1.904-15.129,4.17
				c1.418,2.267,33.567,2.267,19.857,7.418c-13.71,5.152-2.6,9.067,14.183,10.097c16.784,1.03,36.167,7.006,63.825,8.037
				c27.657,1.03,37.823,10.921,66.425,5.358c28.603-5.564,32.858-5.358,54.133-2.267c21.275,3.091,37.586-7.006,29.785-10.097
				c0,0,11.11,3.503,11.583,7.624c0.473,4.121-8.983,10.303-43.022,7.418c-34.04-2.885-39.903,8.655-71.485,9.685
				c-31.58,1.03-41.036-14.631-69.402-12.364c-28.367,2.267-31.676-5.976-60.752-2.885c-29.076,3.091-35.694-8.305-26.712-13.426
				c8.983-5.12-3.073-7.535-12.292-8.182C165.268,354.625,165.268,342.37,213.491,344.685z"/>
			<path style="opacity:0.61;fill:#A4E7FC;" d="M498.023,401.055c0,0,10.087,15.19-27.421,18.381
				c-37.506,3.191-62.72,5.938-74.067,9.785c0,0,29.659-5.172,61.634-4.921C490.145,424.55,522.293,419.323,498.023,401.055z"/>
			<path style="opacity:0.61;fill:#A4E7FC;" d="M557.593,334.981c0,0,47.822,13.337-27.105,25.002
				C530.487,359.983,619.369,348.444,557.593,334.981z"/>
			<path style="opacity:0.61;fill:#A4E7FC;" d="M168.341,366.577c0,0-26.161,20.607,38.768,19.233
				C207.109,385.81,160.527,385.888,168.341,366.577z"/>
			<path style="fill:#77D1F6;" d="M437.823,337.728c-20.979-5.964,2.471,9.548-21.314,6.211c-1.764,2.73-5.286,5.578-10.205,7.527
				c-13.867,5.495-15.129,10.716-31.833,7.144c-16.706-3.572-20.804-4.397-32.937,0.275c-12.134,4.671-22.697,13.129-33.345,1.099
				c-7.554-8.535-13.961-17.823-25.436-19.674c-3.062-0.494-5.492-1.379-7.151-2.388c-10.47,0.906-19.798,4.753-19.798,4.753
				c-50.114,12.364-9.455,30.085,104.011,27.613C473.282,367.814,459.571,343.91,437.823,337.728z"/>
			<path style="fill:#77D1F6;" d="M308.189,359.983c10.648,12.03,21.211,3.572,33.345-1.099c12.133-4.671,16.231-3.847,32.937-0.275
				c16.704,3.572,17.966-1.648,31.833-7.144c4.92-1.949,8.442-4.797,10.205-7.527c-0.87-0.122-1.797-0.266-2.798-0.441
				c-28.367-4.946-9.928,15.249-33.094,6.182c-23.166-9.067-44.914,0-60.516,5.77c-15.602,5.77-9.928-1.648-23.639-12.776
				c-5.646-4.582-13.533-5.387-20.861-4.753c1.658,1.009,4.089,1.894,7.151,2.388C294.229,342.16,300.635,351.448,308.189,359.983z"
				/>
			<path style="opacity:0.53;fill:#38ABED;" d="M308.189,359.983c10.648,12.03,21.211,3.572,33.345-1.099
				c12.133-4.671,16.231-3.847,32.937-0.275c16.704,3.572,17.966-1.648,31.833-7.144c4.92-1.949,8.442-4.797,10.205-7.527
				c-0.87-0.122-1.797-0.266-2.798-0.441c-28.367-4.946-9.928,15.249-33.094,6.182c-23.166-9.067-44.914,0-60.516,5.77
				c-15.602,5.77-9.928-1.648-23.639-12.776c-5.646-4.582-13.533-5.387-20.861-4.753c1.658,1.009,4.089,1.894,7.151,2.388
				C294.229,342.16,300.635,351.448,308.189,359.983z"/>
			<path style="opacity:0.61;fill:#A4E7FC;" d="M268.097,330.104c0,0-23.402-2.473-25.057,4.327
				c-1.655,6.8,13.474,7.006,25.057,8.655c11.583,1.648,23.875,8.655,30.021,17.103c6.146,8.449,13.712,10.432,20.802,10.331
				c0,0-17.02,3.001-23.875-7.065c-6.855-10.066-23.166-13.149-35.458-13.153c-12.292-0.004-35.931-3.089-37.349-12.571
				C220.819,328.249,254.386,325.983,268.097,330.104z"/>
			<path style="opacity:0.61;fill:#A4E7FC;" d="M339.318,364.723c0,0,11.278-7.83,32.317-2.679
				c21.038,5.152,26.712,1.03,38.058-5.564c11.347-6.594,38.768-8.233,38.768-16.171c0-7.938-20.802-9.999-37.113-7.526
				c0,0,42.11-8.233,46.821,7.526c4.711,15.759-23.419,13.492-33.82,16.377c-10.401,2.885-16.383,11.133-31.711,12.071
				C377.308,369.695,357.354,356.48,339.318,364.723z"/>
			<path style="fill:#A4E7FC;" d="M323.098,354.334c0,0,23.171-14.408,40.74-11.66c17.566,2.747,21.489,8.622,21.489,8.622
				S358.713,338.965,323.098,354.334z"/>
			<path style="fill:#A4E7FC;" d="M286.771,334.981c0,0-8.552-0.233,3.878,4.452c12.429,4.685,17.54,16.586,17.54,16.586
				s-8.417-13.13-19.763-15.711C277.079,337.728,277.867,334.157,286.771,334.981z"/>
		</g>
	</g>
	<g>
		<g>
			<path style="fill:#77D1F6;" d="M489.766,325.688c0,0,3.151-44.784,17.02-57.698c13.868-12.914,25.845-2.473,16.074,11.265
				S494.809,308.653,489.766,325.688z"/>
			<path style="opacity:0.53;fill:#38ABED;" d="M517.016,262.288c1.717,0.495,3.122,1.408,3.875,2.955
				c3.31,6.8-20.42,27.998-25.53,41.625c-2.309,6.155-3.637,7.537-4.099,5.562c-1.106,7.729-1.496,13.258-1.496,13.258
				c5.043-17.035,23.324-32.695,33.094-46.433C530.048,269.15,525.461,260.841,517.016,262.288z"/>
			<path style="opacity:0.48;fill:#A4E7FC;" d="M494.888,300.983c0,0,1.339-17.469,9.534-28.734
				c8.195-11.265,11.977-6.456,8.195-2.61C508.835,273.486,498.119,284.382,494.888,300.983z"/>
		</g>
		<g>
			<path style="fill:#77D1F6;" d="M506.483,339.506c0.017,0.001,0.287-2.089,1.367-5.353c1.077-3.252,3.076-7.715,6.516-12.097
				c3.39-4.381,8.297-8.588,13.712-11.212c5.385-2.658,11.129-3.704,15.362-2.758c4.246,0.937,7,2.879,8.42,4.972
				c1.465,2.11,1.403,4.358,1.056,6.258c-0.366,1.913-1.273,3.542-2.689,4.649c-1.427,1.112-3.35,1.69-6.075,1.603
				c-2.73-0.083-5.898-0.245-9.374-0.101c-3.469,0.14-7.245,0.601-10.959,1.624c-3.711,1.013-7.343,2.59-10.395,4.706
				C510.37,333.908,507.908,336.547,506.483,339.506z"/>
			<path style="opacity:0.53;fill:#38ABED;" d="M552.083,313.423c0.141,1.573-0.133,3.044-0.905,4.265
				c-0.854,1.345-2.695,1.731-5.343,1.856c-2.638,0.122-6.109,0.001-9.987,0.254c-3.864,0.237-8.127,0.876-11.965,2.11
				c-3.837,1.215-7.212,3.006-9.256,5.049c-1.845,1.845-3.033,2.971-3.826,3.402c-0.782,0.435-1.16,0.178-1.152-0.67
				c-2.661,5.668-3.124,9.827-3.166,9.816c1.425-2.959,3.887-5.598,6.943-7.708c3.053-2.117,6.684-3.694,10.395-4.706
				c3.714-1.022,7.49-1.483,10.959-1.624c3.477-0.145,6.645,0.018,9.374,0.101c3.986,0.138,6.333-1.205,7.73-3.49
				c0.688-1.137,1.074-2.497,1.193-3.983C553.211,316.613,553.041,314.983,552.083,313.423z"/>
			<path style="opacity:0.48;fill:#A4E7FC;" d="M516.14,322.327c0.012,0.021,1.809-3.208,5.853-6.639
				c2.009-1.707,4.579-3.431,7.516-4.736c2.929-1.309,6.22-2.186,9.443-2.305c3.223-0.117,5.496,0.328,6.981,0.908
				c1.489,0.588,2.201,1.318,2.395,1.958c0.359,1.29-1.187,2.225-3.368,1.749c-2.179-0.474-6.609-1.281-12.193-0.32
				c-2.77,0.476-5.794,1.398-8.711,2.936C521.144,317.41,518.346,319.563,516.14,322.327z"/>
		</g>
		<g>
			<path style="fill:#77D1F6;" d="M536.334,293.846c0.018,0.004,0.746-2.13,2.628-5.354c1.874-3.212,5.037-7.534,9.816-11.531
				c4.72-4.005,11.122-7.575,17.78-9.41c6.631-1.875,13.341-2.011,17.941-0.319c4.615,1.684,7.341,4.168,8.526,6.586
				c1.233,2.444,0.708,4.778-0.068,6.702c-0.801,1.935-2.156,3.481-3.982,4.401c-1.84,0.921-4.132,1.205-7.198,0.66
				c-3.073-0.54-6.625-1.238-10.588-1.665c-3.955-0.432-8.321-0.578-12.73-0.13c-4.404,0.438-8.832,1.478-12.714,3.177
				C541.864,288.655,538.543,290.998,536.334,293.846z"/>
			<path style="opacity:0.53;fill:#38ABED;" d="M593.201,274.235c-0.159,1.664-0.765,3.153-1.885,4.296
				c-1.238,1.261-3.399,1.357-6.42,1.047c-3.009-0.312-6.913-1.016-11.353-1.397c-4.42-0.396-9.372-0.439-13.966,0.208
				c-4.587,0.629-8.768,1.934-11.493,3.726c-2.461,1.617-4.032,2.593-5.017,2.911c-0.972,0.323-1.347-0.008-1.169-0.891
				c-4.155,5.467-5.517,9.728-5.563,9.71c2.209-2.848,5.529-5.191,9.412-6.883c3.882-1.699,8.31-2.74,12.714-3.177
				c4.409-0.448,8.775-0.301,12.73,0.13c3.962,0.427,7.515,1.124,10.588,1.665c4.483,0.807,7.41-0.203,9.452-2.353
				c1.008-1.072,1.719-2.425,2.153-3.955C593.834,277.751,593.97,276.022,593.201,274.235z"/>
			<path style="opacity:0.48;fill:#A4E7FC;" d="M550.729,277.539c0.009,0.024,2.695-3.044,7.964-5.949
				c2.618-1.445,5.874-2.816,9.461-3.687c3.579-0.878,7.48-1.245,11.151-0.833c3.671,0.415,6.154,1.256,7.718,2.109
				c1.566,0.861,2.224,1.741,2.315,2.44c0.146,1.405-1.792,2.123-4.164,1.263c-2.37-0.857-7.22-2.436-13.734-2.363
				c-3.23,0.035-6.84,0.494-10.45,1.612C557.385,273.244,553.784,275.024,550.729,277.539z"/>
		</g>
		<g>
			<path style="fill:#77D1F6;" d="M158.594,340.564c-0.015,0,0.204-2.057,0.098-5.359c-0.101-3.298-0.555-7.874-1.941-12.764
				c-1.358-4.883-3.695-10.068-6.895-14.334c-3.168-4.273-7.182-7.577-10.99-8.881c-3.805-1.313-6.966-1.291-9.128-0.553
				c-2.195,0.737-3.269,2.228-3.801,3.683c-0.537,1.468-0.42,3.041,0.41,4.578c0.835,1.541,2.383,3.042,4.848,4.487
				c4.92,2.86,11.281,6.487,16.688,11.502C153.291,327.876,157.621,334.15,158.594,340.564z"/>
			<path style="opacity:0.53;fill:#38ABED;" d="M129.383,298.814c-0.842,0.989-1.28,2.103-1.148,3.316
				c0.148,1.336,1.616,2.548,3.844,3.997c2.225,1.443,5.213,3.14,8.314,5.228c3.103,2.074,6.302,4.542,8.963,7.184
				c2.66,2.637,4.778,5.431,5.83,7.95c0.955,2.273,1.601,3.685,2.109,4.338c0.502,0.654,0.856,0.549,1.06-0.199
				c0.67,5.871,0.206,9.936,0.238,9.935c-0.972-6.414-5.303-12.687-10.711-17.641c-5.407-5.015-11.768-8.642-16.688-11.502
				c-3.619-2.118-5.286-4.389-5.549-6.667c-0.124-1.131,0.119-2.249,0.717-3.289c0.248-0.547,0.652-1.041,1.155-1.492
				C127.989,299.504,128.63,299.118,129.383,298.814z"/>
			<path style="opacity:0.48;fill:#A4E7FC;" d="M155.298,322.003c-0.011,0.007-0.486-3.34-2.452-7.657
				c-0.986-2.149-2.348-4.533-4.139-6.771c-1.785-2.238-3.994-4.332-6.498-5.888c-2.505-1.556-4.528-2.309-5.991-2.603
				c-1.467-0.293-2.382-0.13-2.824,0.216c-0.873,0.708,0.027,2.1,2.035,2.825c2.012,0.72,5.939,2.271,9.976,5.496
				C149.428,310.804,153.487,315.722,155.298,322.003z"/>
		</g>
		<g>
			<path style="fill:#77D1F6;" d="M105.46,325.01c-0.011,0.002-0.516-1.95-1.734-4.98c-1.225-3.023-3.199-7.146-6.33-11.32
				c-3.098-4.161-7.486-8.38-12.794-11.163c-2.631-1.392-5.455-2.41-8.183-2.923c-2.726-0.518-5.341-0.527-7.482-0.062
				c-4.308,0.939-6.774,2.966-7.665,4.832c-0.23,0.472-0.367,0.937-0.41,1.384c-0.061,0.451-0.086,0.895-0.06,1.32
				c0.051,0.852,0.305,1.612,0.874,2.251c0.142,0.16,0.304,0.311,0.486,0.457l0.141,0.109l0.021,0.128
				c0.022,0.082,0.101,0.155,0.151,0.232c0.227,0.302,0.474,0.584,0.737,0.844c0.527,0.521,1.121,0.959,1.793,1.3
				c1.355,0.69,2.986,0.973,5.42,0.909c2.434-0.064,5.402,0.025,8.67,0.564c3.261,0.53,6.794,1.503,10.201,2.94
				C96.131,314.691,102.357,319.384,105.46,325.01z"/>
			<path style="opacity:0.53;fill:#38ABED;" d="M61.144,299.715c0.249,1.213,0.877,2.251,1.844,3.046
				c1.073,0.877,2.784,0.902,5.282,0.872c2.48-0.039,5.798-0.072,9.501,0.485c3.689,0.534,7.699,1.649,11.211,3.23
				c3.521,1.57,6.536,3.56,8.422,5.593c1.701,1.839,2.799,2.965,3.504,3.427c0.7,0.463,0.997,0.268,0.931-0.485
				c2.648,5.265,3.591,9.132,3.62,9.127c-3.103-5.626-9.33-10.319-16.164-13.177c-3.406-1.437-6.94-2.41-10.201-2.94
				c-3.267-0.539-6.236-0.628-8.67-0.564c-1.794,0.044-3.142-0.09-4.278-0.446c-1.13-0.353-2.051-0.92-2.84-1.674
				c-0.196-0.188-0.384-0.388-0.562-0.599l-0.259-0.323c-0.08-0.112-0.188-0.221-0.181-0.351c-0.514-0.43-0.943-0.897-1.171-1.442
				c-0.241-0.539-0.336-1.142-0.331-1.783c0.002-0.32,0.03-0.649,0.076-0.98c0.023-0.166,0.05-0.333,0.084-0.5
				C61.02,300.058,61.077,299.887,61.144,299.715z"/>
			<path style="opacity:0.48;fill:#A4E7FC;" d="M95.869,308.73c-0.023,0.016-1.667-2.991-5.418-6.4
				c-1.874-1.692-4.305-3.462-7.203-4.848c-2.883-1.388-6.252-2.368-9.575-2.527c-3.323-0.159-5.648,0.341-7.08,0.914
				c-1.441,0.586-2.026,1.251-2.096,1.762c-0.097,1.037,1.615,1.536,3.717,1.052c1.067-0.246,2.67-0.554,4.736-0.63
				c2.059-0.078,4.581,0.09,7.301,0.739C85.692,300.041,91.823,303.395,95.869,308.73z"/>
		</g>
		<g>
			<path style="fill:#77D1F6;" d="M123.638,285.888c-0.049-0.003,1.887-8.189,1.246-18.234c-0.33-5.007-1.367-10.495-3.612-15.384
				c-1.115-2.439-2.531-4.718-4.214-6.638c-1.677-1.919-3.631-3.472-5.646-4.43c-2.011-0.96-3.967-1.471-5.675-1.593
				c-0.854-0.062-1.645-0.029-2.355,0.082c-0.467,0-0.653,0.151-0.919,0.264l-0.766,0.371c-1.018,0.515-2,1.114-2.717,1.728
				c-0.724,0.624-1.202,1.26-1.335,1.993c-0.135,0.732,0.081,1.576,0.706,2.553c0.037,0.687,0.045,1.278,0.282,1.903
				c0.435,1.232,1.528,2.484,3.601,4.073c4.161,3.148,9.587,8.155,13.824,14.086C120.318,272.584,123.462,279.366,123.638,285.888z"
				/>
			<path style="opacity:0.53;fill:#38ABED;" d="M101.357,240.512c-0.414,0.507-0.731,1.025-0.866,1.576
				c-0.068,0.277-0.09,0.563-0.058,0.865c0.026,0.296,0.165,0.65,0.127,0.887c0.192,1.253,1.45,2.22,3.443,3.76
				c1.981,1.512,4.627,3.601,7.239,6.208c5.266,5.174,10.208,12.29,11.286,17.599c0.962,4.792,1.678,5.971,2.366,4.549
				c-0.362,5.889-1.272,9.929-1.255,9.932c-0.176-6.522-3.32-13.305-7.581-19.226c-4.237-5.931-9.663-10.938-13.824-14.086
				c-1.523-1.168-2.522-2.156-3.111-3.085c-0.296-0.465-0.49-0.916-0.605-1.371c-0.058-0.228-0.096-0.455-0.117-0.687l-0.02-0.348
				c0.001-0.057-0.006-0.119,0.004-0.173l0.093-0.034c0.009-0.009,0.043-0.004,0.031-0.026l-0.044-0.072
				c-0.982-1.476-1.072-2.619-0.474-3.595C98.573,242.214,99.861,241.308,101.357,240.512z"/>
			<path style="opacity:0.48;fill:#A4E7FC;" d="M123.548,266.993c-0.016,0,0.225-3.354-0.722-7.964
				c-0.478-2.301-1.273-4.916-2.577-7.507c-1.297-2.585-3.123-5.156-5.519-7.206c-2.394-2.051-4.572-3.123-6.153-3.572
				c-1.596-0.451-2.586-0.307-3.024,0.039c-0.443,0.352-0.376,0.905,0.018,1.462c0.399,0.559,1.128,1.135,2.145,1.606
				c1.019,0.469,2.489,1.22,4.132,2.386c1.641,1.162,3.446,2.737,5.118,4.723C120.329,254.918,123.096,260.533,123.548,266.993z"/>
		</g>
		<g>
			<path style="fill:#77D1F6;" d="M154.13,363.939c-0.007,0.001-0.248-1.533-0.916-3.943c-0.674-2.406-1.787-5.701-3.701-9.146
				c-1.898-3.43-4.669-7.044-8.398-9.716c-1.85-1.331-3.928-2.406-6.04-3.059c-2.106-0.658-4.232-0.878-6.005-0.651
				c-3.581,0.455-5.654,2.048-6.305,3.461c-0.462,1.408-0.661,2.816,0.126,3.737c0.196,0.237,0.455,0.451,0.783,0.639
				c0.082,0.047,0.168,0.093,0.259,0.137l0.139,0.069l0.073,0.035c0.011,0.013,0.001,0.028,0.001,0.043
				c-0.032,0.06,0.031,0.109,0.074,0.159l0.136,0.147c0.366,0.386,0.757,0.714,1.193,0.979c0.879,0.536,1.915,0.777,3.694,0.896
				c1.776,0.117,4.029,0.489,6.454,1.265c2.424,0.768,5,1.916,7.424,3.374C147.986,355.284,152.214,359.391,154.13,363.939z"/>
			<path style="opacity:0.53;fill:#38ABED;" d="M122.697,341.125c0.167,0.909,0.718,1.649,1.434,2.235
				c0.81,0.646,2.04,0.665,3.914,0.767c1.855,0.089,4.397,0.345,7.161,1.159c2.757,0.791,5.666,2.096,8.141,3.665
				c2.482,1.566,4.536,3.371,5.756,5.09c2.167,3.118,2.989,3.798,3.049,2.642c1.518,4.224,1.956,7.259,1.977,7.257
				c-1.916-4.548-6.144-8.655-11.009-11.572c-2.424-1.459-5-2.606-7.424-3.374c-2.425-0.776-4.678-1.148-6.454-1.265
				c-1.31-0.09-2.213-0.237-2.953-0.53c-0.735-0.29-1.323-0.72-1.869-1.279c-0.128-0.14-0.295-0.284-0.337-0.448
				c-0.282-0.134-0.521-0.266-0.727-0.42c-0.411-0.304-0.676-0.659-0.826-1.062C122.231,343.191,122.381,342.157,122.697,341.125z"
				/>
			<path style="opacity:0.48;fill:#A4E7FC;" d="M148.369,350.714c-0.021,0.009-0.939-2.412-3.372-5.363
				c-1.219-1.467-2.843-3.059-4.908-4.415c-2.05-1.355-4.577-2.459-7.22-2.87c-2.644-0.411-4.587-0.154-5.772,0.222
				c-1.198,0.387-1.685,0.882-1.751,1.26c-0.091,0.771,1.251,1.152,2.935,0.901c0.856-0.128,2.15-0.261,3.779-0.14
				c1.624,0.116,3.579,0.495,5.598,1.276C141.714,343.116,145.891,346.306,148.369,350.714z"/>
		</g>
		<g>
			<path style="fill:#77D1F6;" d="M149.517,382.332c-0.011,0.008-1.349-1.429-3.878-3.452c-2.524-2.015-6.326-4.604-11.139-6.638
				c-4.778-2.053-10.593-3.445-16.055-3.541c-5.458-0.135-10.427,0.991-13.421,2.794c-3.009,1.801-4.473,3.756-4.879,5.325
				c-0.41,1.589,0.284,2.758,1.283,3.528c0.994,0.788,2.412,1.193,4.138,1.191c1.734-0.001,3.764-0.413,6.19-1.276
				c2.429-0.863,5.17-1.774,8.23-2.458c3.053-0.687,6.429-1.137,9.928-1.136C136.905,376.624,144.336,378.561,149.517,382.332z"/>
			<path style="opacity:0.53;fill:#38ABED;" d="M100.095,377.083c0.433,0.836,1.164,1.456,2.264,1.759
				c1.214,0.333,2.964-0.18,5.298-0.984c2.326-0.806,5.261-1.893,8.638-2.722c3.363-0.839,7.167-1.396,10.833-1.396
				c3.661-0.014,7.148,0.518,9.753,1.471c2.352,0.863,3.816,1.425,4.616,1.592c0.795,0.172,0.921-0.042,0.461-0.58
				c4.929,3.247,7.533,6.134,7.558,6.109c-5.181-3.771-12.612-5.708-19.602-5.664c-3.499-0.001-6.875,0.449-9.928,1.136
				c-3.061,0.684-5.801,1.595-8.23,2.458c-3.555,1.27-6.316,1.561-8.409,1.008c-1.038-0.276-1.874-0.77-2.477-1.463
				c-0.339-0.327-0.554-0.738-0.697-1.193C100.018,378.165,99.991,377.647,100.095,377.083z"/>
			<path style="opacity:0.48;fill:#A4E7FC;" d="M133.315,372.679c-0.001,0.022-3.014-1.624-7.818-2.707
				c-2.39-0.538-5.215-0.91-8.132-0.881c-2.913,0.022-5.907,0.447-8.532,1.323c-2.625,0.877-4.262,1.831-5.228,2.604
				c-0.965,0.78-1.263,1.388-1.181,1.768c0.186,0.76,1.808,0.664,3.418-0.273c1.606-0.935,4.892-2.717,9.821-3.617
				c2.449-0.447,5.285-0.656,8.317-0.414C127.009,370.719,130.227,371.415,133.315,372.679z"/>
		</g>
		<g>
			<path style="fill:#77D1F6;" d="M480.748,373.74c0.004,0.002,0.495-0.945,1.437-2.384c0.944-1.437,2.347-3.374,4.254-5.281
				c1.893-1.9,4.337-3.78,7.127-4.904c1.385-0.56,2.845-0.922,4.228-1.006c1.38-0.089,2.672,0.106,3.657,0.533
				c1.989,0.859,2.835,2.209,2.892,3.217c-0.053,0.977-0.259,1.912-0.928,2.378c-0.169,0.121-0.368,0.217-0.603,0.287
				c-0.059,0.017-0.12,0.032-0.183,0.047l-0.097,0.022l-0.051,0.011c-0.009,0.006-0.007,0.018-0.011,0.026
				c0.005,0.044-0.043,0.066-0.079,0.091l-0.114,0.073c-0.303,0.19-0.606,0.338-0.921,0.439c-0.637,0.205-1.297,0.196-2.363-0.01
				c-1.065-0.206-2.466-0.324-4.06-0.209c-1.592,0.109-3.358,0.438-5.108,0.989C486.317,369.159,482.907,371.126,480.748,373.74z"/>
			<path style="opacity:0.53;fill:#38ABED;" d="M504.328,364.079c-0.305,0.556-0.796,0.944-1.348,1.207
				c-0.621,0.286-1.344,0.104-2.463-0.127c-1.104-0.237-2.647-0.474-4.448-0.39c-1.791,0.072-3.79,0.448-5.594,1.063
				c-1.808,0.612-3.421,1.444-4.526,2.354c-1.98,1.657-2.615,1.963-2.386,1.212c-1.852,2.469-2.803,4.347-2.815,4.342
				c2.159-2.614,5.569-4.581,9.078-5.681c1.75-0.551,3.516-0.881,5.108-0.989c1.594-0.114,2.996,0.003,4.06,0.209
				c0.786,0.15,1.346,0.198,1.846,0.127c0.496-0.069,0.937-0.252,1.384-0.525c0.107-0.069,0.237-0.135,0.299-0.233
				c0.196-0.042,0.366-0.089,0.521-0.155c0.31-0.13,0.547-0.316,0.726-0.55C504.127,365.478,504.277,364.792,504.328,364.079z"/>
			<path style="opacity:0.48;fill:#A4E7FC;" d="M487.138,366.168c0.01,0.009,1.1-1.399,3.196-2.907
				c1.047-0.748,2.36-1.512,3.877-2.056c1.507-0.545,3.236-0.853,4.874-0.699c1.639,0.155,2.715,0.627,3.321,1.056
				c0.611,0.438,0.782,0.832,0.735,1.085c-0.123,0.509-0.994,0.541-1.921,0.114c-0.472-0.218-1.197-0.508-2.175-0.688
				c-0.975-0.183-2.205-0.249-3.563-0.068C492.763,362.347,489.593,363.732,487.138,366.168z"/>
		</g>
		<g>
			<path style="fill:#77D1F6;" d="M490.071,381.074c0.006,0.01,1.28-1.367,3.628-3.27c2.341-1.894,5.829-4.296,10.139-6.081
				c4.281-1.805,9.392-2.885,14.089-2.675c4.697,0.171,8.864,1.588,11.276,3.577c2.428,1.989,3.513,4.048,3.726,5.654
				c0.212,1.628-0.486,2.771-1.41,3.492c-0.921,0.741-2.175,1.07-3.655,0.97c-1.488-0.097-3.195-0.628-5.203-1.636
				c-2.011-1.009-4.284-2.082-6.851-2.946c-2.56-0.864-5.421-1.51-8.423-1.706C501.391,376.016,494.845,377.555,490.071,381.074z"/>
			<path style="opacity:0.53;fill:#38ABED;" d="M532.947,378.55c-0.444,0.819-1.126,1.406-2.097,1.649
				c-1.07,0.267-2.528-0.349-4.463-1.293c-1.924-0.943-4.349-2.208-7.176-3.235c-2.814-1.037-6.031-1.813-9.178-2.019
				c-3.14-0.221-6.179,0.121-8.498,0.937c-2.094,0.74-3.401,1.225-4.102,1.348c-0.696,0.13-0.786-0.092-0.344-0.612
				c-4.513,3.004-7,5.775-7.019,5.747c4.774-3.518,11.321-5.057,17.317-4.619c3.002,0.196,5.863,0.841,8.423,1.706
				c2.566,0.864,4.839,1.938,6.851,2.946c2.94,1.483,5.286,1.932,7.129,1.492c0.915-0.221,1.678-0.674,2.254-1.339
				c0.321-0.312,0.541-0.716,0.704-1.166C532.92,379.648,532.988,379.125,532.947,378.55z"/>
			<path style="opacity:0.48;fill:#A4E7FC;" d="M504.816,372.233c-0.001,0.023,2.729-1.471,6.947-2.296
				c2.098-0.407,4.555-0.627,7.057-0.432c2.497,0.185,5.031,0.782,7.206,1.814c2.177,1.035,3.501,2.09,4.262,2.926
				c0.76,0.841,0.963,1.472,0.86,1.851c-0.224,0.758-1.613,0.571-2.911-0.466c-1.297-1.034-3.964-3.022-8.114-4.208
				c-2.065-0.588-4.479-0.96-7.104-0.885C510.4,370.606,507.577,371.129,504.816,372.233z"/>
		</g>
		<g>
			<path style="fill:#77D1F6;" d="M517.835,362.317c0.012,0.007,0.903-1.75,2.819-4.399c1.913-2.638,4.947-6.18,9.206-9.457
				c4.217-3.287,9.721-6.213,15.301-7.788c5.561-1.611,11.045-1.867,14.726-0.931c3.701,0.931,5.864,2.431,6.809,3.84
				c0.955,1.43,0.635,2.753-0.132,3.769c-0.754,1.034-2.077,1.812-3.849,2.276c-1.779,0.471-4.006,0.621-6.789,0.444
				c-2.787-0.178-5.91-0.317-9.283-0.152c-3.366,0.164-6.989,0.643-10.581,1.592C528.866,353.363,521.885,357.256,517.835,362.317z"
				/>
			<path style="opacity:0.53;fill:#38ABED;" d="M566.836,343.825c-0.164,0.927-0.706,1.727-1.734,2.319
				c-1.135,0.651-3.107,0.629-5.776,0.483c-2.658-0.15-6.041-0.409-9.789-0.297c-3.737,0.099-7.832,0.591-11.6,1.586
				c-3.765,0.978-7.166,2.44-9.522,4.07c-2.125,1.475-3.441,2.418-4.206,2.796c-0.757,0.382-0.959,0.21-0.669-0.437
				c-3.97,4.486-5.672,7.991-5.706,7.973c4.05-5.061,11.031-8.954,18.228-10.807c3.592-0.949,7.215-1.429,10.581-1.592
				c3.373-0.165,6.496-0.026,9.283,0.152c4.079,0.267,7.015-0.2,8.977-1.302c0.972-0.55,1.667-1.257,2.052-2.09
				c0.24-0.41,0.321-0.867,0.316-1.347C567.281,344.853,567.132,344.343,566.836,343.825z"/>
			<path style="opacity:0.48;fill:#A4E7FC;" d="M531.225,348.565c0.009,0.022,2.549-2.392,7.119-4.746
				c2.275-1.168,5.05-2.297,8.058-3.059c2.997-0.77,6.217-1.171,9.207-1.033c2.994,0.139,4.997,0.62,6.249,1.108
				c1.254,0.493,1.766,1.002,1.809,1.392c0.066,0.787-1.638,1.137-3.605,0.664c-1.964-0.469-5.943-1.309-11.306-0.846
				c-2.668,0.233-5.651,0.798-8.685,1.855C537.043,344.952,533.972,346.501,531.225,348.565z"/>
		</g>
		<g>
			<path style="fill:#65AEDB;" d="M490.123,325.482c1.747-5.859,4.875-11.214,8.384-16.181c3.762-5.327,8.023-10.279,12.3-15.194
				c4.007-4.605,8.096-9.168,11.713-14.092c1.997-2.719,3.759-5.725,4.171-9.134c0.377-3.116-0.643-6.425-3.521-8.018
				c-2.645-1.464-5.889-1.046-8.597,0.014c-2.732,1.07-5.274,2.777-7.466,4.708c-3.073,2.706-5.244,6.204-6.995,9.872
				c-2.013,4.216-3.503,8.675-4.753,13.17c-1.289,4.635-2.312,9.344-3.17,14.077c-0.736,4.062-1.35,8.147-1.858,12.243
				c-0.316,2.551-0.595,5.107-0.816,7.669c-0.037,0.426-0.073,0.853-0.104,1.28C489.42,325.746,490.111,325.641,490.123,325.482
				c0.155-2.134,0.377-4.264,0.616-6.389c0.418-3.709,0.924-7.408,1.523-11.091c0.742-4.564,1.626-9.108,2.719-13.602
				c1.114-4.579,2.436-9.123,4.172-13.507c1.506-3.805,3.324-7.588,5.882-10.808c1.608-2.024,3.581-3.755,5.727-5.188
				c2.524-1.686,5.75-2.855,8.822-2.509c3.077,0.347,5.519,2.433,6.239,5.462c0.75,3.154-0.32,6.522-1.851,9.274
				c-1.488,2.674-3.471,5.091-5.394,7.461c-1.907,2.35-3.883,4.643-5.867,6.927c-4.199,4.833-8.453,9.628-12.348,14.714
				c-3.72,4.858-7.181,10.021-9.536,15.693c-0.54,1.3-1.015,2.626-1.418,3.976C489.465,325.707,490.065,325.678,490.123,325.482z"/>
			<path style="fill:#65AEDB;" d="M543.798,307.88c-5.508-1.199-11.473,0.7-16.326,3.243c-4.862,2.548-9.244,6.001-12.744,10.239
				c-2.158,2.613-3.978,5.485-5.436,8.544c0.238-0.137,0.476-0.275,0.714-0.412c0-0.004-0.001-0.007-0.001-0.01
				c0.009,0.105-0.659,0.292-0.714,0.412c-0.796,1.744-1.513,3.516-2.081,5.348c-0.275,0.889-0.522,1.787-0.728,2.694
				c-0.129,0.567-0.159,1.229-0.357,1.774c0.071-0.196,0.618-0.216,0.714-0.412c3.702-7.587,12.267-11.344,20.15-12.811
				c4.273-0.795,8.614-0.947,12.95-0.838c1.94,0.049,3.923,0.257,5.858,0.048c1.561-0.168,2.962-0.731,4.271-1.581
				c3.46-2.248,4.353-7.414,2.371-10.901c0.015,0.026-0.714,0.348-0.714,0.412c0,0.001,0,0.001,0,0.002
				c0.238-0.137,0.476-0.275,0.714-0.412C550.669,310.184,547.079,308.619,543.798,307.88c-0.201-0.045-0.521,0.456-0.714,0.412
				c3.281,0.739,6.871,2.304,8.641,5.338c-0.014-0.024,0.714-0.349,0.714-0.412c0,0,0-0.001,0-0.002
				c-0.238,0.137-0.476,0.275-0.714,0.412c1.826,3.212,1.219,7.862-1.61,10.336c-0.159,0.14-0.323,0.264-0.498,0.385
				c-0.041,0.028-0.277,0.226-0.314,0.212c0.074-0.043,0.147-0.085,0.221-0.128c-0.116,0.057-0.233,0.112-0.351,0.164
				c-0.409,0.181-0.834,0.327-1.267,0.441c-0.983,0.259-2.016,0.335-3.03,0.33c-1.997-0.01-3.992-0.142-5.99-0.161
				c-4.413-0.041-8.837,0.273-13.143,1.28c-3.802,0.889-7.404,2.324-10.769,4.303c-3.648,2.146-6.969,5.067-8.85,8.922
				c0.238-0.137,0.476-0.275,0.714-0.412c0.19-0.525,0.22-1.164,0.343-1.71c0.21-0.929,0.461-1.849,0.743-2.758
				c0.568-1.832,1.285-3.604,2.081-5.348c-0.238,0.137-0.476,0.275-0.714,0.412c0,0.003,0.001,0.007,0.001,0.01
				c-0.009-0.103,0.657-0.294,0.714-0.412c4.776-10.025,13.911-18.634,24.972-21.006c2.649-0.568,5.44-0.777,8.105-0.196
				C543.287,308.336,543.604,307.837,543.798,307.88z"/>
			<path style="fill:#65AEDB;" d="M592.312,282.126c0.808-1.165,1.366-2.499,1.636-3.892c0.283-1.462,0.132-2.82-0.39-4.205
				c0.021,0.057-0.714,0.325-0.714,0.412c0,0.001,0,0.001,0,0.002c0.238-0.137,0.476-0.275,0.714-0.412
				c-1.236-3.046-4.267-5.097-7.161-6.384c-3.713-1.651-7.756-2.016-11.777-1.701c-8.275,0.649-16.254,4.022-23.008,8.761
				c-3.823,2.682-7.226,5.945-10.073,9.647c0.238-0.137,0.476-0.275,0.714-0.412c0.001-0.004,0.001-0.008,0.002-0.012
				c-0.023,0.144-0.616,0.279-0.714,0.412c-1.231,1.665-2.391,3.368-3.403,5.177c-0.493,0.882-0.957,1.78-1.378,2.698
				c-0.193,0.42-0.378,0.843-0.554,1.27c-0.073,0.179-0.124,0.401-0.229,0.565c0.129-0.203,0.561-0.217,0.714-0.412
				c5.089-6.5,13.938-8.953,21.819-9.688c4.334-0.404,8.705-0.256,13.024,0.249c2.094,0.245,4.176,0.575,6.253,0.938
				c1.808,0.316,3.621,0.739,5.454,0.875c1.964,0.146,3.979-0.096,5.718-1.072c0.174-0.097,0.346-0.197,0.518-0.298
				c0.201-0.118-0.427,0.245,0.024-0.014c0.288-0.166,0.572-0.335,0.843-0.528C591.101,283.565,591.787,282.893,592.312,282.126
				c-0.138,0.202-0.572,0.206-0.714,0.412c-0.461,0.672-1.045,1.268-1.687,1.768c-0.092,0.072-0.186,0.141-0.281,0.209
				c-0.626,0.444-0.061,0.07,0.072-0.01c-0.114,0.068-0.23,0.139-0.348,0.199c-0.328,0.169-0.69,0.311-1.046,0.436
				c-1.857,0.648-3.892,0.591-5.811,0.296c-4.055-0.625-8.055-1.469-12.148-1.846c-8.53-0.786-17.567-0.082-25.377,3.687
				c-3.39,1.636-6.654,3.786-8.994,6.775c0.238-0.137,0.476-0.275,0.714-0.412c0.094-0.147,0.139-0.346,0.205-0.507
				c0.174-0.427,0.358-0.849,0.549-1.267c0.429-0.939,0.902-1.858,1.406-2.759c1.012-1.808,2.173-3.512,3.403-5.176
				c-0.238,0.137-0.476,0.275-0.714,0.412c-0.001,0.004-0.001,0.008-0.002,0.012c0.022-0.142,0.614-0.283,0.714-0.412
				c5.071-6.594,11.873-11.71,19.62-14.742c3.902-1.527,8.036-2.55,12.22-2.856c3.698-0.271,7.467,0.018,10.924,1.431
				c3.132,1.28,6.498,3.394,7.827,6.668c-0.021-0.051,0.714-0.329,0.714-0.412c0-0.001,0-0.001,0-0.002
				c-0.238,0.137-0.476,0.275-0.714,0.412c0.521,1.383,0.676,2.745,0.39,4.205c-0.273,1.393-0.826,2.726-1.636,3.892
				C591.739,282.336,592.169,282.332,592.312,282.126z"/>
			<path style="fill:#65AEDB;" d="M159.074,336.154c-0.047-1.918-0.162-3.822-0.361-5.731c0.011,0.11-0.672,0.284-0.714,0.412
				c-0.001,0.002-0.002,0.005-0.002,0.007c0.238-0.137,0.476-0.275,0.714-0.412c-0.869-7.446-3.241-14.813-7.452-21.059
				c-3.932-5.831-9.719-10.993-17.059-11.389c-1.396-0.075-2.877,0.022-4.196,0.52c-1.137,0.429-2.356,1.103-3.191,2.008
				c-1.092,1.184-1.715,2.863-1.52,4.474c0.2,1.662,1.145,3.084,2.311,4.239c1.263,1.25,2.792,2.148,4.318,3.035
				c1.425,0.828,2.846,1.662,4.251,2.523c3.136,1.922,6.195,3.983,9.035,6.325c5.467,4.507,10.555,10.291,12.505,17.249
				c0.223,0.794,0.396,1.601,0.523,2.416c0.238-0.137,0.476-0.275,0.714-0.412c-0.068-0.356,0.054-0.837,0.072-1.197
				C159.07,338.16,159.083,337.157,159.074,336.154c0.001,0.13-0.715,0.271-0.714,0.412c0.009,1.003-0.004,2.005-0.052,3.007
				c-0.017,0.36-0.14,0.84-0.072,1.196c-0.017-0.086,0.729-0.313,0.714-0.412c-1.065-6.832-5.497-12.794-10.448-17.398
				c-2.677-2.49-5.592-4.694-8.643-6.705c-2.735-1.803-5.578-3.418-8.393-5.09c-2.687-1.595-5.816-4.196-5.47-7.682
				c0.159-1.603,1.027-3.141,2.326-4.095c0.473-0.348,0.293-0.193,0.177-0.131c0.157-0.085,0.329-0.151,0.493-0.221
				c0.093-0.04,0.197-0.083,0.298-0.121c0.313-0.118,0.637-0.206,0.963-0.28c0.662-0.151,1.34-0.228,2.018-0.252
				c7.013-0.249,12.962,4.304,17.006,9.635c4.462,5.881,7.174,12.99,8.361,20.243c0.14,0.858,0.259,1.719,0.359,2.583
				c-0.013-0.107,0.673-0.286,0.714-0.412c0.001-0.002,0.002-0.005,0.002-0.007c-0.238,0.137-0.476,0.275-0.714,0.412
				c0.2,1.909,0.314,3.813,0.361,5.731C158.357,336.44,159.077,336.291,159.074,336.154z"/>
			<path style="fill:#65AEDB;" d="M105.525,323.838c-0.873-2.816-2.034-5.516-3.328-8.161c0.018,0.037-0.714,0.339-0.714,0.412
				c0,0.002,0,0.005,0,0.007c0.238-0.137,0.476-0.275,0.714-0.412c-3.278-6.439-7.911-12.248-13.913-16.342
				c-6.05-4.127-14.245-6.974-21.431-4.274c-1.262,0.474-2.501,1.131-3.598,1.916c-1.042,0.745-2.013,1.722-2.466,2.943
				c0.238-0.137,0.476-0.275,0.714-0.412c0-0.002-0.001-0.003-0.001-0.005c0.019,0.068-0.679,0.314-0.714,0.412
				c-0.527,1.507-0.588,3.513,0.626,4.725c0.182,0.181,0.413,0.345,0.547,0.551c0.118,0.182,0.227,0.371,0.372,0.545
				c0.445,0.538,0.955,1.017,1.537,1.405c1.522,1.015,3.249,1.34,5.053,1.387c1.876,0.048,3.743-0.04,5.619,0.084
				c8.007,0.528,16.028,3.242,22.546,7.958c3.198,2.313,6.086,5.171,8.017,8.64c-0.006-0.01,0.725-0.385,0.714-0.412
				C105.694,324.495,105.623,324.155,105.525,323.838c0.016,0.052-0.734,0.348-0.714,0.412c0.098,0.317,0.169,0.658,0.292,0.966
				c0.238-0.137,0.476-0.275,0.714-0.412c-3.539-6.358-10.111-10.725-16.712-13.404c-3.919-1.59-8.071-2.634-12.28-3.062
				c-1.882-0.191-3.775-0.259-5.665-0.223c-1.785,0.034-3.641,0.029-5.314-0.681c-0.875-0.371-1.703-0.922-2.359-1.612
				c-0.208-0.219-0.409-0.442-0.594-0.68c-0.149-0.192-0.211-0.374-0.372-0.539c-0.322-0.33-0.64-0.593-0.871-1.002
				c-0.204-0.361-0.345-0.758-0.424-1.164c-0.188-0.977-0.051-1.998,0.274-2.926c-0.238,0.137-0.476,0.275-0.714,0.412
				c0,0.002,0.001,0.003,0.001,0.005c-0.019-0.067,0.678-0.315,0.714-0.412c0.906-2.442,3.498-3.754,5.842-4.434
				c3.436-0.997,7.079-0.751,10.509,0.154c6.746,1.78,12.667,6.009,17.209,11.227c2.542,2.92,4.667,6.187,6.422,9.634
				c-0.017-0.034,0.714-0.342,0.714-0.412c0-0.002,0-0.005,0-0.007c-0.238,0.137-0.476,0.275-0.714,0.412
				c1.294,2.645,2.455,5.345,3.328,8.161C104.795,324.198,105.545,323.902,105.525,323.838z"/>
			<path style="fill:#65AEDB;" d="M97.277,244.974c0.058,0.347,0.144,0.686,0.281,1.012c0.157,0.372,0.426,0.672,0.45,1.079
				c0.033,0.558,0.073,1.116,0.268,1.646c0.528,1.431,1.709,2.524,2.854,3.476c1.105,0.918,2.265,1.765,3.364,2.692
				c1.191,1.004,2.349,2.049,3.472,3.129c5.076,4.881,9.59,10.563,12.517,17.003c1.585,3.488,2.68,7.237,2.799,11.085
				c-0.004-0.128,0.711-0.271,0.714-0.412c0.008-0.457,0.183-0.965,0.262-1.413c0.145-0.828,0.277-1.658,0.394-2.491
				c0.282-2.002,0.461-4.012,0.599-6.029c-0.01,0.141-0.641,0.267-0.714,0.412c-0.001,0.001-0.001,0.002-0.001,0.003
				c0.238-0.137,0.476-0.275,0.714-0.412c0.457-7.989-0.25-16.333-3.619-23.688c-1.617-3.529-3.894-6.866-6.98-9.268
				c-3.045-2.37-6.965-3.729-10.829-3.323c-1.183,0.124-2.371,0.947-3.377,1.537C98.979,241.871,97.141,243.049,97.277,244.974
				c-0.008-0.115,0.723-0.287,0.714-0.412c-0.129-1.827,1.579-3.083,3.024-3.86c0.388-0.209,0.789-0.395,1.188-0.583
				c0.691-0.326,1.56-0.331,2.315-0.333c3.616-0.008,7.235,1.565,9.971,3.871c5.761,4.855,8.483,12.549,9.568,19.794
				c0.629,4.204,0.721,8.475,0.478,12.714c0.008-0.139,0.642-0.27,0.714-0.412c0.001-0.001,0.001-0.002,0.001-0.003
				c-0.238,0.137-0.476,0.275-0.714,0.412c-0.138,2.017-0.318,4.026-0.599,6.029c-0.113,0.806-0.24,1.611-0.38,2.413
				c-0.083,0.474-0.267,1.008-0.275,1.491c0.238-0.137,0.476-0.275,0.714-0.412c-0.215-6.985-3.534-13.57-7.527-19.15
				c-3.797-5.307-8.483-10.041-13.666-14c-1.342-1.025-2.833-2.178-3.594-3.73c-0.272-0.555-0.414-1.122-0.461-1.736
				c-0.015-0.2,0.019-0.48-0.041-0.672c-0.063-0.203-0.239-0.416-0.334-0.608c-0.193-0.389-0.311-0.798-0.382-1.225
				C98.006,244.651,97.26,244.873,97.277,244.974z"/>
			<path style="fill:#65AEDB;" d="M153.609,359.935c-0.313-1.169-0.703-2.316-1.1-3.459c0.021,0.062-0.703,0.318-0.714,0.412
				c0,0.001,0,0.003,0,0.004c0.238-0.137,0.476-0.275,0.714-0.412c-1.976-5.425-5.031-10.575-9.478-14.336
				c-4.431-3.748-10.918-6.49-16.641-4.159c-1.43,0.583-3.275,1.556-3.947,3.033c-0.475,1.045-0.729,2.699-0.001,3.694
				c0.302,0.413,0.721,0.618,1.132,0.893c0.274,0.183,0.461,0.504,0.716,0.74c1.968,1.824,4.772,1.48,7.237,1.911
				c3.031,0.531,5.964,1.568,8.715,2.935c5.559,2.763,11.035,7.111,13.529,12.953c-0.016-0.037,0.729-0.355,0.714-0.412
				C154.158,362.478,153.955,361.191,153.609,359.935c0.017,0.061-0.734,0.339-0.714,0.412c0.345,1.255,0.548,2.542,0.877,3.798
				c0.238-0.137,0.476-0.275,0.714-0.412c-2.125-4.978-6.448-8.833-11.009-11.572c-2.56-1.537-5.314-2.773-8.184-3.606
				c-1.375-0.399-2.779-0.7-4.199-0.885c-1.209-0.158-2.449-0.146-3.639-0.432c-1.049-0.253-2.072-0.796-2.779-1.629
				c-0.101-0.119-0.17-0.271-0.285-0.364c-0.164-0.132-0.393-0.206-0.569-0.33c-0.417-0.294-0.753-0.64-0.934-1.129
				c-0.372-1.004-0.152-2.486,0.387-3.401c0.193-0.327,0.439-0.623,0.71-0.888c0.156-0.153,0.322-0.296,0.494-0.431
				c0.077-0.06,0.155-0.118,0.234-0.174c0.071-0.051,0.546-0.318,0.214-0.151c5.355-2.709,11.776-0.453,16.266,2.92
				c5.048,3.792,8.464,9.367,10.6,15.231c-0.021-0.059,0.703-0.32,0.714-0.412c0-0.001,0-0.003,0.001-0.004
				c-0.238,0.137-0.476,0.275-0.714,0.412c0.397,1.143,0.787,2.29,1.1,3.459C152.879,360.284,153.63,360.01,153.609,359.935z"/>
			<path style="fill:#65AEDB;" d="M146.177,378.822c-1.232-1.008-2.542-1.916-3.861-2.805c-0.069-0.047-0.678,0.458-0.714,0.412
				c0.003,0.004,0.005,0.007,0.008,0.01c0.238-0.137,0.476-0.275,0.714-0.412c-5.733-3.732-12.222-6.256-19.011-7.179
				c-3.429-0.466-6.94-0.516-10.367-0.004c-2.676,0.399-5.305,1.138-7.66,2.492c-1.338,0.769-2.63,1.634-3.704,2.752
				c-0.842,0.877-1.644,1.976-1.842,3.204c0.238-0.137,0.476-0.275,0.714-0.412c0-0.001-0.001-0.002-0.001-0.003
				c0.015,0.026-0.709,0.345-0.714,0.412c-0.052,0.728-0.068,1.364,0.277,2.035c0.337,0.656,0.876,1.124,1.49,1.512
				c1.418,0.896,3.188,0.982,4.812,0.848c1.85-0.153,3.653-0.711,5.395-1.325c1.679-0.592,3.371-1.152,5.086-1.632
				c7.17-2.01,14.794-2.543,22.069-0.759c3.661,0.898,7.228,2.355,10.294,4.571c0.094,0.068,0.63-0.474,0.714-0.412
				c-0.506-0.378-0.934-0.913-1.401-1.341C147.73,380.104,146.962,379.453,146.177,378.822c-0.082-0.066-0.641,0.471-0.714,0.412
				c0.785,0.631,1.553,1.282,2.296,1.963c0.467,0.428,0.896,0.963,1.401,1.341c0.238-0.137,0.476-0.275,0.714-0.412
				c-5.538-4.001-12.677-5.664-19.43-5.664c-3.896,0-7.766,0.524-11.541,1.48c-1.782,0.451-3.539,0.995-5.278,1.588
				c-1.772,0.604-3.523,1.252-5.374,1.58c-1.772,0.314-3.716,0.378-5.397-0.352c-0.765-0.332-1.491-0.847-1.952-1.553
				c-0.486-0.743-0.51-1.474-0.449-2.328c-0.238,0.137-0.476,0.275-0.714,0.412c0,0.001,0.001,0.002,0.001,0.003
				c-0.014-0.025,0.703-0.343,0.714-0.412c0.392-2.417,2.793-4.281,4.73-5.47c0.31-0.19,0.118-0.065,0.052-0.03
				c0.058-0.031,0.116-0.062,0.175-0.091c0.177-0.087,0.352-0.177,0.531-0.26c0.277-0.129,0.557-0.248,0.841-0.361
				c0.608-0.242,1.228-0.452,1.856-0.635c1.434-0.418,2.906-0.702,4.387-0.885c6.438-0.794,13.098,0.27,19.154,2.515
				c3.313,1.228,6.471,2.849,9.43,4.776c0.071,0.046,0.678-0.458,0.714-0.412c-0.003-0.003-0.005-0.007-0.008-0.01
				c-0.238,0.137-0.476,0.275-0.714,0.412c1.319,0.889,2.629,1.797,3.861,2.805C145.543,379.299,146.107,378.764,146.177,378.822z"
				/>
			<path style="fill:#65AEDB;" d="M498.637,367.485c1.15,0.21,2.119,0.209,3.165-0.36c0.047-0.025,0.28-0.158,0.078-0.044
				c0.055-0.031,0.11-0.061,0.165-0.093c0.163-0.093,0.327-0.186,0.487-0.283c-0.156,0.094-0.524,0.306-0.159,0.093
				c0.062-0.036,0.124-0.071,0.185-0.108c0.123-0.075,0.214-0.146,0.318-0.246c-0.238,0.137-0.476,0.275-0.714,0.412
				c0.54-0.117,1.005-0.411,1.47-0.702c-0.234,0.135-0.468,0.269-0.702,0.404c0.363-0.172,0.753-0.367,1.041-0.651
				c0.529-0.52,0.637-1.334,0.711-2.034c-0.015,0.144-0.63,0.27-0.714,0.412c-0.001,0.001-0.001,0.002-0.002,0.003
				c0.238-0.137,0.476-0.275,0.714-0.412c0.136-1.367-1.246-2.539-2.313-3.113c-1.675-0.902-3.657-0.973-5.499-0.653
				c-3.385,0.589-6.612,2.502-9.204,4.705c-1.667,1.417-3.141,3.048-4.461,4.79c0.238-0.137,0.476-0.275,0.714-0.412
				c0,0,0-0.001,0-0.002c0,0.107-0.635,0.304-0.714,0.412c-1.025,1.404-1.926,2.851-2.814,4.342c0.12-0.201,0.559-0.227,0.714-0.412
				c2.08-2.487,4.905-4.119,7.953-5.136C492.106,367.381,495.452,366.888,498.637,367.485c0.209,0.039,0.513-0.45,0.714-0.412
				c-3.742-0.702-7.729,0.072-11.204,1.522c-2.88,1.202-5.738,2.939-7.756,5.351c0.238-0.137,0.476-0.275,0.714-0.412
				c0.889-1.491,1.79-2.938,2.815-4.342c-0.238,0.137-0.476,0.275-0.714,0.412c0,0.001,0,0.001,0,0.002
				c0-0.105,0.634-0.307,0.714-0.412c2.043-2.697,4.544-5.332,7.532-6.989c2.92-1.618,6.989-2.71,10.128-1.07
				c1.093,0.571,2.528,1.756,2.389,3.154c0.014-0.143,0.631-0.271,0.714-0.412c0.001-0.001,0.001-0.002,0.002-0.003
				c-0.238,0.137-0.476,0.275-0.714,0.412c-0.094,0.895-0.285,1.571-0.913,2.214c0.238-0.137,0.476-0.275,0.714-0.412
				c-0.199,0.095-0.389,0.206-0.579,0.317c-0.072,0.042-0.167,0.123-0.248,0.146c0.364-0.226,0.438-0.285,0.224-0.177
				c-0.077,0.021-0.154,0.041-0.231,0.057c-0.305,0.106-0.657,0.305-0.891,0.533c-0.196,0.191,0.597-0.331,0.103-0.044
				c-0.052,0.03-0.105,0.061-0.157,0.092c-0.254,0.151-0.073,0.046,0.544-0.314c-0.264,0.147-0.533,0.289-0.821,0.385
				c-0.764,0.253-1.59,0.132-2.363-0.01C499.141,367.034,498.839,367.522,498.637,367.485z"/>
			<path style="fill:#65AEDB;" d="M533.304,378.354c0-0.003,0-0.006,0-0.01c0,0.083-0.629,0.338-0.714,0.412
				c0,0-0.001,0-0.001,0.001c0.238-0.137,0.476-0.275,0.714-0.412c-0.121-2.422-2.05-4.572-3.841-6.004
				c-1.961-1.569-4.441-2.456-6.873-2.973c-5.945-1.264-12.313-0.305-17.904,1.948c-2.785,1.122-5.439,2.569-7.947,4.218
				c0.234-0.135,0.468-0.269,0.702-0.404c0.002-0.003,0.004-0.006,0.006-0.009c-0.128,0.176-0.529,0.286-0.714,0.412
				c-1.441,0.981-2.842,2.005-4.177,3.127c-0.597,0.502-1.181,1.021-1.75,1.555c-0.363,0.341-0.698,0.762-1.092,1.064
				c0.215-0.165,0.494-0.251,0.714-0.412c5.094-3.722,12.001-4.788,18.156-4.066c3.362,0.394,6.628,1.344,9.743,2.655
				c2.94,1.237,5.732,3.103,8.96,3.465c1.455,0.163,2.708-0.211,3.945-0.943C532.59,381.174,533.381,379.967,533.304,378.354
				c0.006,0.12-0.72,0.281-0.714,0.412c0.063,1.327-0.536,2.94-1.885,3.442c-1.408,0.524-2.984,0.379-4.408-0.012
				c-1.579-0.433-3.021-1.182-4.487-1.892c-1.512-0.732-3.049-1.412-4.626-1.992c-6.141-2.258-12.873-2.865-19.211-1.06
				c-2.952,0.84-5.779,2.215-8.26,4.028c0.238-0.137,0.476-0.275,0.714-0.412c0.393-0.302,0.73-0.724,1.092-1.065
				c0.569-0.535,1.153-1.053,1.75-1.555c1.335-1.122,2.736-2.146,4.177-3.127c-0.238,0.137-0.476,0.275-0.714,0.412
				c-0.002,0.003-0.004,0.006-0.006,0.009c0.124-0.17,0.521-0.285,0.702-0.404c4.963-3.262,10.765-5.354,16.698-5.818
				c2.755-0.216,5.56-0.062,8.253,0.573c2.179,0.514,4.374,1.337,6.169,2.704c1.876,1.429,3.916,3.666,4.041,6.161
				c-0.004-0.073,0.634-0.343,0.714-0.412c0,0,0.001-0.001,0.001-0.001c-0.238,0.137-0.476,0.275-0.714,0.412
				c0,0.003,0,0.006,0,0.01C532.59,378.634,533.304,378.497,533.304,378.354z"/>
			<path style="fill:#65AEDB;" d="M567.561,345.83c0.132-0.828,0.008-1.461-0.368-2.21c0.011,0.022-0.675,0.345-0.714,0.412
				c0,0-0.001,0.001-0.001,0.002c0.238-0.137,0.476-0.275,0.714-0.412c-0.503-0.938-1.401-1.651-2.287-2.208
				c-1.315-0.827-2.795-1.378-4.29-1.781c-3.111-0.838-6.425-0.765-9.595-0.335c-6.867,0.931-13.402,3.782-19.124,7.637
				c-3.212,2.164-6.134,4.741-8.716,7.625c0.238-0.137,0.476-0.275,0.714-0.412c0.001-0.003,0.003-0.006,0.004-0.009
				c-0.076,0.183-0.576,0.254-0.714,0.412c-1.239,1.425-2.418,2.888-3.498,4.438c-0.469,0.673-0.919,1.359-1.346,2.058
				c-0.289,0.473-0.523,1.038-0.862,1.477c0.154-0.199,0.552-0.212,0.714-0.412c4.495-5.577,11.272-8.839,18.102-10.546
				c3.822-0.955,7.756-1.417,11.691-1.5c1.9-0.04,3.8,0.006,5.698,0.102c1.769,0.089,3.528,0.227,5.301,0.142
				c1.917-0.092,3.895-0.415,5.595-1.352C565.886,348.237,567.138,347.339,567.561,345.83c-0.052,0.185-0.66,0.219-0.714,0.412
				c-0.219,0.782-0.664,1.433-1.262,1.977c-0.19,0.172-0.391,0.323-0.602,0.467c-0.084,0.057-0.171,0.111-0.253,0.17
				c-0.406,0.291,0.389-0.25,0.38-0.213c-0.024,0.1-0.604,0.288-0.722,0.336c-0.203,0.081-0.411,0.154-0.618,0.224
				c-1.778,0.598-3.672,0.732-5.536,0.728c-1.849-0.005-3.695-0.185-5.542-0.247c-1.989-0.066-3.98-0.063-5.967,0.043
				c-7.374,0.395-14.576,2.276-20.979,5.993c-3.105,1.802-6.003,3.995-8.267,6.804c0.238-0.137,0.476-0.275,0.714-0.412
				c0.339-0.439,0.573-1.004,0.862-1.477c0.427-0.7,0.877-1.386,1.346-2.058c1.08-1.55,2.259-3.013,3.498-4.438
				c-0.238,0.137-0.476,0.275-0.714,0.412c-0.001,0.003-0.003,0.006-0.004,0.009c0.075-0.181,0.575-0.257,0.714-0.412
				c4.636-5.177,10.338-9.286,16.802-11.866c3.2-1.277,6.563-2.193,9.985-2.62c2.918-0.364,5.979-0.434,8.85,0.287
				c1.561,0.392,3.111,0.94,4.495,1.774c0.948,0.572,1.92,1.317,2.453,2.311c-0.01-0.018,0.676-0.347,0.714-0.412
				c0,0,0.001-0.001,0.001-0.002c-0.238,0.137-0.476,0.275-0.714,0.412c0.376,0.749,0.5,1.383,0.368,2.21
				C566.874,346.076,567.533,346.005,567.561,345.83z"/>
		</g>
	</g>
	<g>
		<defs>
			<path id="SVGID_1_" d="M527.052,366.518c-5.708-1.73-17.601-7.827-23.328-9.242c-11.419-2.821-24.75-1.24-36.036,1.344
				c-15.158,3.47-31.765,17.207-47.226,15.961c-15.673-1.263-30.275-9.437-45.932-10.906c-32.386-3.039-63.24,22.81-95.317,17.173
				c-22.991-4.04-42.237-23.804-65.533-24.423c-14.779-0.393-28.634,7.067-43.098,10.316c-14.465,3.249-32.529,0.374-39.038-13.739
				c-18.569-40.259-2.599-89.225,18.427-128.095s55.703-69.164,95.647-83.555c-7.773,0.891-19.206-1.724-26.785-4.296
				c-8.9-3.021-15.531-12.568-17.55-21.954c-2.53-11.763,1.008-22.315,5.972-32.606c4.805-9.962,8.949-19.733,16.431-28.014
				c12.73-14.088,29.674-23.001,46.83-29.998c22.138-9.029,46.206-15.384,69.485-10.592c40.013,8.235,70.048,53.061,64.296,95.959
				c-2.375,17.713-9.98,34.875-8.407,52.689c2.836,32.117,33.631,53.485,42.875,84.21c13.693-17.824,36.162-25.771,57.792-26.656
				c26.882-1.1,55.123,8.386,72.754,29.99c16.11,19.741,18.176,46.653,12.448,71.194c-2.931,12.555-7.723,24.621-13.775,35.827
				C562.011,368.161,533.471,368.464,527.052,366.518z"/>
		</defs>
		<clipPath id="SVGID_00000175281882134716464220000012735250864541668793_">
			<use xlink:href="#SVGID_1_"  style="overflow:visible;"/>
		</clipPath>
		<g style="clip-path:url(#SVGID_00000175281882134716464220000012735250864541668793_);">
			<g>
				<g>
					<path style="fill:#FFF8E6;" d="M346.391,324.618c-10.28,14.216-45.055,29.964-82.018,14.216
						c-36.963-15.747-73.707-27.558-111.126-8.412c3.159,48.258,134.405,58.999,217.373,53.838
						c27.046-1.682,48.029-5.943,64.033-10.921C376.132,389.349,347.266,337.302,346.391,324.618z"/>
					<path style="fill:#E2DBCC;" d="M331.075,385.876c-35.381,0-70.586-2.806-99.146-8.096
						c-35.095-6.501-77.305-19.989-79.095-47.331l-0.018-0.271l0.242-0.124c38.471-19.684,76.165-6.644,111.476,8.4
						c20.74,8.836,39.046,7.111,50.751,4.108c13.344-3.423,25.135-10.392,30.771-18.187l0.669-0.925l0.079,1.139
						c0.208,3.019,2.229,9.357,7.241,17.282c3.77,5.963,10.385,14.576,20.481,21.745c17.121,12.158,37.876,15.382,60.018,9.324
						l0.232,0.794c-18.53,5.764-40.107,9.444-64.13,10.939C357.661,385.481,344.354,385.876,331.075,385.876z M153.678,330.666
						c2.017,26.631,43.712,39.875,78.402,46.301c39.215,7.265,90.997,9.837,138.514,6.881c19.306-1.201,37.024-3.817,52.84-7.793
						c-18.121,2.431-35.014-1.558-49.388-11.764c-17.738-12.595-26.736-30.864-27.948-38.599
						c-5.958,7.605-17.56,14.324-30.609,17.672c-11.828,3.035-30.326,4.778-51.28-4.148
						C229.154,324.279,191.747,311.326,153.678,330.666z"/>
				</g>
				<path style="opacity:0.5;fill:#FFF8E6;" d="M164.936,344.749c8.456,13.537,82.412,45.758,189.276,35.563
					c-72.261,5.241-145.995-18.469-172.285-31.326C170.634,343.464,159.777,336.491,164.936,344.749z"/>
				<g>
					<path style="fill:#E5DFD1;" d="M188.547,320.582c1.251,3.256,2.985,6.387,4.853,9.378c1.891,2.989,3.966,5.867,6.221,8.599
						c4.51,5.465,9.647,10.406,15.19,14.826c11.119,8.833,23.877,15.472,37.213,20.325c6.692,2.371,13.5,4.455,20.443,5.981
						c6.913,1.661,13.943,2.767,20.983,3.747c14.108,1.807,28.364,2.306,42.581,1.981c-14.216,0.394-28.478-0.035-42.607-1.776
						c-7.05-0.947-14.095-2.02-21.026-3.65c-6.961-1.495-13.793-3.55-20.514-5.895c-13.393-4.801-26.233-11.4-37.457-20.228
						c-5.596-4.418-10.791-9.365-15.363-14.851c-2.285-2.743-4.393-5.636-6.318-8.646c-1.907-3.027-3.66-6.139-4.979-9.52
						c-0.083-0.213,0.022-0.452,0.235-0.535c0.213-0.083,0.452,0.022,0.535,0.235l0.001,0.002L188.547,320.582z"/>
					<path style="fill:#E5DFD1;" d="M326.595,339.018c1.162,1.495,2.595,2.875,4.072,4.138c1.472,1.286,3.061,2.436,4.673,3.549
						c3.253,2.192,6.741,4.027,10.324,5.637l2.707,1.17l2.764,1.032c1.828,0.732,3.734,1.238,5.603,1.856
						c1.886,0.563,3.804,1.013,5.706,1.526l5.784,1.217l-5.807-1.116c-1.912-0.479-3.841-0.897-5.741-1.428
						c-1.883-0.585-3.803-1.06-5.65-1.762l-2.792-0.987l-2.74-1.128c-3.629-1.556-7.174-3.341-10.5-5.499
						c-1.65-1.097-3.279-2.233-4.799-3.514c-1.534-1.272-2.988-2.608-4.275-4.206c-0.143-0.178-0.115-0.438,0.063-0.581
						c0.178-0.143,0.438-0.115,0.581,0.063c0.001,0.001,0.002,0.003,0.003,0.004L326.595,339.018z"/>
					<path style="fill:#E5DFD1;" d="M298.783,345.069c2.922,2.85,6.313,5.305,9.787,7.531c3.465,2.266,7.14,4.197,10.86,6.022
						c7.479,3.585,15.355,6.297,23.365,8.455l6.043,1.5c2.027,0.442,4.076,0.788,6.113,1.187l3.06,0.579
						c1.017,0.212,2.055,0.293,3.082,0.446l6.177,0.816l1.544,0.204l1.552,0.125l3.107,0.237l6.215,0.474
						c4.152,0.133,8.308,0.193,12.463,0.292c-4.155-0.065-8.312-0.091-12.468-0.189l-6.222-0.422l-3.111-0.211l-1.555-0.112
						l-1.547-0.191l-6.191-0.765c-1.029-0.145-2.07-0.217-3.09-0.421l-3.07-0.555c-2.044-0.383-4.1-0.712-6.135-1.139l-6.07-1.453
						c-8.049-2.097-15.977-4.752-23.526-8.294c-3.755-1.803-7.469-3.716-10.982-5.971c-3.532-2.228-6.94-4.638-9.997-7.572
						c-0.165-0.158-0.17-0.419-0.012-0.584c0.158-0.165,0.419-0.17,0.584-0.012l0.002,0.002L298.783,345.069z"/>
					<path style="fill:#E5DFD1;" d="M264.667,338.544c2.315,2.245,4.864,4.31,7.455,6.276c2.596,1.971,5.282,3.824,8.03,5.582
						c5.488,3.527,11.213,6.689,17.111,9.488c11.782,5.642,24.24,9.808,36.948,12.829c6.37,1.454,12.802,2.633,19.279,3.517
						c6.482,0.82,12.993,1.471,19.527,1.713c13.062,0.583,26.17,0.087,39.17-1.356c-12.993,1.511-26.103,2.077-39.179,1.563
						c-6.541-0.208-13.063-0.825-19.559-1.612c-6.49-0.852-12.94-1.998-19.331-3.422c-12.75-2.96-25.265-7.07-37.12-12.671
						c-5.935-2.778-11.7-5.922-17.235-9.439c-2.771-1.752-5.482-3.601-8.106-5.572c-2.627-1.973-5.183-4.017-7.577-6.314
						c-0.165-0.158-0.17-0.42-0.012-0.584c0.158-0.165,0.42-0.17,0.584-0.012l0.002,0.001L264.667,338.544z"/>
					<path style="fill:#E5DFD1;" d="M230.124,325.86c3.552,6.741,8.637,12.591,14.371,17.622c5.767,5.02,12.197,9.248,18.879,12.974
						c6.695,3.717,13.678,6.909,20.81,9.71c7.133,2.805,14.427,5.196,21.813,7.251c14.775,4.102,29.904,6.94,45.167,8.486
						c7.633,0.755,15.302,1.168,22.974,1.166c7.67-0.008,15.348-0.428,22.951-1.479c-7.598,1.085-15.278,1.54-22.951,1.583
						c-7.676,0.036-15.352-0.342-22.994-1.063c-15.282-1.478-30.44-4.251-45.257-8.293c-7.408-2.025-14.727-4.388-21.89-7.168
						c-7.163-2.776-14.182-5.946-20.923-9.649c-6.728-3.712-13.213-7.934-19.053-12.97c-5.805-5.048-10.985-10.942-14.632-17.79
						c-0.107-0.202-0.031-0.452,0.171-0.559c0.202-0.107,0.452-0.031,0.559,0.171l0.001,0.002L230.124,325.86z"/>
					<path style="fill:#E5DFD1;" d="M208.496,321.274c1.29,3.089,2.766,6.099,4.431,9.005c1.686,2.894,3.578,5.664,5.621,8.319
						c2.033,2.664,4.298,5.146,6.656,7.527c2.36,2.382,4.876,4.609,7.505,6.693c10.512,8.378,22.667,14.522,35.274,19.145
						c12.634,4.622,25.777,7.787,39.058,9.937c6.644,1.072,13.329,1.887,20.036,2.461c6.707,0.556,13.436,0.925,20.169,0.887
						c-6.733,0.073-13.465-0.261-20.177-0.784c-6.712-0.54-13.405-1.321-20.06-2.36c-13.302-2.084-26.478-5.185-39.167-9.753
						c-12.661-4.571-24.895-10.67-35.518-19.048c-2.657-2.084-5.202-4.315-7.593-6.703c-2.389-2.387-4.686-4.879-6.752-7.558
						c-2.076-2.669-4.001-5.458-5.72-8.374c-1.698-2.928-3.206-5.963-4.526-9.081c-0.089-0.21,0.009-0.453,0.219-0.542
						c0.21-0.089,0.453,0.009,0.542,0.22l0.001,0.002L208.496,321.274z"/>
					<path style="fill:#E5DFD1;" d="M175.804,322.377c0.837,2.743,2.101,5.42,3.482,7.981c1.398,2.565,2.982,5.028,4.687,7.405
						c3.465,4.715,7.443,9.053,11.804,12.965c8.735,7.839,18.941,13.912,29.65,18.685c10.76,4.706,22.077,8.084,33.573,10.501
						c11.513,2.372,23.216,3.767,34.95,4.495c-11.738-0.659-23.453-1.985-34.991-4.293c-11.521-2.352-22.877-5.668-33.697-10.325
						c-10.77-4.724-21.057-10.761-29.897-18.601c-4.413-3.913-8.449-8.262-11.976-13.002c-1.736-2.39-3.352-4.87-4.783-7.46
						c-1.418-2.601-2.704-5.259-3.601-8.138c-0.068-0.218,0.054-0.449,0.272-0.517c0.218-0.068,0.45,0.054,0.517,0.272l0.001,0.002
						L175.804,322.377z"/>
					<path style="fill:#E5DFD1;" d="M160.656,327.088c0.699,2.379,1.846,4.704,3.087,6.909c1.263,2.21,2.717,4.311,4.282,6.323
						c3.123,4.035,6.765,7.659,10.686,10.934c7.855,6.56,16.831,11.699,26.203,15.812c9.399,4.078,19.188,7.261,29.165,9.631
						c9.974,2.396,20.108,4.1,30.295,5.324c-10.195-1.155-20.343-2.792-30.342-5.123c-10.003-2.305-19.828-5.426-29.282-9.453
						c-9.427-4.062-18.478-9.159-26.434-15.714c-3.971-3.273-7.671-6.904-10.859-10.965c-1.597-2.025-3.085-4.144-4.383-6.381
						c-1.282-2.252-2.451-4.551-3.217-7.094c-0.066-0.218,0.058-0.449,0.276-0.515c0.218-0.066,0.449,0.058,0.515,0.276l0.001,0.003
						L160.656,327.088z"/>
				</g>
				<path style="fill:#E2E1E0;" d="M346.391,324.618c-10.28,14.216-45.055,29.964-82.018,14.216
					c-36.963-15.747-73.707-27.558-111.126-8.412c3.159,48.258,134.405,58.999,217.373,53.838
					c27.046-1.682,48.029-5.943,64.033-10.921C376.132,389.349,347.266,337.302,346.391,324.618z M172.803,348.987
					c-17.35-22.23,34.375-30.673,74.423-10.156c40.049,20.517,80.527,13.109,90.842,2.338c0,0,13.056,30.534,42.348,37.172
					C409.71,384.978,203.585,388.427,172.803,348.987z"/>
			</g>
			<g>
				<g>
					<path style="fill:#70C0C5;" d="M555.331,242.504c-12.813,6.777-17.901-12.066-42.826-10.45
						c-31.658,2.053-46.657,47.823-46.657,47.823c-18.663,10.887-50.535-125.196-163.688-125.196
						c-118.67,0-151.635,83.982-148.913,175.741c37.418-19.146,74.163-7.336,111.126,8.412c36.963,15.747,71.739,0,82.018-14.216
						c0.875,12.684,29.741,64.731,88.262,48.722c33.092-10.293,44.885-23.657,44.885-23.657
						c16.503,17.912,34.471,18.02,43.194,11.151c7.234-5.696,13.199,1.557,9.61,8.856c14.321-18.09,15.452-54.269-7.16-64.821
						c20.162-12.06,17.524-34.86,10.929-52.196C536.111,252.673,548.547,257.76,555.331,242.504z"/>
					<path style="fill:#40928F;" d="M413.252,376.745c-14.267,0-27.564-4.188-39.206-12.456
						c-17.738-12.595-26.736-30.863-27.947-38.598c-5.958,7.604-17.56,14.323-30.609,17.671c-11.829,3.034-30.327,4.778-51.28-4.148
						c-35.131-14.967-72.622-27.947-110.775-8.424c-0.127,0.064-0.277,0.06-0.399-0.013c-0.122-0.072-0.199-0.202-0.203-0.344
						c-0.842-28.399,1.802-54.001,7.861-76.095c6.808-24.831,17.994-45.387,33.245-61.098c25.105-25.86,61.515-38.973,108.22-38.973
						c76.951,0,116.189,62.379,139.633,99.649c10.474,16.652,18.065,28.718,23.714,25.678c1.007-2.935,16.321-45.965,46.971-47.953
						c13.039-0.845,20.691,3.844,26.838,7.613c5.72,3.507,9.855,6.042,15.821,2.884c0.156-0.082,0.347-0.057,0.476,0.063
						c0.129,0.12,0.167,0.309,0.096,0.47c-5.84,13.134-15.943,11.478-18.911,10.655c5.18,14.02,10.16,38.437-10.753,51.5
						c7.964,3.979,13.42,11.385,15.806,21.471c3.437,14.528-0.34,32.478-9.184,43.65c-0.132,0.164-0.367,0.206-0.545,0.093
						c-0.178-0.113-0.243-0.342-0.15-0.532c1.726-3.511,1.263-7.313-1.126-9.247c-2.074-1.678-5.011-1.342-7.857,0.898
						c-9.566,7.534-27.519,6.19-43.446-10.864c-4.496,4.827-19.12,15.463-44.766,23.44
						C427.423,375.746,420.222,376.745,413.252,376.745z M346.391,324.204c0.038,0,0.076,0.005,0.114,0.016
						c0.167,0.048,0.287,0.196,0.299,0.369c0.474,6.87,9.35,25.981,27.721,39.026c17.122,12.158,37.876,15.383,60.019,9.325
						c26.049-8.102,40.621-18.936,44.685-23.532c0.078-0.088,0.189-0.138,0.305-0.14c0.128,0.001,0.229,0.047,0.309,0.133
						c15.663,16.999,33.303,18.456,42.633,11.106c3.171-2.496,6.493-2.829,8.889-0.891c2.088,1.69,2.89,4.606,2.259,7.631
						c7.537-11.045,10.588-27.376,7.422-40.761c-1.669-7.055-5.806-16.469-16.039-21.244c-0.138-0.065-0.23-0.201-0.238-0.354
						c-0.008-0.153,0.07-0.297,0.201-0.376c21.563-12.897,15.993-37.924,10.755-51.694c-0.059-0.154-0.02-0.327,0.098-0.443
						c0.117-0.115,0.292-0.149,0.445-0.087c0.481,0.197,11.588,4.523,18.197-8.909c-5.839,2.55-10.173-0.108-15.58-3.423
						c-6.047-3.707-13.573-8.318-26.352-7.492c-31.014,2.011-46.141,47.084-46.291,47.539c-0.031,0.096-0.097,0.177-0.185,0.228
						c-6.357,3.704-13.757-8.063-24.963-25.878c-23.353-37.126-62.439-99.262-138.933-99.262
						c-46.473,0-82.684,13.028-107.627,38.722c-15.153,15.61-26.27,36.046-33.041,60.741c-5.99,21.846-8.631,47.144-7.85,75.201
						c38.267-19.255,75.76-6.273,110.893,8.695c20.74,8.836,39.045,7.111,50.751,4.108c13.344-3.423,25.135-10.392,30.771-18.186
						C346.135,324.266,346.26,324.204,346.391,324.204z"/>
				</g>
				<path style="opacity:0.5;fill:#70C0C5;" d="M555.331,242.504c-12.813,6.777-17.901-12.066-42.826-10.45
					c-31.658,2.053-46.657,47.823-46.657,47.823c-18.663,10.887-50.535-125.196-163.688-125.196
					c-118.67,0-151.635,83.982-148.913,175.741c37.418-19.146,74.163-7.336,111.126,8.412c36.963,15.747,71.739,0,82.018-14.216
					c0.875,12.684,29.741,64.731,88.262,48.722c33.092-10.293,44.885-23.657,44.885-23.657
					c16.503,17.912,34.471,18.02,43.194,11.151c7.234-5.696,13.199,1.557,9.61,8.856c14.321-18.09,15.452-54.269-7.16-64.821
					c20.162-12.06,17.524-34.86,10.929-52.196C536.111,252.673,548.547,257.76,555.331,242.504z M529.918,246.912
					c0,0,11.983,16.584,5.607,35.903c-6.376,19.319-26.5,22.229-29.228,22.835c-2.727,0.606,25.566-1.907,31.363,24.242
					c3.333,15.036-3.03,27.272-3.03,27.272s-2.337-12.237-13.622-2.776c-8.62,7.227-33.245,2.742-45.246-21.577
					c-11.023,27.903-68.779,35.5-128.518-22.955c-38.072,53.307-87.963-5.933-144.216-2.606
					c-37.921,2.243-44.909,0.948-40.805-38.053c12.112-115.104,144.361-135.76,208.928-84.018
					c59.811,47.93,84.727,110.518,94.222,109.38c9.621-1.154,4.493-36.22,31.438-53.743c18.433-11.988,37.369-2.541,42.263,1.304
					c6.977,5.481,13.292,2.726,13.292,2.726S545.248,255.638,529.918,246.912z"/>
				<g>
					<path style="opacity:0.3;fill:#70C0C5;" d="M345.912,324.991c20.5,50.341,92.105,64.879,103.742,31.889
						c11.502-32.605-32.56-48.738-98.754-39.275C350.901,317.605,350.26,324.389,345.912,324.991z"/>
					<g>
						<path style="fill:#7FCED0;" d="M345.808,321.409c19.856,50.341,89.21,64.879,100.482,31.889
							c11.141-32.605-31.537-48.738-95.65-39.275C350.64,314.024,350.02,320.808,345.808,321.409z"/>
						<path style="fill:#40928F;" d="M416.15,371.411c-24.988,0-57.865-17.241-70.727-49.85c-0.046-0.118-0.036-0.25,0.027-0.36
							c0.063-0.109,0.174-0.183,0.299-0.201c3.838-0.548,4.473-6.95,4.479-7.014c0.018-0.19,0.163-0.343,0.351-0.371
							c44.007-6.495,79.415-0.834,92.404,14.775c5.765,6.927,7.009,15.353,3.698,25.043c-3.783,11.072-14.459,17.619-29.291,17.964
							C416.98,371.406,416.566,371.411,416.15,371.411z M346.375,321.716c13.066,32.506,46.242,49.42,70.996,48.854
							c14.465-0.336,24.863-6.68,28.527-17.405c3.211-9.398,2.016-17.556-3.551-24.246c-12.775-15.352-47.755-20.913-91.334-14.532
							C350.835,315.74,349.933,320.778,346.375,321.716z"/>
					</g>
					<path style="opacity:0.4;fill:#7FCED0;" d="M446.191,334.313c-0.134,2.07-0.659,4.25-1.605,6.536
						c-10.485,25.327-90.374,10.764-93.946-26.826c0,0-0.62,6.784-4.832,7.386c19.856,50.341,89.21,64.879,100.482,31.889
						C448.734,346.145,448.587,339.785,446.191,334.313z"/>
				</g>
				<path style="fill:#52A6A8;" d="M311.944,159.725c0,1.371-3.952,2.483-8.828,2.483s-8.828-1.112-8.828-2.483
					c0-1.371,3.953-2.483,8.828-2.483S311.944,158.354,311.944,159.725z"/>
				<g>
					<path style="opacity:0.6;fill:#70C0C5;" d="M177.778,229.877c13.949-39.77,53.719-71.232,113.67-67.669
						C248.417,161.933,193.233,194.581,177.778,229.877z"/>
					<g>
						<path style="opacity:0.6;fill:#70C0C5;" d="M337.494,176.56c-2.27,4.226,12.582,15.85,16.62,8.659
							S339.648,172.55,337.494,176.56z"/>
						<path style="opacity:0.6;fill:#70C0C5;" d="M358.117,186.689c-3.227,3.549,3.157,13.658,8.818,7.661
							C372.595,188.354,361.179,183.322,358.117,186.689z"/>
					</g>
					<path style="opacity:0.6;fill:#70C0C5;" d="M356.586,316.806c47.12-10.643,79.724,6.533,83.382,14.167
						C439.968,330.973,402.664,310.432,356.586,316.806z"/>
					<g>
						<path style="opacity:0.6;fill:#70C0C5;" d="M300.869,321.909c-0.184,1.327,7.907,2.662,8.291,0.385
							C309.544,320.016,301.044,320.649,300.869,321.909z"/>
						<path style="opacity:0.6;fill:#70C0C5;" d="M311.049,322.229c-0.693,1.259,3.681,3.137,4.937,0.986
							C317.241,321.064,311.707,321.034,311.049,322.229z"/>
					</g>
					<path style="opacity:0.6;fill:#70C0C5;" d="M476.484,281.788c3.506-44.872,40.013-47.025,47.438-43.106
						C523.922,238.682,484.734,237.352,476.484,281.788z"/>
					<path style="opacity:0.6;fill:#70C0C5;" d="M503.589,307.77c23.843-1.935,36.2,20.559,31.675,41.217
						C533.811,327.139,519.426,307.074,503.589,307.77z"/>
				</g>
			</g>
			<g>
				<path style="opacity:0.3;fill:#535860;" d="M280.716,326.757c16.924-12.267,40.982-5.071,48.943-1.127
					c0,0-1.531-2.082-4.493-3.629c19.591-61.107-6.472-70.923-20.393-70.923c-14.918,0-39.508,11.218-19.141,70.923
					C285.632,322.001,282.354,324.271,280.716,326.757z"/>
				<g>
					<g>
						<path style="fill:#383D44;" d="M327.203,254.243c0.282,0.822,0.462,1.697,0.389,2.586c-0.066,0.887-0.409,1.76-0.949,2.484
							c-1.097,1.461-2.756,2.35-4.424,2.957c-0.215,0.078-0.452-0.033-0.53-0.247c-0.078-0.215,0.033-0.452,0.247-0.53
							c0.01-0.004,0.02-0.007,0.03-0.01l0.007-0.002c1.616-0.447,3.231-1.16,4.347-2.425c0.551-0.629,0.936-1.409,1.067-2.252
							C327.524,255.961,327.42,255.085,327.203,254.243z"/>
						<path style="fill:#383D44;" d="M332.854,264.056c-0.056,0.867-0.226,1.744-0.635,2.537c-0.402,0.794-1.054,1.467-1.831,1.929
							c-1.574,0.927-3.447,1.111-5.221,1.03c-0.228-0.01-0.405-0.204-0.395-0.432c0.01-0.228,0.204-0.405,0.432-0.395
							c0.011,0,0.021,0.001,0.032,0.003l0.007,0.001c1.664,0.209,3.429,0.171,4.945-0.569c0.75-0.369,1.405-0.941,1.85-1.669
							C332.491,265.765,332.731,264.917,332.854,264.056z"/>
						<path style="fill:#383D44;" d="M332.511,258.339c0.021,1.053-0.083,2.128-0.468,3.133c-0.378,1.005-1.059,1.905-1.928,2.564
							c-0.866,0.665-1.886,1.107-2.931,1.392c-1.049,0.285-2.13,0.423-3.212,0.462c-0.228,0.008-0.42-0.17-0.428-0.398
							c-0.008-0.228,0.17-0.42,0.398-0.428c0.008,0,0.016,0,0.024,0l0.006,0c2.04,0.052,4.179-0.23,5.901-1.363
							c0.851-0.563,1.551-1.363,1.979-2.31C332.288,260.446,332.464,259.393,332.511,258.339z"/>
					</g>
					<g>
						<g>
							<path style="fill:#FFFAF7;" d="M287.186,322.484c0,0,15.253-7.368,36.308,0c7.94-14.189,13.497-68.257-18.154-68.257
								S276.602,301.946,287.186,322.484z"/>
							<path style="fill:#44698E;" d="M287.003,323.031l-0.185-0.358c-6.918-13.423-11.506-41.733-1.706-57.809
								c4.47-7.332,11.276-11.051,20.227-11.051c8.354,0,14.75,3.683,19.008,10.946c9.598,16.369,5.417,47.364-0.493,57.926
								l-0.17,0.303l-0.328-0.115c-20.636-7.222-35.84-0.092-35.992-0.018L287.003,323.031z M304.792,318.82
								c5.336,0,11.62,0.793,18.508,3.159c5.741-10.694,9.702-40.826,0.336-56.801c-4.1-6.992-10.255-10.537-18.295-10.537
								c-8.643,0-15.211,3.585-19.521,10.654c-9.561,15.683-5.174,43.263,1.558,56.653
								C288.948,321.282,295.395,318.82,304.792,318.82z"/>
						</g>
						<g>
							<defs>
								<path id="SVGID_00000164483831197475757810000009214857693219856826_" d="M287.186,322.484c0,0,15.253-7.368,36.308,0
									c7.94-14.189,13.497-68.257-18.154-68.257S276.602,301.946,287.186,322.484z"/>
							</defs>
							<clipPath id="SVGID_00000032613220029244428230000010624386280256928902_">
								<use xlink:href="#SVGID_00000164483831197475757810000009214857693219856826_"  style="overflow:visible;"/>
							</clipPath>
							<g style="clip-path:url(#SVGID_00000032613220029244428230000010624386280256928902_);">
								<path style="fill:#8BA5AF;" d="M288.921,300.488c-1.118,13.149,3.803,24.029,13.7,25.865
									c9.921,1.81,19.21-6.458,19.956-19.661c0.701-13.207-6.831-26.346-15.696-27.514
									C298.003,278.018,290.007,287.326,288.921,300.488z"/>
								<g>
									<path style="fill:#9EA5AF;" d="M302.621,326.353c9.921,1.81,19.21-6.458,19.956-19.661
										c0.701-13.207-6.831-26.346-15.696-27.514c-8.878-1.16-16.875,8.148-17.96,21.31
										C287.808,313.609,292.725,324.517,302.621,326.353z M290.158,299.214c1.023-12.06,8.54-20.544,16.751-19.411
										c8.195,1.102,15.076,13.078,14.506,25.281c-0.555,12.149-9.277,19.843-18.564,18.112
										C293.553,321.452,289.137,311.312,290.158,299.214z"/>
								</g>
								<g style="opacity:0.6;">
									<path style="fill:#8BA5AF;" d="M302.621,326.353c9.921,1.81,19.21-6.458,19.956-19.661
										c0.701-13.207-6.831-26.346-15.696-27.514c-8.878-1.16-16.875,8.148-17.96,21.31
										C287.808,313.609,292.725,324.517,302.621,326.353z M295.304,289.956c3.625-3.165,3.82-0.818,2.238,2.226
										c-1.552,3.017-6.371,13.195-1.82,20.712c2.172,3.604,5.544,5.304,5.625,6.455c0.059,1.117-7.634,0.71-10.103-6.758
										C288.371,303.981,291.625,293.185,295.304,289.956z"/>
								</g>
								<g style="opacity:0.6;">
									<path style="fill:#8BA5AF;" d="M294.118,303.133c0.808-8.92,6.674-14.886,13.151-13.578
										c0.423,0.055,0.851,0.175,1.298,0.345c0.866-1.4,2.128-2.388,3.605-2.309c2.853,0.164,5.583,3.82,6.002,8.151
										c0.199,1.875-0.026,3.584-0.623,4.927c0.589,2.216,0.891,4.599,0.738,7.081c-0.56,8.856-7.22,14.428-14.194,13.122
										C297.14,319.548,293.25,312.003,294.118,303.133z"/>
								</g>
								<path style="fill:#0A010B;" d="M297.201,303.38c-0.658,6.623,2.399,12.411,7.697,13.43
									c5.25,0.984,10.232-3.262,10.706-9.912c0.455-6.616-3.384-12.703-8.354-13.679
									C302.298,292.214,297.869,296.74,297.201,303.38z"/>
								<g style="opacity:0.6;">
									<path style="fill:#8BA5AF;" d="M303.725,295.525c2.192,6.366,8.251,11.021,12.691,9.935
										c4.441-1.125,5.689-7.455,3.311-13.628c-2.411-6.141-7.579-11.547-11.831-10.109
										C303.709,283.106,301.579,289.163,303.725,295.525z"/>
								</g>
								<path style="fill:#FFFFFF;" d="M307.033,294.769c1.721,4.866,6.152,8.397,9.453,7.583c3.209-0.823,4.099-5.625,2.262-10.303
									c-1.819-4.652-5.754-8.706-8.887-7.716C306.709,285.319,305.278,289.955,307.033,294.769z"/>
								<g>
									<path style="fill:#9EA5AF;" d="M293.501,297.294c-1,5.196-1.876,15.501,5.463,20.198c4.253,2.722-6.532,1.608-7.984-9.736
										C289.851,299.035,294.756,290.735,293.501,297.294z"/>
								</g>
								<g>
									<path style="fill:#9EA5AF;" d="M295.023,291.681c1.139,0.386,0.374,3.181-1.257,2.629
										C292.628,293.911,293.443,291.195,295.023,291.681z"/>
								</g>
							</g>
						</g>
						<path style="fill:#CCCED6;" d="M305.34,254.228c-31.651,0-28.738,47.719-18.154,68.257c0,0,15.253-7.368,36.308,0
							C331.434,308.295,336.991,254.228,305.34,254.228z M304.773,313.628c-9.63-0.079-16.8-4.25-19.179-12.331
							c-5.499-18.68-3.542-46.121,19.674-46.121c22.752,0,24.462,30.092,19.163,46.848
							C321.028,312.781,309.382,313.666,304.773,313.628z"/>
						<path style="fill:#44698E;" d="M328.328,324.464c-1.941-0.567-3.809-1.288-5.74-1.8l-2.857-0.881
							c-0.478-0.141-0.949-0.306-1.432-0.426l-1.46-0.317l-2.92-0.635l-2.962-0.39c-0.494-0.06-0.986-0.142-1.482-0.184
							l-1.492-0.074c-0.994-0.03-1.988-0.144-2.983-0.106c-3.984-0.022-7.959,0.508-11.821,1.454c-1.936,0.46-3.824,1.1-5.683,1.803
							c-1.89,0.626-3.755,1.356-5.545,2.275c1.618-1.207,3.42-2.147,5.241-3.044c1.894-0.717,3.816-1.368,5.786-1.837
							c3.929-0.963,7.972-1.501,12.021-1.479c1.012-0.038,2.021,0.076,3.032,0.107l1.516,0.076c0.504,0.043,1.003,0.125,1.505,0.186
							l3.008,0.396l2.964,0.644l1.482,0.322c0.49,0.122,0.968,0.289,1.453,0.432l2.899,0.887c0.479,0.16,0.936,0.38,1.391,0.604
							l1.367,0.657C326.527,323.569,327.432,324.013,328.328,324.464z"/>
					</g>
				</g>
			</g>
			<g>
				<g>
					<g>
						<path style="fill:#C2E3FF;" d="M362.009,70.405c13.595-14.098,28.175-1.636,24.194,2.764
							C381.138,78.769,372.684,62.698,362.009,70.405z"/>
						<path style="fill:#85BDE8;" d="M383.647,74.786c-1.883,0-3.996-1.262-6.187-2.571c-4.426-2.643-9.441-5.639-15.209-1.474
							c-0.173,0.126-0.413,0.097-0.554-0.064c-0.14-0.162-0.134-0.404,0.015-0.558c9.236-9.577,18.945-7.117,23.218-3.126
							c2.406,2.247,3.041,4.84,1.581,6.454C385.642,74.407,384.679,74.786,383.647,74.786z M368.147,67.855
							c3.626,0,6.904,1.958,9.737,3.65c3.731,2.229,6.114,3.488,8.014,1.387c1.133-1.253,0.518-3.381-1.532-5.296
							c-3.666-3.424-11.6-5.623-19.64,0.871C365.897,68.038,367.038,67.855,368.147,67.855z"/>
					</g>
					<path style="fill:#C2E3FF;" d="M383.321,66.203c0.683,1.072,0.788,2.164,0.108,2.916c-3.506,3.875-9.357-7.247-16.745-1.913
						c0.542-0.563,1.087-1.057,1.632-1.502c-2.053,1.037-4.153,2.565-6.23,4.719c10.674-7.707,19.129,8.363,24.194,2.764
						C387.885,71.412,386.47,68.329,383.321,66.203z"/>
				</g>
				<g>
					<g>
						<path style="fill:#C2E3FF;" d="M242.058,98.033c-24.971-10.09-36.301,13.728-28.838,17.025
							C222.718,119.252,224.335,94.332,242.058,98.033z"/>
						<path style="fill:#85BDE8;" d="M215.335,115.958c-0.713,0-1.47-0.164-2.282-0.522c-2.654-1.172-3.276-4.704-1.55-8.789
							c3.106-7.349,13.848-15.81,30.709-8.996c0.198,0.08,0.303,0.298,0.241,0.503c-0.062,0.205-0.273,0.328-0.48,0.284
							c-9.679-2.02-14.329,4.596-18.433,10.433C220.901,112.624,218.557,115.958,215.335,115.958z M230.383,95.978
							c-9.687,0-15.916,5.78-18.118,10.99c-1.537,3.637-1.087,6.736,1.122,7.711c3.859,1.705,6.338-1.821,9.477-6.284
							c3.538-5.032,7.835-11.141,15.703-11.152C235.616,96.364,232.883,95.978,230.383,95.978z"/>
					</g>
					<path style="fill:#C2E3FF;" d="M212.938,104.692c-0.257,1.728,0.222,3.159,1.498,3.723c6.573,2.903,7.692-14.344,19.958-11.783
						c-0.996-0.403-1.958-0.719-2.891-0.973c3.16,0.153,6.652,0.895,10.467,2.437c-17.723-3.701-19.34,21.219-28.837,17.024
						C210.124,113.792,210.174,109.127,212.938,104.692z"/>
				</g>
				<g>
					<g>
						<g>
							<path style="fill:#C2E3FF;" d="M306.994,83.39c-3.327-37.173-28.131-42.628-43.539-37.253
								c-15.167,5.291-22.336,24.257-10.497,29.368c7.55,3.26,12.809-2.97,19.489-8.392C280.878,60.271,300.213,56.39,306.994,83.39
								z"/>
							<path style="fill:#85BDE8;" d="M306.993,83.803c-0.187,0-0.354-0.126-0.401-0.313c-2.719-10.824-7.844-17.775-14.823-20.099
								c-7.37-2.453-14.874,0.644-19.063,4.043c-1.001,0.813-1.971,1.644-2.92,2.458c-5.317,4.558-10.34,8.865-16.993,5.992
								c-4.14-1.787-6.327-5.343-6.159-10.011c0.253-7.024,6.186-16.466,16.684-20.127c9.127-3.185,19.225-2.086,27.01,2.936
								c6.766,4.365,15.22,13.923,17.077,34.671c0.019,0.215-0.13,0.408-0.343,0.445C307.039,83.801,307.016,83.803,306.993,83.803z
								 M286.264,61.684c1.892,0,3.833,0.279,5.767,0.923c4.462,1.486,10.256,5.514,13.981,16.065
								c-2.08-13.721-7.608-23.795-16.132-29.294c-7.571-4.885-17.4-5.951-26.29-2.85c-7.682,2.68-15.816,10.66-16.13,19.376
								c-0.155,4.304,1.855,7.58,5.661,9.222c6.176,2.667,10.789-1.285,16.127-5.861c0.955-0.819,1.93-1.654,2.938-2.472
								C275.442,64.15,280.635,61.684,286.264,61.684z"/>
						</g>
						<g>
							<path style="fill:#C2E3FF;" d="M274.611,44.383c-0.194-0.004-0.386,0.003-0.58,0.002
								C274.223,44.382,274.418,44.384,274.611,44.383z"/>
							<path style="fill:#C2E3FF;" d="M304.074,68.518c-5.574-16.665-23.92-14.259-30.786-10.016
								c-5.452,3.368-9.743,7.239-15.905,5.213c-9.662-3.175-3.812-14.959,8.566-18.246c2.356-0.626,5.074-1.015,7.952-1.083
								c-3.7,0.006-7.274,0.643-10.447,1.75c-15.167,5.291-22.336,24.257-10.497,29.368c7.55,3.26,12.809-2.97,19.489-8.392
								c8.431-6.842,27.766-10.723,34.547,16.276C306.486,77.715,305.473,72.788,304.074,68.518z"/>
						</g>
					</g>
					<path style="fill:#C2E3FF;" d="M255.819,54.811c5.581-11.547,26.194-12.258,35.313-2.502
						C291.132,52.309,271.214,41.147,255.819,54.811z"/>
				</g>
				<g>
					<g>
						<g>
							<path style="fill:#C2E3FF;" d="M310.263,44.387c2.17-24.249,18.35-27.807,28.402-24.301
								c9.894,3.451,14.57,15.823,6.847,19.158c-4.925,2.126-8.355-1.937-12.713-5.474
								C327.299,29.306,314.686,26.775,310.263,44.387z"/>
							<path style="fill:#85BDE8;" d="M310.263,44.8c-0.023,0-0.046-0.002-0.069-0.006c-0.213-0.036-0.362-0.23-0.343-0.444
								c1.216-13.592,6.765-19.859,11.205-22.724c5.115-3.301,11.749-4.021,17.745-1.931c6.908,2.41,10.813,8.631,10.979,13.26
								c0.112,3.109-1.346,5.476-4.104,6.667c-4.421,1.909-7.731-0.927-11.235-3.931c-0.619-0.53-1.25-1.072-1.903-1.601
								c-2.917-2.367-7.853-4.094-12.299-2.612c-4.503,1.5-7.814,5.998-9.575,13.009C310.617,44.674,310.449,44.8,310.263,44.8z
								 M331.849,19.343c-3.682,0-7.296,1.01-10.344,2.978c-5.227,3.372-8.717,9.405-10.222,17.59
								c2.447-5.938,5.952-8.304,8.695-9.218c5.071-1.689,10.215,0.429,13.081,2.755c0.658,0.534,1.296,1.08,1.92,1.615
								c3.445,2.953,6.419,5.504,10.369,3.8c2.424-1.047,3.705-3.134,3.606-5.879c-0.159-4.417-4.102-10.304-10.425-12.509
								C336.351,19.717,334.088,19.343,331.849,19.343z"/>
						</g>
						<g>
							<path style="fill:#C2E3FF;" d="M331.387,18.942c0.127-0.003,0.252,0.002,0.378,0.002
								C331.64,18.941,331.513,18.943,331.387,18.942z"/>
							<path style="fill:#C2E3FF;" d="M312.168,34.686c3.636-10.871,15.603-9.301,20.083-6.534
								c3.556,2.197,6.356,4.722,10.375,3.401c6.303-2.071,2.486-9.758-5.588-11.902c-1.537-0.408-3.31-0.662-5.188-0.706
								c2.414,0.004,4.745,0.419,6.815,1.141c9.894,3.451,14.57,15.823,6.847,19.158c-4.925,2.126-8.355-1.937-12.713-5.474
								c-5.5-4.464-18.112-6.995-22.536,10.617C310.594,40.685,311.255,37.472,312.168,34.686z"/>
						</g>
					</g>
					<path style="fill:#C2E3FF;" d="M319.682,26.203c4.476-8.519,18.538-7.98,24.167-0.056
						C343.848,26.147,330.958,16.584,319.682,26.203z"/>
				</g>
				<g>
					<g>
						<g>
							<path style="fill:#C2E3FF;" d="M301.663,159.725c0-29.867-16.662-43.986-37.606-40.871
								c-14.631,2.177-14.521,9.019-21.999,7.614c-7.478-1.406-3.322-28.463,26.614-30.607
								c28.154-2.017,34.864,21.248,37.836,21.163c2.972-0.085,11.725-38.307,53.118-35.373
								c38.741,2.747,43.482,37.854,32.948,43.093c-16.501,8.205-26.092-28.811-62.195-13.135
								c-23.777,10.325-24.808,48.115-24.808,48.115S303.75,160.648,301.663,159.725z"/>
							<path style="fill:#85BDE8;" d="M303.606,160.55c-0.629,0-1.352-0.112-2.11-0.447c-0.15-0.066-0.246-0.215-0.246-0.378
								c0-15.241-4.323-27.025-12.502-34.077c-6.501-5.606-15.019-7.814-24.629-6.384c-7.531,1.12-11.036,3.443-13.853,5.31
								c-2.534,1.679-4.535,3.004-8.284,2.301c-2.416-0.454-3.776-3.199-3.549-7.165c0.51-8.919,8.976-22.74,30.21-24.261
								c21.559-1.551,30.725,11.638,35.13,17.974c1.139,1.639,2.216,3.188,2.717,3.188c0.002,0,0.004,0,0.007,0
								c0.414-0.088,1.461-2.093,2.474-4.033c5.265-10.08,17.587-33.687,50.685-31.339c11.08,0.785,20.18,4.199,27.047,10.147
								c5.544,4.802,9.327,11.131,10.65,17.82c1.468,7.419-0.378,13.811-4.593,15.908c-6.988,3.476-12.8-0.911-19.528-5.99
								c-9.62-7.261-21.594-16.295-42.686-7.136c-23.26,10.1-24.549,47.372-24.559,47.748c-0.004,0.152-0.091,0.289-0.227,0.357
								C305.704,160.121,304.836,160.55,303.606,160.55z M302.076,159.725h0.008H302.076z M302.076,159.447
								c1.389,0.518,2.613,0.178,3.093,0c0.16-3.422,2.359-38.365,25.046-48.216c21.537-9.352,33.722-0.156,43.514,7.234
								c6.779,5.116,12.135,9.157,18.662,5.909c3.817-1.898,5.523-8.069,4.15-15.007c-2.394-12.103-13.357-25.631-36.943-27.303
								c-32.56-2.307-44.705,20.961-49.894,30.897c-1.596,3.057-2.325,4.452-3.183,4.477c-0.01,0-0.019,0-0.029,0
								c-0.934,0-1.813-1.265-3.397-3.543c-4.318-6.211-13.302-19.133-34.392-17.622c-20.702,1.483-28.95,14.857-29.443,23.483
								c-0.198,3.465,0.931,5.939,2.876,6.305c3.42,0.644,5.111-0.48,7.674-2.178c2.733-1.811,6.476-4.291,14.188-5.438
								c9.859-1.465,18.602,0.808,25.291,6.576C297.603,132.192,302.023,144.092,302.076,159.447z"/>
						</g>
						<path style="fill:#C2E3FF;" d="M359.626,81.651c-41.393-2.935-50.146,35.288-53.118,35.373
							c-2.972,0.085-9.682-23.18-37.836-21.163c-29.936,2.145-34.093,29.202-26.614,30.607c7.478,1.405,7.368-5.437,21.999-7.614
							c20.944-3.116,37.606,11.004,37.606,40.871c2.087,0.923,3.908,0,3.908,0s1.031-37.791,24.808-48.116
							c36.103-15.677,45.694,21.34,62.195,13.135C403.109,119.506,398.367,84.398,359.626,81.651z M256.491,115.057
							c-8.675,6.783-16.477-3.579-3.91-11.81c12.567-8.231,39.657-6.681,48.526,12.407
							C290.362,101.01,264.729,108.615,256.491,115.057z M279.766,116.543c-3.086-1.164-0.592-4.066,3.832-2.598
							c8.852,2.936,16.45,12.922,16.824,28.503C299.083,124.896,286.056,118.917,279.766,116.543z M294.288,117.252
							c-1.954-1.778,7.466-4.825,8.102,20.449C301.277,126.65,298.201,120.813,294.288,117.252z M327.405,109.747
							c-6.422,3.615-19.768,12.6-21.876,37.377c1.052-21.958,9.119-36.35,18.139-40.869
							C328.177,103.996,330.556,107.974,327.405,109.747z M376.77,110.452c-11.711-10.718-48.146-23.372-63.42,0.992
							c12.607-31.758,51.113-34.339,68.977-20.643C400.192,104.497,389.102,121.739,376.77,110.452z"/>
					</g>
					<path style="fill:#C2E3FF;" d="M248.417,110.968c4.701-11.932,25.203-14.184,35.027-5.137
						C283.444,105.831,262.746,96.191,248.417,110.968z"/>
					<path style="fill:#C2E3FF;" d="M341.489,89.457c11.753-12.241,37.981-4.69,45.457,11.322
						C386.946,100.78,366.459,78.574,341.489,89.457z"/>
				</g>
			</g>
		</g>
	</g>
	<path style="fill:#58A0CC;" d="M565.918,361.475c-1.849,1.081-3.852,1.869-5.897,2.489c-4.094,1.251-8.365,1.872-12.633,2.183
		c-4.268,0.291-8.579,0.285-12.787-0.154c-1.047-0.115-2.094-0.252-3.088-0.46c-0.497-0.102-0.978-0.223-1.414-0.362
		c-0.477-0.173-0.963-0.336-1.45-0.536c-1.952-0.77-3.9-1.684-5.859-2.574c-1.956-0.904-3.953-1.743-5.955-2.592
		c-2.008-0.838-4.017-1.694-6.089-2.477c-1.043-0.385-2.089-0.763-3.203-1.081l-0.841-0.233l-0.821-0.182
		c-0.548-0.117-1.094-0.252-1.644-0.352c-2.201-0.418-4.418-0.678-6.636-0.85c-8.887-0.579-17.697,0.561-26.255,2.403
		c-0.536,0.121-1.067,0.228-1.607,0.362l-1.63,0.435c-1.099,0.265-2.145,0.642-3.203,0.994c-2.108,0.72-4.15,1.561-6.161,2.44
		c-4.02,1.764-7.902,3.71-11.799,5.536c-3.894,1.824-7.805,3.55-11.815,4.802c-4.002,1.237-8.121,2.02-12.166,1.651
		c-8.393-0.727-16.573-3.461-24.841-6.05c-4.142-1.298-8.339-2.563-12.655-3.504c-4.306-0.952-8.762-1.534-13.213-1.563
		c-8.92-0.088-17.656,1.752-26.031,4.194c-8.398,2.444-16.535,5.478-24.73,8.122c-8.184,2.637-16.48,4.925-24.919,5.661
		c-4.211,0.354-8.441,0.3-12.597-0.274c-1.038-0.148-2.078-0.284-3.098-0.54c-1.025-0.23-2.053-0.438-3.075-0.682
		c-2.018-0.614-4.055-1.156-6.031-1.944c-2.003-0.685-3.946-1.58-5.91-2.4c-1.935-0.917-3.882-1.791-5.795-2.78
		c-3.846-1.911-7.652-3.974-11.521-5.96c-3.852-2.01-7.801-3.923-11.87-5.609l-3.076-1.221l-3.15-1.068
		c-1.037-0.39-2.131-0.636-3.206-0.926c-1.078-0.288-2.156-0.566-3.272-0.705c-1.11-0.153-2.215-0.327-3.323-0.459l-3.357-0.16
		c-2.236-0.102-4.471,0.096-6.676,0.327c-4.407,0.57-8.676,1.677-12.833,2.994c-4.161,1.317-8.218,2.855-12.287,4.328
		c-4.062,1.493-8.142,2.931-12.333,4.043c4.259-0.809,8.456-1.957,12.623-3.158c4.161-1.22,8.296-2.512,12.469-3.557
		c4.169-1.048,8.381-1.865,12.599-2.152c2.109-0.09,4.213-0.151,6.297,0.074l3.119,0.337c1.031,0.189,2.056,0.416,3.081,0.62
		c8.243,1.612,16.049,5.264,23.686,9.22c3.836,1.969,7.647,4.035,11.557,5.979c1.934,0.999,3.939,1.901,5.918,2.838
		c2.031,0.849,4.027,1.767,6.124,2.487c2.052,0.817,4.204,1.396,6.33,2.038c1.083,0.26,2.177,0.484,3.266,0.726
		c1.084,0.268,2.192,0.416,3.297,0.573c4.425,0.611,8.908,0.664,13.325,0.292c8.852-0.774,17.373-3.144,25.651-5.809
		c8.288-2.675,16.397-5.697,24.637-8.093c8.22-2.4,16.64-4.149,25.081-4.063c8.434,0.012,16.692,2.319,24.914,4.917
		c8.225,2.566,16.621,5.408,25.548,6.189c4.618,0.417,9.178-0.475,13.421-1.787c4.262-1.332,8.293-3.119,12.238-4.965
		c7.887-3.668,15.471-7.834,23.701-9.531c8.349-1.801,16.898-2.888,25.325-2.335c2.1,0.163,4.188,0.409,6.243,0.799
		c0.515,0.093,1.02,0.22,1.531,0.329l0.764,0.169l0.724,0.202c0.969,0.276,1.962,0.632,2.95,0.997
		c3.978,1.474,7.866,3.394,11.892,5.035c2.02,0.815,4.061,1.596,6.182,2.297c0.527,0.18,1.078,0.33,1.63,0.491
		c0.606,0.154,1.186,0.26,1.755,0.341c1.139,0.165,2.25,0.24,3.361,0.294c4.432,0.189,8.813-0.078,13.159-0.64
		c4.337-0.585,8.654-1.48,12.767-3.021c2.045-0.789,4.037-1.749,5.845-2.994c1.811-1.227,3.391-2.847,4.388-4.774
		C569.425,358.954,567.77,360.409,565.918,361.475z"/>
</g>
</svg>
