<?xml version="1.0" standalone="no"?>
<!DOCTYPE svg PUBLIC "-//W3C//DTD SVG 20010904//EN"
 "http://www.w3.org/TR/2001/REC-SVG-20010904/DTD/svg10.dtd">
<svg version="1.0" xmlns="http://www.w3.org/2000/svg"
 width="1280.000000pt" height="1280.000000pt" viewBox="0 0 1280.000000 1280.000000"
 preserveAspectRatio="xMidYMid meet">
<metadata>
Created by potrace 1.15, written by Peter Selinger 2001-2017
</metadata>
<g transform="translate(0.000000,1280.000000) scale(0.100000,-0.100000)"
fill="#000000" stroke="none">
<path d="M9700 12759 c-559 -82 -650 -130 -799 -427 -88 -176 -134 -353 -135
-527 -1 -114 1 -123 30 -185 56 -117 163 -203 444 -358 80 -44 183 -103 230
-132 197 -123 355 -173 550 -172 145 0 237 20 348 76 83 42 200 134 263 208
95 111 298 366 336 423 144 212 157 357 53 581 -51 110 -108 192 -204 292 -96
100 -169 158 -252 200 -107 54 -159 62 -390 61 -188 -1 -236 -5 -474 -40z"/>
<path d="M7247 11266 c-227 -41 -393 -122 -531 -262 -229 -231 -337 -575 -337
-1069 0 -402 69 -808 211 -1235 232 -701 562 -1106 987 -1212 113 -28 326 -30
448 -4 386 83 812 357 1235 792 288 297 473 581 569 871 96 288 95 538 0 918
-106 418 -258 585 -704 775 -145 62 -495 193 -680 256 -189 64 -422 124 -595
154 -160 28 -485 36 -603 16z"/>
<path d="M11359 11160 c-152 -27 -259 -126 -411 -380 -127 -210 -152 -244
-311 -415 -212 -226 -267 -317 -267 -440 0 -161 108 -254 440 -380 253 -95
303 -126 494 -304 217 -204 329 -258 474 -231 267 48 571 242 745 475 73 98
178 310 211 428 78 271 41 461 -139 711 -211 294 -447 446 -802 517 -118 23
-356 34 -434 19z"/>
<path d="M10541 8809 c-187 -37 -379 -154 -514 -315 -36 -44 -94 -113 -129
-155 -35 -42 -100 -118 -146 -170 -219 -249 -261 -384 -183 -585 86 -222 363
-532 552 -618 137 -63 266 -59 719 24 447 82 602 136 742 259 128 113 243 369
269 597 27 241 -46 406 -244 552 -86 64 -465 292 -562 338 -123 59 -234 84
-360 83 -55 -1 -120 -5 -144 -10z"/>
<path d="M3854 5919 c-114 -19 -227 -92 -377 -245 -141 -143 -246 -303 -297
-455 -17 -50 -21 -80 -18 -139 7 -127 64 -223 266 -453 59 -67 125 -144 147
-172 137 -174 234 -261 371 -332 111 -58 207 -84 339 -90 205 -9 319 31 650
230 266 161 342 215 420 298 98 106 125 184 125 359 0 136 -23 251 -74 377
-71 172 -152 282 -266 358 -139 93 -265 131 -665 204 -393 72 -491 82 -621 60z"/>
<path d="M1270 5250 c-229 -29 -423 -132 -609 -325 -344 -358 -579 -1003 -651
-1790 -24 -258 -8 -619 35 -827 186 -891 931 -1112 2085 -618 429 183 720 368
966 614 201 202 320 395 389 631 71 245 103 592 71 756 -35 175 -143 341 -339
522 -132 123 -470 406 -619 518 -443 335 -822 505 -1168 522 -52 3 -124 2
-160 -3z"/>
<path d="M5265 3840 c-55 -11 -131 -42 -194 -79 -53 -32 -100 -67 -320 -240
-89 -70 -154 -110 -295 -182 -370 -188 -460 -274 -461 -439 0 -64 4 -83 28
-126 44 -79 104 -141 278 -290 187 -160 217 -198 329 -419 95 -186 122 -226
194 -293 83 -75 127 -87 316 -87 223 0 415 47 616 148 261 132 533 420 615
653 76 218 -14 622 -197 880 -146 206 -486 418 -752 470 -81 15 -97 16 -157 4z"/>
<path d="M3525 1890 c-146 -23 -279 -79 -492 -206 -73 -43 -185 -108 -250
-144 -212 -117 -327 -220 -369 -331 -25 -63 -25 -258 0 -364 27 -116 71 -236
128 -348 91 -178 158 -246 296 -302 95 -39 199 -60 512 -106 250 -37 307 -43
465 -43 159 -1 189 2 258 22 97 28 144 51 228 113 200 147 373 406 410 611 22
121 -14 245 -112 389 -48 71 -267 345 -342 429 -118 132 -252 219 -397 260
-87 24 -247 33 -335 20z"/>
</g>
</svg>
