<?xml version="1.0" standalone="no"?>
<!DOCTYPE svg PUBLIC "-//W3C//DTD SVG 20010904//EN"
 "http://www.w3.org/TR/2001/REC-SVG-20010904/DTD/svg10.dtd">
<svg version="1.0" xmlns="http://www.w3.org/2000/svg"
 width="1280.000000pt" height="640.000000pt" viewBox="0 0 1280.000000 640.000000"
 preserveAspectRatio="xMidYMid meet">
<metadata>
Created by potrace 1.15, written by Peter Selinger 2001-2017
</metadata>
<g transform="translate(0.000000,640.000000) scale(0.100000,-0.100000)"
fill="#000000" stroke="none">
<path d="M5981 6108 c-85 -42 -132 -147 -110 -250 26 -125 181 -195 305 -139
69 31 124 122 124 203 -1 155 -174 256 -319 186z"/>
<path d="M940 5531 c-99 -31 -217 -116 -250 -182 -43 -84 -43 -197 -1 -259 34
-49 34 -49 -12 -69 -36 -15 -57 -36 -57 -55 0 -1 15 -1 33 1 32 4 32 4 10 -13
-23 -16 -33 -41 -12 -29 6 4 27 4 47 0 l37 -7 -75 -28 c-113 -41 -120 -46
-114 -78 4 -21 -19 -70 -112 -232 -64 -113 -140 -236 -170 -275 -64 -85 -84
-130 -84 -191 0 -54 40 -159 109 -289 117 -218 152 -294 145 -319 -3 -14 -24
-46 -46 -71 -47 -53 -47 -52 -8 -265 26 -137 27 -267 5 -370 -26 -119 -25
-122 15 -132 74 -18 89 -29 96 -64 3 -19 3 -59 0 -88 -6 -48 -5 -56 13 -65 18
-10 19 -13 5 -73 -8 -35 -26 -87 -40 -117 -30 -67 -29 -69 84 -106 45 -14 82
-30 82 -34 0 -4 -21 -38 -46 -76 -93 -142 -141 -257 -175 -420 -33 -159 -71
-266 -146 -405 -73 -134 -118 -195 -183 -245 -32 -25 -66 -55 -75 -68 -19 -28
-19 -67 1 -95 29 -42 154 -92 154 -62 0 6 5 10 10 10 6 0 10 -6 10 -13 0 -12
219 -181 267 -206 46 -23 200 -5 210 25 2 7 -21 26 -51 43 -98 55 -221 230
-233 330 -5 46 -4 49 105 211 61 91 123 180 140 199 l29 35 1 -235 2 -234 -31
-65 c-20 -43 -32 -87 -36 -131 -5 -59 -3 -69 16 -88 32 -32 92 -29 134 9 41
35 50 36 86 10 35 -24 100 -40 171 -39 73 0 195 22 215 39 14 12 13 16 -10 40
-27 29 -47 38 -179 90 -43 17 -91 39 -106 50 -53 37 -79 168 -64 318 l7 77 23
-50 c17 -37 22 -68 22 -120 -1 -76 20 -143 56 -183 15 -17 29 -22 56 -20 34 3
35 4 42 53 3 28 7 84 7 126 1 67 5 81 32 122 46 70 154 163 234 203 l72 36 64
-32 c35 -18 83 -46 106 -61 23 -16 48 -29 57 -29 8 0 61 43 117 95 56 52 108
95 116 95 26 0 43 -56 41 -132 l-3 -73 65 0 c36 0 79 4 96 8 l31 8 7 -77 c4
-43 23 -141 43 -218 32 -128 34 -144 24 -194 -15 -77 -14 -90 12 -116 16 -16
45 -27 91 -35 38 -7 97 -23 133 -36 79 -30 114 -31 138 -5 26 28 14 45 -57 81
-79 40 -182 141 -191 188 -9 42 -9 255 0 344 4 43 10 67 18 67 21 0 27 65 19
206 -7 132 -7 133 -45 189 -36 53 -69 157 -69 219 0 34 32 50 87 43 54 -6 60
2 98 123 19 59 30 120 35 200 7 97 13 130 44 209 22 57 36 110 36 138 0 42 2
45 23 39 12 -3 31 -8 42 -11 28 -8 85 30 98 66 9 22 21 32 52 40 97 26 166 55
266 111 119 66 154 70 185 22 21 -31 29 -30 65 5 38 38 41 97 6 129 -13 12
-31 22 -40 22 -10 0 -71 -18 -137 -40 -66 -21 -178 -55 -251 -76 -121 -33
-132 -35 -147 -20 -25 24 -7 44 84 96 137 78 155 92 190 145 41 64 87 105 121
105 14 0 37 12 53 28 25 26 28 34 23 73 -7 54 -9 56 -30 37 -10 -8 -25 -19
-33 -23 -13 -8 -13 -7 -1 8 8 10 11 20 8 23 -8 8 -64 -23 -79 -45 -27 -38
-296 -237 -358 -265 -51 -23 -79 -29 -139 -30 l-76 -1 2 39 c2 21 9 52 18 69
8 16 15 31 15 33 0 1 -16 12 -35 24 -34 21 -35 23 -29 68 5 42 2 52 -25 89
-40 56 -75 72 -179 85 -105 13 -144 4 -229 -51 -49 -32 -63 -47 -83 -92 -32
-74 -33 -186 -1 -247 21 -41 97 -102 128 -102 18 0 17 -8 -11 -62 -15 -30 -26
-75 -31 -120 -11 -118 -43 -242 -76 -292 -17 -24 -58 -75 -93 -113 -37 -40
-79 -99 -101 -143 -21 -41 -55 -105 -76 -141 -22 -36 -51 -101 -65 -145 -44
-135 -120 -246 -194 -284 -22 -11 -51 -35 -65 -54 -14 -19 -64 -63 -110 -97
-46 -35 -90 -75 -98 -89 -9 -14 -33 -43 -54 -65 -31 -32 -47 -40 -76 -41 -20
0 -45 -8 -55 -17 -15 -14 -52 -24 -52 -14 0 14 121 624 135 679 4 17 12 25 20
21 26 -9 156 17 204 43 42 21 60 25 137 23 63 -1 99 3 124 14 19 9 46 18 60
21 40 8 110 59 117 84 4 18 -4 33 -36 66 -47 48 -45 55 27 77 66 19 71 33 30
77 -69 72 -232 392 -292 573 -20 58 -41 140 -46 182 -10 71 -36 176 -56 222
-6 16 0 13 31 -12 69 -54 84 -72 94 -110 6 -21 11 -43 11 -50 0 -6 26 -34 58
-61 45 -39 61 -62 73 -98 20 -64 45 -73 35 -13 -7 44 -7 44 10 19 29 -43 67
-80 82 -80 10 0 11 4 5 13 -5 6 -22 35 -38 62 l-28 50 66 -62 c36 -35 68 -63
71 -63 17 0 1 33 -44 88 -27 34 -50 65 -50 68 0 3 21 -13 48 -36 64 -57 82
-66 82 -42 0 11 -27 49 -60 85 -69 75 -74 90 -28 76 45 -12 54 -12 73 7 23 23
4 41 -53 50 -35 5 -54 16 -81 44 -23 24 -55 44 -89 55 -69 22 -92 42 -191 169
l-83 106 -13 238 c-13 238 -10 317 14 360 7 13 35 48 62 78 27 30 49 62 49 72
0 10 -16 45 -36 78 -70 114 -83 139 -93 196 -18 98 -43 132 -124 167 -52 22
-77 62 -77 121 0 30 5 34 96 76 l95 45 -6 43 c-6 35 -4 44 10 50 13 5 15 9 6
20 -9 10 -8 16 4 26 10 8 12 17 6 24 -6 7 -4 18 5 30 21 29 17 44 -15 60 -24
13 -30 25 -40 75 -9 44 -19 66 -38 80 -14 12 -23 27 -20 35 13 34 -154 61
-233 37z m-314 -1271 c41 -170 55 -266 43 -297 -5 -15 -28 -46 -49 -70 -31
-33 -40 -51 -40 -78 0 -36 -38 -127 -52 -123 -13 5 -117 225 -134 285 -21 72
-14 138 22 195 27 43 174 201 181 194 2 -2 15 -50 29 -106z"/>
<path d="M9627 5265 c-122 -45 -245 -132 -288 -203 -13 -20 -36 -54 -52 -74
-38 -50 -33 -78 16 -101 l39 -18 -7 -60 c-6 -54 -5 -63 15 -84 20 -21 22 -30
15 -72 -5 -26 -9 -68 -9 -93 l-1 -45 41 3 c34 2 43 -1 47 -18 4 -17 13 -20 61
-20 l57 0 -7 -64 c-6 -59 -5 -64 15 -71 11 -3 21 -10 21 -14 0 -16 53 -61 72
-61 11 0 46 16 78 36 61 37 95 41 113 12 15 -24 -15 -62 -163 -203 -70 -66
-137 -137 -149 -158 -27 -46 -58 -65 -223 -143 -80 -37 -127 -65 -128 -74 0
-9 -45 -41 -106 -75 -59 -32 -121 -69 -139 -81 -24 -16 -52 -23 -111 -26 -64
-4 -97 -13 -174 -47 -138 -60 -204 -78 -373 -102 -253 -34 -269 -35 -329 -9
-40 17 -83 25 -173 31 -66 4 -147 13 -180 18 -67 12 -78 6 -73 -35 2 -24 13
-34 57 -56 30 -15 56 -30 58 -32 3 -2 -49 -43 -114 -90 -87 -63 -126 -86 -149
-86 -33 0 -74 -35 -74 -62 0 -24 61 -31 179 -19 57 6 145 11 196 11 125 0 183
13 295 64 52 25 113 47 135 50 65 10 252 24 530 41 143 9 276 21 295 27 19 6
132 57 252 114 259 123 354 164 379 164 10 0 34 -13 52 -30 19 -16 42 -30 51
-30 9 0 53 27 98 61 103 76 198 125 284 145 l67 15 61 -37 c213 -131 540 -344
591 -384 88 -71 180 -173 214 -238 12 -22 7 -32 -43 -105 -39 -57 -56 -92 -56
-113 0 -24 -13 -46 -55 -94 -31 -34 -66 -83 -78 -108 -13 -26 -42 -78 -64
-117 -23 -38 -49 -92 -59 -120 -19 -57 -68 -139 -126 -207 -72 -87 -82 -124
-82 -283 1 -95 6 -162 18 -209 18 -77 30 -96 56 -96 12 0 22 -12 29 -32 15
-46 126 -562 156 -725 29 -154 31 -200 11 -248 -17 -40 -37 -52 -119 -70 -34
-7 -114 -24 -178 -38 -118 -25 -186 -52 -226 -90 -30 -27 -29 -48 4 -88 l27
-32 341 6 c473 9 554 21 563 84 2 11 -16 78 -39 149 -42 125 -43 133 -47 284
-3 107 1 190 12 270 27 190 21 232 -49 383 -29 62 -28 99 2 113 10 5 70 11
133 14 l115 5 31 95 c38 115 115 297 150 351 47 75 66 64 136 -76 57 -114 195
-314 232 -336 50 -30 90 -24 177 27 43 25 86 44 96 42 36 -7 87 -133 182 -448
118 -392 133 -467 108 -517 -36 -68 -98 -98 -339 -159 -57 -14 -109 -30 -115
-36 -21 -17 -15 -67 11 -93 35 -35 127 -59 226 -59 65 0 120 9 232 38 l146 37
76 -15 c140 -29 194 -17 210 46 15 60 -8 138 -60 205 -24 31 -49 73 -54 92 -5
20 -16 119 -25 221 -21 241 -53 539 -67 615 -15 81 -38 128 -103 210 -30 38
-55 72 -55 76 0 3 7 12 15 19 8 7 15 18 15 25 0 6 -32 63 -71 125 -181 289
-227 438 -239 770 -6 163 -11 205 -28 254 -28 76 -28 83 9 152 29 55 30 64 24
129 -8 96 -40 225 -69 288 -64 135 -341 371 -575 491 -61 31 -147 84 -190 117
-108 81 -317 309 -405 442 -62 93 -147 143 -295 173 -125 25 -250 16 -366 -25
-139 -50 -155 -55 -160 -49 -3 2 -9 46 -14 96 -11 107 -51 247 -82 286 -59 75
-265 120 -372 81z"/>
<path d="M4446 3543 c-3 -3 -6 -18 -6 -32 l-1 -26 -15 28 c-23 42 -37 23 -29
-37 7 -50 7 -51 -12 -33 -44 39 -52 3 -14 -68 12 -24 15 -56 13 -155 -3 -134
-14 -174 -67 -233 l-24 -28 -21 21 c-11 11 -24 20 -30 20 -5 0 -10 13 -10 30
0 25 -5 30 -37 39 -21 6 -70 11 -109 11 -93 0 -128 -22 -169 -106 -18 -36 -42
-69 -59 -79 -39 -24 -70 -96 -61 -144 10 -53 10 -104 1 -123 -6 -14 -4 -18 11
-18 32 0 59 27 78 77 23 63 33 73 47 48 7 -11 25 -33 41 -49 l29 -29 -8 -91
c-5 -50 -7 -120 -6 -156 3 -62 0 -72 -72 -232 -41 -92 -82 -193 -90 -225 -20
-78 -48 -330 -41 -364 9 -40 36 -59 93 -66 49 -5 51 -7 57 -44 8 -47 -3 -68
-75 -145 -81 -84 -116 -144 -150 -253 -23 -73 -39 -105 -74 -146 -25 -29 -51
-64 -57 -79 -11 -24 -10 -30 23 -64 19 -20 45 -58 57 -84 26 -56 67 -88 110
-88 59 0 63 63 8 143 -33 49 -41 86 -27 137 18 67 184 304 277 395 84 84 91
96 95 180 2 38 7 51 20 53 31 6 49 -52 60 -197 12 -160 5 -516 -12 -581 -15
-60 3 -93 79 -142 62 -41 91 -47 111 -23 17 20 6 57 -35 117 -44 63 -44 73 -5
399 28 228 30 259 19 330 -15 96 -10 105 51 89 32 -9 58 -8 111 2 l70 12 -6
41 c-2 22 -12 117 -20 210 -50 547 -82 711 -159 811 -41 54 -41 58 11 176 19
43 43 120 53 170 14 65 39 133 84 228 62 130 101 238 90 250 -3 3 -12 -3 -19
-13 -12 -17 -14 -16 -17 15 l-3 33 -18 -30 c-16 -27 -18 -27 -13 -6 3 13 0 34
-6 45 -11 20 -13 18 -24 -19 l-12 -40 -1 37 c-1 28 -5 36 -15 32 -11 -4 -13 0
-9 15 6 25 -4 27 -27 6 -15 -14 -16 -12 -12 14 4 28 -8 47 -22 34z m64 -167
c0 -26 -15 -43 -24 -28 -7 12 4 52 15 52 5 0 9 -11 9 -24z m-8 -100 c7 -11
-11 -56 -24 -56 -4 0 -8 6 -8 14 0 7 -3 29 -7 47 -6 32 -5 33 13 19 10 -8 22
-19 26 -24z"/>
</g>
</svg>
